v 26.000000 77.000000 13.000000 
v 17.000000 77.000000 18.000000 
v 28.000000 0.000000 13.000000 
v 17.000000 77.000000 18.000000 
v 17.000000 0.000000 19.000000 
v 28.000000 0.000000 13.000000 
v 17.000000 77.000000 18.000000 
v 17.000000 77.000000 8.000000 
v 17.000000 0.000000 19.000000 
v 17.000000 77.000000 8.000000 
v 17.000000 0.000000 6.000000 
v 17.000000 0.000000 19.000000 
v 17.000000 77.000000 8.000000 
v 26.000000 77.000000 13.000000 
v 17.000000 0.000000 6.000000 
v 26.000000 77.000000 13.000000 
v 28.000000 0.000000 13.000000 
v 17.000000 0.000000 6.000000 
v 39.000000 182.000000 8.000000 
v 31.000000 181.000000 12.000000 
v 26.000000 77.000000 13.000000 
v 31.000000 181.000000 12.000000 
v 17.000000 77.000000 18.000000 
v 26.000000 77.000000 13.000000 
v 31.000000 181.000000 12.000000 
v 31.000000 183.000000 3.000000 
v 17.000000 77.000000 18.000000 
v 31.000000 183.000000 3.000000 
v 17.000000 77.000000 8.000000 
v 17.000000 77.000000 18.000000 
v 31.000000 183.000000 3.000000 
v 39.000000 182.000000 8.000000 
v 17.000000 77.000000 8.000000 
v 39.000000 182.000000 8.000000 
v 26.000000 77.000000 13.000000 
v 17.000000 77.000000 8.000000 
v 39.000000 324.000000 25.000000 
v 31.000000 323.000000 29.000000 
v 39.000000 182.000000 8.000000 
v 31.000000 323.000000 29.000000 
v 31.000000 181.000000 12.000000 
v 39.000000 182.000000 8.000000 
v 31.000000 323.000000 29.000000 
v 31.000000 325.000000 20.000000 
v 31.000000 181.000000 12.000000 
v 31.000000 325.000000 20.000000 
v 31.000000 183.000000 3.000000 
v 31.000000 181.000000 12.000000 
v 31.000000 325.000000 20.000000 
v 39.000000 324.000000 25.000000 
v 31.000000 183.000000 3.000000 
v 39.000000 324.000000 25.000000 
v 39.000000 182.000000 8.000000 
v 31.000000 183.000000 3.000000 
v 30.000000 420.000000 48.000000 
v 31.000000 323.000000 29.000000 
v 39.000000 324.000000 25.000000 
v 30.000000 420.000000 48.000000 
v 31.000000 325.000000 20.000000 
v 31.000000 323.000000 29.000000 
v 30.000000 420.000000 48.000000 
v 39.000000 324.000000 25.000000 
v 31.000000 325.000000 20.000000 
v -5.000000 69.000000 -2.000000 
v -2.000000 69.000000 -12.000000 
v -6.000000 0.000000 -1.000000 
v -2.000000 69.000000 -12.000000 
v -2.000000 0.000000 -13.000000 
v -6.000000 0.000000 -1.000000 
v -2.000000 69.000000 -12.000000 
v 4.000000 69.000000 -4.000000 
v -2.000000 0.000000 -13.000000 
v 4.000000 69.000000 -4.000000 
v 5.000000 0.000000 -3.000000 
v -2.000000 0.000000 -13.000000 
v 4.000000 69.000000 -4.000000 
v -5.000000 69.000000 -2.000000 
v 5.000000 0.000000 -3.000000 
v -5.000000 69.000000 -2.000000 
v -6.000000 0.000000 -1.000000 
v 5.000000 0.000000 -3.000000 
v -24.000000 163.000000 -24.000000 
v -20.000000 162.000000 -33.000000 
v -5.000000 69.000000 -2.000000 
v -20.000000 162.000000 -33.000000 
v -2.000000 69.000000 -12.000000 
v -5.000000 69.000000 -2.000000 
v -20.000000 162.000000 -33.000000 
v -14.000000 164.000000 -26.000000 
v -2.000000 69.000000 -12.000000 
v -14.000000 164.000000 -26.000000 
v 4.000000 69.000000 -4.000000 
v -2.000000 69.000000 -12.000000 
v -14.000000 164.000000 -26.000000 
v -24.000000 163.000000 -24.000000 
v 4.000000 69.000000 -4.000000 
v -24.000000 163.000000 -24.000000 
v -5.000000 69.000000 -2.000000 
v 4.000000 69.000000 -4.000000 
v -35.000000 289.000000 -52.000000 
v -32.000000 287.000000 -60.000000 
v -24.000000 163.000000 -24.000000 
v -32.000000 287.000000 -60.000000 
v -20.000000 162.000000 -33.000000 
v -24.000000 163.000000 -24.000000 
v -32.000000 287.000000 -60.000000 
v -26.000000 289.000000 -54.000000 
v -20.000000 162.000000 -33.000000 
v -26.000000 289.000000 -54.000000 
v -14.000000 164.000000 -26.000000 
v -20.000000 162.000000 -33.000000 
v -26.000000 289.000000 -54.000000 
v -35.000000 289.000000 -52.000000 
v -14.000000 164.000000 -26.000000 
v -35.000000 289.000000 -52.000000 
v -24.000000 163.000000 -24.000000 
v -14.000000 164.000000 -26.000000 
v -43.000000 399.000000 -89.000000 
v -32.000000 287.000000 -60.000000 
v -35.000000 289.000000 -52.000000 
v -43.000000 399.000000 -89.000000 
v -26.000000 289.000000 -54.000000 
v -32.000000 287.000000 -60.000000 
v -43.000000 399.000000 -89.000000 
v -35.000000 289.000000 -52.000000 
v -26.000000 289.000000 -54.000000 
v -1.000000 69.000000 24.000000 
v -9.000000 69.000000 17.000000 
v -1.000000 0.000000 26.000000 
v -9.000000 69.000000 17.000000 
v -10.000000 0.000000 17.000000 
v -1.000000 0.000000 26.000000 
v -9.000000 69.000000 17.000000 
v 0.000000 69.000000 14.000000 
v -10.000000 0.000000 17.000000 
v 0.000000 69.000000 14.000000 
v 1.000000 0.000000 13.000000 
v -10.000000 0.000000 17.000000 
v 0.000000 69.000000 14.000000 
v -1.000000 69.000000 24.000000 
v 1.000000 0.000000 13.000000 
v -1.000000 69.000000 24.000000 
v -1.000000 0.000000 26.000000 
v 1.000000 0.000000 13.000000 
v -17.000000 167.000000 47.000000 
v -24.000000 166.000000 40.000000 
v -1.000000 69.000000 24.000000 
v -24.000000 166.000000 40.000000 
v -9.000000 69.000000 17.000000 
v -1.000000 69.000000 24.000000 
v -24.000000 166.000000 40.000000 
v -15.000000 169.000000 38.000000 
v -9.000000 69.000000 17.000000 
v -15.000000 169.000000 38.000000 
v 0.000000 69.000000 14.000000 
v -9.000000 69.000000 17.000000 
v -15.000000 169.000000 38.000000 
v -17.000000 167.000000 47.000000 
v 0.000000 69.000000 14.000000 
v -17.000000 167.000000 47.000000 
v -1.000000 69.000000 24.000000 
v 0.000000 69.000000 14.000000 
v -46.000000 292.000000 69.000000 
v -53.000000 291.000000 62.000000 
v -17.000000 167.000000 47.000000 
v -53.000000 291.000000 62.000000 
v -24.000000 166.000000 40.000000 
v -17.000000 167.000000 47.000000 
v -53.000000 291.000000 62.000000 
v -44.000000 294.000000 60.000000 
v -24.000000 166.000000 40.000000 
v -44.000000 294.000000 60.000000 
v -15.000000 169.000000 38.000000 
v -24.000000 166.000000 40.000000 
v -44.000000 294.000000 60.000000 
v -46.000000 292.000000 69.000000 
v -15.000000 169.000000 38.000000 
v -46.000000 292.000000 69.000000 
v -17.000000 167.000000 47.000000 
v -15.000000 169.000000 38.000000 
v -82.000000 403.000000 81.000000 
v -53.000000 291.000000 62.000000 
v -46.000000 292.000000 69.000000 
v -82.000000 403.000000 81.000000 
v -44.000000 294.000000 60.000000 
v -53.000000 291.000000 62.000000 
v -82.000000 403.000000 81.000000 
v -46.000000 292.000000 69.000000 
v -44.000000 294.000000 60.000000 
vn 0.985107 -0.167480 0.031738 
vn -0.382324 0.369141 0.846924 
vn 0.863037 0.080566 0.498291 
vn -0.382324 0.369141 0.846924 
vn -0.863037 0.080566 0.498291 
vn 0.863037 0.080566 0.498291 
vn -0.382324 0.369141 0.846924 
vn -0.516846 -0.083008 -0.851807 
vn -0.863037 0.080566 0.498291 
vn -0.516846 -0.083008 -0.851807 
vn 0.000000 0.080566 -0.996582 
vn -0.863037 0.080566 0.498291 
vn -0.516846 -0.083008 -0.851807 
vn 0.985107 -0.167480 0.031738 
vn 0.000000 0.080566 -0.996582 
vn 0.985107 -0.167480 0.031738 
vn 0.863037 0.080566 0.498291 
vn 0.000000 0.080566 -0.996582 
vn 0.878906 -0.475830 0.027832 
vn -0.486328 -0.029541 0.873047 
vn 0.985107 -0.167480 0.031738 
vn -0.486328 -0.029541 0.873047 
vn -0.382324 0.369141 0.846924 
vn 0.985107 -0.167480 0.031738 
vn -0.486328 -0.029541 0.873047 
vn -0.439209 0.512207 -0.737793 
vn -0.382324 0.369141 0.846924 
vn -0.439209 0.512207 -0.737793 
vn -0.516846 -0.083008 -0.851807 
vn -0.382324 0.369141 0.846924 
vn -0.439209 0.512207 -0.737793 
vn 0.878906 -0.475830 0.027832 
vn -0.516846 -0.083008 -0.851807 
vn 0.878906 -0.475830 0.027832 
vn 0.985107 -0.167480 0.031738 
vn -0.516846 -0.083008 -0.851807 
vn 0.916748 0.288574 -0.276123 
vn -0.253906 -0.576416 0.776367 
vn 0.878906 -0.475830 0.027832 
vn -0.253906 -0.576416 0.776367 
vn -0.486328 -0.029541 0.873047 
vn 0.878906 -0.475830 0.027832 
vn -0.253906 -0.576416 0.776367 
vn -0.785889 0.423584 -0.449951 
vn -0.486328 -0.029541 0.873047 
vn -0.785889 0.423584 -0.449951 
vn -0.439209 0.512207 -0.737793 
vn -0.486328 -0.029541 0.873047 
vn -0.785889 0.423584 -0.449951 
vn 0.916748 0.288574 -0.276123 
vn -0.439209 0.512207 -0.737793 
vn 0.916748 0.288574 -0.276123 
vn 0.878906 -0.475830 0.027832 
vn -0.439209 0.512207 -0.737793 
vn -0.862061 0.276611 0.424072 
vn -0.253906 -0.576416 0.776367 
vn 0.916748 0.288574 -0.276123 
vn -0.862061 0.276611 0.424072 
vn -0.785889 0.423584 -0.449951 
vn -0.253906 -0.576416 0.776367 
vn -0.862061 0.276611 0.424072 
vn 0.916748 0.288574 -0.276123 
vn -0.785889 0.423584 -0.449951 
vn -0.637695 -0.253174 0.727295 
vn -0.061035 -0.206055 -0.976562 
vn -0.979248 0.090088 0.181396 
vn -0.061035 -0.206055 -0.976562 
vn 0.332275 0.090088 -0.938721 
vn -0.979248 0.090088 0.181396 
vn -0.061035 -0.206055 -0.976562 
vn 0.830078 0.553223 0.068115 
vn 0.332275 0.090088 -0.938721 
vn 0.830078 0.553223 0.068115 
vn 0.646729 0.090088 0.757080 
vn 0.332275 0.090088 -0.938721 
vn 0.830078 0.553223 0.068115 
vn -0.637695 -0.253174 0.727295 
vn 0.646729 0.090088 0.757080 
vn -0.637695 -0.253174 0.727295 
vn -0.979248 0.090088 0.181396 
vn 0.646729 0.090088 0.757080 
vn -0.827637 0.159668 0.537598 
vn 0.074219 -0.754883 -0.651611 
vn -0.637695 -0.253174 0.727295 
vn 0.074219 -0.754883 -0.651611 
vn -0.061035 -0.206055 -0.976562 
vn -0.637695 -0.253174 0.727295 
vn 0.074219 -0.754883 -0.651611 
vn 0.784424 0.619629 -0.019043 
vn -0.061035 -0.206055 -0.976562 
vn 0.784424 0.619629 -0.019043 
vn 0.830078 0.553223 0.068115 
vn -0.061035 -0.206055 -0.976562 
vn 0.784424 0.619629 -0.019043 
vn -0.827637 0.159668 0.537598 
vn 0.830078 0.553223 0.068115 
vn -0.827637 0.159668 0.537598 
vn -0.637695 -0.253174 0.727295 
vn 0.830078 0.553223 0.068115 
vn -0.556396 0.549805 0.622803 
vn -0.232178 -0.786377 -0.572266 
vn -0.827637 0.159668 0.537598 
vn -0.232178 -0.786377 -0.572266 
vn 0.074219 -0.754883 -0.651611 
vn -0.827637 0.159668 0.537598 
vn -0.232178 -0.786377 -0.572266 
vn 0.938721 0.209473 -0.273193 
vn 0.074219 -0.754883 -0.651611 
vn 0.938721 0.209473 -0.273193 
vn 0.784424 0.619629 -0.019043 
vn 0.074219 -0.754883 -0.651611 
vn 0.938721 0.209473 -0.273193 
vn -0.556396 0.549805 0.622803 
vn 0.784424 0.619629 -0.019043 
vn -0.556396 0.549805 0.622803 
vn -0.827637 0.159668 0.537598 
vn 0.784424 0.619629 -0.019043 
vn 0.197998 -0.508545 -0.837646 
vn -0.232178 -0.786377 -0.572266 
vn -0.556396 0.549805 0.622803 
vn 0.197998 -0.508545 -0.837646 
vn 0.938721 0.209473 -0.273193 
vn -0.232178 -0.786377 -0.572266 
vn 0.197998 -0.508545 -0.837646 
vn -0.556396 0.549805 0.622803 
vn 0.938721 0.209473 -0.273193 
vn 0.453369 -0.370850 0.810303 
vn -0.939941 0.271240 -0.206299 
vn -0.257568 0.089355 0.961914 
vn -0.939941 0.271240 -0.206299 
vn -0.704102 0.089355 -0.704102 
vn -0.257568 0.089355 0.961914 
vn -0.939941 0.271240 -0.206299 
vn 0.617188 0.526123 -0.584473 
vn -0.704102 0.089355 -0.704102 
vn 0.617188 0.526123 -0.584473 
vn 0.961914 0.089355 -0.257568 
vn -0.704102 0.089355 -0.704102 
vn 0.617188 0.526123 -0.584473 
vn 0.453369 -0.370850 0.810303 
vn 0.961914 0.089355 -0.257568 
vn 0.453369 -0.370850 0.810303 
vn -0.257568 0.089355 0.961914 
vn 0.961914 0.089355 -0.257568 
vn 0.504883 -0.382324 0.773682 
vn -0.794922 -0.344482 -0.499023 
vn 0.453369 -0.370850 0.810303 
vn -0.794922 -0.344482 -0.499023 
vn -0.939941 0.271240 -0.206299 
vn 0.453369 -0.370850 0.810303 
vn -0.794922 -0.344482 -0.499023 
vn 0.394775 0.841064 -0.369385 
vn -0.939941 0.271240 -0.206299 
vn 0.394775 0.841064 -0.369385 
vn 0.617188 0.526123 -0.584473 
vn -0.939941 0.271240 -0.206299 
vn 0.394775 0.841064 -0.369385 
vn 0.504883 -0.382324 0.773682 
vn 0.617188 0.526123 -0.584473 
vn 0.504883 -0.382324 0.773682 
vn 0.453369 -0.370850 0.810303 
vn 0.617188 0.526123 -0.584473 
vn 0.635010 0.249512 0.730957 
vn -0.704834 -0.670654 -0.229980 
vn 0.504883 -0.382324 0.773682 
vn -0.704834 -0.670654 -0.229980 
vn -0.794922 -0.344482 -0.499023 
vn 0.504883 -0.382324 0.773682 
vn -0.704834 -0.670654 -0.229980 
vn 0.161621 0.784424 -0.598633 
vn -0.794922 -0.344482 -0.499023 
vn 0.161621 0.784424 -0.598633 
vn 0.394775 0.841064 -0.369385 
vn -0.794922 -0.344482 -0.499023 
vn 0.161621 0.784424 -0.598633 
vn 0.635010 0.249512 0.730957 
vn 0.394775 0.841064 -0.369385 
vn 0.635010 0.249512 0.730957 
vn 0.504883 -0.382324 0.773682 
vn 0.394775 0.841064 -0.369385 
vn -0.114502 0.784424 -0.609131 
vn -0.704834 -0.670654 -0.229980 
vn 0.635010 0.249512 0.730957 
vn -0.114502 0.784424 -0.609131 
vn 0.161621 0.784424 -0.598633 
vn -0.704834 -0.670654 -0.229980 
vn -0.114502 0.784424 -0.609131 
vn 0.635010 0.249512 0.730957 
vn 0.161621 0.784424 -0.598633 
vt 0.920635 0.881890 
vt 0.031746 0.905512 
vt 0.968254 0.078740 
vt 0.031746 0.905512 
vt 0.031746 0.047244 
vt 0.968254 0.078740 
vt 0.031746 0.905512 
vt 0.476190 0.897638 
vt 0.031746 0.047244 
vt 0.476190 0.897638 
vt 0.507937 0.047244 
vt 0.031746 0.047244 
vt 0.476190 0.897638 
vt 0.920635 0.881890 
vt 0.507937 0.047244 
vt 0.920635 0.881890 
vt 0.968254 0.078740 
vt 0.507937 0.047244 
vt 0.952381 0.937008 
vt 0.031746 0.519685 
vt 0.920635 0.881890 
vt 0.031746 0.519685 
vt 0.031746 0.905512 
vt 0.920635 0.881890 
vt 0.031746 0.519685 
vt 0.920635 0.448819 
vt 0.031746 0.905512 
vt 0.920635 0.448819 
vt 0.476190 0.897638 
vt 0.031746 0.905512 
vt 0.920635 0.448819 
vt 0.952381 0.937008 
vt 0.476190 0.897638 
vt 0.952381 0.937008 
vt 0.920635 0.881890 
vt 0.476190 0.897638 
vt 0.079365 0.889764 
vt 0.095238 0.929134 
vt 0.952381 0.937008 
vt 0.095238 0.929134 
vt 0.031746 0.519685 
vt 0.952381 0.937008 
vt 0.095238 0.929134 
vt 0.825397 0.937008 
vt 0.031746 0.519685 
vt 0.825397 0.937008 
vt 0.920635 0.448819 
vt 0.031746 0.519685 
vt 0.825397 0.937008 
vt 0.079365 0.889764 
vt 0.920635 0.448819 
vt 0.079365 0.889764 
vt 0.952381 0.937008 
vt 0.920635 0.448819 
vt 0.460317 0.748031 
vt 0.095238 0.929134 
vt 0.079365 0.889764 
vt 0.460317 0.748031 
vt 0.825397 0.937008 
vt 0.095238 0.929134 
vt 0.460317 0.748031 
vt 0.079365 0.889764 
vt 0.825397 0.937008 
vt 0.920635 0.881890 
vt 0.031746 0.905512 
vt 0.968254 0.078740 
vt 0.031746 0.905512 
vt 0.031746 0.047244 
vt 0.968254 0.078740 
vt 0.031746 0.905512 
vt 0.476190 0.897638 
vt 0.031746 0.047244 
vt 0.476190 0.897638 
vt 0.507937 0.047244 
vt 0.031746 0.047244 
vt 0.476190 0.897638 
vt 0.920635 0.881890 
vt 0.507937 0.047244 
vt 0.920635 0.881890 
vt 0.968254 0.078740 
vt 0.507937 0.047244 
vt 0.952381 0.937008 
vt 0.031746 0.519685 
vt 0.920635 0.881890 
vt 0.031746 0.519685 
vt 0.031746 0.905512 
vt 0.920635 0.881890 
vt 0.031746 0.519685 
vt 0.920635 0.448819 
vt 0.031746 0.905512 
vt 0.920635 0.448819 
vt 0.476190 0.897638 
vt 0.031746 0.905512 
vt 0.920635 0.448819 
vt 0.952381 0.937008 
vt 0.476190 0.897638 
vt 0.952381 0.937008 
vt 0.920635 0.881890 
vt 0.476190 0.897638 
vt 0.079365 0.889764 
vt 0.095238 0.929134 
vt 0.952381 0.937008 
vt 0.095238 0.929134 
vt 0.031746 0.519685 
vt 0.952381 0.937008 
vt 0.095238 0.929134 
vt 0.825397 0.937008 
vt 0.031746 0.519685 
vt 0.825397 0.937008 
vt 0.920635 0.448819 
vt 0.031746 0.519685 
vt 0.825397 0.937008 
vt 0.079365 0.889764 
vt 0.920635 0.448819 
vt 0.079365 0.889764 
vt 0.952381 0.937008 
vt 0.920635 0.448819 
vt 0.460317 0.748031 
vt 0.095238 0.929134 
vt 0.079365 0.889764 
vt 0.460317 0.748031 
vt 0.825397 0.937008 
vt 0.095238 0.929134 
vt 0.460317 0.748031 
vt 0.079365 0.889764 
vt 0.825397 0.937008 
vt 0.920635 0.881890 
vt 0.031746 0.905512 
vt 0.968254 0.078740 
vt 0.031746 0.905512 
vt 0.031746 0.047244 
vt 0.968254 0.078740 
vt 0.031746 0.905512 
vt 0.476190 0.897638 
vt 0.031746 0.047244 
vt 0.476190 0.897638 
vt 0.507937 0.047244 
vt 0.031746 0.047244 
vt 0.476190 0.897638 
vt 0.920635 0.881890 
vt 0.507937 0.047244 
vt 0.920635 0.881890 
vt 0.968254 0.078740 
vt 0.507937 0.047244 
vt 0.952381 0.937008 
vt 0.031746 0.519685 
vt 0.920635 0.881890 
vt 0.031746 0.519685 
vt 0.031746 0.905512 
vt 0.920635 0.881890 
vt 0.031746 0.519685 
vt 0.920635 0.448819 
vt 0.031746 0.905512 
vt 0.920635 0.448819 
vt 0.476190 0.897638 
vt 0.031746 0.905512 
vt 0.920635 0.448819 
vt 0.952381 0.937008 
vt 0.476190 0.897638 
vt 0.952381 0.937008 
vt 0.920635 0.881890 
vt 0.476190 0.897638 
vt 0.079365 0.889764 
vt 0.095238 0.929134 
vt 0.952381 0.937008 
vt 0.095238 0.929134 
vt 0.031746 0.519685 
vt 0.952381 0.937008 
vt 0.095238 0.929134 
vt 0.825397 0.937008 
vt 0.031746 0.519685 
vt 0.825397 0.937008 
vt 0.920635 0.448819 
vt 0.031746 0.519685 
vt 0.825397 0.937008 
vt 0.079365 0.889764 
vt 0.920635 0.448819 
vt 0.079365 0.889764 
vt 0.952381 0.937008 
vt 0.920635 0.448819 
vt 0.460317 0.748031 
vt 0.095238 0.929134 
vt 0.079365 0.889764 
vt 0.460317 0.748031 
vt 0.825397 0.937008 
vt 0.095238 0.929134 
vt 0.460317 0.748031 
vt 0.079365 0.889764 
vt 0.825397 0.937008 
f 1/1/1 2/2/2 3/3/3
f 4/4/4 5/5/5 6/6/6
f 7/7/7 8/8/8 9/9/9
f 10/10/10 11/11/11 12/12/12
f 13/13/13 14/14/14 15/15/15
f 16/16/16 17/17/17 18/18/18
f 19/19/19 20/20/20 21/21/21
f 22/22/22 23/23/23 24/24/24
f 25/25/25 26/26/26 27/27/27
f 28/28/28 29/29/29 30/30/30
f 31/31/31 32/32/32 33/33/33
f 34/34/34 35/35/35 36/36/36
f 37/37/37 38/38/38 39/39/39
f 40/40/40 41/41/41 42/42/42
f 43/43/43 44/44/44 45/45/45
f 46/46/46 47/47/47 48/48/48
f 49/49/49 50/50/50 51/51/51
f 52/52/52 53/53/53 54/54/54
f 55/55/55 56/56/56 57/57/57
f 58/58/58 59/59/59 60/60/60
f 61/61/61 62/62/62 63/63/63
f 64/64/64 65/65/65 66/66/66
f 67/67/67 68/68/68 69/69/69
f 70/70/70 71/71/71 72/72/72
f 73/73/73 74/74/74 75/75/75
f 76/76/76 77/77/77 78/78/78
f 79/79/79 80/80/80 81/81/81
f 82/82/82 83/83/83 84/84/84
f 85/85/85 86/86/86 87/87/87
f 88/88/88 89/89/89 90/90/90
f 91/91/91 92/92/92 93/93/93
f 94/94/94 95/95/95 96/96/96
f 97/97/97 98/98/98 99/99/99
f 100/100/100 101/101/101 102/102/102
f 103/103/103 104/104/104 105/105/105
f 106/106/106 107/107/107 108/108/108
f 109/109/109 110/110/110 111/111/111
f 112/112/112 113/113/113 114/114/114
f 115/115/115 116/116/116 117/117/117
f 118/118/118 119/119/119 120/120/120
f 121/121/121 122/122/122 123/123/123
f 124/124/124 125/125/125 126/126/126
f 127/127/127 128/128/128 129/129/129
f 130/130/130 131/131/131 132/132/132
f 133/133/133 134/134/134 135/135/135
f 136/136/136 137/137/137 138/138/138
f 139/139/139 140/140/140 141/141/141
f 142/142/142 143/143/143 144/144/144
f 145/145/145 146/146/146 147/147/147
f 148/148/148 149/149/149 150/150/150
f 151/151/151 152/152/152 153/153/153
f 154/154/154 155/155/155 156/156/156
f 157/157/157 158/158/158 159/159/159
f 160/160/160 161/161/161 162/162/162
f 163/163/163 164/164/164 165/165/165
f 166/166/166 167/167/167 168/168/168
f 169/169/169 170/170/170 171/171/171
f 172/172/172 173/173/173 174/174/174
f 175/175/175 176/176/176 177/177/177
f 178/178/178 179/179/179 180/180/180
f 181/181/181 182/182/182 183/183/183
f 184/184/184 185/185/185 186/186/186
f 187/187/187 188/188/188 189/189/189
