v -4.000000 -4.000000 5.000000 
v -6.000000 -3.000000 5.000000 
v -6.000000 -4.000000 0.000000 
v -6.000000 -4.000000 0.000000 
v -3.000000 -4.000000 0.000000 
v -4.000000 -4.000000 5.000000 
v 14.000000 -6.000000 11.000000 
v -4.000000 -4.000000 5.000000 
v -3.000000 -4.000000 0.000000 
v -3.000000 -4.000000 0.000000 
v 14.000000 -8.000000 -11.000000 
v 14.000000 -6.000000 11.000000 
v -3.000000 2.000000 5.000000 
v -3.000000 2.000000 0.000000 
v -6.000000 2.000000 0.000000 
v -6.000000 2.000000 0.000000 
v -6.000000 2.000000 5.000000 
v -3.000000 2.000000 5.000000 
v 14.000000 9.000000 15.000000 
v 14.000000 9.000000 -8.000000 
v -3.000000 2.000000 0.000000 
v -3.000000 2.000000 0.000000 
v -3.000000 2.000000 5.000000 
v 14.000000 9.000000 15.000000 
v 33.000000 9.000000 15.000000 
v 33.000000 10.000000 -11.000000 
v 14.000000 9.000000 -8.000000 
v 14.000000 9.000000 -8.000000 
v 14.000000 9.000000 15.000000 
v 33.000000 9.000000 15.000000 
v -3.000000 0.000000 -1.000000 
v -3.000000 -4.000000 0.000000 
v -6.000000 -4.000000 0.000000 
v -6.000000 -4.000000 0.000000 
v -6.000000 0.000000 -1.000000 
v -3.000000 0.000000 -1.000000 
v 14.000000 0.000000 -15.000000 
v 14.000000 -8.000000 -11.000000 
v -3.000000 -4.000000 0.000000 
v -3.000000 -4.000000 0.000000 
v -3.000000 0.000000 -1.000000 
v 14.000000 0.000000 -15.000000 
v 45.000000 -6.000000 -17.000000 
v 41.000000 -11.000000 -12.000000 
v 39.000000 -17.000000 -16.000000 
v 39.000000 -17.000000 -16.000000 
v 41.000000 -12.000000 -21.000000 
v 45.000000 -6.000000 -17.000000 
v -3.000000 2.000000 0.000000 
v -3.000000 0.000000 -1.000000 
v -6.000000 0.000000 -1.000000 
v -6.000000 0.000000 -1.000000 
v -6.000000 2.000000 0.000000 
v -3.000000 2.000000 0.000000 
v 14.000000 9.000000 -8.000000 
v 14.000000 0.000000 -15.000000 
v -3.000000 0.000000 -1.000000 
v -3.000000 0.000000 -1.000000 
v -3.000000 2.000000 0.000000 
v 14.000000 9.000000 -8.000000 
v 33.000000 10.000000 -11.000000 
v 30.000000 2.000000 -13.000000 
v 14.000000 0.000000 -15.000000 
v 14.000000 0.000000 -15.000000 
v 14.000000 9.000000 -8.000000 
v 33.000000 10.000000 -11.000000 
v 67.000000 0.000000 15.000000 
v 69.000000 -4.000000 16.000000 
v 68.000000 -4.000000 -8.000000 
v 68.000000 -4.000000 -8.000000 
v 68.000000 0.000000 -6.000000 
v 67.000000 0.000000 15.000000 
v -3.000000 0.000000 6.000000 
v -4.000000 -4.000000 5.000000 
v 14.000000 -6.000000 11.000000 
v 14.000000 -6.000000 11.000000 
v 14.000000 0.000000 20.000000 
v -3.000000 0.000000 6.000000 
v -6.000000 0.000000 6.000000 
v -6.000000 -3.000000 5.000000 
v -4.000000 -4.000000 5.000000 
v -4.000000 -4.000000 5.000000 
v -3.000000 0.000000 6.000000 
v -6.000000 0.000000 6.000000 
v 14.000000 9.000000 15.000000 
v 14.000000 0.000000 20.000000 
v 33.000000 3.000000 22.000000 
v 33.000000 3.000000 22.000000 
v 33.000000 9.000000 15.000000 
v 14.000000 9.000000 15.000000 
v -3.000000 2.000000 5.000000 
v -3.000000 0.000000 6.000000 
v 14.000000 0.000000 20.000000 
v 14.000000 0.000000 20.000000 
v 14.000000 9.000000 15.000000 
v -3.000000 2.000000 5.000000 
v -6.000000 2.000000 5.000000 
v -6.000000 0.000000 6.000000 
v -3.000000 0.000000 6.000000 
v -3.000000 0.000000 6.000000 
v -3.000000 2.000000 5.000000 
v -6.000000 2.000000 5.000000 
v 55.000000 7.000000 -8.000000 
v 33.000000 10.000000 -11.000000 
v 33.000000 9.000000 15.000000 
v 33.000000 9.000000 15.000000 
v 55.000000 7.000000 13.000000 
v 55.000000 7.000000 -8.000000 
v 55.000000 1.000000 -12.000000 
v 30.000000 2.000000 -13.000000 
v 33.000000 10.000000 -11.000000 
v 33.000000 10.000000 -11.000000 
v 55.000000 7.000000 -8.000000 
v 55.000000 1.000000 -12.000000 
v 55.000000 1.000000 19.000000 
v 33.000000 3.000000 22.000000 
v 30.000000 2.000000 -13.000000 
v 30.000000 2.000000 -13.000000 
v 55.000000 1.000000 -12.000000 
v 55.000000 1.000000 19.000000 
v 55.000000 7.000000 13.000000 
v 33.000000 9.000000 15.000000 
v 33.000000 3.000000 22.000000 
v 33.000000 3.000000 22.000000 
v 55.000000 1.000000 19.000000 
v 55.000000 7.000000 13.000000 
v 69.000000 -4.000000 16.000000 
v 55.000000 1.000000 19.000000 
v 55.000000 1.000000 -12.000000 
v 55.000000 1.000000 -12.000000 
v 68.000000 -4.000000 -8.000000 
v 69.000000 -4.000000 16.000000 
v 67.000000 0.000000 15.000000 
v 55.000000 7.000000 13.000000 
v 55.000000 1.000000 19.000000 
v 55.000000 1.000000 19.000000 
v 69.000000 -4.000000 16.000000 
v 67.000000 0.000000 15.000000 
v 68.000000 0.000000 -6.000000 
v 55.000000 7.000000 -8.000000 
v 55.000000 7.000000 13.000000 
v 55.000000 7.000000 13.000000 
v 67.000000 0.000000 15.000000 
v 68.000000 0.000000 -6.000000 
v 68.000000 -4.000000 -8.000000 
v 55.000000 1.000000 -12.000000 
v 55.000000 7.000000 -8.000000 
v 55.000000 7.000000 -8.000000 
v 68.000000 0.000000 -6.000000 
v 68.000000 -4.000000 -8.000000 
v 35.000000 -10.000000 -12.000000 
v 27.000000 -4.000000 -9.000000 
v 14.000000 -8.000000 -11.000000 
v 14.000000 -8.000000 -11.000000 
v 27.000000 -11.000000 -18.000000 
v 35.000000 -10.000000 -12.000000 
v 27.000000 -11.000000 -18.000000 
v 14.000000 -8.000000 -11.000000 
v 14.000000 0.000000 -15.000000 
v 14.000000 0.000000 -15.000000 
v 30.000000 -7.000000 -19.000000 
v 27.000000 -11.000000 -18.000000 
v 35.000000 -3.000000 -15.000000 
v 30.000000 2.000000 -13.000000 
v 27.000000 -4.000000 -9.000000 
v 27.000000 -4.000000 -9.000000 
v 35.000000 -10.000000 -12.000000 
v 35.000000 -3.000000 -15.000000 
v 30.000000 -7.000000 -19.000000 
v 14.000000 0.000000 -15.000000 
v 30.000000 2.000000 -13.000000 
v 30.000000 2.000000 -13.000000 
v 35.000000 -3.000000 -15.000000 
v 30.000000 -7.000000 -19.000000 
v 41.000000 -11.000000 -12.000000 
v 35.000000 -10.000000 -12.000000 
v 27.000000 -11.000000 -18.000000 
v 27.000000 -11.000000 -18.000000 
v 39.000000 -17.000000 -16.000000 
v 41.000000 -11.000000 -12.000000 
v 45.000000 -6.000000 -17.000000 
v 35.000000 -3.000000 -15.000000 
v 35.000000 -10.000000 -12.000000 
v 35.000000 -10.000000 -12.000000 
v 41.000000 -11.000000 -12.000000 
v 45.000000 -6.000000 -17.000000 
v 41.000000 -12.000000 -21.000000 
v 30.000000 -7.000000 -19.000000 
v 35.000000 -3.000000 -15.000000 
v 35.000000 -3.000000 -15.000000 
v 45.000000 -6.000000 -17.000000 
v 41.000000 -12.000000 -21.000000 
v 39.000000 -17.000000 -16.000000 
v 27.000000 -11.000000 -18.000000 
v 30.000000 -7.000000 -19.000000 
v 30.000000 -7.000000 -19.000000 
v 41.000000 -12.000000 -21.000000 
v 39.000000 -17.000000 -16.000000 
v 14.000000 -6.000000 11.000000 
v 33.000000 3.000000 22.000000 
v 14.000000 0.000000 20.000000 
v 33.000000 3.000000 22.000000 
v 14.000000 -6.000000 11.000000 
v 14.000000 -8.000000 -11.000000 
v 27.000000 -4.000000 -9.000000 
v 33.000000 3.000000 22.000000 
v 14.000000 -8.000000 -11.000000 
v 30.000000 2.000000 -13.000000 
v 33.000000 3.000000 22.000000 
v 27.000000 -4.000000 -9.000000 
vn -0.119141 -0.799805 0.587891 
vn -0.011963 -0.802490 0.596436 
vn -0.008301 -0.838623 -0.544434 
vn -0.008301 -0.838623 -0.544434 
vn -0.332764 -0.814941 -0.474121 
vn -0.119141 -0.799805 0.587891 
vn -0.112305 -0.880127 0.460938 
vn -0.119141 -0.799805 0.587891 
vn -0.332764 -0.814941 -0.474121 
vn -0.332764 -0.814941 -0.474121 
vn -0.120361 -0.992188 0.025391 
vn -0.112305 -0.880127 0.460938 
vn -0.313232 0.814697 0.487305 
vn -0.272705 0.770264 -0.576172 
vn 0.012695 0.916260 -0.399658 
vn 0.012695 0.916260 -0.399658 
vn 0.005615 0.693848 0.719727 
vn -0.313232 0.814697 0.487305 
vn -0.314453 0.828369 0.463135 
vn -0.347412 0.811768 -0.468994 
vn -0.272705 0.770264 -0.576172 
vn -0.272705 0.770264 -0.576172 
vn -0.313232 0.814697 0.487305 
vn -0.314453 0.828369 0.463135 
vn 0.053711 0.957031 0.284424 
vn 0.058350 0.692627 -0.718750 
vn -0.347412 0.811768 -0.468994 
vn -0.347412 0.811768 -0.468994 
vn -0.314453 0.828369 0.463135 
vn 0.053711 0.957031 0.284424 
vn -0.312500 -0.008545 -0.949707 
vn -0.332764 -0.814941 -0.474121 
vn -0.008301 -0.838623 -0.544434 
vn -0.008301 -0.838623 -0.544434 
vn 0.004883 0.091309 -0.995605 
vn -0.312500 -0.008545 -0.949707 
vn -0.359863 0.084717 -0.928955 
vn -0.120361 -0.992188 0.025391 
vn -0.332764 -0.814941 -0.474121 
vn -0.332764 -0.814941 -0.474121 
vn -0.312500 -0.008545 -0.949707 
vn -0.359863 0.084717 -0.928955 
vn 0.889893 0.154053 0.428955 
vn 0.212891 -0.421387 0.881348 
vn 0.476562 -0.839844 -0.259766 
vn 0.476562 -0.839844 -0.259766 
vn 0.266846 -0.006348 -0.963623 
vn 0.889893 0.154053 0.428955 
vn -0.272705 0.770264 -0.576172 
vn -0.312500 -0.008545 -0.949707 
vn 0.004883 0.091309 -0.995605 
vn 0.004883 0.091309 -0.995605 
vn 0.012695 0.916260 -0.399658 
vn -0.272705 0.770264 -0.576172 
vn -0.347412 0.811768 -0.468994 
vn -0.359863 0.084717 -0.928955 
vn -0.312500 -0.008545 -0.949707 
vn -0.312500 -0.008545 -0.949707 
vn -0.272705 0.770264 -0.576172 
vn -0.347412 0.811768 -0.468994 
vn 0.058350 0.692627 -0.718750 
vn 0.497314 -0.262207 -0.826660 
vn -0.359863 0.084717 -0.928955 
vn -0.359863 0.084717 -0.928955 
vn -0.347412 0.811768 -0.468994 
vn 0.058350 0.692627 -0.718750 
vn 0.786377 0.466064 0.404785 
vn 0.227539 -0.771484 0.593750 
vn 0.798096 0.005127 -0.602295 
vn 0.798096 0.005127 -0.602295 
vn 0.745605 0.595459 -0.298096 
vn 0.786377 0.466064 0.404785 
vn -0.260498 -0.040771 0.964600 
vn -0.119141 -0.799805 0.587891 
vn -0.112305 -0.880127 0.460938 
vn -0.112305 -0.880127 0.460938 
vn -0.398926 -0.096191 0.911621 
vn -0.260498 -0.040771 0.964600 
vn -0.004883 -0.091309 0.995605 
vn -0.011963 -0.802490 0.596436 
vn -0.119141 -0.799805 0.587891 
vn -0.119141 -0.799805 0.587891 
vn -0.260498 -0.040771 0.964600 
vn -0.004883 -0.091309 0.995605 
vn -0.314453 0.828369 0.463135 
vn -0.398926 -0.096191 0.911621 
vn 0.388916 -0.344238 0.854248 
vn 0.388916 -0.344238 0.854248 
vn 0.053711 0.957031 0.284424 
vn -0.314453 0.828369 0.463135 
vn -0.313232 0.814697 0.487305 
vn -0.260498 -0.040771 0.964600 
vn -0.398926 -0.096191 0.911621 
vn -0.398926 -0.096191 0.911621 
vn -0.314453 0.828369 0.463135 
vn -0.313232 0.814697 0.487305 
vn 0.005615 0.693848 0.719727 
vn -0.004883 -0.091309 0.995605 
vn -0.260498 -0.040771 0.964600 
vn -0.260498 -0.040771 0.964600 
vn -0.313232 0.814697 0.487305 
vn 0.005615 0.693848 0.719727 
vn 0.343506 0.798584 -0.493896 
vn 0.058350 0.692627 -0.718750 
vn 0.053711 0.957031 0.284424 
vn 0.053711 0.957031 0.284424 
vn 0.342529 0.834961 0.430420 
vn 0.343506 0.798584 -0.493896 
vn -0.077881 -0.542480 -0.836182 
vn 0.497314 -0.262207 -0.826660 
vn 0.058350 0.692627 -0.718750 
vn 0.058350 0.692627 -0.718750 
vn 0.343506 0.798584 -0.493896 
vn -0.077881 -0.542480 -0.836182 
vn 0.077881 -0.481689 0.872803 
vn 0.388916 -0.344238 0.854248 
vn 0.497314 -0.262207 -0.826660 
vn 0.497314 -0.262207 -0.826660 
vn -0.077881 -0.542480 -0.836182 
vn 0.077881 -0.481689 0.872803 
vn 0.342529 0.834961 0.430420 
vn 0.053711 0.957031 0.284424 
vn 0.388916 -0.344238 0.854248 
vn 0.388916 -0.344238 0.854248 
vn 0.077881 -0.481689 0.872803 
vn 0.342529 0.834961 0.430420 
vn 0.227539 -0.771484 0.593750 
vn 0.077881 -0.481689 0.872803 
vn -0.077881 -0.542480 -0.836182 
vn -0.077881 -0.542480 -0.836182 
vn 0.798096 0.005127 -0.602295 
vn 0.227539 -0.771484 0.593750 
vn 0.786377 0.466064 0.404785 
vn 0.342529 0.834961 0.430420 
vn 0.077881 -0.481689 0.872803 
vn 0.077881 -0.481689 0.872803 
vn 0.227539 -0.771484 0.593750 
vn 0.786377 0.466064 0.404785 
vn 0.745605 0.595459 -0.298096 
vn 0.343506 0.798584 -0.493896 
vn 0.342529 0.834961 0.430420 
vn 0.342529 0.834961 0.430420 
vn 0.786377 0.466064 0.404785 
vn 0.745605 0.595459 -0.298096 
vn 0.798096 0.005127 -0.602295 
vn -0.077881 -0.542480 -0.836182 
vn 0.343506 0.798584 -0.493896 
vn 0.343506 0.798584 -0.493896 
vn 0.745605 0.595459 -0.298096 
vn 0.798096 0.005127 -0.602295 
vn 0.177002 -0.225098 0.958008 
vn 0.616455 -0.303955 0.726318 
vn -0.120361 -0.992188 0.025391 
vn -0.120361 -0.992188 0.025391 
vn -0.411133 -0.849365 -0.330811 
vn 0.177002 -0.225098 0.958008 
vn -0.411133 -0.849365 -0.330811 
vn -0.120361 -0.992188 0.025391 
vn -0.359863 0.084717 -0.928955 
vn -0.359863 0.084717 -0.928955 
vn -0.023438 0.114258 -0.992920 
vn -0.411133 -0.849365 -0.330811 
vn 0.615967 0.787109 -0.027344 
vn 0.497314 -0.262207 -0.826660 
vn 0.616455 -0.303955 0.726318 
vn 0.616455 -0.303955 0.726318 
vn 0.177002 -0.225098 0.958008 
vn 0.615967 0.787109 -0.027344 
vn -0.023438 0.114258 -0.992920 
vn -0.359863 0.084717 -0.928955 
vn 0.497314 -0.262207 -0.826660 
vn 0.497314 -0.262207 -0.826660 
vn 0.615967 0.787109 -0.027344 
vn -0.023438 0.114258 -0.992920 
vn 0.212891 -0.421387 0.881348 
vn 0.177002 -0.225098 0.958008 
vn -0.411133 -0.849365 -0.330811 
vn -0.411133 -0.849365 -0.330811 
vn 0.476562 -0.839844 -0.259766 
vn 0.212891 -0.421387 0.881348 
vn 0.889893 0.154053 0.428955 
vn 0.615967 0.787109 -0.027344 
vn 0.177002 -0.225098 0.958008 
vn 0.177002 -0.225098 0.958008 
vn 0.212891 -0.421387 0.881348 
vn 0.889893 0.154053 0.428955 
vn 0.266846 -0.006348 -0.963623 
vn -0.023438 0.114258 -0.992920 
vn 0.615967 0.787109 -0.027344 
vn 0.615967 0.787109 -0.027344 
vn 0.889893 0.154053 0.428955 
vn 0.266846 -0.006348 -0.963623 
vn 0.476562 -0.839844 -0.259766 
vn -0.411133 -0.849365 -0.330811 
vn -0.023438 0.114258 -0.992920 
vn -0.023438 0.114258 -0.992920 
vn 0.266846 -0.006348 -0.963623 
vn 0.476562 -0.839844 -0.259766 
vn -0.112305 -0.880127 0.460938 
vn 0.388916 -0.344238 0.854248 
vn -0.398926 -0.096191 0.911621 
vn 0.388916 -0.344238 0.854248 
vn -0.112305 -0.880127 0.460938 
vn -0.120361 -0.992188 0.025391 
vn 0.616455 -0.303955 0.726318 
vn 0.388916 -0.344238 0.854248 
vn -0.120361 -0.992188 0.025391 
vn 0.497314 -0.262207 -0.826660 
vn 0.388916 -0.344238 0.854248 
vn 0.616455 -0.303955 0.726318 
vt 0.354839 0.000000 
vt 0.354839 -0.032258 
vt 0.483871 -0.032258 
vt 0.483871 -0.032258 
vt 0.483871 0.000000 
vt 0.354839 0.000000 
vt 0.225806 0.258065 
vt 0.354839 0.000000 
vt 0.483871 0.000000 
vt 0.483871 0.000000 
vt 0.741935 0.258065 
vt 0.225806 0.258065 
vt 0.354839 0.000000 
vt 0.483871 0.000000 
vt 0.483871 -0.032258 
vt 0.483871 -0.032258 
vt 0.354839 -0.032258 
vt 0.354839 0.000000 
vt 0.129032 0.258065 
vt 0.677419 0.258065 
vt 0.483871 0.000000 
vt 0.483871 0.000000 
vt 0.354839 0.000000 
vt 0.129032 0.258065 
vt 0.193548 0.451613 
vt 0.516129 0.419355 
vt 0.516129 0.290323 
vt 0.516129 0.290323 
vt 0.161290 0.290323 
vt 0.193548 0.451613 
vt 0.516129 0.000000 
vt 0.483871 0.000000 
vt 0.483871 -0.032258 
vt 0.483871 -0.032258 
vt 0.516129 -0.032258 
vt 0.516129 0.000000 
vt 0.838710 0.258065 
vt 0.741935 0.258065 
vt 0.483871 0.000000 
vt 0.483871 0.000000 
vt 0.516129 0.000000 
vt 0.838710 0.258065 
vt 0.870968 0.677419 
vt 0.838710 0.612903 
vt 0.967742 0.580645 
vt 0.967742 0.580645 
vt 1.000000 0.645161 
vt 0.870968 0.677419 
vt 0.483871 0.000000 
vt 0.516129 0.000000 
vt 0.516129 -0.032258 
vt 0.516129 -0.032258 
vt 0.483871 -0.032258 
vt 0.483871 0.000000 
vt 0.677419 0.258065 
vt 0.838710 0.258065 
vt 0.516129 0.000000 
vt 0.516129 0.000000 
vt 0.483871 0.000000 
vt 0.677419 0.258065 
vt 0.516129 0.419355 
vt 0.548387 0.451613 
vt 0.548387 0.322581 
vt 0.548387 0.322581 
vt 0.516129 0.290323 
vt 0.516129 0.419355 
vt 0.161290 0.935484 
vt 0.161290 0.967742 
vt 0.548387 1.000000 
vt 0.548387 1.000000 
vt 0.483871 0.935484 
vt 0.161290 0.935484 
vt 0.322581 0.000000 
vt 0.354839 0.000000 
vt 0.225806 0.258065 
vt 0.225806 0.258065 
vt 0.000000 0.258065 
vt 0.322581 0.000000 
vt 0.322581 -0.032258 
vt 0.354839 -0.032258 
vt 0.354839 0.000000 
vt 0.354839 0.000000 
vt 0.322581 0.000000 
vt 0.322581 -0.032258 
vt 0.161290 0.290323 
vt 0.096774 0.290323 
vt 0.161290 0.516129 
vt 0.161290 0.516129 
vt 0.193548 0.451613 
vt 0.161290 0.290323 
vt 0.354839 0.000000 
vt 0.322581 0.000000 
vt 0.000000 0.258065 
vt 0.000000 0.258065 
vt 0.129032 0.258065 
vt 0.354839 0.000000 
vt 0.354839 -0.032258 
vt 0.322581 -0.032258 
vt 0.322581 0.000000 
vt 0.322581 0.000000 
vt 0.354839 0.000000 
vt 0.354839 -0.032258 
vt 0.483871 0.774194 
vt 0.516129 0.419355 
vt 0.193548 0.451613 
vt 0.193548 0.451613 
vt 0.193548 0.741935 
vt 0.483871 0.774194 
vt 0.548387 0.741935 
vt 0.548387 0.451613 
vt 0.516129 0.419355 
vt 0.516129 0.419355 
vt 0.483871 0.774194 
vt 0.548387 0.741935 
vt 0.129032 0.645161 
vt 0.129032 0.516129 
vt 0.548387 0.516129 
vt 0.548387 0.516129 
vt 0.548387 0.677419 
vt 0.129032 0.645161 
vt 0.193548 0.741935 
vt 0.193548 0.451613 
vt 0.161290 0.516129 
vt 0.161290 0.516129 
vt 0.129032 0.741935 
vt 0.193548 0.741935 
vt 0.129032 0.806452 
vt 0.129032 0.645161 
vt 0.548387 0.677419 
vt 0.548387 0.677419 
vt 0.483871 0.806452 
vt 0.129032 0.806452 
vt 0.161290 0.903226 
vt 0.193548 0.741935 
vt 0.129032 0.741935 
vt 0.129032 0.741935 
vt 0.161290 0.967742 
vt 0.161290 0.903226 
vt 0.483871 0.870968 
vt 0.483871 0.774194 
vt 0.193548 0.741935 
vt 0.193548 0.741935 
vt 0.161290 0.903226 
vt 0.483871 0.870968 
vt 0.548387 0.935484 
vt 0.548387 0.741935 
vt 0.483871 0.774194 
vt 0.483871 0.774194 
vt 0.483871 0.870968 
vt 0.548387 0.935484 
vt 0.806452 0.548387 
vt 0.774194 0.419355 
vt 0.741935 0.258065 
vt 0.741935 0.258065 
vt 0.903226 0.451613 
vt 0.806452 0.548387 
vt 0.903226 0.451613 
vt 0.741935 0.258065 
vt 0.838710 0.258065 
vt 0.838710 0.258065 
vt 0.935484 0.483871 
vt 0.903226 0.451613 
vt 0.870968 0.548387 
vt 0.838710 0.483871 
vt 0.774194 0.419355 
vt 0.774194 0.419355 
vt 0.806452 0.548387 
vt 0.870968 0.548387 
vt 0.806452 0.516129 
vt 0.774194 0.354839 
vt 0.677419 0.387097 
vt 0.677419 0.387097 
vt 0.709677 0.516129 
vt 0.806452 0.516129 
vt 0.838710 0.612903 
vt 0.806452 0.548387 
vt 0.903226 0.451613 
vt 0.903226 0.451613 
vt 0.967742 0.580645 
vt 0.838710 0.612903 
vt 0.870968 0.677419 
vt 0.870968 0.548387 
vt 0.806452 0.548387 
vt 0.806452 0.548387 
vt 0.838710 0.612903 
vt 0.870968 0.677419 
vt 0.838710 0.612903 
vt 0.806452 0.516129 
vt 0.709677 0.516129 
vt 0.709677 0.516129 
vt 0.709677 0.645161 
vt 0.838710 0.612903 
vt 0.967742 0.580645 
vt 0.903226 0.451613 
vt 0.935484 0.483871 
vt 0.935484 0.483871 
vt 1.000000 0.645161 
vt 0.967742 0.580645 
vt 0.225806 0.258065 
vt 0.000000 0.516129 
vt 0.000000 0.258065 
vt 0.000000 0.516129 
vt 0.225806 0.258065 
vt 0.741935 0.258065 
vt 0.774194 0.419355 
vt 0.000000 0.516129 
vt 0.741935 0.258065 
vt 0.838710 0.483871 
vt 0.000000 0.516129 
vt 0.774194 0.419355 
f 1/1/1 2/2/2 3/3/3
f 4/4/4 5/5/5 6/6/6
f 7/7/7 8/8/8 9/9/9
f 10/10/10 11/11/11 12/12/12
f 13/13/13 14/14/14 15/15/15
f 16/16/16 17/17/17 18/18/18
f 19/19/19 20/20/20 21/21/21
f 22/22/22 23/23/23 24/24/24
f 25/25/25 26/26/26 27/27/27
f 28/28/28 29/29/29 30/30/30
f 31/31/31 32/32/32 33/33/33
f 34/34/34 35/35/35 36/36/36
f 37/37/37 38/38/38 39/39/39
f 40/40/40 41/41/41 42/42/42
f 43/43/43 44/44/44 45/45/45
f 46/46/46 47/47/47 48/48/48
f 49/49/49 50/50/50 51/51/51
f 52/52/52 53/53/53 54/54/54
f 55/55/55 56/56/56 57/57/57
f 58/58/58 59/59/59 60/60/60
f 61/61/61 62/62/62 63/63/63
f 64/64/64 65/65/65 66/66/66
f 67/67/67 68/68/68 69/69/69
f 70/70/70 71/71/71 72/72/72
f 73/73/73 74/74/74 75/75/75
f 76/76/76 77/77/77 78/78/78
f 79/79/79 80/80/80 81/81/81
f 82/82/82 83/83/83 84/84/84
f 85/85/85 86/86/86 87/87/87
f 88/88/88 89/89/89 90/90/90
f 91/91/91 92/92/92 93/93/93
f 94/94/94 95/95/95 96/96/96
f 97/97/97 98/98/98 99/99/99
f 100/100/100 101/101/101 102/102/102
f 103/103/103 104/104/104 105/105/105
f 106/106/106 107/107/107 108/108/108
f 109/109/109 110/110/110 111/111/111
f 112/112/112 113/113/113 114/114/114
f 115/115/115 116/116/116 117/117/117
f 118/118/118 119/119/119 120/120/120
f 121/121/121 122/122/122 123/123/123
f 124/124/124 125/125/125 126/126/126
f 127/127/127 128/128/128 129/129/129
f 130/130/130 131/131/131 132/132/132
f 133/133/133 134/134/134 135/135/135
f 136/136/136 137/137/137 138/138/138
f 139/139/139 140/140/140 141/141/141
f 142/142/142 143/143/143 144/144/144
f 145/145/145 146/146/146 147/147/147
f 148/148/148 149/149/149 150/150/150
f 151/151/151 152/152/152 153/153/153
f 154/154/154 155/155/155 156/156/156
f 157/157/157 158/158/158 159/159/159
f 160/160/160 161/161/161 162/162/162
f 163/163/163 164/164/164 165/165/165
f 166/166/166 167/167/167 168/168/168
f 169/169/169 170/170/170 171/171/171
f 172/172/172 173/173/173 174/174/174
f 175/175/175 176/176/176 177/177/177
f 178/178/178 179/179/179 180/180/180
f 181/181/181 182/182/182 183/183/183
f 184/184/184 185/185/185 186/186/186
f 187/187/187 188/188/188 189/189/189
f 190/190/190 191/191/191 192/192/192
f 193/193/193 194/194/194 195/195/195
f 196/196/196 197/197/197 198/198/198
f 199/199/199 200/200/200 201/201/201
f 202/202/202 203/203/203 204/204/204
f 205/205/205 206/206/206 207/207/207
f 208/208/208 209/209/209 210/210/210
