v -75.000000 -3.000000 -51.000000 
v -78.000000 -29.000000 -36.000000 
v -83.000000 -3.000000 -22.000000 
v -78.000000 -29.000000 -36.000000 
v -86.000000 -29.000000 -7.000000 
v -83.000000 -3.000000 -22.000000 
v -86.000000 -29.000000 -7.000000 
v -90.000000 -3.000000 6.000000 
v -83.000000 -3.000000 -22.000000 
v -90.000000 -3.000000 6.000000 
v -88.000000 21.000000 -8.000000 
v -83.000000 -3.000000 -22.000000 
v -88.000000 21.000000 -8.000000 
v -80.000000 22.000000 -36.000000 
v -83.000000 -3.000000 -22.000000 
v -80.000000 22.000000 -36.000000 
v -75.000000 -3.000000 -51.000000 
v -83.000000 -3.000000 -22.000000 
v 91.000000 3.000000 -8.000000 
v 88.000000 -23.000000 7.000000 
v -75.000000 -3.000000 -51.000000 
v 88.000000 -23.000000 7.000000 
v -78.000000 -29.000000 -36.000000 
v -75.000000 -3.000000 -51.000000 
v 88.000000 -23.000000 7.000000 
v 80.000000 -23.000000 37.000000 
v -78.000000 -29.000000 -36.000000 
v 80.000000 -23.000000 37.000000 
v -86.000000 -29.000000 -7.000000 
v -78.000000 -29.000000 -36.000000 
v 80.000000 -23.000000 37.000000 
v 75.000000 3.000000 53.000000 
v -86.000000 -29.000000 -7.000000 
v 75.000000 3.000000 53.000000 
v -90.000000 -3.000000 6.000000 
v -86.000000 -29.000000 -7.000000 
v 75.000000 3.000000 53.000000 
v 77.000000 31.000000 37.000000 
v -90.000000 -3.000000 6.000000 
v 77.000000 31.000000 37.000000 
v -88.000000 21.000000 -8.000000 
v -90.000000 -3.000000 6.000000 
v 77.000000 31.000000 37.000000 
v 86.000000 31.000000 6.000000 
v -88.000000 21.000000 -8.000000 
v 86.000000 31.000000 6.000000 
v -80.000000 22.000000 -36.000000 
v -88.000000 21.000000 -8.000000 
v 86.000000 31.000000 6.000000 
v 91.000000 3.000000 -8.000000 
v -80.000000 22.000000 -36.000000 
v 91.000000 3.000000 -8.000000 
v -75.000000 -3.000000 -51.000000 
v -80.000000 22.000000 -36.000000 
v 88.000000 -23.000000 7.000000 
v 91.000000 3.000000 -8.000000 
v 83.000000 3.000000 22.000000 
v 80.000000 -23.000000 37.000000 
v 88.000000 -23.000000 7.000000 
v 83.000000 3.000000 22.000000 
v 75.000000 3.000000 53.000000 
v 80.000000 -23.000000 37.000000 
v 83.000000 3.000000 22.000000 
v 77.000000 31.000000 37.000000 
v 75.000000 3.000000 53.000000 
v 83.000000 3.000000 22.000000 
v 86.000000 31.000000 6.000000 
v 77.000000 31.000000 37.000000 
v 83.000000 3.000000 22.000000 
v 91.000000 3.000000 -8.000000 
v 86.000000 31.000000 6.000000 
v 83.000000 3.000000 22.000000 
vn -0.964844 -0.042725 -0.258545 
vn -0.964844 -0.042725 -0.258545 
vn -0.964844 -0.042725 -0.258545 
vn -0.964844 -0.042725 -0.258545 
vn -0.964844 -0.042725 -0.258545 
vn -0.964844 -0.042725 -0.258545 
vn -0.964844 -0.042725 -0.258545 
vn -0.964844 -0.042725 -0.258545 
vn -0.964844 -0.042725 -0.258545 
vn -0.964844 -0.042725 -0.258545 
vn -0.964844 -0.042725 -0.258545 
vn -0.964844 -0.042725 -0.258545 
vn -0.964844 -0.042725 -0.258545 
vn -0.964844 -0.042725 -0.258545 
vn -0.964844 -0.042725 -0.258545 
vn -0.964844 -0.042725 -0.258545 
vn -0.964844 -0.042725 -0.258545 
vn -0.964844 -0.042725 -0.258545 
vn 0.229492 0.194580 -0.953369 
vn 0.185547 -0.751221 -0.633057 
vn 0.245605 -0.182617 -0.951904 
vn 0.185547 -0.751221 -0.633057 
vn 0.108887 -0.942383 -0.316162 
vn 0.245605 -0.182617 -0.951904 
vn 0.185547 -0.751221 -0.633057 
vn -0.060303 -0.946777 0.315918 
vn 0.108887 -0.942383 -0.316162 
vn -0.060303 -0.946777 0.315918 
vn -0.153076 -0.760254 0.631104 
vn 0.108887 -0.942383 -0.316162 
vn -0.060303 -0.946777 0.315918 
vn -0.262207 -0.196045 0.944824 
vn -0.153076 -0.760254 0.631104 
vn -0.262207 -0.196045 0.944824 
vn -0.278320 0.181396 0.943115 
vn -0.153076 -0.760254 0.631104 
vn -0.262207 -0.196045 0.944824 
vn -0.218018 0.749756 0.624268 
vn -0.278320 0.181396 0.943115 
vn -0.218018 0.749756 0.624268 
vn -0.141602 0.940918 0.307373 
vn -0.278320 0.181396 0.943115 
vn -0.218018 0.749756 0.624268 
vn 0.027588 0.945312 -0.324707 
vn -0.141602 0.940918 0.307373 
vn 0.027588 0.945312 -0.324707 
vn 0.120361 0.758789 -0.639893 
vn -0.141602 0.940918 0.307373 
vn 0.027588 0.945312 -0.324707 
vn 0.229492 0.194580 -0.953369 
vn 0.120361 0.758789 -0.639893 
vn 0.229492 0.194580 -0.953369 
vn 0.245605 -0.182617 -0.951904 
vn 0.120361 0.758789 -0.639893 
vn 0.964844 0.042725 0.258545 
vn 0.964844 0.042725 0.258545 
vn 0.964844 0.042725 0.258545 
vn 0.964844 0.042725 0.258545 
vn 0.964844 0.042725 0.258545 
vn 0.964844 0.042725 0.258545 
vn 0.964844 0.042725 0.258545 
vn 0.964844 0.042725 0.258545 
vn 0.964844 0.042725 0.258545 
vn 0.964844 0.042725 0.258545 
vn 0.964844 0.042725 0.258545 
vn 0.964844 0.042725 0.258545 
vn 0.964844 0.042725 0.258545 
vn 0.964844 0.042725 0.258545 
vn 0.964844 0.042725 0.258545 
vn 0.964844 0.042725 0.258545 
vn 0.964844 0.042725 0.258545 
vn 0.964844 0.042725 0.258545 
vt 0.761905 1.000000 
vt 0.984127 0.888889 
vt 0.777778 0.761905 
vt 0.984127 0.888889 
vt 0.984127 0.619048 
vt 0.777778 0.761905 
vt 0.984127 0.619048 
vt 0.777778 0.507937 
vt 0.777778 0.761905 
vt 0.777778 0.507937 
vt 0.571429 0.603175 
vt 0.777778 0.761905 
vt 0.571429 0.603175 
vt 0.571429 0.888889 
vt 0.777778 0.761905 
vt 0.571429 0.888889 
vt 0.761905 1.000000 
vt 0.777778 0.761905 
vt 0.000000 -0.015873 
vt 0.190476 -0.015873 
vt 0.000000 1.000000 
vt 0.190476 -0.015873 
vt 0.190476 1.000000 
vt 0.000000 1.000000 
vt 0.190476 -0.015873 
vt 0.000000 -0.015873 
vt 0.190476 1.000000 
vt 0.000000 -0.015873 
vt 0.000000 1.000000 
vt 0.190476 1.000000 
vt 0.000000 -0.015873 
vt 0.238095 -0.015873 
vt 0.000000 1.000000 
vt 0.238095 -0.015873 
vt 0.238095 1.000000 
vt 0.000000 1.000000 
vt 0.238095 -0.015873 
vt 0.460317 -0.015873 
vt 0.238095 1.000000 
vt 0.460317 -0.015873 
vt 0.460317 1.000000 
vt 0.238095 1.000000 
vt 0.460317 -0.015873 
vt 0.190476 -0.015873 
vt 0.460317 1.000000 
vt 0.190476 -0.015873 
vt 0.190476 1.000000 
vt 0.460317 1.000000 
vt 0.190476 -0.015873 
vt 0.000000 -0.015873 
vt 0.190476 1.000000 
vt 0.000000 -0.015873 
vt 0.000000 1.000000 
vt 0.190476 1.000000 
vt 0.984127 0.634921 
vt 0.777778 0.523810 
vt 0.777778 0.761905 
vt 0.984127 0.888889 
vt 0.984127 0.634921 
vt 0.777778 0.761905 
vt 0.777778 1.000000 
vt 0.984127 0.888889 
vt 0.777778 0.761905 
vt 0.587302 0.904762 
vt 0.777778 1.000000 
vt 0.777778 0.761905 
vt 0.587302 0.619048 
vt 0.587302 0.904762 
vt 0.777778 0.761905 
vt 0.777778 0.523810 
vt 0.587302 0.619048 
vt 0.777778 0.761905 
f 1/1/1 2/2/2 3/3/3
f 4/4/4 5/5/5 6/6/6
f 7/7/7 8/8/8 9/9/9
f 10/10/10 11/11/11 12/12/12
f 13/13/13 14/14/14 15/15/15
f 16/16/16 17/17/17 18/18/18
f 19/19/19 20/20/20 21/21/21
f 22/22/22 23/23/23 24/24/24
f 25/25/25 26/26/26 27/27/27
f 28/28/28 29/29/29 30/30/30
f 31/31/31 32/32/32 33/33/33
f 34/34/34 35/35/35 36/36/36
f 37/37/37 38/38/38 39/39/39
f 40/40/40 41/41/41 42/42/42
f 43/43/43 44/44/44 45/45/45
f 46/46/46 47/47/47 48/48/48
f 49/49/49 50/50/50 51/51/51
f 52/52/52 53/53/53 54/54/54
f 55/55/55 56/56/56 57/57/57
f 58/58/58 59/59/59 60/60/60
f 61/61/61 62/62/62 63/63/63
f 64/64/64 65/65/65 66/66/66
f 67/67/67 68/68/68 69/69/69
f 70/70/70 71/71/71 72/72/72
