v 14.000000 -7.000000 0.000000 
v -2.000000 -7.000000 20.000000 
v -3.000000 -26.000000 0.000000 
v -2.000000 -7.000000 20.000000 
v 2.000000 -7.000000 9.000000 
v -3.000000 -26.000000 0.000000 
v 2.000000 -7.000000 9.000000 
v 2.000000 -7.000000 -10.000000 
v -3.000000 -26.000000 0.000000 
v 2.000000 -7.000000 -10.000000 
v -2.000000 -7.000000 -20.000000 
v -3.000000 -26.000000 0.000000 
v -2.000000 -7.000000 -20.000000 
v 14.000000 -7.000000 0.000000 
v -3.000000 -26.000000 0.000000 
v 18.000000 27.000000 0.000000 
v 0.000000 32.000000 22.000000 
v 14.000000 -7.000000 0.000000 
v 0.000000 32.000000 22.000000 
v -2.000000 -7.000000 20.000000 
v 14.000000 -7.000000 0.000000 
v 0.000000 32.000000 22.000000 
v 2.000000 24.000000 11.000000 
v -2.000000 -7.000000 20.000000 
v 2.000000 24.000000 11.000000 
v 2.000000 -7.000000 9.000000 
v -2.000000 -7.000000 20.000000 
v 2.000000 24.000000 11.000000 
v 2.000000 24.000000 -10.000000 
v 2.000000 -7.000000 9.000000 
v 2.000000 24.000000 -10.000000 
v 2.000000 -7.000000 -10.000000 
v 2.000000 -7.000000 9.000000 
v 2.000000 24.000000 -10.000000 
v 0.000000 32.000000 -22.000000 
v 2.000000 -7.000000 -10.000000 
v 0.000000 32.000000 -22.000000 
v -2.000000 -7.000000 -20.000000 
v 2.000000 -7.000000 -10.000000 
v 0.000000 32.000000 -22.000000 
v 18.000000 27.000000 0.000000 
v -2.000000 -7.000000 -20.000000 
v 18.000000 27.000000 0.000000 
v 14.000000 -7.000000 0.000000 
v -2.000000 -7.000000 -20.000000 
v 4.000000 33.000000 0.000000 
v -1.000000 33.000000 4.000000 
v 18.000000 27.000000 0.000000 
v -1.000000 33.000000 4.000000 
v 0.000000 32.000000 22.000000 
v 18.000000 27.000000 0.000000 
v -1.000000 33.000000 4.000000 
v -5.000000 33.000000 2.000000 
v 0.000000 32.000000 22.000000 
v -5.000000 33.000000 2.000000 
v 2.000000 24.000000 11.000000 
v 0.000000 32.000000 22.000000 
v -5.000000 33.000000 2.000000 
v -5.000000 33.000000 -2.000000 
v 2.000000 24.000000 11.000000 
v -5.000000 33.000000 -2.000000 
v 2.000000 24.000000 -10.000000 
v 2.000000 24.000000 11.000000 
v -5.000000 33.000000 -2.000000 
v -1.000000 33.000000 -4.000000 
v 2.000000 24.000000 -10.000000 
v -1.000000 33.000000 -4.000000 
v 0.000000 32.000000 -22.000000 
v 2.000000 24.000000 -10.000000 
v -1.000000 33.000000 -4.000000 
v 4.000000 33.000000 0.000000 
v 0.000000 32.000000 -22.000000 
v 4.000000 33.000000 0.000000 
v 18.000000 27.000000 0.000000 
v 0.000000 32.000000 -22.000000 
v 3.000000 47.000000 0.000000 
v 0.000000 47.000000 5.000000 
v 4.000000 33.000000 0.000000 
v 0.000000 47.000000 5.000000 
v -1.000000 33.000000 4.000000 
v 4.000000 33.000000 0.000000 
v 0.000000 47.000000 5.000000 
v -9.000000 47.000000 3.000000 
v -1.000000 33.000000 4.000000 
v -9.000000 47.000000 3.000000 
v -5.000000 33.000000 2.000000 
v -1.000000 33.000000 4.000000 
v -9.000000 47.000000 3.000000 
v -9.000000 47.000000 -3.000000 
v -5.000000 33.000000 2.000000 
v -9.000000 47.000000 -3.000000 
v -5.000000 33.000000 -2.000000 
v -5.000000 33.000000 2.000000 
v -9.000000 47.000000 -3.000000 
v 0.000000 47.000000 -5.000000 
v -5.000000 33.000000 -2.000000 
v 0.000000 47.000000 -5.000000 
v -1.000000 33.000000 -4.000000 
v -5.000000 33.000000 -2.000000 
v 0.000000 47.000000 -5.000000 
v 3.000000 47.000000 0.000000 
v -1.000000 33.000000 -4.000000 
v 3.000000 47.000000 0.000000 
v 4.000000 33.000000 0.000000 
v -1.000000 33.000000 -4.000000 
v 7.000000 79.000000 0.000000 
v 2.000000 79.000000 6.000000 
v 3.000000 47.000000 0.000000 
v 2.000000 79.000000 6.000000 
v 0.000000 47.000000 5.000000 
v 3.000000 47.000000 0.000000 
v 2.000000 79.000000 6.000000 
v -9.000000 79.000000 4.000000 
v 0.000000 47.000000 5.000000 
v -9.000000 79.000000 4.000000 
v -9.000000 47.000000 3.000000 
v 0.000000 47.000000 5.000000 
v -9.000000 79.000000 4.000000 
v -9.000000 79.000000 -4.000000 
v -9.000000 47.000000 3.000000 
v -9.000000 79.000000 -4.000000 
v -9.000000 47.000000 -3.000000 
v -9.000000 47.000000 3.000000 
v -9.000000 79.000000 -4.000000 
v 2.000000 79.000000 -6.000000 
v -9.000000 47.000000 -3.000000 
v 2.000000 79.000000 -6.000000 
v 0.000000 47.000000 -5.000000 
v -9.000000 47.000000 -3.000000 
v 2.000000 79.000000 -6.000000 
v 7.000000 79.000000 0.000000 
v 0.000000 47.000000 -5.000000 
v 7.000000 79.000000 0.000000 
v 3.000000 47.000000 0.000000 
v 0.000000 47.000000 -5.000000 
v 2.000000 79.000000 6.000000 
v 7.000000 79.000000 0.000000 
v 0.000000 87.000000 0.000000 
v -9.000000 79.000000 4.000000 
v 2.000000 79.000000 6.000000 
v 0.000000 87.000000 0.000000 
v -9.000000 79.000000 -4.000000 
v -9.000000 79.000000 4.000000 
v 0.000000 87.000000 0.000000 
v 2.000000 79.000000 -6.000000 
v -9.000000 79.000000 -4.000000 
v 0.000000 87.000000 0.000000 
v 7.000000 79.000000 0.000000 
v 2.000000 79.000000 -6.000000 
v 0.000000 87.000000 0.000000 
vn 0.958008 -0.263428 0.111572 
vn -0.986572 -0.119629 0.110107 
vn -0.998535 -0.053711 -0.000244 
vn -0.986572 -0.119629 0.110107 
vn -0.985840 0.111572 -0.123779 
vn -0.998535 -0.053711 -0.000244 
vn -0.985840 0.111572 -0.123779 
vn -0.980469 0.122070 0.153076 
vn -0.998535 -0.053711 -0.000244 
vn -0.980469 0.122070 0.153076 
vn 0.622559 -0.189697 -0.759033 
vn -0.998535 -0.053711 -0.000244 
vn 0.622559 -0.189697 -0.759033 
vn 0.958008 -0.263428 0.111572 
vn -0.998535 -0.053711 -0.000244 
vn 0.881836 0.470703 -0.023193 
vn 0.151855 0.796631 0.584717 
vn 0.958008 -0.263428 0.111572 
vn 0.151855 0.796631 0.584717 
vn -0.986572 -0.119629 0.110107 
vn 0.958008 -0.263428 0.111572 
vn 0.151855 0.796631 0.584717 
vn -0.969971 -0.235107 -0.061279 
vn -0.986572 -0.119629 0.110107 
vn -0.969971 -0.235107 -0.061279 
vn -0.985840 0.111572 -0.123779 
vn -0.986572 -0.119629 0.110107 
vn -0.969971 -0.235107 -0.061279 
vn -0.990723 -0.059570 -0.121094 
vn -0.985840 0.111572 -0.123779 
vn -0.990723 -0.059570 -0.121094 
vn -0.980469 0.122070 0.153076 
vn -0.985840 0.111572 -0.123779 
vn -0.990723 -0.059570 -0.121094 
vn -0.663086 0.738770 -0.120117 
vn -0.980469 0.122070 0.153076 
vn -0.663086 0.738770 -0.120117 
vn 0.622559 -0.189697 -0.759033 
vn -0.980469 0.122070 0.153076 
vn -0.663086 0.738770 -0.120117 
vn 0.881836 0.470703 -0.023193 
vn 0.622559 -0.189697 -0.759033 
vn 0.881836 0.470703 -0.023193 
vn 0.958008 -0.263428 0.111572 
vn 0.622559 -0.189697 -0.759033 
vn 0.804688 0.572510 0.156250 
vn 0.217529 0.593750 0.774414 
vn 0.881836 0.470703 -0.023193 
vn 0.217529 0.593750 0.774414 
vn 0.151855 0.796631 0.584717 
vn 0.881836 0.470703 -0.023193 
vn 0.217529 0.593750 0.774414 
vn -0.966553 -0.096436 0.237305 
vn 0.151855 0.796631 0.584717 
vn -0.966553 -0.096436 0.237305 
vn -0.969971 -0.235107 -0.061279 
vn 0.151855 0.796631 0.584717 
vn -0.966553 -0.096436 0.237305 
vn -0.827637 -0.183838 -0.530029 
vn -0.969971 -0.235107 -0.061279 
vn -0.827637 -0.183838 -0.530029 
vn -0.990723 -0.059570 -0.121094 
vn -0.969971 -0.235107 -0.061279 
vn -0.827637 -0.183838 -0.530029 
vn -0.081055 0.371582 -0.924561 
vn -0.990723 -0.059570 -0.121094 
vn -0.081055 0.371582 -0.924561 
vn -0.663086 0.738770 -0.120117 
vn -0.990723 -0.059570 -0.121094 
vn -0.081055 0.371582 -0.924561 
vn 0.804688 0.572510 0.156250 
vn -0.663086 0.738770 -0.120117 
vn 0.804688 0.572510 0.156250 
vn 0.881836 0.470703 -0.023193 
vn -0.663086 0.738770 -0.120117 
vn 0.997559 -0.042236 -0.051025 
vn 0.349121 -0.043457 0.935791 
vn 0.804688 0.572510 0.156250 
vn 0.349121 -0.043457 0.935791 
vn 0.217529 0.593750 0.774414 
vn 0.804688 0.572510 0.156250 
vn 0.349121 -0.043457 0.935791 
vn -0.828857 -0.077148 0.553711 
vn 0.217529 0.593750 0.774414 
vn -0.828857 -0.077148 0.553711 
vn -0.966553 -0.096436 0.237305 
vn 0.217529 0.593750 0.774414 
vn -0.828857 -0.077148 0.553711 
vn -0.801514 -0.111084 -0.587402 
vn -0.966553 -0.096436 0.237305 
vn -0.801514 -0.111084 -0.587402 
vn -0.827637 -0.183838 -0.530029 
vn -0.966553 -0.096436 0.237305 
vn -0.801514 -0.111084 -0.587402 
vn 0.363281 -0.092529 -0.926758 
vn -0.827637 -0.183838 -0.530029 
vn 0.363281 -0.092529 -0.926758 
vn -0.081055 0.371582 -0.924561 
vn -0.827637 -0.183838 -0.530029 
vn 0.363281 -0.092529 -0.926758 
vn 0.997559 -0.042236 -0.051025 
vn -0.081055 0.371582 -0.924561 
vn 0.997559 -0.042236 -0.051025 
vn 0.804688 0.572510 0.156250 
vn -0.081055 0.371582 -0.924561 
vn 0.978271 0.181885 -0.098389 
vn 0.553467 0.248535 0.794678 
vn 0.997559 -0.042236 -0.051025 
vn 0.553467 0.248535 0.794678 
vn 0.349121 -0.043457 0.935791 
vn 0.997559 -0.042236 -0.051025 
vn 0.553467 0.248535 0.794678 
vn -0.678467 0.285156 0.676758 
vn 0.349121 -0.043457 0.935791 
vn -0.678467 0.285156 0.676758 
vn -0.828857 -0.077148 0.553711 
vn 0.349121 -0.043457 0.935791 
vn -0.678467 0.285156 0.676758 
vn -0.850830 0.294434 -0.434570 
vn -0.828857 -0.077148 0.553711 
vn -0.850830 0.294434 -0.434570 
vn -0.801514 -0.111084 -0.587402 
vn -0.828857 -0.077148 0.553711 
vn -0.850830 0.294434 -0.434570 
vn 0.219727 0.264893 -0.938721 
vn -0.801514 -0.111084 -0.587402 
vn 0.219727 0.264893 -0.938721 
vn 0.363281 -0.092529 -0.926758 
vn -0.801514 -0.111084 -0.587402 
vn 0.219727 0.264893 -0.938721 
vn 0.978271 0.181885 -0.098389 
vn 0.363281 -0.092529 -0.926758 
vn 0.978271 0.181885 -0.098389 
vn 0.997559 -0.042236 -0.051025 
vn 0.363281 -0.092529 -0.926758 
vn 0.553467 0.248535 0.794678 
vn 0.978271 0.181885 -0.098389 
vn 0.085205 0.996338 -0.001221 
vn -0.678467 0.285156 0.676758 
vn 0.553467 0.248535 0.794678 
vn 0.085205 0.996338 -0.001221 
vn -0.850830 0.294434 -0.434570 
vn -0.678467 0.285156 0.676758 
vn 0.085205 0.996338 -0.001221 
vn 0.219727 0.264893 -0.938721 
vn -0.850830 0.294434 -0.434570 
vn 0.085205 0.996338 -0.001221 
vn 0.978271 0.181885 -0.098389 
vn 0.219727 0.264893 -0.938721 
vn 0.085205 0.996338 -0.001221 
vt 0.619048 0.238095 
vt 1.000000 0.000000 
vt 0.666667 -0.015873 
vt 1.000000 0.000000 
vt 0.793651 0.238095 
vt 0.666667 -0.015873 
vt 0.793651 0.238095 
vt 0.460317 0.238095 
vt 0.666667 -0.015873 
vt 0.460317 0.238095 
vt 0.253968 0.000000 
vt 0.666667 -0.015873 
vt 0.253968 0.000000 
vt 0.619048 0.238095 
vt 0.666667 -0.015873 
vt 0.634921 0.571429 
vt 1.000000 0.650794 
vt 0.619048 0.238095 
vt 1.000000 0.650794 
vt 1.000000 0.000000 
vt 0.619048 0.238095 
vt 1.000000 0.650794 
vt 0.777778 0.587302 
vt 1.000000 0.000000 
vt 0.777778 0.587302 
vt 0.793651 0.238095 
vt 1.000000 0.000000 
vt 0.777778 0.587302 
vt 0.460317 0.634921 
vt 0.793651 0.238095 
vt 0.460317 0.634921 
vt 0.460317 0.238095 
vt 0.793651 0.238095 
vt 0.460317 0.634921 
vt 0.253968 0.587302 
vt 0.460317 0.238095 
vt 0.253968 0.587302 
vt 0.253968 0.000000 
vt 0.460317 0.238095 
vt 0.253968 0.587302 
vt 0.634921 0.571429 
vt 0.253968 0.000000 
vt 0.634921 0.571429 
vt 0.619048 0.238095 
vt 0.253968 0.000000 
vt 0.619048 0.888889 
vt 1.000000 0.984127 
vt 0.634921 0.571429 
vt 1.000000 0.984127 
vt 1.000000 0.650794 
vt 0.634921 0.571429 
vt 1.000000 0.984127 
vt 0.777778 0.984127 
vt 1.000000 0.650794 
vt 0.777778 0.984127 
vt 0.777778 0.587302 
vt 1.000000 0.650794 
vt 0.777778 0.984127 
vt 0.476190 0.984127 
vt 0.777778 0.587302 
vt 0.476190 0.984127 
vt 0.460317 0.634921 
vt 0.777778 0.587302 
vt 0.476190 0.984127 
vt 0.253968 0.952381 
vt 0.460317 0.634921 
vt 0.253968 0.952381 
vt 0.253968 0.587302 
vt 0.460317 0.634921 
vt 0.253968 0.952381 
vt 0.619048 0.888889 
vt 0.253968 0.587302 
vt 0.619048 0.888889 
vt 0.634921 0.571429 
vt 0.253968 0.587302 
vt 0.571429 0.444444 
vt 0.571429 0.349206 
vt 0.619048 0.888889 
vt 0.571429 0.349206 
vt 1.000000 0.984127 
vt 0.619048 0.888889 
vt 0.571429 0.349206 
vt 0.666667 0.365079 
vt 1.000000 0.984127 
vt 0.666667 0.365079 
vt 0.777778 0.984127 
vt 1.000000 0.984127 
vt 0.666667 0.365079 
vt 0.587302 0.380952 
vt 0.777778 0.984127 
vt 0.587302 0.380952 
vt 0.476190 0.984127 
vt 0.777778 0.984127 
vt 0.587302 0.380952 
vt 0.698413 0.412698 
vt 0.476190 0.984127 
vt 0.698413 0.412698 
vt 0.253968 0.952381 
vt 0.476190 0.984127 
vt 0.698413 0.412698 
vt 0.571429 0.444444 
vt 0.253968 0.952381 
vt 0.571429 0.444444 
vt 0.619048 0.888889 
vt 0.253968 0.952381 
vt 0.000000 0.031746 
vt 0.015873 0.095238 
vt 0.000000 0.968254 
vt 0.015873 0.095238 
vt 0.015873 0.888889 
vt 0.000000 0.968254 
vt 0.015873 0.095238 
vt 0.111111 0.095238 
vt 0.015873 0.888889 
vt 0.111111 0.095238 
vt 0.095238 0.904762 
vt 0.015873 0.888889 
vt 0.111111 0.095238 
vt 0.031746 0.111111 
vt 0.095238 0.904762 
vt 0.031746 0.111111 
vt 0.015873 0.920635 
vt 0.095238 0.904762 
vt 0.031746 0.111111 
vt 0.126984 0.063492 
vt 0.015873 0.920635 
vt 0.126984 0.063492 
vt 0.126984 0.952381 
vt 0.015873 0.920635 
vt 0.126984 0.063492 
vt 0.000000 0.031746 
vt 0.126984 0.952381 
vt 0.000000 0.031746 
vt 0.000000 0.968254 
vt 0.126984 0.952381 
vt 0.015873 0.095238 
vt 0.000000 0.031746 
vt 0.047619 0.619048 
vt 0.111111 0.095238 
vt 0.015873 0.095238 
vt 0.047619 0.619048 
vt 0.031746 0.111111 
vt 0.111111 0.095238 
vt 0.047619 0.619048 
vt 0.126984 0.063492 
vt 0.031746 0.111111 
vt 0.047619 0.619048 
vt 0.000000 0.031746 
vt 0.126984 0.063492 
vt 0.047619 0.619048 
f 1/1/1 2/2/2 3/3/3
f 4/4/4 5/5/5 6/6/6
f 7/7/7 8/8/8 9/9/9
f 10/10/10 11/11/11 12/12/12
f 13/13/13 14/14/14 15/15/15
f 16/16/16 17/17/17 18/18/18
f 19/19/19 20/20/20 21/21/21
f 22/22/22 23/23/23 24/24/24
f 25/25/25 26/26/26 27/27/27
f 28/28/28 29/29/29 30/30/30
f 31/31/31 32/32/32 33/33/33
f 34/34/34 35/35/35 36/36/36
f 37/37/37 38/38/38 39/39/39
f 40/40/40 41/41/41 42/42/42
f 43/43/43 44/44/44 45/45/45
f 46/46/46 47/47/47 48/48/48
f 49/49/49 50/50/50 51/51/51
f 52/52/52 53/53/53 54/54/54
f 55/55/55 56/56/56 57/57/57
f 58/58/58 59/59/59 60/60/60
f 61/61/61 62/62/62 63/63/63
f 64/64/64 65/65/65 66/66/66
f 67/67/67 68/68/68 69/69/69
f 70/70/70 71/71/71 72/72/72
f 73/73/73 74/74/74 75/75/75
f 76/76/76 77/77/77 78/78/78
f 79/79/79 80/80/80 81/81/81
f 82/82/82 83/83/83 84/84/84
f 85/85/85 86/86/86 87/87/87
f 88/88/88 89/89/89 90/90/90
f 91/91/91 92/92/92 93/93/93
f 94/94/94 95/95/95 96/96/96
f 97/97/97 98/98/98 99/99/99
f 100/100/100 101/101/101 102/102/102
f 103/103/103 104/104/104 105/105/105
f 106/106/106 107/107/107 108/108/108
f 109/109/109 110/110/110 111/111/111
f 112/112/112 113/113/113 114/114/114
f 115/115/115 116/116/116 117/117/117
f 118/118/118 119/119/119 120/120/120
f 121/121/121 122/122/122 123/123/123
f 124/124/124 125/125/125 126/126/126
f 127/127/127 128/128/128 129/129/129
f 130/130/130 131/131/131 132/132/132
f 133/133/133 134/134/134 135/135/135
f 136/136/136 137/137/137 138/138/138
f 139/139/139 140/140/140 141/141/141
f 142/142/142 143/143/143 144/144/144
f 145/145/145 146/146/146 147/147/147
f 148/148/148 149/149/149 150/150/150
