v -2.000000 55.000000 13.000000 
v -3.000000 57.000000 16.000000 
v -6.000000 57.000000 13.000000 
v -2.000000 55.000000 13.000000 
v 0.000000 57.000000 15.000000 
v -3.000000 57.000000 16.000000 
v -2.000000 55.000000 13.000000 
v 0.000000 57.000000 8.000000 
v 0.000000 57.000000 15.000000 
v -2.000000 55.000000 13.000000 
v -5.000000 57.000000 8.000000 
v 0.000000 57.000000 8.000000 
v -2.000000 55.000000 13.000000 
v -6.000000 57.000000 13.000000 
v -5.000000 57.000000 8.000000 
v -6.000000 57.000000 13.000000 
v -4.000000 90.000000 21.000000 
v -9.000000 90.000000 14.000000 
v -6.000000 57.000000 13.000000 
v -3.000000 57.000000 16.000000 
v -4.000000 90.000000 21.000000 
v -3.000000 57.000000 16.000000 
v 2.000000 90.000000 16.000000 
v -4.000000 90.000000 21.000000 
v -3.000000 57.000000 16.000000 
v 0.000000 57.000000 15.000000 
v 2.000000 90.000000 16.000000 
v 0.000000 57.000000 15.000000 
v 1.000000 90.000000 7.000000 
v 2.000000 90.000000 16.000000 
v 0.000000 57.000000 15.000000 
v 0.000000 57.000000 8.000000 
v 1.000000 90.000000 7.000000 
v 0.000000 57.000000 8.000000 
v -6.000000 90.000000 7.000000 
v 1.000000 90.000000 7.000000 
v 0.000000 57.000000 8.000000 
v -5.000000 57.000000 8.000000 
v -6.000000 90.000000 7.000000 
v -5.000000 57.000000 8.000000 
v -9.000000 90.000000 14.000000 
v -6.000000 90.000000 7.000000 
v -5.000000 57.000000 8.000000 
v -6.000000 57.000000 13.000000 
v -9.000000 90.000000 14.000000 
vn -0.053467 -0.994385 0.090332 
vn 0.037598 -0.469482 0.881836 
vn -0.908691 -0.355713 0.217773 
vn -0.053467 -0.994385 0.090332 
vn 0.881348 -0.337891 0.330078 
vn 0.037598 -0.469482 0.881836 
vn -0.053467 -0.994385 0.090332 
vn 0.510254 -0.452393 -0.731201 
vn 0.881348 -0.337891 0.330078 
vn -0.053467 -0.994385 0.090332 
vn -0.701416 -0.448975 -0.552979 
vn 0.510254 -0.452393 -0.731201 
vn -0.053467 -0.994385 0.090332 
vn -0.908691 -0.355713 0.217773 
vn -0.701416 -0.448975 -0.552979 
vn -0.908691 -0.355713 0.217773 
vn -0.526123 -0.116699 0.842041 
vn -0.998779 -0.044434 -0.007568 
vn -0.908691 -0.355713 0.217773 
vn 0.037598 -0.469482 0.881836 
vn -0.526123 -0.116699 0.842041 
vn 0.037598 -0.469482 0.881836 
vn 0.848145 -0.060059 0.525879 
vn -0.526123 -0.116699 0.842041 
vn 0.037598 -0.469482 0.881836 
vn 0.881348 -0.337891 0.330078 
vn 0.848145 -0.060059 0.525879 
vn 0.881348 -0.337891 0.330078 
vn 0.876953 -0.030518 -0.479004 
vn 0.848145 -0.060059 0.525879 
vn 0.881348 -0.337891 0.330078 
vn 0.510254 -0.452393 -0.731201 
vn 0.876953 -0.030518 -0.479004 
vn 0.510254 -0.452393 -0.731201 
vn -0.385010 -0.026611 -0.922363 
vn 0.876953 -0.030518 -0.479004 
vn 0.510254 -0.452393 -0.731201 
vn -0.701416 -0.448975 -0.552979 
vn -0.385010 -0.026611 -0.922363 
vn -0.701416 -0.448975 -0.552979 
vn -0.998779 -0.044434 -0.007568 
vn -0.385010 -0.026611 -0.922363 
vn -0.701416 -0.448975 -0.552979 
vn -0.908691 -0.355713 0.217773 
vn -0.998779 -0.044434 -0.007568 
vt 0.111111 0.269841 
vt 0.619048 0.333333 
vt 0.476190 0.333333 
vt 0.126984 0.079365 
vt 0.238095 0.333333 
vt 0.111111 0.333333 
vt 0.222222 0.079365 
vt 0.317460 0.333333 
vt 0.238095 0.333333 
vt 0.174603 0.095238 
vt 0.396825 0.333333 
vt 0.317460 0.333333 
vt 0.047619 0.111111 
vt 0.476190 0.333333 
vt 0.396825 0.333333 
vt 0.476190 0.333333 
vt 0.619048 0.555556 
vt 0.507937 0.555556 
vt 0.476190 0.333333 
vt 0.619048 0.333333 
vt 0.619048 0.555556 
vt 0.111111 0.333333 
vt 0.206349 0.555556 
vt 0.111111 0.555556 
vt 0.111111 0.333333 
vt 0.238095 0.333333 
vt 0.206349 0.555556 
vt 0.238095 0.333333 
vt 0.301587 0.555556 
vt 0.206349 0.555556 
vt 0.238095 0.333333 
vt 0.317460 0.333333 
vt 0.301587 0.555556 
vt 0.317460 0.333333 
vt 0.396825 0.555556 
vt 0.301587 0.555556 
vt 0.317460 0.333333 
vt 0.396825 0.333333 
vt 0.396825 0.555556 
vt 0.396825 0.333333 
vt 0.507937 0.555556 
vt 0.396825 0.555556 
vt 0.396825 0.333333 
vt 0.476190 0.333333 
vt 0.507937 0.555556 
f 1/1/1 2/2/2 3/3/3
f 4/4/4 5/5/5 6/6/6
f 7/7/7 8/8/8 9/9/9
f 10/10/10 11/11/11 12/12/12
f 13/13/13 14/14/14 15/15/15
f 16/16/16 17/17/17 18/18/18
f 19/19/19 20/20/20 21/21/21
f 22/22/22 23/23/23 24/24/24
f 25/25/25 26/26/26 27/27/27
f 28/28/28 29/29/29 30/30/30
f 31/31/31 32/32/32 33/33/33
f 34/34/34 35/35/35 36/36/36
f 37/37/37 38/38/38 39/39/39
f 40/40/40 41/41/41 42/42/42
f 43/43/43 44/44/44 45/45/45
