v 7.000000 15.000000 18.000000 
v -3.000000 15.000000 18.000000 
v 2.000000 13.000000 11.000000 
v -4.000000 15.000000 5.000000 
v 8.000000 15.000000 5.000000 
v 2.000000 13.000000 11.000000 
v -3.000000 15.000000 18.000000 
v -4.000000 15.000000 5.000000 
v 2.000000 13.000000 11.000000 
v 8.000000 15.000000 5.000000 
v 7.000000 15.000000 18.000000 
v 2.000000 13.000000 11.000000 
v 0.000000 31.000000 17.000000 
v -3.000000 15.000000 18.000000 
v 7.000000 15.000000 18.000000 
v 7.000000 15.000000 18.000000 
v 4.000000 31.000000 17.000000 
v 0.000000 31.000000 17.000000 
v 5.000000 31.000000 8.000000 
v 8.000000 15.000000 5.000000 
v -4.000000 15.000000 5.000000 
v -4.000000 15.000000 5.000000 
v -1.000000 31.000000 8.000000 
v 5.000000 31.000000 8.000000 
v -1.000000 31.000000 8.000000 
v -4.000000 15.000000 5.000000 
v -3.000000 15.000000 18.000000 
v -3.000000 15.000000 18.000000 
v 0.000000 31.000000 17.000000 
v -1.000000 31.000000 8.000000 
v 4.000000 31.000000 17.000000 
v 7.000000 15.000000 18.000000 
v 8.000000 15.000000 5.000000 
v 8.000000 15.000000 5.000000 
v 5.000000 31.000000 8.000000 
v 4.000000 31.000000 17.000000 
v 11.000000 37.000000 13.000000 
v 4.000000 36.000000 21.000000 
v 10.000000 28.000000 13.000000 
v 4.000000 36.000000 21.000000 
v 4.000000 28.000000 20.000000 
v 10.000000 28.000000 13.000000 
v 4.000000 36.000000 21.000000 
v -5.000000 37.000000 15.000000 
v 4.000000 28.000000 20.000000 
v -5.000000 37.000000 15.000000 
v -5.000000 29.000000 14.000000 
v 4.000000 28.000000 20.000000 
v -5.000000 37.000000 15.000000 
v -2.000000 37.000000 4.000000 
v -5.000000 29.000000 14.000000 
v -2.000000 37.000000 4.000000 
v -3.000000 29.000000 4.000000 
v -5.000000 29.000000 14.000000 
v -2.000000 37.000000 4.000000 
v 6.000000 37.000000 4.000000 
v -3.000000 29.000000 4.000000 
v 6.000000 37.000000 4.000000 
v 6.000000 29.000000 4.000000 
v -3.000000 29.000000 4.000000 
v 6.000000 37.000000 4.000000 
v 11.000000 37.000000 13.000000 
v 6.000000 29.000000 4.000000 
v 11.000000 37.000000 13.000000 
v 10.000000 28.000000 13.000000 
v 6.000000 29.000000 4.000000 
v 7.000000 34.000000 12.000000 
v 3.000000 35.000000 17.000000 
v 11.000000 37.000000 13.000000 
v 3.000000 35.000000 17.000000 
v 4.000000 36.000000 21.000000 
v 11.000000 37.000000 13.000000 
v 3.000000 35.000000 17.000000 
v -2.000000 35.000000 14.000000 
v 4.000000 36.000000 21.000000 
v -2.000000 35.000000 14.000000 
v -5.000000 37.000000 15.000000 
v 4.000000 36.000000 21.000000 
v -2.000000 35.000000 14.000000 
v 0.000000 34.000000 8.000000 
v -5.000000 37.000000 15.000000 
v 0.000000 34.000000 8.000000 
v -2.000000 37.000000 4.000000 
v -5.000000 37.000000 15.000000 
v 0.000000 34.000000 8.000000 
v 5.000000 34.000000 8.000000 
v -2.000000 37.000000 4.000000 
v 5.000000 34.000000 8.000000 
v 6.000000 37.000000 4.000000 
v -2.000000 37.000000 4.000000 
v 5.000000 34.000000 8.000000 
v 7.000000 34.000000 12.000000 
v 6.000000 37.000000 4.000000 
v 7.000000 34.000000 12.000000 
v 11.000000 37.000000 13.000000 
v 6.000000 37.000000 4.000000 
v 3.000000 62.000000 11.000000 
v 3.000000 57.000000 15.000000 
v 6.000000 58.000000 12.000000 
v 3.000000 62.000000 11.000000 
v 0.000000 57.000000 14.000000 
v 3.000000 57.000000 15.000000 
vn 0.246094 -0.952881 0.176514 
vn -0.247803 -0.952637 0.174805 
vn -0.002441 -0.999756 0.017334 
vn -0.252197 -0.956787 -0.143799 
vn 0.244141 -0.958984 -0.142090 
vn -0.002441 -0.999756 0.017334 
vn -0.247803 -0.952637 0.174805 
vn -0.252197 -0.956787 -0.143799 
vn -0.002441 -0.999756 0.017334 
vn 0.244141 -0.958984 -0.142090 
vn 0.246094 -0.952881 0.176514 
vn -0.002441 -0.999756 0.017334 
vn 0.000000 0.067139 0.997559 
vn 0.000000 0.067139 0.997559 
vn 0.000000 0.067139 0.997559 
vn -0.000244 0.066895 0.997559 
vn -0.000244 0.066895 0.997559 
vn -0.000244 0.066895 0.997559 
vn 0.000977 0.148682 -0.988770 
vn 0.000977 0.148682 -0.988770 
vn 0.000977 0.148682 -0.988770 
vn 0.001465 0.148682 -0.988770 
vn 0.001465 0.148682 -0.988770 
vn 0.001465 0.148682 -0.988770 
vn -0.992188 0.105713 0.062988 
vn -0.992188 0.105713 0.062988 
vn -0.992188 0.105713 0.062988 
vn -0.992188 0.105713 0.063232 
vn -0.992188 0.105713 0.063232 
vn -0.992188 0.105713 0.063232 
vn 0.992432 0.105469 0.062500 
vn 0.992432 0.105469 0.062500 
vn 0.992432 0.105469 0.062500 
vn 0.992432 0.105469 0.062500 
vn 0.992432 0.105469 0.062500 
vn 0.992432 0.105469 0.062500 
vn 0.998047 -0.039551 -0.045654 
vn 0.515625 -0.064209 0.854248 
vn 0.964600 -0.053467 0.257568 
vn 0.515625 -0.064209 0.854248 
vn -0.217285 -0.063721 0.973877 
vn 0.964600 -0.053467 0.257568 
vn 0.515625 -0.064209 0.854248 
vn -0.861572 -0.011230 0.507080 
vn -0.217285 -0.063721 0.973877 
vn -0.861572 -0.011230 0.507080 
vn -0.987305 0.018066 0.157715 
vn -0.217285 -0.063721 0.973877 
vn -0.861572 -0.011230 0.507080 
vn -0.831787 0.048340 -0.552734 
vn -0.987305 0.018066 0.157715 
vn -0.831787 0.048340 -0.552734 
vn -0.425781 0.027100 -0.904297 
vn -0.987305 0.018066 0.157715 
vn -0.831787 0.048340 -0.552734 
vn 0.359863 0.009033 -0.932861 
vn -0.425781 0.027100 -0.904297 
vn 0.359863 0.009033 -0.932861 
vn 0.747314 -0.005615 -0.664307 
vn -0.425781 0.027100 -0.904297 
vn 0.359863 0.009033 -0.932861 
vn 0.998047 -0.039551 -0.045654 
vn 0.747314 -0.005615 -0.664307 
vn 0.998047 -0.039551 -0.045654 
vn 0.964600 -0.053467 0.257568 
vn 0.747314 -0.005615 -0.664307 
vn -0.694580 0.714844 0.077637 
vn -0.314453 0.859375 -0.402832 
vn -0.667969 0.733887 -0.121582 
vn -0.314453 0.859375 -0.402832 
vn 0.114258 0.848389 -0.516602 
vn -0.667969 0.733887 -0.121582 
vn -0.314453 0.859375 -0.402832 
vn 0.640869 0.705078 -0.302734 
vn 0.114258 0.848389 -0.516602 
vn 0.640869 0.705078 -0.302734 
vn 0.768799 0.632080 -0.095947 
vn 0.114258 0.848389 -0.516602 
vn 0.640869 0.705078 -0.302734 
vn 0.614502 0.736816 0.281494 
vn 0.768799 0.632080 -0.095947 
vn 0.614502 0.736816 0.281494 
vn 0.295166 0.862549 0.410645 
vn 0.768799 0.632080 -0.095947 
vn 0.614502 0.736816 0.281494 
vn -0.226807 0.856445 0.463135 
vn 0.295166 0.862549 0.410645 
vn -0.226807 0.856445 0.463135 
vn -0.508057 0.771973 0.381592 
vn 0.295166 0.862549 0.410645 
vn -0.226807 0.856445 0.463135 
vn -0.694580 0.714844 0.077637 
vn -0.508057 0.771973 0.381592 
vn -0.694580 0.714844 0.077637 
vn -0.667969 0.733887 -0.121582 
vn -0.508057 0.771973 0.381592 
vn 0.128174 0.985596 0.109863 
vn 0.456543 0.316650 0.831299 
vn 0.978027 0.200928 0.054688 
vn 0.128174 0.985596 0.109863 
vn -0.789062 0.278809 0.546875 
vn 0.456543 0.316650 0.831299 
vt 0.349206 0.285714 
vt 0.825397 0.095238 
vt 0.650794 0.095238 
vt 0.571429 0.920635 
vt 0.571429 0.650794 
vt 0.904762 0.634921 
vt 0.857143 0.507937 
vt 0.793651 0.079365 
vt 0.682540 0.142857 
vt 0.809524 0.555556 
vt 0.349206 0.285714 
vt 0.841270 0.968254 
vt 0.142857 0.492063 
vt 0.349206 0.523810 
vt 0.349206 0.285714 
vt 0.349206 0.285714 
vt 0.142857 0.285714 
vt 0.142857 0.492063 
vt 0.126984 0.698413 
vt 0.333333 0.666667 
vt 0.333333 0.888889 
vt 0.333333 0.888889 
vt 0.126984 0.841270 
vt 0.126984 0.698413 
vt 0.126984 0.841270 
vt 0.349206 0.841270 
vt 0.349206 0.555556 
vt 0.349206 0.555556 
vt 0.142857 0.492063 
vt 0.126984 0.841270 
vt 0.142857 0.285714 
vt 0.349206 0.285714 
vt 0.349206 0.682540 
vt 0.349206 0.682540 
vt 0.126984 0.698413 
vt 0.142857 0.285714 
vt 0.000000 0.682540 
vt 0.000000 0.460317 
vt 0.095238 0.682540 
vt 0.000000 0.460317 
vt 0.095238 0.444444 
vt 0.095238 0.682540 
vt 0.000000 0.222222 
vt 0.000000 0.523810 
vt 0.095238 0.238095 
vt 0.000000 0.523810 
vt 0.095238 0.539683 
vt 0.095238 0.238095 
vt 0.000000 0.523810 
vt 0.000000 0.222222 
vt 0.095238 0.539683 
vt 0.000000 0.222222 
vt 0.095238 0.222222 
vt 0.095238 0.539683 
vt 0.000000 0.222222 
vt 0.000000 0.444444 
vt 0.095238 0.222222 
vt 0.000000 0.444444 
vt 0.095238 0.444444 
vt 0.095238 0.222222 
vt 0.000000 0.444444 
vt 0.000000 0.682540 
vt 0.095238 0.444444 
vt 0.000000 0.682540 
vt 0.095238 0.682540 
vt 0.095238 0.444444 
vt 0.111111 0.380952 
vt 0.238095 0.380952 
vt 0.126984 0.285714 
vt 0.238095 0.380952 
vt 0.238095 0.285714 
vt 0.126984 0.285714 
vt 0.126984 0.079365 
vt 0.222222 0.079365 
vt 0.126984 -0.015873 
vt 0.222222 0.079365 
vt 0.222222 -0.015873 
vt 0.126984 -0.015873 
vt 0.222222 0.079365 
vt 0.190476 0.206349 
vt 0.222222 -0.015873 
vt 0.190476 0.206349 
vt 0.317460 -0.015873 
vt 0.222222 -0.015873 
vt 0.190476 0.206349 
vt 0.063492 0.222222 
vt 0.206349 0.111111 
vt 0.063492 0.222222 
vt 0.301587 0.111111 
vt 0.206349 0.111111 
vt 0.063492 0.222222 
vt 0.111111 0.380952 
vt 0.158730 0.079365 
vt 0.111111 0.380952 
vt 0.253968 0.079365 
vt 0.158730 0.079365 
vt 0.619048 0.666667 
vt 0.619048 0.444444 
vt 0.476190 0.444444 
vt 0.222222 0.666667 
vt 0.253968 0.444444 
vt 0.126984 0.444444 
f 1/1/1 2/2/2 3/3/3
f 4/4/4 5/5/5 6/6/6
f 7/7/7 8/8/8 9/9/9
f 10/10/10 11/11/11 12/12/12
f 13/13/13 14/14/14 15/15/15
f 16/16/16 17/17/17 18/18/18
f 19/19/19 20/20/20 21/21/21
f 22/22/22 23/23/23 24/24/24
f 25/25/25 26/26/26 27/27/27
f 28/28/28 29/29/29 30/30/30
f 31/31/31 32/32/32 33/33/33
f 34/34/34 35/35/35 36/36/36
f 37/37/37 38/38/38 39/39/39
f 40/40/40 41/41/41 42/42/42
f 43/43/43 44/44/44 45/45/45
f 46/46/46 47/47/47 48/48/48
f 49/49/49 50/50/50 51/51/51
f 52/52/52 53/53/53 54/54/54
f 55/55/55 56/56/56 57/57/57
f 58/58/58 59/59/59 60/60/60
f 61/61/61 62/62/62 63/63/63
f 64/64/64 65/65/65 66/66/66
f 67/67/67 68/68/68 69/69/69
f 70/70/70 71/71/71 72/72/72
f 73/73/73 74/74/74 75/75/75
f 76/76/76 77/77/77 78/78/78
f 79/79/79 80/80/80 81/81/81
f 82/82/82 83/83/83 84/84/84
f 85/85/85 86/86/86 87/87/87
f 88/88/88 89/89/89 90/90/90
f 91/91/91 92/92/92 93/93/93
f 94/94/94 95/95/95 96/96/96
f 97/97/97 98/98/98 99/99/99
f 100/100/100 101/101/101 102/102/102
