v -34.000000 3.000000 -14.000000 
v -36.000000 2.000000 13.000000 
v 0.000000 2.000000 11.000000 
v -19.000000 4.000000 -27.000000 
v -34.000000 3.000000 -14.000000 
v 0.000000 2.000000 11.000000 
v 0.000000 4.000000 -31.000000 
v -19.000000 4.000000 -27.000000 
v 0.000000 2.000000 11.000000 
v 19.000000 4.000000 -27.000000 
v 0.000000 4.000000 -31.000000 
v 0.000000 2.000000 11.000000 
v 33.000000 3.000000 -14.000000 
v 19.000000 4.000000 -27.000000 
v 0.000000 2.000000 11.000000 
v 36.000000 2.000000 13.000000 
v 33.000000 3.000000 -14.000000 
v 0.000000 2.000000 11.000000 
v -22.000000 -11.000000 -9.000000 
v -27.000000 -10.000000 16.000000 
v -36.000000 2.000000 13.000000 
v -34.000000 3.000000 -14.000000 
v -22.000000 -11.000000 -9.000000 
v -36.000000 2.000000 13.000000 
v -14.000000 -12.000000 -16.000000 
v -22.000000 -11.000000 -9.000000 
v -34.000000 3.000000 -14.000000 
v -19.000000 4.000000 -27.000000 
v -14.000000 -12.000000 -16.000000 
v -34.000000 3.000000 -14.000000 
v 0.000000 -13.000000 -18.000000 
v -14.000000 -12.000000 -16.000000 
v -19.000000 4.000000 -27.000000 
v 0.000000 4.000000 -31.000000 
v 0.000000 -13.000000 -18.000000 
v -19.000000 4.000000 -27.000000 
v 14.000000 -13.000000 -16.000000 
v 0.000000 -13.000000 -18.000000 
v 0.000000 4.000000 -31.000000 
v 19.000000 4.000000 -27.000000 
v 14.000000 -13.000000 -16.000000 
v 0.000000 4.000000 -31.000000 
v 22.000000 -12.000000 -9.000000 
v 14.000000 -13.000000 -16.000000 
v 19.000000 4.000000 -27.000000 
v 33.000000 3.000000 -14.000000 
v 22.000000 -12.000000 -9.000000 
v 19.000000 4.000000 -27.000000 
v 29.000000 -10.000000 16.000000 
v 22.000000 -12.000000 -9.000000 
v 33.000000 3.000000 -14.000000 
v 36.000000 2.000000 13.000000 
v 29.000000 -10.000000 16.000000 
v 33.000000 3.000000 -14.000000 
v 0.000000 -16.000000 18.000000 
v 29.000000 -10.000000 16.000000 
v 36.000000 2.000000 13.000000 
v 0.000000 -16.000000 18.000000 
v -27.000000 -10.000000 16.000000 
v 0.000000 -16.000000 -2.000000 
v -27.000000 -10.000000 16.000000 
v -22.000000 -11.000000 -9.000000 
v 0.000000 -16.000000 -2.000000 
v -22.000000 -11.000000 -9.000000 
v -14.000000 -12.000000 -16.000000 
v 0.000000 -16.000000 -2.000000 
v -14.000000 -12.000000 -16.000000 
v 0.000000 -13.000000 -18.000000 
v 0.000000 -16.000000 -2.000000 
v 0.000000 -13.000000 -18.000000 
v 14.000000 -13.000000 -16.000000 
v 0.000000 -16.000000 -2.000000 
v 14.000000 -13.000000 -16.000000 
v 22.000000 -12.000000 -9.000000 
v 0.000000 -16.000000 -2.000000 
v 22.000000 -12.000000 -9.000000 
v 29.000000 -10.000000 16.000000 
v 0.000000 -16.000000 -2.000000 
v 29.000000 -10.000000 16.000000 
v 0.000000 -16.000000 18.000000 
v 0.000000 -16.000000 -2.000000 
v -24.000000 2.000000 7.000000 
v -24.000000 2.000000 11.000000 
v -30.000000 4.000000 13.000000 
v -24.000000 14.000000 10.000000 
v -24.000000 2.000000 7.000000 
v -30.000000 4.000000 13.000000 
v -24.000000 23.000000 17.000000 
v -24.000000 14.000000 10.000000 
v -30.000000 4.000000 13.000000 
v 25.000000 1.000000 7.000000 
v 25.000000 0.000000 11.000000 
v -24.000000 2.000000 11.000000 
v -24.000000 2.000000 7.000000 
v 25.000000 1.000000 7.000000 
v -24.000000 2.000000 11.000000 
v 25.000000 14.000000 10.000000 
v 25.000000 1.000000 7.000000 
v -24.000000 2.000000 7.000000 
v -24.000000 14.000000 10.000000 
v 25.000000 14.000000 10.000000 
v -24.000000 2.000000 7.000000 
v 25.000000 23.000000 17.000000 
v 25.000000 14.000000 10.000000 
v -24.000000 14.000000 10.000000 
v -24.000000 23.000000 17.000000 
v 25.000000 23.000000 17.000000 
v -24.000000 14.000000 10.000000 
v 25.000000 0.000000 11.000000 
v 25.000000 1.000000 7.000000 
v 32.000000 4.000000 13.000000 
v 25.000000 1.000000 7.000000 
v 25.000000 14.000000 10.000000 
v 32.000000 4.000000 13.000000 
v 25.000000 14.000000 10.000000 
v 25.000000 23.000000 17.000000 
v 32.000000 4.000000 13.000000 
vn -0.853516 0.099365 -0.511230 
vn -0.992188 -0.089355 -0.083984 
vn 0.000000 0.998779 0.047363 
vn -0.379883 0.124268 -0.916504 
vn -0.853516 0.099365 -0.511230 
vn 0.000000 0.998779 0.047363 
vn 0.061523 0.115723 -0.991211 
vn -0.379883 0.124268 -0.916504 
vn 0.000000 0.998779 0.047363 
vn 0.572266 0.150879 -0.805908 
vn 0.061523 0.115723 -0.991211 
vn 0.000000 0.998779 0.047363 
vn 0.931885 0.172852 -0.318604 
vn 0.572266 0.150879 -0.805908 
vn 0.000000 0.998779 0.047363 
vn 0.600342 0.517578 0.609619 
vn 0.931885 0.172852 -0.318604 
vn 0.000000 0.998779 0.047363 
vn -0.566162 -0.804443 -0.178467 
vn -0.447754 -0.893066 -0.039551 
vn -0.992188 -0.089355 -0.083984 
vn -0.853516 0.099365 -0.511230 
vn -0.566162 -0.804443 -0.178467 
vn -0.992188 -0.089355 -0.083984 
vn -0.339111 -0.802002 -0.491211 
vn -0.566162 -0.804443 -0.178467 
vn -0.853516 0.099365 -0.511230 
vn -0.379883 0.124268 -0.916504 
vn -0.339111 -0.802002 -0.491211 
vn -0.853516 0.099365 -0.511230 
vn -0.060547 -0.798340 -0.598877 
vn -0.339111 -0.802002 -0.491211 
vn -0.379883 0.124268 -0.916504 
vn 0.061523 0.115723 -0.991211 
vn -0.060547 -0.798340 -0.598877 
vn -0.379883 0.124268 -0.916504 
vn 0.259277 -0.801514 -0.538330 
vn -0.060547 -0.798340 -0.598877 
vn 0.061523 0.115723 -0.991211 
vn 0.572266 0.150879 -0.805908 
vn 0.259277 -0.801514 -0.538330 
vn 0.061523 0.115723 -0.991211 
vn 0.517334 -0.797607 -0.309814 
vn 0.259277 -0.801514 -0.538330 
vn 0.572266 0.150879 -0.805908 
vn 0.931885 0.172852 -0.318604 
vn 0.517334 -0.797607 -0.309814 
vn 0.572266 0.150879 -0.805908 
vn 0.595947 -0.774658 0.210693 
vn 0.517334 -0.797607 -0.309814 
vn 0.931885 0.172852 -0.318604 
vn 0.600342 0.517578 0.609619 
vn 0.595947 -0.774658 0.210693 
vn 0.931885 0.172852 -0.318604 
vn 0.009766 -0.861572 0.507324 
vn 0.595947 -0.774658 0.210693 
vn 0.600342 0.517578 0.609619 
vn 0.009766 -0.861572 0.507324 
vn -0.447754 -0.893066 -0.039551 
vn -0.011963 -0.997803 -0.062500 
vn -0.447754 -0.893066 -0.039551 
vn -0.566162 -0.804443 -0.178467 
vn -0.011963 -0.997803 -0.062500 
vn -0.566162 -0.804443 -0.178467 
vn -0.339111 -0.802002 -0.491211 
vn -0.011963 -0.997803 -0.062500 
vn -0.339111 -0.802002 -0.491211 
vn -0.060547 -0.798340 -0.598877 
vn -0.011963 -0.997803 -0.062500 
vn -0.060547 -0.798340 -0.598877 
vn 0.259277 -0.801514 -0.538330 
vn -0.011963 -0.997803 -0.062500 
vn 0.259277 -0.801514 -0.538330 
vn 0.517334 -0.797607 -0.309814 
vn -0.011963 -0.997803 -0.062500 
vn 0.517334 -0.797607 -0.309814 
vn 0.595947 -0.774658 0.210693 
vn -0.011963 -0.997803 -0.062500 
vn 0.595947 -0.774658 0.210693 
vn 0.009766 -0.861572 0.507324 
vn -0.011963 -0.997803 -0.062500 
vn -0.372314 -0.426514 -0.823975 
vn -0.144531 -0.988037 -0.049072 
vn -0.880859 -0.204834 -0.426514 
vn -0.377930 0.455078 -0.805908 
vn -0.372314 -0.426514 -0.823975 
vn -0.880859 -0.204834 -0.426514 
vn -0.513428 0.552734 -0.656250 
vn -0.377930 0.455078 -0.805908 
vn -0.880859 -0.204834 -0.426514 
vn 0.334473 -0.724365 -0.602539 
vn 0.250488 -0.952393 -0.173340 
vn -0.144531 -0.988037 -0.049072 
vn -0.372314 -0.426514 -0.823975 
vn 0.334473 -0.724365 -0.602539 
vn -0.144531 -0.988037 -0.049072 
vn 0.329102 0.366943 -0.869873 
vn 0.334473 -0.724365 -0.602539 
vn -0.372314 -0.426514 -0.823975 
vn -0.377930 0.455078 -0.805908 
vn 0.329102 0.366943 -0.869873 
vn -0.372314 -0.426514 -0.823975 
vn 0.301025 0.614258 -0.729248 
vn 0.329102 0.366943 -0.869873 
vn -0.377930 0.455078 -0.805908 
vn -0.513428 0.552734 -0.656250 
vn 0.301025 0.614258 -0.729248 
vn -0.377930 0.455078 -0.805908 
vn 0.250488 -0.952393 -0.173340 
vn 0.334473 -0.724365 -0.602539 
vn 0.823242 -0.125244 -0.553467 
vn 0.334473 -0.724365 -0.602539 
vn 0.329102 0.366943 -0.869873 
vn 0.823242 -0.125244 -0.553467 
vn 0.329102 0.366943 -0.869873 
vn 0.301025 0.614258 -0.729248 
vn 0.823242 -0.125244 -0.553467 
vt 0.095238 0.603175 
vt 0.031746 0.746032 
vt 0.476190 0.936508 
vt 0.269841 0.507937 
vt 0.095238 0.603175 
vt 0.476190 0.936508 
vt 0.492063 0.460317 
vt 0.269841 0.507937 
vt 0.476190 0.936508 
vt 0.777778 0.507937 
vt 0.492063 0.460317 
vt 0.476190 0.936508 
vt 0.968254 0.730159 
vt 0.777778 0.507937 
vt 0.476190 0.936508 
vt 0.984127 0.412698 
vt 0.968254 0.730159 
vt 0.476190 0.936508 
vt 0.238095 0.285714 
vt 0.158730 0.317460 
vt 0.031746 0.746032 
vt 0.095238 0.603175 
vt 0.238095 0.285714 
vt 0.031746 0.746032 
vt 0.349206 0.285714 
vt 0.238095 0.285714 
vt 0.095238 0.603175 
vt 0.269841 0.507937 
vt 0.349206 0.285714 
vt 0.095238 0.603175 
vt 0.492063 0.269841 
vt 0.349206 0.285714 
vt 0.269841 0.507937 
vt 0.492063 0.460317 
vt 0.492063 0.269841 
vt 0.269841 0.507937 
vt 0.634921 0.285714 
vt 0.492063 0.269841 
vt 0.492063 0.460317 
vt 0.777778 0.507937 
vt 0.634921 0.285714 
vt 0.492063 0.460317 
vt 0.746032 0.285714 
vt 0.634921 0.285714 
vt 0.777778 0.507937 
vt 0.968254 0.730159 
vt 0.746032 0.285714 
vt 0.777778 0.507937 
vt 0.825397 0.317460 
vt 0.746032 0.285714 
vt 0.968254 0.730159 
vt 0.984127 0.412698 
vt 0.825397 0.317460 
vt 0.968254 0.730159 
vt 0.492063 0.000000 
vt 0.825397 0.317460 
vt 0.984127 0.412698 
vt 0.492063 0.000000 
vt 0.158730 0.317460 
vt 0.492063 0.095238 
vt 0.158730 0.317460 
vt 0.238095 0.285714 
vt 0.492063 0.095238 
vt 0.238095 0.285714 
vt 0.349206 0.285714 
vt 0.492063 0.095238 
vt 0.349206 0.285714 
vt 0.492063 0.269841 
vt 0.492063 0.095238 
vt 0.492063 0.269841 
vt 0.634921 0.285714 
vt 0.492063 0.095238 
vt 0.634921 0.285714 
vt 0.746032 0.285714 
vt 0.492063 0.095238 
vt 0.746032 0.285714 
vt 0.825397 0.317460 
vt 0.492063 0.095238 
vt 0.825397 0.317460 
vt 0.492063 0.000000 
vt 0.492063 0.095238 
vt 0.031746 0.714286 
vt 0.031746 0.698413 
vt 0.000000 0.761905 
vt 0.031746 0.793651 
vt 0.031746 0.714286 
vt 0.000000 0.761905 
vt 0.031746 0.809524 
vt 0.031746 0.793651 
vt 0.000000 0.761905 
vt 0.936508 0.714286 
vt 0.952381 0.682540 
vt 0.031746 0.698413 
vt 0.031746 0.714286 
vt 0.936508 0.714286 
vt 0.031746 0.698413 
vt 0.936508 0.777778 
vt 0.936508 0.714286 
vt 0.031746 0.714286 
vt 0.031746 0.793651 
vt 0.936508 0.777778 
vt 0.031746 0.714286 
vt 0.952381 0.809524 
vt 0.936508 0.777778 
vt 0.031746 0.793651 
vt 0.031746 0.809524 
vt 0.952381 0.809524 
vt 0.031746 0.793651 
vt 0.952381 0.682540 
vt 0.936508 0.714286 
vt 0.984127 0.730159 
vt 0.936508 0.714286 
vt 0.936508 0.777778 
vt 0.984127 0.730159 
vt 0.936508 0.777778 
vt 0.952381 0.809524 
vt 0.984127 0.730159 
f 1/1/1 2/2/2 3/3/3
f 4/4/4 5/5/5 6/6/6
f 7/7/7 8/8/8 9/9/9
f 10/10/10 11/11/11 12/12/12
f 13/13/13 14/14/14 15/15/15
f 16/16/16 17/17/17 18/18/18
f 19/19/19 20/20/20 21/21/21
f 22/22/22 23/23/23 24/24/24
f 25/25/25 26/26/26 27/27/27
f 28/28/28 29/29/29 30/30/30
f 31/31/31 32/32/32 33/33/33
f 34/34/34 35/35/35 36/36/36
f 37/37/37 38/38/38 39/39/39
f 40/40/40 41/41/41 42/42/42
f 43/43/43 44/44/44 45/45/45
f 46/46/46 47/47/47 48/48/48
f 49/49/49 50/50/50 51/51/51
f 52/52/52 53/53/53 54/54/54
f 55/55/55 56/56/56 57/57/57
f 58/58/58 59/59/59 60/60/60
f 61/61/61 62/62/62 63/63/63
f 64/64/64 65/65/65 66/66/66
f 67/67/67 68/68/68 69/69/69
f 70/70/70 71/71/71 72/72/72
f 73/73/73 74/74/74 75/75/75
f 76/76/76 77/77/77 78/78/78
f 79/79/79 80/80/80 81/81/81
f 82/82/82 83/83/83 84/84/84
f 85/85/85 86/86/86 87/87/87
f 88/88/88 89/89/89 90/90/90
f 91/91/91 92/92/92 93/93/93
f 94/94/94 95/95/95 96/96/96
f 97/97/97 98/98/98 99/99/99
f 100/100/100 101/101/101 102/102/102
f 103/103/103 104/104/104 105/105/105
f 106/106/106 107/107/107 108/108/108
f 109/109/109 110/110/110 111/111/111
f 112/112/112 113/113/113 114/114/114
f 115/115/115 116/116/116 117/117/117
