v 7.000000 -3.000000 -25.000000 
v 7.000000 2.000000 -24.000000 
v 20.000000 5.000000 -31.000000 
v 20.000000 5.000000 -31.000000 
v 7.000000 2.000000 -24.000000 
v 21.000000 19.000000 -18.000000 
v 8.000000 11.000000 -16.000000 
v 8.000000 15.000000 -13.000000 
v 21.000000 19.000000 -18.000000 
v 21.000000 19.000000 -18.000000 
v 8.000000 15.000000 -13.000000 
v 23.000000 25.000000 -1.000000 
v 7.000000 2.000000 -24.000000 
v 8.000000 11.000000 -16.000000 
v 21.000000 19.000000 -18.000000 
v 9.000000 18.000000 -3.000000 
v 9.000000 20.000000 0.000000 
v 23.000000 25.000000 -1.000000 
v 8.000000 15.000000 -13.000000 
v 9.000000 18.000000 -3.000000 
v 23.000000 25.000000 -1.000000 
v 23.000000 25.000000 -1.000000 
v 9.000000 20.000000 0.000000 
v 24.000000 20.000000 12.000000 
v 10.000000 17.000000 8.000000 
v 11.000000 15.000000 12.000000 
v 24.000000 20.000000 12.000000 
v 9.000000 20.000000 0.000000 
v 10.000000 17.000000 8.000000 
v 24.000000 20.000000 12.000000 
v 24.000000 20.000000 12.000000 
v 11.000000 15.000000 12.000000 
v 25.000000 5.000000 25.000000 
v 11.000000 7.000000 19.000000 
v 12.000000 2.000000 22.000000 
v 25.000000 5.000000 25.000000 
v 11.000000 15.000000 12.000000 
v 11.000000 7.000000 19.000000 
v 25.000000 5.000000 25.000000 
vn -0.504150 0.329834 -0.797852 
vn -0.447266 0.599365 -0.663574 
vn -0.481445 0.481689 -0.731934 
vn -0.481445 0.481689 -0.731934 
vn -0.447266 0.599365 -0.663574 
vn -0.329834 0.847412 -0.415527 
vn -0.358154 0.775635 -0.519287 
vn -0.296387 0.888428 -0.350098 
vn -0.329834 0.847412 -0.415527 
vn -0.329834 0.847412 -0.415527 
vn -0.296387 0.888428 -0.350098 
vn -0.213867 0.974121 -0.072021 
vn -0.447266 0.599365 -0.663574 
vn -0.358154 0.775635 -0.519287 
vn -0.329834 0.847412 -0.415527 
vn -0.221191 0.958252 -0.179688 
vn -0.197266 0.980225 0.002686 
vn -0.213867 0.974121 -0.072021 
vn -0.296387 0.888428 -0.350098 
vn -0.221191 0.958252 -0.179688 
vn -0.213867 0.974121 -0.072021 
vn -0.213867 0.974121 -0.072021 
vn -0.197266 0.980225 0.002686 
vn -0.176270 0.935547 0.305420 
vn -0.175293 0.956787 0.231445 
vn -0.179688 0.901123 0.394043 
vn -0.176270 0.935547 0.305420 
vn -0.197266 0.980225 0.002686 
vn -0.175293 0.956787 0.231445 
vn -0.176270 0.935547 0.305420 
vn -0.176270 0.935547 0.305420 
vn -0.179688 0.901123 0.394043 
vn -0.220459 0.702881 0.676025 
vn -0.210693 0.760986 0.613281 
vn -0.263184 0.543701 0.796631 
vn -0.220459 0.702881 0.676025 
vn -0.179688 0.901123 0.394043 
vn -0.210693 0.760986 0.613281 
vn -0.220459 0.702881 0.676025 
vt 0.507937 0.111111 
vt 0.507937 0.111111 
vt 0.507937 0.000000 
vt 0.507937 0.000000 
vt 0.507937 0.111111 
vt 0.222222 0.000000 
vt 0.349206 0.111111 
vt 0.222222 0.111111 
vt 0.222222 0.000000 
vt 0.222222 0.000000 
vt 0.222222 0.111111 
vt 0.000000 0.000000 
vt 0.507937 0.111111 
vt 0.349206 0.111111 
vt 0.222222 0.000000 
vt 0.095238 0.111111 
vt 0.000000 0.111111 
vt 0.000000 0.000000 
vt 0.222222 0.111111 
vt 0.095238 0.111111 
vt 0.000000 0.000000 
vt 0.000000 0.000000 
vt 0.000000 0.111111 
vt 0.460317 0.015873 
vt 0.253968 0.126984 
vt 0.460317 0.126984 
vt 0.460317 0.015873 
vt 0.000000 0.111111 
vt 0.253968 0.126984 
vt 0.460317 0.015873 
vt 0.460317 0.000000 
vt 0.460317 0.111111 
vt 0.238095 0.000000 
vt 0.333333 0.111111 
vt 0.238095 0.111111 
vt 0.238095 0.000000 
vt 0.460317 0.111111 
vt 0.333333 0.111111 
vt 0.238095 0.000000 
f 1/1/1 2/2/2 3/3/3
f 4/4/4 5/5/5 6/6/6
f 7/7/7 8/8/8 9/9/9
f 10/10/10 11/11/11 12/12/12
f 13/13/13 14/14/14 15/15/15
f 16/16/16 17/17/17 18/18/18
f 19/19/19 20/20/20 21/21/21
f 22/22/22 23/23/23 24/24/24
f 25/25/25 26/26/26 27/27/27
f 28/28/28 29/29/29 30/30/30
f 31/31/31 32/32/32 33/33/33
f 34/34/34 35/35/35 36/36/36
f 37/37/37 38/38/38 39/39/39
