v -5.000000 3.000000 -3.000000 
v 0.000000 6.000000 -2.000000 
v 0.000000 0.000000 -6.000000 
v -5.000000 -2.000000 -4.000000 
v -5.000000 3.000000 -3.000000 
v 0.000000 0.000000 -6.000000 
v 0.000000 -5.000000 -4.000000 
v -5.000000 -2.000000 -4.000000 
v 0.000000 0.000000 -6.000000 
v 5.000000 -2.000000 -4.000000 
v 0.000000 -5.000000 -4.000000 
v 0.000000 0.000000 -6.000000 
v 5.000000 3.000000 -3.000000 
v 5.000000 -2.000000 -4.000000 
v 0.000000 0.000000 -6.000000 
v 0.000000 6.000000 -2.000000 
v 5.000000 3.000000 -3.000000 
v 0.000000 0.000000 -6.000000 
v -5.000000 3.000000 0.000000 
v 0.000000 6.000000 0.000000 
v 0.000000 6.000000 -2.000000 
v -5.000000 3.000000 -3.000000 
v -5.000000 3.000000 0.000000 
v 0.000000 6.000000 -2.000000 
v -5.000000 -3.000000 -1.000000 
v -5.000000 3.000000 0.000000 
v -5.000000 3.000000 -3.000000 
v -5.000000 -2.000000 -4.000000 
v -5.000000 -3.000000 -1.000000 
v -5.000000 3.000000 -3.000000 
v 0.000000 -6.000000 -1.000000 
v -5.000000 -3.000000 -1.000000 
v -5.000000 -2.000000 -4.000000 
v 0.000000 -5.000000 -4.000000 
v 0.000000 -6.000000 -1.000000 
v -5.000000 -2.000000 -4.000000 
v 5.000000 -3.000000 -1.000000 
v 0.000000 -6.000000 -1.000000 
v 0.000000 -5.000000 -4.000000 
v 5.000000 -2.000000 -4.000000 
v 5.000000 -3.000000 -1.000000 
v 0.000000 -5.000000 -4.000000 
v 5.000000 3.000000 0.000000 
v 5.000000 -3.000000 -1.000000 
v 5.000000 -2.000000 -4.000000 
v 5.000000 3.000000 -3.000000 
v 5.000000 3.000000 0.000000 
v 5.000000 -2.000000 -4.000000 
v 0.000000 6.000000 0.000000 
v 5.000000 3.000000 0.000000 
v 5.000000 3.000000 -3.000000 
v 0.000000 6.000000 -2.000000 
v 0.000000 6.000000 0.000000 
v 5.000000 3.000000 -3.000000 
v -15.000000 -19.000000 -8.000000 
v -9.000000 -25.000000 -10.000000 
v -22.000000 -37.000000 -11.000000 
v -22.000000 -37.000000 -11.000000 
v -20.000000 -19.000000 -3.000000 
v -15.000000 -19.000000 -8.000000 
v -9.000000 -25.000000 -10.000000 
v -6.000000 -10.000000 -7.000000 
v -2.000000 -11.000000 -4.000000 
v -6.000000 -10.000000 -7.000000 
v -9.000000 -25.000000 -10.000000 
v -15.000000 -19.000000 -8.000000 
v -15.000000 -19.000000 -8.000000 
v -10.000000 -8.000000 -1.000000 
v -6.000000 -10.000000 -7.000000 
v -10.000000 -8.000000 -1.000000 
v -15.000000 -19.000000 -8.000000 
v -20.000000 -19.000000 -3.000000 
v 0.000000 -1.000000 -3.000000 
v -2.000000 -11.000000 -4.000000 
v -6.000000 -10.000000 -7.000000 
v -6.000000 -10.000000 -7.000000 
v -10.000000 -8.000000 -1.000000 
v 0.000000 -1.000000 -3.000000 
v 9.000000 -25.000000 -10.000000 
v 16.000000 -19.000000 -8.000000 
v 23.000000 -37.000000 -11.000000 
v 20.000000 -19.000000 -3.000000 
v 23.000000 -37.000000 -11.000000 
v 16.000000 -19.000000 -8.000000 
v 7.000000 -10.000000 -7.000000 
v 9.000000 -25.000000 -10.000000 
v 3.000000 -11.000000 -4.000000 
v 9.000000 -25.000000 -10.000000 
v 7.000000 -10.000000 -7.000000 
v 16.000000 -19.000000 -8.000000 
v 11.000000 -8.000000 -1.000000 
v 16.000000 -19.000000 -8.000000 
v 7.000000 -10.000000 -7.000000 
v 16.000000 -19.000000 -8.000000 
v 11.000000 -8.000000 -1.000000 
v 20.000000 -19.000000 -3.000000 
v 3.000000 -11.000000 -4.000000 
v 0.000000 -1.000000 -3.000000 
v 7.000000 -10.000000 -7.000000 
v 11.000000 -8.000000 -1.000000 
v 7.000000 -10.000000 -7.000000 
v 0.000000 -1.000000 -3.000000 
vn -0.866699 0.352783 -0.351807 
vn -0.167969 0.931396 -0.322510 
vn 0.000000 0.156250 -0.987549 
vn -0.774414 -0.417725 -0.474609 
vn -0.866699 0.352783 -0.351807 
vn 0.000000 0.156250 -0.987549 
vn 0.167969 -0.786133 -0.594482 
vn -0.774414 -0.417725 -0.474609 
vn 0.000000 0.156250 -0.987549 
vn 0.866699 -0.226807 -0.443604 
vn 0.167969 -0.786133 -0.594482 
vn 0.000000 0.156250 -0.987549 
vn 0.774414 0.543945 -0.322266 
vn 0.866699 -0.226807 -0.443604 
vn 0.000000 0.156250 -0.987549 
vn -0.167969 0.931396 -0.322510 
vn 0.774414 0.543945 -0.322266 
vn 0.000000 0.156250 -0.987549 
vn -0.817139 0.569092 0.090088 
vn 0.252441 0.955566 0.151123 
vn -0.167969 0.931396 -0.322510 
vn -0.866699 0.352783 -0.351807 
vn -0.817139 0.569092 0.090088 
vn -0.167969 0.931396 -0.322510 
vn -0.957520 -0.284424 -0.044922 
vn -0.817139 0.569092 0.090088 
vn -0.866699 0.352783 -0.351807 
vn -0.774414 -0.417725 -0.474609 
vn -0.957520 -0.284424 -0.044922 
vn -0.866699 0.352783 -0.351807 
vn -0.252441 -0.955566 -0.151123 
vn -0.957520 -0.284424 -0.044922 
vn -0.774414 -0.417725 -0.474609 
vn 0.167969 -0.786133 -0.594482 
vn -0.252441 -0.955566 -0.151123 
vn -0.774414 -0.417725 -0.474609 
vn 0.817139 -0.569092 -0.090088 
vn -0.252441 -0.955566 -0.151123 
vn 0.167969 -0.786133 -0.594482 
vn 0.866699 -0.226807 -0.443604 
vn 0.817139 -0.569092 -0.090088 
vn 0.167969 -0.786133 -0.594482 
vn 0.957520 0.284424 0.044922 
vn 0.817139 -0.569092 -0.090088 
vn 0.866699 -0.226807 -0.443604 
vn 0.774414 0.543945 -0.322266 
vn 0.957520 0.284424 0.044922 
vn 0.866699 -0.226807 -0.443604 
vn 0.252441 0.955566 0.151123 
vn 0.957520 0.284424 0.044922 
vn 0.774414 0.543945 -0.322266 
vn -0.167969 0.931396 -0.322510 
vn 0.252441 0.955566 0.151123 
vn 0.774414 0.543945 -0.322266 
vn -0.525635 0.387451 -0.757080 
vn 0.112061 0.179932 -0.977051 
vn -0.507568 0.279053 -0.814941 
vn -0.507568 0.279053 -0.814941 
vn -0.728027 0.423828 -0.538574 
vn -0.525635 0.387451 -0.757080 
vn 0.112061 0.179932 -0.977051 
vn -0.052490 0.353027 -0.934082 
vn 0.634521 0.016357 -0.772461 
vn -0.052490 0.353027 -0.934082 
vn 0.112061 0.179932 -0.977051 
vn -0.525635 0.387451 -0.757080 
vn -0.525635 0.387451 -0.757080 
vn -0.658447 0.542236 -0.521729 
vn -0.052490 0.353027 -0.934082 
vn -0.658447 0.542236 -0.521729 
vn -0.525635 0.387451 -0.757080 
vn -0.728027 0.423828 -0.538574 
vn -0.013672 0.372803 -0.927734 
vn 0.634521 0.016357 -0.772461 
vn -0.052490 0.353027 -0.934082 
vn -0.052490 0.353027 -0.934082 
vn -0.658447 0.542236 -0.521729 
vn -0.013672 0.372803 -0.927734 
vn -0.112061 0.179932 -0.977051 
vn 0.525635 0.387451 -0.757080 
vn 0.507568 0.279053 -0.814941 
vn 0.728027 0.423828 -0.538574 
vn 0.507568 0.279053 -0.814941 
vn 0.525635 0.387451 -0.757080 
vn 0.052490 0.353027 -0.934082 
vn -0.112061 0.179932 -0.977051 
vn -0.634521 0.016357 -0.772461 
vn -0.112061 0.179932 -0.977051 
vn 0.052490 0.353027 -0.934082 
vn 0.525635 0.387451 -0.757080 
vn 0.658447 0.542236 -0.521729 
vn 0.525635 0.387451 -0.757080 
vn 0.052490 0.353027 -0.934082 
vn 0.525635 0.387451 -0.757080 
vn 0.658447 0.542236 -0.521729 
vn 0.728027 0.423828 -0.538574 
vn -0.634521 0.016357 -0.772461 
vn 0.013672 0.372803 -0.927734 
vn 0.052490 0.353027 -0.934082 
vn 0.658447 0.542236 -0.521729 
vn 0.052490 0.353027 -0.934082 
vn 0.013672 0.372803 -0.927734 
vt 0.000000 0.741935 
vt 0.483871 0.967742 
vt 0.483871 0.483871 
vt 0.000000 0.225806 
vt 0.000000 0.741935 
vt 0.483871 0.483871 
vt 0.483871 0.000000 
vt 0.000000 0.225806 
vt 0.483871 0.483871 
vt 0.967742 0.225806 
vt 0.483871 0.000000 
vt 0.483871 0.483871 
vt 0.967742 0.741935 
vt 0.967742 0.225806 
vt 0.483871 0.483871 
vt 0.483871 0.967742 
vt 0.967742 0.741935 
vt 0.483871 0.483871 
vt 0.000000 0.741935 
vt 0.483871 0.967742 
vt 0.483871 0.967742 
vt 0.000000 0.741935 
vt 0.000000 0.741935 
vt 0.483871 0.967742 
vt 0.000000 0.225806 
vt 0.000000 0.741935 
vt 0.000000 0.741935 
vt 0.000000 0.225806 
vt 0.000000 0.225806 
vt 0.000000 0.741935 
vt 0.483871 0.000000 
vt 0.000000 0.225806 
vt 0.000000 0.225806 
vt 0.483871 0.000000 
vt 0.483871 0.000000 
vt 0.000000 0.225806 
vt 0.967742 0.225806 
vt 0.483871 0.000000 
vt 0.483871 0.000000 
vt 0.967742 0.225806 
vt 0.967742 0.225806 
vt 0.483871 0.000000 
vt 0.967742 0.741935 
vt 0.967742 0.225806 
vt 0.967742 0.225806 
vt 0.967742 0.741935 
vt 0.967742 0.741935 
vt 0.967742 0.225806 
vt 0.483871 0.967742 
vt 0.967742 0.741935 
vt 0.967742 0.741935 
vt 0.483871 0.967742 
vt 0.483871 0.967742 
vt 0.967742 0.741935 
vt 0.741935 0.516129 
vt 0.903226 0.000000 
vt 0.967742 0.483871 
vt 0.967742 0.483871 
vt 0.967742 0.967742 
vt 0.741935 0.516129 
vt 0.903226 0.000000 
vt 0.225806 0.483871 
vt 0.032258 0.032258 
vt 0.225806 0.483871 
vt 0.903226 0.000000 
vt 0.741935 0.516129 
vt 0.741935 0.516129 
vt 0.064516 0.967742 
vt 0.225806 0.483871 
vt 0.064516 0.967742 
vt 0.741935 0.516129 
vt 0.967742 0.967742 
vt 0.000000 0.483871 
vt 0.032258 0.032258 
vt 0.225806 0.483871 
vt 0.225806 0.483871 
vt 0.064516 0.967742 
vt 0.000000 0.483871 
vt 0.870968 -0.032258 
vt 0.677419 0.451613 
vt 0.967742 0.451613 
vt 0.903226 0.870968 
vt 0.967742 0.451613 
vt 0.677419 0.451613 
vt 0.193548 0.451613 
vt 0.870968 -0.032258 
vt 0.096774 0.032258 
vt 0.870968 -0.032258 
vt 0.193548 0.451613 
vt 0.677419 0.451613 
vt 0.129032 0.870968 
vt 0.677419 0.451613 
vt 0.193548 0.451613 
vt 0.677419 0.451613 
vt 0.129032 0.870968 
vt 0.903226 0.870968 
vt 0.096774 0.032258 
vt 0.000000 0.483871 
vt 0.193548 0.451613 
vt 0.129032 0.870968 
vt 0.193548 0.451613 
vt 0.000000 0.483871 
f 1/1/1 2/2/2 3/3/3
f 4/4/4 5/5/5 6/6/6
f 7/7/7 8/8/8 9/9/9
f 10/10/10 11/11/11 12/12/12
f 13/13/13 14/14/14 15/15/15
f 16/16/16 17/17/17 18/18/18
f 19/19/19 20/20/20 21/21/21
f 22/22/22 23/23/23 24/24/24
f 25/25/25 26/26/26 27/27/27
f 28/28/28 29/29/29 30/30/30
f 31/31/31 32/32/32 33/33/33
f 34/34/34 35/35/35 36/36/36
f 37/37/37 38/38/38 39/39/39
f 40/40/40 41/41/41 42/42/42
f 43/43/43 44/44/44 45/45/45
f 46/46/46 47/47/47 48/48/48
f 49/49/49 50/50/50 51/51/51
f 52/52/52 53/53/53 54/54/54
f 55/55/55 56/56/56 57/57/57
f 58/58/58 59/59/59 60/60/60
f 61/61/61 62/62/62 63/63/63
f 64/64/64 65/65/65 66/66/66
f 67/67/67 68/68/68 69/69/69
f 70/70/70 71/71/71 72/72/72
f 73/73/73 74/74/74 75/75/75
f 76/76/76 77/77/77 78/78/78
f 79/79/79 80/80/80 81/81/81
f 82/82/82 83/83/83 84/84/84
f 85/85/85 86/86/86 87/87/87
f 88/88/88 89/89/89 90/90/90
f 91/91/91 92/92/92 93/93/93
f 94/94/94 95/95/95 96/96/96
f 97/97/97 98/98/98 99/99/99
f 100/100/100 101/101/101 102/102/102
