v -24.000000 3.000000 96.000000 
v -166.000000 3.000000 -96.000000 
v -166.000000 3.000000 96.000000 
v -166.000000 3.000000 -96.000000 
v -24.000000 3.000000 96.000000 
v -24.000000 3.000000 -96.000000 
vn 0.000000 1.000000 0.000000 
vn 0.000000 1.000000 0.000000 
vn 0.000000 1.000000 0.000000 
vn 0.000000 1.000000 0.000000 
vn 0.000000 1.000000 0.000000 
vn 0.000000 1.000000 0.000000 
vt 1.000000 1.000000 
vt 0.000000 0.129032 
vt 0.000000 1.000000 
vt 0.000000 0.129032 
vt 1.000000 1.000000 
vt 1.000000 0.129032 
f 1/1/1 2/2/2 3/3/3
f 4/4/4 5/5/5 6/6/6
