v 0.000000 20.000000 -7.000000 
v 7.000000 19.000000 -8.000000 
v 5.000000 2.000000 -20.000000 
v 0.000000 20.000000 -7.000000 
v 2.000000 20.000000 12.000000 
v 7.000000 19.000000 -8.000000 
v 2.000000 20.000000 12.000000 
v 9.000000 19.000000 11.000000 
v 7.000000 19.000000 -8.000000 
v 2.000000 20.000000 12.000000 
v 3.000000 1.000000 28.000000 
v 9.000000 19.000000 11.000000 
v 3.000000 1.000000 28.000000 
v 10.000000 1.000000 26.000000 
v 9.000000 19.000000 11.000000 
v 5.000000 2.000000 -20.000000 
v 7.000000 19.000000 -8.000000 
v 13.000000 2.000000 -21.000000 
v 7.000000 19.000000 -8.000000 
v 14.000000 19.000000 -9.000000 
v 13.000000 2.000000 -21.000000 
v 7.000000 19.000000 -8.000000 
v 9.000000 19.000000 11.000000 
v 14.000000 19.000000 -9.000000 
v 9.000000 19.000000 11.000000 
v 16.000000 19.000000 10.000000 
v 14.000000 19.000000 -9.000000 
v 9.000000 19.000000 11.000000 
v 10.000000 1.000000 26.000000 
v 16.000000 19.000000 10.000000 
v 10.000000 1.000000 26.000000 
v 18.000000 1.000000 25.000000 
v 16.000000 19.000000 10.000000 
vn 0.039062 0.804932 -0.591553 
vn -0.028564 0.890625 -0.453613 
vn -0.036865 0.379395 -0.924316 
vn 0.039062 0.804932 -0.591553 
vn 0.084717 0.960938 0.262451 
vn -0.028564 0.890625 -0.453613 
vn 0.084717 0.960938 0.262451 
vn 0.094727 0.906738 0.410400 
vn -0.028564 0.890625 -0.453613 
vn 0.084717 0.960938 0.262451 
vn 0.229004 0.495605 0.837646 
vn 0.094727 0.906738 0.410400 
vn 0.229004 0.495605 0.837646 
vn 0.197510 0.416260 0.887207 
vn 0.094727 0.906738 0.410400 
vn -0.036865 0.379395 -0.924316 
vn -0.028564 0.890625 -0.453613 
vn -0.212891 0.373047 -0.902832 
vn -0.028564 0.890625 -0.453613 
vn -0.083252 0.893799 -0.440186 
vn -0.212891 0.373047 -0.902832 
vn -0.028564 0.890625 -0.453613 
vn 0.094727 0.906738 0.410400 
vn -0.083252 0.893799 -0.440186 
vn 0.094727 0.906738 0.410400 
vn 0.056396 0.905762 0.419434 
vn -0.083252 0.893799 -0.440186 
vn 0.094727 0.906738 0.410400 
vn 0.197510 0.416260 0.887207 
vn 0.056396 0.905762 0.419434 
vn 0.197510 0.416260 0.887207 
vn 0.143799 0.419189 0.896240 
vn 0.056396 0.905762 0.419434 
vt 0.158730 0.317460 
vt 0.158730 0.238095 
vt 0.079365 0.238095 
vt 0.158730 0.317460 
vt 0.238095 0.317460 
vt 0.158730 0.238095 
vt 0.238095 0.317460 
vt 0.238095 0.238095 
vt 0.158730 0.238095 
vt 0.238095 0.317460 
vt 0.380952 0.317460 
vt 0.238095 0.238095 
vt 0.380952 0.317460 
vt 0.380952 0.238095 
vt 0.238095 0.238095 
vt 0.079365 0.238095 
vt 0.158730 0.238095 
vt 0.079365 0.174603 
vt 0.158730 0.238095 
vt 0.158730 0.174603 
vt 0.079365 0.174603 
vt 0.158730 0.238095 
vt 0.238095 0.238095 
vt 0.158730 0.174603 
vt 0.238095 0.238095 
vt 0.238095 0.174603 
vt 0.158730 0.174603 
vt 0.238095 0.238095 
vt 0.380952 0.238095 
vt 0.238095 0.174603 
vt 0.380952 0.238095 
vt 0.380952 0.174603 
vt 0.238095 0.174603 
f 1/1/1 2/2/2 3/3/3
f 4/4/4 5/5/5 6/6/6
f 7/7/7 8/8/8 9/9/9
f 10/10/10 11/11/11 12/12/12
f 13/13/13 14/14/14 15/15/15
f 16/16/16 17/17/17 18/18/18
f 19/19/19 20/20/20 21/21/21
f 22/22/22 23/23/23 24/24/24
f 25/25/25 26/26/26 27/27/27
f 28/28/28 29/29/29 30/30/30
f 31/31/31 32/32/32 33/33/33
