v 50.000000 114.000000 -40.000000 
v 11.000000 77.000000 -20.000000 
v 13.000000 131.000000 -40.000000 
v 65.000000 76.000000 -40.000000 
v 11.000000 77.000000 -20.000000 
v 50.000000 114.000000 -40.000000 
v 48.000000 38.000000 -40.000000 
v 11.000000 77.000000 -20.000000 
v 65.000000 76.000000 -40.000000 
v 10.000000 24.000000 -40.000000 
v 11.000000 77.000000 -20.000000 
v 48.000000 38.000000 -40.000000 
v -26.000000 40.000000 -40.000000 
v 11.000000 77.000000 -20.000000 
v 10.000000 24.000000 -40.000000 
v -41.000000 78.000000 -40.000000 
v 11.000000 77.000000 -20.000000 
v -26.000000 40.000000 -40.000000 
v -24.000000 116.000000 -40.000000 
v 11.000000 77.000000 -20.000000 
v -41.000000 78.000000 -40.000000 
v 13.000000 131.000000 -40.000000 
v 11.000000 77.000000 -20.000000 
v -24.000000 116.000000 -40.000000 
v 71.000000 112.000000 -212.000000 
v 66.000000 112.000000 -302.000000 
v 12.000000 112.000000 -299.000000 
v 12.000000 112.000000 -299.000000 
v 17.000000 112.000000 -209.000000 
v 71.000000 112.000000 -212.000000 
v 66.000000 112.000000 -302.000000 
v 66.000000 66.000000 -302.000000 
v 12.000000 66.000000 -299.000000 
v 12.000000 66.000000 -299.000000 
v 12.000000 112.000000 -299.000000 
v 66.000000 112.000000 -302.000000 
v 12.000000 112.000000 -299.000000 
v 12.000000 66.000000 -299.000000 
v 17.000000 66.000000 -209.000000 
v 17.000000 66.000000 -209.000000 
v 17.000000 112.000000 -209.000000 
v 12.000000 112.000000 -299.000000 
v 33.000000 66.000000 -250.000000 
v 73.000000 66.000000 -331.000000 
v 25.000000 66.000000 -355.000000 
v 25.000000 66.000000 -355.000000 
v -14.000000 66.000000 -274.000000 
v 33.000000 66.000000 -250.000000 
v 73.000000 66.000000 -331.000000 
v 73.000000 19.000000 -331.000000 
v 25.000000 19.000000 -355.000000 
v 25.000000 19.000000 -355.000000 
v 25.000000 66.000000 -355.000000 
v 73.000000 66.000000 -331.000000 
v -14.000000 66.000000 -274.000000 
v -14.000000 19.000000 -274.000000 
v 33.000000 19.000000 -250.000000 
v 33.000000 19.000000 -250.000000 
v 33.000000 66.000000 -250.000000 
v -14.000000 66.000000 -274.000000 
v 25.000000 66.000000 -355.000000 
v 25.000000 19.000000 -355.000000 
v -14.000000 19.000000 -274.000000 
v -14.000000 19.000000 -274.000000 
v -14.000000 66.000000 -274.000000 
v 25.000000 66.000000 -355.000000 
v 72.000000 66.000000 -159.000000 
v 72.000000 66.000000 -249.000000 
v 18.000000 66.000000 -249.000000 
v 18.000000 66.000000 -249.000000 
v 18.000000 66.000000 -159.000000 
v 72.000000 66.000000 -159.000000 
v 72.000000 66.000000 -249.000000 
v 72.000000 20.000000 -249.000000 
v 18.000000 20.000000 -249.000000 
v 18.000000 20.000000 -249.000000 
v 18.000000 66.000000 -249.000000 
v 72.000000 66.000000 -249.000000 
v 18.000000 66.000000 -249.000000 
v 18.000000 20.000000 -249.000000 
v 18.000000 20.000000 -159.000000 
v 18.000000 20.000000 -159.000000 
v 18.000000 66.000000 -159.000000 
v 18.000000 66.000000 -249.000000 
vn -0.249756 -0.237061 -0.938721 
vn 0.000000 0.000000 -1.000000 
vn -0.008789 -0.344482 -0.938721 
vn -0.344482 0.008789 -0.938721 
vn 0.000000 0.000000 -1.000000 
vn -0.249756 -0.237061 -0.938721 
vn -0.237061 0.249756 -0.938721 
vn 0.000000 0.000000 -1.000000 
vn -0.344482 0.008789 -0.938721 
vn 0.008789 0.344482 -0.938721 
vn 0.000000 0.000000 -1.000000 
vn -0.237061 0.249756 -0.938721 
vn 0.249756 0.237061 -0.938721 
vn 0.000000 0.000000 -1.000000 
vn 0.008789 0.344482 -0.938721 
vn 0.344482 -0.008789 -0.938721 
vn 0.000000 0.000000 -1.000000 
vn 0.249756 0.237061 -0.938721 
vn 0.237061 -0.249756 -0.938721 
vn 0.000000 0.000000 -1.000000 
vn 0.344482 -0.008789 -0.938721 
vn -0.008789 -0.344482 -0.938721 
vn 0.000000 0.000000 -1.000000 
vn 0.237061 -0.249756 -0.938721 
vn 0.000000 1.000000 0.000000 
vn 0.000000 1.000000 0.000000 
vn 0.000000 1.000000 0.000000 
vn 0.000000 1.000000 0.000000 
vn 0.000000 1.000000 0.000000 
vn 0.000000 1.000000 0.000000 
vn -0.052246 0.000000 -0.998535 
vn -0.052246 0.000000 -0.998535 
vn -0.052246 0.000000 -0.998535 
vn -0.052246 0.000000 -0.998535 
vn -0.052246 0.000000 -0.998535 
vn -0.052246 0.000000 -0.998535 
vn -0.998535 0.000000 0.052246 
vn -0.998535 0.000000 0.052246 
vn -0.998535 0.000000 0.052246 
vn -0.998535 0.000000 0.052246 
vn -0.998535 0.000000 0.052246 
vn -0.998535 0.000000 0.052246 
vn 0.000000 1.000000 0.000000 
vn 0.000000 1.000000 0.000000 
vn 0.000000 1.000000 0.000000 
vn 0.000000 1.000000 0.000000 
vn 0.000000 1.000000 0.000000 
vn 0.000000 1.000000 0.000000 
vn 0.446045 0.000000 -0.894775 
vn 0.446045 0.000000 -0.894775 
vn 0.446045 0.000000 -0.894775 
vn 0.446045 0.000000 -0.894775 
vn 0.446045 0.000000 -0.894775 
vn 0.446045 0.000000 -0.894775 
vn -0.446045 0.000000 0.894775 
vn -0.446045 0.000000 0.894775 
vn -0.446045 0.000000 0.894775 
vn -0.446045 0.000000 0.894775 
vn -0.446045 0.000000 0.894775 
vn -0.446045 0.000000 0.894775 
vn -0.894775 0.000000 -0.446045 
vn -0.894775 0.000000 -0.446045 
vn -0.894775 0.000000 -0.446045 
vn -0.894775 0.000000 -0.446045 
vn -0.894775 0.000000 -0.446045 
vn -0.894775 0.000000 -0.446045 
vn 0.000000 1.000000 0.000000 
vn 0.000000 1.000000 0.000000 
vn 0.000000 1.000000 0.000000 
vn 0.000000 1.000000 0.000000 
vn 0.000000 1.000000 0.000000 
vn 0.000000 1.000000 0.000000 
vn 0.000000 0.000000 -1.000000 
vn 0.000000 0.000000 -1.000000 
vn 0.000000 0.000000 -1.000000 
vn 0.000000 0.000000 -1.000000 
vn 0.000000 0.000000 -1.000000 
vn 0.000000 0.000000 -1.000000 
vn -1.000000 0.000000 0.000000 
vn -1.000000 0.000000 0.000000 
vn -1.000000 0.000000 0.000000 
vn -1.000000 0.000000 0.000000 
vn -1.000000 0.000000 0.000000 
vn -1.000000 0.000000 0.000000 
vt 0.737255 0.716535 
vt 0.737255 0.937008 
vt 0.611765 0.716535 
vt 0.850980 0.716535 
vt 0.850980 0.937008 
vt 0.737255 0.716535 
vt 0.976471 0.716535 
vt 0.976471 0.937008 
vt 0.850980 0.716535 
vt 0.882353 0.716535 
vt 0.882353 0.937008 
vt 0.976471 0.716535 
vt 0.184314 0.716535 
vt 0.184314 0.937008 
vt 0.882353 0.716535 
vt 0.321569 0.716535 
vt 0.321569 0.937008 
vt 0.184314 0.716535 
vt 0.462745 0.716535 
vt 0.462745 0.937008 
vt 0.321569 0.716535 
vt 0.611765 0.716535 
vt 0.611765 0.937008 
vt 0.462745 0.716535 
vt 0.572549 0.511811 
vt 0.572549 0.377953 
vt 0.462745 0.377953 
vt 0.462745 0.377953 
vt 0.462745 0.511811 
vt 0.572549 0.511811 
vt 0.572549 0.511811 
vt 0.572549 0.377953 
vt 0.462745 0.377953 
vt 0.462745 0.377953 
vt 0.462745 0.511811 
vt 0.572549 0.511811 
vt 0.572549 0.511811 
vt 0.572549 0.385827 
vt 0.462745 0.385827 
vt 0.462745 0.385827 
vt 0.462745 0.511811 
vt 0.572549 0.511811 
vt 0.572549 0.511811 
vt 0.572549 0.377953 
vt 0.462745 0.377953 
vt 0.462745 0.377953 
vt 0.462745 0.511811 
vt 0.572549 0.511811 
vt 0.572549 0.511811 
vt 0.572549 0.377953 
vt 0.462745 0.377953 
vt 0.462745 0.377953 
vt 0.462745 0.511811 
vt 0.572549 0.511811 
vt 1.000000 1.000000 
vt 1.000000 -0.007874 
vt 0.000000 -0.007874 
vt 0.000000 -0.007874 
vt 0.000000 1.000000 
vt 1.000000 1.000000 
vt 0.572549 0.511811 
vt 0.572549 0.385827 
vt 0.462745 0.385827 
vt 0.462745 0.385827 
vt 0.462745 0.511811 
vt 0.572549 0.511811 
vt 0.572549 0.511811 
vt 0.572549 0.377953 
vt 0.462745 0.377953 
vt 0.462745 0.377953 
vt 0.462745 0.511811 
vt 0.572549 0.511811 
vt 0.572549 0.511811 
vt 0.572549 0.377953 
vt 0.462745 0.377953 
vt 0.462745 0.377953 
vt 0.462745 0.511811 
vt 0.572549 0.511811 
vt 0.572549 0.377953 
vt 0.572549 0.251969 
vt 0.462745 0.251969 
vt 0.462745 0.251969 
vt 0.462745 0.377953 
vt 0.572549 0.377953 
f 1/1/1 2/2/2 3/3/3
f 4/4/4 5/5/5 6/6/6
f 7/7/7 8/8/8 9/9/9
f 10/10/10 11/11/11 12/12/12
f 13/13/13 14/14/14 15/15/15
f 16/16/16 17/17/17 18/18/18
f 19/19/19 20/20/20 21/21/21
f 22/22/22 23/23/23 24/24/24
f 25/25/25 26/26/26 27/27/27
f 28/28/28 29/29/29 30/30/30
f 31/31/31 32/32/32 33/33/33
f 34/34/34 35/35/35 36/36/36
f 37/37/37 38/38/38 39/39/39
f 40/40/40 41/41/41 42/42/42
f 43/43/43 44/44/44 45/45/45
f 46/46/46 47/47/47 48/48/48
f 49/49/49 50/50/50 51/51/51
f 52/52/52 53/53/53 54/54/54
f 55/55/55 56/56/56 57/57/57
f 58/58/58 59/59/59 60/60/60
f 61/61/61 62/62/62 63/63/63
f 64/64/64 65/65/65 66/66/66
f 67/67/67 68/68/68 69/69/69
f 70/70/70 71/71/71 72/72/72
f 73/73/73 74/74/74 75/75/75
f 76/76/76 77/77/77 78/78/78
f 79/79/79 80/80/80 81/81/81
f 82/82/82 83/83/83 84/84/84
