v 29.000000 -1.000000 -2.000000 
v 29.000000 1.000000 -2.000000 
v 34.000000 -1.000000 -1.000000 
v 29.000000 1.000000 -2.000000 
v 34.000000 1.000000 -1.000000 
v 34.000000 -1.000000 -1.000000 
v 29.000000 -1.000000 -2.000000 
v 34.000000 -1.000000 -1.000000 
v 34.000000 0.000000 1.000000 
v 29.000000 1.000000 -2.000000 
v 29.000000 1.000000 0.000000 
v 34.000000 1.000000 -1.000000 
v 29.000000 1.000000 0.000000 
v 34.000000 1.000000 1.000000 
v 34.000000 1.000000 -1.000000 
v 29.000000 1.000000 0.000000 
v 29.000000 0.000000 0.000000 
v 34.000000 1.000000 1.000000 
v 29.000000 0.000000 0.000000 
v 34.000000 0.000000 1.000000 
v 34.000000 1.000000 1.000000 
v 29.000000 0.000000 0.000000 
v 29.000000 -1.000000 -2.000000 
v 34.000000 0.000000 1.000000 
v 16.000000 -1.000000 1.000000 
v 16.000000 1.000000 1.000000 
v 29.000000 -1.000000 -2.000000 
v 16.000000 1.000000 1.000000 
v 29.000000 1.000000 -2.000000 
v 29.000000 -1.000000 -2.000000 
v 16.000000 -1.000000 1.000000 
v 29.000000 -1.000000 -2.000000 
v 29.000000 0.000000 0.000000 
v 16.000000 1.000000 1.000000 
v 16.000000 1.000000 3.000000 
v 29.000000 1.000000 -2.000000 
v 16.000000 1.000000 3.000000 
v 29.000000 1.000000 0.000000 
v 29.000000 1.000000 -2.000000 
v 16.000000 1.000000 3.000000 
v 16.000000 0.000000 3.000000 
v 29.000000 1.000000 0.000000 
v 16.000000 0.000000 3.000000 
v 29.000000 0.000000 0.000000 
v 29.000000 1.000000 0.000000 
v 16.000000 0.000000 3.000000 
v 16.000000 -1.000000 1.000000 
v 29.000000 0.000000 0.000000 
v 1.000000 -8.000000 4.000000 
v 2.000000 -5.000000 -10.000000 
v 16.000000 -1.000000 1.000000 
v 2.000000 -5.000000 -10.000000 
v 16.000000 1.000000 1.000000 
v 16.000000 -1.000000 1.000000 
v 1.000000 -8.000000 4.000000 
v 16.000000 -1.000000 1.000000 
v 16.000000 0.000000 3.000000 
v 2.000000 -5.000000 -10.000000 
v 6.000000 5.000000 -9.000000 
v 16.000000 1.000000 1.000000 
vn 0.035156 -0.969238 -0.243164 
vn 0.134033 0.361816 -0.922363 
vn 0.152100 -0.838623 -0.522461 
vn 0.134033 0.361816 -0.922363 
vn 0.436279 0.670654 -0.599609 
vn 0.152100 -0.838623 -0.522461 
vn 0.035156 -0.969238 -0.243164 
vn 0.152100 -0.838623 -0.522461 
vn -0.434814 -0.610352 0.661865 
vn 0.134033 0.361816 -0.922363 
vn -0.055176 0.922852 0.380859 
vn 0.436279 0.670654 -0.599609 
vn -0.055176 0.922852 0.380859 
vn -0.210938 0.773193 0.597656 
vn 0.436279 0.670654 -0.599609 
vn -0.055176 0.922852 0.380859 
vn -0.134521 -0.353760 0.925293 
vn -0.210938 0.773193 0.597656 
vn -0.134521 -0.353760 0.925293 
vn -0.434814 -0.610352 0.661865 
vn -0.210938 0.773193 0.597656 
vn -0.134521 -0.353760 0.925293 
vn 0.035156 -0.969238 -0.243164 
vn -0.434814 -0.610352 0.661865 
vn 0.327148 -0.907227 -0.263672 
vn 0.392090 0.486328 -0.780518 
vn -0.208496 -0.552002 -0.807129 
vn 0.392090 0.486328 -0.780518 
vn -0.128906 0.856445 -0.499756 
vn -0.208496 -0.552002 -0.807129 
vn 0.327148 -0.907227 -0.263672 
vn -0.208496 -0.552002 -0.807129 
vn 0.156982 -0.778076 0.607910 
vn 0.392090 0.486328 -0.780518 
vn 0.387939 0.770508 0.505615 
vn -0.128906 0.856445 -0.499756 
vn 0.387939 0.770508 0.505615 
vn 0.216309 0.500977 0.837646 
vn -0.128906 0.856445 -0.499756 
vn 0.387939 0.770508 0.505615 
vn 0.409180 -0.478760 0.776611 
vn 0.216309 0.500977 0.837646 
vn 0.409180 -0.478760 0.776611 
vn 0.156982 -0.778076 0.607910 
vn 0.216309 0.500977 0.837646 
vn 0.409180 -0.478760 0.776611 
vn 0.327148 -0.907227 -0.263672 
vn 0.156982 -0.778076 0.607910 
vn 0.443359 -0.863770 0.238525 
vn 0.646240 -0.443115 -0.620850 
vn 0.327148 -0.907227 -0.263672 
vn 0.646240 -0.443115 -0.620850 
vn 0.392090 0.486328 -0.780518 
vn 0.327148 -0.907227 -0.263672 
vn 0.443359 -0.863770 0.238525 
vn 0.327148 -0.907227 -0.263672 
vn 0.409180 -0.478760 0.776611 
vn 0.646240 -0.443115 -0.620850 
vn 0.724854 0.420898 -0.545166 
vn 0.392090 0.486328 -0.780518 
vt 0.850394 0.992126 
vt 0.787402 0.992126 
vt 0.850394 0.992126 
vt 0.787402 0.992126 
vt 0.787402 0.992126 
vt 0.850394 0.992126 
vt 0.850394 0.992126 
vt 0.850394 0.992126 
vt 0.850394 0.944882 
vt 0.787402 0.992126 
vt 0.787402 0.944882 
vt 0.787402 0.992126 
vt 0.787402 0.944882 
vt 0.787402 0.944882 
vt 0.787402 0.992126 
vt 0.787402 0.944882 
vt 0.850394 0.944882 
vt 0.787402 0.944882 
vt 0.850394 0.944882 
vt 0.850394 0.944882 
vt 0.787402 0.944882 
vt 0.850394 0.944882 
vt 0.850394 0.992126 
vt 0.850394 0.944882 
vt 0.661417 0.968504 
vt 0.677165 0.984252 
vt 0.850394 0.992126 
vt 0.677165 0.984252 
vt 0.787402 0.992126 
vt 0.850394 0.992126 
vt 0.661417 0.968504 
vt 0.850394 0.992126 
vt 0.850394 0.944882 
vt 0.677165 0.984252 
vt 0.677165 0.952756 
vt 0.787402 0.992126 
vt 0.677165 0.952756 
vt 0.787402 0.944882 
vt 0.787402 0.992126 
vt 0.677165 0.952756 
vt 0.677165 0.984252 
vt 0.787402 0.944882 
vt 0.677165 0.984252 
vt 0.850394 0.944882 
vt 0.787402 0.944882 
vt 0.677165 0.984252 
vt 0.661417 0.968504 
vt 0.850394 0.944882 
vt 0.448819 0.472441 
vt 0.275591 0.535433 
vt 0.456693 0.535433 
vt 0.275591 0.535433 
vt 0.472441 0.669291 
vt 0.456693 0.535433 
vt 0.448819 0.472441 
vt 0.456693 0.535433 
vt 0.472441 0.669291 
vt 0.275591 0.535433 
vt 0.354331 0.795276 
vt 0.472441 0.669291 
f 1/1/1 2/2/2 3/3/3
f 4/4/4 5/5/5 6/6/6
f 7/7/7 8/8/8 9/9/9
f 10/10/10 11/11/11 12/12/12
f 13/13/13 14/14/14 15/15/15
f 16/16/16 17/17/17 18/18/18
f 19/19/19 20/20/20 21/21/21
f 22/22/22 23/23/23 24/24/24
f 25/25/25 26/26/26 27/27/27
f 28/28/28 29/29/29 30/30/30
f 31/31/31 32/32/32 33/33/33
f 34/34/34 35/35/35 36/36/36
f 37/37/37 38/38/38 39/39/39
f 40/40/40 41/41/41 42/42/42
f 43/43/43 44/44/44 45/45/45
f 46/46/46 47/47/47 48/48/48
f 49/49/49 50/50/50 51/51/51
f 52/52/52 53/53/53 54/54/54
f 55/55/55 56/56/56 57/57/57
f 58/58/58 59/59/59 60/60/60
