v 455.000000 0.000000 191.000000 
v -455.000000 0.000000 -214.000000 
v -455.000000 0.000000 191.000000 
v -455.000000 0.000000 -214.000000 
v 455.000000 0.000000 191.000000 
v 455.000000 0.000000 -214.000000 
vn 0.000000 1.000000 0.000000 
vn 0.000000 1.000000 0.000000 
vn 0.000000 1.000000 0.000000 
vn 0.000000 1.000000 0.000000 
vn 0.000000 1.000000 0.000000 
vn 0.000000 1.000000 0.000000 
vt 1.000000 1.000000 
vt 0.000000 0.645161 
vt 0.000000 1.000000 
vt 0.000000 0.645161 
vt 1.000000 1.000000 
vt 1.000000 0.645161 
f 1/1/1 2/2/2 3/3/3
f 4/4/4 5/5/5 6/6/6
