v -94.000000 0.000000 0.000000 
v -108.000000 0.000000 -258.000000 
v -126.000000 0.000000 0.000000 
v -108.000000 0.000000 -258.000000 
v -94.000000 0.000000 0.000000 
v -81.000000 0.000000 -258.000000 
v -104.000000 0.000000 258.000000 
v -126.000000 0.000000 0.000000 
v -139.000000 0.000000 258.000000 
v -126.000000 0.000000 0.000000 
v -104.000000 0.000000 258.000000 
v -94.000000 0.000000 0.000000 
vn 0.000000 1.000000 0.000000 
vn 0.000000 1.000000 0.000000 
vn 0.000000 1.000000 0.000000 
vn 0.000000 1.000000 0.000000 
vn 0.000000 1.000000 0.000000 
vn 0.000000 1.000000 0.000000 
vn 0.000000 1.000000 0.000000 
vn 0.000000 1.000000 0.000000 
vn 0.000000 1.000000 0.000000 
vn 0.000000 1.000000 0.000000 
vn 0.000000 1.000000 0.000000 
vn 0.000000 1.000000 0.000000 
vt 0.096774 0.612903 
vt 0.000000 1.000000 
vt 0.000000 0.612903 
vt 0.000000 1.000000 
vt 0.096774 0.612903 
vt 0.096774 1.000000 
vt 0.096774 -0.032258 
vt 0.000000 0.419355 
vt 0.000000 -0.032258 
vt 0.000000 0.419355 
vt 0.096774 -0.032258 
vt 0.096774 0.419355 
f 1/1/1 2/2/2 3/3/3
f 4/4/4 5/5/5 6/6/6
f 7/7/7 8/8/8 9/9/9
f 10/10/10 11/11/11 12/12/12
