v 151.000000 0.000000 134.000000 
v -146.000000 0.000000 -111.000000 
v -122.000000 0.000000 134.000000 
v -146.000000 0.000000 -111.000000 
v 151.000000 0.000000 134.000000 
v 175.000000 0.000000 -111.000000 
vn 0.000000 0.999756 -0.000732 
vn 0.000000 0.999756 -0.000732 
vn 0.000000 0.999756 -0.000732 
vn 0.000000 0.999756 -0.000732 
vn 0.000000 0.999756 -0.000732 
vn 0.000000 0.999756 -0.000732 
vt 1.000000 1.000000 
vt 0.000000 -0.032258 
vt 0.000000 1.000000 
vt 0.000000 -0.032258 
vt 1.000000 1.000000 
vt 1.000000 -0.032258 
f 1/1/1 2/2/2 3/3/3
f 4/4/4 5/5/5 6/6/6
