v -5.000000 0.000000 4.000000 
v -46.000000 6.000000 3.000000 
v -46.000000 0.000000 7.000000 
v -5.000000 0.000000 4.000000 
v -5.000000 5.000000 3.000000 
v -46.000000 6.000000 3.000000 
v -5.000000 5.000000 3.000000 
v -46.000000 6.000000 -3.000000 
v -46.000000 6.000000 3.000000 
v -5.000000 5.000000 3.000000 
v -5.000000 5.000000 -3.000000 
v -46.000000 6.000000 -3.000000 
v -5.000000 5.000000 -3.000000 
v -46.000000 0.000000 -7.000000 
v -46.000000 6.000000 -3.000000 
v -5.000000 5.000000 -3.000000 
v -5.000000 0.000000 -4.000000 
v -46.000000 0.000000 -7.000000 
v -5.000000 0.000000 -4.000000 
v -46.000000 -6.000000 -3.000000 
v -46.000000 0.000000 -7.000000 
v -5.000000 0.000000 -4.000000 
v -5.000000 -4.000000 -3.000000 
v -46.000000 -6.000000 -3.000000 
v -5.000000 -4.000000 -3.000000 
v -46.000000 -6.000000 3.000000 
v -46.000000 -6.000000 -3.000000 
v -5.000000 -4.000000 -3.000000 
v -5.000000 -4.000000 3.000000 
v -46.000000 -6.000000 3.000000 
v -5.000000 -4.000000 3.000000 
v -46.000000 0.000000 7.000000 
v -46.000000 -6.000000 3.000000 
v -5.000000 -4.000000 3.000000 
v -5.000000 0.000000 4.000000 
v -46.000000 0.000000 7.000000 
v -46.000000 0.000000 7.000000 
v -46.000000 6.000000 3.000000 
v -52.000000 0.000000 0.000000 
v -46.000000 6.000000 3.000000 
v -46.000000 6.000000 -3.000000 
v -52.000000 0.000000 0.000000 
v -46.000000 6.000000 -3.000000 
v -46.000000 0.000000 -7.000000 
v -52.000000 0.000000 0.000000 
v -46.000000 0.000000 -7.000000 
v -46.000000 -6.000000 -3.000000 
v -52.000000 0.000000 0.000000 
v -46.000000 -6.000000 -3.000000 
v -46.000000 -6.000000 3.000000 
v -52.000000 0.000000 0.000000 
v -46.000000 -6.000000 3.000000 
v -46.000000 0.000000 7.000000 
v -52.000000 0.000000 0.000000 
vn 0.069580 0.164062 0.983887 
vn -0.423584 0.664062 0.615723 
vn -0.380615 -0.057861 0.922852 
vn 0.069580 0.164062 0.983887 
vn 0.031006 0.912354 0.407715 
vn -0.423584 0.664062 0.615723 
vn 0.031006 0.912354 0.407715 
vn -0.417480 0.843018 -0.338379 
vn -0.423584 0.664062 0.615723 
vn 0.031006 0.912354 0.407715 
vn 0.068604 0.658691 -0.749023 
vn -0.417480 0.843018 -0.338379 
vn 0.068604 0.658691 -0.749023 
vn -0.376465 0.033447 -0.925537 
vn -0.417480 0.843018 -0.338379 
vn 0.068604 0.658691 -0.749023 
vn 0.080322 -0.179199 -0.980469 
vn -0.376465 0.033447 -0.925537 
vn 0.080322 -0.179199 -0.980469 
vn -0.416260 -0.659424 -0.625732 
vn -0.376465 0.033447 -0.925537 
vn 0.080322 -0.179199 -0.980469 
vn 0.059082 -0.906494 -0.417725 
vn -0.416260 -0.659424 -0.625732 
vn 0.059082 -0.906494 -0.417725 
vn -0.401123 -0.849854 0.341309 
vn -0.416260 -0.659424 -0.625732 
vn 0.059082 -0.906494 -0.417725 
vn 0.078857 -0.682129 0.726807 
vn -0.401123 -0.849854 0.341309 
vn 0.078857 -0.682129 0.726807 
vn -0.380615 -0.057861 0.922852 
vn -0.401123 -0.849854 0.341309 
vn 0.078857 -0.682129 0.726807 
vn 0.069580 0.164062 0.983887 
vn -0.380615 -0.057861 0.922852 
vn -0.380615 -0.057861 0.922852 
vn -0.423584 0.664062 0.615723 
vn -1.000000 0.000000 0.000000 
vn -0.423584 0.664062 0.615723 
vn -0.417480 0.843018 -0.338379 
vn -1.000000 0.000000 0.000000 
vn -0.417480 0.843018 -0.338379 
vn -0.376465 0.033447 -0.925537 
vn -1.000000 0.000000 0.000000 
vn -0.376465 0.033447 -0.925537 
vn -0.416260 -0.659424 -0.625732 
vn -1.000000 0.000000 0.000000 
vn -0.416260 -0.659424 -0.625732 
vn -0.401123 -0.849854 0.341309 
vn -1.000000 0.000000 0.000000 
vn -0.401123 -0.849854 0.341309 
vn -0.380615 -0.057861 0.922852 
vn -1.000000 0.000000 0.000000 
vt 0.451613 0.322581 
vt 0.354839 0.548387 
vt 0.451613 0.322581 
vt 0.451613 0.322581 
vt 0.354839 0.516129 
vt 0.354839 0.548387 
vt 0.354839 0.516129 
vt 0.064516 0.548387 
vt 0.354839 0.548387 
vt 0.354839 0.516129 
vt 0.064516 0.516129 
vt 0.064516 0.548387 
vt 0.064516 0.516129 
vt 0.000000 0.322581 
vt 0.064516 0.548387 
vt 0.064516 0.516129 
vt 0.000000 0.322581 
vt 0.000000 0.322581 
vt 0.000000 0.322581 
vt 0.064516 0.000000 
vt 0.000000 0.322581 
vt 0.000000 0.322581 
vt 0.064516 0.032258 
vt 0.064516 0.000000 
vt 0.064516 0.032258 
vt 0.354839 0.000000 
vt 0.064516 0.000000 
vt 0.064516 0.032258 
vt 0.354839 0.032258 
vt 0.354839 0.000000 
vt 0.354839 0.032258 
vt 0.451613 0.322581 
vt 0.354839 0.000000 
vt 0.354839 0.032258 
vt 0.451613 0.322581 
vt 0.451613 0.322581 
vt 0.451613 0.322581 
vt 0.354839 0.548387 
vt 0.225806 0.322581 
vt 0.354839 0.548387 
vt 0.064516 0.548387 
vt 0.225806 0.322581 
vt 0.064516 0.548387 
vt 0.000000 0.322581 
vt 0.225806 0.322581 
vt 0.000000 0.322581 
vt 0.064516 0.000000 
vt 0.225806 0.322581 
vt 0.064516 0.000000 
vt 0.354839 0.000000 
vt 0.225806 0.322581 
vt 0.354839 0.000000 
vt 0.451613 0.322581 
vt 0.225806 0.322581 
f 1/1/1 2/2/2 3/3/3
f 4/4/4 5/5/5 6/6/6
f 7/7/7 8/8/8 9/9/9
f 10/10/10 11/11/11 12/12/12
f 13/13/13 14/14/14 15/15/15
f 16/16/16 17/17/17 18/18/18
f 19/19/19 20/20/20 21/21/21
f 22/22/22 23/23/23 24/24/24
f 25/25/25 26/26/26 27/27/27
f 28/28/28 29/29/29 30/30/30
f 31/31/31 32/32/32 33/33/33
f 34/34/34 35/35/35 36/36/36
f 37/37/37 38/38/38 39/39/39
f 40/40/40 41/41/41 42/42/42
f 43/43/43 44/44/44 45/45/45
f 46/46/46 47/47/47 48/48/48
f 49/49/49 50/50/50 51/51/51
f 52/52/52 53/53/53 54/54/54
