v 140.000000 -114.000000 -87.000000 
v 54.000000 -71.000000 -230.000000 
v 46.000000 69.000000 -4.000000 
v -62.000000 91.000000 -148.000000 
v 46.000000 69.000000 -4.000000 
v 54.000000 -71.000000 -230.000000 
v 46.000000 69.000000 -4.000000 
v -62.000000 91.000000 -148.000000 
v -134.000000 140.000000 64.000000 
v -220.000000 184.000000 -78.000000 
v -134.000000 140.000000 64.000000 
v -62.000000 91.000000 -148.000000 
v 220.000000 -184.000000 78.000000 
v 140.000000 -114.000000 -87.000000 
v 116.000000 -9.000000 161.000000 
v 46.000000 69.000000 -4.000000 
v 116.000000 -9.000000 161.000000 
v 140.000000 -114.000000 -87.000000 
v 116.000000 -9.000000 161.000000 
v 46.000000 69.000000 -4.000000 
v -54.000000 71.000000 230.000000 
v -134.000000 140.000000 64.000000 
v -54.000000 71.000000 230.000000 
v 46.000000 69.000000 -4.000000 
vn 0.842529 0.514893 -0.157471 
vn 0.751465 0.594971 -0.284668 
vn 0.645020 0.760010 -0.078369 
vn 0.528809 0.835449 -0.148193 
vn 0.645020 0.760010 -0.078369 
vn 0.751465 0.594971 -0.284668 
vn 0.645020 0.760010 -0.078369 
vn 0.528809 0.835449 -0.148193 
vn 0.438477 0.898438 0.008545 
vn 0.517090 0.855225 -0.028076 
vn 0.438477 0.898438 0.008545 
vn 0.528809 0.835449 -0.148193 
vn 0.832764 0.539062 -0.124268 
vn 0.842529 0.514893 -0.157471 
vn 0.766113 0.642090 -0.020020 
vn 0.645020 0.760010 -0.078369 
vn 0.766113 0.642090 -0.020020 
vn 0.842529 0.514893 -0.157471 
vn 0.766113 0.642090 -0.020020 
vn 0.645020 0.760010 -0.078369 
vn 0.475586 0.866211 0.153076 
vn 0.438477 0.898438 0.008545 
vn 0.475586 0.866211 0.153076 
vn 0.645020 0.760010 -0.078369 
vt 1.000000 0.545098 
vt 1.000000 1.000000 
vt 0.525490 0.545098 
vt 0.525490 1.000000 
vt 0.525490 0.545098 
vt 1.000000 1.000000 
vt 0.525490 0.545098 
vt 0.525490 1.000000 
vt 0.992157 0.545098 
vt 0.992157 1.000000 
vt 0.992157 0.545098 
vt 0.525490 1.000000 
vt 1.000000 0.003922 
vt 1.000000 0.545098 
vt 0.525490 0.003922 
vt 0.525490 0.545098 
vt 0.525490 0.003922 
vt 1.000000 0.545098 
vt 0.525490 0.003922 
vt 0.525490 0.545098 
vt 0.992157 0.003922 
vt 0.992157 0.545098 
vt 0.992157 0.003922 
vt 0.525490 0.545098 
f 1/1/1 2/2/2 3/3/3
f 4/4/4 5/5/5 6/6/6
f 7/7/7 8/8/8 9/9/9
f 10/10/10 11/11/11 12/12/12
f 13/13/13 14/14/14 15/15/15
f 16/16/16 17/17/17 18/18/18
f 19/19/19 20/20/20 21/21/21
f 22/22/22 23/23/23 24/24/24
