v 56.000000 120.000000 -106.000000 
v 48.000000 -18.000000 -331.000000 
v -38.000000 -61.000000 -188.000000 
v 48.000000 -18.000000 -331.000000 
v 56.000000 120.000000 -106.000000 
v 168.000000 142.000000 -249.000000 
v 240.000000 191.000000 -37.000000 
v 168.000000 142.000000 -249.000000 
v 56.000000 120.000000 -106.000000 
v 168.000000 142.000000 -249.000000 
v 240.000000 191.000000 -37.000000 
v 328.000000 234.000000 -180.000000 
v -13.000000 42.000000 58.000000 
v -38.000000 -61.000000 -188.000000 
v -119.000000 -130.000000 -23.000000 
v -38.000000 -61.000000 -188.000000 
v -13.000000 42.000000 58.000000 
v 56.000000 120.000000 -106.000000 
v 159.000000 122.000000 127.000000 
v 56.000000 120.000000 -106.000000 
v -13.000000 42.000000 58.000000 
v 56.000000 120.000000 -106.000000 
v 159.000000 122.000000 127.000000 
v 240.000000 191.000000 -37.000000 
v -233.000000 -35.000000 -35.000000 
v -324.000000 -321.000000 -118.000000 
v -328.000000 -231.000000 27.000000 
v -324.000000 -321.000000 -118.000000 
v -233.000000 -35.000000 -35.000000 
v -204.000000 -144.000000 -178.000000 
v -46.000000 56.000000 -79.000000 
v -204.000000 -144.000000 -178.000000 
v -233.000000 -35.000000 -35.000000 
v -204.000000 -144.000000 -178.000000 
v -46.000000 56.000000 -79.000000 
v -42.000000 -33.000000 -225.000000 
v -206.000000 45.000000 137.000000 
v -328.000000 -231.000000 27.000000 
v -311.000000 -143.000000 199.000000 
v -328.000000 -231.000000 27.000000 
v -206.000000 45.000000 137.000000 
v -233.000000 -35.000000 -35.000000 
v -29.000000 145.000000 92.000000 
v -233.000000 -35.000000 -35.000000 
v -206.000000 45.000000 137.000000 
v -233.000000 -35.000000 -35.000000 
v -29.000000 145.000000 92.000000 
v -46.000000 56.000000 -79.000000 
vn -0.645020 0.760010 -0.078369 
vn -0.751465 0.594971 -0.284668 
vn -0.842529 0.514893 -0.157471 
vn -0.751465 0.594971 -0.284668 
vn -0.645020 0.760010 -0.078369 
vn -0.528809 0.835449 -0.148193 
vn -0.438477 0.898438 0.008545 
vn -0.528809 0.835449 -0.148193 
vn -0.645020 0.760010 -0.078369 
vn -0.528809 0.835449 -0.148193 
vn -0.438477 0.898438 0.008545 
vn -0.517090 0.855225 -0.028076 
vn -0.766113 0.642090 -0.020020 
vn -0.842529 0.514893 -0.157471 
vn -0.832764 0.539062 -0.124268 
vn -0.842529 0.514893 -0.157471 
vn -0.766113 0.642090 -0.020020 
vn -0.645020 0.760010 -0.078369 
vn -0.475586 0.866211 0.153076 
vn -0.645020 0.760010 -0.078369 
vn -0.766113 0.642090 -0.020020 
vn -0.645020 0.760010 -0.078369 
vn -0.475586 0.866211 0.153076 
vn -0.438477 0.898438 0.008545 
vn -0.753906 0.590332 -0.287598 
vn -0.891357 0.354980 -0.281006 
vn -0.916992 0.382080 -0.113770 
vn -0.891357 0.354980 -0.281006 
vn -0.753906 0.590332 -0.287598 
vn -0.686279 0.591309 -0.423096 
vn -0.564209 0.725098 -0.394287 
vn -0.686279 0.591309 -0.423096 
vn -0.753906 0.590332 -0.287598 
vn -0.686279 0.591309 -0.423096 
vn -0.564209 0.725098 -0.394287 
vn -0.639160 0.678223 -0.362061 
vn -0.823242 0.552002 -0.131592 
vn -0.916992 0.382080 -0.113770 
vn -0.900879 0.419189 -0.110840 
vn -0.916992 0.382080 -0.113770 
vn -0.823242 0.552002 -0.131592 
vn -0.753906 0.590332 -0.287598 
vn -0.543701 0.795410 -0.266846 
vn -0.753906 0.590332 -0.287598 
vn -0.823242 0.552002 -0.131592 
vn -0.753906 0.590332 -0.287598 
vn -0.543701 0.795410 -0.266846 
vn -0.564209 0.725098 -0.394287 
vt 0.525490 0.545098 
vt 1.000000 1.000000 
vt 1.000000 0.545098 
vt 1.000000 1.000000 
vt 0.525490 0.545098 
vt 0.525490 1.000000 
vt 0.992157 0.545098 
vt 0.525490 1.000000 
vt 0.525490 0.545098 
vt 0.525490 1.000000 
vt 0.992157 0.545098 
vt 0.992157 1.000000 
vt 0.525490 0.003922 
vt 1.000000 0.545098 
vt 1.000000 0.003922 
vt 1.000000 0.545098 
vt 0.525490 0.003922 
vt 0.525490 0.545098 
vt 0.992157 0.003922 
vt 0.525490 0.545098 
vt 0.525490 0.003922 
vt 0.525490 0.545098 
vt 0.992157 0.003922 
vt 0.992157 0.545098 
vt 0.525490 0.545098 
vt 1.000000 1.000000 
vt 1.000000 0.545098 
vt 1.000000 1.000000 
vt 0.525490 0.545098 
vt 0.525490 1.000000 
vt 0.992157 0.545098 
vt 0.525490 1.000000 
vt 0.525490 0.545098 
vt 0.525490 1.000000 
vt 0.992157 0.545098 
vt 0.992157 1.000000 
vt 0.525490 0.003922 
vt 1.000000 0.545098 
vt 1.000000 0.003922 
vt 1.000000 0.545098 
vt 0.525490 0.003922 
vt 0.525490 0.545098 
vt 0.992157 0.003922 
vt 0.525490 0.545098 
vt 0.525490 0.003922 
vt 0.525490 0.545098 
vt 0.992157 0.003922 
vt 0.992157 0.545098 
f 1/1/1 2/2/2 3/3/3
f 4/4/4 5/5/5 6/6/6
f 7/7/7 8/8/8 9/9/9
f 10/10/10 11/11/11 12/12/12
f 13/13/13 14/14/14 15/15/15
f 16/16/16 17/17/17 18/18/18
f 19/19/19 20/20/20 21/21/21
f 22/22/22 23/23/23 24/24/24
f 25/25/25 26/26/26 27/27/27
f 28/28/28 29/29/29 30/30/30
f 31/31/31 32/32/32 33/33/33
f 34/34/34 35/35/35 36/36/36
f 37/37/37 38/38/38 39/39/39
f 40/40/40 41/41/41 42/42/42
f 43/43/43 44/44/44 45/45/45
f 46/46/46 47/47/47 48/48/48
