v -19.000000 -16.000000 -45.000000 
v 0.000000 0.000000 -42.000000 
v 0.000000 -11.000000 -58.000000 
v -19.000000 -28.000000 -46.000000 
v -19.000000 -16.000000 -45.000000 
v 0.000000 -11.000000 -58.000000 
v 0.000000 -30.000000 -46.000000 
v -19.000000 -28.000000 -46.000000 
v 0.000000 -11.000000 -58.000000 
v 19.000000 -28.000000 -46.000000 
v 0.000000 -30.000000 -46.000000 
v 0.000000 -11.000000 -58.000000 
v 19.000000 -16.000000 -45.000000 
v 19.000000 -28.000000 -46.000000 
v 0.000000 -11.000000 -58.000000 
v 0.000000 0.000000 -42.000000 
v 19.000000 -16.000000 -45.000000 
v 0.000000 -11.000000 -58.000000 
v -20.000000 0.000000 13.000000 
v 0.000000 10.000000 10.000000 
v 0.000000 -5.000000 -21.000000 
v -17.000000 -17.000000 -20.000000 
v -20.000000 0.000000 13.000000 
v 0.000000 -5.000000 -21.000000 
v -20.000000 -18.000000 15.000000 
v -20.000000 0.000000 13.000000 
v -17.000000 -17.000000 -20.000000 
v -17.000000 -29.000000 -18.000000 
v -20.000000 -18.000000 15.000000 
v -17.000000 -17.000000 -20.000000 
v 0.000000 -18.000000 15.000000 
v -20.000000 -18.000000 15.000000 
v -17.000000 -29.000000 -18.000000 
v 0.000000 -31.000000 -18.000000 
v 0.000000 -18.000000 15.000000 
v -17.000000 -29.000000 -18.000000 
v 20.000000 -18.000000 15.000000 
v 0.000000 -18.000000 15.000000 
v 0.000000 -31.000000 -18.000000 
v 17.000000 -29.000000 -18.000000 
v 20.000000 -18.000000 15.000000 
v 0.000000 -31.000000 -18.000000 
v 20.000000 0.000000 13.000000 
v 20.000000 -18.000000 15.000000 
v 17.000000 -29.000000 -18.000000 
v 17.000000 -17.000000 -20.000000 
v 20.000000 0.000000 13.000000 
v 17.000000 -29.000000 -18.000000 
v 0.000000 10.000000 10.000000 
v 20.000000 0.000000 13.000000 
v 17.000000 -17.000000 -20.000000 
v 0.000000 -5.000000 -21.000000 
v 0.000000 10.000000 10.000000 
v 17.000000 -17.000000 -20.000000 
v -19.000000 -16.000000 -45.000000 
v -17.000000 -17.000000 -20.000000 
v 0.000000 -5.000000 -21.000000 
v 0.000000 -5.000000 -21.000000 
v 0.000000 0.000000 -42.000000 
v -19.000000 -16.000000 -45.000000 
v -19.000000 -28.000000 -46.000000 
v -17.000000 -29.000000 -18.000000 
v -17.000000 -17.000000 -20.000000 
v -17.000000 -17.000000 -20.000000 
v -19.000000 -16.000000 -45.000000 
v -19.000000 -28.000000 -46.000000 
v 0.000000 -30.000000 -46.000000 
v 0.000000 -31.000000 -18.000000 
v -17.000000 -29.000000 -18.000000 
v -17.000000 -29.000000 -18.000000 
v -19.000000 -28.000000 -46.000000 
v 0.000000 -30.000000 -46.000000 
v 19.000000 -28.000000 -46.000000 
v 17.000000 -29.000000 -18.000000 
v 0.000000 -31.000000 -18.000000 
v 0.000000 -31.000000 -18.000000 
v 0.000000 -30.000000 -46.000000 
v 19.000000 -28.000000 -46.000000 
v 19.000000 -16.000000 -45.000000 
v 17.000000 -17.000000 -20.000000 
v 17.000000 -29.000000 -18.000000 
v 17.000000 -29.000000 -18.000000 
v 19.000000 -28.000000 -46.000000 
v 19.000000 -16.000000 -45.000000 
v 0.000000 0.000000 -42.000000 
v 0.000000 -5.000000 -21.000000 
v 17.000000 -17.000000 -20.000000 
v 17.000000 -17.000000 -20.000000 
v 19.000000 -16.000000 -45.000000 
v 0.000000 0.000000 -42.000000 
vn -0.858398 0.482910 -0.172119 
vn 0.186523 0.975342 -0.117432 
vn 0.000000 0.082275 -0.996582 
vn -0.832520 -0.416260 -0.364746 
vn -0.858398 0.482910 -0.172119 
vn 0.000000 0.082275 -0.996582 
vn -0.029541 -0.937988 -0.345215 
vn -0.832520 -0.416260 -0.364746 
vn 0.000000 0.082275 -0.996582 
vn 0.602539 -0.700195 -0.382324 
vn -0.029541 -0.937988 -0.345215 
vn 0.000000 0.082275 -0.996582 
vn 0.927734 0.320557 -0.190674 
vn 0.602539 -0.700195 -0.382324 
vn 0.000000 0.082275 -0.996582 
vn 0.186523 0.975342 -0.117432 
vn 0.927734 0.320557 -0.190674 
vn 0.000000 0.082275 -0.996582 
vn -0.815674 0.530762 -0.229492 
vn 0.268555 0.900391 -0.341553 
vn -0.293457 0.948730 -0.115479 
vn -0.965088 0.256104 -0.052734 
vn -0.815674 0.530762 -0.229492 
vn -0.293457 0.948730 -0.115479 
vn -0.896484 -0.439697 0.051270 
vn -0.815674 0.530762 -0.229492 
vn -0.965088 0.256104 -0.052734 
vn -0.522461 -0.847656 0.091797 
vn -0.896484 -0.439697 0.051270 
vn -0.965088 0.256104 -0.052734 
vn -0.037598 -0.970215 0.238525 
vn -0.896484 -0.439697 0.051270 
vn -0.522461 -0.847656 0.091797 
vn 0.029785 -0.992920 0.114502 
vn -0.037598 -0.970215 0.238525 
vn -0.522461 -0.847656 0.091797 
vn 0.500000 -0.847412 0.178223 
vn -0.037598 -0.970215 0.238525 
vn 0.029785 -0.992920 0.114502 
vn 0.905518 -0.422119 0.035645 
vn 0.500000 -0.847412 0.178223 
vn 0.029785 -0.992920 0.114502 
vn 0.949463 0.270996 -0.156982 
vn 0.500000 -0.847412 0.178223 
vn 0.905518 -0.422119 0.035645 
vn 0.848633 0.523682 -0.073486 
vn 0.949463 0.270996 -0.156982 
vn 0.905518 -0.422119 0.035645 
vn 0.268555 0.900391 -0.341553 
vn 0.949463 0.270996 -0.156982 
vn 0.848633 0.523682 -0.073486 
vn -0.293457 0.948730 -0.115479 
vn 0.268555 0.900391 -0.341553 
vn 0.848633 0.523682 -0.073486 
vn -0.858398 0.482910 -0.172119 
vn -0.965088 0.256104 -0.052734 
vn -0.293457 0.948730 -0.115479 
vn -0.293457 0.948730 -0.115479 
vn 0.186523 0.975342 -0.117432 
vn -0.858398 0.482910 -0.172119 
vn -0.832520 -0.416260 -0.364746 
vn -0.522461 -0.847656 0.091797 
vn -0.965088 0.256104 -0.052734 
vn -0.965088 0.256104 -0.052734 
vn -0.858398 0.482910 -0.172119 
vn -0.832520 -0.416260 -0.364746 
vn -0.029541 -0.937988 -0.345215 
vn 0.029785 -0.992920 0.114502 
vn -0.522461 -0.847656 0.091797 
vn -0.522461 -0.847656 0.091797 
vn -0.832520 -0.416260 -0.364746 
vn -0.029541 -0.937988 -0.345215 
vn 0.602539 -0.700195 -0.382324 
vn 0.905518 -0.422119 0.035645 
vn 0.029785 -0.992920 0.114502 
vn 0.029785 -0.992920 0.114502 
vn -0.029541 -0.937988 -0.345215 
vn 0.602539 -0.700195 -0.382324 
vn 0.927734 0.320557 -0.190674 
vn 0.848633 0.523682 -0.073486 
vn 0.905518 -0.422119 0.035645 
vn 0.905518 -0.422119 0.035645 
vn 0.602539 -0.700195 -0.382324 
vn 0.927734 0.320557 -0.190674 
vn 0.186523 0.975342 -0.117432 
vn -0.293457 0.948730 -0.115479 
vn 0.848633 0.523682 -0.073486 
vn 0.848633 0.523682 -0.073486 
vn 0.927734 0.320557 -0.190674 
vn 0.186523 0.975342 -0.117432 
vt 0.682540 0.451613 
vt 0.761905 0.387097 
vt 0.761905 0.645161 
vt 0.682540 0.677419 
vt 0.682540 0.451613 
vt 0.761905 0.645161 
vt 0.761905 0.709677 
vt 0.682540 0.677419 
vt 0.761905 0.645161 
vt 0.825397 0.677419 
vt 0.761905 0.709677 
vt 0.761905 0.645161 
vt 0.825397 0.483871 
vt 0.825397 0.677419 
vt 0.761905 0.645161 
vt 0.761905 0.387097 
vt 0.825397 0.483871 
vt 0.761905 0.645161 
vt 0.492063 0.000000 
vt 0.761905 0.000000 
vt 0.761905 0.387097 
vt 0.682540 0.451613 
vt 0.492063 0.000000 
vt 0.761905 0.387097 
vt 0.492063 1.000000 
vt 0.492063 0.000000 
vt 0.682540 0.451613 
vt 0.682540 0.677419 
vt 0.492063 1.000000 
vt 0.682540 0.451613 
vt 0.761905 1.000000 
vt 0.492063 1.000000 
vt 0.682540 0.677419 
vt 0.761905 0.709677 
vt 0.761905 1.000000 
vt 0.682540 0.677419 
vt 1.000000 1.000000 
vt 0.761905 1.000000 
vt 0.761905 0.709677 
vt 0.825397 0.677419 
vt 1.000000 1.000000 
vt 0.761905 0.709677 
vt 1.000000 0.000000 
vt 1.000000 1.000000 
vt 0.825397 0.677419 
vt 0.825397 0.483871 
vt 1.000000 0.000000 
vt 0.825397 0.677419 
vt 0.761905 0.000000 
vt 1.000000 0.000000 
vt 0.825397 0.483871 
vt 0.761905 0.387097 
vt 0.761905 0.000000 
vt 0.825397 0.483871 
vt 0.682540 0.451613 
vt 0.682540 0.451613 
vt 0.761905 0.387097 
vt 0.761905 0.387097 
vt 0.761905 0.387097 
vt 0.682540 0.451613 
vt 0.682540 0.677419 
vt 0.682540 0.677419 
vt 0.682540 0.451613 
vt 0.682540 0.451613 
vt 0.682540 0.451613 
vt 0.682540 0.677419 
vt 0.761905 0.709677 
vt 0.761905 0.709677 
vt 0.682540 0.677419 
vt 0.682540 0.677419 
vt 0.682540 0.677419 
vt 0.761905 0.709677 
vt 0.825397 0.677419 
vt 0.825397 0.677419 
vt 0.761905 0.709677 
vt 0.761905 0.709677 
vt 0.761905 0.709677 
vt 0.825397 0.677419 
vt 0.825397 0.483871 
vt 0.825397 0.483871 
vt 0.825397 0.677419 
vt 0.825397 0.677419 
vt 0.825397 0.677419 
vt 0.825397 0.483871 
vt 0.761905 0.387097 
vt 0.761905 0.387097 
vt 0.825397 0.483871 
vt 0.825397 0.483871 
vt 0.825397 0.483871 
vt 0.761905 0.387097 
f 1/1/1 2/2/2 3/3/3
f 4/4/4 5/5/5 6/6/6
f 7/7/7 8/8/8 9/9/9
f 10/10/10 11/11/11 12/12/12
f 13/13/13 14/14/14 15/15/15
f 16/16/16 17/17/17 18/18/18
f 19/19/19 20/20/20 21/21/21
f 22/22/22 23/23/23 24/24/24
f 25/25/25 26/26/26 27/27/27
f 28/28/28 29/29/29 30/30/30
f 31/31/31 32/32/32 33/33/33
f 34/34/34 35/35/35 36/36/36
f 37/37/37 38/38/38 39/39/39
f 40/40/40 41/41/41 42/42/42
f 43/43/43 44/44/44 45/45/45
f 46/46/46 47/47/47 48/48/48
f 49/49/49 50/50/50 51/51/51
f 52/52/52 53/53/53 54/54/54
f 55/55/55 56/56/56 57/57/57
f 58/58/58 59/59/59 60/60/60
f 61/61/61 62/62/62 63/63/63
f 64/64/64 65/65/65 66/66/66
f 67/67/67 68/68/68 69/69/69
f 70/70/70 71/71/71 72/72/72
f 73/73/73 74/74/74 75/75/75
f 76/76/76 77/77/77 78/78/78
f 79/79/79 80/80/80 81/81/81
f 82/82/82 83/83/83 84/84/84
f 85/85/85 86/86/86 87/87/87
f 88/88/88 89/89/89 90/90/90
