v 30.000000 -58.000000 -251.000000 
v -38.000000 -17.000000 -441.000000 
v -44.000000 114.000000 -141.000000 
v -132.000000 135.000000 -332.000000 
v -44.000000 114.000000 -141.000000 
v -38.000000 -17.000000 -441.000000 
v -44.000000 114.000000 -141.000000 
v -132.000000 135.000000 -332.000000 
v -190.000000 182.000000 -50.000000 
v -259.000000 222.000000 -240.000000 
v -190.000000 182.000000 -50.000000 
v -132.000000 135.000000 -332.000000 
v 94.000000 -124.000000 -31.000000 
v 30.000000 -58.000000 -251.000000 
v 10.000000 40.000000 78.000000 
v -44.000000 114.000000 -141.000000 
v 10.000000 40.000000 78.000000 
v 30.000000 -58.000000 -251.000000 
v 10.000000 40.000000 78.000000 
v -44.000000 114.000000 -141.000000 
v -126.000000 116.000000 169.000000 
v -190.000000 182.000000 -50.000000 
v -126.000000 116.000000 169.000000 
v -44.000000 114.000000 -141.000000 
v -51.000000 110.000000 -38.000000 
v -199.000000 189.000000 -81.000000 
v -29.000000 222.000000 172.000000 
v -192.000000 279.000000 135.000000 
v -29.000000 222.000000 172.000000 
v -199.000000 189.000000 -81.000000 
v -29.000000 222.000000 172.000000 
v -192.000000 279.000000 135.000000 
v -76.000000 227.000000 384.000000 
v -224.000000 305.000000 341.000000 
v -76.000000 227.000000 384.000000 
v -192.000000 279.000000 135.000000 
v 106.000000 -1.000000 18.000000 
v -51.000000 110.000000 -38.000000 
v 122.000000 100.000000 231.000000 
v -29.000000 222.000000 172.000000 
v 122.000000 100.000000 231.000000 
v -51.000000 110.000000 -38.000000 
v 122.000000 100.000000 231.000000 
v -29.000000 222.000000 172.000000 
v 81.000000 115.000000 441.000000 
v -76.000000 227.000000 384.000000 
v 81.000000 115.000000 441.000000 
v -29.000000 222.000000 172.000000 
v 259.000000 -220.000000 36.000000 
v 255.000000 -305.000000 -157.000000 
v 184.000000 -33.000000 -47.000000 
v 161.000000 -137.000000 -237.000000 
v 184.000000 -33.000000 -47.000000 
v 255.000000 -305.000000 -157.000000 
v 184.000000 -33.000000 -47.000000 
v 161.000000 -137.000000 -237.000000 
v 36.000000 53.000000 -106.000000 
v 33.000000 -31.000000 -299.000000 
v 36.000000 53.000000 -106.000000 
v 161.000000 -137.000000 -237.000000 
v 246.000000 -135.000000 265.000000 
v 259.000000 -220.000000 36.000000 
v 162.000000 42.000000 183.000000 
v 184.000000 -33.000000 -47.000000 
v 162.000000 42.000000 183.000000 
v 259.000000 -220.000000 36.000000 
v 162.000000 42.000000 183.000000 
v 184.000000 -33.000000 -47.000000 
v 23.000000 137.000000 123.000000 
v 36.000000 53.000000 -106.000000 
v 23.000000 137.000000 123.000000 
v 184.000000 -33.000000 -47.000000 
vn 0.842529 0.514893 -0.157471 
vn 0.751465 0.594971 -0.284668 
vn 0.645020 0.760010 -0.078369 
vn 0.528809 0.835449 -0.148193 
vn 0.645020 0.760010 -0.078369 
vn 0.751465 0.594971 -0.284668 
vn 0.645020 0.760010 -0.078369 
vn 0.528809 0.835449 -0.148193 
vn 0.438477 0.898438 0.008545 
vn 0.517090 0.855225 -0.028076 
vn 0.438477 0.898438 0.008545 
vn 0.528809 0.835449 -0.148193 
vn 0.832764 0.539062 -0.124268 
vn 0.842529 0.514893 -0.157471 
vn 0.766113 0.642090 -0.020020 
vn 0.645020 0.760010 -0.078369 
vn 0.766113 0.642090 -0.020020 
vn 0.842529 0.514893 -0.157471 
vn 0.766113 0.642090 -0.020020 
vn 0.645020 0.760010 -0.078369 
vn 0.475586 0.866211 0.153076 
vn 0.438477 0.898438 0.008545 
vn 0.475586 0.866211 0.153076 
vn 0.645020 0.760010 -0.078369 
vn 0.548340 0.687500 -0.475830 
vn 0.404053 0.787354 -0.465332 
vn 0.488770 0.848877 -0.200684 
vn 0.365723 0.920166 -0.138428 
vn 0.488770 0.848877 -0.200684 
vn 0.404053 0.787354 -0.465332 
vn 0.488770 0.848877 -0.200684 
vn 0.365723 0.920166 -0.138428 
vn 0.416748 0.907715 0.045654 
vn 0.442627 0.895264 -0.046875 
vn 0.416748 0.907715 0.045654 
vn 0.365723 0.920166 -0.138428 
vn 0.566895 0.696533 -0.439209 
vn 0.548340 0.687500 -0.475830 
vn 0.602783 0.743408 -0.289307 
vn 0.488770 0.848877 -0.200684 
vn 0.602783 0.743408 -0.289307 
vn 0.548340 0.687500 -0.475830 
vn 0.602783 0.743408 -0.289307 
vn 0.488770 0.848877 -0.200684 
vn 0.539551 0.835693 0.100586 
vn 0.416748 0.907715 0.045654 
vn 0.539551 0.835693 0.100586 
vn 0.488770 0.848877 -0.200684 
vn 0.916992 0.382080 -0.113770 
vn 0.891357 0.354980 -0.281006 
vn 0.753906 0.590332 -0.287598 
vn 0.686279 0.591309 -0.423096 
vn 0.753906 0.590332 -0.287598 
vn 0.891357 0.354980 -0.281006 
vn 0.753906 0.590332 -0.287598 
vn 0.686279 0.591309 -0.423096 
vn 0.564209 0.725098 -0.394287 
vn 0.639160 0.678223 -0.362061 
vn 0.564209 0.725098 -0.394287 
vn 0.686279 0.591309 -0.423096 
vn 0.900879 0.419189 -0.110840 
vn 0.916992 0.382080 -0.113770 
vn 0.823242 0.552002 -0.131592 
vn 0.753906 0.590332 -0.287598 
vn 0.823242 0.552002 -0.131592 
vn 0.916992 0.382080 -0.113770 
vn 0.823242 0.552002 -0.131592 
vn 0.753906 0.590332 -0.287598 
vn 0.543701 0.795410 -0.266846 
vn 0.564209 0.725098 -0.394287 
vn 0.543701 0.795410 -0.266846 
vn 0.753906 0.590332 -0.287598 
vt 1.000000 0.545098 
vt 1.000000 1.000000 
vt 0.525490 0.545098 
vt 0.525490 1.000000 
vt 0.525490 0.545098 
vt 1.000000 1.000000 
vt 0.525490 0.545098 
vt 0.525490 1.000000 
vt 0.992157 0.545098 
vt 0.992157 1.000000 
vt 0.992157 0.545098 
vt 0.525490 1.000000 
vt 1.000000 0.003922 
vt 1.000000 0.545098 
vt 0.525490 0.003922 
vt 0.525490 0.545098 
vt 0.525490 0.003922 
vt 1.000000 0.545098 
vt 0.525490 0.003922 
vt 0.525490 0.545098 
vt 0.992157 0.003922 
vt 0.992157 0.545098 
vt 0.992157 0.003922 
vt 0.525490 0.545098 
vt 1.000000 0.545098 
vt 1.000000 1.000000 
vt 0.525490 0.545098 
vt 0.525490 1.000000 
vt 0.525490 0.545098 
vt 1.000000 1.000000 
vt 0.525490 0.545098 
vt 0.525490 1.000000 
vt 0.992157 0.545098 
vt 0.992157 1.000000 
vt 0.992157 0.545098 
vt 0.525490 1.000000 
vt 1.000000 0.003922 
vt 1.000000 0.545098 
vt 0.525490 0.003922 
vt 0.525490 0.545098 
vt 0.525490 0.003922 
vt 1.000000 0.545098 
vt 0.525490 0.003922 
vt 0.525490 0.545098 
vt 0.992157 0.003922 
vt 0.992157 0.545098 
vt 0.992157 0.003922 
vt 0.525490 0.545098 
vt 1.000000 0.545098 
vt 1.000000 1.000000 
vt 0.525490 0.545098 
vt 0.525490 1.000000 
vt 0.525490 0.545098 
vt 1.000000 1.000000 
vt 0.525490 0.545098 
vt 0.525490 1.000000 
vt 0.992157 0.545098 
vt 0.992157 1.000000 
vt 0.992157 0.545098 
vt 0.525490 1.000000 
vt 1.000000 0.003922 
vt 1.000000 0.545098 
vt 0.525490 0.003922 
vt 0.525490 0.545098 
vt 0.525490 0.003922 
vt 1.000000 0.545098 
vt 0.525490 0.003922 
vt 0.525490 0.545098 
vt 0.992157 0.003922 
vt 0.992157 0.545098 
vt 0.992157 0.003922 
vt 0.525490 0.545098 
f 1/1/1 2/2/2 3/3/3
f 4/4/4 5/5/5 6/6/6
f 7/7/7 8/8/8 9/9/9
f 10/10/10 11/11/11 12/12/12
f 13/13/13 14/14/14 15/15/15
f 16/16/16 17/17/17 18/18/18
f 19/19/19 20/20/20 21/21/21
f 22/22/22 23/23/23 24/24/24
f 25/25/25 26/26/26 27/27/27
f 28/28/28 29/29/29 30/30/30
f 31/31/31 32/32/32 33/33/33
f 34/34/34 35/35/35 36/36/36
f 37/37/37 38/38/38 39/39/39
f 40/40/40 41/41/41 42/42/42
f 43/43/43 44/44/44 45/45/45
f 46/46/46 47/47/47 48/48/48
f 49/49/49 50/50/50 51/51/51
f 52/52/52 53/53/53 54/54/54
f 55/55/55 56/56/56 57/57/57
f 58/58/58 59/59/59 60/60/60
f 61/61/61 62/62/62 63/63/63
f 64/64/64 65/65/65 66/66/66
f 67/67/67 68/68/68 69/69/69
f 70/70/70 71/71/71 72/72/72
