v 1.000000 -3.000000 0.000000 
v 1.000000 0.000000 -2.000000 
v 4.000000 0.000000 0.000000 
v 1.000000 0.000000 -2.000000 
v 1.000000 4.000000 0.000000 
v 4.000000 0.000000 0.000000 
v 1.000000 4.000000 0.000000 
v 1.000000 0.000000 2.000000 
v 4.000000 0.000000 0.000000 
v 1.000000 0.000000 2.000000 
v 1.000000 -3.000000 0.000000 
v 4.000000 0.000000 0.000000 
v -1.000000 -4.000000 0.000000 
v -1.000000 0.000000 -5.000000 
v 1.000000 -3.000000 0.000000 
v -1.000000 0.000000 -5.000000 
v 1.000000 0.000000 -2.000000 
v 1.000000 -3.000000 0.000000 
v -1.000000 0.000000 -5.000000 
v -1.000000 5.000000 0.000000 
v 1.000000 0.000000 -2.000000 
v -1.000000 5.000000 0.000000 
v 1.000000 4.000000 0.000000 
v 1.000000 0.000000 -2.000000 
v -1.000000 5.000000 0.000000 
v -1.000000 0.000000 4.000000 
v 1.000000 4.000000 0.000000 
v -1.000000 0.000000 4.000000 
v 1.000000 0.000000 2.000000 
v 1.000000 4.000000 0.000000 
v -1.000000 0.000000 4.000000 
v -1.000000 -4.000000 0.000000 
v 1.000000 0.000000 2.000000 
v -1.000000 -4.000000 0.000000 
v 1.000000 -3.000000 0.000000 
v 1.000000 0.000000 2.000000 
v -6.000000 -3.000000 0.000000 
v -6.000000 0.000000 -3.000000 
v -1.000000 -4.000000 0.000000 
v -6.000000 0.000000 -3.000000 
v -1.000000 0.000000 -5.000000 
v -1.000000 -4.000000 0.000000 
v -6.000000 0.000000 -3.000000 
v -7.000000 3.000000 0.000000 
v -1.000000 0.000000 -5.000000 
v -7.000000 3.000000 0.000000 
v -1.000000 5.000000 0.000000 
v -1.000000 0.000000 -5.000000 
v -7.000000 3.000000 0.000000 
v -7.000000 0.000000 3.000000 
v -1.000000 5.000000 0.000000 
v -7.000000 0.000000 3.000000 
v -1.000000 0.000000 4.000000 
v -1.000000 5.000000 0.000000 
v -7.000000 0.000000 3.000000 
v -6.000000 -3.000000 0.000000 
v -1.000000 0.000000 4.000000 
v -6.000000 -3.000000 0.000000 
v -1.000000 -4.000000 0.000000 
v -1.000000 0.000000 4.000000 
v -31.000000 -3.000000 0.000000 
v -31.000000 0.000000 -3.000000 
v -6.000000 -3.000000 0.000000 
v -31.000000 0.000000 -3.000000 
v -6.000000 0.000000 -3.000000 
v -6.000000 -3.000000 0.000000 
v -31.000000 0.000000 -3.000000 
v -31.000000 2.000000 0.000000 
v -6.000000 0.000000 -3.000000 
v -31.000000 2.000000 0.000000 
v -7.000000 3.000000 0.000000 
v -6.000000 0.000000 -3.000000 
v -31.000000 2.000000 0.000000 
v -31.000000 0.000000 3.000000 
v -7.000000 3.000000 0.000000 
v -31.000000 0.000000 3.000000 
v -7.000000 0.000000 3.000000 
v -7.000000 3.000000 0.000000 
v -31.000000 0.000000 3.000000 
v -31.000000 -3.000000 0.000000 
v -7.000000 0.000000 3.000000 
v -31.000000 -3.000000 0.000000 
v -6.000000 -3.000000 0.000000 
v -7.000000 0.000000 3.000000 
v -31.000000 0.000000 -3.000000 
v -31.000000 -3.000000 0.000000 
v -34.000000 0.000000 0.000000 
v -31.000000 2.000000 0.000000 
v -31.000000 0.000000 -3.000000 
v -34.000000 0.000000 0.000000 
v -31.000000 0.000000 3.000000 
v -31.000000 2.000000 0.000000 
v -34.000000 0.000000 0.000000 
v -31.000000 -3.000000 0.000000 
v -31.000000 0.000000 3.000000 
v -34.000000 0.000000 0.000000 
vn 0.763428 -0.635498 -0.112793 
vn 0.747314 0.161865 -0.644287 
vn 0.999756 -0.008545 0.009277 
vn 0.747314 0.161865 -0.644287 
vn 0.773438 0.620361 0.129150 
vn 0.999756 -0.008545 0.009277 
vn 0.773438 0.620361 0.129150 
vn 0.719482 -0.167480 0.673584 
vn 0.999756 -0.008545 0.009277 
vn 0.719482 -0.167480 0.673584 
vn 0.763428 -0.635498 -0.112793 
vn 0.999756 -0.008545 0.009277 
vn 0.123779 -0.992188 -0.006348 
vn 0.158691 -0.000732 -0.987305 
vn 0.763428 -0.635498 -0.112793 
vn 0.158691 -0.000732 -0.987305 
vn 0.747314 0.161865 -0.644287 
vn 0.763428 -0.635498 -0.112793 
vn 0.158691 -0.000732 -0.987305 
vn -0.066650 0.997559 -0.006836 
vn 0.747314 0.161865 -0.644287 
vn -0.066650 0.997559 -0.006836 
vn 0.773438 0.620361 0.129150 
vn 0.747314 0.161865 -0.644287 
vn -0.066650 0.997559 -0.006836 
vn 0.127686 -0.067139 0.989502 
vn 0.773438 0.620361 0.129150 
vn 0.127686 -0.067139 0.989502 
vn 0.719482 -0.167480 0.673584 
vn 0.773438 0.620361 0.129150 
vn 0.127686 -0.067139 0.989502 
vn 0.123779 -0.992188 -0.006348 
vn 0.719482 -0.167480 0.673584 
vn 0.123779 -0.992188 -0.006348 
vn 0.763428 -0.635498 -0.112793 
vn 0.719482 -0.167480 0.673584 
vn -0.156494 -0.987305 -0.017578 
vn -0.197510 -0.044189 -0.979248 
vn 0.123779 -0.992188 -0.006348 
vn -0.197510 -0.044189 -0.979248 
vn 0.158691 -0.000732 -0.987305 
vn 0.123779 -0.992188 -0.006348 
vn -0.197510 -0.044189 -0.979248 
vn -0.324219 0.945557 0.024902 
vn 0.158691 -0.000732 -0.987305 
vn -0.324219 0.945557 0.024902 
vn -0.066650 0.997559 -0.006836 
vn 0.158691 -0.000732 -0.987305 
vn -0.324219 0.945557 0.024902 
vn -0.292480 -0.060059 0.954102 
vn -0.066650 0.997559 -0.006836 
vn -0.292480 -0.060059 0.954102 
vn 0.127686 -0.067139 0.989502 
vn -0.066650 0.997559 -0.006836 
vn -0.292480 -0.060059 0.954102 
vn -0.156494 -0.987305 -0.017578 
vn 0.127686 -0.067139 0.989502 
vn -0.156494 -0.987305 -0.017578 
vn 0.123779 -0.992188 -0.006348 
vn 0.127686 -0.067139 0.989502 
vn -0.488281 -0.849609 0.198730 
vn -0.490479 -0.208984 -0.845947 
vn -0.156494 -0.987305 -0.017578 
vn -0.490479 -0.208984 -0.845947 
vn -0.197510 -0.044189 -0.979248 
vn -0.156494 -0.987305 -0.017578 
vn -0.490479 -0.208984 -0.845947 
vn -0.506836 0.832031 -0.224609 
vn -0.197510 -0.044189 -0.979248 
vn -0.506836 0.832031 -0.224609 
vn -0.324219 0.945557 0.024902 
vn -0.197510 -0.044189 -0.979248 
vn -0.506836 0.832031 -0.224609 
vn -0.489258 0.182617 0.852539 
vn -0.324219 0.945557 0.024902 
vn -0.489258 0.182617 0.852539 
vn -0.292480 -0.060059 0.954102 
vn -0.324219 0.945557 0.024902 
vn -0.489258 0.182617 0.852539 
vn -0.488281 -0.849609 0.198730 
vn -0.292480 -0.060059 0.954102 
vn -0.488281 -0.849609 0.198730 
vn -0.156494 -0.987305 -0.017578 
vn -0.292480 -0.060059 0.954102 
vn -0.490479 -0.208984 -0.845947 
vn -0.488281 -0.849609 0.198730 
vn -0.999756 -0.012451 -0.009277 
vn -0.506836 0.832031 -0.224609 
vn -0.490479 -0.208984 -0.845947 
vn -0.999756 -0.012451 -0.009277 
vn -0.489258 0.182617 0.852539 
vn -0.506836 0.832031 -0.224609 
vn -0.999756 -0.012451 -0.009277 
vn -0.488281 -0.849609 0.198730 
vn -0.489258 0.182617 0.852539 
vn -0.999756 -0.012451 -0.009277 
vt 0.000000 0.516129 
vt 0.096774 0.516129 
vt 0.290323 0.612903 
vt 0.096774 0.516129 
vt 0.193548 0.516129 
vt 0.290323 0.612903 
vt 0.193548 0.516129 
vt 0.290323 0.516129 
vt 0.290323 0.612903 
vt 0.290323 0.516129 
vt 0.419355 0.516129 
vt 0.290323 0.612903 
vt 0.322581 0.161290 
vt 0.419355 0.161290 
vt 0.419355 0.516129 
vt 0.000000 0.161290 
vt 0.096774 0.516129 
vt 0.000000 0.516129 
vt 0.000000 0.161290 
vt 0.096774 0.161290 
vt 0.096774 0.516129 
vt 0.096774 0.161290 
vt 0.193548 0.516129 
vt 0.096774 0.516129 
vt 0.096774 0.161290 
vt 0.193548 0.161290 
vt 0.193548 0.516129 
vt 0.193548 0.161290 
vt 0.290323 0.516129 
vt 0.193548 0.516129 
vt 0.193548 0.161290 
vt 0.322581 0.161290 
vt 0.290323 0.516129 
vt 0.322581 0.161290 
vt 0.419355 0.516129 
vt 0.290323 0.516129 
vt 0.322581 0.064516 
vt 0.419355 0.064516 
vt 0.322581 0.161290 
vt 0.419355 0.064516 
vt 0.419355 0.161290 
vt 0.322581 0.161290 
vt 0.000000 0.064516 
vt 0.096774 0.064516 
vt 0.000000 0.161290 
vt 0.096774 0.064516 
vt 0.096774 0.161290 
vt 0.000000 0.161290 
vt 0.096774 0.064516 
vt 0.193548 0.064516 
vt 0.096774 0.161290 
vt 0.193548 0.064516 
vt 0.193548 0.161290 
vt 0.096774 0.161290 
vt 0.193548 0.064516 
vt 0.322581 0.064516 
vt 0.193548 0.161290 
vt 0.322581 0.064516 
vt 0.322581 0.161290 
vt 0.193548 0.161290 
vt 0.322581 -0.032258 
vt 0.419355 -0.032258 
vt 0.322581 0.064516 
vt 0.419355 -0.032258 
vt 0.419355 0.064516 
vt 0.322581 0.064516 
vt 0.000000 -0.032258 
vt 0.096774 -0.032258 
vt 0.000000 0.064516 
vt 0.096774 -0.032258 
vt 0.096774 0.064516 
vt 0.000000 0.064516 
vt 0.096774 -0.032258 
vt 0.193548 -0.032258 
vt 0.096774 0.064516 
vt 0.193548 -0.032258 
vt 0.193548 0.064516 
vt 0.096774 0.064516 
vt 0.193548 -0.032258 
vt 0.322581 -0.032258 
vt 0.193548 0.064516 
vt 0.322581 -0.032258 
vt 0.322581 0.064516 
vt 0.193548 0.064516 
vt 0.419355 -0.032258 
vt 0.322581 -0.032258 
vt 0.193548 -0.032258 
vt 0.096774 -0.032258 
vt 0.000000 -0.032258 
vt 0.193548 -0.032258 
vt 0.193548 -0.032258 
vt 0.096774 -0.032258 
vt 0.193548 -0.032258 
vt 0.322581 -0.032258 
vt 0.193548 -0.032258 
vt 0.193548 -0.032258 
f 1/1/1 2/2/2 3/3/3
f 4/4/4 5/5/5 6/6/6
f 7/7/7 8/8/8 9/9/9
f 10/10/10 11/11/11 12/12/12
f 13/13/13 14/14/14 15/15/15
f 16/16/16 17/17/17 18/18/18
f 19/19/19 20/20/20 21/21/21
f 22/22/22 23/23/23 24/24/24
f 25/25/25 26/26/26 27/27/27
f 28/28/28 29/29/29 30/30/30
f 31/31/31 32/32/32 33/33/33
f 34/34/34 35/35/35 36/36/36
f 37/37/37 38/38/38 39/39/39
f 40/40/40 41/41/41 42/42/42
f 43/43/43 44/44/44 45/45/45
f 46/46/46 47/47/47 48/48/48
f 49/49/49 50/50/50 51/51/51
f 52/52/52 53/53/53 54/54/54
f 55/55/55 56/56/56 57/57/57
f 58/58/58 59/59/59 60/60/60
f 61/61/61 62/62/62 63/63/63
f 64/64/64 65/65/65 66/66/66
f 67/67/67 68/68/68 69/69/69
f 70/70/70 71/71/71 72/72/72
f 73/73/73 74/74/74 75/75/75
f 76/76/76 77/77/77 78/78/78
f 79/79/79 80/80/80 81/81/81
f 82/82/82 83/83/83 84/84/84
f 85/85/85 86/86/86 87/87/87
f 88/88/88 89/89/89 90/90/90
f 91/91/91 92/92/92 93/93/93
f 94/94/94 95/95/95 96/96/96
