v 1.000000 0.000000 0.000000 
v 0.000000 0.000000 6.000000 
v 0.000000 -6.000000 0.000000 
v 1.000000 0.000000 0.000000 
v 0.000000 6.000000 0.000000 
v 0.000000 0.000000 6.000000 
v 1.000000 0.000000 0.000000 
v 0.000000 0.000000 -6.000000 
v 0.000000 6.000000 0.000000 
v 1.000000 0.000000 0.000000 
v 0.000000 -6.000000 0.000000 
v 0.000000 0.000000 -6.000000 
v 0.000000 -6.000000 0.000000 
v -36.000000 0.000000 7.000000 
v -36.000000 -9.000000 -2.000000 
v 0.000000 -6.000000 0.000000 
v 0.000000 0.000000 6.000000 
v -36.000000 0.000000 7.000000 
v 0.000000 0.000000 6.000000 
v -36.000000 9.000000 -2.000000 
v -36.000000 0.000000 7.000000 
v 0.000000 0.000000 6.000000 
v 0.000000 6.000000 0.000000 
v -36.000000 9.000000 -2.000000 
v 0.000000 6.000000 0.000000 
v -36.000000 0.000000 -11.000000 
v -36.000000 9.000000 -2.000000 
v 0.000000 6.000000 0.000000 
v 0.000000 0.000000 -6.000000 
v -36.000000 0.000000 -11.000000 
v 0.000000 0.000000 -6.000000 
v -36.000000 -9.000000 -2.000000 
v -36.000000 0.000000 -11.000000 
v 0.000000 0.000000 -6.000000 
v 0.000000 -6.000000 0.000000 
v -36.000000 -9.000000 -2.000000 
v -34.000000 0.000000 -2.000000 
v -36.000000 -9.000000 -2.000000 
v -36.000000 0.000000 7.000000 
v -34.000000 0.000000 -2.000000 
v -36.000000 0.000000 7.000000 
v -36.000000 9.000000 -2.000000 
v -34.000000 0.000000 -2.000000 
v -36.000000 9.000000 -2.000000 
v -36.000000 0.000000 -11.000000 
v -34.000000 0.000000 -2.000000 
v -36.000000 0.000000 -11.000000 
v -36.000000 -9.000000 -2.000000 
vn 0.999756 -0.000244 0.000000 
vn 0.965576 -0.000244 0.259521 
vn 0.965576 -0.259766 0.000000 
vn 0.999756 -0.000244 0.000000 
vn 0.965576 0.259033 0.000000 
vn 0.965576 -0.000244 0.259521 
vn 0.999756 -0.000244 0.000000 
vn 0.965576 -0.000244 -0.259521 
vn 0.965576 0.259033 0.000000 
vn 0.999756 -0.000244 0.000000 
vn 0.965576 -0.259766 0.000000 
vn 0.965576 -0.000244 -0.259521 
vn 0.052246 -0.946777 0.317383 
vn 0.020264 -0.316162 0.948242 
vn 0.089600 -0.945312 -0.313232 
vn 0.052246 -0.946777 0.317383 
vn 0.025391 0.315918 0.948242 
vn 0.020264 -0.316162 0.948242 
vn 0.025391 0.315918 0.948242 
vn 0.068115 0.945557 0.317383 
vn 0.020264 -0.316162 0.948242 
vn 0.025391 0.315918 0.948242 
vn 0.105225 0.943848 -0.312256 
vn 0.068115 0.945557 0.317383 
vn 0.105225 0.943848 -0.312256 
vn 0.136963 0.312744 -0.939697 
vn 0.068115 0.945557 0.317383 
vn 0.105225 0.943848 -0.312256 
vn 0.131592 -0.313721 -0.940186 
vn 0.136963 0.312744 -0.939697 
vn 0.131592 -0.313721 -0.940186 
vn 0.089600 -0.945312 -0.313232 
vn 0.136963 0.312744 -0.939697 
vn 0.131592 -0.313721 -0.940186 
vn 0.052246 -0.946777 0.317383 
vn 0.089600 -0.945312 -0.313232 
vn -0.999756 0.000244 0.000000 
vn -0.976807 0.213379 0.000000 
vn -0.976807 0.000244 -0.212891 
vn -0.999756 0.000244 0.000000 
vn -0.976807 0.000244 -0.212891 
vn -0.977051 -0.212646 0.000000 
vn -0.999756 0.000244 0.000000 
vn -0.977051 -0.212646 0.000000 
vn -0.976807 0.000244 0.212891 
vn -0.999756 0.000244 0.000000 
vn -0.976807 0.000244 0.212891 
vn -0.976807 0.213379 0.000000 
vt 0.158730 0.000000 
vt 0.603175 0.507937 
vt 0.158730 0.507937 
vt 0.158730 0.000000 
vt 0.603175 0.507937 
vt 0.158730 0.507937 
vt 0.158730 0.000000 
vt 0.603175 0.507937 
vt 0.158730 0.507937 
vt 0.158730 0.000000 
vt 0.603175 0.507937 
vt 0.158730 0.507937 
vt 0.158730 0.000000 
vt 0.603175 0.507937 
vt 0.158730 0.507937 
vt 0.158730 0.000000 
vt 0.603175 0.000000 
vt 0.603175 0.507937 
vt 0.158730 0.000000 
vt 0.603175 0.507937 
vt 0.158730 0.507937 
vt 0.158730 0.000000 
vt 0.603175 0.000000 
vt 0.603175 0.507937 
vt 0.158730 0.000000 
vt 0.603175 0.507937 
vt 0.158730 0.507937 
vt 0.158730 0.000000 
vt 0.603175 0.000000 
vt 0.603175 0.507937 
vt 0.158730 0.000000 
vt 0.603175 0.507937 
vt 0.158730 0.507937 
vt 0.158730 0.000000 
vt 0.603175 0.000000 
vt 0.603175 0.507937 
vt 0.015873 0.253968 
vt 0.000000 0.317460 
vt 0.000000 0.317460 
vt 0.015873 0.253968 
vt 0.000000 0.317460 
vt 0.000000 0.190476 
vt 0.015873 0.253968 
vt 0.000000 0.190476 
vt 0.000000 0.190476 
vt 0.015873 0.253968 
vt 0.000000 0.190476 
vt 0.000000 0.317460 
f 1/1/1 2/2/2 3/3/3
f 4/4/4 5/5/5 6/6/6
f 7/7/7 8/8/8 9/9/9
f 10/10/10 11/11/11 12/12/12
f 13/13/13 14/14/14 15/15/15
f 16/16/16 17/17/17 18/18/18
f 19/19/19 20/20/20 21/21/21
f 22/22/22 23/23/23 24/24/24
f 25/25/25 26/26/26 27/27/27
f 28/28/28 29/29/29 30/30/30
f 31/31/31 32/32/32 33/33/33
f 34/34/34 35/35/35 36/36/36
f 37/37/37 38/38/38 39/39/39
f 40/40/40 41/41/41 42/42/42
f 43/43/43 44/44/44 45/45/45
f 46/46/46 47/47/47 48/48/48
