v -6.000000 -4.000000 0.000000 
v -1.000000 -3.000000 -3.000000 
v 2.000000 -7.000000 0.000000 
v -1.000000 -3.000000 -3.000000 
v 4.000000 -2.000000 0.000000 
v 2.000000 -7.000000 0.000000 
v 4.000000 -2.000000 0.000000 
v -1.000000 -3.000000 3.000000 
v 2.000000 -7.000000 0.000000 
v -1.000000 -3.000000 3.000000 
v -6.000000 -4.000000 0.000000 
v 2.000000 -7.000000 0.000000 
v -8.000000 -4.000000 0.000000 
v -6.000000 0.000000 -3.000000 
v -6.000000 -4.000000 0.000000 
v -6.000000 0.000000 -3.000000 
v -1.000000 -3.000000 -3.000000 
v -6.000000 -4.000000 0.000000 
v -6.000000 0.000000 -3.000000 
v -3.000000 2.000000 0.000000 
v -1.000000 -3.000000 -3.000000 
v -3.000000 2.000000 0.000000 
v 4.000000 -2.000000 0.000000 
v -1.000000 -3.000000 -3.000000 
v -3.000000 2.000000 0.000000 
v -6.000000 0.000000 3.000000 
v 4.000000 -2.000000 0.000000 
v -6.000000 0.000000 3.000000 
v -1.000000 -3.000000 3.000000 
v 4.000000 -2.000000 0.000000 
v -6.000000 0.000000 3.000000 
v -8.000000 -4.000000 0.000000 
v -1.000000 -3.000000 3.000000 
v -8.000000 -4.000000 0.000000 
v -6.000000 -4.000000 0.000000 
v -1.000000 -3.000000 3.000000 
v -12.000000 -4.000000 0.000000 
v -11.000000 0.000000 -4.000000 
v -8.000000 -4.000000 0.000000 
v -11.000000 0.000000 -4.000000 
v -6.000000 0.000000 -3.000000 
v -8.000000 -4.000000 0.000000 
v -11.000000 0.000000 -4.000000 
v -11.000000 3.000000 0.000000 
v -6.000000 0.000000 -3.000000 
v -11.000000 3.000000 0.000000 
v -3.000000 2.000000 0.000000 
v -6.000000 0.000000 -3.000000 
v -11.000000 3.000000 0.000000 
v -11.000000 0.000000 4.000000 
v -3.000000 2.000000 0.000000 
v -11.000000 0.000000 4.000000 
v -6.000000 0.000000 3.000000 
v -3.000000 2.000000 0.000000 
v -11.000000 0.000000 4.000000 
v -12.000000 -4.000000 0.000000 
v -6.000000 0.000000 3.000000 
v -12.000000 -4.000000 0.000000 
v -8.000000 -4.000000 0.000000 
v -6.000000 0.000000 3.000000 
v -38.000000 -3.000000 0.000000 
v -38.000000 0.000000 -3.000000 
v -12.000000 -4.000000 0.000000 
v -38.000000 0.000000 -3.000000 
v -11.000000 0.000000 -4.000000 
v -12.000000 -4.000000 0.000000 
v -38.000000 0.000000 -3.000000 
v -38.000000 3.000000 0.000000 
v -11.000000 0.000000 -4.000000 
v -38.000000 3.000000 0.000000 
v -11.000000 3.000000 0.000000 
v -11.000000 0.000000 -4.000000 
v -38.000000 3.000000 0.000000 
v -38.000000 0.000000 3.000000 
v -11.000000 3.000000 0.000000 
v -38.000000 0.000000 3.000000 
v -11.000000 0.000000 4.000000 
v -11.000000 3.000000 0.000000 
v -38.000000 0.000000 3.000000 
v -38.000000 -3.000000 0.000000 
v -11.000000 0.000000 4.000000 
v -38.000000 -3.000000 0.000000 
v -12.000000 -4.000000 0.000000 
v -11.000000 0.000000 4.000000 
v -38.000000 0.000000 -3.000000 
v -38.000000 -3.000000 0.000000 
v -42.000000 0.000000 0.000000 
v -38.000000 3.000000 0.000000 
v -38.000000 0.000000 -3.000000 
v -42.000000 0.000000 0.000000 
v -38.000000 0.000000 3.000000 
v -38.000000 3.000000 0.000000 
v -42.000000 0.000000 0.000000 
v -38.000000 -3.000000 0.000000 
v -38.000000 0.000000 3.000000 
v -42.000000 0.000000 0.000000 
vn -0.343262 -0.909180 -0.234619 
vn 0.330811 -0.156982 -0.930420 
vn 0.377930 -0.925781 0.000000 
vn 0.330811 -0.156982 -0.930420 
vn 0.931152 0.317627 0.178467 
vn 0.377930 -0.925781 0.000000 
vn 0.931152 0.317627 0.178467 
vn 0.128174 -0.550293 0.824951 
vn 0.377930 -0.925781 0.000000 
vn 0.128174 -0.550293 0.824951 
vn -0.343262 -0.909180 -0.234619 
vn 0.377930 -0.925781 0.000000 
vn -0.145020 -0.986328 -0.076904 
vn 0.141846 -0.024170 -0.989502 
vn -0.343262 -0.909180 -0.234619 
vn 0.141846 -0.024170 -0.989502 
vn 0.330811 -0.156982 -0.930420 
vn -0.343262 -0.909180 -0.234619 
vn 0.141846 -0.024170 -0.989502 
vn 0.561035 0.827637 -0.007568 
vn 0.330811 -0.156982 -0.930420 
vn 0.561035 0.827637 -0.007568 
vn 0.931152 0.317627 0.178467 
vn 0.330811 -0.156982 -0.930420 
vn 0.561035 0.827637 -0.007568 
vn 0.234375 -0.087158 0.968018 
vn 0.931152 0.317627 0.178467 
vn 0.234375 -0.087158 0.968018 
vn 0.128174 -0.550293 0.824951 
vn 0.931152 0.317627 0.178467 
vn 0.234375 -0.087158 0.968018 
vn -0.145020 -0.986328 -0.076904 
vn 0.128174 -0.550293 0.824951 
vn -0.145020 -0.986328 -0.076904 
vn -0.343262 -0.909180 -0.234619 
vn 0.128174 -0.550293 0.824951 
vn -0.052734 -0.998535 -0.006348 
vn 0.013672 0.022705 -0.999512 
vn -0.145020 -0.986328 -0.076904 
vn 0.013672 0.022705 -0.999512 
vn 0.141846 -0.024170 -0.989502 
vn -0.145020 -0.986328 -0.076904 
vn 0.013672 0.022705 -0.999512 
vn 0.146973 0.988770 0.020020 
vn 0.141846 -0.024170 -0.989502 
vn 0.146973 0.988770 0.020020 
vn 0.561035 0.827637 -0.007568 
vn 0.141846 -0.024170 -0.989502 
vn 0.146973 0.988770 0.020020 
vn 0.068359 0.038330 0.996826 
vn 0.561035 0.827637 -0.007568 
vn 0.068359 0.038330 0.996826 
vn 0.234375 -0.087158 0.968018 
vn 0.561035 0.827637 -0.007568 
vn 0.068359 0.038330 0.996826 
vn -0.052734 -0.998535 -0.006348 
vn 0.234375 -0.087158 0.968018 
vn -0.052734 -0.998535 -0.006348 
vn -0.145020 -0.986328 -0.076904 
vn 0.234375 -0.087158 0.968018 
vn -0.460938 -0.864502 0.199219 
vn -0.458252 -0.197266 -0.866455 
vn -0.052734 -0.998535 -0.006348 
vn -0.458252 -0.197266 -0.866455 
vn 0.013672 0.022705 -0.999512 
vn -0.052734 -0.998535 -0.006348 
vn -0.458252 -0.197266 -0.866455 
vn -0.432129 0.883545 -0.178955 
vn 0.013672 0.022705 -0.999512 
vn -0.432129 0.883545 -0.178955 
vn 0.146973 0.988770 0.020020 
vn 0.013672 0.022705 -0.999512 
vn -0.432129 0.883545 -0.178955 
vn -0.453125 0.223145 0.862793 
vn 0.146973 0.988770 0.020020 
vn -0.453125 0.223145 0.862793 
vn 0.068359 0.038330 0.996826 
vn 0.146973 0.988770 0.020020 
vn -0.453125 0.223145 0.862793 
vn -0.460938 -0.864502 0.199219 
vn 0.068359 0.038330 0.996826 
vn -0.460938 -0.864502 0.199219 
vn -0.052734 -0.998535 -0.006348 
vn 0.068359 0.038330 0.996826 
vn -0.458252 -0.197266 -0.866455 
vn -0.460938 -0.864502 0.199219 
vn -0.999756 0.003906 0.000000 
vn -0.432129 0.883545 -0.178955 
vn -0.458252 -0.197266 -0.866455 
vn -0.999756 0.003906 0.000000 
vn -0.453125 0.223145 0.862793 
vn -0.432129 0.883545 -0.178955 
vn -0.999756 0.003906 0.000000 
vn -0.460938 -0.864502 0.199219 
vn -0.453125 0.223145 0.862793 
vn -0.999756 0.003906 0.000000 
vt 0.290323 0.838710 
vt 0.290323 0.935484 
vt 0.258065 0.903226 
vt 0.290323 0.935484 
vt 0.193548 0.967742 
vt 0.258065 0.903226 
vt 0.193548 0.967742 
vt 0.258065 0.838710 
vt 0.258065 0.903226 
vt 0.258065 0.838710 
vt 0.290323 0.838710 
vt 0.258065 0.903226 
vt 0.096774 0.774194 
vt 0.129032 0.774194 
vt 0.096774 0.806452 
vt 0.129032 0.774194 
vt 0.096774 0.838710 
vt 0.096774 0.806452 
vt 0.129032 0.774194 
vt 0.193548 0.774194 
vt 0.129032 0.838710 
vt 0.193548 0.774194 
vt 0.193548 0.967742 
vt 0.129032 0.870968 
vt 0.193548 0.774194 
vt 0.225806 0.774194 
vt 0.193548 0.967742 
vt 0.225806 0.774194 
vt 0.258065 0.838710 
vt 0.193548 0.967742 
vt 0.225806 0.774194 
vt 0.290323 0.774194 
vt 0.258065 0.838710 
vt 0.290323 0.774194 
vt 0.290323 0.838710 
vt 0.258065 0.838710 
vt 0.096774 0.677419 
vt 0.129032 0.677419 
vt 0.096774 0.774194 
vt 0.129032 0.677419 
vt 0.129032 0.774194 
vt 0.096774 0.774194 
vt 0.129032 0.677419 
vt 0.193548 0.677419 
vt 0.129032 0.774194 
vt 0.193548 0.677419 
vt 0.193548 0.774194 
vt 0.129032 0.774194 
vt 0.193548 0.677419 
vt 0.225806 0.677419 
vt 0.193548 0.774194 
vt 0.225806 0.677419 
vt 0.225806 0.774194 
vt 0.193548 0.774194 
vt 0.225806 0.677419 
vt 0.290323 0.677419 
vt 0.225806 0.774194 
vt 0.290323 0.677419 
vt 0.290323 0.774194 
vt 0.225806 0.774194 
vt 0.096774 0.419355 
vt 0.129032 0.419355 
vt 0.096774 0.677419 
vt 0.129032 0.419355 
vt 0.129032 0.677419 
vt 0.096774 0.677419 
vt 0.129032 0.419355 
vt 0.193548 0.419355 
vt 0.129032 0.677419 
vt 0.193548 0.419355 
vt 0.193548 0.677419 
vt 0.129032 0.677419 
vt 0.193548 0.419355 
vt 0.225806 0.419355 
vt 0.193548 0.677419 
vt 0.225806 0.419355 
vt 0.225806 0.677419 
vt 0.193548 0.677419 
vt 0.225806 0.419355 
vt 0.290323 0.419355 
vt 0.225806 0.677419 
vt 0.290323 0.419355 
vt 0.290323 0.677419 
vt 0.225806 0.677419 
vt 0.129032 0.419355 
vt 0.096774 0.419355 
vt 0.193548 0.387097 
vt 0.193548 0.419355 
vt 0.129032 0.419355 
vt 0.193548 0.387097 
vt 0.225806 0.419355 
vt 0.193548 0.419355 
vt 0.193548 0.387097 
vt 0.290323 0.419355 
vt 0.225806 0.419355 
vt 0.193548 0.387097 
f 1/1/1 2/2/2 3/3/3
f 4/4/4 5/5/5 6/6/6
f 7/7/7 8/8/8 9/9/9
f 10/10/10 11/11/11 12/12/12
f 13/13/13 14/14/14 15/15/15
f 16/16/16 17/17/17 18/18/18
f 19/19/19 20/20/20 21/21/21
f 22/22/22 23/23/23 24/24/24
f 25/25/25 26/26/26 27/27/27
f 28/28/28 29/29/29 30/30/30
f 31/31/31 32/32/32 33/33/33
f 34/34/34 35/35/35 36/36/36
f 37/37/37 38/38/38 39/39/39
f 40/40/40 41/41/41 42/42/42
f 43/43/43 44/44/44 45/45/45
f 46/46/46 47/47/47 48/48/48
f 49/49/49 50/50/50 51/51/51
f 52/52/52 53/53/53 54/54/54
f 55/55/55 56/56/56 57/57/57
f 58/58/58 59/59/59 60/60/60
f 61/61/61 62/62/62 63/63/63
f 64/64/64 65/65/65 66/66/66
f 67/67/67 68/68/68 69/69/69
f 70/70/70 71/71/71 72/72/72
f 73/73/73 74/74/74 75/75/75
f 76/76/76 77/77/77 78/78/78
f 79/79/79 80/80/80 81/81/81
f 82/82/82 83/83/83 84/84/84
f 85/85/85 86/86/86 87/87/87
f 88/88/88 89/89/89 90/90/90
f 91/91/91 92/92/92 93/93/93
f 94/94/94 95/95/95 96/96/96
