v 13.000000 2.000000 -21.000000 
v 35.000000 2.000000 -23.000000 
v 12.000000 -14.000000 -28.000000 
v 36.000000 12.000000 -14.000000 
v 35.000000 2.000000 -23.000000 
v 13.000000 2.000000 -21.000000 
v 14.000000 12.000000 -12.000000 
v 36.000000 12.000000 -14.000000 
v 13.000000 2.000000 -21.000000 
v 38.000000 12.000000 6.000000 
v 36.000000 12.000000 -14.000000 
v 14.000000 12.000000 -12.000000 
v 16.000000 12.000000 8.000000 
v 38.000000 12.000000 6.000000 
v 14.000000 12.000000 -12.000000 
v 39.000000 2.000000 21.000000 
v 38.000000 12.000000 6.000000 
v 16.000000 12.000000 8.000000 
v 17.000000 2.000000 23.000000 
v 39.000000 2.000000 21.000000 
v 16.000000 12.000000 8.000000 
vn -0.068604 0.532227 -0.843506 
vn -0.087646 0.477051 -0.874268 
vn -0.083008 0.000000 -0.996338 
vn -0.052490 0.850586 -0.523193 
vn -0.087646 0.477051 -0.874268 
vn -0.068604 0.532227 -0.843506 
vn -0.024414 0.917480 -0.396240 
vn -0.052490 0.850586 -0.523193 
vn -0.068604 0.532227 -0.843506 
vn 0.019531 0.980225 0.196045 
vn -0.052490 0.850586 -0.523193 
vn -0.024414 0.917480 -0.396240 
vn 0.043457 0.954590 0.294434 
vn 0.019531 0.980225 0.196045 
vn -0.024414 0.917480 -0.396240 
vn 0.071533 0.696777 0.713379 
vn 0.019531 0.980225 0.196045 
vn 0.043457 0.954590 0.294434 
vn 0.080322 0.614746 0.784424 
vn 0.071533 0.696777 0.713379 
vn 0.043457 0.954590 0.294434 
vt 0.748031 0.173228 
vt 0.748031 0.007874 
vt 0.685039 0.157480 
vt 0.795276 0.000000 
vt 0.748031 0.000000 
vt 0.748031 0.173228 
vt 0.795276 0.165354 
vt 0.795276 0.000000 
vt 0.748031 0.173228 
vt 0.023622 0.007874 
vt 0.000000 0.000000 
vt 0.000000 0.165354 
vt 0.015748 0.165354 
vt 0.023622 0.007874 
vt 0.000000 0.165354 
vt 0.094488 0.000000 
vt 0.023622 0.007874 
vt 0.015748 0.165354 
vt 0.094488 0.165354 
vt 0.094488 0.000000 
vt 0.015748 0.165354 
f 1/1/1 2/2/2 3/3/3
f 4/4/4 5/5/5 6/6/6
f 7/7/7 8/8/8 9/9/9
f 10/10/10 11/11/11 12/12/12
f 13/13/13 14/14/14 15/15/15
f 16/16/16 17/17/17 18/18/18
f 19/19/19 20/20/20 21/21/21
