v 8.000000 -14.000000 32.000000 
v 19.000000 -17.000000 32.000000 
v 19.000000 -1.000000 46.000000 
v 19.000000 -17.000000 32.000000 
v 19.000000 14.000000 33.000000 
v 19.000000 -1.000000 46.000000 
v 19.000000 14.000000 33.000000 
v 8.000000 11.000000 33.000000 
v 19.000000 -1.000000 46.000000 
v 8.000000 11.000000 33.000000 
v 0.000000 -1.000000 33.000000 
v 19.000000 -1.000000 46.000000 
v 0.000000 -1.000000 33.000000 
v 8.000000 -14.000000 32.000000 
v 19.000000 -1.000000 46.000000 
v 12.000000 -13.000000 11.000000 
v 19.000000 -15.000000 10.000000 
v 8.000000 -14.000000 32.000000 
v 19.000000 -15.000000 10.000000 
v 19.000000 -17.000000 32.000000 
v 8.000000 -14.000000 32.000000 
v 12.000000 -13.000000 11.000000 
v 8.000000 -14.000000 32.000000 
v 0.000000 -1.000000 33.000000 
v 19.000000 -15.000000 10.000000 
v 20.000000 13.000000 10.000000 
v 19.000000 -17.000000 32.000000 
v 20.000000 13.000000 10.000000 
v 19.000000 14.000000 33.000000 
v 19.000000 -17.000000 32.000000 
v 20.000000 13.000000 10.000000 
v 12.000000 11.000000 11.000000 
v 19.000000 14.000000 33.000000 
v 12.000000 11.000000 11.000000 
v 8.000000 11.000000 33.000000 
v 19.000000 14.000000 33.000000 
v 12.000000 11.000000 11.000000 
v 1.000000 0.000000 17.000000 
v 8.000000 11.000000 33.000000 
v 1.000000 0.000000 17.000000 
v 0.000000 -1.000000 33.000000 
v 8.000000 11.000000 33.000000 
v 1.000000 0.000000 17.000000 
v 12.000000 -13.000000 11.000000 
v 0.000000 -1.000000 33.000000 
v 7.000000 -10.000000 0.000000 
v 19.000000 -11.000000 -12.000000 
v 12.000000 -13.000000 11.000000 
v 19.000000 -11.000000 -12.000000 
v 19.000000 -15.000000 10.000000 
v 12.000000 -13.000000 11.000000 
v 7.000000 -10.000000 0.000000 
v 12.000000 -13.000000 11.000000 
v 1.000000 0.000000 17.000000 
v 19.000000 -11.000000 -12.000000 
v 20.000000 10.000000 -11.000000 
v 19.000000 -15.000000 10.000000 
v 20.000000 10.000000 -11.000000 
v 20.000000 13.000000 10.000000 
v 19.000000 -15.000000 10.000000 
v 20.000000 10.000000 -11.000000 
v 7.000000 9.000000 1.000000 
v 20.000000 13.000000 10.000000 
v 7.000000 9.000000 1.000000 
v 12.000000 11.000000 11.000000 
v 20.000000 13.000000 10.000000 
v 7.000000 9.000000 1.000000 
v 1.000000 0.000000 17.000000 
v 12.000000 11.000000 11.000000 
v -3.000000 0.000000 11.000000 
v 1.000000 0.000000 17.000000 
v 7.000000 9.000000 1.000000 
vn -0.437500 -0.858398 0.266846 
vn 0.794678 -0.555420 0.243652 
vn -0.089600 -0.027588 0.995361 
vn 0.794678 -0.555420 0.243652 
vn 0.420898 0.873291 0.244629 
vn -0.089600 -0.027588 0.995361 
vn 0.420898 0.873291 0.244629 
vn -0.540283 0.785889 0.300049 
vn -0.089600 -0.027588 0.995361 
vn -0.540283 0.785889 0.300049 
vn -0.918945 -0.201904 0.338379 
vn -0.089600 -0.027588 0.995361 
vn -0.918945 -0.201904 0.338379 
vn -0.437500 -0.858398 0.266846 
vn -0.089600 -0.027588 0.995361 
vn -0.474609 -0.873047 -0.110107 
vn 0.564941 -0.818604 -0.102539 
vn -0.437500 -0.858398 0.266846 
vn 0.564941 -0.818604 -0.102539 
vn 0.794678 -0.555420 0.243652 
vn -0.437500 -0.858398 0.266846 
vn -0.474609 -0.873047 -0.110107 
vn -0.437500 -0.858398 0.266846 
vn -0.918945 -0.201904 0.338379 
vn 0.564941 -0.818604 -0.102539 
vn 0.593506 0.803711 -0.037109 
vn 0.794678 -0.555420 0.243652 
vn 0.593506 0.803711 -0.037109 
vn 0.420898 0.873291 0.244629 
vn 0.794678 -0.555420 0.243652 
vn 0.593506 0.803711 -0.037109 
vn -0.419434 0.907471 -0.017822 
vn 0.420898 0.873291 0.244629 
vn -0.419434 0.907471 -0.017822 
vn -0.540283 0.785889 0.300049 
vn 0.420898 0.873291 0.244629 
vn -0.419434 0.907471 -0.017822 
vn -0.952881 0.013428 0.302734 
vn -0.540283 0.785889 0.300049 
vn -0.952881 0.013428 0.302734 
vn -0.918945 -0.201904 0.338379 
vn -0.540283 0.785889 0.300049 
vn -0.952881 0.013428 0.302734 
vn -0.474609 -0.873047 -0.110107 
vn -0.918945 -0.201904 0.338379 
vn -0.211182 -0.977051 -0.024658 
vn 0.013916 -0.749756 -0.661377 
vn -0.474609 -0.873047 -0.110107 
vn 0.013916 -0.749756 -0.661377 
vn 0.564941 -0.818604 -0.102539 
vn -0.474609 -0.873047 -0.110107 
vn -0.211182 -0.977051 -0.024658 
vn -0.474609 -0.873047 -0.110107 
vn -0.952881 0.013428 0.302734 
vn 0.013916 -0.749756 -0.661377 
vn 0.391113 0.827393 -0.402588 
vn 0.564941 -0.818604 -0.102539 
vn 0.391113 0.827393 -0.402588 
vn 0.593506 0.803711 -0.037109 
vn 0.564941 -0.818604 -0.102539 
vn 0.391113 0.827393 -0.402588 
vn -0.240723 0.942871 0.229248 
vn 0.593506 0.803711 -0.037109 
vn -0.240723 0.942871 0.229248 
vn -0.419434 0.907471 -0.017822 
vn 0.593506 0.803711 -0.037109 
vn -0.240723 0.942871 0.229248 
vn -0.952881 0.013428 0.302734 
vn -0.419434 0.907471 -0.017822 
vn -0.126709 0.079102 0.988770 
vn -0.952881 0.013428 0.302734 
vn -0.240723 0.942871 0.229248 
vt 0.968504 0.637795 
vt 1.000000 0.598425 
vt 0.889764 0.598425 
vt 1.000000 0.984252 
vt 0.787402 0.984252 
vt 0.889764 0.984252 
vt 0.787402 0.598425 
vt 0.818898 0.629921 
vt 0.889764 0.598425 
vt 0.818898 0.629921 
vt 0.881890 0.653543 
vt 0.889764 0.598425 
vt 0.881890 0.653543 
vt 0.968504 0.637795 
vt 0.889764 0.598425 
vt 0.992126 0.669291 
vt 1.000000 0.598425 
vt 0.968504 0.637795 
vt 1.000000 0.598425 
vt 1.000000 0.598425 
vt 0.968504 0.637795 
vt 0.992126 0.669291 
vt 0.968504 0.637795 
vt 0.881890 0.653543 
vt 0.992126 0.984252 
vt 0.803150 0.992126 
vt 1.000000 0.984252 
vt 0.803150 0.992126 
vt 0.787402 0.984252 
vt 1.000000 0.984252 
vt 0.803150 0.606299 
vt 0.826772 0.669291 
vt 0.787402 0.598425 
vt 0.826772 0.669291 
vt 0.818898 0.629921 
vt 0.787402 0.598425 
vt 0.826772 0.669291 
vt 0.866142 0.732283 
vt 0.818898 0.629921 
vt 0.866142 0.732283 
vt 0.881890 0.653543 
vt 0.818898 0.629921 
vt 0.866142 0.732283 
vt 0.992126 0.669291 
vt 0.881890 0.653543 
vt 0.984252 0.732283 
vt 0.929134 0.598425 
vt 0.992126 0.669291 
vt 0.929134 0.598425 
vt 1.000000 0.598425 
vt 0.992126 0.669291 
vt 0.984252 0.732283 
vt 0.992126 0.669291 
vt 0.866142 0.732283 
vt 0.921260 0.984252 
vt 0.779528 0.984252 
vt 0.992126 0.984252 
vt 0.779528 0.984252 
vt 0.803150 0.992126 
vt 0.992126 0.984252 
vt 0.787402 0.598425 
vt 0.779528 0.732283 
vt 0.803150 0.606299 
vt 0.779528 0.732283 
vt 0.826772 0.669291 
vt 0.803150 0.606299 
vt 0.779528 0.732283 
vt 0.866142 0.732283 
vt 0.826772 0.669291 
vt 0.866142 0.818898 
vt 0.866142 0.732283 
vt 0.779528 0.732283 
f 1/1/1 2/2/2 3/3/3
f 4/4/4 5/5/5 6/6/6
f 7/7/7 8/8/8 9/9/9
f 10/10/10 11/11/11 12/12/12
f 13/13/13 14/14/14 15/15/15
f 16/16/16 17/17/17 18/18/18
f 19/19/19 20/20/20 21/21/21
f 22/22/22 23/23/23 24/24/24
f 25/25/25 26/26/26 27/27/27
f 28/28/28 29/29/29 30/30/30
f 31/31/31 32/32/32 33/33/33
f 34/34/34 35/35/35 36/36/36
f 37/37/37 38/38/38 39/39/39
f 40/40/40 41/41/41 42/42/42
f 43/43/43 44/44/44 45/45/45
f 46/46/46 47/47/47 48/48/48
f 49/49/49 50/50/50 51/51/51
f 52/52/52 53/53/53 54/54/54
f 55/55/55 56/56/56 57/57/57
f 58/58/58 59/59/59 60/60/60
f 61/61/61 62/62/62 63/63/63
f 64/64/64 65/65/65 66/66/66
f 67/67/67 68/68/68 69/69/69
f 70/70/70 71/71/71 72/72/72
