v 10.000000 -17.000000 -16.000000 
v 10.000000 0.000000 -18.000000 
v 27.000000 0.000000 -18.000000 
v 27.000000 -14.000000 -16.000000 
v 10.000000 -17.000000 -16.000000 
v 27.000000 0.000000 -18.000000 
v 27.000000 0.000000 -18.000000 
v 10.000000 0.000000 -18.000000 
v 27.000000 13.000000 -16.000000 
v 10.000000 -27.000000 -13.000000 
v 10.000000 -17.000000 -16.000000 
v 27.000000 -14.000000 -16.000000 
v 27.000000 -22.000000 -9.000000 
v 10.000000 -27.000000 -13.000000 
v 27.000000 -14.000000 -16.000000 
v 12.000000 -27.000000 9.000000 
v 10.000000 -27.000000 -13.000000 
v 27.000000 -22.000000 -9.000000 
v 28.000000 -22.000000 4.000000 
v 12.000000 -27.000000 9.000000 
v 27.000000 -22.000000 -9.000000 
v 9.000000 -17.000000 18.000000 
v 12.000000 -27.000000 9.000000 
v 28.000000 -22.000000 4.000000 
v 29.000000 -14.000000 13.000000 
v 9.000000 -17.000000 18.000000 
v 28.000000 -22.000000 4.000000 
v 8.000000 0.000000 22.000000 
v 9.000000 -17.000000 18.000000 
v 29.000000 -14.000000 13.000000 
v 29.000000 0.000000 17.000000 
v 8.000000 0.000000 22.000000 
v 29.000000 -14.000000 13.000000 
v 9.000000 16.000000 18.000000 
v 8.000000 0.000000 22.000000 
v 29.000000 0.000000 17.000000 
v 29.000000 13.000000 13.000000 
v 9.000000 16.000000 18.000000 
v 29.000000 0.000000 17.000000 
v 12.000000 26.000000 9.000000 
v 9.000000 16.000000 18.000000 
v 29.000000 13.000000 13.000000 
v 28.000000 22.000000 4.000000 
v 12.000000 26.000000 9.000000 
v 29.000000 13.000000 13.000000 
v 10.000000 26.000000 -13.000000 
v 12.000000 26.000000 9.000000 
v 28.000000 22.000000 4.000000 
v 27.000000 22.000000 -9.000000 
v 10.000000 26.000000 -13.000000 
v 28.000000 22.000000 4.000000 
v 10.000000 16.000000 -16.000000 
v 10.000000 26.000000 -13.000000 
v 27.000000 22.000000 -9.000000 
v 27.000000 13.000000 -16.000000 
v 10.000000 16.000000 -16.000000 
v 27.000000 22.000000 -9.000000 
v 10.000000 0.000000 -18.000000 
v 10.000000 16.000000 -16.000000 
v 27.000000 13.000000 -16.000000 
v 8.000000 0.000000 22.000000 
v 4.000000 0.000000 19.000000 
v 9.000000 -17.000000 18.000000 
v 24.000000 21.000000 1.000000 
v 21.000000 20.000000 4.000000 
v 20.000000 29.000000 2.000000 
v 21.000000 20.000000 4.000000 
v 19.000000 23.000000 4.000000 
v 20.000000 29.000000 2.000000 
v 21.000000 20.000000 4.000000 
v 22.000000 20.000000 8.000000 
v 19.000000 23.000000 4.000000 
v 22.000000 20.000000 8.000000 
v 21.000000 23.000000 9.000000 
v 19.000000 23.000000 4.000000 
v 22.000000 20.000000 8.000000 
v 27.000000 21.000000 8.000000 
v 21.000000 23.000000 9.000000 
v 24.000000 21.000000 1.000000 
v 28.000000 22.000000 4.000000 
v 25.000000 19.000000 5.000000 
v 28.000000 22.000000 4.000000 
v 27.000000 21.000000 8.000000 
v 25.000000 19.000000 5.000000 
v 21.000000 20.000000 4.000000 
v 24.000000 21.000000 1.000000 
v 25.000000 19.000000 5.000000 
v 22.000000 20.000000 8.000000 
v 21.000000 20.000000 4.000000 
v 25.000000 19.000000 5.000000 
v 27.000000 21.000000 8.000000 
v 22.000000 20.000000 8.000000 
v 25.000000 19.000000 5.000000 
v 21.000000 -20.000000 4.000000 
v 24.000000 -22.000000 1.000000 
v 20.000000 -29.000000 2.000000 
v 19.000000 -24.000000 4.000000 
v 21.000000 -20.000000 4.000000 
v 20.000000 -29.000000 2.000000 
v 22.000000 -20.000000 8.000000 
v 21.000000 -20.000000 4.000000 
v 19.000000 -24.000000 4.000000 
v 21.000000 -24.000000 9.000000 
v 22.000000 -20.000000 8.000000 
v 19.000000 -24.000000 4.000000 
v 27.000000 -22.000000 8.000000 
v 22.000000 -20.000000 8.000000 
v 21.000000 -24.000000 9.000000 
v 28.000000 -23.000000 4.000000 
v 24.000000 -22.000000 1.000000 
v 25.000000 -19.000000 5.000000 
v 27.000000 -22.000000 8.000000 
v 28.000000 -23.000000 4.000000 
v 25.000000 -19.000000 5.000000 
v 24.000000 -22.000000 1.000000 
v 21.000000 -20.000000 4.000000 
v 25.000000 -19.000000 5.000000 
v 21.000000 -20.000000 4.000000 
v 22.000000 -20.000000 8.000000 
v 25.000000 -19.000000 5.000000 
v 22.000000 -20.000000 8.000000 
v 27.000000 -22.000000 8.000000 
v 25.000000 -19.000000 5.000000 
vn -0.146729 -0.257568 -0.954834 
vn -0.164795 0.033447 -0.985596 
vn 0.336182 -0.022705 -0.941406 
vn 0.416016 -0.327637 -0.848145 
vn -0.146729 -0.257568 -0.954834 
vn 0.336182 -0.022705 -0.941406 
vn 0.336182 -0.022705 -0.941406 
vn -0.164795 0.033447 -0.985596 
vn 0.370117 0.286377 -0.883545 
vn -0.102295 -0.837891 -0.535645 
vn -0.146729 -0.257568 -0.954834 
vn 0.416016 -0.327637 -0.848145 
vn 0.518555 -0.805176 -0.287354 
vn -0.102295 -0.837891 -0.535645 
vn 0.416016 -0.327637 -0.848145 
vn 0.012695 -0.929932 0.366943 
vn -0.102295 -0.837891 -0.535645 
vn 0.518555 -0.805176 -0.287354 
vn 0.499023 -0.762207 0.411621 
vn 0.012695 -0.929932 0.366943 
vn 0.518555 -0.805176 -0.287354 
vn 0.021729 -0.481201 0.876221 
vn 0.012695 -0.929932 0.366943 
vn 0.499023 -0.762207 0.411621 
vn 0.415771 -0.427734 0.802246 
vn 0.021729 -0.481201 0.876221 
vn 0.499023 -0.762207 0.411621 
vn -0.071533 -0.048584 0.996094 
vn 0.021729 -0.481201 0.876221 
vn 0.415771 -0.427734 0.802246 
vn 0.387451 0.048340 0.920410 
vn -0.071533 -0.048584 0.996094 
vn 0.415771 -0.427734 0.802246 
vn 0.038818 0.520020 0.853027 
vn -0.071533 -0.048584 0.996094 
vn 0.387451 0.048340 0.920410 
vn 0.438721 0.498291 0.747559 
vn 0.038818 0.520020 0.853027 
vn 0.387451 0.048340 0.920410 
vn -0.017090 0.927002 0.374023 
vn 0.038818 0.520020 0.853027 
vn 0.438721 0.498291 0.747559 
vn 0.487305 0.839600 0.239258 
vn -0.017090 0.927002 0.374023 
vn 0.438721 0.498291 0.747559 
vn -0.083252 0.844238 -0.529053 
vn -0.017090 0.927002 0.374023 
vn 0.487305 0.839600 0.239258 
vn 0.498535 0.683838 -0.532471 
vn -0.083252 0.844238 -0.529053 
vn 0.487305 0.839600 0.239258 
vn -0.092773 0.235596 -0.967285 
vn -0.083252 0.844238 -0.529053 
vn 0.498535 0.683838 -0.532471 
vn 0.370117 0.286377 -0.883545 
vn -0.092773 0.235596 -0.967285 
vn 0.498535 0.683838 -0.532471 
vn -0.164795 0.033447 -0.985596 
vn -0.092773 0.235596 -0.967285 
vn 0.370117 0.286377 -0.883545 
vn -0.071533 -0.048584 0.996094 
vn -0.168945 -0.027100 0.985107 
vn 0.021729 -0.481201 0.876221 
vn 0.154785 0.250488 -0.955566 
vn -0.700195 -0.417725 -0.578613 
vn -0.148438 0.231689 -0.961182 
vn -0.700195 -0.417725 -0.578613 
vn -0.677246 -0.600586 -0.424561 
vn -0.148438 0.231689 -0.961182 
vn -0.700195 -0.417725 -0.578613 
vn -0.578857 -0.520996 0.626953 
vn -0.677246 -0.600586 -0.424561 
vn -0.578857 -0.520996 0.626953 
vn -0.175049 -0.683350 0.708496 
vn -0.677246 -0.600586 -0.424561 
vn -0.578857 -0.520996 0.626953 
vn 0.437988 -0.076172 0.895508 
vn -0.175049 -0.683350 0.708496 
vn 0.177734 -0.771729 -0.610107 
vn 0.660889 -0.712402 -0.234619 
vn 0.270508 -0.957764 -0.095947 
vn 0.660889 -0.712402 -0.234619 
vn 0.522705 -0.771729 0.361572 
vn 0.270508 -0.957764 -0.095947 
vn -0.182617 -0.947754 -0.260986 
vn 0.177734 -0.771729 -0.610107 
vn 0.270508 -0.957764 -0.095947 
vn 0.022705 -0.947754 0.317871 
vn -0.182617 -0.947754 -0.260986 
vn 0.270508 -0.957764 -0.095947 
vn 0.522705 -0.771729 0.361572 
vn 0.022705 -0.947754 0.317871 
vn 0.270508 -0.957764 -0.095947 
vn -0.700195 0.417725 -0.578613 
vn 0.154785 -0.250488 -0.955566 
vn -0.148438 -0.231934 -0.961182 
vn -0.677246 0.600586 -0.424561 
vn -0.700195 0.417725 -0.578613 
vn -0.148438 -0.231934 -0.961182 
vn -0.578857 0.520996 0.626953 
vn -0.700195 0.417725 -0.578613 
vn -0.677246 0.600586 -0.424561 
vn -0.175049 0.683350 0.708496 
vn -0.578857 0.520996 0.626953 
vn -0.677246 0.600586 -0.424561 
vn 0.437988 0.076172 0.895508 
vn -0.578857 0.520996 0.626953 
vn -0.175049 0.683350 0.708496 
vn 0.660889 0.712402 -0.234619 
vn 0.177734 0.771729 -0.610107 
vn 0.270508 0.957764 -0.095947 
vn 0.522705 0.771729 0.361328 
vn 0.660889 0.712402 -0.234619 
vn 0.270508 0.957764 -0.095947 
vn 0.177734 0.771729 -0.610107 
vn -0.182617 0.947754 -0.260986 
vn 0.270508 0.957764 -0.095947 
vn -0.182617 0.947754 -0.260986 
vn 0.022705 0.947754 0.317871 
vn 0.270508 0.957764 -0.095947 
vn 0.022705 0.947754 0.317871 
vn 0.522705 0.771729 0.361328 
vn 0.270508 0.957764 -0.095947 
vt 0.622047 0.401575 
vt 0.740157 0.409449 
vt 0.740157 0.511811 
vt 0.645669 0.503937 
vt 0.622047 0.401575 
vt 0.740157 0.511811 
vt 0.740157 0.511811 
vt 0.740157 0.409449 
vt 0.842520 0.503937 
vt 0.551181 0.393701 
vt 0.622047 0.401575 
vt 0.645669 0.503937 
vt 0.582677 0.496063 
vt 0.551181 0.393701 
vt 0.645669 0.503937 
vt 0.551181 0.346457 
vt 0.551181 0.393701 
vt 0.582677 0.496063 
vt 0.582677 0.464567 
vt 0.551181 0.346457 
vt 0.582677 0.496063 
vt 0.622047 0.346457 
vt 0.551181 0.385827 
vt 0.582677 0.519685 
vt 0.637795 0.496063 
vt 0.622047 0.346457 
vt 0.582677 0.519685 
vt 0.740157 0.330709 
vt 0.622047 0.346457 
vt 0.637795 0.496063 
vt 0.740157 0.488189 
vt 0.740157 0.330709 
vt 0.637795 0.496063 
vt 0.858268 0.346457 
vt 0.740157 0.330709 
vt 0.740157 0.488189 
vt 0.842520 0.496063 
vt 0.858268 0.346457 
vt 0.740157 0.488189 
vt 0.937008 0.385827 
vt 0.858268 0.346457 
vt 0.842520 0.496063 
vt 0.905512 0.519685 
vt 0.937008 0.385827 
vt 0.842520 0.496063 
vt 0.937008 0.393701 
vt 0.937008 0.346457 
vt 0.905512 0.464567 
vt 0.905512 0.496063 
vt 0.937008 0.393701 
vt 0.905512 0.464567 
vt 0.866142 0.401575 
vt 0.937008 0.393701 
vt 0.905512 0.496063 
vt 0.842520 0.503937 
vt 0.866142 0.401575 
vt 0.905512 0.496063 
vt 0.740157 0.409449 
vt 0.866142 0.401575 
vt 0.842520 0.503937 
vt 0.740157 0.330709 
vt 0.740157 0.307087 
vt 0.622047 0.346457 
vt 0.606299 0.149606 
vt 0.590551 0.133858 
vt 0.685039 0.165354 
vt 0.590551 0.133858 
vt 0.629921 0.141732 
vt 0.685039 0.165354 
vt 0.590551 0.133858 
vt 0.590551 0.086614 
vt 0.629921 0.141732 
vt 0.590551 0.086614 
vt 0.629921 0.078740 
vt 0.629921 0.141732 
vt 0.590551 0.086614 
vt 0.606299 0.070866 
vt 0.629921 0.078740 
vt 0.606299 0.149606 
vt 0.614173 0.110236 
vt 0.582677 0.110236 
vt 0.614173 0.110236 
vt 0.606299 0.070866 
vt 0.582677 0.110236 
vt 0.590551 0.133858 
vt 0.606299 0.149606 
vt 0.582677 0.110236 
vt 0.590551 0.086614 
vt 0.590551 0.133858 
vt 0.582677 0.110236 
vt 0.606299 0.070866 
vt 0.590551 0.086614 
vt 0.582677 0.110236 
vt 0.590551 0.133858 
vt 0.606299 0.149606 
vt 0.685039 0.165354 
vt 0.629921 0.141732 
vt 0.590551 0.133858 
vt 0.685039 0.165354 
vt 0.590551 0.086614 
vt 0.590551 0.133858 
vt 0.629921 0.141732 
vt 0.629921 0.078740 
vt 0.590551 0.086614 
vt 0.629921 0.141732 
vt 0.606299 0.070866 
vt 0.590551 0.086614 
vt 0.629921 0.078740 
vt 0.614173 0.110236 
vt 0.606299 0.149606 
vt 0.582677 0.110236 
vt 0.606299 0.070866 
vt 0.614173 0.110236 
vt 0.582677 0.110236 
vt 0.606299 0.149606 
vt 0.590551 0.133858 
vt 0.582677 0.110236 
vt 0.590551 0.133858 
vt 0.590551 0.086614 
vt 0.582677 0.110236 
vt 0.590551 0.086614 
vt 0.606299 0.070866 
vt 0.582677 0.110236 
f 1/1/1 2/2/2 3/3/3
f 4/4/4 5/5/5 6/6/6
f 7/7/7 8/8/8 9/9/9
f 10/10/10 11/11/11 12/12/12
f 13/13/13 14/14/14 15/15/15
f 16/16/16 17/17/17 18/18/18
f 19/19/19 20/20/20 21/21/21
f 22/22/22 23/23/23 24/24/24
f 25/25/25 26/26/26 27/27/27
f 28/28/28 29/29/29 30/30/30
f 31/31/31 32/32/32 33/33/33
f 34/34/34 35/35/35 36/36/36
f 37/37/37 38/38/38 39/39/39
f 40/40/40 41/41/41 42/42/42
f 43/43/43 44/44/44 45/45/45
f 46/46/46 47/47/47 48/48/48
f 49/49/49 50/50/50 51/51/51
f 52/52/52 53/53/53 54/54/54
f 55/55/55 56/56/56 57/57/57
f 58/58/58 59/59/59 60/60/60
f 61/61/61 62/62/62 63/63/63
f 64/64/64 65/65/65 66/66/66
f 67/67/67 68/68/68 69/69/69
f 70/70/70 71/71/71 72/72/72
f 73/73/73 74/74/74 75/75/75
f 76/76/76 77/77/77 78/78/78
f 79/79/79 80/80/80 81/81/81
f 82/82/82 83/83/83 84/84/84
f 85/85/85 86/86/86 87/87/87
f 88/88/88 89/89/89 90/90/90
f 91/91/91 92/92/92 93/93/93
f 94/94/94 95/95/95 96/96/96
f 97/97/97 98/98/98 99/99/99
f 100/100/100 101/101/101 102/102/102
f 103/103/103 104/104/104 105/105/105
f 106/106/106 107/107/107 108/108/108
f 109/109/109 110/110/110 111/111/111
f 112/112/112 113/113/113 114/114/114
f 115/115/115 116/116/116 117/117/117
f 118/118/118 119/119/119 120/120/120
f 121/121/121 122/122/122 123/123/123
