v 5.000000 6.000000 0.000000 
v 5.000000 2.000000 6.000000 
v 27.000000 5.000000 0.000000 
v 5.000000 2.000000 6.000000 
v 27.000000 1.000000 6.000000 
v 27.000000 5.000000 0.000000 
v 5.000000 6.000000 0.000000 
v 27.000000 5.000000 0.000000 
v 27.000000 1.000000 -6.000000 
v 5.000000 2.000000 6.000000 
v 4.000000 -4.000000 3.000000 
v 27.000000 1.000000 6.000000 
v 4.000000 -4.000000 3.000000 
v 26.000000 -6.000000 4.000000 
v 27.000000 1.000000 6.000000 
v 4.000000 -4.000000 3.000000 
v 4.000000 -4.000000 -3.000000 
v 26.000000 -6.000000 4.000000 
v 4.000000 -4.000000 -3.000000 
v 26.000000 -6.000000 -3.000000 
v 26.000000 -6.000000 4.000000 
v 4.000000 -4.000000 -3.000000 
v 5.000000 2.000000 -5.000000 
v 26.000000 -6.000000 -3.000000 
v 5.000000 2.000000 -5.000000 
v 27.000000 1.000000 -6.000000 
v 26.000000 -6.000000 -3.000000 
v 5.000000 2.000000 -5.000000 
v 5.000000 6.000000 0.000000 
v 27.000000 1.000000 -6.000000 
vn 0.002930 0.999756 -0.015625 
vn 0.934082 0.305908 0.183594 
vn 0.248535 0.968018 -0.029053 
vn 0.934082 0.305908 0.183594 
vn 0.979004 0.076172 0.188721 
vn 0.248535 0.968018 -0.029053 
vn 0.002930 0.999756 -0.015625 
vn 0.248535 0.968018 -0.029053 
vn -0.833252 0.519775 -0.186768 
vn 0.934082 0.305908 0.183594 
vn 0.566406 -0.804199 0.179199 
vn 0.979004 0.076172 0.188721 
vn 0.566406 -0.804199 0.179199 
vn 0.357178 -0.918701 0.167480 
vn 0.979004 0.076172 0.188721 
vn 0.566406 -0.804199 0.179199 
vn -0.596191 -0.802246 -0.023926 
vn 0.357178 -0.918701 0.167480 
vn -0.596191 -0.802246 -0.023926 
vn -0.765137 -0.640381 -0.065430 
vn 0.357178 -0.918701 0.167480 
vn -0.596191 -0.802246 -0.023926 
vn -0.940430 0.307373 -0.143799 
vn -0.765137 -0.640381 -0.065430 
vn -0.940430 0.307373 -0.143799 
vn -0.833252 0.519775 -0.186768 
vn -0.765137 -0.640381 -0.065430 
vn -0.940430 0.307373 -0.143799 
vn 0.002930 0.999756 -0.015625 
vn -0.833252 0.519775 -0.186768 
vt 0.874016 0.110236 
vt 0.834646 0.173228 
vt 0.937008 0.110236 
vt 0.834646 0.173228 
vt 0.889764 0.181102 
vt 0.937008 0.110236 
vt 0.874016 0.110236 
vt 0.937008 0.110236 
vt 0.889764 0.039370 
vt 0.834646 0.173228 
vt 0.763780 0.149606 
vt 0.889764 0.181102 
vt 0.763780 0.149606 
vt 0.818898 0.149606 
vt 0.889764 0.181102 
vt 0.763780 0.149606 
vt 0.763780 0.070866 
vt 0.818898 0.149606 
vt 0.763780 0.070866 
vt 0.818898 0.062992 
vt 0.818898 0.149606 
vt 0.763780 0.070866 
vt 0.834646 0.047244 
vt 0.818898 0.062992 
vt 0.834646 0.047244 
vt 0.889764 0.039370 
vt 0.818898 0.062992 
vt 0.834646 0.047244 
vt 0.874016 0.110236 
vt 0.889764 0.039370 
f 1/1/1 2/2/2 3/3/3
f 4/4/4 5/5/5 6/6/6
f 7/7/7 8/8/8 9/9/9
f 10/10/10 11/11/11 12/12/12
f 13/13/13 14/14/14 15/15/15
f 16/16/16 17/17/17 18/18/18
f 19/19/19 20/20/20 21/21/21
f 22/22/22 23/23/23 24/24/24
f 25/25/25 26/26/26 27/27/27
f 28/28/28 29/29/29 30/30/30
