v -6.000000 43.000000 -13.000000 
v 0.000000 44.000000 -11.000000 
v 0.000000 45.000000 -19.000000 
v -8.000000 42.000000 -18.000000 
v -6.000000 43.000000 -13.000000 
v 0.000000 45.000000 -19.000000 
v 6.000000 43.000000 -13.000000 
v 8.000000 42.000000 -18.000000 
v 0.000000 45.000000 -19.000000 
v 0.000000 44.000000 -11.000000 
v 6.000000 43.000000 -13.000000 
v 0.000000 45.000000 -19.000000 
v -8.000000 31.000000 -5.000000 
v 0.000000 32.000000 -2.000000 
v 0.000000 44.000000 -11.000000 
v -6.000000 43.000000 -13.000000 
v -8.000000 31.000000 -5.000000 
v 0.000000 44.000000 -11.000000 
v -12.000000 29.000000 -12.000000 
v -8.000000 31.000000 -5.000000 
v -6.000000 43.000000 -13.000000 
v -8.000000 42.000000 -18.000000 
v -12.000000 29.000000 -12.000000 
v -6.000000 43.000000 -13.000000 
v 8.000000 31.000000 -5.000000 
v 12.000000 29.000000 -12.000000 
v 8.000000 42.000000 -18.000000 
v 6.000000 43.000000 -13.000000 
v 8.000000 31.000000 -5.000000 
v 8.000000 42.000000 -18.000000 
v 0.000000 32.000000 -2.000000 
v 8.000000 31.000000 -5.000000 
v 6.000000 43.000000 -13.000000 
v 0.000000 44.000000 -11.000000 
v 0.000000 32.000000 -2.000000 
v 6.000000 43.000000 -13.000000 
v -6.000000 -1.000000 2.000000 
v 0.000000 -1.000000 4.000000 
v 0.000000 32.000000 -2.000000 
v -8.000000 31.000000 -5.000000 
v -6.000000 -1.000000 2.000000 
v 0.000000 32.000000 -2.000000 
v -8.000000 -1.000000 -2.000000 
v -6.000000 -1.000000 2.000000 
v -8.000000 31.000000 -5.000000 
v -12.000000 29.000000 -12.000000 
v -8.000000 -1.000000 -2.000000 
v -8.000000 31.000000 -5.000000 
v 6.000000 -1.000000 2.000000 
v 8.000000 -1.000000 -2.000000 
v 12.000000 29.000000 -12.000000 
v 8.000000 31.000000 -5.000000 
v 6.000000 -1.000000 2.000000 
v 12.000000 29.000000 -12.000000 
v 0.000000 -1.000000 4.000000 
v 6.000000 -1.000000 2.000000 
v 8.000000 31.000000 -5.000000 
v 0.000000 32.000000 -2.000000 
v 0.000000 -1.000000 4.000000 
v 8.000000 31.000000 -5.000000 
vn -0.298828 0.943848 0.139893 
vn -0.032471 0.976807 0.211182 
vn 0.000000 0.999756 -0.000244 
vn -0.350586 0.933350 0.074707 
vn -0.298828 0.943848 0.139893 
vn 0.000000 0.999756 -0.000244 
vn 0.214355 0.961670 0.170166 
vn 0.424561 0.898682 0.109619 
vn 0.000000 0.999756 -0.000244 
vn -0.032471 0.976807 0.211182 
vn 0.214355 0.961670 0.170166 
vn 0.000000 0.999756 -0.000244 
vn -0.578369 0.683105 0.445557 
vn -0.025879 0.822021 0.568604 
vn -0.032471 0.976807 0.211182 
vn -0.298828 0.943848 0.139893 
vn -0.578369 0.683105 0.445557 
vn -0.032471 0.976807 0.211182 
vn -0.727783 0.633057 0.262939 
vn -0.578369 0.683105 0.445557 
vn -0.298828 0.943848 0.139893 
vn -0.350586 0.933350 0.074707 
vn -0.727783 0.633057 0.262939 
vn -0.298828 0.943848 0.139893 
vn 0.515869 0.718994 0.465332 
vn 0.856201 0.391602 0.336182 
vn 0.424561 0.898682 0.109619 
vn 0.214355 0.961670 0.170166 
vn 0.515869 0.718994 0.465332 
vn 0.424561 0.898682 0.109619 
vn -0.025879 0.822021 0.568604 
vn 0.515869 0.718994 0.465332 
vn 0.214355 0.961670 0.170166 
vn -0.032471 0.976807 0.211182 
vn -0.025879 0.822021 0.568604 
vn 0.214355 0.961670 0.170166 
vn -0.555908 0.489014 0.671875 
vn 0.107910 0.630371 0.768555 
vn -0.025879 0.822021 0.568604 
vn -0.578369 0.683105 0.445557 
vn -0.555908 0.489014 0.671875 
vn -0.025879 0.822021 0.568604 
vn -0.913574 0.140625 0.381104 
vn -0.555908 0.489014 0.671875 
vn -0.578369 0.683105 0.445557 
vn -0.727783 0.633057 0.262939 
vn -0.913574 0.140625 0.381104 
vn -0.578369 0.683105 0.445557 
vn 0.774658 0.321777 0.543945 
vn 0.915283 0.135254 0.379150 
vn 0.856201 0.391602 0.336182 
vn 0.515869 0.718994 0.465332 
vn 0.774658 0.321777 0.543945 
vn 0.856201 0.391602 0.336182 
vn 0.107910 0.630371 0.768555 
vn 0.774658 0.321777 0.543945 
vn 0.515869 0.718994 0.465332 
vn -0.025879 0.822021 0.568604 
vn 0.107910 0.630371 0.768555 
vn 0.515869 0.718994 0.465332 
vt 0.258065 0.322581 
vt 0.225806 0.322581 
vt 0.225806 0.290323 
vt 0.258065 0.354839 
vt 0.258065 0.322581 
vt 0.225806 0.290323 
vt 0.193548 0.322581 
vt 0.161290 0.354839 
vt 0.225806 0.290323 
vt 0.225806 0.322581 
vt 0.193548 0.322581 
vt 0.225806 0.290323 
vt 0.258065 0.451613 
vt 0.225806 0.451613 
vt 0.225806 0.322581 
vt 0.258065 0.322581 
vt 0.258065 0.451613 
vt 0.225806 0.322581 
vt 0.290323 0.451613 
vt 0.258065 0.451613 
vt 0.258065 0.322581 
vt 0.258065 0.354839 
vt 0.290323 0.451613 
vt 0.258065 0.322581 
vt 0.161290 0.451613 
vt 0.129032 0.451613 
vt 0.161290 0.354839 
vt 0.193548 0.322581 
vt 0.161290 0.451613 
vt 0.161290 0.354839 
vt 0.225806 0.451613 
vt 0.161290 0.451613 
vt 0.193548 0.322581 
vt 0.225806 0.322581 
vt 0.225806 0.451613 
vt 0.193548 0.322581 
vt 0.258065 0.838710 
vt 0.225806 0.838710 
vt 0.225806 0.451613 
vt 0.258065 0.451613 
vt 0.258065 0.838710 
vt 0.225806 0.451613 
vt 0.258065 0.838710 
vt 0.258065 0.838710 
vt 0.258065 0.451613 
vt 0.290323 0.451613 
vt 0.258065 0.838710 
vt 0.258065 0.451613 
vt 0.193548 0.838710 
vt 0.161290 0.838710 
vt 0.129032 0.451613 
vt 0.161290 0.451613 
vt 0.193548 0.838710 
vt 0.129032 0.451613 
vt 0.225806 0.838710 
vt 0.193548 0.838710 
vt 0.161290 0.451613 
vt 0.225806 0.451613 
vt 0.225806 0.838710 
vt 0.161290 0.451613 
f 1/1/1 2/2/2 3/3/3
f 4/4/4 5/5/5 6/6/6
f 7/7/7 8/8/8 9/9/9
f 10/10/10 11/11/11 12/12/12
f 13/13/13 14/14/14 15/15/15
f 16/16/16 17/17/17 18/18/18
f 19/19/19 20/20/20 21/21/21
f 22/22/22 23/23/23 24/24/24
f 25/25/25 26/26/26 27/27/27
f 28/28/28 29/29/29 30/30/30
f 31/31/31 32/32/32 33/33/33
f 34/34/34 35/35/35 36/36/36
f 37/37/37 38/38/38 39/39/39
f 40/40/40 41/41/41 42/42/42
f 43/43/43 44/44/44 45/45/45
f 46/46/46 47/47/47 48/48/48
f 49/49/49 50/50/50 51/51/51
f 52/52/52 53/53/53 54/54/54
f 55/55/55 56/56/56 57/57/57
f 58/58/58 59/59/59 60/60/60
