v 5.000000 -7.000000 0.000000 
v 7.000000 -4.000000 -6.000000 
v 22.000000 -6.000000 1.000000 
v 7.000000 -4.000000 -6.000000 
v 24.000000 -4.000000 -6.000000 
v 22.000000 -6.000000 1.000000 
v 5.000000 -7.000000 0.000000 
v 22.000000 -6.000000 1.000000 
v 21.000000 0.000000 5.000000 
v 7.000000 -4.000000 -6.000000 
v 7.000000 3.000000 -6.000000 
v 24.000000 -4.000000 -6.000000 
v 7.000000 3.000000 -6.000000 
v 24.000000 3.000000 -6.000000 
v 24.000000 -4.000000 -6.000000 
v 7.000000 3.000000 -6.000000 
v 5.000000 6.000000 0.000000 
v 24.000000 3.000000 -6.000000 
v 5.000000 6.000000 0.000000 
v 22.000000 5.000000 1.000000 
v 24.000000 3.000000 -6.000000 
v 5.000000 6.000000 0.000000 
v 4.000000 0.000000 5.000000 
v 22.000000 5.000000 1.000000 
v 4.000000 0.000000 5.000000 
v 21.000000 0.000000 5.000000 
v 22.000000 5.000000 1.000000 
v 4.000000 0.000000 5.000000 
v 5.000000 -7.000000 0.000000 
v 21.000000 0.000000 5.000000 
v 13.000000 -12.000000 0.000000 
v 15.000000 -6.000000 -13.000000 
v 32.000000 -10.000000 -1.000000 
v 15.000000 -6.000000 -13.000000 
v 33.000000 -5.000000 -9.000000 
v 32.000000 -10.000000 -1.000000 
v 15.000000 -6.000000 -13.000000 
v 15.000000 8.000000 -11.000000 
v 33.000000 -5.000000 -9.000000 
v 15.000000 8.000000 -11.000000 
v 33.000000 7.000000 -7.000000 
v 33.000000 -5.000000 -9.000000 
v 15.000000 8.000000 -11.000000 
v 12.000000 11.000000 3.000000 
v 33.000000 7.000000 -7.000000 
v 12.000000 11.000000 3.000000 
v 32.000000 9.000000 1.000000 
v 33.000000 7.000000 -7.000000 
v 12.000000 11.000000 3.000000 
v 11.000000 -2.000000 10.000000 
v 32.000000 9.000000 1.000000 
v 15.000000 -6.000000 -13.000000 
v 13.000000 -12.000000 0.000000 
v 13.000000 0.000000 -2.000000 
v 13.000000 -12.000000 0.000000 
v 11.000000 -2.000000 10.000000 
v 13.000000 0.000000 -2.000000 
v 15.000000 8.000000 -11.000000 
v 15.000000 -6.000000 -13.000000 
v 13.000000 0.000000 -2.000000 
v 12.000000 11.000000 3.000000 
v 15.000000 8.000000 -11.000000 
v 13.000000 0.000000 -2.000000 
v 11.000000 -2.000000 10.000000 
v 12.000000 11.000000 3.000000 
v 13.000000 0.000000 -2.000000 
vn 0.035400 -0.948730 0.313477 
vn -0.115479 -0.591064 -0.798096 
vn 0.042480 -0.996094 0.074219 
vn -0.115479 -0.591064 -0.798096 
vn -0.093750 -0.392822 -0.914795 
vn 0.042480 -0.996094 0.074219 
vn 0.035400 -0.948730 0.313477 
vn 0.042480 -0.996094 0.074219 
vn 0.119141 -0.214844 0.969238 
vn -0.115479 -0.591064 -0.798096 
vn -0.122070 0.571289 -0.811279 
vn -0.093750 -0.392822 -0.914795 
vn -0.122070 0.571289 -0.811279 
vn -0.049316 0.754883 -0.653809 
vn -0.093750 -0.392822 -0.914795 
vn -0.122070 0.571289 -0.811279 
vn 0.059814 0.950195 0.305664 
vn -0.049316 0.754883 -0.653809 
vn 0.059814 0.950195 0.305664 
vn 0.083008 0.850098 0.519775 
vn -0.049316 0.754883 -0.653809 
vn 0.059814 0.950195 0.305664 
vn 0.147949 0.015137 0.988770 
vn 0.083008 0.850098 0.519775 
vn 0.147949 0.015137 0.988770 
vn 0.119141 -0.214844 0.969238 
vn 0.083008 0.850098 0.519775 
vn 0.147949 0.015137 0.988770 
vn 0.035400 -0.948730 0.313477 
vn 0.119141 -0.214844 0.969238 
vn 0.118652 -0.935303 0.333008 
vn 0.041504 -0.627197 -0.777344 
vn -0.078369 -0.996582 -0.018311 
vn 0.041504 -0.627197 -0.777344 
vn -0.031250 -0.444336 -0.895264 
vn -0.078369 -0.996582 -0.018311 
vn 0.041504 -0.627197 -0.777344 
vn 0.069580 0.512695 -0.855469 
vn -0.031250 -0.444336 -0.895264 
vn 0.069580 0.512695 -0.855469 
vn -0.059082 0.674072 -0.736084 
vn -0.031250 -0.444336 -0.895264 
vn 0.069580 0.512695 -0.855469 
vn 0.117676 0.977051 0.177002 
vn -0.059082 0.674072 -0.736084 
vn 0.117676 0.977051 0.177002 
vn 0.032715 0.904297 0.425049 
vn -0.059082 0.674072 -0.736084 
vn 0.117676 0.977051 0.177002 
vn 0.182373 0.136475 0.973633 
vn 0.032715 0.904297 0.425049 
vn -0.999512 0.020508 -0.019775 
vn -0.999512 0.020508 -0.019775 
vn -0.999512 0.020508 -0.019775 
vn -0.999512 0.020508 -0.019775 
vn -0.999512 0.020508 -0.019775 
vn -0.999512 0.020508 -0.019775 
vn -0.999512 0.020508 -0.019775 
vn -0.999512 0.020508 -0.019775 
vn -0.999512 0.020508 -0.019775 
vn -0.999512 0.020508 -0.019775 
vn -0.999512 0.020508 -0.019775 
vn -0.999512 0.020508 -0.019775 
vn -0.999512 0.020508 -0.019775 
vn -0.999512 0.020508 -0.019775 
vn -0.999512 0.020508 -0.019775 
vt 0.968504 0.125984 
vt 0.937008 0.125984 
vt 0.960630 0.039370 
vt 0.937008 0.125984 
vt 0.921260 0.039370 
vt 0.960630 0.039370 
vt 0.968504 0.125984 
vt 0.960630 0.039370 
vt 0.929134 0.039370 
vt 0.937008 0.125984 
vt 0.874016 0.125984 
vt 0.921260 0.039370 
vt 0.874016 0.125984 
vt 0.874016 0.039370 
vt 0.921260 0.039370 
vt 0.874016 0.125984 
vt 0.874016 0.125984 
vt 0.874016 0.039370 
vt 0.874016 0.125984 
vt 0.874016 0.039370 
vt 0.874016 0.039370 
vt 0.874016 0.125984 
vt 0.937008 0.125984 
vt 0.874016 0.039370 
vt 0.937008 0.125984 
vt 0.929134 0.039370 
vt 0.874016 0.039370 
vt 0.937008 0.125984 
vt 0.968504 0.125984 
vt 0.929134 0.039370 
vt 1.000000 0.598425 
vt 0.913386 0.598425 
vt 0.984252 0.811024 
vt 0.913386 0.598425 
vt 0.921260 0.748031 
vt 0.984252 0.811024 
vt 0.913386 0.598425 
vt 0.818898 0.598425 
vt 0.921260 0.748031 
vt 0.818898 0.598425 
vt 0.834646 0.748031 
vt 0.921260 0.748031 
vt 0.818898 0.598425 
vt 0.787402 0.598425 
vt 0.834646 0.748031 
vt 0.787402 0.598425 
vt 0.779528 0.818898 
vt 0.834646 0.748031 
vt 0.787402 0.992126 
vt 0.881890 0.984252 
vt 0.779528 0.818898 
vt 0.913386 0.992126 
vt 0.992126 0.992126 
vt 0.881890 0.992126 
vt 0.992126 0.992126 
vt 0.881890 0.984252 
vt 0.881890 0.992126 
vt 0.811024 0.992126 
vt 0.913386 0.992126 
vt 0.881890 0.992126 
vt 0.787402 0.992126 
vt 0.811024 0.992126 
vt 0.881890 0.992126 
vt 0.881890 0.984252 
vt 0.787402 0.992126 
vt 0.881890 0.992126 
f 1/1/1 2/2/2 3/3/3
f 4/4/4 5/5/5 6/6/6
f 7/7/7 8/8/8 9/9/9
f 10/10/10 11/11/11 12/12/12
f 13/13/13 14/14/14 15/15/15
f 16/16/16 17/17/17 18/18/18
f 19/19/19 20/20/20 21/21/21
f 22/22/22 23/23/23 24/24/24
f 25/25/25 26/26/26 27/27/27
f 28/28/28 29/29/29 30/30/30
f 31/31/31 32/32/32 33/33/33
f 34/34/34 35/35/35 36/36/36
f 37/37/37 38/38/38 39/39/39
f 40/40/40 41/41/41 42/42/42
f 43/43/43 44/44/44 45/45/45
f 46/46/46 47/47/47 48/48/48
f 49/49/49 50/50/50 51/51/51
f 52/52/52 53/53/53 54/54/54
f 55/55/55 56/56/56 57/57/57
f 58/58/58 59/59/59 60/60/60
f 61/61/61 62/62/62 63/63/63
f 64/64/64 65/65/65 66/66/66
