v -38.000000 7.000000 15.000000 
v -34.000000 11.000000 24.000000 
v -38.000000 11.000000 15.000000 
v -38.000000 7.000000 15.000000 
v -34.000000 7.000000 24.000000 
v -34.000000 11.000000 24.000000 
v -34.000000 7.000000 24.000000 
v -25.000000 11.000000 24.000000 
v -34.000000 11.000000 24.000000 
v -34.000000 7.000000 24.000000 
v -25.000000 7.000000 24.000000 
v -25.000000 11.000000 24.000000 
v -25.000000 7.000000 24.000000 
v -21.000000 11.000000 15.000000 
v -25.000000 11.000000 24.000000 
v -25.000000 7.000000 24.000000 
v -21.000000 7.000000 15.000000 
v -21.000000 11.000000 15.000000 
v -21.000000 7.000000 15.000000 
v -25.000000 11.000000 6.000000 
v -21.000000 11.000000 15.000000 
v -21.000000 7.000000 15.000000 
v -25.000000 7.000000 6.000000 
v -25.000000 11.000000 6.000000 
v -25.000000 7.000000 6.000000 
v -34.000000 11.000000 6.000000 
v -25.000000 11.000000 6.000000 
v -25.000000 7.000000 6.000000 
v -34.000000 7.000000 6.000000 
v -34.000000 11.000000 6.000000 
v -34.000000 7.000000 6.000000 
v -38.000000 11.000000 15.000000 
v -34.000000 11.000000 6.000000 
v -34.000000 7.000000 6.000000 
v -38.000000 7.000000 15.000000 
v -38.000000 11.000000 15.000000 
v -38.000000 11.000000 15.000000 
v -34.000000 18.000000 27.000000 
v -39.000000 18.000000 17.000000 
v -38.000000 11.000000 15.000000 
v -34.000000 11.000000 24.000000 
v -34.000000 18.000000 27.000000 
v -34.000000 11.000000 24.000000 
v -25.000000 18.000000 27.000000 
v -34.000000 18.000000 27.000000 
v -34.000000 11.000000 24.000000 
v -25.000000 11.000000 24.000000 
v -25.000000 18.000000 27.000000 
v -25.000000 11.000000 24.000000 
v -20.000000 18.000000 17.000000 
v -25.000000 18.000000 27.000000 
v -25.000000 11.000000 24.000000 
v -21.000000 11.000000 15.000000 
v -20.000000 18.000000 17.000000 
v -21.000000 11.000000 15.000000 
v -25.000000 17.000000 7.000000 
v -20.000000 18.000000 17.000000 
v -21.000000 11.000000 15.000000 
v -25.000000 11.000000 6.000000 
v -25.000000 17.000000 7.000000 
v -25.000000 11.000000 6.000000 
v -34.000000 17.000000 7.000000 
v -25.000000 17.000000 7.000000 
v -25.000000 11.000000 6.000000 
v -34.000000 11.000000 6.000000 
v -34.000000 17.000000 7.000000 
v -34.000000 11.000000 6.000000 
v -39.000000 18.000000 17.000000 
v -34.000000 17.000000 7.000000 
v -34.000000 11.000000 6.000000 
v -38.000000 11.000000 15.000000 
v -39.000000 18.000000 17.000000 
v -39.000000 18.000000 17.000000 
v -36.000000 31.000000 35.000000 
v -43.000000 31.000000 21.000000 
v -39.000000 18.000000 17.000000 
v -34.000000 18.000000 27.000000 
v -36.000000 31.000000 35.000000 
v -34.000000 18.000000 27.000000 
v -23.000000 31.000000 35.000000 
v -36.000000 31.000000 35.000000 
v -34.000000 18.000000 27.000000 
v -25.000000 18.000000 27.000000 
v -23.000000 31.000000 35.000000 
v -25.000000 18.000000 27.000000 
v -16.000000 31.000000 21.000000 
v -23.000000 31.000000 35.000000 
v -25.000000 18.000000 27.000000 
v -20.000000 18.000000 17.000000 
v -16.000000 31.000000 21.000000 
v -20.000000 18.000000 17.000000 
v -23.000000 30.000000 7.000000 
v -16.000000 31.000000 21.000000 
v -20.000000 18.000000 17.000000 
v -25.000000 17.000000 7.000000 
v -23.000000 30.000000 7.000000 
v -25.000000 17.000000 7.000000 
v -36.000000 30.000000 7.000000 
v -23.000000 30.000000 7.000000 
v -25.000000 17.000000 7.000000 
v -34.000000 17.000000 7.000000 
v -36.000000 30.000000 7.000000 
v -34.000000 17.000000 7.000000 
v -43.000000 31.000000 21.000000 
v -36.000000 30.000000 7.000000 
v -34.000000 17.000000 7.000000 
v -39.000000 18.000000 17.000000 
v -43.000000 31.000000 21.000000 
vn -0.981445 0.002441 0.191162 
vn -0.498535 -0.111816 0.859375 
vn -0.997559 -0.069092 -0.000977 
vn -0.981445 0.002441 0.191162 
vn -0.325439 0.011230 0.945312 
vn -0.498535 -0.111816 0.859375 
vn -0.325439 0.011230 0.945312 
vn 0.496338 -0.100342 0.862061 
vn -0.498535 -0.111816 0.859375 
vn -0.325439 0.011230 0.945312 
vn 0.654785 0.009033 0.755615 
vn 0.496338 -0.100342 0.862061 
vn 0.654785 0.009033 0.755615 
vn 0.999023 -0.038574 -0.000488 
vn 0.496338 -0.100342 0.862061 
vn 0.654785 0.009033 0.755615 
vn 0.981445 -0.005859 -0.190918 
vn 0.999023 -0.038574 -0.000488 
vn 0.981445 -0.005859 -0.190918 
vn 0.499023 0.003906 -0.866455 
vn 0.999023 -0.038574 -0.000488 
vn 0.981445 -0.005859 -0.190918 
vn 0.325439 -0.028076 -0.945068 
vn 0.499023 0.003906 -0.866455 
vn 0.325439 -0.028076 -0.945068 
vn -0.500244 -0.013672 -0.865479 
vn 0.499023 0.003906 -0.866455 
vn 0.325439 -0.028076 -0.945068 
vn -0.654785 -0.022217 -0.755371 
vn -0.500244 -0.013672 -0.865479 
vn -0.654785 -0.022217 -0.755371 
vn -0.997559 -0.069092 -0.000977 
vn -0.500244 -0.013672 -0.865479 
vn -0.654785 -0.022217 -0.755371 
vn -0.981445 0.002441 0.191162 
vn -0.997559 -0.069092 -0.000977 
vn -0.997559 -0.069092 -0.000977 
vn -0.482422 -0.297607 0.823730 
vn -0.985840 -0.167236 -0.004395 
vn -0.997559 -0.069092 -0.000977 
vn -0.498535 -0.111816 0.859375 
vn -0.482422 -0.297607 0.823730 
vn -0.498535 -0.111816 0.859375 
vn 0.478516 -0.293457 0.827393 
vn -0.482422 -0.297607 0.823730 
vn -0.498535 -0.111816 0.859375 
vn 0.496338 -0.100342 0.862061 
vn 0.478516 -0.293457 0.827393 
vn 0.496338 -0.100342 0.862061 
vn 0.987549 -0.156738 -0.002441 
vn 0.478516 -0.293457 0.827393 
vn 0.496338 -0.100342 0.862061 
vn 0.999023 -0.038574 -0.000488 
vn 0.987549 -0.156738 -0.002441 
vn 0.999023 -0.038574 -0.000488 
vn 0.499512 -0.015381 -0.865967 
vn 0.987549 -0.156738 -0.002441 
vn 0.999023 -0.038574 -0.000488 
vn 0.499023 0.003906 -0.866455 
vn 0.499512 -0.015381 -0.865967 
vn 0.499023 0.003906 -0.866455 
vn -0.500488 -0.021484 -0.865234 
vn 0.499512 -0.015381 -0.865967 
vn 0.499023 0.003906 -0.866455 
vn -0.500244 -0.013672 -0.865479 
vn -0.500488 -0.021484 -0.865234 
vn -0.500244 -0.013672 -0.865479 
vn -0.985840 -0.167236 -0.004395 
vn -0.500488 -0.021484 -0.865234 
vn -0.500244 -0.013672 -0.865479 
vn -0.997559 -0.069092 -0.000977 
vn -0.985840 -0.167236 -0.004395 
vn -0.985840 -0.167236 -0.004395 
vn -0.613770 -0.345947 0.709229 
vn -0.965332 -0.178467 -0.189453 
vn -0.985840 -0.167236 -0.004395 
vn -0.482422 -0.297607 0.823730 
vn -0.613770 -0.345947 0.709229 
vn -0.482422 -0.297607 0.823730 
vn 0.310547 -0.376221 0.872803 
vn -0.613770 -0.345947 0.709229 
vn -0.482422 -0.297607 0.823730 
vn 0.478516 -0.293457 0.827393 
vn 0.310547 -0.376221 0.872803 
vn 0.478516 -0.293457 0.827393 
vn 0.952148 -0.247803 0.177490 
vn 0.310547 -0.376221 0.872803 
vn 0.478516 -0.293457 0.827393 
vn 0.987549 -0.156738 -0.002441 
vn 0.952148 -0.247803 0.177490 
vn 0.987549 -0.156738 -0.002441 
vn 0.652588 -0.069336 -0.754395 
vn 0.952148 -0.247803 0.177490 
vn 0.987549 -0.156738 -0.002441 
vn 0.499512 -0.015381 -0.865967 
vn 0.652588 -0.069336 -0.754395 
vn 0.499512 -0.015381 -0.865967 
vn -0.327637 -0.031982 -0.944092 
vn 0.652588 -0.069336 -0.754395 
vn 0.499512 -0.015381 -0.865967 
vn -0.500488 -0.021484 -0.865234 
vn -0.327637 -0.031982 -0.944092 
vn -0.500488 -0.021484 -0.865234 
vn -0.965332 -0.178467 -0.189453 
vn -0.327637 -0.031982 -0.944092 
vn -0.500488 -0.021484 -0.865234 
vn -0.985840 -0.167236 -0.004395 
vn -0.965332 -0.178467 -0.189453 
vt 0.645669 0.275591 
vt 0.748031 0.338583 
vt 0.645669 0.275591 
vt 0.645669 0.275591 
vt 0.748031 0.338583 
vt 0.748031 0.338583 
vt 0.748031 0.338583 
vt 0.188976 0.464567 
vt 0.748031 0.338583 
vt 0.748031 0.338583 
vt 0.653543 0.338583 
vt 0.188976 0.464567 
vt 0.653543 0.338583 
vt 0.858268 0.267717 
vt 0.188976 0.464567 
vt 0.653543 0.338583 
vt 0.771654 0.275591 
vt 0.858268 0.267717 
vt 0.771654 0.275591 
vt 0.637795 0.259843 
vt 0.858268 0.267717 
vt 0.771654 0.275591 
vt 0.637795 0.259843 
vt 0.637795 0.259843 
vt 0.637795 0.259843 
vt 0.771654 0.259843 
vt 0.637795 0.259843 
vt 0.637795 0.259843 
vt 0.771654 0.259843 
vt 0.771654 0.259843 
vt 0.771654 0.259843 
vt 0.645669 0.275591 
vt 0.771654 0.259843 
vt 0.771654 0.259843 
vt 0.645669 0.275591 
vt 0.645669 0.275591 
vt 0.645669 0.275591 
vt 0.795276 0.338583 
vt 0.708661 0.307087 
vt 0.645669 0.275591 
vt 0.748031 0.338583 
vt 0.795276 0.338583 
vt 0.748031 0.338583 
vt 0.708661 0.338583 
vt 0.795276 0.338583 
vt 0.748031 0.338583 
vt 0.188976 0.464567 
vt 0.708661 0.338583 
vt 0.188976 0.464567 
vt 0.795276 0.307087 
vt 0.708661 0.338583 
vt 0.188976 0.464567 
vt 0.858268 0.267717 
vt 0.795276 0.307087 
vt 0.858268 0.267717 
vt 0.708661 0.299213 
vt 0.795276 0.307087 
vt 0.858268 0.267717 
vt 0.637795 0.259843 
vt 0.708661 0.299213 
vt 0.637795 0.259843 
vt 0.795276 0.299213 
vt 0.708661 0.299213 
vt 0.637795 0.259843 
vt 0.771654 0.259843 
vt 0.795276 0.299213 
vt 0.771654 0.259843 
vt 0.708661 0.307087 
vt 0.795276 0.299213 
vt 0.771654 0.259843 
vt 0.645669 0.275591 
vt 0.708661 0.307087 
vt 0.708661 0.307087 
vt 0.795276 0.417323 
vt 0.708661 0.425197 
vt 0.708661 0.307087 
vt 0.795276 0.338583 
vt 0.795276 0.417323 
vt 0.795276 0.338583 
vt 0.708661 0.417323 
vt 0.795276 0.417323 
vt 0.795276 0.338583 
vt 0.708661 0.338583 
vt 0.708661 0.417323 
vt 0.708661 0.338583 
vt 0.795276 0.417323 
vt 0.708661 0.417323 
vt 0.708661 0.338583 
vt 0.795276 0.307087 
vt 0.795276 0.417323 
vt 0.795276 0.307087 
vt 0.708661 0.409449 
vt 0.795276 0.417323 
vt 0.795276 0.307087 
vt 0.708661 0.299213 
vt 0.708661 0.409449 
vt 0.708661 0.299213 
vt 0.795276 0.409449 
vt 0.708661 0.409449 
vt 0.708661 0.299213 
vt 0.795276 0.299213 
vt 0.795276 0.409449 
vt 0.795276 0.299213 
vt 0.708661 0.425197 
vt 0.795276 0.409449 
vt 0.795276 0.299213 
vt 0.708661 0.307087 
vt 0.708661 0.425197 
f 1/1/1 2/2/2 3/3/3
f 4/4/4 5/5/5 6/6/6
f 7/7/7 8/8/8 9/9/9
f 10/10/10 11/11/11 12/12/12
f 13/13/13 14/14/14 15/15/15
f 16/16/16 17/17/17 18/18/18
f 19/19/19 20/20/20 21/21/21
f 22/22/22 23/23/23 24/24/24
f 25/25/25 26/26/26 27/27/27
f 28/28/28 29/29/29 30/30/30
f 31/31/31 32/32/32 33/33/33
f 34/34/34 35/35/35 36/36/36
f 37/37/37 38/38/38 39/39/39
f 40/40/40 41/41/41 42/42/42
f 43/43/43 44/44/44 45/45/45
f 46/46/46 47/47/47 48/48/48
f 49/49/49 50/50/50 51/51/51
f 52/52/52 53/53/53 54/54/54
f 55/55/55 56/56/56 57/57/57
f 58/58/58 59/59/59 60/60/60
f 61/61/61 62/62/62 63/63/63
f 64/64/64 65/65/65 66/66/66
f 67/67/67 68/68/68 69/69/69
f 70/70/70 71/71/71 72/72/72
f 73/73/73 74/74/74 75/75/75
f 76/76/76 77/77/77 78/78/78
f 79/79/79 80/80/80 81/81/81
f 82/82/82 83/83/83 84/84/84
f 85/85/85 86/86/86 87/87/87
f 88/88/88 89/89/89 90/90/90
f 91/91/91 92/92/92 93/93/93
f 94/94/94 95/95/95 96/96/96
f 97/97/97 98/98/98 99/99/99
f 100/100/100 101/101/101 102/102/102
f 103/103/103 104/104/104 105/105/105
f 106/106/106 107/107/107 108/108/108
