v 9.000000 16.000000 -12.000000 
v 10.000000 20.000000 0.000000 
v 10.000000 0.000000 0.000000 
v 10.000000 20.000000 0.000000 
v 10.000000 16.000000 11.000000 
v 10.000000 0.000000 0.000000 
v 9.000000 6.000000 -20.000000 
v 9.000000 16.000000 -12.000000 
v 10.000000 0.000000 0.000000 
v 9.000000 -6.000000 -20.000000 
v 9.000000 6.000000 -20.000000 
v 10.000000 0.000000 0.000000 
v 9.000000 -16.000000 -12.000000 
v 9.000000 -6.000000 -20.000000 
v 10.000000 0.000000 0.000000 
v 10.000000 -20.000000 0.000000 
v 9.000000 -16.000000 -12.000000 
v 10.000000 0.000000 0.000000 
v 10.000000 -16.000000 11.000000 
v 10.000000 -20.000000 0.000000 
v 10.000000 0.000000 0.000000 
v 10.000000 -6.000000 19.000000 
v 10.000000 -16.000000 11.000000 
v 10.000000 0.000000 0.000000 
v 10.000000 6.000000 19.000000 
v 10.000000 -6.000000 19.000000 
v 10.000000 0.000000 0.000000 
v 10.000000 16.000000 11.000000 
v 10.000000 6.000000 19.000000 
v 10.000000 0.000000 0.000000 
vn 0.772217 0.540283 -0.333496 
vn 0.783936 0.619141 0.042969 
vn 0.999512 0.000000 -0.030762 
vn 0.783936 0.619141 0.042969 
vn 0.794678 0.461426 0.393799 
vn 0.999512 0.000000 -0.030762 
vn 0.702881 0.207275 -0.680176 
vn 0.772217 0.540283 -0.333496 
vn 0.999512 0.000000 -0.030762 
vn 0.835205 -0.161865 -0.525146 
vn 0.702881 0.207275 -0.680176 
vn 0.999512 0.000000 -0.030762 
vn 0.743408 -0.423584 -0.517334 
vn 0.835205 -0.161865 -0.525146 
vn 0.999512 0.000000 -0.030762 
vn 0.779785 -0.619141 -0.090820 
vn 0.743408 -0.423584 -0.517334 
vn 0.999512 0.000000 -0.030762 
vn 0.791504 -0.540283 0.285400 
vn 0.779785 -0.619141 -0.090820 
vn 0.999512 0.000000 -0.030762 
vn 0.799316 -0.255127 0.543701 
vn 0.791504 -0.540283 0.285400 
vn 0.999512 0.000000 -0.030762 
vn 0.800537 0.127441 0.585205 
vn 0.799316 -0.255127 0.543701 
vn 0.999512 0.000000 -0.030762 
vn 0.794678 0.461426 0.393799 
vn 0.800537 0.127441 0.585205 
vn 0.999512 0.000000 -0.030762 
vt 0.650794 0.619048 
vt 0.698413 0.492063 
vt 0.492063 0.492063 
vt 0.698413 0.492063 
vt 0.650794 0.365079 
vt 0.492063 0.492063 
vt 0.555556 0.698413 
vt 0.650794 0.619048 
vt 0.492063 0.492063 
vt 0.428571 0.698413 
vt 0.555556 0.698413 
vt 0.492063 0.492063 
vt 0.333333 0.619048 
vt 0.428571 0.698413 
vt 0.492063 0.492063 
vt 0.285714 0.492063 
vt 0.333333 0.619048 
vt 0.492063 0.492063 
vt 0.333333 0.365079 
vt 0.285714 0.492063 
vt 0.492063 0.492063 
vt 0.428571 0.285714 
vt 0.333333 0.365079 
vt 0.492063 0.492063 
vt 0.555556 0.285714 
vt 0.428571 0.285714 
vt 0.492063 0.492063 
vt 0.650794 0.365079 
vt 0.555556 0.285714 
vt 0.492063 0.492063 
f 1/1/1 2/2/2 3/3/3
f 4/4/4 5/5/5 6/6/6
f 7/7/7 8/8/8 9/9/9
f 10/10/10 11/11/11 12/12/12
f 13/13/13 14/14/14 15/15/15
f 16/16/16 17/17/17 18/18/18
f 19/19/19 20/20/20 21/21/21
f 22/22/22 23/23/23 24/24/24
f 25/25/25 26/26/26 27/27/27
f 28/28/28 29/29/29 30/30/30
