v 38.000000 4.000000 0.000000 
v 38.000000 1.000000 -4.000000 
v 11.000000 5.000000 -1.000000 
v 38.000000 1.000000 -4.000000 
v 12.000000 2.000000 -8.000000 
v 11.000000 5.000000 -1.000000 
v 38.000000 4.000000 0.000000 
v 11.000000 5.000000 -1.000000 
v 8.000000 2.000000 4.000000 
v 38.000000 1.000000 -4.000000 
v 38.000000 -3.000000 -4.000000 
v 12.000000 2.000000 -8.000000 
v 38.000000 -3.000000 -4.000000 
v 12.000000 -4.000000 -8.000000 
v 12.000000 2.000000 -8.000000 
v 38.000000 -3.000000 -4.000000 
v 38.000000 -6.000000 0.000000 
v 12.000000 -4.000000 -8.000000 
v 38.000000 -6.000000 0.000000 
v 11.000000 -8.000000 -1.000000 
v 12.000000 -4.000000 -8.000000 
v 38.000000 -6.000000 0.000000 
v 39.000000 -3.000000 4.000000 
v 11.000000 -8.000000 -1.000000 
v 39.000000 -3.000000 4.000000 
v 8.000000 -4.000000 4.000000 
v 11.000000 -8.000000 -1.000000 
v 39.000000 -3.000000 4.000000 
v 39.000000 1.000000 4.000000 
v 8.000000 -4.000000 4.000000 
v 39.000000 1.000000 4.000000 
v 8.000000 2.000000 4.000000 
v 8.000000 -4.000000 4.000000 
v 39.000000 1.000000 4.000000 
v 38.000000 4.000000 0.000000 
v 8.000000 2.000000 4.000000 
v 61.000000 4.000000 0.000000 
v 67.000000 1.000000 -2.000000 
v 38.000000 4.000000 0.000000 
v 67.000000 1.000000 -2.000000 
v 38.000000 1.000000 -4.000000 
v 38.000000 4.000000 0.000000 
v 61.000000 4.000000 0.000000 
v 38.000000 4.000000 0.000000 
v 39.000000 1.000000 4.000000 
v 67.000000 1.000000 -2.000000 
v 67.000000 -3.000000 -2.000000 
v 38.000000 1.000000 -4.000000 
v 67.000000 -3.000000 -2.000000 
v 38.000000 -3.000000 -4.000000 
v 38.000000 1.000000 -4.000000 
v 67.000000 -3.000000 -2.000000 
v 61.000000 -6.000000 0.000000 
v 38.000000 -3.000000 -4.000000 
v 61.000000 -6.000000 0.000000 
v 38.000000 -6.000000 0.000000 
v 38.000000 -3.000000 -4.000000 
v 61.000000 -6.000000 0.000000 
v 53.000000 -3.000000 5.000000 
v 38.000000 -6.000000 0.000000 
v 53.000000 -3.000000 5.000000 
v 39.000000 -3.000000 4.000000 
v 38.000000 -6.000000 0.000000 
v 53.000000 -3.000000 5.000000 
v 53.000000 1.000000 5.000000 
v 39.000000 -3.000000 4.000000 
v 53.000000 1.000000 5.000000 
v 39.000000 1.000000 4.000000 
v 39.000000 -3.000000 4.000000 
v 53.000000 1.000000 5.000000 
v 61.000000 4.000000 0.000000 
v 39.000000 1.000000 4.000000 
vn 0.028320 0.998779 -0.035889 
vn 0.088379 0.499512 -0.861572 
vn 0.077148 0.979248 -0.187012 
vn 0.088379 0.499512 -0.861572 
vn 0.151367 0.332275 -0.930664 
vn 0.077148 0.979248 -0.187012 
vn 0.028320 0.998779 -0.035889 
vn 0.077148 0.979248 -0.187012 
vn 0.004639 0.658936 0.751953 
vn 0.088379 0.499512 -0.861572 
vn 0.090332 -0.475098 -0.875000 
vn 0.151367 0.332275 -0.930664 
vn 0.090332 -0.475098 -0.875000 
vn 0.130371 -0.653564 -0.745361 
vn 0.151367 0.332275 -0.930664 
vn 0.090332 -0.475098 -0.875000 
vn 0.032959 -0.999268 -0.009033 
vn 0.130371 -0.653564 -0.745361 
vn 0.032959 -0.999268 -0.009033 
vn 0.044189 -0.980225 0.192139 
vn 0.130371 -0.653564 -0.745361 
vn 0.032959 -0.999268 -0.009033 
vn -0.028809 -0.501221 0.864746 
vn 0.044189 -0.980225 0.192139 
vn -0.028809 -0.501221 0.864746 
vn -0.005615 -0.331787 0.943115 
vn 0.044189 -0.980225 0.192139 
vn -0.028809 -0.501221 0.864746 
vn -0.019775 0.515137 0.856689 
vn -0.005615 -0.331787 0.943115 
vn -0.019775 0.515137 0.856689 
vn 0.004639 0.658936 0.751953 
vn -0.005615 -0.331787 0.943115 
vn -0.019775 0.515137 0.856689 
vn 0.028320 0.998779 -0.035889 
vn 0.004639 0.658936 0.751953 
vn -0.010254 0.995117 0.096191 
vn 0.024658 0.598877 -0.800293 
vn 0.028320 0.998779 -0.035889 
vn 0.024658 0.598877 -0.800293 
vn 0.088379 0.499512 -0.861572 
vn 0.028320 0.998779 -0.035889 
vn -0.010254 0.995117 0.096191 
vn 0.028320 0.998779 -0.035889 
vn -0.019775 0.515137 0.856689 
vn 0.024658 0.598877 -0.800293 
vn 0.044678 -0.286621 -0.956787 
vn 0.088379 0.499512 -0.861572 
vn 0.044678 -0.286621 -0.956787 
vn 0.090332 -0.475098 -0.875000 
vn 0.088379 0.499512 -0.861572 
vn 0.044678 -0.286621 -0.956787 
vn 0.010742 -0.965088 -0.261230 
vn 0.090332 -0.475098 -0.875000 
vn 0.010742 -0.965088 -0.261230 
vn 0.032959 -0.999268 -0.009033 
vn 0.090332 -0.475098 -0.875000 
vn 0.010742 -0.965088 -0.261230 
vn -0.035889 -0.673096 0.738281 
vn 0.032959 -0.999268 -0.009033 
vn -0.035889 -0.673096 0.738281 
vn -0.028809 -0.501221 0.864746 
vn 0.032959 -0.999268 -0.009033 
vn -0.035889 -0.673096 0.738281 
vn -0.059814 0.356689 0.932129 
vn -0.028809 -0.501221 0.864746 
vn -0.059814 0.356689 0.932129 
vn -0.019775 0.515137 0.856689 
vn -0.028809 -0.501221 0.864746 
vn -0.059814 0.356689 0.932129 
vn -0.010254 0.995117 0.096191 
vn -0.019775 0.515137 0.856689 
vt 0.283465 0.330709 
vt 0.220472 0.330709 
vt 0.283465 0.094488 
vt 0.220472 0.330709 
vt 0.220472 0.110236 
vt 0.283465 0.094488 
vt 0.283465 0.330709 
vt 0.283465 0.094488 
vt 0.220472 0.062992 
vt 0.220472 0.330709 
vt 0.102362 0.330709 
vt 0.220472 0.110236 
vt 0.102362 0.330709 
vt 0.102362 0.110236 
vt 0.220472 0.110236 
vt 0.102362 0.330709 
vt 0.039370 0.330709 
vt 0.102362 0.110236 
vt 0.039370 0.330709 
vt 0.039370 0.094488 
vt 0.102362 0.110236 
vt 0.039370 0.330709 
vt 0.102362 0.330709 
vt 0.039370 0.094488 
vt 0.102362 0.330709 
vt 0.102362 0.062992 
vt 0.039370 0.094488 
vt 0.102362 0.330709 
vt 0.220472 0.330709 
vt 0.102362 0.062992 
vt 0.220472 0.330709 
vt 0.220472 0.062992 
vt 0.102362 0.062992 
vt 0.220472 0.330709 
vt 0.283465 0.330709 
vt 0.220472 0.062992 
vt 0.283465 0.527559 
vt 0.220472 0.582677 
vt 0.283465 0.330709 
vt 0.220472 0.582677 
vt 0.220472 0.330709 
vt 0.283465 0.330709 
vt 0.283465 0.527559 
vt 0.283465 0.330709 
vt 0.220472 0.330709 
vt 0.220472 0.582677 
vt 0.102362 0.582677 
vt 0.220472 0.330709 
vt 0.102362 0.582677 
vt 0.102362 0.330709 
vt 0.220472 0.330709 
vt 0.102362 0.582677 
vt 0.039370 0.527559 
vt 0.102362 0.330709 
vt 0.039370 0.527559 
vt 0.039370 0.330709 
vt 0.102362 0.330709 
vt 0.039370 0.527559 
vt 0.102362 0.456693 
vt 0.039370 0.330709 
vt 0.102362 0.456693 
vt 0.102362 0.330709 
vt 0.039370 0.330709 
vt 0.102362 0.456693 
vt 0.220472 0.456693 
vt 0.102362 0.330709 
vt 0.220472 0.456693 
vt 0.220472 0.330709 
vt 0.102362 0.330709 
vt 0.220472 0.456693 
vt 0.283465 0.527559 
vt 0.220472 0.330709 
f 1/1/1 2/2/2 3/3/3
f 4/4/4 5/5/5 6/6/6
f 7/7/7 8/8/8 9/9/9
f 10/10/10 11/11/11 12/12/12
f 13/13/13 14/14/14 15/15/15
f 16/16/16 17/17/17 18/18/18
f 19/19/19 20/20/20 21/21/21
f 22/22/22 23/23/23 24/24/24
f 25/25/25 26/26/26 27/27/27
f 28/28/28 29/29/29 30/30/30
f 31/31/31 32/32/32 33/33/33
f 34/34/34 35/35/35 36/36/36
f 37/37/37 38/38/38 39/39/39
f 40/40/40 41/41/41 42/42/42
f 43/43/43 44/44/44 45/45/45
f 46/46/46 47/47/47 48/48/48
f 49/49/49 50/50/50 51/51/51
f 52/52/52 53/53/53 54/54/54
f 55/55/55 56/56/56 57/57/57
f 58/58/58 59/59/59 60/60/60
f 61/61/61 62/62/62 63/63/63
f 64/64/64 65/65/65 66/66/66
f 67/67/67 68/68/68 69/69/69
f 70/70/70 71/71/71 72/72/72
