v 0.000000 -130.000000 0.000000 
v 18.000000 130.000000 0.000000 
v 9.000000 130.000000 16.000000 
v 0.000000 -130.000000 0.000000 
v 9.000000 130.000000 16.000000 
v -9.000000 130.000000 16.000000 
v 0.000000 -130.000000 0.000000 
v -9.000000 130.000000 16.000000 
v -18.000000 130.000000 0.000000 
v 0.000000 -130.000000 0.000000 
v -18.000000 130.000000 0.000000 
v -9.000000 130.000000 -16.000000 
v 0.000000 -130.000000 0.000000 
v -9.000000 130.000000 -16.000000 
v 9.000000 130.000000 -16.000000 
v 0.000000 -130.000000 0.000000 
v 9.000000 130.000000 -16.000000 
v 18.000000 130.000000 0.000000 
vn 0.000000 -1.000000 0.000000 
vn 0.489258 -0.871826 0.000000 
vn 0.244629 -0.871826 0.423828 
vn 0.000000 -1.000000 0.000000 
vn 0.244629 -0.871826 0.423828 
vn -0.244629 -0.871826 0.423828 
vn 0.000000 -1.000000 0.000000 
vn -0.244629 -0.871826 0.423828 
vn -0.489258 -0.871826 0.000000 
vn 0.000000 -1.000000 0.000000 
vn -0.489258 -0.871826 0.000000 
vn -0.244629 -0.871826 -0.423828 
vn 0.000000 -1.000000 0.000000 
vn -0.244629 -0.871826 -0.423828 
vn 0.244629 -0.871826 -0.423828 
vn 0.000000 -1.000000 0.000000 
vn 0.244629 -0.871826 -0.423828 
vn 0.489258 -0.871826 0.000000 
vt 0.666667 -0.015873 
vt 0.523810 0.492063 
vt 0.761905 0.492063 
vt 0.666667 -0.015873 
vt 0.523810 0.492063 
vt 0.761905 0.492063 
vt 0.666667 -0.015873 
vt 0.523810 0.492063 
vt 0.761905 0.492063 
vt 0.666667 -0.015873 
vt 0.523810 0.492063 
vt 0.761905 0.492063 
vt 0.666667 -0.015873 
vt 0.523810 0.492063 
vt 0.761905 0.492063 
vt 0.666667 -0.015873 
vt 0.523810 0.492063 
vt 0.761905 0.492063 
f 1/1/1 2/2/2 3/3/3
f 4/4/4 5/5/5 6/6/6
f 7/7/7 8/8/8 9/9/9
f 10/10/10 11/11/11 12/12/12
f 13/13/13 14/14/14 15/15/15
f 16/16/16 17/17/17 18/18/18
