v -50.000000 39.000000 141.000000 
v -27.000000 0.000000 -141.000000 
v -50.000000 0.000000 -141.000000 
v -27.000000 0.000000 -141.000000 
v -50.000000 39.000000 141.000000 
v -27.000000 39.000000 141.000000 
vn 0.000000 0.985107 -0.171143 
vn 0.000000 0.985107 -0.171143 
vn 0.000000 0.985107 -0.171143 
vn 0.000000 0.985107 -0.171143 
vn 0.000000 0.985107 -0.171143 
vn 0.000000 0.985107 -0.171143 
vt 0.096774 1.000000 
vt 0.290323 -0.032258 
vt 0.129032 -0.032258 
vt 0.290323 -0.032258 
vt 0.096774 1.000000 
vt 0.258065 1.000000 
f 1/1/1 2/2/2 3/3/3
f 4/4/4 5/5/5 6/6/6
