v -8.000000 9.000000 -1.000000 
v -6.000000 6.000000 -1.000000 
v -6.000000 6.000000 1.000000 
v 7.000000 3.000000 6.000000 
v -6.000000 6.000000 1.000000 
v -6.000000 6.000000 -1.000000 
v -6.000000 6.000000 -1.000000 
v 7.000000 2.000000 -10.000000 
v 7.000000 3.000000 6.000000 
v -6.000000 11.000000 1.000000 
v -6.000000 11.000000 -1.000000 
v -8.000000 9.000000 -1.000000 
v 7.000000 18.000000 9.000000 
v 6.000000 18.000000 -8.000000 
v -6.000000 11.000000 -1.000000 
v -6.000000 11.000000 -1.000000 
v -6.000000 11.000000 1.000000 
v 7.000000 18.000000 9.000000 
v 21.000000 18.000000 9.000000 
v 21.000000 19.000000 -10.000000 
v 6.000000 18.000000 -8.000000 
v 6.000000 18.000000 -8.000000 
v 7.000000 18.000000 9.000000 
v 21.000000 18.000000 9.000000 
v -6.000000 9.000000 -2.000000 
v -6.000000 6.000000 -1.000000 
v -8.000000 9.000000 -1.000000 
v 7.000000 10.000000 -13.000000 
v 7.000000 2.000000 -10.000000 
v -6.000000 6.000000 -1.000000 
v -6.000000 6.000000 -1.000000 
v -6.000000 9.000000 -2.000000 
v 7.000000 10.000000 -13.000000 
v 29.000000 5.000000 -15.000000 
v 26.000000 0.000000 -11.000000 
v 25.000000 -4.000000 -14.000000 
v 25.000000 -4.000000 -14.000000 
v 27.000000 0.000000 -17.000000 
v 29.000000 5.000000 -15.000000 
v -6.000000 11.000000 -1.000000 
v -6.000000 9.000000 -2.000000 
v -8.000000 9.000000 -1.000000 
v 6.000000 18.000000 -8.000000 
v 7.000000 10.000000 -13.000000 
v -6.000000 9.000000 -2.000000 
v -6.000000 9.000000 -2.000000 
v -6.000000 11.000000 -1.000000 
v 6.000000 18.000000 -8.000000 
v 21.000000 19.000000 -10.000000 
v 18.000000 12.000000 -11.000000 
v 7.000000 10.000000 -13.000000 
v 7.000000 10.000000 -13.000000 
v 6.000000 18.000000 -8.000000 
v 21.000000 19.000000 -10.000000 
v 45.000000 10.000000 8.000000 
v 45.000000 6.000000 9.000000 
v 46.000000 6.000000 -8.000000 
v 46.000000 6.000000 -8.000000 
v 47.000000 11.000000 -7.000000 
v 45.000000 10.000000 8.000000 
v -6.000000 9.000000 2.000000 
v -6.000000 6.000000 1.000000 
v 7.000000 3.000000 6.000000 
v 7.000000 3.000000 6.000000 
v 7.000000 9.000000 12.000000 
v -6.000000 9.000000 2.000000 
v -6.000000 6.000000 1.000000 
v -6.000000 9.000000 2.000000 
v -8.000000 9.000000 -1.000000 
v 7.000000 18.000000 9.000000 
v 7.000000 9.000000 12.000000 
v 21.000000 12.000000 13.000000 
v 21.000000 12.000000 13.000000 
v 21.000000 18.000000 9.000000 
v 7.000000 18.000000 9.000000 
v -6.000000 11.000000 1.000000 
v -6.000000 9.000000 2.000000 
v 7.000000 9.000000 12.000000 
v 7.000000 9.000000 12.000000 
v 7.000000 18.000000 9.000000 
v -6.000000 11.000000 1.000000 
v -6.000000 9.000000 2.000000 
v -6.000000 11.000000 1.000000 
v -8.000000 9.000000 -1.000000 
v 36.000000 16.000000 -7.000000 
v 21.000000 19.000000 -10.000000 
v 21.000000 18.000000 9.000000 
v 21.000000 18.000000 9.000000 
v 36.000000 16.000000 7.000000 
v 36.000000 16.000000 -7.000000 
v 36.000000 11.000000 -11.000000 
v 18.000000 12.000000 -11.000000 
v 21.000000 19.000000 -10.000000 
v 21.000000 19.000000 -10.000000 
v 36.000000 16.000000 -7.000000 
v 36.000000 11.000000 -11.000000 
v 36.000000 11.000000 11.000000 
v 21.000000 12.000000 13.000000 
v 18.000000 12.000000 -11.000000 
v 18.000000 12.000000 -11.000000 
v 36.000000 11.000000 -11.000000 
v 36.000000 11.000000 11.000000 
v 36.000000 16.000000 7.000000 
v 21.000000 18.000000 9.000000 
v 21.000000 12.000000 13.000000 
v 21.000000 12.000000 13.000000 
v 36.000000 11.000000 11.000000 
v 36.000000 16.000000 7.000000 
v 45.000000 6.000000 9.000000 
v 36.000000 11.000000 11.000000 
v 36.000000 11.000000 -11.000000 
v 36.000000 11.000000 -11.000000 
v 46.000000 6.000000 -8.000000 
v 45.000000 6.000000 9.000000 
v 45.000000 10.000000 8.000000 
v 36.000000 16.000000 7.000000 
v 36.000000 11.000000 11.000000 
v 36.000000 11.000000 11.000000 
v 45.000000 6.000000 9.000000 
v 45.000000 10.000000 8.000000 
v 47.000000 11.000000 -7.000000 
v 36.000000 16.000000 -7.000000 
v 36.000000 16.000000 7.000000 
v 36.000000 16.000000 7.000000 
v 45.000000 10.000000 8.000000 
v 47.000000 11.000000 -7.000000 
v 46.000000 6.000000 -8.000000 
v 36.000000 11.000000 -11.000000 
v 36.000000 16.000000 -7.000000 
v 36.000000 16.000000 -7.000000 
v 47.000000 11.000000 -7.000000 
v 46.000000 6.000000 -8.000000 
v 22.000000 1.000000 -11.000000 
v 16.000000 6.000000 -9.000000 
v 7.000000 2.000000 -10.000000 
v 7.000000 2.000000 -10.000000 
v 16.000000 0.000000 -15.000000 
v 22.000000 1.000000 -11.000000 
v 16.000000 0.000000 -15.000000 
v 7.000000 2.000000 -10.000000 
v 7.000000 10.000000 -13.000000 
v 7.000000 10.000000 -13.000000 
v 18.000000 4.000000 -16.000000 
v 16.000000 0.000000 -15.000000 
v 22.000000 7.000000 -13.000000 
v 18.000000 12.000000 -11.000000 
v 16.000000 6.000000 -9.000000 
v 16.000000 6.000000 -9.000000 
v 22.000000 1.000000 -11.000000 
v 22.000000 7.000000 -13.000000 
v 18.000000 4.000000 -16.000000 
v 7.000000 10.000000 -13.000000 
v 18.000000 12.000000 -11.000000 
v 18.000000 12.000000 -11.000000 
v 22.000000 7.000000 -13.000000 
v 18.000000 4.000000 -16.000000 
v 26.000000 0.000000 -11.000000 
v 22.000000 1.000000 -11.000000 
v 16.000000 0.000000 -15.000000 
v 16.000000 0.000000 -15.000000 
v 25.000000 -4.000000 -14.000000 
v 26.000000 0.000000 -11.000000 
v 29.000000 5.000000 -15.000000 
v 22.000000 7.000000 -13.000000 
v 22.000000 1.000000 -11.000000 
v 22.000000 1.000000 -11.000000 
v 26.000000 0.000000 -11.000000 
v 29.000000 5.000000 -15.000000 
v 27.000000 0.000000 -17.000000 
v 18.000000 4.000000 -16.000000 
v 22.000000 7.000000 -13.000000 
v 22.000000 7.000000 -13.000000 
v 29.000000 5.000000 -15.000000 
v 27.000000 0.000000 -17.000000 
v 25.000000 -4.000000 -14.000000 
v 16.000000 0.000000 -15.000000 
v 18.000000 4.000000 -16.000000 
v 18.000000 4.000000 -16.000000 
v 27.000000 0.000000 -17.000000 
v 25.000000 -4.000000 -14.000000 
v 7.000000 3.000000 6.000000 
v 21.000000 12.000000 13.000000 
v 7.000000 9.000000 12.000000 
v 21.000000 12.000000 13.000000 
v 7.000000 3.000000 6.000000 
v 7.000000 2.000000 -10.000000 
v 16.000000 6.000000 -9.000000 
v 21.000000 12.000000 13.000000 
v 7.000000 2.000000 -10.000000 
v 18.000000 12.000000 -11.000000 
v 21.000000 12.000000 13.000000 
v 16.000000 6.000000 -9.000000 
vn -0.992920 0.000000 -0.117188 
vn -0.595947 -0.673828 -0.436279 
vn -0.664551 -0.628174 0.404297 
vn -0.099609 -0.895508 0.433105 
vn -0.664551 -0.628174 0.404297 
vn -0.595947 -0.673828 -0.436279 
vn -0.595947 -0.673828 -0.436279 
vn -0.108154 -0.993896 -0.005371 
vn -0.099609 -0.895508 0.433105 
vn -0.730225 0.510498 0.453613 
vn -0.642822 0.681396 -0.349365 
vn -0.992920 0.000000 -0.117188 
vn -0.322998 0.809326 0.490234 
vn -0.359131 0.821777 -0.441895 
vn -0.642822 0.681396 -0.349365 
vn -0.642822 0.681396 -0.349365 
vn -0.730225 0.510498 0.453613 
vn -0.322998 0.809326 0.490234 
vn 0.042969 0.948242 0.314209 
vn 0.046875 0.715576 -0.696533 
vn -0.359131 0.821777 -0.441895 
vn -0.359131 0.821777 -0.441895 
vn -0.322998 0.809326 0.490234 
vn 0.042969 0.948242 0.314209 
vn -0.617432 0.092529 -0.781006 
vn -0.595947 -0.673828 -0.436279 
vn -0.992920 0.000000 -0.117188 
vn -0.364258 0.109375 -0.924561 
vn -0.108154 -0.993896 -0.005371 
vn -0.595947 -0.673828 -0.436279 
vn -0.595947 -0.673828 -0.436279 
vn -0.617432 0.092529 -0.781006 
vn -0.364258 0.109375 -0.924561 
vn 0.889648 0.151367 0.430420 
vn 0.221436 -0.446289 0.866699 
vn 0.485840 -0.825195 -0.287842 
vn 0.485840 -0.825195 -0.287842 
vn 0.263428 0.027100 -0.964111 
vn 0.889648 0.151367 0.430420 
vn -0.642822 0.681396 -0.349365 
vn -0.617432 0.092529 -0.781006 
vn -0.992920 0.000000 -0.117188 
vn -0.359131 0.821777 -0.441895 
vn -0.364258 0.109375 -0.924561 
vn -0.617432 0.092529 -0.781006 
vn -0.617432 0.092529 -0.781006 
vn -0.642822 0.681396 -0.349365 
vn -0.359131 0.821777 -0.441895 
vn 0.046875 0.715576 -0.696533 
vn 0.497559 -0.229736 -0.836426 
vn -0.364258 0.109375 -0.924561 
vn -0.364258 0.109375 -0.924561 
vn -0.359131 0.821777 -0.441895 
vn 0.046875 0.715576 -0.696533 
vn 0.796875 0.380615 0.468994 
vn 0.234863 -0.815674 0.528320 
vn 0.810791 -0.056396 -0.582275 
vn 0.810791 -0.056396 -0.582275 
vn 0.755127 0.606445 -0.248535 
vn 0.796875 0.380615 0.468994 
vn -0.689941 -0.165039 0.704590 
vn -0.664551 -0.628174 0.404297 
vn -0.099609 -0.895508 0.433105 
vn -0.099609 -0.895508 0.433105 
vn -0.394287 -0.129883 0.909668 
vn -0.689941 -0.165039 0.704590 
vn -0.664551 -0.628174 0.404297 
vn -0.689941 -0.165039 0.704590 
vn -0.992920 0.000000 -0.117188 
vn -0.322998 0.809326 0.490234 
vn -0.394287 -0.129883 0.909668 
vn 0.396484 -0.366211 0.841553 
vn 0.396484 -0.366211 0.841553 
vn 0.042969 0.948242 0.314209 
vn -0.322998 0.809326 0.490234 
vn -0.730225 0.510498 0.453613 
vn -0.689941 -0.165039 0.704590 
vn -0.394287 -0.129883 0.909668 
vn -0.394287 -0.129883 0.909668 
vn -0.322998 0.809326 0.490234 
vn -0.730225 0.510498 0.453613 
vn -0.689941 -0.165039 0.704590 
vn -0.730225 0.510498 0.453613 
vn -0.992920 0.000000 -0.117188 
vn 0.314941 0.824463 -0.469482 
vn 0.046875 0.715576 -0.696533 
vn 0.042969 0.948242 0.314209 
vn 0.042969 0.948242 0.314209 
vn 0.330566 0.821289 0.464355 
vn 0.314941 0.824463 -0.469482 
vn -0.084717 -0.501465 -0.860840 
vn 0.497559 -0.229736 -0.836426 
vn 0.046875 0.715576 -0.696533 
vn 0.046875 0.715576 -0.696533 
vn 0.314941 0.824463 -0.469482 
vn -0.084717 -0.501465 -0.860840 
vn 0.079346 -0.516846 0.852295 
vn 0.396484 -0.366211 0.841553 
vn 0.497559 -0.229736 -0.836426 
vn 0.497559 -0.229736 -0.836426 
vn -0.084717 -0.501465 -0.860840 
vn 0.079346 -0.516846 0.852295 
vn 0.330566 0.821289 0.464355 
vn 0.042969 0.948242 0.314209 
vn 0.396484 -0.366211 0.841553 
vn 0.396484 -0.366211 0.841553 
vn 0.079346 -0.516846 0.852295 
vn 0.330566 0.821289 0.464355 
vn 0.234863 -0.815674 0.528320 
vn 0.079346 -0.516846 0.852295 
vn -0.084717 -0.501465 -0.860840 
vn -0.084717 -0.501465 -0.860840 
vn 0.810791 -0.056396 -0.582275 
vn 0.234863 -0.815674 0.528320 
vn 0.796875 0.380615 0.468994 
vn 0.330566 0.821289 0.464355 
vn 0.079346 -0.516846 0.852295 
vn 0.079346 -0.516846 0.852295 
vn 0.234863 -0.815674 0.528320 
vn 0.796875 0.380615 0.468994 
vn 0.755127 0.606445 -0.248535 
vn 0.314941 0.824463 -0.469482 
vn 0.330566 0.821289 0.464355 
vn 0.330566 0.821289 0.464355 
vn 0.796875 0.380615 0.468994 
vn 0.755127 0.606445 -0.248535 
vn 0.810791 -0.056396 -0.582275 
vn -0.084717 -0.501465 -0.860840 
vn 0.314941 0.824463 -0.469482 
vn 0.314941 0.824463 -0.469482 
vn 0.755127 0.606445 -0.248535 
vn 0.810791 -0.056396 -0.582275 
vn 0.183350 -0.252930 0.949707 
vn 0.622803 -0.318848 0.714111 
vn -0.108154 -0.993896 -0.005371 
vn -0.108154 -0.993896 -0.005371 
vn -0.401855 -0.843506 -0.355957 
vn 0.183350 -0.252930 0.949707 
vn -0.401855 -0.843506 -0.355957 
vn -0.108154 -0.993896 -0.005371 
vn -0.364258 0.109375 -0.924561 
vn -0.364258 0.109375 -0.924561 
vn -0.028809 0.145264 -0.988770 
vn -0.401855 -0.843506 -0.355957 
vn 0.606201 0.795166 -0.004395 
vn 0.497559 -0.229736 -0.836426 
vn 0.622803 -0.318848 0.714111 
vn 0.622803 -0.318848 0.714111 
vn 0.183350 -0.252930 0.949707 
vn 0.606201 0.795166 -0.004395 
vn -0.028809 0.145264 -0.988770 
vn -0.364258 0.109375 -0.924561 
vn 0.497559 -0.229736 -0.836426 
vn 0.497559 -0.229736 -0.836426 
vn 0.606201 0.795166 -0.004395 
vn -0.028809 0.145264 -0.988770 
vn 0.221436 -0.446289 0.866699 
vn 0.183350 -0.252930 0.949707 
vn -0.401855 -0.843506 -0.355957 
vn -0.401855 -0.843506 -0.355957 
vn 0.485840 -0.825195 -0.287842 
vn 0.221436 -0.446289 0.866699 
vn 0.889648 0.151367 0.430420 
vn 0.606201 0.795166 -0.004395 
vn 0.183350 -0.252930 0.949707 
vn 0.183350 -0.252930 0.949707 
vn 0.221436 -0.446289 0.866699 
vn 0.889648 0.151367 0.430420 
vn 0.263428 0.027100 -0.964111 
vn -0.028809 0.145264 -0.988770 
vn 0.606201 0.795166 -0.004395 
vn 0.606201 0.795166 -0.004395 
vn 0.889648 0.151367 0.430420 
vn 0.263428 0.027100 -0.964111 
vn 0.485840 -0.825195 -0.287842 
vn -0.401855 -0.843506 -0.355957 
vn -0.028809 0.145264 -0.988770 
vn -0.028809 0.145264 -0.988770 
vn 0.263428 0.027100 -0.964111 
vn 0.485840 -0.825195 -0.287842 
vn -0.099609 -0.895508 0.433105 
vn 0.396484 -0.366211 0.841553 
vn -0.394287 -0.129883 0.909668 
vn 0.396484 -0.366211 0.841553 
vn -0.099609 -0.895508 0.433105 
vn -0.108154 -0.993896 -0.005371 
vn 0.622803 -0.318848 0.714111 
vn 0.396484 -0.366211 0.841553 
vn -0.108154 -0.993896 -0.005371 
vn 0.497559 -0.229736 -0.836426 
vn 0.396484 -0.366211 0.841553 
vn 0.622803 -0.318848 0.714111 
vt 0.142857 0.936508 
vt 0.095238 0.952381 
vt 0.333333 0.968254 
vt 0.412698 0.857143 
vt 0.333333 0.968254 
vt 0.095238 0.952381 
vt 0.095238 0.952381 
vt 0.015873 0.761905 
vt 0.412698 0.857143 
vt 0.063492 0.793651 
vt 0.269841 0.793651 
vt 0.142857 0.936508 
vt 0.428571 0.888889 
vt 0.063492 0.936508 
vt 0.269841 0.793651 
vt 0.269841 0.793651 
vt 0.063492 0.793651 
vt 0.428571 0.888889 
vt 0.476190 0.571429 
vt 0.079365 0.587302 
vt 0.063492 0.936508 
vt 0.063492 0.936508 
vt 0.428571 0.888889 
vt 0.476190 0.571429 
vt 0.158730 0.936508 
vt 0.095238 0.952381 
vt 0.142857 0.936508 
vt 0.015873 0.904762 
vt 0.015873 0.761905 
vt 0.095238 0.952381 
vt 0.095238 0.952381 
vt 0.158730 0.936508 
vt 0.015873 0.904762 
vt 0.015873 0.666667 
vt 0.174603 0.634921 
vt 0.158730 0.761905 
vt 0.158730 0.761905 
vt 0.079365 0.682540 
vt 0.015873 0.666667 
vt 0.269841 0.793651 
vt 0.158730 0.936508 
vt 0.190476 0.936508 
vt 0.063492 0.936508 
vt 0.015873 0.904762 
vt 0.158730 0.936508 
vt 0.158730 0.936508 
vt 0.269841 0.793651 
vt 0.063492 0.936508 
vt 0.079365 0.587302 
vt 0.015873 0.603175 
vt 0.015873 0.904762 
vt 0.015873 0.904762 
vt 0.063492 0.936508 
vt 0.079365 0.587302 
vt 0.476190 0.126984 
vt 0.460317 0.000000 
vt 0.000000 0.063492 
vt 0.000000 0.063492 
vt 0.000000 0.095238 
vt 0.476190 0.126984 
vt 0.015873 0.793651 
vt 0.333333 0.968254 
vt 0.412698 0.857143 
vt 0.412698 0.857143 
vt 0.380952 0.825397 
vt 0.015873 0.793651 
vt 0.333333 0.968254 
vt 0.015873 0.793651 
vt 0.000000 0.936508 
vt 0.428571 0.888889 
vt 0.380952 0.825397 
vt 0.412698 0.650794 
vt 0.412698 0.650794 
vt 0.476190 0.571429 
vt 0.428571 0.888889 
vt 0.063492 0.793651 
vt 0.015873 0.793651 
vt 0.380952 0.825397 
vt 0.380952 0.825397 
vt 0.428571 0.888889 
vt 0.063492 0.793651 
vt 0.015873 0.793651 
vt 0.063492 0.793651 
vt 0.031746 0.936508 
vt 0.079365 0.380952 
vt 0.079365 0.587302 
vt 0.476190 0.571429 
vt 0.476190 0.571429 
vt 0.476190 0.285714 
vt 0.079365 0.380952 
vt 0.000000 0.396825 
vt 0.015873 0.603175 
vt 0.079365 0.587302 
vt 0.079365 0.587302 
vt 0.079365 0.380952 
vt 0.000000 0.396825 
vt 0.412698 0.428571 
vt 0.412698 0.650794 
vt 0.015873 0.603175 
vt 0.015873 0.603175 
vt 0.000000 0.396825 
vt 0.412698 0.428571 
vt 0.476190 0.285714 
vt 0.476190 0.571429 
vt 0.412698 0.650794 
vt 0.412698 0.650794 
vt 0.412698 0.428571 
vt 0.476190 0.285714 
vt 0.460317 0.000000 
vt 0.412698 0.428571 
vt 0.000000 0.396825 
vt 0.000000 0.396825 
vt 0.000000 0.063492 
vt 0.460317 0.000000 
vt 0.476190 0.126984 
vt 0.476190 0.285714 
vt 0.412698 0.428571 
vt 0.412698 0.428571 
vt 0.460317 0.000000 
vt 0.476190 0.126984 
vt 0.000000 0.095238 
vt 0.079365 0.380952 
vt 0.476190 0.285714 
vt 0.476190 0.285714 
vt 0.476190 0.126984 
vt 0.000000 0.095238 
vt 0.000000 0.063492 
vt 0.000000 0.396825 
vt 0.079365 0.380952 
vt 0.079365 0.380952 
vt 0.000000 0.095238 
vt 0.000000 0.063492 
vt 0.158730 0.730159 
vt 0.063492 0.682540 
vt 0.015873 0.761905 
vt 0.015873 0.761905 
vt 0.222222 0.825397 
vt 0.158730 0.730159 
vt 0.222222 0.825397 
vt 0.015873 0.761905 
vt 0.015873 0.904762 
vt 0.015873 0.904762 
vt 0.142857 0.841270 
vt 0.222222 0.825397 
vt 0.015873 0.555556 
vt 0.015873 0.603175 
vt 0.095238 0.841270 
vt 0.095238 0.841270 
vt 0.095238 0.730159 
vt 0.015873 0.555556 
vt 0.142857 0.841270 
vt 0.015873 0.904762 
vt 0.015873 0.603175 
vt 0.015873 0.603175 
vt 0.015873 0.555556 
vt 0.142857 0.841270 
vt 0.174603 0.634921 
vt 0.142857 0.555556 
vt 0.222222 0.825397 
vt 0.222222 0.825397 
vt 0.158730 0.761905 
vt 0.174603 0.634921 
vt 0.047619 0.825397 
vt 0.047619 0.714286 
vt 0.174603 0.714286 
vt 0.174603 0.714286 
vt 0.206349 0.793651 
vt 0.047619 0.825397 
vt 0.079365 0.682540 
vt 0.142857 0.841270 
vt 0.015873 0.555556 
vt 0.015873 0.555556 
vt 0.015873 0.666667 
vt 0.079365 0.682540 
vt 0.158730 0.761905 
vt 0.222222 0.825397 
vt 0.142857 0.841270 
vt 0.142857 0.841270 
vt 0.079365 0.682540 
vt 0.158730 0.761905 
vt 0.412698 0.857143 
vt 0.412698 0.650794 
vt 0.380952 0.825397 
vt 0.412698 0.650794 
vt 0.412698 0.857143 
vt 0.015873 0.761905 
vt 0.031746 0.666667 
vt 0.412698 0.650794 
vt 0.015873 0.761905 
vt 0.015873 0.603175 
vt 0.412698 0.650794 
vt 0.000000 0.396825 
f 1/1/1 2/2/2 3/3/3
f 4/4/4 5/5/5 6/6/6
f 7/7/7 8/8/8 9/9/9
f 10/10/10 11/11/11 12/12/12
f 13/13/13 14/14/14 15/15/15
f 16/16/16 17/17/17 18/18/18
f 19/19/19 20/20/20 21/21/21
f 22/22/22 23/23/23 24/24/24
f 25/25/25 26/26/26 27/27/27
f 28/28/28 29/29/29 30/30/30
f 31/31/31 32/32/32 33/33/33
f 34/34/34 35/35/35 36/36/36
f 37/37/37 38/38/38 39/39/39
f 40/40/40 41/41/41 42/42/42
f 43/43/43 44/44/44 45/45/45
f 46/46/46 47/47/47 48/48/48
f 49/49/49 50/50/50 51/51/51
f 52/52/52 53/53/53 54/54/54
f 55/55/55 56/56/56 57/57/57
f 58/58/58 59/59/59 60/60/60
f 61/61/61 62/62/62 63/63/63
f 64/64/64 65/65/65 66/66/66
f 67/67/67 68/68/68 69/69/69
f 70/70/70 71/71/71 72/72/72
f 73/73/73 74/74/74 75/75/75
f 76/76/76 77/77/77 78/78/78
f 79/79/79 80/80/80 81/81/81
f 82/82/82 83/83/83 84/84/84
f 85/85/85 86/86/86 87/87/87
f 88/88/88 89/89/89 90/90/90
f 91/91/91 92/92/92 93/93/93
f 94/94/94 95/95/95 96/96/96
f 97/97/97 98/98/98 99/99/99
f 100/100/100 101/101/101 102/102/102
f 103/103/103 104/104/104 105/105/105
f 106/106/106 107/107/107 108/108/108
f 109/109/109 110/110/110 111/111/111
f 112/112/112 113/113/113 114/114/114
f 115/115/115 116/116/116 117/117/117
f 118/118/118 119/119/119 120/120/120
f 121/121/121 122/122/122 123/123/123
f 124/124/124 125/125/125 126/126/126
f 127/127/127 128/128/128 129/129/129
f 130/130/130 131/131/131 132/132/132
f 133/133/133 134/134/134 135/135/135
f 136/136/136 137/137/137 138/138/138
f 139/139/139 140/140/140 141/141/141
f 142/142/142 143/143/143 144/144/144
f 145/145/145 146/146/146 147/147/147
f 148/148/148 149/149/149 150/150/150
f 151/151/151 152/152/152 153/153/153
f 154/154/154 155/155/155 156/156/156
f 157/157/157 158/158/158 159/159/159
f 160/160/160 161/161/161 162/162/162
f 163/163/163 164/164/164 165/165/165
f 166/166/166 167/167/167 168/168/168
f 169/169/169 170/170/170 171/171/171
f 172/172/172 173/173/173 174/174/174
f 175/175/175 176/176/176 177/177/177
f 178/178/178 179/179/179 180/180/180
f 181/181/181 182/182/182 183/183/183
f 184/184/184 185/185/185 186/186/186
f 187/187/187 188/188/188 189/189/189
f 190/190/190 191/191/191 192/192/192
