v 0.000000 -2.000000 0.000000 
v 0.000000 0.000000 8.000000 
v -8.000000 0.000000 0.000000 
v 0.000000 -2.000000 0.000000 
v 8.000000 0.000000 0.000000 
v 0.000000 0.000000 8.000000 
v 0.000000 -2.000000 0.000000 
v 0.000000 0.000000 -8.000000 
v 8.000000 0.000000 0.000000 
v 0.000000 -2.000000 0.000000 
v -8.000000 0.000000 0.000000 
v 0.000000 0.000000 -8.000000 
v -8.000000 0.000000 0.000000 
v 0.000000 46.000000 9.000000 
v -11.000000 46.000000 -2.000000 
v -8.000000 0.000000 0.000000 
v 0.000000 0.000000 8.000000 
v 0.000000 46.000000 9.000000 
v 0.000000 0.000000 8.000000 
v 11.000000 46.000000 -2.000000 
v 0.000000 46.000000 9.000000 
v 0.000000 0.000000 8.000000 
v 8.000000 0.000000 0.000000 
v 11.000000 46.000000 -2.000000 
v 8.000000 0.000000 0.000000 
v 0.000000 46.000000 -13.000000 
v 11.000000 46.000000 -2.000000 
v 8.000000 0.000000 0.000000 
v 0.000000 0.000000 -8.000000 
v 0.000000 46.000000 -13.000000 
v 0.000000 0.000000 -8.000000 
v -11.000000 46.000000 -2.000000 
v 0.000000 46.000000 -13.000000 
v 0.000000 0.000000 -8.000000 
v -8.000000 0.000000 0.000000 
v -11.000000 46.000000 -2.000000 
v 0.000000 43.000000 -2.000000 
v -11.000000 46.000000 -2.000000 
v 0.000000 46.000000 9.000000 
v 0.000000 43.000000 -2.000000 
v 0.000000 46.000000 9.000000 
v 11.000000 46.000000 -2.000000 
v 0.000000 43.000000 -2.000000 
v 11.000000 46.000000 -2.000000 
v 0.000000 46.000000 -13.000000 
v 0.000000 43.000000 -2.000000 
v 0.000000 46.000000 -13.000000 
v -11.000000 46.000000 -2.000000 
vn 0.000000 -1.000000 0.000000 
vn 0.000000 -0.965576 0.259521 
vn -0.259521 -0.965576 0.000000 
vn 0.000000 -1.000000 0.000000 
vn 0.259521 -0.965576 0.000000 
vn 0.000000 -0.965576 0.259521 
vn 0.000000 -1.000000 0.000000 
vn 0.000000 -0.965576 -0.259521 
vn 0.259521 -0.965576 0.000000 
vn 0.000000 -1.000000 0.000000 
vn -0.259521 -0.965576 0.000000 
vn 0.000000 -0.965576 -0.259521 
vn -0.946045 -0.064941 0.316895 
vn -0.315918 -0.038086 0.947754 
vn -0.945068 -0.092041 -0.313477 
vn -0.946045 -0.064941 0.316895 
vn 0.315918 -0.038330 0.947754 
vn -0.315918 -0.038086 0.947754 
vn 0.315918 -0.038330 0.947754 
vn 0.946045 -0.065674 0.316895 
vn -0.315918 -0.038086 0.947754 
vn 0.315918 -0.038330 0.947754 
vn 0.944824 -0.093018 -0.313477 
vn 0.946045 -0.065674 0.316895 
vn 0.944824 -0.093018 -0.313477 
vn 0.313721 -0.119385 -0.941650 
vn 0.946045 -0.065674 0.316895 
vn 0.944824 -0.093018 -0.313477 
vn -0.313965 -0.119141 -0.941895 
vn 0.313721 -0.119385 -0.941650 
vn -0.313965 -0.119141 -0.941895 
vn -0.945068 -0.092041 -0.313477 
vn 0.313721 -0.119385 -0.941650 
vn -0.313965 -0.119141 -0.941895 
vn -0.946045 -0.064941 0.316895 
vn -0.945068 -0.092041 -0.313477 
vn 0.000000 1.000000 0.000000 
vn 0.212891 0.976807 0.000000 
vn 0.000000 0.976807 -0.212891 
vn 0.000000 1.000000 0.000000 
vn 0.000000 0.976807 -0.212891 
vn -0.212891 0.976807 0.000000 
vn 0.000000 1.000000 0.000000 
vn -0.212891 0.976807 0.000000 
vn 0.000000 0.976807 0.212891 
vn 0.000000 1.000000 0.000000 
vn 0.000000 0.976807 0.212891 
vn 0.212891 0.976807 0.000000 
vt 0.858268 0.031496 
vt 0.992126 0.204724 
vt 0.929134 0.181102 
vt 0.858268 0.031496 
vt 0.740157 0.212598 
vt 0.992126 0.204724 
vt 0.858268 0.031496 
vt 0.858268 0.196850 
vt 0.740157 0.212598 
vt 0.858268 0.031496 
vt 0.929134 0.181102 
vt 0.858268 0.196850 
vt 0.669291 0.196850 
vt 0.858268 0.976378 
vt 0.637795 0.984252 
vt 0.669291 0.196850 
vt 0.866142 0.196850 
vt 0.858268 0.976378 
vt 0.992126 0.204724 
vt 0.732283 0.976378 
vt 0.984252 0.984252 
vt 0.992126 0.204724 
vt 0.740157 0.212598 
vt 0.732283 0.976378 
vt 0.740157 0.212598 
vt 0.811024 0.984252 
vt 0.732283 0.976378 
vt 0.740157 0.212598 
vt 0.858268 0.196850 
vt 0.811024 0.984252 
vt 0.858268 0.196850 
vt 0.905512 0.968504 
vt 0.811024 0.984252 
vt 0.858268 0.196850 
vt 0.929134 0.181102 
vt 0.905512 0.968504 
vt 0.889764 0.992126 
vt 0.905512 0.968504 
vt 0.984252 0.984252 
vt 0.889764 0.992126 
vt 0.984252 0.984252 
vt 0.732283 0.976378 
vt 0.889764 0.992126 
vt 0.732283 0.976378 
vt 0.811024 0.984252 
vt 0.889764 0.992126 
vt 0.811024 0.984252 
vt 0.905512 0.968504 
f 1/1/1 2/2/2 3/3/3
f 4/4/4 5/5/5 6/6/6
f 7/7/7 8/8/8 9/9/9
f 10/10/10 11/11/11 12/12/12
f 13/13/13 14/14/14 15/15/15
f 16/16/16 17/17/17 18/18/18
f 19/19/19 20/20/20 21/21/21
f 22/22/22 23/23/23 24/24/24
f 25/25/25 26/26/26 27/27/27
f 28/28/28 29/29/29 30/30/30
f 31/31/31 32/32/32 33/33/33
f 34/34/34 35/35/35 36/36/36
f 37/37/37 38/38/38 39/39/39
f 40/40/40 41/41/41 42/42/42
f 43/43/43 44/44/44 45/45/45
f 46/46/46 47/47/47 48/48/48
