v -6.000000 21.000000 4.000000 
v 0.000000 21.000000 8.000000 
v 0.000000 26.000000 0.000000 
v -8.000000 21.000000 -5.000000 
v -6.000000 21.000000 4.000000 
v 0.000000 26.000000 0.000000 
v 0.000000 21.000000 -8.000000 
v -8.000000 21.000000 -5.000000 
v 0.000000 26.000000 0.000000 
v 8.000000 21.000000 -5.000000 
v 0.000000 21.000000 -8.000000 
v 0.000000 26.000000 0.000000 
v 6.000000 21.000000 4.000000 
v 8.000000 21.000000 -5.000000 
v 0.000000 26.000000 0.000000 
v 0.000000 21.000000 8.000000 
v 6.000000 21.000000 4.000000 
v 0.000000 26.000000 0.000000 
v -7.000000 0.000000 4.000000 
v 0.000000 0.000000 8.000000 
v 0.000000 21.000000 8.000000 
v -6.000000 21.000000 4.000000 
v -7.000000 0.000000 4.000000 
v 0.000000 21.000000 8.000000 
v -9.000000 -4.000000 -6.000000 
v -7.000000 0.000000 4.000000 
v -6.000000 21.000000 4.000000 
v -8.000000 21.000000 -5.000000 
v -9.000000 -4.000000 -6.000000 
v -6.000000 21.000000 4.000000 
v 0.000000 -4.000000 -9.000000 
v -9.000000 -4.000000 -6.000000 
v -8.000000 21.000000 -5.000000 
v 0.000000 21.000000 -8.000000 
v 0.000000 -4.000000 -9.000000 
v -8.000000 21.000000 -5.000000 
v 9.000000 -4.000000 -6.000000 
v 0.000000 -4.000000 -9.000000 
v 0.000000 21.000000 -8.000000 
v 8.000000 21.000000 -5.000000 
v 9.000000 -4.000000 -6.000000 
v 0.000000 21.000000 -8.000000 
v 7.000000 0.000000 4.000000 
v 9.000000 -4.000000 -6.000000 
v 8.000000 21.000000 -5.000000 
v 6.000000 21.000000 4.000000 
v 7.000000 0.000000 4.000000 
v 8.000000 21.000000 -5.000000 
v 0.000000 0.000000 8.000000 
v 7.000000 0.000000 4.000000 
v 6.000000 21.000000 4.000000 
v 0.000000 21.000000 8.000000 
v 0.000000 0.000000 8.000000 
v 6.000000 21.000000 4.000000 
v 0.000000 0.000000 8.000000 
v -7.000000 0.000000 4.000000 
v 0.000000 -6.000000 1.000000 
v -7.000000 0.000000 4.000000 
v -9.000000 -4.000000 -6.000000 
v 0.000000 -6.000000 1.000000 
v -9.000000 -4.000000 -6.000000 
v 0.000000 -4.000000 -9.000000 
v 0.000000 -6.000000 1.000000 
v 0.000000 -4.000000 -9.000000 
v 9.000000 -4.000000 -6.000000 
v 0.000000 -6.000000 1.000000 
v 9.000000 -4.000000 -6.000000 
v 7.000000 0.000000 4.000000 
v 0.000000 -6.000000 1.000000 
v 7.000000 0.000000 4.000000 
v 0.000000 0.000000 8.000000 
v 0.000000 -6.000000 1.000000 
vn -0.790527 0.420410 0.444824 
vn -0.127197 0.437012 0.890137 
vn 0.000000 0.999268 0.035156 
vn -0.610840 0.516846 -0.599365 
vn -0.790527 0.420410 0.444824 
vn 0.000000 0.999268 0.035156 
vn 0.066406 0.435059 -0.897705 
vn -0.610840 0.516846 -0.599365 
vn 0.000000 0.999268 0.035156 
vn 0.814453 0.508057 -0.279297 
vn 0.066406 0.435059 -0.897705 
vn 0.000000 0.999268 0.035156 
vn 0.670654 0.424316 0.608154 
vn 0.814453 0.508057 -0.279297 
vn 0.000000 0.999268 0.035156 
vn -0.127197 0.437012 0.890137 
vn 0.670654 0.424316 0.608154 
vn 0.000000 0.999268 0.035156 
vn -0.670898 -0.313232 0.671875 
vn 0.122803 -0.315186 0.940918 
vn -0.127197 0.437012 0.890137 
vn -0.790527 0.420410 0.444824 
vn -0.670898 -0.313232 0.671875 
vn -0.127197 0.437012 0.890137 
vn -0.855225 -0.506104 -0.109863 
vn -0.670898 -0.313232 0.671875 
vn -0.790527 0.420410 0.444824 
vn -0.610840 0.516846 -0.599365 
vn -0.855225 -0.506104 -0.109863 
vn -0.790527 0.420410 0.444824 
vn -0.066650 -0.484619 -0.872070 
vn -0.855225 -0.506104 -0.109863 
vn -0.610840 0.516846 -0.599365 
vn 0.066406 0.435059 -0.897705 
vn -0.066650 -0.484619 -0.872070 
vn -0.610840 0.516846 -0.599365 
vn 0.683594 -0.531250 -0.500000 
vn -0.066650 -0.484619 -0.872070 
vn 0.066406 0.435059 -0.897705 
vn 0.814453 0.508057 -0.279297 
vn 0.683594 -0.531250 -0.500000 
vn 0.066406 0.435059 -0.897705 
vn 0.787842 -0.321777 0.524658 
vn 0.683594 -0.531250 -0.500000 
vn 0.814453 0.508057 -0.279297 
vn 0.670654 0.424316 0.608154 
vn 0.787842 -0.321777 0.524658 
vn 0.814453 0.508057 -0.279297 
vn 0.122803 -0.315186 0.940918 
vn 0.787842 -0.321777 0.524658 
vn 0.670654 0.424316 0.608154 
vn -0.127197 0.437012 0.890137 
vn 0.122803 -0.315186 0.940918 
vn 0.670654 0.424316 0.608154 
vn 0.122803 -0.315186 0.940918 
vn -0.670898 -0.313232 0.671875 
vn 0.000000 -0.944580 0.327393 
vn -0.670898 -0.313232 0.671875 
vn -0.855225 -0.506104 -0.109863 
vn 0.000000 -0.944580 0.327393 
vn -0.855225 -0.506104 -0.109863 
vn -0.066650 -0.484619 -0.872070 
vn 0.000000 -0.944580 0.327393 
vn -0.066650 -0.484619 -0.872070 
vn 0.683594 -0.531250 -0.500000 
vn 0.000000 -0.944580 0.327393 
vn 0.683594 -0.531250 -0.500000 
vn 0.787842 -0.321777 0.524658 
vn 0.000000 -0.944580 0.327393 
vn 0.787842 -0.321777 0.524658 
vn 0.122803 -0.315186 0.940918 
vn 0.000000 -0.944580 0.327393 
vt 0.032258 0.870968 
vt 0.161290 0.870968 
vt 0.161290 0.967742 
vt 0.000000 0.870968 
vt 0.032258 0.870968 
vt 0.161290 0.967742 
vt 0.161290 0.870968 
vt 0.000000 0.870968 
vt 0.161290 0.967742 
vt 0.354839 0.870968 
vt 0.161290 0.870968 
vt 0.161290 0.967742 
vt 0.322581 0.870968 
vt 0.354839 0.870968 
vt 0.161290 0.967742 
vt 0.161290 0.870968 
vt 0.322581 0.870968 
vt 0.161290 0.967742 
vt 0.032258 0.419355 
vt 0.161290 0.419355 
vt 0.161290 0.870968 
vt 0.032258 0.870968 
vt 0.032258 0.419355 
vt 0.161290 0.870968 
vt 0.000000 0.322581 
vt 0.032258 0.419355 
vt 0.032258 0.870968 
vt 0.000000 0.870968 
vt 0.000000 0.322581 
vt 0.032258 0.870968 
vt 0.161290 0.354839 
vt 0.000000 0.322581 
vt 0.000000 0.870968 
vt 0.161290 0.870968 
vt 0.161290 0.354839 
vt 0.000000 0.870968 
vt 0.354839 0.322581 
vt 0.161290 0.354839 
vt 0.161290 0.870968 
vt 0.354839 0.870968 
vt 0.354839 0.322581 
vt 0.161290 0.870968 
vt 0.322581 0.419355 
vt 0.354839 0.322581 
vt 0.354839 0.870968 
vt 0.322581 0.870968 
vt 0.322581 0.419355 
vt 0.354839 0.870968 
vt 0.161290 0.419355 
vt 0.322581 0.419355 
vt 0.322581 0.870968 
vt 0.161290 0.870968 
vt 0.161290 0.419355 
vt 0.322581 0.870968 
vt 0.161290 0.419355 
vt 0.032258 0.419355 
vt 0.161290 0.290323 
vt 0.032258 0.419355 
vt 0.000000 0.322581 
vt 0.161290 0.290323 
vt 0.000000 0.322581 
vt 0.161290 0.354839 
vt 0.161290 0.290323 
vt 0.161290 0.354839 
vt 0.354839 0.322581 
vt 0.161290 0.290323 
vt 0.354839 0.322581 
vt 0.322581 0.419355 
vt 0.161290 0.290323 
vt 0.322581 0.419355 
vt 0.161290 0.419355 
vt 0.161290 0.290323 
f 1/1/1 2/2/2 3/3/3
f 4/4/4 5/5/5 6/6/6
f 7/7/7 8/8/8 9/9/9
f 10/10/10 11/11/11 12/12/12
f 13/13/13 14/14/14 15/15/15
f 16/16/16 17/17/17 18/18/18
f 19/19/19 20/20/20 21/21/21
f 22/22/22 23/23/23 24/24/24
f 25/25/25 26/26/26 27/27/27
f 28/28/28 29/29/29 30/30/30
f 31/31/31 32/32/32 33/33/33
f 34/34/34 35/35/35 36/36/36
f 37/37/37 38/38/38 39/39/39
f 40/40/40 41/41/41 42/42/42
f 43/43/43 44/44/44 45/45/45
f 46/46/46 47/47/47 48/48/48
f 49/49/49 50/50/50 51/51/51
f 52/52/52 53/53/53 54/54/54
f 55/55/55 56/56/56 57/57/57
f 58/58/58 59/59/59 60/60/60
f 61/61/61 62/62/62 63/63/63
f 64/64/64 65/65/65 66/66/66
f 67/67/67 68/68/68 69/69/69
f 70/70/70 71/71/71 72/72/72
