v 44.000000 2.000000 89.000000 
v -43.000000 2.000000 -89.000000 
v -43.000000 2.000000 89.000000 
v -43.000000 2.000000 -89.000000 
v 44.000000 2.000000 89.000000 
v 44.000000 2.000000 -89.000000 
v 43.000000 -2.000000 87.000000 
v -43.000000 -2.000000 86.000000 
v -44.000000 -1.000000 -89.000000 
v -44.000000 -1.000000 -89.000000 
v 42.000000 -2.000000 -88.000000 
v 43.000000 -2.000000 87.000000 
vn 0.000000 1.000000 0.000000 
vn 0.000000 1.000000 0.000000 
vn 0.000000 1.000000 0.000000 
vn 0.000000 1.000000 0.000000 
vn 0.000000 1.000000 0.000000 
vn 0.000000 1.000000 0.000000 
vn -0.013672 -0.999756 -0.014404 
vn -0.013672 -0.999756 -0.014404 
vn -0.013672 -0.999756 -0.014404 
vn -0.013672 -0.999756 -0.014404 
vn -0.013672 -0.999756 -0.014404 
vn -0.013672 -0.999756 -0.014404 
vt 0.746032 1.000000 
vt 0.507937 0.492063 
vt 0.507937 1.000000 
vt 0.507937 0.492063 
vt 0.746032 1.000000 
vt 0.746032 0.492063 
vt 0.746032 1.000000 
vt 0.507937 1.000000 
vt 0.507937 0.492063 
vt 0.507937 0.492063 
vt 0.746032 0.492063 
vt 0.746032 1.000000 
f 1/1/1 2/2/2 3/3/3
f 4/4/4 5/5/5 6/6/6
f 7/7/7 8/8/8 9/9/9
f 10/10/10 11/11/11 12/12/12
