v 8.000000 0.000000 8.000000 
v -8.000000 0.000000 8.000000 
v -8.000000 0.000000 0.000000 
v -8.000000 0.000000 0.000000 
v 8.000000 0.000000 0.000000 
v 8.000000 0.000000 8.000000 
v 7.000000 18.000000 5.000000 
v 7.000000 18.000000 -8.000000 
v -7.000000 18.000000 -8.000000 
v -7.000000 18.000000 -8.000000 
v -7.000000 18.000000 5.000000 
v 7.000000 18.000000 5.000000 
v 8.000000 4.000000 -3.000000 
v 8.000000 0.000000 0.000000 
v -8.000000 0.000000 0.000000 
v -8.000000 0.000000 0.000000 
v -8.000000 4.000000 -3.000000 
v 8.000000 4.000000 -3.000000 
v 9.000000 13.000000 -35.000000 
v 11.000000 0.000000 -38.000000 
v -11.000000 0.000000 -38.000000 
v -11.000000 0.000000 -38.000000 
v -9.000000 13.000000 -35.000000 
v 9.000000 13.000000 -35.000000 
v 8.000000 4.000000 8.000000 
v 8.000000 0.000000 8.000000 
v 8.000000 0.000000 0.000000 
v 8.000000 0.000000 0.000000 
v 8.000000 4.000000 -3.000000 
v 8.000000 4.000000 8.000000 
v 7.000000 18.000000 5.000000 
v 8.000000 4.000000 8.000000 
v 8.000000 4.000000 -3.000000 
v 8.000000 4.000000 -3.000000 
v 7.000000 18.000000 -8.000000 
v 7.000000 18.000000 5.000000 
v -8.000000 4.000000 8.000000 
v -8.000000 0.000000 8.000000 
v 8.000000 0.000000 8.000000 
v 8.000000 0.000000 8.000000 
v 8.000000 4.000000 8.000000 
v -8.000000 4.000000 8.000000 
v -7.000000 18.000000 5.000000 
v -8.000000 4.000000 8.000000 
v 8.000000 4.000000 8.000000 
v 8.000000 4.000000 8.000000 
v 7.000000 18.000000 5.000000 
v -7.000000 18.000000 5.000000 
v -8.000000 4.000000 -3.000000 
v -8.000000 0.000000 0.000000 
v -8.000000 0.000000 8.000000 
v -8.000000 0.000000 8.000000 
v -8.000000 4.000000 8.000000 
v -8.000000 4.000000 -3.000000 
v -7.000000 18.000000 -8.000000 
v -8.000000 4.000000 -3.000000 
v -8.000000 4.000000 8.000000 
v -8.000000 4.000000 8.000000 
v -7.000000 18.000000 5.000000 
v -7.000000 18.000000 -8.000000 
v -8.000000 13.000000 -21.000000 
v -7.000000 18.000000 -8.000000 
v 7.000000 18.000000 -8.000000 
v 7.000000 18.000000 -8.000000 
v 8.000000 13.000000 -21.000000 
v -8.000000 13.000000 -21.000000 
v 10.000000 0.000000 -19.000000 
v 8.000000 4.000000 -3.000000 
v -8.000000 4.000000 -3.000000 
v -8.000000 4.000000 -3.000000 
v -10.000000 0.000000 -19.000000 
v 10.000000 0.000000 -19.000000 
v 8.000000 13.000000 -21.000000 
v 7.000000 18.000000 -8.000000 
v 8.000000 4.000000 -3.000000 
v 8.000000 4.000000 -3.000000 
v 10.000000 0.000000 -19.000000 
v 8.000000 13.000000 -21.000000 
v -10.000000 0.000000 -19.000000 
v -8.000000 4.000000 -3.000000 
v -7.000000 18.000000 -8.000000 
v -7.000000 18.000000 -8.000000 
v -8.000000 13.000000 -21.000000 
v -10.000000 0.000000 -19.000000 
v 11.000000 0.000000 -38.000000 
v 10.000000 0.000000 -19.000000 
v -10.000000 0.000000 -19.000000 
v -10.000000 0.000000 -19.000000 
v -11.000000 0.000000 -38.000000 
v 11.000000 0.000000 -38.000000 
v 9.000000 13.000000 -35.000000 
v 8.000000 13.000000 -21.000000 
v 10.000000 0.000000 -19.000000 
v 10.000000 0.000000 -19.000000 
v 11.000000 0.000000 -38.000000 
v 9.000000 13.000000 -35.000000 
v -9.000000 13.000000 -35.000000 
v -8.000000 13.000000 -21.000000 
v 8.000000 13.000000 -21.000000 
v 8.000000 13.000000 -21.000000 
v 9.000000 13.000000 -35.000000 
v -9.000000 13.000000 -35.000000 
v -11.000000 0.000000 -38.000000 
v -10.000000 0.000000 -19.000000 
v -8.000000 13.000000 -21.000000 
v -8.000000 13.000000 -21.000000 
v -9.000000 13.000000 -35.000000 
v -11.000000 0.000000 -38.000000 
vn 0.000000 -1.000000 0.000000 
vn 0.000000 -1.000000 0.000000 
vn 0.000000 -1.000000 0.000000 
vn 0.000000 -1.000000 0.000000 
vn 0.000000 -1.000000 0.000000 
vn 0.000000 -1.000000 0.000000 
vn 0.000000 1.000000 0.000000 
vn 0.000000 1.000000 0.000000 
vn 0.000000 1.000000 0.000000 
vn 0.000000 1.000000 0.000000 
vn 0.000000 1.000000 0.000000 
vn 0.000000 1.000000 0.000000 
vn 0.000000 -0.540771 -0.841064 
vn 0.000000 -0.540771 -0.841064 
vn 0.000000 -0.540771 -0.841064 
vn 0.000000 -0.540771 -0.841064 
vn 0.000000 -0.540771 -0.841064 
vn 0.000000 -0.540771 -0.841064 
vn 0.000000 0.262695 -0.964844 
vn 0.000000 0.262695 -0.964844 
vn 0.000000 0.262695 -0.964844 
vn 0.000000 0.262695 -0.964844 
vn 0.000000 0.262695 -0.964844 
vn 0.000000 0.262695 -0.964844 
vn 0.999512 0.025146 0.000000 
vn 1.000000 0.000000 0.000000 
vn 1.000000 0.000000 0.000000 
vn 1.000000 0.000000 0.000000 
vn 0.998535 0.050537 0.000000 
vn 0.999512 0.025146 0.000000 
vn 0.997070 0.075684 0.000000 
vn 0.999512 0.025146 0.000000 
vn 0.998535 0.050537 0.000000 
vn 0.998535 0.050537 0.000000 
vn 0.997070 0.075684 0.000000 
vn 0.997070 0.075684 0.000000 
vn 0.000000 0.062744 0.997803 
vn 0.000000 0.000000 1.000000 
vn 0.000000 0.000000 1.000000 
vn 0.000000 0.000000 1.000000 
vn 0.000000 0.125488 0.991943 
vn 0.000000 0.062744 0.997803 
vn 0.000000 0.187744 0.982178 
vn 0.000000 0.062744 0.997803 
vn 0.000000 0.125488 0.991943 
vn 0.000000 0.125488 0.991943 
vn 0.000000 0.187744 0.982178 
vn 0.000000 0.187744 0.982178 
vn -0.999512 0.025146 0.000000 
vn -1.000000 0.000000 0.000000 
vn -1.000000 0.000000 0.000000 
vn -1.000000 0.000000 0.000000 
vn -0.998535 0.050537 0.000000 
vn -0.999512 0.025146 0.000000 
vn -0.997070 0.075684 0.000000 
vn -0.999512 0.025146 0.000000 
vn -0.998535 0.050537 0.000000 
vn -0.998535 0.050537 0.000000 
vn -0.997070 0.075684 0.000000 
vn -0.997070 0.075684 0.000000 
vn 0.000000 0.916260 -0.400146 
vn 0.000000 0.916260 -0.400146 
vn 0.000000 0.916260 -0.400146 
vn 0.000000 0.916260 -0.400146 
vn 0.000000 0.916260 -0.400146 
vn 0.000000 0.916260 -0.400146 
vn 0.000000 -0.979980 0.198975 
vn 0.000000 -0.979980 0.198975 
vn 0.000000 -0.979980 0.198975 
vn 0.000000 -0.979980 0.198975 
vn 0.000000 -0.979980 0.198975 
vn 0.000000 -0.979980 0.198975 
vn 0.991943 0.098633 0.076172 
vn 0.991943 0.098633 0.076172 
vn 0.991943 0.098633 0.076172 
vn 0.987305 0.129150 0.091064 
vn 0.987305 0.129150 0.091064 
vn 0.987305 0.129150 0.091064 
vn -0.989746 0.104736 0.096191 
vn -0.989746 0.104736 0.096191 
vn -0.989746 0.104736 0.096191 
vn -0.989990 0.124756 0.064453 
vn -0.989990 0.124756 0.064453 
vn -0.989990 0.124756 0.064453 
vn 0.000000 -0.999756 0.018311 
vn 0.000000 -0.999756 0.018311 
vn 0.000000 -0.999756 0.018311 
vn 0.000000 -0.999756 0.018311 
vn 0.000000 -0.999756 0.018311 
vn 0.000000 -0.999756 0.018311 
vn 0.990234 0.124023 0.060547 
vn 0.990234 0.124023 0.060547 
vn 0.990234 0.124023 0.060547 
vn 0.993164 0.105225 0.045654 
vn 0.993164 0.105225 0.045654 
vn 0.993164 0.105225 0.045654 
vn 0.000000 0.999512 0.022217 
vn 0.000000 0.999512 0.022217 
vn 0.000000 0.999512 0.022217 
vn 0.000000 0.999512 0.022217 
vn 0.000000 0.999512 0.022217 
vn 0.000000 0.999512 0.022217 
vn -0.991455 0.121582 0.045166 
vn -0.991455 0.121582 0.045166 
vn -0.991455 0.121582 0.045166 
vn -0.992920 0.101318 0.060059 
vn -0.992920 0.101318 0.060059 
vn -0.992920 0.101318 0.060059 
vt 0.000000 1.000000 
vt 0.000000 0.857143 
vt 0.174603 0.857143 
vt 0.174603 0.857143 
vt 0.174603 1.000000 
vt 0.000000 1.000000 
vt 0.412698 0.761905 
vt 0.412698 0.587302 
vt 0.158730 0.587302 
vt 0.158730 0.587302 
vt 0.158730 0.761905 
vt 0.412698 0.761905 
vt 0.222222 1.000000 
vt 0.174603 1.000000 
vt 0.174603 0.857143 
vt 0.174603 0.857143 
vt 0.222222 0.857143 
vt 0.222222 1.000000 
vt 0.476190 0.015873 
vt 0.587302 -0.015873 
vt 0.000000 -0.015873 
vt 0.000000 -0.015873 
vt 0.063492 0.000000 
vt 0.476190 0.015873 
vt 0.412698 0.825397 
vt 0.412698 0.825397 
vt 0.571429 0.825397 
vt 0.571429 0.825397 
vt 0.587302 0.730159 
vt 0.412698 0.825397 
vt 0.412698 0.761905 
vt 0.412698 0.825397 
vt 0.587302 0.730159 
vt 0.587302 0.730159 
vt 0.412698 0.587302 
vt 0.412698 0.761905 
vt 0.142857 0.825397 
vt 0.142857 0.825397 
vt 0.412698 0.825397 
vt 0.412698 0.825397 
vt 0.412698 0.825397 
vt 0.142857 0.825397 
vt 0.158730 0.761905 
vt 0.142857 0.825397 
vt 0.412698 0.825397 
vt 0.412698 0.825397 
vt 0.412698 0.761905 
vt 0.158730 0.761905 
vt 0.000000 0.730159 
vt 0.000000 0.825397 
vt 0.142857 0.825397 
vt 0.142857 0.825397 
vt 0.142857 0.825397 
vt 0.000000 0.730159 
vt 0.158730 0.587302 
vt 0.000000 0.730159 
vt 0.142857 0.825397 
vt 0.142857 0.825397 
vt 0.158730 0.761905 
vt 0.158730 0.587302 
vt 0.063492 0.507937 
vt 0.158730 0.587302 
vt 0.412698 0.587302 
vt 0.412698 0.587302 
vt 0.476190 0.507937 
vt 0.063492 0.507937 
vt 0.444444 1.000000 
vt 0.222222 1.000000 
vt 0.222222 0.857143 
vt 0.222222 0.857143 
vt 0.444444 0.857143 
vt 0.444444 1.000000 
vt 0.476190 0.507937 
vt 0.412698 0.587302 
vt 0.587302 0.730159 
vt 0.587302 0.730159 
vt 0.587302 0.476190 
vt 0.476190 0.507937 
vt 0.000000 0.492063 
vt 0.000000 0.730159 
vt 0.158730 0.587302 
vt 0.158730 0.587302 
vt 0.063492 0.507937 
vt 0.000000 0.492063 
vt 0.666667 1.000000 
vt 0.444444 1.000000 
vt 0.444444 0.857143 
vt 0.444444 0.857143 
vt 0.666667 0.857143 
vt 0.666667 1.000000 
vt 0.476190 0.015873 
vt 0.476190 0.507937 
vt 0.587302 0.476190 
vt 0.587302 0.476190 
vt 0.587302 -0.015873 
vt 0.476190 0.015873 
vt 0.063492 0.000000 
vt 0.063492 0.507937 
vt 0.476190 0.507937 
vt 0.476190 0.507937 
vt 0.476190 0.015873 
vt 0.063492 0.000000 
vt 0.000000 -0.015873 
vt 0.000000 0.492063 
vt 0.063492 0.507937 
vt 0.063492 0.507937 
vt 0.063492 0.000000 
vt 0.000000 -0.015873 
f 1/1/1 2/2/2 3/3/3
f 4/4/4 5/5/5 6/6/6
f 7/7/7 8/8/8 9/9/9
f 10/10/10 11/11/11 12/12/12
f 13/13/13 14/14/14 15/15/15
f 16/16/16 17/17/17 18/18/18
f 19/19/19 20/20/20 21/21/21
f 22/22/22 23/23/23 24/24/24
f 25/25/25 26/26/26 27/27/27
f 28/28/28 29/29/29 30/30/30
f 31/31/31 32/32/32 33/33/33
f 34/34/34 35/35/35 36/36/36
f 37/37/37 38/38/38 39/39/39
f 40/40/40 41/41/41 42/42/42
f 43/43/43 44/44/44 45/45/45
f 46/46/46 47/47/47 48/48/48
f 49/49/49 50/50/50 51/51/51
f 52/52/52 53/53/53 54/54/54
f 55/55/55 56/56/56 57/57/57
f 58/58/58 59/59/59 60/60/60
f 61/61/61 62/62/62 63/63/63
f 64/64/64 65/65/65 66/66/66
f 67/67/67 68/68/68 69/69/69
f 70/70/70 71/71/71 72/72/72
f 73/73/73 74/74/74 75/75/75
f 76/76/76 77/77/77 78/78/78
f 79/79/79 80/80/80 81/81/81
f 82/82/82 83/83/83 84/84/84
f 85/85/85 86/86/86 87/87/87
f 88/88/88 89/89/89 90/90/90
f 91/91/91 92/92/92 93/93/93
f 94/94/94 95/95/95 96/96/96
f 97/97/97 98/98/98 99/99/99
f 100/100/100 101/101/101 102/102/102
f 103/103/103 104/104/104 105/105/105
f 106/106/106 107/107/107 108/108/108
