v -8.000000 0.000000 0.000000 
v 0.000000 19.000000 2.000000 
v -7.000000 19.000000 -5.000000 
v -8.000000 0.000000 0.000000 
v 0.000000 -1.000000 8.000000 
v 0.000000 19.000000 2.000000 
v 0.000000 -1.000000 8.000000 
v 8.000000 19.000000 -5.000000 
v 0.000000 19.000000 2.000000 
v 0.000000 -1.000000 8.000000 
v 8.000000 0.000000 0.000000 
v 8.000000 19.000000 -5.000000 
v 8.000000 0.000000 0.000000 
v 0.000000 19.000000 -13.000000 
v 8.000000 19.000000 -5.000000 
v 8.000000 0.000000 0.000000 
v 0.000000 0.000000 -7.000000 
v 0.000000 19.000000 -13.000000 
v 0.000000 0.000000 -7.000000 
v -7.000000 19.000000 -5.000000 
v 0.000000 19.000000 -13.000000 
v 0.000000 0.000000 -7.000000 
v -8.000000 0.000000 0.000000 
v -7.000000 19.000000 -5.000000 
v 0.000000 24.000000 -5.000000 
v -7.000000 19.000000 -5.000000 
v 0.000000 19.000000 2.000000 
v 0.000000 24.000000 -5.000000 
v 0.000000 19.000000 2.000000 
v 8.000000 19.000000 -5.000000 
v 0.000000 24.000000 -5.000000 
v 8.000000 19.000000 -5.000000 
v 0.000000 19.000000 -13.000000 
v 0.000000 24.000000 -5.000000 
v 0.000000 19.000000 -13.000000 
v -7.000000 19.000000 -5.000000 
v -10.000000 -9.000000 5.000000 
v 0.000000 -1.000000 12.000000 
v -10.000000 -1.000000 6.000000 
v -10.000000 -9.000000 5.000000 
v 0.000000 -10.000000 11.000000 
v 0.000000 -1.000000 12.000000 
v 0.000000 -10.000000 11.000000 
v 10.000000 -1.000000 6.000000 
v 0.000000 -1.000000 12.000000 
v 0.000000 -10.000000 11.000000 
v 10.000000 -9.000000 5.000000 
v 10.000000 -1.000000 6.000000 
v 10.000000 -9.000000 5.000000 
v 10.000000 0.000000 -5.000000 
v 10.000000 -1.000000 6.000000 
v 10.000000 -9.000000 5.000000 
v 10.000000 -8.000000 -6.000000 
v 10.000000 0.000000 -5.000000 
v 10.000000 -8.000000 -6.000000 
v 0.000000 1.000000 -12.000000 
v 10.000000 0.000000 -5.000000 
v 10.000000 -8.000000 -6.000000 
v 0.000000 -7.000000 -12.000000 
v 0.000000 1.000000 -12.000000 
v 0.000000 -7.000000 -12.000000 
v -10.000000 0.000000 -5.000000 
v 0.000000 1.000000 -12.000000 
v 0.000000 -7.000000 -12.000000 
v -10.000000 -8.000000 -6.000000 
v -10.000000 0.000000 -5.000000 
v -10.000000 -8.000000 -6.000000 
v -10.000000 -1.000000 6.000000 
v -10.000000 0.000000 -5.000000 
v -10.000000 -8.000000 -6.000000 
v -10.000000 -9.000000 5.000000 
v -10.000000 -1.000000 6.000000 
v 0.000000 -8.000000 0.000000 
v -10.000000 -1.000000 6.000000 
v 0.000000 -1.000000 12.000000 
v 0.000000 -8.000000 0.000000 
v 0.000000 -1.000000 12.000000 
v 10.000000 -1.000000 6.000000 
v 0.000000 -8.000000 0.000000 
v 10.000000 -1.000000 6.000000 
v 10.000000 0.000000 -5.000000 
v 0.000000 -8.000000 0.000000 
v 10.000000 0.000000 -5.000000 
v 0.000000 1.000000 -12.000000 
v 0.000000 -8.000000 0.000000 
v 0.000000 1.000000 -12.000000 
v -10.000000 0.000000 -5.000000 
v 0.000000 -8.000000 0.000000 
v -10.000000 0.000000 -5.000000 
v -10.000000 -1.000000 6.000000 
vn -0.941406 0.112793 0.317139 
vn -0.294189 0.261719 0.918945 
vn -0.943848 -0.063721 -0.323975 
vn -0.941406 0.112793 0.317139 
vn 0.306396 0.248047 0.918945 
vn -0.294189 0.261719 0.918945 
vn 0.306396 0.248047 0.918945 
vn 0.943359 0.074707 0.322510 
vn -0.294189 0.261719 0.918945 
vn 0.306396 0.248047 0.918945 
vn 0.941895 -0.104248 -0.318604 
vn 0.943359 0.074707 0.322510 
vn 0.941895 -0.104248 -0.318604 
vn 0.294678 -0.260742 -0.919189 
vn 0.943359 0.074707 0.322510 
vn 0.941895 -0.104248 -0.318604 
vn -0.307861 -0.248047 -0.918213 
vn 0.294678 -0.260742 -0.919189 
vn -0.307861 -0.248047 -0.918213 
vn -0.943848 -0.063721 -0.323975 
vn 0.294678 -0.260742 -0.919189 
vn -0.307861 -0.248047 -0.918213 
vn -0.941406 0.112793 0.317139 
vn -0.943848 -0.063721 -0.323975 
vn 0.000732 0.999756 -0.007568 
vn -0.556396 0.830566 -0.006104 
vn 0.000488 0.835693 0.549072 
vn 0.000732 0.999756 -0.007568 
vn 0.000488 0.835693 0.549072 
vn 0.558105 0.829590 -0.006104 
vn 0.000732 0.999756 -0.007568 
vn 0.558105 0.829590 -0.006104 
vn 0.000488 0.824463 -0.565674 
vn 0.000732 0.999756 -0.007568 
vn 0.000488 0.824463 -0.565674 
vn -0.556396 0.830566 -0.006104 
vn -0.753662 -0.065430 0.653564 
vn -0.186035 -0.097656 0.977539 
vn -0.943848 -0.032959 0.328125 
vn -0.753662 -0.065430 0.653564 
vn 0.190918 -0.097412 0.976562 
vn -0.186035 -0.097656 0.977539 
vn 0.190918 -0.097412 0.976562 
vn 0.757080 -0.064697 0.649902 
vn -0.186035 -0.097656 0.977539 
vn 0.190918 -0.097412 0.976562 
vn 0.945557 -0.031982 0.323486 
vn 0.757080 -0.064697 0.649902 
vn 0.945557 -0.031982 0.323486 
vn 0.943848 0.032959 -0.328125 
vn 0.757080 -0.064697 0.649902 
vn 0.945557 -0.031982 0.323486 
vn 0.753662 0.065430 -0.653564 
vn 0.943848 0.032959 -0.328125 
vn 0.753662 0.065430 -0.653564 
vn 0.186035 0.097656 -0.977539 
vn 0.943848 0.032959 -0.328125 
vn 0.753662 0.065430 -0.653564 
vn -0.190918 0.097412 -0.976562 
vn 0.186035 0.097656 -0.977539 
vn -0.190918 0.097412 -0.976562 
vn -0.757080 0.064697 -0.649902 
vn 0.186035 0.097656 -0.977539 
vn -0.190918 0.097412 -0.976562 
vn -0.945557 0.031982 -0.323486 
vn -0.757080 0.064697 -0.649902 
vn -0.945557 0.031982 -0.323486 
vn -0.943848 -0.032959 0.328125 
vn -0.757080 0.064697 -0.649902 
vn -0.945557 0.031982 -0.323486 
vn -0.753662 -0.065430 0.653564 
vn -0.943848 -0.032959 0.328125 
vn -0.000244 0.992432 0.121094 
vn 0.461426 0.872070 -0.162109 
vn -0.001465 0.903320 -0.428467 
vn -0.000244 0.992432 0.121094 
vn -0.001465 0.903320 -0.428467 
vn -0.463135 0.871582 -0.159668 
vn -0.000244 0.992432 0.121094 
vn -0.463135 0.871582 -0.159668 
vn -0.458008 0.808594 0.368896 
vn -0.000244 0.992432 0.121094 
vn -0.458008 0.808594 0.368896 
vn 0.000977 0.777344 0.628662 
vn -0.000244 0.992432 0.121094 
vn 0.000977 0.777344 0.628662 
vn 0.458984 0.809082 0.366455 
vn -0.000244 0.992432 0.121094 
vn 0.458984 0.809082 0.366455 
vn 0.461426 0.872070 -0.162109 
vt 0.354839 0.193548 
vt 0.548387 0.516129 
vt 0.354839 0.516129 
vt 0.354839 0.193548 
vt 0.548387 0.193548 
vt 0.548387 0.516129 
vt 0.709677 0.193548 
vt 0.548387 0.516129 
vt 0.709677 0.516129 
vt 0.709677 0.193548 
vt 0.548387 0.193548 
vt 0.548387 0.516129 
vt 0.000000 0.193548 
vt 0.161290 0.516129 
vt 0.000000 0.516129 
vt 0.000000 0.193548 
vt 0.161290 0.193548 
vt 0.161290 0.516129 
vt 0.161290 0.193548 
vt 0.354839 0.516129 
vt 0.161290 0.516129 
vt 0.161290 0.193548 
vt 0.354839 0.193548 
vt 0.354839 0.516129 
vt 0.193548 0.645161 
vt 0.322581 0.516129 
vt 0.483871 0.516129 
vt 0.193548 0.645161 
vt 0.000000 0.580645 
vt 0.000000 0.516129 
vt 0.193548 0.645161 
vt 0.000000 0.516129 
vt 0.161290 0.516129 
vt 0.193548 0.645161 
vt 0.161290 0.516129 
vt 0.322581 0.516129 
vt 0.193548 0.193548 
vt 0.064516 0.000000 
vt 0.193548 0.000000 
vt 0.193548 0.193548 
vt 0.064516 0.193548 
vt 0.064516 0.000000 
vt 0.806452 0.193548 
vt 0.709677 0.000000 
vt 0.806452 0.000000 
vt 0.806452 0.193548 
vt 0.709677 0.193548 
vt 0.709677 0.000000 
vt 0.709677 0.193548 
vt 0.580645 0.000000 
vt 0.709677 0.000000 
vt 0.709677 0.193548 
vt 0.580645 0.193548 
vt 0.580645 0.000000 
vt 0.580645 0.193548 
vt 0.451613 0.000000 
vt 0.580645 0.000000 
vt 0.580645 0.193548 
vt 0.451613 0.193548 
vt 0.451613 0.000000 
vt 0.451613 0.193548 
vt 0.322581 0.000000 
vt 0.451613 0.000000 
vt 0.451613 0.193548 
vt 0.322581 0.193548 
vt 0.322581 0.000000 
vt 0.322581 0.193548 
vt 0.193548 0.000000 
vt 0.322581 0.000000 
vt 0.322581 0.193548 
vt 0.193548 0.193548 
vt 0.193548 0.000000 
vt 0.580645 0.096774 
vt 0.677419 0.000000 
vt 0.774194 0.000000 
vt 0.580645 0.096774 
vt 0.322581 0.000000 
vt 0.387097 0.000000 
vt 0.580645 0.096774 
vt 0.387097 0.000000 
vt 0.483871 0.000000 
vt 0.580645 0.096774 
vt 0.483871 0.000000 
vt 0.548387 0.000000 
vt 0.580645 0.096774 
vt 0.548387 0.000000 
vt 0.612903 0.000000 
vt 0.580645 0.096774 
vt 0.612903 0.000000 
vt 0.677419 0.000000 
f 1/1/1 2/2/2 3/3/3
f 4/4/4 5/5/5 6/6/6
f 7/7/7 8/8/8 9/9/9
f 10/10/10 11/11/11 12/12/12
f 13/13/13 14/14/14 15/15/15
f 16/16/16 17/17/17 18/18/18
f 19/19/19 20/20/20 21/21/21
f 22/22/22 23/23/23 24/24/24
f 25/25/25 26/26/26 27/27/27
f 28/28/28 29/29/29 30/30/30
f 31/31/31 32/32/32 33/33/33
f 34/34/34 35/35/35 36/36/36
f 37/37/37 38/38/38 39/39/39
f 40/40/40 41/41/41 42/42/42
f 43/43/43 44/44/44 45/45/45
f 46/46/46 47/47/47 48/48/48
f 49/49/49 50/50/50 51/51/51
f 52/52/52 53/53/53 54/54/54
f 55/55/55 56/56/56 57/57/57
f 58/58/58 59/59/59 60/60/60
f 61/61/61 62/62/62 63/63/63
f 64/64/64 65/65/65 66/66/66
f 67/67/67 68/68/68 69/69/69
f 70/70/70 71/71/71 72/72/72
f 73/73/73 74/74/74 75/75/75
f 76/76/76 77/77/77 78/78/78
f 79/79/79 80/80/80 81/81/81
f 82/82/82 83/83/83 84/84/84
f 85/85/85 86/86/86 87/87/87
f 88/88/88 89/89/89 90/90/90
