v -82.000000 447.000000 64.000000 
v -175.000000 4.000000 -306.000000 
v -389.000000 4.000000 -308.000000 
v -389.000000 4.000000 -308.000000 
v -251.000000 447.000000 64.000000 
v -82.000000 447.000000 64.000000 
v 182.000000 447.000000 64.000000 
v 104.000000 4.000000 -306.000000 
v -175.000000 4.000000 -306.000000 
v -175.000000 4.000000 -306.000000 
v -82.000000 447.000000 64.000000 
v 182.000000 447.000000 64.000000 
v 182.000000 447.000000 64.000000 
v 349.000000 4.000000 -306.000000 
v 104.000000 4.000000 -306.000000 
v -251.000000 447.000000 64.000000 
v -389.000000 4.000000 -308.000000 
v -349.000000 4.000000 11.000000 
v -349.000000 4.000000 11.000000 
v -348.000000 4.000000 668.000000 
v -251.000000 447.000000 64.000000 
v 182.000000 447.000000 64.000000 
v 331.000000 447.000000 64.000000 
v 349.000000 4.000000 -306.000000 
vn 0.001709 0.642578 -0.765869 
vn 0.001709 0.642090 -0.766357 
vn -0.427002 0.656006 -0.622070 
vn -0.427002 0.656006 -0.622070 
vn -0.843994 0.458740 -0.277588 
vn 0.001709 0.642578 -0.765869 
vn 0.000000 0.642334 -0.766113 
vn 0.000000 0.642334 -0.766113 
vn 0.001709 0.642090 -0.766357 
vn 0.001709 0.642090 -0.766357 
vn 0.001709 0.642578 -0.765869 
vn 0.000000 0.642334 -0.766113 
vn 0.000000 0.642334 -0.766113 
vn 0.000000 0.642334 -0.766113 
vn 0.000000 0.642334 -0.766113 
vn -0.843994 0.458740 -0.277588 
vn -0.427002 0.656006 -0.622070 
vn -0.976074 0.207764 0.062012 
vn -0.976074 0.207764 0.062012 
vn -0.976318 0.215088 0.000244 
vn -0.843994 0.458740 -0.277588 
vn 0.000000 0.642334 -0.766113 
vn 0.000000 0.642334 -0.766113 
vn 0.000000 0.642334 -0.766113 
vt 0.387097 0.580645 
vt 0.290323 -0.032258 
vt 0.000000 -0.032258 
vt 0.000000 -0.032258 
vt 0.000000 0.580645 
vt 0.387097 0.580645 
vt 0.677419 0.580645 
vt 0.645161 -0.032258 
vt 0.290323 -0.032258 
vt 0.290323 -0.032258 
vt 0.387097 0.580645 
vt 0.677419 0.580645 
vt 1.000000 0.580645 
vt 1.000000 -0.032258 
vt 0.645161 -0.032258 
vt 0.483871 0.580645 
vt 0.741935 -0.032258 
vt 0.516129 -0.032258 
vt 0.516129 -0.032258 
vt 0.225806 -0.032258 
vt 0.483871 0.580645 
vt 0.322581 0.580645 
vt 0.870968 -0.032258 
vt 0.129032 -0.032258 
f 1/1/1 2/2/2 3/3/3
f 4/4/4 5/5/5 6/6/6
f 7/7/7 8/8/8 9/9/9
f 10/10/10 11/11/11 12/12/12
f 13/13/13 14/14/14 15/15/15
f 16/16/16 17/17/17 18/18/18
f 19/19/19 20/20/20 21/21/21
f 22/22/22 23/23/23 24/24/24
