v 22.000000 0.000000 46.000000 
v -22.000000 0.000000 -44.000000 
v -22.000000 0.000000 46.000000 
v -22.000000 0.000000 -44.000000 
v 22.000000 0.000000 46.000000 
v 22.000000 0.000000 -44.000000 
v 22.000000 0.000000 43.000000 
v -22.000000 0.000000 43.000000 
v -22.000000 0.000000 -46.000000 
v -22.000000 0.000000 -46.000000 
v 21.000000 0.000000 -46.000000 
v 22.000000 0.000000 43.000000 
vn 0.000000 1.000000 0.000000 
vn 0.000000 1.000000 0.000000 
vn 0.000000 1.000000 0.000000 
vn 0.000000 1.000000 0.000000 
vn 0.000000 1.000000 0.000000 
vn 0.000000 1.000000 0.000000 
vn -0.013672 -0.999756 -0.000732 
vn -0.013672 -0.999756 -0.000732 
vn -0.013672 -0.999756 -0.000732 
vn -0.013672 -0.999756 -0.000732 
vn -0.013672 -0.999756 -0.000732 
vn -0.013672 -0.999756 -0.000732 
vt 0.746032 1.000000 
vt 0.507937 0.492063 
vt 0.507937 1.000000 
vt 0.507937 0.492063 
vt 0.746032 1.000000 
vt 0.746032 0.492063 
vt 0.746032 1.000000 
vt 0.507937 1.000000 
vt 0.507937 0.492063 
vt 0.507937 0.492063 
vt 0.746032 0.492063 
vt 0.746032 1.000000 
f 1/1/1 2/2/2 3/3/3
f 4/4/4 5/5/5 6/6/6
f 7/7/7 8/8/8 9/9/9
f 10/10/10 11/11/11 12/12/12
