v 41.000000 0.000000 114.000000 
v -139.000000 0.000000 -75.000000 
v -139.000000 0.000000 114.000000 
v -139.000000 0.000000 -75.000000 
v 41.000000 0.000000 114.000000 
v 41.000000 0.000000 -75.000000 
vn 0.000000 1.000000 0.000000 
vn 0.000000 1.000000 0.000000 
vn 0.000000 1.000000 0.000000 
vn 0.000000 1.000000 0.000000 
vn 0.000000 1.000000 0.000000 
vn 0.000000 1.000000 0.000000 
vt 1.000000 1.000000 
vt 0.000000 -0.032258 
vt 0.000000 1.000000 
vt 0.000000 -0.032258 
vt 1.000000 1.000000 
vt 1.000000 -0.032258 
f 1/1/1 2/2/2 3/3/3
f 4/4/4 5/5/5 6/6/6
