v -6.000000 21.000000 3.000000 
v 0.000000 21.000000 7.000000 
v 0.000000 25.000000 0.000000 
v -8.000000 21.000000 -5.000000 
v -6.000000 21.000000 3.000000 
v 0.000000 25.000000 0.000000 
v 0.000000 21.000000 -7.000000 
v -8.000000 21.000000 -5.000000 
v 0.000000 25.000000 0.000000 
v 8.000000 21.000000 -5.000000 
v 0.000000 21.000000 -7.000000 
v 0.000000 25.000000 0.000000 
v 6.000000 21.000000 3.000000 
v 8.000000 21.000000 -5.000000 
v 0.000000 25.000000 0.000000 
v 0.000000 21.000000 7.000000 
v 6.000000 21.000000 3.000000 
v 0.000000 25.000000 0.000000 
v -8.000000 -3.000000 4.000000 
v 0.000000 -3.000000 9.000000 
v 0.000000 21.000000 7.000000 
v -6.000000 21.000000 3.000000 
v -8.000000 -3.000000 4.000000 
v 0.000000 21.000000 7.000000 
v -10.000000 0.000000 -4.000000 
v -8.000000 -3.000000 4.000000 
v -6.000000 21.000000 3.000000 
v -8.000000 21.000000 -5.000000 
v -10.000000 0.000000 -4.000000 
v -6.000000 21.000000 3.000000 
v 0.000000 0.000000 -7.000000 
v -10.000000 0.000000 -4.000000 
v -8.000000 21.000000 -5.000000 
v 0.000000 21.000000 -7.000000 
v 0.000000 0.000000 -7.000000 
v -8.000000 21.000000 -5.000000 
v 10.000000 0.000000 -4.000000 
v 0.000000 0.000000 -7.000000 
v 0.000000 21.000000 -7.000000 
v 8.000000 21.000000 -5.000000 
v 10.000000 0.000000 -4.000000 
v 0.000000 21.000000 -7.000000 
v 8.000000 -3.000000 4.000000 
v 10.000000 0.000000 -4.000000 
v 8.000000 21.000000 -5.000000 
v 6.000000 21.000000 3.000000 
v 8.000000 -3.000000 4.000000 
v 8.000000 21.000000 -5.000000 
v 0.000000 -3.000000 9.000000 
v 8.000000 -3.000000 4.000000 
v 6.000000 21.000000 3.000000 
v 0.000000 21.000000 7.000000 
v 0.000000 -3.000000 9.000000 
v 6.000000 21.000000 3.000000 
v 0.000000 -3.000000 9.000000 
v -8.000000 -3.000000 4.000000 
v 0.000000 -9.000000 0.000000 
v -8.000000 -3.000000 4.000000 
v -10.000000 0.000000 -4.000000 
v 0.000000 -9.000000 0.000000 
v -10.000000 0.000000 -4.000000 
v 0.000000 0.000000 -7.000000 
v 0.000000 -9.000000 0.000000 
v 0.000000 0.000000 -7.000000 
v 10.000000 0.000000 -4.000000 
v 0.000000 -9.000000 0.000000 
v 10.000000 0.000000 -4.000000 
v 8.000000 -3.000000 4.000000 
v 0.000000 -9.000000 0.000000 
v 8.000000 -3.000000 4.000000 
v 0.000000 -3.000000 9.000000 
v 0.000000 -9.000000 0.000000 
vn -0.763428 0.454834 0.458252 
vn -0.123535 0.458008 0.880127 
vn 0.000000 0.999268 0.035156 
vn -0.614014 0.503662 -0.607178 
vn -0.763428 0.454834 0.458252 
vn 0.000000 0.999268 0.035156 
vn 0.066162 0.386719 -0.919678 
vn -0.614014 0.503662 -0.607178 
vn 0.000000 0.999268 0.035156 
vn 0.809570 0.531006 -0.249512 
vn 0.066162 0.386719 -0.919678 
vn 0.000000 0.999268 0.035156 
vn 0.660156 0.448975 0.601807 
vn 0.809570 0.531006 -0.249512 
vn 0.000000 0.999268 0.035156 
vn -0.123535 0.458008 0.880127 
vn 0.660156 0.448975 0.601807 
vn 0.000000 0.999268 0.035156 
vn -0.710205 -0.363037 0.603027 
vn 0.128418 -0.380859 0.915527 
vn -0.123535 0.458008 0.880127 
vn -0.763428 0.454834 0.458252 
vn -0.710205 -0.363037 0.603027 
vn -0.123535 0.458008 0.880127 
vn -0.852295 -0.370605 -0.368896 
vn -0.710205 -0.363037 0.603027 
vn -0.763428 0.454834 0.458252 
vn -0.614014 0.503662 -0.607178 
vn -0.852295 -0.370605 -0.368896 
vn -0.763428 0.454834 0.458252 
vn -0.054199 -0.298340 -0.952637 
vn -0.852295 -0.370605 -0.368896 
vn -0.614014 0.503662 -0.607178 
vn 0.066162 0.386719 -0.919678 
vn -0.054199 -0.298340 -0.952637 
vn -0.614014 0.503662 -0.607178 
vn 0.627197 -0.385010 -0.677002 
vn -0.054199 -0.298340 -0.952637 
vn 0.066162 0.386719 -0.919678 
vn 0.809570 0.531006 -0.249512 
vn 0.627197 -0.385010 -0.677002 
vn 0.066162 0.386719 -0.919678 
vn 0.827148 -0.352051 0.437744 
vn 0.627197 -0.385010 -0.677002 
vn 0.809570 0.531006 -0.249512 
vn 0.660156 0.448975 0.601807 
vn 0.827148 -0.352051 0.437744 
vn 0.809570 0.531006 -0.249512 
vn 0.128418 -0.380859 0.915527 
vn 0.827148 -0.352051 0.437744 
vn 0.660156 0.448975 0.601807 
vn -0.123535 0.458008 0.880127 
vn 0.128418 -0.380859 0.915527 
vn 0.660156 0.448975 0.601807 
vn 0.128418 -0.380859 0.915527 
vn -0.710205 -0.363037 0.603027 
vn 0.000000 -0.988525 -0.150879 
vn -0.710205 -0.363037 0.603027 
vn -0.852295 -0.370605 -0.368896 
vn 0.000000 -0.988525 -0.150879 
vn -0.852295 -0.370605 -0.368896 
vn -0.054199 -0.298340 -0.952637 
vn 0.000000 -0.988525 -0.150879 
vn -0.054199 -0.298340 -0.952637 
vn 0.627197 -0.385010 -0.677002 
vn 0.000000 -0.988525 -0.150879 
vn 0.627197 -0.385010 -0.677002 
vn 0.827148 -0.352051 0.437744 
vn 0.000000 -0.988525 -0.150879 
vn 0.827148 -0.352051 0.437744 
vn 0.128418 -0.380859 0.915527 
vn 0.000000 -0.988525 -0.150879 
vt 0.064516 0.935484 
vt 0.161290 0.935484 
vt 0.161290 0.967742 
vt 0.032258 0.935484 
vt 0.064516 0.935484 
vt 0.161290 0.967742 
vt 0.161290 0.935484 
vt 0.032258 0.935484 
vt 0.161290 0.967742 
vt 0.322581 0.935484 
vt 0.161290 0.935484 
vt 0.161290 0.967742 
vt 0.290323 0.935484 
vt 0.322581 0.935484 
vt 0.161290 0.967742 
vt 0.161290 0.935484 
vt 0.290323 0.935484 
vt 0.161290 0.967742 
vt 0.032258 0.709677 
vt 0.161290 0.709677 
vt 0.161290 0.935484 
vt 0.064516 0.935484 
vt 0.032258 0.709677 
vt 0.161290 0.935484 
vt 0.000000 0.741935 
vt 0.032258 0.709677 
vt 0.064516 0.935484 
vt 0.032258 0.935484 
vt 0.000000 0.741935 
vt 0.064516 0.935484 
vt 0.161290 0.741935 
vt 0.000000 0.741935 
vt 0.032258 0.935484 
vt 0.161290 0.935484 
vt 0.161290 0.741935 
vt 0.032258 0.935484 
vt 0.354839 0.741935 
vt 0.161290 0.741935 
vt 0.161290 0.935484 
vt 0.322581 0.935484 
vt 0.354839 0.741935 
vt 0.161290 0.935484 
vt 0.290323 0.709677 
vt 0.354839 0.741935 
vt 0.322581 0.935484 
vt 0.290323 0.935484 
vt 0.290323 0.709677 
vt 0.322581 0.935484 
vt 0.161290 0.709677 
vt 0.290323 0.709677 
vt 0.290323 0.935484 
vt 0.161290 0.935484 
vt 0.161290 0.709677 
vt 0.290323 0.935484 
vt 0.161290 0.709677 
vt 0.032258 0.709677 
vt 0.161290 0.677419 
vt 0.032258 0.709677 
vt 0.000000 0.741935 
vt 0.161290 0.677419 
vt 0.000000 0.741935 
vt 0.161290 0.741935 
vt 0.161290 0.677419 
vt 0.161290 0.741935 
vt 0.354839 0.741935 
vt 0.161290 0.677419 
vt 0.354839 0.741935 
vt 0.290323 0.709677 
vt 0.161290 0.677419 
vt 0.290323 0.709677 
vt 0.161290 0.709677 
vt 0.161290 0.677419 
f 1/1/1 2/2/2 3/3/3
f 4/4/4 5/5/5 6/6/6
f 7/7/7 8/8/8 9/9/9
f 10/10/10 11/11/11 12/12/12
f 13/13/13 14/14/14 15/15/15
f 16/16/16 17/17/17 18/18/18
f 19/19/19 20/20/20 21/21/21
f 22/22/22 23/23/23 24/24/24
f 25/25/25 26/26/26 27/27/27
f 28/28/28 29/29/29 30/30/30
f 31/31/31 32/32/32 33/33/33
f 34/34/34 35/35/35 36/36/36
f 37/37/37 38/38/38 39/39/39
f 40/40/40 41/41/41 42/42/42
f 43/43/43 44/44/44 45/45/45
f 46/46/46 47/47/47 48/48/48
f 49/49/49 50/50/50 51/51/51
f 52/52/52 53/53/53 54/54/54
f 55/55/55 56/56/56 57/57/57
f 58/58/58 59/59/59 60/60/60
f 61/61/61 62/62/62 63/63/63
f 64/64/64 65/65/65 66/66/66
f 67/67/67 68/68/68 69/69/69
f 70/70/70 71/71/71 72/72/72
