v 66.000000 39.000000 141.000000 
v 74.000000 0.000000 -141.000000 
v 46.000000 0.000000 -141.000000 
v 46.000000 0.000000 -141.000000 
v 46.000000 39.000000 141.000000 
v 66.000000 39.000000 141.000000 
vn 0.000000 0.985107 -0.171143 
vn 0.000000 0.985107 -0.171143 
vn 0.000000 0.985107 -0.171143 
vn 0.000000 0.985107 -0.171143 
vn 0.000000 0.985107 -0.171143 
vn 0.000000 0.985107 -0.171143 
vt 1.000000 1.000000 
vt 1.000000 -0.032258 
vt 0.806452 -0.032258 
vt 0.806452 -0.032258 
vt 0.838710 1.000000 
vt 1.000000 1.000000 
f 1/1/1 2/2/2 3/3/3
f 4/4/4 5/5/5 6/6/6
