v 27.000000 7.000000 14.000000 
v 27.000000 11.000000 14.000000 
v 23.000000 11.000000 24.000000 
v 27.000000 7.000000 14.000000 
v 23.000000 11.000000 24.000000 
v 23.000000 7.000000 24.000000 
v 23.000000 7.000000 24.000000 
v 23.000000 11.000000 24.000000 
v 14.000000 11.000000 24.000000 
v 23.000000 7.000000 24.000000 
v 14.000000 11.000000 24.000000 
v 14.000000 7.000000 24.000000 
v 14.000000 7.000000 24.000000 
v 14.000000 11.000000 24.000000 
v 10.000000 11.000000 14.000000 
v 14.000000 7.000000 24.000000 
v 10.000000 11.000000 14.000000 
v 10.000000 7.000000 14.000000 
v 10.000000 7.000000 14.000000 
v 10.000000 11.000000 14.000000 
v 14.000000 11.000000 5.000000 
v 10.000000 7.000000 14.000000 
v 14.000000 11.000000 5.000000 
v 14.000000 7.000000 5.000000 
v 14.000000 7.000000 5.000000 
v 14.000000 11.000000 5.000000 
v 23.000000 11.000000 5.000000 
v 14.000000 7.000000 5.000000 
v 23.000000 11.000000 5.000000 
v 23.000000 7.000000 5.000000 
v 23.000000 7.000000 5.000000 
v 23.000000 11.000000 5.000000 
v 27.000000 11.000000 14.000000 
v 23.000000 7.000000 5.000000 
v 27.000000 11.000000 14.000000 
v 27.000000 7.000000 14.000000 
v 27.000000 11.000000 14.000000 
v 28.000000 18.000000 16.000000 
v 23.000000 18.000000 26.000000 
v 27.000000 11.000000 14.000000 
v 23.000000 18.000000 26.000000 
v 23.000000 11.000000 24.000000 
v 23.000000 11.000000 24.000000 
v 23.000000 18.000000 26.000000 
v 14.000000 18.000000 26.000000 
v 23.000000 11.000000 24.000000 
v 14.000000 18.000000 26.000000 
v 14.000000 11.000000 24.000000 
v 14.000000 11.000000 24.000000 
v 14.000000 18.000000 26.000000 
v 9.000000 18.000000 16.000000 
v 14.000000 11.000000 24.000000 
v 9.000000 18.000000 16.000000 
v 10.000000 11.000000 14.000000 
v 10.000000 11.000000 14.000000 
v 9.000000 18.000000 16.000000 
v 14.000000 18.000000 6.000000 
v 10.000000 11.000000 14.000000 
v 14.000000 18.000000 6.000000 
v 14.000000 11.000000 5.000000 
v 14.000000 11.000000 5.000000 
v 14.000000 18.000000 6.000000 
v 23.000000 18.000000 6.000000 
v 14.000000 11.000000 5.000000 
v 23.000000 18.000000 6.000000 
v 23.000000 11.000000 5.000000 
v 23.000000 11.000000 5.000000 
v 23.000000 18.000000 6.000000 
v 28.000000 18.000000 16.000000 
v 23.000000 11.000000 5.000000 
v 28.000000 18.000000 16.000000 
v 27.000000 11.000000 14.000000 
v 28.000000 18.000000 16.000000 
v 32.000000 31.000000 20.000000 
v 25.000000 31.000000 35.000000 
v 28.000000 18.000000 16.000000 
v 25.000000 31.000000 35.000000 
v 23.000000 18.000000 26.000000 
v 23.000000 18.000000 26.000000 
v 25.000000 31.000000 35.000000 
v 12.000000 31.000000 35.000000 
v 23.000000 18.000000 26.000000 
v 12.000000 31.000000 35.000000 
v 14.000000 18.000000 26.000000 
v 14.000000 18.000000 26.000000 
v 12.000000 31.000000 35.000000 
v 5.000000 31.000000 20.000000 
v 14.000000 18.000000 26.000000 
v 5.000000 31.000000 20.000000 
v 9.000000 18.000000 16.000000 
v 9.000000 18.000000 16.000000 
v 5.000000 31.000000 20.000000 
v 12.000000 31.000000 6.000000 
v 9.000000 18.000000 16.000000 
v 12.000000 31.000000 6.000000 
v 14.000000 18.000000 6.000000 
v 14.000000 18.000000 6.000000 
v 12.000000 31.000000 6.000000 
v 25.000000 31.000000 6.000000 
v 14.000000 18.000000 6.000000 
v 25.000000 31.000000 6.000000 
v 23.000000 18.000000 6.000000 
v 23.000000 18.000000 6.000000 
v 25.000000 31.000000 6.000000 
v 32.000000 31.000000 20.000000 
v 23.000000 18.000000 6.000000 
v 32.000000 31.000000 20.000000 
v 28.000000 18.000000 16.000000 
vn 0.981934 0.000000 0.188965 
vn 0.997559 -0.067871 -0.002686 
vn 0.499756 -0.124756 0.856934 
vn 0.981934 0.000000 0.188965 
vn 0.499756 -0.124756 0.856934 
vn 0.327148 0.000000 0.944824 
vn 0.327148 0.000000 0.944824 
vn 0.499756 -0.124756 0.856934 
vn -0.496826 -0.110840 0.860596 
vn 0.327148 0.000000 0.944824 
vn -0.496826 -0.110840 0.860596 
vn -0.654541 0.000000 0.755859 
vn -0.654541 0.000000 0.755859 
vn -0.496826 -0.110840 0.860596 
vn -0.999023 -0.038818 -0.001221 
vn -0.654541 0.000000 0.755859 
vn -0.999023 -0.038818 -0.001221 
vn -0.981934 0.000000 -0.188965 
vn -0.981934 0.000000 -0.188965 
vn -0.999023 -0.038818 -0.001221 
vn -0.500000 0.019531 -0.865479 
vn -0.981934 0.000000 -0.188965 
vn -0.500000 0.019531 -0.865479 
vn -0.327148 0.000000 -0.944824 
vn -0.327148 0.000000 -0.944824 
vn -0.500000 0.019531 -0.865479 
vn 0.500000 0.004883 -0.865723 
vn -0.327148 0.000000 -0.944824 
vn 0.500000 0.004883 -0.865723 
vn 0.654541 0.000000 -0.755859 
vn 0.654541 0.000000 -0.755859 
vn 0.500000 0.004883 -0.865723 
vn 0.997559 -0.067871 -0.002686 
vn 0.654541 0.000000 -0.755859 
vn 0.997559 -0.067871 -0.002686 
vn 0.981934 0.000000 0.188965 
vn 0.997559 -0.067871 -0.002686 
vn 0.985596 -0.167480 -0.009033 
vn 0.483887 -0.308594 0.818604 
vn 0.997559 -0.067871 -0.002686 
vn 0.483887 -0.308594 0.818604 
vn 0.499756 -0.124756 0.856934 
vn 0.499756 -0.124756 0.856934 
vn 0.483887 -0.308594 0.818604 
vn -0.479248 -0.304199 0.822998 
vn 0.499756 -0.124756 0.856934 
vn -0.479248 -0.304199 0.822998 
vn -0.496826 -0.110840 0.860596 
vn -0.496826 -0.110840 0.860596 
vn -0.479248 -0.304199 0.822998 
vn -0.987549 -0.156982 -0.005859 
vn -0.496826 -0.110840 0.860596 
vn -0.987549 -0.156982 -0.005859 
vn -0.999023 -0.038818 -0.001221 
vn -0.999023 -0.038818 -0.001221 
vn -0.987549 -0.156982 -0.005859 
vn -0.499756 -0.005615 -0.865967 
vn -0.999023 -0.038818 -0.001221 
vn -0.499756 -0.005615 -0.865967 
vn -0.500000 0.019531 -0.865479 
vn -0.500000 0.019531 -0.865479 
vn -0.499756 -0.005615 -0.865967 
vn 0.499512 -0.011230 -0.865967 
vn -0.500000 0.019531 -0.865479 
vn 0.499512 -0.011230 -0.865967 
vn 0.500000 0.004883 -0.865723 
vn 0.500000 0.004883 -0.865723 
vn 0.499512 -0.011230 -0.865967 
vn 0.985596 -0.167480 -0.009033 
vn 0.500000 0.004883 -0.865723 
vn 0.985596 -0.167480 -0.009033 
vn 0.997559 -0.067871 -0.002686 
vn 0.985596 -0.167480 -0.009033 
vn 0.964600 -0.176025 -0.195312 
vn 0.616943 -0.355713 0.701660 
vn 0.985596 -0.167480 -0.009033 
vn 0.616943 -0.355713 0.701660 
vn 0.483887 -0.308594 0.818604 
vn 0.483887 -0.308594 0.818604 
vn 0.616943 -0.355713 0.701660 
vn -0.309814 -0.387939 0.867920 
vn 0.483887 -0.308594 0.818604 
vn -0.309814 -0.387939 0.867920 
vn -0.479248 -0.304199 0.822998 
vn -0.479248 -0.304199 0.822998 
vn -0.309814 -0.387939 0.867920 
vn -0.952637 -0.249756 0.173096 
vn -0.479248 -0.304199 0.822998 
vn -0.952637 -0.249756 0.173096 
vn -0.987549 -0.156982 -0.005859 
vn -0.987549 -0.156982 -0.005859 
vn -0.952637 -0.249756 0.173096 
vn -0.652832 -0.060547 -0.754883 
vn -0.987549 -0.156982 -0.005859 
vn -0.652832 -0.060547 -0.754883 
vn -0.499756 -0.005615 -0.865967 
vn -0.499756 -0.005615 -0.865967 
vn -0.652832 -0.060547 -0.754883 
vn 0.326172 -0.020752 -0.944824 
vn -0.499756 -0.005615 -0.865967 
vn 0.326172 -0.020752 -0.944824 
vn 0.499512 -0.011230 -0.865967 
vn 0.499512 -0.011230 -0.865967 
vn 0.326172 -0.020752 -0.944824 
vn 0.964600 -0.176025 -0.195312 
vn 0.499512 -0.011230 -0.865967 
vn 0.964600 -0.176025 -0.195312 
vn 0.985596 -0.167480 -0.009033 
vt 0.645669 0.275591 
vt 0.645669 0.275591 
vt 0.748031 0.338583 
vt 0.645669 0.275591 
vt 0.748031 0.338583 
vt 0.748031 0.338583 
vt 0.748031 0.338583 
vt 0.748031 0.338583 
vt 0.188976 0.464567 
vt 0.748031 0.338583 
vt 0.188976 0.464567 
vt 0.653543 0.338583 
vt 0.653543 0.338583 
vt 0.188976 0.464567 
vt 0.858268 0.267717 
vt 0.653543 0.338583 
vt 0.858268 0.267717 
vt 0.771654 0.275591 
vt 0.771654 0.275591 
vt 0.858268 0.267717 
vt 0.637795 0.259843 
vt 0.771654 0.275591 
vt 0.637795 0.259843 
vt 0.637795 0.259843 
vt 0.637795 0.259843 
vt 0.637795 0.259843 
vt 0.771654 0.259843 
vt 0.637795 0.259843 
vt 0.771654 0.259843 
vt 0.771654 0.259843 
vt 0.771654 0.259843 
vt 0.771654 0.259843 
vt 0.645669 0.275591 
vt 0.771654 0.259843 
vt 0.645669 0.275591 
vt 0.645669 0.275591 
vt 0.645669 0.275591 
vt 0.708661 0.307087 
vt 0.795276 0.338583 
vt 0.645669 0.275591 
vt 0.795276 0.338583 
vt 0.748031 0.338583 
vt 0.748031 0.338583 
vt 0.795276 0.338583 
vt 0.708661 0.338583 
vt 0.748031 0.338583 
vt 0.708661 0.338583 
vt 0.188976 0.464567 
vt 0.188976 0.464567 
vt 0.708661 0.338583 
vt 0.795276 0.307087 
vt 0.188976 0.464567 
vt 0.795276 0.307087 
vt 0.858268 0.267717 
vt 0.858268 0.267717 
vt 0.795276 0.307087 
vt 0.708661 0.299213 
vt 0.858268 0.267717 
vt 0.708661 0.299213 
vt 0.637795 0.259843 
vt 0.637795 0.259843 
vt 0.708661 0.299213 
vt 0.795276 0.299213 
vt 0.637795 0.259843 
vt 0.795276 0.299213 
vt 0.771654 0.259843 
vt 0.771654 0.259843 
vt 0.795276 0.299213 
vt 0.708661 0.307087 
vt 0.771654 0.259843 
vt 0.708661 0.307087 
vt 0.645669 0.275591 
vt 0.708661 0.307087 
vt 0.708661 0.425197 
vt 0.795276 0.417323 
vt 0.708661 0.307087 
vt 0.795276 0.417323 
vt 0.795276 0.338583 
vt 0.795276 0.338583 
vt 0.795276 0.417323 
vt 0.708661 0.417323 
vt 0.795276 0.338583 
vt 0.708661 0.417323 
vt 0.708661 0.338583 
vt 0.708661 0.338583 
vt 0.708661 0.417323 
vt 0.795276 0.417323 
vt 0.708661 0.338583 
vt 0.795276 0.417323 
vt 0.795276 0.307087 
vt 0.795276 0.307087 
vt 0.795276 0.417323 
vt 0.708661 0.409449 
vt 0.795276 0.307087 
vt 0.708661 0.409449 
vt 0.708661 0.299213 
vt 0.708661 0.299213 
vt 0.708661 0.409449 
vt 0.795276 0.409449 
vt 0.708661 0.299213 
vt 0.795276 0.409449 
vt 0.795276 0.299213 
vt 0.795276 0.299213 
vt 0.795276 0.409449 
vt 0.708661 0.425197 
vt 0.795276 0.299213 
vt 0.708661 0.425197 
vt 0.708661 0.307087 
f 1/1/1 2/2/2 3/3/3
f 4/4/4 5/5/5 6/6/6
f 7/7/7 8/8/8 9/9/9
f 10/10/10 11/11/11 12/12/12
f 13/13/13 14/14/14 15/15/15
f 16/16/16 17/17/17 18/18/18
f 19/19/19 20/20/20 21/21/21
f 22/22/22 23/23/23 24/24/24
f 25/25/25 26/26/26 27/27/27
f 28/28/28 29/29/29 30/30/30
f 31/31/31 32/32/32 33/33/33
f 34/34/34 35/35/35 36/36/36
f 37/37/37 38/38/38 39/39/39
f 40/40/40 41/41/41 42/42/42
f 43/43/43 44/44/44 45/45/45
f 46/46/46 47/47/47 48/48/48
f 49/49/49 50/50/50 51/51/51
f 52/52/52 53/53/53 54/54/54
f 55/55/55 56/56/56 57/57/57
f 58/58/58 59/59/59 60/60/60
f 61/61/61 62/62/62 63/63/63
f 64/64/64 65/65/65 66/66/66
f 67/67/67 68/68/68 69/69/69
f 70/70/70 71/71/71 72/72/72
f 73/73/73 74/74/74 75/75/75
f 76/76/76 77/77/77 78/78/78
f 79/79/79 80/80/80 81/81/81
f 82/82/82 83/83/83 84/84/84
f 85/85/85 86/86/86 87/87/87
f 88/88/88 89/89/89 90/90/90
f 91/91/91 92/92/92 93/93/93
f 94/94/94 95/95/95 96/96/96
f 97/97/97 98/98/98 99/99/99
f 100/100/100 101/101/101 102/102/102
f 103/103/103 104/104/104 105/105/105
f 106/106/106 107/107/107 108/108/108
