v 5.000000 14.000000 0.000000 
v 3.000000 10.000000 4.000000 
v 7.000000 8.000000 0.000000 
v 3.000000 10.000000 4.000000 
v 0.000000 6.000000 0.000000 
v 7.000000 8.000000 0.000000 
v 0.000000 6.000000 0.000000 
v 2.000000 10.000000 -4.000000 
v 7.000000 8.000000 0.000000 
v 2.000000 10.000000 -4.000000 
v 5.000000 14.000000 0.000000 
v 7.000000 8.000000 0.000000 
v 0.000000 14.000000 4.000000 
v 3.000000 10.000000 4.000000 
v 5.000000 14.000000 0.000000 
v 0.000000 14.000000 4.000000 
v -4.000000 14.000000 0.000000 
v 3.000000 10.000000 4.000000 
v -4.000000 14.000000 0.000000 
v 0.000000 6.000000 0.000000 
v 3.000000 10.000000 4.000000 
v -4.000000 14.000000 0.000000 
v 0.000000 14.000000 -4.000000 
v 0.000000 6.000000 0.000000 
v 0.000000 14.000000 -4.000000 
v 2.000000 10.000000 -4.000000 
v 0.000000 6.000000 0.000000 
v 0.000000 14.000000 -4.000000 
v 5.000000 14.000000 0.000000 
v 2.000000 10.000000 -4.000000 
v 7.000000 54.000000 0.000000 
v 0.000000 54.000000 7.000000 
v 5.000000 14.000000 0.000000 
v 0.000000 54.000000 7.000000 
v 0.000000 14.000000 4.000000 
v 5.000000 14.000000 0.000000 
v 0.000000 54.000000 7.000000 
v -7.000000 54.000000 0.000000 
v 0.000000 14.000000 4.000000 
v -7.000000 54.000000 0.000000 
v -4.000000 14.000000 0.000000 
v 0.000000 14.000000 4.000000 
v -7.000000 54.000000 0.000000 
v 0.000000 54.000000 -7.000000 
v -4.000000 14.000000 0.000000 
v 0.000000 54.000000 -7.000000 
v 0.000000 14.000000 -4.000000 
v -4.000000 14.000000 0.000000 
v 0.000000 54.000000 -7.000000 
v 7.000000 54.000000 0.000000 
v 0.000000 14.000000 -4.000000 
v 7.000000 54.000000 0.000000 
v 5.000000 14.000000 0.000000 
v 0.000000 14.000000 -4.000000 
v 0.000000 54.000000 7.000000 
v 7.000000 54.000000 0.000000 
v 0.000000 59.000000 0.000000 
v -7.000000 54.000000 0.000000 
v 0.000000 54.000000 7.000000 
v 0.000000 59.000000 0.000000 
v 0.000000 54.000000 -7.000000 
v -7.000000 54.000000 0.000000 
v 0.000000 59.000000 0.000000 
v 7.000000 54.000000 0.000000 
v 0.000000 54.000000 -7.000000 
v 0.000000 59.000000 0.000000 
vn 0.968750 0.225586 0.102539 
vn 0.170898 -0.311035 0.934814 
vn 0.872559 -0.485596 -0.047607 
vn 0.170898 -0.311035 0.934814 
vn -0.393799 -0.905518 -0.156494 
vn 0.872559 -0.485596 -0.047607 
vn -0.393799 -0.905518 -0.156494 
vn 0.357422 -0.277100 -0.891602 
vn 0.872559 -0.485596 -0.047607 
vn 0.357422 -0.277100 -0.891602 
vn 0.968750 0.225586 0.102539 
vn 0.872559 -0.485596 -0.047607 
vn -0.201904 -0.071045 0.976562 
vn 0.170898 -0.311035 0.934814 
vn 0.968750 0.225586 0.102539 
vn -0.201904 -0.071045 0.976562 
vn -0.925781 -0.377686 -0.002197 
vn 0.170898 -0.311035 0.934814 
vn -0.925781 -0.377686 -0.002197 
vn -0.393799 -0.905518 -0.156494 
vn 0.170898 -0.311035 0.934814 
vn -0.925781 -0.377686 -0.002197 
vn 0.032471 -0.196289 -0.979980 
vn -0.393799 -0.905518 -0.156494 
vn 0.032471 -0.196289 -0.979980 
vn 0.357422 -0.277100 -0.891602 
vn -0.393799 -0.905518 -0.156494 
vn 0.032471 -0.196289 -0.979980 
vn 0.968750 0.225586 0.102539 
vn 0.357422 -0.277100 -0.891602 
vn 0.941406 -0.060547 -0.331543 
vn 0.302490 -0.064453 0.950684 
vn 0.968750 0.225586 0.102539 
vn 0.302490 -0.064453 0.950684 
vn -0.201904 -0.071045 0.976562 
vn 0.968750 0.225586 0.102539 
vn 0.302490 -0.064453 0.950684 
vn -0.946533 -0.066650 0.315430 
vn -0.201904 -0.071045 0.976562 
vn -0.946533 -0.066650 0.315430 
vn -0.925781 -0.377686 -0.002197 
vn -0.201904 -0.071045 0.976562 
vn -0.946533 -0.066650 0.315430 
vn -0.315430 -0.066650 -0.946533 
vn -0.925781 -0.377686 -0.002197 
vn -0.315430 -0.066650 -0.946533 
vn 0.032471 -0.196289 -0.979980 
vn -0.925781 -0.377686 -0.002197 
vn -0.315430 -0.066650 -0.946533 
vn 0.941406 -0.060547 -0.331543 
vn 0.032471 -0.196289 -0.979980 
vn 0.941406 -0.060547 -0.331543 
vn 0.968750 0.225586 0.102539 
vn 0.032471 -0.196289 -0.979980 
vn 0.000000 0.858887 0.511963 
vn 0.512207 0.858643 0.000000 
vn 0.000000 1.000000 0.000000 
vn -0.511963 0.858887 0.000000 
vn 0.000000 0.858887 0.511963 
vn 0.000000 1.000000 0.000000 
vn 0.000000 0.858887 -0.511963 
vn -0.511963 0.858887 0.000000 
vn 0.000000 1.000000 0.000000 
vn 0.512207 0.858643 0.000000 
vn 0.000000 0.858887 -0.511963 
vn 0.000000 1.000000 0.000000 
vt 0.000000 0.921260 
vt 0.236220 0.968504 
vt 0.283465 0.960630 
vt 0.236220 0.968504 
vt 0.330709 0.944882 
vt 0.283465 0.960630 
vt 0.330709 0.944882 
vt 0.220472 0.952756 
vt 0.283465 0.960630 
vt 0.220472 0.952756 
vt 0.000000 0.921260 
vt 0.283465 0.960630 
vt 0.275591 0.921260 
vt 0.236220 0.968504 
vt 0.000000 0.921260 
vt 0.275591 0.921260 
vt 0.543307 0.913386 
vt 0.236220 0.968504 
vt 0.543307 0.913386 
vt 0.330709 0.944882 
vt 0.236220 0.968504 
vt 0.543307 0.913386 
vt 0.275591 0.921260 
vt 0.330709 0.944882 
vt 0.275591 0.921260 
vt 0.220472 0.952756 
vt 0.330709 0.944882 
vt 0.275591 0.921260 
vt 0.000000 0.921260 
vt 0.220472 0.952756 
vt 0.000000 0.094488 
vt 0.275591 0.118110 
vt 0.000000 0.921260 
vt 0.275591 0.118110 
vt 0.275591 0.921260 
vt 0.000000 0.921260 
vt 0.275591 0.118110 
vt 0.551181 0.110236 
vt 0.275591 0.921260 
vt 0.551181 0.110236 
vt 0.543307 0.913386 
vt 0.275591 0.921260 
vt 0.551181 0.110236 
vt 0.275591 0.118110 
vt 0.543307 0.913386 
vt 0.275591 0.118110 
vt 0.275591 0.921260 
vt 0.543307 0.913386 
vt 0.275591 0.118110 
vt 0.000000 0.094488 
vt 0.275591 0.921260 
vt 0.000000 0.094488 
vt 0.000000 0.921260 
vt 0.275591 0.921260 
vt 0.275591 0.118110 
vt 0.000000 0.094488 
vt 0.283465 0.039370 
vt 0.551181 0.110236 
vt 0.275591 0.118110 
vt 0.283465 0.039370 
vt 0.275591 0.118110 
vt 0.551181 0.110236 
vt 0.283465 0.039370 
vt 0.000000 0.094488 
vt 0.275591 0.118110 
vt 0.283465 0.039370 
f 1/1/1 2/2/2 3/3/3
f 4/4/4 5/5/5 6/6/6
f 7/7/7 8/8/8 9/9/9
f 10/10/10 11/11/11 12/12/12
f 13/13/13 14/14/14 15/15/15
f 16/16/16 17/17/17 18/18/18
f 19/19/19 20/20/20 21/21/21
f 22/22/22 23/23/23 24/24/24
f 25/25/25 26/26/26 27/27/27
f 28/28/28 29/29/29 30/30/30
f 31/31/31 32/32/32 33/33/33
f 34/34/34 35/35/35 36/36/36
f 37/37/37 38/38/38 39/39/39
f 40/40/40 41/41/41 42/42/42
f 43/43/43 44/44/44 45/45/45
f 46/46/46 47/47/47 48/48/48
f 49/49/49 50/50/50 51/51/51
f 52/52/52 53/53/53 54/54/54
f 55/55/55 56/56/56 57/57/57
f 58/58/58 59/59/59 60/60/60
f 61/61/61 62/62/62 63/63/63
f 64/64/64 65/65/65 66/66/66
