v -36.000000 38.000000 23.000000 
v 5.000000 4.000000 5.000000 
v 5.000000 47.000000 0.000000 
v -36.000000 38.000000 -24.000000 
v -36.000000 38.000000 23.000000 
v 5.000000 47.000000 0.000000 
v 5.000000 9.000000 -48.000000 
v -36.000000 38.000000 -24.000000 
v 5.000000 47.000000 0.000000 
v 8.000000 4.000000 1.000000 
v 5.000000 9.000000 -48.000000 
v 5.000000 47.000000 0.000000 
v 47.000000 38.000000 23.000000 
v 8.000000 4.000000 1.000000 
v 5.000000 47.000000 0.000000 
v 5.000000 4.000000 5.000000 
v 47.000000 38.000000 23.000000 
v 5.000000 47.000000 0.000000 
v -47.000000 0.000000 4.000000 
v 5.000000 -17.000000 48.000000 
v 5.000000 4.000000 5.000000 
v -36.000000 38.000000 23.000000 
v -47.000000 0.000000 4.000000 
v 5.000000 4.000000 5.000000 
v -42.000000 0.000000 1.000000 
v -47.000000 0.000000 4.000000 
v -36.000000 38.000000 23.000000 
v -36.000000 38.000000 -24.000000 
v -42.000000 0.000000 1.000000 
v -36.000000 38.000000 23.000000 
v 5.000000 -47.000000 -16.000000 
v -42.000000 0.000000 1.000000 
v -36.000000 38.000000 -24.000000 
v 5.000000 9.000000 -48.000000 
v 5.000000 -47.000000 -16.000000 
v -36.000000 38.000000 -24.000000 
v 47.000000 15.000000 -24.000000 
v 5.000000 -47.000000 -16.000000 
v 5.000000 9.000000 -48.000000 
v 8.000000 4.000000 1.000000 
v 47.000000 15.000000 -24.000000 
v 5.000000 9.000000 -48.000000 
v 8.000000 0.000000 4.000000 
v 47.000000 15.000000 -24.000000 
v 8.000000 4.000000 1.000000 
v 47.000000 38.000000 23.000000 
v 8.000000 0.000000 4.000000 
v 8.000000 4.000000 1.000000 
v 5.000000 -17.000000 48.000000 
v 8.000000 0.000000 4.000000 
v 47.000000 38.000000 23.000000 
v 5.000000 4.000000 5.000000 
v 5.000000 -17.000000 48.000000 
v 47.000000 38.000000 23.000000 
v 5.000000 -17.000000 48.000000 
v -47.000000 0.000000 4.000000 
v 5.000000 -45.000000 0.000000 
v -47.000000 0.000000 4.000000 
v -42.000000 0.000000 1.000000 
v 5.000000 -45.000000 0.000000 
v -42.000000 0.000000 1.000000 
v 5.000000 -47.000000 -16.000000 
v 5.000000 -45.000000 0.000000 
v 5.000000 -47.000000 -16.000000 
v 47.000000 15.000000 -24.000000 
v 5.000000 -45.000000 0.000000 
v 47.000000 15.000000 -24.000000 
v 8.000000 0.000000 4.000000 
v 5.000000 -45.000000 0.000000 
v 8.000000 0.000000 4.000000 
v 5.000000 -17.000000 48.000000 
v 5.000000 -45.000000 0.000000 
vn -0.583984 0.634766 0.505371 
vn -0.198730 0.347900 0.916016 
vn 0.576660 0.812256 0.084961 
vn -0.708740 0.358154 -0.607422 
vn -0.583984 0.634766 0.505371 
vn 0.576660 0.812256 0.084961 
vn 0.346436 0.424805 -0.836182 
vn -0.708740 0.358154 -0.607422 
vn 0.576660 0.812256 0.084961 
vn 0.861572 0.451660 -0.230469 
vn 0.346436 0.424805 -0.836182 
vn 0.576660 0.812256 0.084961 
vn 0.828857 -0.348633 -0.437256 
vn 0.861572 0.451660 -0.230469 
vn 0.576660 0.812256 0.084961 
vn -0.198730 0.347900 0.916016 
vn 0.828857 -0.348633 -0.437256 
vn 0.576660 0.812256 0.084961 
vn -0.974121 -0.147217 0.171143 
vn 0.359619 0.121338 0.925049 
vn -0.198730 0.347900 0.916016 
vn -0.583984 0.634766 0.505371 
vn -0.974121 -0.147217 0.171143 
vn -0.198730 0.347900 0.916016 
vn -0.822998 -0.221680 -0.522705 
vn -0.974121 -0.147217 0.171143 
vn -0.583984 0.634766 0.505371 
vn -0.708740 0.358154 -0.607422 
vn -0.822998 -0.221680 -0.522705 
vn -0.583984 0.634766 0.505371 
vn -0.197998 -0.761475 -0.616943 
vn -0.822998 -0.221680 -0.522705 
vn -0.708740 0.358154 -0.607422 
vn 0.346436 0.424805 -0.836182 
vn -0.197998 -0.761475 -0.616943 
vn -0.708740 0.358154 -0.607422 
vn 0.884277 0.231445 0.405029 
vn -0.197998 -0.761475 -0.616943 
vn 0.346436 0.424805 -0.836182 
vn 0.861572 0.451660 -0.230469 
vn 0.884277 0.231445 0.405029 
vn 0.346436 0.424805 -0.836182 
vn 0.956543 -0.185547 0.224609 
vn 0.884277 0.231445 0.405029 
vn 0.861572 0.451660 -0.230469 
vn 0.828857 -0.348633 -0.437256 
vn 0.956543 -0.185547 0.224609 
vn 0.861572 0.451660 -0.230469 
vn 0.359619 0.121338 0.925049 
vn 0.956543 -0.185547 0.224609 
vn 0.828857 -0.348633 -0.437256 
vn -0.198730 0.347900 0.916016 
vn 0.359619 0.121338 0.925049 
vn 0.828857 -0.348633 -0.437256 
vn 0.359619 0.121338 0.925049 
vn -0.974121 -0.147217 0.171143 
vn 0.250244 -0.939209 0.234375 
vn -0.974121 -0.147217 0.171143 
vn -0.822998 -0.221680 -0.522705 
vn 0.250244 -0.939209 0.234375 
vn -0.822998 -0.221680 -0.522705 
vn -0.197998 -0.761475 -0.616943 
vn 0.250244 -0.939209 0.234375 
vn -0.197998 -0.761475 -0.616943 
vn 0.884277 0.231445 0.405029 
vn 0.250244 -0.939209 0.234375 
vn 0.884277 0.231445 0.405029 
vn 0.956543 -0.185547 0.224609 
vn 0.250244 -0.939209 0.234375 
vn 0.956543 -0.185547 0.224609 
vn 0.359619 0.121338 0.925049 
vn 0.250244 -0.939209 0.234375 
vt 1.000000 0.000000 
vt 0.354839 0.000000 
vt 0.419355 0.290323 
vt 1.000000 0.903226 
vt 1.000000 0.000000 
vt 0.419355 0.290323 
vt 0.225806 0.129032 
vt 0.064516 0.612903 
vt 0.806452 0.580645 
vt 0.903226 0.516129 
vt 0.225806 0.129032 
vt 0.806452 0.580645 
vt 1.000000 0.967742 
vt 1.000000 0.290323 
vt 0.612903 1.000000 
vt 0.354839 0.000000 
vt 0.000000 0.000000 
vt 0.419355 0.290323 
vt 0.354839 0.451613 
vt 0.000000 0.322581 
vt 0.322581 0.548387 
vt 0.548387 0.935484 
vt 0.354839 0.451613 
vt 0.322581 0.548387 
vt 0.774194 0.516129 
vt 0.354839 0.451613 
vt 0.548387 0.935484 
vt 0.935484 0.903226 
vt 0.774194 0.516129 
vt 0.548387 0.935484 
vt 0.483871 0.290323 
vt 0.000000 0.451613 
vt 0.000000 0.096774 
vt 0.483871 -0.032258 
vt 0.483871 0.290323 
vt 0.000000 0.096774 
vt 0.870968 0.290323 
vt 0.774194 0.000000 
vt 0.225806 0.129032 
vt 0.903226 0.516129 
vt 0.870968 0.290323 
vt 0.225806 0.129032 
vt 0.322581 0.354839 
vt 0.129032 0.967742 
vt 0.451613 0.451613 
vt 0.741935 0.870968 
vt 0.322581 0.354839 
vt 0.451613 0.451613 
vt 0.741935 0.000000 
vt 0.322581 0.354839 
vt 0.741935 0.870968 
vt 0.516129 0.419355 
vt 0.741935 0.000000 
vt 0.741935 0.870968 
vt 0.000000 0.322581 
vt 0.354839 0.451613 
vt 0.354839 -0.032258 
vt 0.354839 0.451613 
vt 0.774194 0.516129 
vt 0.354839 -0.032258 
vt 0.000000 0.451613 
vt 0.483871 0.290323 
vt 0.483871 0.483871 
vt 0.483871 0.290323 
vt 0.967742 0.225806 
vt 0.483871 0.483871 
vt 0.129032 0.967742 
vt 0.322581 0.354839 
vt 0.000000 0.000000 
vt 0.322581 0.354839 
vt 0.741935 0.000000 
vt 0.000000 0.000000 
f 1/1/1 2/2/2 3/3/3
f 4/4/4 5/5/5 6/6/6
f 7/7/7 8/8/8 9/9/9
f 10/10/10 11/11/11 12/12/12
f 13/13/13 14/14/14 15/15/15
f 16/16/16 17/17/17 18/18/18
f 19/19/19 20/20/20 21/21/21
f 22/22/22 23/23/23 24/24/24
f 25/25/25 26/26/26 27/27/27
f 28/28/28 29/29/29 30/30/30
f 31/31/31 32/32/32 33/33/33
f 34/34/34 35/35/35 36/36/36
f 37/37/37 38/38/38 39/39/39
f 40/40/40 41/41/41 42/42/42
f 43/43/43 44/44/44 45/45/45
f 46/46/46 47/47/47 48/48/48
f 49/49/49 50/50/50 51/51/51
f 52/52/52 53/53/53 54/54/54
f 55/55/55 56/56/56 57/57/57
f 58/58/58 59/59/59 60/60/60
f 61/61/61 62/62/62 63/63/63
f 64/64/64 65/65/65 66/66/66
f 67/67/67 68/68/68 69/69/69
f 70/70/70 71/71/71 72/72/72
