v -15.000000 39.000000 188.000000 
v 16.000000 32.000000 75.000000 
v -15.000000 32.000000 75.000000 
v 16.000000 32.000000 75.000000 
v -15.000000 39.000000 188.000000 
v 16.000000 39.000000 188.000000 
v -15.000000 32.000000 75.000000 
v 16.000000 0.000000 -164.000000 
v -15.000000 0.000000 -164.000000 
v 16.000000 0.000000 -164.000000 
v -15.000000 32.000000 75.000000 
v 16.000000 32.000000 75.000000 
vn 0.000000 0.996582 -0.081787 
vn 0.000000 0.993896 -0.109131 
vn 0.000000 0.990479 -0.136475 
vn 0.000000 0.993896 -0.109131 
vn 0.000000 0.996582 -0.081787 
vn 0.000000 0.996582 -0.081787 
vn 0.000000 0.990479 -0.136475 
vn 0.000000 0.986328 -0.163818 
vn 0.000000 0.986328 -0.163818 
vn 0.000000 0.986328 -0.163818 
vn 0.000000 0.990479 -0.136475 
vn 0.000000 0.993896 -0.109131 
vt 0.451613 0.967742 
vt 0.516129 0.483871 
vt 0.451613 0.483871 
vt 0.516129 0.483871 
vt 0.451613 0.967742 
vt 0.548387 0.967742 
vt 0.451613 0.483871 
vt 0.516129 -0.032258 
vt 0.451613 -0.032258 
vt 0.516129 -0.032258 
vt 0.451613 0.483871 
vt 0.516129 0.483871 
f 1/1/1 2/2/2 3/3/3
f 4/4/4 5/5/5 6/6/6
f 7/7/7 8/8/8 9/9/9
f 10/10/10 11/11/11 12/12/12
