v 12.000000 -15.000000 5.000000 
v 10.000000 -15.000000 -11.000000 
v 27.000000 -18.000000 3.000000 
v 10.000000 -15.000000 -11.000000 
v 25.000000 -19.000000 -16.000000 
v 27.000000 -18.000000 3.000000 
v 12.000000 -15.000000 5.000000 
v 27.000000 -18.000000 3.000000 
v 29.000000 -3.000000 21.000000 
v 10.000000 -15.000000 -11.000000 
v 9.000000 -2.000000 -21.000000 
v 25.000000 -19.000000 -16.000000 
v 9.000000 -2.000000 -21.000000 
v 24.000000 -4.000000 -27.000000 
v 25.000000 -19.000000 -16.000000 
v 9.000000 -2.000000 -21.000000 
v 9.000000 13.000000 -25.000000 
v 24.000000 -4.000000 -27.000000 
v 13.000000 -1.000000 18.000000 
v 12.000000 -15.000000 5.000000 
v 29.000000 -3.000000 21.000000 
vn -0.242676 -0.882568 0.402588 
vn -0.339355 -0.854980 -0.391846 
vn -0.220459 -0.939941 0.260254 
vn -0.339355 -0.854980 -0.391846 
vn -0.411621 -0.758301 -0.505127 
vn -0.220459 -0.939941 0.260254 
vn -0.242676 -0.882568 0.402588 
vn -0.220459 -0.939941 0.260254 
vn -0.209229 -0.549072 0.808838 
vn -0.339355 -0.854980 -0.391846 
vn -0.358154 -0.408936 -0.839111 
vn -0.411621 -0.758301 -0.505127 
vn -0.358154 -0.408936 -0.839111 
vn -0.457275 -0.333252 -0.824463 
vn -0.411621 -0.758301 -0.505127 
vn -0.358154 -0.408936 -0.839111 
vn -0.355713 -0.002686 -0.934570 
vn -0.457275 -0.333252 -0.824463 
vn -0.178223 -0.463623 0.867676 
vn -0.242676 -0.882568 0.402588 
vn -0.209229 -0.549072 0.808838 
vt 0.746032 0.190476 
vt 0.841270 0.190476 
vt 0.746032 0.000000 
vt 0.841270 0.190476 
vt 0.841270 0.000000 
vt 0.746032 0.000000 
vt 0.746032 0.190476 
vt 0.746032 0.000000 
vt 0.634921 0.000000 
vt 0.841270 0.190476 
vt 0.920635 0.190476 
vt 0.841270 0.000000 
vt 0.920635 0.190476 
vt 0.920635 0.000000 
vt 0.841270 0.000000 
vt 0.920635 0.190476 
vt 1.000000 0.190476 
vt 0.920635 0.000000 
vt 0.634921 0.190476 
vt 0.746032 0.190476 
vt 0.634921 0.000000 
f 1/1/1 2/2/2 3/3/3
f 4/4/4 5/5/5 6/6/6
f 7/7/7 8/8/8 9/9/9
f 10/10/10 11/11/11 12/12/12
f 13/13/13 14/14/14 15/15/15
f 16/16/16 17/17/17 18/18/18
f 19/19/19 20/20/20 21/21/21
