v -25.000000 2.000000 -29.000000 
v -22.000000 2.000000 -16.000000 
v 0.000000 2.000000 -29.000000 
v -21.000000 2.000000 -47.000000 
v -25.000000 2.000000 -29.000000 
v 0.000000 2.000000 -29.000000 
v 0.000000 2.000000 -53.000000 
v -21.000000 2.000000 -47.000000 
v 0.000000 2.000000 -29.000000 
v 21.000000 2.000000 -47.000000 
v 0.000000 2.000000 -53.000000 
v 0.000000 2.000000 -29.000000 
v 25.000000 2.000000 -29.000000 
v 21.000000 2.000000 -47.000000 
v 0.000000 2.000000 -29.000000 
v 22.000000 2.000000 -16.000000 
v 25.000000 2.000000 -29.000000 
v 0.000000 2.000000 -29.000000 
v -22.000000 2.000000 -16.000000 
v 22.000000 2.000000 -16.000000 
v 0.000000 2.000000 -29.000000 
v -15.000000 -26.000000 -15.000000 
v -14.000000 -26.000000 -7.000000 
v -22.000000 2.000000 -16.000000 
v -25.000000 2.000000 -29.000000 
v -15.000000 -26.000000 -15.000000 
v -22.000000 2.000000 -16.000000 
v -18.000000 -26.000000 -32.000000 
v -15.000000 -26.000000 -15.000000 
v -25.000000 2.000000 -29.000000 
v -21.000000 2.000000 -47.000000 
v -18.000000 -26.000000 -32.000000 
v -25.000000 2.000000 -29.000000 
v 0.000000 -26.000000 -36.000000 
v -18.000000 -26.000000 -32.000000 
v -21.000000 2.000000 -47.000000 
v 0.000000 2.000000 -53.000000 
v 0.000000 -26.000000 -36.000000 
v -21.000000 2.000000 -47.000000 
v 18.000000 -26.000000 -32.000000 
v 0.000000 -26.000000 -36.000000 
v 0.000000 2.000000 -53.000000 
v 21.000000 2.000000 -47.000000 
v 18.000000 -26.000000 -32.000000 
v 0.000000 2.000000 -53.000000 
v 15.000000 -26.000000 -15.000000 
v 18.000000 -26.000000 -32.000000 
v 21.000000 2.000000 -47.000000 
v 25.000000 2.000000 -29.000000 
v 15.000000 -26.000000 -15.000000 
v 21.000000 2.000000 -47.000000 
v 13.000000 -26.000000 -7.000000 
v 15.000000 -26.000000 -15.000000 
v 25.000000 2.000000 -29.000000 
v 22.000000 2.000000 -16.000000 
v 13.000000 -26.000000 -7.000000 
v 25.000000 2.000000 -29.000000 
v -14.000000 -26.000000 -7.000000 
v 13.000000 -26.000000 -7.000000 
v 22.000000 2.000000 -16.000000 
v -22.000000 2.000000 -16.000000 
v -14.000000 -26.000000 -7.000000 
v 22.000000 2.000000 -16.000000 
v -14.000000 -26.000000 -7.000000 
v -15.000000 -26.000000 -15.000000 
v 0.000000 -32.000000 -15.000000 
v -15.000000 -26.000000 -15.000000 
v -18.000000 -26.000000 -32.000000 
v 0.000000 -32.000000 -15.000000 
v -18.000000 -26.000000 -32.000000 
v 0.000000 -26.000000 -36.000000 
v 0.000000 -32.000000 -15.000000 
v 0.000000 -26.000000 -36.000000 
v 18.000000 -26.000000 -32.000000 
v 0.000000 -32.000000 -15.000000 
v 18.000000 -26.000000 -32.000000 
v 15.000000 -26.000000 -15.000000 
v 0.000000 -32.000000 -15.000000 
v 15.000000 -26.000000 -15.000000 
v 13.000000 -26.000000 -7.000000 
v 0.000000 -32.000000 -15.000000 
v 13.000000 -26.000000 -7.000000 
v -14.000000 -26.000000 -7.000000 
v 0.000000 -32.000000 -15.000000 
vn -0.925781 0.375977 0.035156 
vn -0.651855 0.649902 0.390381 
vn 0.000000 0.999756 0.000244 
vn -0.657959 0.185303 -0.729736 
vn -0.925781 0.375977 0.035156 
vn 0.000000 0.999756 0.000244 
vn 0.104736 -0.004883 -0.994385 
vn -0.657959 0.185303 -0.729736 
vn 0.000000 0.999756 0.000244 
vn 0.885742 0.351807 -0.301758 
vn 0.104736 -0.004883 -0.994385 
vn 0.000000 0.999756 0.000244 
vn 0.938965 0.334717 0.076904 
vn 0.885742 0.351807 -0.301758 
vn 0.000000 0.999756 0.000244 
vn 0.277344 0.768799 0.575928 
vn 0.938965 0.334717 0.076904 
vn 0.000000 0.999756 0.000244 
vn -0.651855 0.649902 0.390381 
vn 0.277344 0.768799 0.575928 
vn 0.000000 0.999756 0.000244 
vn -0.764160 -0.637451 0.097412 
vn -0.414795 -0.443848 0.794189 
vn -0.651855 0.649902 0.390381 
vn -0.925781 0.375977 0.035156 
vn -0.764160 -0.637451 0.097412 
vn -0.651855 0.649902 0.390381 
vn -0.589111 -0.777832 -0.218262 
vn -0.764160 -0.637451 0.097412 
vn -0.925781 0.375977 0.035156 
vn -0.657959 0.185303 -0.729736 
vn -0.589111 -0.777832 -0.218262 
vn -0.925781 0.375977 0.035156 
vn -0.055420 -0.852051 -0.520020 
vn -0.589111 -0.777832 -0.218262 
vn -0.657959 0.185303 -0.729736 
vn 0.104736 -0.004883 -0.994385 
vn -0.055420 -0.852051 -0.520020 
vn -0.657959 0.185303 -0.729736 
vn 0.439941 -0.826172 -0.351074 
vn -0.055420 -0.852051 -0.520020 
vn 0.104736 -0.004883 -0.994385 
vn 0.885742 0.351807 -0.301758 
vn 0.439941 -0.826172 -0.351074 
vn 0.104736 -0.004883 -0.994385 
vn 0.775391 -0.627686 0.068115 
vn 0.439941 -0.826172 -0.351074 
vn 0.885742 0.351807 -0.301758 
vn 0.938965 0.334717 0.076904 
vn 0.775391 -0.627686 0.068115 
vn 0.885742 0.351807 -0.301758 
vn 0.631836 -0.588867 0.503418 
vn 0.775391 -0.627686 0.068115 
vn 0.938965 0.334717 0.076904 
vn 0.277344 0.768799 0.575928 
vn 0.631836 -0.588867 0.503418 
vn 0.938965 0.334717 0.076904 
vn -0.414795 -0.443848 0.794189 
vn 0.631836 -0.588867 0.503418 
vn 0.277344 0.768799 0.575928 
vn -0.651855 0.649902 0.390381 
vn -0.414795 -0.443848 0.794189 
vn 0.277344 0.768799 0.575928 
vn -0.414795 -0.443848 0.794189 
vn -0.764160 -0.637451 0.097412 
vn 0.000000 -0.999268 0.031250 
vn -0.764160 -0.637451 0.097412 
vn -0.589111 -0.777832 -0.218262 
vn 0.000000 -0.999268 0.031250 
vn -0.589111 -0.777832 -0.218262 
vn -0.055420 -0.852051 -0.520020 
vn 0.000000 -0.999268 0.031250 
vn -0.055420 -0.852051 -0.520020 
vn 0.439941 -0.826172 -0.351074 
vn 0.000000 -0.999268 0.031250 
vn 0.439941 -0.826172 -0.351074 
vn 0.775391 -0.627686 0.068115 
vn 0.000000 -0.999268 0.031250 
vn 0.775391 -0.627686 0.068115 
vn 0.631836 -0.588867 0.503418 
vn 0.000000 -0.999268 0.031250 
vn 0.631836 -0.588867 0.503418 
vn -0.414795 -0.443848 0.794189 
vn 0.000000 -0.999268 0.031250 
vt 0.548387 0.806452 
vt 0.580645 0.967742 
vt 0.774194 0.806452 
vt 0.580645 0.612903 
vt 0.548387 0.806452 
vt 0.774194 0.806452 
vt 0.774194 0.580645 
vt 0.580645 0.612903 
vt 0.774194 0.806452 
vt 0.967742 0.612903 
vt 0.774194 0.580645 
vt 0.774194 0.806452 
vt 1.000000 0.806452 
vt 0.967742 0.612903 
vt 0.774194 0.806452 
vt 0.967742 0.967742 
vt 1.000000 0.806452 
vt 0.774194 0.806452 
vt 0.580645 0.967742 
vt 0.967742 0.967742 
vt 0.774194 0.806452 
vt 0.870968 0.129032 
vt 0.870968 0.129032 
vt 0.838710 0.129032 
vt 0.838710 0.096774 
vt 0.870968 0.129032 
vt 0.838710 0.129032 
vt 0.870968 0.064516 
vt 0.870968 0.129032 
vt 0.838710 0.096774 
vt 0.838710 0.032258 
vt 0.870968 0.064516 
vt 0.838710 0.096774 
vt 0.903226 0.064516 
vt 0.870968 0.064516 
vt 0.838710 0.032258 
vt 0.903226 0.000000 
vt 0.903226 0.064516 
vt 0.838710 0.032258 
vt 0.967742 0.064516 
vt 0.903226 0.064516 
vt 0.903226 0.000000 
vt 0.967742 0.032258 
vt 0.967742 0.064516 
vt 0.903226 0.000000 
vt 0.935484 0.129032 
vt 0.967742 0.064516 
vt 0.967742 0.032258 
vt 0.967742 0.096774 
vt 0.935484 0.129032 
vt 0.967742 0.032258 
vt 0.935484 0.129032 
vt 0.935484 0.129032 
vt 0.967742 0.096774 
vt 0.967742 0.129032 
vt 0.935484 0.129032 
vt 0.967742 0.096774 
vt 0.870968 0.129032 
vt 0.935484 0.129032 
vt 0.967742 0.129032 
vt 0.838710 0.129032 
vt 0.870968 0.129032 
vt 0.967742 0.129032 
vt 0.870968 0.129032 
vt 0.870968 0.129032 
vt 0.903226 0.129032 
vt 0.870968 0.129032 
vt 0.870968 0.064516 
vt 0.903226 0.129032 
vt 0.870968 0.064516 
vt 0.903226 0.064516 
vt 0.903226 0.129032 
vt 0.903226 0.064516 
vt 0.967742 0.064516 
vt 0.903226 0.129032 
vt 0.967742 0.064516 
vt 0.935484 0.129032 
vt 0.903226 0.129032 
vt 0.935484 0.129032 
vt 0.935484 0.129032 
vt 0.903226 0.129032 
vt 0.935484 0.129032 
vt 0.870968 0.129032 
vt 0.903226 0.129032 
f 1/1/1 2/2/2 3/3/3
f 4/4/4 5/5/5 6/6/6
f 7/7/7 8/8/8 9/9/9
f 10/10/10 11/11/11 12/12/12
f 13/13/13 14/14/14 15/15/15
f 16/16/16 17/17/17 18/18/18
f 19/19/19 20/20/20 21/21/21
f 22/22/22 23/23/23 24/24/24
f 25/25/25 26/26/26 27/27/27
f 28/28/28 29/29/29 30/30/30
f 31/31/31 32/32/32 33/33/33
f 34/34/34 35/35/35 36/36/36
f 37/37/37 38/38/38 39/39/39
f 40/40/40 41/41/41 42/42/42
f 43/43/43 44/44/44 45/45/45
f 46/46/46 47/47/47 48/48/48
f 49/49/49 50/50/50 51/51/51
f 52/52/52 53/53/53 54/54/54
f 55/55/55 56/56/56 57/57/57
f 58/58/58 59/59/59 60/60/60
f 61/61/61 62/62/62 63/63/63
f 64/64/64 65/65/65 66/66/66
f 67/67/67 68/68/68 69/69/69
f 70/70/70 71/71/71 72/72/72
f 73/73/73 74/74/74 75/75/75
f 76/76/76 77/77/77 78/78/78
f 79/79/79 80/80/80 81/81/81
f 82/82/82 83/83/83 84/84/84
