v -110.000000 27.000000 -130.000000 
v -110.000000 27.000000 130.000000 
v 110.000000 27.000000 130.000000 
v 110.000000 27.000000 130.000000 
v 110.000000 27.000000 -130.000000 
v -110.000000 27.000000 -130.000000 
v -110.000000 27.000000 130.000000 
v -110.000000 0.000000 130.000000 
v 110.000000 0.000000 130.000000 
v 110.000000 0.000000 130.000000 
v 110.000000 27.000000 130.000000 
v -110.000000 27.000000 130.000000 
v -110.000000 27.000000 -130.000000 
v -110.000000 0.000000 -130.000000 
v -110.000000 0.000000 130.000000 
v -110.000000 0.000000 130.000000 
v -110.000000 27.000000 130.000000 
v -110.000000 27.000000 -130.000000 
v 110.000000 27.000000 -130.000000 
v 110.000000 0.000000 -130.000000 
v -110.000000 0.000000 -130.000000 
v -110.000000 0.000000 -130.000000 
v -110.000000 27.000000 -130.000000 
v 110.000000 27.000000 -130.000000 
v 110.000000 27.000000 130.000000 
v 110.000000 0.000000 130.000000 
v 110.000000 0.000000 -130.000000 
v 110.000000 0.000000 -130.000000 
v 110.000000 27.000000 -130.000000 
v 110.000000 27.000000 130.000000 
v -97.000000 104.000000 -113.000000 
v -97.000000 104.000000 105.000000 
v 97.000000 104.000000 105.000000 
v 97.000000 104.000000 105.000000 
v 97.000000 104.000000 -113.000000 
v -97.000000 104.000000 -113.000000 
v -97.000000 104.000000 105.000000 
v -97.000000 24.000000 105.000000 
v 97.000000 24.000000 105.000000 
v 97.000000 24.000000 105.000000 
v 97.000000 104.000000 105.000000 
v -97.000000 104.000000 105.000000 
v -97.000000 104.000000 -113.000000 
v -97.000000 24.000000 -113.000000 
v -97.000000 24.000000 105.000000 
v -97.000000 24.000000 105.000000 
v -97.000000 104.000000 105.000000 
v -97.000000 104.000000 -113.000000 
v 97.000000 104.000000 -113.000000 
v 97.000000 24.000000 -113.000000 
v -97.000000 24.000000 -113.000000 
v -97.000000 24.000000 -113.000000 
v -97.000000 104.000000 -113.000000 
v 97.000000 104.000000 -113.000000 
v 97.000000 104.000000 105.000000 
v 97.000000 24.000000 105.000000 
v 97.000000 24.000000 -113.000000 
v 97.000000 24.000000 -113.000000 
v 97.000000 104.000000 -113.000000 
v 97.000000 104.000000 105.000000 
v -70.000000 172.000000 -50.000000 
v -70.000000 172.000000 91.000000 
v 70.000000 172.000000 91.000000 
v 70.000000 172.000000 91.000000 
v 70.000000 172.000000 -50.000000 
v -70.000000 172.000000 -50.000000 
v -70.000000 172.000000 91.000000 
v -70.000000 103.000000 91.000000 
v 70.000000 103.000000 91.000000 
v 70.000000 103.000000 91.000000 
v 70.000000 172.000000 91.000000 
v -70.000000 172.000000 91.000000 
v -70.000000 172.000000 -50.000000 
v -70.000000 103.000000 -50.000000 
v -70.000000 103.000000 91.000000 
v -70.000000 103.000000 91.000000 
v -70.000000 172.000000 91.000000 
v -70.000000 172.000000 -50.000000 
v 70.000000 172.000000 -50.000000 
v 70.000000 103.000000 -50.000000 
v -70.000000 103.000000 -50.000000 
v -70.000000 103.000000 -50.000000 
v -70.000000 172.000000 -50.000000 
v 70.000000 172.000000 -50.000000 
v 70.000000 172.000000 91.000000 
v 70.000000 103.000000 91.000000 
v 70.000000 103.000000 -50.000000 
v 70.000000 103.000000 -50.000000 
v 70.000000 172.000000 -50.000000 
v 70.000000 172.000000 91.000000 
v -43.000000 355.000000 -23.000000 
v -43.000000 355.000000 64.000000 
v 43.000000 355.000000 64.000000 
v 43.000000 355.000000 64.000000 
v 43.000000 355.000000 -23.000000 
v -43.000000 355.000000 -23.000000 
v -43.000000 355.000000 64.000000 
v -43.000000 171.000000 64.000000 
v 43.000000 171.000000 64.000000 
v 43.000000 171.000000 64.000000 
v 43.000000 355.000000 64.000000 
v -43.000000 355.000000 64.000000 
v -43.000000 355.000000 -23.000000 
v -43.000000 171.000000 -23.000000 
v -43.000000 171.000000 64.000000 
v -43.000000 171.000000 64.000000 
v -43.000000 355.000000 64.000000 
v -43.000000 355.000000 -23.000000 
v 43.000000 355.000000 -23.000000 
v 43.000000 171.000000 -23.000000 
v -43.000000 171.000000 -23.000000 
v -43.000000 171.000000 -23.000000 
v -43.000000 355.000000 -23.000000 
v 43.000000 355.000000 -23.000000 
v 43.000000 355.000000 64.000000 
v 43.000000 171.000000 64.000000 
v 43.000000 171.000000 -23.000000 
v 43.000000 171.000000 -23.000000 
v 43.000000 355.000000 -23.000000 
v 43.000000 355.000000 64.000000 
v -63.000000 163.000000 -94.000000 
v -47.000000 163.000000 -83.000000 
v -63.000000 104.000000 -92.000000 
v -47.000000 163.000000 -83.000000 
v -49.000000 104.000000 -82.000000 
v -63.000000 104.000000 -92.000000 
v -47.000000 163.000000 -83.000000 
v -53.000000 163.000000 -65.000000 
v -49.000000 104.000000 -82.000000 
v -53.000000 163.000000 -65.000000 
v -54.000000 104.000000 -66.000000 
v -49.000000 104.000000 -82.000000 
v -53.000000 163.000000 -65.000000 
v -72.000000 163.000000 -65.000000 
v -54.000000 104.000000 -66.000000 
v -72.000000 163.000000 -65.000000 
v -71.000000 104.000000 -66.000000 
v -54.000000 104.000000 -66.000000 
v -72.000000 163.000000 -65.000000 
v -78.000000 163.000000 -83.000000 
v -71.000000 104.000000 -66.000000 
v -78.000000 163.000000 -83.000000 
v -76.000000 104.000000 -82.000000 
v -71.000000 104.000000 -66.000000 
v -78.000000 163.000000 -83.000000 
v -63.000000 163.000000 -94.000000 
v -76.000000 104.000000 -82.000000 
v -63.000000 163.000000 -94.000000 
v -63.000000 104.000000 -92.000000 
v -76.000000 104.000000 -82.000000 
v -47.000000 163.000000 -83.000000 
v -63.000000 163.000000 -94.000000 
v -63.000000 163.000000 -78.000000 
v -53.000000 163.000000 -65.000000 
v -47.000000 163.000000 -83.000000 
v -63.000000 163.000000 -78.000000 
v -72.000000 163.000000 -65.000000 
v -53.000000 163.000000 -65.000000 
v -63.000000 163.000000 -78.000000 
v -78.000000 163.000000 -83.000000 
v -72.000000 163.000000 -65.000000 
v -63.000000 163.000000 -78.000000 
v -63.000000 163.000000 -94.000000 
v -78.000000 163.000000 -83.000000 
v -63.000000 163.000000 -78.000000 
v -38.000000 145.000000 -107.000000 
v -38.000000 145.000000 -52.000000 
v 38.000000 145.000000 -52.000000 
v 38.000000 145.000000 -52.000000 
v 38.000000 145.000000 -107.000000 
v -38.000000 145.000000 -107.000000 
v -38.000000 145.000000 -107.000000 
v -35.000000 103.000000 -105.000000 
v -35.000000 103.000000 -54.000000 
v -35.000000 103.000000 -54.000000 
v -38.000000 145.000000 -52.000000 
v -38.000000 145.000000 -107.000000 
v 38.000000 145.000000 -107.000000 
v 35.000000 103.000000 -105.000000 
v -35.000000 103.000000 -105.000000 
v -35.000000 103.000000 -105.000000 
v -38.000000 145.000000 -107.000000 
v 38.000000 145.000000 -107.000000 
v 38.000000 145.000000 -52.000000 
v 35.000000 103.000000 -54.000000 
v 35.000000 103.000000 -105.000000 
v 35.000000 103.000000 -105.000000 
v 38.000000 145.000000 -107.000000 
v 38.000000 145.000000 -52.000000 
v 60.000000 163.000000 -94.000000 
v 76.000000 163.000000 -83.000000 
v 60.000000 104.000000 -92.000000 
v 76.000000 163.000000 -83.000000 
v 74.000000 104.000000 -82.000000 
v 60.000000 104.000000 -92.000000 
v 76.000000 163.000000 -83.000000 
v 70.000000 163.000000 -65.000000 
v 74.000000 104.000000 -82.000000 
v 70.000000 163.000000 -65.000000 
v 69.000000 104.000000 -66.000000 
v 74.000000 104.000000 -82.000000 
v 70.000000 163.000000 -65.000000 
v 51.000000 163.000000 -65.000000 
v 69.000000 104.000000 -66.000000 
v 51.000000 163.000000 -65.000000 
v 52.000000 104.000000 -66.000000 
v 69.000000 104.000000 -66.000000 
v 51.000000 163.000000 -65.000000 
v 45.000000 163.000000 -83.000000 
v 52.000000 104.000000 -66.000000 
v 45.000000 163.000000 -83.000000 
v 47.000000 104.000000 -82.000000 
v 52.000000 104.000000 -66.000000 
v 45.000000 163.000000 -83.000000 
v 60.000000 163.000000 -94.000000 
v 47.000000 104.000000 -82.000000 
v 60.000000 163.000000 -94.000000 
v 60.000000 104.000000 -92.000000 
v 47.000000 104.000000 -82.000000 
v 76.000000 163.000000 -83.000000 
v 60.000000 163.000000 -94.000000 
v 60.000000 163.000000 -78.000000 
v 70.000000 163.000000 -65.000000 
v 76.000000 163.000000 -83.000000 
v 60.000000 163.000000 -78.000000 
v 51.000000 163.000000 -65.000000 
v 70.000000 163.000000 -65.000000 
v 60.000000 163.000000 -78.000000 
v 45.000000 163.000000 -83.000000 
v 51.000000 163.000000 -65.000000 
v 60.000000 163.000000 -78.000000 
v 60.000000 163.000000 -94.000000 
v 45.000000 163.000000 -83.000000 
v 60.000000 163.000000 -78.000000 
vn 0.000000 1.000000 0.000000 
vn 0.000000 1.000000 0.000000 
vn 0.000000 1.000000 0.000000 
vn 0.000000 1.000000 0.000000 
vn 0.000000 1.000000 0.000000 
vn 0.000000 1.000000 0.000000 
vn 0.000000 0.000000 1.000000 
vn 0.000000 0.000000 1.000000 
vn 0.000000 0.000000 1.000000 
vn 0.000000 0.000000 1.000000 
vn 0.000000 0.000000 1.000000 
vn 0.000000 0.000000 1.000000 
vn -1.000000 0.000000 0.000000 
vn -1.000000 0.000000 0.000000 
vn -1.000000 0.000000 0.000000 
vn -1.000000 0.000000 0.000000 
vn -1.000000 0.000000 0.000000 
vn -1.000000 0.000000 0.000000 
vn 0.000000 0.000000 -1.000000 
vn 0.000000 0.000000 -1.000000 
vn 0.000000 0.000000 -1.000000 
vn 0.000000 0.000000 -1.000000 
vn 0.000000 0.000000 -1.000000 
vn 0.000000 0.000000 -1.000000 
vn 1.000000 0.000000 0.000000 
vn 1.000000 0.000000 0.000000 
vn 1.000000 0.000000 0.000000 
vn 1.000000 0.000000 0.000000 
vn 1.000000 0.000000 0.000000 
vn 1.000000 0.000000 0.000000 
vn 0.000000 1.000000 0.000000 
vn 0.000000 1.000000 0.000000 
vn 0.000000 1.000000 0.000000 
vn 0.000000 1.000000 0.000000 
vn 0.000000 1.000000 0.000000 
vn 0.000000 1.000000 0.000000 
vn 0.000000 0.000000 1.000000 
vn 0.000000 0.000000 1.000000 
vn 0.000000 0.000000 1.000000 
vn 0.000000 0.000000 1.000000 
vn 0.000000 0.000000 1.000000 
vn 0.000000 0.000000 1.000000 
vn -1.000000 0.000000 0.000000 
vn -1.000000 0.000000 0.000000 
vn -1.000000 0.000000 0.000000 
vn -1.000000 0.000000 0.000000 
vn -1.000000 0.000000 0.000000 
vn -1.000000 0.000000 0.000000 
vn 0.000000 0.000000 -1.000000 
vn 0.000000 0.000000 -1.000000 
vn 0.000000 0.000000 -1.000000 
vn 0.000000 0.000000 -1.000000 
vn 0.000000 0.000000 -1.000000 
vn 0.000000 0.000000 -1.000000 
vn 1.000000 0.000000 0.000000 
vn 1.000000 0.000000 0.000000 
vn 1.000000 0.000000 0.000000 
vn 1.000000 0.000000 0.000000 
vn 1.000000 0.000000 0.000000 
vn 1.000000 0.000000 0.000000 
vn 0.000000 1.000000 0.000000 
vn 0.000000 1.000000 0.000000 
vn 0.000000 1.000000 0.000000 
vn 0.000000 1.000000 0.000000 
vn 0.000000 1.000000 0.000000 
vn 0.000000 1.000000 0.000000 
vn 0.000000 0.000000 1.000000 
vn 0.000000 0.000000 1.000000 
vn 0.000000 0.000000 1.000000 
vn 0.000000 0.000000 1.000000 
vn 0.000000 0.000000 1.000000 
vn 0.000000 0.000000 1.000000 
vn -1.000000 0.000000 0.000000 
vn -1.000000 0.000000 0.000000 
vn -1.000000 0.000000 0.000000 
vn -1.000000 0.000000 0.000000 
vn -1.000000 0.000000 0.000000 
vn -1.000000 0.000000 0.000000 
vn 0.000000 0.000000 -1.000000 
vn 0.000000 0.000000 -1.000000 
vn 0.000000 0.000000 -1.000000 
vn 0.000000 0.000000 -1.000000 
vn 0.000000 0.000000 -1.000000 
vn 0.000000 0.000000 -1.000000 
vn 1.000000 0.000000 0.000000 
vn 1.000000 0.000000 0.000000 
vn 1.000000 0.000000 0.000000 
vn 1.000000 0.000000 0.000000 
vn 1.000000 0.000000 0.000000 
vn 1.000000 0.000000 0.000000 
vn 0.000000 1.000000 0.000000 
vn 0.000000 1.000000 0.000000 
vn 0.000000 1.000000 0.000000 
vn 0.000000 1.000000 0.000000 
vn 0.000000 1.000000 0.000000 
vn 0.000000 1.000000 0.000000 
vn 0.000000 0.000000 1.000000 
vn 0.000000 0.000000 1.000000 
vn 0.000000 0.000000 1.000000 
vn 0.000000 0.000000 1.000000 
vn 0.000000 0.000000 1.000000 
vn 0.000000 0.000000 1.000000 
vn -1.000000 0.000000 0.000000 
vn -1.000000 0.000000 0.000000 
vn -1.000000 0.000000 0.000000 
vn -1.000000 0.000000 0.000000 
vn -1.000000 0.000000 0.000000 
vn -1.000000 0.000000 0.000000 
vn 0.000000 0.000000 -1.000000 
vn 0.000000 0.000000 -1.000000 
vn 0.000000 0.000000 -1.000000 
vn 0.000000 0.000000 -1.000000 
vn 0.000000 0.000000 -1.000000 
vn 0.000000 0.000000 -1.000000 
vn 1.000000 0.000000 0.000000 
vn 1.000000 0.000000 0.000000 
vn 1.000000 0.000000 0.000000 
vn 1.000000 0.000000 0.000000 
vn 1.000000 0.000000 0.000000 
vn 1.000000 0.000000 0.000000 
vn -0.235107 -0.035400 -0.971191 
vn 0.850830 -0.035400 -0.523682 
vn 0.235107 -0.035400 -0.971191 
vn 0.850830 -0.035400 -0.523682 
vn 0.996338 -0.035400 -0.076416 
vn 0.235107 -0.035400 -0.971191 
vn 0.850830 -0.035400 -0.523682 
vn 0.760986 -0.035400 0.647461 
vn 0.996338 -0.035400 -0.076416 
vn 0.760986 -0.035400 0.647461 
vn 0.380371 -0.035400 0.923828 
vn 0.996338 -0.035400 -0.076416 
vn 0.760986 -0.035400 0.647461 
vn -0.380371 -0.035400 0.923828 
vn 0.380371 -0.035400 0.923828 
vn -0.380371 -0.035400 0.923828 
vn -0.760986 -0.035400 0.647461 
vn 0.380371 -0.035400 0.923828 
vn -0.380371 -0.035400 0.923828 
vn -0.996338 -0.035400 -0.076416 
vn -0.760986 -0.035400 0.647461 
vn -0.996338 -0.035400 -0.076416 
vn -0.850830 -0.035400 -0.523682 
vn -0.760986 -0.035400 0.647461 
vn -0.996338 -0.035400 -0.076416 
vn -0.235107 -0.035400 -0.971191 
vn -0.850830 -0.035400 -0.523682 
vn -0.235107 -0.035400 -0.971191 
vn 0.235107 -0.035400 -0.971191 
vn -0.850830 -0.035400 -0.523682 
vn 0.000000 1.000000 0.000000 
vn 0.000000 1.000000 0.000000 
vn 0.000000 1.000000 0.000000 
vn 0.000000 1.000000 0.000000 
vn 0.000000 1.000000 0.000000 
vn 0.000000 1.000000 0.000000 
vn 0.000000 1.000000 0.000000 
vn 0.000000 1.000000 0.000000 
vn 0.000000 1.000000 0.000000 
vn 0.000000 1.000000 0.000000 
vn 0.000000 1.000000 0.000000 
vn 0.000000 1.000000 0.000000 
vn 0.000000 1.000000 0.000000 
vn 0.000000 1.000000 0.000000 
vn 0.000000 1.000000 0.000000 
vn 0.000000 1.000000 0.000000 
vn 0.000000 1.000000 0.000000 
vn 0.000000 1.000000 0.000000 
vn 0.000000 1.000000 0.000000 
vn 0.000000 1.000000 0.000000 
vn 0.000000 1.000000 0.000000 
vn -0.997559 -0.068359 0.000000 
vn -0.997559 -0.068359 0.000000 
vn -0.997559 -0.068359 0.000000 
vn -0.997559 -0.068359 0.000000 
vn -0.997559 -0.068359 0.000000 
vn -0.997559 -0.068359 0.000000 
vn 0.000000 -0.048584 -0.998779 
vn 0.000000 -0.048584 -0.998779 
vn 0.000000 -0.048584 -0.998779 
vn 0.000000 -0.048584 -0.998779 
vn 0.000000 -0.048584 -0.998779 
vn 0.000000 -0.048584 -0.998779 
vn 0.997559 -0.068359 0.000000 
vn 0.997559 -0.068359 0.000000 
vn 0.997559 -0.068359 0.000000 
vn 0.997559 -0.068359 0.000000 
vn 0.997559 -0.068359 0.000000 
vn 0.997559 -0.068359 0.000000 
vn -0.235107 -0.035400 -0.971191 
vn 0.850830 -0.035400 -0.523682 
vn 0.235107 -0.035400 -0.971191 
vn 0.850830 -0.035400 -0.523682 
vn 0.996338 -0.035400 -0.076416 
vn 0.235107 -0.035400 -0.971191 
vn 0.850830 -0.035400 -0.523682 
vn 0.760986 -0.035400 0.647461 
vn 0.996338 -0.035400 -0.076416 
vn 0.760986 -0.035400 0.647461 
vn 0.380371 -0.035400 0.923828 
vn 0.996338 -0.035400 -0.076416 
vn 0.760986 -0.035400 0.647461 
vn -0.380371 -0.035400 0.923828 
vn 0.380371 -0.035400 0.923828 
vn -0.380371 -0.035400 0.923828 
vn -0.760986 -0.035400 0.647461 
vn 0.380371 -0.035400 0.923828 
vn -0.380371 -0.035400 0.923828 
vn -0.996338 -0.035400 -0.076416 
vn -0.760986 -0.035400 0.647461 
vn -0.996338 -0.035400 -0.076416 
vn -0.850830 -0.035400 -0.523682 
vn -0.760986 -0.035400 0.647461 
vn -0.996338 -0.035400 -0.076416 
vn -0.235107 -0.035400 -0.971191 
vn -0.850830 -0.035400 -0.523682 
vn -0.235107 -0.035400 -0.971191 
vn 0.235107 -0.035400 -0.971191 
vn -0.850830 -0.035400 -0.523682 
vn 0.000000 1.000000 0.000000 
vn 0.000000 1.000000 0.000000 
vn 0.000000 1.000000 0.000000 
vn 0.000000 1.000000 0.000000 
vn 0.000000 1.000000 0.000000 
vn 0.000000 1.000000 0.000000 
vn 0.000000 1.000000 0.000000 
vn 0.000000 1.000000 0.000000 
vn 0.000000 1.000000 0.000000 
vn 0.000000 1.000000 0.000000 
vn 0.000000 1.000000 0.000000 
vn 0.000000 1.000000 0.000000 
vn 0.000000 1.000000 0.000000 
vn 0.000000 1.000000 0.000000 
vn 0.000000 1.000000 0.000000 
vt 0.498039 0.698039 
vt 0.498039 0.498039 
vt 0.309804 0.498039 
vt 0.309804 0.498039 
vt 0.309804 0.698039 
vt 0.498039 0.698039 
vt 0.309804 0.698039 
vt 0.309804 0.498039 
vt 0.000000 0.498039 
vt 0.000000 0.498039 
vt 0.000000 0.698039 
vt 0.309804 0.698039 
vt 0.313726 0.698039 
vt 0.313726 0.498039 
vt 0.000000 0.498039 
vt 0.000000 0.498039 
vt 0.000000 0.698039 
vt 0.313726 0.698039 
vt 0.309804 0.698039 
vt 0.309804 0.498039 
vt 0.000000 0.498039 
vt 0.000000 0.498039 
vt 0.000000 0.698039 
vt 0.309804 0.698039 
vt 0.309804 0.698039 
vt 0.309804 0.498039 
vt 0.000000 0.498039 
vt 0.000000 0.498039 
vt 0.000000 0.698039 
vt 0.309804 0.698039 
vt 0.498039 0.698039 
vt 0.498039 0.498039 
vt 0.309804 0.498039 
vt 0.309804 0.498039 
vt 0.309804 0.698039 
vt 0.498039 0.698039 
vt 0.309804 0.698039 
vt 0.309804 0.498039 
vt 0.000000 0.498039 
vt 0.000000 0.498039 
vt 0.000000 0.698039 
vt 0.309804 0.698039 
vt 0.309804 0.698039 
vt 0.309804 0.498039 
vt 0.000000 0.498039 
vt 0.000000 0.498039 
vt 0.000000 0.698039 
vt 0.309804 0.698039 
vt 0.309804 0.698039 
vt 0.309804 0.498039 
vt 0.000000 0.498039 
vt 0.000000 0.498039 
vt 0.000000 0.698039 
vt 0.309804 0.698039 
vt 0.313726 0.698039 
vt 0.313726 0.498039 
vt 0.000000 0.498039 
vt 0.000000 0.498039 
vt 0.000000 0.698039 
vt 0.313726 0.698039 
vt 0.498039 0.698039 
vt 0.498039 0.498039 
vt 0.313726 0.498039 
vt 0.313726 0.498039 
vt 0.313726 0.698039 
vt 0.498039 0.698039 
vt 0.313726 1.000000 
vt 0.313726 0.698039 
vt 0.152941 0.698039 
vt 0.152941 0.698039 
vt 0.152941 1.000000 
vt 0.313726 1.000000 
vt 0.152941 1.000000 
vt 0.152941 0.698039 
vt 0.313726 0.698039 
vt 0.313726 0.698039 
vt 0.313726 1.000000 
vt 0.152941 1.000000 
vt 0.305882 1.000000 
vt 0.305882 0.698039 
vt 0.152941 0.698039 
vt 0.152941 0.698039 
vt 0.152941 1.000000 
vt 0.305882 1.000000 
vt 0.152941 1.000000 
vt 0.152941 0.698039 
vt 0.305882 0.698039 
vt 0.305882 0.698039 
vt 0.305882 1.000000 
vt 0.152941 1.000000 
vt 0.498039 0.698039 
vt 0.498039 0.498039 
vt 0.309804 0.498039 
vt 0.309804 0.498039 
vt 0.309804 0.698039 
vt 0.498039 0.698039 
vt 0.305882 1.000000 
vt 0.305882 0.698039 
vt 0.152941 0.698039 
vt 0.152941 0.698039 
vt 0.152941 1.000000 
vt 0.305882 1.000000 
vt 0.152941 1.000000 
vt 0.152941 0.698039 
vt 0.305882 0.698039 
vt 0.305882 0.698039 
vt 0.305882 1.000000 
vt 0.152941 1.000000 
vt 0.152941 1.000000 
vt 0.152941 0.698039 
vt 0.000000 0.698039 
vt 0.000000 0.698039 
vt 0.000000 1.000000 
vt 0.152941 1.000000 
vt 0.309804 1.000000 
vt 0.309804 0.698039 
vt 0.152941 0.698039 
vt 0.152941 0.698039 
vt 0.152941 1.000000 
vt 0.309804 1.000000 
vt 0.203922 1.000000 
vt 0.262745 1.000000 
vt 0.203922 0.698039 
vt 0.262745 1.000000 
vt 0.262745 0.698039 
vt 0.203922 0.698039 
vt 0.262745 1.000000 
vt 0.313726 1.000000 
vt 0.262745 0.698039 
vt 0.313726 1.000000 
vt 0.313726 0.698039 
vt 0.262745 0.698039 
vt 0.145098 1.000000 
vt 0.227451 1.000000 
vt 0.145098 0.698039 
vt 0.227451 1.000000 
vt 0.227451 0.698039 
vt 0.145098 0.698039 
vt 0.227451 1.000000 
vt 0.309804 1.000000 
vt 0.227451 0.698039 
vt 0.309804 1.000000 
vt 0.309804 0.698039 
vt 0.227451 0.698039 
vt 0.149020 1.000000 
vt 0.203922 1.000000 
vt 0.149020 0.698039 
vt 0.203922 1.000000 
vt 0.203922 0.698039 
vt 0.149020 0.698039 
vt 0.400000 1.000000 
vt 0.486275 0.913725 
vt 0.400000 0.901961 
vt 0.313726 0.913725 
vt 0.400000 1.000000 
vt 0.400000 0.901961 
vt 0.368627 0.819608 
vt 0.313726 0.913725 
vt 0.400000 0.901961 
vt 0.443137 0.823529 
vt 0.368627 0.819608 
vt 0.400000 0.901961 
vt 0.486275 0.913725 
vt 0.443137 0.823529 
vt 0.400000 0.901961 
vt 0.498039 0.811765 
vt 0.498039 0.698039 
vt 0.313726 0.698039 
vt 0.313726 0.698039 
vt 0.313726 0.811765 
vt 0.498039 0.811765 
vt 0.313726 1.000000 
vt 0.313726 0.698039 
vt 0.149020 0.698039 
vt 0.149020 0.698039 
vt 0.149020 1.000000 
vt 0.313726 1.000000 
vt 0.313726 1.000000 
vt 0.313726 0.698039 
vt 0.145098 0.698039 
vt 0.145098 0.698039 
vt 0.145098 1.000000 
vt 0.313726 1.000000 
vt 0.313726 1.000000 
vt 0.313726 0.698039 
vt 0.145098 0.698039 
vt 0.145098 0.698039 
vt 0.145098 1.000000 
vt 0.313726 1.000000 
vt 0.203922 1.000000 
vt 0.262745 1.000000 
vt 0.203922 0.698039 
vt 0.262745 1.000000 
vt 0.262745 0.698039 
vt 0.203922 0.698039 
vt 0.262745 1.000000 
vt 0.313726 1.000000 
vt 0.262745 0.698039 
vt 0.313726 1.000000 
vt 0.313726 0.698039 
vt 0.262745 0.698039 
vt 0.145098 1.000000 
vt 0.227451 1.000000 
vt 0.145098 0.698039 
vt 0.227451 1.000000 
vt 0.227451 0.698039 
vt 0.145098 0.698039 
vt 0.227451 1.000000 
vt 0.309804 1.000000 
vt 0.227451 0.698039 
vt 0.309804 1.000000 
vt 0.309804 0.698039 
vt 0.227451 0.698039 
vt 0.149020 1.000000 
vt 0.203922 1.000000 
vt 0.149020 0.698039 
vt 0.203922 1.000000 
vt 0.203922 0.698039 
vt 0.149020 0.698039 
vt 0.400000 1.000000 
vt 0.486275 0.913725 
vt 0.400000 0.901961 
vt 0.313726 0.913725 
vt 0.400000 1.000000 
vt 0.400000 0.901961 
vt 0.368627 0.819608 
vt 0.313726 0.913725 
vt 0.400000 0.901961 
vt 0.443137 0.823529 
vt 0.368627 0.819608 
vt 0.400000 0.901961 
vt 0.486275 0.913725 
vt 0.443137 0.823529 
vt 0.400000 0.901961 
f 1/1/1 2/2/2 3/3/3
f 4/4/4 5/5/5 6/6/6
f 7/7/7 8/8/8 9/9/9
f 10/10/10 11/11/11 12/12/12
f 13/13/13 14/14/14 15/15/15
f 16/16/16 17/17/17 18/18/18
f 19/19/19 20/20/20 21/21/21
f 22/22/22 23/23/23 24/24/24
f 25/25/25 26/26/26 27/27/27
f 28/28/28 29/29/29 30/30/30
f 31/31/31 32/32/32 33/33/33
f 34/34/34 35/35/35 36/36/36
f 37/37/37 38/38/38 39/39/39
f 40/40/40 41/41/41 42/42/42
f 43/43/43 44/44/44 45/45/45
f 46/46/46 47/47/47 48/48/48
f 49/49/49 50/50/50 51/51/51
f 52/52/52 53/53/53 54/54/54
f 55/55/55 56/56/56 57/57/57
f 58/58/58 59/59/59 60/60/60
f 61/61/61 62/62/62 63/63/63
f 64/64/64 65/65/65 66/66/66
f 67/67/67 68/68/68 69/69/69
f 70/70/70 71/71/71 72/72/72
f 73/73/73 74/74/74 75/75/75
f 76/76/76 77/77/77 78/78/78
f 79/79/79 80/80/80 81/81/81
f 82/82/82 83/83/83 84/84/84
f 85/85/85 86/86/86 87/87/87
f 88/88/88 89/89/89 90/90/90
f 91/91/91 92/92/92 93/93/93
f 94/94/94 95/95/95 96/96/96
f 97/97/97 98/98/98 99/99/99
f 100/100/100 101/101/101 102/102/102
f 103/103/103 104/104/104 105/105/105
f 106/106/106 107/107/107 108/108/108
f 109/109/109 110/110/110 111/111/111
f 112/112/112 113/113/113 114/114/114
f 115/115/115 116/116/116 117/117/117
f 118/118/118 119/119/119 120/120/120
f 121/121/121 122/122/122 123/123/123
f 124/124/124 125/125/125 126/126/126
f 127/127/127 128/128/128 129/129/129
f 130/130/130 131/131/131 132/132/132
f 133/133/133 134/134/134 135/135/135
f 136/136/136 137/137/137 138/138/138
f 139/139/139 140/140/140 141/141/141
f 142/142/142 143/143/143 144/144/144
f 145/145/145 146/146/146 147/147/147
f 148/148/148 149/149/149 150/150/150
f 151/151/151 152/152/152 153/153/153
f 154/154/154 155/155/155 156/156/156
f 157/157/157 158/158/158 159/159/159
f 160/160/160 161/161/161 162/162/162
f 163/163/163 164/164/164 165/165/165
f 166/166/166 167/167/167 168/168/168
f 169/169/169 170/170/170 171/171/171
f 172/172/172 173/173/173 174/174/174
f 175/175/175 176/176/176 177/177/177
f 178/178/178 179/179/179 180/180/180
f 181/181/181 182/182/182 183/183/183
f 184/184/184 185/185/185 186/186/186
f 187/187/187 188/188/188 189/189/189
f 190/190/190 191/191/191 192/192/192
f 193/193/193 194/194/194 195/195/195
f 196/196/196 197/197/197 198/198/198
f 199/199/199 200/200/200 201/201/201
f 202/202/202 203/203/203 204/204/204
f 205/205/205 206/206/206 207/207/207
f 208/208/208 209/209/209 210/210/210
f 211/211/211 212/212/212 213/213/213
f 214/214/214 215/215/215 216/216/216
f 217/217/217 218/218/218 219/219/219
f 220/220/220 221/221/221 222/222/222
f 223/223/223 224/224/224 225/225/225
f 226/226/226 227/227/227 228/228/228
f 229/229/229 230/230/230 231/231/231
f 232/232/232 233/233/233 234/234/234
