v 18.000000 -19.000000 3.000000 
v 20.000000 -19.000000 -19.000000 
v 33.000000 -23.000000 6.000000 
v 20.000000 -19.000000 -19.000000 
v 38.000000 -23.000000 -19.000000 
v 33.000000 -23.000000 6.000000 
v 18.000000 -19.000000 3.000000 
v 33.000000 -23.000000 6.000000 
v 29.000000 -2.000000 28.000000 
v 20.000000 -19.000000 -19.000000 
v 21.000000 -2.000000 -31.000000 
v 38.000000 -23.000000 -19.000000 
v 21.000000 -2.000000 -31.000000 
v 39.000000 -4.000000 -33.000000 
v 38.000000 -23.000000 -19.000000 
v 16.000000 -1.000000 23.000000 
v 18.000000 -19.000000 3.000000 
v 29.000000 -2.000000 28.000000 
v 0.000000 -19.000000 1.000000 
v 2.000000 -19.000000 -19.000000 
v 18.000000 -19.000000 3.000000 
v 2.000000 -19.000000 -19.000000 
v 20.000000 -19.000000 -19.000000 
v 18.000000 -19.000000 3.000000 
v 0.000000 -19.000000 1.000000 
v 18.000000 -19.000000 3.000000 
v 16.000000 -1.000000 23.000000 
v 2.000000 -19.000000 -19.000000 
v 3.000000 -2.000000 -31.000000 
v 20.000000 -19.000000 -19.000000 
v 3.000000 -2.000000 -31.000000 
v 21.000000 -2.000000 -31.000000 
v 20.000000 -19.000000 -19.000000 
v -1.000000 -1.000000 22.000000 
v 0.000000 -19.000000 1.000000 
v 16.000000 -1.000000 23.000000 
vn -0.202148 -0.918213 0.340332 
vn -0.142334 -0.874512 -0.463379 
vn -0.324707 -0.925293 0.195068 
vn -0.142334 -0.874512 -0.463379 
vn -0.244629 -0.770996 -0.587646 
vn -0.324707 -0.925293 0.195068 
vn -0.202148 -0.918213 0.340332 
vn -0.324707 -0.925293 0.195068 
vn -0.405518 -0.566650 0.717041 
vn -0.142334 -0.874512 -0.463379 
vn -0.117188 -0.407471 -0.905518 
vn -0.244629 -0.770996 -0.587646 
vn -0.117188 -0.407471 -0.905518 
vn -0.208740 -0.340088 -0.916748 
vn -0.244629 -0.770996 -0.587646 
vn -0.243164 -0.509277 0.825195 
vn -0.202148 -0.918213 0.340332 
vn -0.405518 -0.566650 0.717041 
vn 0.113281 -0.920898 0.372559 
vn 0.134521 -0.886475 -0.442383 
vn -0.202148 -0.918213 0.340332 
vn 0.134521 -0.886475 -0.442383 
vn -0.142334 -0.874512 -0.463379 
vn -0.202148 -0.918213 0.340332 
vn 0.113281 -0.920898 0.372559 
vn -0.202148 -0.918213 0.340332 
vn -0.243164 -0.509277 0.825195 
vn 0.134521 -0.886475 -0.442383 
vn 0.106934 -0.405273 -0.907715 
vn -0.142334 -0.874512 -0.463379 
vn 0.106934 -0.405273 -0.907715 
vn -0.117188 -0.407471 -0.905518 
vn -0.142334 -0.874512 -0.463379 
vn 0.096191 -0.502930 0.858887 
vn 0.113281 -0.920898 0.372559 
vn -0.243164 -0.509277 0.825195 
vt 0.746032 0.095238 
vt 0.841270 0.095238 
vt 0.746032 0.000000 
vt 0.841270 0.095238 
vt 0.841270 0.000000 
vt 0.746032 0.000000 
vt 0.746032 0.095238 
vt 0.746032 0.000000 
vt 0.634921 0.000000 
vt 0.841270 0.095238 
vt 0.952381 0.095238 
vt 0.841270 0.000000 
vt 0.952381 0.095238 
vt 0.952381 0.000000 
vt 0.841270 0.000000 
vt 0.634921 0.095238 
vt 0.746032 0.095238 
vt 0.634921 0.000000 
vt 0.746032 0.206349 
vt 0.841270 0.206349 
vt 0.746032 0.095238 
vt 0.841270 0.206349 
vt 0.841270 0.095238 
vt 0.746032 0.095238 
vt 0.746032 0.206349 
vt 0.746032 0.095238 
vt 0.634921 0.095238 
vt 0.841270 0.206349 
vt 0.952381 0.206349 
vt 0.841270 0.095238 
vt 0.952381 0.206349 
vt 0.952381 0.095238 
vt 0.841270 0.095238 
vt 0.634921 0.206349 
vt 0.746032 0.206349 
vt 0.634921 0.095238 
f 1/1/1 2/2/2 3/3/3
f 4/4/4 5/5/5 6/6/6
f 7/7/7 8/8/8 9/9/9
f 10/10/10 11/11/11 12/12/12
f 13/13/13 14/14/14 15/15/15
f 16/16/16 17/17/17 18/18/18
f 19/19/19 20/20/20 21/21/21
f 22/22/22 23/23/23 24/24/24
f 25/25/25 26/26/26 27/27/27
f 28/28/28 29/29/29 30/30/30
f 31/31/31 32/32/32 33/33/33
f 34/34/34 35/35/35 36/36/36
