v 82.000000 22.000000 49.000000 
v 82.000000 22.000000 -26.000000 
v -82.000000 22.000000 -26.000000 
v -82.000000 22.000000 -26.000000 
v -82.000000 22.000000 49.000000 
v 82.000000 22.000000 49.000000 
v 82.000000 22.000000 -26.000000 
v 82.000000 0.000000 -26.000000 
v -82.000000 0.000000 -26.000000 
v -82.000000 0.000000 -26.000000 
v -82.000000 22.000000 -26.000000 
v 82.000000 22.000000 -26.000000 
v 82.000000 22.000000 49.000000 
v 82.000000 0.000000 49.000000 
v 82.000000 0.000000 -26.000000 
v 82.000000 0.000000 -26.000000 
v 82.000000 22.000000 -26.000000 
v 82.000000 22.000000 49.000000 
v -82.000000 22.000000 49.000000 
v -82.000000 0.000000 49.000000 
v 82.000000 0.000000 49.000000 
v 82.000000 0.000000 49.000000 
v 82.000000 22.000000 49.000000 
v -82.000000 22.000000 49.000000 
v -82.000000 22.000000 -26.000000 
v -82.000000 0.000000 -26.000000 
v -82.000000 0.000000 49.000000 
v -82.000000 0.000000 49.000000 
v -82.000000 22.000000 49.000000 
v -82.000000 22.000000 -26.000000 
v 83.000000 100.000000 -15.000000 
v 60.000000 85.000000 38.000000 
v 49.000000 22.000000 38.000000 
v 69.000000 21.000000 -15.000000 
v 83.000000 100.000000 -15.000000 
v 49.000000 22.000000 38.000000 
v 59.000000 222.000000 -15.000000 
v 42.000000 190.000000 24.000000 
v 60.000000 85.000000 38.000000 
v 83.000000 100.000000 -15.000000 
v 59.000000 222.000000 -15.000000 
v 60.000000 85.000000 38.000000 
v 0.000000 248.000000 -15.000000 
v 0.000000 223.000000 12.000000 
v 42.000000 190.000000 24.000000 
v 59.000000 222.000000 -15.000000 
v 0.000000 248.000000 -15.000000 
v 42.000000 190.000000 24.000000 
v -59.000000 222.000000 -15.000000 
v -42.000000 190.000000 24.000000 
v 0.000000 223.000000 12.000000 
v 0.000000 248.000000 -15.000000 
v -59.000000 222.000000 -15.000000 
v 0.000000 223.000000 12.000000 
v -83.000000 100.000000 -15.000000 
v -60.000000 85.000000 38.000000 
v -42.000000 190.000000 24.000000 
v -59.000000 222.000000 -15.000000 
v -83.000000 100.000000 -15.000000 
v -42.000000 190.000000 24.000000 
v -69.000000 21.000000 -15.000000 
v -49.000000 22.000000 38.000000 
v -60.000000 85.000000 38.000000 
v -83.000000 100.000000 -15.000000 
v -69.000000 21.000000 -15.000000 
v -60.000000 85.000000 38.000000 
v -49.000000 22.000000 38.000000 
v 49.000000 22.000000 38.000000 
v -60.000000 85.000000 38.000000 
v 49.000000 22.000000 38.000000 
v 60.000000 85.000000 38.000000 
v -60.000000 85.000000 38.000000 
v -60.000000 85.000000 38.000000 
v 60.000000 85.000000 38.000000 
v -42.000000 190.000000 24.000000 
v 60.000000 85.000000 38.000000 
v 42.000000 190.000000 24.000000 
v -42.000000 190.000000 24.000000 
v -42.000000 190.000000 24.000000 
v 42.000000 190.000000 24.000000 
v 0.000000 223.000000 12.000000 
v 69.000000 21.000000 -15.000000 
v -69.000000 21.000000 -15.000000 
v -83.000000 100.000000 -15.000000 
v 83.000000 100.000000 -15.000000 
v 69.000000 21.000000 -15.000000 
v -83.000000 100.000000 -15.000000 
v 83.000000 100.000000 -15.000000 
v -83.000000 100.000000 -15.000000 
v -59.000000 222.000000 -15.000000 
v 59.000000 222.000000 -15.000000 
v 83.000000 100.000000 -15.000000 
v -59.000000 222.000000 -15.000000 
v 59.000000 222.000000 -15.000000 
v -59.000000 222.000000 -15.000000 
v 0.000000 248.000000 -15.000000 
vn 0.000000 1.000000 0.000000 
vn 0.000000 1.000000 0.000000 
vn 0.000000 1.000000 0.000000 
vn 0.000000 1.000000 0.000000 
vn 0.000000 1.000000 0.000000 
vn 0.000000 1.000000 0.000000 
vn 0.000000 0.000000 -1.000000 
vn 0.000000 0.000000 -1.000000 
vn 0.000000 0.000000 -1.000000 
vn 0.000000 0.000000 -1.000000 
vn 0.000000 0.000000 -1.000000 
vn 0.000000 0.000000 -1.000000 
vn 1.000000 0.000000 0.000000 
vn 1.000000 0.000000 0.000000 
vn 1.000000 0.000000 0.000000 
vn 1.000000 0.000000 0.000000 
vn 1.000000 0.000000 0.000000 
vn 1.000000 0.000000 0.000000 
vn 0.000000 0.000000 1.000000 
vn 0.000000 0.000000 1.000000 
vn 0.000000 0.000000 1.000000 
vn 0.000000 0.000000 1.000000 
vn 0.000000 0.000000 1.000000 
vn 0.000000 0.000000 1.000000 
vn -1.000000 0.000000 0.000000 
vn -1.000000 0.000000 0.000000 
vn -1.000000 0.000000 0.000000 
vn -1.000000 0.000000 0.000000 
vn -1.000000 0.000000 0.000000 
vn -1.000000 0.000000 0.000000 
vn 0.941895 -0.055176 0.330566 
vn 0.544189 0.125488 0.829346 
vn 0.580566 -0.111816 0.806152 
vn 0.937988 -0.191895 0.288330 
vn 0.941895 -0.055176 0.330566 
vn 0.580566 -0.111816 0.806152 
vn 0.745361 0.431885 0.507324 
vn 0.346924 0.527100 0.775635 
vn 0.544189 0.125488 0.829346 
vn 0.941895 -0.055176 0.330566 
vn 0.745361 0.431885 0.507324 
vn 0.544189 0.125488 0.829346 
vn 0.129639 0.812500 0.568115 
vn -0.074219 0.726074 0.683350 
vn 0.346924 0.527100 0.775635 
vn 0.745361 0.431885 0.507324 
vn 0.129639 0.812500 0.568115 
vn 0.346924 0.527100 0.775635 
vn -0.553955 0.620117 0.555176 
vn -0.411621 0.373047 0.831299 
vn -0.074219 0.726074 0.683350 
vn 0.129639 0.812500 0.568115 
vn -0.553955 0.620117 0.555176 
vn -0.074219 0.726074 0.683350 
vn -0.921143 0.079834 0.380615 
vn -0.573242 0.010010 0.819092 
vn -0.411621 0.373047 0.831299 
vn -0.553955 0.620117 0.555176 
vn -0.921143 0.079834 0.380615 
vn -0.411621 0.373047 0.831299 
vn -0.937256 -0.180664 0.297852 
vn -0.586426 -0.105957 0.802734 
vn -0.573242 0.010010 0.819092 
vn -0.921143 0.079834 0.380615 
vn -0.937256 -0.180664 0.297852 
vn -0.573242 0.010010 0.819092 
vn -0.586426 -0.105957 0.802734 
vn 0.580566 -0.111816 0.806152 
vn -0.573242 0.010010 0.819092 
vn 0.580566 -0.111816 0.806152 
vn 0.544189 0.125488 0.829346 
vn -0.573242 0.010010 0.819092 
vn -0.573242 0.010010 0.819092 
vn 0.544189 0.125488 0.829346 
vn -0.411621 0.373047 0.831299 
vn 0.544189 0.125488 0.829346 
vn 0.346924 0.527100 0.775635 
vn -0.411621 0.373047 0.831299 
vn -0.411621 0.373047 0.831299 
vn 0.346924 0.527100 0.775635 
vn -0.074219 0.726074 0.683350 
vn 0.000000 0.000000 -1.000000 
vn 0.000000 0.000000 -1.000000 
vn 0.000000 0.000000 -1.000000 
vn 0.000000 0.000000 -1.000000 
vn 0.000000 0.000000 -1.000000 
vn 0.000000 0.000000 -1.000000 
vn 0.000000 0.000000 -1.000000 
vn 0.000000 0.000000 -1.000000 
vn 0.000000 0.000000 -1.000000 
vn 0.000000 0.000000 -1.000000 
vn 0.000000 0.000000 -1.000000 
vn 0.000000 0.000000 -1.000000 
vn 0.000000 0.000000 -1.000000 
vn 0.000000 0.000000 -1.000000 
vn 0.000000 0.000000 -1.000000 
vt 0.247059 0.125490 
vt 0.247059 0.000000 
vt 0.000000 0.000000 
vt 0.000000 0.000000 
vt 0.000000 0.125490 
vt 0.247059 0.125490 
vt 0.247059 0.125490 
vt 0.247059 0.000000 
vt 0.000000 0.000000 
vt 0.000000 0.000000 
vt 0.000000 0.125490 
vt 0.247059 0.125490 
vt 0.494118 0.125490 
vt 0.494118 0.000000 
vt 0.247059 0.000000 
vt 0.247059 0.000000 
vt 0.247059 0.125490 
vt 0.494118 0.125490 
vt 0.247059 0.125490 
vt 0.247059 0.000000 
vt 0.000000 0.000000 
vt 0.000000 0.000000 
vt 0.000000 0.125490 
vt 0.247059 0.125490 
vt 0.494118 0.125490 
vt 0.494118 0.000000 
vt 0.247059 0.000000 
vt 0.247059 0.000000 
vt 0.247059 0.125490 
vt 0.494118 0.125490 
vt 0.254902 0.274510 
vt 0.305882 0.227451 
vt 0.313726 0.125490 
vt 0.274510 0.125490 
vt 0.254902 0.274510 
vt 0.313726 0.125490 
vt 0.301961 0.431373 
vt 0.313726 0.372549 
vt 0.305882 0.227451 
vt 0.254902 0.274510 
vt 0.301961 0.431373 
vt 0.305882 0.227451 
vt 0.376471 0.490196 
vt 0.376471 0.400000 
vt 0.313726 0.372549 
vt 0.301961 0.431373 
vt 0.376471 0.490196 
vt 0.313726 0.372549 
vt 0.447059 0.431373 
vt 0.435294 0.372549 
vt 0.376471 0.400000 
vt 0.376471 0.490196 
vt 0.447059 0.431373 
vt 0.376471 0.400000 
vt 0.494118 0.274510 
vt 0.443137 0.227451 
vt 0.435294 0.372549 
vt 0.447059 0.431373 
vt 0.494118 0.274510 
vt 0.435294 0.372549 
vt 0.474510 0.125490 
vt 0.435294 0.125490 
vt 0.443137 0.227451 
vt 0.494118 0.274510 
vt 0.474510 0.125490 
vt 0.443137 0.227451 
vt 0.435294 0.125490 
vt 0.313726 0.125490 
vt 0.443137 0.227451 
vt 0.313726 0.125490 
vt 0.305882 0.227451 
vt 0.443137 0.227451 
vt 0.443137 0.227451 
vt 0.305882 0.227451 
vt 0.435294 0.372549 
vt 0.305882 0.227451 
vt 0.313726 0.372549 
vt 0.435294 0.372549 
vt 0.435294 0.372549 
vt 0.313726 0.372549 
vt 0.376471 0.400000 
vt 0.219608 0.125490 
vt 0.023529 0.125490 
vt 0.000000 0.254902 
vt 0.243137 0.254902 
vt 0.219608 0.125490 
vt 0.000000 0.254902 
vt 0.243137 0.254902 
vt 0.000000 0.254902 
vt 0.023529 0.431373 
vt 0.219608 0.431373 
vt 0.243137 0.254902 
vt 0.023529 0.431373 
vt 0.219608 0.431373 
vt 0.023529 0.431373 
vt 0.121569 0.490196 
f 1/1/1 2/2/2 3/3/3
f 4/4/4 5/5/5 6/6/6
f 7/7/7 8/8/8 9/9/9
f 10/10/10 11/11/11 12/12/12
f 13/13/13 14/14/14 15/15/15
f 16/16/16 17/17/17 18/18/18
f 19/19/19 20/20/20 21/21/21
f 22/22/22 23/23/23 24/24/24
f 25/25/25 26/26/26 27/27/27
f 28/28/28 29/29/29 30/30/30
f 31/31/31 32/32/32 33/33/33
f 34/34/34 35/35/35 36/36/36
f 37/37/37 38/38/38 39/39/39
f 40/40/40 41/41/41 42/42/42
f 43/43/43 44/44/44 45/45/45
f 46/46/46 47/47/47 48/48/48
f 49/49/49 50/50/50 51/51/51
f 52/52/52 53/53/53 54/54/54
f 55/55/55 56/56/56 57/57/57
f 58/58/58 59/59/59 60/60/60
f 61/61/61 62/62/62 63/63/63
f 64/64/64 65/65/65 66/66/66
f 67/67/67 68/68/68 69/69/69
f 70/70/70 71/71/71 72/72/72
f 73/73/73 74/74/74 75/75/75
f 76/76/76 77/77/77 78/78/78
f 79/79/79 80/80/80 81/81/81
f 82/82/82 83/83/83 84/84/84
f 85/85/85 86/86/86 87/87/87
f 88/88/88 89/89/89 90/90/90
f 91/91/91 92/92/92 93/93/93
f 94/94/94 95/95/95 96/96/96
