v -2.000000 -4.000000 -94.000000 
v -37.000000 7.000000 4.000000 
v 0.000000 -5.000000 0.000000 
v -37.000000 7.000000 4.000000 
v -2.000000 -4.000000 -94.000000 
v -49.000000 8.000000 -55.000000 
v -94.000000 -4.000000 2.000000 
v 1.000000 7.000000 37.000000 
v 0.000000 -5.000000 0.000000 
v 1.000000 7.000000 37.000000 
v -94.000000 -4.000000 2.000000 
v -55.000000 8.000000 49.000000 
v 2.000000 -4.000000 94.000000 
v 37.000000 7.000000 -4.000000 
v 0.000000 -5.000000 0.000000 
v 37.000000 7.000000 -4.000000 
v 2.000000 -4.000000 94.000000 
v 49.000000 8.000000 55.000000 
v 94.000000 -4.000000 -2.000000 
v -1.000000 7.000000 -37.000000 
v 0.000000 -5.000000 0.000000 
v -1.000000 7.000000 -37.000000 
v 94.000000 -4.000000 -2.000000 
v 55.000000 8.000000 -49.000000 
vn 0.165039 0.986084 -0.009521 
vn 0.165039 0.986084 -0.009521 
vn 0.199951 0.979736 0.002930 
vn 0.165039 0.986084 -0.009521 
vn 0.165039 0.986084 -0.009521 
vn 0.129883 0.991211 -0.022217 
vn -0.009766 0.986328 -0.164062 
vn -0.009766 0.986328 -0.164062 
vn 0.002930 0.979980 -0.198242 
vn -0.009766 0.986328 -0.164062 
vn -0.009766 0.986328 -0.164062 
vn -0.022949 0.991211 -0.129395 
vn -0.165039 0.986084 0.009521 
vn -0.165039 0.986084 0.009521 
vn -0.199951 0.979736 -0.002930 
vn -0.165039 0.986084 0.009521 
vn -0.165039 0.986084 0.009521 
vn -0.129883 0.991211 0.022217 
vn 0.009766 0.986328 0.164062 
vn 0.009766 0.986328 0.164062 
vn -0.002930 0.979980 0.198242 
vn 0.009766 0.986328 0.164062 
vn 0.009766 0.986328 0.164062 
vn 0.022949 0.991211 0.129395 
vt 0.903226 0.903226 
vt 0.483871 0.225806 
vt 0.354839 0.645161 
vt 0.483871 0.225806 
vt 0.903226 0.903226 
vt 0.838710 0.225806 
vt 0.870968 0.903226 
vt 0.516129 0.225806 
vt 0.322581 0.612903 
vt 0.516129 0.225806 
vt 0.870968 0.903226 
vt 0.806452 0.225806 
vt 0.903226 0.903226 
vt 0.483871 0.225806 
vt 0.354839 0.645161 
vt 0.483871 0.225806 
vt 0.903226 0.903226 
vt 0.838710 0.225806 
vt 0.870968 0.903226 
vt 0.516129 0.225806 
vt 0.322581 0.612903 
vt 0.516129 0.225806 
vt 0.870968 0.903226 
vt 0.806452 0.225806 
f 1/1/1 2/2/2 3/3/3
f 4/4/4 5/5/5 6/6/6
f 7/7/7 8/8/8 9/9/9
f 10/10/10 11/11/11 12/12/12
f 13/13/13 14/14/14 15/15/15
f 16/16/16 17/17/17 18/18/18
f 19/19/19 20/20/20 21/21/21
f 22/22/22 23/23/23 24/24/24
