v 10.000000 -3.000000 12.000000 
v 9.000000 -1.000000 43.000000 
v 4.000000 -7.000000 28.000000 
v 10.000000 -3.000000 12.000000 
v 4.000000 -7.000000 28.000000 
v -2.000000 -8.000000 -1.000000 
v 10.000000 -3.000000 12.000000 
v -2.000000 -8.000000 -1.000000 
v -1.000000 0.000000 -17.000000 
v 10.000000 -3.000000 12.000000 
v -1.000000 0.000000 -17.000000 
v 4.000000 7.000000 -2.000000 
v 10.000000 -3.000000 12.000000 
v 4.000000 7.000000 -2.000000 
v 8.000000 4.000000 27.000000 
v 10.000000 -3.000000 12.000000 
v 8.000000 4.000000 27.000000 
v 9.000000 -1.000000 43.000000 
v 9.000000 -1.000000 43.000000 
v -19.000000 10.000000 43.000000 
v -25.000000 4.000000 28.000000 
v 9.000000 -1.000000 43.000000 
v -25.000000 4.000000 28.000000 
v 4.000000 -7.000000 28.000000 
v 4.000000 -7.000000 28.000000 
v -25.000000 4.000000 28.000000 
v -32.000000 3.000000 -2.000000 
v 4.000000 -7.000000 28.000000 
v -32.000000 3.000000 -2.000000 
v -2.000000 -8.000000 -1.000000 
v -2.000000 -8.000000 -1.000000 
v -32.000000 3.000000 -2.000000 
v -41.000000 15.000000 -19.000000 
v -2.000000 -8.000000 -1.000000 
v -41.000000 15.000000 -19.000000 
v -1.000000 0.000000 -17.000000 
v -1.000000 0.000000 -17.000000 
v -41.000000 15.000000 -19.000000 
v -26.000000 19.000000 -3.000000 
v -1.000000 0.000000 -17.000000 
v -26.000000 19.000000 -3.000000 
v 4.000000 7.000000 -2.000000 
v 4.000000 7.000000 -2.000000 
v -26.000000 19.000000 -3.000000 
v -20.000000 16.000000 28.000000 
v 4.000000 7.000000 -2.000000 
v -20.000000 16.000000 28.000000 
v 8.000000 4.000000 27.000000 
v 8.000000 4.000000 27.000000 
v -20.000000 16.000000 28.000000 
v -19.000000 10.000000 43.000000 
v 8.000000 4.000000 27.000000 
v -19.000000 10.000000 43.000000 
v 9.000000 -1.000000 43.000000 
v -61.000000 24.000000 -3.000000 
v -25.000000 4.000000 28.000000 
v -19.000000 10.000000 43.000000 
v -61.000000 24.000000 -3.000000 
v -32.000000 3.000000 -2.000000 
v -25.000000 4.000000 28.000000 
v -61.000000 24.000000 -3.000000 
v -41.000000 15.000000 -19.000000 
v -32.000000 3.000000 -2.000000 
v -61.000000 24.000000 -3.000000 
v -26.000000 19.000000 -3.000000 
v -41.000000 15.000000 -19.000000 
v -61.000000 24.000000 -3.000000 
v -20.000000 16.000000 28.000000 
v -26.000000 19.000000 -3.000000 
v -61.000000 24.000000 -3.000000 
v -19.000000 10.000000 43.000000 
v -20.000000 16.000000 28.000000 
vn 0.920654 -0.375732 -0.103760 
vn 0.517334 -0.341553 0.784424 
vn 0.226562 -0.891357 0.391846 
vn 0.920654 -0.375732 -0.103760 
vn 0.226562 -0.891357 0.391846 
vn 0.293945 -0.809814 -0.507568 
vn 0.920654 -0.375732 -0.103760 
vn 0.293945 -0.809814 -0.507568 
vn 0.516357 -0.127686 -0.846680 
vn 0.920654 -0.375732 -0.103760 
vn 0.516357 -0.127686 -0.846680 
vn 0.826172 0.499023 -0.260986 
vn 0.920654 -0.375732 -0.103760 
vn 0.826172 0.499023 -0.260986 
vn 0.764648 0.422363 0.486084 
vn 0.920654 -0.375732 -0.103760 
vn 0.764648 0.422363 0.486084 
vn 0.517334 -0.341553 0.784424 
vn 0.517334 -0.341553 0.784424 
vn -0.288574 0.319092 0.902588 
vn -0.565918 -0.486572 0.665283 
vn 0.517334 -0.341553 0.784424 
vn -0.565918 -0.486572 0.665283 
vn 0.226562 -0.891357 0.391846 
vn 0.226562 -0.891357 0.391846 
vn -0.565918 -0.486572 0.665283 
vn -0.660400 -0.735596 -0.149658 
vn 0.226562 -0.891357 0.391846 
vn -0.660400 -0.735596 -0.149658 
vn 0.293945 -0.809814 -0.507568 
vn 0.293945 -0.809814 -0.507568 
vn -0.660400 -0.735596 -0.149658 
vn -0.301514 -0.049805 -0.951904 
vn 0.293945 -0.809814 -0.507568 
vn -0.301514 -0.049805 -0.951904 
vn 0.516357 -0.127686 -0.846680 
vn 0.516357 -0.127686 -0.846680 
vn -0.301514 -0.049805 -0.951904 
vn -0.022949 0.838623 -0.543945 
vn 0.516357 -0.127686 -0.846680 
vn -0.022949 0.838623 -0.543945 
vn 0.826172 0.499023 -0.260986 
vn 0.826172 0.499023 -0.260986 
vn -0.022949 0.838623 -0.543945 
vn -0.017822 0.888428 0.458496 
vn 0.826172 0.499023 -0.260986 
vn -0.017822 0.888428 0.458496 
vn 0.764648 0.422363 0.486084 
vn 0.764648 0.422363 0.486084 
vn -0.017822 0.888428 0.458496 
vn -0.288574 0.319092 0.902588 
vn 0.764648 0.422363 0.486084 
vn -0.288574 0.319092 0.902588 
vn 0.517334 -0.341553 0.784424 
vn -0.922363 0.375488 0.088623 
vn -0.565918 -0.486572 0.665283 
vn -0.288574 0.319092 0.902588 
vn -0.922363 0.375488 0.088623 
vn -0.660400 -0.735596 -0.149658 
vn -0.565918 -0.486572 0.665283 
vn -0.922363 0.375488 0.088623 
vn -0.301514 -0.049805 -0.951904 
vn -0.660400 -0.735596 -0.149658 
vn -0.922363 0.375488 0.088623 
vn -0.022949 0.838623 -0.543945 
vn -0.301514 -0.049805 -0.951904 
vn -0.922363 0.375488 0.088623 
vn -0.017822 0.888428 0.458496 
vn -0.022949 0.838623 -0.543945 
vn -0.922363 0.375488 0.088623 
vn -0.288574 0.319092 0.902588 
vn -0.017822 0.888428 0.458496 
vt 0.317460 0.346457 
vt 0.222222 0.220472 
vt 0.285714 0.251969 
vt 0.317460 0.346457 
vt 0.285714 0.251969 
vt 0.428571 0.346457 
vt 0.317460 0.346457 
vt 0.428571 0.346457 
vt 0.507937 0.393701 
vt 0.317460 0.346457 
vt 0.507937 0.393701 
vt 0.428571 0.346457 
vt 0.317460 0.346457 
vt 0.428571 0.346457 
vt 0.285714 0.251969 
vt 0.317460 0.346457 
vt 0.285714 0.251969 
vt 0.222222 0.220472 
vt 0.222222 0.220472 
vt 0.507937 0.047244 
vt 0.523810 0.102362 
vt 0.222222 0.220472 
vt 0.523810 0.102362 
vt 0.285714 0.251969 
vt 0.285714 0.251969 
vt 0.523810 0.102362 
vt 0.650794 0.157480 
vt 0.285714 0.251969 
vt 0.650794 0.157480 
vt 0.428571 0.346457 
vt 0.428571 0.346457 
vt 0.650794 0.157480 
vt 0.746032 0.181102 
vt 0.428571 0.346457 
vt 0.746032 0.181102 
vt 0.507937 0.393701 
vt 0.507937 0.393701 
vt 0.746032 0.181102 
vt 0.650794 0.157480 
vt 0.507937 0.393701 
vt 0.650794 0.157480 
vt 0.428571 0.346457 
vt 0.428571 0.346457 
vt 0.650794 0.157480 
vt 0.523810 0.102362 
vt 0.428571 0.346457 
vt 0.523810 0.102362 
vt 0.285714 0.251969 
vt 0.285714 0.251969 
vt 0.523810 0.102362 
vt 0.507937 0.047244 
vt 0.285714 0.251969 
vt 0.507937 0.047244 
vt 0.222222 0.220472 
vt 0.809524 0.007874 
vt 0.523810 0.102362 
vt 0.507937 0.047244 
vt 0.809524 0.007874 
vt 0.650794 0.157480 
vt 0.523810 0.102362 
vt 0.809524 0.007874 
vt 0.746032 0.181102 
vt 0.650794 0.157480 
vt 0.809524 0.007874 
vt 0.650794 0.157480 
vt 0.746032 0.181102 
vt 0.809524 0.007874 
vt 0.523810 0.102362 
vt 0.650794 0.157480 
vt 0.809524 0.007874 
vt 0.507937 0.047244 
vt 0.523810 0.102362 
f 1/1/1 2/2/2 3/3/3
f 4/4/4 5/5/5 6/6/6
f 7/7/7 8/8/8 9/9/9
f 10/10/10 11/11/11 12/12/12
f 13/13/13 14/14/14 15/15/15
f 16/16/16 17/17/17 18/18/18
f 19/19/19 20/20/20 21/21/21
f 22/22/22 23/23/23 24/24/24
f 25/25/25 26/26/26 27/27/27
f 28/28/28 29/29/29 30/30/30
f 31/31/31 32/32/32 33/33/33
f 34/34/34 35/35/35 36/36/36
f 37/37/37 38/38/38 39/39/39
f 40/40/40 41/41/41 42/42/42
f 43/43/43 44/44/44 45/45/45
f 46/46/46 47/47/47 48/48/48
f 49/49/49 50/50/50 51/51/51
f 52/52/52 53/53/53 54/54/54
f 55/55/55 56/56/56 57/57/57
f 58/58/58 59/59/59 60/60/60
f 61/61/61 62/62/62 63/63/63
f 64/64/64 65/65/65 66/66/66
f 67/67/67 68/68/68 69/69/69
f 70/70/70 71/71/71 72/72/72
