v 54.000000 119.000000 23.000000 
v 20.000000 96.000000 -50.000000 
v -1.000000 96.000000 -1.000000 
v 20.000000 96.000000 -50.000000 
v 54.000000 119.000000 23.000000 
v 76.000000 104.000000 -25.000000 
v 109.000000 64.000000 48.000000 
v 76.000000 104.000000 -25.000000 
v 54.000000 119.000000 23.000000 
v 76.000000 104.000000 -25.000000 
v 109.000000 64.000000 48.000000 
v 131.000000 64.000000 -1.000000 
v 32.000000 104.000000 72.000000 
v -1.000000 96.000000 -1.000000 
v -23.000000 96.000000 47.000000 
v -1.000000 96.000000 -1.000000 
v 32.000000 104.000000 72.000000 
v 54.000000 119.000000 23.000000 
v 87.000000 64.000000 97.000000 
v 54.000000 119.000000 23.000000 
v 32.000000 104.000000 72.000000 
v 54.000000 119.000000 23.000000 
v 87.000000 64.000000 97.000000 
v 109.000000 64.000000 48.000000 
v 57.000000 166.000000 -14.000000 
v -14.000000 142.000000 -52.000000 
v -1.000000 142.000000 0.000000 
v -14.000000 142.000000 -52.000000 
v 57.000000 166.000000 -14.000000 
v 45.000000 150.000000 -66.000000 
v 116.000000 110.000000 -28.000000 
v 45.000000 150.000000 -66.000000 
v 57.000000 166.000000 -14.000000 
v 45.000000 150.000000 -66.000000 
v 116.000000 110.000000 -28.000000 
v 104.000000 110.000000 -80.000000 
v 70.000000 150.000000 38.000000 
v -1.000000 142.000000 0.000000 
v 10.000000 142.000000 52.000000 
v -1.000000 142.000000 0.000000 
v 70.000000 150.000000 38.000000 
v 57.000000 166.000000 -14.000000 
v 129.000000 110.000000 24.000000 
v 57.000000 166.000000 -14.000000 
v 70.000000 150.000000 38.000000 
v 57.000000 166.000000 -14.000000 
v 129.000000 110.000000 24.000000 
v 116.000000 110.000000 -28.000000 
v 9.000000 185.000000 -58.000000 
v -53.000000 161.000000 -6.000000 
v 0.000000 161.000000 1.000000 
v -53.000000 161.000000 -6.000000 
v 9.000000 185.000000 -58.000000 
v -43.000000 169.000000 -66.000000 
v 19.000000 129.000000 -118.000000 
v -43.000000 169.000000 -66.000000 
v 9.000000 185.000000 -58.000000 
v -43.000000 169.000000 -66.000000 
v 19.000000 129.000000 -118.000000 
v -34.000000 129.000000 -126.000000 
v 63.000000 169.000000 -49.000000 
v 0.000000 161.000000 1.000000 
v 53.000000 161.000000 10.000000 
v 0.000000 161.000000 1.000000 
v 63.000000 169.000000 -49.000000 
v 9.000000 185.000000 -58.000000 
v 72.000000 129.000000 -110.000000 
v 9.000000 185.000000 -58.000000 
v 63.000000 169.000000 -49.000000 
v 9.000000 185.000000 -58.000000 
v 72.000000 129.000000 -110.000000 
v 19.000000 129.000000 -118.000000 
v 91.000000 217.000000 -56.000000 
v -40.000000 217.000000 -24.000000 
v 40.000000 217.000000 25.000000 
v -40.000000 217.000000 -24.000000 
v 91.000000 217.000000 -56.000000 
v 11.000000 217.000000 -106.000000 
v 16.000000 186.000000 106.000000 
v 38.000000 186.000000 -27.000000 
v -38.000000 186.000000 27.000000 
v 38.000000 186.000000 -27.000000 
v 16.000000 186.000000 106.000000 
v 94.000000 186.000000 52.000000 
v -19.000000 245.000000 -105.000000 
v -37.000000 245.000000 28.000000 
v 38.000000 245.000000 -27.000000 
v -37.000000 245.000000 28.000000 
v -19.000000 245.000000 -105.000000 
v -95.000000 245.000000 -49.000000 
v -20.000000 154.000000 54.000000 
v 51.000000 130.000000 17.000000 
v 1.000000 130.000000 -2.000000 
v 51.000000 130.000000 17.000000 
v -20.000000 154.000000 54.000000 
v 29.000000 138.000000 73.000000 
v -43.000000 98.000000 110.000000 
v 29.000000 138.000000 73.000000 
v -20.000000 154.000000 54.000000 
v 29.000000 138.000000 73.000000 
v -43.000000 98.000000 110.000000 
v 6.000000 98.000000 130.000000 
v -71.000000 138.000000 34.000000 
v 1.000000 130.000000 -2.000000 
v -48.000000 130.000000 -22.000000 
v 1.000000 130.000000 -2.000000 
v -71.000000 138.000000 34.000000 
v -20.000000 154.000000 54.000000 
v -93.000000 98.000000 91.000000 
v -20.000000 154.000000 54.000000 
v -71.000000 138.000000 34.000000 
v -20.000000 154.000000 54.000000 
v -93.000000 98.000000 91.000000 
v -43.000000 98.000000 110.000000 
v -41.000000 132.000000 -41.000000 
v -35.000000 109.000000 39.000000 
v 2.000000 109.000000 1.000000 
v -35.000000 109.000000 39.000000 
v -41.000000 132.000000 -41.000000 
v -79.000000 116.000000 -2.000000 
v -85.000000 77.000000 -83.000000 
v -79.000000 116.000000 -2.000000 
v -41.000000 132.000000 -41.000000 
v -79.000000 116.000000 -2.000000 
v -85.000000 77.000000 -83.000000 
v -122.000000 77.000000 -44.000000 
v -4.000000 116.000000 -79.000000 
v 2.000000 109.000000 1.000000 
v 39.000000 109.000000 -37.000000 
v 2.000000 109.000000 1.000000 
v -4.000000 116.000000 -79.000000 
v -41.000000 132.000000 -41.000000 
v -47.000000 77.000000 -122.000000 
v -41.000000 132.000000 -41.000000 
v -4.000000 116.000000 -79.000000 
v -41.000000 132.000000 -41.000000 
v -47.000000 77.000000 -122.000000 
v -85.000000 77.000000 -83.000000 
v -105.000000 235.000000 21.000000 
v 29.000000 235.000000 37.000000 
v -28.000000 235.000000 -37.000000 
v 29.000000 235.000000 37.000000 
v -105.000000 235.000000 21.000000 
v -47.000000 235.000000 96.000000 
vn 0.176270 0.980957 0.080811 
vn -0.162598 0.961182 -0.222412 
vn -0.286621 0.957275 -0.032959 
vn -0.162598 0.961182 -0.222412 
vn 0.176270 0.980957 0.080811 
vn 0.415527 0.909424 -0.002197 
vn 0.591553 0.784180 0.186768 
vn 0.415527 0.909424 -0.002197 
vn 0.176270 0.980957 0.080811 
vn 0.415527 0.909424 -0.002197 
vn 0.591553 0.784180 0.186768 
vn 0.484863 0.847168 0.215820 
vn -0.054199 0.983887 0.169189 
vn -0.286621 0.957275 -0.032959 
vn -0.113037 0.992188 -0.050293 
vn -0.286621 0.957275 -0.032959 
vn -0.054199 0.983887 0.169189 
vn 0.176270 0.980957 0.080811 
vn 0.494629 0.795898 0.348877 
vn 0.176270 0.980957 0.080811 
vn -0.054199 0.983887 0.169189 
vn 0.176270 0.980957 0.080811 
vn 0.494629 0.795898 0.348877 
vn 0.591553 0.784180 0.186768 
vn 0.188965 0.980957 -0.043213 
vn -0.264404 0.961182 -0.077393 
vn -0.247314 0.957275 0.148193 
vn -0.264404 0.961182 -0.077393 
vn 0.188965 0.980957 -0.043213 
vn 0.328125 0.909424 -0.254883 
vn 0.583008 0.784180 -0.211670 
vn 0.328125 0.909424 -0.254883 
vn 0.188965 0.980957 -0.043213 
vn 0.328125 0.909424 -0.254883 
vn 0.583008 0.784180 -0.211670 
vn 0.516113 0.847168 -0.123779 
vn 0.059814 0.983887 0.167236 
vn -0.247314 0.957275 0.148193 
vn -0.120361 0.992188 0.028809 
vn -0.247314 0.957275 0.148193 
vn 0.059814 0.983887 0.167236 
vn 0.188965 0.980957 -0.043213 
vn 0.604736 0.795898 -0.024170 
vn 0.188965 0.980957 -0.043213 
vn 0.059814 0.983887 0.167236 
vn 0.188965 0.980957 -0.043213 
vn 0.604736 0.795898 -0.024170 
vn 0.583008 0.784180 -0.211670 
vn 0.032227 0.980957 -0.191162 
vn -0.172852 0.961182 0.214600 
vn 0.042236 0.957275 0.285400 
vn -0.172852 0.961182 0.214600 
vn 0.032227 0.980957 -0.191162 
vn -0.109863 0.909424 -0.400635 
vn 0.027344 0.784180 -0.619629 
vn -0.109863 0.909424 -0.400635 
vn 0.032227 0.980957 -0.191162 
vn -0.109863 0.909424 -0.400635 
vn 0.027344 0.784180 -0.619629 
vn 0.083008 0.847168 -0.524414 
vn 0.177490 0.983887 0.008545 
vn 0.042236 0.957275 0.285400 
vn -0.019287 0.992188 0.122314 
vn 0.042236 0.957275 0.285400 
vn 0.177490 0.983887 0.008545 
vn 0.032227 0.980957 -0.191162 
vn 0.208984 0.795898 -0.567871 
vn 0.032227 0.980957 -0.191162 
vn 0.177490 0.983887 0.008545 
vn 0.032227 0.980957 -0.191162 
vn 0.208984 0.795898 -0.567871 
vn 0.027344 0.784180 -0.619629 
vn 0.000000 1.000000 0.000000 
vn 0.000000 1.000000 0.000000 
vn 0.000000 1.000000 0.000000 
vn 0.000000 1.000000 0.000000 
vn 0.000000 1.000000 0.000000 
vn 0.000000 1.000000 0.000000 
vn 0.000000 1.000000 0.000000 
vn 0.000000 1.000000 0.000000 
vn 0.000000 1.000000 0.000000 
vn 0.000000 1.000000 0.000000 
vn 0.000000 1.000000 0.000000 
vn 0.000000 1.000000 0.000000 
vn 0.000000 1.000000 0.000000 
vn 0.000000 1.000000 0.000000 
vn 0.000000 1.000000 0.000000 
vn 0.000000 1.000000 0.000000 
vn 0.000000 1.000000 0.000000 
vn 0.000000 1.000000 0.000000 
vn -0.072998 0.980957 0.179688 
vn 0.215088 0.961182 -0.172119 
vn 0.020264 0.957275 -0.287598 
vn 0.215088 0.961182 -0.172119 
vn -0.072998 0.980957 0.179688 
vn 0.020508 0.909424 0.415039 
vn -0.160889 0.784180 0.599121 
vn 0.020508 0.909424 0.415039 
vn -0.072998 0.980957 0.179688 
vn 0.020508 0.909424 0.415039 
vn -0.160889 0.784180 0.599121 
vn -0.194580 0.847168 0.493896 
vn -0.171387 0.983887 -0.046875 
vn 0.020264 0.957275 -0.287598 
vn 0.045166 0.992188 -0.115234 
vn 0.020264 0.957275 -0.287598 
vn -0.171387 0.983887 -0.046875 
vn -0.072998 0.980957 0.179688 
vn -0.326904 0.795898 0.509277 
vn -0.072998 0.980957 0.179688 
vn -0.171387 0.983887 -0.046875 
vn -0.072998 0.980957 0.179688 
vn -0.326904 0.795898 0.509277 
vn -0.160889 0.784180 0.599121 
vn -0.137939 0.980957 -0.136230 
vn 0.076660 0.961182 0.264648 
vn 0.258057 0.957275 0.128906 
vn 0.076660 0.961182 0.264648 
vn -0.137939 0.980957 -0.136230 
vn -0.391113 0.909424 -0.139648 
vn -0.491943 0.784180 -0.377930 
vn -0.391113 0.909424 -0.139648 
vn -0.137939 0.980957 -0.136230 
vn -0.391113 0.909424 -0.139648 
vn -0.491943 0.784180 -0.377930 
vn -0.381836 0.847168 -0.368652 
vn 0.108887 0.983887 -0.140381 
vn 0.258057 0.957275 0.128906 
vn 0.089111 0.992188 0.085938 
vn 0.258057 0.957275 0.128906 
vn 0.108887 0.983887 -0.140381 
vn -0.137939 0.980957 -0.136230 
vn -0.345215 0.795898 -0.497070 
vn -0.137939 0.980957 -0.136230 
vn 0.108887 0.983887 -0.140381 
vn -0.137939 0.980957 -0.136230 
vn -0.345215 0.795898 -0.497070 
vn -0.491943 0.784180 -0.377930 
vn 0.000000 1.000000 0.000000 
vn 0.000000 1.000000 0.000000 
vn 0.000000 1.000000 0.000000 
vn 0.000000 1.000000 0.000000 
vn 0.000000 1.000000 0.000000 
vn 0.000000 1.000000 0.000000 
vt 0.748031 0.244094 
vt 0.496063 -0.007874 
vt 0.748031 -0.007874 
vt 0.496063 -0.007874 
vt 0.748031 0.244094 
vt 0.496063 0.244094 
vt 0.748031 0.496063 
vt 0.496063 0.244094 
vt 0.748031 0.244094 
vt 0.496063 0.244094 
vt 0.748031 0.496063 
vt 0.496063 0.496063 
vt 1.000000 0.244094 
vt 0.748031 -0.007874 
vt 1.000000 -0.007874 
vt 0.748031 -0.007874 
vt 1.000000 0.244094 
vt 0.748031 0.244094 
vt 1.000000 0.496063 
vt 0.748031 0.244094 
vt 1.000000 0.244094 
vt 0.748031 0.244094 
vt 1.000000 0.496063 
vt 0.748031 0.496063 
vt 0.748031 0.244094 
vt 0.496063 -0.007874 
vt 0.748031 -0.007874 
vt 0.496063 -0.007874 
vt 0.748031 0.244094 
vt 0.496063 0.244094 
vt 0.748031 0.496063 
vt 0.496063 0.244094 
vt 0.748031 0.244094 
vt 0.496063 0.244094 
vt 0.748031 0.496063 
vt 0.496063 0.496063 
vt 1.000000 0.244094 
vt 0.748031 -0.007874 
vt 1.000000 -0.007874 
vt 0.748031 -0.007874 
vt 1.000000 0.244094 
vt 0.748031 0.244094 
vt 1.000000 0.496063 
vt 0.748031 0.244094 
vt 1.000000 0.244094 
vt 0.748031 0.244094 
vt 1.000000 0.496063 
vt 0.748031 0.496063 
vt 0.748031 0.244094 
vt 0.496063 -0.007874 
vt 0.748031 -0.007874 
vt 0.496063 -0.007874 
vt 0.748031 0.244094 
vt 0.496063 0.244094 
vt 0.748031 0.496063 
vt 0.496063 0.244094 
vt 0.748031 0.244094 
vt 0.496063 0.244094 
vt 0.748031 0.496063 
vt 0.496063 0.496063 
vt 1.000000 0.244094 
vt 0.748031 -0.007874 
vt 1.000000 -0.007874 
vt 0.748031 -0.007874 
vt 1.000000 0.244094 
vt 0.748031 0.244094 
vt 1.000000 0.496063 
vt 0.748031 0.244094 
vt 1.000000 0.244094 
vt 0.748031 0.244094 
vt 1.000000 0.496063 
vt 0.748031 0.496063 
vt 0.496063 0.496063 
vt 1.000000 -0.007874 
vt 0.496063 -0.007874 
vt 1.000000 -0.007874 
vt 0.496063 0.496063 
vt 1.000000 0.496063 
vt 0.496063 0.496063 
vt 1.000000 -0.007874 
vt 0.496063 -0.007874 
vt 1.000000 -0.007874 
vt 0.496063 0.496063 
vt 1.000000 0.496063 
vt 0.496063 0.496063 
vt 1.000000 -0.007874 
vt 0.496063 -0.007874 
vt 1.000000 -0.007874 
vt 0.496063 0.496063 
vt 1.000000 0.496063 
vt 0.748031 0.244094 
vt 0.496063 -0.007874 
vt 0.748031 -0.007874 
vt 0.496063 -0.007874 
vt 0.748031 0.244094 
vt 0.496063 0.244094 
vt 0.748031 0.496063 
vt 0.496063 0.244094 
vt 0.748031 0.244094 
vt 0.496063 0.244094 
vt 0.748031 0.496063 
vt 0.496063 0.496063 
vt 1.000000 0.244094 
vt 0.748031 -0.007874 
vt 1.000000 -0.007874 
vt 0.748031 -0.007874 
vt 1.000000 0.244094 
vt 0.748031 0.244094 
vt 1.000000 0.496063 
vt 0.748031 0.244094 
vt 1.000000 0.244094 
vt 0.748031 0.244094 
vt 1.000000 0.496063 
vt 0.748031 0.496063 
vt 0.748031 0.244094 
vt 0.496063 -0.007874 
vt 0.748031 -0.007874 
vt 0.496063 -0.007874 
vt 0.748031 0.244094 
vt 0.496063 0.244094 
vt 0.748031 0.496063 
vt 0.496063 0.244094 
vt 0.748031 0.244094 
vt 0.496063 0.244094 
vt 0.748031 0.496063 
vt 0.496063 0.496063 
vt 1.000000 0.244094 
vt 0.748031 -0.007874 
vt 1.000000 -0.007874 
vt 0.748031 -0.007874 
vt 1.000000 0.244094 
vt 0.748031 0.244094 
vt 1.000000 0.496063 
vt 0.748031 0.244094 
vt 1.000000 0.244094 
vt 0.748031 0.244094 
vt 1.000000 0.496063 
vt 0.748031 0.496063 
vt 0.496063 0.496063 
vt 1.000000 -0.007874 
vt 0.496063 -0.007874 
vt 1.000000 -0.007874 
vt 0.496063 0.496063 
vt 1.000000 0.496063 
f 1/1/1 2/2/2 3/3/3
f 4/4/4 5/5/5 6/6/6
f 7/7/7 8/8/8 9/9/9
f 10/10/10 11/11/11 12/12/12
f 13/13/13 14/14/14 15/15/15
f 16/16/16 17/17/17 18/18/18
f 19/19/19 20/20/20 21/21/21
f 22/22/22 23/23/23 24/24/24
f 25/25/25 26/26/26 27/27/27
f 28/28/28 29/29/29 30/30/30
f 31/31/31 32/32/32 33/33/33
f 34/34/34 35/35/35 36/36/36
f 37/37/37 38/38/38 39/39/39
f 40/40/40 41/41/41 42/42/42
f 43/43/43 44/44/44 45/45/45
f 46/46/46 47/47/47 48/48/48
f 49/49/49 50/50/50 51/51/51
f 52/52/52 53/53/53 54/54/54
f 55/55/55 56/56/56 57/57/57
f 58/58/58 59/59/59 60/60/60
f 61/61/61 62/62/62 63/63/63
f 64/64/64 65/65/65 66/66/66
f 67/67/67 68/68/68 69/69/69
f 70/70/70 71/71/71 72/72/72
f 73/73/73 74/74/74 75/75/75
f 76/76/76 77/77/77 78/78/78
f 79/79/79 80/80/80 81/81/81
f 82/82/82 83/83/83 84/84/84
f 85/85/85 86/86/86 87/87/87
f 88/88/88 89/89/89 90/90/90
f 91/91/91 92/92/92 93/93/93
f 94/94/94 95/95/95 96/96/96
f 97/97/97 98/98/98 99/99/99
f 100/100/100 101/101/101 102/102/102
f 103/103/103 104/104/104 105/105/105
f 106/106/106 107/107/107 108/108/108
f 109/109/109 110/110/110 111/111/111
f 112/112/112 113/113/113 114/114/114
f 115/115/115 116/116/116 117/117/117
f 118/118/118 119/119/119 120/120/120
f 121/121/121 122/122/122 123/123/123
f 124/124/124 125/125/125 126/126/126
f 127/127/127 128/128/128 129/129/129
f 130/130/130 131/131/131 132/132/132
f 133/133/133 134/134/134 135/135/135
f 136/136/136 137/137/137 138/138/138
f 139/139/139 140/140/140 141/141/141
f 142/142/142 143/143/143 144/144/144
