v 24.000000 167.000000 1.000000 
v 14.000000 167.000000 19.000000 
v 19.000000 0.000000 0.000000 
v 14.000000 167.000000 19.000000 
v 9.000000 0.000000 16.000000 
v 19.000000 0.000000 0.000000 
v 14.000000 167.000000 19.000000 
v -9.000000 167.000000 20.000000 
v 9.000000 0.000000 16.000000 
v -9.000000 167.000000 20.000000 
v -9.000000 0.000000 16.000000 
v 9.000000 0.000000 16.000000 
v -9.000000 167.000000 20.000000 
v -22.000000 167.000000 1.000000 
v -9.000000 0.000000 16.000000 
v -22.000000 167.000000 1.000000 
v -19.000000 0.000000 0.000000 
v -9.000000 0.000000 16.000000 
v -22.000000 167.000000 1.000000 
v -11.000000 167.000000 -19.000000 
v -19.000000 0.000000 0.000000 
v -11.000000 167.000000 -19.000000 
v -9.000000 0.000000 -16.000000 
v -19.000000 0.000000 0.000000 
v -11.000000 167.000000 -19.000000 
v 11.000000 167.000000 -20.000000 
v -9.000000 0.000000 -16.000000 
v 11.000000 167.000000 -20.000000 
v 9.000000 0.000000 -16.000000 
v -9.000000 0.000000 -16.000000 
v 11.000000 167.000000 -20.000000 
v 24.000000 167.000000 1.000000 
v 9.000000 0.000000 -16.000000 
v 24.000000 167.000000 1.000000 
v 19.000000 0.000000 0.000000 
v 9.000000 0.000000 -16.000000 
v 14.000000 167.000000 19.000000 
v 24.000000 167.000000 1.000000 
v 0.000000 167.000000 0.000000 
v -9.000000 167.000000 20.000000 
v 14.000000 167.000000 19.000000 
v 0.000000 167.000000 0.000000 
v -22.000000 167.000000 1.000000 
v -9.000000 167.000000 20.000000 
v 0.000000 167.000000 0.000000 
v -11.000000 167.000000 -19.000000 
v -22.000000 167.000000 1.000000 
v 0.000000 167.000000 0.000000 
v 11.000000 167.000000 -20.000000 
v -11.000000 167.000000 -19.000000 
v 0.000000 167.000000 0.000000 
v 24.000000 167.000000 1.000000 
v 11.000000 167.000000 -20.000000 
v 0.000000 167.000000 0.000000 
vn 0.980225 -0.035156 -0.193359 
vn 0.661865 -0.038818 0.748291 
vn 0.981445 -0.040527 0.186035 
vn 0.661865 -0.038818 0.748291 
vn 0.336426 -0.034180 0.940918 
vn 0.981445 -0.040527 0.186035 
vn 0.661865 -0.038818 0.748291 
vn -0.292480 -0.023193 0.955811 
vn 0.336426 -0.034180 0.940918 
vn -0.292480 -0.023193 0.955811 
vn -0.629150 -0.024414 0.776855 
vn 0.336426 -0.034180 0.940918 
vn -0.292480 -0.023193 0.955811 
vn -0.975342 -0.021729 0.219238 
vn -0.629150 -0.024414 0.776855 
vn -0.975342 -0.021729 0.219238 
vn -0.981201 -0.023438 -0.190918 
vn -0.629150 -0.024414 0.776855 
vn -0.975342 -0.021729 0.219238 
vn -0.662354 -0.020264 -0.748779 
vn -0.981201 -0.023438 -0.190918 
vn -0.662354 -0.020264 -0.748779 
vn -0.341797 -0.022949 -0.939453 
vn -0.981201 -0.023438 -0.190918 
vn -0.662354 -0.020264 -0.748779 
vn 0.310547 -0.026367 -0.949951 
vn -0.341797 -0.022949 -0.939453 
vn 0.310547 -0.026367 -0.949951 
vn 0.652344 -0.029785 -0.757080 
vn -0.341797 -0.022949 -0.939453 
vn 0.310547 -0.026367 -0.949951 
vn 0.980225 -0.035156 -0.193359 
vn 0.652344 -0.029785 -0.757080 
vn 0.980225 -0.035156 -0.193359 
vn 0.981445 -0.040527 0.186035 
vn 0.652344 -0.029785 -0.757080 
vn 0.000000 1.000000 0.000000 
vn 0.000000 1.000000 0.000000 
vn 0.000000 1.000000 0.000000 
vn 0.000000 1.000000 0.000000 
vn 0.000000 1.000000 0.000000 
vn 0.000000 1.000000 0.000000 
vn 0.000000 1.000000 0.000000 
vn 0.000000 1.000000 0.000000 
vn 0.000000 1.000000 0.000000 
vn 0.000000 1.000000 0.000000 
vn 0.000000 1.000000 0.000000 
vn 0.000000 1.000000 0.000000 
vn 0.000000 1.000000 0.000000 
vn 0.000000 1.000000 0.000000 
vn 0.000000 1.000000 0.000000 
vn 0.000000 1.000000 0.000000 
vn 0.000000 1.000000 0.000000 
vn 0.000000 1.000000 0.000000 
vt 0.000000 0.496063 
vt 0.317460 0.496063 
vt 0.000000 -0.007874 
vt 0.317460 0.496063 
vt 0.317460 -0.007874 
vt 0.000000 -0.007874 
vt 0.317460 0.496063 
vt 0.666667 0.496063 
vt 0.317460 -0.007874 
vt 0.666667 0.496063 
vt 0.666667 -0.007874 
vt 0.317460 -0.007874 
vt 0.666667 0.496063 
vt 1.000000 0.496063 
vt 0.666667 -0.007874 
vt 1.000000 0.496063 
vt 1.000000 -0.007874 
vt 0.666667 -0.007874 
vt 0.000000 0.496063 
vt 0.317460 0.496063 
vt 0.000000 -0.007874 
vt 0.317460 0.496063 
vt 0.317460 -0.007874 
vt 0.000000 -0.007874 
vt 0.317460 0.496063 
vt 0.666667 0.496063 
vt 0.317460 -0.007874 
vt 0.666667 0.496063 
vt 0.666667 -0.007874 
vt 0.317460 -0.007874 
vt 0.666667 0.496063 
vt 1.000000 0.496063 
vt 0.666667 -0.007874 
vt 1.000000 0.496063 
vt 1.000000 -0.007874 
vt 0.666667 -0.007874 
vt 0.730159 0.968504 
vt 1.000000 0.748031 
vt 0.507937 0.748031 
vt 0.269841 0.968504 
vt 0.730159 0.968504 
vt 0.507937 0.748031 
vt 0.000000 0.732283 
vt 0.269841 0.968504 
vt 0.507937 0.748031 
vt 0.301587 0.519685 
vt 0.000000 0.732283 
vt 0.507937 0.748031 
vt 0.746032 0.535433 
vt 0.301587 0.519685 
vt 0.507937 0.748031 
vt 1.000000 0.748031 
vt 0.746032 0.535433 
vt 0.507937 0.748031 
f 1/1/1 2/2/2 3/3/3
f 4/4/4 5/5/5 6/6/6
f 7/7/7 8/8/8 9/9/9
f 10/10/10 11/11/11 12/12/12
f 13/13/13 14/14/14 15/15/15
f 16/16/16 17/17/17 18/18/18
f 19/19/19 20/20/20 21/21/21
f 22/22/22 23/23/23 24/24/24
f 25/25/25 26/26/26 27/27/27
f 28/28/28 29/29/29 30/30/30
f 31/31/31 32/32/32 33/33/33
f 34/34/34 35/35/35 36/36/36
f 37/37/37 38/38/38 39/39/39
f 40/40/40 41/41/41 42/42/42
f 43/43/43 44/44/44 45/45/45
f 46/46/46 47/47/47 48/48/48
f 49/49/49 50/50/50 51/51/51
f 52/52/52 53/53/53 54/54/54
