v -14.000000 33.000000 -27.000000 
v 0.000000 38.000000 -23.000000 
v 0.000000 30.000000 -49.000000 
v -20.000000 21.000000 -35.000000 
v -14.000000 33.000000 -27.000000 
v 0.000000 30.000000 -49.000000 
v -14.000000 9.000000 -43.000000 
v -20.000000 21.000000 -35.000000 
v 0.000000 30.000000 -49.000000 
v 0.000000 4.000000 -46.000000 
v -14.000000 9.000000 -43.000000 
v 0.000000 30.000000 -49.000000 
v 14.000000 9.000000 -43.000000 
v 0.000000 4.000000 -46.000000 
v 0.000000 30.000000 -49.000000 
v 20.000000 21.000000 -35.000000 
v 14.000000 9.000000 -43.000000 
v 0.000000 30.000000 -49.000000 
v 14.000000 33.000000 -27.000000 
v 20.000000 21.000000 -35.000000 
v 0.000000 30.000000 -49.000000 
v 0.000000 38.000000 -23.000000 
v 14.000000 33.000000 -27.000000 
v 0.000000 30.000000 -49.000000 
v -22.000000 20.000000 9.000000 
v 0.000000 28.000000 12.000000 
v 0.000000 38.000000 -23.000000 
v -14.000000 33.000000 -27.000000 
v -22.000000 20.000000 9.000000 
v 0.000000 38.000000 -23.000000 
v -31.000000 0.000000 0.000000 
v -22.000000 20.000000 9.000000 
v -14.000000 33.000000 -27.000000 
v -20.000000 21.000000 -35.000000 
v -31.000000 0.000000 0.000000 
v -14.000000 33.000000 -27.000000 
v -22.000000 -18.000000 -8.000000 
v -31.000000 0.000000 0.000000 
v -20.000000 21.000000 -35.000000 
v -14.000000 9.000000 -43.000000 
v -22.000000 -18.000000 -8.000000 
v -20.000000 21.000000 -35.000000 
v 0.000000 -27.000000 -12.000000 
v -22.000000 -18.000000 -8.000000 
v -14.000000 9.000000 -43.000000 
v 0.000000 4.000000 -46.000000 
v 0.000000 -27.000000 -12.000000 
v -14.000000 9.000000 -43.000000 
v 22.000000 -18.000000 -8.000000 
v 0.000000 -27.000000 -12.000000 
v 0.000000 4.000000 -46.000000 
v 14.000000 9.000000 -43.000000 
v 22.000000 -18.000000 -8.000000 
v 0.000000 4.000000 -46.000000 
v 31.000000 0.000000 0.000000 
v 22.000000 -18.000000 -8.000000 
v 14.000000 9.000000 -43.000000 
v 20.000000 21.000000 -35.000000 
v 31.000000 0.000000 0.000000 
v 14.000000 9.000000 -43.000000 
v 22.000000 20.000000 9.000000 
v 31.000000 0.000000 0.000000 
v 20.000000 21.000000 -35.000000 
v 14.000000 33.000000 -27.000000 
v 22.000000 20.000000 9.000000 
v 20.000000 21.000000 -35.000000 
v 0.000000 28.000000 12.000000 
v 22.000000 20.000000 9.000000 
v 14.000000 33.000000 -27.000000 
v 0.000000 38.000000 -23.000000 
v 0.000000 28.000000 12.000000 
v 14.000000 33.000000 -27.000000 
v -8.000000 -6.000000 66.000000 
v 0.000000 -4.000000 68.000000 
v 0.000000 28.000000 12.000000 
v -22.000000 20.000000 9.000000 
v -8.000000 -6.000000 66.000000 
v 0.000000 28.000000 12.000000 
v -11.000000 -15.000000 62.000000 
v -8.000000 -6.000000 66.000000 
v -22.000000 20.000000 9.000000 
v -31.000000 0.000000 0.000000 
v -11.000000 -15.000000 62.000000 
v -22.000000 20.000000 9.000000 
v -8.000000 -23.000000 59.000000 
v -11.000000 -15.000000 62.000000 
v -31.000000 0.000000 0.000000 
v -22.000000 -18.000000 -8.000000 
v -8.000000 -23.000000 59.000000 
v -31.000000 0.000000 0.000000 
v 0.000000 -27.000000 57.000000 
v -8.000000 -23.000000 59.000000 
v -22.000000 -18.000000 -8.000000 
v 0.000000 -27.000000 -12.000000 
v 0.000000 -27.000000 57.000000 
v -22.000000 -18.000000 -8.000000 
v 8.000000 -23.000000 59.000000 
v 0.000000 -27.000000 57.000000 
v 0.000000 -27.000000 -12.000000 
v 22.000000 -18.000000 -8.000000 
v 8.000000 -23.000000 59.000000 
v 0.000000 -27.000000 -12.000000 
v 11.000000 -15.000000 62.000000 
v 8.000000 -23.000000 59.000000 
v 22.000000 -18.000000 -8.000000 
v 31.000000 0.000000 0.000000 
v 11.000000 -15.000000 62.000000 
v 22.000000 -18.000000 -8.000000 
v 8.000000 -6.000000 66.000000 
v 11.000000 -15.000000 62.000000 
v 31.000000 0.000000 0.000000 
v 22.000000 20.000000 9.000000 
v 8.000000 -6.000000 66.000000 
v 31.000000 0.000000 0.000000 
v 0.000000 -4.000000 68.000000 
v 8.000000 -6.000000 66.000000 
v 22.000000 20.000000 9.000000 
v 0.000000 28.000000 12.000000 
v 0.000000 -4.000000 68.000000 
v 22.000000 20.000000 9.000000 
v -8.000000 -6.000000 66.000000 
v -17.000000 -25.000000 97.000000 
v 0.000000 -25.000000 105.000000 
v 0.000000 -25.000000 105.000000 
v 0.000000 -4.000000 68.000000 
v -8.000000 -6.000000 66.000000 
v -17.000000 -25.000000 97.000000 
v -8.000000 -6.000000 66.000000 
v -11.000000 -15.000000 62.000000 
v -17.000000 -25.000000 97.000000 
v -11.000000 -15.000000 62.000000 
v -8.000000 -23.000000 59.000000 
v 0.000000 -27.000000 57.000000 
v 0.000000 -25.000000 105.000000 
v -17.000000 -25.000000 97.000000 
v -17.000000 -25.000000 97.000000 
v -8.000000 -23.000000 59.000000 
v 0.000000 -27.000000 57.000000 
v 8.000000 -23.000000 59.000000 
v 17.000000 -25.000000 97.000000 
v 0.000000 -25.000000 105.000000 
v 0.000000 -25.000000 105.000000 
v 0.000000 -27.000000 57.000000 
v 8.000000 -23.000000 59.000000 
v 17.000000 -25.000000 97.000000 
v 8.000000 -23.000000 59.000000 
v 11.000000 -15.000000 62.000000 
v 17.000000 -25.000000 97.000000 
v 11.000000 -15.000000 62.000000 
v 8.000000 -6.000000 66.000000 
v 0.000000 -4.000000 68.000000 
v 0.000000 -25.000000 105.000000 
v 17.000000 -25.000000 97.000000 
v 17.000000 -25.000000 97.000000 
v 8.000000 -6.000000 66.000000 
v 0.000000 -4.000000 68.000000 
vn -0.595459 0.736816 -0.319824 
vn -0.082520 0.983643 -0.159180 
vn 0.000000 0.510498 -0.859619 
vn -0.736816 0.256836 -0.625244 
vn -0.595459 0.736816 -0.319824 
vn 0.000000 0.510498 -0.859619 
vn -0.460205 -0.163086 -0.872559 
vn -0.736816 0.256836 -0.625244 
vn 0.000000 0.510498 -0.859619 
vn 0.072510 -0.296143 -0.952148 
vn -0.460205 -0.163086 -0.872559 
vn 0.000000 0.510498 -0.859619 
vn 0.557617 -0.070801 -0.826904 
vn 0.072510 -0.296143 -0.952148 
vn 0.000000 0.510498 -0.859619 
vn 0.739014 0.396484 -0.544434 
vn 0.557617 -0.070801 -0.826904 
vn 0.000000 0.510498 -0.859619 
vn 0.482178 0.836914 -0.257812 
vn 0.739014 0.396484 -0.544434 
vn 0.000000 0.510498 -0.859619 
vn -0.082520 0.983643 -0.159180 
vn 0.482178 0.836914 -0.257812 
vn 0.000000 0.510498 -0.859619 
vn -0.703857 0.646729 0.292969 
vn 0.012207 0.927002 0.374268 
vn -0.082520 0.983643 -0.159180 
vn -0.595459 0.736816 -0.319824 
vn -0.703857 0.646729 0.292969 
vn -0.082520 0.983643 -0.159180 
vn -0.998291 -0.000732 0.056396 
vn -0.703857 0.646729 0.292969 
vn -0.595459 0.736816 -0.319824 
vn -0.736816 0.256836 -0.625244 
vn -0.998291 -0.000732 0.056396 
vn -0.595459 0.736816 -0.319824 
vn -0.717285 -0.660400 -0.221436 
vn -0.998291 -0.000732 0.056396 
vn -0.736816 0.256836 -0.625244 
vn -0.460205 -0.163086 -0.872559 
vn -0.717285 -0.660400 -0.221436 
vn -0.736816 0.256836 -0.625244 
vn -0.000977 -0.937256 -0.347900 
vn -0.717285 -0.660400 -0.221436 
vn -0.460205 -0.163086 -0.872559 
vn 0.072510 -0.296143 -0.952148 
vn -0.000977 -0.937256 -0.347900 
vn -0.460205 -0.163086 -0.872559 
vn 0.709229 -0.660645 -0.245605 
vn -0.000977 -0.937256 -0.347900 
vn 0.072510 -0.296143 -0.952148 
vn 0.557617 -0.070801 -0.826904 
vn 0.709229 -0.660645 -0.245605 
vn 0.072510 -0.296143 -0.952148 
vn 0.999756 0.004150 0.003174 
vn 0.709229 -0.660645 -0.245605 
vn 0.557617 -0.070801 -0.826904 
vn 0.739014 0.396484 -0.544434 
vn 0.999756 0.004150 0.003174 
vn 0.557617 -0.070801 -0.826904 
vn 0.682373 0.686279 0.250977 
vn 0.999756 0.004150 0.003174 
vn 0.739014 0.396484 -0.544434 
vn 0.482178 0.836914 -0.257812 
vn 0.682373 0.686279 0.250977 
vn 0.739014 0.396484 -0.544434 
vn 0.012207 0.927002 0.374268 
vn 0.682373 0.686279 0.250977 
vn 0.482178 0.836914 -0.257812 
vn -0.082520 0.983643 -0.159180 
vn 0.012207 0.927002 0.374268 
vn 0.482178 0.836914 -0.257812 
vn -0.546875 0.696289 0.464355 
vn 0.101074 0.822266 0.559814 
vn 0.012207 0.927002 0.374268 
vn -0.703857 0.646729 0.292969 
vn -0.546875 0.696289 0.464355 
vn 0.012207 0.927002 0.374268 
vn -0.980713 0.005371 0.194580 
vn -0.546875 0.696289 0.464355 
vn -0.703857 0.646729 0.292969 
vn -0.998291 -0.000732 0.056396 
vn -0.980713 0.005371 0.194580 
vn -0.703857 0.646729 0.292969 
vn -0.709961 -0.684326 0.164551 
vn -0.980713 0.005371 0.194580 
vn -0.998291 -0.000732 0.056396 
vn -0.717285 -0.660400 -0.221436 
vn -0.709961 -0.684326 0.164551 
vn -0.998291 -0.000732 0.056396 
vn -0.065186 -0.966553 0.247070 
vn -0.709961 -0.684326 0.164551 
vn -0.717285 -0.660400 -0.221436 
vn -0.000977 -0.937256 -0.347900 
vn -0.065186 -0.966553 0.247070 
vn -0.717285 -0.660400 -0.221436 
vn 0.508057 -0.837402 0.200195 
vn -0.065186 -0.966553 0.247070 
vn -0.000977 -0.937256 -0.347900 
vn 0.709229 -0.660645 -0.245605 
vn 0.508057 -0.837402 0.200195 
vn -0.000977 -0.937256 -0.347900 
vn 0.972656 -0.158936 0.168213 
vn 0.508057 -0.837402 0.200195 
vn 0.709229 -0.660645 -0.245605 
vn 0.999756 0.004150 0.003174 
vn 0.972656 -0.158936 0.168213 
vn 0.709229 -0.660645 -0.245605 
vn 0.731689 0.543701 0.410889 
vn 0.972656 -0.158936 0.168213 
vn 0.999756 0.004150 0.003174 
vn 0.682373 0.686279 0.250977 
vn 0.731689 0.543701 0.410889 
vn 0.999756 0.004150 0.003174 
vn 0.101074 0.822266 0.559814 
vn 0.731689 0.543701 0.410889 
vn 0.682373 0.686279 0.250977 
vn 0.012207 0.927002 0.374268 
vn 0.101074 0.822266 0.559814 
vn 0.682373 0.686279 0.250977 
vn -0.546875 0.696289 0.464355 
vn -0.930664 -0.328125 0.161133 
vn 0.006348 -0.163574 0.986328 
vn 0.006348 -0.163574 0.986328 
vn 0.101074 0.822266 0.559814 
vn -0.546875 0.696289 0.464355 
vn -0.930664 -0.328125 0.161133 
vn -0.546875 0.696289 0.464355 
vn -0.980713 0.005371 0.194580 
vn -0.930664 -0.328125 0.161133 
vn -0.980713 0.005371 0.194580 
vn -0.709961 -0.684326 0.164551 
vn -0.065186 -0.966553 0.247070 
vn 0.006348 -0.163574 0.986328 
vn -0.930664 -0.328125 0.161133 
vn -0.930664 -0.328125 0.161133 
vn -0.709961 -0.684326 0.164551 
vn -0.065186 -0.966553 0.247070 
vn 0.508057 -0.837402 0.200195 
vn 0.892822 0.332764 0.302734 
vn 0.006348 -0.163574 0.986328 
vn 0.006348 -0.163574 0.986328 
vn -0.065186 -0.966553 0.247070 
vn 0.508057 -0.837402 0.200195 
vn 0.892822 0.332764 0.302734 
vn 0.508057 -0.837402 0.200195 
vn 0.972656 -0.158936 0.168213 
vn 0.892822 0.332764 0.302734 
vn 0.972656 -0.158936 0.168213 
vn 0.731689 0.543701 0.410889 
vn 0.101074 0.822266 0.559814 
vn 0.006348 -0.163574 0.986328 
vn 0.892822 0.332764 0.302734 
vn 0.892822 0.332764 0.302734 
vn 0.731689 0.543701 0.410889 
vn 0.101074 0.822266 0.559814 
vt 0.825397 0.763780 
vt 1.000000 0.787402 
vt 0.714286 0.842520 
vt 0.682540 0.771654 
vt 0.825397 0.763780 
vt 0.714286 0.842520 
vt 0.523810 0.787402 
vt 0.682540 0.771654 
vt 0.714286 0.842520 
vt 0.460317 0.787402 
vt 0.523810 0.787402 
vt 0.714286 0.842520 
vt 0.523810 0.787402 
vt 0.460317 0.787402 
vt 0.714286 0.842520 
vt 0.682540 0.771654 
vt 0.523810 0.787402 
vt 0.714286 0.842520 
vt 0.825397 0.763780 
vt 0.682540 0.771654 
vt 0.714286 0.842520 
vt 1.000000 0.787402 
vt 0.825397 0.763780 
vt 0.714286 0.842520 
vt 0.857143 0.606299 
vt 1.000000 0.606299 
vt 1.000000 0.787402 
vt 0.825397 0.763780 
vt 0.857143 0.606299 
vt 1.000000 0.787402 
vt 0.619048 0.606299 
vt 0.857143 0.606299 
vt 0.825397 0.763780 
vt 0.682540 0.771654 
vt 0.619048 0.606299 
vt 0.825397 0.763780 
vt 0.396825 0.606299 
vt 0.619048 0.606299 
vt 0.682540 0.771654 
vt 0.523810 0.787402 
vt 0.396825 0.606299 
vt 0.682540 0.771654 
vt 0.301587 0.606299 
vt 0.396825 0.606299 
vt 0.523810 0.787402 
vt 0.460317 0.787402 
vt 0.301587 0.606299 
vt 0.523810 0.787402 
vt 0.396825 0.606299 
vt 0.301587 0.606299 
vt 0.460317 0.787402 
vt 0.523810 0.787402 
vt 0.396825 0.606299 
vt 0.460317 0.787402 
vt 0.619048 0.606299 
vt 0.396825 0.606299 
vt 0.523810 0.787402 
vt 0.682540 0.771654 
vt 0.619048 0.606299 
vt 0.523810 0.787402 
vt 0.857143 0.606299 
vt 0.619048 0.606299 
vt 0.682540 0.771654 
vt 0.825397 0.763780 
vt 0.857143 0.606299 
vt 0.682540 0.771654 
vt 1.000000 0.606299 
vt 0.857143 0.606299 
vt 0.825397 0.763780 
vt 1.000000 0.787402 
vt 1.000000 0.606299 
vt 0.825397 0.763780 
vt 0.857143 0.354331 
vt 1.000000 0.330709 
vt 1.000000 0.606299 
vt 0.857143 0.606299 
vt 0.857143 0.354331 
vt 1.000000 0.606299 
vt 0.746032 0.354331 
vt 0.857143 0.354331 
vt 0.857143 0.606299 
vt 0.619048 0.606299 
vt 0.746032 0.354331 
vt 0.857143 0.606299 
vt 0.650794 0.354331 
vt 0.746032 0.354331 
vt 0.619048 0.606299 
vt 0.396825 0.606299 
vt 0.650794 0.354331 
vt 0.619048 0.606299 
vt 0.603175 0.354331 
vt 0.650794 0.354331 
vt 0.396825 0.606299 
vt 0.301587 0.606299 
vt 0.603175 0.354331 
vt 0.396825 0.606299 
vt 0.650794 0.354331 
vt 0.603175 0.354331 
vt 0.301587 0.606299 
vt 0.396825 0.606299 
vt 0.650794 0.354331 
vt 0.301587 0.606299 
vt 0.746032 0.354331 
vt 0.650794 0.354331 
vt 0.396825 0.606299 
vt 0.619048 0.606299 
vt 0.746032 0.354331 
vt 0.396825 0.606299 
vt 0.857143 0.354331 
vt 0.746032 0.354331 
vt 0.619048 0.606299 
vt 0.857143 0.606299 
vt 0.857143 0.354331 
vt 0.619048 0.606299 
vt 1.000000 0.330709 
vt 0.857143 0.354331 
vt 0.857143 0.606299 
vt 1.000000 0.606299 
vt 1.000000 0.330709 
vt 0.857143 0.606299 
vt 0.476190 0.228346 
vt 0.301587 0.133858 
vt 0.793651 0.031496 
vt 0.793651 0.031496 
vt 0.634921 0.212598 
vt 0.476190 0.228346 
vt 0.301587 0.133858 
vt 0.476190 0.228346 
vt 0.396825 0.228346 
vt 0.301587 0.133858 
vt 0.396825 0.228346 
vt 0.476190 0.228346 
vt 0.634921 0.228346 
vt 0.793651 0.031496 
vt 0.301587 0.133858 
vt 0.301587 0.133858 
vt 0.476190 0.228346 
vt 0.634921 0.228346 
vt 0.476190 0.228346 
vt 0.301587 0.133858 
vt 0.793651 0.031496 
vt 0.793651 0.031496 
vt 0.634921 0.228346 
vt 0.476190 0.228346 
vt 0.301587 0.133858 
vt 0.476190 0.228346 
vt 0.396825 0.228346 
vt 0.301587 0.133858 
vt 0.396825 0.228346 
vt 0.476190 0.228346 
vt 0.634921 0.212598 
vt 0.793651 0.031496 
vt 0.301587 0.133858 
vt 0.301587 0.133858 
vt 0.476190 0.228346 
vt 0.634921 0.212598 
f 1/1/1 2/2/2 3/3/3
f 4/4/4 5/5/5 6/6/6
f 7/7/7 8/8/8 9/9/9
f 10/10/10 11/11/11 12/12/12
f 13/13/13 14/14/14 15/15/15
f 16/16/16 17/17/17 18/18/18
f 19/19/19 20/20/20 21/21/21
f 22/22/22 23/23/23 24/24/24
f 25/25/25 26/26/26 27/27/27
f 28/28/28 29/29/29 30/30/30
f 31/31/31 32/32/32 33/33/33
f 34/34/34 35/35/35 36/36/36
f 37/37/37 38/38/38 39/39/39
f 40/40/40 41/41/41 42/42/42
f 43/43/43 44/44/44 45/45/45
f 46/46/46 47/47/47 48/48/48
f 49/49/49 50/50/50 51/51/51
f 52/52/52 53/53/53 54/54/54
f 55/55/55 56/56/56 57/57/57
f 58/58/58 59/59/59 60/60/60
f 61/61/61 62/62/62 63/63/63
f 64/64/64 65/65/65 66/66/66
f 67/67/67 68/68/68 69/69/69
f 70/70/70 71/71/71 72/72/72
f 73/73/73 74/74/74 75/75/75
f 76/76/76 77/77/77 78/78/78
f 79/79/79 80/80/80 81/81/81
f 82/82/82 83/83/83 84/84/84
f 85/85/85 86/86/86 87/87/87
f 88/88/88 89/89/89 90/90/90
f 91/91/91 92/92/92 93/93/93
f 94/94/94 95/95/95 96/96/96
f 97/97/97 98/98/98 99/99/99
f 100/100/100 101/101/101 102/102/102
f 103/103/103 104/104/104 105/105/105
f 106/106/106 107/107/107 108/108/108
f 109/109/109 110/110/110 111/111/111
f 112/112/112 113/113/113 114/114/114
f 115/115/115 116/116/116 117/117/117
f 118/118/118 119/119/119 120/120/120
f 121/121/121 122/122/122 123/123/123
f 124/124/124 125/125/125 126/126/126
f 127/127/127 128/128/128 129/129/129
f 130/130/130 131/131/131 132/132/132
f 133/133/133 134/134/134 135/135/135
f 136/136/136 137/137/137 138/138/138
f 139/139/139 140/140/140 141/141/141
f 142/142/142 143/143/143 144/144/144
f 145/145/145 146/146/146 147/147/147
f 148/148/148 149/149/149 150/150/150
f 151/151/151 152/152/152 153/153/153
f 154/154/154 155/155/155 156/156/156
