v 0.000000 -6.000000 -38.000000 
v 0.000000 -6.000000 38.000000 
v -13.000000 -6.000000 38.000000 
v -13.000000 -6.000000 38.000000 
v -13.000000 -6.000000 -38.000000 
v 0.000000 -6.000000 -38.000000 
v -13.000000 -6.000000 -38.000000 
v -13.000000 -6.000000 38.000000 
v -36.000000 -6.000000 38.000000 
v -36.000000 -6.000000 38.000000 
v -36.000000 -6.000000 -38.000000 
v -13.000000 -6.000000 -38.000000 
v -36.000000 -6.000000 -38.000000 
v -36.000000 -6.000000 38.000000 
v -63.000000 -6.000000 38.000000 
v -63.000000 -6.000000 38.000000 
v -63.000000 -6.000000 -38.000000 
v -36.000000 -6.000000 -38.000000 
v 0.000000 2.000000 -38.000000 
v -7.000000 4.000000 -38.000000 
v -7.000000 4.000000 38.000000 
v -7.000000 4.000000 38.000000 
v 0.000000 2.000000 38.000000 
v 0.000000 2.000000 -38.000000 
v -7.000000 4.000000 -38.000000 
v -36.000000 3.000000 -38.000000 
v -36.000000 3.000000 38.000000 
v -36.000000 3.000000 38.000000 
v -7.000000 4.000000 38.000000 
v -7.000000 4.000000 -38.000000 
v -36.000000 3.000000 -38.000000 
v -63.000000 0.000000 -38.000000 
v -63.000000 0.000000 38.000000 
v -63.000000 0.000000 38.000000 
v -36.000000 3.000000 38.000000 
v -36.000000 3.000000 -38.000000 
v 0.000000 -6.000000 -38.000000 
v -13.000000 -6.000000 -38.000000 
v -7.000000 4.000000 -38.000000 
v -7.000000 4.000000 -38.000000 
v 0.000000 2.000000 -38.000000 
v 0.000000 -6.000000 -38.000000 
v -13.000000 -6.000000 -38.000000 
v -36.000000 -6.000000 -38.000000 
v -36.000000 3.000000 -38.000000 
v -36.000000 3.000000 -38.000000 
v -7.000000 4.000000 -38.000000 
v -13.000000 -6.000000 -38.000000 
v -36.000000 -6.000000 -38.000000 
v -63.000000 -6.000000 -38.000000 
v -63.000000 0.000000 -38.000000 
v -63.000000 0.000000 -38.000000 
v -36.000000 3.000000 -38.000000 
v -36.000000 -6.000000 -38.000000 
v -63.000000 -6.000000 -38.000000 
v -63.000000 -6.000000 38.000000 
v -63.000000 0.000000 38.000000 
v -63.000000 0.000000 38.000000 
v -63.000000 0.000000 -38.000000 
v -63.000000 -6.000000 -38.000000 
v -63.000000 -6.000000 38.000000 
v -36.000000 -6.000000 38.000000 
v -36.000000 3.000000 38.000000 
v -36.000000 3.000000 38.000000 
v -63.000000 0.000000 38.000000 
v -63.000000 -6.000000 38.000000 
v -36.000000 -6.000000 38.000000 
v -13.000000 -6.000000 38.000000 
v -7.000000 4.000000 38.000000 
v -7.000000 4.000000 38.000000 
v -36.000000 3.000000 38.000000 
v -36.000000 -6.000000 38.000000 
v -13.000000 -6.000000 38.000000 
v 0.000000 -6.000000 38.000000 
v 0.000000 2.000000 38.000000 
v 0.000000 2.000000 38.000000 
v -7.000000 4.000000 38.000000 
v -13.000000 -6.000000 38.000000 
v 0.000000 -6.000000 38.000000 
v 0.000000 -6.000000 -38.000000 
v 0.000000 2.000000 -38.000000 
v 0.000000 2.000000 -38.000000 
v 0.000000 2.000000 38.000000 
v 0.000000 -6.000000 38.000000 
vn 0.000000 -1.000000 0.000000 
vn 0.000000 -1.000000 0.000000 
vn 0.000000 -1.000000 0.000000 
vn 0.000000 -1.000000 0.000000 
vn 0.000000 -1.000000 0.000000 
vn 0.000000 -1.000000 0.000000 
vn 0.000000 -1.000000 0.000000 
vn 0.000000 -1.000000 0.000000 
vn 0.000000 -1.000000 0.000000 
vn 0.000000 -1.000000 0.000000 
vn 0.000000 -1.000000 0.000000 
vn 0.000000 -1.000000 0.000000 
vn 0.000000 -1.000000 0.000000 
vn 0.000000 -1.000000 0.000000 
vn 0.000000 -1.000000 0.000000 
vn 0.000000 -1.000000 0.000000 
vn 0.000000 -1.000000 0.000000 
vn 0.000000 -1.000000 0.000000 
vn 0.118896 0.992676 0.000000 
vn 0.027100 0.999512 0.000000 
vn 0.072998 0.997314 0.000000 
vn 0.072998 0.997314 0.000000 
vn 0.118896 0.992676 0.000000 
vn 0.118896 0.992676 0.000000 
vn 0.027100 0.999512 0.000000 
vn -0.042236 0.999023 0.000000 
vn -0.030273 0.999512 0.000000 
vn -0.030273 0.999512 0.000000 
vn 0.072998 0.997314 0.000000 
vn 0.027100 0.999512 0.000000 
vn -0.042236 0.999023 0.000000 
vn -0.053955 0.998535 0.000000 
vn -0.053955 0.998535 0.000000 
vn -0.053955 0.998535 0.000000 
vn -0.030273 0.999512 0.000000 
vn -0.042236 0.999023 0.000000 
vn 0.000000 0.000000 -1.000000 
vn 0.000000 0.000000 -1.000000 
vn 0.000000 0.000000 -1.000000 
vn 0.000000 0.000000 -1.000000 
vn 0.000000 0.000000 -1.000000 
vn 0.000000 0.000000 -1.000000 
vn 0.000000 0.000000 -1.000000 
vn 0.000000 0.000000 -1.000000 
vn 0.000000 0.000000 -1.000000 
vn 0.000000 0.000000 -1.000000 
vn 0.000000 0.000000 -1.000000 
vn 0.000000 0.000000 -1.000000 
vn 0.000000 0.000000 -1.000000 
vn 0.000000 0.000000 -1.000000 
vn 0.000000 0.000000 -1.000000 
vn 0.000000 0.000000 -1.000000 
vn 0.000000 0.000000 -1.000000 
vn 0.000000 0.000000 -1.000000 
vn -1.000000 0.000000 0.000000 
vn -1.000000 0.000000 0.000000 
vn -1.000000 0.000000 0.000000 
vn -1.000000 0.000000 0.000000 
vn -1.000000 0.000000 0.000000 
vn -1.000000 0.000000 0.000000 
vn 0.000000 0.000000 1.000000 
vn 0.000000 0.000000 1.000000 
vn 0.000000 0.000000 1.000000 
vn 0.000000 0.000000 1.000000 
vn 0.000000 0.000000 1.000000 
vn 0.000000 0.000000 1.000000 
vn 0.000000 0.000000 1.000000 
vn 0.000000 0.000000 1.000000 
vn 0.000000 0.000000 1.000000 
vn 0.000000 0.000000 1.000000 
vn 0.000000 0.000000 1.000000 
vn 0.000000 0.000000 1.000000 
vn 0.000000 0.000000 1.000000 
vn 0.000000 0.000000 1.000000 
vn 0.000000 0.000000 1.000000 
vn 0.000000 0.000000 1.000000 
vn 0.000000 0.000000 1.000000 
vn 0.000000 0.000000 1.000000 
vn 1.000000 0.000000 0.000000 
vn 1.000000 0.000000 0.000000 
vn 1.000000 0.000000 0.000000 
vn 1.000000 0.000000 0.000000 
vn 1.000000 0.000000 0.000000 
vn 1.000000 0.000000 0.000000 
vt 0.365079 -0.015873 
vt 0.365079 1.000000 
vt 0.301587 1.000000 
vt 0.301587 1.000000 
vt 0.301587 -0.015873 
vt 0.365079 -0.015873 
vt 0.301587 -0.015873 
vt 0.301587 1.000000 
vt 0.158730 1.000000 
vt 0.158730 1.000000 
vt 0.158730 -0.015873 
vt 0.301587 -0.015873 
vt 0.158730 -0.015873 
vt 0.158730 1.000000 
vt 0.000000 1.000000 
vt 0.000000 1.000000 
vt 0.000000 -0.015873 
vt 0.158730 -0.015873 
vt 0.507937 -0.015873 
vt 0.603175 -0.015873 
vt 0.603175 1.000000 
vt 0.603175 1.000000 
vt 0.507937 1.000000 
vt 0.507937 -0.015873 
vt 0.587302 -0.015873 
vt 0.746032 -0.015873 
vt 0.746032 1.000000 
vt 0.746032 1.000000 
vt 0.587302 1.000000 
vt 0.587302 -0.015873 
vt 0.746032 -0.015873 
vt 0.920635 -0.015873 
vt 0.920635 1.000000 
vt 0.920635 1.000000 
vt 0.746032 1.000000 
vt 0.746032 -0.015873 
vt 1.000000 0.984127 
vt 1.000000 0.825397 
vt 0.920635 0.761905 
vt 0.920635 0.761905 
vt 0.920635 0.984127 
vt 1.000000 0.984127 
vt 1.000000 0.730159 
vt 1.000000 0.301587 
vt 0.920635 0.301587 
vt 0.920635 0.301587 
vt 0.920635 0.777778 
vt 1.000000 0.730159 
vt 1.000000 0.412698 
vt 1.000000 -0.015873 
vt 0.920635 0.000000 
vt 0.920635 0.000000 
vt 0.920635 0.460317 
vt 1.000000 0.412698 
vt 0.904762 -0.015873 
vt 0.904762 1.000000 
vt 1.000000 1.000000 
vt 1.000000 1.000000 
vt 1.000000 -0.015873 
vt 0.904762 -0.015873 
vt 1.000000 1.000000 
vt 1.000000 0.682540 
vt 0.920635 0.682540 
vt 0.920635 0.682540 
vt 0.920635 1.000000 
vt 1.000000 1.000000 
vt 1.000000 0.698413 
vt 1.000000 0.079365 
vt 0.920635 0.079365 
vt 0.920635 0.079365 
vt 0.920635 0.698413 
vt 1.000000 0.698413 
vt 1.000000 0.222222 
vt 1.000000 0.015873 
vt 0.920635 -0.015873 
vt 0.920635 -0.015873 
vt 0.920635 0.190476 
vt 1.000000 0.222222 
vt 0.476190 1.000000 
vt 0.476190 -0.015873 
vt 0.428571 -0.015873 
vt 0.428571 -0.015873 
vt 0.428571 1.000000 
vt 0.476190 1.000000 
f 1/1/1 2/2/2 3/3/3
f 4/4/4 5/5/5 6/6/6
f 7/7/7 8/8/8 9/9/9
f 10/10/10 11/11/11 12/12/12
f 13/13/13 14/14/14 15/15/15
f 16/16/16 17/17/17 18/18/18
f 19/19/19 20/20/20 21/21/21
f 22/22/22 23/23/23 24/24/24
f 25/25/25 26/26/26 27/27/27
f 28/28/28 29/29/29 30/30/30
f 31/31/31 32/32/32 33/33/33
f 34/34/34 35/35/35 36/36/36
f 37/37/37 38/38/38 39/39/39
f 40/40/40 41/41/41 42/42/42
f 43/43/43 44/44/44 45/45/45
f 46/46/46 47/47/47 48/48/48
f 49/49/49 50/50/50 51/51/51
f 52/52/52 53/53/53 54/54/54
f 55/55/55 56/56/56 57/57/57
f 58/58/58 59/59/59 60/60/60
f 61/61/61 62/62/62 63/63/63
f 64/64/64 65/65/65 66/66/66
f 67/67/67 68/68/68 69/69/69
f 70/70/70 71/71/71 72/72/72
f 73/73/73 74/74/74 75/75/75
f 76/76/76 77/77/77 78/78/78
f 79/79/79 80/80/80 81/81/81
f 82/82/82 83/83/83 84/84/84
