v 32.000000 2.000000 -38.000000 
v 23.000000 2.000000 -15.000000 
v 46.000000 14.000000 -38.000000 
v 23.000000 2.000000 -15.000000 
v 32.000000 14.000000 -6.000000 
v 46.000000 14.000000 -38.000000 
v 23.000000 2.000000 -15.000000 
v 0.000000 2.000000 -5.000000 
v 32.000000 14.000000 -6.000000 
v 0.000000 2.000000 -5.000000 
v 0.000000 14.000000 6.000000 
v 32.000000 14.000000 -6.000000 
v 0.000000 2.000000 -5.000000 
v -23.000000 2.000000 -15.000000 
v 0.000000 14.000000 6.000000 
v -23.000000 2.000000 -15.000000 
v -32.000000 14.000000 -6.000000 
v 0.000000 14.000000 6.000000 
v -23.000000 2.000000 -15.000000 
v -32.000000 2.000000 -38.000000 
v -32.000000 14.000000 -6.000000 
v -32.000000 2.000000 -38.000000 
v -46.000000 14.000000 -38.000000 
v -32.000000 14.000000 -6.000000 
v -32.000000 2.000000 -38.000000 
v -23.000000 2.000000 -61.000000 
v -46.000000 14.000000 -38.000000 
v -23.000000 2.000000 -61.000000 
v -32.000000 14.000000 -71.000000 
v -46.000000 14.000000 -38.000000 
v -23.000000 2.000000 -61.000000 
v 0.000000 2.000000 -71.000000 
v -32.000000 14.000000 -71.000000 
v 0.000000 2.000000 -71.000000 
v 0.000000 14.000000 -84.000000 
v -32.000000 14.000000 -71.000000 
v 0.000000 2.000000 -71.000000 
v 23.000000 2.000000 -61.000000 
v 0.000000 14.000000 -84.000000 
v 23.000000 2.000000 -61.000000 
v 32.000000 14.000000 -71.000000 
v 0.000000 14.000000 -84.000000 
v 23.000000 2.000000 -61.000000 
v 32.000000 2.000000 -38.000000 
v 32.000000 14.000000 -71.000000 
v 32.000000 2.000000 -38.000000 
v 46.000000 14.000000 -38.000000 
v 32.000000 14.000000 -71.000000 
v 23.000000 2.000000 -15.000000 
v 32.000000 2.000000 -38.000000 
v 0.000000 2.000000 -38.000000 
v 0.000000 2.000000 -5.000000 
v 23.000000 2.000000 -15.000000 
v 0.000000 2.000000 -38.000000 
v -23.000000 2.000000 -15.000000 
v 0.000000 2.000000 -5.000000 
v 0.000000 2.000000 -38.000000 
v -32.000000 2.000000 -38.000000 
v -23.000000 2.000000 -15.000000 
v 0.000000 2.000000 -38.000000 
v -23.000000 2.000000 -61.000000 
v -32.000000 2.000000 -38.000000 
v 0.000000 2.000000 -38.000000 
v 0.000000 2.000000 -71.000000 
v -23.000000 2.000000 -61.000000 
v 0.000000 2.000000 -38.000000 
v 23.000000 2.000000 -61.000000 
v 0.000000 2.000000 -71.000000 
v 0.000000 2.000000 -38.000000 
v 32.000000 2.000000 -38.000000 
v 23.000000 2.000000 -61.000000 
v 0.000000 2.000000 -38.000000 
v 24.000000 0.000000 -14.000000 
v 34.000000 0.000000 -38.000000 
v 47.000000 12.000000 -38.000000 
v 33.000000 12.000000 -4.000000 
v 24.000000 0.000000 -14.000000 
v 47.000000 12.000000 -38.000000 
v 0.000000 0.000000 -4.000000 
v 24.000000 0.000000 -14.000000 
v 33.000000 12.000000 -4.000000 
v 0.000000 12.000000 9.000000 
v 0.000000 0.000000 -4.000000 
v 33.000000 12.000000 -4.000000 
v -24.000000 0.000000 -14.000000 
v 0.000000 0.000000 -4.000000 
v 0.000000 12.000000 9.000000 
v -33.000000 12.000000 -4.000000 
v -24.000000 0.000000 -14.000000 
v 0.000000 12.000000 9.000000 
v -34.000000 0.000000 -38.000000 
v -24.000000 0.000000 -14.000000 
v -33.000000 12.000000 -4.000000 
v -47.000000 12.000000 -38.000000 
v -34.000000 0.000000 -38.000000 
v -33.000000 12.000000 -4.000000 
v -24.000000 0.000000 -62.000000 
v -34.000000 0.000000 -38.000000 
v -47.000000 12.000000 -38.000000 
v -33.000000 12.000000 -72.000000 
v -24.000000 0.000000 -62.000000 
v -47.000000 12.000000 -38.000000 
v 0.000000 0.000000 -72.000000 
v -24.000000 0.000000 -62.000000 
v -33.000000 12.000000 -72.000000 
v 0.000000 12.000000 -86.000000 
v 0.000000 0.000000 -72.000000 
v -33.000000 12.000000 -72.000000 
v 24.000000 0.000000 -62.000000 
v 0.000000 0.000000 -72.000000 
v 0.000000 12.000000 -86.000000 
v 33.000000 12.000000 -72.000000 
v 24.000000 0.000000 -62.000000 
v 0.000000 12.000000 -86.000000 
v 34.000000 0.000000 -38.000000 
v 24.000000 0.000000 -62.000000 
v 33.000000 12.000000 -72.000000 
v 47.000000 12.000000 -38.000000 
v 34.000000 0.000000 -38.000000 
v 33.000000 12.000000 -72.000000 
v 34.000000 0.000000 -38.000000 
v 24.000000 0.000000 -14.000000 
v 0.000000 0.000000 -38.000000 
v 24.000000 0.000000 -14.000000 
v 0.000000 0.000000 -4.000000 
v 0.000000 0.000000 -38.000000 
v 0.000000 0.000000 -4.000000 
v -24.000000 0.000000 -14.000000 
v 0.000000 0.000000 -38.000000 
v -24.000000 0.000000 -14.000000 
v -34.000000 0.000000 -38.000000 
v 0.000000 0.000000 -38.000000 
v -34.000000 0.000000 -38.000000 
v -24.000000 0.000000 -62.000000 
v 0.000000 0.000000 -38.000000 
v -24.000000 0.000000 -62.000000 
v 0.000000 0.000000 -72.000000 
v 0.000000 0.000000 -38.000000 
v 0.000000 0.000000 -72.000000 
v 24.000000 0.000000 -62.000000 
v 0.000000 0.000000 -38.000000 
v 24.000000 0.000000 -62.000000 
v 34.000000 0.000000 -38.000000 
v 0.000000 0.000000 -38.000000 
v 33.000000 12.000000 -4.000000 
v 32.000000 14.000000 -6.000000 
v 0.000000 14.000000 6.000000 
v -32.000000 14.000000 -6.000000 
v -33.000000 12.000000 -4.000000 
v 0.000000 12.000000 9.000000 
v 0.000000 12.000000 9.000000 
v 33.000000 12.000000 -4.000000 
v 0.000000 14.000000 6.000000 
v 0.000000 14.000000 6.000000 
v -32.000000 14.000000 -6.000000 
v 0.000000 12.000000 9.000000 
v 33.000000 12.000000 -4.000000 
v 47.000000 12.000000 -38.000000 
v 46.000000 14.000000 -38.000000 
v 32.000000 14.000000 -6.000000 
v 33.000000 12.000000 -4.000000 
v 46.000000 14.000000 -38.000000 
v 0.000000 12.000000 -86.000000 
v 0.000000 14.000000 -84.000000 
v 32.000000 14.000000 -71.000000 
v 46.000000 14.000000 -38.000000 
v 47.000000 12.000000 -38.000000 
v 33.000000 12.000000 -72.000000 
v 33.000000 12.000000 -72.000000 
v 0.000000 12.000000 -86.000000 
v 32.000000 14.000000 -71.000000 
v 32.000000 14.000000 -71.000000 
v 46.000000 14.000000 -38.000000 
v 33.000000 12.000000 -72.000000 
v -33.000000 12.000000 -4.000000 
v -32.000000 14.000000 -6.000000 
v -46.000000 14.000000 -38.000000 
v 0.000000 14.000000 -84.000000 
v 0.000000 12.000000 -86.000000 
v -33.000000 12.000000 -72.000000 
v -47.000000 12.000000 -38.000000 
v -33.000000 12.000000 -4.000000 
v -46.000000 14.000000 -38.000000 
v -32.000000 14.000000 -71.000000 
v 0.000000 14.000000 -84.000000 
v -33.000000 12.000000 -72.000000 
v -47.000000 12.000000 -38.000000 
v -46.000000 14.000000 -38.000000 
v -32.000000 14.000000 -71.000000 
v -32.000000 14.000000 -71.000000 
v -33.000000 12.000000 -72.000000 
v -47.000000 12.000000 -38.000000 
v 10.000000 29.000000 75.000000 
v 1.000000 32.000000 75.000000 
v 1.000000 28.000000 75.000000 
v 1.000000 32.000000 75.000000 
v -7.000000 29.000000 75.000000 
v 1.000000 28.000000 75.000000 
v -7.000000 29.000000 75.000000 
v -4.000000 25.000000 75.000000 
v 1.000000 28.000000 75.000000 
v -4.000000 25.000000 75.000000 
v 7.000000 25.000000 75.000000 
v 1.000000 28.000000 75.000000 
v 7.000000 25.000000 75.000000 
v 10.000000 29.000000 75.000000 
v 1.000000 28.000000 75.000000 
v 5.000000 12.000000 6.000000 
v 0.000000 14.000000 6.000000 
v 10.000000 29.000000 75.000000 
v 0.000000 14.000000 6.000000 
v 1.000000 32.000000 75.000000 
v 10.000000 29.000000 75.000000 
v 0.000000 14.000000 6.000000 
v -5.000000 12.000000 6.000000 
v 1.000000 32.000000 75.000000 
v -5.000000 12.000000 6.000000 
v -7.000000 29.000000 75.000000 
v 1.000000 32.000000 75.000000 
v -5.000000 12.000000 6.000000 
v -3.000000 10.000000 6.000000 
v -7.000000 29.000000 75.000000 
v -3.000000 10.000000 6.000000 
v -4.000000 25.000000 75.000000 
v -7.000000 29.000000 75.000000 
v -3.000000 10.000000 6.000000 
v 3.000000 10.000000 6.000000 
v -4.000000 25.000000 75.000000 
v 3.000000 10.000000 6.000000 
v 7.000000 25.000000 75.000000 
v -4.000000 25.000000 75.000000 
v 3.000000 10.000000 6.000000 
v 5.000000 12.000000 6.000000 
v 7.000000 25.000000 75.000000 
v 5.000000 12.000000 6.000000 
v 10.000000 29.000000 75.000000 
v 7.000000 25.000000 75.000000 
v 0.000000 14.000000 6.000000 
v 5.000000 12.000000 6.000000 
v 0.000000 12.000000 6.000000 
v -5.000000 12.000000 6.000000 
v 0.000000 14.000000 6.000000 
v 0.000000 12.000000 6.000000 
v -3.000000 10.000000 6.000000 
v -5.000000 12.000000 6.000000 
v 0.000000 12.000000 6.000000 
v 3.000000 10.000000 6.000000 
v -3.000000 10.000000 6.000000 
v 0.000000 12.000000 6.000000 
v 5.000000 12.000000 6.000000 
v 3.000000 10.000000 6.000000 
v 0.000000 12.000000 6.000000 
vn -0.408691 0.910645 0.056396 
vn -0.336670 0.904053 -0.262451 
vn 0.160400 0.984863 -0.064453 
vn -0.336670 0.904053 -0.262451 
vn -0.104004 0.972656 -0.206299 
vn 0.160400 0.984863 -0.064453 
vn -0.336670 0.904053 -0.262451 
vn -0.059570 0.900146 -0.431152 
vn -0.104004 0.972656 -0.206299 
vn -0.059570 0.900146 -0.431152 
vn 0.112061 0.991943 -0.058838 
vn -0.104004 0.972656 -0.206299 
vn -0.059570 0.900146 -0.431152 
vn 0.261475 0.900879 -0.345947 
vn 0.112061 0.991943 -0.058838 
vn 0.261475 0.900879 -0.345947 
vn 0.114502 0.992432 0.039307 
vn 0.112061 0.991943 -0.058838 
vn 0.261475 0.900879 -0.345947 
vn 0.414795 0.907715 -0.062500 
vn 0.114502 0.992432 0.039307 
vn 0.414795 0.907715 -0.062500 
vn -0.018311 0.992920 0.115967 
vn 0.114502 0.992432 0.039307 
vn 0.414795 0.907715 -0.062500 
vn 0.328857 0.910645 0.249023 
vn -0.018311 0.992920 0.115967 
vn 0.328857 0.910645 0.249023 
vn -0.120117 0.990723 0.062988 
vn -0.018311 0.992920 0.115967 
vn 0.328857 0.910645 0.249023 
vn 0.056396 0.910645 0.408691 
vn -0.120117 0.990723 0.062988 
vn 0.056396 0.910645 0.408691 
vn -0.125977 0.991211 -0.035400 
vn -0.120117 0.990723 0.062988 
vn 0.056396 0.910645 0.408691 
vn -0.249023 0.910645 0.328857 
vn -0.125977 0.991211 -0.035400 
vn -0.249023 0.910645 0.328857 
vn -0.058105 0.990967 -0.120117 
vn -0.125977 0.991211 -0.035400 
vn -0.249023 0.910645 0.328857 
vn -0.408691 0.910645 0.056396 
vn -0.058105 0.990967 -0.120117 
vn -0.408691 0.910645 0.056396 
vn 0.160400 0.984863 -0.064453 
vn -0.058105 0.990967 -0.120117 
vn -0.336670 0.904053 -0.262451 
vn -0.408691 0.910645 0.056396 
vn 0.000000 1.000000 0.000000 
vn -0.059570 0.900146 -0.431152 
vn -0.336670 0.904053 -0.262451 
vn 0.000000 1.000000 0.000000 
vn 0.261475 0.900879 -0.345947 
vn -0.059570 0.900146 -0.431152 
vn 0.000000 1.000000 0.000000 
vn 0.414795 0.907715 -0.062500 
vn 0.261475 0.900879 -0.345947 
vn 0.000000 1.000000 0.000000 
vn 0.328857 0.910645 0.249023 
vn 0.414795 0.907715 -0.062500 
vn 0.000000 1.000000 0.000000 
vn 0.056396 0.910645 0.408691 
vn 0.328857 0.910645 0.249023 
vn 0.000000 1.000000 0.000000 
vn -0.249023 0.910645 0.328857 
vn 0.056396 0.910645 0.408691 
vn 0.000000 1.000000 0.000000 
vn -0.408691 0.910645 0.056396 
vn -0.249023 0.910645 0.328857 
vn 0.000000 1.000000 0.000000 
vn 0.324951 -0.912842 0.246094 
vn 0.403809 -0.912842 -0.055664 
vn 0.957275 -0.277588 0.077637 
vn 0.661621 0.175293 0.728760 
vn 0.324951 -0.912842 0.246094 
vn 0.957275 -0.277588 0.077637 
vn 0.055664 -0.912842 0.403809 
vn 0.324951 -0.912842 0.246094 
vn 0.661621 0.175293 0.728760 
vn -0.136475 0.041260 0.989746 
vn 0.055664 -0.912842 0.403809 
vn 0.661621 0.175293 0.728760 
vn -0.246094 -0.912842 0.324951 
vn 0.055664 -0.912842 0.403809 
vn -0.136475 0.041260 0.989746 
vn -0.801025 -0.000488 0.598389 
vn -0.246094 -0.912842 0.324951 
vn -0.136475 0.041260 0.989746 
vn -0.403809 -0.912842 0.055664 
vn -0.246094 -0.912842 0.324951 
vn -0.801025 -0.000488 0.598389 
vn -0.989014 -0.062988 -0.133057 
vn -0.403809 -0.912842 0.055664 
vn -0.801025 -0.000488 0.598389 
vn -0.324951 -0.912842 -0.246094 
vn -0.403809 -0.912842 0.055664 
vn -0.989014 -0.062988 -0.133057 
vn -0.604248 -0.048340 -0.795166 
vn -0.324951 -0.912842 -0.246094 
vn -0.989014 -0.062988 -0.133057 
vn -0.055664 -0.912842 -0.403809 
vn -0.324951 -0.912842 -0.246094 
vn -0.604248 -0.048340 -0.795166 
vn 0.137207 -0.048096 -0.989258 
vn -0.055664 -0.912842 -0.403809 
vn -0.604248 -0.048340 -0.795166 
vn 0.246094 -0.912842 -0.324951 
vn -0.055664 -0.912842 -0.403809 
vn 0.137207 -0.048096 -0.989258 
vn 0.797363 -0.062500 -0.600098 
vn 0.246094 -0.912842 -0.324951 
vn 0.137207 -0.048096 -0.989258 
vn 0.403809 -0.912842 -0.055664 
vn 0.246094 -0.912842 -0.324951 
vn 0.797363 -0.062500 -0.600098 
vn 0.957275 -0.277588 0.077637 
vn 0.403809 -0.912842 -0.055664 
vn 0.797363 -0.062500 -0.600098 
vn 0.403809 -0.912842 -0.055664 
vn 0.324951 -0.912842 0.246094 
vn 0.000000 -1.000000 0.000000 
vn 0.324951 -0.912842 0.246094 
vn 0.055664 -0.912842 0.403809 
vn 0.000000 -1.000000 0.000000 
vn 0.055664 -0.912842 0.403809 
vn -0.246094 -0.912842 0.324951 
vn 0.000000 -1.000000 0.000000 
vn -0.246094 -0.912842 0.324951 
vn -0.403809 -0.912842 0.055664 
vn 0.000000 -1.000000 0.000000 
vn -0.403809 -0.912842 0.055664 
vn -0.324951 -0.912842 -0.246094 
vn 0.000000 -1.000000 0.000000 
vn -0.324951 -0.912842 -0.246094 
vn -0.055664 -0.912842 -0.403809 
vn 0.000000 -1.000000 0.000000 
vn -0.055664 -0.912842 -0.403809 
vn 0.246094 -0.912842 -0.324951 
vn 0.000000 -1.000000 0.000000 
vn 0.246094 -0.912842 -0.324951 
vn 0.403809 -0.912842 -0.055664 
vn 0.000000 -1.000000 0.000000 
vn 0.661621 0.175293 0.728760 
vn -0.104004 0.972656 -0.206299 
vn 0.112061 0.991943 -0.058838 
vn 0.114502 0.992432 0.039307 
vn -0.801025 -0.000488 0.598389 
vn -0.136475 0.041260 0.989746 
vn -0.136475 0.041260 0.989746 
vn 0.661621 0.175293 0.728760 
vn 0.112061 0.991943 -0.058838 
vn 0.112061 0.991943 -0.058838 
vn 0.114502 0.992432 0.039307 
vn -0.136475 0.041260 0.989746 
vn 0.661621 0.175293 0.728760 
vn 0.957275 -0.277588 0.077637 
vn 0.160400 0.984863 -0.064453 
vn -0.104004 0.972656 -0.206299 
vn 0.661621 0.175293 0.728760 
vn 0.160400 0.984863 -0.064453 
vn 0.137207 -0.048096 -0.989258 
vn -0.125977 0.991211 -0.035400 
vn -0.058105 0.990967 -0.120117 
vn 0.160400 0.984863 -0.064453 
vn 0.957275 -0.277588 0.077637 
vn 0.797363 -0.062500 -0.600098 
vn 0.797363 -0.062500 -0.600098 
vn 0.137207 -0.048096 -0.989258 
vn -0.058105 0.990967 -0.120117 
vn -0.058105 0.990967 -0.120117 
vn 0.160400 0.984863 -0.064453 
vn 0.797363 -0.062500 -0.600098 
vn -0.801025 -0.000488 0.598389 
vn 0.114502 0.992432 0.039307 
vn -0.018311 0.992920 0.115967 
vn -0.125977 0.991211 -0.035400 
vn 0.137207 -0.048096 -0.989258 
vn -0.604248 -0.048340 -0.795166 
vn -0.989014 -0.062988 -0.133057 
vn -0.801025 -0.000488 0.598389 
vn -0.018311 0.992920 0.115967 
vn -0.120117 0.990723 0.062988 
vn -0.125977 0.991211 -0.035400 
vn -0.604248 -0.048340 -0.795166 
vn -0.989014 -0.062988 -0.133057 
vn -0.018311 0.992920 0.115967 
vn -0.120117 0.990723 0.062988 
vn -0.120117 0.990723 0.062988 
vn -0.604248 -0.048340 -0.795166 
vn -0.989014 -0.062988 -0.133057 
vn 0.000000 0.000000 1.000000 
vn 0.000000 0.000000 1.000000 
vn 0.000000 0.000000 1.000000 
vn 0.000000 0.000000 1.000000 
vn 0.000000 0.000000 1.000000 
vn 0.000000 0.000000 1.000000 
vn 0.000000 0.000000 1.000000 
vn 0.000000 0.000000 1.000000 
vn 0.000000 0.000000 1.000000 
vn 0.000000 0.000000 1.000000 
vn 0.000000 0.000000 1.000000 
vn 0.000000 0.000000 1.000000 
vn 0.000000 0.000000 1.000000 
vn 0.000000 0.000000 1.000000 
vn 0.000000 0.000000 1.000000 
vn 0.978516 -0.203369 -0.025391 
vn 0.087402 0.964600 -0.247803 
vn 0.702148 0.678223 -0.216064 
vn 0.087402 0.964600 -0.247803 
vn -0.088135 0.965576 -0.244385 
vn 0.702148 0.678223 -0.216064 
vn 0.087402 0.964600 -0.247803 
vn -0.703857 0.684570 -0.187988 
vn -0.088135 0.965576 -0.244385 
vn -0.703857 0.684570 -0.187988 
vn -0.979492 -0.200195 0.014893 
vn -0.088135 0.965576 -0.244385 
vn -0.703857 0.684570 -0.187988 
vn -0.542236 -0.822510 0.170410 
vn -0.979492 -0.200195 0.014893 
vn -0.542236 -0.822510 0.170410 
vn -0.270996 -0.941406 0.199707 
vn -0.979492 -0.200195 0.014893 
vn -0.542236 -0.822510 0.170410 
vn 0.272461 -0.943359 0.188477 
vn -0.270996 -0.941406 0.199707 
vn 0.272461 -0.943359 0.188477 
vn 0.544922 -0.825195 0.147949 
vn -0.270996 -0.941406 0.199707 
vn 0.272461 -0.943359 0.188477 
vn 0.978516 -0.203369 -0.025391 
vn 0.544922 -0.825195 0.147949 
vn 0.978516 -0.203369 -0.025391 
vn 0.702148 0.678223 -0.216064 
vn 0.544922 -0.825195 0.147949 
vn 0.000000 0.000000 -1.000000 
vn 0.000000 0.000000 -1.000000 
vn 0.000000 0.000000 -1.000000 
vn 0.000000 0.000000 -1.000000 
vn 0.000000 0.000000 -1.000000 
vn 0.000000 0.000000 -1.000000 
vn 0.000000 0.000000 -1.000000 
vn 0.000000 0.000000 -1.000000 
vn 0.000000 0.000000 -1.000000 
vn 0.000000 0.000000 -1.000000 
vn 0.000000 0.000000 -1.000000 
vn 0.000000 0.000000 -1.000000 
vn 0.000000 0.000000 -1.000000 
vn 0.000000 0.000000 -1.000000 
vn 0.000000 0.000000 -1.000000 
vt 0.841270 0.492063 
vt 0.746032 0.746032 
vt 0.984127 0.476190 
vt 0.746032 0.746032 
vt 0.841270 0.825397 
vt 0.984127 0.476190 
vt 0.746032 0.746032 
vt 0.507937 0.857143 
vt 0.841270 0.825397 
vt 0.507937 0.857143 
vt 0.507937 0.984127 
vt 0.841270 0.825397 
vt 0.507937 0.857143 
vt 0.253968 0.761905 
vt 0.507937 0.984127 
vt 0.253968 0.761905 
vt 0.158730 0.857143 
vt 0.507937 0.984127 
vt 0.253968 0.761905 
vt 0.142857 0.507937 
vt 0.158730 0.857143 
vt 0.142857 0.507937 
vt 0.000000 0.507937 
vt 0.158730 0.857143 
vt 0.142857 0.507937 
vt 0.238095 0.253968 
vt 0.000000 0.507937 
vt 0.238095 0.253968 
vt 0.126984 0.158730 
vt 0.000000 0.507937 
vt 0.238095 0.253968 
vt 0.476190 0.142857 
vt 0.126984 0.158730 
vt 0.476190 0.142857 
vt 0.476190 0.000000 
vt 0.126984 0.158730 
vt 0.476190 0.142857 
vt 0.730159 0.238095 
vt 0.476190 0.000000 
vt 0.730159 0.238095 
vt 0.825397 0.126984 
vt 0.476190 0.000000 
vt 0.730159 0.238095 
vt 0.841270 0.492063 
vt 0.825397 0.126984 
vt 0.841270 0.492063 
vt 0.984127 0.476190 
vt 0.825397 0.126984 
vt 0.746032 0.746032 
vt 0.841270 0.492063 
vt 0.492063 0.492063 
vt 0.507937 0.857143 
vt 0.746032 0.746032 
vt 0.492063 0.492063 
vt 0.253968 0.761905 
vt 0.507937 0.857143 
vt 0.492063 0.492063 
vt 0.142857 0.507937 
vt 0.253968 0.761905 
vt 0.492063 0.492063 
vt 0.238095 0.253968 
vt 0.142857 0.507937 
vt 0.492063 0.492063 
vt 0.476190 0.142857 
vt 0.238095 0.253968 
vt 0.492063 0.492063 
vt 0.730159 0.238095 
vt 0.476190 0.142857 
vt 0.492063 0.492063 
vt 0.841270 0.492063 
vt 0.730159 0.238095 
vt 0.492063 0.492063 
vt 0.269841 0.714286 
vt 0.174603 0.507937 
vt 0.079365 0.507937 
vt 0.190476 0.809524 
vt 0.269841 0.714286 
vt 0.079365 0.507937 
vt 0.507937 0.809524 
vt 0.269841 0.714286 
vt 0.190476 0.809524 
vt 0.507937 0.920635 
vt 0.507937 0.809524 
vt 0.190476 0.809524 
vt 0.714286 0.714286 
vt 0.507937 0.809524 
vt 0.507937 0.920635 
vt 0.809524 0.793651 
vt 0.714286 0.714286 
vt 0.507937 0.920635 
vt 0.809524 0.476190 
vt 0.714286 0.714286 
vt 0.809524 0.793651 
vt 0.904762 0.476190 
vt 0.809524 0.476190 
vt 0.809524 0.793651 
vt 0.714286 0.269841 
vt 0.809524 0.476190 
vt 0.904762 0.476190 
vt 0.793651 0.190476 
vt 0.714286 0.269841 
vt 0.904762 0.476190 
vt 0.476190 0.174603 
vt 0.714286 0.269841 
vt 0.793651 0.190476 
vt 0.476190 0.063492 
vt 0.476190 0.174603 
vt 0.793651 0.190476 
vt 0.269841 0.269841 
vt 0.476190 0.174603 
vt 0.476190 0.063492 
vt 0.190476 0.190476 
vt 0.269841 0.269841 
vt 0.476190 0.063492 
vt 0.174603 0.507937 
vt 0.269841 0.269841 
vt 0.190476 0.190476 
vt 0.079365 0.507937 
vt 0.174603 0.507937 
vt 0.190476 0.190476 
vt 0.174603 0.507937 
vt 0.269841 0.714286 
vt 0.476190 0.507937 
vt 0.269841 0.714286 
vt 0.507937 0.809524 
vt 0.476190 0.507937 
vt 0.507937 0.809524 
vt 0.714286 0.714286 
vt 0.476190 0.507937 
vt 0.714286 0.714286 
vt 0.809524 0.476190 
vt 0.476190 0.507937 
vt 0.809524 0.476190 
vt 0.714286 0.269841 
vt 0.476190 0.507937 
vt 0.714286 0.269841 
vt 0.476190 0.174603 
vt 0.476190 0.507937 
vt 0.476190 0.174603 
vt 0.269841 0.269841 
vt 0.476190 0.507937 
vt 0.269841 0.269841 
vt 0.174603 0.507937 
vt 0.476190 0.507937 
vt 0.047619 0.301587 
vt 0.063492 0.317460 
vt 0.317460 0.063492 
vt 0.666667 0.063492 
vt 0.682540 0.047619 
vt 0.301587 0.047619 
vt 0.301587 0.047619 
vt 0.047619 0.301587 
vt 0.317460 0.063492 
vt 0.317460 0.063492 
vt 0.666667 0.063492 
vt 0.301587 0.047619 
vt 0.047619 0.301587 
vt 0.047619 0.682540 
vt 0.063492 0.666667 
vt 0.063492 0.317460 
vt 0.047619 0.301587 
vt 0.063492 0.666667 
vt 0.682540 0.936508 
vt 0.666667 0.920635 
vt 0.317460 0.920635 
vt 0.063492 0.666667 
vt 0.047619 0.682540 
vt 0.301587 0.936508 
vt 0.301587 0.936508 
vt 0.682540 0.936508 
vt 0.317460 0.920635 
vt 0.317460 0.920635 
vt 0.063492 0.666667 
vt 0.301587 0.936508 
vt 0.682540 0.047619 
vt 0.666667 0.063492 
vt 0.920635 0.317460 
vt 0.666667 0.920635 
vt 0.682540 0.936508 
vt 0.936508 0.682540 
vt 0.936508 0.301587 
vt 0.682540 0.047619 
vt 0.920635 0.317460 
vt 0.920635 0.666667 
vt 0.666667 0.920635 
vt 0.936508 0.682540 
vt 0.936508 0.301587 
vt 0.920635 0.317460 
vt 0.920635 0.666667 
vt 0.920635 0.666667 
vt 0.936508 0.682540 
vt 0.936508 0.301587 
vt 0.746032 -0.015873 
vt 0.952381 -0.015873 
vt 0.492063 -0.015873 
vt 0.968254 -0.015873 
vt 0.142857 -0.015873 
vt 0.492063 -0.015873 
vt 0.142857 -0.015873 
vt 0.333333 -0.015873 
vt 0.492063 -0.015873 
vt 0.333333 -0.015873 
vt 0.539683 -0.015873 
vt 0.492063 -0.015873 
vt 0.539683 -0.015873 
vt 0.746032 -0.015873 
vt 0.492063 -0.015873 
vt 0.793651 0.714286 
vt 0.793651 0.539683 
vt 0.269841 0.714286 
vt 0.793651 0.539683 
vt 0.269841 0.539683 
vt 0.269841 0.714286 
vt 0.793651 0.539683 
vt 0.793651 0.380952 
vt 0.269841 0.539683 
vt 0.793651 0.380952 
vt 0.269841 0.365079 
vt 0.269841 0.539683 
vt 0.190476 0.285714 
vt 0.190476 0.365079 
vt 0.714286 0.285714 
vt 0.190476 0.365079 
vt 0.714286 0.365079 
vt 0.714286 0.285714 
vt 0.190476 0.365079 
vt 0.190476 0.619048 
vt 0.714286 0.365079 
vt 0.190476 0.619048 
vt 0.714286 0.619048 
vt 0.714286 0.365079 
vt 0.190476 0.619048 
vt 0.190476 0.698413 
vt 0.714286 0.619048 
vt 0.190476 0.698413 
vt 0.714286 0.698413 
vt 0.714286 0.619048 
vt 0.952381 1.000000 
vt 0.746032 1.000000 
vt 0.492063 1.000000 
vt 0.142857 1.000000 
vt 0.968254 1.000000 
vt 0.492063 1.000000 
vt 0.333333 1.000000 
vt 0.142857 1.000000 
vt 0.492063 1.000000 
vt 0.539683 1.000000 
vt 0.333333 1.000000 
vt 0.492063 1.000000 
vt 0.746032 1.000000 
vt 0.539683 1.000000 
vt 0.492063 1.000000 
f 1/1/1 2/2/2 3/3/3
f 4/4/4 5/5/5 6/6/6
f 7/7/7 8/8/8 9/9/9
f 10/10/10 11/11/11 12/12/12
f 13/13/13 14/14/14 15/15/15
f 16/16/16 17/17/17 18/18/18
f 19/19/19 20/20/20 21/21/21
f 22/22/22 23/23/23 24/24/24
f 25/25/25 26/26/26 27/27/27
f 28/28/28 29/29/29 30/30/30
f 31/31/31 32/32/32 33/33/33
f 34/34/34 35/35/35 36/36/36
f 37/37/37 38/38/38 39/39/39
f 40/40/40 41/41/41 42/42/42
f 43/43/43 44/44/44 45/45/45
f 46/46/46 47/47/47 48/48/48
f 49/49/49 50/50/50 51/51/51
f 52/52/52 53/53/53 54/54/54
f 55/55/55 56/56/56 57/57/57
f 58/58/58 59/59/59 60/60/60
f 61/61/61 62/62/62 63/63/63
f 64/64/64 65/65/65 66/66/66
f 67/67/67 68/68/68 69/69/69
f 70/70/70 71/71/71 72/72/72
f 73/73/73 74/74/74 75/75/75
f 76/76/76 77/77/77 78/78/78
f 79/79/79 80/80/80 81/81/81
f 82/82/82 83/83/83 84/84/84
f 85/85/85 86/86/86 87/87/87
f 88/88/88 89/89/89 90/90/90
f 91/91/91 92/92/92 93/93/93
f 94/94/94 95/95/95 96/96/96
f 97/97/97 98/98/98 99/99/99
f 100/100/100 101/101/101 102/102/102
f 103/103/103 104/104/104 105/105/105
f 106/106/106 107/107/107 108/108/108
f 109/109/109 110/110/110 111/111/111
f 112/112/112 113/113/113 114/114/114
f 115/115/115 116/116/116 117/117/117
f 118/118/118 119/119/119 120/120/120
f 121/121/121 122/122/122 123/123/123
f 124/124/124 125/125/125 126/126/126
f 127/127/127 128/128/128 129/129/129
f 130/130/130 131/131/131 132/132/132
f 133/133/133 134/134/134 135/135/135
f 136/136/136 137/137/137 138/138/138
f 139/139/139 140/140/140 141/141/141
f 142/142/142 143/143/143 144/144/144
f 145/145/145 146/146/146 147/147/147
f 148/148/148 149/149/149 150/150/150
f 151/151/151 152/152/152 153/153/153
f 154/154/154 155/155/155 156/156/156
f 157/157/157 158/158/158 159/159/159
f 160/160/160 161/161/161 162/162/162
f 163/163/163 164/164/164 165/165/165
f 166/166/166 167/167/167 168/168/168
f 169/169/169 170/170/170 171/171/171
f 172/172/172 173/173/173 174/174/174
f 175/175/175 176/176/176 177/177/177
f 178/178/178 179/179/179 180/180/180
f 181/181/181 182/182/182 183/183/183
f 184/184/184 185/185/185 186/186/186
f 187/187/187 188/188/188 189/189/189
f 190/190/190 191/191/191 192/192/192
f 193/193/193 194/194/194 195/195/195
f 196/196/196 197/197/197 198/198/198
f 199/199/199 200/200/200 201/201/201
f 202/202/202 203/203/203 204/204/204
f 205/205/205 206/206/206 207/207/207
f 208/208/208 209/209/209 210/210/210
f 211/211/211 212/212/212 213/213/213
f 214/214/214 215/215/215 216/216/216
f 217/217/217 218/218/218 219/219/219
f 220/220/220 221/221/221 222/222/222
f 223/223/223 224/224/224 225/225/225
f 226/226/226 227/227/227 228/228/228
f 229/229/229 230/230/230 231/231/231
f 232/232/232 233/233/233 234/234/234
f 235/235/235 236/236/236 237/237/237
f 238/238/238 239/239/239 240/240/240
f 241/241/241 242/242/242 243/243/243
f 244/244/244 245/245/245 246/246/246
f 247/247/247 248/248/248 249/249/249
f 250/250/250 251/251/251 252/252/252
