v -145.000000 56.000000 -6.000000 
v -154.000000 56.000000 -10.000000 
v -154.000000 63.000000 -10.000000 
v -154.000000 63.000000 -10.000000 
v -144.000000 59.000000 -3.000000 
v -145.000000 56.000000 -6.000000 
v -154.000000 56.000000 -10.000000 
v -159.000000 56.000000 -3.000000 
v -159.000000 60.000000 -2.000000 
v -159.000000 60.000000 -2.000000 
v -154.000000 63.000000 -10.000000 
v -154.000000 56.000000 -10.000000 
v -159.000000 56.000000 -3.000000 
v -152.000000 55.000000 2.000000 
v -152.000000 58.000000 4.000000 
v -152.000000 58.000000 4.000000 
v -159.000000 60.000000 -2.000000 
v -159.000000 56.000000 -3.000000 
v -152.000000 55.000000 2.000000 
v -145.000000 56.000000 -6.000000 
v -144.000000 59.000000 -3.000000 
v -144.000000 59.000000 -3.000000 
v -152.000000 58.000000 4.000000 
v -152.000000 55.000000 2.000000 
v -144.000000 59.000000 -3.000000 
v -154.000000 102.000000 -4.000000 
v -141.000000 99.000000 1.000000 
v -144.000000 59.000000 -3.000000 
v -154.000000 63.000000 -10.000000 
v -154.000000 102.000000 -4.000000 
v -154.000000 63.000000 -10.000000 
v -162.000000 99.000000 5.000000 
v -154.000000 102.000000 -4.000000 
v -154.000000 63.000000 -10.000000 
v -159.000000 60.000000 -2.000000 
v -162.000000 99.000000 5.000000 
v -159.000000 60.000000 -2.000000 
v -152.000000 96.000000 14.000000 
v -162.000000 99.000000 5.000000 
v -159.000000 60.000000 -2.000000 
v -152.000000 58.000000 4.000000 
v -152.000000 96.000000 14.000000 
v -152.000000 58.000000 4.000000 
v -141.000000 99.000000 1.000000 
v -152.000000 96.000000 14.000000 
v -152.000000 58.000000 4.000000 
v -144.000000 59.000000 -3.000000 
v -141.000000 99.000000 1.000000 
v -152.000000 96.000000 2.000000 
v -141.000000 99.000000 1.000000 
v -154.000000 102.000000 -4.000000 
v -152.000000 96.000000 2.000000 
v -152.000000 96.000000 14.000000 
v -141.000000 99.000000 1.000000 
v -152.000000 96.000000 2.000000 
v -154.000000 102.000000 -4.000000 
v -162.000000 99.000000 5.000000 
v -152.000000 96.000000 2.000000 
v -162.000000 99.000000 5.000000 
v -152.000000 96.000000 14.000000 
vn 0.926025 -0.029297 -0.376221 
vn -0.606934 -0.011475 -0.794434 
vn -0.182373 0.166992 -0.968750 
vn -0.182373 0.166992 -0.968750 
vn 0.993164 -0.072754 -0.090820 
vn 0.926025 -0.029297 -0.376221 
vn -0.606934 -0.011475 -0.794434 
vn -0.937500 -0.218018 0.270264 
vn -0.990967 -0.085938 0.102783 
vn -0.990967 -0.085938 0.102783 
vn -0.182373 0.166992 -0.968750 
vn -0.606934 -0.011475 -0.794434 
vn -0.937500 -0.218018 0.270264 
vn 0.426270 -0.580566 0.693359 
vn 0.050049 -0.376221 0.925049 
vn 0.050049 -0.376221 0.925049 
vn -0.990967 -0.085938 0.102783 
vn -0.937500 -0.218018 0.270264 
vn 0.426270 -0.580566 0.693359 
vn 0.926025 -0.029297 -0.376221 
vn 0.993164 -0.072754 -0.090820 
vn 0.993164 -0.072754 -0.090820 
vn 0.050049 -0.376221 0.925049 
vn 0.426270 -0.580566 0.693359 
vn 0.993164 -0.072754 -0.090820 
vn 0.387451 0.840332 -0.378662 
vn 0.722412 0.606934 0.330322 
vn 0.993164 -0.072754 -0.090820 
vn -0.182373 0.166992 -0.968750 
vn 0.387451 0.840332 -0.378662 
vn -0.182373 0.166992 -0.968750 
vn -0.740479 0.663330 0.106934 
vn 0.387451 0.840332 -0.378662 
vn -0.182373 0.166992 -0.968750 
vn -0.990967 -0.085938 0.102783 
vn -0.740479 0.663330 0.106934 
vn -0.990967 -0.085938 0.102783 
vn -0.306885 0.625732 0.716797 
vn -0.740479 0.663330 0.106934 
vn -0.990967 -0.085938 0.102783 
vn 0.050049 -0.376221 0.925049 
vn -0.306885 0.625732 0.716797 
vn 0.050049 -0.376221 0.925049 
vn 0.722412 0.606934 0.330322 
vn -0.306885 0.625732 0.716797 
vn 0.050049 -0.376221 0.925049 
vn 0.993164 -0.072754 -0.090820 
vn 0.722412 0.606934 0.330322 
vn 0.086426 0.948975 0.302734 
vn 0.722412 0.606934 0.330322 
vn 0.387451 0.840332 -0.378662 
vn 0.086426 0.948975 0.302734 
vn -0.306885 0.625732 0.716797 
vn 0.722412 0.606934 0.330322 
vn 0.086426 0.948975 0.302734 
vn 0.387451 0.840332 -0.378662 
vn -0.740479 0.663330 0.106934 
vn 0.086426 0.948975 0.302734 
vn -0.740479 0.663330 0.106934 
vn -0.306885 0.625732 0.716797 
vt 0.714286 0.492063 
vt 0.936508 0.492063 
vt 0.936508 0.492063 
vt 0.936508 0.492063 
vt 0.714286 0.492063 
vt 0.714286 0.492063 
vt 0.714286 0.492063 
vt 0.936508 0.492063 
vt 0.936508 0.492063 
vt 0.936508 0.492063 
vt 0.714286 0.492063 
vt 0.714286 0.492063 
vt 0.968254 0.714286 
vt 0.809524 0.714286 
vt 0.809524 0.603175 
vt 0.809524 0.603175 
vt 0.968254 0.603175 
vt 0.968254 0.714286 
vt 0.809524 0.714286 
vt 0.666667 0.714286 
vt 0.666667 0.603175 
vt 0.666667 0.603175 
vt 0.809524 0.603175 
vt 0.809524 0.714286 
vt 0.666667 0.714286 
vt 0.968254 -0.015873 
vt 0.650794 -0.015873 
vt 0.666667 0.714286 
vt 0.952381 0.714286 
vt 0.968254 -0.015873 
vt 0.666667 0.714286 
vt 0.968254 -0.015873 
vt 0.650794 -0.015873 
vt 0.666667 0.714286 
vt 0.952381 0.714286 
vt 0.968254 -0.015873 
vt 0.666667 0.603175 
vt 0.809524 0.000000 
vt 0.666667 0.000000 
vt 0.666667 0.603175 
vt 0.809524 0.603175 
vt 0.809524 0.000000 
vt 0.809524 0.603175 
vt 0.968254 0.000000 
vt 0.809524 0.000000 
vt 0.809524 0.603175 
vt 0.968254 0.603175 
vt 0.968254 0.000000 
vt 0.809524 0.095238 
vt 1.000000 0.190476 
vt 0.619048 0.190476 
vt 0.809524 0.095238 
vt 1.000000 0.000000 
vt 1.000000 0.190476 
vt 0.809524 0.095238 
vt 0.619048 0.190476 
vt 0.619048 0.000000 
vt 0.809524 0.095238 
vt 0.619048 0.000000 
vt 1.000000 0.000000 
f 1/1/1 2/2/2 3/3/3
f 4/4/4 5/5/5 6/6/6
f 7/7/7 8/8/8 9/9/9
f 10/10/10 11/11/11 12/12/12
f 13/13/13 14/14/14 15/15/15
f 16/16/16 17/17/17 18/18/18
f 19/19/19 20/20/20 21/21/21
f 22/22/22 23/23/23 24/24/24
f 25/25/25 26/26/26 27/27/27
f 28/28/28 29/29/29 30/30/30
f 31/31/31 32/32/32 33/33/33
f 34/34/34 35/35/35 36/36/36
f 37/37/37 38/38/38 39/39/39
f 40/40/40 41/41/41 42/42/42
f 43/43/43 44/44/44 45/45/45
f 46/46/46 47/47/47 48/48/48
f 49/49/49 50/50/50 51/51/51
f 52/52/52 53/53/53 54/54/54
f 55/55/55 56/56/56 57/57/57
f 58/58/58 59/59/59 60/60/60
