v -11.000000 -13.000000 -20.000000 
v -11.000000 0.000000 -24.000000 
v -2.000000 0.000000 -27.000000 
v -2.000000 -17.000000 -22.000000 
v -11.000000 -13.000000 -20.000000 
v -2.000000 0.000000 -27.000000 
v -2.000000 0.000000 -27.000000 
v -11.000000 0.000000 -24.000000 
v -2.000000 17.000000 -25.000000 
v -11.000000 -24.000000 -11.000000 
v -11.000000 -13.000000 -20.000000 
v -2.000000 -17.000000 -22.000000 
v -2.000000 -30.000000 -14.000000 
v -11.000000 -24.000000 -11.000000 
v -2.000000 -17.000000 -22.000000 
v -11.000000 -27.000000 3.000000 
v -11.000000 -24.000000 -11.000000 
v -2.000000 -30.000000 -14.000000 
v -2.000000 -35.000000 3.000000 
v -11.000000 -27.000000 3.000000 
v -2.000000 -30.000000 -14.000000 
v -11.000000 -24.000000 13.000000 
v -11.000000 -27.000000 3.000000 
v -2.000000 -35.000000 3.000000 
v -2.000000 -30.000000 12.000000 
v -11.000000 -24.000000 13.000000 
v -2.000000 -35.000000 3.000000 
v -11.000000 -13.000000 20.000000 
v -11.000000 -24.000000 13.000000 
v -2.000000 -30.000000 12.000000 
v -2.000000 -17.000000 26.000000 
v -11.000000 -13.000000 20.000000 
v -2.000000 -30.000000 12.000000 
v -11.000000 0.000000 24.000000 
v -11.000000 -13.000000 20.000000 
v -2.000000 -17.000000 26.000000 
v -2.000000 0.000000 30.000000 
v -11.000000 0.000000 24.000000 
v -2.000000 -17.000000 26.000000 
v -2.000000 30.000000 -15.000000 
v -11.000000 24.000000 -11.000000 
v -2.000000 35.000000 3.000000 
v -11.000000 13.000000 -20.000000 
v -11.000000 24.000000 -11.000000 
v -2.000000 30.000000 -15.000000 
v -2.000000 17.000000 -25.000000 
v -11.000000 13.000000 -20.000000 
v -2.000000 30.000000 -15.000000 
v -11.000000 0.000000 -24.000000 
v -11.000000 13.000000 -20.000000 
v -2.000000 17.000000 -25.000000 
v 51.000000 26.000000 -13.000000 
v 52.000000 29.000000 4.000000 
v 58.000000 19.000000 4.000000 
v 60.000000 16.000000 -9.000000 
v 51.000000 26.000000 -13.000000 
v 58.000000 19.000000 4.000000 
v 51.000000 0.000000 -21.000000 
v 51.000000 26.000000 -13.000000 
v 60.000000 16.000000 -9.000000 
v 51.000000 -25.000000 -13.000000 
v 51.000000 0.000000 -21.000000 
v 60.000000 -15.000000 -9.000000 
v 52.000000 -28.000000 4.000000 
v 51.000000 -25.000000 -13.000000 
v 58.000000 -18.000000 4.000000 
v 51.000000 -25.000000 -13.000000 
v 60.000000 -15.000000 -9.000000 
v 58.000000 -18.000000 4.000000 
vn -0.893311 -0.180176 -0.411133 
vn -0.902100 0.014648 -0.430908 
vn -0.641846 -0.102539 -0.759766 
vn -0.744873 -0.325439 -0.582031 
vn -0.893311 -0.180176 -0.411133 
vn -0.641846 -0.102539 -0.759766 
vn -0.641846 -0.102539 -0.759766 
vn -0.902100 0.014648 -0.430908 
vn -0.769775 0.209961 -0.602295 
vn -0.936523 -0.265381 -0.228516 
vn -0.893311 -0.180176 -0.411133 
vn -0.744873 -0.325439 -0.582031 
vn -0.861084 -0.443848 -0.247314 
vn -0.936523 -0.265381 -0.228516 
vn -0.744873 -0.325439 -0.582031 
vn -0.951172 -0.307617 -0.012451 
vn -0.936523 -0.265381 -0.228516 
vn -0.861084 -0.443848 -0.247314 
vn -0.854004 -0.509033 0.106445 
vn -0.951172 -0.307617 -0.012451 
vn -0.861084 -0.443848 -0.247314 
vn -0.924805 -0.309326 0.221191 
vn -0.951172 -0.307617 -0.012451 
vn -0.854004 -0.509033 0.106445 
vn -0.767090 -0.472168 0.433838 
vn -0.924805 -0.309326 0.221191 
vn -0.854004 -0.509033 0.106445 
vn -0.918701 -0.209473 0.334229 
vn -0.924805 -0.309326 0.221191 
vn -0.767090 -0.472168 0.433838 
vn -0.816162 -0.244629 0.523193 
vn -0.918701 -0.209473 0.334229 
vn -0.767090 -0.472168 0.433838 
vn -0.929443 -0.029785 0.367676 
vn -0.918701 -0.209473 0.334229 
vn -0.816162 -0.244629 0.523193 
vn -0.828125 0.028320 0.559570 
vn -0.929443 -0.029785 0.367676 
vn -0.816162 -0.244629 0.523193 
vn -0.864502 0.385254 -0.322021 
vn -0.953613 0.270020 -0.131348 
vn -0.872070 0.488770 -0.007324 
vn -0.940918 0.170410 -0.291992 
vn -0.953613 0.270020 -0.131348 
vn -0.864502 0.385254 -0.322021 
vn -0.769775 0.209961 -0.602295 
vn -0.940918 0.170410 -0.291992 
vn -0.864502 0.385254 -0.322021 
vn -0.902100 0.014648 -0.430908 
vn -0.940918 0.170410 -0.291992 
vn -0.769775 0.209961 -0.602295 
vn 0.936279 0.285156 -0.204102 
vn 0.951416 0.272949 0.141602 
vn 0.974854 0.185791 0.121338 
vn 0.982422 0.117432 -0.144775 
vn 0.936279 0.285156 -0.204102 
vn 0.974854 0.185791 0.121338 
vn 0.887451 0.000000 -0.460693 
vn 0.936279 0.285156 -0.204102 
vn 0.982422 0.117432 -0.144775 
vn 0.936279 -0.285156 -0.204102 
vn 0.887451 0.000000 -0.460693 
vn 0.982422 -0.117432 -0.144775 
vn 0.951416 -0.272949 0.141602 
vn 0.936279 -0.285156 -0.204102 
vn 0.974854 -0.185791 0.121338 
vn 0.936279 -0.285156 -0.204102 
vn 0.982422 -0.117432 -0.144775 
vn 0.974854 -0.185791 0.121338 
vt 0.746032 0.809524 
vt 0.825397 0.857143 
vt 0.825397 0.936508 
vt 0.714286 0.888889 
vt 0.746032 0.809524 
vt 0.825397 0.936508 
vt 0.825397 0.936508 
vt 0.825397 0.857143 
vt 0.714286 0.888889 
vt 0.682540 0.714286 
vt 0.746032 0.809524 
vt 0.714286 0.888889 
vt 0.650794 0.746032 
vt 0.682540 0.714286 
vt 0.714286 0.888889 
vt 0.666667 0.571429 
vt 0.682540 0.714286 
vt 0.650794 0.746032 
vt 0.634921 0.571429 
vt 0.666667 0.571429 
vt 0.650794 0.746032 
vt 0.682540 0.428571 
vt 0.666667 0.571429 
vt 0.634921 0.571429 
vt 0.650794 0.396825 
vt 0.682540 0.428571 
vt 0.634921 0.571429 
vt 0.746032 0.333333 
vt 0.682540 0.428571 
vt 0.650794 0.396825 
vt 0.714286 0.269841 
vt 0.746032 0.333333 
vt 0.650794 0.396825 
vt 0.825397 0.301587 
vt 0.746032 0.333333 
vt 0.714286 0.269841 
vt 0.825397 0.222222 
vt 0.825397 0.301587 
vt 0.714286 0.269841 
vt 0.650794 0.746032 
vt 0.682540 0.714286 
vt 0.634921 0.571429 
vt 0.746032 0.809524 
vt 0.682540 0.714286 
vt 0.650794 0.746032 
vt 0.714286 0.888889 
vt 0.746032 0.809524 
vt 0.650794 0.746032 
vt 0.825397 0.857143 
vt 0.746032 0.809524 
vt 0.714286 0.888889 
vt 0.603175 0.809524 
vt 0.603175 0.507937 
vt 0.714286 0.539683 
vt 0.714286 0.777778 
vt 0.603175 0.809524 
vt 0.714286 0.539683 
vt 0.603175 0.984127 
vt 0.603175 0.809524 
vt 0.714286 0.777778 
vt 0.603175 0.809524 
vt 0.603175 0.984127 
vt 0.714286 0.777778 
vt 0.603175 0.507937 
vt 0.603175 0.809524 
vt 0.714286 0.539683 
vt 0.603175 0.809524 
vt 0.714286 0.777778 
vt 0.714286 0.539683 
f 1/1/1 2/2/2 3/3/3
f 4/4/4 5/5/5 6/6/6
f 7/7/7 8/8/8 9/9/9
f 10/10/10 11/11/11 12/12/12
f 13/13/13 14/14/14 15/15/15
f 16/16/16 17/17/17 18/18/18
f 19/19/19 20/20/20 21/21/21
f 22/22/22 23/23/23 24/24/24
f 25/25/25 26/26/26 27/27/27
f 28/28/28 29/29/29 30/30/30
f 31/31/31 32/32/32 33/33/33
f 34/34/34 35/35/35 36/36/36
f 37/37/37 38/38/38 39/39/39
f 40/40/40 41/41/41 42/42/42
f 43/43/43 44/44/44 45/45/45
f 46/46/46 47/47/47 48/48/48
f 49/49/49 50/50/50 51/51/51
f 52/52/52 53/53/53 54/54/54
f 55/55/55 56/56/56 57/57/57
f 58/58/58 59/59/59 60/60/60
f 61/61/61 62/62/62 63/63/63
f 64/64/64 65/65/65 66/66/66
f 67/67/67 68/68/68 69/69/69
