v 49.000000 25.000000 -4.000000 
v 14.000000 17.000000 -11.000000 
v 14.000000 26.000000 -3.000000 
v 49.000000 25.000000 -4.000000 
v 48.000000 18.000000 -12.000000 
v 14.000000 17.000000 -11.000000 
v 48.000000 18.000000 -12.000000 
v 14.000000 10.000000 -2.000000 
v 14.000000 17.000000 -11.000000 
v 48.000000 18.000000 -12.000000 
v 49.000000 11.000000 -4.000000 
v 14.000000 10.000000 -2.000000 
v 49.000000 11.000000 -4.000000 
v 15.000000 17.000000 4.000000 
v 14.000000 10.000000 -2.000000 
v 49.000000 11.000000 -4.000000 
v 50.000000 18.000000 3.000000 
v 15.000000 17.000000 4.000000 
v 50.000000 18.000000 3.000000 
v 14.000000 26.000000 -3.000000 
v 15.000000 17.000000 4.000000 
v 50.000000 18.000000 3.000000 
v 49.000000 25.000000 -4.000000 
v 14.000000 26.000000 -3.000000 
vn -0.007324 0.945068 -0.326660 
vn 0.005371 0.294189 -0.955566 
vn -0.002686 0.948975 0.315186 
vn -0.007324 0.945068 -0.326660 
vn 0.007080 -0.361328 -0.932129 
vn 0.005371 0.294189 -0.955566 
vn 0.007080 -0.361328 -0.932129 
vn 0.053955 -0.963135 -0.262939 
vn 0.005371 0.294189 -0.955566 
vn 0.007080 -0.361328 -0.932129 
vn 0.056641 -0.949463 0.308350 
vn 0.053955 -0.963135 -0.262939 
vn 0.056641 -0.949463 0.308350 
vn 0.041504 -0.340332 0.939209 
vn 0.053955 -0.963135 -0.262939 
vn 0.056641 -0.949463 0.308350 
vn 0.017822 0.299561 0.953613 
vn 0.041504 -0.340332 0.939209 
vn 0.017822 0.299561 0.953613 
vn -0.002686 0.948975 0.315186 
vn 0.041504 -0.340332 0.939209 
vn 0.017822 0.299561 0.953613 
vn -0.007324 0.945068 -0.326660 
vn -0.002686 0.948975 0.315186 
vt 0.968254 0.650794 
vt 0.809524 1.000000 
vt 0.968254 1.000000 
vt 0.968254 0.650794 
vt 0.809524 0.650794 
vt 0.809524 1.000000 
vt 0.809524 0.650794 
vt 0.650794 1.000000 
vt 0.809524 1.000000 
vt 0.809524 0.650794 
vt 0.650794 0.650794 
vt 0.650794 1.000000 
vt 0.650794 0.650794 
vt 0.809524 1.000000 
vt 0.650794 1.000000 
vt 0.650794 0.650794 
vt 0.809524 0.650794 
vt 0.809524 1.000000 
vt 0.809524 0.650794 
vt 0.968254 1.000000 
vt 0.809524 1.000000 
vt 0.809524 0.650794 
vt 0.968254 0.650794 
vt 0.968254 1.000000 
f 1/1/1 2/2/2 3/3/3
f 4/4/4 5/5/5 6/6/6
f 7/7/7 8/8/8 9/9/9
f 10/10/10 11/11/11 12/12/12
f 13/13/13 14/14/14 15/15/15
f 16/16/16 17/17/17 18/18/18
f 19/19/19 20/20/20 21/21/21
f 22/22/22 23/23/23 24/24/24
