v -14.000000 26.000000 -1.000000 
v -15.000000 17.000000 -9.000000 
v -49.000000 25.000000 0.000000 
v -15.000000 17.000000 -9.000000 
v -49.000000 18.000000 -7.000000 
v -49.000000 25.000000 0.000000 
v -15.000000 17.000000 -9.000000 
v -14.000000 10.000000 0.000000 
v -49.000000 18.000000 -7.000000 
v -14.000000 10.000000 0.000000 
v -49.000000 11.000000 0.000000 
v -49.000000 18.000000 -7.000000 
v -14.000000 10.000000 0.000000 
v -15.000000 17.000000 6.000000 
v -49.000000 11.000000 0.000000 
v -15.000000 17.000000 6.000000 
v -49.000000 18.000000 8.000000 
v -49.000000 11.000000 0.000000 
v -15.000000 17.000000 6.000000 
v -14.000000 26.000000 -1.000000 
v -49.000000 18.000000 8.000000 
v -14.000000 26.000000 -1.000000 
v -49.000000 25.000000 0.000000 
v -49.000000 18.000000 8.000000 
vn 0.034180 0.948975 0.313232 
vn -0.100830 0.294189 -0.950195 
vn -0.025146 0.945068 -0.325684 
vn -0.100830 0.294189 -0.950195 
vn -0.100098 -0.361328 -0.926758 
vn -0.025146 0.945068 -0.325684 
vn -0.100830 0.294189 -0.950195 
vn -0.079834 -0.963135 -0.256348 
vn -0.100098 -0.361328 -0.926758 
vn -0.079834 -0.963135 -0.256348 
vn -0.025635 -0.949463 0.312500 
vn -0.100098 -0.361328 -0.926758 
vn -0.079834 -0.963135 -0.256348 
vn 0.052246 -0.340332 0.938721 
vn -0.025635 -0.949463 0.312500 
vn 0.052246 -0.340332 0.938721 
vn 0.077393 0.299561 0.950684 
vn -0.025635 -0.949463 0.312500 
vn 0.052246 -0.340332 0.938721 
vn 0.034180 0.948975 0.313232 
vn 0.077393 0.299561 0.950684 
vn 0.034180 0.948975 0.313232 
vn -0.025146 0.945068 -0.325684 
vn 0.077393 0.299561 0.950684 
vt 0.968254 1.000000 
vt 0.809524 1.000000 
vt 0.968254 0.650794 
vt 0.809524 1.000000 
vt 0.809524 0.650794 
vt 0.968254 0.650794 
vt 0.809524 1.000000 
vt 0.650794 1.000000 
vt 0.809524 0.650794 
vt 0.650794 1.000000 
vt 0.650794 0.650794 
vt 0.809524 0.650794 
vt 0.650794 1.000000 
vt 0.809524 1.000000 
vt 0.650794 0.650794 
vt 0.809524 1.000000 
vt 0.809524 0.650794 
vt 0.650794 0.650794 
vt 0.809524 1.000000 
vt 0.968254 1.000000 
vt 0.809524 0.650794 
vt 0.968254 1.000000 
vt 0.968254 0.650794 
vt 0.809524 0.650794 
f 1/1/1 2/2/2 3/3/3
f 4/4/4 5/5/5 6/6/6
f 7/7/7 8/8/8 9/9/9
f 10/10/10 11/11/11 12/12/12
f 13/13/13 14/14/14 15/15/15
f 16/16/16 17/17/17 18/18/18
f 19/19/19 20/20/20 21/21/21
f 22/22/22 23/23/23 24/24/24
