v -20.000000 21.000000 -128.000000 
v 15.000000 12.000000 -145.000000 
v -20.000000 -21.000000 -206.000000 
v 15.000000 12.000000 -145.000000 
v 20.000000 -11.000000 -184.000000 
v -20.000000 -21.000000 -206.000000 
v 15.000000 12.000000 145.000000 
v -20.000000 21.000000 128.000000 
v -20.000000 -21.000000 206.000000 
v 20.000000 -11.000000 184.000000 
v 15.000000 12.000000 145.000000 
v -20.000000 -21.000000 206.000000 
vn -0.023438 0.879150 -0.475586 
vn 0.027588 0.866211 -0.498535 
vn 0.027588 0.866211 -0.498535 
vn 0.027588 0.866211 -0.498535 
vn 0.078857 0.850586 -0.519531 
vn 0.027588 0.866211 -0.498535 
vn 0.027588 0.866211 0.498535 
vn -0.023438 0.879150 0.475586 
vn 0.027588 0.866211 0.498535 
vn 0.078857 0.850586 0.519531 
vn 0.027588 0.866211 0.498535 
vn 0.027588 0.866211 0.498535 
vt 0.444444 0.158730 
vt 0.000000 0.142857 
vt 0.412698 0.968254 
vt 0.000000 0.142857 
vt 0.000000 0.920635 
vt 0.412698 0.968254 
vt 0.000000 0.142857 
vt 0.444444 0.158730 
vt 0.412698 0.968254 
vt 0.000000 0.920635 
vt 0.000000 0.142857 
vt 0.412698 0.968254 
f 1/1/1 2/2/2 3/3/3
f 4/4/4 5/5/5 6/6/6
f 7/7/7 8/8/8 9/9/9
f 10/10/10 11/11/11 12/12/12
