v -145.000000 320.000000 188.000000 
v -71.000000 320.000000 188.000000 
v -71.000000 220.000000 188.000000 
v -145.000000 220.000000 188.000000 
v -145.000000 320.000000 188.000000 
v -71.000000 220.000000 188.000000 
vn 0.000000 0.000000 -1.000000 
vn 0.000000 0.000000 -1.000000 
vn 0.000000 0.000000 -1.000000 
vn 0.000000 0.000000 -1.000000 
vn 0.000000 0.000000 -1.000000 
vn 0.000000 0.000000 -1.000000 
vt 0.000000 1.000000 
vt 1.000000 1.000000 
vt 1.000000 -0.007874 
vt 0.000000 -0.007874 
vt 0.000000 1.000000 
vt 1.000000 -0.007874 
f 1/1/1 2/2/2 3/3/3
f 4/4/4 5/5/5 6/6/6
