v 36.000000 186.000000 31.000000 
v 36.000000 203.000000 21.000000 
v 36.000000 203.000000 41.000000 
v 36.000000 203.000000 21.000000 
v 36.000000 220.000000 31.000000 
v 36.000000 203.000000 41.000000 
v 36.000000 186.000000 51.000000 
v 36.000000 186.000000 31.000000 
v 36.000000 203.000000 41.000000 
v 36.000000 220.000000 31.000000 
v 36.000000 220.000000 51.000000 
v 36.000000 203.000000 41.000000 
v 36.000000 203.000000 61.000000 
v 36.000000 186.000000 51.000000 
v 36.000000 203.000000 41.000000 
v 36.000000 220.000000 51.000000 
v 36.000000 203.000000 61.000000 
v 36.000000 203.000000 41.000000 
vn 1.000000 0.000000 0.000000 
vn 1.000000 0.000000 0.000000 
vn 1.000000 0.000000 0.000000 
vn 1.000000 0.000000 0.000000 
vn 1.000000 0.000000 0.000000 
vn 1.000000 0.000000 0.000000 
vn 1.000000 0.000000 0.000000 
vn 1.000000 0.000000 0.000000 
vn 1.000000 0.000000 0.000000 
vn 1.000000 0.000000 0.000000 
vn 1.000000 0.000000 0.000000 
vn 1.000000 0.000000 0.000000 
vn 1.000000 0.000000 0.000000 
vn 1.000000 0.000000 0.000000 
vn 1.000000 0.000000 0.000000 
vn 1.000000 0.000000 0.000000 
vn 1.000000 0.000000 0.000000 
vn 1.000000 0.000000 0.000000 
vt 0.299213 0.543307 
vt 0.393701 0.677165 
vt 0.204724 0.677165 
vt 0.393701 0.677165 
vt 0.299213 0.811024 
vt 0.204724 0.677165 
vt 0.110236 0.543307 
vt 0.299213 0.543307 
vt 0.204724 0.677165 
vt 0.299213 0.811024 
vt 0.110236 0.811024 
vt 0.204724 0.677165 
vt 0.015748 0.677165 
vt 0.110236 0.543307 
vt 0.204724 0.677165 
vt 0.110236 0.811024 
vt 0.015748 0.677165 
vt 0.204724 0.677165 
f 1/1/1 2/2/2 3/3/3
f 4/4/4 5/5/5 6/6/6
f 7/7/7 8/8/8 9/9/9
f 10/10/10 11/11/11 12/12/12
f 13/13/13 14/14/14 15/15/15
f 16/16/16 17/17/17 18/18/18
