v -35.000000 374.000000 0.000000 
v -21.000000 374.000000 -8.000000 
v -35.000000 302.000000 0.000000 
v -21.000000 374.000000 -8.000000 
v 35.000000 302.000000 0.000000 
v -35.000000 302.000000 0.000000 
v 35.000000 302.000000 0.000000 
v -21.000000 374.000000 -8.000000 
v 21.000000 374.000000 -8.000000 
v 35.000000 302.000000 0.000000 
v 21.000000 374.000000 -8.000000 
v 36.000000 374.000000 0.000000 
v 0.000000 -374.000000 -12.000000 
v 35.000000 302.000000 0.000000 
v 36.000000 -374.000000 0.000000 
v -35.000000 302.000000 0.000000 
v 35.000000 302.000000 0.000000 
v 0.000000 -374.000000 -12.000000 
v -35.000000 -374.000000 0.000000 
v -35.000000 302.000000 0.000000 
v 0.000000 -374.000000 -12.000000 
vn -0.639160 0.000000 -0.768799 
vn -0.226562 -0.203613 -0.952393 
vn -0.281982 -0.063965 -0.957031 
vn -0.226562 -0.203613 -0.952393 
vn 0.224854 -0.112549 -0.967773 
vn -0.281982 -0.063965 -0.957031 
vn 0.224854 -0.112549 -0.967773 
vn -0.226562 -0.203613 -0.952393 
vn 0.341797 -0.156250 -0.926514 
vn 0.224854 -0.112549 -0.967773 
vn 0.341797 -0.156250 -0.926514 
vn 0.637451 -0.004150 -0.770264 
vn 0.000000 0.015869 -0.999756 
vn 0.224854 -0.112549 -0.967773 
vn 0.429443 0.000244 -0.902832 
vn -0.281982 -0.063965 -0.957031 
vn 0.224854 -0.112549 -0.967773 
vn 0.000000 0.015869 -0.999756 
vn -0.429932 0.000000 -0.902588 
vn -0.281982 -0.063965 -0.957031 
vn 0.000000 0.015869 -0.999756 
vt 0.000000 1.000000 
vt 0.031746 1.000000 
vt 0.000000 0.897638 
vt 0.031746 1.000000 
vt 0.253968 0.897638 
vt 0.000000 0.897638 
vt 0.253968 0.897638 
vt 0.031746 1.000000 
vt 0.190476 1.000000 
vt 0.253968 0.897638 
vt 0.190476 1.000000 
vt 0.253968 1.000000 
vt 0.126984 -0.007874 
vt 0.253968 0.897638 
vt 0.253968 -0.007874 
vt 0.000000 0.897638 
vt 0.253968 0.897638 
vt 0.126984 -0.007874 
vt 0.000000 -0.007874 
vt 0.000000 0.897638 
vt 0.126984 -0.007874 
f 1/1/1 2/2/2 3/3/3
f 4/4/4 5/5/5 6/6/6
f 7/7/7 8/8/8 9/9/9
f 10/10/10 11/11/11 12/12/12
f 13/13/13 14/14/14 15/15/15
f 16/16/16 17/17/17 18/18/18
f 19/19/19 20/20/20 21/21/21
