v 168.000000 -392.000000 350.000000 
v 326.000000 -231.000000 380.000000 
v 184.000000 -378.000000 191.000000 
v 342.000000 -217.000000 221.000000 
v 184.000000 -378.000000 191.000000 
v 326.000000 -231.000000 380.000000 
vn -0.545654 0.837891 -0.005371 
vn -0.546631 0.837158 -0.004639 
vn -0.546631 0.837158 -0.004639 
vn -0.547852 0.836426 -0.003906 
vn -0.546631 0.837158 -0.004639 
vn -0.546631 0.837158 -0.004639 
vt 0.000000 1.000000 
vt 1.000000 1.000000 
vt 0.000000 -0.015873 
vt 1.000000 -0.015873 
vt 0.000000 -0.015873 
vt 1.000000 1.000000 
f 1/1/1 2/2/2 3/3/3
f 4/4/4 5/5/5 6/6/6
