v 36.000000 -9.000000 -4.000000 
v 38.000000 1.000000 -7.000000 
v 41.000000 1.000000 9.000000 
v 42.000000 -4.000000 14.000000 
v 36.000000 -9.000000 -4.000000 
v 41.000000 1.000000 9.000000 
v 41.000000 1.000000 9.000000 
v 38.000000 1.000000 -7.000000 
v 42.000000 8.000000 14.000000 
v 42.000000 8.000000 14.000000 
v 42.000000 -4.000000 14.000000 
v 41.000000 1.000000 9.000000 
v 32.000000 -16.000000 12.000000 
v 36.000000 -9.000000 -4.000000 
v 42.000000 -4.000000 14.000000 
v 43.000000 -9.000000 21.000000 
v 32.000000 -16.000000 12.000000 
v 42.000000 -4.000000 14.000000 
v 43.000000 12.000000 21.000000 
v 43.000000 -9.000000 21.000000 
v 42.000000 -4.000000 14.000000 
v 42.000000 8.000000 14.000000 
v 43.000000 12.000000 21.000000 
v 42.000000 -4.000000 14.000000 
v 27.000000 -16.000000 22.000000 
v 32.000000 -16.000000 12.000000 
v 43.000000 -9.000000 21.000000 
v 39.000000 -9.000000 28.000000 
v 27.000000 -16.000000 22.000000 
v 43.000000 -9.000000 21.000000 
v 39.000000 12.000000 28.000000 
v 39.000000 -9.000000 28.000000 
v 43.000000 -9.000000 21.000000 
v 43.000000 12.000000 21.000000 
v 39.000000 12.000000 28.000000 
v 43.000000 -9.000000 21.000000 
v 32.000000 19.000000 12.000000 
v 27.000000 19.000000 22.000000 
v 39.000000 12.000000 28.000000 
v 43.000000 12.000000 21.000000 
v 32.000000 19.000000 12.000000 
v 39.000000 12.000000 28.000000 
v 36.000000 12.000000 -4.000000 
v 32.000000 19.000000 12.000000 
v 43.000000 12.000000 21.000000 
v 42.000000 8.000000 14.000000 
v 36.000000 12.000000 -4.000000 
v 43.000000 12.000000 21.000000 
v 38.000000 1.000000 -7.000000 
v 36.000000 12.000000 -4.000000 
v 42.000000 8.000000 14.000000 
v 25.000000 -10.000000 -10.000000 
v 26.000000 1.000000 -13.000000 
v 38.000000 1.000000 -7.000000 
v 36.000000 -9.000000 -4.000000 
v 25.000000 -10.000000 -10.000000 
v 38.000000 1.000000 -7.000000 
v 38.000000 1.000000 -7.000000 
v 26.000000 1.000000 -13.000000 
v 36.000000 12.000000 -4.000000 
v 15.000000 -17.000000 3.000000 
v 25.000000 -10.000000 -10.000000 
v 36.000000 -9.000000 -4.000000 
v 32.000000 -16.000000 12.000000 
v 15.000000 -17.000000 3.000000 
v 36.000000 -9.000000 -4.000000 
v 9.000000 -17.000000 11.000000 
v 15.000000 -17.000000 3.000000 
v 32.000000 -16.000000 12.000000 
v 27.000000 -16.000000 22.000000 
v 9.000000 -17.000000 11.000000 
v 32.000000 -16.000000 12.000000 
v 15.000000 20.000000 3.000000 
v 9.000000 20.000000 11.000000 
v 27.000000 19.000000 22.000000 
v 32.000000 19.000000 12.000000 
v 15.000000 20.000000 3.000000 
v 27.000000 19.000000 22.000000 
v 25.000000 13.000000 -10.000000 
v 15.000000 20.000000 3.000000 
v 32.000000 19.000000 12.000000 
v 36.000000 12.000000 -4.000000 
v 25.000000 13.000000 -10.000000 
v 32.000000 19.000000 12.000000 
v 26.000000 1.000000 -13.000000 
v 25.000000 13.000000 -10.000000 
v 36.000000 12.000000 -4.000000 
v 8.000000 -5.000000 -8.000000 
v 9.000000 1.000000 -9.000000 
v 26.000000 1.000000 -13.000000 
v 25.000000 -10.000000 -10.000000 
v 8.000000 -5.000000 -8.000000 
v 26.000000 1.000000 -13.000000 
v 26.000000 1.000000 -13.000000 
v 9.000000 1.000000 -9.000000 
v 25.000000 13.000000 -10.000000 
v 5.000000 -10.000000 -3.000000 
v 8.000000 -5.000000 -8.000000 
v 25.000000 -10.000000 -10.000000 
v 15.000000 -17.000000 3.000000 
v 5.000000 -10.000000 -3.000000 
v 25.000000 -10.000000 -10.000000 
v 1.000000 -10.000000 2.000000 
v 5.000000 -10.000000 -3.000000 
v 15.000000 -17.000000 3.000000 
v 9.000000 -17.000000 11.000000 
v 1.000000 -10.000000 2.000000 
v 15.000000 -17.000000 3.000000 
v 0.000000 -5.000000 7.000000 
v 1.000000 -10.000000 2.000000 
v 9.000000 -17.000000 11.000000 
v 5.000000 -10.000000 16.000000 
v 0.000000 -5.000000 7.000000 
v 9.000000 -17.000000 11.000000 
v -1.000000 1.000000 9.000000 
v 0.000000 -5.000000 7.000000 
v 5.000000 -10.000000 16.000000 
v 3.000000 1.000000 20.000000 
v -1.000000 1.000000 9.000000 
v 5.000000 -10.000000 16.000000 
v 0.000000 8.000000 7.000000 
v -1.000000 1.000000 9.000000 
v 3.000000 1.000000 20.000000 
v 5.000000 13.000000 16.000000 
v 0.000000 8.000000 7.000000 
v 3.000000 1.000000 20.000000 
v 1.000000 13.000000 2.000000 
v 0.000000 8.000000 7.000000 
v 5.000000 13.000000 16.000000 
v 9.000000 20.000000 11.000000 
v 1.000000 13.000000 2.000000 
v 5.000000 13.000000 16.000000 
v 5.000000 13.000000 -3.000000 
v 1.000000 13.000000 2.000000 
v 9.000000 20.000000 11.000000 
v 15.000000 20.000000 3.000000 
v 5.000000 13.000000 -3.000000 
v 9.000000 20.000000 11.000000 
v 8.000000 8.000000 -8.000000 
v 5.000000 13.000000 -3.000000 
v 15.000000 20.000000 3.000000 
v 25.000000 13.000000 -10.000000 
v 8.000000 8.000000 -8.000000 
v 15.000000 20.000000 3.000000 
v 9.000000 1.000000 -9.000000 
v 8.000000 8.000000 -8.000000 
v 25.000000 13.000000 -10.000000 
vn 0.649902 -0.619629 -0.439697 
vn 0.756348 -0.022949 -0.653564 
vn 0.951660 -0.065674 -0.299072 
vn 0.912354 -0.263916 -0.312256 
vn 0.649902 -0.619629 -0.439697 
vn 0.951660 -0.065674 -0.299072 
vn 0.951660 -0.065674 -0.299072 
vn 0.756348 -0.022949 -0.653564 
vn 0.946289 0.114990 -0.301514 
vn 0.946289 0.114990 -0.301514 
vn 0.912354 -0.263916 -0.312256 
vn 0.951660 -0.065674 -0.299072 
vn 0.361084 -0.923340 -0.129639 
vn 0.649902 -0.619629 -0.439697 
vn 0.912354 -0.263916 -0.312256 
vn 0.840820 -0.533447 0.089355 
vn 0.361084 -0.923340 -0.129639 
vn 0.912354 -0.263916 -0.312256 
vn 0.913330 0.390869 -0.113281 
vn 0.840820 -0.533447 0.089355 
vn 0.912354 -0.263916 -0.312256 
vn 0.946289 0.114990 -0.301514 
vn 0.913330 0.390869 -0.113281 
vn 0.912354 -0.263916 -0.312256 
vn -0.247803 -0.569336 0.783691 
vn 0.361084 -0.923340 -0.129639 
vn 0.840820 -0.533447 0.089355 
vn 0.360352 -0.489014 0.794189 
vn -0.247803 -0.569336 0.783691 
vn 0.840820 -0.533447 0.089355 
vn 0.359863 0.487305 0.795410 
vn 0.360352 -0.489014 0.794189 
vn 0.840820 -0.533447 0.089355 
vn 0.913330 0.390869 -0.113281 
vn 0.359863 0.487305 0.795410 
vn 0.840820 -0.533447 0.089355 
vn 0.302734 0.949463 -0.081787 
vn -0.151611 0.814697 0.559570 
vn 0.359863 0.487305 0.795410 
vn 0.913330 0.390869 -0.113281 
vn 0.302734 0.949463 -0.081787 
vn 0.359863 0.487305 0.795410 
vn 0.660645 0.510010 -0.550537 
vn 0.302734 0.949463 -0.081787 
vn 0.913330 0.390869 -0.113281 
vn 0.946289 0.114990 -0.301514 
vn 0.660645 0.510010 -0.550537 
vn 0.913330 0.390869 -0.113281 
vn 0.756348 -0.022949 -0.653564 
vn 0.660645 0.510010 -0.550537 
vn 0.946289 0.114990 -0.301514 
vn 0.156494 -0.601807 -0.782959 
vn 0.220215 0.013672 -0.975342 
vn 0.756348 -0.022949 -0.653564 
vn 0.649902 -0.619629 -0.439697 
vn 0.156494 -0.601807 -0.782959 
vn 0.756348 -0.022949 -0.653564 
vn 0.756348 -0.022949 -0.653564 
vn 0.220215 0.013672 -0.975342 
vn 0.660645 0.510010 -0.550537 
vn -0.054443 -0.956055 -0.287598 
vn 0.156494 -0.601807 -0.782959 
vn 0.649902 -0.619629 -0.439697 
vn 0.361084 -0.923340 -0.129639 
vn -0.054443 -0.956055 -0.287598 
vn 0.649902 -0.619629 -0.439697 
vn -0.008789 -0.840576 0.541260 
vn -0.054443 -0.956055 -0.287598 
vn 0.361084 -0.923340 -0.129639 
vn -0.247803 -0.569336 0.783691 
vn -0.008789 -0.840576 0.541260 
vn 0.361084 -0.923340 -0.129639 
vn -0.028320 0.948975 -0.313477 
vn -0.403809 0.778809 0.479492 
vn -0.151611 0.814697 0.559570 
vn 0.302734 0.949463 -0.081787 
vn -0.028320 0.948975 -0.313477 
vn -0.151611 0.814697 0.559570 
vn 0.123047 0.646240 -0.752930 
vn -0.028320 0.948975 -0.313477 
vn 0.302734 0.949463 -0.081787 
vn 0.660645 0.510010 -0.550537 
vn 0.123047 0.646240 -0.752930 
vn 0.302734 0.949463 -0.081787 
vn 0.220215 0.013672 -0.975342 
vn 0.123047 0.646240 -0.752930 
vn 0.660645 0.510010 -0.550537 
vn 0.092529 -0.440186 -0.892822 
vn 0.143555 0.095703 -0.984863 
vn 0.220215 0.013672 -0.975342 
vn 0.156494 -0.601807 -0.782959 
vn 0.092529 -0.440186 -0.892822 
vn 0.220215 0.013672 -0.975342 
vn 0.220215 0.013672 -0.975342 
vn 0.143555 0.095703 -0.984863 
vn 0.123047 0.646240 -0.752930 
vn -0.100586 -0.865967 -0.489502 
vn 0.092529 -0.440186 -0.892822 
vn 0.156494 -0.601807 -0.782959 
vn -0.054443 -0.956055 -0.287598 
vn -0.100586 -0.865967 -0.489502 
vn 0.156494 -0.601807 -0.782959 
vn -0.398926 -0.916748 -0.003174 
vn -0.100586 -0.865967 -0.489502 
vn -0.054443 -0.956055 -0.287598 
vn -0.008789 -0.840576 0.541260 
vn -0.398926 -0.916748 -0.003174 
vn -0.054443 -0.956055 -0.287598 
vn -0.645996 -0.594482 0.478516 
vn -0.398926 -0.916748 -0.003174 
vn -0.008789 -0.840576 0.541260 
vn -0.570557 -0.445068 0.689697 
vn -0.645996 -0.594482 0.478516 
vn -0.008789 -0.840576 0.541260 
vn -0.725586 -0.102783 0.679932 
vn -0.645996 -0.594482 0.478516 
vn -0.570557 -0.445068 0.689697 
vn -0.348389 0.045166 0.936035 
vn -0.725586 -0.102783 0.679932 
vn -0.570557 -0.445068 0.689697 
vn -0.680908 0.448486 0.578613 
vn -0.725586 -0.102783 0.679932 
vn -0.348389 0.045166 0.936035 
vn -0.242432 0.609131 0.754883 
vn -0.680908 0.448486 0.578613 
vn -0.348389 0.045166 0.936035 
vn -0.510742 0.837646 0.192871 
vn -0.680908 0.448486 0.578613 
vn -0.242432 0.609131 0.754883 
vn -0.403809 0.778809 0.479492 
vn -0.510742 0.837646 0.192871 
vn -0.242432 0.609131 0.754883 
vn -0.167725 0.919922 -0.354248 
vn -0.510742 0.837646 0.192871 
vn -0.403809 0.778809 0.479492 
vn -0.028320 0.948975 -0.313477 
vn -0.167725 0.919922 -0.354248 
vn -0.403809 0.778809 0.479492 
vn 0.062988 0.637695 -0.767578 
vn -0.167725 0.919922 -0.354248 
vn -0.028320 0.948975 -0.313477 
vn 0.123047 0.646240 -0.752930 
vn 0.062988 0.637695 -0.767578 
vn -0.028320 0.948975 -0.313477 
vn 0.143555 0.095703 -0.984863 
vn 0.062988 0.637695 -0.767578 
vn 0.123047 0.646240 -0.752930 
vt 0.122137 0.936508 
vt 0.122137 0.952381 
vt 0.038168 0.825397 
vt 0.038168 0.650794 
vt 0.122137 0.936508 
vt 0.038168 0.825397 
vt 0.038168 0.825397 
vt 0.122137 0.952381 
vt 0.038168 0.650794 
vt 0.038168 0.650794 
vt 0.038168 0.650794 
vt 0.038168 0.825397 
vt 0.091603 0.507937 
vt 0.122137 0.936508 
vt 0.038168 0.650794 
vt 0.000000 0.301587 
vt 0.091603 0.507937 
vt 0.038168 0.650794 
vt 0.015267 0.317460 
vt 0.015267 0.317460 
vt 0.038168 0.650794 
vt 0.038168 0.650794 
vt 0.015267 0.317460 
vt 0.038168 0.650794 
vt 0.213740 0.015873 
vt 0.267176 0.269841 
vt 0.183206 0.206349 
vt 0.183206 0.000000 
vt 0.213740 0.015873 
vt 0.183206 0.206349 
vt 0.183206 0.000000 
vt 0.000000 0.000000 
vt 0.000000 0.206349 
vt 0.183206 0.206349 
vt 0.183206 0.000000 
vt 0.000000 0.206349 
vt 0.274809 0.301587 
vt 0.328244 0.000000 
vt 0.183206 0.000000 
vt 0.183206 0.206349 
vt 0.274809 0.301587 
vt 0.183206 0.000000 
vt 0.122137 0.936508 
vt 0.091603 0.507937 
vt 0.000000 0.301587 
vt 0.038168 0.650794 
vt 0.122137 0.936508 
vt 0.000000 0.301587 
vt 0.122137 0.952381 
vt 0.122137 0.936508 
vt 0.038168 0.650794 
vt 0.267176 0.936508 
vt 0.267176 0.936508 
vt 0.122137 0.952381 
vt 0.122137 0.936508 
vt 0.267176 0.936508 
vt 0.122137 0.952381 
vt 0.122137 0.952381 
vt 0.267176 0.936508 
vt 0.122137 0.936508 
vt 0.282443 0.539683 
vt 0.267176 0.936508 
vt 0.122137 0.936508 
vt 0.091603 0.507937 
vt 0.282443 0.539683 
vt 0.122137 0.936508 
vt 0.374046 0.015873 
vt 0.305344 0.365079 
vt 0.114504 0.333333 
vt 0.213740 0.015873 
vt 0.374046 0.015873 
vt 0.114504 0.333333 
vt 0.335878 0.301587 
vt 0.374046 0.000000 
vt 0.183206 0.000000 
vt 0.145038 0.269841 
vt 0.335878 0.301587 
vt 0.183206 0.000000 
vt 0.267176 0.936508 
vt 0.282443 0.539683 
vt 0.091603 0.507937 
vt 0.122137 0.936508 
vt 0.267176 0.936508 
vt 0.091603 0.507937 
vt 0.267176 0.936508 
vt 0.267176 0.936508 
vt 0.122137 0.936508 
vt 0.625954 0.873016 
vt 0.625954 0.936508 
vt 0.267176 0.936508 
vt 0.267176 0.936508 
vt 0.625954 0.873016 
vt 0.267176 0.936508 
vt 0.267176 0.936508 
vt 0.625954 0.936508 
vt 0.267176 0.936508 
vt 0.625954 0.746032 
vt 0.625954 0.873016 
vt 0.267176 0.936508 
vt 0.282443 0.539683 
vt 0.625954 0.746032 
vt 0.267176 0.936508 
vt 0.625954 0.571429 
vt 0.625954 0.746032 
vt 0.282443 0.539683 
vt 0.374046 0.015873 
vt 0.625954 0.571429 
vt 0.282443 0.539683 
vt 0.625954 0.428571 
vt 0.625954 0.571429 
vt 0.374046 0.015873 
vt 0.480916 0.111111 
vt 0.625954 0.428571 
vt 0.374046 0.015873 
vt 0.625954 0.380952 
vt 0.625954 0.428571 
vt 0.480916 0.111111 
vt 0.465649 0.015873 
vt 0.625954 0.380952 
vt 0.480916 0.111111 
vt 0.625954 0.428571 
vt 0.625954 0.380952 
vt 0.465649 0.015873 
vt 0.480916 0.111111 
vt 0.625954 0.428571 
vt 0.465649 0.015873 
vt 0.625954 0.571429 
vt 0.625954 0.428571 
vt 0.480916 0.111111 
vt 0.374046 0.000000 
vt 0.625954 0.571429 
vt 0.480916 0.111111 
vt 0.625954 0.746032 
vt 0.625954 0.571429 
vt 0.374046 0.000000 
vt 0.282443 0.539683 
vt 0.625954 0.746032 
vt 0.374046 0.000000 
vt 0.625954 0.873016 
vt 0.625954 0.746032 
vt 0.282443 0.539683 
vt 0.267176 0.936508 
vt 0.625954 0.873016 
vt 0.282443 0.539683 
vt 0.625954 0.936508 
vt 0.625954 0.873016 
vt 0.267176 0.936508 
f 1/1/1 2/2/2 3/3/3
f 4/4/4 5/5/5 6/6/6
f 7/7/7 8/8/8 9/9/9
f 10/10/10 11/11/11 12/12/12
f 13/13/13 14/14/14 15/15/15
f 16/16/16 17/17/17 18/18/18
f 19/19/19 20/20/20 21/21/21
f 22/22/22 23/23/23 24/24/24
f 25/25/25 26/26/26 27/27/27
f 28/28/28 29/29/29 30/30/30
f 31/31/31 32/32/32 33/33/33
f 34/34/34 35/35/35 36/36/36
f 37/37/37 38/38/38 39/39/39
f 40/40/40 41/41/41 42/42/42
f 43/43/43 44/44/44 45/45/45
f 46/46/46 47/47/47 48/48/48
f 49/49/49 50/50/50 51/51/51
f 52/52/52 53/53/53 54/54/54
f 55/55/55 56/56/56 57/57/57
f 58/58/58 59/59/59 60/60/60
f 61/61/61 62/62/62 63/63/63
f 64/64/64 65/65/65 66/66/66
f 67/67/67 68/68/68 69/69/69
f 70/70/70 71/71/71 72/72/72
f 73/73/73 74/74/74 75/75/75
f 76/76/76 77/77/77 78/78/78
f 79/79/79 80/80/80 81/81/81
f 82/82/82 83/83/83 84/84/84
f 85/85/85 86/86/86 87/87/87
f 88/88/88 89/89/89 90/90/90
f 91/91/91 92/92/92 93/93/93
f 94/94/94 95/95/95 96/96/96
f 97/97/97 98/98/98 99/99/99
f 100/100/100 101/101/101 102/102/102
f 103/103/103 104/104/104 105/105/105
f 106/106/106 107/107/107 108/108/108
f 109/109/109 110/110/110 111/111/111
f 112/112/112 113/113/113 114/114/114
f 115/115/115 116/116/116 117/117/117
f 118/118/118 119/119/119 120/120/120
f 121/121/121 122/122/122 123/123/123
f 124/124/124 125/125/125 126/126/126
f 127/127/127 128/128/128 129/129/129
f 130/130/130 131/131/131 132/132/132
f 133/133/133 134/134/134 135/135/135
f 136/136/136 137/137/137 138/138/138
f 139/139/139 140/140/140 141/141/141
f 142/142/142 143/143/143 144/144/144
f 145/145/145 146/146/146 147/147/147
