v 7.000000 -52.000000 -11.000000 
v 6.000000 4.000000 -12.000000 
v 65.000000 -45.000000 -15.000000 
v 6.000000 4.000000 -12.000000 
v 64.000000 5.000000 -16.000000 
v 65.000000 -45.000000 -15.000000 
v 64.000000 5.000000 -16.000000 
v 6.000000 4.000000 -12.000000 
v 63.000000 56.000000 -13.000000 
v 6.000000 4.000000 -12.000000 
v 5.000000 61.000000 -9.000000 
v 63.000000 56.000000 -13.000000 
vn -0.050293 0.146240 -0.987793 
vn -0.047607 -0.012939 -0.998779 
vn -0.085693 0.127686 -0.988037 
vn -0.047607 -0.012939 -0.998779 
vn -0.045410 -0.013184 -0.998779 
vn -0.085693 0.127686 -0.988037 
vn -0.045410 -0.013184 -0.998779 
vn -0.047607 -0.012939 -0.998779 
vn -0.091797 -0.142334 -0.985352 
vn -0.047607 -0.012939 -0.998779 
vn -0.058350 -0.166992 -0.984131 
vn -0.091797 -0.142334 -0.985352 
vt 0.661417 0.448819 
vt 0.496063 0.448819 
vt 0.645669 0.291339 
vt 0.496063 0.448819 
vt 0.496063 0.291339 
vt 0.645669 0.291339 
vt 0.496063 0.291339 
vt 0.496063 0.448819 
vt 0.346457 0.291339 
vt 0.496063 0.448819 
vt 0.330709 0.448819 
vt 0.346457 0.291339 
f 1/1/1 2/2/2 3/3/3
f 4/4/4 5/5/5 6/6/6
f 7/7/7 8/8/8 9/9/9
f 10/10/10 11/11/11 12/12/12
