v -67.000000 273.000000 735.000000 
v -189.000000 197.000000 735.000000 
v -189.000000 273.000000 735.000000 
v -189.000000 197.000000 735.000000 
v -67.000000 273.000000 735.000000 
v -67.000000 197.000000 735.000000 
v -67.000000 273.000000 735.000000 
v -189.000000 197.000000 735.000000 
v -189.000000 273.000000 735.000000 
v -189.000000 197.000000 735.000000 
v -67.000000 273.000000 735.000000 
v -67.000000 197.000000 735.000000 
vn 0.000000 0.000000 -1.000000 
vn 0.000000 0.000000 -1.000000 
vn 0.000000 0.000000 -1.000000 
vn 0.000000 0.000000 -1.000000 
vn 0.000000 0.000000 -1.000000 
vn 0.000000 0.000000 -1.000000 
vn 0.000000 0.000000 -1.000000 
vn 0.000000 0.000000 -1.000000 
vn 0.000000 0.000000 -1.000000 
vn 0.000000 0.000000 -1.000000 
vn 0.000000 0.000000 -1.000000 
vn 0.000000 0.000000 -1.000000 
vt 0.511811 1.000000 
vt 0.000000 -0.015873 
vt 0.000000 1.000000 
vt 0.000000 -0.015873 
vt 0.511811 1.000000 
vt 0.511811 -0.015873 
vt 0.511811 1.000000 
vt 0.000000 -0.015873 
vt 0.000000 1.000000 
vt 0.000000 -0.015873 
vt 0.511811 1.000000 
vt 0.511811 -0.015873 
f 1/1/1 2/2/2 3/3/3
f 4/4/4 5/5/5 6/6/6
f 7/7/7 8/8/8 9/9/9
f 10/10/10 11/11/11 12/12/12
