v 102.000000 -28.000000 0.000000 
v 105.000000 -21.000000 16.000000 
v 52.000000 -28.000000 8.000000 
v 105.000000 -21.000000 16.000000 
v 50.000000 -22.000000 25.000000 
v 52.000000 -28.000000 8.000000 
v 102.000000 -28.000000 0.000000 
v 52.000000 -28.000000 8.000000 
v 53.000000 -24.000000 -8.000000 
v 105.000000 -21.000000 16.000000 
v 106.000000 -6.000000 26.000000 
v 50.000000 -22.000000 25.000000 
v 106.000000 -6.000000 26.000000 
v 49.000000 -7.000000 35.000000 
v 50.000000 -22.000000 25.000000 
v 106.000000 -6.000000 26.000000 
v 106.000000 11.000000 25.000000 
v 49.000000 -7.000000 35.000000 
v 106.000000 11.000000 25.000000 
v 48.000000 10.000000 34.000000 
v 49.000000 -7.000000 35.000000 
v 106.000000 11.000000 25.000000 
v 103.000000 25.000000 14.000000 
v 48.000000 10.000000 34.000000 
v 103.000000 25.000000 14.000000 
v 49.000000 25.000000 23.000000 
v 48.000000 10.000000 34.000000 
v 103.000000 25.000000 14.000000 
v 100.000000 30.000000 -2.000000 
v 49.000000 25.000000 23.000000 
v 100.000000 30.000000 -2.000000 
v 51.000000 29.000000 6.000000 
v 49.000000 25.000000 23.000000 
v 100.000000 30.000000 -2.000000 
v 98.000000 24.000000 -19.000000 
v 51.000000 29.000000 6.000000 
v 98.000000 24.000000 -19.000000 
v 52.000000 23.000000 -10.000000 
v 51.000000 29.000000 6.000000 
v 98.000000 24.000000 -19.000000 
v 96.000000 8.000000 -29.000000 
v 52.000000 23.000000 -10.000000 
v 96.000000 8.000000 -29.000000 
v 54.000000 8.000000 -20.000000 
v 52.000000 23.000000 -10.000000 
v 96.000000 8.000000 -29.000000 
v 97.000000 -9.000000 -28.000000 
v 54.000000 8.000000 -20.000000 
v 97.000000 -9.000000 -28.000000 
v 54.000000 -9.000000 -19.000000 
v 54.000000 8.000000 -20.000000 
v 97.000000 -9.000000 -28.000000 
v 99.000000 -23.000000 -17.000000 
v 54.000000 -9.000000 -19.000000 
v 99.000000 -23.000000 -17.000000 
v 53.000000 -24.000000 -8.000000 
v 54.000000 -9.000000 -19.000000 
v 99.000000 -23.000000 -17.000000 
v 102.000000 -28.000000 0.000000 
v 53.000000 -24.000000 -8.000000 
vn 0.045654 -0.998535 -0.018555 
vn -0.075439 -0.025635 0.996582 
vn 0.036621 -0.999023 0.023438 
vn -0.075439 -0.025635 0.996582 
vn -0.087158 -0.021484 0.995850 
vn 0.036621 -0.999023 0.023438 
vn 0.045654 -0.998535 -0.018555 
vn 0.036621 -0.999023 0.023438 
vn 0.089600 -0.112305 -0.989502 
vn -0.075439 -0.025635 0.996582 
vn -0.077393 0.031250 0.996338 
vn -0.087158 -0.021484 0.995850 
vn -0.077393 0.031250 0.996338 
vn -0.088867 0.031738 0.995361 
vn -0.087158 -0.021484 0.995850 
vn -0.077393 0.031250 0.996338 
vn -0.078125 0.060059 0.995117 
vn -0.088867 0.031738 0.995361 
vn -0.078125 0.060059 0.995117 
vn -0.089355 0.058350 0.994141 
vn -0.088867 0.031738 0.995361 
vn -0.078125 0.060059 0.995117 
vn -0.079102 0.117920 0.989746 
vn -0.089355 0.058350 0.994141 
vn -0.079102 0.117920 0.989746 
vn -0.090332 0.112061 0.989502 
vn -0.089355 0.058350 0.994141 
vn -0.079102 0.117920 0.989746 
vn -0.049561 0.998291 0.025635 
vn -0.090332 0.112061 0.989502 
vn -0.049561 0.998291 0.025635 
vn -0.039062 0.998779 -0.023438 
vn -0.090332 0.112061 0.989502 
vn -0.049561 0.998291 0.025635 
vn 0.074219 0.026123 -0.996826 
vn -0.039062 0.998779 -0.023438 
vn 0.074219 0.026123 -0.996826 
vn 0.086426 0.021484 -0.995850 
vn -0.039062 0.998779 -0.023438 
vn 0.074219 0.026123 -0.996826 
vn 0.075439 -0.031250 -0.996582 
vn 0.086426 0.021484 -0.995850 
vn 0.075439 -0.031250 -0.996582 
vn 0.087646 -0.031738 -0.995605 
vn 0.086426 0.021484 -0.995850 
vn 0.075439 -0.031250 -0.996582 
vn 0.076172 -0.060303 -0.995117 
vn 0.087646 -0.031738 -0.995605 
vn 0.076172 -0.060303 -0.995117 
vn 0.088379 -0.058594 -0.994141 
vn 0.087646 -0.031738 -0.995605 
vn 0.076172 -0.060303 -0.995117 
vn 0.078125 -0.118652 -0.989746 
vn 0.088379 -0.058594 -0.994141 
vn 0.078125 -0.118652 -0.989746 
vn 0.089600 -0.112305 -0.989502 
vn 0.088379 -0.058594 -0.994141 
vn 0.078125 -0.118652 -0.989746 
vn 0.045654 -0.998535 -0.018555 
vn 0.089600 -0.112305 -0.989502 
vt 0.866667 0.190476 
vt 0.533333 0.190476 
vt 0.866667 -0.015873 
vt 0.533333 0.190476 
vt 0.533333 -0.015873 
vt 0.866667 -0.015873 
vt 0.866667 0.190476 
vt 0.866667 -0.015873 
vt 1.000000 -0.015873 
vt 0.533333 0.190476 
vt 0.200000 0.190476 
vt 0.533333 -0.015873 
vt 0.200000 0.190476 
vt 0.200000 -0.015873 
vt 0.533333 -0.015873 
vt 0.200000 0.190476 
vt 0.000000 0.190476 
vt 0.200000 -0.015873 
vt 0.000000 0.190476 
vt 0.000000 -0.015873 
vt 0.200000 -0.015873 
vt 0.000000 0.190476 
vt 0.000000 0.190476 
vt 0.000000 -0.015873 
vt 0.000000 0.190476 
vt 0.000000 -0.015873 
vt 0.000000 -0.015873 
vt 0.000000 0.190476 
vt 0.066667 0.190476 
vt 0.000000 -0.015873 
vt 0.066667 0.190476 
vt 0.066667 -0.015873 
vt 0.000000 -0.015873 
vt 0.066667 0.190476 
vt 0.400000 0.190476 
vt 0.066667 -0.015873 
vt 0.400000 0.190476 
vt 0.400000 -0.015873 
vt 0.066667 -0.015873 
vt 0.400000 0.190476 
vt 0.733333 0.190476 
vt 0.400000 -0.015873 
vt 0.733333 0.190476 
vt 0.733333 -0.015873 
vt 0.400000 -0.015873 
vt 0.733333 0.190476 
vt 0.933333 0.190476 
vt 0.733333 -0.015873 
vt 0.933333 0.190476 
vt 0.933333 -0.015873 
vt 0.733333 -0.015873 
vt 0.933333 0.190476 
vt 1.000000 0.190476 
vt 0.933333 -0.015873 
vt 1.000000 0.190476 
vt 1.000000 -0.015873 
vt 0.933333 -0.015873 
vt 1.000000 0.190476 
vt 0.866667 0.190476 
vt 1.000000 -0.015873 
f 1/1/1 2/2/2 3/3/3
f 4/4/4 5/5/5 6/6/6
f 7/7/7 8/8/8 9/9/9
f 10/10/10 11/11/11 12/12/12
f 13/13/13 14/14/14 15/15/15
f 16/16/16 17/17/17 18/18/18
f 19/19/19 20/20/20 21/21/21
f 22/22/22 23/23/23 24/24/24
f 25/25/25 26/26/26 27/27/27
f 28/28/28 29/29/29 30/30/30
f 31/31/31 32/32/32 33/33/33
f 34/34/34 35/35/35 36/36/36
f 37/37/37 38/38/38 39/39/39
f 40/40/40 41/41/41 42/42/42
f 43/43/43 44/44/44 45/45/45
f 46/46/46 47/47/47 48/48/48
f 49/49/49 50/50/50 51/51/51
f 52/52/52 53/53/53 54/54/54
f 55/55/55 56/56/56 57/57/57
f 58/58/58 59/59/59 60/60/60
