v 38.000000 -9.000000 -69.000000 
v -2.000000 -23.000000 -87.000000 
v -38.000000 15.000000 -40.000000 
v -2.000000 -23.000000 -87.000000 
v -38.000000 -10.000000 -81.000000 
v -38.000000 15.000000 -40.000000 
v -2.000000 23.000000 87.000000 
v 38.000000 -9.000000 69.000000 
v -38.000000 15.000000 40.000000 
v -38.000000 21.000000 81.000000 
v -2.000000 23.000000 87.000000 
v -38.000000 15.000000 40.000000 
vn 0.015625 0.773682 -0.633057 
vn 0.114746 0.804199 -0.583008 
vn 0.114746 0.804199 -0.583008 
vn 0.114746 0.804199 -0.583008 
vn 0.212158 0.823730 -0.525391 
vn 0.114746 0.804199 -0.583008 
vn 0.214600 0.924805 -0.313477 
vn 0.427979 0.782227 -0.452393 
vn 0.214600 0.924805 -0.313477 
vn -0.016602 0.988770 -0.147705 
vn 0.214600 0.924805 -0.313477 
vn 0.214600 0.924805 -0.313477 
vt 0.396825 0.619048 
vt 0.190476 0.412698 
vt 0.396825 0.000000 
vt 0.190476 0.412698 
vt 0.126984 0.000000 
vt 0.396825 0.000000 
vt 0.190476 0.412698 
vt 0.396825 0.619048 
vt 0.396825 0.000000 
vt 0.126984 0.000000 
vt 0.190476 0.412698 
vt 0.396825 0.000000 
f 1/1/1 2/2/2 3/3/3
f 4/4/4 5/5/5 6/6/6
f 7/7/7 8/8/8 9/9/9
f 10/10/10 11/11/11 12/12/12
