v 23.000000 27.000000 49.000000 
v 23.000000 27.000000 -49.000000 
v -23.000000 27.000000 -49.000000 
v -23.000000 27.000000 -49.000000 
v -23.000000 27.000000 49.000000 
v 23.000000 27.000000 49.000000 
v 23.000000 27.000000 -49.000000 
v 23.000000 -27.000000 -49.000000 
v -23.000000 -27.000000 -49.000000 
v -23.000000 -27.000000 -49.000000 
v -23.000000 27.000000 -49.000000 
v 23.000000 27.000000 -49.000000 
v -23.000000 27.000000 -49.000000 
v -23.000000 -27.000000 -49.000000 
v -23.000000 -27.000000 49.000000 
v -23.000000 -27.000000 49.000000 
v -23.000000 27.000000 49.000000 
v -23.000000 27.000000 -49.000000 
v 23.000000 27.000000 49.000000 
v -23.000000 -27.000000 49.000000 
v 23.000000 -27.000000 50.000000 
v -23.000000 -27.000000 49.000000 
v 23.000000 27.000000 49.000000 
v -23.000000 27.000000 49.000000 
vn -0.000732 0.707275 0.706787 
vn 0.000000 0.447021 -0.894287 
vn -0.666504 0.666504 -0.333252 
vn -0.666504 0.666504 -0.333252 
vn -0.577148 0.577148 0.577148 
vn -0.000732 0.707275 0.706787 
vn 0.000000 0.447021 -0.894287 
vn 0.000000 0.000000 -1.000000 
vn -0.447021 0.000000 -0.894287 
vn -0.447021 0.000000 -0.894287 
vn -0.666504 0.666504 -0.333252 
vn 0.000000 0.447021 -0.894287 
vn -0.666504 0.666504 -0.333252 
vn -0.447021 0.000000 -0.894287 
vn -0.707275 0.000488 0.706543 
vn -0.707275 0.000488 0.706543 
vn -0.577148 0.577148 0.577148 
vn -0.666504 0.666504 -0.333252 
vn -0.000732 0.707275 0.706787 
vn -0.707275 0.000488 0.706543 
vn -0.001953 0.001465 0.999756 
vn -0.707275 0.000488 0.706543 
vn -0.000732 0.707275 0.706787 
vn -0.577148 0.577148 0.577148 
vt 1.000000 1.000000 
vt 1.000000 0.746032 
vt 0.000000 0.761905 
vt 0.000000 0.761905 
vt 0.000000 1.000000 
vt 1.000000 1.000000 
vt 1.000000 0.746032 
vt 1.000000 0.507937 
vt 0.483871 0.507937 
vt 0.483871 0.507937 
vt 0.483871 0.746032 
vt 1.000000 0.746032 
vt 0.483871 0.746032 
vt 0.483871 0.507937 
vt 0.000000 0.507937 
vt 0.000000 0.507937 
vt 0.000000 0.746032 
vt 0.483871 0.746032 
vt 1.000000 0.746032 
vt 0.483871 0.507937 
vt 1.000000 0.507937 
vt 0.483871 0.507937 
vt 1.000000 0.746032 
vt 0.483871 0.746032 
f 1/1/1 2/2/2 3/3/3
f 4/4/4 5/5/5 6/6/6
f 7/7/7 8/8/8 9/9/9
f 10/10/10 11/11/11 12/12/12
f 13/13/13 14/14/14 15/15/15
f 16/16/16 17/17/17 18/18/18
f 19/19/19 20/20/20 21/21/21
f 22/22/22 23/23/23 24/24/24
