v 13.000000 -26.000000 -206.000000 
v -13.000000 -16.000000 -193.000000 
v 13.000000 26.000000 -146.000000 
v -13.000000 -16.000000 -193.000000 
v -13.000000 18.000000 -157.000000 
v 13.000000 26.000000 -146.000000 
v -13.000000 -16.000000 206.000000 
v 13.000000 -26.000000 178.000000 
v 13.000000 9.000000 123.000000 
v -13.000000 18.000000 170.000000 
v -13.000000 -16.000000 206.000000 
v 13.000000 9.000000 123.000000 
vn -0.045654 0.745361 -0.664795 
vn 0.008545 0.731201 -0.681885 
vn 0.008545 0.731201 -0.681885 
vn 0.008545 0.731201 -0.681885 
vn 0.062744 0.714600 -0.696533 
vn 0.008545 0.731201 -0.681885 
vn 0.759521 0.509521 0.403809 
vn 0.677734 0.609863 0.410400 
vn 0.759521 0.509521 0.403809 
vn 0.828613 0.400635 0.390625 
vn 0.759521 0.509521 0.403809 
vn 0.759521 0.509521 0.403809 
vt 0.047619 0.000000 
vt 0.492063 0.000000 
vt 0.000000 1.000000 
vt 0.492063 0.000000 
vt 0.460317 0.984127 
vt 0.000000 1.000000 
vt 0.492063 0.000000 
vt 0.047619 0.000000 
vt 0.000000 1.000000 
vt 0.460317 0.984127 
vt 0.492063 0.000000 
vt 0.000000 1.000000 
f 1/1/1 2/2/2 3/3/3
f 4/4/4 5/5/5 6/6/6
f 7/7/7 8/8/8 9/9/9
f 10/10/10 11/11/11 12/12/12
