v 6.000000 111.000000 -4.000000 
v -5.000000 111.000000 -5.000000 
v -6.000000 111.000000 6.000000 
v -6.000000 111.000000 6.000000 
v 5.000000 111.000000 6.000000 
v 6.000000 111.000000 -4.000000 
v -12.000000 63.000000 -13.000000 
v -12.000000 6.000000 -13.000000 
v -14.000000 6.000000 13.000000 
v -14.000000 6.000000 13.000000 
v -14.000000 63.000000 12.000000 
v -12.000000 63.000000 -13.000000 
v -5.000000 99.000000 -5.000000 
v -12.000000 63.000000 -13.000000 
v -14.000000 63.000000 12.000000 
v -14.000000 63.000000 12.000000 
v -6.000000 99.000000 6.000000 
v -5.000000 99.000000 -5.000000 
v -5.000000 111.000000 -5.000000 
v -5.000000 99.000000 -5.000000 
v -6.000000 99.000000 6.000000 
v -6.000000 99.000000 6.000000 
v -6.000000 111.000000 6.000000 
v -5.000000 111.000000 -5.000000 
v 13.000000 63.000000 -12.000000 
v 14.000000 6.000000 -12.000000 
v -12.000000 6.000000 -13.000000 
v -12.000000 6.000000 -13.000000 
v -12.000000 63.000000 -13.000000 
v 13.000000 63.000000 -12.000000 
v 6.000000 99.000000 -4.000000 
v 13.000000 63.000000 -12.000000 
v -12.000000 63.000000 -13.000000 
v -12.000000 63.000000 -13.000000 
v -5.000000 99.000000 -5.000000 
v 6.000000 99.000000 -4.000000 
v 6.000000 111.000000 -4.000000 
v 6.000000 99.000000 -4.000000 
v -5.000000 99.000000 -5.000000 
v -5.000000 99.000000 -5.000000 
v -5.000000 111.000000 -5.000000 
v 6.000000 111.000000 -4.000000 
v 13.000000 63.000000 15.000000 
v 12.000000 6.000000 14.000000 
v 14.000000 6.000000 -12.000000 
v 14.000000 6.000000 -12.000000 
v 13.000000 63.000000 -12.000000 
v 13.000000 63.000000 15.000000 
v 5.000000 99.000000 6.000000 
v 13.000000 63.000000 15.000000 
v 13.000000 63.000000 -12.000000 
v 13.000000 63.000000 -12.000000 
v 6.000000 99.000000 -4.000000 
v 5.000000 99.000000 6.000000 
v 5.000000 111.000000 6.000000 
v 5.000000 99.000000 6.000000 
v 6.000000 99.000000 -4.000000 
v 6.000000 99.000000 -4.000000 
v 6.000000 111.000000 -4.000000 
v 5.000000 111.000000 6.000000 
v -14.000000 63.000000 12.000000 
v -14.000000 6.000000 13.000000 
v 12.000000 6.000000 14.000000 
v 12.000000 6.000000 14.000000 
v 13.000000 63.000000 15.000000 
v -14.000000 63.000000 12.000000 
v -6.000000 99.000000 6.000000 
v -14.000000 63.000000 12.000000 
v 13.000000 63.000000 15.000000 
v 13.000000 63.000000 15.000000 
v 5.000000 99.000000 6.000000 
v -6.000000 99.000000 6.000000 
v -6.000000 111.000000 6.000000 
v -6.000000 99.000000 6.000000 
v 5.000000 99.000000 6.000000 
v 5.000000 99.000000 6.000000 
v 5.000000 111.000000 6.000000 
v -6.000000 111.000000 6.000000 
vn 0.000000 1.000000 0.000000 
vn 0.000000 1.000000 0.000000 
vn 0.000000 1.000000 0.000000 
vn 0.000000 1.000000 0.000000 
vn 0.000000 1.000000 0.000000 
vn 0.000000 1.000000 0.000000 
vn -0.662598 0.159912 -0.731445 
vn -0.404541 -0.009033 -0.914307 
vn -0.919434 0.001953 0.393066 
vn -0.919434 0.001953 0.393066 
vn -0.739014 0.164307 0.653076 
vn -0.662598 0.159912 -0.731445 
vn -0.654541 0.168457 -0.736816 
vn -0.662598 0.159912 -0.731445 
vn -0.739014 0.164307 0.653076 
vn -0.739014 0.164307 0.653076 
vn -0.740723 0.160400 0.652100 
vn -0.654541 0.168457 -0.736816 
vn -0.866211 0.000000 -0.499268 
vn -0.654541 0.168457 -0.736816 
vn -0.740723 0.160400 0.652100 
vn -0.740723 0.160400 0.652100 
vn -0.488525 0.000000 0.872314 
vn -0.866211 0.000000 -0.499268 
vn 0.718994 0.157715 -0.676514 
vn 0.909912 0.003174 -0.414062 
vn -0.404541 -0.009033 -0.914307 
vn -0.404541 -0.009033 -0.914307 
vn -0.662598 0.159912 -0.731445 
vn 0.718994 0.157715 -0.676514 
vn 0.738037 0.157959 -0.655762 
vn 0.718994 0.157715 -0.676514 
vn -0.662598 0.159912 -0.731445 
vn -0.662598 0.159912 -0.731445 
vn -0.654541 0.168457 -0.736816 
vn 0.738037 0.157959 -0.655762 
vn 0.488525 0.000000 -0.872314 
vn 0.738037 0.157959 -0.655762 
vn -0.654541 0.168457 -0.736816 
vn -0.654541 0.168457 -0.736816 
vn -0.866211 0.000000 -0.499268 
vn 0.488525 0.000000 -0.872314 
vn 0.664795 0.162598 0.729004 
vn 0.388184 0.002441 0.921387 
vn 0.909912 0.003174 -0.414062 
vn 0.909912 0.003174 -0.414062 
vn 0.718994 0.157715 -0.676514 
vn 0.664795 0.162598 0.729004 
vn 0.664062 0.156982 0.730713 
vn 0.664795 0.162598 0.729004 
vn 0.718994 0.157715 -0.676514 
vn 0.718994 0.157715 -0.676514 
vn 0.738037 0.157959 -0.655762 
vn 0.664062 0.156982 0.730713 
vn 0.866211 0.000000 0.499268 
vn 0.664062 0.156982 0.730713 
vn 0.738037 0.157959 -0.655762 
vn 0.738037 0.157959 -0.655762 
vn 0.488525 0.000000 -0.872314 
vn 0.866211 0.000000 0.499268 
vn -0.739014 0.164307 0.653076 
vn -0.919434 0.001953 0.393066 
vn 0.388184 0.002441 0.921387 
vn 0.388184 0.002441 0.921387 
vn 0.664795 0.162598 0.729004 
vn -0.739014 0.164307 0.653076 
vn -0.740723 0.160400 0.652100 
vn -0.739014 0.164307 0.653076 
vn 0.664795 0.162598 0.729004 
vn 0.664795 0.162598 0.729004 
vn 0.664062 0.156982 0.730713 
vn -0.740723 0.160400 0.652100 
vn -0.488525 0.000000 0.872314 
vn -0.740723 0.160400 0.652100 
vn 0.664062 0.156982 0.730713 
vn 0.664062 0.156982 0.730713 
vn 0.866211 0.000000 0.499268 
vn -0.488525 0.000000 0.872314 
vt 0.967742 1.000000 
vt 0.483871 1.000000 
vt 0.000000 1.000000 
vt 0.000000 1.000000 
vt 0.290323 0.698413 
vt 0.967742 1.000000 
vt 0.483871 0.746032 
vt 0.483871 0.000000 
vt 0.000000 0.000000 
vt 0.000000 0.000000 
vt 0.000000 0.746032 
vt 0.483871 0.746032 
vt 0.483871 0.857143 
vt 0.483871 0.746032 
vt 0.000000 0.746032 
vt 0.000000 0.746032 
vt 0.000000 0.857143 
vt 0.483871 0.857143 
vt 0.483871 1.000000 
vt 0.483871 0.857143 
vt 0.000000 0.857143 
vt 0.000000 0.857143 
vt 0.000000 1.000000 
vt 0.483871 1.000000 
vt 0.967742 0.746032 
vt 0.967742 0.000000 
vt 0.483871 0.000000 
vt 0.483871 0.000000 
vt 0.483871 0.746032 
vt 0.967742 0.746032 
vt 0.967742 0.857143 
vt 0.967742 0.746032 
vt 0.483871 0.746032 
vt 0.483871 0.746032 
vt 0.483871 0.857143 
vt 0.967742 0.857143 
vt 0.967742 1.000000 
vt 0.967742 0.857143 
vt 0.483871 0.857143 
vt 0.483871 0.857143 
vt 0.483871 1.000000 
vt 0.967742 1.000000 
vt 0.483871 0.746032 
vt 0.483871 0.000000 
vt 0.000000 0.000000 
vt 0.000000 0.000000 
vt 0.000000 0.746032 
vt 0.483871 0.746032 
vt 0.483871 0.857143 
vt 0.483871 0.746032 
vt 0.000000 0.746032 
vt 0.000000 0.746032 
vt 0.000000 0.857143 
vt 0.483871 0.857143 
vt 0.483871 1.000000 
vt 0.483871 0.857143 
vt 0.000000 0.857143 
vt 0.000000 0.857143 
vt 0.000000 1.000000 
vt 0.483871 1.000000 
vt 0.967742 0.746032 
vt 0.967742 0.000000 
vt 0.483871 0.000000 
vt 0.483871 0.000000 
vt 0.483871 0.746032 
vt 0.967742 0.746032 
vt 0.967742 0.857143 
vt 0.967742 0.746032 
vt 0.483871 0.746032 
vt 0.483871 0.746032 
vt 0.483871 0.857143 
vt 0.967742 0.857143 
vt 0.967742 1.000000 
vt 0.967742 0.857143 
vt 0.483871 0.857143 
vt 0.483871 0.857143 
vt 0.483871 1.000000 
vt 0.967742 1.000000 
f 1/1/1 2/2/2 3/3/3
f 4/4/4 5/5/5 6/6/6
f 7/7/7 8/8/8 9/9/9
f 10/10/10 11/11/11 12/12/12
f 13/13/13 14/14/14 15/15/15
f 16/16/16 17/17/17 18/18/18
f 19/19/19 20/20/20 21/21/21
f 22/22/22 23/23/23 24/24/24
f 25/25/25 26/26/26 27/27/27
f 28/28/28 29/29/29 30/30/30
f 31/31/31 32/32/32 33/33/33
f 34/34/34 35/35/35 36/36/36
f 37/37/37 38/38/38 39/39/39
f 40/40/40 41/41/41 42/42/42
f 43/43/43 44/44/44 45/45/45
f 46/46/46 47/47/47 48/48/48
f 49/49/49 50/50/50 51/51/51
f 52/52/52 53/53/53 54/54/54
f 55/55/55 56/56/56 57/57/57
f 58/58/58 59/59/59 60/60/60
f 61/61/61 62/62/62 63/63/63
f 64/64/64 65/65/65 66/66/66
f 67/67/67 68/68/68 69/69/69
f 70/70/70 71/71/71 72/72/72
f 73/73/73 74/74/74 75/75/75
f 76/76/76 77/77/77 78/78/78
