v -49.000000 5.000000 -231.000000 
v -8.000000 0.000000 -200.000000 
v 37.000000 -25.000000 -245.000000 
v -8.000000 0.000000 -200.000000 
v 35.000000 -17.000000 -187.000000 
v 37.000000 -25.000000 -245.000000 
v -8.000000 0.000000 196.000000 
v -49.000000 5.000000 227.000000 
v 49.000000 -25.000000 245.000000 
v 35.000000 -17.000000 182.000000 
v -8.000000 0.000000 196.000000 
v 49.000000 -25.000000 245.000000 
v -8.000000 0.000000 196.000000 
v -12.000000 25.000000 167.000000 
v -49.000000 5.000000 227.000000 
vn 0.304443 0.926514 -0.220215 
vn 0.352295 0.920654 -0.167725 
vn 0.352295 0.920654 -0.167725 
vn 0.352295 0.920654 -0.167725 
vn 0.398193 0.909912 -0.114502 
vn 0.352295 0.920654 -0.167725 
vn 0.403564 0.876709 0.261475 
vn 0.407227 0.833252 0.373291 
vn 0.327637 0.938721 0.104736 
vn 0.380127 0.924072 0.034668 
vn 0.403564 0.876709 0.261475 
vn 0.327637 0.938721 0.104736 
vn 0.403564 0.876709 0.261475 
vn 0.513184 0.661621 0.546387 
vn 0.407227 0.833252 0.373291 
vt 0.000000 0.158730 
vt 0.444444 0.095238 
vt 0.000000 0.984127 
vt 0.444444 0.095238 
vt 0.412698 0.984127 
vt 0.000000 0.984127 
vt 0.444444 0.095238 
vt 0.000000 0.158730 
vt 0.000000 0.984127 
vt 0.412698 0.984127 
vt 0.444444 0.095238 
vt 0.000000 0.984127 
vt 0.000000 0.920635 
vt 0.000000 0.142857 
vt 0.412698 0.968254 
f 1/1/1 2/2/2 3/3/3
f 4/4/4 5/5/5 6/6/6
f 7/7/7 8/8/8 9/9/9
f 10/10/10 11/11/11 12/12/12
f 13/13/13 14/14/14 15/15/15
