v 48.000000 0.000000 -37.000000 
v 15.000000 0.000000 -67.000000 
v 60.000000 0.000000 -114.000000 
v 60.000000 0.000000 -114.000000 
v 104.000000 0.000000 -74.000000 
v 48.000000 0.000000 -37.000000 
v 26.000000 0.000000 2.000000 
v -26.000000 0.000000 -23.000000 
v 15.000000 0.000000 -67.000000 
v 15.000000 0.000000 -67.000000 
v 48.000000 0.000000 -37.000000 
v 26.000000 0.000000 2.000000 
v 11.000000 0.000000 51.000000 
v -48.000000 0.000000 43.000000 
v -26.000000 0.000000 -23.000000 
v -26.000000 0.000000 -23.000000 
v 26.000000 0.000000 2.000000 
v 11.000000 0.000000 51.000000 
v 12.000000 0.000000 86.000000 
v -8.000000 0.000000 102.000000 
v -48.000000 0.000000 43.000000 
v -48.000000 0.000000 43.000000 
v 11.000000 0.000000 51.000000 
v 12.000000 0.000000 86.000000 
vn 0.000000 -1.000000 0.000000 
vn 0.000000 -1.000000 0.000000 
vn 0.000000 -1.000000 0.000000 
vn 0.000000 -1.000000 0.000000 
vn 0.000000 -1.000000 0.000000 
vn 0.000000 -1.000000 0.000000 
vn 0.000000 -1.000000 0.000000 
vn 0.000000 -1.000000 0.000000 
vn 0.000000 -1.000000 0.000000 
vn 0.000000 -1.000000 0.000000 
vn 0.000000 -1.000000 0.000000 
vn 0.000000 -1.000000 0.000000 
vn 0.000000 -1.000000 0.000000 
vn 0.000000 -1.000000 0.000000 
vn 0.000000 -1.000000 0.000000 
vn 0.000000 -1.000000 0.000000 
vn 0.000000 -1.000000 0.000000 
vn 0.000000 -1.000000 0.000000 
vn 0.000000 -1.000000 0.000000 
vn 0.000000 -1.000000 0.000000 
vn 0.000000 -1.000000 0.000000 
vn 0.000000 -1.000000 0.000000 
vn 0.000000 -1.000000 0.000000 
vn 0.000000 -1.000000 0.000000 
vt 0.984127 0.666667 
vt 0.492063 0.666667 
vt 0.492063 0.158730 
vt 0.492063 0.158730 
vt 0.984127 0.158730 
vt 0.984127 0.666667 
vt 0.984127 0.158730 
vt 0.492063 0.158730 
vt 0.492063 0.666667 
vt 0.492063 0.666667 
vt 0.984127 0.666667 
vt 0.984127 0.158730 
vt 0.984127 0.666667 
vt 0.492063 0.682540 
vt 0.492063 0.158730 
vt 0.492063 0.158730 
vt 0.984127 0.158730 
vt 0.984127 0.666667 
vt 0.984127 0.158730 
vt 0.492063 0.158730 
vt 0.492063 0.682540 
vt 0.492063 0.682540 
vt 0.984127 0.666667 
vt 0.984127 0.158730 
f 1/1/1 2/2/2 3/3/3
f 4/4/4 5/5/5 6/6/6
f 7/7/7 8/8/8 9/9/9
f 10/10/10 11/11/11 12/12/12
f 13/13/13 14/14/14 15/15/15
f 16/16/16 17/17/17 18/18/18
f 19/19/19 20/20/20 21/21/21
f 22/22/22 23/23/23 24/24/24
