v -1.000000 85.000000 -74.000000 
v -1.000000 85.000000 -74.000000 
v 21.000000 -4.000000 2.000000 
v -1.000000 85.000000 -74.000000 
v 5.000000 9.000000 19.000000 
v 21.000000 -4.000000 2.000000 
v -1.000000 85.000000 -74.000000 
v -1.000000 85.000000 -74.000000 
v 5.000000 9.000000 19.000000 
v -1.000000 85.000000 -74.000000 
v -20.000000 4.000000 13.000000 
v 5.000000 9.000000 19.000000 
v -1.000000 85.000000 -74.000000 
v -1.000000 85.000000 -74.000000 
v -20.000000 4.000000 13.000000 
v -1.000000 85.000000 -74.000000 
v -20.000000 -12.000000 -7.000000 
v -20.000000 4.000000 13.000000 
v -1.000000 85.000000 -74.000000 
v -1.000000 85.000000 -74.000000 
v -20.000000 -12.000000 -7.000000 
v -1.000000 85.000000 -74.000000 
v 5.000000 -18.000000 -14.000000 
v -20.000000 -12.000000 -7.000000 
v -1.000000 85.000000 -74.000000 
v -1.000000 85.000000 -74.000000 
v 5.000000 -18.000000 -14.000000 
v -1.000000 85.000000 -74.000000 
v 21.000000 -4.000000 2.000000 
v 5.000000 -18.000000 -14.000000 
v -1.000000 85.000000 -74.000000 
v -1.000000 85.000000 -74.000000 
v -1.000000 85.000000 -74.000000 
v -1.000000 85.000000 -74.000000 
v -1.000000 85.000000 -74.000000 
v -1.000000 85.000000 -74.000000 
v -1.000000 85.000000 -74.000000 
v -1.000000 85.000000 -74.000000 
v -1.000000 85.000000 -74.000000 
v -1.000000 85.000000 -74.000000 
v -1.000000 85.000000 -74.000000 
v -1.000000 85.000000 -74.000000 
v -1.000000 85.000000 -74.000000 
v -1.000000 85.000000 -74.000000 
v -1.000000 85.000000 -74.000000 
v 1.000000 80.000000 268.000000 
v 1.000000 80.000000 268.000000 
v -21.000000 -7.000000 193.000000 
v 1.000000 80.000000 268.000000 
v -5.000000 7.000000 176.000000 
v -21.000000 -7.000000 193.000000 
v 1.000000 80.000000 268.000000 
v 1.000000 80.000000 268.000000 
v -5.000000 7.000000 176.000000 
v 1.000000 80.000000 268.000000 
v 20.000000 1.000000 182.000000 
v -5.000000 7.000000 176.000000 
v 1.000000 80.000000 268.000000 
v 1.000000 80.000000 268.000000 
v 20.000000 1.000000 182.000000 
v 1.000000 80.000000 268.000000 
v 20.000000 -15.000000 204.000000 
v 20.000000 1.000000 182.000000 
v 1.000000 80.000000 268.000000 
v 1.000000 80.000000 268.000000 
v 20.000000 -15.000000 204.000000 
v 1.000000 80.000000 268.000000 
v -5.000000 -21.000000 210.000000 
v 20.000000 -15.000000 204.000000 
v 1.000000 80.000000 268.000000 
v 1.000000 80.000000 268.000000 
v -5.000000 -21.000000 210.000000 
v 1.000000 80.000000 268.000000 
v -21.000000 -7.000000 193.000000 
v -5.000000 -21.000000 210.000000 
v 1.000000 80.000000 268.000000 
v 1.000000 80.000000 268.000000 
v 1.000000 80.000000 268.000000 
v 1.000000 80.000000 268.000000 
v 1.000000 80.000000 268.000000 
v 1.000000 80.000000 268.000000 
v 1.000000 80.000000 268.000000 
v 1.000000 80.000000 268.000000 
v 1.000000 80.000000 268.000000 
v 1.000000 80.000000 268.000000 
v 1.000000 80.000000 268.000000 
v 1.000000 80.000000 268.000000 
v 1.000000 80.000000 268.000000 
v 1.000000 80.000000 268.000000 
v 1.000000 80.000000 268.000000 
vn 0.799316 -0.255127 -0.543701 
vn 0.799316 0.491211 0.345703 
vn 0.981934 0.144775 -0.121582 
vn 0.799316 0.491211 0.345703 
vn 0.303223 0.745117 0.593750 
vn 0.981934 0.144775 -0.121582 
vn 0.799316 0.491211 0.345703 
vn -0.305176 0.721924 0.620850 
vn 0.303223 0.745117 0.593750 
vn -0.305176 0.721924 0.620850 
vn -0.794189 0.515869 0.320312 
vn 0.303223 0.745117 0.593750 
vn -0.305176 0.721924 0.620850 
vn -0.988037 0.117920 -0.098877 
vn -0.794189 0.515869 0.320312 
vn -0.988037 0.117920 -0.098877 
vn -0.794189 -0.226074 -0.563721 
vn -0.794189 0.515869 0.320312 
vn -0.988037 0.117920 -0.098877 
vn -0.305176 -0.485840 -0.818604 
vn -0.794189 -0.226074 -0.563721 
vn -0.305176 -0.485840 -0.818604 
vn 0.303223 -0.455322 -0.836914 
vn -0.794189 -0.226074 -0.563721 
vn -0.305176 -0.485840 -0.818604 
vn 0.799316 -0.255127 -0.543701 
vn 0.303223 -0.455322 -0.836914 
vn 0.799316 -0.255127 -0.543701 
vn 0.981934 0.144775 -0.121582 
vn 0.303223 -0.455322 -0.836914 
vn 0.799316 0.491211 0.345703 
vn 0.799316 -0.255127 -0.543701 
vn 1.000000 0.000000 0.000000 
vn 0.799316 -0.255127 -0.543701 
vn -0.305176 -0.485840 -0.818604 
vn 1.000000 0.000000 0.000000 
vn -0.305176 0.721924 0.620850 
vn 0.799316 0.491211 0.345703 
vn 1.000000 0.000000 0.000000 
vn -0.305176 -0.485840 -0.818604 
vn -0.988037 0.117920 -0.098877 
vn 1.000000 0.000000 0.000000 
vn -0.988037 0.117920 -0.098877 
vn -0.305176 0.721924 0.620850 
vn 1.000000 0.000000 0.000000 
vn -0.805664 -0.241455 0.540771 
vn -0.807129 0.486084 -0.334717 
vn -0.980713 0.148682 0.125244 
vn -0.807129 0.486084 -0.334717 
vn -0.305664 0.748291 -0.588379 
vn -0.980713 0.148682 0.125244 
vn -0.807129 0.486084 -0.334717 
vn 0.313232 0.722656 -0.615723 
vn -0.305664 0.748291 -0.588379 
vn 0.313232 0.722656 -0.615723 
vn 0.796387 0.516357 -0.314209 
vn -0.305664 0.748291 -0.588379 
vn 0.313232 0.722656 -0.615723 
vn 0.987305 0.120605 0.102295 
vn 0.796387 0.516357 -0.314209 
vn 0.987305 0.120605 0.102295 
vn 0.795166 -0.215576 0.566406 
vn 0.796387 0.516357 -0.314209 
vn 0.987305 0.120605 0.102295 
vn 0.312256 -0.473145 0.823486 
vn 0.795166 -0.215576 0.566406 
vn 0.312256 -0.473145 0.823486 
vn -0.304932 -0.441895 0.843506 
vn 0.795166 -0.215576 0.566406 
vn 0.312256 -0.473145 0.823486 
vn -0.805664 -0.241455 0.540771 
vn -0.304932 -0.441895 0.843506 
vn -0.805664 -0.241455 0.540771 
vn -0.980713 0.148682 0.125244 
vn -0.304932 -0.441895 0.843506 
vn -0.807129 0.486084 -0.334717 
vn -0.805664 -0.241455 0.540771 
vn 1.000000 0.000000 0.000000 
vn -0.805664 -0.241455 0.540771 
vn 0.312256 -0.473145 0.823486 
vn 1.000000 0.000000 0.000000 
vn 0.313232 0.722656 -0.615723 
vn -0.807129 0.486084 -0.334717 
vn 1.000000 0.000000 0.000000 
vn 0.312256 -0.473145 0.823486 
vn 0.987305 0.120605 0.102295 
vn 1.000000 0.000000 0.000000 
vn 0.987305 0.120605 0.102295 
vn 0.313232 0.722656 -0.615723 
vn 1.000000 0.000000 0.000000 
vt 0.126984 0.483871 
vt 0.126984 0.483871 
vt 0.428571 0.322581 
vt 0.126984 0.483871 
vt 0.428571 0.290323 
vt 0.428571 0.322581 
vt 0.126984 0.483871 
vt 0.126984 0.483871 
vt 0.428571 0.290323 
vt 0.126984 0.483871 
vt 0.428571 0.483871 
vt 0.428571 0.290323 
vt 0.126984 0.483871 
vt 0.126984 0.483871 
vt 0.428571 0.483871 
vt 0.126984 0.483871 
vt 0.428571 0.677419 
vt 0.428571 0.483871 
vt 0.126984 0.483871 
vt 0.126984 0.483871 
vt 0.428571 0.677419 
vt 0.126984 0.483871 
vt 0.428571 0.548387 
vt 0.428571 0.677419 
vt 0.126984 0.483871 
vt 0.126984 0.483871 
vt 0.428571 0.548387 
vt 0.126984 0.483871 
vt 0.428571 0.322581 
vt 0.428571 0.548387 
vt 0.126984 0.483871 
vt 0.126984 0.483871 
vt 0.126984 0.483871 
vt 0.126984 0.483871 
vt 0.126984 0.483871 
vt 0.126984 0.483871 
vt 0.126984 0.483871 
vt 0.126984 0.483871 
vt 0.126984 0.483871 
vt 0.126984 0.483871 
vt 0.126984 0.483871 
vt 0.126984 0.483871 
vt 0.126984 0.483871 
vt 0.126984 0.483871 
vt 0.126984 0.483871 
vt 0.126984 0.483871 
vt 0.126984 0.483871 
vt 0.428571 0.322581 
vt 0.126984 0.483871 
vt 0.428571 0.290323 
vt 0.428571 0.322581 
vt 0.126984 0.483871 
vt 0.126984 0.483871 
vt 0.428571 0.290323 
vt 0.126984 0.483871 
vt 0.428571 0.483871 
vt 0.428571 0.290323 
vt 0.126984 0.483871 
vt 0.126984 0.483871 
vt 0.428571 0.483871 
vt 0.126984 0.483871 
vt 0.428571 0.677419 
vt 0.428571 0.483871 
vt 0.126984 0.483871 
vt 0.126984 0.483871 
vt 0.428571 0.677419 
vt 0.126984 0.483871 
vt 0.428571 0.548387 
vt 0.428571 0.677419 
vt 0.126984 0.483871 
vt 0.126984 0.483871 
vt 0.428571 0.548387 
vt 0.126984 0.483871 
vt 0.428571 0.322581 
vt 0.428571 0.548387 
vt 0.126984 0.483871 
vt 0.126984 0.483871 
vt 0.126984 0.483871 
vt 0.126984 0.483871 
vt 0.126984 0.483871 
vt 0.126984 0.483871 
vt 0.126984 0.483871 
vt 0.126984 0.483871 
vt 0.126984 0.483871 
vt 0.126984 0.483871 
vt 0.126984 0.483871 
vt 0.126984 0.483871 
vt 0.126984 0.483871 
vt 0.126984 0.483871 
vt 0.126984 0.483871 
f 1/1/1 2/2/2 3/3/3
f 4/4/4 5/5/5 6/6/6
f 7/7/7 8/8/8 9/9/9
f 10/10/10 11/11/11 12/12/12
f 13/13/13 14/14/14 15/15/15
f 16/16/16 17/17/17 18/18/18
f 19/19/19 20/20/20 21/21/21
f 22/22/22 23/23/23 24/24/24
f 25/25/25 26/26/26 27/27/27
f 28/28/28 29/29/29 30/30/30
f 31/31/31 32/32/32 33/33/33
f 34/34/34 35/35/35 36/36/36
f 37/37/37 38/38/38 39/39/39
f 40/40/40 41/41/41 42/42/42
f 43/43/43 44/44/44 45/45/45
f 46/46/46 47/47/47 48/48/48
f 49/49/49 50/50/50 51/51/51
f 52/52/52 53/53/53 54/54/54
f 55/55/55 56/56/56 57/57/57
f 58/58/58 59/59/59 60/60/60
f 61/61/61 62/62/62 63/63/63
f 64/64/64 65/65/65 66/66/66
f 67/67/67 68/68/68 69/69/69
f 70/70/70 71/71/71 72/72/72
f 73/73/73 74/74/74 75/75/75
f 76/76/76 77/77/77 78/78/78
f 79/79/79 80/80/80 81/81/81
f 82/82/82 83/83/83 84/84/84
f 85/85/85 86/86/86 87/87/87
f 88/88/88 89/89/89 90/90/90
