v -21.000000 -31.000000 -18.000000 
v -28.000000 -19.000000 -3.000000 
v -35.000000 -5.000000 -19.000000 
v -20.000000 -24.000000 -28.000000 
v -21.000000 -31.000000 -18.000000 
v -35.000000 -5.000000 -19.000000 
v 0.000000 -35.000000 -24.000000 
v -21.000000 -31.000000 -18.000000 
v -20.000000 -24.000000 -28.000000 
v 0.000000 -28.000000 -33.000000 
v 0.000000 -35.000000 -24.000000 
v -20.000000 -24.000000 -28.000000 
v 22.000000 -31.000000 -18.000000 
v 0.000000 -35.000000 -24.000000 
v 0.000000 -28.000000 -33.000000 
v 21.000000 -24.000000 -28.000000 
v 22.000000 -31.000000 -18.000000 
v 0.000000 -28.000000 -33.000000 
v 29.000000 -19.000000 -3.000000 
v 22.000000 -31.000000 -18.000000 
v 21.000000 -24.000000 -28.000000 
v 35.000000 -5.000000 -19.000000 
v 29.000000 -19.000000 -3.000000 
v 21.000000 -24.000000 -28.000000 
v -28.000000 -19.000000 -3.000000 
v -21.000000 -31.000000 -18.000000 
v 0.000000 -25.000000 6.000000 
v -21.000000 -31.000000 -18.000000 
v 0.000000 -35.000000 -24.000000 
v 0.000000 -25.000000 6.000000 
v 0.000000 -35.000000 -24.000000 
v 22.000000 -31.000000 -18.000000 
v 0.000000 -25.000000 6.000000 
v 22.000000 -31.000000 -18.000000 
v 29.000000 -19.000000 -3.000000 
v 0.000000 -25.000000 6.000000 
vn -0.562256 -0.826660 -0.016602 
vn -0.658936 -0.715088 0.232178 
vn -0.818359 -0.437012 -0.372559 
vn -0.470215 -0.478027 -0.741455 
vn -0.562256 -0.826660 -0.016602 
vn -0.818359 -0.437012 -0.372559 
vn -0.057129 -0.973389 -0.221191 
vn -0.562256 -0.826660 -0.016602 
vn -0.470215 -0.478027 -0.741455 
vn 0.094482 -0.532471 -0.840820 
vn -0.057129 -0.973389 -0.221191 
vn -0.470215 -0.478027 -0.741455 
vn 0.451416 -0.885010 -0.113281 
vn -0.057129 -0.973389 -0.221191 
vn 0.094482 -0.532471 -0.840820 
vn 0.687500 -0.468506 -0.554688 
vn 0.451416 -0.885010 -0.113281 
vn 0.094482 -0.532471 -0.840820 
vn 0.784180 -0.618408 0.047119 
vn 0.451416 -0.885010 -0.113281 
vn 0.687500 -0.468506 -0.554688 
vn 0.844727 -0.491943 -0.209961 
vn 0.784180 -0.618408 0.047119 
vn 0.687500 -0.468506 -0.554688 
vn -0.658936 -0.715088 0.232178 
vn -0.562256 -0.826660 -0.016602 
vn 0.000000 -0.914062 0.405029 
vn -0.562256 -0.826660 -0.016602 
vn -0.057129 -0.973389 -0.221191 
vn 0.000000 -0.914062 0.405029 
vn -0.057129 -0.973389 -0.221191 
vn 0.451416 -0.885010 -0.113281 
vn 0.000000 -0.914062 0.405029 
vn 0.451416 -0.885010 -0.113281 
vn 0.784180 -0.618408 0.047119 
vn 0.000000 -0.914062 0.405029 
vt 0.587302 0.590551 
vt 0.984127 0.590551 
vt 0.984127 0.976378 
vt 0.587302 0.976378 
vt 0.587302 0.590551 
vt 0.984127 0.976378 
vt 0.000000 0.590551 
vt 0.587302 0.590551 
vt 0.587302 0.976378 
vt 0.000000 0.976378 
vt 0.000000 0.590551 
vt 0.587302 0.976378 
vt 0.587302 0.590551 
vt 0.000000 0.590551 
vt 0.000000 0.976378 
vt 0.587302 0.976378 
vt 0.587302 0.590551 
vt 0.000000 0.976378 
vt 0.984127 0.590551 
vt 0.587302 0.590551 
vt 0.587302 0.976378 
vt 0.984127 0.976378 
vt 0.984127 0.590551 
vt 0.587302 0.976378 
vt 0.984127 0.590551 
vt 0.587302 0.590551 
vt 0.000000 0.212598 
vt 0.587302 0.590551 
vt 0.000000 0.590551 
vt 0.000000 0.212598 
vt 0.000000 0.590551 
vt 0.587302 0.590551 
vt 0.000000 0.212598 
vt 0.587302 0.590551 
vt 0.984127 0.590551 
vt 0.000000 0.212598 
f 1/1/1 2/2/2 3/3/3
f 4/4/4 5/5/5 6/6/6
f 7/7/7 8/8/8 9/9/9
f 10/10/10 11/11/11 12/12/12
f 13/13/13 14/14/14 15/15/15
f 16/16/16 17/17/17 18/18/18
f 19/19/19 20/20/20 21/21/21
f 22/22/22 23/23/23 24/24/24
f 25/25/25 26/26/26 27/27/27
f 28/28/28 29/29/29 30/30/30
f 31/31/31 32/32/32 33/33/33
f 34/34/34 35/35/35 36/36/36
