v 20.000000 1.000000 0.000000 
v 22.000000 -23.000000 -2.000000 
v -22.000000 -23.000000 -2.000000 
v -22.000000 -23.000000 -2.000000 
v -20.000000 1.000000 0.000000 
v 20.000000 1.000000 0.000000 
v 20.000000 25.000000 3.000000 
v 20.000000 1.000000 0.000000 
v -20.000000 1.000000 0.000000 
v -20.000000 1.000000 0.000000 
v -20.000000 25.000000 3.000000 
v 20.000000 25.000000 3.000000 
v 19.000000 50.000000 3.000000 
v 20.000000 25.000000 3.000000 
v -20.000000 25.000000 3.000000 
v -20.000000 25.000000 3.000000 
v -21.000000 50.000000 3.000000 
v 19.000000 50.000000 3.000000 
v 20.000000 1.000000 1.000000 
v -20.000000 1.000000 1.000000 
v -22.000000 -23.000000 -1.000000 
v -22.000000 -23.000000 -1.000000 
v 22.000000 -23.000000 -1.000000 
v 20.000000 1.000000 1.000000 
v 20.000000 25.000000 4.000000 
v -20.000000 25.000000 4.000000 
v -20.000000 1.000000 1.000000 
v -20.000000 1.000000 1.000000 
v 20.000000 1.000000 1.000000 
v 20.000000 25.000000 4.000000 
v 19.000000 50.000000 5.000000 
v -21.000000 50.000000 5.000000 
v -20.000000 25.000000 4.000000 
v -20.000000 25.000000 4.000000 
v 20.000000 25.000000 4.000000 
v 19.000000 50.000000 5.000000 
v -20.000000 1.000000 1.000000 
v -20.000000 1.000000 0.000000 
v -22.000000 -23.000000 -2.000000 
v -22.000000 -23.000000 -2.000000 
v -22.000000 -23.000000 -1.000000 
v -20.000000 1.000000 1.000000 
v -20.000000 25.000000 4.000000 
v -20.000000 25.000000 3.000000 
v -20.000000 1.000000 0.000000 
v -20.000000 1.000000 0.000000 
v -20.000000 1.000000 1.000000 
v -20.000000 25.000000 4.000000 
v -21.000000 50.000000 5.000000 
v -21.000000 50.000000 3.000000 
v -20.000000 25.000000 3.000000 
v -20.000000 25.000000 3.000000 
v -20.000000 25.000000 4.000000 
v -21.000000 50.000000 5.000000 
v 19.000000 50.000000 5.000000 
v 19.000000 50.000000 3.000000 
v -21.000000 50.000000 3.000000 
v -21.000000 50.000000 3.000000 
v -21.000000 50.000000 5.000000 
v 19.000000 50.000000 5.000000 
v 20.000000 25.000000 4.000000 
v 20.000000 25.000000 3.000000 
v 19.000000 50.000000 3.000000 
v 19.000000 50.000000 3.000000 
v 19.000000 50.000000 5.000000 
v 20.000000 25.000000 4.000000 
v 20.000000 1.000000 1.000000 
v 20.000000 1.000000 0.000000 
v 20.000000 25.000000 3.000000 
v 20.000000 25.000000 3.000000 
v 20.000000 25.000000 4.000000 
v 20.000000 1.000000 1.000000 
v 22.000000 -23.000000 -1.000000 
v 22.000000 -23.000000 -2.000000 
v 20.000000 1.000000 0.000000 
v 20.000000 1.000000 0.000000 
v 20.000000 1.000000 1.000000 
v 22.000000 -23.000000 -1.000000 
v -22.000000 -23.000000 -1.000000 
v -22.000000 -23.000000 -2.000000 
v 22.000000 -23.000000 -2.000000 
v 22.000000 -23.000000 -2.000000 
v 22.000000 -23.000000 -1.000000 
v -22.000000 -23.000000 -1.000000 
vn 0.000000 0.177246 -0.984131 
vn 0.000000 0.204834 -0.978760 
vn 0.000000 0.204834 -0.978760 
vn 0.000000 0.204834 -0.978760 
vn 0.000000 0.149414 -0.988525 
vn 0.000000 0.177246 -0.984131 
vn 0.000000 -0.119629 -0.992676 
vn 0.000000 0.177246 -0.984131 
vn 0.000000 0.149414 -0.988525 
vn 0.000000 0.149414 -0.988525 
vn 0.006592 -0.376465 -0.926270 
vn 0.000000 -0.119629 -0.992676 
vn 0.009521 -0.590576 -0.806885 
vn 0.000000 -0.119629 -0.992676 
vn 0.006592 -0.376465 -0.926270 
vn 0.006592 -0.376465 -0.926270 
vn 0.019043 -0.599365 -0.800049 
vn 0.009521 -0.590576 -0.806885 
vn 0.000000 -0.065918 0.997803 
vn 0.000000 -0.093750 0.995361 
vn 0.000000 -0.037842 0.999268 
vn 0.000000 -0.037842 0.999268 
vn 0.000000 -0.037842 0.999268 
vn 0.000000 -0.065918 0.997803 
vn 0.000000 0.091064 0.995605 
vn -0.007080 0.318359 0.947754 
vn 0.000000 -0.093750 0.995361 
vn 0.000000 -0.093750 0.995361 
vn 0.000000 -0.065918 0.997803 
vn 0.000000 0.091064 0.995605 
vn -0.010254 0.515381 0.856689 
vn -0.020508 0.526855 0.849609 
vn -0.007080 0.318359 0.947754 
vn -0.007080 0.318359 0.947754 
vn 0.000000 0.091064 0.995605 
vn -0.010254 0.515381 0.856689 
vn -0.998535 0.048828 0.005859 
vn -0.999512 0.024414 0.002930 
vn -0.997070 0.073486 0.008789 
vn -0.997070 0.073486 0.008789 
vn -0.997070 0.073486 0.008789 
vn -0.998535 0.048828 0.005859 
vn -0.999756 -0.017578 -0.001953 
vn -0.999268 -0.034180 0.002197 
vn -0.999512 0.024414 0.002930 
vn -0.999512 0.024414 0.002930 
vn -0.998535 0.048828 0.005859 
vn -0.999756 -0.017578 -0.001953 
vn -0.998535 -0.051270 0.003418 
vn -0.998535 -0.049805 0.013428 
vn -0.999268 -0.034180 0.002197 
vn -0.999268 -0.034180 0.002197 
vn -0.999756 -0.017578 -0.001953 
vn -0.998535 -0.051270 0.003418 
vn 0.000000 0.992432 0.121826 
vn 0.000000 0.992432 0.121826 
vn 0.000000 0.992432 0.121826 
vn 0.000000 0.992432 0.121826 
vn 0.000000 0.992432 0.121826 
vn 0.000000 0.992432 0.121826 
vn 0.999756 0.014404 -0.004639 
vn 0.999756 0.011475 0.001221 
vn 0.999512 0.021729 -0.007080 
vn 0.999512 0.021729 -0.007080 
vn 0.999756 0.008789 -0.018555 
vn 0.999756 0.014404 -0.004639 
vn 0.999512 0.024414 0.002930 
vn 0.998535 0.048828 0.005859 
vn 0.999756 0.011475 0.001221 
vn 0.999756 0.011475 0.001221 
vn 0.999756 0.014404 -0.004639 
vn 0.999512 0.024414 0.002930 
vn 0.997070 0.073486 0.008789 
vn 0.997070 0.073486 0.008789 
vn 0.998535 0.048828 0.005859 
vn 0.998535 0.048828 0.005859 
vn 0.999512 0.024414 0.002930 
vn 0.997070 0.073486 0.008789 
vn 0.000000 -0.992432 -0.121826 
vn 0.000000 -0.992432 -0.121826 
vn 0.000000 -0.992432 -0.121826 
vn 0.000000 -0.992432 -0.121826 
vn 0.000000 -0.992432 -0.121826 
vn 0.000000 -0.992432 -0.121826 
vt 0.317460 0.967742 
vt 0.000000 0.967742 
vt 0.000000 0.000000 
vt 0.000000 0.000000 
vt 0.317460 0.000000 
vt 0.317460 0.967742 
vt 0.666667 0.967742 
vt 0.317460 0.967742 
vt 0.317460 0.000000 
vt 0.317460 0.000000 
vt 0.666667 0.000000 
vt 0.666667 0.967742 
vt 0.984127 0.967742 
vt 0.666667 0.967742 
vt 0.666667 0.000000 
vt 0.666667 0.000000 
vt 0.984127 0.000000 
vt 0.984127 0.967742 
vt 0.317460 0.967742 
vt 0.317460 0.000000 
vt 0.000000 0.000000 
vt 0.000000 0.000000 
vt 0.000000 0.967742 
vt 0.317460 0.967742 
vt 0.666667 0.967742 
vt 0.666667 0.000000 
vt 0.317460 0.000000 
vt 0.317460 0.000000 
vt 0.317460 0.967742 
vt 0.666667 0.967742 
vt 0.984127 0.967742 
vt 0.984127 0.000000 
vt 0.666667 0.000000 
vt 0.666667 0.000000 
vt 0.666667 0.967742 
vt 0.984127 0.967742 
vt 0.317460 0.000000 
vt 0.317460 0.000000 
vt 0.000000 0.000000 
vt 0.000000 0.000000 
vt 0.000000 0.000000 
vt 0.317460 0.000000 
vt 0.666667 0.000000 
vt 0.666667 0.000000 
vt 0.317460 0.000000 
vt 0.317460 0.000000 
vt 0.317460 0.000000 
vt 0.666667 0.000000 
vt 0.984127 0.000000 
vt 0.984127 0.000000 
vt 0.666667 0.000000 
vt 0.666667 0.000000 
vt 0.666667 0.000000 
vt 0.984127 0.000000 
vt 0.984127 0.967742 
vt 0.984127 0.967742 
vt 0.984127 0.000000 
vt 0.984127 0.000000 
vt 0.984127 0.000000 
vt 0.984127 0.967742 
vt 0.666667 0.967742 
vt 0.666667 0.967742 
vt 0.984127 0.967742 
vt 0.984127 0.967742 
vt 0.984127 0.967742 
vt 0.666667 0.967742 
vt 0.317460 0.967742 
vt 0.317460 0.967742 
vt 0.666667 0.967742 
vt 0.666667 0.967742 
vt 0.666667 0.967742 
vt 0.317460 0.967742 
vt 0.000000 0.967742 
vt 0.000000 0.967742 
vt 0.317460 0.967742 
vt 0.317460 0.967742 
vt 0.317460 0.967742 
vt 0.000000 0.967742 
vt 0.000000 0.000000 
vt 0.000000 0.000000 
vt 0.000000 0.967742 
vt 0.000000 0.967742 
vt 0.000000 0.967742 
vt 0.000000 0.000000 
f 1/1/1 2/2/2 3/3/3
f 4/4/4 5/5/5 6/6/6
f 7/7/7 8/8/8 9/9/9
f 10/10/10 11/11/11 12/12/12
f 13/13/13 14/14/14 15/15/15
f 16/16/16 17/17/17 18/18/18
f 19/19/19 20/20/20 21/21/21
f 22/22/22 23/23/23 24/24/24
f 25/25/25 26/26/26 27/27/27
f 28/28/28 29/29/29 30/30/30
f 31/31/31 32/32/32 33/33/33
f 34/34/34 35/35/35 36/36/36
f 37/37/37 38/38/38 39/39/39
f 40/40/40 41/41/41 42/42/42
f 43/43/43 44/44/44 45/45/45
f 46/46/46 47/47/47 48/48/48
f 49/49/49 50/50/50 51/51/51
f 52/52/52 53/53/53 54/54/54
f 55/55/55 56/56/56 57/57/57
f 58/58/58 59/59/59 60/60/60
f 61/61/61 62/62/62 63/63/63
f 64/64/64 65/65/65 66/66/66
f 67/67/67 68/68/68 69/69/69
f 70/70/70 71/71/71 72/72/72
f 73/73/73 74/74/74 75/75/75
f 76/76/76 77/77/77 78/78/78
f 79/79/79 80/80/80 81/81/81
f 82/82/82 83/83/83 84/84/84
