v 22.000000 21.000000 -29.000000 
v 0.000000 22.000000 -32.000000 
v 0.000000 36.000000 -5.000000 
v 7.000000 36.000000 -3.000000 
v 22.000000 21.000000 -29.000000 
v 0.000000 36.000000 -5.000000 
v 30.000000 24.000000 -16.000000 
v 22.000000 21.000000 -29.000000 
v 7.000000 36.000000 -3.000000 
v 11.000000 35.000000 3.000000 
v 30.000000 24.000000 -16.000000 
v 7.000000 36.000000 -3.000000 
v 0.000000 15.000000 30.000000 
v 12.000000 17.000000 28.000000 
v 7.000000 32.000000 16.000000 
v 0.000000 32.000000 18.000000 
v 0.000000 15.000000 30.000000 
v 7.000000 32.000000 16.000000 
v 25.000000 -5.000000 -32.000000 
v 0.000000 -3.000000 -35.000000 
v 0.000000 22.000000 -32.000000 
v 22.000000 21.000000 -29.000000 
v 25.000000 -5.000000 -32.000000 
v 0.000000 22.000000 -32.000000 
v 37.000000 -4.000000 -20.000000 
v 25.000000 -5.000000 -32.000000 
v 22.000000 21.000000 -29.000000 
v 30.000000 24.000000 -16.000000 
v 37.000000 -4.000000 -20.000000 
v 22.000000 21.000000 -29.000000 
v 0.000000 -10.000000 35.000000 
v 16.000000 -8.000000 33.000000 
v 12.000000 17.000000 28.000000 
v 0.000000 15.000000 30.000000 
v 0.000000 -10.000000 35.000000 
v 12.000000 17.000000 28.000000 
v 24.000000 -21.000000 -22.000000 
v 0.000000 -20.000000 -26.000000 
v 0.000000 -3.000000 -35.000000 
v 25.000000 -5.000000 -32.000000 
v 24.000000 -21.000000 -22.000000 
v 0.000000 -3.000000 -35.000000 
v 32.000000 -24.000000 -10.000000 
v 24.000000 -21.000000 -22.000000 
v 25.000000 -5.000000 -32.000000 
v 37.000000 -4.000000 -20.000000 
v 32.000000 -24.000000 -10.000000 
v 25.000000 -5.000000 -32.000000 
v 0.000000 -30.000000 26.000000 
v 21.000000 -30.000000 22.000000 
v 16.000000 -8.000000 33.000000 
v 0.000000 -10.000000 35.000000 
v 0.000000 -30.000000 26.000000 
v 16.000000 -8.000000 33.000000 
v 30.000000 24.000000 -3.000000 
v 36.000000 13.000000 -9.000000 
v 30.000000 24.000000 -16.000000 
v 39.000000 -3.000000 -8.000000 
v 37.000000 -4.000000 -20.000000 
v 30.000000 24.000000 -16.000000 
v 36.000000 13.000000 -9.000000 
v 39.000000 -3.000000 -8.000000 
v 30.000000 24.000000 -16.000000 
v 12.000000 17.000000 28.000000 
v 16.000000 -8.000000 33.000000 
v 23.000000 -4.000000 26.000000 
v 20.000000 9.000000 26.000000 
v 12.000000 17.000000 28.000000 
v 23.000000 -4.000000 26.000000 
v 19.000000 22.000000 20.000000 
v 12.000000 17.000000 28.000000 
v 20.000000 9.000000 26.000000 
v 12.000000 17.000000 28.000000 
v 19.000000 22.000000 20.000000 
v 7.000000 32.000000 16.000000 
v 21.000000 -30.000000 22.000000 
v 28.000000 -15.000000 21.000000 
v 23.000000 -4.000000 26.000000 
v 16.000000 -8.000000 33.000000 
v 21.000000 -30.000000 22.000000 
v 23.000000 -4.000000 26.000000 
v 31.000000 -29.000000 7.000000 
v 33.000000 -18.000000 8.000000 
v 28.000000 -15.000000 21.000000 
v 21.000000 -30.000000 22.000000 
v 31.000000 -29.000000 7.000000 
v 28.000000 -15.000000 21.000000 
v 31.000000 -29.000000 7.000000 
v 32.000000 -24.000000 -10.000000 
v 38.000000 -11.000000 -1.000000 
v 33.000000 -18.000000 8.000000 
v 31.000000 -29.000000 7.000000 
v 38.000000 -11.000000 -1.000000 
v 37.000000 -4.000000 -20.000000 
v 39.000000 -3.000000 -8.000000 
v 38.000000 -11.000000 -1.000000 
v 32.000000 -24.000000 -10.000000 
v 37.000000 -4.000000 -20.000000 
v 38.000000 -11.000000 -1.000000 
v 23.000000 27.000000 7.000000 
v 11.000000 33.000000 10.000000 
v 7.000000 32.000000 16.000000 
v 19.000000 22.000000 20.000000 
v 23.000000 27.000000 7.000000 
v 7.000000 32.000000 16.000000 
v 11.000000 33.000000 10.000000 
v 23.000000 27.000000 7.000000 
v 11.000000 35.000000 3.000000 
v 30.000000 24.000000 -3.000000 
v 30.000000 24.000000 -16.000000 
v 11.000000 35.000000 3.000000 
v 23.000000 27.000000 7.000000 
v 30.000000 24.000000 -3.000000 
v 11.000000 35.000000 3.000000 
v 0.000000 22.000000 -32.000000 
v -22.000000 21.000000 -29.000000 
v 0.000000 36.000000 -5.000000 
v -22.000000 21.000000 -29.000000 
v -7.000000 36.000000 -3.000000 
v 0.000000 36.000000 -5.000000 
v -22.000000 21.000000 -29.000000 
v -30.000000 24.000000 -16.000000 
v -7.000000 36.000000 -3.000000 
v -30.000000 24.000000 -16.000000 
v -11.000000 35.000000 3.000000 
v -7.000000 36.000000 -3.000000 
v -12.000000 17.000000 28.000000 
v 0.000000 15.000000 30.000000 
v -7.000000 32.000000 16.000000 
v 0.000000 15.000000 30.000000 
v 0.000000 32.000000 18.000000 
v -7.000000 32.000000 16.000000 
v 0.000000 -3.000000 -35.000000 
v -25.000000 -5.000000 -32.000000 
v 0.000000 22.000000 -32.000000 
v -25.000000 -5.000000 -32.000000 
v -22.000000 21.000000 -29.000000 
v 0.000000 22.000000 -32.000000 
v -25.000000 -5.000000 -32.000000 
v -37.000000 -4.000000 -20.000000 
v -22.000000 21.000000 -29.000000 
v -37.000000 -4.000000 -20.000000 
v -30.000000 24.000000 -16.000000 
v -22.000000 21.000000 -29.000000 
v -16.000000 -8.000000 33.000000 
v 0.000000 -10.000000 35.000000 
v -12.000000 17.000000 28.000000 
v 0.000000 -10.000000 35.000000 
v 0.000000 15.000000 30.000000 
v -12.000000 17.000000 28.000000 
v 0.000000 -20.000000 -26.000000 
v -24.000000 -21.000000 -22.000000 
v 0.000000 -3.000000 -35.000000 
v -24.000000 -21.000000 -22.000000 
v -25.000000 -5.000000 -32.000000 
v 0.000000 -3.000000 -35.000000 
v -24.000000 -21.000000 -22.000000 
v -32.000000 -24.000000 -10.000000 
v -25.000000 -5.000000 -32.000000 
v -32.000000 -24.000000 -10.000000 
v -37.000000 -4.000000 -20.000000 
v -25.000000 -5.000000 -32.000000 
v -21.000000 -30.000000 22.000000 
v 0.000000 -30.000000 26.000000 
v -16.000000 -8.000000 33.000000 
v 0.000000 -30.000000 26.000000 
v 0.000000 -10.000000 35.000000 
v -16.000000 -8.000000 33.000000 
v -36.000000 13.000000 -9.000000 
v -30.000000 24.000000 -3.000000 
v -30.000000 24.000000 -16.000000 
v -37.000000 -4.000000 -20.000000 
v -39.000000 -3.000000 -8.000000 
v -30.000000 24.000000 -16.000000 
v -39.000000 -3.000000 -8.000000 
v -36.000000 13.000000 -9.000000 
v -30.000000 24.000000 -16.000000 
v -16.000000 -8.000000 33.000000 
v -12.000000 17.000000 28.000000 
v -23.000000 -4.000000 26.000000 
v -12.000000 17.000000 28.000000 
v -20.000000 9.000000 26.000000 
v -23.000000 -4.000000 26.000000 
v -12.000000 17.000000 28.000000 
v -19.000000 22.000000 20.000000 
v -20.000000 9.000000 26.000000 
v -19.000000 22.000000 20.000000 
v -12.000000 17.000000 28.000000 
v -7.000000 32.000000 16.000000 
v -28.000000 -15.000000 21.000000 
v -21.000000 -30.000000 22.000000 
v -23.000000 -4.000000 26.000000 
v -21.000000 -30.000000 22.000000 
v -16.000000 -8.000000 33.000000 
v -23.000000 -4.000000 26.000000 
v -33.000000 -18.000000 8.000000 
v -31.000000 -29.000000 7.000000 
v -28.000000 -15.000000 21.000000 
v -31.000000 -29.000000 7.000000 
v -21.000000 -30.000000 22.000000 
v -28.000000 -15.000000 21.000000 
v -32.000000 -24.000000 -10.000000 
v -31.000000 -29.000000 7.000000 
v -38.000000 -11.000000 -1.000000 
v -31.000000 -29.000000 7.000000 
v -33.000000 -18.000000 8.000000 
v -38.000000 -11.000000 -1.000000 
v -39.000000 -3.000000 -8.000000 
v -37.000000 -4.000000 -20.000000 
v -38.000000 -11.000000 -1.000000 
v -37.000000 -4.000000 -20.000000 
v -32.000000 -24.000000 -10.000000 
v -38.000000 -11.000000 -1.000000 
v -11.000000 33.000000 10.000000 
v -23.000000 27.000000 7.000000 
v -7.000000 32.000000 16.000000 
v -23.000000 27.000000 7.000000 
v -19.000000 22.000000 20.000000 
v -7.000000 32.000000 16.000000 
v -23.000000 27.000000 7.000000 
v -11.000000 33.000000 10.000000 
v -11.000000 35.000000 3.000000 
v -30.000000 24.000000 -16.000000 
v -30.000000 24.000000 -3.000000 
v -11.000000 35.000000 3.000000 
v -30.000000 24.000000 -3.000000 
v -23.000000 27.000000 7.000000 
v -11.000000 35.000000 3.000000 
vn 0.428955 0.616455 -0.659912 
vn 0.000000 0.424316 -0.905273 
vn 0.000000 0.895264 -0.445068 
vn 0.299561 0.903076 -0.307129 
vn 0.428955 0.616455 -0.659912 
vn 0.000000 0.895264 -0.445068 
vn 0.740967 0.599854 -0.301758 
vn 0.428955 0.616455 -0.659912 
vn 0.299561 0.903076 -0.307129 
vn 0.508057 0.860107 0.043701 
vn 0.740967 0.599854 -0.301758 
vn 0.299561 0.903076 -0.307129 
vn 0.000000 0.473389 0.880615 
vn 0.337891 0.353027 0.872314 
vn 0.352539 0.666992 0.656006 
vn 0.000000 0.577148 0.816406 
vn 0.000000 0.473389 0.880615 
vn 0.352539 0.666992 0.656006 
vn 0.463379 -0.166016 -0.870117 
vn 0.000000 -0.304932 -0.952148 
vn 0.000000 0.424316 -0.905273 
vn 0.428955 0.616455 -0.659912 
vn 0.463379 -0.166016 -0.870117 
vn 0.000000 0.424316 -0.905273 
vn 0.910889 -0.047607 -0.409424 
vn 0.463379 -0.166016 -0.870117 
vn 0.428955 0.616455 -0.659912 
vn 0.740967 0.599854 -0.301758 
vn 0.910889 -0.047607 -0.409424 
vn 0.428955 0.616455 -0.659912 
vn 0.000000 -0.011230 0.999756 
vn 0.396973 -0.129395 0.908447 
vn 0.337891 0.353027 0.872314 
vn 0.000000 0.473389 0.880615 
vn 0.000000 -0.011230 0.999756 
vn 0.337891 0.353027 0.872314 
vn 0.332031 -0.482178 -0.810547 
vn 0.000000 -0.488525 -0.872314 
vn 0.000000 -0.304932 -0.952148 
vn 0.463379 -0.166016 -0.870117 
vn 0.332031 -0.482178 -0.810547 
vn 0.000000 -0.304932 -0.952148 
vn 0.856445 -0.385498 -0.342773 
vn 0.332031 -0.482178 -0.810547 
vn 0.463379 -0.166016 -0.870117 
vn 0.910889 -0.047607 -0.409424 
vn 0.856445 -0.385498 -0.342773 
vn 0.463379 -0.166016 -0.870117 
vn 0.000000 -0.411377 0.911377 
vn 0.587891 -0.302002 0.750244 
vn 0.396973 -0.129395 0.908447 
vn 0.000000 -0.011230 0.999756 
vn 0.000000 -0.411377 0.911377 
vn 0.396973 -0.129395 0.908447 
vn 0.663818 0.747314 0.026855 
vn 0.892334 0.300537 -0.336182 
vn 0.740967 0.599854 -0.301758 
vn 0.947021 0.040039 -0.317871 
vn 0.910889 -0.047607 -0.409424 
vn 0.740967 0.599854 -0.301758 
vn 0.892334 0.300537 -0.336182 
vn 0.947021 0.040039 -0.317871 
vn 0.740967 0.599854 -0.301758 
vn 0.337891 0.353027 0.872314 
vn 0.396973 -0.129395 0.908447 
vn 0.563477 -0.020020 0.825684 
vn 0.507812 0.246338 0.825195 
vn 0.337891 0.353027 0.872314 
vn 0.563477 -0.020020 0.825684 
vn 0.522949 0.601318 0.603760 
vn 0.337891 0.353027 0.872314 
vn 0.507812 0.246338 0.825195 
vn 0.337891 0.353027 0.872314 
vn 0.522949 0.601318 0.603760 
vn 0.352539 0.666992 0.656006 
vn 0.587891 -0.302002 0.750244 
vn 0.757080 -0.278076 0.591064 
vn 0.563477 -0.020020 0.825684 
vn 0.396973 -0.129395 0.908447 
vn 0.587891 -0.302002 0.750244 
vn 0.563477 -0.020020 0.825684 
vn 0.903320 -0.315674 0.289551 
vn 0.910400 -0.247803 0.330322 
vn 0.757080 -0.278076 0.591064 
vn 0.587891 -0.302002 0.750244 
vn 0.903320 -0.315674 0.289551 
vn 0.757080 -0.278076 0.591064 
vn 0.903320 -0.315674 0.289551 
vn 0.856445 -0.385498 -0.342773 
vn 0.956055 -0.292236 0.002930 
vn 0.910400 -0.247803 0.330322 
vn 0.903320 -0.315674 0.289551 
vn 0.956055 -0.292236 0.002930 
vn 0.910889 -0.047607 -0.409424 
vn 0.947021 0.040039 -0.317871 
vn 0.956055 -0.292236 0.002930 
vn 0.856445 -0.385498 -0.342773 
vn 0.910889 -0.047607 -0.409424 
vn 0.956055 -0.292236 0.002930 
vn 0.546631 0.769775 0.329102 
vn 0.548828 0.755127 0.357910 
vn 0.352539 0.666992 0.656006 
vn 0.522949 0.601318 0.603760 
vn 0.546631 0.769775 0.329102 
vn 0.352539 0.666992 0.656006 
vn 0.548828 0.755127 0.357910 
vn 0.546631 0.769775 0.329102 
vn 0.508057 0.860107 0.043701 
vn 0.663818 0.747314 0.026855 
vn 0.740967 0.599854 -0.301758 
vn 0.508057 0.860107 0.043701 
vn 0.546631 0.769775 0.329102 
vn 0.663818 0.747314 0.026855 
vn 0.508057 0.860107 0.043701 
vn 0.000000 0.424316 -0.905273 
vn -0.428955 0.616455 -0.659912 
vn 0.000000 0.895264 -0.445068 
vn -0.428955 0.616455 -0.659912 
vn -0.299561 0.903076 -0.307129 
vn 0.000000 0.895264 -0.445068 
vn -0.428955 0.616455 -0.659912 
vn -0.740967 0.599854 -0.301758 
vn -0.299561 0.903076 -0.307129 
vn -0.740967 0.599854 -0.301758 
vn -0.508057 0.860107 0.043701 
vn -0.299561 0.903076 -0.307129 
vn -0.337891 0.353027 0.872314 
vn 0.000000 0.473389 0.880615 
vn -0.352539 0.666992 0.656006 
vn 0.000000 0.473389 0.880615 
vn 0.000000 0.577148 0.816406 
vn -0.352539 0.666992 0.656006 
vn 0.000000 -0.304932 -0.952148 
vn -0.463379 -0.166016 -0.870117 
vn 0.000000 0.424316 -0.905273 
vn -0.463379 -0.166016 -0.870117 
vn -0.428955 0.616455 -0.659912 
vn 0.000000 0.424316 -0.905273 
vn -0.463379 -0.166016 -0.870117 
vn -0.910889 -0.047607 -0.409424 
vn -0.428955 0.616455 -0.659912 
vn -0.910889 -0.047607 -0.409424 
vn -0.740967 0.599854 -0.301758 
vn -0.428955 0.616455 -0.659912 
vn -0.396973 -0.129395 0.908447 
vn 0.000000 -0.011230 0.999756 
vn -0.337891 0.353027 0.872314 
vn 0.000000 -0.011230 0.999756 
vn 0.000000 0.473389 0.880615 
vn -0.337891 0.353027 0.872314 
vn 0.000000 -0.488525 -0.872314 
vn -0.332031 -0.482178 -0.810547 
vn 0.000000 -0.304932 -0.952148 
vn -0.332031 -0.482178 -0.810547 
vn -0.463379 -0.166016 -0.870117 
vn 0.000000 -0.304932 -0.952148 
vn -0.332031 -0.482178 -0.810547 
vn -0.856445 -0.385498 -0.342773 
vn -0.463379 -0.166016 -0.870117 
vn -0.856445 -0.385498 -0.342773 
vn -0.910889 -0.047607 -0.409424 
vn -0.463379 -0.166016 -0.870117 
vn -0.587891 -0.302002 0.750244 
vn 0.000000 -0.411377 0.911377 
vn -0.396973 -0.129395 0.908447 
vn 0.000000 -0.411377 0.911377 
vn 0.000000 -0.011230 0.999756 
vn -0.396973 -0.129395 0.908447 
vn -0.892334 0.300537 -0.336182 
vn -0.663818 0.747314 0.026855 
vn -0.740967 0.599854 -0.301758 
vn -0.910889 -0.047607 -0.409424 
vn -0.947021 0.040039 -0.317871 
vn -0.740967 0.599854 -0.301758 
vn -0.947021 0.040039 -0.317871 
vn -0.892334 0.300537 -0.336182 
vn -0.740967 0.599854 -0.301758 
vn -0.396973 -0.129395 0.908447 
vn -0.337891 0.353027 0.872314 
vn -0.563477 -0.020020 0.825684 
vn -0.337891 0.353027 0.872314 
vn -0.507812 0.246338 0.825195 
vn -0.563477 -0.020020 0.825684 
vn -0.337891 0.353027 0.872314 
vn -0.522949 0.601318 0.603760 
vn -0.507812 0.246338 0.825195 
vn -0.522949 0.601318 0.603760 
vn -0.337891 0.353027 0.872314 
vn -0.352539 0.666992 0.656006 
vn -0.757080 -0.278076 0.591064 
vn -0.587891 -0.302002 0.750244 
vn -0.563477 -0.020020 0.825684 
vn -0.587891 -0.302002 0.750244 
vn -0.396973 -0.129395 0.908447 
vn -0.563477 -0.020020 0.825684 
vn -0.910400 -0.247803 0.330322 
vn -0.903320 -0.315674 0.289551 
vn -0.757080 -0.278076 0.591064 
vn -0.903320 -0.315674 0.289551 
vn -0.587891 -0.302002 0.750244 
vn -0.757080 -0.278076 0.591064 
vn -0.856445 -0.385498 -0.342773 
vn -0.903320 -0.315674 0.289551 
vn -0.956055 -0.292236 0.002930 
vn -0.903320 -0.315674 0.289551 
vn -0.910400 -0.247803 0.330322 
vn -0.956055 -0.292236 0.002930 
vn -0.947021 0.040039 -0.317871 
vn -0.910889 -0.047607 -0.409424 
vn -0.956055 -0.292236 0.002930 
vn -0.910889 -0.047607 -0.409424 
vn -0.856445 -0.385498 -0.342773 
vn -0.956055 -0.292236 0.002930 
vn -0.548828 0.755127 0.357910 
vn -0.546631 0.769775 0.329102 
vn -0.352539 0.666992 0.656006 
vn -0.546631 0.769775 0.329102 
vn -0.522949 0.601318 0.603760 
vn -0.352539 0.666992 0.656006 
vn -0.546631 0.769775 0.329102 
vn -0.548828 0.755127 0.357910 
vn -0.508057 0.860107 0.043701 
vn -0.740967 0.599854 -0.301758 
vn -0.663818 0.747314 0.026855 
vn -0.508057 0.860107 0.043701 
vn -0.663818 0.747314 0.026855 
vn -0.546631 0.769775 0.329102 
vn -0.508057 0.860107 0.043701 
vt 0.349206 0.141732 
vt 0.349206 -0.007874 
vt 0.000000 -0.007874 
vt 0.000000 0.204724 
vt 0.349206 0.141732 
vt 0.000000 -0.007874 
vt 0.285714 0.275591 
vt 0.349206 0.141732 
vt 0.000000 0.204724 
vt 0.000000 0.425197 
vt 0.285714 0.275591 
vt 0.000000 0.204724 
vt 0.333333 0.582677 
vt 0.349206 0.543307 
vt 0.000000 0.519685 
vt 0.000000 0.582677 
vt 0.333333 0.582677 
vt 0.000000 0.519685 
vt 0.603175 0.110236 
vt 0.587302 -0.007874 
vt 0.349206 -0.007874 
vt 0.349206 0.141732 
vt 0.603175 0.110236 
vt 0.349206 -0.007874 
vt 0.603175 0.244094 
vt 0.603175 0.110236 
vt 0.349206 0.141732 
vt 0.285714 0.275591 
vt 0.603175 0.244094 
vt 0.349206 0.141732 
vt 0.746032 0.582677 
vt 0.698413 0.551181 
vt 0.349206 0.543307 
vt 0.333333 0.582677 
vt 0.746032 0.582677 
vt 0.349206 0.543307 
vt 1.000000 0.181102 
vt 1.000000 -0.007874 
vt 0.587302 -0.007874 
vt 0.603175 0.110236 
vt 1.000000 0.181102 
vt 0.587302 -0.007874 
vt 1.000000 0.362205 
vt 1.000000 0.181102 
vt 0.603175 0.110236 
vt 0.603175 0.244094 
vt 1.000000 0.362205 
vt 0.603175 0.110236 
vt 1.000000 0.582677 
vt 1.000000 0.496063 
vt 0.698413 0.551181 
vt 0.746032 0.582677 
vt 1.000000 0.582677 
vt 0.698413 0.551181 
vt 0.222222 0.448819 
vt 0.349206 0.385827 
vt 0.285714 0.275591 
vt 0.587302 0.393701 
vt 0.603175 0.244094 
vt 0.285714 0.275591 
vt 0.349206 0.385827 
vt 0.587302 0.393701 
vt 0.285714 0.275591 
vt 0.349206 0.543307 
vt 0.698413 0.551181 
vt 0.634921 0.511811 
vt 0.428571 0.511811 
vt 0.349206 0.543307 
vt 0.634921 0.511811 
vt 0.253968 0.488189 
vt 0.349206 0.543307 
vt 0.428571 0.511811 
vt 0.349206 0.543307 
vt 0.253968 0.488189 
vt 0.000000 0.519685 
vt 1.000000 0.496063 
vt 0.761905 0.488189 
vt 0.634921 0.511811 
vt 0.698413 0.551181 
vt 1.000000 0.496063 
vt 0.634921 0.511811 
vt 1.000000 0.409449 
vt 0.825397 0.425197 
vt 0.761905 0.488189 
vt 1.000000 0.496063 
vt 1.000000 0.409449 
vt 0.761905 0.488189 
vt 1.000000 0.535433 
vt 1.000000 0.362205 
vt 0.714286 0.464567 
vt 0.825397 0.582677 
vt 1.000000 0.535433 
vt 0.714286 0.464567 
vt 0.603175 0.244094 
vt 0.587302 0.393701 
vt 0.714286 0.464567 
vt 1.000000 0.362205 
vt 0.603175 0.244094 
vt 0.714286 0.464567 
vt 0.158730 0.433071 
vt 0.000000 0.448819 
vt 0.000000 0.519685 
vt 0.253968 0.488189 
vt 0.158730 0.433071 
vt 0.000000 0.519685 
vt 0.000000 0.645669 
vt 0.158730 0.598425 
vt 0.000000 0.425197 
vt 0.222222 0.448819 
vt 0.285714 0.275591 
vt 0.000000 0.425197 
vt 0.158730 0.598425 
vt 0.222222 0.448819 
vt 0.000000 0.425197 
vt 0.349206 -0.007874 
vt 0.349206 0.141732 
vt 0.000000 -0.007874 
vt 0.349206 0.141732 
vt 0.000000 0.204724 
vt 0.000000 -0.007874 
vt 0.349206 0.141732 
vt 0.285714 0.275591 
vt 0.000000 0.204724 
vt 0.285714 0.275591 
vt 0.000000 0.425197 
vt 0.000000 0.204724 
vt 0.349206 0.543307 
vt 0.333333 0.582677 
vt 0.000000 0.519685 
vt 0.333333 0.582677 
vt 0.000000 0.582677 
vt 0.000000 0.519685 
vt 0.587302 -0.007874 
vt 0.603175 0.110236 
vt 0.349206 -0.007874 
vt 0.603175 0.110236 
vt 0.349206 0.141732 
vt 0.349206 -0.007874 
vt 0.603175 0.110236 
vt 0.603175 0.244094 
vt 0.349206 0.141732 
vt 0.603175 0.244094 
vt 0.285714 0.275591 
vt 0.349206 0.141732 
vt 0.698413 0.551181 
vt 0.746032 0.582677 
vt 0.349206 0.543307 
vt 0.746032 0.582677 
vt 0.333333 0.582677 
vt 0.349206 0.543307 
vt 1.000000 -0.007874 
vt 1.000000 0.181102 
vt 0.587302 -0.007874 
vt 1.000000 0.181102 
vt 0.603175 0.110236 
vt 0.587302 -0.007874 
vt 1.000000 0.181102 
vt 1.000000 0.362205 
vt 0.603175 0.110236 
vt 1.000000 0.362205 
vt 0.603175 0.244094 
vt 0.603175 0.110236 
vt 1.000000 0.496063 
vt 1.000000 0.582677 
vt 0.698413 0.551181 
vt 1.000000 0.582677 
vt 0.746032 0.582677 
vt 0.698413 0.551181 
vt 0.349206 0.385827 
vt 0.222222 0.448819 
vt 0.285714 0.275591 
vt 0.603175 0.244094 
vt 0.587302 0.393701 
vt 0.285714 0.275591 
vt 0.587302 0.393701 
vt 0.349206 0.385827 
vt 0.285714 0.275591 
vt 0.698413 0.551181 
vt 0.349206 0.543307 
vt 0.634921 0.511811 
vt 0.349206 0.543307 
vt 0.428571 0.511811 
vt 0.634921 0.511811 
vt 0.349206 0.543307 
vt 0.253968 0.488189 
vt 0.428571 0.511811 
vt 0.253968 0.488189 
vt 0.349206 0.543307 
vt 0.000000 0.519685 
vt 0.761905 0.488189 
vt 1.000000 0.496063 
vt 0.634921 0.511811 
vt 1.000000 0.496063 
vt 0.698413 0.551181 
vt 0.634921 0.511811 
vt 0.825397 0.425197 
vt 1.000000 0.409449 
vt 0.761905 0.488189 
vt 1.000000 0.409449 
vt 1.000000 0.496063 
vt 0.761905 0.488189 
vt 1.000000 0.362205 
vt 1.000000 0.535433 
vt 0.714286 0.464567 
vt 1.000000 0.535433 
vt 0.825397 0.582677 
vt 0.714286 0.464567 
vt 0.587302 0.393701 
vt 0.603175 0.244094 
vt 0.714286 0.464567 
vt 0.603175 0.244094 
vt 1.000000 0.362205 
vt 0.714286 0.464567 
vt 0.000000 0.448819 
vt 0.158730 0.433071 
vt 0.000000 0.519685 
vt 0.158730 0.433071 
vt 0.253968 0.488189 
vt 0.000000 0.519685 
vt 0.158730 0.598425 
vt 0.000000 0.645669 
vt 0.000000 0.425197 
vt 0.285714 0.275591 
vt 0.222222 0.448819 
vt 0.000000 0.425197 
vt 0.222222 0.448819 
vt 0.158730 0.598425 
vt 0.000000 0.425197 
f 1/1/1 2/2/2 3/3/3
f 4/4/4 5/5/5 6/6/6
f 7/7/7 8/8/8 9/9/9
f 10/10/10 11/11/11 12/12/12
f 13/13/13 14/14/14 15/15/15
f 16/16/16 17/17/17 18/18/18
f 19/19/19 20/20/20 21/21/21
f 22/22/22 23/23/23 24/24/24
f 25/25/25 26/26/26 27/27/27
f 28/28/28 29/29/29 30/30/30
f 31/31/31 32/32/32 33/33/33
f 34/34/34 35/35/35 36/36/36
f 37/37/37 38/38/38 39/39/39
f 40/40/40 41/41/41 42/42/42
f 43/43/43 44/44/44 45/45/45
f 46/46/46 47/47/47 48/48/48
f 49/49/49 50/50/50 51/51/51
f 52/52/52 53/53/53 54/54/54
f 55/55/55 56/56/56 57/57/57
f 58/58/58 59/59/59 60/60/60
f 61/61/61 62/62/62 63/63/63
f 64/64/64 65/65/65 66/66/66
f 67/67/67 68/68/68 69/69/69
f 70/70/70 71/71/71 72/72/72
f 73/73/73 74/74/74 75/75/75
f 76/76/76 77/77/77 78/78/78
f 79/79/79 80/80/80 81/81/81
f 82/82/82 83/83/83 84/84/84
f 85/85/85 86/86/86 87/87/87
f 88/88/88 89/89/89 90/90/90
f 91/91/91 92/92/92 93/93/93
f 94/94/94 95/95/95 96/96/96
f 97/97/97 98/98/98 99/99/99
f 100/100/100 101/101/101 102/102/102
f 103/103/103 104/104/104 105/105/105
f 106/106/106 107/107/107 108/108/108
f 109/109/109 110/110/110 111/111/111
f 112/112/112 113/113/113 114/114/114
f 115/115/115 116/116/116 117/117/117
f 118/118/118 119/119/119 120/120/120
f 121/121/121 122/122/122 123/123/123
f 124/124/124 125/125/125 126/126/126
f 127/127/127 128/128/128 129/129/129
f 130/130/130 131/131/131 132/132/132
f 133/133/133 134/134/134 135/135/135
f 136/136/136 137/137/137 138/138/138
f 139/139/139 140/140/140 141/141/141
f 142/142/142 143/143/143 144/144/144
f 145/145/145 146/146/146 147/147/147
f 148/148/148 149/149/149 150/150/150
f 151/151/151 152/152/152 153/153/153
f 154/154/154 155/155/155 156/156/156
f 157/157/157 158/158/158 159/159/159
f 160/160/160 161/161/161 162/162/162
f 163/163/163 164/164/164 165/165/165
f 166/166/166 167/167/167 168/168/168
f 169/169/169 170/170/170 171/171/171
f 172/172/172 173/173/173 174/174/174
f 175/175/175 176/176/176 177/177/177
f 178/178/178 179/179/179 180/180/180
f 181/181/181 182/182/182 183/183/183
f 184/184/184 185/185/185 186/186/186
f 187/187/187 188/188/188 189/189/189
f 190/190/190 191/191/191 192/192/192
f 193/193/193 194/194/194 195/195/195
f 196/196/196 197/197/197 198/198/198
f 199/199/199 200/200/200 201/201/201
f 202/202/202 203/203/203 204/204/204
f 205/205/205 206/206/206 207/207/207
f 208/208/208 209/209/209 210/210/210
f 211/211/211 212/212/212 213/213/213
f 214/214/214 215/215/215 216/216/216
f 217/217/217 218/218/218 219/219/219
f 220/220/220 221/221/221 222/222/222
f 223/223/223 224/224/224 225/225/225
f 226/226/226 227/227/227 228/228/228
