v 46.000000 371.000000 -137.000000 
v 46.000000 391.000000 -117.000000 
v 46.000000 356.000000 -103.000000 
v 46.000000 391.000000 -117.000000 
v 46.000000 391.000000 -88.000000 
v 46.000000 356.000000 -103.000000 
v 46.000000 342.000000 -137.000000 
v 46.000000 371.000000 -137.000000 
v 46.000000 356.000000 -103.000000 
v 46.000000 391.000000 -88.000000 
v 46.000000 371.000000 -68.000000 
v 46.000000 356.000000 -103.000000 
v 46.000000 322.000000 -117.000000 
v 46.000000 342.000000 -137.000000 
v 46.000000 356.000000 -103.000000 
v 46.000000 371.000000 -68.000000 
v 46.000000 342.000000 -68.000000 
v 46.000000 356.000000 -103.000000 
v 46.000000 322.000000 -88.000000 
v 46.000000 322.000000 -117.000000 
v 46.000000 356.000000 -103.000000 
v 46.000000 342.000000 -68.000000 
v 46.000000 322.000000 -88.000000 
v 46.000000 356.000000 -103.000000 
vn 1.000000 0.000000 0.000000 
vn 1.000000 0.000000 0.000000 
vn 1.000000 0.000000 0.000000 
vn 1.000000 0.000000 0.000000 
vn 1.000000 0.000000 0.000000 
vn 1.000000 0.000000 0.000000 
vn 1.000000 0.000000 0.000000 
vn 1.000000 0.000000 0.000000 
vn 1.000000 0.000000 0.000000 
vn 1.000000 0.000000 0.000000 
vn 1.000000 0.000000 0.000000 
vn 1.000000 0.000000 0.000000 
vn 1.000000 0.000000 0.000000 
vn 1.000000 0.000000 0.000000 
vn 1.000000 0.000000 0.000000 
vn 1.000000 0.000000 0.000000 
vn 1.000000 0.000000 0.000000 
vn 1.000000 0.000000 0.000000 
vn 1.000000 0.000000 0.000000 
vn 1.000000 0.000000 0.000000 
vn 1.000000 0.000000 0.000000 
vn 1.000000 0.000000 0.000000 
vn 1.000000 0.000000 0.000000 
vn 1.000000 0.000000 0.000000 
vt 0.393701 0.677165 
vt 0.338583 0.779528 
vt 0.204724 0.677165 
vt 0.338583 0.779528 
vt 0.204724 0.826772 
vt 0.204724 0.677165 
vt 0.338583 0.574803 
vt 0.393701 0.677165 
vt 0.204724 0.677165 
vt 0.204724 0.826772 
vt 0.062992 0.787402 
vt 0.204724 0.677165 
vt 0.204724 0.527559 
vt 0.338583 0.574803 
vt 0.204724 0.677165 
vt 0.062992 0.787402 
vt 0.007874 0.677165 
vt 0.204724 0.677165 
vt 0.070866 0.574803 
vt 0.204724 0.527559 
vt 0.204724 0.677165 
vt 0.007874 0.677165 
vt 0.070866 0.574803 
vt 0.204724 0.677165 
f 1/1/1 2/2/2 3/3/3
f 4/4/4 5/5/5 6/6/6
f 7/7/7 8/8/8 9/9/9
f 10/10/10 11/11/11 12/12/12
f 13/13/13 14/14/14 15/15/15
f 16/16/16 17/17/17 18/18/18
f 19/19/19 20/20/20 21/21/21
f 22/22/22 23/23/23 24/24/24
