v 34.000000 -7.000000 -153.000000 
v 8.000000 -15.000000 -164.000000 
v -34.000000 24.000000 -126.000000 
v 8.000000 -15.000000 -164.000000 
v -34.000000 2.000000 -155.000000 
v -34.000000 24.000000 -126.000000 
v 8.000000 -15.000000 164.000000 
v 34.000000 -24.000000 116.000000 
v -34.000000 -8.000000 103.000000 
v -34.000000 -1.000000 147.000000 
v 8.000000 -15.000000 164.000000 
v -34.000000 -8.000000 103.000000 
vn 0.058105 0.720703 -0.690430 
vn 0.144287 0.760254 -0.633057 
vn 0.144287 0.760254 -0.633057 
vn 0.144287 0.760254 -0.633057 
vn 0.228760 0.790283 -0.568115 
vn 0.144287 0.760254 -0.633057 
vn 0.292236 0.950684 -0.103516 
vn 0.221191 0.973877 -0.049805 
vn 0.292236 0.950684 -0.103516 
vn 0.360840 0.919189 -0.156494 
vn 0.292236 0.950684 -0.103516 
vn 0.292236 0.950684 -0.103516 
vt 0.396825 0.619048 
vt 0.190476 0.412698 
vt 0.396825 0.000000 
vt 0.190476 0.412698 
vt 0.126984 0.000000 
vt 0.396825 0.000000 
vt 0.190476 0.412698 
vt 0.396825 0.619048 
vt 0.396825 0.000000 
vt 0.126984 0.000000 
vt 0.190476 0.412698 
vt 0.396825 0.000000 
f 1/1/1 2/2/2 3/3/3
f 4/4/4 5/5/5 6/6/6
f 7/7/7 8/8/8 9/9/9
f 10/10/10 11/11/11 12/12/12
