v -38.000000 0.000000 225.000000 
v -38.000000 -15.000000 0.000000 
v -38.000000 -14.000000 225.000000 
v -38.000000 -15.000000 0.000000 
v -38.000000 0.000000 225.000000 
v -38.000000 0.000000 0.000000 
v -38.000000 0.000000 0.000000 
v 38.000000 0.000000 225.000000 
v 38.000000 0.000000 0.000000 
v 38.000000 0.000000 225.000000 
v -38.000000 0.000000 0.000000 
v -38.000000 0.000000 225.000000 
v 38.000000 0.000000 225.000000 
v -38.000000 -14.000000 225.000000 
v 38.000000 -14.000000 225.000000 
v -38.000000 -14.000000 225.000000 
v 38.000000 0.000000 225.000000 
v -38.000000 0.000000 225.000000 
vn -1.000000 0.000000 0.000000 
vn -1.000000 0.000000 0.000000 
vn -1.000000 0.000000 0.000000 
vn -1.000000 0.000000 0.000000 
vn -1.000000 0.000000 0.000000 
vn -1.000000 0.000000 0.000000 
vn 0.001953 0.999756 -0.001221 
vn 0.001953 0.999756 -0.001221 
vn 0.003906 0.999756 -0.001465 
vn 0.001953 0.999756 -0.001221 
vn 0.001953 0.999756 -0.001221 
vn 0.000000 0.999756 -0.000732 
vn -0.003418 0.010986 0.999756 
vn -0.003418 0.010986 0.999756 
vn -0.007080 0.022217 0.999512 
vn -0.003418 0.010986 0.999756 
vn -0.003418 0.010986 0.999756 
vn 0.000000 0.000000 1.000000 
vt 0.333333 0.984252 
vt 0.238095 -0.007874 
vt 0.238095 0.984252 
vt 0.238095 -0.007874 
vt 0.333333 0.984252 
vt 0.333333 -0.007874 
vt 0.698413 0.212598 
vt 0.984127 1.000000 
vt 0.984127 0.212598 
vt 0.984127 1.000000 
vt 0.698413 0.212598 
vt 0.698413 1.000000 
vt 0.873016 -0.007874 
vt 0.777778 0.992126 
vt 0.777778 -0.007874 
vt 0.777778 0.992126 
vt 0.873016 -0.007874 
vt 0.873016 0.992126 
f 1/1/1 2/2/2 3/3/3
f 4/4/4 5/5/5 6/6/6
f 7/7/7 8/8/8 9/9/9
f 10/10/10 11/11/11 12/12/12
f 13/13/13 14/14/14 15/15/15
f 16/16/16 17/17/17 18/18/18
