v 41.000000 -18.000000 -23.000000 
v 41.000000 0.000000 -27.000000 
v 41.000000 -1.000000 -2.000000 
v 36.000000 -35.000000 -10.000000 
v 41.000000 -18.000000 -23.000000 
v 41.000000 -1.000000 -2.000000 
v 34.000000 -35.000000 2.000000 
v 36.000000 -35.000000 -10.000000 
v 41.000000 -1.000000 -2.000000 
v 26.000000 -18.000000 30.000000 
v 34.000000 -35.000000 2.000000 
v 41.000000 -1.000000 -2.000000 
v 23.000000 -1.000000 34.000000 
v 26.000000 -18.000000 30.000000 
v 41.000000 -1.000000 -2.000000 
v 26.000000 16.000000 30.000000 
v 23.000000 -1.000000 34.000000 
v 41.000000 -1.000000 -2.000000 
v 34.000000 33.000000 2.000000 
v 26.000000 16.000000 30.000000 
v 41.000000 -1.000000 -2.000000 
v 36.000000 33.000000 -10.000000 
v 34.000000 33.000000 2.000000 
v 41.000000 -1.000000 -2.000000 
v 41.000000 16.000000 -23.000000 
v 36.000000 33.000000 -10.000000 
v 41.000000 -1.000000 -2.000000 
v 41.000000 0.000000 -27.000000 
v 41.000000 16.000000 -23.000000 
v 41.000000 -1.000000 -2.000000 
v 36.000000 -35.000000 -10.000000 
v 4.000000 -41.000000 -20.000000 
v 41.000000 -18.000000 -23.000000 
v 3.000000 -41.000000 5.000000 
v 4.000000 -41.000000 -20.000000 
v 36.000000 -35.000000 -10.000000 
v 34.000000 -35.000000 2.000000 
v 3.000000 -41.000000 5.000000 
v 36.000000 -35.000000 -10.000000 
v 3.000000 -21.000000 35.000000 
v 3.000000 -41.000000 5.000000 
v 34.000000 -35.000000 2.000000 
v 26.000000 -18.000000 30.000000 
v 3.000000 -21.000000 35.000000 
v 34.000000 -35.000000 2.000000 
v 3.000000 -1.000000 40.000000 
v 3.000000 -21.000000 35.000000 
v 26.000000 -18.000000 30.000000 
v 23.000000 -1.000000 34.000000 
v 3.000000 -1.000000 40.000000 
v 26.000000 -18.000000 30.000000 
v 3.000000 19.000000 35.000000 
v 3.000000 -1.000000 40.000000 
v 23.000000 -1.000000 34.000000 
v 26.000000 16.000000 30.000000 
v 3.000000 19.000000 35.000000 
v 23.000000 -1.000000 34.000000 
v 3.000000 39.000000 5.000000 
v 3.000000 19.000000 35.000000 
v 26.000000 16.000000 30.000000 
v 34.000000 33.000000 2.000000 
v 3.000000 39.000000 5.000000 
v 26.000000 16.000000 30.000000 
v 4.000000 39.000000 -20.000000 
v 3.000000 39.000000 5.000000 
v 34.000000 33.000000 2.000000 
v 36.000000 33.000000 -10.000000 
v 4.000000 39.000000 -20.000000 
v 34.000000 33.000000 2.000000 
v 6.000000 19.000000 -34.000000 
v 4.000000 39.000000 -20.000000 
v 36.000000 33.000000 -10.000000 
v 41.000000 16.000000 -23.000000 
v 6.000000 19.000000 -34.000000 
v 36.000000 33.000000 -10.000000 
v 6.000000 0.000000 -39.000000 
v 6.000000 19.000000 -34.000000 
v 41.000000 16.000000 -23.000000 
v 41.000000 0.000000 -27.000000 
v 6.000000 0.000000 -39.000000 
v 41.000000 16.000000 -23.000000 
v 6.000000 -21.000000 -34.000000 
v 6.000000 0.000000 -39.000000 
v 41.000000 0.000000 -27.000000 
v 41.000000 -18.000000 -23.000000 
v 6.000000 -21.000000 -34.000000 
v 41.000000 0.000000 -27.000000 
v 4.000000 -41.000000 -20.000000 
v 6.000000 -21.000000 -34.000000 
v 41.000000 -18.000000 -23.000000 
vn 0.997314 0.001953 -0.070312 
vn 0.997314 0.001953 -0.070312 
vn 0.995361 0.000000 0.094727 
vn 0.729248 -0.667969 -0.146973 
vn 0.988770 -0.141357 0.044922 
vn 0.995361 0.000000 0.094727 
vn 0.711670 -0.637451 0.294678 
vn 0.729248 -0.667969 -0.146973 
vn 0.995361 0.000000 0.094727 
vn 0.717773 -0.297607 0.629395 
vn 0.711670 -0.637451 0.294678 
vn 0.995361 0.000000 0.094727 
vn 0.704834 0.049561 0.707275 
vn 0.717773 -0.297607 0.629395 
vn 0.995361 0.000000 0.094727 
vn 0.715332 0.427490 0.552246 
vn 0.704834 0.049561 0.707275 
vn 0.995361 0.000000 0.094727 
vn 0.701172 0.690186 0.177246 
vn 0.715332 0.427490 0.552246 
vn 0.995361 0.000000 0.094727 
vn 0.743896 0.575439 -0.339111 
vn 0.701172 0.690186 0.177246 
vn 0.995361 0.000000 0.094727 
vn 0.729980 0.291016 -0.617920 
vn 0.743896 0.575439 -0.339111 
vn 0.995361 0.000000 0.094727 
vn 0.997314 -0.001953 -0.070312 
vn 0.729980 0.291016 -0.617920 
vn 0.995361 0.000000 0.094727 
vn 0.729248 -0.667969 -0.146973 
vn 0.197998 -0.875244 -0.441162 
vn 0.389160 -0.620117 -0.680908 
vn 0.197266 -0.936768 0.288330 
vn 0.197998 -0.875244 -0.441162 
vn 0.729248 -0.667969 -0.146973 
vn 0.711670 -0.637451 0.294678 
vn 0.197266 -0.936768 0.288330 
vn 0.729248 -0.667969 -0.146973 
vn 0.209229 -0.561035 0.800781 
vn 0.197266 -0.936768 0.288330 
vn 0.711670 -0.637451 0.294678 
vn 0.717773 -0.297607 0.629395 
vn 0.209229 -0.561035 0.800781 
vn 0.711670 -0.637451 0.294678 
vn 0.212646 0.000244 0.977051 
vn 0.209229 -0.561035 0.800781 
vn 0.717773 -0.297607 0.629395 
vn 0.704834 0.049561 0.707275 
vn 0.212646 0.000244 0.977051 
vn 0.717773 -0.297607 0.629395 
vn 0.236816 0.559082 0.794189 
vn 0.212646 0.000244 0.977051 
vn 0.704834 0.049561 0.707275 
vn 0.715332 0.427490 0.552246 
vn 0.236816 0.559082 0.794189 
vn 0.704834 0.049561 0.707275 
vn 0.217529 0.936523 0.273926 
vn 0.236816 0.559082 0.794189 
vn 0.715332 0.427490 0.552246 
vn 0.701172 0.690186 0.177246 
vn 0.217529 0.936523 0.273926 
vn 0.715332 0.427490 0.552246 
vn 0.177734 0.869629 -0.460449 
vn 0.217529 0.936523 0.273926 
vn 0.701172 0.690186 0.177246 
vn 0.743896 0.575439 -0.339111 
vn 0.177734 0.869629 -0.460449 
vn 0.701172 0.690186 0.177246 
vn 0.157959 0.414062 -0.896240 
vn 0.177734 0.869629 -0.460449 
vn 0.743896 0.575439 -0.339111 
vn 0.729980 0.291016 -0.617920 
vn 0.157959 0.414062 -0.896240 
vn 0.743896 0.575439 -0.339111 
vn 0.292236 0.225098 -0.929199 
vn 0.157959 0.414062 -0.896240 
vn 0.729980 0.291016 -0.617920 
vn 0.298828 0.214355 -0.929688 
vn 0.298828 0.214355 -0.929688 
vn 0.729980 0.291016 -0.617920 
vn 0.137451 -0.401855 -0.905029 
vn 0.084229 -0.235596 -0.968018 
vn 0.298096 -0.224365 -0.927490 
vn 0.291748 -0.215088 -0.931885 
vn 0.137451 -0.401855 -0.905029 
vn 0.291748 -0.215088 -0.931885 
vn 0.197998 -0.875244 -0.441162 
vn 0.137451 -0.401855 -0.905029 
vn 0.290527 -0.526611 -0.798584 
vt 0.349206 0.968254 
vt 0.619048 0.968254 
vt 0.476190 0.888889 
vt 0.174603 0.936508 
vt 0.349206 0.968254 
vt 0.476190 0.888889 
vt 0.222222 0.888889 
vt 0.174603 0.936508 
vt 0.476190 0.888889 
vt 0.396825 0.841270 
vt 0.222222 0.888889 
vt 0.476190 0.888889 
vt 0.476190 0.809524 
vt 0.396825 0.841270 
vt 0.476190 0.888889 
vt 0.555556 0.841270 
vt 0.476190 0.809524 
vt 0.476190 0.888889 
vt 0.746032 0.888889 
vt 0.555556 0.841270 
vt 0.476190 0.888889 
vt 0.809524 0.904762 
vt 0.746032 0.888889 
vt 0.476190 0.888889 
vt 0.650794 0.952381 
vt 0.809524 0.904762 
vt 0.476190 0.888889 
vt 0.619048 0.968254 
vt 0.650794 0.952381 
vt 0.476190 0.888889 
vt 0.174603 0.952381 
vt 0.142857 0.666667 
vt 0.079365 0.968254 
vt 0.238095 0.666667 
vt 0.142857 0.666667 
vt 0.174603 0.952381 
vt 0.222222 0.888889 
vt 0.238095 0.666667 
vt 0.174603 0.952381 
vt 0.349206 0.666667 
vt 0.238095 0.666667 
vt 0.222222 0.888889 
vt 0.396825 0.841270 
vt 0.349206 0.666667 
vt 0.222222 0.888889 
vt 0.476190 0.666667 
vt 0.349206 0.666667 
vt 0.396825 0.841270 
vt 0.476190 0.809524 
vt 0.476190 0.666667 
vt 0.396825 0.841270 
vt 0.634921 0.666667 
vt 0.476190 0.666667 
vt 0.476190 0.809524 
vt 0.555556 0.841270 
vt 0.634921 0.666667 
vt 0.476190 0.809524 
vt 0.746032 0.666667 
vt 0.634921 0.666667 
vt 0.555556 0.841270 
vt 0.746032 0.888889 
vt 0.746032 0.666667 
vt 0.555556 0.841270 
vt 0.841270 0.666667 
vt 0.746032 0.666667 
vt 0.746032 0.888889 
vt 0.809524 0.904762 
vt 0.841270 0.666667 
vt 0.746032 0.888889 
vt 0.952381 0.666667 
vt 0.841270 0.666667 
vt 0.809524 0.904762 
vt 0.936508 0.952381 
vt 0.952381 0.666667 
vt 0.809524 0.904762 
vt 0.984127 0.666667 
vt 0.952381 0.666667 
vt 0.936508 0.952381 
vt 0.984127 0.968254 
vt 0.984127 0.666667 
vt 0.936508 0.952381 
vt 0.063492 0.666667 
vt 0.000000 0.666667 
vt 0.000000 0.968254 
vt 0.079365 0.968254 
vt 0.063492 0.666667 
vt 0.000000 0.968254 
vt 0.142857 0.666667 
vt 0.063492 0.666667 
vt 0.079365 0.968254 
f 1/1/1 2/2/2 3/3/3
f 4/4/4 5/5/5 6/6/6
f 7/7/7 8/8/8 9/9/9
f 10/10/10 11/11/11 12/12/12
f 13/13/13 14/14/14 15/15/15
f 16/16/16 17/17/17 18/18/18
f 19/19/19 20/20/20 21/21/21
f 22/22/22 23/23/23 24/24/24
f 25/25/25 26/26/26 27/27/27
f 28/28/28 29/29/29 30/30/30
f 31/31/31 32/32/32 33/33/33
f 34/34/34 35/35/35 36/36/36
f 37/37/37 38/38/38 39/39/39
f 40/40/40 41/41/41 42/42/42
f 43/43/43 44/44/44 45/45/45
f 46/46/46 47/47/47 48/48/48
f 49/49/49 50/50/50 51/51/51
f 52/52/52 53/53/53 54/54/54
f 55/55/55 56/56/56 57/57/57
f 58/58/58 59/59/59 60/60/60
f 61/61/61 62/62/62 63/63/63
f 64/64/64 65/65/65 66/66/66
f 67/67/67 68/68/68 69/69/69
f 70/70/70 71/71/71 72/72/72
f 73/73/73 74/74/74 75/75/75
f 76/76/76 77/77/77 78/78/78
f 79/79/79 80/80/80 81/81/81
f 82/82/82 83/83/83 84/84/84
f 85/85/85 86/86/86 87/87/87
f 88/88/88 89/89/89 90/90/90
