v -34.000000 -1.000000 -251.000000 
v -34.000000 18.000000 -214.000000 
v 34.000000 30.000000 -224.000000 
v -34.000000 18.000000 -214.000000 
v 8.000000 40.000000 -211.000000 
v 34.000000 30.000000 -224.000000 
v -34.000000 18.000000 243.000000 
v -34.000000 -40.000000 251.000000 
v 34.000000 30.000000 160.000000 
v 8.000000 40.000000 189.000000 
v -34.000000 18.000000 243.000000 
v 34.000000 30.000000 160.000000 
vn -0.219971 0.866455 -0.447754 
vn -0.225342 0.714355 -0.662354 
vn -0.225342 0.714355 -0.662354 
vn -0.225342 0.714355 -0.662354 
vn -0.215332 0.512695 -0.830811 
vn -0.225342 0.714355 -0.662354 
vn 0.754639 0.102295 0.647949 
vn 0.757324 0.084717 0.647461 
vn 0.754639 0.102295 0.647949 
vn 0.751709 0.120117 0.648193 
vn 0.754639 0.102295 0.647949 
vn 0.754639 0.102295 0.647949 
vt 0.444444 0.000000 
vt 0.000000 0.000000 
vt 0.476190 1.000000 
vt 0.000000 0.000000 
vt 0.000000 0.984127 
vt 0.476190 1.000000 
vt 0.000000 0.000000 
vt 0.444444 0.000000 
vt 0.476190 1.000000 
vt 0.000000 0.984127 
vt 0.000000 0.000000 
vt 0.476190 1.000000 
f 1/1/1 2/2/2 3/3/3
f 4/4/4 5/5/5 6/6/6
f 7/7/7 8/8/8 9/9/9
f 10/10/10 11/11/11 12/12/12
