v 30.000000 86.000000 139.000000 
v 30.000000 115.000000 139.000000 
v 30.000000 115.000000 197.000000 
v 30.000000 115.000000 197.000000 
v 30.000000 86.000000 197.000000 
v 30.000000 86.000000 139.000000 
vn 0.999756 -0.002197 0.000000 
vn 0.999756 -0.002197 0.000000 
vn 0.999756 -0.002197 0.000000 
vn 0.999756 -0.002197 0.000000 
vn 0.999756 -0.002197 0.000000 
vn 0.999756 -0.002197 0.000000 
vt 0.070866 0.614173 
vt 0.070866 0.787402 
vt 0.338583 0.787402 
vt 0.338583 0.787402 
vt 0.338583 0.614173 
vt 0.070866 0.614173 
f 1/1/1 2/2/2 3/3/3
f 4/4/4 5/5/5 6/6/6
