v 2.000000 3.000000 6.000000 
v 12.000000 -1.000000 -26.000000 
v 15.000000 -4.000000 -24.000000 
v 15.000000 -4.000000 -24.000000 
v 0.000000 2.000000 18.000000 
v 2.000000 3.000000 6.000000 
v 0.000000 12.000000 22.000000 
v 15.000000 1.000000 -25.000000 
v 12.000000 -1.000000 -26.000000 
v 12.000000 -1.000000 -26.000000 
v 2.000000 3.000000 6.000000 
v 0.000000 12.000000 22.000000 
v 4.000000 5.000000 22.000000 
v 19.000000 -1.000000 -23.000000 
v 15.000000 1.000000 -25.000000 
v 15.000000 1.000000 -25.000000 
v 0.000000 12.000000 22.000000 
v 4.000000 5.000000 22.000000 
v 0.000000 2.000000 18.000000 
v 15.000000 -4.000000 -24.000000 
v 19.000000 -1.000000 -23.000000 
v 19.000000 -1.000000 -23.000000 
v 4.000000 5.000000 22.000000 
v 0.000000 2.000000 18.000000 
v 18.000000 -2.000000 -29.000000 
v 15.000000 -4.000000 -24.000000 
v 12.000000 -1.000000 -26.000000 
v 18.000000 -2.000000 -29.000000 
v 12.000000 -1.000000 -26.000000 
v 15.000000 1.000000 -25.000000 
v 18.000000 -2.000000 -29.000000 
v 15.000000 1.000000 -25.000000 
v 19.000000 -1.000000 -23.000000 
v 18.000000 -2.000000 -29.000000 
v 19.000000 -1.000000 -23.000000 
v 15.000000 -4.000000 -24.000000 
v -6.000000 5.000000 20.000000 
v -8.000000 -1.000000 -28.000000 
v -4.000000 -4.000000 -27.000000 
v -4.000000 -4.000000 -27.000000 
v 0.000000 2.000000 18.000000 
v -6.000000 5.000000 20.000000 
v 0.000000 12.000000 22.000000 
v -4.000000 1.000000 -29.000000 
v -8.000000 -1.000000 -28.000000 
v -8.000000 -1.000000 -28.000000 
v -6.000000 5.000000 20.000000 
v 0.000000 12.000000 22.000000 
v 2.000000 3.000000 6.000000 
v -1.000000 -1.000000 -28.000000 
v -4.000000 1.000000 -29.000000 
v -4.000000 1.000000 -29.000000 
v 0.000000 12.000000 22.000000 
v 2.000000 3.000000 6.000000 
v 0.000000 2.000000 18.000000 
v -4.000000 -4.000000 -27.000000 
v -1.000000 -1.000000 -28.000000 
v -1.000000 -1.000000 -28.000000 
v 2.000000 3.000000 6.000000 
v 0.000000 2.000000 18.000000 
v -5.000000 -2.000000 -33.000000 
v -4.000000 -4.000000 -27.000000 
v -8.000000 -1.000000 -28.000000 
v -5.000000 -2.000000 -33.000000 
v -8.000000 -1.000000 -28.000000 
v -4.000000 1.000000 -29.000000 
v -5.000000 -2.000000 -33.000000 
v -4.000000 1.000000 -29.000000 
v -1.000000 -1.000000 -28.000000 
v -5.000000 -2.000000 -33.000000 
v -1.000000 -1.000000 -28.000000 
v -4.000000 -4.000000 -27.000000 
v 4.000000 5.000000 22.000000 
v 0.000000 -1.000000 34.000000 
v -2.000000 -3.000000 32.000000 
v -2.000000 -3.000000 32.000000 
v 0.000000 2.000000 18.000000 
v 4.000000 5.000000 22.000000 
v 0.000000 12.000000 22.000000 
v -3.000000 1.000000 36.000000 
v 0.000000 -1.000000 34.000000 
v 0.000000 -1.000000 34.000000 
v 4.000000 5.000000 22.000000 
v 0.000000 12.000000 22.000000 
v -6.000000 5.000000 20.000000 
v -6.000000 -1.000000 33.000000 
v -3.000000 1.000000 36.000000 
v -3.000000 1.000000 36.000000 
v 0.000000 12.000000 22.000000 
v -6.000000 5.000000 20.000000 
v 0.000000 2.000000 18.000000 
v -2.000000 -3.000000 32.000000 
v -6.000000 -1.000000 33.000000 
v -6.000000 -1.000000 33.000000 
v -6.000000 5.000000 20.000000 
v 0.000000 2.000000 18.000000 
v -3.000000 -2.000000 36.000000 
v -2.000000 -3.000000 32.000000 
v 0.000000 -1.000000 34.000000 
v -3.000000 -2.000000 36.000000 
v 0.000000 -1.000000 34.000000 
v -3.000000 1.000000 36.000000 
v -3.000000 -2.000000 36.000000 
v -3.000000 1.000000 36.000000 
v -6.000000 -1.000000 33.000000 
v -3.000000 -2.000000 36.000000 
v -6.000000 -1.000000 33.000000 
v -2.000000 -3.000000 32.000000 
vn -0.621338 -0.780762 -0.062500 
vn -0.621338 -0.780762 -0.062500 
vn -0.621338 -0.780762 -0.062500 
vn -0.803223 -0.563721 -0.191650 
vn -0.803223 -0.563721 -0.191650 
vn -0.803223 -0.563721 -0.191650 
vn -0.615479 0.697754 -0.365723 
vn -0.615479 0.697754 -0.365723 
vn -0.615479 0.697754 -0.365723 
vn -0.901123 0.280518 -0.330322 
vn -0.901123 0.280518 -0.330322 
vn -0.901123 0.280518 -0.330322 
vn 0.719971 0.685791 0.104004 
vn 0.719971 0.685791 0.104004 
vn 0.719971 0.685791 0.104004 
vn 0.744629 0.657471 0.113281 
vn 0.744629 0.657471 0.113281 
vn 0.744629 0.657471 0.113281 
vn 0.519775 -0.793213 0.316406 
vn 0.519775 -0.793213 0.316406 
vn 0.519775 -0.793213 0.316406 
vn 0.454102 -0.840820 0.293945 
vn 0.454102 -0.840820 0.293945 
vn 0.454102 -0.840820 0.293945 
vn -0.430664 -0.806885 -0.403809 
vn -0.430664 -0.806885 -0.403809 
vn -0.430664 -0.806885 -0.403809 
vn -0.385498 0.548584 -0.741699 
vn -0.385498 0.548584 -0.741699 
vn -0.385498 0.548584 -0.741699 
vn 0.794434 0.579346 -0.181152 
vn 0.794434 0.579346 -0.181152 
vn 0.794434 0.579346 -0.181152 
vn 0.588867 -0.803467 0.087158 
vn 0.588867 -0.803467 0.087158 
vn 0.588867 -0.803467 0.087158 
vn -0.585938 -0.799805 0.128174 
vn -0.585938 -0.799805 0.128174 
vn -0.585938 -0.799805 0.128174 
vn -0.502686 -0.851807 0.145996 
vn -0.502686 -0.851807 0.145996 
vn -0.502686 -0.851807 0.145996 
vn -0.702148 0.698242 -0.138184 
vn -0.702148 0.698242 -0.138184 
vn -0.702148 0.698242 -0.138184 
vn -0.757568 0.641602 -0.118896 
vn -0.757568 0.641602 -0.118896 
vn -0.757568 0.641602 -0.118896 
vn 0.692383 0.709473 -0.129883 
vn 0.692383 0.709473 -0.129883 
vn 0.692383 0.709473 -0.129883 
vn 0.778809 0.612793 -0.132812 
vn 0.778809 0.612793 -0.132812 
vn 0.778809 0.612793 -0.132812 
vn 0.589111 -0.800537 0.107666 
vn 0.589111 -0.800537 0.107666 
vn 0.589111 -0.800537 0.107666 
vn 0.644775 -0.756836 0.105225 
vn 0.644775 -0.756836 0.105225 
vn 0.644775 -0.756836 0.105225 
vn -0.582764 -0.797852 -0.152832 
vn -0.582764 -0.797852 -0.152832 
vn -0.582764 -0.797852 -0.152832 
vn -0.680420 0.556396 -0.476318 
vn -0.680420 0.556396 -0.476318 
vn -0.680420 0.556396 -0.476318 
vn 0.587402 0.576660 -0.567627 
vn 0.587402 0.576660 -0.567627 
vn 0.587402 0.576660 -0.567627 
vn 0.515869 -0.827637 -0.219971 
vn 0.515869 -0.827637 -0.219971 
vn 0.515869 -0.827637 -0.219971 
vn 0.645752 -0.746582 -0.159180 
vn 0.645752 -0.746582 -0.159180 
vn 0.645752 -0.746582 -0.159180 
vn 0.675781 -0.726318 -0.124268 
vn 0.675781 -0.726318 -0.124268 
vn 0.675781 -0.726318 -0.124268 
vn 0.650879 0.556396 0.516113 
vn 0.650879 0.556396 0.516113 
vn 0.650879 0.556396 0.516113 
vn 0.686035 0.535156 0.492432 
vn 0.686035 0.535156 0.492432 
vn 0.686035 0.535156 0.492432 
vn -0.779541 0.587402 0.216797 
vn -0.779541 0.587402 0.216797 
vn -0.779541 0.587402 0.216797 
vn -0.810791 0.546143 0.209961 
vn -0.810791 0.546143 0.209961 
vn -0.810791 0.546143 0.209961 
vn -0.557129 -0.736328 -0.383301 
vn -0.557129 -0.736328 -0.383301 
vn -0.557129 -0.736328 -0.383301 
vn -0.593994 -0.702148 -0.392090 
vn -0.593994 -0.702148 -0.392090 
vn -0.593994 -0.702148 -0.392090 
vn 0.376221 -0.854004 0.358643 
vn 0.376221 -0.854004 0.358643 
vn 0.376221 -0.854004 0.358643 
vn 0.420410 0.047607 0.906006 
vn 0.420410 0.047607 0.906006 
vn 0.420410 0.047607 0.906006 
vn -0.681885 0.042969 0.729736 
vn -0.681885 0.042969 0.729736 
vn -0.681885 0.042969 0.729736 
vn -0.467041 -0.864990 0.183105 
vn -0.467041 -0.864990 0.183105 
vn -0.467041 -0.864990 0.183105 
vt 0.000000 1.000000 
vt 0.000000 1.000000 
vt 0.000000 1.000000 
vt 0.000000 1.000000 
vt 0.000000 1.000000 
vt 0.000000 1.000000 
vt 0.000000 1.000000 
vt 0.000000 1.000000 
vt 0.000000 1.000000 
vt 0.000000 1.000000 
vt 0.000000 1.000000 
vt 0.000000 1.000000 
vt 0.000000 1.000000 
vt 0.000000 1.000000 
vt 0.000000 1.000000 
vt 0.000000 1.000000 
vt 0.000000 1.000000 
vt 0.000000 1.000000 
vt 0.000000 1.000000 
vt 0.000000 1.000000 
vt 0.000000 1.000000 
vt 0.000000 1.000000 
vt 0.000000 1.000000 
vt 0.000000 1.000000 
vt 0.000000 1.000000 
vt 0.000000 1.000000 
vt 0.000000 1.000000 
vt 0.000000 1.000000 
vt 0.000000 1.000000 
vt 0.000000 1.000000 
vt 0.000000 1.000000 
vt 0.000000 1.000000 
vt 0.000000 1.000000 
vt 0.000000 1.000000 
vt 0.000000 1.000000 
vt 0.000000 1.000000 
vt 0.000000 1.000000 
vt 0.000000 1.000000 
vt 0.000000 1.000000 
vt 0.000000 1.000000 
vt 0.000000 1.000000 
vt 0.000000 1.000000 
vt 0.000000 1.000000 
vt 0.000000 1.000000 
vt 0.000000 1.000000 
vt 0.000000 1.000000 
vt 0.000000 1.000000 
vt 0.000000 1.000000 
vt 0.000000 1.000000 
vt 0.000000 1.000000 
vt 0.000000 1.000000 
vt 0.000000 1.000000 
vt 0.000000 1.000000 
vt 0.000000 1.000000 
vt 0.000000 1.000000 
vt 0.000000 1.000000 
vt 0.000000 1.000000 
vt 0.000000 1.000000 
vt 0.000000 1.000000 
vt 0.000000 1.000000 
vt 0.000000 1.000000 
vt 0.000000 1.000000 
vt 0.000000 1.000000 
vt 0.000000 1.000000 
vt 0.000000 1.000000 
vt 0.000000 1.000000 
vt 0.000000 1.000000 
vt 0.000000 1.000000 
vt 0.000000 1.000000 
vt 0.000000 1.000000 
vt 0.000000 1.000000 
vt 0.000000 1.000000 
vt 0.000000 1.000000 
vt 0.000000 1.000000 
vt 0.000000 1.000000 
vt 0.000000 1.000000 
vt 0.000000 1.000000 
vt 0.000000 1.000000 
vt 0.000000 1.000000 
vt 0.000000 1.000000 
vt 0.000000 1.000000 
vt 0.000000 1.000000 
vt 0.000000 1.000000 
vt 0.000000 1.000000 
vt 0.000000 1.000000 
vt 0.000000 1.000000 
vt 0.000000 1.000000 
vt 0.000000 1.000000 
vt 0.000000 1.000000 
vt 0.000000 1.000000 
vt 0.000000 1.000000 
vt 0.000000 1.000000 
vt 0.000000 1.000000 
vt 0.000000 1.000000 
vt 0.000000 1.000000 
vt 0.000000 1.000000 
vt 0.000000 1.000000 
vt 0.000000 1.000000 
vt 0.000000 1.000000 
vt 0.000000 1.000000 
vt 0.000000 1.000000 
vt 0.000000 1.000000 
vt 0.000000 1.000000 
vt 0.000000 1.000000 
vt 0.000000 1.000000 
vt 0.000000 1.000000 
vt 0.000000 1.000000 
vt 0.000000 1.000000 
f 1/1/1 2/2/2 3/3/3
f 4/4/4 5/5/5 6/6/6
f 7/7/7 8/8/8 9/9/9
f 10/10/10 11/11/11 12/12/12
f 13/13/13 14/14/14 15/15/15
f 16/16/16 17/17/17 18/18/18
f 19/19/19 20/20/20 21/21/21
f 22/22/22 23/23/23 24/24/24
f 25/25/25 26/26/26 27/27/27
f 28/28/28 29/29/29 30/30/30
f 31/31/31 32/32/32 33/33/33
f 34/34/34 35/35/35 36/36/36
f 37/37/37 38/38/38 39/39/39
f 40/40/40 41/41/41 42/42/42
f 43/43/43 44/44/44 45/45/45
f 46/46/46 47/47/47 48/48/48
f 49/49/49 50/50/50 51/51/51
f 52/52/52 53/53/53 54/54/54
f 55/55/55 56/56/56 57/57/57
f 58/58/58 59/59/59 60/60/60
f 61/61/61 62/62/62 63/63/63
f 64/64/64 65/65/65 66/66/66
f 67/67/67 68/68/68 69/69/69
f 70/70/70 71/71/71 72/72/72
f 73/73/73 74/74/74 75/75/75
f 76/76/76 77/77/77 78/78/78
f 79/79/79 80/80/80 81/81/81
f 82/82/82 83/83/83 84/84/84
f 85/85/85 86/86/86 87/87/87
f 88/88/88 89/89/89 90/90/90
f 91/91/91 92/92/92 93/93/93
f 94/94/94 95/95/95 96/96/96
f 97/97/97 98/98/98 99/99/99
f 100/100/100 101/101/101 102/102/102
f 103/103/103 104/104/104 105/105/105
f 106/106/106 107/107/107 108/108/108
