v -245.000000 424.000000 287.000000 
v -213.000000 270.000000 323.000000 
v -258.000000 270.000000 304.000000 
v -311.000000 541.000000 190.000000 
v -245.000000 424.000000 287.000000 
v -338.000000 424.000000 207.000000 
v -245.000000 424.000000 287.000000 
v -311.000000 541.000000 190.000000 
v -225.000000 541.000000 263.000000 
v -116.000000 541.000000 311.000000 
v -126.000000 424.000000 339.000000 
v -245.000000 424.000000 287.000000 
v -245.000000 424.000000 287.000000 
v -225.000000 541.000000 263.000000 
v -116.000000 541.000000 311.000000 
v 4.000000 541.000000 327.000000 
v 4.000000 424.000000 356.000000 
v -126.000000 424.000000 339.000000 
v -126.000000 424.000000 339.000000 
v -116.000000 541.000000 311.000000 
v 4.000000 541.000000 327.000000 
v -213.000000 270.000000 323.000000 
v -245.000000 424.000000 287.000000 
v -133.000000 270.000000 358.000000 
v -133.000000 270.000000 358.000000 
v -245.000000 424.000000 287.000000 
v -126.000000 424.000000 339.000000 
v -126.000000 424.000000 339.000000 
v 4.000000 424.000000 356.000000 
v 4.000000 270.000000 377.000000 
v -133.000000 270.000000 358.000000 
v -126.000000 424.000000 339.000000 
v 4.000000 270.000000 377.000000 
v -245.000000 424.000000 287.000000 
v -258.000000 270.000000 304.000000 
v -358.000000 270.000000 219.000000 
v -338.000000 424.000000 207.000000 
v -245.000000 424.000000 287.000000 
v -358.000000 270.000000 219.000000 
v 288.000000 69.000000 -79.000000 
v 366.000000 69.000000 59.000000 
v 377.000000 75.000000 -128.000000 
v 366.000000 69.000000 59.000000 
v 454.000000 75.000000 10.000000 
v 377.000000 75.000000 -128.000000 
vn 0.547852 -0.153076 -0.822266 
vn 0.441650 -0.151123 -0.884277 
vn 0.573486 -0.153320 -0.804688 
vn 0.671387 -0.281982 -0.685059 
vn 0.556152 -0.284912 -0.780518 
vn 0.682861 -0.217529 -0.697021 
vn 0.556152 -0.284912 -0.780518 
vn 0.671387 -0.281982 -0.685059 
vn 0.556396 -0.284668 -0.780518 
vn 0.428711 -0.281250 -0.858398 
vn 0.246826 -0.196777 -0.948730 
vn 0.556152 -0.284912 -0.780518 
vn 0.556152 -0.284912 -0.780518 
vn 0.556396 -0.284668 -0.780518 
vn 0.428711 -0.281250 -0.858398 
vn 0.147217 -0.281006 -0.948242 
vn 0.149658 -0.216309 -0.964600 
vn 0.147217 -0.281006 -0.948242 
vn 0.147217 -0.281006 -0.948242 
vn 0.147217 -0.281006 -0.948242 
vn 0.147217 -0.281006 -0.948242 
vn 0.441650 -0.151123 -0.884277 
vn 0.547852 -0.153076 -0.822266 
vn 0.348389 -0.152588 -0.924561 
vn 0.348389 -0.152588 -0.924561 
vn 0.547852 -0.153076 -0.822266 
vn 0.441406 -0.151367 -0.884277 
vn 0.246826 -0.196777 -0.948730 
vn 0.149658 -0.216309 -0.964600 
vn 0.151611 -0.150879 -0.976807 
vn 0.348389 -0.152588 -0.924561 
vn 0.246826 -0.196777 -0.948730 
vn 0.151611 -0.150879 -0.976807 
vn 0.547852 -0.153076 -0.822266 
vn 0.573486 -0.153320 -0.804688 
vn 0.691650 -0.151855 -0.705811 
vn 0.682861 -0.217529 -0.697021 
vn 0.547852 -0.153076 -0.822266 
vn 0.691650 -0.151855 -0.705811 
vn -0.048340 0.998535 0.023193 
vn -0.048340 0.998535 0.023193 
vn 0.410645 0.890381 -0.195557 
vn -0.048340 0.998535 0.023193 
vn 0.427246 0.880127 -0.205811 
vn 0.410645 0.890381 -0.195557 
vt 0.330709 0.539683 
vt 0.448819 0.015873 
vt 0.330709 0.015873 
vt 0.000000 0.984127 
vt 0.330709 0.539683 
vt 0.000000 0.539683 
vt 0.330709 0.539683 
vt 0.000000 0.984127 
vt 0.330709 0.984127 
vt 0.661417 0.984127 
vt 0.661417 0.539683 
vt 0.330709 0.539683 
vt 0.330709 0.539683 
vt 0.330709 0.984127 
vt 0.661417 0.984127 
vt 0.992126 0.984127 
vt 0.992126 0.539683 
vt 0.661417 0.539683 
vt 0.661417 0.539683 
vt 0.661417 0.984127 
vt 0.992126 0.984127 
vt 0.448819 0.015873 
vt 0.330709 0.539683 
vt 0.661417 0.015873 
vt 0.661417 0.015873 
vt 0.330709 0.539683 
vt 0.661417 0.539683 
vt 0.661417 0.539683 
vt 0.992126 0.539683 
vt 0.992126 0.015873 
vt 0.661417 0.015873 
vt 0.661417 0.539683 
vt 0.992126 0.015873 
vt 0.330709 0.539683 
vt 0.330709 0.015873 
vt 0.000000 0.015873 
vt 0.000000 0.539683 
vt 0.330709 0.539683 
vt 0.000000 0.015873 
vt 0.496063 0.000000 
vt 0.070866 0.000000 
vt 0.496063 0.269841 
vt 0.070866 0.000000 
vt 0.070866 0.269841 
vt 0.496063 0.269841 
f 1/1/1 2/2/2 3/3/3
f 4/4/4 5/5/5 6/6/6
f 7/7/7 8/8/8 9/9/9
f 10/10/10 11/11/11 12/12/12
f 13/13/13 14/14/14 15/15/15
f 16/16/16 17/17/17 18/18/18
f 19/19/19 20/20/20 21/21/21
f 22/22/22 23/23/23 24/24/24
f 25/25/25 26/26/26 27/27/27
f 28/28/28 29/29/29 30/30/30
f 31/31/31 32/32/32 33/33/33
f 34/34/34 35/35/35 36/36/36
f 37/37/37 38/38/38 39/39/39
f 40/40/40 41/41/41 42/42/42
f 43/43/43 44/44/44 45/45/45
