v -3.000000 -23.000000 -33.000000 
v -3.000000 0.000000 -37.000000 
v 24.000000 0.000000 -40.000000 
v 24.000000 -22.000000 -35.000000 
v -3.000000 -23.000000 -33.000000 
v 24.000000 0.000000 -40.000000 
v -3.000000 -43.000000 -18.000000 
v -3.000000 -23.000000 -33.000000 
v 24.000000 -22.000000 -35.000000 
v 24.000000 -43.000000 -19.000000 
v -3.000000 -43.000000 -18.000000 
v 24.000000 -22.000000 -35.000000 
v -3.000000 -43.000000 6.000000 
v -3.000000 -43.000000 -18.000000 
v 24.000000 -43.000000 -19.000000 
v 24.000000 -43.000000 6.000000 
v -3.000000 -43.000000 6.000000 
v 24.000000 -43.000000 -19.000000 
v -3.000000 -22.000000 31.000000 
v -3.000000 -43.000000 6.000000 
v 24.000000 -43.000000 6.000000 
v 24.000000 -22.000000 34.000000 
v -3.000000 -22.000000 31.000000 
v 24.000000 -43.000000 6.000000 
v -3.000000 -1.000000 36.000000 
v -3.000000 -22.000000 31.000000 
v 24.000000 -22.000000 34.000000 
v 24.000000 -1.000000 39.000000 
v -3.000000 -1.000000 36.000000 
v 24.000000 -22.000000 34.000000 
v -3.000000 20.000000 32.000000 
v -3.000000 -1.000000 36.000000 
v 24.000000 -1.000000 39.000000 
v 24.000000 20.000000 34.000000 
v -3.000000 20.000000 32.000000 
v 24.000000 -1.000000 39.000000 
v -3.000000 40.000000 6.000000 
v -3.000000 20.000000 32.000000 
v 24.000000 20.000000 34.000000 
v 24.000000 41.000000 6.000000 
v -3.000000 40.000000 6.000000 
v 24.000000 20.000000 34.000000 
v -3.000000 41.000000 -18.000000 
v -3.000000 40.000000 6.000000 
v 24.000000 41.000000 6.000000 
v 24.000000 41.000000 -19.000000 
v -3.000000 41.000000 -18.000000 
v 24.000000 41.000000 6.000000 
v -3.000000 21.000000 -33.000000 
v -3.000000 41.000000 -18.000000 
v 24.000000 41.000000 -19.000000 
v 24.000000 20.000000 -35.000000 
v -3.000000 21.000000 -33.000000 
v 24.000000 41.000000 -19.000000 
v -3.000000 0.000000 -37.000000 
v -3.000000 21.000000 -33.000000 
v 24.000000 20.000000 -35.000000 
v 24.000000 0.000000 -40.000000 
v -3.000000 0.000000 -37.000000 
v 24.000000 20.000000 -35.000000 
vn -0.156250 -0.343018 -0.926025 
vn -0.202637 -0.181152 -0.962158 
vn -0.132812 -0.216064 -0.967041 
vn -0.080811 -0.421143 -0.903320 
vn -0.156250 -0.343018 -0.926025 
vn -0.132812 -0.216064 -0.967041 
vn -0.089111 -0.803467 -0.588379 
vn -0.156250 -0.343018 -0.926025 
vn -0.080811 -0.421143 -0.903320 
vn -0.029541 -0.887207 -0.460205 
vn -0.089111 -0.803467 -0.588379 
vn -0.080811 -0.421143 -0.903320 
vn 0.007812 -0.976074 0.216064 
vn -0.089111 -0.803467 -0.588379 
vn -0.029541 -0.887207 -0.460205 
vn 0.062744 -0.947266 0.313477 
vn 0.007812 -0.976074 0.216064 
vn -0.029541 -0.887207 -0.460205 
vn 0.018066 -0.634521 0.772461 
vn 0.007812 -0.976074 0.216064 
vn 0.062744 -0.947266 0.313477 
vn 0.038818 -0.554199 0.831299 
vn 0.018066 -0.634521 0.772461 
vn 0.062744 -0.947266 0.313477 
vn -0.020996 -0.083984 0.996094 
vn 0.018066 -0.634521 0.772461 
vn 0.038818 -0.554199 0.831299 
vn 0.011230 -0.007812 0.999756 
vn -0.020996 -0.083984 0.996094 
vn 0.038818 -0.554199 0.831299 
vn -0.006836 0.423096 0.905762 
vn -0.020996 -0.083984 0.996094 
vn 0.011230 -0.007812 0.999756 
vn 0.037109 0.547119 0.835938 
vn -0.006836 0.423096 0.905762 
vn 0.011230 -0.007812 0.999756 
vn 0.016113 0.902588 0.429688 
vn -0.006836 0.423096 0.905762 
vn 0.037109 0.547119 0.835938 
vn 0.055664 0.950928 0.304199 
vn 0.016113 0.902588 0.429688 
vn 0.037109 0.547119 0.835938 
vn -0.058838 0.956787 -0.284424 
vn 0.016113 0.902588 0.429688 
vn 0.055664 0.950928 0.304199 
vn -0.029053 0.892822 -0.449219 
vn -0.058838 0.956787 -0.284424 
vn 0.055664 0.950928 0.304199 
vn -0.140137 0.473389 -0.869385 
vn -0.058838 0.956787 -0.284424 
vn -0.029053 0.892822 -0.449219 
vn -0.102539 0.407227 -0.907227 
vn -0.140137 0.473389 -0.869385 
vn -0.029053 0.892822 -0.449219 
vn -0.163086 0.196777 -0.966553 
vn -0.140137 0.473389 -0.869385 
vn -0.102539 0.407227 -0.907227 
vn -0.197510 0.231934 -0.952393 
vn -0.197510 0.231934 -0.952393 
vn -0.102539 0.407227 -0.907227 
vt 0.063492 0.412698 
vt 0.000000 0.412698 
vt 0.000000 0.523810 
vt 0.063492 0.523810 
vt 0.063492 0.412698 
vt 0.000000 0.523810 
vt 0.142857 0.412698 
vt 0.063492 0.412698 
vt 0.063492 0.523810 
vt 0.142857 0.523810 
vt 0.142857 0.412698 
vt 0.063492 0.523810 
vt 0.238095 0.412698 
vt 0.142857 0.412698 
vt 0.142857 0.523810 
vt 0.238095 0.523810 
vt 0.238095 0.412698 
vt 0.142857 0.523810 
vt 0.349206 0.412698 
vt 0.238095 0.412698 
vt 0.238095 0.523810 
vt 0.349206 0.523810 
vt 0.349206 0.412698 
vt 0.238095 0.523810 
vt 0.476190 0.412698 
vt 0.349206 0.412698 
vt 0.349206 0.523810 
vt 0.476190 0.523810 
vt 0.476190 0.412698 
vt 0.349206 0.523810 
vt 0.634921 0.412698 
vt 0.476190 0.412698 
vt 0.476190 0.523810 
vt 0.634921 0.523810 
vt 0.634921 0.412698 
vt 0.476190 0.523810 
vt 0.746032 0.412698 
vt 0.634921 0.412698 
vt 0.634921 0.523810 
vt 0.746032 0.523810 
vt 0.746032 0.412698 
vt 0.634921 0.523810 
vt 0.841270 0.412698 
vt 0.746032 0.412698 
vt 0.746032 0.523810 
vt 0.841270 0.523810 
vt 0.841270 0.412698 
vt 0.746032 0.523810 
vt 0.952381 0.412698 
vt 0.841270 0.412698 
vt 0.841270 0.523810 
vt 0.952381 0.523810 
vt 0.952381 0.412698 
vt 0.841270 0.523810 
vt 0.984127 0.412698 
vt 0.952381 0.412698 
vt 0.952381 0.523810 
vt 0.984127 0.523810 
vt 0.984127 0.412698 
vt 0.952381 0.523810 
f 1/1/1 2/2/2 3/3/3
f 4/4/4 5/5/5 6/6/6
f 7/7/7 8/8/8 9/9/9
f 10/10/10 11/11/11 12/12/12
f 13/13/13 14/14/14 15/15/15
f 16/16/16 17/17/17 18/18/18
f 19/19/19 20/20/20 21/21/21
f 22/22/22 23/23/23 24/24/24
f 25/25/25 26/26/26 27/27/27
f 28/28/28 29/29/29 30/30/30
f 31/31/31 32/32/32 33/33/33
f 34/34/34 35/35/35 36/36/36
f 37/37/37 38/38/38 39/39/39
f 40/40/40 41/41/41 42/42/42
f 43/43/43 44/44/44 45/45/45
f 46/46/46 47/47/47 48/48/48
f 49/49/49 50/50/50 51/51/51
f 52/52/52 53/53/53 54/54/54
f 55/55/55 56/56/56 57/57/57
f 58/58/58 59/59/59 60/60/60
