v 3.000000 0.000000 21.000000 
v 2.000000 31.000000 16.000000 
v -14.000000 0.000000 46.000000 
v 2.000000 -32.000000 16.000000 
v 3.000000 0.000000 21.000000 
v -14.000000 0.000000 46.000000 
vn 0.100586 -0.000244 0.994873 
vn 0.224365 0.711670 0.665527 
vn 0.590820 0.000000 0.806641 
vn 0.224121 -0.711914 0.665283 
vn 0.100586 -0.000244 0.994873 
vn 0.590820 0.000000 0.806641 
vt 0.031746 0.307087 
vt 0.380952 0.157480 
vt 0.031746 0.992126 
vt 0.380952 0.157480 
vt 0.031746 0.307087 
vt 0.031746 0.992126 
f 1/1/1 2/2/2 3/3/3
f 4/4/4 5/5/5 6/6/6
