v 38.000000 75.000000 256.000000 
v 38.000000 67.000000 261.000000 
v 31.000000 75.000000 253.000000 
v 38.000000 67.000000 261.000000 
v 31.000000 64.000000 260.000000 
v 31.000000 75.000000 253.000000 
v 38.000000 67.000000 261.000000 
v 38.000000 67.000000 271.000000 
v 31.000000 64.000000 260.000000 
v 38.000000 67.000000 271.000000 
v 31.000000 64.000000 272.000000 
v 31.000000 64.000000 260.000000 
v 38.000000 67.000000 271.000000 
v 38.000000 75.000000 276.000000 
v 31.000000 64.000000 272.000000 
v 38.000000 75.000000 276.000000 
v 31.000000 75.000000 278.000000 
v 31.000000 64.000000 272.000000 
v 38.000000 75.000000 276.000000 
v 38.000000 84.000000 271.000000 
v 31.000000 75.000000 278.000000 
v 38.000000 84.000000 271.000000 
v 31.000000 86.000000 272.000000 
v 31.000000 75.000000 278.000000 
v 38.000000 84.000000 271.000000 
v 38.000000 84.000000 261.000000 
v 31.000000 86.000000 272.000000 
v 38.000000 84.000000 261.000000 
v 31.000000 86.000000 260.000000 
v 31.000000 86.000000 272.000000 
v 38.000000 84.000000 261.000000 
v 38.000000 75.000000 256.000000 
v 31.000000 86.000000 260.000000 
v 38.000000 75.000000 256.000000 
v 31.000000 75.000000 253.000000 
v 31.000000 86.000000 260.000000 
v 38.000000 67.000000 261.000000 
v 38.000000 75.000000 256.000000 
v 38.000000 75.000000 266.000000 
v 38.000000 75.000000 256.000000 
v 38.000000 84.000000 261.000000 
v 38.000000 75.000000 266.000000 
v 38.000000 67.000000 271.000000 
v 38.000000 67.000000 261.000000 
v 38.000000 75.000000 266.000000 
v 38.000000 84.000000 261.000000 
v 38.000000 84.000000 271.000000 
v 38.000000 75.000000 266.000000 
v 38.000000 75.000000 276.000000 
v 38.000000 67.000000 271.000000 
v 38.000000 75.000000 266.000000 
v 38.000000 84.000000 271.000000 
v 38.000000 75.000000 276.000000 
v 38.000000 75.000000 266.000000 
vn 0.779053 0.118408 -0.615479 
vn 0.779053 -0.473633 -0.410156 
vn 0.397705 -0.173340 -0.900879 
vn 0.779053 -0.473633 -0.410156 
vn 0.397705 -0.866699 -0.300293 
vn 0.397705 -0.173340 -0.900879 
vn 0.779053 -0.473633 -0.410156 
vn 0.779053 -0.592285 0.205078 
vn 0.397705 -0.866699 -0.300293 
vn 0.779053 -0.592285 0.205078 
vn 0.397705 -0.693359 0.600586 
vn 0.397705 -0.866699 -0.300293 
vn 0.779053 -0.592285 0.205078 
vn 0.779053 -0.118408 0.615479 
vn 0.397705 -0.693359 0.600586 
vn 0.779053 -0.118408 0.615479 
vn 0.397705 0.173340 0.900879 
vn 0.397705 -0.693359 0.600586 
vn 0.779053 -0.118408 0.615479 
vn 0.779053 0.473633 0.410156 
vn 0.397705 0.173340 0.900879 
vn 0.779053 0.473633 0.410156 
vn 0.397705 0.866699 0.300293 
vn 0.397705 0.173340 0.900879 
vn 0.779053 0.473633 0.410156 
vn 0.779053 0.592285 -0.205078 
vn 0.397705 0.866699 0.300293 
vn 0.779053 0.592285 -0.205078 
vn 0.397705 0.693359 -0.600586 
vn 0.397705 0.866699 0.300293 
vn 0.779053 0.592285 -0.205078 
vn 0.779053 0.118408 -0.615479 
vn 0.397705 0.693359 -0.600586 
vn 0.779053 0.118408 -0.615479 
vn 0.397705 -0.173340 -0.900879 
vn 0.397705 0.693359 -0.600586 
vn 0.779053 -0.473633 -0.410156 
vn 0.779053 0.118408 -0.615479 
vn 1.000000 0.000000 0.000000 
vn 0.779053 0.118408 -0.615479 
vn 0.779053 0.592285 -0.205078 
vn 1.000000 0.000000 0.000000 
vn 0.779053 -0.592285 0.205078 
vn 0.779053 -0.473633 -0.410156 
vn 1.000000 0.000000 0.000000 
vn 0.779053 0.592285 -0.205078 
vn 0.779053 0.473633 0.410156 
vn 1.000000 0.000000 0.000000 
vn 0.779053 -0.118408 0.615479 
vn 0.779053 -0.592285 0.205078 
vn 1.000000 0.000000 0.000000 
vn 0.779053 0.473633 0.410156 
vn 0.779053 -0.118408 0.615479 
vn 1.000000 0.000000 0.000000 
vt 0.451613 0.466667 
vt 0.322581 0.066667 
vt 0.483871 0.466667 
vt 0.322581 0.066667 
vt 0.354839 0.000000 
vt 0.483871 0.466667 
vt 0.322581 0.066667 
vt 0.129032 0.066667 
vt 0.354839 0.000000 
vt 0.129032 0.066667 
vt 0.096774 0.000000 
vt 0.354839 0.000000 
vt 0.129032 0.066667 
vt 0.032258 0.466667 
vt 0.096774 0.000000 
vt 0.032258 0.466667 
vt 0.000000 0.466667 
vt 0.096774 0.000000 
vt 0.032258 0.466667 
vt 0.129032 0.866667 
vt 0.000000 0.466667 
vt 0.129032 0.866667 
vt 0.096774 0.933333 
vt 0.000000 0.466667 
vt 0.129032 0.866667 
vt 0.322581 0.866667 
vt 0.096774 0.933333 
vt 0.322581 0.866667 
vt 0.354839 0.933333 
vt 0.096774 0.933333 
vt 0.322581 0.866667 
vt 0.451613 0.466667 
vt 0.354839 0.933333 
vt 0.451613 0.466667 
vt 0.483871 0.466667 
vt 0.354839 0.933333 
vt 0.322581 0.066667 
vt 0.451613 0.466667 
vt 0.225806 0.466667 
vt 0.451613 0.466667 
vt 0.322581 0.866667 
vt 0.225806 0.466667 
vt 0.129032 0.066667 
vt 0.322581 0.066667 
vt 0.225806 0.466667 
vt 0.322581 0.866667 
vt 0.129032 0.866667 
vt 0.225806 0.466667 
vt 0.032258 0.466667 
vt 0.129032 0.066667 
vt 0.225806 0.466667 
vt 0.129032 0.866667 
vt 0.032258 0.466667 
vt 0.225806 0.466667 
f 1/1/1 2/2/2 3/3/3
f 4/4/4 5/5/5 6/6/6
f 7/7/7 8/8/8 9/9/9
f 10/10/10 11/11/11 12/12/12
f 13/13/13 14/14/14 15/15/15
f 16/16/16 17/17/17 18/18/18
f 19/19/19 20/20/20 21/21/21
f 22/22/22 23/23/23 24/24/24
f 25/25/25 26/26/26 27/27/27
f 28/28/28 29/29/29 30/30/30
f 31/31/31 32/32/32 33/33/33
f 34/34/34 35/35/35 36/36/36
f 37/37/37 38/38/38 39/39/39
f 40/40/40 41/41/41 42/42/42
f 43/43/43 44/44/44 45/45/45
f 46/46/46 47/47/47 48/48/48
f 49/49/49 50/50/50 51/51/51
f 52/52/52 53/53/53 54/54/54
