v 13660.000000 17307.000000 0.000000 
v 15604.000000 7073.000000 4181.000000 
v 13194.000000 17307.000000 3535.000000 
v 15604.000000 7073.000000 4181.000000 
v 13660.000000 17307.000000 0.000000 
v 16155.000000 7073.000000 0.000000 
v 13194.000000 17307.000000 3535.000000 
v 13990.000000 7073.000000 8077.000000 
v 11830.000000 17307.000000 6830.000000 
v 13990.000000 7073.000000 8077.000000 
v 13194.000000 17307.000000 3535.000000 
v 15604.000000 7073.000000 4181.000000 
v 11830.000000 17307.000000 6830.000000 
v 11423.000000 7073.000000 11423.000000 
v 9659.000000 17307.000000 9659.000000 
v 11423.000000 7073.000000 11423.000000 
v 11830.000000 17307.000000 6830.000000 
v 13990.000000 7073.000000 8077.000000 
v 9659.000000 17307.000000 9659.000000 
v 8077.000000 7073.000000 13990.000000 
v 6830.000000 17307.000000 11830.000000 
v 8077.000000 7073.000000 13990.000000 
v 9659.000000 17307.000000 9659.000000 
v 11423.000000 7073.000000 11423.000000 
v 6830.000000 17307.000000 11830.000000 
v 4181.000000 7073.000000 15604.000000 
v 3535.000000 17307.000000 13194.000000 
v 4181.000000 7073.000000 15604.000000 
v 6830.000000 17307.000000 11830.000000 
v 8077.000000 7073.000000 13990.000000 
v 3535.000000 17307.000000 13194.000000 
v 0.000000 7073.000000 16155.000000 
v 0.000000 17307.000000 13660.000000 
v 0.000000 7073.000000 16155.000000 
v 3535.000000 17307.000000 13194.000000 
v 4181.000000 7073.000000 15604.000000 
v 0.000000 17307.000000 13660.000000 
v -4181.000000 7073.000000 15604.000000 
v -3535.000000 17307.000000 13194.000000 
v -4181.000000 7073.000000 15604.000000 
v 0.000000 17307.000000 13660.000000 
v 0.000000 7073.000000 16155.000000 
v -3535.000000 17307.000000 13194.000000 
v -8077.000000 7073.000000 13990.000000 
v -6830.000000 17307.000000 11830.000000 
v -8077.000000 7073.000000 13990.000000 
v -3535.000000 17307.000000 13194.000000 
v -4181.000000 7073.000000 15604.000000 
v -6830.000000 17307.000000 11830.000000 
v -11423.000000 7073.000000 11423.000000 
v -9659.000000 17307.000000 9659.000000 
v -11423.000000 7073.000000 11423.000000 
v -6830.000000 17307.000000 11830.000000 
v -8077.000000 7073.000000 13990.000000 
v -9659.000000 17307.000000 9659.000000 
v -13990.000000 7073.000000 8077.000000 
v -11830.000000 17307.000000 6830.000000 
v -13990.000000 7073.000000 8077.000000 
v -9659.000000 17307.000000 9659.000000 
v -11423.000000 7073.000000 11423.000000 
v -11830.000000 17307.000000 6830.000000 
v -15604.000000 7073.000000 4181.000000 
v -13194.000000 17307.000000 3535.000000 
v -15604.000000 7073.000000 4181.000000 
v -11830.000000 17307.000000 6830.000000 
v -13990.000000 7073.000000 8077.000000 
v -13194.000000 17307.000000 3535.000000 
v -16155.000000 7073.000000 0.000000 
v -13660.000000 17307.000000 0.000000 
v -16155.000000 7073.000000 0.000000 
v -13194.000000 17307.000000 3535.000000 
v -15604.000000 7073.000000 4181.000000 
v -13660.000000 17307.000000 0.000000 
v -15604.000000 7073.000000 -4181.000000 
v -13194.000000 17307.000000 -3535.000000 
v -15604.000000 7073.000000 -4181.000000 
v -13660.000000 17307.000000 0.000000 
v -16155.000000 7073.000000 0.000000 
v -13194.000000 17307.000000 -3535.000000 
v -13990.000000 7073.000000 -8077.000000 
v -11830.000000 17307.000000 -6830.000000 
v -13990.000000 7073.000000 -8077.000000 
v -13194.000000 17307.000000 -3535.000000 
v -15604.000000 7073.000000 -4181.000000 
v -11830.000000 17307.000000 -6830.000000 
v -11423.000000 7073.000000 -11423.000000 
v -9659.000000 17307.000000 -9659.000000 
v -11423.000000 7073.000000 -11423.000000 
v -11830.000000 17307.000000 -6830.000000 
v -13990.000000 7073.000000 -8077.000000 
v -9659.000000 17307.000000 -9659.000000 
v -8077.000000 7073.000000 -13990.000000 
v -6830.000000 17307.000000 -11830.000000 
v -8077.000000 7073.000000 -13990.000000 
v -9659.000000 17307.000000 -9659.000000 
v -11423.000000 7073.000000 -11423.000000 
v -6830.000000 17307.000000 -11830.000000 
v -4181.000000 7073.000000 -15604.000000 
v -3535.000000 17307.000000 -13194.000000 
v -4181.000000 7073.000000 -15604.000000 
v -6830.000000 17307.000000 -11830.000000 
v -8077.000000 7073.000000 -13990.000000 
v -3535.000000 17307.000000 -13194.000000 
v 0.000000 7073.000000 -16155.000000 
v 0.000000 17307.000000 -13660.000000 
v 0.000000 7073.000000 -16155.000000 
v -3535.000000 17307.000000 -13194.000000 
v -4181.000000 7073.000000 -15604.000000 
v 0.000000 17307.000000 -13660.000000 
v 4181.000000 7073.000000 -15604.000000 
v 3535.000000 17307.000000 -13194.000000 
v 4181.000000 7073.000000 -15604.000000 
v 0.000000 17307.000000 -13660.000000 
v 0.000000 7073.000000 -16155.000000 
v 3535.000000 17307.000000 -13194.000000 
v 8077.000000 7073.000000 -13990.000000 
v 6830.000000 17307.000000 -11830.000000 
v 8077.000000 7073.000000 -13990.000000 
v 3535.000000 17307.000000 -13194.000000 
v 4181.000000 7073.000000 -15604.000000 
v 6830.000000 17307.000000 -11830.000000 
v 11423.000000 7073.000000 -11423.000000 
v 9659.000000 17307.000000 -9659.000000 
v 11423.000000 7073.000000 -11423.000000 
v 6830.000000 17307.000000 -11830.000000 
v 8077.000000 7073.000000 -13990.000000 
v 9659.000000 17307.000000 -9659.000000 
v 13990.000000 7073.000000 -8077.000000 
v 11830.000000 17307.000000 -6830.000000 
v 13990.000000 7073.000000 -8077.000000 
v 9659.000000 17307.000000 -9659.000000 
v 11423.000000 7073.000000 -11423.000000 
v 11830.000000 17307.000000 -6830.000000 
v 15604.000000 7073.000000 -4181.000000 
v 13194.000000 17307.000000 -3535.000000 
v 15604.000000 7073.000000 -4181.000000 
v 11830.000000 17307.000000 -6830.000000 
v 13990.000000 7073.000000 -8077.000000 
v 13194.000000 17307.000000 -3535.000000 
v 16155.000000 7073.000000 0.000000 
v 13660.000000 17307.000000 0.000000 
v 16155.000000 7073.000000 0.000000 
v 13194.000000 17307.000000 -3535.000000 
v 15604.000000 7073.000000 -4181.000000 
vn -0.797363 -0.602295 -0.034912 
vn -0.912842 -0.322998 -0.249268 
vn -0.760986 -0.602295 -0.239990 
vn -0.912842 -0.322998 -0.249268 
vn -0.797363 -0.602295 -0.034912 
vn -0.946289 -0.322998 -0.004395 
vn -0.760986 -0.602295 -0.239990 
vn -0.817139 -0.322998 -0.477051 
vn -0.672852 -0.602295 -0.428955 
vn -0.817139 -0.322998 -0.477051 
vn -0.760986 -0.602295 -0.239990 
vn -0.912842 -0.322998 -0.249268 
vn -0.672852 -0.602295 -0.428955 
vn -0.665771 -0.322998 -0.672363 
vn -0.539062 -0.602295 -0.588379 
vn -0.665771 -0.322998 -0.672363 
vn -0.672852 -0.602295 -0.428955 
vn -0.817139 -0.322998 -0.477051 
vn -0.539062 -0.602295 -0.588379 
vn -0.468994 -0.322998 -0.821777 
vn -0.368164 -0.602295 -0.708008 
vn -0.468994 -0.322998 -0.821777 
vn -0.539062 -0.602295 -0.588379 
vn -0.665771 -0.322998 -0.672363 
vn -0.368164 -0.602295 -0.708008 
vn -0.240234 -0.322998 -0.915039 
vn -0.172363 -0.602295 -0.779297 
vn -0.240234 -0.322998 -0.915039 
vn -0.368164 -0.602295 -0.708008 
vn -0.468994 -0.322998 -0.821777 
vn -0.172363 -0.602295 -0.779297 
vn 0.004395 -0.322998 -0.946289 
vn 0.034912 -0.602295 -0.797363 
vn 0.004395 -0.322998 -0.946289 
vn -0.172363 -0.602295 -0.779297 
vn -0.240234 -0.322998 -0.915039 
vn 0.034912 -0.602295 -0.797363 
vn 0.249268 -0.322998 -0.912842 
vn 0.239990 -0.602295 -0.760986 
vn 0.249268 -0.322998 -0.912842 
vn 0.034912 -0.602295 -0.797363 
vn 0.004395 -0.322998 -0.946289 
vn 0.239990 -0.602295 -0.760986 
vn 0.477051 -0.322998 -0.817139 
vn 0.428955 -0.602295 -0.672852 
vn 0.477051 -0.322998 -0.817139 
vn 0.239990 -0.602295 -0.760986 
vn 0.249268 -0.322998 -0.912842 
vn 0.428955 -0.602295 -0.672852 
vn 0.672363 -0.322998 -0.665771 
vn 0.588379 -0.602295 -0.539062 
vn 0.672363 -0.322998 -0.665771 
vn 0.428955 -0.602295 -0.672852 
vn 0.477051 -0.322998 -0.817139 
vn 0.588379 -0.602295 -0.539062 
vn 0.821777 -0.322998 -0.468994 
vn 0.708008 -0.602295 -0.368164 
vn 0.821777 -0.322998 -0.468994 
vn 0.588379 -0.602295 -0.539062 
vn 0.672363 -0.322998 -0.665771 
vn 0.708008 -0.602295 -0.368164 
vn 0.915039 -0.322998 -0.240234 
vn 0.779297 -0.602295 -0.172363 
vn 0.915039 -0.322998 -0.240234 
vn 0.708008 -0.602295 -0.368164 
vn 0.821777 -0.322998 -0.468994 
vn 0.779297 -0.602295 -0.172363 
vn 0.946289 -0.322998 0.004395 
vn 0.797363 -0.602295 0.034912 
vn 0.946289 -0.322998 0.004395 
vn 0.779297 -0.602295 -0.172363 
vn 0.915039 -0.322998 -0.240234 
vn 0.797363 -0.602295 0.034912 
vn 0.912842 -0.322998 0.249268 
vn 0.760986 -0.602295 0.239990 
vn 0.912842 -0.322998 0.249268 
vn 0.797363 -0.602295 0.034912 
vn 0.946289 -0.322998 0.004395 
vn 0.760986 -0.602295 0.239990 
vn 0.817139 -0.322998 0.477051 
vn 0.672852 -0.602295 0.428955 
vn 0.817139 -0.322998 0.477051 
vn 0.760986 -0.602295 0.239990 
vn 0.912842 -0.322998 0.249268 
vn 0.672852 -0.602295 0.428955 
vn 0.665771 -0.322998 0.672363 
vn 0.539062 -0.602295 0.588379 
vn 0.665771 -0.322998 0.672363 
vn 0.672852 -0.602295 0.428955 
vn 0.817139 -0.322998 0.477051 
vn 0.539062 -0.602295 0.588379 
vn 0.468994 -0.322998 0.821777 
vn 0.368164 -0.602295 0.708008 
vn 0.468994 -0.322998 0.821777 
vn 0.539062 -0.602295 0.588379 
vn 0.665771 -0.322998 0.672363 
vn 0.368164 -0.602295 0.708008 
vn 0.240234 -0.322998 0.915039 
vn 0.172363 -0.602295 0.779297 
vn 0.240234 -0.322998 0.915039 
vn 0.368164 -0.602295 0.708008 
vn 0.468994 -0.322998 0.821777 
vn 0.172363 -0.602295 0.779297 
vn -0.004395 -0.322998 0.946289 
vn -0.034912 -0.602295 0.797363 
vn -0.004395 -0.322998 0.946289 
vn 0.172363 -0.602295 0.779297 
vn 0.240234 -0.322998 0.915039 
vn -0.034912 -0.602295 0.797363 
vn -0.249268 -0.322998 0.912842 
vn -0.239990 -0.602295 0.760986 
vn -0.249268 -0.322998 0.912842 
vn -0.034912 -0.602295 0.797363 
vn -0.004395 -0.322998 0.946289 
vn -0.239990 -0.602295 0.760986 
vn -0.477051 -0.322998 0.817139 
vn -0.428955 -0.602295 0.672852 
vn -0.477051 -0.322998 0.817139 
vn -0.239990 -0.602295 0.760986 
vn -0.249268 -0.322998 0.912842 
vn -0.428955 -0.602295 0.672852 
vn -0.672363 -0.322998 0.665771 
vn -0.588379 -0.602295 0.539062 
vn -0.672363 -0.322998 0.665771 
vn -0.428955 -0.602295 0.672852 
vn -0.477051 -0.322998 0.817139 
vn -0.588379 -0.602295 0.539062 
vn -0.821777 -0.322998 0.468994 
vn -0.708008 -0.602295 0.368164 
vn -0.821777 -0.322998 0.468994 
vn -0.588379 -0.602295 0.539062 
vn -0.672363 -0.322998 0.665771 
vn -0.708008 -0.602295 0.368164 
vn -0.915039 -0.322998 0.240234 
vn -0.779297 -0.602295 0.172363 
vn -0.915039 -0.322998 0.240234 
vn -0.708008 -0.602295 0.368164 
vn -0.821777 -0.322998 0.468994 
vn -0.779297 -0.602295 0.172363 
vn -0.946289 -0.322998 -0.004395 
vn -0.797363 -0.602295 -0.034912 
vn -0.946289 -0.322998 -0.004395 
vn -0.779297 -0.602295 0.172363 
vn -0.915039 -0.322998 0.240234 
vt 1.000000 1.000000 
vt 0.749020 0.000000 
vt 0.749020 1.000000 
vt 0.749020 0.000000 
vt 1.000000 1.000000 
vt 1.000000 0.000000 
vt 0.749020 1.000000 
vt 0.498039 0.000000 
vt 0.498039 1.000000 
vt 0.498039 0.000000 
vt 0.749020 1.000000 
vt 0.749020 0.000000 
vt 0.498039 1.000000 
vt 0.247059 0.000000 
vt 0.247059 1.000000 
vt 0.247059 0.000000 
vt 0.498039 1.000000 
vt 0.498039 0.000000 
vt 0.247059 1.000000 
vt 0.996078 0.000000 
vt 0.996078 1.000000 
vt 0.996078 0.000000 
vt 0.247059 1.000000 
vt 0.247059 0.000000 
vt 1.000000 1.000000 
vt 0.756863 0.000000 
vt 0.756863 1.000000 
vt 0.756863 0.000000 
vt 1.000000 1.000000 
vt 1.000000 0.000000 
vt 0.756863 1.000000 
vt 0.498039 0.000000 
vt 0.498039 1.000000 
vt 0.498039 0.000000 
vt 0.756863 1.000000 
vt 0.756863 0.000000 
vt 0.498039 1.000000 
vt 0.239216 0.000000 
vt 0.239216 1.000000 
vt 0.239216 0.000000 
vt 0.498039 1.000000 
vt 0.498039 0.000000 
vt 0.239216 1.000000 
vt 0.000000 0.000000 
vt 0.000000 1.000000 
vt 0.000000 0.000000 
vt 0.239216 1.000000 
vt 0.239216 0.000000 
vt 1.000000 1.000000 
vt 0.752941 0.000000 
vt 0.752941 1.000000 
vt 0.752941 0.000000 
vt 1.000000 1.000000 
vt 1.000000 0.000000 
vt 0.752941 1.000000 
vt 0.494118 0.000000 
vt 0.494118 1.000000 
vt 0.494118 0.000000 
vt 0.752941 1.000000 
vt 0.752941 0.000000 
vt 0.494118 1.000000 
vt 0.243137 0.000000 
vt 0.243137 1.000000 
vt 0.243137 0.000000 
vt 0.494118 1.000000 
vt 0.494118 0.000000 
vt 0.243137 1.000000 
vt 0.000000 0.000000 
vt 0.000000 1.000000 
vt 0.000000 0.000000 
vt 0.243137 1.000000 
vt 0.243137 0.000000 
vt 1.000000 1.000000 
vt 0.749020 0.000000 
vt 0.749020 1.000000 
vt 0.749020 0.000000 
vt 1.000000 1.000000 
vt 1.000000 0.000000 
vt 0.749020 1.000000 
vt 0.498039 0.000000 
vt 0.498039 1.000000 
vt 0.498039 0.000000 
vt 0.749020 1.000000 
vt 0.749020 0.000000 
vt 0.498039 1.000000 
vt 0.247059 0.000000 
vt 0.247059 1.000000 
vt 0.247059 0.000000 
vt 0.498039 1.000000 
vt 0.498039 0.000000 
vt 0.247059 1.000000 
vt 0.000000 0.000000 
vt 0.000000 1.000000 
vt 0.000000 0.000000 
vt 0.247059 1.000000 
vt 0.247059 0.000000 
vt 1.000000 1.000000 
vt 0.749020 0.000000 
vt 0.749020 1.000000 
vt 0.749020 0.000000 
vt 1.000000 1.000000 
vt 1.000000 0.000000 
vt 0.749020 1.000000 
vt 0.498039 0.000000 
vt 0.498039 1.000000 
vt 0.498039 0.000000 
vt 0.749020 1.000000 
vt 0.749020 0.000000 
vt 0.498039 1.000000 
vt 0.247059 0.000000 
vt 0.247059 1.000000 
vt 0.247059 0.000000 
vt 0.498039 1.000000 
vt 0.498039 0.000000 
vt 0.247059 1.000000 
vt 0.000000 0.000000 
vt 0.000000 1.000000 
vt 0.000000 0.000000 
vt 0.247059 1.000000 
vt 0.247059 0.000000 
vt 1.000000 1.000000 
vt 0.749020 0.000000 
vt 0.749020 1.000000 
vt 0.749020 0.000000 
vt 1.000000 1.000000 
vt 1.000000 0.000000 
vt 0.749020 1.000000 
vt 0.498039 0.000000 
vt 0.498039 1.000000 
vt 0.498039 0.000000 
vt 0.749020 1.000000 
vt 0.749020 0.000000 
vt 0.498039 1.000000 
vt 0.247059 0.000000 
vt 0.247059 1.000000 
vt 0.247059 0.000000 
vt 0.498039 1.000000 
vt 0.498039 0.000000 
vt 0.247059 1.000000 
vt 0.000000 0.000000 
vt 0.000000 1.000000 
vt 0.000000 0.000000 
vt 0.247059 1.000000 
vt 0.247059 0.000000 
f 1/1/1 2/2/2 3/3/3
f 4/4/4 5/5/5 6/6/6
f 7/7/7 8/8/8 9/9/9
f 10/10/10 11/11/11 12/12/12
f 13/13/13 14/14/14 15/15/15
f 16/16/16 17/17/17 18/18/18
f 19/19/19 20/20/20 21/21/21
f 22/22/22 23/23/23 24/24/24
f 25/25/25 26/26/26 27/27/27
f 28/28/28 29/29/29 30/30/30
f 31/31/31 32/32/32 33/33/33
f 34/34/34 35/35/35 36/36/36
f 37/37/37 38/38/38 39/39/39
f 40/40/40 41/41/41 42/42/42
f 43/43/43 44/44/44 45/45/45
f 46/46/46 47/47/47 48/48/48
f 49/49/49 50/50/50 51/51/51
f 52/52/52 53/53/53 54/54/54
f 55/55/55 56/56/56 57/57/57
f 58/58/58 59/59/59 60/60/60
f 61/61/61 62/62/62 63/63/63
f 64/64/64 65/65/65 66/66/66
f 67/67/67 68/68/68 69/69/69
f 70/70/70 71/71/71 72/72/72
f 73/73/73 74/74/74 75/75/75
f 76/76/76 77/77/77 78/78/78
f 79/79/79 80/80/80 81/81/81
f 82/82/82 83/83/83 84/84/84
f 85/85/85 86/86/86 87/87/87
f 88/88/88 89/89/89 90/90/90
f 91/91/91 92/92/92 93/93/93
f 94/94/94 95/95/95 96/96/96
f 97/97/97 98/98/98 99/99/99
f 100/100/100 101/101/101 102/102/102
f 103/103/103 104/104/104 105/105/105
f 106/106/106 107/107/107 108/108/108
f 109/109/109 110/110/110 111/111/111
f 112/112/112 113/113/113 114/114/114
f 115/115/115 116/116/116 117/117/117
f 118/118/118 119/119/119 120/120/120
f 121/121/121 122/122/122 123/123/123
f 124/124/124 125/125/125 126/126/126
f 127/127/127 128/128/128 129/129/129
f 130/130/130 131/131/131 132/132/132
f 133/133/133 134/134/134 135/135/135
f 136/136/136 137/137/137 138/138/138
f 139/139/139 140/140/140 141/141/141
f 142/142/142 143/143/143 144/144/144
