v 58.000000 -29.000000 9.000000 
v 57.000000 -23.000000 26.000000 
v 26.000000 -28.000000 12.000000 
v 57.000000 -23.000000 26.000000 
v 17.000000 -21.000000 26.000000 
v 26.000000 -28.000000 12.000000 
v 58.000000 -29.000000 9.000000 
v 26.000000 -28.000000 12.000000 
v 35.000000 -23.000000 -2.000000 
v 57.000000 -23.000000 26.000000 
v 57.000000 -8.000000 36.000000 
v 17.000000 -21.000000 26.000000 
v 57.000000 -8.000000 36.000000 
v 12.000000 -6.000000 35.000000 
v 17.000000 -21.000000 26.000000 
v 57.000000 -8.000000 36.000000 
v 58.000000 9.000000 36.000000 
v 12.000000 -6.000000 35.000000 
v 58.000000 9.000000 36.000000 
v 12.000000 11.000000 34.000000 
v 12.000000 -6.000000 35.000000 
v 58.000000 9.000000 36.000000 
v 59.000000 24.000000 24.000000 
v 12.000000 11.000000 34.000000 
v 59.000000 24.000000 24.000000 
v 19.000000 25.000000 25.000000 
v 12.000000 11.000000 34.000000 
v 59.000000 24.000000 24.000000 
v 60.000000 29.000000 7.000000 
v 19.000000 25.000000 25.000000 
v 60.000000 29.000000 7.000000 
v 28.000000 30.000000 10.000000 
v 19.000000 25.000000 25.000000 
v 60.000000 29.000000 7.000000 
v 60.000000 22.000000 -9.000000 
v 28.000000 30.000000 10.000000 
v 60.000000 22.000000 -9.000000 
v 37.000000 23.000000 -3.000000 
v 28.000000 30.000000 10.000000 
v 60.000000 -10.000000 -19.000000 
v 42.000000 -9.000000 -11.000000 
v 42.000000 8.000000 -12.000000 
v 60.000000 -10.000000 -19.000000 
v 59.000000 -24.000000 -7.000000 
v 42.000000 -9.000000 -11.000000 
v 59.000000 -24.000000 -7.000000 
v 35.000000 -23.000000 -2.000000 
v 42.000000 -9.000000 -11.000000 
v 59.000000 -24.000000 -7.000000 
v 58.000000 -29.000000 9.000000 
v 35.000000 -23.000000 -2.000000 
v 86.000000 -24.000000 12.000000 
v 57.000000 -23.000000 26.000000 
v 58.000000 -29.000000 9.000000 
v 86.000000 -24.000000 12.000000 
v 92.000000 -10.000000 21.000000 
v 57.000000 -23.000000 26.000000 
v 92.000000 -10.000000 21.000000 
v 57.000000 -8.000000 36.000000 
v 57.000000 -23.000000 26.000000 
v 92.000000 -10.000000 21.000000 
v 92.000000 8.000000 21.000000 
v 57.000000 -8.000000 36.000000 
v 92.000000 8.000000 21.000000 
v 58.000000 9.000000 36.000000 
v 57.000000 -8.000000 36.000000 
vn 0.258301 -0.964600 -0.049805 
vn 0.514160 -0.741943 0.429932 
vn 0.464600 -0.884033 -0.047607 
vn 0.514160 -0.741943 0.429932 
vn -0.952148 -0.080078 0.294678 
vn 0.464600 -0.884033 -0.047607 
vn 0.258301 -0.964600 -0.049805 
vn 0.464600 -0.884033 -0.047607 
vn 0.911621 -0.251221 -0.324463 
vn 0.514160 -0.741943 0.429932 
vn -0.003174 -0.266357 0.963623 
vn -0.952148 -0.080078 0.294678 
vn -0.003174 -0.266357 0.963623 
vn -0.956299 0.022461 0.291260 
vn -0.952148 -0.080078 0.294678 
vn -0.003174 -0.266357 0.963623 
vn -0.147217 0.343018 0.927490 
vn -0.956299 0.022461 0.291260 
vn -0.147217 0.343018 0.927490 
vn -0.953125 0.081787 0.290771 
vn -0.956299 0.022461 0.291260 
vn -0.147217 0.343018 0.927490 
vn -0.072998 0.824951 0.560303 
vn -0.953125 0.081787 0.290771 
vn -0.072998 0.824951 0.560303 
vn -0.940430 0.189697 0.281982 
vn -0.953125 0.081787 0.290771 
vn -0.072998 0.824951 0.560303 
vn -0.676025 0.721436 0.148438 
vn -0.940430 0.189697 0.281982 
vn -0.676025 0.721436 0.148438 
vn -0.694336 0.713135 0.094482 
vn -0.940430 0.189697 0.281982 
vn -0.676025 0.721436 0.148438 
vn -0.956543 0.289551 0.029785 
vn -0.694336 0.713135 0.094482 
vn -0.956543 0.289551 0.029785 
vn 0.871338 0.243652 -0.425537 
vn -0.694336 0.713135 0.094482 
vn -0.994629 0.008057 0.101562 
vn 0.852051 -0.168701 -0.495361 
vn 0.774658 0.053955 -0.629883 
vn -0.994629 0.008057 0.101562 
vn -0.978027 -0.204346 0.035645 
vn 0.852051 -0.168701 -0.495361 
vn -0.978027 -0.204346 0.035645 
vn 0.911621 -0.251221 -0.324463 
vn 0.852051 -0.168701 -0.495361 
vn -0.978027 -0.204346 0.035645 
vn 0.258301 -0.964600 -0.049805 
vn 0.911621 -0.251221 -0.324463 
vn 0.974365 -0.176514 -0.138672 
vn 0.514160 -0.741943 0.429932 
vn 0.258301 -0.964600 -0.049805 
vn 0.974365 -0.176514 -0.138672 
vn 0.989014 -0.080811 -0.122803 
vn 0.514160 -0.741943 0.429932 
vn 0.989014 -0.080811 -0.122803 
vn -0.003174 -0.266357 0.963623 
vn 0.514160 -0.741943 0.429932 
vn 0.989014 -0.080811 -0.122803 
vn 0.992432 -0.011719 -0.121582 
vn -0.003174 -0.266357 0.963623 
vn 0.992432 -0.011719 -0.121582 
vn -0.147217 0.343018 0.927490 
vn -0.003174 -0.266357 0.963623 
vt 0.866667 0.587302 
vt 0.533333 0.587302 
vt 0.866667 0.396825 
vt 0.533333 0.587302 
vt 0.533333 0.396825 
vt 0.866667 0.396825 
vt 0.866667 0.587302 
vt 0.866667 0.396825 
vt 1.000000 0.396825 
vt 0.533333 0.587302 
vt 0.200000 0.587302 
vt 0.533333 0.396825 
vt 0.200000 0.587302 
vt 0.200000 0.396825 
vt 0.533333 0.396825 
vt 0.200000 0.587302 
vt 0.000000 0.587302 
vt 0.200000 0.396825 
vt 0.000000 0.587302 
vt 0.000000 0.396825 
vt 0.200000 0.396825 
vt 0.000000 0.587302 
vt 0.000000 0.587302 
vt 0.000000 0.396825 
vt 0.000000 0.587302 
vt 0.000000 0.396825 
vt 0.000000 0.396825 
vt 0.000000 0.587302 
vt 0.066667 0.587302 
vt 0.000000 0.396825 
vt 0.066667 0.587302 
vt 0.066667 0.396825 
vt 0.000000 0.396825 
vt 0.066667 0.587302 
vt 0.400000 0.587302 
vt 0.066667 0.396825 
vt 0.400000 0.587302 
vt 0.400000 0.396825 
vt 0.066667 0.396825 
vt 0.933333 0.587302 
vt 0.933333 0.396825 
vt 0.733333 0.396825 
vt 0.933333 0.587302 
vt 1.000000 0.587302 
vt 0.933333 0.396825 
vt 1.000000 0.587302 
vt 1.000000 0.396825 
vt 0.933333 0.396825 
vt 1.000000 0.587302 
vt 0.866667 0.587302 
vt 1.000000 0.396825 
vt 0.533333 0.793651 
vt 0.533333 0.587302 
vt 0.866667 0.587302 
vt 0.533333 0.793651 
vt 0.200000 0.793651 
vt 0.533333 0.587302 
vt 0.200000 0.793651 
vt 0.200000 0.587302 
vt 0.533333 0.587302 
vt 0.200000 0.793651 
vt 0.000000 0.793651 
vt 0.200000 0.587302 
vt 0.000000 0.793651 
vt 0.000000 0.587302 
vt 0.200000 0.587302 
f 1/1/1 2/2/2 3/3/3
f 4/4/4 5/5/5 6/6/6
f 7/7/7 8/8/8 9/9/9
f 10/10/10 11/11/11 12/12/12
f 13/13/13 14/14/14 15/15/15
f 16/16/16 17/17/17 18/18/18
f 19/19/19 20/20/20 21/21/21
f 22/22/22 23/23/23 24/24/24
f 25/25/25 26/26/26 27/27/27
f 28/28/28 29/29/29 30/30/30
f 31/31/31 32/32/32 33/33/33
f 34/34/34 35/35/35 36/36/36
f 37/37/37 38/38/38 39/39/39
f 40/40/40 41/41/41 42/42/42
f 43/43/43 44/44/44 45/45/45
f 46/46/46 47/47/47 48/48/48
f 49/49/49 50/50/50 51/51/51
f 52/52/52 53/53/53 54/54/54
f 55/55/55 56/56/56 57/57/57
f 58/58/58 59/59/59 60/60/60
f 61/61/61 62/62/62 63/63/63
f 64/64/64 65/65/65 66/66/66
