v 10.000000 35.000000 0.000000 
v 5.000000 35.000000 9.000000 
v 11.000000 0.000000 0.000000 
v 5.000000 35.000000 9.000000 
v 5.000000 0.000000 10.000000 
v 11.000000 0.000000 0.000000 
v 5.000000 35.000000 9.000000 
v -5.000000 35.000000 9.000000 
v 5.000000 0.000000 10.000000 
v -5.000000 35.000000 9.000000 
v -5.000000 0.000000 10.000000 
v 5.000000 0.000000 10.000000 
v -5.000000 35.000000 9.000000 
v -10.000000 35.000000 0.000000 
v -5.000000 0.000000 10.000000 
v -10.000000 35.000000 0.000000 
v -11.000000 0.000000 0.000000 
v -5.000000 0.000000 10.000000 
v -10.000000 35.000000 0.000000 
v -5.000000 35.000000 -9.000000 
v -11.000000 0.000000 0.000000 
v -5.000000 35.000000 -9.000000 
v -5.000000 0.000000 -10.000000 
v -11.000000 0.000000 0.000000 
v -5.000000 35.000000 -9.000000 
v 5.000000 35.000000 -9.000000 
v -5.000000 0.000000 -10.000000 
v 5.000000 35.000000 -9.000000 
v 5.000000 0.000000 -10.000000 
v -5.000000 0.000000 -10.000000 
v 5.000000 35.000000 -9.000000 
v 10.000000 35.000000 0.000000 
v 5.000000 0.000000 -10.000000 
v 10.000000 35.000000 0.000000 
v 11.000000 0.000000 0.000000 
v 5.000000 0.000000 -10.000000 
vn 0.981689 0.014404 -0.188721 
vn 0.654541 0.014404 0.755615 
vn 0.981689 0.014404 0.188721 
vn 0.654541 0.014404 0.755615 
vn 0.327148 0.014404 0.944580 
vn 0.981689 0.014404 0.188721 
vn 0.654541 0.014404 0.755615 
vn -0.327148 0.014404 0.944580 
vn 0.327148 0.014404 0.944580 
vn -0.327148 0.014404 0.944580 
vn -0.654541 0.014404 0.755615 
vn 0.327148 0.014404 0.944580 
vn -0.327148 0.014404 0.944580 
vn -0.981689 0.014404 0.188721 
vn -0.654541 0.014404 0.755615 
vn -0.981689 0.014404 0.188721 
vn -0.981689 0.014404 -0.188721 
vn -0.654541 0.014404 0.755615 
vn -0.981689 0.014404 0.188721 
vn -0.654541 0.014404 -0.755615 
vn -0.981689 0.014404 -0.188721 
vn -0.654541 0.014404 -0.755615 
vn -0.327148 0.014404 -0.944580 
vn -0.981689 0.014404 -0.188721 
vn -0.654541 0.014404 -0.755615 
vn 0.327148 0.014404 -0.944580 
vn -0.327148 0.014404 -0.944580 
vn 0.327148 0.014404 -0.944580 
vn 0.654541 0.014404 -0.755615 
vn -0.327148 0.014404 -0.944580 
vn 0.327148 0.014404 -0.944580 
vn 0.981689 0.014404 -0.188721 
vn 0.654541 0.014404 -0.755615 
vn 0.981689 0.014404 -0.188721 
vn 0.981689 0.014404 0.188721 
vn 0.654541 0.014404 -0.755615 
vt 0.967742 0.935484 
vt 0.709677 0.935484 
vt 1.000000 0.032258 
vt 0.709677 0.935484 
vt 0.741935 0.032258 
vt 1.000000 0.032258 
vt 0.709677 0.935484 
vt 0.258065 0.935484 
vt 0.741935 0.032258 
vt 0.258065 0.935484 
vt 0.225806 0.032258 
vt 0.741935 0.032258 
vt 0.258065 0.935484 
vt 0.000000 0.935484 
vt 0.225806 0.032258 
vt 0.000000 0.935484 
vt 0.000000 0.032258 
vt 0.225806 0.032258 
vt 0.000000 0.935484 
vt 0.258065 0.935484 
vt 0.000000 0.032258 
vt 0.258065 0.935484 
vt 0.225806 0.032258 
vt 0.000000 0.032258 
vt 0.258065 0.935484 
vt 0.709677 0.935484 
vt 0.225806 0.032258 
vt 0.709677 0.935484 
vt 0.741935 0.032258 
vt 0.225806 0.032258 
vt 0.709677 0.935484 
vt 0.967742 0.935484 
vt 0.741935 0.032258 
vt 0.967742 0.935484 
vt 1.000000 0.032258 
vt 0.741935 0.032258 
f 1/1/1 2/2/2 3/3/3
f 4/4/4 5/5/5 6/6/6
f 7/7/7 8/8/8 9/9/9
f 10/10/10 11/11/11 12/12/12
f 13/13/13 14/14/14 15/15/15
f 16/16/16 17/17/17 18/18/18
f 19/19/19 20/20/20 21/21/21
f 22/22/22 23/23/23 24/24/24
f 25/25/25 26/26/26 27/27/27
f 28/28/28 29/29/29 30/30/30
f 31/31/31 32/32/32 33/33/33
f 34/34/34 35/35/35 36/36/36
