v 29.000000 122.000000 30.000000 
v 14.000000 122.000000 56.000000 
v 33.000000 111.000000 30.000000 
v 14.000000 122.000000 56.000000 
v 16.000000 111.000000 59.000000 
v 33.000000 111.000000 30.000000 
v 14.000000 122.000000 56.000000 
v -14.000000 122.000000 56.000000 
v 16.000000 111.000000 59.000000 
v -14.000000 122.000000 56.000000 
v -16.000000 111.000000 59.000000 
v 16.000000 111.000000 59.000000 
v -14.000000 122.000000 56.000000 
v -29.000000 122.000000 30.000000 
v -16.000000 111.000000 59.000000 
v -29.000000 122.000000 30.000000 
v -33.000000 111.000000 30.000000 
v -16.000000 111.000000 59.000000 
v -29.000000 122.000000 30.000000 
v -14.000000 122.000000 5.000000 
v -33.000000 111.000000 30.000000 
v -14.000000 122.000000 5.000000 
v -16.000000 111.000000 1.000000 
v -33.000000 111.000000 30.000000 
v -14.000000 122.000000 5.000000 
v 14.000000 122.000000 5.000000 
v -16.000000 111.000000 1.000000 
v 14.000000 122.000000 5.000000 
v 16.000000 111.000000 1.000000 
v -16.000000 111.000000 1.000000 
v 14.000000 122.000000 5.000000 
v 29.000000 122.000000 30.000000 
v 16.000000 111.000000 1.000000 
v 29.000000 122.000000 30.000000 
v 33.000000 111.000000 30.000000 
v 16.000000 111.000000 1.000000 
v 6.000000 131.000000 30.000000 
v 3.000000 131.000000 35.000000 
v 29.000000 122.000000 30.000000 
v 3.000000 131.000000 35.000000 
v 14.000000 122.000000 56.000000 
v 29.000000 122.000000 30.000000 
v 3.000000 131.000000 35.000000 
v -3.000000 131.000000 35.000000 
v 14.000000 122.000000 56.000000 
v -3.000000 131.000000 35.000000 
v -14.000000 122.000000 56.000000 
v 14.000000 122.000000 56.000000 
v -3.000000 131.000000 35.000000 
v -6.000000 131.000000 30.000000 
v -14.000000 122.000000 56.000000 
v -6.000000 131.000000 30.000000 
v -29.000000 122.000000 30.000000 
v -14.000000 122.000000 56.000000 
v -6.000000 131.000000 30.000000 
v -3.000000 131.000000 25.000000 
v -29.000000 122.000000 30.000000 
v -3.000000 131.000000 25.000000 
v -14.000000 122.000000 5.000000 
v -29.000000 122.000000 30.000000 
v -3.000000 131.000000 25.000000 
v 3.000000 131.000000 25.000000 
v -14.000000 122.000000 5.000000 
v 3.000000 131.000000 25.000000 
v 14.000000 122.000000 5.000000 
v -14.000000 122.000000 5.000000 
v 3.000000 131.000000 25.000000 
v 6.000000 131.000000 30.000000 
v 14.000000 122.000000 5.000000 
v 6.000000 131.000000 30.000000 
v 29.000000 122.000000 30.000000 
v 14.000000 122.000000 5.000000 
v 4.000000 137.000000 30.000000 
v 2.000000 137.000000 34.000000 
v 6.000000 131.000000 30.000000 
v 2.000000 137.000000 34.000000 
v 3.000000 131.000000 35.000000 
v 6.000000 131.000000 30.000000 
v 2.000000 137.000000 34.000000 
v -2.000000 137.000000 34.000000 
v 3.000000 131.000000 35.000000 
v -2.000000 137.000000 34.000000 
v -3.000000 131.000000 35.000000 
v 3.000000 131.000000 35.000000 
v -2.000000 137.000000 34.000000 
v -4.000000 137.000000 30.000000 
v -3.000000 131.000000 35.000000 
v -4.000000 137.000000 30.000000 
v -6.000000 131.000000 30.000000 
v -3.000000 131.000000 35.000000 
v -4.000000 137.000000 30.000000 
v -2.000000 137.000000 26.000000 
v -6.000000 131.000000 30.000000 
v -2.000000 137.000000 26.000000 
v -3.000000 131.000000 25.000000 
v -6.000000 131.000000 30.000000 
v -2.000000 137.000000 26.000000 
v 2.000000 137.000000 26.000000 
v -3.000000 131.000000 25.000000 
v 2.000000 137.000000 26.000000 
v 3.000000 131.000000 25.000000 
v -3.000000 131.000000 25.000000 
v 2.000000 137.000000 26.000000 
v 4.000000 137.000000 30.000000 
v 3.000000 131.000000 25.000000 
v 4.000000 137.000000 30.000000 
v 6.000000 131.000000 30.000000 
v 3.000000 131.000000 25.000000 
v 2.000000 137.000000 34.000000 
v 4.000000 137.000000 30.000000 
v 0.000000 137.000000 30.000000 
v -2.000000 137.000000 34.000000 
v 2.000000 137.000000 34.000000 
v 0.000000 137.000000 30.000000 
v -4.000000 137.000000 30.000000 
v -2.000000 137.000000 34.000000 
v 0.000000 137.000000 30.000000 
v -2.000000 137.000000 26.000000 
v -4.000000 137.000000 30.000000 
v 0.000000 137.000000 30.000000 
v 2.000000 137.000000 26.000000 
v -2.000000 137.000000 26.000000 
v 0.000000 137.000000 30.000000 
v 4.000000 137.000000 30.000000 
v 2.000000 137.000000 26.000000 
v 0.000000 137.000000 30.000000 
vn 0.672119 0.738281 -0.052734 
vn 0.381836 0.738281 0.555664 
vn 0.905518 0.386475 0.174072 
vn 0.381836 0.738281 0.555664 
vn 0.301758 0.386475 0.871338 
vn 0.905518 0.386475 0.174072 
vn 0.381836 0.738281 0.555664 
vn -0.290039 0.738281 0.608643 
vn 0.301758 0.386475 0.871338 
vn -0.290039 0.738281 0.608643 
vn -0.603516 0.386475 0.697021 
vn 0.301758 0.386475 0.871338 
vn -0.290039 0.738281 0.608643 
vn -0.672119 0.738281 0.052734 
vn -0.603516 0.386475 0.697021 
vn -0.672119 0.738281 0.052734 
vn -0.905518 0.386475 -0.174072 
vn -0.603516 0.386475 0.697021 
vn -0.672119 0.738281 0.052734 
vn -0.381836 0.738281 -0.555664 
vn -0.905518 0.386475 -0.174072 
vn -0.381836 0.738281 -0.555664 
vn -0.301758 0.386475 -0.871338 
vn -0.905518 0.386475 -0.174072 
vn -0.381836 0.738281 -0.555664 
vn 0.290039 0.738281 -0.608643 
vn -0.301758 0.386475 -0.871338 
vn 0.290039 0.738281 -0.608643 
vn 0.603516 0.386475 -0.697021 
vn -0.301758 0.386475 -0.871338 
vn 0.290039 0.738281 -0.608643 
vn 0.672119 0.738281 -0.052734 
vn 0.603516 0.386475 -0.697021 
vn 0.672119 0.738281 -0.052734 
vn 0.905518 0.386475 0.174072 
vn 0.603516 0.386475 -0.697021 
vn 0.732666 0.677734 0.060303 
vn 0.313965 0.677734 0.664551 
vn 0.672119 0.738281 -0.052734 
vn 0.313965 0.677734 0.664551 
vn 0.381836 0.738281 0.555664 
vn 0.672119 0.738281 -0.052734 
vn 0.313965 0.677734 0.664551 
vn -0.418457 0.677734 0.604248 
vn 0.381836 0.738281 0.555664 
vn -0.418457 0.677734 0.604248 
vn -0.290039 0.738281 0.608643 
vn 0.381836 0.738281 0.555664 
vn -0.418457 0.677734 0.604248 
vn -0.732666 0.677734 -0.060303 
vn -0.290039 0.738281 0.608643 
vn -0.732666 0.677734 -0.060303 
vn -0.672119 0.738281 0.052734 
vn -0.290039 0.738281 0.608643 
vn -0.732666 0.677734 -0.060303 
vn -0.313965 0.677734 -0.664551 
vn -0.672119 0.738281 0.052734 
vn -0.313965 0.677734 -0.664551 
vn -0.381836 0.738281 -0.555664 
vn -0.672119 0.738281 0.052734 
vn -0.313965 0.677734 -0.664551 
vn 0.418457 0.677734 -0.604248 
vn -0.381836 0.738281 -0.555664 
vn 0.418457 0.677734 -0.604248 
vn 0.290039 0.738281 -0.608643 
vn -0.381836 0.738281 -0.555664 
vn 0.418457 0.677734 -0.604248 
vn 0.732666 0.677734 0.060303 
vn 0.290039 0.738281 -0.608643 
vn 0.732666 0.677734 0.060303 
vn 0.672119 0.738281 -0.052734 
vn 0.290039 0.738281 -0.608643 
vn 0.701172 0.699951 -0.134766 
vn 0.467285 0.699951 0.539795 
vn 0.732666 0.677734 0.060303 
vn 0.467285 0.699951 0.539795 
vn 0.313965 0.677734 0.664551 
vn 0.732666 0.677734 0.060303 
vn 0.467285 0.699951 0.539795 
vn -0.233643 0.699951 0.674561 
vn 0.313965 0.677734 0.664551 
vn -0.233643 0.699951 0.674561 
vn -0.418457 0.677734 0.604248 
vn 0.313965 0.677734 0.664551 
vn -0.233643 0.699951 0.674561 
vn -0.701172 0.699951 0.134766 
vn -0.418457 0.677734 0.604248 
vn -0.701172 0.699951 0.134766 
vn -0.732666 0.677734 -0.060303 
vn -0.418457 0.677734 0.604248 
vn -0.701172 0.699951 0.134766 
vn -0.467285 0.699951 -0.539795 
vn -0.732666 0.677734 -0.060303 
vn -0.467285 0.699951 -0.539795 
vn -0.313965 0.677734 -0.664551 
vn -0.732666 0.677734 -0.060303 
vn -0.467285 0.699951 -0.539795 
vn 0.233643 0.699951 -0.674561 
vn -0.313965 0.677734 -0.664551 
vn 0.233643 0.699951 -0.674561 
vn 0.418457 0.677734 -0.604248 
vn -0.313965 0.677734 -0.664551 
vn 0.233643 0.699951 -0.674561 
vn 0.701172 0.699951 -0.134766 
vn 0.418457 0.677734 -0.604248 
vn 0.701172 0.699951 -0.134766 
vn 0.732666 0.677734 0.060303 
vn 0.418457 0.677734 -0.604248 
vn 0.467285 0.699951 0.539795 
vn 0.701172 0.699951 -0.134766 
vn 0.000000 0.999756 0.000000 
vn -0.233643 0.699951 0.674561 
vn 0.467285 0.699951 0.539795 
vn 0.000000 0.999756 0.000000 
vn -0.701172 0.699951 0.134766 
vn -0.233643 0.699951 0.674561 
vn 0.000000 0.999756 0.000000 
vn -0.467285 0.699951 -0.539795 
vn -0.701172 0.699951 0.134766 
vn 0.000000 0.999756 0.000000 
vn 0.233643 0.699951 -0.674561 
vn -0.467285 0.699951 -0.539795 
vn 0.000000 0.999756 0.000000 
vn 0.701172 0.699951 -0.134766 
vn 0.233643 0.699951 -0.674561 
vn 0.000000 0.999756 0.000000 
vt 0.317460 0.507937 
vt 0.428571 0.365079 
vt 0.301587 0.507937 
vt 0.428571 0.365079 
vt 0.412698 0.333333 
vt 0.301587 0.507937 
vt 0.428571 0.365079 
vt 0.571429 0.365079 
vt 0.412698 0.333333 
vt 0.571429 0.365079 
vt 0.587302 0.333333 
vt 0.412698 0.333333 
vt 0.571429 0.365079 
vt 0.666667 0.507937 
vt 0.587302 0.333333 
vt 0.666667 0.507937 
vt 0.682540 0.507937 
vt 0.587302 0.333333 
vt 0.333333 0.523810 
vt 0.412698 0.365079 
vt 0.317460 0.523810 
vt 0.412698 0.365079 
vt 0.412698 0.349206 
vt 0.317460 0.523810 
vt 0.412698 0.365079 
vt 0.571429 0.365079 
vt 0.412698 0.349206 
vt 0.571429 0.365079 
vt 0.587302 0.349206 
vt 0.412698 0.349206 
vt 0.571429 0.365079 
vt 0.650794 0.523810 
vt 0.587302 0.349206 
vt 0.650794 0.523810 
vt 0.682540 0.523810 
vt 0.587302 0.349206 
vt 0.476190 0.507937 
vt 0.492063 0.476190 
vt 0.317460 0.507937 
vt 0.492063 0.476190 
vt 0.428571 0.365079 
vt 0.317460 0.507937 
vt 0.492063 0.476190 
vt 0.507937 0.476190 
vt 0.428571 0.365079 
vt 0.507937 0.476190 
vt 0.571429 0.365079 
vt 0.428571 0.365079 
vt 0.507937 0.476190 
vt 0.523810 0.507937 
vt 0.571429 0.365079 
vt 0.523810 0.507937 
vt 0.666667 0.507937 
vt 0.571429 0.365079 
vt 0.460317 0.523810 
vt 0.476190 0.492063 
vt 0.333333 0.523810 
vt 0.476190 0.492063 
vt 0.412698 0.365079 
vt 0.333333 0.523810 
vt 0.476190 0.492063 
vt 0.507937 0.492063 
vt 0.412698 0.365079 
vt 0.507937 0.492063 
vt 0.571429 0.365079 
vt 0.412698 0.365079 
vt 0.507937 0.492063 
vt 0.523810 0.523810 
vt 0.571429 0.365079 
vt 0.523810 0.523810 
vt 0.650794 0.523810 
vt 0.571429 0.365079 
vt 0.555556 0.492063 
vt 0.523810 0.555556 
vt 0.587302 0.492063 
vt 0.523810 0.555556 
vt 0.539683 0.587302 
vt 0.587302 0.492063 
vt 0.523810 0.555556 
vt 0.460317 0.555556 
vt 0.539683 0.587302 
vt 0.460317 0.555556 
vt 0.444444 0.587302 
vt 0.539683 0.587302 
vt 0.460317 0.555556 
vt 0.428571 0.492063 
vt 0.444444 0.587302 
vt 0.428571 0.492063 
vt 0.396825 0.492063 
vt 0.444444 0.587302 
vt 0.476190 0.523810 
vt 0.476190 0.492063 
vt 0.460317 0.523810 
vt 0.476190 0.492063 
vt 0.476190 0.492063 
vt 0.460317 0.523810 
vt 0.476190 0.492063 
vt 0.507937 0.492063 
vt 0.476190 0.492063 
vt 0.507937 0.492063 
vt 0.507937 0.492063 
vt 0.476190 0.492063 
vt 0.507937 0.492063 
vt 0.523810 0.523810 
vt 0.507937 0.492063 
vt 0.523810 0.523810 
vt 0.523810 0.523810 
vt 0.507937 0.492063 
vt 0.507937 0.539683 
vt 0.523810 0.523810 
vt 0.492063 0.523810 
vt 0.476190 0.539683 
vt 0.507937 0.539683 
vt 0.492063 0.523810 
vt 0.476190 0.523810 
vt 0.476190 0.539683 
vt 0.492063 0.523810 
vt 0.476190 0.492063 
vt 0.476190 0.523810 
vt 0.492063 0.523810 
vt 0.507937 0.492063 
vt 0.476190 0.492063 
vt 0.492063 0.523810 
vt 0.523810 0.523810 
vt 0.507937 0.492063 
vt 0.492063 0.523810 
f 1/1/1 2/2/2 3/3/3
f 4/4/4 5/5/5 6/6/6
f 7/7/7 8/8/8 9/9/9
f 10/10/10 11/11/11 12/12/12
f 13/13/13 14/14/14 15/15/15
f 16/16/16 17/17/17 18/18/18
f 19/19/19 20/20/20 21/21/21
f 22/22/22 23/23/23 24/24/24
f 25/25/25 26/26/26 27/27/27
f 28/28/28 29/29/29 30/30/30
f 31/31/31 32/32/32 33/33/33
f 34/34/34 35/35/35 36/36/36
f 37/37/37 38/38/38 39/39/39
f 40/40/40 41/41/41 42/42/42
f 43/43/43 44/44/44 45/45/45
f 46/46/46 47/47/47 48/48/48
f 49/49/49 50/50/50 51/51/51
f 52/52/52 53/53/53 54/54/54
f 55/55/55 56/56/56 57/57/57
f 58/58/58 59/59/59 60/60/60
f 61/61/61 62/62/62 63/63/63
f 64/64/64 65/65/65 66/66/66
f 67/67/67 68/68/68 69/69/69
f 70/70/70 71/71/71 72/72/72
f 73/73/73 74/74/74 75/75/75
f 76/76/76 77/77/77 78/78/78
f 79/79/79 80/80/80 81/81/81
f 82/82/82 83/83/83 84/84/84
f 85/85/85 86/86/86 87/87/87
f 88/88/88 89/89/89 90/90/90
f 91/91/91 92/92/92 93/93/93
f 94/94/94 95/95/95 96/96/96
f 97/97/97 98/98/98 99/99/99
f 100/100/100 101/101/101 102/102/102
f 103/103/103 104/104/104 105/105/105
f 106/106/106 107/107/107 108/108/108
f 109/109/109 110/110/110 111/111/111
f 112/112/112 113/113/113 114/114/114
f 115/115/115 116/116/116 117/117/117
f 118/118/118 119/119/119 120/120/120
f 121/121/121 122/122/122 123/123/123
f 124/124/124 125/125/125 126/126/126
