v 25.000000 108.000000 27.000000 
v -12.000000 108.000000 38.000000 
v -12.000000 91.000000 38.000000 
v 25.000000 91.000000 27.000000 
v 25.000000 108.000000 27.000000 
v -12.000000 91.000000 38.000000 
v -30.000000 108.000000 -27.000000 
v 6.000000 108.000000 -38.000000 
v 6.000000 91.000000 -38.000000 
v -30.000000 91.000000 -27.000000 
v -30.000000 108.000000 -27.000000 
v 6.000000 91.000000 -38.000000 
v -40.000000 108.000000 11.000000 
v -30.000000 108.000000 -27.000000 
v -30.000000 91.000000 -27.000000 
v -40.000000 91.000000 11.000000 
v -40.000000 108.000000 11.000000 
v -30.000000 91.000000 -27.000000 
v -12.000000 108.000000 38.000000 
v -40.000000 108.000000 11.000000 
v -40.000000 91.000000 11.000000 
v -12.000000 91.000000 38.000000 
v -12.000000 108.000000 38.000000 
v -40.000000 91.000000 11.000000 
v -12.000000 108.000000 38.000000 
v 25.000000 108.000000 27.000000 
v -2.000000 108.000000 0.000000 
v 25.000000 108.000000 27.000000 
v 34.000000 108.000000 -10.000000 
v -2.000000 108.000000 0.000000 
v 34.000000 108.000000 -10.000000 
v 6.000000 108.000000 -38.000000 
v -2.000000 108.000000 0.000000 
v 6.000000 108.000000 -38.000000 
v -30.000000 108.000000 -27.000000 
v -2.000000 108.000000 0.000000 
v -30.000000 108.000000 -27.000000 
v -40.000000 108.000000 11.000000 
v -2.000000 108.000000 0.000000 
v -40.000000 108.000000 11.000000 
v -12.000000 108.000000 38.000000 
v -2.000000 108.000000 0.000000 
v 34.000000 108.000000 -10.000000 
v 25.000000 108.000000 27.000000 
v 25.000000 91.000000 27.000000 
v 34.000000 91.000000 -10.000000 
v 34.000000 108.000000 -10.000000 
v 25.000000 91.000000 27.000000 
v 6.000000 108.000000 -38.000000 
v 34.000000 108.000000 -10.000000 
v 34.000000 91.000000 -10.000000 
v 6.000000 91.000000 -38.000000 
v 6.000000 108.000000 -38.000000 
v 34.000000 91.000000 -10.000000 
vn 0.553711 0.000000 0.832520 
vn -0.390869 0.000000 0.920410 
vn -0.055420 0.000000 0.998291 
vn 0.822510 0.000000 0.568604 
vn 0.553711 0.000000 0.832520 
vn -0.055420 0.000000 0.998291 
vn -0.553223 0.000000 -0.832764 
vn 0.389404 0.000000 -0.920898 
vn 0.054688 0.000000 -0.998291 
vn -0.821533 0.000000 -0.569824 
vn -0.553223 0.000000 -0.832764 
vn 0.054688 0.000000 -0.998291 
vn -0.996338 0.000000 0.082764 
vn -0.553223 0.000000 -0.832764 
vn -0.821533 0.000000 -0.569824 
vn -0.876709 0.000000 0.480469 
vn -0.996338 0.000000 0.082764 
vn -0.821533 0.000000 -0.569824 
vn -0.390869 0.000000 0.920410 
vn -0.996338 0.000000 0.082764 
vn -0.876709 0.000000 0.480469 
vn -0.055420 0.000000 0.998291 
vn -0.390869 0.000000 0.920410 
vn -0.876709 0.000000 0.480469 
vn 0.000000 1.000000 0.000000 
vn 0.000000 1.000000 0.000000 
vn 0.000000 1.000000 0.000000 
vn 0.000000 1.000000 0.000000 
vn 0.000000 1.000000 0.000000 
vn 0.000000 1.000000 0.000000 
vn 0.000000 1.000000 0.000000 
vn 0.000000 1.000000 0.000000 
vn 0.000000 1.000000 0.000000 
vn 0.000000 1.000000 0.000000 
vn 0.000000 1.000000 0.000000 
vn 0.000000 1.000000 0.000000 
vn 0.000000 1.000000 0.000000 
vn 0.000000 1.000000 0.000000 
vn 0.000000 1.000000 0.000000 
vn 0.000000 1.000000 0.000000 
vn 0.000000 1.000000 0.000000 
vn 0.000000 1.000000 0.000000 
vn 0.996338 0.000000 -0.085205 
vn 0.553711 0.000000 0.832520 
vn 0.822510 0.000000 0.568604 
vn 0.875732 0.000000 -0.482422 
vn 0.996338 0.000000 -0.085205 
vn 0.822510 0.000000 0.568604 
vn 0.389404 0.000000 -0.920898 
vn 0.996338 0.000000 -0.085205 
vn 0.875732 0.000000 -0.482422 
vn 0.054688 0.000000 -0.998291 
vn 0.389404 0.000000 -0.920898 
vn 0.875732 0.000000 -0.482422 
vt 0.157480 0.396825 
vt 0.196850 0.238095 
vt 0.236220 0.174603 
vt 0.181102 0.380952 
vt 0.157480 0.396825 
vt 0.236220 0.174603 
vt 0.070866 0.095238 
vt 0.031496 0.238095 
vt 0.023622 0.174603 
vt 0.070866 0.000000 
vt 0.070866 0.095238 
vt 0.023622 0.174603 
vt 0.157480 0.095238 
vt 0.070866 0.095238 
vt 0.070866 0.000000 
vt 0.188976 0.000000 
vt 0.157480 0.095238 
vt 0.070866 0.000000 
vt 0.196850 0.238095 
vt 0.157480 0.095238 
vt 0.188976 0.000000 
vt 0.236220 0.174603 
vt 0.196850 0.238095 
vt 0.188976 0.000000 
vt 0.196850 0.238095 
vt 0.157480 0.396825 
vt 0.110236 0.238095 
vt 0.157480 0.396825 
vt 0.070866 0.396825 
vt 0.110236 0.238095 
vt 0.070866 0.396825 
vt 0.031496 0.238095 
vt 0.110236 0.238095 
vt 0.031496 0.238095 
vt 0.070866 0.095238 
vt 0.110236 0.238095 
vt 0.070866 0.095238 
vt 0.157480 0.095238 
vt 0.110236 0.238095 
vt 0.157480 0.095238 
vt 0.196850 0.238095 
vt 0.110236 0.238095 
vt 0.070866 0.095238 
vt 0.031496 0.238095 
vt 0.023622 0.174603 
vt 0.070866 0.000000 
vt 0.070866 0.095238 
vt 0.023622 0.174603 
vt 0.157480 0.095238 
vt 0.070866 0.095238 
vt 0.070866 0.000000 
vt 0.188976 0.000000 
vt 0.157480 0.095238 
vt 0.070866 0.000000 
f 1/1/1 2/2/2 3/3/3
f 4/4/4 5/5/5 6/6/6
f 7/7/7 8/8/8 9/9/9
f 10/10/10 11/11/11 12/12/12
f 13/13/13 14/14/14 15/15/15
f 16/16/16 17/17/17 18/18/18
f 19/19/19 20/20/20 21/21/21
f 22/22/22 23/23/23 24/24/24
f 25/25/25 26/26/26 27/27/27
f 28/28/28 29/29/29 30/30/30
f 31/31/31 32/32/32 33/33/33
f 34/34/34 35/35/35 36/36/36
f 37/37/37 38/38/38 39/39/39
f 40/40/40 41/41/41 42/42/42
f 43/43/43 44/44/44 45/45/45
f 46/46/46 47/47/47 48/48/48
f 49/49/49 50/50/50 51/51/51
f 52/52/52 53/53/53 54/54/54
