v -9.000000 -3.000000 -14.000000 
v 0.000000 3.000000 -15.000000 
v 0.000000 -6.000000 -25.000000 
v -9.000000 -15.000000 -19.000000 
v -9.000000 -3.000000 -14.000000 
v 0.000000 -6.000000 -25.000000 
v 0.000000 -16.000000 -19.000000 
v -9.000000 -15.000000 -19.000000 
v 0.000000 -6.000000 -25.000000 
v 9.000000 -15.000000 -19.000000 
v 0.000000 -16.000000 -19.000000 
v 0.000000 -6.000000 -25.000000 
v 9.000000 -3.000000 -14.000000 
v 9.000000 -15.000000 -19.000000 
v 0.000000 -6.000000 -25.000000 
v 0.000000 3.000000 -15.000000 
v 9.000000 -3.000000 -14.000000 
v 0.000000 -6.000000 -25.000000 
v -16.000000 0.000000 14.000000 
v 0.000000 15.000000 14.000000 
v 0.000000 3.000000 -15.000000 
v -9.000000 -3.000000 -14.000000 
v -16.000000 0.000000 14.000000 
v 0.000000 3.000000 -15.000000 
v -16.000000 -12.000000 14.000000 
v -16.000000 0.000000 14.000000 
v -9.000000 -3.000000 -14.000000 
v -9.000000 -15.000000 -19.000000 
v -16.000000 -12.000000 14.000000 
v -9.000000 -3.000000 -14.000000 
v 0.000000 -13.000000 14.000000 
v -16.000000 -12.000000 14.000000 
v -9.000000 -15.000000 -19.000000 
v 0.000000 -16.000000 -19.000000 
v 0.000000 -13.000000 14.000000 
v -9.000000 -15.000000 -19.000000 
v 16.000000 -12.000000 14.000000 
v 0.000000 -13.000000 14.000000 
v 0.000000 -16.000000 -19.000000 
v 9.000000 -15.000000 -19.000000 
v 16.000000 -12.000000 14.000000 
v 0.000000 -16.000000 -19.000000 
v 16.000000 0.000000 14.000000 
v 16.000000 -12.000000 14.000000 
v 9.000000 -15.000000 -19.000000 
v 9.000000 -3.000000 -14.000000 
v 16.000000 0.000000 14.000000 
v 9.000000 -15.000000 -19.000000 
v 0.000000 15.000000 14.000000 
v 16.000000 0.000000 14.000000 
v 9.000000 -3.000000 -14.000000 
v 0.000000 3.000000 -15.000000 
v 0.000000 15.000000 14.000000 
v 9.000000 -3.000000 -14.000000 
vn -0.810791 0.372314 -0.451416 
vn -0.160156 0.836182 -0.524170 
vn 0.000000 0.132568 -0.990967 
vn -0.571045 -0.669678 -0.474609 
vn -0.810791 0.372314 -0.451416 
vn 0.000000 0.132568 -0.990967 
vn 0.008545 -0.942871 -0.332764 
vn -0.571045 -0.669678 -0.474609 
vn 0.000000 0.132568 -0.990967 
vn 0.778076 -0.335449 -0.530762 
vn 0.008545 -0.942871 -0.332764 
vn 0.000000 0.132568 -0.990967 
vn 0.717773 0.513428 -0.469727 
vn 0.778076 -0.335449 -0.530762 
vn 0.000000 0.132568 -0.990967 
vn -0.160156 0.836182 -0.524170 
vn 0.717773 0.513428 -0.469727 
vn 0.000000 0.132568 -0.990967 
vn -0.795654 0.538330 -0.277344 
vn 0.235352 0.901611 -0.362549 
vn -0.160156 0.836182 -0.524170 
vn -0.810791 0.372314 -0.451416 
vn -0.795654 0.538330 -0.277344 
vn -0.160156 0.836182 -0.524170 
vn -0.893799 -0.418945 -0.159668 
vn -0.795654 0.538330 -0.277344 
vn -0.810791 0.372314 -0.451416 
vn -0.571045 -0.669678 -0.474609 
vn -0.893799 -0.418945 -0.159668 
vn -0.810791 0.372314 -0.451416 
vn -0.046143 -0.994141 0.095459 
vn -0.893799 -0.418945 -0.159668 
vn -0.571045 -0.669678 -0.474609 
vn 0.008545 -0.942871 -0.332764 
vn -0.046143 -0.994141 0.095459 
vn -0.571045 -0.669678 -0.474609 
vn 0.503418 -0.863770 -0.017578 
vn -0.046143 -0.994141 0.095459 
vn 0.008545 -0.942871 -0.332764 
vn 0.778076 -0.335449 -0.530762 
vn 0.503418 -0.863770 -0.017578 
vn 0.008545 -0.942871 -0.332764 
vn 0.928467 0.278564 -0.244873 
vn 0.503418 -0.863770 -0.017578 
vn 0.778076 -0.335449 -0.530762 
vn 0.717773 0.513428 -0.469727 
vn 0.928467 0.278564 -0.244873 
vn 0.778076 -0.335449 -0.530762 
vn 0.235352 0.901611 -0.362549 
vn 0.928467 0.278564 -0.244873 
vn 0.717773 0.513428 -0.469727 
vn -0.160156 0.836182 -0.524170 
vn 0.235352 0.901611 -0.362549 
vn 0.717773 0.513428 -0.469727 
vt 0.682540 0.451613 
vt 0.761905 0.387097 
vt 0.761905 0.645161 
vt 0.682540 0.677419 
vt 0.682540 0.451613 
vt 0.761905 0.645161 
vt 0.761905 0.709677 
vt 0.682540 0.677419 
vt 0.761905 0.645161 
vt 0.825397 0.677419 
vt 0.761905 0.709677 
vt 0.761905 0.645161 
vt 0.825397 0.483871 
vt 0.825397 0.677419 
vt 0.761905 0.645161 
vt 0.761905 0.387097 
vt 0.825397 0.483871 
vt 0.761905 0.645161 
vt 0.492063 0.000000 
vt 0.761905 0.000000 
vt 0.761905 0.387097 
vt 0.682540 0.451613 
vt 0.492063 0.000000 
vt 0.761905 0.387097 
vt 0.492063 1.000000 
vt 0.492063 0.000000 
vt 0.682540 0.451613 
vt 0.682540 0.677419 
vt 0.492063 1.000000 
vt 0.682540 0.451613 
vt 0.761905 1.000000 
vt 0.492063 1.000000 
vt 0.682540 0.677419 
vt 0.761905 0.709677 
vt 0.761905 1.000000 
vt 0.682540 0.677419 
vt 1.000000 1.000000 
vt 0.761905 1.000000 
vt 0.761905 0.709677 
vt 0.825397 0.677419 
vt 1.000000 1.000000 
vt 0.761905 0.709677 
vt 1.000000 0.000000 
vt 1.000000 1.000000 
vt 0.825397 0.677419 
vt 0.825397 0.483871 
vt 1.000000 0.000000 
vt 0.825397 0.677419 
vt 0.761905 0.000000 
vt 1.000000 0.000000 
vt 0.825397 0.483871 
vt 0.761905 0.387097 
vt 0.761905 0.000000 
vt 0.825397 0.483871 
f 1/1/1 2/2/2 3/3/3
f 4/4/4 5/5/5 6/6/6
f 7/7/7 8/8/8 9/9/9
f 10/10/10 11/11/11 12/12/12
f 13/13/13 14/14/14 15/15/15
f 16/16/16 17/17/17 18/18/18
f 19/19/19 20/20/20 21/21/21
f 22/22/22 23/23/23 24/24/24
f 25/25/25 26/26/26 27/27/27
f 28/28/28 29/29/29 30/30/30
f 31/31/31 32/32/32 33/33/33
f 34/34/34 35/35/35 36/36/36
f 37/37/37 38/38/38 39/39/39
f 40/40/40 41/41/41 42/42/42
f 43/43/43 44/44/44 45/45/45
f 46/46/46 47/47/47 48/48/48
f 49/49/49 50/50/50 51/51/51
f 52/52/52 53/53/53 54/54/54
