v 9.000000 -71.000000 1.000000 
v 47.000000 -62.000000 -5.000000 
v 50.000000 -31.000000 22.000000 
v 19.000000 4.000000 43.000000 
v 18.000000 -34.000000 31.000000 
v 51.000000 5.000000 33.000000 
v 18.000000 -34.000000 31.000000 
v 50.000000 -31.000000 22.000000 
v 51.000000 5.000000 33.000000 
v 16.000000 45.000000 33.000000 
v 19.000000 4.000000 43.000000 
v 51.000000 5.000000 33.000000 
v 49.000000 44.000000 23.000000 
v 16.000000 45.000000 33.000000 
v 51.000000 5.000000 33.000000 
v 18.000000 -34.000000 31.000000 
v 9.000000 -71.000000 1.000000 
v 50.000000 -31.000000 22.000000 
v 43.000000 76.000000 -2.000000 
v 6.000000 83.000000 4.000000 
v 49.000000 44.000000 23.000000 
v 6.000000 83.000000 4.000000 
v 16.000000 45.000000 33.000000 
v 49.000000 44.000000 23.000000 
vn -0.819824 -0.572266 -0.002686 
vn -0.566162 -0.816406 -0.113037 
vn -0.085205 -0.374512 0.923096 
vn 0.113770 -0.192627 0.974609 
vn -0.097656 -0.241211 0.965332 
vn 0.120850 -0.243164 0.962402 
vn -0.097656 -0.241211 0.965332 
vn -0.085205 -0.374512 0.923096 
vn 0.120850 -0.243164 0.962402 
vn 0.322754 -0.141846 0.935547 
vn 0.113770 -0.192627 0.974609 
vn 0.120850 -0.243164 0.962402 
vn 0.348633 -0.278809 0.894531 
vn 0.322754 -0.141846 0.935547 
vn 0.120850 -0.243164 0.962402 
vn -0.097656 -0.241211 0.965332 
vn -0.819824 -0.572266 -0.002686 
vn -0.085205 -0.374512 0.923096 
vn 0.800293 -0.549561 -0.238770 
vn 0.973145 -0.164795 -0.159180 
vn 0.348633 -0.278809 0.894531 
vn 0.973145 -0.164795 -0.159180 
vn 0.322754 -0.141846 0.935547 
vn 0.348633 -0.278809 0.894531 
vt 0.685039 0.519685 
vt 0.661417 0.291339 
vt 0.566929 0.291339 
vt 0.456693 0.503937 
vt 0.574803 0.503937 
vt 0.456693 0.291339 
vt 0.574803 0.503937 
vt 0.566929 0.291339 
vt 0.456693 0.291339 
vt 0.338583 0.503937 
vt 0.456693 0.503937 
vt 0.456693 0.291339 
vt 0.346457 0.291339 
vt 0.338583 0.503937 
vt 0.456693 0.291339 
vt 0.574803 0.503937 
vt 0.685039 0.519685 
vt 0.566929 0.291339 
vt 0.251969 0.291339 
vt 0.228346 0.519685 
vt 0.346457 0.291339 
vt 0.228346 0.519685 
vt 0.338583 0.503937 
vt 0.346457 0.291339 
f 1/1/1 2/2/2 3/3/3
f 4/4/4 5/5/5 6/6/6
f 7/7/7 8/8/8 9/9/9
f 10/10/10 11/11/11 12/12/12
f 13/13/13 14/14/14 15/15/15
f 16/16/16 17/17/17 18/18/18
f 19/19/19 20/20/20 21/21/21
f 22/22/22 23/23/23 24/24/24
