v 24.000000 0.000000 19.000000 
v -24.000000 0.000000 19.000000 
v -29.000000 0.000000 -25.000000 
v -29.000000 0.000000 -25.000000 
v 19.000000 0.000000 -25.000000 
v 24.000000 0.000000 19.000000 
v 24.000000 5.000000 19.000000 
v 19.000000 5.000000 -25.000000 
v -29.000000 5.000000 -25.000000 
v -29.000000 5.000000 -25.000000 
v -24.000000 5.000000 19.000000 
v 24.000000 5.000000 19.000000 
v 19.000000 5.000000 -25.000000 
v 19.000000 0.000000 -25.000000 
v -29.000000 0.000000 -25.000000 
v -29.000000 0.000000 -25.000000 
v -29.000000 5.000000 -25.000000 
v 19.000000 5.000000 -25.000000 
v 24.000000 5.000000 19.000000 
v 24.000000 0.000000 19.000000 
v 19.000000 0.000000 -25.000000 
v 19.000000 0.000000 -25.000000 
v 19.000000 5.000000 -25.000000 
v 24.000000 5.000000 19.000000 
v -24.000000 5.000000 19.000000 
v -24.000000 0.000000 19.000000 
v 24.000000 0.000000 19.000000 
v 24.000000 0.000000 19.000000 
v 24.000000 5.000000 19.000000 
v -24.000000 5.000000 19.000000 
v -29.000000 5.000000 -25.000000 
v -29.000000 0.000000 -25.000000 
v -24.000000 0.000000 19.000000 
v -24.000000 0.000000 19.000000 
v -24.000000 5.000000 19.000000 
v -29.000000 5.000000 -25.000000 
vn 0.000000 -1.000000 0.000000 
vn 0.000000 -1.000000 0.000000 
vn 0.000000 -1.000000 0.000000 
vn 0.000000 -1.000000 0.000000 
vn 0.000000 -1.000000 0.000000 
vn 0.000000 -1.000000 0.000000 
vn 0.000000 1.000000 0.000000 
vn 0.000000 0.447021 -0.894287 
vn 0.000000 0.894287 -0.447021 
vn 0.000000 0.894287 -0.447021 
vn 0.000000 1.000000 0.000000 
vn 0.000000 1.000000 0.000000 
vn 0.000000 0.447021 -0.894287 
vn 0.000000 0.000000 -1.000000 
vn 0.000000 0.000000 -1.000000 
vn 0.000000 0.000000 -1.000000 
vn 0.000000 0.894287 -0.447021 
vn 0.000000 0.447021 -0.894287 
vn 0.994385 0.000000 -0.105225 
vn 0.994385 0.000000 -0.105225 
vn 0.994385 0.000000 -0.105225 
vn 0.994385 0.000000 -0.105225 
vn 0.994385 0.000000 -0.105225 
vn 0.994385 0.000000 -0.105225 
vn 0.000000 0.000000 1.000000 
vn 0.000000 0.000000 1.000000 
vn 0.000000 0.000000 1.000000 
vn 0.000000 0.000000 1.000000 
vn 0.000000 0.000000 1.000000 
vn 0.000000 0.000000 1.000000 
vn -0.994385 0.000000 0.105225 
vn -0.994385 0.000000 0.105225 
vn -0.994385 0.000000 0.105225 
vn -0.994385 0.000000 0.105225 
vn -0.994385 0.000000 0.105225 
vn -0.994385 0.000000 0.105225 
vt 0.000000 1.000000 
vt 0.387097 1.000000 
vt 0.387097 0.612903 
vt 0.387097 0.612903 
vt 0.000000 0.612903 
vt 0.000000 1.000000 
vt 0.516129 1.000000 
vt 0.516129 0.612903 
vt 0.000000 0.612903 
vt 0.000000 0.612903 
vt 0.000000 1.000000 
vt 0.516129 1.000000 
vt 0.483871 1.000000 
vt 0.483871 0.548387 
vt 0.000000 0.548387 
vt 0.000000 0.548387 
vt 0.000000 1.000000 
vt 0.483871 1.000000 
vt 0.483871 0.645161 
vt 0.483871 0.580645 
vt 0.000000 0.580645 
vt 0.000000 0.580645 
vt 0.000000 0.645161 
vt 0.483871 0.645161 
vt 0.483871 0.612903 
vt 0.483871 0.580645 
vt 0.000000 0.580645 
vt 0.000000 0.580645 
vt 0.000000 0.612903 
vt 0.483871 0.612903 
vt 0.483871 0.548387 
vt 0.483871 0.677419 
vt 0.000000 0.677419 
vt 0.000000 0.677419 
vt 0.000000 0.548387 
vt 0.483871 0.548387 
f 1/1/1 2/2/2 3/3/3
f 4/4/4 5/5/5 6/6/6
f 7/7/7 8/8/8 9/9/9
f 10/10/10 11/11/11 12/12/12
f 13/13/13 14/14/14 15/15/15
f 16/16/16 17/17/17 18/18/18
f 19/19/19 20/20/20 21/21/21
f 22/22/22 23/23/23 24/24/24
f 25/25/25 26/26/26 27/27/27
f 28/28/28 29/29/29 30/30/30
f 31/31/31 32/32/32 33/33/33
f 34/34/34 35/35/35 36/36/36
