v 42.000000 0.000000 -32.000000 
v 13.000000 0.000000 -58.000000 
v 52.000000 0.000000 -99.000000 
v 52.000000 0.000000 -99.000000 
v 91.000000 0.000000 -65.000000 
v 42.000000 0.000000 -32.000000 
v 23.000000 0.000000 2.000000 
v -23.000000 0.000000 -20.000000 
v 13.000000 0.000000 -58.000000 
v 13.000000 0.000000 -58.000000 
v 42.000000 0.000000 -32.000000 
v 23.000000 0.000000 2.000000 
v 9.000000 0.000000 45.000000 
v -41.000000 0.000000 37.000000 
v -23.000000 0.000000 -20.000000 
v -23.000000 0.000000 -20.000000 
v 23.000000 0.000000 2.000000 
v 9.000000 0.000000 45.000000 
v 11.000000 0.000000 75.000000 
v -7.000000 0.000000 89.000000 
v -41.000000 0.000000 37.000000 
v -41.000000 0.000000 37.000000 
v 9.000000 0.000000 45.000000 
v 11.000000 0.000000 75.000000 
vn 0.000000 -1.000000 0.000000 
vn 0.000000 -1.000000 0.000000 
vn 0.000000 -1.000000 0.000000 
vn 0.000000 -1.000000 0.000000 
vn 0.000000 -1.000000 0.000000 
vn 0.000000 -1.000000 0.000000 
vn 0.000000 -1.000000 0.000000 
vn 0.000000 -1.000000 0.000000 
vn 0.000000 -1.000000 0.000000 
vn 0.000000 -1.000000 0.000000 
vn 0.000000 -1.000000 0.000000 
vn 0.000000 -1.000000 0.000000 
vn 0.000000 -1.000000 0.000000 
vn 0.000000 -1.000000 0.000000 
vn 0.000000 -1.000000 0.000000 
vn 0.000000 -1.000000 0.000000 
vn 0.000000 -1.000000 0.000000 
vn 0.000000 -1.000000 0.000000 
vn 0.000000 -1.000000 0.000000 
vn 0.000000 -1.000000 0.000000 
vn 0.000000 -1.000000 0.000000 
vn 0.000000 -1.000000 0.000000 
vn 0.000000 -1.000000 0.000000 
vn 0.000000 -1.000000 0.000000 
vt 0.507937 0.476190 
vt 0.000000 0.476190 
vt 0.000000 0.000000 
vt 0.000000 0.000000 
vt 0.507937 0.000000 
vt 0.507937 0.476190 
vt 0.507937 0.984127 
vt 0.000000 0.984127 
vt 0.000000 0.476190 
vt 0.000000 0.476190 
vt 0.507937 0.476190 
vt 0.507937 0.984127 
vt 0.507937 0.476190 
vt 0.000000 0.460317 
vt 0.000000 0.984127 
vt 0.000000 0.984127 
vt 0.507937 0.984127 
vt 0.507937 0.476190 
vt 0.507937 0.000000 
vt 0.000000 0.000000 
vt 0.000000 0.460317 
vt 0.000000 0.460317 
vt 0.507937 0.476190 
vt 0.507937 0.000000 
f 1/1/1 2/2/2 3/3/3
f 4/4/4 5/5/5 6/6/6
f 7/7/7 8/8/8 9/9/9
f 10/10/10 11/11/11 12/12/12
f 13/13/13 14/14/14 15/15/15
f 16/16/16 17/17/17 18/18/18
f 19/19/19 20/20/20 21/21/21
f 22/22/22 23/23/23 24/24/24
