v 29.000000 7.000000 16.000000 
v 21.000000 -22.000000 6.000000 
v 51.000000 8.000000 -9.000000 
v 21.000000 -22.000000 6.000000 
v 37.000000 -30.000000 -16.000000 
v 51.000000 8.000000 -9.000000 
v 37.000000 -30.000000 -16.000000 
v 26.000000 -21.000000 -25.000000 
v 51.000000 8.000000 -9.000000 
v 26.000000 -21.000000 -25.000000 
v 19.000000 7.000000 -27.000000 
v 51.000000 8.000000 -9.000000 
v 20.000000 36.000000 7.000000 
v 29.000000 7.000000 16.000000 
v 51.000000 8.000000 -9.000000 
v 35.000000 46.000000 -14.000000 
v 20.000000 36.000000 7.000000 
v 51.000000 8.000000 -9.000000 
v 24.000000 37.000000 -24.000000 
v 35.000000 46.000000 -14.000000 
v 51.000000 8.000000 -9.000000 
v 19.000000 7.000000 -27.000000 
v 24.000000 37.000000 -24.000000 
v 51.000000 8.000000 -9.000000 
vn 0.461670 0.329346 0.823242 
vn 0.658936 0.237793 0.713379 
vn 0.684082 0.722656 -0.098145 
vn 0.658936 0.237793 0.713379 
vn 0.802002 0.374756 -0.464844 
vn 0.684082 0.722656 -0.098145 
vn 0.802002 0.374756 -0.464844 
vn 0.161865 0.206543 -0.964844 
vn 0.684082 0.722656 -0.098145 
vn 0.161865 0.206543 -0.964844 
vn 0.071289 0.245117 -0.966797 
vn 0.684082 0.722656 -0.098145 
vn 0.337891 0.526611 0.779785 
vn 0.461670 0.329346 0.823242 
vn 0.684082 0.722656 -0.098145 
vn 0.256104 0.886963 -0.384033 
vn 0.337891 0.526611 0.779785 
vn 0.684082 0.722656 -0.098145 
vn 0.023438 0.324707 -0.945312 
vn 0.256104 0.886963 -0.384033 
vn 0.684082 0.722656 -0.098145 
vn 0.071289 0.245117 -0.966797 
vn 0.023438 0.324707 -0.945312 
vn 0.684082 0.722656 -0.098145 
vt 0.456693 0.125984 
vt 0.543307 0.141732 
vt 0.456693 0.055118 
vt 0.543307 0.141732 
vt 0.566929 0.086614 
vt 0.456693 0.055118 
vt 0.606299 0.031496 
vt 0.582677 0.055118 
vt 0.496063 -0.007874 
vt 0.582677 0.055118 
vt 0.496063 0.062992 
vt 0.496063 -0.007874 
vt 0.370079 0.141732 
vt 0.456693 0.125984 
vt 0.456693 0.055118 
vt 0.346457 0.086614 
vt 0.370079 0.141732 
vt 0.456693 0.055118 
vt 0.409449 0.055118 
vt 0.385827 0.031496 
vt 0.496063 -0.007874 
vt 0.496063 0.062992 
vt 0.409449 0.055118 
vt 0.496063 -0.007874 
f 1/1/1 2/2/2 3/3/3
f 4/4/4 5/5/5 6/6/6
f 7/7/7 8/8/8 9/9/9
f 10/10/10 11/11/11 12/12/12
f 13/13/13 14/14/14 15/15/15
f 16/16/16 17/17/17 18/18/18
f 19/19/19 20/20/20 21/21/21
f 22/22/22 23/23/23 24/24/24
