v -15.000000 -28.000000 2.000000 
v 15.000000 -28.000000 15.000000 
v 15.000000 0.000000 4.000000 
v -7.000000 0.000000 -5.000000 
v -15.000000 -28.000000 2.000000 
v 15.000000 0.000000 4.000000 
v 0.000000 13.000000 -13.000000 
v -7.000000 0.000000 -5.000000 
v 15.000000 0.000000 4.000000 
v 15.000000 0.000000 4.000000 
v 15.000000 13.000000 -7.000000 
v 0.000000 13.000000 -13.000000 
v -2.000000 28.000000 -10.000000 
v 0.000000 13.000000 -13.000000 
v 15.000000 13.000000 -7.000000 
v 15.000000 13.000000 -7.000000 
v 15.000000 28.000000 -2.000000 
v -2.000000 28.000000 -10.000000 
v -2.000000 28.000000 -10.000000 
v -2.000000 28.000000 -12.000000 
v 0.000000 13.000000 -15.000000 
v 0.000000 13.000000 -13.000000 
v -2.000000 28.000000 -10.000000 
v 0.000000 13.000000 -15.000000 
vn -0.345459 0.429688 0.834229 
vn -0.345459 0.429688 0.834229 
vn -0.309570 0.587158 0.747559 
vn -0.309570 0.587158 0.747559 
vn -0.345459 0.429688 0.834229 
vn -0.309570 0.587158 0.747559 
vn -0.345947 0.427246 0.835205 
vn -0.309570 0.587158 0.747559 
vn -0.309570 0.587158 0.747559 
vn -0.309570 0.587158 0.747559 
vn -0.382568 0.003418 0.923828 
vn -0.345947 0.427246 0.835205 
vn -0.357178 -0.357910 0.862549 
vn -0.345947 0.427246 0.835205 
vn -0.382568 0.003418 0.923828 
vn -0.382568 0.003418 0.923828 
vn -0.357178 -0.357910 0.862549 
vn -0.357178 -0.357910 0.862549 
vn -0.959473 -0.281494 0.000000 
vn -0.959473 -0.281494 0.000000 
vn -0.959473 -0.281494 0.000000 
vn -0.959473 -0.281494 0.000000 
vn -0.959473 -0.281494 0.000000 
vn -0.959473 -0.281494 0.000000 
vt 0.571429 0.238095 
vt 0.269841 0.238095 
vt 0.285714 0.555556 
vt 0.539683 0.587302 
vt 0.571429 0.238095 
vt 0.285714 0.555556 
vt 0.492063 0.746032 
vt 0.539683 0.587302 
vt 0.285714 0.555556 
vt 0.285714 0.555556 
vt 0.333333 0.698413 
vt 0.492063 0.746032 
vt 0.761905 0.698413 
vt 0.730159 0.603175 
vt 0.523810 0.603175 
vt 0.523810 0.603175 
vt 0.492063 0.698413 
vt 0.761905 0.698413 
vt 0.761905 0.698413 
vt 0.761905 0.698413 
vt 0.492063 0.746032 
vt 0.492063 0.746032 
vt 0.761905 0.698413 
vt 0.492063 0.746032 
f 1/1/1 2/2/2 3/3/3
f 4/4/4 5/5/5 6/6/6
f 7/7/7 8/8/8 9/9/9
f 10/10/10 11/11/11 12/12/12
f 13/13/13 14/14/14 15/15/15
f 16/16/16 17/17/17 18/18/18
f 19/19/19 20/20/20 21/21/21
f 22/22/22 23/23/23 24/24/24
