v 10.000000 -39.000000 -34.000000 
v 8.000000 0.000000 -52.000000 
v 11.000000 0.000000 -48.000000 
v 11.000000 -33.000000 -33.000000 
v 10.000000 -39.000000 -34.000000 
v 11.000000 0.000000 -48.000000 
v 11.000000 0.000000 -48.000000 
v 8.000000 0.000000 -52.000000 
v 11.000000 33.000000 -33.000000 
v 10.000000 -55.000000 7.000000 
v 10.000000 -39.000000 -34.000000 
v 11.000000 -33.000000 -33.000000 
v 12.000000 -46.000000 7.000000 
v 10.000000 -55.000000 7.000000 
v 11.000000 -33.000000 -33.000000 
v 10.000000 39.000000 -34.000000 
v 10.000000 55.000000 7.000000 
v 12.000000 46.000000 7.000000 
v 11.000000 33.000000 -33.000000 
v 10.000000 39.000000 -34.000000 
v 12.000000 46.000000 7.000000 
v 8.000000 0.000000 -52.000000 
v 10.000000 39.000000 -34.000000 
v 11.000000 33.000000 -33.000000 
vn 0.278809 -0.871094 -0.404053 
vn 0.130371 -0.040527 -0.990479 
vn 0.857422 -0.104248 -0.503418 
vn 0.915039 -0.368652 -0.162109 
vn 0.278809 -0.871094 -0.404053 
vn 0.857422 -0.104248 -0.503418 
vn 0.857422 -0.104248 -0.503418 
vn 0.130371 -0.040527 -0.990479 
vn 0.848877 0.415771 -0.326172 
vn 0.409180 -0.909424 0.071533 
vn 0.278809 -0.871094 -0.404053 
vn 0.915039 -0.368652 -0.162109 
vn 0.818359 -0.536621 0.204834 
vn 0.409180 -0.909424 0.071533 
vn 0.915039 -0.368652 -0.162109 
vn 0.293213 0.828613 -0.476562 
vn 0.404785 0.913574 0.035645 
vn 0.926758 0.370850 0.057129 
vn 0.848877 0.415771 -0.326172 
vn 0.293213 0.828613 -0.476562 
vn 0.926758 0.370850 0.057129 
vn 0.130371 -0.040527 -0.990479 
vn 0.293213 0.828613 -0.476562 
vn 0.848877 0.415771 -0.326172 
vt 0.730159 0.165354 
vt 0.539683 0.133858 
vt 0.539683 0.165354 
vt 0.714286 0.181102 
vt 0.730159 0.165354 
vt 0.539683 0.165354 
vt 0.539683 0.165354 
vt 0.539683 0.133858 
vt 0.365079 0.181102 
vt 0.571429 0.165354 
vt 0.412698 0.165354 
vt 0.396825 0.212598 
vt 0.555556 0.228346 
vt 0.571429 0.165354 
vt 0.396825 0.212598 
vt 0.714286 0.133858 
vt 0.539683 0.133858 
vt 0.555556 0.196850 
vt 0.730159 0.181102 
vt 0.714286 0.133858 
vt 0.555556 0.196850 
vt 0.539683 0.133858 
vt 0.349206 0.165354 
vt 0.365079 0.181102 
f 1/1/1 2/2/2 3/3/3
f 4/4/4 5/5/5 6/6/6
f 7/7/7 8/8/8 9/9/9
f 10/10/10 11/11/11 12/12/12
f 13/13/13 14/14/14 15/15/15
f 16/16/16 17/17/17 18/18/18
f 19/19/19 20/20/20 21/21/21
f 22/22/22 23/23/23 24/24/24
