v 4.000000 14.000000 23.000000 
v 5.000000 17.000000 -7.000000 
v -3.000000 17.000000 -7.000000 
v -3.000000 17.000000 -7.000000 
v -2.000000 14.000000 23.000000 
v 4.000000 14.000000 23.000000 
v 3.000000 -1.000000 44.000000 
v 4.000000 14.000000 23.000000 
v -2.000000 14.000000 23.000000 
v -2.000000 14.000000 23.000000 
v 0.000000 -1.000000 44.000000 
v 3.000000 -1.000000 44.000000 
v 1.000000 -28.000000 45.000000 
v 3.000000 -1.000000 44.000000 
v 0.000000 -1.000000 44.000000 
v 3.000000 -25.000000 2.000000 
v 4.000000 -3.000000 -13.000000 
v 5.000000 17.000000 -7.000000 
v 5.000000 17.000000 -7.000000 
v 4.000000 14.000000 23.000000 
v 3.000000 -25.000000 2.000000 
v 1.000000 -37.000000 15.000000 
v 3.000000 -25.000000 2.000000 
v 4.000000 14.000000 23.000000 
v 4.000000 14.000000 23.000000 
v 3.000000 -1.000000 44.000000 
v 1.000000 -37.000000 15.000000 
v 1.000000 -61.000000 18.000000 
v 1.000000 -37.000000 15.000000 
v 3.000000 -1.000000 44.000000 
v 3.000000 -1.000000 44.000000 
v 1.000000 -28.000000 45.000000 
v 1.000000 -61.000000 18.000000 
v -1.000000 -25.000000 2.000000 
v -2.000000 -3.000000 -13.000000 
v 4.000000 -3.000000 -13.000000 
v 4.000000 -3.000000 -13.000000 
v 3.000000 -25.000000 2.000000 
v -1.000000 -25.000000 2.000000 
v 1.000000 -37.000000 15.000000 
v -1.000000 -25.000000 2.000000 
v 3.000000 -25.000000 2.000000 
v -2.000000 14.000000 23.000000 
v -3.000000 17.000000 -7.000000 
v -2.000000 -3.000000 -13.000000 
v -2.000000 -3.000000 -13.000000 
v -1.000000 -25.000000 2.000000 
v -2.000000 14.000000 23.000000 
v 0.000000 -1.000000 44.000000 
v -2.000000 14.000000 23.000000 
v -1.000000 -25.000000 2.000000 
v -1.000000 -25.000000 2.000000 
v 1.000000 -37.000000 15.000000 
v 0.000000 -1.000000 44.000000 
v 1.000000 -28.000000 45.000000 
v 0.000000 -1.000000 44.000000 
v 1.000000 -37.000000 15.000000 
v 1.000000 -37.000000 15.000000 
v 1.000000 -61.000000 18.000000 
v 1.000000 -28.000000 45.000000 
vn 0.733643 0.637695 0.234131 
vn 0.907959 0.415039 0.055664 
vn -0.455078 0.884521 0.099365 
vn -0.455078 0.884521 0.099365 
vn -0.728027 0.594971 0.340088 
vn 0.733643 0.637695 0.234131 
vn 0.741455 0.366943 0.561523 
vn 0.733643 0.637695 0.234131 
vn -0.728027 0.594971 0.340088 
vn -0.728027 0.594971 0.340088 
vn -0.851074 0.173096 0.495361 
vn 0.741455 0.366943 0.561523 
vn -0.670166 -0.064941 0.739014 
vn 0.741455 0.366943 0.561523 
vn -0.851074 0.173096 0.495361 
vn 0.829590 -0.408936 -0.379639 
vn 0.441895 -0.555420 -0.704102 
vn 0.907959 0.415039 0.055664 
vn 0.907959 0.415039 0.055664 
vn 0.733643 0.637695 0.234131 
vn 0.829590 -0.408936 -0.379639 
vn -0.000488 -0.882324 -0.470215 
vn 0.829590 -0.408936 -0.379639 
vn 0.733643 0.637695 0.234131 
vn 0.733643 0.637695 0.234131 
vn 0.741455 0.366943 0.561523 
vn -0.000488 -0.882324 -0.470215 
vn 0.996338 -0.079834 0.023682 
vn -0.000488 -0.882324 -0.470215 
vn 0.741455 0.366943 0.561523 
vn 0.741455 0.366943 0.561523 
vn -0.670166 -0.064941 0.739014 
vn 0.996338 -0.079834 0.023682 
vn -0.702148 -0.493896 -0.512695 
vn -0.890381 -0.306641 -0.335938 
vn 0.441895 -0.555420 -0.704102 
vn 0.441895 -0.555420 -0.704102 
vn 0.829590 -0.408936 -0.379639 
vn -0.702148 -0.493896 -0.512695 
vn -0.000488 -0.882324 -0.470215 
vn -0.702148 -0.493896 -0.512695 
vn 0.829590 -0.408936 -0.379639 
vn -0.728027 0.594971 0.340088 
vn -0.455078 0.884521 0.099365 
vn -0.890381 -0.306641 -0.335938 
vn -0.890381 -0.306641 -0.335938 
vn -0.702148 -0.493896 -0.512695 
vn -0.728027 0.594971 0.340088 
vn -0.851074 0.173096 0.495361 
vn -0.728027 0.594971 0.340088 
vn -0.702148 -0.493896 -0.512695 
vn -0.702148 -0.493896 -0.512695 
vn -0.000488 -0.882324 -0.470215 
vn -0.851074 0.173096 0.495361 
vn -0.670166 -0.064941 0.739014 
vn -0.851074 0.173096 0.495361 
vn -0.000488 -0.882324 -0.470215 
vn -0.000488 -0.882324 -0.470215 
vn 0.996338 -0.079834 0.023682 
vn -0.670166 -0.064941 0.739014 
vt 0.700787 0.677165 
vt 0.566929 0.606299 
vt 0.574803 0.582677 
vt 0.574803 0.582677 
vt 0.740157 0.661417 
vt 0.700787 0.677165 
vt 0.842520 0.724409 
vt 0.700787 0.677165 
vt 0.740157 0.661417 
vt 0.740157 0.661417 
vt 0.842520 0.700787 
vt 0.842520 0.724409 
vt 0.992126 0.740157 
vt 0.842520 0.724409 
vt 0.842520 0.700787 
vt 0.606299 0.039370 
vt 0.472441 0.007874 
vt 0.566929 0.606299 
vt 0.566929 0.606299 
vt 0.700787 0.677165 
vt 0.606299 0.039370 
vt 0.897638 0.023622 
vt 0.606299 0.039370 
vt 0.700787 0.677165 
vt 0.700787 0.677165 
vt 0.842520 0.724409 
vt 0.897638 0.023622 
vt 0.992126 0.007874 
vt 0.897638 0.023622 
vt 0.842520 0.724409 
vt 0.842520 0.724409 
vt 0.992126 0.740157 
vt 0.992126 0.007874 
vt 0.795276 0.000000 
vt 0.685039 0.000000 
vt 0.472441 0.007874 
vt 0.472441 0.007874 
vt 0.606299 0.039370 
vt 0.795276 0.000000 
vt 0.897638 0.023622 
vt 0.795276 0.000000 
vt 0.606299 0.039370 
vt 0.740157 0.661417 
vt 0.574803 0.582677 
vt 0.685039 0.000000 
vt 0.685039 0.000000 
vt 0.795276 0.000000 
vt 0.740157 0.661417 
vt 0.842520 0.700787 
vt 0.740157 0.661417 
vt 0.795276 0.000000 
vt 0.795276 0.000000 
vt 0.897638 0.023622 
vt 0.842520 0.700787 
vt 0.992126 0.740157 
vt 0.842520 0.700787 
vt 0.897638 0.023622 
vt 0.897638 0.023622 
vt 0.992126 0.007874 
vt 0.992126 0.740157 
f 1/1/1 2/2/2 3/3/3
f 4/4/4 5/5/5 6/6/6
f 7/7/7 8/8/8 9/9/9
f 10/10/10 11/11/11 12/12/12
f 13/13/13 14/14/14 15/15/15
f 16/16/16 17/17/17 18/18/18
f 19/19/19 20/20/20 21/21/21
f 22/22/22 23/23/23 24/24/24
f 25/25/25 26/26/26 27/27/27
f 28/28/28 29/29/29 30/30/30
f 31/31/31 32/32/32 33/33/33
f 34/34/34 35/35/35 36/36/36
f 37/37/37 38/38/38 39/39/39
f 40/40/40 41/41/41 42/42/42
f 43/43/43 44/44/44 45/45/45
f 46/46/46 47/47/47 48/48/48
f 49/49/49 50/50/50 51/51/51
f 52/52/52 53/53/53 54/54/54
f 55/55/55 56/56/56 57/57/57
f 58/58/58 59/59/59 60/60/60
