v -9.000000 2.000000 -1.000000 
v -9.000000 -3.000000 -1.000000 
v 9.000000 -3.000000 5.000000 
v 9.000000 -3.000000 5.000000 
v 9.000000 2.000000 5.000000 
v -9.000000 2.000000 -1.000000 
v -5.000000 3.000000 -5.000000 
v -9.000000 2.000000 -1.000000 
v 9.000000 2.000000 5.000000 
v 9.000000 2.000000 5.000000 
v 9.000000 3.000000 0.000000 
v -5.000000 3.000000 -5.000000 
v -5.000000 -3.000000 -5.000000 
v -5.000000 3.000000 -5.000000 
v 9.000000 3.000000 0.000000 
v 9.000000 3.000000 0.000000 
v 9.000000 -3.000000 0.000000 
v -5.000000 -3.000000 -5.000000 
v -5.000000 3.000000 -5.000000 
v -5.000000 -3.000000 -5.000000 
v -9.000000 -3.000000 -1.000000 
v -9.000000 2.000000 -1.000000 
v -5.000000 3.000000 -5.000000 
v -9.000000 -3.000000 -1.000000 
v 9.000000 2.000000 5.000000 
v 9.000000 -3.000000 5.000000 
v 9.000000 -3.000000 0.000000 
v 9.000000 3.000000 0.000000 
v 9.000000 2.000000 5.000000 
v 9.000000 -3.000000 0.000000 
vn -0.347412 0.417969 0.839111 
vn -0.382568 0.000244 0.923828 
vn -0.382568 0.000000 0.923828 
vn -0.382568 0.000000 0.923828 
vn -0.209717 0.836182 0.506592 
vn -0.347412 0.417969 0.839111 
vn 0.121582 0.947754 -0.294434 
vn -0.347412 0.417969 0.839111 
vn -0.209717 0.836182 0.506592 
vn -0.209717 0.836182 0.506592 
vn 0.320557 0.542236 -0.776367 
vn 0.121582 0.947754 -0.294434 
vn 0.379639 0.099854 -0.919434 
vn 0.121582 0.947754 -0.294434 
vn 0.320557 0.542236 -0.776367 
vn 0.320557 0.542236 -0.776367 
vn 0.379395 0.100830 -0.919678 
vn 0.379639 0.099854 -0.919434 
vn -0.707031 -0.005615 -0.707031 
vn -0.707031 -0.005615 -0.707031 
vn -0.707031 -0.005615 -0.707031 
vn -0.710693 0.000000 -0.703125 
vn -0.710693 0.000000 -0.703125 
vn -0.710693 0.000000 -0.703125 
vn 1.000000 0.000000 0.000000 
vn 1.000000 0.000000 0.000000 
vn 1.000000 0.000000 0.000000 
vn 1.000000 0.000000 0.000000 
vn 1.000000 0.000000 0.000000 
vn 1.000000 0.000000 0.000000 
vt 0.904762 0.841270 
vt 0.761905 0.698413 
vt 0.492063 0.698413 
vt 0.492063 0.698413 
vt 0.492063 0.841270 
vt 0.904762 0.841270 
vt 0.698413 0.873016 
vt 0.746032 0.841270 
vt 0.682540 0.857143 
vt 0.682540 0.857143 
vt 0.492063 0.873016 
vt 0.698413 0.873016 
vt 0.555556 0.730159 
vt 0.555556 0.809524 
vt 0.793651 0.809524 
vt 0.793651 0.809524 
vt 0.793651 0.730159 
vt 0.555556 0.730159 
vt 0.698413 0.873016 
vt 0.555556 0.730159 
vt 0.761905 0.698413 
vt 0.904762 0.841270 
vt 0.698413 0.873016 
vt 0.761905 0.698413 
vt 0.492063 0.841270 
vt 0.492063 0.698413 
vt 0.793651 0.730159 
vt 0.492063 0.873016 
vt 0.492063 0.841270 
vt 0.793651 0.730159 
f 1/1/1 2/2/2 3/3/3
f 4/4/4 5/5/5 6/6/6
f 7/7/7 8/8/8 9/9/9
f 10/10/10 11/11/11 12/12/12
f 13/13/13 14/14/14 15/15/15
f 16/16/16 17/17/17 18/18/18
f 19/19/19 20/20/20 21/21/21
f 22/22/22 23/23/23 24/24/24
f 25/25/25 26/26/26 27/27/27
f 28/28/28 29/29/29 30/30/30
