v -688.000000 216.000000 0.000000 
v -688.000000 216.000000 -203.000000 
v -688.000000 0.000000 0.000000 
v -688.000000 216.000000 0.000000 
v -688.000000 216.000000 492.000000 
v -688.000000 453.000000 0.000000 
v -688.000000 364.000000 383.000000 
v -734.000000 364.000000 383.000000 
v -734.000000 364.000000 25.000000 
v -734.000000 364.000000 25.000000 
v -688.000000 364.000000 25.000000 
v -688.000000 364.000000 383.000000 
v -688.000000 392.000000 383.000000 
v -688.000000 392.000000 25.000000 
v -727.000000 380.000000 25.000000 
v -727.000000 380.000000 25.000000 
v -727.000000 380.000000 383.000000 
v -688.000000 392.000000 383.000000 
v -727.000000 380.000000 383.000000 
v -734.000000 364.000000 383.000000 
v -688.000000 364.000000 383.000000 
v -688.000000 364.000000 383.000000 
v -688.000000 392.000000 383.000000 
v -727.000000 380.000000 383.000000 
v -727.000000 380.000000 25.000000 
v -734.000000 364.000000 25.000000 
v -734.000000 364.000000 383.000000 
v -734.000000 364.000000 383.000000 
v -727.000000 380.000000 383.000000 
v -727.000000 380.000000 25.000000 
v -688.000000 731.000000 356.000000 
v -734.000000 731.000000 356.000000 
v -734.000000 731.000000 196.000000 
v -734.000000 731.000000 196.000000 
v -688.000000 731.000000 196.000000 
v -688.000000 731.000000 356.000000 
v -688.000000 758.000000 356.000000 
v -688.000000 758.000000 196.000000 
v -727.000000 747.000000 196.000000 
v -727.000000 747.000000 196.000000 
v -727.000000 747.000000 356.000000 
v -688.000000 758.000000 356.000000 
v -727.000000 747.000000 356.000000 
v -734.000000 731.000000 356.000000 
v -688.000000 731.000000 356.000000 
v -688.000000 731.000000 356.000000 
v -688.000000 758.000000 356.000000 
v -727.000000 747.000000 356.000000 
v -727.000000 747.000000 196.000000 
v -734.000000 731.000000 196.000000 
v -734.000000 731.000000 356.000000 
v -734.000000 731.000000 356.000000 
v -727.000000 747.000000 356.000000 
v -727.000000 747.000000 196.000000 
v -688.000000 886.000000 0.000000 
v -688.000000 691.000000 -203.000000 
v -688.000000 691.000000 0.000000 
v -688.000000 453.000000 0.000000 
v -688.000000 691.000000 492.000000 
v -688.000000 691.000000 0.000000 
v -688.000000 216.000000 0.000000 
v -688.000000 0.000000 0.000000 
v -688.000000 0.000000 492.000000 
v -688.000000 87.000000 -203.000000 
v -688.000000 0.000000 -203.000000 
v -688.000000 0.000000 0.000000 
v -688.000000 325.000000 -203.000000 
v -688.000000 216.000000 -203.000000 
v -688.000000 216.000000 0.000000 
v -688.000000 216.000000 0.000000 
v -688.000000 453.000000 0.000000 
v -688.000000 453.000000 -203.000000 
v -688.000000 325.000000 492.000000 
v -688.000000 453.000000 492.000000 
v -688.000000 453.000000 0.000000 
v -688.000000 87.000000 492.000000 
v -688.000000 216.000000 492.000000 
v -688.000000 216.000000 0.000000 
v -688.000000 886.000000 0.000000 
v -688.000000 691.000000 0.000000 
v -688.000000 886.000000 492.000000 
v -688.000000 572.000000 -203.000000 
v -688.000000 453.000000 -203.000000 
v -688.000000 691.000000 0.000000 
v -688.000000 810.000000 -203.000000 
v -688.000000 691.000000 -203.000000 
v -688.000000 886.000000 0.000000 
v -688.000000 453.000000 0.000000 
v -688.000000 691.000000 0.000000 
v -688.000000 453.000000 -203.000000 
v -688.000000 810.000000 492.000000 
v -688.000000 886.000000 492.000000 
v -688.000000 691.000000 0.000000 
v -688.000000 572.000000 492.000000 
v -688.000000 691.000000 492.000000 
v -688.000000 453.000000 0.000000 
v -688.000000 216.000000 -203.000000 
v -688.000000 87.000000 -203.000000 
v -688.000000 0.000000 0.000000 
v -688.000000 453.000000 -203.000000 
v -688.000000 325.000000 -203.000000 
v -688.000000 216.000000 0.000000 
v -688.000000 691.000000 -203.000000 
v -688.000000 572.000000 -203.000000 
v -688.000000 691.000000 0.000000 
v -688.000000 886.000000 -203.000000 
v -688.000000 810.000000 -203.000000 
v -688.000000 886.000000 0.000000 
v -688.000000 216.000000 492.000000 
v -688.000000 325.000000 492.000000 
v -688.000000 453.000000 0.000000 
v -688.000000 0.000000 492.000000 
v -688.000000 87.000000 492.000000 
v -688.000000 216.000000 0.000000 
v -688.000000 691.000000 492.000000 
v -688.000000 810.000000 492.000000 
v -688.000000 691.000000 0.000000 
v -688.000000 453.000000 492.000000 
v -688.000000 572.000000 492.000000 
v -688.000000 453.000000 0.000000 
vn -1.000000 0.000000 0.000000 
vn -1.000000 0.000000 0.000000 
vn -1.000000 0.000000 0.000000 
vn -1.000000 0.000000 0.000000 
vn -1.000000 0.000000 0.000000 
vn -1.000000 0.000000 0.000000 
vn 0.000000 -1.000000 0.000000 
vn 0.000000 -1.000000 0.000000 
vn 0.000000 -1.000000 0.000000 
vn 0.000000 -1.000000 0.000000 
vn 0.000000 -1.000000 0.000000 
vn 0.000000 -1.000000 0.000000 
vn -0.289307 0.957031 0.000000 
vn -0.289307 0.957031 0.000000 
vn -0.289307 0.957031 0.000000 
vn -0.289307 0.957031 0.000000 
vn -0.289307 0.957031 0.000000 
vn -0.289307 0.957031 0.000000 
vn 0.000000 0.000000 1.000000 
vn 0.000000 0.000000 1.000000 
vn 0.000000 0.000000 1.000000 
vn 0.000000 0.000000 1.000000 
vn 0.000000 0.000000 1.000000 
vn 0.000000 0.000000 1.000000 
vn -0.909912 0.414307 0.000000 
vn -0.909912 0.414307 0.000000 
vn -0.909912 0.414307 0.000000 
vn -0.909912 0.414307 0.000000 
vn -0.909912 0.414307 0.000000 
vn -0.909912 0.414307 0.000000 
vn 0.000000 -1.000000 0.000000 
vn 0.000000 -1.000000 0.000000 
vn 0.000000 -1.000000 0.000000 
vn 0.000000 -1.000000 0.000000 
vn 0.000000 -1.000000 0.000000 
vn 0.000000 -1.000000 0.000000 
vn -0.289307 0.957031 0.000000 
vn -0.289307 0.957031 0.000000 
vn -0.289307 0.957031 0.000000 
vn -0.289307 0.957031 0.000000 
vn -0.289307 0.957031 0.000000 
vn -0.289307 0.957031 0.000000 
vn 0.000000 0.000000 1.000000 
vn 0.000000 0.000000 1.000000 
vn 0.000000 0.000000 1.000000 
vn 0.000000 0.000000 1.000000 
vn 0.000000 0.000000 1.000000 
vn 0.000000 0.000000 1.000000 
vn -0.909912 0.414307 0.000000 
vn -0.909912 0.414307 0.000000 
vn -0.909912 0.414307 0.000000 
vn -0.909912 0.414307 0.000000 
vn -0.909912 0.414307 0.000000 
vn -0.909912 0.414307 0.000000 
vn -1.000000 0.000000 0.000000 
vn -1.000000 0.000000 0.000000 
vn -1.000000 0.000000 0.000000 
vn -1.000000 0.000000 0.000000 
vn -1.000000 0.000000 0.000000 
vn -1.000000 0.000000 0.000000 
vn -1.000000 0.000000 0.000000 
vn -1.000000 0.000000 0.000000 
vn -1.000000 0.000000 0.000000 
vn -1.000000 0.000000 0.000000 
vn -1.000000 0.000000 0.000000 
vn -1.000000 0.000000 0.000000 
vn -1.000000 0.000000 0.000000 
vn -1.000000 0.000000 0.000000 
vn -1.000000 0.000000 0.000000 
vn -1.000000 0.000000 0.000000 
vn -1.000000 0.000000 0.000000 
vn -1.000000 0.000000 0.000000 
vn -1.000000 0.000000 0.000000 
vn -1.000000 0.000000 0.000000 
vn -1.000000 0.000000 0.000000 
vn -1.000000 0.000000 0.000000 
vn -1.000000 0.000000 0.000000 
vn -1.000000 0.000000 0.000000 
vn -1.000000 0.000000 0.000000 
vn -1.000000 0.000000 0.000000 
vn -1.000000 0.000000 0.000000 
vn -1.000000 0.000000 0.000000 
vn -1.000000 0.000000 0.000000 
vn -1.000000 0.000000 0.000000 
vn -1.000000 0.000000 0.000000 
vn -1.000000 0.000000 0.000000 
vn -1.000000 0.000000 0.000000 
vn -1.000000 0.000000 0.000000 
vn -1.000000 0.000000 0.000000 
vn -1.000000 0.000000 0.000000 
vn -1.000000 0.000000 0.000000 
vn -1.000000 0.000000 0.000000 
vn -1.000000 0.000000 0.000000 
vn -1.000000 0.000000 0.000000 
vn -1.000000 0.000000 0.000000 
vn -1.000000 0.000000 0.000000 
vn -1.000000 0.000000 0.000000 
vn -1.000000 0.000000 0.000000 
vn -1.000000 0.000000 0.000000 
vn -1.000000 0.000000 0.000000 
vn -1.000000 0.000000 0.000000 
vn -1.000000 0.000000 0.000000 
vn -1.000000 0.000000 0.000000 
vn -1.000000 0.000000 0.000000 
vn -1.000000 0.000000 0.000000 
vn -1.000000 0.000000 0.000000 
vn -1.000000 0.000000 0.000000 
vn -1.000000 0.000000 0.000000 
vn -1.000000 0.000000 0.000000 
vn -1.000000 0.000000 0.000000 
vn -1.000000 0.000000 0.000000 
vn -1.000000 0.000000 0.000000 
vn -1.000000 0.000000 0.000000 
vn -1.000000 0.000000 0.000000 
vn -1.000000 0.000000 0.000000 
vn -1.000000 0.000000 0.000000 
vn -1.000000 0.000000 0.000000 
vn -1.000000 0.000000 0.000000 
vn -1.000000 0.000000 0.000000 
vn -1.000000 0.000000 0.000000 
vt 0.494118 0.552941 
vt 0.047059 0.549020 
vt 0.498039 0.000000 
vt 0.494118 0.552941 
vt 0.949020 0.470588 
vt 0.494118 0.992157 
vt 0.878431 0.156863 
vt 0.800000 0.227451 
vt 0.607843 0.231373 
vt 0.607843 0.231373 
vt 0.737255 0.164706 
vt 0.878431 0.156863 
vt 0.796078 0.078431 
vt 0.611765 0.078431 
vt 0.600000 0.145098 
vt 0.600000 0.145098 
vt 0.800000 0.145098 
vt 0.796078 0.078431 
vt 0.800000 0.145098 
vt 0.800000 0.227451 
vt 0.878431 0.156863 
vt 0.878431 0.156863 
vt 0.796078 0.078431 
vt 0.800000 0.145098 
vt 0.600000 0.145098 
vt 0.607843 0.231373 
vt 0.800000 0.227451 
vt 0.800000 0.227451 
vt 0.800000 0.145098 
vt 0.600000 0.145098 
vt 0.878431 0.156863 
vt 0.800000 0.227451 
vt 0.607843 0.231373 
vt 0.607843 0.231373 
vt 0.737255 0.164706 
vt 0.878431 0.156863 
vt 0.796078 0.078431 
vt 0.611765 0.078431 
vt 0.600000 0.145098 
vt 0.600000 0.145098 
vt 0.800000 0.145098 
vt 0.796078 0.078431 
vt 0.800000 0.145098 
vt 0.800000 0.227451 
vt 0.878431 0.156863 
vt 0.878431 0.156863 
vt 0.796078 0.078431 
vt 0.800000 0.145098 
vt 0.600000 0.145098 
vt 0.607843 0.231373 
vt 0.800000 0.227451 
vt 0.800000 0.227451 
vt 0.800000 0.145098 
vt 0.600000 0.145098 
vt 0.498039 0.992157 
vt 0.047059 0.596078 
vt 0.501961 0.596078 
vt 0.494118 0.003922 
vt 0.949020 0.596078 
vt 0.501961 0.596078 
vt 0.494118 0.552941 
vt 0.498039 0.000000 
vt 0.949020 0.003922 
vt 0.047059 0.305882 
vt 0.047059 0.000000 
vt 0.498039 0.000000 
vt 0.047059 0.686274 
vt 0.047059 0.549020 
vt 0.494118 0.552941 
vt 0.494118 0.552941 
vt 0.494118 0.992157 
vt 0.047059 0.992157 
vt 0.949020 0.690196 
vt 0.949020 0.996078 
vt 0.494118 0.992157 
vt 0.949020 0.309804 
vt 0.949020 0.470588 
vt 0.494118 0.552941 
vt 0.498039 0.992157 
vt 0.501961 0.596078 
vt 0.949020 0.996078 
vt 0.047059 0.305882 
vt 0.047059 0.003922 
vt 0.501961 0.596078 
vt 0.047059 0.792157 
vt 0.047059 0.596078 
vt 0.498039 0.992157 
vt 0.494118 0.003922 
vt 0.501961 0.596078 
vt 0.047059 0.003922 
vt 0.949020 0.796078 
vt 0.949020 0.996078 
vt 0.501961 0.596078 
vt 0.949020 0.309804 
vt 0.949020 0.596078 
vt 0.494118 0.003922 
vt 0.047059 0.549020 
vt 0.047059 0.305882 
vt 0.498039 0.000000 
vt 0.047059 0.992157 
vt 0.047059 0.686274 
vt 0.494118 0.552941 
vt 0.047059 0.596078 
vt 0.047059 0.305882 
vt 0.501961 0.596078 
vt 0.047059 0.992157 
vt 0.047059 0.792157 
vt 0.498039 0.992157 
vt 0.949020 0.470588 
vt 0.949020 0.690196 
vt 0.494118 0.992157 
vt 0.949020 0.003922 
vt 0.949020 0.309804 
vt 0.494118 0.552941 
vt 0.949020 0.596078 
vt 0.949020 0.796078 
vt 0.501961 0.596078 
vt 0.945098 0.003922 
vt 0.949020 0.309804 
vt 0.494118 0.003922 
f 1/1/1 2/2/2 3/3/3
f 4/4/4 5/5/5 6/6/6
f 7/7/7 8/8/8 9/9/9
f 10/10/10 11/11/11 12/12/12
f 13/13/13 14/14/14 15/15/15
f 16/16/16 17/17/17 18/18/18
f 19/19/19 20/20/20 21/21/21
f 22/22/22 23/23/23 24/24/24
f 25/25/25 26/26/26 27/27/27
f 28/28/28 29/29/29 30/30/30
f 31/31/31 32/32/32 33/33/33
f 34/34/34 35/35/35 36/36/36
f 37/37/37 38/38/38 39/39/39
f 40/40/40 41/41/41 42/42/42
f 43/43/43 44/44/44 45/45/45
f 46/46/46 47/47/47 48/48/48
f 49/49/49 50/50/50 51/51/51
f 52/52/52 53/53/53 54/54/54
f 55/55/55 56/56/56 57/57/57
f 58/58/58 59/59/59 60/60/60
f 61/61/61 62/62/62 63/63/63
f 64/64/64 65/65/65 66/66/66
f 67/67/67 68/68/68 69/69/69
f 70/70/70 71/71/71 72/72/72
f 73/73/73 74/74/74 75/75/75
f 76/76/76 77/77/77 78/78/78
f 79/79/79 80/80/80 81/81/81
f 82/82/82 83/83/83 84/84/84
f 85/85/85 86/86/86 87/87/87
f 88/88/88 89/89/89 90/90/90
f 91/91/91 92/92/92 93/93/93
f 94/94/94 95/95/95 96/96/96
f 97/97/97 98/98/98 99/99/99
f 100/100/100 101/101/101 102/102/102
f 103/103/103 104/104/104 105/105/105
f 106/106/106 107/107/107 108/108/108
f 109/109/109 110/110/110 111/111/111
f 112/112/112 113/113/113 114/114/114
f 115/115/115 116/116/116 117/117/117
f 118/118/118 119/119/119 120/120/120
