v 0.000000 15.000000 -49.000000 
v 0.000000 15.000000 -49.000000 
v 0.000000 -29.000000 -79.000000 
v -31.000000 -8.000000 -35.000000 
v -20.000000 8.000000 -40.000000 
v 0.000000 -36.000000 -84.000000 
v 20.000000 8.000000 -40.000000 
v 31.000000 -8.000000 -35.000000 
v 0.000000 -37.000000 -84.000000 
v 0.000000 15.000000 -49.000000 
v 20.000000 8.000000 -40.000000 
v 0.000000 -29.000000 -79.000000 
v -1.000000 33.000000 -15.000000 
v -1.000000 35.000000 -13.000000 
v 0.000000 35.000000 -13.000000 
v 0.000000 35.000000 -13.000000 
v 0.000000 15.000000 -49.000000 
v 0.000000 15.000000 -49.000000 
v -31.000000 -8.000000 -35.000000 
v -37.000000 0.000000 -5.000000 
v -24.000000 22.000000 -8.000000 
v -24.000000 22.000000 -8.000000 
v -20.000000 8.000000 -40.000000 
v -31.000000 -8.000000 -35.000000 
v 20.000000 8.000000 -40.000000 
v 24.000000 22.000000 -8.000000 
v 37.000000 0.000000 -5.000000 
v 37.000000 0.000000 -5.000000 
v 31.000000 -8.000000 -35.000000 
v 20.000000 8.000000 -40.000000 
v 0.000000 15.000000 -49.000000 
v 0.000000 35.000000 -13.000000 
v 24.000000 22.000000 -8.000000 
v 24.000000 22.000000 -8.000000 
v 20.000000 8.000000 -40.000000 
v 0.000000 15.000000 -49.000000 
v 0.000000 -36.000000 -84.000000 
v 0.000000 -5.000000 -35.000000 
v -31.000000 -8.000000 -35.000000 
v 0.000000 0.000000 -5.000000 
v -37.000000 0.000000 -5.000000 
v -31.000000 -8.000000 -35.000000 
v 31.000000 -8.000000 -35.000000 
v 37.000000 0.000000 -5.000000 
v 0.000000 -5.000000 -35.000000 
v -20.000000 8.000000 -40.000000 
v 0.000000 -29.000000 -79.000000 
v 0.000000 -37.000000 -84.000000 
v 0.000000 -29.000000 -79.000000 
v 20.000000 8.000000 -40.000000 
v 0.000000 -37.000000 -84.000000 
v -20.000000 8.000000 -40.000000 
v 0.000000 15.000000 -49.000000 
v 0.000000 -29.000000 -79.000000 
v 0.000000 35.000000 -13.000000 
v 0.000000 15.000000 -49.000000 
v -1.000000 33.000000 -15.000000 
v -1.000000 33.000000 -15.000000 
v 0.000000 15.000000 -49.000000 
v -20.000000 8.000000 -40.000000 
v -20.000000 8.000000 -40.000000 
v -24.000000 22.000000 -8.000000 
v -1.000000 33.000000 -15.000000 
v -1.000000 33.000000 -15.000000 
v -24.000000 22.000000 -8.000000 
v -1.000000 35.000000 -13.000000 
v 0.000000 -5.000000 -35.000000 
v 0.000000 0.000000 -5.000000 
v -31.000000 -8.000000 -35.000000 
v 37.000000 0.000000 -5.000000 
v 0.000000 0.000000 -5.000000 
v 0.000000 -5.000000 -35.000000 
v 0.000000 -37.000000 -84.000000 
v 31.000000 -8.000000 -35.000000 
v 0.000000 -5.000000 -35.000000 
v 0.000000 -37.000000 -84.000000 
v 0.000000 -5.000000 -35.000000 
v 0.000000 -36.000000 -84.000000 
v 0.000000 -36.000000 -84.000000 
v -20.000000 8.000000 -40.000000 
v 0.000000 -37.000000 -84.000000 
vn -0.505615 0.660889 -0.554199 
vn 0.117920 0.763916 -0.634277 
vn -0.118652 0.545654 -0.829346 
vn -0.813965 0.403809 -0.416992 
vn -0.634521 0.521729 -0.569824 
vn -0.715088 0.297363 -0.632324 
vn 0.677002 0.507812 -0.532471 
vn 0.790039 0.392090 -0.470703 
vn -0.000244 0.496094 -0.867920 
vn 0.117920 0.763916 -0.634277 
vn 0.677002 0.507812 -0.532471 
vn -0.118652 0.545654 -0.829346 
vn -0.496582 0.762695 -0.414062 
vn -0.505371 0.761230 -0.405762 
vn -0.268066 0.843506 -0.465088 
vn -0.268066 0.843506 -0.465088 
vn 0.117920 0.763916 -0.634277 
vn -0.505615 0.660889 -0.554199 
vn -0.813965 0.403809 -0.416992 
vn -0.851807 0.437744 -0.286621 
vn -0.693848 0.621826 -0.362793 
vn -0.693848 0.621826 -0.362793 
vn -0.634521 0.521729 -0.569824 
vn -0.813965 0.403809 -0.416992 
vn 0.677002 0.507812 -0.532471 
vn 0.627686 0.674316 -0.388672 
vn 0.840820 0.451660 -0.297363 
vn 0.840820 0.451660 -0.297363 
vn 0.790039 0.392090 -0.470703 
vn 0.677002 0.507812 -0.532471 
vn 0.117920 0.763916 -0.634277 
vn -0.268066 0.843506 -0.465088 
vn 0.627686 0.674316 -0.388672 
vn 0.627686 0.674316 -0.388672 
vn 0.677002 0.507812 -0.532471 
vn 0.117920 0.763916 -0.634277 
vn 0.081055 -0.836426 0.541748 
vn 0.015625 -0.926514 0.375244 
vn 0.059814 -0.945068 0.321289 
vn 0.031738 -0.981445 0.188477 
vn 0.000000 -0.968750 0.247803 
vn 0.059814 -0.945068 0.321289 
vn -0.083496 -0.909668 0.406494 
vn -0.044189 -0.976074 0.211914 
vn 0.015625 -0.926514 0.375244 
vn -0.634521 0.521729 -0.569824 
vn -0.118652 0.545654 -0.829346 
vn -0.000244 0.496094 -0.867920 
vn -0.118652 0.545654 -0.829346 
vn 0.677002 0.507812 -0.532471 
vn -0.000244 0.496094 -0.867920 
vn -0.634521 0.521729 -0.569824 
vn -0.505615 0.660889 -0.554199 
vn -0.118652 0.545654 -0.829346 
vn -0.268066 0.843506 -0.465088 
vn -0.505615 0.660889 -0.554199 
vn -0.496582 0.762695 -0.414062 
vn -0.496582 0.762695 -0.414062 
vn -0.505615 0.660889 -0.554199 
vn -0.634521 0.521729 -0.569824 
vn -0.634521 0.521729 -0.569824 
vn -0.693848 0.621826 -0.362793 
vn -0.496582 0.762695 -0.414062 
vn -0.496582 0.762695 -0.414062 
vn -0.693848 0.621826 -0.362793 
vn -0.505371 0.761230 -0.405762 
vn 0.015625 -0.926514 0.375244 
vn 0.031738 -0.981445 0.188477 
vn 0.059814 -0.945068 0.321289 
vn -0.044189 -0.976074 0.211914 
vn 0.031738 -0.981445 0.188477 
vn 0.015625 -0.926514 0.375244 
vn 0.001953 -0.839844 0.542480 
vn -0.083496 -0.909668 0.406494 
vn 0.015625 -0.926514 0.375244 
vn 0.001953 -0.839844 0.542480 
vn 0.015625 -0.926514 0.375244 
vn 0.081055 -0.836426 0.541748 
vn -0.715088 0.297363 -0.632324 
vn -0.634521 0.521729 -0.569824 
vn -0.000244 0.496094 -0.867920 
vt 0.322835 0.110236 
vt 0.314961 0.110236 
vt 0.307087 0.204724 
vt 0.456693 0.102362 
vt 0.354331 0.102362 
vt 0.314961 0.220472 
vt 0.354331 0.102362 
vt 0.456693 0.102362 
vt 0.307087 0.220472 
vt 0.314961 0.110236 
vt 0.354331 0.102362 
vt 0.307087 0.204724 
vt 0.322835 0.015748 
vt 0.322835 0.007874 
vt 0.314961 0.007874 
vt 0.314961 0.007874 
vt 0.314961 0.110236 
vt 0.322835 0.110236 
vt 0.456693 0.102362 
vt 0.519685 0.000000 
vt 0.354331 0.000000 
vt 0.354331 0.000000 
vt 0.354331 0.102362 
vt 0.456693 0.102362 
vt 0.354331 0.102362 
vt 0.354331 0.000000 
vt 0.519685 0.000000 
vt 0.519685 0.000000 
vt 0.456693 0.102362 
vt 0.354331 0.102362 
vt 0.314961 0.110236 
vt 0.314961 0.007874 
vt 0.354331 0.000000 
vt 0.354331 0.000000 
vt 0.354331 0.102362 
vt 0.314961 0.110236 
vt 0.362205 0.055118 
vt 0.464567 0.062992 
vt 0.464567 0.062992 
vt 0.496063 0.000000 
vt 0.496063 0.000000 
vt 0.464567 0.062992 
vt 0.464567 0.062992 
vt 0.496063 0.000000 
vt 0.464567 0.062992 
vt 0.354331 0.102362 
vt 0.307087 0.204724 
vt 0.307087 0.220472 
vt 0.307087 0.204724 
vt 0.354331 0.102362 
vt 0.307087 0.220472 
vt 0.354331 0.102362 
vt 0.322835 0.110236 
vt 0.307087 0.204724 
vt 0.314961 0.007874 
vt 0.322835 0.110236 
vt 0.322835 0.015748 
vt 0.322835 0.015748 
vt 0.322835 0.110236 
vt 0.354331 0.102362 
vt 0.354331 0.102362 
vt 0.354331 0.000000 
vt 0.322835 0.015748 
vt 0.322835 0.015748 
vt 0.354331 0.000000 
vt 0.322835 0.007874 
vt 0.464567 0.062992 
vt 0.496063 0.000000 
vt 0.464567 0.062992 
vt 0.496063 0.000000 
vt 0.496063 0.000000 
vt 0.464567 0.062992 
vt 0.362205 0.055118 
vt 0.464567 0.062992 
vt 0.464567 0.062992 
vt 0.362205 0.055118 
vt 0.464567 0.062992 
vt 0.362205 0.055118 
vt 0.314961 0.220472 
vt 0.354331 0.102362 
vt 0.307087 0.220472 
f 1/1/1 2/2/2 3/3/3
f 4/4/4 5/5/5 6/6/6
f 7/7/7 8/8/8 9/9/9
f 10/10/10 11/11/11 12/12/12
f 13/13/13 14/14/14 15/15/15
f 16/16/16 17/17/17 18/18/18
f 19/19/19 20/20/20 21/21/21
f 22/22/22 23/23/23 24/24/24
f 25/25/25 26/26/26 27/27/27
f 28/28/28 29/29/29 30/30/30
f 31/31/31 32/32/32 33/33/33
f 34/34/34 35/35/35 36/36/36
f 37/37/37 38/38/38 39/39/39
f 40/40/40 41/41/41 42/42/42
f 43/43/43 44/44/44 45/45/45
f 46/46/46 47/47/47 48/48/48
f 49/49/49 50/50/50 51/51/51
f 52/52/52 53/53/53 54/54/54
f 55/55/55 56/56/56 57/57/57
f 58/58/58 59/59/59 60/60/60
f 61/61/61 62/62/62 63/63/63
f 64/64/64 65/65/65 66/66/66
f 67/67/67 68/68/68 69/69/69
f 70/70/70 71/71/71 72/72/72
f 73/73/73 74/74/74 75/75/75
f 76/76/76 77/77/77 78/78/78
f 79/79/79 80/80/80 81/81/81
