v 5.000000 3.000000 -24.000000 
v 14.000000 2.000000 -4.000000 
v -14.000000 -4.000000 -4.000000 
v 14.000000 2.000000 -4.000000 
v 5.000000 2.000000 16.000000 
v -14.000000 -4.000000 -4.000000 
v 5.000000 2.000000 16.000000 
v -14.000000 2.000000 24.000000 
v -14.000000 -4.000000 -4.000000 
vn 0.206787 -0.974121 -0.089355 
vn 0.207764 -0.978027 -0.001709 
vn 0.167969 -0.983154 0.068359 
vn 0.207764 -0.978027 -0.001709 
vn 0.146729 -0.978027 0.146729 
vn 0.167969 -0.983154 0.068359 
vn 0.146729 -0.978027 0.146729 
vn 0.085693 -0.974365 0.207031 
vn 0.167969 -0.983154 0.068359 
vt 0.698413 0.031746 
vt 0.396825 0.000000 
vt 0.698413 0.285714 
vt 0.682540 0.000000 
vt 0.476190 0.000000 
vt 0.555556 0.269841 
vt 0.888889 0.000000 
vt 0.698413 0.000000 
vt 0.698413 0.317460 
f 1/1/1 2/2/2 3/3/3
f 4/4/4 5/5/5 6/6/6
f 7/7/7 8/8/8 9/9/9
