v 0.000000 2.000000 -5.000000 
v 0.000000 -3.000000 -5.000000 
v -18.000000 -3.000000 1.000000 
v -18.000000 -3.000000 1.000000 
v -18.000000 2.000000 1.000000 
v 0.000000 2.000000 -5.000000 
v 18.000000 2.000000 1.000000 
v 18.000000 -3.000000 1.000000 
v 0.000000 -3.000000 -5.000000 
v 0.000000 -3.000000 -5.000000 
v 0.000000 2.000000 -5.000000 
v 18.000000 2.000000 1.000000 
v 0.000000 3.000000 0.000000 
v 0.000000 2.000000 -5.000000 
v -18.000000 2.000000 1.000000 
v -18.000000 2.000000 1.000000 
v -14.000000 3.000000 5.000000 
v 0.000000 3.000000 0.000000 
v 14.000000 3.000000 5.000000 
v 18.000000 2.000000 1.000000 
v 0.000000 2.000000 -5.000000 
v 0.000000 2.000000 -5.000000 
v 0.000000 3.000000 0.000000 
v 14.000000 3.000000 5.000000 
v 0.000000 -3.000000 0.000000 
v 0.000000 3.000000 0.000000 
v -14.000000 3.000000 5.000000 
v -14.000000 3.000000 5.000000 
v -14.000000 -3.000000 5.000000 
v 0.000000 -3.000000 0.000000 
v 14.000000 -3.000000 5.000000 
v 14.000000 3.000000 5.000000 
v 0.000000 3.000000 0.000000 
v 0.000000 3.000000 0.000000 
v 0.000000 -3.000000 0.000000 
v 14.000000 -3.000000 5.000000 
vn -0.074707 0.680176 -0.729004 
vn 0.136719 0.000000 -0.990479 
vn -0.382568 0.000000 -0.923828 
vn -0.382568 0.000000 -0.923828 
vn -0.209229 0.836426 -0.506104 
vn -0.074707 0.680176 -0.729004 
vn 0.347412 0.418213 -0.839111 
vn 0.382568 0.000000 -0.923828 
vn 0.136719 0.000000 -0.990479 
vn 0.136719 0.000000 -0.990479 
vn -0.074707 0.680176 -0.729004 
vn 0.347412 0.418213 -0.839111 
vn -0.107910 0.806885 0.580566 
vn -0.074707 0.680176 -0.729004 
vn -0.209229 0.836426 -0.506104 
vn -0.209229 0.836426 -0.506104 
vn 0.320557 0.542236 0.776367 
vn -0.107910 0.806885 0.580566 
vn -0.122803 0.947266 0.295654 
vn 0.347412 0.418213 -0.839111 
vn -0.074707 0.680176 -0.729004 
vn -0.074707 0.680176 -0.729004 
vn -0.107910 0.806885 0.580566 
vn -0.122803 0.947266 0.295654 
vn 0.135498 0.107422 0.984863 
vn -0.107910 0.806885 0.580566 
vn 0.320557 0.542236 0.776367 
vn 0.320557 0.542236 0.776367 
vn 0.379150 0.098633 0.919922 
vn 0.135498 0.107422 0.984863 
vn -0.380127 0.098389 0.919434 
vn -0.122803 0.947266 0.295654 
vn -0.107910 0.806885 0.580566 
vn -0.107910 0.806885 0.580566 
vn 0.135498 0.107422 0.984863 
vn -0.380127 0.098389 0.919434 
vt 0.746032 0.809524 
vt 0.746032 0.746032 
vt 0.476190 0.746032 
vt 0.476190 0.746032 
vt 0.476190 0.809524 
vt 0.746032 0.809524 
vt 0.111111 0.857143 
vt 0.222222 0.746032 
vt 0.666667 0.777778 
vt 0.666667 0.777778 
vt 0.650794 0.857143 
vt 0.111111 0.857143 
vt 0.714286 0.841270 
vt 0.698413 0.793651 
vt 0.936508 0.793651 
vt 0.936508 0.793651 
vt 0.936508 0.841270 
vt 0.714286 0.841270 
vt 0.920635 0.841270 
vt 0.968254 0.809524 
vt 0.714286 0.809524 
vt 0.714286 0.809524 
vt 0.714286 0.841270 
vt 0.920635 0.841270 
vt 0.000000 0.746032 
vt 0.000000 0.793651 
vt 0.238095 0.793651 
vt 0.238095 0.793651 
vt 0.238095 0.746032 
vt 0.000000 0.746032 
vt 0.492063 0.730159 
vt 0.492063 0.793651 
vt 0.730159 0.793651 
vt 0.730159 0.793651 
vt 0.730159 0.730159 
vt 0.492063 0.730159 
f 1/1/1 2/2/2 3/3/3
f 4/4/4 5/5/5 6/6/6
f 7/7/7 8/8/8 9/9/9
f 10/10/10 11/11/11 12/12/12
f 13/13/13 14/14/14 15/15/15
f 16/16/16 17/17/17 18/18/18
f 19/19/19 20/20/20 21/21/21
f 22/22/22 23/23/23 24/24/24
f 25/25/25 26/26/26 27/27/27
f 28/28/28 29/29/29 30/30/30
f 31/31/31 32/32/32 33/33/33
f 34/34/34 35/35/35 36/36/36
