v -10.000000 5.000000 -27.000000 
v -12.000000 15.000000 -23.000000 
v 22.000000 -5.000000 9.000000 
v -12.000000 15.000000 -23.000000 
v 19.000000 4.000000 12.000000 
v 22.000000 -5.000000 9.000000 
v -12.000000 15.000000 -23.000000 
v -16.000000 19.000000 -14.000000 
v 19.000000 4.000000 12.000000 
v -16.000000 19.000000 -14.000000 
v 11.000000 8.000000 18.000000 
v 19.000000 4.000000 12.000000 
v -16.000000 19.000000 -14.000000 
v -21.000000 15.000000 -5.000000 
v 11.000000 8.000000 18.000000 
v -21.000000 15.000000 -5.000000 
v 4.000000 4.000000 24.000000 
v 11.000000 8.000000 18.000000 
v -21.000000 15.000000 -5.000000 
v -22.000000 5.000000 -1.000000 
v 4.000000 4.000000 24.000000 
v -22.000000 5.000000 -1.000000 
v 0.000000 -5.000000 27.000000 
v 4.000000 4.000000 24.000000 
v -22.000000 5.000000 -1.000000 
v -21.000000 -4.000000 -5.000000 
v 0.000000 -5.000000 27.000000 
v -21.000000 -4.000000 -5.000000 
v 4.000000 -15.000000 24.000000 
v 0.000000 -5.000000 27.000000 
v -12.000000 -4.000000 -23.000000 
v -10.000000 5.000000 -27.000000 
v 19.000000 -15.000000 12.000000 
v -10.000000 5.000000 -27.000000 
v 22.000000 -5.000000 9.000000 
v 19.000000 -15.000000 12.000000 
v 4.000000 4.000000 24.000000 
v 19.000000 4.000000 12.000000 
v 11.000000 8.000000 18.000000 
v 0.000000 -5.000000 27.000000 
v 22.000000 -5.000000 9.000000 
v 19.000000 4.000000 12.000000 
v 4.000000 4.000000 24.000000 
v 0.000000 -5.000000 27.000000 
v 19.000000 4.000000 12.000000 
v -16.000000 19.000000 -14.000000 
v -12.000000 15.000000 -23.000000 
v -21.000000 15.000000 -5.000000 
v -12.000000 15.000000 -23.000000 
v -10.000000 5.000000 -27.000000 
v -22.000000 5.000000 -1.000000 
v -21.000000 15.000000 -5.000000 
v -12.000000 15.000000 -23.000000 
v -22.000000 5.000000 -1.000000 
vn 0.710449 -0.142090 -0.688965 
vn 0.693604 0.560303 -0.452393 
vn 0.754150 0.125244 -0.644531 
vn 0.693604 0.560303 -0.452393 
vn 0.586182 0.761475 -0.275635 
vn 0.754150 0.125244 -0.644531 
vn 0.693604 0.560303 -0.452393 
vn 0.293945 0.954102 0.055176 
vn 0.586182 0.761475 -0.275635 
vn 0.293945 0.954102 0.055176 
vn 0.077637 0.960449 0.267090 
vn 0.586182 0.761475 -0.275635 
vn 0.293945 0.954102 0.055176 
vn -0.306152 0.785156 0.537842 
vn 0.077637 0.960449 0.267090 
vn -0.306152 0.785156 0.537842 
vn -0.502930 0.585449 0.635498 
vn 0.077637 0.960449 0.267090 
vn -0.306152 0.785156 0.537842 
vn -0.736084 0.146240 0.660645 
vn -0.502930 0.585449 0.635498 
vn -0.736084 0.146240 0.660645 
vn -0.787354 -0.120117 0.604492 
vn -0.502930 0.585449 0.635498 
vn -0.736084 0.146240 0.660645 
vn -0.781494 -0.357666 0.510498 
vn -0.787354 -0.120117 0.604492 
vn -0.781494 -0.357666 0.510498 
vn -0.774170 -0.381104 0.504883 
vn -0.787354 -0.120117 0.604492 
vn 0.630615 -0.368164 -0.682861 
vn 0.710449 -0.142090 -0.688965 
vn 0.627197 -0.373291 -0.683105 
vn 0.710449 -0.142090 -0.688965 
vn 0.754150 0.125244 -0.644531 
vn 0.627197 -0.373291 -0.683105 
vn 0.623291 0.000000 0.781738 
vn 0.623291 0.000000 0.781738 
vn 0.623291 0.000000 0.781738 
vn 0.623291 0.000000 0.781738 
vn 0.623291 0.000000 0.781738 
vn 0.623291 0.000000 0.781738 
vn 0.623291 0.000000 0.781738 
vn 0.623291 0.000000 0.781738 
vn 0.623291 0.000000 0.781738 
vn -0.900879 0.000000 -0.433838 
vn -0.900879 0.000000 -0.433838 
vn -0.900879 0.000000 -0.433838 
vn -0.900879 0.000000 -0.433838 
vn -0.900879 0.000000 -0.433838 
vn -0.900879 0.000000 -0.433838 
vn -0.900879 0.000000 -0.433838 
vn -0.900879 0.000000 -0.433838 
vn -0.900879 0.000000 -0.433838 
vt 0.000000 1.000000 
vt 1.000000 1.000000 
vt 0.000000 -0.007874 
vt 1.000000 1.000000 
vt 1.000000 -0.007874 
vt 0.000000 -0.007874 
vt 0.000000 1.000000 
vt 1.000000 1.000000 
vt 0.000000 -0.007874 
vt 1.000000 1.000000 
vt 1.000000 -0.007874 
vt 0.000000 -0.007874 
vt 0.000000 1.000000 
vt 1.000000 1.000000 
vt 0.000000 -0.007874 
vt 1.000000 1.000000 
vt 1.000000 -0.007874 
vt 0.000000 -0.007874 
vt 0.000000 1.000000 
vt 1.000000 1.000000 
vt 0.000000 -0.007874 
vt 1.000000 1.000000 
vt 1.000000 -0.007874 
vt 0.000000 -0.007874 
vt 0.000000 1.000000 
vt 1.000000 1.000000 
vt 0.000000 -0.007874 
vt 1.000000 1.000000 
vt 1.000000 -0.007874 
vt 0.000000 -0.007874 
vt 0.000000 1.000000 
vt 1.000000 1.000000 
vt 0.000000 -0.007874 
vt 1.000000 1.000000 
vt 1.000000 -0.007874 
vt 0.000000 -0.007874 
vt 1.000000 -0.007874 
vt 1.000000 -0.007874 
vt 1.000000 -0.007874 
vt 1.000000 -0.007874 
vt 0.000000 -0.007874 
vt 1.000000 -0.007874 
vt 1.000000 -0.007874 
vt 1.000000 -0.007874 
vt 1.000000 -0.007874 
vt 1.000000 1.000000 
vt 1.000000 1.000000 
vt 1.000000 1.000000 
vt 1.000000 1.000000 
vt 0.000000 1.000000 
vt 1.000000 1.000000 
vt 1.000000 1.000000 
vt 1.000000 1.000000 
vt 1.000000 1.000000 
f 1/1/1 2/2/2 3/3/3
f 4/4/4 5/5/5 6/6/6
f 7/7/7 8/8/8 9/9/9
f 10/10/10 11/11/11 12/12/12
f 13/13/13 14/14/14 15/15/15
f 16/16/16 17/17/17 18/18/18
f 19/19/19 20/20/20 21/21/21
f 22/22/22 23/23/23 24/24/24
f 25/25/25 26/26/26 27/27/27
f 28/28/28 29/29/29 30/30/30
f 31/31/31 32/32/32 33/33/33
f 34/34/34 35/35/35 36/36/36
f 37/37/37 38/38/38 39/39/39
f 40/40/40 41/41/41 42/42/42
f 43/43/43 44/44/44 45/45/45
f 46/46/46 47/47/47 48/48/48
f 49/49/49 50/50/50 51/51/51
f 52/52/52 53/53/53 54/54/54
