v -251.000000 2.000000 -184.000000 
v -271.000000 2.000000 -201.000000 
v -271.000000 2.000000 201.000000 
v -271.000000 2.000000 201.000000 
v -251.000000 2.000000 164.000000 
v -251.000000 2.000000 -184.000000 
v -251.000000 2.000000 164.000000 
v -271.000000 2.000000 201.000000 
v 271.000000 2.000000 201.000000 
v 271.000000 2.000000 201.000000 
v 251.000000 2.000000 164.000000 
v -251.000000 2.000000 164.000000 
v 251.000000 2.000000 164.000000 
v 271.000000 2.000000 201.000000 
v 271.000000 2.000000 -201.000000 
v 271.000000 2.000000 -201.000000 
v 251.000000 2.000000 -184.000000 
v 251.000000 2.000000 164.000000 
v 251.000000 2.000000 -184.000000 
v 271.000000 2.000000 -201.000000 
v -271.000000 2.000000 -201.000000 
v -271.000000 2.000000 -201.000000 
v -251.000000 2.000000 -184.000000 
v 251.000000 2.000000 -184.000000 
v 26.000000 2.000000 -199.000000 
v -29.000000 2.000000 -250.000000 
v -29.000000 2.000000 -199.000000 
v -29.000000 2.000000 -250.000000 
v 26.000000 2.000000 -199.000000 
v 26.000000 2.000000 -250.000000 
vn 0.000000 1.000000 0.000000 
vn 0.000000 1.000000 0.000000 
vn 0.000000 1.000000 0.000000 
vn 0.000000 1.000000 0.000000 
vn 0.000000 1.000000 0.000000 
vn 0.000000 1.000000 0.000000 
vn 0.000000 1.000000 0.000000 
vn 0.000000 1.000000 0.000000 
vn 0.000000 1.000000 0.000000 
vn 0.000000 1.000000 0.000000 
vn 0.000000 1.000000 0.000000 
vn 0.000000 1.000000 0.000000 
vn 0.000000 1.000000 0.000000 
vn 0.000000 1.000000 0.000000 
vn 0.000000 1.000000 0.000000 
vn 0.000000 1.000000 0.000000 
vn 0.000000 1.000000 0.000000 
vn 0.000000 1.000000 0.000000 
vn 0.000000 1.000000 0.000000 
vn 0.000000 1.000000 0.000000 
vn 0.000000 1.000000 0.000000 
vn 0.000000 1.000000 0.000000 
vn 0.000000 1.000000 0.000000 
vn 0.000000 1.000000 0.000000 
vn 0.000000 1.000000 0.000000 
vn 0.000000 1.000000 0.000000 
vn 0.000000 1.000000 0.000000 
vn 0.000000 1.000000 0.000000 
vn 0.000000 1.000000 0.000000 
vn 0.000000 1.000000 0.000000 
vt 0.587302 0.566929 
vt 0.571429 0.551181 
vt 0.571429 0.929134 
vt 0.571429 0.929134 
vt 0.587302 0.897638 
vt 0.587302 0.566929 
vt 0.587302 0.897638 
vt 0.571429 0.929134 
vt 0.952381 0.929134 
vt 0.952381 0.929134 
vt 0.936508 0.897638 
vt 0.587302 0.897638 
vt 0.936508 0.897638 
vt 0.952381 0.929134 
vt 0.952381 0.551181 
vt 0.952381 0.551181 
vt 0.936508 0.566929 
vt 0.936508 0.897638 
vt 0.936508 0.566929 
vt 0.952381 0.551181 
vt 0.571429 0.551181 
vt 0.571429 0.551181 
vt 0.587302 0.566929 
vt 0.936508 0.566929 
vt 1.000000 0.456693 
vt 0.507937 -0.007874 
vt 0.507937 0.456693 
vt 0.507937 -0.007874 
vt 1.000000 0.456693 
vt 1.000000 -0.007874 
f 1/1/1 2/2/2 3/3/3
f 4/4/4 5/5/5 6/6/6
f 7/7/7 8/8/8 9/9/9
f 10/10/10 11/11/11 12/12/12
f 13/13/13 14/14/14 15/15/15
f 16/16/16 17/17/17 18/18/18
f 19/19/19 20/20/20 21/21/21
f 22/22/22 23/23/23 24/24/24
f 25/25/25 26/26/26 27/27/27
f 28/28/28 29/29/29 30/30/30
