v 0.000000 0.000000 0.000000 
v 7.000000 -13.000000 7.000000 
v 17.000000 -13.000000 -15.000000 
v 17.000000 -13.000000 -15.000000 
v 5.000000 0.000000 -15.000000 
v 0.000000 0.000000 0.000000 
v -15.000000 0.000000 5.000000 
v -15.000000 -13.000000 17.000000 
v 7.000000 -13.000000 7.000000 
v 7.000000 -13.000000 7.000000 
v 0.000000 0.000000 0.000000 
v -15.000000 0.000000 5.000000 
v 2.000000 13.000000 2.000000 
v 0.000000 0.000000 0.000000 
v 5.000000 0.000000 -15.000000 
v 5.000000 0.000000 -15.000000 
v 10.000000 13.000000 -15.000000 
v 2.000000 13.000000 2.000000 
v -15.000000 13.000000 10.000000 
v -15.000000 0.000000 5.000000 
v 0.000000 0.000000 0.000000 
v 0.000000 0.000000 0.000000 
v 2.000000 13.000000 2.000000 
v -15.000000 13.000000 10.000000 
vn 0.709961 0.535889 0.456299 
vn 0.399902 0.748535 0.528320 
vn 0.637695 0.721680 0.268799 
vn 0.637695 0.721680 0.268799 
vn 0.920898 0.005371 0.389160 
vn 0.709961 0.535889 0.456299 
vn 0.263428 0.725098 0.635986 
vn 0.263428 0.725098 0.635986 
vn 0.399902 0.748535 0.528320 
vn 0.399902 0.748535 0.528320 
vn 0.709961 0.535889 0.456299 
vn 0.263428 0.725098 0.635986 
vn 0.862549 -0.351807 0.363037 
vn 0.709961 0.535889 0.456299 
vn 0.920898 0.005371 0.389160 
vn 0.920898 0.005371 0.389160 
vn 0.867188 -0.344238 0.359131 
vn 0.862549 -0.351807 0.363037 
vn 0.357178 -0.357910 0.862549 
vn 0.357178 -0.357910 0.862549 
vn 0.357178 -0.357910 0.862549 
vn 0.357178 -0.357910 0.862549 
vn 0.357178 -0.357910 0.862549 
vn 0.357178 -0.357910 0.862549 
vt 0.666667 0.746032 
vt 0.714286 0.571429 
vt 0.476190 0.571429 
vt 0.476190 0.571429 
vt 0.523810 0.730159 
vt 0.666667 0.746032 
vt 0.333333 0.698413 
vt 0.285714 0.555556 
vt 0.079365 0.603175 
vt 0.079365 0.603175 
vt 0.174603 0.746032 
vt 0.333333 0.698413 
vt 0.682540 0.761905 
vt 0.666667 0.571429 
vt 0.523810 0.571429 
vt 0.523810 0.571429 
vt 0.492063 0.761905 
vt 0.682540 0.761905 
vt 0.603175 0.698413 
vt 0.571429 0.587302 
vt 0.253968 0.587302 
vt 0.253968 0.587302 
vt 0.222222 0.698413 
vt 0.603175 0.698413 
f 1/1/1 2/2/2 3/3/3
f 4/4/4 5/5/5 6/6/6
f 7/7/7 8/8/8 9/9/9
f 10/10/10 11/11/11 12/12/12
f 13/13/13 14/14/14 15/15/15
f 16/16/16 17/17/17 18/18/18
f 19/19/19 20/20/20 21/21/21
f 22/22/22 23/23/23 24/24/24
