v 25.000000 0.000000 -35.000000 
v 44.000000 0.000000 -36.000000 
v 44.000000 -34.000000 -25.000000 
v 44.000000 0.000000 -36.000000 
v 25.000000 0.000000 -35.000000 
v 44.000000 34.000000 -25.000000 
v 26.000000 0.000000 43.000000 
v 44.000000 -33.000000 25.000000 
v 47.000000 0.000000 35.000000 
v 44.000000 35.000000 25.000000 
v 26.000000 0.000000 43.000000 
v 47.000000 0.000000 35.000000 
v 28.000000 -39.000000 -24.000000 
v 25.000000 0.000000 -35.000000 
v 44.000000 -34.000000 -25.000000 
v 25.000000 0.000000 -35.000000 
v 28.000000 39.000000 -24.000000 
v 44.000000 34.000000 -25.000000 
v 28.000000 -38.000000 29.000000 
v 44.000000 -33.000000 25.000000 
v 26.000000 0.000000 43.000000 
v 28.000000 40.000000 30.000000 
v 26.000000 0.000000 43.000000 
v 44.000000 35.000000 25.000000 
v 26.000000 0.000000 43.000000 
v 28.000000 40.000000 30.000000 
v 6.000000 1.000000 45.000000 
v 28.000000 -39.000000 -24.000000 
v 44.000000 -34.000000 -25.000000 
v 44.000000 -46.000000 2.000000 
v 6.000000 1.000000 45.000000 
v 28.000000 -38.000000 29.000000 
v 24.000000 0.000000 49.000000 
v 24.000000 0.000000 49.000000 
v 28.000000 -38.000000 29.000000 
v 52.000000 -28.000000 39.000000 
v 44.000000 34.000000 -25.000000 
v 28.000000 39.000000 -24.000000 
v 44.000000 46.000000 2.000000 
v 44.000000 46.000000 2.000000 
v 28.000000 40.000000 30.000000 
v 53.000000 27.000000 41.000000 
v 28.000000 40.000000 30.000000 
v 6.000000 1.000000 45.000000 
v 27.000000 1.000000 55.000000 
v 53.000000 27.000000 41.000000 
v 28.000000 40.000000 30.000000 
v 27.000000 1.000000 55.000000 
v 24.000000 0.000000 49.000000 
v 52.000000 -28.000000 39.000000 
v 54.000000 -24.000000 41.000000 
v 27.000000 0.000000 45.000000 
v 24.000000 0.000000 49.000000 
v 54.000000 -24.000000 41.000000 
v 27.000000 0.000000 45.000000 
v 54.000000 -24.000000 41.000000 
v 26.000000 0.000000 35.000000 
v 54.000000 -24.000000 41.000000 
v 49.000000 -33.000000 1.000000 
v 48.000000 -28.000000 21.000000 
v 26.000000 0.000000 35.000000 
v 54.000000 -24.000000 41.000000 
v 48.000000 -28.000000 21.000000 
v 52.000000 22.000000 41.000000 
v 53.000000 27.000000 41.000000 
v 30.000000 1.000000 50.000000 
v 52.000000 22.000000 41.000000 
v 30.000000 1.000000 50.000000 
v 29.000000 1.000000 40.000000 
v 52.000000 22.000000 41.000000 
v 29.000000 1.000000 40.000000 
v 48.000000 30.000000 21.000000 
v 53.000000 27.000000 41.000000 
v 27.000000 1.000000 55.000000 
v 30.000000 1.000000 50.000000 
v 33.000000 51.000000 27.000000 
v 2.000000 32.000000 41.000000 
v 35.000000 32.000000 31.000000 
v 39.000000 51.000000 2.000000 
v 33.000000 51.000000 27.000000 
v 35.000000 32.000000 31.000000 
v 44.000000 46.000000 2.000000 
v 39.000000 51.000000 2.000000 
v 35.000000 32.000000 31.000000 
v 35.000000 -31.000000 31.000000 
v 2.000000 -50.000000 34.000000 
v 33.000000 -50.000000 27.000000 
v 2.000000 -50.000000 34.000000 
v 35.000000 -31.000000 31.000000 
v 2.000000 -30.000000 41.000000 
v 47.000000 -31.000000 2.000000 
v 35.000000 -31.000000 31.000000 
v 33.000000 -50.000000 27.000000 
v 33.000000 -50.000000 27.000000 
v 39.000000 -50.000000 2.000000 
v 47.000000 -31.000000 2.000000 
v 44.000000 46.000000 2.000000 
v 44.000000 40.000000 -11.000000 
v 37.000000 50.000000 -19.000000 
v 29.000000 30.000000 -28.000000 
v 37.000000 50.000000 -19.000000 
v 44.000000 34.000000 -25.000000 
v 44.000000 34.000000 -25.000000 
v 37.000000 50.000000 -19.000000 
v 44.000000 40.000000 -11.000000 
v 37.000000 50.000000 -19.000000 
v 39.000000 51.000000 2.000000 
v 44.000000 46.000000 2.000000 
v 39.000000 -50.000000 2.000000 
v 37.000000 -48.000000 -19.000000 
v 44.000000 -40.000000 -11.000000 
v 44.000000 -34.000000 -25.000000 
v 44.000000 -40.000000 -11.000000 
v 37.000000 -48.000000 -19.000000 
v 47.000000 -31.000000 2.000000 
v 39.000000 -50.000000 2.000000 
v 44.000000 -40.000000 -11.000000 
v 37.000000 -48.000000 -19.000000 
v 29.000000 -32.000000 -28.000000 
v 44.000000 -34.000000 -25.000000 
v 44.000000 34.000000 -25.000000 
v 44.000000 0.000000 -36.000000 
v 29.000000 0.000000 -38.000000 
v 29.000000 -32.000000 -28.000000 
v 29.000000 0.000000 -38.000000 
v 44.000000 0.000000 -36.000000 
v 29.000000 0.000000 -38.000000 
v 29.000000 30.000000 -28.000000 
v 44.000000 34.000000 -25.000000 
v 44.000000 -34.000000 -25.000000 
v 29.000000 -32.000000 -28.000000 
v 44.000000 0.000000 -36.000000 
vn 0.125244 0.000732 -0.991943 
vn -0.006836 0.000000 -0.999756 
vn 0.084229 -0.767822 -0.634766 
vn -0.006836 0.000000 -0.999756 
vn 0.125244 0.000732 -0.991943 
vn 0.083008 0.768066 -0.634766 
vn 0.275879 -0.127441 0.952393 
vn 0.279541 -0.822754 0.494385 
vn 0.445557 0.000000 0.895020 
vn 0.280518 0.833008 0.476562 
vn 0.275879 -0.127441 0.952393 
vn 0.445557 0.000000 0.895020 
vn 0.134277 -0.905273 -0.402588 
vn 0.125244 0.000732 -0.991943 
vn 0.084229 -0.767822 -0.634766 
vn 0.125244 0.000732 -0.991943 
vn 0.133057 0.905518 -0.402344 
vn 0.083008 0.768066 -0.634766 
vn 0.182617 -0.889404 0.418701 
vn 0.279541 -0.822754 0.494385 
vn 0.275879 -0.127441 0.952393 
vn 0.168457 0.859863 0.481445 
vn 0.275879 -0.127441 0.952393 
vn 0.280518 0.833008 0.476562 
vn 0.275879 -0.127441 0.952393 
vn 0.168457 0.859863 0.481445 
vn 0.056885 0.206055 0.976807 
vn 0.134277 -0.905273 -0.402588 
vn 0.084229 -0.767822 -0.634766 
vn 0.191650 -0.979736 -0.056885 
vn -0.205078 -0.749268 0.629395 
vn -0.164307 -0.900146 0.403076 
vn 0.072754 -0.425781 0.901611 
vn 0.072754 -0.425781 0.901611 
vn -0.164307 -0.900146 0.403076 
vn 0.284424 -0.784668 0.550537 
vn 0.083008 0.768066 -0.634766 
vn 0.133057 0.905518 -0.402344 
vn 0.191162 0.979004 -0.068604 
vn -0.147217 0.985107 0.086914 
vn -0.072754 0.897949 0.433838 
vn 0.540527 0.501465 0.675049 
vn -0.072754 0.897949 0.433838 
vn -0.388916 0.613037 0.687256 
vn 0.066650 0.073242 0.994873 
vn 0.540527 0.501465 0.675049 
vn -0.072754 0.897949 0.433838 
vn 0.066650 0.073242 0.994873 
vn 0.072754 -0.425781 0.901611 
vn 0.284424 -0.784668 0.550537 
vn 0.590332 -0.244141 0.769043 
vn 0.472900 0.837158 0.274170 
vn 0.072754 -0.425781 0.901611 
vn 0.590332 -0.244141 0.769043 
vn 0.441406 0.895264 -0.058594 
vn 0.400879 0.907471 -0.125000 
vn 0.451660 0.883545 -0.123047 
vn 0.400879 0.907471 -0.125000 
vn 0.389893 0.919189 -0.051025 
vn 0.295166 0.943359 -0.149902 
vn 0.451660 0.883545 -0.123047 
vn 0.400879 0.907471 -0.125000 
vn 0.295166 0.943359 -0.149902 
vn 0.906494 -0.166016 0.387451 
vn 0.540527 0.501465 0.675049 
vn 0.516602 -0.753174 0.406494 
vn 0.410889 -0.896729 -0.163818 
vn 0.410889 -0.909912 -0.054688 
vn 0.421387 -0.900146 -0.108887 
vn 0.410889 -0.896729 -0.163818 
vn 0.421387 -0.900146 -0.108887 
vn 0.439453 -0.884277 -0.157227 
vn 0.540527 0.501465 0.675049 
vn 0.066650 0.073242 0.994873 
vn 0.516602 -0.753174 0.406494 
vn 0.533691 0.510742 0.673828 
vn 0.186035 0.573730 0.797363 
vn 0.631348 0.604980 0.484375 
vn 0.666016 0.731445 0.145020 
vn 0.533691 0.510742 0.673828 
vn 0.631348 0.604980 0.484375 
vn 0.572998 0.818604 0.033936 
vn 0.666016 0.731445 0.145020 
vn 0.631348 0.604980 0.484375 
vn 0.497803 -0.505371 0.704590 
vn 0.188477 -0.567871 0.801025 
vn 0.698486 -0.525879 0.484863 
vn 0.188477 -0.567871 0.801025 
vn 0.497803 -0.505371 0.704590 
vn 0.146240 -0.630859 0.761719 
vn 0.815430 -0.556885 0.156738 
vn 0.497803 -0.505371 0.704590 
vn 0.698486 -0.525879 0.484863 
vn 0.698486 -0.525879 0.484863 
vn 0.721191 -0.692139 0.024170 
vn 0.815430 -0.556885 0.156738 
vn 0.572998 0.818604 0.033936 
vn 0.707764 0.693359 -0.134521 
vn 0.548584 0.790527 -0.271484 
vn 0.116211 0.630859 -0.766846 
vn 0.548584 0.790527 -0.271484 
vn 0.310547 0.680908 -0.663086 
vn 0.310547 0.680908 -0.663086 
vn 0.548584 0.790527 -0.271484 
vn 0.707764 0.693359 -0.134521 
vn 0.548584 0.790527 -0.271484 
vn 0.666016 0.731445 0.145020 
vn 0.572998 0.818604 0.033936 
vn 0.721191 -0.692139 0.024170 
vn 0.521973 -0.795166 -0.308105 
vn 0.693359 -0.716797 -0.072510 
vn 0.369873 -0.729248 -0.575439 
vn 0.693359 -0.716797 -0.072510 
vn 0.521973 -0.795166 -0.308105 
vn 0.815430 -0.556885 0.156738 
vn 0.721191 -0.692139 0.024170 
vn 0.693359 -0.716797 -0.072510 
vn 0.521973 -0.795166 -0.308105 
vn 0.153076 -0.608398 -0.778320 
vn 0.369873 -0.729248 -0.575439 
vn 0.310547 0.680908 -0.663086 
vn 0.188965 -0.200928 -0.960938 
vn 0.172119 0.227539 -0.958252 
vn 0.153076 -0.608398 -0.778320 
vn 0.172119 0.227539 -0.958252 
vn 0.188965 -0.200928 -0.960938 
vn 0.172119 0.227539 -0.958252 
vn 0.116211 0.630859 -0.766846 
vn 0.310547 0.680908 -0.663086 
vn 0.369873 -0.729248 -0.575439 
vn 0.153076 -0.608398 -0.778320 
vn 0.188965 -0.200928 -0.960938 
vt 0.285714 0.653543 
vt 0.285714 0.795276 
vt 0.158730 0.795276 
vt 0.333333 0.795276 
vt 0.333333 0.653543 
vt 0.460317 0.795276 
vt 0.825397 0.212598 
vt 0.825397 0.220472 
vt 0.825397 0.220472 
vt 0.825397 0.220472 
vt 0.825397 0.212598 
vt 0.825397 0.220472 
vt 0.126984 0.653543 
vt 0.285714 0.653543 
vt 0.158730 0.795276 
vt 0.333333 0.653543 
vt 0.507937 0.653543 
vt 0.460317 0.795276 
vt 0.825397 0.212598 
vt 0.825397 0.220472 
vt 0.825397 0.212598 
vt 0.825397 0.212598 
vt 0.825397 0.212598 
vt 0.825397 0.220472 
vt 0.825397 0.212598 
vt 0.825397 0.212598 
vt 0.333333 0.433071 
vt 0.126984 0.653543 
vt 0.158730 0.795276 
vt 0.111111 0.795276 
vt 0.714286 0.007874 
vt 0.412698 0.007874 
vt 0.682540 0.118110 
vt 0.682540 0.118110 
vt 0.412698 0.007874 
vt 0.412698 0.228346 
vt 0.460317 0.795276 
vt 0.507937 0.653543 
vt 0.523810 0.795276 
vt 0.523810 0.007874 
vt 0.365079 0.007874 
vt 0.428571 0.275591 
vt 0.714286 0.023622 
vt 0.571429 0.023622 
vt 0.603175 0.102362 
vt 0.714286 0.165354 
vt 0.714286 0.023622 
vt 0.603175 0.102362 
vt 0.682540 0.118110 
vt 0.412698 0.228346 
vt 0.428571 0.275591 
vt 0.666667 0.149606 
vt 0.682540 0.118110 
vt 0.428571 0.275591 
vt 0.825397 0.212598 
vt 0.825397 0.212598 
vt 0.825397 0.212598 
vt 0.825397 0.212598 
vt 0.825397 0.212598 
vt 0.825397 0.212598 
vt 0.825397 0.212598 
vt 0.825397 0.212598 
vt 0.825397 0.212598 
vt 0.714286 0.165354 
vt 0.714286 0.165354 
vt 0.634921 0.133858 
vt 0.825397 0.212598 
vt 0.825397 0.212598 
vt 0.825397 0.212598 
vt 0.825397 0.212598 
vt 0.825397 0.212598 
vt 0.825397 0.212598 
vt 0.714286 0.165354 
vt 0.603175 0.102362 
vt 0.634921 0.133858 
vt 1.000000 0.606299 
vt 0.761905 0.370079 
vt 0.761905 0.606299 
vt 1.000000 0.708661 
vt 1.000000 0.944882 
vt 0.761905 0.944882 
vt 0.888889 0.708661 
vt 1.000000 0.708661 
vt 0.761905 0.944882 
vt 1.000000 0.606299 
vt 0.761905 0.370079 
vt 0.761905 0.606299 
vt 0.761905 0.370079 
vt 1.000000 0.606299 
vt 1.000000 0.370079 
vt 1.000000 0.787402 
vt 1.000000 0.976378 
vt 0.761905 0.976378 
vt 0.761905 0.976378 
vt 0.761905 0.787402 
vt 1.000000 0.787402 
vt 0.888889 0.708661 
vt 0.761905 0.440945 
vt 1.000000 0.440945 
vt 1.000000 0.692913 
vt 1.000000 0.976378 
vt 0.761905 0.692913 
vt 0.761905 0.692913 
vt 1.000000 0.976378 
vt 0.761905 0.976378 
vt 1.000000 0.440945 
vt 1.000000 0.708661 
vt 0.888889 0.708661 
vt 0.761905 0.787402 
vt 0.761905 0.614173 
vt 1.000000 0.614173 
vt 0.761905 0.700787 
vt 0.761905 0.921260 
vt 1.000000 0.921260 
vt 1.000000 0.787402 
vt 0.761905 0.787402 
vt 1.000000 0.614173 
vt 1.000000 0.921260 
vt 1.000000 0.700787 
vt 0.761905 0.700787 
vt 0.761905 0.692913 
vt 0.761905 0.456693 
vt 1.000000 0.456693 
vt 1.000000 0.700787 
vt 1.000000 0.527559 
vt 0.761905 0.527559 
vt 1.000000 0.456693 
vt 1.000000 0.692913 
vt 0.761905 0.692913 
vt 0.761905 0.700787 
vt 1.000000 0.700787 
vt 0.761905 0.527559 
f 1/1/1 2/2/2 3/3/3
f 4/4/4 5/5/5 6/6/6
f 7/7/7 8/8/8 9/9/9
f 10/10/10 11/11/11 12/12/12
f 13/13/13 14/14/14 15/15/15
f 16/16/16 17/17/17 18/18/18
f 19/19/19 20/20/20 21/21/21
f 22/22/22 23/23/23 24/24/24
f 25/25/25 26/26/26 27/27/27
f 28/28/28 29/29/29 30/30/30
f 31/31/31 32/32/32 33/33/33
f 34/34/34 35/35/35 36/36/36
f 37/37/37 38/38/38 39/39/39
f 40/40/40 41/41/41 42/42/42
f 43/43/43 44/44/44 45/45/45
f 46/46/46 47/47/47 48/48/48
f 49/49/49 50/50/50 51/51/51
f 52/52/52 53/53/53 54/54/54
f 55/55/55 56/56/56 57/57/57
f 58/58/58 59/59/59 60/60/60
f 61/61/61 62/62/62 63/63/63
f 64/64/64 65/65/65 66/66/66
f 67/67/67 68/68/68 69/69/69
f 70/70/70 71/71/71 72/72/72
f 73/73/73 74/74/74 75/75/75
f 76/76/76 77/77/77 78/78/78
f 79/79/79 80/80/80 81/81/81
f 82/82/82 83/83/83 84/84/84
f 85/85/85 86/86/86 87/87/87
f 88/88/88 89/89/89 90/90/90
f 91/91/91 92/92/92 93/93/93
f 94/94/94 95/95/95 96/96/96
f 97/97/97 98/98/98 99/99/99
f 100/100/100 101/101/101 102/102/102
f 103/103/103 104/104/104 105/105/105
f 106/106/106 107/107/107 108/108/108
f 109/109/109 110/110/110 111/111/111
f 112/112/112 113/113/113 114/114/114
f 115/115/115 116/116/116 117/117/117
f 118/118/118 119/119/119 120/120/120
f 121/121/121 122/122/122 123/123/123
f 124/124/124 125/125/125 126/126/126
f 127/127/127 128/128/128 129/129/129
f 130/130/130 131/131/131 132/132/132
