v 6.000000 -23.000000 31.000000 
v 12.000000 -35.000000 0.000000 
v 13.000000 20.000000 0.000000 
v 12.000000 -35.000000 0.000000 
v 19.000000 -18.000000 -33.000000 
v 13.000000 20.000000 0.000000 
vn 0.984863 -0.057129 0.162598 
vn 0.983154 -0.021240 0.180908 
vn 0.990723 0.003418 0.135498 
vn 0.983154 -0.021240 0.180908 
vn 0.988281 0.030273 0.148926 
vn 0.990723 0.003418 0.135498 
vt 0.507937 0.000000 
vt 0.571429 0.000000 
vt 0.317460 -0.007874 
vt 0.571429 0.000000 
vt 0.507937 0.000000 
vt 0.317460 -0.007874 
f 1/1/1 2/2/2 3/3/3
f 4/4/4 5/5/5 6/6/6
