v -11.000000 2.000000 -13.000000 
v -12.000000 -4.000000 -25.000000 
v -12.000000 9.000000 -25.000000 
v -11.000000 2.000000 -13.000000 
v -14.000000 10.000000 -5.000000 
v -14.000000 -6.000000 -5.000000 
v -11.000000 2.000000 -13.000000 
v -14.000000 -6.000000 -5.000000 
v -12.000000 -4.000000 -25.000000 
v -11.000000 2.000000 -13.000000 
v -12.000000 9.000000 -25.000000 
v -14.000000 10.000000 -5.000000 
v -12.000000 9.000000 -25.000000 
v -12.000000 -4.000000 -25.000000 
v -24.000000 -2.000000 -22.000000 
v -24.000000 -2.000000 -22.000000 
v -24.000000 7.000000 -23.000000 
v -12.000000 9.000000 -25.000000 
v -14.000000 -6.000000 -5.000000 
v -14.000000 10.000000 -5.000000 
v -25.000000 7.000000 -8.000000 
v -25.000000 7.000000 -8.000000 
v -25.000000 -2.000000 -8.000000 
v -14.000000 -6.000000 -5.000000 
v -12.000000 -4.000000 -25.000000 
v -14.000000 -6.000000 -5.000000 
v -25.000000 -2.000000 -8.000000 
v -25.000000 -2.000000 -8.000000 
v -24.000000 -2.000000 -22.000000 
v -12.000000 -4.000000 -25.000000 
v -14.000000 10.000000 -5.000000 
v -12.000000 9.000000 -25.000000 
v -24.000000 7.000000 -23.000000 
v -24.000000 7.000000 -23.000000 
v -25.000000 7.000000 -8.000000 
v -14.000000 10.000000 -5.000000 
v -21.000000 12.000000 -20.000000 
v -28.000000 4.000000 -25.000000 
v -30.000000 11.000000 -16.000000 
v -21.000000 12.000000 -20.000000 
v -20.000000 3.000000 -27.000000 
v -28.000000 4.000000 -25.000000 
v -20.000000 3.000000 -27.000000 
v -29.000000 -5.000000 -19.000000 
v -28.000000 4.000000 -25.000000 
v -20.000000 3.000000 -27.000000 
v -21.000000 -6.000000 -21.000000 
v -29.000000 -5.000000 -19.000000 
v -21.000000 -6.000000 -21.000000 
v -30.000000 -2.000000 -7.000000 
v -29.000000 -5.000000 -19.000000 
v -21.000000 -6.000000 -21.000000 
v -23.000000 -4.000000 -5.000000 
v -30.000000 -2.000000 -7.000000 
v -23.000000 -4.000000 -5.000000 
v -30.000000 6.000000 -7.000000 
v -30.000000 -2.000000 -7.000000 
v -23.000000 -4.000000 -5.000000 
v -23.000000 8.000000 -4.000000 
v -30.000000 6.000000 -7.000000 
v -23.000000 8.000000 -4.000000 
v -30.000000 11.000000 -16.000000 
v -30.000000 6.000000 -7.000000 
v -23.000000 8.000000 -4.000000 
v -21.000000 12.000000 -20.000000 
v -30.000000 11.000000 -16.000000 
v -30.000000 11.000000 -16.000000 
v -25.000000 3.000000 -24.000000 
v -27.000000 8.000000 -15.000000 
v -30.000000 11.000000 -16.000000 
v -28.000000 4.000000 -25.000000 
v -25.000000 3.000000 -24.000000 
v -28.000000 4.000000 -25.000000 
v -27.000000 -3.000000 -18.000000 
v -25.000000 3.000000 -24.000000 
v -28.000000 4.000000 -25.000000 
v -29.000000 -5.000000 -19.000000 
v -27.000000 -3.000000 -18.000000 
v -29.000000 -5.000000 -19.000000 
v -28.000000 0.000000 -10.000000 
v -27.000000 -3.000000 -18.000000 
v -29.000000 -5.000000 -19.000000 
v -30.000000 -2.000000 -7.000000 
v -28.000000 0.000000 -10.000000 
v -30.000000 -2.000000 -7.000000 
v -28.000000 5.000000 -10.000000 
v -28.000000 0.000000 -10.000000 
v -30.000000 -2.000000 -7.000000 
v -30.000000 6.000000 -7.000000 
v -28.000000 5.000000 -10.000000 
v -30.000000 6.000000 -7.000000 
v -27.000000 8.000000 -15.000000 
v -28.000000 5.000000 -10.000000 
v -30.000000 6.000000 -7.000000 
v -30.000000 11.000000 -16.000000 
v -27.000000 8.000000 -15.000000 
vn 0.993896 -0.003174 0.108643 
vn 0.979248 -0.201660 -0.000488 
vn 0.979980 0.198730 -0.001953 
vn 0.993896 -0.003174 0.108643 
vn 0.956787 0.196777 0.213379 
vn 0.954590 -0.206299 0.214600 
vn 0.993896 -0.003174 0.108643 
vn 0.954590 -0.206299 0.214600 
vn 0.979248 -0.201660 -0.000488 
vn 0.993896 -0.003174 0.108643 
vn 0.979980 0.198730 -0.001953 
vn 0.956787 0.196777 0.213379 
vn -0.250488 0.355957 -0.900146 
vn -0.244385 -0.860107 -0.447510 
vn -0.232178 -0.515381 -0.824707 
vn -0.232178 -0.515381 -0.824707 
vn -0.217285 0.841064 -0.495117 
vn -0.250488 0.355957 -0.900146 
vn -0.355225 -0.439453 0.824707 
vn -0.269531 0.879883 0.390869 
vn -0.353516 0.431885 0.829346 
vn -0.353516 0.431885 0.829346 
vn -0.258545 -0.882080 0.393066 
vn -0.355225 -0.439453 0.824707 
vn -0.244385 -0.860107 -0.447510 
vn -0.355225 -0.439453 0.824707 
vn -0.258545 -0.882080 0.393066 
vn -0.258545 -0.882080 0.393066 
vn -0.232178 -0.515381 -0.824707 
vn -0.244385 -0.860107 -0.447510 
vn -0.269531 0.879883 0.390869 
vn -0.250488 0.355957 -0.900146 
vn -0.217285 0.841064 -0.495117 
vn -0.217285 0.841064 -0.495117 
vn -0.353516 0.431885 0.829346 
vn -0.269531 0.879883 0.390869 
vn -0.107910 0.928955 -0.353516 
vn -0.224121 0.419678 -0.879395 
vn -0.175049 0.984375 0.000000 
vn -0.107910 0.928955 -0.353516 
vn -0.220947 -0.246094 -0.943604 
vn -0.224121 0.419678 -0.879395 
vn -0.220947 -0.246094 -0.943604 
vn -0.189453 -0.851318 -0.488770 
vn -0.224121 0.419678 -0.879395 
vn -0.220947 -0.246094 -0.943604 
vn -0.208252 -0.955078 -0.209473 
vn -0.189453 -0.851318 -0.488770 
vn -0.208252 -0.955078 -0.209473 
vn -0.218750 -0.837891 0.499756 
vn -0.189453 -0.851318 -0.488770 
vn -0.208252 -0.955078 -0.209473 
vn -0.333496 -0.481445 0.810303 
vn -0.218750 -0.837891 0.499756 
vn -0.333496 -0.481445 0.810303 
vn -0.350586 0.296631 0.888184 
vn -0.218750 -0.837891 0.499756 
vn -0.333496 -0.481445 0.810303 
vn -0.266357 0.749023 0.606201 
vn -0.350586 0.296631 0.888184 
vn -0.266357 0.749023 0.606201 
vn -0.175049 0.984375 0.000000 
vn -0.350586 0.296631 0.888184 
vn -0.266357 0.749023 0.606201 
vn -0.107910 0.928955 -0.353516 
vn -0.175049 0.984375 0.000000 
vn -0.502197 -0.862549 0.058594 
vn -0.635254 -0.465088 0.616211 
vn -0.577148 -0.790283 -0.204590 
vn -0.502197 -0.862549 0.058594 
vn -0.506348 0.328369 0.797119 
vn -0.635254 -0.465088 0.616211 
vn -0.506348 0.328369 0.797119 
vn -0.357910 0.881348 0.307861 
vn -0.635254 -0.465088 0.616211 
vn -0.506348 0.328369 0.797119 
vn -0.481445 0.875244 0.042236 
vn -0.357910 0.881348 0.307861 
vn -0.481445 0.875244 0.042236 
vn -0.603516 0.691162 -0.396973 
vn -0.357910 0.881348 0.307861 
vn -0.481445 0.875244 0.042236 
vn -0.749756 0.333008 -0.571289 
vn -0.603516 0.691162 -0.396973 
vn -0.749756 0.333008 -0.571289 
vn -0.733643 -0.260498 -0.627441 
vn -0.603516 0.691162 -0.396973 
vn -0.749756 0.333008 -0.571289 
vn -0.631104 -0.579590 -0.515137 
vn -0.733643 -0.260498 -0.627441 
vn -0.631104 -0.579590 -0.515137 
vn -0.577148 -0.790283 -0.204590 
vn -0.733643 -0.260498 -0.627441 
vn -0.631104 -0.579590 -0.515137 
vn -0.502197 -0.862549 0.058594 
vn -0.577148 -0.790283 -0.204590 
vt 0.645161 0.096774 
vt 0.806452 0.096774 
vt 0.354839 0.258065 
vt 0.903226 0.612903 
vt 0.580645 0.645161 
vt 0.580645 0.903226 
vt 0.677419 0.129032 
vt 0.806452 0.064516 
vt 0.870968 0.516129 
vt 0.838710 0.967742 
vt 0.354839 0.258065 
vt 0.806452 0.548387 
vt 0.354839 0.258065 
vt 0.354839 0.516129 
vt 0.129032 0.483871 
vt 0.129032 0.483871 
vt 0.129032 0.290323 
vt 0.354839 0.258065 
vt 0.322581 0.903226 
vt 0.322581 0.645161 
vt 0.129032 0.709677 
vt 0.129032 0.709677 
vt 0.129032 0.838710 
vt 0.322581 0.903226 
vt 0.354839 0.548387 
vt 0.354839 0.838710 
vt 0.129032 0.838710 
vt 0.129032 0.838710 
vt 0.129032 0.483871 
vt 0.354839 0.548387 
vt 0.354839 0.677419 
vt 0.354839 0.258065 
vt 0.129032 0.290323 
vt 0.129032 0.290323 
vt 0.129032 0.709677 
vt 0.354839 0.677419 
vt 0.096774 0.677419 
vt 0.000000 0.451613 
vt 0.000000 0.677419 
vt 0.096774 0.677419 
vt 0.096774 0.451613 
vt 0.000000 0.451613 
vt 0.096774 0.225806 
vt 0.000000 0.516129 
vt 0.000000 0.225806 
vt 0.096774 0.225806 
vt 0.096774 0.516129 
vt 0.000000 0.516129 
vt 0.096774 0.516129 
vt 0.000000 0.193548 
vt 0.000000 0.516129 
vt 0.096774 0.516129 
vt 0.096774 0.225806 
vt 0.000000 0.193548 
vt 0.096774 0.225806 
vt 0.000000 0.451613 
vt 0.000000 0.225806 
vt 0.096774 0.225806 
vt 0.096774 0.451613 
vt 0.000000 0.451613 
vt 0.096774 0.451613 
vt 0.000000 0.677419 
vt 0.000000 0.451613 
vt 0.096774 0.451613 
vt 0.096774 0.677419 
vt 0.000000 0.677419 
vt 0.129032 0.258065 
vt 0.225806 0.354839 
vt 0.096774 0.354839 
vt 0.129032 0.258065 
vt 0.225806 0.258065 
vt 0.225806 0.354839 
vt 0.129032 -0.032258 
vt 0.193548 0.064516 
vt 0.096774 0.064516 
vt 0.129032 -0.032258 
vt 0.225806 -0.032258 
vt 0.193548 0.064516 
vt 0.225806 -0.032258 
vt 0.161290 0.193548 
vt 0.193548 0.064516 
vt 0.225806 -0.032258 
vt 0.322581 -0.032258 
vt 0.161290 0.193548 
vt 0.193548 0.096774 
vt 0.032258 0.225806 
vt 0.161290 0.193548 
vt 0.193548 0.096774 
vt 0.290323 0.096774 
vt 0.032258 0.225806 
vt 0.129032 0.064516 
vt 0.096774 0.354839 
vt 0.032258 0.225806 
vt 0.129032 0.064516 
vt 0.258065 0.064516 
vt 0.096774 0.354839 
f 1/1/1 2/2/2 3/3/3
f 4/4/4 5/5/5 6/6/6
f 7/7/7 8/8/8 9/9/9
f 10/10/10 11/11/11 12/12/12
f 13/13/13 14/14/14 15/15/15
f 16/16/16 17/17/17 18/18/18
f 19/19/19 20/20/20 21/21/21
f 22/22/22 23/23/23 24/24/24
f 25/25/25 26/26/26 27/27/27
f 28/28/28 29/29/29 30/30/30
f 31/31/31 32/32/32 33/33/33
f 34/34/34 35/35/35 36/36/36
f 37/37/37 38/38/38 39/39/39
f 40/40/40 41/41/41 42/42/42
f 43/43/43 44/44/44 45/45/45
f 46/46/46 47/47/47 48/48/48
f 49/49/49 50/50/50 51/51/51
f 52/52/52 53/53/53 54/54/54
f 55/55/55 56/56/56 57/57/57
f 58/58/58 59/59/59 60/60/60
f 61/61/61 62/62/62 63/63/63
f 64/64/64 65/65/65 66/66/66
f 67/67/67 68/68/68 69/69/69
f 70/70/70 71/71/71 72/72/72
f 73/73/73 74/74/74 75/75/75
f 76/76/76 77/77/77 78/78/78
f 79/79/79 80/80/80 81/81/81
f 82/82/82 83/83/83 84/84/84
f 85/85/85 86/86/86 87/87/87
f 88/88/88 89/89/89 90/90/90
f 91/91/91 92/92/92 93/93/93
f 94/94/94 95/95/95 96/96/96
