v 7.000000 -14.000000 0.000000 
v 1.000000 -13.000000 8.000000 
v 1.000000 -21.000000 0.000000 
v 1.000000 -13.000000 8.000000 
v -3.000000 -12.000000 0.000000 
v 1.000000 -21.000000 0.000000 
v -3.000000 -12.000000 0.000000 
v 2.000000 -13.000000 -9.000000 
v 1.000000 -21.000000 0.000000 
v 2.000000 -13.000000 -9.000000 
v 7.000000 -14.000000 0.000000 
v 1.000000 -21.000000 0.000000 
v 11.000000 -9.000000 0.000000 
v 8.000000 -3.000000 8.000000 
v 7.000000 -14.000000 0.000000 
v 8.000000 -3.000000 8.000000 
v 1.000000 -13.000000 8.000000 
v 7.000000 -14.000000 0.000000 
v 8.000000 -3.000000 8.000000 
v 6.000000 3.000000 0.000000 
v 1.000000 -13.000000 8.000000 
v 6.000000 3.000000 0.000000 
v -3.000000 -12.000000 0.000000 
v 1.000000 -13.000000 8.000000 
v 6.000000 3.000000 0.000000 
v 9.000000 -2.000000 -8.000000 
v -3.000000 -12.000000 0.000000 
v 9.000000 -2.000000 -8.000000 
v 2.000000 -13.000000 -9.000000 
v -3.000000 -12.000000 0.000000 
v 9.000000 -2.000000 -8.000000 
v 11.000000 -9.000000 0.000000 
v 2.000000 -13.000000 -9.000000 
v 11.000000 -9.000000 0.000000 
v 7.000000 -14.000000 0.000000 
v 2.000000 -13.000000 -9.000000 
v 12.000000 -8.000000 0.000000 
v 12.000000 0.000000 10.000000 
v 11.000000 -9.000000 0.000000 
v 12.000000 0.000000 10.000000 
v 8.000000 -3.000000 8.000000 
v 11.000000 -9.000000 0.000000 
v 12.000000 0.000000 10.000000 
v 13.000000 10.000000 0.000000 
v 8.000000 -3.000000 8.000000 
v 13.000000 10.000000 0.000000 
v 6.000000 3.000000 0.000000 
v 8.000000 -3.000000 8.000000 
v 13.000000 10.000000 0.000000 
v 13.000000 1.000000 -9.000000 
v 6.000000 3.000000 0.000000 
v 13.000000 1.000000 -9.000000 
v 9.000000 -2.000000 -8.000000 
v 6.000000 3.000000 0.000000 
v 13.000000 1.000000 -9.000000 
v 12.000000 -8.000000 0.000000 
v 9.000000 -2.000000 -8.000000 
v 12.000000 -8.000000 0.000000 
v 11.000000 -9.000000 0.000000 
v 9.000000 -2.000000 -8.000000 
v 45.000000 -13.000000 1.000000 
v 45.000000 -3.000000 13.000000 
v 12.000000 -8.000000 0.000000 
v 45.000000 -3.000000 13.000000 
v 12.000000 0.000000 10.000000 
v 12.000000 -8.000000 0.000000 
v 45.000000 -3.000000 13.000000 
v 46.000000 8.000000 2.000000 
v 12.000000 0.000000 10.000000 
v 46.000000 8.000000 2.000000 
v 13.000000 10.000000 0.000000 
v 12.000000 0.000000 10.000000 
v 46.000000 8.000000 2.000000 
v 46.000000 -2.000000 -9.000000 
v 13.000000 10.000000 0.000000 
v 46.000000 -2.000000 -9.000000 
v 13.000000 1.000000 -9.000000 
v 13.000000 10.000000 0.000000 
v 46.000000 -2.000000 -9.000000 
v 45.000000 -13.000000 1.000000 
v 13.000000 1.000000 -9.000000 
v 45.000000 -13.000000 1.000000 
v 12.000000 -8.000000 0.000000 
v 13.000000 1.000000 -9.000000 
v 45.000000 -3.000000 13.000000 
v 45.000000 -13.000000 1.000000 
v 49.000000 -3.000000 1.000000 
v 46.000000 8.000000 2.000000 
v 45.000000 -3.000000 13.000000 
v 49.000000 -3.000000 1.000000 
v 46.000000 -2.000000 -9.000000 
v 46.000000 8.000000 2.000000 
v 49.000000 -3.000000 1.000000 
v 45.000000 -13.000000 1.000000 
v 46.000000 -2.000000 -9.000000 
v 49.000000 -3.000000 1.000000 
vn 0.626221 -0.779541 -0.000488 
vn -0.095703 -0.726318 0.680420 
vn -0.101807 -0.994141 -0.030518 
vn -0.095703 -0.726318 0.680420 
vn -0.771484 -0.634766 -0.042969 
vn -0.101807 -0.994141 -0.030518 
vn -0.771484 -0.634766 -0.042969 
vn -0.049072 -0.687744 -0.724121 
vn -0.101807 -0.994141 -0.030518 
vn -0.049072 -0.687744 -0.724121 
vn 0.626221 -0.779541 -0.000488 
vn -0.101807 -0.994141 -0.030518 
vn 0.498291 -0.866455 0.023682 
vn -0.044434 -0.033936 0.998291 
vn 0.535889 -0.780762 0.320312 
vn -0.044434 -0.033936 0.998291 
vn -0.259033 0.226074 0.938965 
vn 0.535889 -0.780762 0.320312 
vn -0.044434 -0.033936 0.998291 
vn -0.600342 0.799316 -0.005615 
vn -0.259033 0.226074 0.938965 
vn -0.600342 0.799316 -0.005615 
vn -0.662842 0.693604 -0.281494 
vn -0.259033 0.226074 0.938965 
vn -0.600342 0.799316 -0.005615 
vn -0.061523 -0.010010 -0.997803 
vn -0.662842 0.693604 -0.281494 
vn -0.061523 -0.010010 -0.997803 
vn 0.234863 -0.304688 -0.922852 
vn -0.662842 0.693604 -0.281494 
vn -0.061523 -0.010010 -0.997803 
vn 0.498291 -0.866455 0.023682 
vn 0.234863 -0.304688 -0.922852 
vn 0.498291 -0.866455 0.023682 
vn 0.535889 -0.780762 0.320312 
vn 0.234863 -0.304688 -0.922852 
vn 0.166748 -0.985596 -0.027344 
vn 0.003418 -0.025391 0.999512 
vn 0.498291 -0.866455 0.023682 
vn 0.003418 -0.025391 0.999512 
vn -0.044434 -0.033936 0.998291 
vn 0.498291 -0.866455 0.023682 
vn 0.003418 -0.025391 0.999512 
vn -0.234863 0.971924 0.011230 
vn -0.044434 -0.033936 0.998291 
vn -0.234863 0.971924 0.011230 
vn -0.600342 0.799316 -0.005615 
vn -0.044434 -0.033936 0.998291 
vn -0.234863 0.971924 0.011230 
vn -0.114746 -0.006104 -0.993164 
vn -0.600342 0.799316 -0.005615 
vn -0.114746 -0.006104 -0.993164 
vn -0.061523 -0.010010 -0.997803 
vn -0.600342 0.799316 -0.005615 
vn -0.114746 -0.006104 -0.993164 
vn 0.166748 -0.985596 -0.027344 
vn -0.061523 -0.010010 -0.997803 
vn 0.166748 -0.985596 -0.027344 
vn 0.498291 -0.866455 0.023682 
vn -0.061523 -0.010010 -0.997803 
vn -0.092773 -0.933838 -0.344727 
vn -0.084717 -0.339111 0.936768 
vn 0.166748 -0.985596 -0.027344 
vn -0.084717 -0.339111 0.936768 
vn 0.003418 -0.025391 0.999512 
vn 0.166748 -0.985596 -0.027344 
vn -0.084717 -0.339111 0.936768 
vn 0.036621 0.938232 0.343506 
vn 0.003418 -0.025391 0.999512 
vn 0.036621 0.938232 0.343506 
vn -0.234863 0.971924 0.011230 
vn 0.003418 -0.025391 0.999512 
vn 0.036621 0.938232 0.343506 
vn 0.028320 0.342773 -0.938721 
vn -0.234863 0.971924 0.011230 
vn 0.028320 0.342773 -0.938721 
vn -0.114746 -0.006104 -0.993164 
vn -0.234863 0.971924 0.011230 
vn 0.028320 0.342773 -0.938721 
vn -0.092773 -0.933838 -0.344727 
vn -0.114746 -0.006104 -0.993164 
vn -0.092773 -0.933838 -0.344727 
vn 0.166748 -0.985596 -0.027344 
vn -0.114746 -0.006104 -0.993164 
vn 0.840088 -0.057373 0.538818 
vn 0.831787 -0.554688 0.012207 
vn 0.998047 -0.050537 0.031738 
vn 0.882812 0.467529 0.041992 
vn 0.840088 -0.057373 0.538818 
vn 0.998047 -0.050537 0.031738 
vn 0.874268 -0.029297 -0.484131 
vn 0.882812 0.467529 0.041992 
vn 0.998047 -0.050537 0.031738 
vn 0.831787 -0.554688 0.012207 
vn 0.874268 -0.029297 -0.484131 
vn 0.998047 -0.050537 0.031738 
vt 0.190476 0.661417 
vt 0.285714 0.661417 
vt 0.190476 0.464567 
vt 0.190476 0.661417 
vt 0.285714 0.661417 
vt 0.190476 0.464567 
vt 0.190476 0.661417 
vt 0.285714 0.661417 
vt 0.190476 0.464567 
vt 0.190476 0.661417 
vt 0.285714 0.661417 
vt 0.190476 0.464567 
vt 0.190476 0.661417 
vt 0.285714 0.661417 
vt 0.190476 0.464567 
vt 0.285714 0.661417 
vt 0.285714 0.464567 
vt 0.190476 0.464567 
vt 0.190476 0.661417 
vt 0.285714 0.661417 
vt 0.190476 0.464567 
vt 0.285714 0.661417 
vt 0.285714 0.464567 
vt 0.190476 0.464567 
vt 0.190476 0.661417 
vt 0.285714 0.661417 
vt 0.190476 0.464567 
vt 0.285714 0.661417 
vt 0.285714 0.464567 
vt 0.190476 0.464567 
vt 0.190476 0.661417 
vt 0.285714 0.661417 
vt 0.190476 0.464567 
vt 0.285714 0.661417 
vt 0.285714 0.464567 
vt 0.190476 0.464567 
vt 0.190476 0.661417 
vt 0.285714 0.661417 
vt 0.190476 0.464567 
vt 0.285714 0.661417 
vt 0.285714 0.464567 
vt 0.190476 0.464567 
vt 0.190476 0.661417 
vt 0.285714 0.661417 
vt 0.190476 0.464567 
vt 0.285714 0.661417 
vt 0.285714 0.464567 
vt 0.190476 0.464567 
vt 0.190476 0.661417 
vt 0.285714 0.661417 
vt 0.190476 0.464567 
vt 0.285714 0.661417 
vt 0.285714 0.464567 
vt 0.190476 0.464567 
vt 0.190476 0.661417 
vt 0.285714 0.661417 
vt 0.190476 0.464567 
vt 0.285714 0.661417 
vt 0.285714 0.464567 
vt 0.190476 0.464567 
vt 0.190476 0.661417 
vt 0.285714 0.661417 
vt 0.190476 0.464567 
vt 0.285714 0.661417 
vt 0.285714 0.464567 
vt 0.190476 0.464567 
vt 0.190476 0.661417 
vt 0.285714 0.661417 
vt 0.190476 0.464567 
vt 0.285714 0.661417 
vt 0.285714 0.464567 
vt 0.190476 0.464567 
vt 0.190476 0.661417 
vt 0.285714 0.661417 
vt 0.190476 0.464567 
vt 0.285714 0.661417 
vt 0.285714 0.464567 
vt 0.190476 0.464567 
vt 0.190476 0.661417 
vt 0.285714 0.661417 
vt 0.190476 0.464567 
vt 0.285714 0.661417 
vt 0.285714 0.464567 
vt 0.190476 0.464567 
vt 0.285714 0.464567 
vt 0.190476 0.464567 
vt 0.285714 0.661417 
vt 0.285714 0.464567 
vt 0.190476 0.464567 
vt 0.285714 0.661417 
vt 0.285714 0.464567 
vt 0.190476 0.464567 
vt 0.285714 0.661417 
vt 0.285714 0.464567 
vt 0.190476 0.464567 
vt 0.285714 0.661417 
f 1/1/1 2/2/2 3/3/3
f 4/4/4 5/5/5 6/6/6
f 7/7/7 8/8/8 9/9/9
f 10/10/10 11/11/11 12/12/12
f 13/13/13 14/14/14 15/15/15
f 16/16/16 17/17/17 18/18/18
f 19/19/19 20/20/20 21/21/21
f 22/22/22 23/23/23 24/24/24
f 25/25/25 26/26/26 27/27/27
f 28/28/28 29/29/29 30/30/30
f 31/31/31 32/32/32 33/33/33
f 34/34/34 35/35/35 36/36/36
f 37/37/37 38/38/38 39/39/39
f 40/40/40 41/41/41 42/42/42
f 43/43/43 44/44/44 45/45/45
f 46/46/46 47/47/47 48/48/48
f 49/49/49 50/50/50 51/51/51
f 52/52/52 53/53/53 54/54/54
f 55/55/55 56/56/56 57/57/57
f 58/58/58 59/59/59 60/60/60
f 61/61/61 62/62/62 63/63/63
f 64/64/64 65/65/65 66/66/66
f 67/67/67 68/68/68 69/69/69
f 70/70/70 71/71/71 72/72/72
f 73/73/73 74/74/74 75/75/75
f 76/76/76 77/77/77 78/78/78
f 79/79/79 80/80/80 81/81/81
f 82/82/82 83/83/83 84/84/84
f 85/85/85 86/86/86 87/87/87
f 88/88/88 89/89/89 90/90/90
f 91/91/91 92/92/92 93/93/93
f 94/94/94 95/95/95 96/96/96
