v -724.000000 1024.000000 -218.000000 
v -724.000000 697.000000 -217.000000 
v 0.000000 697.000000 -217.000000 
v 0.000000 697.000000 -217.000000 
v 0.000000 1023.000000 -218.000000 
v -724.000000 1024.000000 -218.000000 
v -197.000000 0.000000 -217.000000 
v 0.000000 0.000000 -217.000000 
v 0.000000 697.000000 -217.000000 
v 0.000000 697.000000 -217.000000 
v -197.000000 433.000000 -217.000000 
v -197.000000 0.000000 -217.000000 
v -492.000000 0.000000 -217.000000 
v -724.000000 0.000000 -217.000000 
v 0.000000 0.000000 -217.000000 
v 0.000000 0.000000 -217.000000 
v -197.000000 0.000000 -217.000000 
v -492.000000 0.000000 -217.000000 
v -492.000000 433.000000 -217.000000 
v -724.000000 697.000000 -217.000000 
v -724.000000 0.000000 -217.000000 
v -724.000000 0.000000 -217.000000 
v -492.000000 0.000000 -217.000000 
v -492.000000 433.000000 -217.000000 
v -197.000000 433.000000 -217.000000 
v 0.000000 697.000000 -217.000000 
v -724.000000 697.000000 -217.000000 
v -724.000000 697.000000 -217.000000 
v -492.000000 433.000000 -217.000000 
v -197.000000 433.000000 -217.000000 
v -492.000000 0.000000 -243.000000 
v -492.000000 0.000000 -217.000000 
v -197.000000 0.000000 -217.000000 
v -197.000000 0.000000 -217.000000 
v -197.000000 0.000000 -243.000000 
v -492.000000 0.000000 -243.000000 
v -492.000000 433.000000 -243.000000 
v -492.000000 433.000000 -217.000000 
v -492.000000 0.000000 -217.000000 
v -492.000000 0.000000 -217.000000 
v -492.000000 0.000000 -243.000000 
v -492.000000 433.000000 -243.000000 
v -197.000000 433.000000 -243.000000 
v -197.000000 433.000000 -217.000000 
v -492.000000 433.000000 -217.000000 
v -492.000000 433.000000 -217.000000 
v -492.000000 433.000000 -243.000000 
v -197.000000 433.000000 -243.000000 
v -197.000000 0.000000 -243.000000 
v -197.000000 0.000000 -217.000000 
v -197.000000 433.000000 -217.000000 
v -197.000000 433.000000 -217.000000 
v -197.000000 433.000000 -243.000000 
v -197.000000 0.000000 -243.000000 
v -475.000000 191.000000 -243.000000 
v -492.000000 0.000000 -243.000000 
v -197.000000 0.000000 -243.000000 
v -197.000000 0.000000 -243.000000 
v -220.000000 191.000000 -243.000000 
v -475.000000 191.000000 -243.000000 
v -475.000000 430.000000 -243.000000 
v -492.000000 433.000000 -243.000000 
v -492.000000 0.000000 -243.000000 
v -492.000000 0.000000 -243.000000 
v -475.000000 191.000000 -243.000000 
v -475.000000 430.000000 -243.000000 
v -220.000000 430.000000 -243.000000 
v -197.000000 433.000000 -243.000000 
v -492.000000 433.000000 -243.000000 
v -492.000000 433.000000 -243.000000 
v -475.000000 430.000000 -243.000000 
v -220.000000 430.000000 -243.000000 
v -220.000000 191.000000 -243.000000 
v -197.000000 0.000000 -243.000000 
v -197.000000 433.000000 -243.000000 
v -197.000000 433.000000 -243.000000 
v -220.000000 430.000000 -243.000000 
v -220.000000 191.000000 -243.000000 
v -475.000000 191.000000 -274.000000 
v -475.000000 191.000000 -243.000000 
v -220.000000 191.000000 -243.000000 
v -220.000000 191.000000 -243.000000 
v -220.000000 191.000000 -274.000000 
v -475.000000 191.000000 -274.000000 
v -220.000000 430.000000 -274.000000 
v -220.000000 430.000000 -243.000000 
v -475.000000 430.000000 -243.000000 
v -475.000000 430.000000 -243.000000 
v -475.000000 430.000000 -274.000000 
v -220.000000 430.000000 -274.000000 
v -220.000000 191.000000 -274.000000 
v -220.000000 191.000000 -243.000000 
v -220.000000 430.000000 -243.000000 
v -220.000000 430.000000 -243.000000 
v -220.000000 430.000000 -274.000000 
v -220.000000 191.000000 -274.000000 
vn 0.000000 0.005371 0.999756 
vn 0.000000 0.005371 0.999756 
vn 0.000000 0.005371 0.999756 
vn 0.000000 0.005371 0.999756 
vn 0.000000 0.005371 0.999756 
vn 0.000000 0.005371 0.999756 
vn 0.000000 0.000000 1.000000 
vn 0.000000 0.000000 1.000000 
vn 0.000000 0.000000 1.000000 
vn 0.000000 0.000000 1.000000 
vn 0.000000 0.000000 1.000000 
vn 0.000000 0.000000 1.000000 
vn 0.000000 -1.000000 0.000000 
vn 0.000000 -1.000000 0.000000 
vn 0.000000 -1.000000 0.000000 
vn 0.000000 -1.000000 0.000000 
vn 0.000000 -1.000000 0.000000 
vn 0.000000 -1.000000 0.000000 
vn 0.000000 0.000000 1.000000 
vn 0.000000 0.000000 1.000000 
vn 0.000000 0.000000 1.000000 
vn 0.000000 0.000000 1.000000 
vn 0.000000 0.000000 1.000000 
vn 0.000000 0.000000 1.000000 
vn 0.000000 0.000000 1.000000 
vn 0.000000 0.000000 1.000000 
vn 0.000000 0.000000 1.000000 
vn 0.000000 0.000000 1.000000 
vn 0.000000 0.000000 1.000000 
vn 0.000000 0.000000 1.000000 
vn 0.000000 1.000000 0.000000 
vn 0.000000 1.000000 0.000000 
vn 0.000000 1.000000 0.000000 
vn 0.000000 1.000000 0.000000 
vn 0.000000 1.000000 0.000000 
vn 0.000000 1.000000 0.000000 
vn 1.000000 0.000000 0.000000 
vn 1.000000 0.000000 0.000000 
vn 1.000000 0.000000 0.000000 
vn 1.000000 0.000000 0.000000 
vn 1.000000 0.000000 0.000000 
vn 1.000000 0.000000 0.000000 
vn 0.000000 -1.000000 0.000000 
vn 0.000000 -1.000000 0.000000 
vn 0.000000 -1.000000 0.000000 
vn 0.000000 -1.000000 0.000000 
vn 0.000000 -1.000000 0.000000 
vn 0.000000 -1.000000 0.000000 
vn -1.000000 0.000000 0.000000 
vn -1.000000 0.000000 0.000000 
vn -1.000000 0.000000 0.000000 
vn -1.000000 0.000000 0.000000 
vn -1.000000 0.000000 0.000000 
vn -1.000000 0.000000 0.000000 
vn 0.000000 0.000000 1.000000 
vn 0.000000 0.000000 1.000000 
vn 0.000000 0.000000 1.000000 
vn 0.000000 0.000000 1.000000 
vn 0.000000 0.000000 1.000000 
vn 0.000000 0.000000 1.000000 
vn 0.000000 0.000000 1.000000 
vn 0.000000 0.000000 1.000000 
vn 0.000000 0.000000 1.000000 
vn 0.000000 0.000000 1.000000 
vn 0.000000 0.000000 1.000000 
vn 0.000000 0.000000 1.000000 
vn 0.000000 0.000000 1.000000 
vn 0.000000 0.000000 1.000000 
vn 0.000000 0.000000 1.000000 
vn 0.000000 0.000000 1.000000 
vn 0.000000 0.000000 1.000000 
vn 0.000000 0.000000 1.000000 
vn 0.000000 0.000000 1.000000 
vn 0.000000 0.000000 1.000000 
vn 0.000000 0.000000 1.000000 
vn 0.000000 0.000000 1.000000 
vn 0.000000 0.000000 1.000000 
vn 0.000000 0.000000 1.000000 
vn 0.000000 1.000000 0.000000 
vn 0.000000 1.000000 0.000000 
vn 0.000000 1.000000 0.000000 
vn 0.000000 1.000000 0.000000 
vn 0.000000 1.000000 0.000000 
vn 0.000000 1.000000 0.000000 
vn 0.000000 -1.000000 0.000000 
vn 0.000000 -1.000000 0.000000 
vn 0.000000 -1.000000 0.000000 
vn 0.000000 -1.000000 0.000000 
vn 0.000000 -1.000000 0.000000 
vn 0.000000 -1.000000 0.000000 
vn -1.000000 0.000000 0.000000 
vn -1.000000 0.000000 0.000000 
vn -1.000000 0.000000 0.000000 
vn -1.000000 0.000000 0.000000 
vn -1.000000 0.000000 0.000000 
vn -1.000000 0.000000 0.000000 
vt 0.062992 0.181102 
vt 0.055118 0.944882 
vt 0.905512 0.944882 
vt 0.905512 0.944882 
vt 0.905512 0.188976 
vt 0.062992 0.181102 
vt 0.661417 0.173228 
vt 0.905512 0.173228 
vt 0.905512 0.944882 
vt 0.905512 0.944882 
vt 0.661417 0.669291 
vt 0.661417 0.173228 
vt 0.346457 0.181102 
vt 0.055118 0.173228 
vt 0.905512 0.173228 
vt 0.905512 0.173228 
vt 0.661417 0.173228 
vt 0.346457 0.181102 
vt 0.346457 0.677165 
vt 0.055118 0.944882 
vt 0.055118 0.173228 
vt 0.055118 0.173228 
vt 0.346457 0.181102 
vt 0.346457 0.677165 
vt 0.661417 0.669291 
vt 0.905512 0.944882 
vt 0.055118 0.944882 
vt 0.055118 0.944882 
vt 0.346457 0.677165 
vt 0.661417 0.669291 
vt 0.377953 0.181102 
vt 0.346457 0.181102 
vt 0.661417 0.173228 
vt 0.661417 0.173228 
vt 0.637795 0.173228 
vt 0.377953 0.181102 
vt 0.377953 0.566929 
vt 0.346457 0.677165 
vt 0.346457 0.181102 
vt 0.346457 0.181102 
vt 0.377953 0.181102 
vt 0.377953 0.566929 
vt 0.637795 0.559055 
vt 0.661417 0.669291 
vt 0.346457 0.677165 
vt 0.346457 0.677165 
vt 0.377953 0.566929 
vt 0.637795 0.559055 
vt 0.637795 0.173228 
vt 0.661417 0.173228 
vt 0.661417 0.669291 
vt 0.661417 0.669291 
vt 0.637795 0.559055 
vt 0.637795 0.173228 
vt 0.401575 0.370079 
vt 0.377953 0.181102 
vt 0.637795 0.173228 
vt 0.637795 0.173228 
vt 0.574803 0.354331 
vt 0.401575 0.370079 
vt 0.433071 0.503937 
vt 0.377953 0.566929 
vt 0.377953 0.181102 
vt 0.377953 0.181102 
vt 0.401575 0.370079 
vt 0.433071 0.503937 
vt 0.574803 0.519685 
vt 0.637795 0.559055 
vt 0.377953 0.566929 
vt 0.377953 0.566929 
vt 0.433071 0.503937 
vt 0.574803 0.519685 
vt 0.574803 0.354331 
vt 0.637795 0.173228 
vt 0.637795 0.559055 
vt 0.637795 0.559055 
vt 0.574803 0.519685 
vt 0.574803 0.354331 
vt 0.409449 0.401575 
vt 0.401575 0.370079 
vt 0.574803 0.354331 
vt 0.574803 0.354331 
vt 0.551181 0.385827 
vt 0.409449 0.401575 
vt 0.559055 0.535433 
vt 0.574803 0.519685 
vt 0.433071 0.503937 
vt 0.433071 0.503937 
vt 0.409449 0.535433 
vt 0.559055 0.535433 
vt 0.551181 0.385827 
vt 0.574803 0.354331 
vt 0.574803 0.519685 
vt 0.574803 0.519685 
vt 0.559055 0.535433 
vt 0.551181 0.385827 
f 1/1/1 2/2/2 3/3/3
f 4/4/4 5/5/5 6/6/6
f 7/7/7 8/8/8 9/9/9
f 10/10/10 11/11/11 12/12/12
f 13/13/13 14/14/14 15/15/15
f 16/16/16 17/17/17 18/18/18
f 19/19/19 20/20/20 21/21/21
f 22/22/22 23/23/23 24/24/24
f 25/25/25 26/26/26 27/27/27
f 28/28/28 29/29/29 30/30/30
f 31/31/31 32/32/32 33/33/33
f 34/34/34 35/35/35 36/36/36
f 37/37/37 38/38/38 39/39/39
f 40/40/40 41/41/41 42/42/42
f 43/43/43 44/44/44 45/45/45
f 46/46/46 47/47/47 48/48/48
f 49/49/49 50/50/50 51/51/51
f 52/52/52 53/53/53 54/54/54
f 55/55/55 56/56/56 57/57/57
f 58/58/58 59/59/59 60/60/60
f 61/61/61 62/62/62 63/63/63
f 64/64/64 65/65/65 66/66/66
f 67/67/67 68/68/68 69/69/69
f 70/70/70 71/71/71 72/72/72
f 73/73/73 74/74/74 75/75/75
f 76/76/76 77/77/77 78/78/78
f 79/79/79 80/80/80 81/81/81
f 82/82/82 83/83/83 84/84/84
f 85/85/85 86/86/86 87/87/87
f 88/88/88 89/89/89 90/90/90
f 91/91/91 92/92/92 93/93/93
f 94/94/94 95/95/95 96/96/96
