v 2.000000 -11.000000 1.000000 
v 6.000000 -2.000000 -9.000000 
v 8.000000 -11.000000 2.000000 
v 2.000000 -11.000000 1.000000 
v 8.000000 -11.000000 2.000000 
v 9.000000 -2.000000 12.000000 
v 6.000000 -2.000000 -9.000000 
v 10.000000 -2.000000 -9.000000 
v 8.000000 -11.000000 2.000000 
v 6.000000 -2.000000 -9.000000 
v 6.000000 10.000000 -7.000000 
v 10.000000 -2.000000 -9.000000 
v 6.000000 10.000000 -7.000000 
v 10.000000 10.000000 -4.000000 
v 10.000000 -2.000000 -9.000000 
v 8.000000 -11.000000 2.000000 
v 10.000000 -2.000000 -9.000000 
v 27.000000 -11.000000 -1.000000 
v 10.000000 -2.000000 -9.000000 
v 27.000000 -2.000000 -14.000000 
v 27.000000 -11.000000 -1.000000 
v 8.000000 -11.000000 2.000000 
v 27.000000 -11.000000 -1.000000 
v 27.000000 -2.000000 10.000000 
v 10.000000 -2.000000 -9.000000 
v 10.000000 10.000000 -4.000000 
v 27.000000 -2.000000 -14.000000 
v 10.000000 10.000000 -4.000000 
v 27.000000 10.000000 -9.000000 
v 27.000000 -2.000000 -14.000000 
v 10.000000 10.000000 -4.000000 
v 8.000000 9.000000 10.000000 
v 27.000000 10.000000 -9.000000 
v 8.000000 9.000000 10.000000 
v 27.000000 9.000000 6.000000 
v 27.000000 10.000000 -9.000000 
v 8.000000 9.000000 10.000000 
v 9.000000 -2.000000 12.000000 
v 27.000000 9.000000 6.000000 
v 9.000000 -2.000000 12.000000 
v 27.000000 -2.000000 10.000000 
v 27.000000 9.000000 6.000000 
v 9.000000 -2.000000 12.000000 
v 8.000000 -11.000000 2.000000 
v 27.000000 -2.000000 10.000000 
vn 0.019043 -0.996582 -0.079102 
vn -0.744873 -0.306641 -0.592285 
vn 0.037109 -0.999268 0.007568 
vn 0.019043 -0.996582 -0.079102 
vn 0.037109 -0.999268 0.007568 
vn 0.909180 -0.245850 0.335693 
vn -0.744873 -0.306641 -0.592285 
vn -0.874756 -0.296875 -0.382080 
vn 0.037109 -0.999268 0.007568 
vn -0.744873 -0.306641 -0.592285 
vn -0.563721 0.717529 -0.408447 
vn -0.874756 -0.296875 -0.382080 
vn -0.563721 0.717529 -0.408447 
vn -0.542236 0.792969 -0.276855 
vn -0.874756 -0.296875 -0.382080 
vn 0.037109 -0.999268 0.007568 
vn -0.874756 -0.296875 -0.382080 
vn -0.018799 -0.998047 -0.058594 
vn -0.874756 -0.296875 -0.382080 
vn -0.903076 -0.292236 -0.313721 
vn -0.018799 -0.998047 -0.058594 
vn 0.037109 -0.999268 0.007568 
vn -0.018799 -0.998047 -0.058594 
vn 0.933838 -0.208252 0.290283 
vn -0.874756 -0.296875 -0.382080 
vn -0.542236 0.792969 -0.276855 
vn -0.903076 -0.292236 -0.313721 
vn -0.542236 0.792969 -0.276855 
vn -0.498779 0.808105 -0.312500 
vn -0.903076 -0.292236 -0.313721 
vn -0.542236 0.792969 -0.276855 
vn 0.714355 0.674805 0.183594 
vn -0.498779 0.808105 -0.312500 
vn 0.714355 0.674805 0.183594 
vn 0.715088 0.688477 0.119141 
vn -0.498779 0.808105 -0.312500 
vn 0.714355 0.674805 0.183594 
vn 0.909180 -0.245850 0.335693 
vn 0.715088 0.688477 0.119141 
vn 0.909180 -0.245850 0.335693 
vn 0.933838 -0.208252 0.290283 
vn 0.715088 0.688477 0.119141 
vn 0.909180 -0.245850 0.335693 
vn 0.037109 -0.999268 0.007568 
vn 0.933838 -0.208252 0.290283 
vt 0.748031 0.244094 
vt 0.582677 0.244094 
vt 0.748031 0.220472 
vt 0.748031 0.244094 
vt 0.748031 0.220472 
vt 0.582677 0.196850 
vt 0.582677 0.244094 
vt 0.582677 0.236220 
vt 0.748031 0.220472 
vt 0.582677 0.244094 
vt 0.322835 0.244094 
vt 0.582677 0.236220 
vt 0.322835 0.244094 
vt 0.314961 0.228346 
vt 0.582677 0.236220 
vt 0.748031 0.220472 
vt 0.582677 0.236220 
vt 0.748031 0.149606 
vt 0.582677 0.236220 
vt 0.582677 0.173228 
vt 0.748031 0.149606 
vt 0.748031 0.220472 
vt 0.748031 0.149606 
vt 0.582677 0.125984 
vt 0.582677 0.236220 
vt 0.314961 0.228346 
vt 0.582677 0.173228 
vt 0.314961 0.228346 
vt 0.314961 0.165354 
vt 0.582677 0.173228 
vt 0.314961 0.228346 
vt 0.354331 0.204724 
vt 0.314961 0.165354 
vt 0.354331 0.204724 
vt 0.354331 0.133858 
vt 0.314961 0.165354 
vt 0.354331 0.204724 
vt 0.582677 0.196850 
vt 0.354331 0.133858 
vt 0.582677 0.196850 
vt 0.582677 0.125984 
vt 0.354331 0.133858 
vt 0.582677 0.196850 
vt 0.748031 0.220472 
vt 0.582677 0.125984 
f 1/1/1 2/2/2 3/3/3
f 4/4/4 5/5/5 6/6/6
f 7/7/7 8/8/8 9/9/9
f 10/10/10 11/11/11 12/12/12
f 13/13/13 14/14/14 15/15/15
f 16/16/16 17/17/17 18/18/18
f 19/19/19 20/20/20 21/21/21
f 22/22/22 23/23/23 24/24/24
f 25/25/25 26/26/26 27/27/27
f 28/28/28 29/29/29 30/30/30
f 31/31/31 32/32/32 33/33/33
f 34/34/34 35/35/35 36/36/36
f 37/37/37 38/38/38 39/39/39
f 40/40/40 41/41/41 42/42/42
f 43/43/43 44/44/44 45/45/45
