v 23.000000 0.000000 -46.000000 
v 21.000000 0.000000 -69.000000 
v -20.000000 0.000000 -46.000000 
v -21.000000 0.000000 -69.000000 
v -20.000000 0.000000 -46.000000 
v 21.000000 0.000000 -69.000000 
v 31.000000 -5.000000 -16.000000 
v 23.000000 0.000000 -46.000000 
v -28.000000 -5.000000 -10.000000 
v -20.000000 0.000000 -46.000000 
v -28.000000 -5.000000 -10.000000 
v 23.000000 0.000000 -46.000000 
v 37.000000 -12.000000 23.000000 
v 31.000000 -5.000000 -16.000000 
v -20.000000 -12.000000 33.000000 
v -28.000000 -5.000000 -10.000000 
v -20.000000 -12.000000 33.000000 
v 31.000000 -5.000000 -16.000000 
v 4.000000 18.000000 -46.000000 
v 3.000000 16.000000 -69.000000 
v 4.000000 -25.000000 -46.000000 
v 3.000000 -27.000000 -69.000000 
v 4.000000 -25.000000 -46.000000 
v 3.000000 16.000000 -69.000000 
v 6.000000 24.000000 -16.000000 
v 4.000000 18.000000 -46.000000 
v 6.000000 -36.000000 -10.000000 
v 4.000000 -25.000000 -46.000000 
v 6.000000 -36.000000 -10.000000 
v 4.000000 18.000000 -46.000000 
v 9.000000 22.000000 23.000000 
v 6.000000 24.000000 -16.000000 
v 9.000000 -35.000000 33.000000 
v 6.000000 -36.000000 -10.000000 
v 9.000000 -35.000000 33.000000 
v 6.000000 24.000000 -16.000000 
v -19.000000 -6.000000 -46.000000 
v 10.000000 25.000000 -46.000000 
v -20.000000 -7.000000 -69.000000 
v 9.000000 23.000000 -69.000000 
v -20.000000 -7.000000 -69.000000 
v 10.000000 25.000000 -46.000000 
v -29.000000 -19.000000 -24.000000 
v 12.000000 24.000000 -19.000000 
v -19.000000 -6.000000 -46.000000 
v 10.000000 25.000000 -46.000000 
v -19.000000 -6.000000 -46.000000 
v 12.000000 24.000000 -19.000000 
v -41.000000 -37.000000 17.000000 
v 0.000000 4.000000 27.000000 
v -29.000000 -19.000000 -24.000000 
v 12.000000 24.000000 -19.000000 
v -29.000000 -19.000000 -24.000000 
v 0.000000 4.000000 27.000000 
v -19.000000 19.000000 -46.000000 
v 12.000000 -11.000000 -46.000000 
v -19.000000 17.000000 -69.000000 
v 12.000000 -12.000000 -69.000000 
v -19.000000 17.000000 -69.000000 
v 12.000000 -11.000000 -46.000000 
v -33.000000 19.000000 -24.000000 
v 10.000000 -21.000000 -19.000000 
v -19.000000 19.000000 -46.000000 
v 12.000000 -11.000000 -46.000000 
v -19.000000 19.000000 -46.000000 
v 10.000000 -21.000000 -19.000000 
v -47.000000 7.000000 17.000000 
v -4.000000 -33.000000 27.000000 
v -33.000000 19.000000 -24.000000 
v 10.000000 -21.000000 -19.000000 
v -33.000000 19.000000 -24.000000 
v -4.000000 -33.000000 27.000000 
v 10.000000 24.000000 -46.000000 
v 11.000000 25.000000 -69.000000 
v -18.000000 -8.000000 -46.000000 
v -17.000000 -7.000000 -69.000000 
v -18.000000 -8.000000 -46.000000 
v 11.000000 25.000000 -69.000000 
v 21.000000 41.000000 -24.000000 
v 10.000000 24.000000 -46.000000 
v -18.000000 -3.000000 -19.000000 
v -18.000000 -8.000000 -46.000000 
v -18.000000 -3.000000 -19.000000 
v 10.000000 24.000000 -46.000000 
v 36.000000 61.000000 17.000000 
v 21.000000 41.000000 -24.000000 
v -2.000000 17.000000 27.000000 
v -18.000000 -3.000000 -19.000000 
v -2.000000 17.000000 27.000000 
v 21.000000 41.000000 -24.000000 
v -14.000000 21.000000 -46.000000 
v -13.000000 22.000000 -69.000000 
v 17.000000 -7.000000 -46.000000 
v 19.000000 -6.000000 -69.000000 
v 17.000000 -7.000000 -46.000000 
v -13.000000 22.000000 -69.000000 
v -17.000000 42.000000 -24.000000 
v -14.000000 21.000000 -46.000000 
v 28.000000 2.000000 -19.000000 
v 17.000000 -7.000000 -46.000000 
v 28.000000 2.000000 -19.000000 
v -14.000000 21.000000 -46.000000 
v -9.000000 63.000000 17.000000 
v -17.000000 42.000000 -24.000000 
v 34.000000 24.000000 27.000000 
v 28.000000 2.000000 -19.000000 
v 34.000000 24.000000 27.000000 
v -17.000000 42.000000 -24.000000 
vn 0.006104 0.995850 0.088379 
vn 0.000000 0.999512 -0.028076 
vn 0.000000 0.999512 0.026367 
vn 0.000000 0.999512 -0.028076 
vn 0.000000 0.999512 0.026367 
vn 0.000000 0.999512 -0.028076 
vn 0.019775 0.991211 0.130127 
vn 0.006104 0.995850 0.088379 
vn 0.010742 0.990723 0.134766 
vn 0.000000 0.999512 0.026367 
vn 0.010742 0.990723 0.134766 
vn 0.006104 0.995850 0.088379 
vn 0.027100 0.991943 0.122314 
vn 0.019775 0.991211 0.130127 
vn 0.020264 0.992676 0.117188 
vn 0.010742 0.990723 0.134766 
vn 0.020264 0.992676 0.117188 
vn 0.019775 0.991211 0.130127 
vn -0.999023 0.001465 0.039062 
vn -0.999023 0.000000 0.042969 
vn -0.999023 0.000000 0.040039 
vn -0.999023 0.000000 0.042969 
vn -0.999023 0.000000 0.040039 
vn -0.999023 0.000000 0.042969 
vn -0.998291 0.008789 0.054932 
vn -0.999023 0.001465 0.039062 
vn -0.998779 0.003906 0.044434 
vn -0.999023 0.000000 0.040039 
vn -0.998779 0.003906 0.044434 
vn -0.999023 0.001465 0.039062 
vn -0.997559 0.014404 0.065918 
vn -0.998291 0.008789 0.054932 
vn -0.997803 0.010742 0.062500 
vn -0.998779 0.003906 0.044434 
vn -0.997803 0.010742 0.062500 
vn -0.998291 0.008789 0.054932 
vn -0.726562 0.685791 0.038086 
vn -0.725098 0.688232 0.017578 
vn -0.725342 0.688232 0.000000 
vn -0.725342 0.688232 0.000000 
vn -0.725342 0.688232 0.000000 
vn -0.725098 0.688232 0.017578 
vn -0.730469 0.680176 0.060547 
vn -0.727295 0.683594 0.057617 
vn -0.726562 0.685791 0.038086 
vn -0.725098 0.688232 0.017578 
vn -0.726562 0.685791 0.038086 
vn -0.727295 0.683594 0.057617 
vn -0.733154 0.677002 0.061523 
vn -0.730957 0.679443 0.059814 
vn -0.730469 0.680176 0.060547 
vn -0.727295 0.683594 0.057617 
vn -0.730469 0.680176 0.060547 
vn -0.730957 0.679443 0.059814 
vn 0.670410 0.723633 0.163330 
vn 0.687500 0.724365 0.048828 
vn 0.687500 0.724365 -0.049072 
vn 0.687500 0.724365 -0.049072 
vn 0.687500 0.724365 -0.049072 
vn 0.687500 0.724365 0.048828 
vn 0.622803 0.723877 0.296143 
vn 0.644775 0.713379 0.273438 
vn 0.670410 0.723633 0.163330 
vn 0.687500 0.724365 0.048828 
vn 0.670410 0.723633 0.163330 
vn 0.644775 0.713379 0.273438 
vn 0.602051 0.734863 0.312012 
vn 0.617920 0.726807 0.299561 
vn 0.622803 0.723877 0.296143 
vn 0.644775 0.713379 0.273438 
vn 0.622803 0.723877 0.296143 
vn 0.617920 0.726807 0.299561 
vn -0.750000 0.658203 -0.061523 
vn -0.748779 0.662598 0.000000 
vn -0.748535 0.662109 -0.028564 
vn -0.748779 0.662598 0.000000 
vn -0.748535 0.662109 -0.028564 
vn -0.748779 0.662598 0.000000 
vn -0.753174 0.654785 -0.059814 
vn -0.750000 0.658203 -0.061523 
vn -0.750488 0.656494 -0.074463 
vn -0.748535 0.662109 -0.028564 
vn -0.750488 0.656494 -0.074463 
vn -0.750000 0.658203 -0.061523 
vn -0.754150 0.655029 -0.041260 
vn -0.753174 0.654785 -0.059814 
vn -0.752930 0.656738 -0.040039 
vn -0.750488 0.656494 -0.074463 
vn -0.752930 0.656738 -0.040039 
vn -0.753174 0.654785 -0.059814 
vn -0.655029 -0.714844 0.243896 
vn -0.661621 -0.748047 -0.049072 
vn -0.659912 -0.745850 0.087402 
vn -0.661621 -0.748047 -0.049072 
vn -0.659912 -0.745850 0.087402 
vn -0.661621 -0.748047 -0.049072 
vn -0.658936 -0.662109 0.356445 
vn -0.655029 -0.714844 0.243896 
vn -0.639404 -0.678467 0.361084 
vn -0.659912 -0.745850 0.087402 
vn -0.639404 -0.678467 0.361084 
vn -0.655029 -0.714844 0.243896 
vn -0.677246 -0.651367 0.341309 
vn -0.658936 -0.662109 0.356445 
vn -0.666992 -0.667725 0.329590 
vn -0.639404 -0.678467 0.361084 
vn -0.666992 -0.667725 0.329590 
vn -0.658936 -0.662109 0.356445 
vt 0.000000 0.015873 
vt 0.000000 -0.015873 
vt 1.000000 0.015873 
vt 1.000000 -0.015873 
vt 1.000000 0.015873 
vt 0.000000 -0.015873 
vt 0.000000 -0.015873 
vt 0.000000 0.015873 
vt 1.000000 -0.015873 
vt 1.000000 0.015873 
vt 1.000000 -0.015873 
vt 0.000000 0.015873 
vt 0.000000 1.000000 
vt 0.000000 -0.015873 
vt 1.000000 1.000000 
vt 1.000000 -0.015873 
vt 1.000000 1.000000 
vt 0.000000 -0.015873 
vt 0.000000 0.015873 
vt 0.000000 -0.015873 
vt 1.000000 0.015873 
vt 1.000000 -0.015873 
vt 1.000000 0.015873 
vt 0.000000 -0.015873 
vt 0.000000 -0.015873 
vt 0.000000 0.015873 
vt 1.000000 -0.015873 
vt 1.000000 0.015873 
vt 1.000000 -0.015873 
vt 0.000000 0.015873 
vt 0.000000 1.000000 
vt 0.000000 -0.015873 
vt 1.000000 1.000000 
vt 1.000000 -0.015873 
vt 1.000000 1.000000 
vt 0.000000 -0.015873 
vt 0.000000 0.015873 
vt 1.000000 0.015873 
vt 0.000000 -0.015873 
vt 1.000000 -0.015873 
vt 0.000000 -0.015873 
vt 1.000000 0.015873 
vt 0.000000 -0.015873 
vt 1.000000 -0.015873 
vt 0.000000 0.015873 
vt 1.000000 0.015873 
vt 0.000000 0.015873 
vt 1.000000 -0.015873 
vt 0.000000 1.000000 
vt 1.000000 1.000000 
vt 0.000000 -0.015873 
vt 1.000000 -0.015873 
vt 0.000000 -0.015873 
vt 1.000000 1.000000 
vt 0.000000 0.015873 
vt 1.000000 0.015873 
vt 0.000000 -0.015873 
vt 1.000000 -0.015873 
vt 0.000000 -0.015873 
vt 1.000000 0.015873 
vt 0.000000 -0.015873 
vt 1.000000 -0.015873 
vt 0.000000 0.015873 
vt 1.000000 0.015873 
vt 0.000000 0.015873 
vt 1.000000 -0.015873 
vt 0.000000 1.000000 
vt 1.000000 1.000000 
vt 0.000000 -0.015873 
vt 1.000000 -0.015873 
vt 0.000000 -0.015873 
vt 1.000000 1.000000 
vt 0.000000 0.015873 
vt 0.000000 -0.015873 
vt 1.000000 0.015873 
vt 1.000000 -0.015873 
vt 1.000000 0.015873 
vt 0.000000 -0.015873 
vt 0.000000 -0.015873 
vt 0.000000 0.015873 
vt 1.000000 -0.015873 
vt 1.000000 0.015873 
vt 1.000000 -0.015873 
vt 0.000000 0.015873 
vt 0.000000 1.000000 
vt 0.000000 -0.015873 
vt 1.000000 1.000000 
vt 1.000000 -0.015873 
vt 1.000000 1.000000 
vt 0.000000 -0.015873 
vt 0.000000 0.015873 
vt 0.000000 -0.015873 
vt 1.000000 0.015873 
vt 1.000000 -0.015873 
vt 1.000000 0.015873 
vt 0.000000 -0.015873 
vt 0.000000 -0.015873 
vt 0.000000 0.015873 
vt 1.000000 -0.015873 
vt 1.000000 0.015873 
vt 1.000000 -0.015873 
vt 0.000000 0.015873 
vt 0.000000 1.000000 
vt 0.000000 -0.015873 
vt 1.000000 1.000000 
vt 1.000000 -0.015873 
vt 1.000000 1.000000 
vt 0.000000 -0.015873 
f 1/1/1 2/2/2 3/3/3
f 4/4/4 5/5/5 6/6/6
f 7/7/7 8/8/8 9/9/9
f 10/10/10 11/11/11 12/12/12
f 13/13/13 14/14/14 15/15/15
f 16/16/16 17/17/17 18/18/18
f 19/19/19 20/20/20 21/21/21
f 22/22/22 23/23/23 24/24/24
f 25/25/25 26/26/26 27/27/27
f 28/28/28 29/29/29 30/30/30
f 31/31/31 32/32/32 33/33/33
f 34/34/34 35/35/35 36/36/36
f 37/37/37 38/38/38 39/39/39
f 40/40/40 41/41/41 42/42/42
f 43/43/43 44/44/44 45/45/45
f 46/46/46 47/47/47 48/48/48
f 49/49/49 50/50/50 51/51/51
f 52/52/52 53/53/53 54/54/54
f 55/55/55 56/56/56 57/57/57
f 58/58/58 59/59/59 60/60/60
f 61/61/61 62/62/62 63/63/63
f 64/64/64 65/65/65 66/66/66
f 67/67/67 68/68/68 69/69/69
f 70/70/70 71/71/71 72/72/72
f 73/73/73 74/74/74 75/75/75
f 76/76/76 77/77/77 78/78/78
f 79/79/79 80/80/80 81/81/81
f 82/82/82 83/83/83 84/84/84
f 85/85/85 86/86/86 87/87/87
f 88/88/88 89/89/89 90/90/90
f 91/91/91 92/92/92 93/93/93
f 94/94/94 95/95/95 96/96/96
f 97/97/97 98/98/98 99/99/99
f 100/100/100 101/101/101 102/102/102
f 103/103/103 104/104/104 105/105/105
f 106/106/106 107/107/107 108/108/108
