v 0.000000 -5.000000 6.000000 
v -8.000000 -5.000000 -14.000000 
v 19.000000 -12.000000 -14.000000 
v -8.000000 12.000000 14.000000 
v -19.000000 12.000000 -14.000000 
v -8.000000 -5.000000 -14.000000 
v 0.000000 -5.000000 6.000000 
v -8.000000 12.000000 14.000000 
v -8.000000 -5.000000 -14.000000 
vn -0.505127 -0.837158 0.209229 
vn -0.596191 -0.763672 0.246338 
vn -0.207031 -0.974365 0.085693 
vn -0.741943 -0.595947 0.306641 
vn -0.742920 -0.594971 0.306152 
vn -0.596191 -0.763672 0.246338 
vn -0.505127 -0.837158 0.209229 
vn -0.741943 -0.595947 0.306641 
vn -0.596191 -0.763672 0.246338 
vt 0.523810 0.000000 
vt 0.444444 0.000000 
vt 0.698413 0.317460 
vt 0.603175 0.269841 
vt 0.841270 0.269841 
vt 0.809524 0.031746 
vt 0.634921 0.031746 
vt 0.603175 0.269841 
vt 0.809524 0.031746 
f 1/1/1 2/2/2 3/3/3
f 4/4/4 5/5/5 6/6/6
f 7/7/7 8/8/8 9/9/9
