v -9.000000 2.000000 5.000000 
v -9.000000 -3.000000 5.000000 
v 9.000000 -3.000000 -1.000000 
v 9.000000 -3.000000 -1.000000 
v 9.000000 2.000000 -1.000000 
v -9.000000 2.000000 5.000000 
v -9.000000 3.000000 0.000000 
v -9.000000 2.000000 5.000000 
v 9.000000 2.000000 -1.000000 
v 9.000000 2.000000 -1.000000 
v 5.000000 3.000000 -5.000000 
v -9.000000 3.000000 0.000000 
v -9.000000 -3.000000 0.000000 
v -9.000000 3.000000 0.000000 
v 5.000000 3.000000 -5.000000 
v 5.000000 3.000000 -5.000000 
v 5.000000 -3.000000 -5.000000 
v -9.000000 -3.000000 0.000000 
vn 0.347412 0.417236 0.839600 
vn 0.382568 0.000000 0.923828 
vn 0.382324 -0.000977 0.923828 
vn 0.382324 -0.000977 0.923828 
vn 0.209473 0.835938 0.506592 
vn 0.347412 0.417236 0.839600 
vn -0.122070 0.947754 -0.294189 
vn 0.347412 0.417236 0.839600 
vn 0.209473 0.835938 0.506592 
vn 0.209473 0.835938 0.506592 
vn -0.321045 0.540527 -0.777344 
vn -0.122070 0.947754 -0.294189 
vn -0.379883 0.097412 -0.919678 
vn -0.122070 0.947754 -0.294189 
vn -0.321045 0.540527 -0.777344 
vn -0.321045 0.540527 -0.777344 
vn -0.379150 0.093994 -0.920410 
vn -0.379883 0.097412 -0.919678 
vt 0.603175 0.825397 
vt 0.603175 0.698413 
vt 0.222222 0.698413 
vt 0.222222 0.698413 
vt 0.158730 0.825397 
vt 0.603175 0.825397 
vt 0.952381 0.825397 
vt 0.984127 0.746032 
vt 0.777778 0.746032 
vt 0.777778 0.746032 
vt 0.793651 0.825397 
vt 0.952381 0.825397 
vt 0.857143 0.714286 
vt 0.857143 0.793651 
vt 0.555556 0.793651 
vt 0.555556 0.793651 
vt 0.555556 0.714286 
vt 0.857143 0.714286 
f 1/1/1 2/2/2 3/3/3
f 4/4/4 5/5/5 6/6/6
f 7/7/7 8/8/8 9/9/9
f 10/10/10 11/11/11 12/12/12
f 13/13/13 14/14/14 15/15/15
f 16/16/16 17/17/17 18/18/18
