v 0.000000 -25.000000 34.000000 
v -3.000000 -38.000000 2.000000 
v 41.000000 -24.000000 30.000000 
v 35.000000 -19.000000 -35.000000 
v 38.000000 -36.000000 -1.000000 
v -3.000000 -38.000000 2.000000 
v -4.000000 -23.000000 -25.000000 
v 35.000000 -19.000000 -35.000000 
v -3.000000 -38.000000 2.000000 
v -3.000000 -38.000000 2.000000 
v 38.000000 -36.000000 -1.000000 
v 41.000000 -24.000000 30.000000 
v -7.000000 -29.000000 38.000000 
v 34.000000 -12.000000 38.000000 
v -6.000000 -10.000000 45.000000 
v 34.000000 -12.000000 38.000000 
v -7.000000 -29.000000 38.000000 
v 34.000000 -30.000000 34.000000 
vn 0.076416 -0.779053 0.622070 
vn -0.008789 -0.999512 -0.025391 
vn 0.079346 -0.842773 0.531982 
vn -0.038330 -0.819580 -0.571289 
vn 0.035889 -0.998535 -0.035156 
vn -0.008789 -0.999512 -0.025391 
vn -0.058594 -0.808350 -0.585449 
vn -0.038330 -0.819580 -0.571289 
vn -0.008789 -0.999512 -0.025391 
vn -0.008789 -0.999512 -0.025391 
vn 0.035889 -0.998535 -0.035156 
vn 0.079346 -0.842773 0.531982 
vn 0.067627 -0.569580 0.819092 
vn 0.105469 -0.542480 0.833252 
vn 0.039551 -0.621338 0.782227 
vn 0.105469 -0.542480 0.833252 
vn 0.067627 -0.569580 0.819092 
vn 0.085693 -0.460205 0.883545 
vt 0.507937 0.212598 
vt 0.571429 0.212598 
vt 0.523810 0.094488 
vt 0.507937 0.094488 
vt 0.587302 0.094488 
vt 0.571429 0.212598 
vt 0.476190 0.212598 
vt 0.507937 0.094488 
vt 0.571429 0.212598 
vt 0.571429 0.212598 
vt 0.587302 0.094488 
vt 0.523810 0.094488 
vt 0.761905 0.771654 
vt 1.000000 0.535433 
vt 1.000000 0.771654 
vt 1.000000 0.535433 
vt 0.761905 0.771654 
vt 0.761905 0.535433 
f 1/1/1 2/2/2 3/3/3
f 4/4/4 5/5/5 6/6/6
f 7/7/7 8/8/8 9/9/9
f 10/10/10 11/11/11 12/12/12
f 13/13/13 14/14/14 15/15/15
f 16/16/16 17/17/17 18/18/18
