v 31.000000 -5.000000 -16.000000 
v 23.000000 0.000000 -70.000000 
v -28.000000 -5.000000 -10.000000 
v -20.000000 0.000000 -70.000000 
v -28.000000 -5.000000 -10.000000 
v 23.000000 0.000000 -70.000000 
v 37.000000 -12.000000 43.000000 
v 31.000000 -5.000000 -16.000000 
v -20.000000 -12.000000 52.000000 
v -28.000000 -5.000000 -10.000000 
v -20.000000 -12.000000 52.000000 
v 31.000000 -5.000000 -16.000000 
v 6.000000 24.000000 -16.000000 
v 4.000000 18.000000 -70.000000 
v 6.000000 -36.000000 -10.000000 
v 4.000000 -25.000000 -70.000000 
v 6.000000 -36.000000 -10.000000 
v 4.000000 18.000000 -70.000000 
v 9.000000 22.000000 43.000000 
v 6.000000 24.000000 -16.000000 
v 9.000000 -35.000000 52.000000 
v 6.000000 -36.000000 -10.000000 
v 9.000000 -35.000000 52.000000 
v 6.000000 24.000000 -16.000000 
v -29.000000 -19.000000 -24.000000 
v 12.000000 24.000000 -19.000000 
v -19.000000 -6.000000 -70.000000 
v 10.000000 25.000000 -70.000000 
v -19.000000 -6.000000 -70.000000 
v 12.000000 24.000000 -19.000000 
v -41.000000 -37.000000 37.000000 
v 0.000000 4.000000 46.000000 
v -29.000000 -19.000000 -24.000000 
v 12.000000 24.000000 -19.000000 
v -29.000000 -19.000000 -24.000000 
v 0.000000 4.000000 46.000000 
v -33.000000 19.000000 -24.000000 
v 10.000000 -21.000000 -19.000000 
v -19.000000 19.000000 -70.000000 
v 12.000000 -11.000000 -70.000000 
v -19.000000 19.000000 -70.000000 
v 10.000000 -21.000000 -19.000000 
v -47.000000 7.000000 37.000000 
v -4.000000 -33.000000 46.000000 
v -33.000000 19.000000 -24.000000 
v 10.000000 -21.000000 -19.000000 
v -33.000000 19.000000 -24.000000 
v -4.000000 -33.000000 46.000000 
v 21.000000 41.000000 -24.000000 
v 10.000000 24.000000 -70.000000 
v -18.000000 -3.000000 -19.000000 
v -18.000000 -8.000000 -70.000000 
v -18.000000 -3.000000 -19.000000 
v 10.000000 24.000000 -70.000000 
v 36.000000 61.000000 37.000000 
v 21.000000 41.000000 -24.000000 
v -2.000000 17.000000 46.000000 
v -18.000000 -3.000000 -19.000000 
v -2.000000 17.000000 46.000000 
v 21.000000 41.000000 -24.000000 
v -17.000000 42.000000 -24.000000 
v -14.000000 21.000000 -70.000000 
v 28.000000 2.000000 -19.000000 
v 17.000000 -7.000000 -70.000000 
v 28.000000 2.000000 -19.000000 
v -14.000000 21.000000 -70.000000 
v -9.000000 63.000000 37.000000 
v -17.000000 42.000000 -24.000000 
v 34.000000 24.000000 46.000000 
v 28.000000 2.000000 -19.000000 
v 34.000000 24.000000 46.000000 
v -17.000000 42.000000 -24.000000 
vn 0.012939 0.996338 0.083740 
vn 0.005371 0.996094 0.085449 
vn 0.006592 0.996338 0.083252 
vn 0.000000 0.996582 0.082031 
vn 0.006592 0.996338 0.083252 
vn 0.005371 0.996094 0.085449 
vn 0.018555 0.996094 0.083740 
vn 0.012939 0.996338 0.083740 
vn 0.013916 0.996582 0.081055 
vn 0.006592 0.996338 0.083252 
vn 0.013916 0.996582 0.081055 
vn 0.012939 0.996338 0.083740 
vn -0.999268 0.005859 0.036133 
vn -0.999756 0.001221 0.021484 
vn -0.999512 0.002441 0.028076 
vn -0.999756 0.000000 0.020508 
vn -0.999512 0.002441 0.028076 
vn -0.999756 0.001221 0.021484 
vn -0.998779 0.009766 0.044434 
vn -0.999268 0.005859 0.036133 
vn -0.999023 0.007324 0.042725 
vn -0.999512 0.002441 0.028076 
vn -0.999023 0.007324 0.042725 
vn -0.999268 0.005859 0.036133 
vn -0.729004 0.683350 0.038574 
vn -0.726807 0.685791 0.033447 
vn -0.726318 0.686523 0.029053 
vn -0.724854 0.687988 0.027832 
vn -0.726318 0.686523 0.029053 
vn -0.726807 0.685791 0.033447 
vn -0.731201 0.680664 0.043457 
vn -0.729736 0.682129 0.042480 
vn -0.729004 0.683350 0.038574 
vn -0.726807 0.685791 0.033447 
vn -0.729004 0.683350 0.038574 
vn -0.729736 0.682129 0.042480 
vn 0.652832 0.732666 0.191895 
vn 0.668701 0.725342 0.162109 
vn 0.675049 0.724365 0.138916 
vn 0.682129 0.718750 0.132568 
vn 0.675049 0.724365 0.138916 
vn 0.668701 0.725342 0.162109 
vn 0.634521 0.740234 0.221680 
vn 0.644775 0.733398 0.214844 
vn 0.652832 0.732666 0.191895 
vn 0.668701 0.725342 0.162109 
vn 0.652832 0.732666 0.191895 
vn 0.644775 0.733398 0.214844 
vn -0.751953 0.658203 -0.035400 
vn -0.750000 0.659424 -0.047363 
vn -0.750244 0.659668 -0.041016 
vn -0.748047 0.661865 -0.045654 
vn -0.750244 0.659668 -0.041016 
vn -0.750000 0.659424 -0.047363 
vn -0.752686 0.657227 -0.029297 
vn -0.751953 0.658203 -0.035400 
vn -0.751709 0.658447 -0.028564 
vn -0.750244 0.659668 -0.041016 
vn -0.751709 0.658447 -0.028564 
vn -0.751953 0.658203 -0.035400 
vn -0.671143 -0.704102 0.230957 
vn -0.657959 -0.723877 0.206543 
vn -0.660400 -0.719238 0.215332 
vn -0.649414 -0.733887 0.198242 
vn -0.660400 -0.719238 0.215332 
vn -0.657959 -0.723877 0.206543 
vn -0.681885 -0.688721 0.245605 
vn -0.671143 -0.704102 0.230957 
vn -0.673584 -0.698975 0.239014 
vn -0.660400 -0.719238 0.215332 
vn -0.673584 -0.698975 0.239014 
vn -0.671143 -0.704102 0.230957 
vt 0.000000 0.412698 
vt 0.000000 -0.015873 
vt 1.000000 0.412698 
vt 1.000000 -0.015873 
vt 1.000000 0.412698 
vt 0.000000 -0.015873 
vt 0.000000 1.000000 
vt 0.000000 0.412698 
vt 1.000000 1.000000 
vt 1.000000 0.412698 
vt 1.000000 1.000000 
vt 0.000000 0.412698 
vt 0.000000 0.412698 
vt 0.000000 -0.015873 
vt 1.000000 0.412698 
vt 1.000000 -0.015873 
vt 1.000000 0.412698 
vt 0.000000 -0.015873 
vt 0.000000 1.000000 
vt 0.000000 0.412698 
vt 1.000000 1.000000 
vt 1.000000 0.412698 
vt 1.000000 1.000000 
vt 0.000000 0.412698 
vt 0.000000 0.412698 
vt 1.000000 0.412698 
vt 0.000000 -0.015873 
vt 1.000000 -0.015873 
vt 0.000000 -0.015873 
vt 1.000000 0.412698 
vt 0.000000 1.000000 
vt 1.000000 1.000000 
vt 0.000000 0.412698 
vt 1.000000 0.412698 
vt 0.000000 0.412698 
vt 1.000000 1.000000 
vt 0.000000 0.412698 
vt 1.000000 0.412698 
vt 0.000000 -0.015873 
vt 1.000000 -0.015873 
vt 0.000000 -0.015873 
vt 1.000000 0.412698 
vt 0.000000 1.000000 
vt 1.000000 1.000000 
vt 0.000000 0.412698 
vt 1.000000 0.412698 
vt 0.000000 0.412698 
vt 1.000000 1.000000 
vt 0.000000 0.412698 
vt 0.000000 -0.015873 
vt 1.000000 0.412698 
vt 1.000000 -0.015873 
vt 1.000000 0.412698 
vt 0.000000 -0.015873 
vt 0.000000 1.000000 
vt 0.000000 0.412698 
vt 1.000000 1.000000 
vt 1.000000 0.412698 
vt 1.000000 1.000000 
vt 0.000000 0.412698 
vt 0.000000 0.412698 
vt 0.000000 -0.015873 
vt 1.000000 0.412698 
vt 1.000000 -0.015873 
vt 1.000000 0.412698 
vt 0.000000 -0.015873 
vt 0.000000 1.000000 
vt 0.000000 0.412698 
vt 1.000000 1.000000 
vt 1.000000 0.412698 
vt 1.000000 1.000000 
vt 0.000000 0.412698 
f 1/1/1 2/2/2 3/3/3
f 4/4/4 5/5/5 6/6/6
f 7/7/7 8/8/8 9/9/9
f 10/10/10 11/11/11 12/12/12
f 13/13/13 14/14/14 15/15/15
f 16/16/16 17/17/17 18/18/18
f 19/19/19 20/20/20 21/21/21
f 22/22/22 23/23/23 24/24/24
f 25/25/25 26/26/26 27/27/27
f 28/28/28 29/29/29 30/30/30
f 31/31/31 32/32/32 33/33/33
f 34/34/34 35/35/35 36/36/36
f 37/37/37 38/38/38 39/39/39
f 40/40/40 41/41/41 42/42/42
f 43/43/43 44/44/44 45/45/45
f 46/46/46 47/47/47 48/48/48
f 49/49/49 50/50/50 51/51/51
f 52/52/52 53/53/53 54/54/54
f 55/55/55 56/56/56 57/57/57
f 58/58/58 59/59/59 60/60/60
f 61/61/61 62/62/62 63/63/63
f 64/64/64 65/65/65 66/66/66
f 67/67/67 68/68/68 69/69/69
f 70/70/70 71/71/71 72/72/72
