v -393.000000 11.000000 399.000000 
v -393.000000 11.000000 -249.000000 
v -830.000000 11.000000 -250.000000 
v -830.000000 11.000000 -250.000000 
v -830.000000 11.000000 398.000000 
v -393.000000 11.000000 399.000000 
v 474.000000 11.000000 399.000000 
v 471.000000 11.000000 -249.000000 
v -393.000000 11.000000 -249.000000 
v -393.000000 11.000000 -249.000000 
v -393.000000 11.000000 399.000000 
v 474.000000 11.000000 399.000000 
v 1260.000000 11.000000 399.000000 
v 1260.000000 11.000000 -249.000000 
v 471.000000 11.000000 -249.000000 
v 471.000000 11.000000 -249.000000 
v 474.000000 11.000000 399.000000 
v 1260.000000 11.000000 399.000000 
vn 0.000000 1.000000 0.000000 
vn 0.000000 1.000000 0.000000 
vn 0.000000 1.000000 0.000000 
vn 0.000000 1.000000 0.000000 
vn -0.000244 0.999756 0.000000 
vn 0.000000 1.000000 0.000000 
vn 0.000000 1.000000 0.000000 
vn 0.000000 1.000000 0.000000 
vn 0.000000 1.000000 0.000000 
vn 0.000000 1.000000 0.000000 
vn 0.000000 1.000000 0.000000 
vn 0.000000 1.000000 0.000000 
vn 0.000000 1.000000 0.000000 
vn 0.000000 1.000000 0.000000 
vn 0.000000 1.000000 0.000000 
vn 0.000000 1.000000 0.000000 
vn 0.000000 1.000000 0.000000 
vn 0.000000 1.000000 0.000000 
vt 0.388235 0.984314 
vt 0.384314 0.000000 
vt 0.984314 0.007843 
vt 0.984314 0.007843 
vt 0.988235 0.976471 
vt 0.388235 0.984314 
vt 0.964706 0.976471 
vt 0.964706 0.007843 
vt 0.384314 0.007843 
vt 0.384314 0.007843 
vt 0.388235 0.988235 
vt 0.964706 0.976471 
vt 0.000000 0.992157 
vt 0.003922 0.007843 
vt 0.964706 0.011765 
vt 0.964706 0.011765 
vt 0.964706 0.976471 
vt 0.000000 0.992157 
f 1/1/1 2/2/2 3/3/3
f 4/4/4 5/5/5 6/6/6
f 7/7/7 8/8/8 9/9/9
f 10/10/10 11/11/11 12/12/12
f 13/13/13 14/14/14 15/15/15
f 16/16/16 17/17/17 18/18/18
