v -9.000000 -14.000000 0.000000 
v -9.000000 -8.000000 6.000000 
v -15.000000 -8.000000 0.000000 
v -9.000000 -14.000000 0.000000 
v -4.000000 -8.000000 0.000000 
v -9.000000 -8.000000 6.000000 
v -9.000000 -14.000000 0.000000 
v -9.000000 -8.000000 -6.000000 
v -4.000000 -8.000000 0.000000 
v -9.000000 -14.000000 0.000000 
v -15.000000 -8.000000 0.000000 
v -9.000000 -8.000000 -6.000000 
v -15.000000 -8.000000 0.000000 
v -12.000000 -2.000000 5.000000 
v -15.000000 -7.000000 0.000000 
v -15.000000 -8.000000 0.000000 
v -9.000000 -8.000000 6.000000 
v -12.000000 -2.000000 5.000000 
v -9.000000 -8.000000 6.000000 
v -9.000000 1.000000 0.000000 
v -12.000000 -2.000000 5.000000 
v -9.000000 -8.000000 6.000000 
v -4.000000 -8.000000 0.000000 
v -9.000000 1.000000 0.000000 
v -4.000000 -8.000000 0.000000 
v -12.000000 -2.000000 -5.000000 
v -9.000000 1.000000 0.000000 
v -4.000000 -8.000000 0.000000 
v -9.000000 -8.000000 -6.000000 
v -12.000000 -2.000000 -5.000000 
v -9.000000 -8.000000 -6.000000 
v -15.000000 -7.000000 0.000000 
v -12.000000 -2.000000 -5.000000 
v -9.000000 -8.000000 -6.000000 
v -15.000000 -8.000000 0.000000 
v -15.000000 -7.000000 0.000000 
v -15.000000 -7.000000 0.000000 
v -17.000000 0.000000 6.000000 
v -17.000000 -6.000000 0.000000 
v -15.000000 -7.000000 0.000000 
v -12.000000 -2.000000 5.000000 
v -17.000000 0.000000 6.000000 
v -12.000000 -2.000000 5.000000 
v -17.000000 6.000000 0.000000 
v -17.000000 0.000000 6.000000 
v -12.000000 -2.000000 5.000000 
v -9.000000 1.000000 0.000000 
v -17.000000 6.000000 0.000000 
v -9.000000 1.000000 0.000000 
v -17.000000 0.000000 -6.000000 
v -17.000000 6.000000 0.000000 
v -9.000000 1.000000 0.000000 
v -12.000000 -2.000000 -5.000000 
v -17.000000 0.000000 -6.000000 
v -12.000000 -2.000000 -5.000000 
v -17.000000 -6.000000 0.000000 
v -17.000000 0.000000 -6.000000 
v -12.000000 -2.000000 -5.000000 
v -15.000000 -7.000000 0.000000 
v -17.000000 -6.000000 0.000000 
v -17.000000 -6.000000 0.000000 
v -66.000000 0.000000 15.000000 
v -67.000000 -12.000000 0.000000 
v -17.000000 -6.000000 0.000000 
v -17.000000 0.000000 6.000000 
v -66.000000 0.000000 15.000000 
v -17.000000 6.000000 0.000000 
v -66.000000 13.000000 0.000000 
v -66.000000 0.000000 15.000000 
v -17.000000 0.000000 6.000000 
v -17.000000 6.000000 0.000000 
v -66.000000 0.000000 15.000000 
v -17.000000 6.000000 0.000000 
v -66.000000 0.000000 -15.000000 
v -66.000000 13.000000 0.000000 
v -17.000000 6.000000 0.000000 
v -17.000000 0.000000 -6.000000 
v -66.000000 0.000000 -15.000000 
v -17.000000 0.000000 -6.000000 
v -67.000000 -12.000000 0.000000 
v -66.000000 0.000000 -15.000000 
v -17.000000 0.000000 -6.000000 
v -17.000000 -6.000000 0.000000 
v -67.000000 -12.000000 0.000000 
v -78.000000 0.000000 0.000000 
v -67.000000 -12.000000 0.000000 
v -66.000000 0.000000 15.000000 
v -78.000000 0.000000 0.000000 
v -66.000000 0.000000 15.000000 
v -66.000000 13.000000 0.000000 
v -78.000000 0.000000 0.000000 
v -66.000000 13.000000 0.000000 
v -66.000000 0.000000 -15.000000 
v -78.000000 0.000000 0.000000 
v -66.000000 0.000000 -15.000000 
v -67.000000 -12.000000 0.000000 
vn 0.042480 -0.999023 0.000000 
vn 0.030273 -0.710449 0.702881 
vn -0.671875 -0.740479 0.000000 
vn 0.042480 -0.999023 0.000000 
vn 0.732666 -0.680420 0.000000 
vn 0.030273 -0.710449 0.702881 
vn 0.042480 -0.999023 0.000000 
vn 0.030273 -0.710449 -0.702881 
vn 0.732666 -0.680420 0.000000 
vn 0.042480 -0.999023 0.000000 
vn -0.671875 -0.740479 0.000000 
vn 0.030273 -0.710449 -0.702881 
vn -0.867432 -0.408936 0.282959 
vn -0.045166 0.080078 0.995605 
vn -0.727539 -0.685791 -0.010498 
vn -0.867432 -0.408936 0.282959 
vn 0.276123 0.206787 0.938477 
vn -0.045166 0.080078 0.995605 
vn 0.276123 0.206787 0.938477 
vn 0.718018 0.695801 0.001953 
vn -0.045166 0.080078 0.995605 
vn 0.276123 0.206787 0.938477 
vn 0.818115 0.498047 -0.287109 
vn 0.718018 0.695801 0.001953 
vn 0.818115 0.498047 -0.287109 
vn 0.095215 -0.068359 -0.992920 
vn 0.718018 0.695801 0.001953 
vn 0.818115 0.498047 -0.287109 
vn -0.325439 -0.106689 -0.939209 
vn 0.095215 -0.068359 -0.992920 
vn -0.325439 -0.106689 -0.939209 
vn -0.727539 -0.685791 -0.010498 
vn 0.095215 -0.068359 -0.992920 
vn -0.325439 -0.106689 -0.939209 
vn -0.867432 -0.408936 0.282959 
vn -0.727539 -0.685791 -0.010498 
vn -0.727539 -0.685791 -0.010498 
vn 0.000244 -0.200439 0.979492 
vn -0.193115 -0.980957 -0.019531 
vn -0.727539 -0.685791 -0.010498 
vn -0.045166 0.080078 0.995605 
vn 0.000244 -0.200439 0.979492 
vn -0.045166 0.080078 0.995605 
vn 0.312256 0.940430 0.132324 
vn 0.000244 -0.200439 0.979492 
vn -0.045166 0.080078 0.995605 
vn 0.718018 0.695801 0.001953 
vn 0.312256 0.940430 0.132324 
vn 0.718018 0.695801 0.001953 
vn 0.189941 -0.054688 -0.980225 
vn 0.312256 0.940430 0.132324 
vn 0.718018 0.695801 0.001953 
vn 0.095215 -0.068359 -0.992920 
vn 0.189941 -0.054688 -0.980225 
vn 0.095215 -0.068359 -0.992920 
vn -0.193115 -0.980957 -0.019531 
vn 0.189941 -0.054688 -0.980225 
vn 0.095215 -0.068359 -0.992920 
vn -0.727539 -0.685791 -0.010498 
vn -0.193115 -0.980957 -0.019531 
vn -0.193115 -0.980957 -0.019531 
vn -0.208252 0.001709 0.978027 
vn -0.260742 -0.945557 -0.193604 
vn -0.193115 -0.980957 -0.019531 
vn 0.000244 -0.200439 0.979492 
vn -0.208252 0.001709 0.978027 
vn 0.312256 0.940430 0.132324 
vn -0.335205 0.941895 0.000000 
vn -0.208252 0.001709 0.978027 
vn 0.000244 -0.200439 0.979492 
vn 0.312256 0.940430 0.132324 
vn -0.208252 0.001709 0.978027 
vn 0.312256 0.940430 0.132324 
vn -0.270508 0.217773 -0.937500 
vn -0.335205 0.941895 0.000000 
vn 0.312256 0.940430 0.132324 
vn 0.189941 -0.054688 -0.980225 
vn -0.270508 0.217773 -0.937500 
vn 0.189941 -0.054688 -0.980225 
vn -0.260742 -0.945557 -0.193604 
vn -0.270508 0.217773 -0.937500 
vn 0.189941 -0.054688 -0.980225 
vn -0.193115 -0.980957 -0.019531 
vn -0.260742 -0.945557 -0.193604 
vn -0.999756 0.009277 0.000000 
vn -0.260742 -0.945557 -0.193604 
vn -0.208252 0.001709 0.978027 
vn -0.999756 0.009277 0.000000 
vn -0.208252 0.001709 0.978027 
vn -0.335205 0.941895 0.000000 
vn -0.999756 0.009277 0.000000 
vn -0.335205 0.941895 0.000000 
vn -0.270508 0.217773 -0.937500 
vn -0.999756 0.009277 0.000000 
vn -0.270508 0.217773 -0.937500 
vn -0.260742 -0.945557 -0.193604 
vt 0.746032 0.587302 
vt 0.888889 0.857143 
vt 0.746032 0.857143 
vt 0.746032 0.587302 
vt 0.888889 0.857143 
vt 0.746032 0.857143 
vt 0.746032 0.587302 
vt 0.888889 0.857143 
vt 0.746032 0.857143 
vt 0.746032 0.587302 
vt 0.888889 0.857143 
vt 0.746032 0.857143 
vt 0.746032 0.587302 
vt 0.888889 0.857143 
vt 0.746032 0.857143 
vt 0.746032 0.587302 
vt 0.888889 0.587302 
vt 0.888889 0.857143 
vt 0.746032 0.587302 
vt 0.888889 0.857143 
vt 0.746032 0.857143 
vt 0.746032 0.587302 
vt 0.888889 0.587302 
vt 0.888889 0.857143 
vt 0.746032 0.587302 
vt 0.888889 0.857143 
vt 0.746032 0.857143 
vt 0.746032 0.587302 
vt 0.888889 0.587302 
vt 0.888889 0.857143 
vt 0.746032 0.587302 
vt 0.888889 0.857143 
vt 0.746032 0.857143 
vt 0.746032 0.587302 
vt 0.888889 0.587302 
vt 0.888889 0.857143 
vt 0.746032 0.587302 
vt 0.888889 0.857143 
vt 0.746032 0.857143 
vt 0.746032 0.587302 
vt 0.888889 0.587302 
vt 0.888889 0.857143 
vt 0.746032 0.587302 
vt 0.888889 0.857143 
vt 0.746032 0.857143 
vt 0.746032 0.587302 
vt 0.888889 0.587302 
vt 0.888889 0.857143 
vt 0.746032 0.587302 
vt 0.888889 0.857143 
vt 0.746032 0.857143 
vt 0.746032 0.587302 
vt 0.888889 0.587302 
vt 0.888889 0.857143 
vt 0.746032 0.587302 
vt 0.888889 0.857143 
vt 0.746032 0.857143 
vt 0.746032 0.587302 
vt 0.888889 0.587302 
vt 0.888889 0.857143 
vt 0.746032 0.587302 
vt 0.888889 0.857143 
vt 0.746032 0.857143 
vt 0.746032 0.587302 
vt 0.888889 0.587302 
vt 0.888889 0.857143 
vt 0.888889 0.587302 
vt 0.888889 0.857143 
vt 0.746032 0.857143 
vt 0.746032 0.587302 
vt 0.888889 0.587302 
vt 0.746032 0.857143 
vt 0.746032 0.587302 
vt 0.888889 0.857143 
vt 0.746032 0.857143 
vt 0.746032 0.587302 
vt 0.888889 0.587302 
vt 0.888889 0.857143 
vt 0.746032 0.587302 
vt 0.888889 0.857143 
vt 0.746032 0.857143 
vt 0.746032 0.587302 
vt 0.888889 0.587302 
vt 0.888889 0.857143 
vt 0.888889 0.857143 
vt 0.746032 0.587302 
vt 0.888889 0.587302 
vt 0.888889 0.857143 
vt 0.746032 0.587302 
vt 0.888889 0.587302 
vt 0.888889 0.857143 
vt 0.746032 0.587302 
vt 0.888889 0.587302 
vt 0.888889 0.857143 
vt 0.746032 0.587302 
vt 0.888889 0.587302 
f 1/1/1 2/2/2 3/3/3
f 4/4/4 5/5/5 6/6/6
f 7/7/7 8/8/8 9/9/9
f 10/10/10 11/11/11 12/12/12
f 13/13/13 14/14/14 15/15/15
f 16/16/16 17/17/17 18/18/18
f 19/19/19 20/20/20 21/21/21
f 22/22/22 23/23/23 24/24/24
f 25/25/25 26/26/26 27/27/27
f 28/28/28 29/29/29 30/30/30
f 31/31/31 32/32/32 33/33/33
f 34/34/34 35/35/35 36/36/36
f 37/37/37 38/38/38 39/39/39
f 40/40/40 41/41/41 42/42/42
f 43/43/43 44/44/44 45/45/45
f 46/46/46 47/47/47 48/48/48
f 49/49/49 50/50/50 51/51/51
f 52/52/52 53/53/53 54/54/54
f 55/55/55 56/56/56 57/57/57
f 58/58/58 59/59/59 60/60/60
f 61/61/61 62/62/62 63/63/63
f 64/64/64 65/65/65 66/66/66
f 67/67/67 68/68/68 69/69/69
f 70/70/70 71/71/71 72/72/72
f 73/73/73 74/74/74 75/75/75
f 76/76/76 77/77/77 78/78/78
f 79/79/79 80/80/80 81/81/81
f 82/82/82 83/83/83 84/84/84
f 85/85/85 86/86/86 87/87/87
f 88/88/88 89/89/89 90/90/90
f 91/91/91 92/92/92 93/93/93
f 94/94/94 95/95/95 96/96/96
