v -19.000000 -19.000000 11.000000 
v 0.000000 -19.000000 16.000000 
v 0.000000 -7.000000 18.000000 
v -20.000000 -7.000000 12.000000 
v -19.000000 -19.000000 11.000000 
v 0.000000 -7.000000 18.000000 
v -33.000000 -19.000000 0.000000 
v -19.000000 -19.000000 11.000000 
v -20.000000 -7.000000 12.000000 
v -35.000000 -7.000000 1.000000 
v -33.000000 -19.000000 0.000000 
v -20.000000 -7.000000 12.000000 
v -38.000000 -19.000000 -17.000000 
v -33.000000 -19.000000 0.000000 
v -35.000000 -7.000000 1.000000 
v -40.000000 -7.000000 -18.000000 
v -38.000000 -19.000000 -17.000000 
v -35.000000 -7.000000 1.000000 
v -33.000000 -19.000000 -40.000000 
v -38.000000 -19.000000 -17.000000 
v -40.000000 -7.000000 -18.000000 
v -35.000000 -7.000000 -44.000000 
v -33.000000 -19.000000 -40.000000 
v -40.000000 -7.000000 -18.000000 
v -28.000000 -19.000000 -45.000000 
v -33.000000 -19.000000 -40.000000 
v -35.000000 -7.000000 -44.000000 
v -20.000000 -7.000000 -61.000000 
v -19.000000 -19.000000 -57.000000 
v -35.000000 -7.000000 -44.000000 
v 0.000000 -19.000000 -62.000000 
v -19.000000 -19.000000 -57.000000 
v -20.000000 -7.000000 -61.000000 
v 0.000000 -7.000000 -66.000000 
v 0.000000 -19.000000 -62.000000 
v -20.000000 -7.000000 -61.000000 
v 20.000000 -7.000000 -61.000000 
v 18.000000 -19.000000 -57.000000 
v 0.000000 -7.000000 -66.000000 
v 35.000000 -7.000000 -44.000000 
v 32.000000 -19.000000 -40.000000 
v 20.000000 -7.000000 -61.000000 
v 38.000000 -19.000000 -17.000000 
v 33.000000 -19.000000 -38.000000 
v 35.000000 -7.000000 -44.000000 
v 40.000000 -7.000000 -18.000000 
v 38.000000 -19.000000 -17.000000 
v 35.000000 -7.000000 -44.000000 
v 33.000000 -19.000000 0.000000 
v 38.000000 -19.000000 -17.000000 
v 40.000000 -7.000000 -18.000000 
v 35.000000 -7.000000 1.000000 
v 33.000000 -19.000000 0.000000 
v 40.000000 -7.000000 -18.000000 
v 18.000000 -19.000000 11.000000 
v 33.000000 -19.000000 0.000000 
v 35.000000 -7.000000 1.000000 
v 20.000000 -7.000000 12.000000 
v 18.000000 -19.000000 11.000000 
v 35.000000 -7.000000 1.000000 
v 0.000000 -19.000000 16.000000 
v 18.000000 -19.000000 11.000000 
v 20.000000 -7.000000 12.000000 
v 0.000000 -7.000000 18.000000 
v 0.000000 -19.000000 16.000000 
v 20.000000 -7.000000 12.000000 
v 0.000000 -33.000000 -38.000000 
v -9.000000 -33.000000 -36.000000 
v -19.000000 -19.000000 -57.000000 
v -19.000000 -19.000000 -57.000000 
v -28.000000 -19.000000 -45.000000 
v -35.000000 -7.000000 -44.000000 
v 0.000000 -19.000000 -62.000000 
v 0.000000 -33.000000 -38.000000 
v -19.000000 -19.000000 -57.000000 
v 9.000000 -33.000000 -36.000000 
v 0.000000 -33.000000 -38.000000 
v 0.000000 -19.000000 -62.000000 
v 18.000000 -19.000000 -57.000000 
v 9.000000 -33.000000 -36.000000 
v 0.000000 -19.000000 -62.000000 
v 16.000000 -33.000000 -28.000000 
v 9.000000 -33.000000 -36.000000 
v 18.000000 -19.000000 -57.000000 
v 32.000000 -19.000000 -40.000000 
v 16.000000 -33.000000 -28.000000 
v 18.000000 -19.000000 -57.000000 
v 19.000000 -33.000000 -18.000000 
v 16.000000 -33.000000 -28.000000 
v 32.000000 -19.000000 -40.000000 
v 38.000000 -19.000000 -17.000000 
v 19.000000 -33.000000 -18.000000 
v 33.000000 -19.000000 -38.000000 
v 16.000000 -33.000000 -8.000000 
v 19.000000 -33.000000 -18.000000 
v 38.000000 -19.000000 -17.000000 
v 33.000000 -19.000000 0.000000 
v 16.000000 -33.000000 -8.000000 
v 38.000000 -19.000000 -17.000000 
v 9.000000 -33.000000 0.000000 
v 16.000000 -33.000000 -8.000000 
v 33.000000 -19.000000 0.000000 
v 18.000000 -19.000000 11.000000 
v 9.000000 -33.000000 0.000000 
v 33.000000 -19.000000 0.000000 
v 0.000000 -33.000000 1.000000 
v 9.000000 -33.000000 0.000000 
v 18.000000 -19.000000 11.000000 
v 0.000000 -19.000000 16.000000 
v 0.000000 -33.000000 1.000000 
v 18.000000 -19.000000 11.000000 
v -9.000000 -33.000000 0.000000 
v 0.000000 -33.000000 1.000000 
v 0.000000 -19.000000 16.000000 
v -19.000000 -19.000000 11.000000 
v -9.000000 -33.000000 0.000000 
v 0.000000 -19.000000 16.000000 
v -16.000000 -33.000000 -8.000000 
v -9.000000 -33.000000 0.000000 
v -19.000000 -19.000000 11.000000 
v 33.000000 -19.000000 -38.000000 
v 32.000000 -19.000000 -40.000000 
v 35.000000 -7.000000 -44.000000 
v 33.000000 -19.000000 -38.000000 
v 19.000000 -33.000000 -18.000000 
v 32.000000 -19.000000 -40.000000 
v 32.000000 -19.000000 -40.000000 
v 18.000000 -19.000000 -57.000000 
v 20.000000 -7.000000 -61.000000 
v 18.000000 -19.000000 -57.000000 
v 0.000000 -19.000000 -62.000000 
v 0.000000 -7.000000 -66.000000 
v -33.000000 -19.000000 0.000000 
v -16.000000 -33.000000 -8.000000 
v -19.000000 -19.000000 11.000000 
v -19.000000 -33.000000 -18.000000 
v -16.000000 -33.000000 -8.000000 
v -33.000000 -19.000000 0.000000 
v -38.000000 -19.000000 -17.000000 
v -19.000000 -33.000000 -18.000000 
v -33.000000 -19.000000 0.000000 
v -16.000000 -33.000000 -28.000000 
v -19.000000 -33.000000 -18.000000 
v -38.000000 -19.000000 -17.000000 
v -33.000000 -19.000000 -40.000000 
v -16.000000 -33.000000 -28.000000 
v -38.000000 -19.000000 -17.000000 
v -9.000000 -33.000000 -36.000000 
v -16.000000 -33.000000 -28.000000 
v -33.000000 -19.000000 -40.000000 
v -28.000000 -19.000000 -45.000000 
v -9.000000 -33.000000 -36.000000 
v -33.000000 -19.000000 -40.000000 
v -19.000000 -19.000000 -57.000000 
v -9.000000 -33.000000 -36.000000 
v -28.000000 -19.000000 -45.000000 
v 20.000000 -7.000000 12.000000 
v 20.000000 -7.000000 -61.000000 
v 0.000000 -7.000000 -66.000000 
v 0.000000 -7.000000 18.000000 
v 20.000000 -7.000000 12.000000 
v 0.000000 -7.000000 -66.000000 
v 35.000000 -7.000000 1.000000 
v 35.000000 -7.000000 -44.000000 
v 20.000000 -7.000000 -61.000000 
v 20.000000 -7.000000 12.000000 
v 35.000000 -7.000000 1.000000 
v 20.000000 -7.000000 -61.000000 
v 35.000000 -7.000000 1.000000 
v 40.000000 -7.000000 -18.000000 
v 35.000000 -7.000000 -44.000000 
v 0.000000 -7.000000 18.000000 
v 0.000000 -7.000000 -66.000000 
v -20.000000 -7.000000 -61.000000 
v -20.000000 -7.000000 12.000000 
v 0.000000 -7.000000 18.000000 
v -20.000000 -7.000000 -61.000000 
v -20.000000 -7.000000 12.000000 
v -20.000000 -7.000000 -61.000000 
v -35.000000 -7.000000 -44.000000 
v -35.000000 -7.000000 1.000000 
v -20.000000 -7.000000 12.000000 
v -35.000000 -7.000000 -44.000000 
v -40.000000 -7.000000 -18.000000 
v -35.000000 -7.000000 1.000000 
v -35.000000 -7.000000 -44.000000 
vn -0.349121 -0.556641 0.753418 
vn 0.019043 -0.542236 0.839844 
vn -0.087646 -0.166016 0.982178 
vn -0.468506 -0.164062 0.867920 
vn -0.349121 -0.556641 0.753418 
vn -0.087646 -0.166016 0.982178 
vn -0.621338 -0.611328 0.489502 
vn -0.349121 -0.556641 0.753418 
vn -0.468506 -0.164062 0.867920 
vn -0.855713 -0.205566 0.474609 
vn -0.621338 -0.611328 0.489502 
vn -0.468506 -0.164062 0.867920 
vn -0.774658 -0.630371 0.043457 
vn -0.621338 -0.611328 0.489502 
vn -0.855713 -0.205566 0.474609 
vn -0.961182 -0.270508 -0.052246 
vn -0.774658 -0.630371 0.043457 
vn -0.855713 -0.205566 0.474609 
vn -0.656250 -0.678711 -0.328613 
vn -0.774658 -0.630371 0.043457 
vn -0.961182 -0.270508 -0.052246 
vn -0.751221 -0.409912 -0.516846 
vn -0.656250 -0.678711 -0.328613 
vn -0.961182 -0.270508 -0.052246 
vn -0.518799 -0.715332 -0.468018 
vn -0.656250 -0.678711 -0.328613 
vn -0.751221 -0.409912 -0.516846 
vn -0.376465 -0.432861 -0.818848 
vn -0.381836 -0.732910 -0.562744 
vn -0.751221 -0.409912 -0.516846 
vn -0.016846 -0.726807 -0.686523 
vn -0.381836 -0.732910 -0.562744 
vn -0.376465 -0.432861 -0.818848 
vn 0.071289 -0.443604 -0.893311 
vn -0.016846 -0.726807 -0.686523 
vn -0.376465 -0.432861 -0.818848 
vn 0.531738 -0.453857 -0.714844 
vn 0.330078 -0.726074 -0.602783 
vn 0.071289 -0.443604 -0.893311 
vn 0.871826 -0.373291 -0.316406 
vn 0.626953 -0.696777 -0.347900 
vn 0.531738 -0.453857 -0.714844 
vn 0.756104 -0.654053 0.000488 
vn 0.732666 -0.657959 -0.172852 
vn 0.871826 -0.373291 -0.316406 
vn 0.950928 -0.285400 0.117920 
vn 0.756104 -0.654053 0.000488 
vn 0.871826 -0.373291 -0.316406 
vn 0.659424 -0.623535 0.419434 
vn 0.756104 -0.654053 0.000488 
vn 0.950928 -0.285400 0.117920 
vn 0.721191 -0.245361 0.647461 
vn 0.659424 -0.623535 0.419434 
vn 0.950928 -0.285400 0.117920 
vn 0.366943 -0.556152 0.745605 
vn 0.659424 -0.623535 0.419434 
vn 0.721191 -0.245361 0.647461 
vn 0.363037 -0.182129 0.913574 
vn 0.366943 -0.556152 0.745605 
vn 0.721191 -0.245361 0.647461 
vn 0.019043 -0.542236 0.839844 
vn 0.366943 -0.556152 0.745605 
vn 0.363037 -0.182129 0.913574 
vn -0.087646 -0.166016 0.982178 
vn 0.019043 -0.542236 0.839844 
vn 0.363037 -0.182129 0.913574 
vn -0.031006 -0.917969 -0.395020 
vn -0.265869 -0.908203 -0.322754 
vn -0.381836 -0.732910 -0.562744 
vn -0.381836 -0.732910 -0.562744 
vn -0.518799 -0.715332 -0.468018 
vn -0.751221 -0.409912 -0.516846 
vn -0.016846 -0.726807 -0.686523 
vn -0.031006 -0.917969 -0.395020 
vn -0.381836 -0.732910 -0.562744 
vn 0.166748 -0.916016 -0.364258 
vn -0.031006 -0.917969 -0.395020 
vn -0.016846 -0.726807 -0.686523 
vn 0.330078 -0.726074 -0.602783 
vn 0.166748 -0.916016 -0.364258 
vn -0.016846 -0.726807 -0.686523 
vn 0.359375 -0.902588 -0.236816 
vn 0.166748 -0.916016 -0.364258 
vn 0.330078 -0.726074 -0.602783 
vn 0.626953 -0.696777 -0.347900 
vn 0.359375 -0.902588 -0.236816 
vn 0.330078 -0.726074 -0.602783 
vn 0.453369 -0.889404 -0.053955 
vn 0.359375 -0.902588 -0.236816 
vn 0.626953 -0.696777 -0.347900 
vn 0.756104 -0.654053 0.000488 
vn 0.453369 -0.889404 -0.053955 
vn 0.732666 -0.657959 -0.172852 
vn 0.416504 -0.886719 0.200195 
vn 0.453369 -0.889404 -0.053955 
vn 0.756104 -0.654053 0.000488 
vn 0.659424 -0.623535 0.419434 
vn 0.416504 -0.886719 0.200195 
vn 0.756104 -0.654053 0.000488 
vn 0.274658 -0.847412 0.454102 
vn 0.416504 -0.886719 0.200195 
vn 0.659424 -0.623535 0.419434 
vn 0.366943 -0.556152 0.745605 
vn 0.274658 -0.847412 0.454102 
vn 0.659424 -0.623535 0.419434 
vn 0.051025 -0.820557 0.569092 
vn 0.274658 -0.847412 0.454102 
vn 0.366943 -0.556152 0.745605 
vn 0.019043 -0.542236 0.839844 
vn 0.051025 -0.820557 0.569092 
vn 0.366943 -0.556152 0.745605 
vn -0.229980 -0.830566 0.506836 
vn 0.051025 -0.820557 0.569092 
vn 0.019043 -0.542236 0.839844 
vn -0.349121 -0.556641 0.753418 
vn -0.229980 -0.830566 0.506836 
vn 0.019043 -0.542236 0.839844 
vn -0.375977 -0.873535 0.308350 
vn -0.229980 -0.830566 0.506836 
vn -0.349121 -0.556641 0.753418 
vn 0.732666 -0.657959 -0.172852 
vn 0.626953 -0.696777 -0.347900 
vn 0.871826 -0.373291 -0.316406 
vn 0.732666 -0.657959 -0.172852 
vn 0.453369 -0.889404 -0.053955 
vn 0.626953 -0.696777 -0.347900 
vn 0.626953 -0.696777 -0.347900 
vn 0.330078 -0.726074 -0.602783 
vn 0.531738 -0.453857 -0.714844 
vn 0.330078 -0.726074 -0.602783 
vn -0.016846 -0.726807 -0.686523 
vn 0.071289 -0.443604 -0.893311 
vn -0.621338 -0.611328 0.489502 
vn -0.375977 -0.873535 0.308350 
vn -0.349121 -0.556641 0.753418 
vn -0.448242 -0.892822 0.043213 
vn -0.375977 -0.873535 0.308350 
vn -0.621338 -0.611328 0.489502 
vn -0.774658 -0.630371 0.043457 
vn -0.448242 -0.892822 0.043213 
vn -0.621338 -0.611328 0.489502 
vn -0.403564 -0.896973 -0.179443 
vn -0.448242 -0.892822 0.043213 
vn -0.774658 -0.630371 0.043457 
vn -0.656250 -0.678711 -0.328613 
vn -0.403564 -0.896973 -0.179443 
vn -0.774658 -0.630371 0.043457 
vn -0.265869 -0.908203 -0.322754 
vn -0.403564 -0.896973 -0.179443 
vn -0.656250 -0.678711 -0.328613 
vn -0.518799 -0.715332 -0.468018 
vn -0.265869 -0.908203 -0.322754 
vn -0.656250 -0.678711 -0.328613 
vn -0.381836 -0.732910 -0.562744 
vn -0.265869 -0.908203 -0.322754 
vn -0.518799 -0.715332 -0.468018 
vn 0.000000 1.000000 0.000000 
vn 0.000000 1.000000 0.000000 
vn 0.000000 1.000000 0.000000 
vn 0.000000 1.000000 0.000000 
vn 0.000000 1.000000 0.000000 
vn 0.000000 1.000000 0.000000 
vn 0.000000 1.000000 0.000000 
vn 0.000000 1.000000 0.000000 
vn 0.000000 1.000000 0.000000 
vn 0.000000 1.000000 0.000000 
vn 0.000000 1.000000 0.000000 
vn 0.000000 1.000000 0.000000 
vn 0.000000 1.000000 0.000000 
vn 0.000000 1.000000 0.000000 
vn 0.000000 1.000000 0.000000 
vn 0.000000 1.000000 0.000000 
vn 0.000000 1.000000 0.000000 
vn 0.000000 1.000000 0.000000 
vn 0.000000 1.000000 0.000000 
vn 0.000000 1.000000 0.000000 
vn 0.000000 1.000000 0.000000 
vn 0.000000 1.000000 0.000000 
vn 0.000000 1.000000 0.000000 
vn 0.000000 1.000000 0.000000 
vn 0.000244 0.999756 0.000000 
vn 0.000000 1.000000 0.000000 
vn 0.000000 1.000000 0.000000 
vn 0.000732 0.999756 0.000000 
vn 0.000244 0.999756 0.000000 
vn 0.000000 1.000000 0.000000 
vt 0.206349 0.079365 
vt 0.142857 0.079365 
vt 0.142857 0.000000 
vt 0.206349 0.000000 
vt 0.206349 0.079365 
vt 0.142857 0.000000 
vt 0.253968 0.079365 
vt 0.206349 0.079365 
vt 0.206349 0.000000 
vt 0.269841 0.000000 
vt 0.253968 0.079365 
vt 0.206349 0.000000 
vt 0.317460 0.079365 
vt 0.253968 0.079365 
vt 0.269841 0.000000 
vt 0.333333 0.000000 
vt 0.317460 0.079365 
vt 0.269841 0.000000 
vt 0.396825 0.079365 
vt 0.317460 0.079365 
vt 0.333333 0.000000 
vt 0.412698 0.000000 
vt 0.396825 0.079365 
vt 0.333333 0.000000 
vt 0.428571 0.079365 
vt 0.396825 0.079365 
vt 0.412698 0.000000 
vt 0.476190 0.000000 
vt 0.460317 0.079365 
vt 0.412698 0.000000 
vt 0.523810 0.079365 
vt 0.460317 0.079365 
vt 0.476190 0.000000 
vt 0.523810 0.000000 
vt 0.523810 0.079365 
vt 0.476190 0.000000 
vt 0.587302 0.000000 
vt 0.587302 0.079365 
vt 0.523810 0.000000 
vt 0.650794 0.000000 
vt 0.650794 0.079365 
vt 0.587302 0.000000 
vt 0.730159 0.079365 
vt 0.650794 0.079365 
vt 0.650794 0.000000 
vt 0.730159 0.000000 
vt 0.730159 0.079365 
vt 0.650794 0.000000 
vt 0.777778 0.079365 
vt 0.730159 0.079365 
vt 0.730159 0.000000 
vt 0.793651 0.000000 
vt 0.777778 0.079365 
vt 0.730159 0.000000 
vt 0.841270 0.079365 
vt 0.777778 0.079365 
vt 0.793651 0.000000 
vt 0.841270 0.000000 
vt 0.841270 0.079365 
vt 0.793651 0.000000 
vt 0.142857 0.079365 
vt 0.095238 0.079365 
vt 0.095238 0.000000 
vt 0.142857 0.000000 
vt 0.142857 0.079365 
vt 0.095238 0.000000 
vt 0.587302 0.095238 
vt 0.555556 0.095238 
vt 0.555556 0.206349 
vt 0.460317 0.079365 
vt 0.428571 0.079365 
vt 0.412698 0.000000 
vt 0.587302 0.206349 
vt 0.587302 0.095238 
vt 0.555556 0.206349 
vt 0.634921 0.095238 
vt 0.587302 0.095238 
vt 0.587302 0.206349 
vt 0.619048 0.206349 
vt 0.634921 0.095238 
vt 0.587302 0.206349 
vt 0.666667 0.095238 
vt 0.634921 0.095238 
vt 0.619048 0.206349 
vt 0.666667 0.206349 
vt 0.666667 0.095238 
vt 0.619048 0.206349 
vt 0.714286 0.095238 
vt 0.666667 0.095238 
vt 0.666667 0.206349 
vt 0.698413 0.206349 
vt 0.714286 0.095238 
vt 0.666667 0.206349 
vt 0.746032 0.095238 
vt 0.714286 0.095238 
vt 0.698413 0.206349 
vt 0.730159 0.206349 
vt 0.746032 0.095238 
vt 0.698413 0.206349 
vt 0.761905 0.095238 
vt 0.746032 0.095238 
vt 0.730159 0.206349 
vt 0.761905 0.206349 
vt 0.761905 0.095238 
vt 0.730159 0.206349 
vt 0.793651 0.095238 
vt 0.761905 0.095238 
vt 0.761905 0.206349 
vt 0.396825 0.206349 
vt 0.396825 0.095238 
vt 0.365079 0.206349 
vt 0.412698 0.095238 
vt 0.396825 0.095238 
vt 0.396825 0.206349 
vt 0.412698 0.206349 
vt 0.412698 0.095238 
vt 0.396825 0.206349 
vt 0.444444 0.095238 
vt 0.412698 0.095238 
vt 0.412698 0.206349 
vt 0.650794 0.079365 
vt 0.650794 0.079365 
vt 0.650794 0.000000 
vt 0.666667 0.206349 
vt 0.714286 0.095238 
vt 0.666667 0.206349 
vt 0.650794 0.079365 
vt 0.587302 0.079365 
vt 0.587302 0.000000 
vt 0.587302 0.079365 
vt 0.523810 0.079365 
vt 0.523810 0.000000 
vt 0.444444 0.206349 
vt 0.444444 0.095238 
vt 0.412698 0.206349 
vt 0.476190 0.095238 
vt 0.444444 0.095238 
vt 0.444444 0.206349 
vt 0.492063 0.206349 
vt 0.476190 0.095238 
vt 0.444444 0.206349 
vt 0.523810 0.095238 
vt 0.476190 0.095238 
vt 0.492063 0.206349 
vt 0.523810 0.206349 
vt 0.523810 0.095238 
vt 0.492063 0.206349 
vt 0.555556 0.095238 
vt 0.523810 0.095238 
vt 0.523810 0.206349 
vt 0.539683 0.206349 
vt 0.555556 0.095238 
vt 0.523810 0.206349 
vt 0.555556 0.206349 
vt 0.555556 0.095238 
vt 0.539683 0.206349 
vt 0.984127 0.269841 
vt 0.984127 0.253968 
vt 0.984127 0.253968 
vt 0.984127 0.269841 
vt 0.984127 0.269841 
vt 0.984127 0.253968 
vt 1.000000 0.269841 
vt 1.000000 0.253968 
vt 0.984127 0.253968 
vt 0.984127 0.269841 
vt 1.000000 0.269841 
vt 0.984127 0.253968 
vt 1.000000 0.269841 
vt 1.000000 0.269841 
vt 1.000000 0.253968 
vt 0.984127 0.269841 
vt 0.984127 0.253968 
vt 0.984127 0.253968 
vt 0.984127 0.269841 
vt 0.984127 0.269841 
vt 0.984127 0.253968 
vt 0.984127 0.269841 
vt 0.984127 0.253968 
vt 0.968254 0.253968 
vt 0.968254 0.269841 
vt 0.984127 0.269841 
vt 0.968254 0.253968 
vt 0.968254 0.269841 
vt 0.968254 0.269841 
vt 0.968254 0.253968 
f 1/1/1 2/2/2 3/3/3
f 4/4/4 5/5/5 6/6/6
f 7/7/7 8/8/8 9/9/9
f 10/10/10 11/11/11 12/12/12
f 13/13/13 14/14/14 15/15/15
f 16/16/16 17/17/17 18/18/18
f 19/19/19 20/20/20 21/21/21
f 22/22/22 23/23/23 24/24/24
f 25/25/25 26/26/26 27/27/27
f 28/28/28 29/29/29 30/30/30
f 31/31/31 32/32/32 33/33/33
f 34/34/34 35/35/35 36/36/36
f 37/37/37 38/38/38 39/39/39
f 40/40/40 41/41/41 42/42/42
f 43/43/43 44/44/44 45/45/45
f 46/46/46 47/47/47 48/48/48
f 49/49/49 50/50/50 51/51/51
f 52/52/52 53/53/53 54/54/54
f 55/55/55 56/56/56 57/57/57
f 58/58/58 59/59/59 60/60/60
f 61/61/61 62/62/62 63/63/63
f 64/64/64 65/65/65 66/66/66
f 67/67/67 68/68/68 69/69/69
f 70/70/70 71/71/71 72/72/72
f 73/73/73 74/74/74 75/75/75
f 76/76/76 77/77/77 78/78/78
f 79/79/79 80/80/80 81/81/81
f 82/82/82 83/83/83 84/84/84
f 85/85/85 86/86/86 87/87/87
f 88/88/88 89/89/89 90/90/90
f 91/91/91 92/92/92 93/93/93
f 94/94/94 95/95/95 96/96/96
f 97/97/97 98/98/98 99/99/99
f 100/100/100 101/101/101 102/102/102
f 103/103/103 104/104/104 105/105/105
f 106/106/106 107/107/107 108/108/108
f 109/109/109 110/110/110 111/111/111
f 112/112/112 113/113/113 114/114/114
f 115/115/115 116/116/116 117/117/117
f 118/118/118 119/119/119 120/120/120
f 121/121/121 122/122/122 123/123/123
f 124/124/124 125/125/125 126/126/126
f 127/127/127 128/128/128 129/129/129
f 130/130/130 131/131/131 132/132/132
f 133/133/133 134/134/134 135/135/135
f 136/136/136 137/137/137 138/138/138
f 139/139/139 140/140/140 141/141/141
f 142/142/142 143/143/143 144/144/144
f 145/145/145 146/146/146 147/147/147
f 148/148/148 149/149/149 150/150/150
f 151/151/151 152/152/152 153/153/153
f 154/154/154 155/155/155 156/156/156
f 157/157/157 158/158/158 159/159/159
f 160/160/160 161/161/161 162/162/162
f 163/163/163 164/164/164 165/165/165
f 166/166/166 167/167/167 168/168/168
f 169/169/169 170/170/170 171/171/171
f 172/172/172 173/173/173 174/174/174
f 175/175/175 176/176/176 177/177/177
f 178/178/178 179/179/179 180/180/180
f 181/181/181 182/182/182 183/183/183
f 184/184/184 185/185/185 186/186/186
