v 0.000000 -16.000000 -4.000000 
v 0.000000 -7.000000 26.000000 
v -27.000000 0.000000 0.000000 
v 0.000000 -16.000000 -4.000000 
v 27.000000 0.000000 0.000000 
v 0.000000 -7.000000 26.000000 
v 0.000000 -16.000000 -4.000000 
v 0.000000 7.000000 -26.000000 
v 27.000000 0.000000 0.000000 
v 0.000000 -16.000000 -4.000000 
v -27.000000 0.000000 0.000000 
v 0.000000 7.000000 -26.000000 
v -27.000000 0.000000 0.000000 
v 0.000000 40.000000 38.000000 
v -27.000000 47.000000 12.000000 
v -27.000000 0.000000 0.000000 
v 0.000000 -7.000000 26.000000 
v 0.000000 40.000000 38.000000 
v 0.000000 -7.000000 26.000000 
v 27.000000 47.000000 12.000000 
v 0.000000 40.000000 38.000000 
v 0.000000 -7.000000 26.000000 
v 27.000000 0.000000 0.000000 
v 27.000000 47.000000 12.000000 
v 27.000000 0.000000 0.000000 
v 0.000000 54.000000 -13.000000 
v 27.000000 47.000000 12.000000 
v 27.000000 0.000000 0.000000 
v 0.000000 7.000000 -26.000000 
v 0.000000 54.000000 -13.000000 
v 0.000000 7.000000 -26.000000 
v -27.000000 47.000000 12.000000 
v 0.000000 54.000000 -13.000000 
v 0.000000 7.000000 -26.000000 
v -27.000000 0.000000 0.000000 
v -27.000000 47.000000 12.000000 
v 0.000000 47.000000 12.000000 
v -27.000000 47.000000 12.000000 
v 0.000000 40.000000 38.000000 
v 0.000000 47.000000 12.000000 
v 0.000000 40.000000 38.000000 
v 27.000000 47.000000 12.000000 
v 0.000000 47.000000 12.000000 
v 27.000000 47.000000 12.000000 
v 0.000000 54.000000 -13.000000 
v 0.000000 47.000000 12.000000 
v 0.000000 54.000000 -13.000000 
v -27.000000 47.000000 12.000000 
vn 0.000000 -0.965820 -0.258789 
vn 0.203125 -0.640869 0.739990 
vn -0.880615 -0.465576 0.085449 
vn 0.000000 -0.965820 -0.258789 
vn 0.880615 -0.360352 -0.306885 
vn 0.203125 -0.640869 0.739990 
vn 0.000000 -0.965820 -0.258789 
vn -0.203125 -0.185059 -0.961426 
vn 0.880615 -0.360352 -0.306885 
vn 0.000000 -0.965820 -0.258789 
vn -0.880615 -0.465576 0.085449 
vn -0.203125 -0.185059 -0.961426 
vn -0.880615 -0.465576 0.085449 
vn -0.235596 0.460938 0.855469 
vn -0.707031 0.704834 -0.054932 
vn -0.880615 -0.465576 0.085449 
vn 0.203125 -0.640869 0.739990 
vn -0.235596 0.460938 0.855469 
vn 0.203125 -0.640869 0.739990 
vn 0.707031 0.582764 0.400146 
vn -0.235596 0.460938 0.855469 
vn 0.203125 -0.640869 0.739990 
vn 0.880615 -0.360352 -0.306885 
vn 0.707031 0.582764 0.400146 
vn 0.880615 -0.360352 -0.306885 
vn 0.235596 0.826904 -0.510254 
vn 0.707031 0.582764 0.400146 
vn 0.880615 -0.360352 -0.306885 
vn -0.203125 -0.185059 -0.961426 
vn 0.235596 0.826904 -0.510254 
vn -0.203125 -0.185059 -0.961426 
vn -0.707031 0.704834 -0.054932 
vn 0.235596 0.826904 -0.510254 
vn -0.203125 -0.185059 -0.961426 
vn -0.880615 -0.465576 0.085449 
vn -0.707031 0.704834 -0.054932 
vn 0.000000 0.965820 0.258789 
vn -0.707031 0.704834 -0.054932 
vn -0.235596 0.460938 0.855469 
vn 0.000000 0.965820 0.258789 
vn -0.235596 0.460938 0.855469 
vn 0.707031 0.582764 0.400146 
vn 0.000000 0.965820 0.258789 
vn 0.707031 0.582764 0.400146 
vn 0.235596 0.826904 -0.510254 
vn 0.000000 0.965820 0.258789 
vn 0.235596 0.826904 -0.510254 
vn -0.707031 0.704834 -0.054932 
vt 0.483871 0.064516 
vt 0.483871 0.225806 
vt 1.000000 0.225806 
vt 0.483871 0.064516 
vt 0.000000 0.225806 
vt 0.483871 0.225806 
vt 0.483871 0.064516 
vt 0.483871 0.225806 
vt 0.000000 0.225806 
vt 0.483871 0.064516 
vt 1.000000 0.225806 
vt 0.483871 0.225806 
vt 1.000000 0.225806 
vt 0.483871 1.000000 
vt 1.000000 1.000000 
vt 1.000000 0.225806 
vt 0.483871 0.225806 
vt 0.483871 1.000000 
vt 0.483871 0.225806 
vt 0.000000 1.000000 
vt 0.483871 1.000000 
vt 0.483871 0.225806 
vt 0.000000 0.225806 
vt 0.000000 1.000000 
vt 0.000000 0.225806 
vt 0.483871 1.000000 
vt 0.000000 1.000000 
vt 0.000000 0.225806 
vt 0.483871 0.225806 
vt 0.483871 1.000000 
vt 0.483871 0.225806 
vt 1.000000 1.000000 
vt 0.483871 1.000000 
vt 0.483871 0.225806 
vt 1.000000 0.225806 
vt 1.000000 1.000000 
vt 0.483871 1.000000 
vt 1.000000 1.000000 
vt 0.483871 1.000000 
vt 0.483871 1.000000 
vt 0.483871 1.000000 
vt 0.000000 1.000000 
vt 0.483871 1.000000 
vt 0.000000 1.000000 
vt 0.483871 1.000000 
vt 0.483871 1.000000 
vt 0.483871 1.000000 
vt 1.000000 1.000000 
f 1/1/1 2/2/2 3/3/3
f 4/4/4 5/5/5 6/6/6
f 7/7/7 8/8/8 9/9/9
f 10/10/10 11/11/11 12/12/12
f 13/13/13 14/14/14 15/15/15
f 16/16/16 17/17/17 18/18/18
f 19/19/19 20/20/20 21/21/21
f 22/22/22 23/23/23 24/24/24
f 25/25/25 26/26/26 27/27/27
f 28/28/28 29/29/29 30/30/30
f 31/31/31 32/32/32 33/33/33
f 34/34/34 35/35/35 36/36/36
f 37/37/37 38/38/38 39/39/39
f 40/40/40 41/41/41 42/42/42
f 43/43/43 44/44/44 45/45/45
f 46/46/46 47/47/47 48/48/48
