v 22.000000 -2.000000 -11.000000 
v 22.000000 7.000000 -11.000000 
v 41.000000 -2.000000 0.000000 
v 22.000000 7.000000 -11.000000 
v 41.000000 7.000000 0.000000 
v 41.000000 -2.000000 0.000000 
v 22.000000 7.000000 -11.000000 
v 15.000000 12.000000 -3.000000 
v 41.000000 7.000000 0.000000 
v 9.000000 7.000000 4.000000 
v 9.000000 -2.000000 4.000000 
v 28.000000 7.000000 15.000000 
v 9.000000 -2.000000 4.000000 
v 28.000000 -2.000000 15.000000 
v 28.000000 7.000000 15.000000 
v 9.000000 -2.000000 4.000000 
v 15.000000 -7.000000 -3.000000 
v 28.000000 -2.000000 15.000000 
v 10.000000 -7.000000 -5.000000 
v 17.000000 -2.000000 -12.000000 
v 15.000000 -7.000000 -3.000000 
v 17.000000 -2.000000 -12.000000 
v 22.000000 -2.000000 -11.000000 
v 15.000000 -7.000000 -3.000000 
v 10.000000 -7.000000 -5.000000 
v 15.000000 -7.000000 -3.000000 
v 9.000000 -2.000000 4.000000 
v 17.000000 -2.000000 -12.000000 
v 17.000000 7.000000 -12.000000 
v 22.000000 -2.000000 -11.000000 
v 17.000000 7.000000 -12.000000 
v 22.000000 7.000000 -11.000000 
v 22.000000 -2.000000 -11.000000 
v 17.000000 7.000000 -12.000000 
v 10.000000 12.000000 -5.000000 
v 22.000000 7.000000 -11.000000 
v 10.000000 12.000000 -5.000000 
v 15.000000 12.000000 -3.000000 
v 22.000000 7.000000 -11.000000 
v 10.000000 12.000000 -5.000000 
v 4.000000 7.000000 2.000000 
v 15.000000 12.000000 -3.000000 
v 4.000000 7.000000 2.000000 
v 9.000000 7.000000 4.000000 
v 15.000000 12.000000 -3.000000 
v 4.000000 7.000000 2.000000 
v 4.000000 -2.000000 2.000000 
v 9.000000 7.000000 4.000000 
v 4.000000 -2.000000 2.000000 
v 9.000000 -2.000000 4.000000 
v 9.000000 7.000000 4.000000 
v 4.000000 -2.000000 2.000000 
v 10.000000 -7.000000 -5.000000 
v 9.000000 -2.000000 4.000000 
v 5.000000 -7.000000 -8.000000 
v 10.000000 -7.000000 -5.000000 
v 4.000000 -2.000000 2.000000 
v 12.000000 7.000000 -16.000000 
v 17.000000 7.000000 -12.000000 
v 17.000000 -2.000000 -12.000000 
v 12.000000 7.000000 -16.000000 
v 5.000000 12.000000 -8.000000 
v 17.000000 7.000000 -12.000000 
v 5.000000 12.000000 -8.000000 
v 10.000000 12.000000 -5.000000 
v 17.000000 7.000000 -12.000000 
vn 0.493408 -0.431885 -0.754639 
vn 0.499756 0.430420 -0.751465 
vn 0.557373 -0.275391 -0.782959 
vn 0.499756 0.430420 -0.751465 
vn 0.471436 0.581787 -0.662354 
vn 0.557373 -0.275391 -0.782959 
vn 0.499756 0.430420 -0.751465 
vn 0.006836 0.999756 0.004883 
vn 0.471436 0.581787 -0.662354 
vn -0.493408 0.431885 0.754639 
vn -0.499756 -0.430420 0.751465 
vn -0.557373 0.275391 0.782959 
vn -0.499756 -0.430420 0.751465 
vn -0.471436 -0.581787 0.662354 
vn -0.557373 0.275391 0.782959 
vn -0.499756 -0.430420 0.751465 
vn -0.006592 -0.999756 -0.004883 
vn -0.471436 -0.581787 0.662354 
vn 0.012939 -0.999756 0.009766 
vn 0.528076 -0.430664 -0.731689 
vn -0.006592 -0.999756 -0.004883 
vn 0.528076 -0.430664 -0.731689 
vn 0.493408 -0.431885 -0.754639 
vn -0.006592 -0.999756 -0.004883 
vn 0.012939 -0.999756 0.009766 
vn -0.006592 -0.999756 -0.004883 
vn -0.499756 -0.430420 0.751465 
vn 0.528076 -0.430664 -0.731689 
vn 0.516113 0.432861 -0.738770 
vn 0.493408 -0.431885 -0.754639 
vn 0.516113 0.432861 -0.738770 
vn 0.499756 0.430420 -0.751465 
vn 0.493408 -0.431885 -0.754639 
vn 0.516113 0.432861 -0.738770 
vn -0.012939 0.999756 -0.009766 
vn 0.499756 0.430420 -0.751465 
vn -0.012939 0.999756 -0.009766 
vn 0.006836 0.999756 0.004883 
vn 0.499756 0.430420 -0.751465 
vn -0.012939 0.999756 -0.009766 
vn -0.528076 0.430664 0.731689 
vn 0.006836 0.999756 0.004883 
vn -0.528076 0.430664 0.731689 
vn -0.493408 0.431885 0.754639 
vn 0.006836 0.999756 0.004883 
vn -0.528076 0.430664 0.731689 
vn -0.516113 -0.432861 0.738770 
vn -0.493408 0.431885 0.754639 
vn -0.516113 -0.432861 0.738770 
vn -0.499756 -0.430420 0.751465 
vn -0.493408 0.431885 0.754639 
vn -0.516113 -0.432861 0.738770 
vn 0.012939 -0.999756 0.009766 
vn -0.499756 -0.430420 0.751465 
vn 0.011963 -0.999756 0.010742 
vn 0.012939 -0.999756 0.009766 
vn -0.516113 -0.432861 0.738770 
vn 0.614746 0.430664 -0.660400 
vn 0.516113 0.432861 -0.738770 
vn 0.528076 -0.430664 -0.731689 
vn 0.614746 0.430664 -0.660400 
vn -0.011963 0.999756 -0.010742 
vn 0.516113 0.432861 -0.738770 
vn -0.011963 0.999756 -0.010742 
vn -0.012939 0.999756 -0.009766 
vn 0.516113 0.432861 -0.738770 
vt 0.838710 0.612903 
vt 0.161290 0.645161 
vt 0.838710 0.935484 
vt 0.161290 0.645161 
vt 0.161290 0.935484 
vt 0.838710 0.935484 
vt 0.161290 0.645161 
vt 0.870968 0.483871 
vt 0.161290 0.935484 
vt 0.161290 0.483871 
vt 0.870968 0.451613 
vt 0.161290 0.935484 
vt 0.870968 0.451613 
vt 0.870968 0.903226 
vt 0.161290 0.935484 
vt 0.870968 0.451613 
vt 0.161290 0.516129 
vt 0.870968 0.903226 
vt 0.161290 0.258065 
vt 0.838710 0.451613 
vt 0.161290 0.516129 
vt 0.838710 0.451613 
vt 0.838710 0.612903 
vt 0.161290 0.516129 
vt 0.161290 0.258065 
vt 0.161290 0.516129 
vt 0.870968 0.451613 
vt 0.838710 0.451613 
vt 0.161290 0.451613 
vt 0.838710 0.612903 
vt 0.161290 0.451613 
vt 0.161290 0.645161 
vt 0.838710 0.612903 
vt 0.161290 0.451613 
vt 0.870968 0.258065 
vt 0.161290 0.645161 
vt 0.870968 0.258065 
vt 0.870968 0.483871 
vt 0.161290 0.645161 
vt 0.870968 0.258065 
vt 0.161290 0.225806 
vt 0.870968 0.483871 
vt 0.161290 0.225806 
vt 0.161290 0.483871 
vt 0.870968 0.483871 
vt 0.161290 0.225806 
vt 0.870968 0.193548 
vt 0.161290 0.483871 
vt 0.870968 0.193548 
vt 0.870968 0.451613 
vt 0.161290 0.483871 
vt 0.870968 0.193548 
vt 0.161290 0.258065 
vt 0.870968 0.451613 
vt 0.161290 0.258065 
vt 0.161290 0.258065 
vt 0.870968 0.193548 
vt 0.161290 0.451613 
vt 0.161290 0.451613 
vt 0.838710 0.451613 
vt 0.161290 0.451613 
vt 0.870968 0.258065 
vt 0.161290 0.451613 
vt 0.870968 0.258065 
vt 0.870968 0.258065 
vt 0.161290 0.451613 
f 1/1/1 2/2/2 3/3/3
f 4/4/4 5/5/5 6/6/6
f 7/7/7 8/8/8 9/9/9
f 10/10/10 11/11/11 12/12/12
f 13/13/13 14/14/14 15/15/15
f 16/16/16 17/17/17 18/18/18
f 19/19/19 20/20/20 21/21/21
f 22/22/22 23/23/23 24/24/24
f 25/25/25 26/26/26 27/27/27
f 28/28/28 29/29/29 30/30/30
f 31/31/31 32/32/32 33/33/33
f 34/34/34 35/35/35 36/36/36
f 37/37/37 38/38/38 39/39/39
f 40/40/40 41/41/41 42/42/42
f 43/43/43 44/44/44 45/45/45
f 46/46/46 47/47/47 48/48/48
f 49/49/49 50/50/50 51/51/51
f 52/52/52 53/53/53 54/54/54
f 55/55/55 56/56/56 57/57/57
f 58/58/58 59/59/59 60/60/60
f 61/61/61 62/62/62 63/63/63
f 64/64/64 65/65/65 66/66/66
