v 4.000000 -1.000000 0.000000 
v 0.000000 -1.000000 5.000000 
v 0.000000 -5.000000 0.000000 
v 0.000000 -1.000000 5.000000 
v -5.000000 -1.000000 0.000000 
v 0.000000 -5.000000 0.000000 
v -5.000000 -1.000000 0.000000 
v 0.000000 -1.000000 -4.000000 
v 0.000000 -5.000000 0.000000 
v 0.000000 -1.000000 -4.000000 
v 4.000000 -1.000000 0.000000 
v 0.000000 -5.000000 0.000000 
v 4.000000 27.000000 -1.000000 
v 0.000000 27.000000 3.000000 
v 4.000000 -1.000000 0.000000 
v 0.000000 27.000000 3.000000 
v 0.000000 -1.000000 5.000000 
v 4.000000 -1.000000 0.000000 
v 0.000000 27.000000 3.000000 
v -4.000000 27.000000 -1.000000 
v 0.000000 -1.000000 5.000000 
v -4.000000 27.000000 -1.000000 
v -5.000000 -1.000000 0.000000 
v 0.000000 -1.000000 5.000000 
v -4.000000 27.000000 -1.000000 
v 0.000000 27.000000 -6.000000 
v -5.000000 -1.000000 0.000000 
v 0.000000 27.000000 -6.000000 
v 0.000000 -1.000000 -4.000000 
v -5.000000 -1.000000 0.000000 
v 0.000000 27.000000 -6.000000 
v 4.000000 27.000000 -1.000000 
v 0.000000 -1.000000 -4.000000 
v 4.000000 27.000000 -1.000000 
v 4.000000 -1.000000 0.000000 
v 0.000000 -1.000000 -4.000000 
vn 0.613281 -0.789795 0.000000 
vn 0.000000 -0.789795 0.613281 
vn 0.000000 -1.000000 0.000000 
vn 0.000000 -0.789795 0.613281 
vn -0.613281 -0.789795 0.000000 
vn 0.000000 -1.000000 0.000000 
vn -0.613281 -0.789795 0.000000 
vn 0.000000 -0.789795 -0.613281 
vn 0.000000 -1.000000 0.000000 
vn 0.000000 -0.789795 -0.613281 
vn 0.613281 -0.789795 0.000000 
vn 0.000000 -1.000000 0.000000 
vn 0.948486 -0.009521 -0.316162 
vn 0.315430 0.060791 0.946777 
vn 0.948242 0.026367 0.315918 
vn 0.315430 0.060791 0.946777 
vn -0.315674 0.059326 0.946777 
vn 0.948242 0.026367 0.315918 
vn 0.315430 0.060791 0.946777 
vn -0.948242 0.021973 0.315918 
vn -0.315674 0.059326 0.946777 
vn -0.948242 0.021973 0.315918 
vn -0.948486 -0.013916 -0.316162 
vn -0.315674 0.059326 0.946777 
vn -0.948242 0.021973 0.315918 
vn -0.315674 -0.048340 -0.947510 
vn -0.948486 -0.013916 -0.316162 
vn -0.315674 -0.048340 -0.947510 
vn 0.315918 -0.046875 -0.947510 
vn -0.948486 -0.013916 -0.316162 
vn -0.315674 -0.048340 -0.947510 
vn 0.948486 -0.009521 -0.316162 
vn 0.315918 -0.046875 -0.947510 
vn 0.948486 -0.009521 -0.316162 
vn 0.948242 0.026367 0.315918 
vn 0.315918 -0.046875 -0.947510 
vt 0.483871 0.838710 
vt 0.709677 0.838710 
vt 0.483871 0.419355 
vt 0.483871 0.838710 
vt 0.709677 0.838710 
vt 0.483871 0.419355 
vt 0.483871 0.838710 
vt 0.709677 0.838710 
vt 0.483871 0.419355 
vt 0.483871 0.838710 
vt 0.709677 0.838710 
vt 0.483871 0.419355 
vt 0.483871 0.838710 
vt 0.709677 0.838710 
vt 0.483871 0.419355 
vt 0.709677 0.838710 
vt 0.709677 0.419355 
vt 0.483871 0.419355 
vt 0.483871 0.838710 
vt 0.709677 0.838710 
vt 0.483871 0.419355 
vt 0.709677 0.838710 
vt 0.709677 0.419355 
vt 0.483871 0.419355 
vt 0.483871 0.838710 
vt 0.709677 0.838710 
vt 0.483871 0.419355 
vt 0.709677 0.838710 
vt 0.709677 0.419355 
vt 0.483871 0.419355 
vt 0.483871 0.838710 
vt 0.709677 0.838710 
vt 0.483871 0.419355 
vt 0.709677 0.838710 
vt 0.709677 0.419355 
vt 0.483871 0.419355 
f 1/1/1 2/2/2 3/3/3
f 4/4/4 5/5/5 6/6/6
f 7/7/7 8/8/8 9/9/9
f 10/10/10 11/11/11 12/12/12
f 13/13/13 14/14/14 15/15/15
f 16/16/16 17/17/17 18/18/18
f 19/19/19 20/20/20 21/21/21
f 22/22/22 23/23/23 24/24/24
f 25/25/25 26/26/26 27/27/27
f 28/28/28 29/29/29 30/30/30
f 31/31/31 32/32/32 33/33/33
f 34/34/34 35/35/35 36/36/36
