v -10.000000 -6.000000 -23.000000 
v 0.000000 2.000000 -26.000000 
v 0.000000 -9.000000 -34.000000 
v -12.000000 -16.000000 -20.000000 
v -10.000000 -6.000000 -23.000000 
v 0.000000 -9.000000 -34.000000 
v 0.000000 -18.000000 -20.000000 
v -12.000000 -16.000000 -20.000000 
v 0.000000 -9.000000 -34.000000 
v 10.000000 -16.000000 -20.000000 
v 0.000000 -18.000000 -20.000000 
v 0.000000 -9.000000 -34.000000 
v 10.000000 -6.000000 -23.000000 
v 10.000000 -16.000000 -20.000000 
v 0.000000 -9.000000 -34.000000 
v 0.000000 2.000000 -26.000000 
v 10.000000 -6.000000 -23.000000 
v 0.000000 -9.000000 -34.000000 
v -18.000000 0.000000 10.000000 
v 0.000000 7.000000 8.000000 
v 0.000000 5.000000 -1.000000 
v -15.000000 -4.000000 -2.000000 
v -18.000000 0.000000 10.000000 
v 0.000000 5.000000 -1.000000 
v -18.000000 -20.000000 14.000000 
v -18.000000 0.000000 10.000000 
v -15.000000 -4.000000 -2.000000 
v -15.000000 -19.000000 -4.000000 
v -18.000000 -20.000000 14.000000 
v -15.000000 -4.000000 -2.000000 
v 0.000000 -20.000000 14.000000 
v -18.000000 -20.000000 14.000000 
v -15.000000 -19.000000 -4.000000 
v 0.000000 -20.000000 -5.000000 
v 0.000000 -20.000000 14.000000 
v -15.000000 -19.000000 -4.000000 
v 18.000000 -20.000000 14.000000 
v 0.000000 -20.000000 14.000000 
v 0.000000 -20.000000 -5.000000 
v 15.000000 -19.000000 -4.000000 
v 18.000000 -20.000000 14.000000 
v 0.000000 -20.000000 -5.000000 
v 18.000000 0.000000 10.000000 
v 18.000000 -20.000000 14.000000 
v 15.000000 -19.000000 -4.000000 
v 15.000000 -4.000000 -2.000000 
v 18.000000 0.000000 10.000000 
v 15.000000 -19.000000 -4.000000 
v 0.000000 7.000000 8.000000 
v 18.000000 0.000000 10.000000 
v 15.000000 -4.000000 -2.000000 
v 0.000000 5.000000 -1.000000 
v 0.000000 7.000000 8.000000 
v 15.000000 -4.000000 -2.000000 
v -10.000000 -6.000000 -23.000000 
v -15.000000 -4.000000 -2.000000 
v 0.000000 5.000000 -1.000000 
v 0.000000 5.000000 -1.000000 
v 0.000000 2.000000 -26.000000 
v -10.000000 -6.000000 -23.000000 
v -12.000000 -16.000000 -20.000000 
v -15.000000 -19.000000 -4.000000 
v -15.000000 -4.000000 -2.000000 
v -15.000000 -4.000000 -2.000000 
v -10.000000 -6.000000 -23.000000 
v -12.000000 -16.000000 -20.000000 
v 0.000000 -18.000000 -20.000000 
v 0.000000 -20.000000 -5.000000 
v -15.000000 -19.000000 -4.000000 
v -15.000000 -19.000000 -4.000000 
v -12.000000 -16.000000 -20.000000 
v 0.000000 -18.000000 -20.000000 
v 10.000000 -16.000000 -20.000000 
v 15.000000 -19.000000 -4.000000 
v 0.000000 -20.000000 -5.000000 
v 0.000000 -20.000000 -5.000000 
v 0.000000 -18.000000 -20.000000 
v 10.000000 -16.000000 -20.000000 
v 10.000000 -6.000000 -23.000000 
v 15.000000 -4.000000 -2.000000 
v 15.000000 -19.000000 -4.000000 
v 15.000000 -19.000000 -4.000000 
v 10.000000 -16.000000 -20.000000 
v 10.000000 -6.000000 -23.000000 
v 0.000000 2.000000 -26.000000 
v 0.000000 5.000000 -1.000000 
v 15.000000 -4.000000 -2.000000 
v 15.000000 -4.000000 -2.000000 
v 10.000000 -6.000000 -23.000000 
v 0.000000 2.000000 -26.000000 
vn -0.895020 0.358398 -0.265381 
vn 0.259277 0.862305 -0.434326 
vn 0.010742 -0.413086 -0.910400 
vn -0.831787 -0.451904 -0.321777 
vn -0.895020 0.358398 -0.265381 
vn 0.010742 -0.413086 -0.910400 
vn -0.009766 -0.968750 -0.247070 
vn -0.831787 -0.451904 -0.321777 
vn 0.010742 -0.413086 -0.910400 
vn 0.588379 -0.747803 -0.307129 
vn -0.009766 -0.968750 -0.247070 
vn 0.010742 -0.413086 -0.910400 
vn 0.949219 0.148438 -0.276367 
vn 0.588379 -0.747803 -0.307129 
vn 0.010742 -0.413086 -0.910400 
vn 0.259277 0.862305 -0.434326 
vn 0.949219 0.148438 -0.276367 
vn 0.010742 -0.413086 -0.910400 
vn -0.819580 0.542480 -0.183105 
vn 0.297363 0.931152 -0.209961 
vn -0.303223 0.935791 -0.179443 
vn -0.951416 0.271240 -0.144775 
vn -0.819580 0.542480 -0.183105 
vn -0.303223 0.935791 -0.179443 
vn -0.895020 -0.434326 -0.098877 
vn -0.819580 0.542480 -0.183105 
vn -0.951416 0.271240 -0.144775 
vn -0.525146 -0.844971 -0.099121 
vn -0.895020 -0.434326 -0.098877 
vn -0.951416 0.271240 -0.144775 
vn -0.035645 -0.998779 -0.031494 
vn -0.895020 -0.434326 -0.098877 
vn -0.525146 -0.844971 -0.099121 
vn 0.042725 -0.996338 -0.072021 
vn -0.035645 -0.998779 -0.031494 
vn -0.525146 -0.844971 -0.099121 
vn 0.495605 -0.865479 -0.070801 
vn -0.035645 -0.998779 -0.031494 
vn 0.042725 -0.996338 -0.072021 
vn 0.893311 -0.425781 -0.142578 
vn 0.495605 -0.865479 -0.070801 
vn 0.042725 -0.996338 -0.072021 
vn 0.942383 0.283691 -0.176270 
vn 0.495605 -0.865479 -0.070801 
vn 0.893311 -0.425781 -0.142578 
vn 0.863037 0.481201 -0.152344 
vn 0.942383 0.283691 -0.176270 
vn 0.893311 -0.425781 -0.142578 
vn 0.297363 0.931152 -0.209961 
vn 0.942383 0.283691 -0.176270 
vn 0.863037 0.481201 -0.152344 
vn -0.303223 0.935791 -0.179443 
vn 0.297363 0.931152 -0.209961 
vn 0.863037 0.481201 -0.152344 
vn -0.895020 0.358398 -0.265381 
vn -0.951416 0.271240 -0.144775 
vn -0.303223 0.935791 -0.179443 
vn -0.303223 0.935791 -0.179443 
vn 0.259277 0.862305 -0.434326 
vn -0.895020 0.358398 -0.265381 
vn -0.831787 -0.451904 -0.321777 
vn -0.525146 -0.844971 -0.099121 
vn -0.951416 0.271240 -0.144775 
vn -0.951416 0.271240 -0.144775 
vn -0.895020 0.358398 -0.265381 
vn -0.831787 -0.451904 -0.321777 
vn -0.009766 -0.968750 -0.247070 
vn 0.042725 -0.996338 -0.072021 
vn -0.525146 -0.844971 -0.099121 
vn -0.525146 -0.844971 -0.099121 
vn -0.831787 -0.451904 -0.321777 
vn -0.009766 -0.968750 -0.247070 
vn 0.588379 -0.747803 -0.307129 
vn 0.893311 -0.425781 -0.142578 
vn 0.042725 -0.996338 -0.072021 
vn 0.042725 -0.996338 -0.072021 
vn -0.009766 -0.968750 -0.247070 
vn 0.588379 -0.747803 -0.307129 
vn 0.949219 0.148438 -0.276367 
vn 0.863037 0.481201 -0.152344 
vn 0.893311 -0.425781 -0.142578 
vn 0.893311 -0.425781 -0.142578 
vn 0.588379 -0.747803 -0.307129 
vn 0.949219 0.148438 -0.276367 
vn 0.259277 0.862305 -0.434326 
vn -0.303223 0.935791 -0.179443 
vn 0.863037 0.481201 -0.152344 
vn 0.863037 0.481201 -0.152344 
vn 0.949219 0.148438 -0.276367 
vn 0.259277 0.862305 -0.434326 
vt 0.682540 0.451613 
vt 0.761905 0.387097 
vt 0.761905 0.645161 
vt 0.682540 0.677419 
vt 0.682540 0.451613 
vt 0.761905 0.645161 
vt 0.761905 0.709677 
vt 0.682540 0.677419 
vt 0.761905 0.645161 
vt 0.825397 0.677419 
vt 0.761905 0.709677 
vt 0.761905 0.645161 
vt 0.825397 0.483871 
vt 0.825397 0.677419 
vt 0.761905 0.645161 
vt 0.761905 0.387097 
vt 0.825397 0.483871 
vt 0.761905 0.645161 
vt 0.492063 0.000000 
vt 0.761905 0.000000 
vt 0.761905 0.387097 
vt 0.682540 0.451613 
vt 0.492063 0.000000 
vt 0.761905 0.387097 
vt 0.492063 1.000000 
vt 0.492063 0.000000 
vt 0.682540 0.451613 
vt 0.682540 0.677419 
vt 0.492063 1.000000 
vt 0.682540 0.451613 
vt 0.761905 1.000000 
vt 0.492063 1.000000 
vt 0.682540 0.677419 
vt 0.761905 0.709677 
vt 0.761905 1.000000 
vt 0.682540 0.677419 
vt 1.000000 1.000000 
vt 0.761905 1.000000 
vt 0.761905 0.709677 
vt 0.825397 0.677419 
vt 1.000000 1.000000 
vt 0.761905 0.709677 
vt 1.000000 0.000000 
vt 1.000000 1.000000 
vt 0.825397 0.677419 
vt 0.825397 0.483871 
vt 1.000000 0.000000 
vt 0.825397 0.677419 
vt 0.761905 0.000000 
vt 1.000000 0.000000 
vt 0.825397 0.483871 
vt 0.761905 0.387097 
vt 0.761905 0.000000 
vt 0.825397 0.483871 
vt 0.682540 0.451613 
vt 0.682540 0.451613 
vt 0.761905 0.387097 
vt 0.761905 0.387097 
vt 0.761905 0.387097 
vt 0.682540 0.451613 
vt 0.682540 0.677419 
vt 0.682540 0.677419 
vt 0.682540 0.451613 
vt 0.682540 0.451613 
vt 0.682540 0.451613 
vt 0.682540 0.677419 
vt 0.761905 0.709677 
vt 0.761905 0.709677 
vt 0.682540 0.677419 
vt 0.682540 0.677419 
vt 0.682540 0.677419 
vt 0.761905 0.709677 
vt 0.825397 0.677419 
vt 0.825397 0.677419 
vt 0.761905 0.709677 
vt 0.761905 0.709677 
vt 0.761905 0.709677 
vt 0.825397 0.677419 
vt 0.825397 0.483871 
vt 0.825397 0.483871 
vt 0.825397 0.677419 
vt 0.825397 0.677419 
vt 0.825397 0.677419 
vt 0.825397 0.483871 
vt 0.761905 0.387097 
vt 0.761905 0.387097 
vt 0.825397 0.483871 
vt 0.825397 0.483871 
vt 0.825397 0.483871 
vt 0.761905 0.387097 
f 1/1/1 2/2/2 3/3/3
f 4/4/4 5/5/5 6/6/6
f 7/7/7 8/8/8 9/9/9
f 10/10/10 11/11/11 12/12/12
f 13/13/13 14/14/14 15/15/15
f 16/16/16 17/17/17 18/18/18
f 19/19/19 20/20/20 21/21/21
f 22/22/22 23/23/23 24/24/24
f 25/25/25 26/26/26 27/27/27
f 28/28/28 29/29/29 30/30/30
f 31/31/31 32/32/32 33/33/33
f 34/34/34 35/35/35 36/36/36
f 37/37/37 38/38/38 39/39/39
f 40/40/40 41/41/41 42/42/42
f 43/43/43 44/44/44 45/45/45
f 46/46/46 47/47/47 48/48/48
f 49/49/49 50/50/50 51/51/51
f 52/52/52 53/53/53 54/54/54
f 55/55/55 56/56/56 57/57/57
f 58/58/58 59/59/59 60/60/60
f 61/61/61 62/62/62 63/63/63
f 64/64/64 65/65/65 66/66/66
f 67/67/67 68/68/68 69/69/69
f 70/70/70 71/71/71 72/72/72
f 73/73/73 74/74/74 75/75/75
f 76/76/76 77/77/77 78/78/78
f 79/79/79 80/80/80 81/81/81
f 82/82/82 83/83/83 84/84/84
f 85/85/85 86/86/86 87/87/87
f 88/88/88 89/89/89 90/90/90
