v 6.000000 -7.000000 0.000000 
v 5.000000 -4.000000 -6.000000 
v 36.000000 -5.000000 -8.000000 
v 37.000000 -8.000000 1.000000 
v 6.000000 -7.000000 0.000000 
v 36.000000 -5.000000 -8.000000 
v 36.000000 -5.000000 -8.000000 
v 5.000000 -4.000000 -6.000000 
v 36.000000 5.000000 -8.000000 
v 6.000000 0.000000 5.000000 
v 6.000000 -7.000000 0.000000 
v 37.000000 -8.000000 1.000000 
v 38.000000 0.000000 8.000000 
v 6.000000 0.000000 5.000000 
v 37.000000 -8.000000 1.000000 
v 5.000000 5.000000 0.000000 
v 6.000000 0.000000 5.000000 
v 38.000000 0.000000 8.000000 
v 37.000000 9.000000 1.000000 
v 5.000000 5.000000 0.000000 
v 38.000000 0.000000 8.000000 
v 5.000000 3.000000 -6.000000 
v 5.000000 5.000000 0.000000 
v 37.000000 9.000000 1.000000 
v 36.000000 5.000000 -8.000000 
v 5.000000 3.000000 -6.000000 
v 37.000000 9.000000 1.000000 
v 5.000000 -4.000000 -6.000000 
v 5.000000 3.000000 -6.000000 
v 36.000000 5.000000 -8.000000 
vn 0.873291 -0.486816 -0.003662 
vn 0.414307 0.119629 -0.902100 
vn 0.552734 -0.109375 -0.825928 
vn 0.802979 -0.554688 0.217773 
vn 0.873291 -0.486816 -0.003662 
vn 0.552734 -0.109375 -0.825928 
vn 0.552734 -0.109375 -0.825928 
vn 0.414307 0.119629 -0.902100 
vn -0.535889 0.352783 -0.766602 
vn 0.072754 -0.540283 0.838135 
vn 0.873291 -0.486816 -0.003662 
vn 0.802979 -0.554688 0.217773 
vn -0.102295 -0.375000 0.921143 
vn 0.072754 -0.540283 0.838135 
vn 0.802979 -0.554688 0.217773 
vn -0.873535 0.013916 0.486084 
vn 0.072754 -0.540283 0.838135 
vn -0.102295 -0.375000 0.921143 
vn -0.930420 0.182373 0.317383 
vn -0.873535 0.013916 0.486084 
vn -0.102295 -0.375000 0.921143 
vn -0.681152 0.430908 -0.591553 
vn -0.873535 0.013916 0.486084 
vn -0.930420 0.182373 0.317383 
vn -0.535889 0.352783 -0.766602 
vn -0.681152 0.430908 -0.591553 
vn -0.930420 0.182373 0.317383 
vn 0.414307 0.119629 -0.902100 
vn -0.681152 0.430908 -0.591553 
vn -0.535889 0.352783 -0.766602 
vt 0.984127 1.000000 
vt 0.000000 1.000000 
vt 0.000000 0.079365 
vt 0.984127 0.079365 
vt 0.984127 1.000000 
vt 0.000000 0.079365 
vt 0.984127 0.079365 
vt 0.984127 1.000000 
vt 0.000000 0.079365 
vt 0.984127 1.000000 
vt 0.000000 1.000000 
vt 0.000000 0.079365 
vt 0.984127 0.079365 
vt 0.984127 1.000000 
vt 0.000000 0.079365 
vt 0.984127 1.000000 
vt 0.000000 1.000000 
vt 0.000000 0.079365 
vt 0.984127 0.079365 
vt 0.984127 1.000000 
vt 0.000000 0.079365 
vt 0.984127 1.000000 
vt 0.000000 1.000000 
vt 0.000000 0.079365 
vt 0.984127 0.079365 
vt 0.984127 1.000000 
vt 0.000000 0.079365 
vt 0.984127 1.000000 
vt 0.000000 1.000000 
vt 0.000000 0.079365 
f 1/1/1 2/2/2 3/3/3
f 4/4/4 5/5/5 6/6/6
f 7/7/7 8/8/8 9/9/9
f 10/10/10 11/11/11 12/12/12
f 13/13/13 14/14/14 15/15/15
f 16/16/16 17/17/17 18/18/18
f 19/19/19 20/20/20 21/21/21
f 22/22/22 23/23/23 24/24/24
f 25/25/25 26/26/26 27/27/27
f 28/28/28 29/29/29 30/30/30
