v 24.000000 21.000000 1.000000 
v 24.000000 18.000000 -9.000000 
v 6.000000 25.000000 1.000000 
v 24.000000 18.000000 -9.000000 
v 6.000000 22.000000 -11.000000 
v 6.000000 25.000000 1.000000 
v 24.000000 21.000000 1.000000 
v 6.000000 25.000000 1.000000 
v 6.000000 22.000000 14.000000 
v 24.000000 18.000000 -9.000000 
v 24.000000 10.000000 -16.000000 
v 6.000000 22.000000 -11.000000 
v 24.000000 10.000000 -16.000000 
v 6.000000 12.000000 -20.000000 
v 6.000000 22.000000 -11.000000 
v 24.000000 10.000000 -16.000000 
v 24.000000 0.000000 -19.000000 
v 6.000000 12.000000 -20.000000 
v 24.000000 0.000000 -19.000000 
v 6.000000 0.000000 -24.000000 
v 6.000000 12.000000 -20.000000 
v 24.000000 0.000000 -19.000000 
v 24.000000 -10.000000 -16.000000 
v 6.000000 0.000000 -24.000000 
v 24.000000 -10.000000 -16.000000 
v 6.000000 -12.000000 -20.000000 
v 6.000000 0.000000 -24.000000 
v 24.000000 -10.000000 -16.000000 
v 24.000000 -18.000000 -9.000000 
v 6.000000 -12.000000 -20.000000 
v 24.000000 -18.000000 -9.000000 
v 6.000000 -22.000000 -11.000000 
v 6.000000 -12.000000 -20.000000 
v 24.000000 -18.000000 -9.000000 
v 24.000000 -21.000000 1.000000 
v 6.000000 -22.000000 -11.000000 
v 24.000000 -21.000000 1.000000 
v 6.000000 -25.000000 1.000000 
v 6.000000 -22.000000 -11.000000 
v 24.000000 -21.000000 1.000000 
v 24.000000 -18.000000 12.000000 
v 6.000000 -25.000000 1.000000 
v 24.000000 -18.000000 12.000000 
v 6.000000 -22.000000 14.000000 
v 6.000000 -25.000000 1.000000 
v 24.000000 -18.000000 12.000000 
v 24.000000 -10.000000 19.000000 
v 6.000000 -22.000000 14.000000 
v 24.000000 -10.000000 19.000000 
v 6.000000 -12.000000 23.000000 
v 6.000000 -22.000000 14.000000 
v 24.000000 -10.000000 19.000000 
v 24.000000 0.000000 22.000000 
v 6.000000 -12.000000 23.000000 
v 24.000000 0.000000 22.000000 
v 6.000000 0.000000 27.000000 
v 6.000000 -12.000000 23.000000 
v 24.000000 0.000000 22.000000 
v 24.000000 10.000000 19.000000 
v 6.000000 0.000000 27.000000 
v 24.000000 10.000000 19.000000 
v 6.000000 12.000000 23.000000 
v 6.000000 0.000000 27.000000 
v 24.000000 10.000000 19.000000 
v 24.000000 18.000000 12.000000 
v 6.000000 12.000000 23.000000 
v 24.000000 18.000000 12.000000 
v 6.000000 22.000000 14.000000 
v 6.000000 12.000000 23.000000 
v 24.000000 18.000000 12.000000 
v 24.000000 21.000000 1.000000 
v 6.000000 22.000000 14.000000 
v 31.000000 6.000000 -1.000000 
v 24.000000 18.000000 -9.000000 
v 24.000000 21.000000 1.000000 
v 31.000000 -6.000000 -1.000000 
v 24.000000 -18.000000 -9.000000 
v 24.000000 -10.000000 -16.000000 
v 31.000000 -6.000000 4.000000 
v 24.000000 -18.000000 12.000000 
v 24.000000 -21.000000 1.000000 
v 31.000000 6.000000 4.000000 
v 24.000000 18.000000 12.000000 
v 24.000000 10.000000 19.000000 
vn 0.313965 0.949219 0.012695 
vn 0.317383 0.829102 -0.459717 
vn 0.083008 0.996338 0.000488 
vn 0.317383 0.829102 -0.459717 
vn 0.079590 0.865479 -0.494141 
vn 0.083008 0.996338 0.000488 
vn 0.313965 0.949219 0.012695 
vn 0.083008 0.996338 0.000488 
vn 0.085938 0.864746 0.494629 
vn 0.317383 0.829102 -0.459717 
vn 0.322510 0.490723 -0.809082 
vn 0.079590 0.865479 -0.494141 
vn 0.322510 0.490723 -0.809082 
vn 0.076660 0.502197 -0.861084 
vn 0.079590 0.865479 -0.494141 
vn 0.322510 0.490723 -0.809082 
vn 0.323730 0.020508 -0.945801 
vn 0.076660 0.502197 -0.861084 
vn 0.323730 0.020508 -0.945801 
vn 0.075684 0.000000 -0.997070 
vn 0.076660 0.502197 -0.861084 
vn 0.323730 0.020508 -0.945801 
vn 0.320312 -0.458496 -0.828857 
vn 0.075684 0.000000 -0.997070 
vn 0.320312 -0.458496 -0.828857 
vn 0.076660 -0.501953 -0.861328 
vn 0.075684 0.000000 -0.997070 
vn 0.320312 -0.458496 -0.828857 
vn 0.315186 -0.814697 -0.486328 
vn 0.076660 -0.501953 -0.861328 
vn 0.315186 -0.814697 -0.486328 
vn 0.079346 -0.864990 -0.495117 
vn 0.076660 -0.501953 -0.861328 
vn 0.315186 -0.814697 -0.486328 
vn 0.313965 -0.949219 -0.013184 
vn 0.079346 -0.864990 -0.495117 
vn 0.313965 -0.949219 -0.013184 
vn 0.082275 -0.996582 -0.000488 
vn 0.079346 -0.864990 -0.495117 
vn 0.313965 -0.949219 -0.013184 
vn 0.318115 -0.829102 0.459229 
vn 0.082275 -0.996582 -0.000488 
vn 0.318115 -0.829102 0.459229 
vn 0.084717 -0.864990 0.494141 
vn 0.082275 -0.996582 -0.000488 
vn 0.318115 -0.829102 0.459229 
vn 0.323730 -0.490967 0.808594 
vn 0.084717 -0.864990 0.494141 
vn 0.323730 -0.490967 0.808594 
vn 0.086426 -0.501709 0.860596 
vn 0.084717 -0.864990 0.494141 
vn 0.323730 -0.490967 0.808594 
vn 0.325195 -0.020264 0.945312 
vn 0.086426 -0.501709 0.860596 
vn 0.325195 -0.020264 0.945312 
vn 0.087402 0.000244 0.996094 
vn 0.086426 -0.501709 0.860596 
vn 0.325195 -0.020264 0.945312 
vn 0.321533 0.458496 0.828125 
vn 0.087402 0.000244 0.996094 
vn 0.321533 0.458496 0.828125 
vn 0.087402 0.501709 0.860352 
vn 0.087402 0.000244 0.996094 
vn 0.321533 0.458496 0.828125 
vn 0.315918 0.814697 0.485840 
vn 0.087402 0.501709 0.860352 
vn 0.315918 0.814697 0.485840 
vn 0.085938 0.864746 0.494629 
vn 0.087402 0.501709 0.860352 
vn 0.315918 0.814697 0.485840 
vn 0.313965 0.949219 0.012695 
vn 0.085938 0.864746 0.494629 
vn 0.565918 0.740723 -0.361572 
vn 0.317383 0.829102 -0.459717 
vn 0.313965 0.949219 0.012695 
vn 0.575195 -0.660889 -0.481689 
vn 0.315186 -0.814697 -0.486328 
vn 0.320312 -0.458496 -0.828857 
vn 0.566406 -0.740723 0.360352 
vn 0.318115 -0.829102 0.459229 
vn 0.313965 -0.949219 -0.013184 
vn 0.575684 0.661133 0.480713 
vn 0.315918 0.814697 0.485840 
vn 0.321533 0.458496 0.828125 
vt 0.746032 0.904762 
vt 0.825397 0.904762 
vt 0.746032 0.666667 
vt 0.825397 0.904762 
vt 0.825397 0.666667 
vt 0.746032 0.666667 
vt 0.746032 0.904762 
vt 0.746032 0.666667 
vt 0.666667 0.666667 
vt 0.825397 0.904762 
vt 0.920635 0.904762 
vt 0.825397 0.666667 
vt 0.920635 0.904762 
vt 0.920635 0.666667 
vt 0.825397 0.666667 
vt 0.920635 0.904762 
vt 1.000000 0.904762 
vt 0.920635 0.666667 
vt 1.000000 0.904762 
vt 1.000000 0.666667 
vt 0.920635 0.666667 
vt 0.000000 0.904762 
vt 0.063492 0.904762 
vt 1.000000 0.666667 
vt 0.063492 0.904762 
vt 0.063492 0.666667 
vt 0.000000 0.666667 
vt 0.063492 0.904762 
vt 0.158730 0.904762 
vt 0.063492 0.666667 
vt 0.158730 0.904762 
vt 0.158730 0.666667 
vt 0.063492 0.666667 
vt 0.158730 0.904762 
vt 0.238095 0.904762 
vt 0.158730 0.666667 
vt 0.238095 0.904762 
vt 0.238095 0.666667 
vt 0.158730 0.666667 
vt 0.238095 0.904762 
vt 0.349206 0.873016 
vt 0.238095 0.666667 
vt 0.349206 0.873016 
vt 0.317460 0.587302 
vt 0.238095 0.666667 
vt 0.349206 0.873016 
vt 0.492063 0.841270 
vt 0.317460 0.587302 
vt 0.492063 0.841270 
vt 0.460317 0.571429 
vt 0.317460 0.587302 
vt 0.492063 0.841270 
vt 0.634921 0.841270 
vt 0.460317 0.571429 
vt 0.634921 0.841270 
vt 0.634921 0.587302 
vt 0.460317 0.571429 
vt 0.634921 0.825397 
vt 0.777778 0.841270 
vt 0.634921 0.587302 
vt 0.777778 0.841270 
vt 0.809524 0.587302 
vt 0.634921 0.587302 
vt 0.777778 0.841270 
vt 0.936508 0.825397 
vt 0.809524 0.587302 
vt 0.936508 0.825397 
vt 0.952381 0.587302 
vt 0.809524 0.587302 
vt 0.666667 0.904762 
vt 0.746032 0.904762 
vt 0.666667 0.666667 
vt 0.825397 1.000000 
vt 0.825397 0.888889 
vt 0.746032 0.888889 
vt 0.158730 1.000000 
vt 0.158730 0.888889 
vt 0.063492 0.888889 
vt 0.317460 1.000000 
vt 0.317460 0.888889 
vt 0.238095 0.888889 
vt 0.666667 1.000000 
vt 0.666667 0.888889 
vt 0.571429 0.888889 
f 1/1/1 2/2/2 3/3/3
f 4/4/4 5/5/5 6/6/6
f 7/7/7 8/8/8 9/9/9
f 10/10/10 11/11/11 12/12/12
f 13/13/13 14/14/14 15/15/15
f 16/16/16 17/17/17 18/18/18
f 19/19/19 20/20/20 21/21/21
f 22/22/22 23/23/23 24/24/24
f 25/25/25 26/26/26 27/27/27
f 28/28/28 29/29/29 30/30/30
f 31/31/31 32/32/32 33/33/33
f 34/34/34 35/35/35 36/36/36
f 37/37/37 38/38/38 39/39/39
f 40/40/40 41/41/41 42/42/42
f 43/43/43 44/44/44 45/45/45
f 46/46/46 47/47/47 48/48/48
f 49/49/49 50/50/50 51/51/51
f 52/52/52 53/53/53 54/54/54
f 55/55/55 56/56/56 57/57/57
f 58/58/58 59/59/59 60/60/60
f 61/61/61 62/62/62 63/63/63
f 64/64/64 65/65/65 66/66/66
f 67/67/67 68/68/68 69/69/69
f 70/70/70 71/71/71 72/72/72
f 73/73/73 74/74/74 75/75/75
f 76/76/76 77/77/77 78/78/78
f 79/79/79 80/80/80 81/81/81
f 82/82/82 83/83/83 84/84/84
