v 9.000000 -7.000000 -3.000000 
v 6.000000 -2.000000 -19.000000 
v 40.000000 -2.000000 -6.000000 
v 41.000000 -5.000000 2.000000 
v 9.000000 -7.000000 -3.000000 
v 40.000000 -2.000000 -6.000000 
v 40.000000 -2.000000 -6.000000 
v 6.000000 -2.000000 -19.000000 
v 40.000000 8.000000 -6.000000 
v 10.000000 2.000000 8.000000 
v 9.000000 -7.000000 -3.000000 
v 41.000000 -5.000000 2.000000 
v 41.000000 2.000000 8.000000 
v 10.000000 2.000000 8.000000 
v 41.000000 -5.000000 2.000000 
v 5.000000 14.000000 -3.000000 
v 10.000000 2.000000 8.000000 
v 41.000000 2.000000 8.000000 
v 41.000000 10.000000 3.000000 
v 5.000000 14.000000 -3.000000 
v 41.000000 2.000000 8.000000 
v 4.000000 10.000000 -18.000000 
v 5.000000 14.000000 -3.000000 
v 41.000000 10.000000 3.000000 
v 40.000000 8.000000 -6.000000 
v 4.000000 10.000000 -18.000000 
v 41.000000 10.000000 3.000000 
v 6.000000 -2.000000 -19.000000 
v 4.000000 10.000000 -18.000000 
v 40.000000 8.000000 -6.000000 
v 6.000000 -2.000000 -19.000000 
v 9.000000 -7.000000 -3.000000 
v 3.000000 2.000000 -4.000000 
v 4.000000 10.000000 -18.000000 
v 6.000000 -2.000000 -19.000000 
v 3.000000 2.000000 -4.000000 
v 9.000000 -7.000000 -3.000000 
v 10.000000 2.000000 8.000000 
v 3.000000 2.000000 -4.000000 
v 10.000000 2.000000 8.000000 
v 5.000000 14.000000 -3.000000 
v 3.000000 2.000000 -4.000000 
v 5.000000 14.000000 -3.000000 
v 4.000000 10.000000 -18.000000 
v 3.000000 2.000000 -4.000000 
vn 0.053223 -0.998535 0.007324 
vn 0.313965 -0.384766 -0.867676 
vn 0.047363 -0.649902 -0.758301 
vn -0.027100 -0.978027 0.206543 
vn 0.053223 -0.998535 0.007324 
vn 0.047363 -0.649902 -0.758301 
vn 0.047363 -0.649902 -0.758301 
vn 0.313965 -0.384766 -0.867676 
vn 0.105957 0.701660 -0.704346 
vn -0.047363 -0.380859 0.923340 
vn 0.053223 -0.998535 0.007324 
vn -0.027100 -0.978027 0.206543 
vn -0.036621 0.002441 0.999268 
vn -0.047363 -0.380859 0.923340 
vn -0.027100 -0.978027 0.206543 
vn 0.002441 0.912354 0.408691 
vn -0.047363 -0.380859 0.923340 
vn -0.036621 0.002441 0.999268 
vn 0.014160 0.958740 0.283691 
vn 0.002441 0.912354 0.408691 
vn -0.036621 0.002441 0.999268 
vn 0.206543 0.846436 -0.490234 
vn 0.002441 0.912354 0.408691 
vn 0.014160 0.958740 0.283691 
vn 0.105957 0.701660 -0.704346 
vn 0.206543 0.846436 -0.490234 
vn 0.014160 0.958740 0.283691 
vn 0.313965 -0.384766 -0.867676 
vn 0.206543 0.846436 -0.490234 
vn 0.105957 0.701660 -0.704346 
vn -0.893799 -0.440430 -0.083496 
vn -0.745117 -0.633057 0.208496 
vn -0.958008 -0.229004 0.171631 
vn -0.997070 0.040283 -0.064209 
vn -0.893799 -0.440430 -0.083496 
vn -0.958008 -0.229004 0.171631 
vn -0.745117 -0.633057 0.208496 
vn -0.846680 -0.223145 0.482666 
vn -0.958008 -0.229004 0.171631 
vn -0.846680 -0.223145 0.482666 
vn -0.938721 0.225586 0.260254 
vn -0.958008 -0.229004 0.171631 
vn -0.938721 0.225586 0.260254 
vn -0.997070 0.040283 -0.064209 
vn -0.958008 -0.229004 0.171631 
vt 0.984127 1.000000 
vt 0.000000 1.000000 
vt 0.000000 0.079365 
vt 0.984127 0.079365 
vt 0.984127 1.000000 
vt 0.000000 0.079365 
vt 0.984127 0.079365 
vt 0.984127 1.000000 
vt 0.000000 0.079365 
vt 0.984127 1.000000 
vt 0.000000 1.000000 
vt 0.000000 0.079365 
vt 0.984127 0.079365 
vt 0.984127 1.000000 
vt 0.000000 0.079365 
vt 0.984127 1.000000 
vt 0.000000 1.000000 
vt 0.000000 0.079365 
vt 0.984127 0.079365 
vt 0.984127 1.000000 
vt 0.000000 0.079365 
vt 0.984127 1.000000 
vt 0.000000 1.000000 
vt 0.000000 0.079365 
vt 0.984127 0.079365 
vt 0.984127 1.000000 
vt 0.000000 0.079365 
vt 0.984127 1.000000 
vt 0.000000 1.000000 
vt 0.000000 0.079365 
vt 0.000000 0.079365 
vt 0.984127 0.079365 
vt 0.984127 1.000000 
vt 0.000000 0.079365 
vt 0.984127 0.079365 
vt 0.984127 1.000000 
vt 0.000000 0.079365 
vt 0.984127 0.079365 
vt 0.984127 1.000000 
vt 0.000000 0.079365 
vt 0.984127 0.079365 
vt 0.984127 1.000000 
vt 0.000000 0.079365 
vt 0.984127 0.079365 
vt 0.984127 1.000000 
f 1/1/1 2/2/2 3/3/3
f 4/4/4 5/5/5 6/6/6
f 7/7/7 8/8/8 9/9/9
f 10/10/10 11/11/11 12/12/12
f 13/13/13 14/14/14 15/15/15
f 16/16/16 17/17/17 18/18/18
f 19/19/19 20/20/20 21/21/21
f 22/22/22 23/23/23 24/24/24
f 25/25/25 26/26/26 27/27/27
f 28/28/28 29/29/29 30/30/30
f 31/31/31 32/32/32 33/33/33
f 34/34/34 35/35/35 36/36/36
f 37/37/37 38/38/38 39/39/39
f 40/40/40 41/41/41 42/42/42
f 43/43/43 44/44/44 45/45/45
