v 0.000000 0.000000 0.000000 
v -12.000000 0.000000 21.000000 
v -18.000000 0.000000 -21.000000 
v 0.000000 0.000000 0.000000 
v 12.000000 0.000000 21.000000 
v -12.000000 0.000000 21.000000 
v 0.000000 0.000000 0.000000 
v 18.000000 0.000000 -21.000000 
v 12.000000 0.000000 21.000000 
v 0.000000 0.000000 0.000000 
v 12.000000 0.000000 -44.000000 
v 18.000000 0.000000 -21.000000 
v 0.000000 0.000000 0.000000 
v -12.000000 0.000000 -44.000000 
v 12.000000 0.000000 -44.000000 
v 0.000000 0.000000 0.000000 
v -18.000000 0.000000 -21.000000 
v -12.000000 0.000000 -44.000000 
v -18.000000 0.000000 -21.000000 
v -10.000000 11.000000 20.000000 
v -15.000000 14.000000 -22.000000 
v -18.000000 0.000000 -21.000000 
v -12.000000 0.000000 21.000000 
v -10.000000 11.000000 20.000000 
v -12.000000 0.000000 21.000000 
v 10.000000 11.000000 20.000000 
v -10.000000 11.000000 20.000000 
v -12.000000 0.000000 21.000000 
v 12.000000 0.000000 21.000000 
v 10.000000 11.000000 20.000000 
v 12.000000 0.000000 21.000000 
v 15.000000 14.000000 -22.000000 
v 10.000000 11.000000 20.000000 
v 12.000000 0.000000 21.000000 
v 18.000000 0.000000 -21.000000 
v 15.000000 14.000000 -22.000000 
v 18.000000 0.000000 -21.000000 
v 12.000000 17.000000 -43.000000 
v 15.000000 14.000000 -22.000000 
v 18.000000 0.000000 -21.000000 
v 12.000000 0.000000 -44.000000 
v 12.000000 17.000000 -43.000000 
v 12.000000 0.000000 -44.000000 
v -12.000000 17.000000 -43.000000 
v 12.000000 17.000000 -43.000000 
v 12.000000 0.000000 -44.000000 
v -12.000000 0.000000 -44.000000 
v -12.000000 17.000000 -43.000000 
v -12.000000 0.000000 -44.000000 
v -15.000000 14.000000 -22.000000 
v -12.000000 17.000000 -43.000000 
v -12.000000 0.000000 -44.000000 
v -18.000000 0.000000 -21.000000 
v -15.000000 14.000000 -22.000000 
v -15.000000 14.000000 -22.000000 
v -7.000000 19.000000 13.000000 
v -11.000000 20.000000 0.000000 
v -15.000000 14.000000 -22.000000 
v -10.000000 11.000000 20.000000 
v -7.000000 19.000000 13.000000 
v -10.000000 11.000000 20.000000 
v 7.000000 19.000000 13.000000 
v -7.000000 19.000000 13.000000 
v -10.000000 11.000000 20.000000 
v 10.000000 11.000000 20.000000 
v 7.000000 19.000000 13.000000 
v 10.000000 11.000000 20.000000 
v 11.000000 20.000000 0.000000 
v 7.000000 19.000000 13.000000 
v 10.000000 11.000000 20.000000 
v 15.000000 14.000000 -22.000000 
v 11.000000 20.000000 0.000000 
v 15.000000 14.000000 -22.000000 
v 6.000000 22.000000 -12.000000 
v 11.000000 20.000000 0.000000 
v 15.000000 14.000000 -22.000000 
v 12.000000 17.000000 -43.000000 
v 6.000000 22.000000 -12.000000 
v 12.000000 17.000000 -43.000000 
v -5.000000 22.000000 -12.000000 
v 6.000000 22.000000 -12.000000 
v 12.000000 17.000000 -43.000000 
v -12.000000 17.000000 -43.000000 
v -5.000000 22.000000 -12.000000 
v -12.000000 17.000000 -43.000000 
v -11.000000 20.000000 0.000000 
v -5.000000 22.000000 -12.000000 
v -12.000000 17.000000 -43.000000 
v -15.000000 14.000000 -22.000000 
v -11.000000 20.000000 0.000000 
v 0.000000 33.000000 0.000000 
v -4.000000 28.000000 9.000000 
v 3.000000 28.000000 9.000000 
v 0.000000 33.000000 0.000000 
v 3.000000 28.000000 9.000000 
v 8.000000 28.000000 0.000000 
v 0.000000 33.000000 0.000000 
v 8.000000 28.000000 0.000000 
v 4.000000 28.000000 -5.000000 
v 0.000000 33.000000 0.000000 
v 4.000000 28.000000 -5.000000 
v -4.000000 28.000000 -5.000000 
v 0.000000 33.000000 0.000000 
v -4.000000 28.000000 -5.000000 
v -8.000000 28.000000 0.000000 
v 0.000000 33.000000 0.000000 
v -8.000000 28.000000 0.000000 
v -4.000000 28.000000 9.000000 
v -4.000000 28.000000 9.000000 
v -7.000000 19.000000 13.000000 
v 7.000000 19.000000 13.000000 
v -4.000000 28.000000 9.000000 
v 7.000000 19.000000 13.000000 
v 3.000000 28.000000 9.000000 
v 3.000000 28.000000 9.000000 
v 7.000000 19.000000 13.000000 
v 11.000000 20.000000 0.000000 
v 3.000000 28.000000 9.000000 
v 11.000000 20.000000 0.000000 
v 8.000000 28.000000 0.000000 
v 8.000000 28.000000 0.000000 
v 11.000000 20.000000 0.000000 
v 6.000000 22.000000 -12.000000 
v 8.000000 28.000000 0.000000 
v 6.000000 22.000000 -12.000000 
v 4.000000 28.000000 -5.000000 
v 4.000000 28.000000 -5.000000 
v 6.000000 22.000000 -12.000000 
v -5.000000 22.000000 -12.000000 
v 4.000000 28.000000 -5.000000 
v -5.000000 22.000000 -12.000000 
v -4.000000 28.000000 -5.000000 
v -4.000000 28.000000 -5.000000 
v -5.000000 22.000000 -12.000000 
v -11.000000 20.000000 0.000000 
v -4.000000 28.000000 -5.000000 
v -11.000000 20.000000 0.000000 
v -8.000000 28.000000 0.000000 
v -8.000000 28.000000 0.000000 
v -11.000000 20.000000 0.000000 
v -7.000000 19.000000 13.000000 
v -8.000000 28.000000 0.000000 
v -7.000000 19.000000 13.000000 
v -4.000000 28.000000 9.000000 
vn 0.000000 -1.000000 0.000000 
vn 0.000000 -1.000000 0.000000 
vn 0.000000 -1.000000 0.000000 
vn 0.000000 -1.000000 0.000000 
vn 0.000000 -1.000000 0.000000 
vn 0.000000 -1.000000 0.000000 
vn 0.000000 -1.000000 0.000000 
vn 0.000000 -1.000000 0.000000 
vn 0.000000 -1.000000 0.000000 
vn 0.000000 -1.000000 0.000000 
vn 0.000000 -1.000000 0.000000 
vn 0.000000 -1.000000 0.000000 
vn 0.000000 -1.000000 0.000000 
vn 0.000000 -1.000000 0.000000 
vn 0.000000 -1.000000 0.000000 
vn 0.000000 -1.000000 0.000000 
vn 0.000000 -1.000000 0.000000 
vn 0.000000 -1.000000 0.000000 
vn -0.986328 0.163818 0.003906 
vn -0.609863 0.488525 0.623779 
vn -0.979736 0.199463 0.015625 
vn -0.986328 0.163818 0.003906 
vn -0.412598 0.176514 0.893311 
vn -0.609863 0.488525 0.623779 
vn -0.412598 0.176514 0.893311 
vn 0.578857 0.407471 0.706055 
vn -0.609863 0.488525 0.623779 
vn -0.412598 0.176514 0.893311 
vn 0.825439 0.196045 0.529053 
vn 0.578857 0.407471 0.706055 
vn 0.825439 0.196045 0.529053 
vn 0.903564 0.427246 0.028076 
vn 0.578857 0.407471 0.706055 
vn 0.825439 0.196045 0.529053 
vn 0.989502 0.114502 -0.087402 
vn 0.903564 0.427246 0.028076 
vn 0.989502 0.114502 -0.087402 
vn 0.595215 0.698486 -0.396973 
vn 0.903564 0.427246 0.028076 
vn 0.989502 0.114502 -0.087402 
vn 0.394531 0.024902 -0.918457 
vn 0.595215 0.698486 -0.396973 
vn 0.394531 0.024902 -0.918457 
vn -0.507324 0.641113 -0.575439 
vn 0.595215 0.698486 -0.396973 
vn 0.394531 0.024902 -0.918457 
vn -0.808105 0.073975 -0.584229 
vn -0.507324 0.641113 -0.575439 
vn -0.808105 0.073975 -0.584229 
vn -0.979736 0.199463 0.015625 
vn -0.507324 0.641113 -0.575439 
vn -0.808105 0.073975 -0.584229 
vn -0.986328 0.163818 0.003906 
vn -0.979736 0.199463 0.015625 
vn -0.979736 0.199463 0.015625 
vn -0.790283 0.328857 0.516602 
vn -0.854492 0.513916 0.073486 
vn -0.979736 0.199463 0.015625 
vn -0.609863 0.488525 0.623779 
vn -0.790283 0.328857 0.516602 
vn -0.609863 0.488525 0.623779 
vn 0.270752 0.705322 0.654785 
vn -0.790283 0.328857 0.516602 
vn -0.609863 0.488525 0.623779 
vn 0.578857 0.407471 0.706055 
vn 0.270752 0.705322 0.654785 
vn 0.578857 0.407471 0.706055 
vn 0.795654 0.594482 0.114502 
vn 0.270752 0.705322 0.654785 
vn 0.578857 0.407471 0.706055 
vn 0.903564 0.427246 0.028076 
vn 0.795654 0.594482 0.114502 
vn 0.903564 0.427246 0.028076 
vn 0.386230 0.918213 -0.085693 
vn 0.795654 0.594482 0.114502 
vn 0.903564 0.427246 0.028076 
vn 0.595215 0.698486 -0.396973 
vn 0.386230 0.918213 -0.085693 
vn 0.595215 0.698486 -0.396973 
vn -0.140381 0.982666 -0.119141 
vn 0.386230 0.918213 -0.085693 
vn 0.595215 0.698486 -0.396973 
vn -0.507324 0.641113 -0.575439 
vn -0.140381 0.982666 -0.119141 
vn -0.507324 0.641113 -0.575439 
vn -0.854492 0.513916 0.073486 
vn -0.140381 0.982666 -0.119141 
vn -0.507324 0.641113 -0.575439 
vn -0.979736 0.199463 0.015625 
vn -0.854492 0.513916 0.073486 
vn 0.003662 0.996338 -0.083252 
vn -0.323730 0.664795 0.672852 
vn 0.502686 0.656982 0.561523 
vn 0.003662 0.996338 -0.083252 
vn 0.502686 0.656982 0.561523 
vn 0.742188 0.662842 -0.098633 
vn 0.003662 0.996338 -0.083252 
vn 0.742188 0.662842 -0.098633 
vn 0.238281 0.779541 -0.578857 
vn 0.003662 0.996338 -0.083252 
vn 0.238281 0.779541 -0.578857 
vn -0.428223 0.691895 -0.581055 
vn 0.003662 0.996338 -0.083252 
vn -0.428223 0.691895 -0.581055 
vn -0.790527 0.611328 -0.030762 
vn 0.003662 0.996338 -0.083252 
vn -0.790527 0.611328 -0.030762 
vn -0.323730 0.664795 0.672852 
vn -0.323730 0.664795 0.672852 
vn -0.671143 0.428223 0.604736 
vn 0.311035 0.451172 0.836182 
vn -0.323730 0.664795 0.672852 
vn 0.311035 0.451172 0.836182 
vn 0.502686 0.656982 0.561523 
vn 0.502686 0.656982 0.561523 
vn 0.311035 0.451172 0.836182 
vn 0.915039 0.376709 0.142822 
vn 0.502686 0.656982 0.561523 
vn 0.915039 0.376709 0.142822 
vn 0.742188 0.662842 -0.098633 
vn 0.742188 0.662842 -0.098633 
vn 0.915039 0.376709 0.142822 
vn 0.554199 0.641602 -0.529785 
vn 0.742188 0.662842 -0.098633 
vn 0.554199 0.641602 -0.529785 
vn 0.238281 0.779541 -0.578857 
vn 0.238281 0.779541 -0.578857 
vn 0.554199 0.641602 -0.529785 
vn -0.281250 0.744873 -0.604736 
vn 0.238281 0.779541 -0.578857 
vn -0.281250 0.744873 -0.604736 
vn -0.428223 0.691895 -0.581055 
vn -0.428223 0.691895 -0.581055 
vn -0.281250 0.744873 -0.604736 
vn -0.885986 0.405029 -0.224854 
vn -0.428223 0.691895 -0.581055 
vn -0.885986 0.405029 -0.224854 
vn -0.790527 0.611328 -0.030762 
vn -0.790527 0.611328 -0.030762 
vn -0.885986 0.405029 -0.224854 
vn -0.671143 0.428223 0.604736 
vn -0.790527 0.611328 -0.030762 
vn -0.671143 0.428223 0.604736 
vn -0.323730 0.664795 0.672852 
vt 0.285714 0.904762 
vt 0.000000 0.793651 
vt 0.000000 0.873016 
vt 0.285714 0.904762 
vt 0.587302 0.793651 
vt 0.000000 0.793651 
vt 0.285714 0.904762 
vt 0.587302 0.888889 
vt 0.587302 0.793651 
vt 0.285714 0.904762 
vt 0.476190 1.000000 
vt 0.587302 0.888889 
vt 0.285714 0.904762 
vt 0.111111 1.000000 
vt 0.476190 1.000000 
vt 0.285714 0.904762 
vt 0.000000 0.873016 
vt 0.111111 1.000000 
vt 0.000000 0.682540 
vt 0.079365 0.031746 
vt 0.047619 0.698413 
vt 0.000000 0.682540 
vt 0.000000 0.000000 
vt 0.079365 0.031746 
vt 0.000000 0.000000 
vt 0.523810 0.031746 
vt 0.079365 0.031746 
vt 0.000000 0.000000 
vt 0.603175 0.000000 
vt 0.523810 0.031746 
vt 0.603175 0.000000 
vt 0.555556 0.698413 
vt 0.523810 0.031746 
vt 0.603175 0.000000 
vt 0.603175 0.698413 
vt 0.555556 0.698413 
vt 0.603175 0.698413 
vt 0.476190 1.000000 
vt 0.555556 0.698413 
vt 0.603175 0.698413 
vt 0.476190 1.000000 
vt 0.476190 1.000000 
vt 0.476190 1.000000 
vt 0.111111 1.000000 
vt 0.476190 1.000000 
vt 0.476190 1.000000 
vt 0.111111 1.000000 
vt 0.111111 1.000000 
vt 0.111111 1.000000 
vt 0.047619 0.698413 
vt 0.111111 1.000000 
vt 0.111111 1.000000 
vt 0.000000 0.682540 
vt 0.047619 0.698413 
vt 0.047619 0.698413 
vt 0.174603 0.142857 
vt 0.142857 0.333333 
vt 0.047619 0.698413 
vt 0.079365 0.031746 
vt 0.174603 0.142857 
vt 0.079365 0.031746 
vt 0.428571 0.126984 
vt 0.174603 0.142857 
vt 0.079365 0.031746 
vt 0.523810 0.031746 
vt 0.428571 0.126984 
vt 0.523810 0.031746 
vt 0.444444 0.349206 
vt 0.428571 0.126984 
vt 0.523810 0.031746 
vt 0.555556 0.698413 
vt 0.444444 0.349206 
vt 0.555556 0.698413 
vt 0.412698 0.539683 
vt 0.444444 0.349206 
vt 0.555556 0.698413 
vt 0.476190 1.000000 
vt 0.412698 0.539683 
vt 0.476190 1.000000 
vt 0.174603 0.539683 
vt 0.412698 0.539683 
vt 0.476190 1.000000 
vt 0.111111 1.000000 
vt 0.174603 0.539683 
vt 0.111111 1.000000 
vt 0.142857 0.333333 
vt 0.174603 0.539683 
vt 0.111111 1.000000 
vt 0.047619 0.698413 
vt 0.142857 0.333333 
vt 0.285714 0.333333 
vt 0.174603 0.190476 
vt 0.396825 0.126984 
vt 0.285714 0.333333 
vt 0.396825 0.126984 
vt 0.412698 0.333333 
vt 0.285714 0.333333 
vt 0.412698 0.333333 
vt 0.380952 0.428571 
vt 0.285714 0.333333 
vt 0.380952 0.428571 
vt 0.174603 0.428571 
vt 0.285714 0.333333 
vt 0.174603 0.428571 
vt 0.174603 0.333333 
vt 0.285714 0.333333 
vt 0.174603 0.333333 
vt 0.174603 0.190476 
vt 0.174603 0.190476 
vt 0.174603 0.142857 
vt 0.428571 0.126984 
vt 0.174603 0.190476 
vt 0.428571 0.126984 
vt 0.396825 0.126984 
vt 0.396825 0.126984 
vt 0.428571 0.126984 
vt 0.444444 0.349206 
vt 0.396825 0.126984 
vt 0.444444 0.349206 
vt 0.412698 0.333333 
vt 0.412698 0.333333 
vt 0.444444 0.349206 
vt 0.412698 0.539683 
vt 0.412698 0.333333 
vt 0.412698 0.539683 
vt 0.380952 0.428571 
vt 0.380952 0.428571 
vt 0.412698 0.539683 
vt 0.174603 0.539683 
vt 0.380952 0.428571 
vt 0.174603 0.539683 
vt 0.174603 0.428571 
vt 0.174603 0.428571 
vt 0.174603 0.539683 
vt 0.142857 0.333333 
vt 0.174603 0.428571 
vt 0.142857 0.333333 
vt 0.174603 0.333333 
vt 0.174603 0.333333 
vt 0.142857 0.333333 
vt 0.174603 0.142857 
vt 0.174603 0.333333 
vt 0.174603 0.142857 
vt 0.174603 0.190476 
f 1/1/1 2/2/2 3/3/3
f 4/4/4 5/5/5 6/6/6
f 7/7/7 8/8/8 9/9/9
f 10/10/10 11/11/11 12/12/12
f 13/13/13 14/14/14 15/15/15
f 16/16/16 17/17/17 18/18/18
f 19/19/19 20/20/20 21/21/21
f 22/22/22 23/23/23 24/24/24
f 25/25/25 26/26/26 27/27/27
f 28/28/28 29/29/29 30/30/30
f 31/31/31 32/32/32 33/33/33
f 34/34/34 35/35/35 36/36/36
f 37/37/37 38/38/38 39/39/39
f 40/40/40 41/41/41 42/42/42
f 43/43/43 44/44/44 45/45/45
f 46/46/46 47/47/47 48/48/48
f 49/49/49 50/50/50 51/51/51
f 52/52/52 53/53/53 54/54/54
f 55/55/55 56/56/56 57/57/57
f 58/58/58 59/59/59 60/60/60
f 61/61/61 62/62/62 63/63/63
f 64/64/64 65/65/65 66/66/66
f 67/67/67 68/68/68 69/69/69
f 70/70/70 71/71/71 72/72/72
f 73/73/73 74/74/74 75/75/75
f 76/76/76 77/77/77 78/78/78
f 79/79/79 80/80/80 81/81/81
f 82/82/82 83/83/83 84/84/84
f 85/85/85 86/86/86 87/87/87
f 88/88/88 89/89/89 90/90/90
f 91/91/91 92/92/92 93/93/93
f 94/94/94 95/95/95 96/96/96
f 97/97/97 98/98/98 99/99/99
f 100/100/100 101/101/101 102/102/102
f 103/103/103 104/104/104 105/105/105
f 106/106/106 107/107/107 108/108/108
f 109/109/109 110/110/110 111/111/111
f 112/112/112 113/113/113 114/114/114
f 115/115/115 116/116/116 117/117/117
f 118/118/118 119/119/119 120/120/120
f 121/121/121 122/122/122 123/123/123
f 124/124/124 125/125/125 126/126/126
f 127/127/127 128/128/128 129/129/129
f 130/130/130 131/131/131 132/132/132
f 133/133/133 134/134/134 135/135/135
f 136/136/136 137/137/137 138/138/138
f 139/139/139 140/140/140 141/141/141
f 142/142/142 143/143/143 144/144/144
