v 13.000000 43.000000 -236.000000 
v -126.000000 19.000000 -396.000000 
v -163.000000 38.000000 -195.000000 
v -126.000000 19.000000 -396.000000 
v 13.000000 43.000000 -236.000000 
v 61.000000 19.000000 -446.000000 
v 194.000000 49.000000 -163.000000 
v 61.000000 19.000000 -446.000000 
v 13.000000 43.000000 -236.000000 
v 61.000000 19.000000 -446.000000 
v 194.000000 49.000000 -163.000000 
v 248.000000 19.000000 -401.000000 
v -244.000000 56.000000 0.000000 
v -260.000000 19.000000 -257.000000 
v -316.000000 19.000000 -69.000000 
v -260.000000 19.000000 -257.000000 
v -244.000000 56.000000 0.000000 
v -163.000000 38.000000 -195.000000 
v 8.000000 -204.000000 -8.000000 
v -64.000000 -193.000000 -61.000000 
v -83.000000 -193.000000 1.000000 
v -64.000000 -193.000000 -61.000000 
v 8.000000 -204.000000 -8.000000 
v 5.000000 -188.000000 -90.000000 
v 88.000000 -195.000000 1.000000 
v 5.000000 -188.000000 -90.000000 
v 8.000000 -204.000000 -8.000000 
v 5.000000 -188.000000 -90.000000 
v 88.000000 -195.000000 1.000000 
v 70.000000 -192.000000 -62.000000 
v 434.000000 19.000000 -72.000000 
v 194.000000 49.000000 -163.000000 
v 248.000000 28.000000 3.000000 
v 194.000000 49.000000 -163.000000 
v 434.000000 19.000000 -72.000000 
v 384.000000 19.000000 -257.000000 
v -175.000000 54.000000 176.000000 
v -316.000000 19.000000 -69.000000 
v -265.000000 19.000000 121.000000 
v -316.000000 19.000000 -69.000000 
v -175.000000 54.000000 176.000000 
v -244.000000 56.000000 0.000000 
v 10.000000 -192.000000 72.000000 
v -83.000000 -193.000000 1.000000 
v -45.000000 -193.000000 59.000000 
v -83.000000 -193.000000 1.000000 
v 10.000000 -192.000000 72.000000 
v 8.000000 -204.000000 -8.000000 
v 73.000000 -200.000000 55.000000 
v 8.000000 -204.000000 -8.000000 
v 10.000000 -192.000000 72.000000 
v 8.000000 -204.000000 -8.000000 
v 73.000000 -200.000000 55.000000 
v 88.000000 -195.000000 1.000000 
v 383.000000 19.000000 117.000000 
v 248.000000 28.000000 3.000000 
v 174.000000 19.000000 173.000000 
v 248.000000 28.000000 3.000000 
v 383.000000 19.000000 117.000000 
v 434.000000 19.000000 -72.000000 
v 54.000000 31.000000 305.000000 
v -175.000000 54.000000 176.000000 
v -129.000000 19.000000 257.000000 
v -175.000000 54.000000 176.000000 
v 54.000000 31.000000 305.000000 
v 6.000000 33.000000 225.000000 
v 248.000000 28.000000 252.000000 
v 6.000000 33.000000 225.000000 
v 54.000000 31.000000 305.000000 
v 6.000000 33.000000 225.000000 
v 248.000000 28.000000 252.000000 
v 174.000000 19.000000 173.000000 
v -265.000000 19.000000 121.000000 
v -129.000000 19.000000 257.000000 
v -175.000000 54.000000 176.000000 
v -126.000000 19.000000 -396.000000 
v -260.000000 19.000000 -257.000000 
v -163.000000 38.000000 -195.000000 
v 384.000000 19.000000 -257.000000 
v 248.000000 19.000000 -401.000000 
v 194.000000 49.000000 -163.000000 
v 383.000000 19.000000 117.000000 
v 174.000000 19.000000 173.000000 
v 248.000000 28.000000 252.000000 
v 8.000000 120.000000 -169.000000 
v 13.000000 43.000000 -236.000000 
v -163.000000 38.000000 -195.000000 
v -163.000000 38.000000 -195.000000 
v -104.000000 123.000000 -119.000000 
v 8.000000 120.000000 -169.000000 
v 126.000000 108.000000 -114.000000 
v 194.000000 49.000000 -163.000000 
v 13.000000 43.000000 -236.000000 
v 13.000000 43.000000 -236.000000 
v 8.000000 120.000000 -169.000000 
v 126.000000 108.000000 -114.000000 
v -104.000000 123.000000 -119.000000 
v -163.000000 38.000000 -195.000000 
v -244.000000 56.000000 0.000000 
v -244.000000 56.000000 0.000000 
v -151.000000 125.000000 -8.000000 
v -104.000000 123.000000 -119.000000 
v 142.000000 119.000000 5.000000 
v 248.000000 28.000000 3.000000 
v 194.000000 49.000000 -163.000000 
v 194.000000 49.000000 -163.000000 
v 126.000000 108.000000 -114.000000 
v 142.000000 119.000000 5.000000 
v -151.000000 125.000000 -8.000000 
v -244.000000 56.000000 0.000000 
v -175.000000 54.000000 176.000000 
v -175.000000 54.000000 176.000000 
v -90.000000 118.000000 118.000000 
v -151.000000 125.000000 -8.000000 
v -90.000000 118.000000 118.000000 
v -175.000000 54.000000 176.000000 
v 6.000000 33.000000 225.000000 
v 6.000000 33.000000 225.000000 
v 6.000000 132.000000 133.000000 
v -90.000000 118.000000 118.000000 
v 6.000000 132.000000 133.000000 
v 6.000000 33.000000 225.000000 
v 174.000000 19.000000 173.000000 
v 174.000000 19.000000 173.000000 
v 104.000000 116.000000 97.000000 
v 6.000000 132.000000 133.000000 
v 104.000000 116.000000 97.000000 
v 174.000000 19.000000 173.000000 
v 248.000000 28.000000 3.000000 
v 248.000000 28.000000 3.000000 
v 142.000000 119.000000 5.000000 
v 104.000000 116.000000 97.000000 
v -64.000000 -193.000000 -61.000000 
v -104.000000 123.000000 -119.000000 
v -151.000000 125.000000 -8.000000 
v -151.000000 125.000000 -8.000000 
v -83.000000 -193.000000 1.000000 
v -64.000000 -193.000000 -61.000000 
v 5.000000 -188.000000 -90.000000 
v 8.000000 120.000000 -169.000000 
v -104.000000 123.000000 -119.000000 
v -104.000000 123.000000 -119.000000 
v -64.000000 -193.000000 -61.000000 
v 5.000000 -188.000000 -90.000000 
v 88.000000 -195.000000 1.000000 
v 142.000000 119.000000 5.000000 
v 126.000000 108.000000 -114.000000 
v 126.000000 108.000000 -114.000000 
v 70.000000 -192.000000 -62.000000 
v 88.000000 -195.000000 1.000000 
v 70.000000 -192.000000 -62.000000 
v 126.000000 108.000000 -114.000000 
v 8.000000 120.000000 -169.000000 
v 8.000000 120.000000 -169.000000 
v 5.000000 -188.000000 -90.000000 
v 70.000000 -192.000000 -62.000000 
v -83.000000 -193.000000 1.000000 
v -151.000000 125.000000 -8.000000 
v -90.000000 118.000000 118.000000 
v -90.000000 118.000000 118.000000 
v -45.000000 -193.000000 59.000000 
v -83.000000 -193.000000 1.000000 
v -45.000000 -193.000000 59.000000 
v -90.000000 118.000000 118.000000 
v 6.000000 132.000000 133.000000 
v 6.000000 132.000000 133.000000 
v 10.000000 -192.000000 72.000000 
v -45.000000 -193.000000 59.000000 
v 10.000000 -192.000000 72.000000 
v 6.000000 132.000000 133.000000 
v 104.000000 116.000000 97.000000 
v 104.000000 116.000000 97.000000 
v 73.000000 -200.000000 55.000000 
v 10.000000 -192.000000 72.000000 
v 73.000000 -200.000000 55.000000 
v 104.000000 116.000000 97.000000 
v 142.000000 119.000000 5.000000 
v 142.000000 119.000000 5.000000 
v 88.000000 -195.000000 1.000000 
v 73.000000 -200.000000 55.000000 
vn 0.054199 0.832520 -0.551025 
vn -0.075928 0.981201 -0.177002 
vn -0.240479 0.842285 -0.481934 
vn -0.075928 0.981201 -0.177002 
vn 0.054199 0.832520 -0.551025 
vn 0.003418 0.983643 -0.179932 
vn 0.260498 0.941162 -0.214600 
vn 0.003418 0.983643 -0.179932 
vn 0.054199 0.832520 -0.551025 
vn 0.003418 0.983643 -0.179932 
vn 0.260498 0.941162 -0.214600 
vn 0.074219 0.982910 -0.167480 
vn -0.543701 0.833984 -0.091797 
vn -0.223389 0.956055 -0.188721 
vn -0.521729 0.843262 0.127930 
vn -0.223389 0.956055 -0.188721 
vn -0.543701 0.833984 -0.091797 
vn -0.240479 0.842285 -0.481934 
vn 0.012451 0.998291 0.053467 
vn 0.555908 0.613770 0.560303 
vn 0.600586 0.768555 -0.218994 
vn 0.555908 0.613770 0.560303 
vn 0.012451 0.998291 0.053467 
vn 0.047119 0.692383 0.719727 
vn -0.659180 0.739258 0.135498 
vn 0.047119 0.692383 0.719727 
vn 0.012451 0.998291 0.053467 
vn 0.047119 0.692383 0.719727 
vn -0.659180 0.739258 0.135498 
vn -0.462158 0.480957 0.744873 
vn 0.103516 0.993652 0.037354 
vn 0.260498 0.941162 -0.214600 
vn 0.390381 0.904297 0.172119 
vn 0.260498 0.941162 -0.214600 
vn 0.103516 0.993652 0.037354 
vn 0.134766 0.985107 -0.105469 
vn -0.385254 0.798340 0.462646 
vn -0.521729 0.843262 0.127930 
vn -0.516357 0.715088 0.470703 
vn -0.521729 0.843262 0.127930 
vn -0.385254 0.798340 0.462646 
vn -0.543701 0.833984 -0.091797 
vn -0.008545 0.694336 -0.719482 
vn 0.600586 0.768555 -0.218994 
vn 0.309570 0.447754 -0.838623 
vn 0.600586 0.768555 -0.218994 
vn -0.008545 0.694336 -0.719482 
vn 0.012451 0.998291 0.053467 
vn -0.554443 0.637695 -0.534424 
vn 0.012451 0.998291 0.053467 
vn -0.008545 0.694336 -0.719482 
vn 0.012451 0.998291 0.053467 
vn -0.554443 0.637695 -0.534424 
vn -0.659180 0.739258 0.135498 
vn 0.015869 0.999756 -0.006836 
vn 0.390381 0.904297 0.172119 
vn 0.237793 0.907715 0.344971 
vn 0.390381 0.904297 0.172119 
vn 0.015869 0.999756 -0.006836 
vn 0.103516 0.993652 0.037354 
vn -0.002930 0.976807 0.213623 
vn -0.385254 0.798340 0.462646 
vn -0.353271 0.626465 0.694336 
vn -0.385254 0.798340 0.462646 
vn -0.002930 0.976807 0.213623 
vn 0.034912 0.895752 0.442627 
vn 0.011963 0.993408 -0.113770 
vn 0.034912 0.895752 0.442627 
vn -0.002930 0.976807 0.213623 
vn 0.034912 0.895752 0.442627 
vn 0.011963 0.993408 -0.113770 
vn 0.237793 0.907715 0.344971 
vn -0.516357 0.715088 0.470703 
vn -0.353271 0.626465 0.694336 
vn -0.385254 0.798340 0.462646 
vn -0.075928 0.981201 -0.177002 
vn -0.223389 0.956055 -0.188721 
vn -0.240479 0.842285 -0.481934 
vn 0.134766 0.985107 -0.105469 
vn 0.074219 0.982910 -0.167480 
vn 0.260498 0.941162 -0.214600 
vn 0.015869 0.999756 -0.006836 
vn 0.237793 0.907715 0.344971 
vn 0.011963 0.993408 -0.113770 
vn -0.165039 0.969727 0.179688 
vn 0.054199 0.832520 -0.551025 
vn -0.240479 0.842285 -0.481934 
vn -0.240479 0.842285 -0.481934 
vn -0.008057 0.950439 0.310303 
vn -0.165039 0.969727 0.179688 
vn -0.402100 0.905518 -0.134521 
vn 0.260498 0.941162 -0.214600 
vn 0.054199 0.832520 -0.551025 
vn 0.054199 0.832520 -0.551025 
vn -0.165039 0.969727 0.179688 
vn -0.402100 0.905518 -0.134521 
vn -0.008057 0.950439 0.310303 
vn -0.240479 0.842285 -0.481934 
vn -0.543701 0.833984 -0.091797 
vn -0.543701 0.833984 -0.091797 
vn 0.309814 0.920166 0.238037 
vn -0.008057 0.950439 0.310303 
vn -0.301025 0.921875 -0.242920 
vn 0.390381 0.904297 0.172119 
vn 0.260498 0.941162 -0.214600 
vn 0.260498 0.941162 -0.214600 
vn -0.402100 0.905518 -0.134521 
vn -0.301025 0.921875 -0.242920 
vn 0.309814 0.920166 0.238037 
vn -0.543701 0.833984 -0.091797 
vn -0.385254 0.798340 0.462646 
vn -0.385254 0.798340 0.462646 
vn 0.361328 0.930664 -0.055908 
vn 0.309814 0.920166 0.238037 
vn 0.361328 0.930664 -0.055908 
vn -0.385254 0.798340 0.462646 
vn 0.034912 0.895752 0.442627 
vn 0.034912 0.895752 0.442627 
vn 0.197021 0.949951 -0.241455 
vn 0.361328 0.930664 -0.055908 
vn 0.197021 0.949951 -0.241455 
vn 0.034912 0.895752 0.442627 
vn 0.237793 0.907715 0.344971 
vn 0.237793 0.907715 0.344971 
vn 0.136230 0.926758 -0.349365 
vn 0.197021 0.949951 -0.241455 
vn 0.136230 0.926758 -0.349365 
vn 0.237793 0.907715 0.344971 
vn 0.390381 0.904297 0.172119 
vn 0.390381 0.904297 0.172119 
vn -0.301025 0.921875 -0.242920 
vn 0.136230 0.926758 -0.349365 
vn 0.555908 0.613770 0.560303 
vn -0.008057 0.950439 0.310303 
vn 0.309814 0.920166 0.238037 
vn 0.309814 0.920166 0.238037 
vn 0.600586 0.768555 -0.218994 
vn 0.555908 0.613770 0.560303 
vn 0.047119 0.692383 0.719727 
vn -0.165039 0.969727 0.179688 
vn -0.008057 0.950439 0.310303 
vn -0.008057 0.950439 0.310303 
vn 0.555908 0.613770 0.560303 
vn 0.047119 0.692383 0.719727 
vn -0.659180 0.739258 0.135498 
vn -0.301025 0.921875 -0.242920 
vn -0.402100 0.905518 -0.134521 
vn -0.402100 0.905518 -0.134521 
vn -0.462158 0.480957 0.744873 
vn -0.659180 0.739258 0.135498 
vn -0.462158 0.480957 0.744873 
vn -0.402100 0.905518 -0.134521 
vn -0.165039 0.969727 0.179688 
vn -0.165039 0.969727 0.179688 
vn 0.047119 0.692383 0.719727 
vn -0.462158 0.480957 0.744873 
vn 0.600586 0.768555 -0.218994 
vn 0.309814 0.920166 0.238037 
vn 0.361328 0.930664 -0.055908 
vn 0.361328 0.930664 -0.055908 
vn 0.309570 0.447754 -0.838623 
vn 0.600586 0.768555 -0.218994 
vn 0.309570 0.447754 -0.838623 
vn 0.361328 0.930664 -0.055908 
vn 0.197021 0.949951 -0.241455 
vn 0.197021 0.949951 -0.241455 
vn -0.008545 0.694336 -0.719482 
vn 0.309570 0.447754 -0.838623 
vn -0.008545 0.694336 -0.719482 
vn 0.197021 0.949951 -0.241455 
vn 0.136230 0.926758 -0.349365 
vn 0.136230 0.926758 -0.349365 
vn -0.554443 0.637695 -0.534424 
vn -0.008545 0.694336 -0.719482 
vn -0.554443 0.637695 -0.534424 
vn 0.136230 0.926758 -0.349365 
vn -0.301025 0.921875 -0.242920 
vn -0.301025 0.921875 -0.242920 
vn -0.659180 0.739258 0.135498 
vn -0.554443 0.637695 -0.534424 
vt 1.000000 0.196850 
vt 0.322835 0.125984 
vt 0.346457 0.385827 
vt 0.322835 0.125984 
vt 1.000000 0.196850 
vt 1.000000 -0.007874 
vt 0.519685 0.433071 
vt 0.000000 -0.007874 
vt 0.000000 0.314961 
vt 0.000000 -0.007874 
vt 0.519685 0.433071 
vt 0.535433 0.007874 
vt 0.244094 1.000000 
vt 0.062992 0.409449 
vt 0.000000 1.000000 
vt 0.062992 0.409449 
vt 0.244094 1.000000 
vt 0.346457 0.385827 
vt 1.000000 1.000000 
vt 0.897638 0.866142 
vt 0.850394 1.000000 
vt 0.897638 0.866142 
vt 1.000000 1.000000 
vt 1.000000 0.850394 
vt 0.196850 1.000000 
vt 0.000000 0.850394 
vt 0.000000 1.000000 
vt 0.000000 0.850394 
vt 0.196850 1.000000 
vt 0.110236 0.858268 
vt 1.000000 1.000000 
vt 0.519685 0.433071 
vt 0.590551 1.000000 
vt 0.519685 0.433071 
vt 1.000000 1.000000 
vt 0.968504 0.480315 
vt 0.401575 0.598425 
vt 0.000000 -0.007874 
vt 0.078740 0.527559 
vt 0.000000 -0.007874 
vt 0.401575 0.598425 
vt 0.314961 -0.007874 
vt 1.000000 0.141732 
vt 0.850394 -0.007874 
vt 0.866142 0.133858 
vt 0.850394 -0.007874 
vt 1.000000 0.141732 
vt 1.000000 -0.007874 
vt 0.173228 0.125984 
vt 0.000000 -0.007874 
vt 0.000000 0.173228 
vt 0.000000 -0.007874 
vt 0.173228 0.125984 
vt 0.196850 -0.007874 
vt 0.921260 0.629921 
vt 0.606299 -0.007874 
vt 0.433071 0.692913 
vt 0.606299 -0.007874 
vt 0.921260 0.629921 
vt 1.000000 -0.007874 
vt 1.000000 1.000000 
vt 0.401575 0.598425 
vt 0.362205 0.842520 
vt 0.401575 0.598425 
vt 1.000000 1.000000 
vt 1.000000 0.787402 
vt 0.527559 0.960630 
vt 0.000000 0.779528 
vt 0.000000 1.000000 
vt 0.000000 0.779528 
vt 0.527559 0.960630 
vt 0.433071 0.692913 
vt 0.078740 0.527559 
vt 0.362205 0.842520 
vt 0.401575 0.598425 
vt 0.322835 0.125984 
vt 0.062992 0.409449 
vt 0.346457 0.385827 
vt 0.968504 0.480315 
vt 0.535433 0.007874 
vt 0.519685 0.433071 
vt 0.921260 0.629921 
vt 0.433071 0.692913 
vt 0.527559 0.960630 
vt 1.000000 0.448819 
vt 1.000000 0.196850 
vt 0.346457 0.385827 
vt 0.346457 0.385827 
vt 0.653543 0.606299 
vt 1.000000 0.448819 
vt 0.433071 0.511811 
vt 0.519685 0.433071 
vt 0.000000 0.314961 
vt 0.000000 0.314961 
vt 0.000000 0.425197 
vt 0.433071 0.511811 
vt 0.653543 0.606299 
vt 0.346457 0.385827 
vt 0.244094 1.000000 
vt 0.244094 1.000000 
vt 0.598425 1.000000 
vt 0.653543 0.606299 
vt 0.496063 1.000000 
vt 0.590551 1.000000 
vt 0.519685 0.433071 
vt 0.519685 0.433071 
vt 0.433071 0.511811 
vt 0.496063 1.000000 
vt 0.598425 -0.007874 
vt 0.314961 -0.007874 
vt 0.401575 0.598425 
vt 0.401575 0.598425 
vt 0.677165 0.354331 
vt 0.598425 -0.007874 
vt 0.677165 0.354331 
vt 0.401575 0.598425 
vt 1.000000 0.787402 
vt 1.000000 0.787402 
vt 1.000000 0.346457 
vt 0.677165 0.354331 
vt 0.000000 0.496063 
vt 0.000000 0.779528 
vt 0.433071 0.692913 
vt 0.433071 0.692913 
vt 0.330709 0.488189 
vt 0.000000 0.496063 
vt 0.330709 0.488189 
vt 0.433071 0.692913 
vt 0.606299 -0.007874 
vt 0.606299 -0.007874 
vt 0.488189 -0.007874 
vt 0.330709 0.488189 
vt 0.897638 0.866142 
vt 0.653543 0.606299 
vt 0.598425 1.000000 
vt 0.598425 1.000000 
vt 0.850394 1.000000 
vt 0.897638 0.866142 
vt 1.000000 0.850394 
vt 1.000000 0.448819 
vt 0.653543 0.606299 
vt 0.653543 0.606299 
vt 0.897638 0.866142 
vt 1.000000 0.850394 
vt 0.196850 1.000000 
vt 0.496063 1.000000 
vt 0.433071 0.511811 
vt 0.433071 0.511811 
vt 0.110236 0.858268 
vt 0.196850 1.000000 
vt 0.110236 0.858268 
vt 0.433071 0.511811 
vt 0.000000 0.425197 
vt 0.000000 0.425197 
vt 0.000000 0.850394 
vt 0.110236 0.858268 
vt 0.850394 -0.007874 
vt 0.598425 -0.007874 
vt 0.677165 0.354331 
vt 0.677165 0.354331 
vt 0.866142 0.133858 
vt 0.850394 -0.007874 
vt 0.866142 0.133858 
vt 0.677165 0.354331 
vt 1.000000 0.346457 
vt 1.000000 0.346457 
vt 1.000000 0.141732 
vt 0.866142 0.133858 
vt 0.000000 0.173228 
vt 0.000000 0.496063 
vt 0.330709 0.488189 
vt 0.330709 0.488189 
vt 0.173228 0.125984 
vt 0.000000 0.173228 
vt 0.173228 0.125984 
vt 0.330709 0.488189 
vt 0.488189 -0.007874 
vt 0.488189 -0.007874 
vt 0.196850 -0.007874 
vt 0.173228 0.125984 
f 1/1/1 2/2/2 3/3/3
f 4/4/4 5/5/5 6/6/6
f 7/7/7 8/8/8 9/9/9
f 10/10/10 11/11/11 12/12/12
f 13/13/13 14/14/14 15/15/15
f 16/16/16 17/17/17 18/18/18
f 19/19/19 20/20/20 21/21/21
f 22/22/22 23/23/23 24/24/24
f 25/25/25 26/26/26 27/27/27
f 28/28/28 29/29/29 30/30/30
f 31/31/31 32/32/32 33/33/33
f 34/34/34 35/35/35 36/36/36
f 37/37/37 38/38/38 39/39/39
f 40/40/40 41/41/41 42/42/42
f 43/43/43 44/44/44 45/45/45
f 46/46/46 47/47/47 48/48/48
f 49/49/49 50/50/50 51/51/51
f 52/52/52 53/53/53 54/54/54
f 55/55/55 56/56/56 57/57/57
f 58/58/58 59/59/59 60/60/60
f 61/61/61 62/62/62 63/63/63
f 64/64/64 65/65/65 66/66/66
f 67/67/67 68/68/68 69/69/69
f 70/70/70 71/71/71 72/72/72
f 73/73/73 74/74/74 75/75/75
f 76/76/76 77/77/77 78/78/78
f 79/79/79 80/80/80 81/81/81
f 82/82/82 83/83/83 84/84/84
f 85/85/85 86/86/86 87/87/87
f 88/88/88 89/89/89 90/90/90
f 91/91/91 92/92/92 93/93/93
f 94/94/94 95/95/95 96/96/96
f 97/97/97 98/98/98 99/99/99
f 100/100/100 101/101/101 102/102/102
f 103/103/103 104/104/104 105/105/105
f 106/106/106 107/107/107 108/108/108
f 109/109/109 110/110/110 111/111/111
f 112/112/112 113/113/113 114/114/114
f 115/115/115 116/116/116 117/117/117
f 118/118/118 119/119/119 120/120/120
f 121/121/121 122/122/122 123/123/123
f 124/124/124 125/125/125 126/126/126
f 127/127/127 128/128/128 129/129/129
f 130/130/130 131/131/131 132/132/132
f 133/133/133 134/134/134 135/135/135
f 136/136/136 137/137/137 138/138/138
f 139/139/139 140/140/140 141/141/141
f 142/142/142 143/143/143 144/144/144
f 145/145/145 146/146/146 147/147/147
f 148/148/148 149/149/149 150/150/150
f 151/151/151 152/152/152 153/153/153
f 154/154/154 155/155/155 156/156/156
f 157/157/157 158/158/158 159/159/159
f 160/160/160 161/161/161 162/162/162
f 163/163/163 164/164/164 165/165/165
f 166/166/166 167/167/167 168/168/168
f 169/169/169 170/170/170 171/171/171
f 172/172/172 173/173/173 174/174/174
f 175/175/175 176/176/176 177/177/177
f 178/178/178 179/179/179 180/180/180
