v -7.000000 0.000000 0.000000 
v -1.000000 12.000000 4.000000 
v -4.000000 12.000000 0.000000 
v -7.000000 0.000000 0.000000 
v -2.000000 0.000000 6.000000 
v -1.000000 12.000000 4.000000 
v -2.000000 0.000000 6.000000 
v 3.000000 12.000000 2.000000 
v -1.000000 12.000000 4.000000 
v -2.000000 0.000000 6.000000 
v 5.000000 0.000000 4.000000 
v 3.000000 12.000000 2.000000 
v 5.000000 0.000000 4.000000 
v 3.000000 12.000000 -2.000000 
v 3.000000 12.000000 2.000000 
v 5.000000 0.000000 4.000000 
v 5.000000 0.000000 -4.000000 
v 3.000000 12.000000 -2.000000 
v 5.000000 0.000000 -4.000000 
v -1.000000 12.000000 -4.000000 
v 3.000000 12.000000 -2.000000 
v 5.000000 0.000000 -4.000000 
v -2.000000 0.000000 -6.000000 
v -1.000000 12.000000 -4.000000 
v -2.000000 0.000000 -6.000000 
v -4.000000 12.000000 0.000000 
v -1.000000 12.000000 -4.000000 
v -2.000000 0.000000 -6.000000 
v -7.000000 0.000000 0.000000 
v -4.000000 12.000000 0.000000 
v -4.000000 12.000000 0.000000 
v -1.000000 12.000000 4.000000 
v 0.000000 25.000000 0.000000 
v -1.000000 12.000000 4.000000 
v 3.000000 12.000000 2.000000 
v 0.000000 25.000000 0.000000 
v 3.000000 12.000000 2.000000 
v 3.000000 12.000000 -2.000000 
v 0.000000 25.000000 0.000000 
v 3.000000 12.000000 -2.000000 
v -1.000000 12.000000 -4.000000 
v 0.000000 25.000000 0.000000 
v -1.000000 12.000000 -4.000000 
v -4.000000 12.000000 0.000000 
v 0.000000 25.000000 0.000000 
v 69.000000 0.000000 0.000000 
v 74.000000 12.000000 4.000000 
v 71.000000 12.000000 0.000000 
v 69.000000 0.000000 0.000000 
v 74.000000 0.000000 6.000000 
v 74.000000 12.000000 4.000000 
v 74.000000 0.000000 6.000000 
v 79.000000 12.000000 2.000000 
v 74.000000 12.000000 4.000000 
v 74.000000 0.000000 6.000000 
v 81.000000 0.000000 4.000000 
v 79.000000 12.000000 2.000000 
v 81.000000 0.000000 4.000000 
v 79.000000 12.000000 -2.000000 
v 79.000000 12.000000 2.000000 
v 81.000000 0.000000 4.000000 
v 81.000000 0.000000 -4.000000 
v 79.000000 12.000000 -2.000000 
v 81.000000 0.000000 -4.000000 
v 74.000000 12.000000 -4.000000 
v 79.000000 12.000000 -2.000000 
v 81.000000 0.000000 -4.000000 
v 74.000000 0.000000 -6.000000 
v 74.000000 12.000000 -4.000000 
v 74.000000 0.000000 -6.000000 
v 71.000000 12.000000 0.000000 
v 74.000000 12.000000 -4.000000 
v 74.000000 0.000000 -6.000000 
v 69.000000 0.000000 0.000000 
v 71.000000 12.000000 0.000000 
v 71.000000 12.000000 0.000000 
v 74.000000 12.000000 4.000000 
v 76.000000 25.000000 0.000000 
v 74.000000 12.000000 4.000000 
v 79.000000 12.000000 2.000000 
v 76.000000 25.000000 0.000000 
v 79.000000 12.000000 2.000000 
v 79.000000 12.000000 -2.000000 
v 76.000000 25.000000 0.000000 
v 79.000000 12.000000 -2.000000 
v 74.000000 12.000000 -4.000000 
v 76.000000 25.000000 0.000000 
v 74.000000 12.000000 -4.000000 
v 71.000000 12.000000 0.000000 
v 76.000000 25.000000 0.000000 
vn -0.930664 0.287842 0.225342 
vn -0.415283 0.359375 0.835449 
vn -0.922852 0.359375 -0.136719 
vn -0.930664 0.287842 0.225342 
vn -0.072998 0.287842 0.954834 
vn -0.415283 0.359375 0.835449 
vn -0.072998 0.287842 0.954834 
vn 0.666260 0.359375 0.653076 
vn -0.415283 0.359375 0.835449 
vn -0.072998 0.287842 0.954834 
vn 0.885254 0.287842 0.364502 
vn 0.666260 0.359375 0.653076 
vn 0.885254 0.287842 0.364502 
vn 0.827148 0.359375 -0.431885 
vn 0.666260 0.359375 0.653076 
vn 0.885254 0.287842 0.364502 
vn 0.620361 0.287842 -0.729248 
vn 0.827148 0.359375 -0.431885 
vn 0.620361 0.287842 -0.729248 
vn -0.155029 0.359375 -0.920166 
vn 0.827148 0.359375 -0.431885 
vn 0.620361 0.287842 -0.729248 
vn -0.501953 0.287842 -0.815430 
vn -0.155029 0.359375 -0.920166 
vn -0.501953 0.287842 -0.815430 
vn -0.922852 0.359375 -0.136719 
vn -0.155029 0.359375 -0.920166 
vn -0.501953 0.287842 -0.815430 
vn -0.930664 0.287842 0.225342 
vn -0.922852 0.359375 -0.136719 
vn -0.922852 0.359375 -0.136719 
vn -0.415283 0.359375 0.835449 
vn 0.000000 1.000000 0.000000 
vn -0.415283 0.359375 0.835449 
vn 0.666260 0.359375 0.653076 
vn 0.000000 1.000000 0.000000 
vn 0.666260 0.359375 0.653076 
vn 0.827148 0.359375 -0.431885 
vn 0.000000 1.000000 0.000000 
vn 0.827148 0.359375 -0.431885 
vn -0.155029 0.359375 -0.920166 
vn 0.000000 1.000000 0.000000 
vn -0.155029 0.359375 -0.920166 
vn -0.922852 0.359375 -0.136719 
vn 0.000000 1.000000 0.000000 
vn -0.930664 0.287842 0.225342 
vn -0.415283 0.359375 0.835449 
vn -0.922852 0.359375 -0.136719 
vn -0.930664 0.287842 0.225342 
vn -0.072998 0.287842 0.954834 
vn -0.415283 0.359375 0.835449 
vn -0.072998 0.287842 0.954834 
vn 0.666260 0.359375 0.653076 
vn -0.415283 0.359375 0.835449 
vn -0.072998 0.287842 0.954834 
vn 0.885254 0.287842 0.364502 
vn 0.666260 0.359375 0.653076 
vn 0.885254 0.287842 0.364502 
vn 0.827148 0.359375 -0.431885 
vn 0.666260 0.359375 0.653076 
vn 0.885254 0.287842 0.364502 
vn 0.620361 0.287842 -0.729248 
vn 0.827148 0.359375 -0.431885 
vn 0.620361 0.287842 -0.729248 
vn -0.155029 0.359375 -0.920166 
vn 0.827148 0.359375 -0.431885 
vn 0.620361 0.287842 -0.729248 
vn -0.501953 0.287842 -0.815430 
vn -0.155029 0.359375 -0.920166 
vn -0.501953 0.287842 -0.815430 
vn -0.922852 0.359375 -0.136719 
vn -0.155029 0.359375 -0.920166 
vn -0.501953 0.287842 -0.815430 
vn -0.930664 0.287842 0.225342 
vn -0.922852 0.359375 -0.136719 
vn -0.922852 0.359375 -0.136719 
vn -0.415283 0.359375 0.835449 
vn 0.000000 1.000000 0.000000 
vn -0.415283 0.359375 0.835449 
vn 0.666260 0.359375 0.653076 
vn 0.000000 1.000000 0.000000 
vn 0.666260 0.359375 0.653076 
vn 0.827148 0.359375 -0.431885 
vn 0.000000 1.000000 0.000000 
vn 0.827148 0.359375 -0.431885 
vn -0.155029 0.359375 -0.920166 
vn 0.000000 1.000000 0.000000 
vn -0.155029 0.359375 -0.920166 
vn -0.922852 0.359375 -0.136719 
vn 0.000000 1.000000 0.000000 
vt 0.362205 0.842520 
vt 0.338583 0.858268 
vt 0.354331 0.842520 
vt 0.362205 0.842520 
vt 0.346457 0.866142 
vt 0.338583 0.858268 
vt 0.346457 0.866142 
vt 0.322835 0.850394 
vt 0.338583 0.858268 
vt 0.346457 0.866142 
vt 0.307087 0.858268 
vt 0.322835 0.850394 
vt 0.307087 0.858268 
vt 0.322835 0.826772 
vt 0.322835 0.850394 
vt 0.307087 0.858268 
vt 0.307087 0.826772 
vt 0.322835 0.826772 
vt 0.307087 0.826772 
vt 0.338583 0.826772 
vt 0.322835 0.826772 
vt 0.307087 0.826772 
vt 0.346457 0.811024 
vt 0.338583 0.826772 
vt 0.346457 0.811024 
vt 0.354331 0.842520 
vt 0.338583 0.826772 
vt 0.346457 0.811024 
vt 0.362205 0.842520 
vt 0.354331 0.842520 
vt 0.354331 0.842520 
vt 0.338583 0.858268 
vt 0.330709 0.842520 
vt 0.338583 0.858268 
vt 0.322835 0.850394 
vt 0.330709 0.842520 
vt 0.322835 0.850394 
vt 0.322835 0.826772 
vt 0.330709 0.842520 
vt 0.322835 0.826772 
vt 0.338583 0.826772 
vt 0.330709 0.842520 
vt 0.338583 0.826772 
vt 0.354331 0.842520 
vt 0.330709 0.842520 
vt 0.362205 0.842520 
vt 0.338583 0.858268 
vt 0.354331 0.842520 
vt 0.362205 0.842520 
vt 0.346457 0.866142 
vt 0.338583 0.858268 
vt 0.346457 0.866142 
vt 0.322835 0.850394 
vt 0.338583 0.858268 
vt 0.346457 0.866142 
vt 0.307087 0.858268 
vt 0.322835 0.850394 
vt 0.307087 0.858268 
vt 0.322835 0.826772 
vt 0.322835 0.850394 
vt 0.307087 0.858268 
vt 0.307087 0.826772 
vt 0.322835 0.826772 
vt 0.307087 0.826772 
vt 0.338583 0.826772 
vt 0.322835 0.826772 
vt 0.307087 0.826772 
vt 0.346457 0.811024 
vt 0.338583 0.826772 
vt 0.346457 0.811024 
vt 0.354331 0.842520 
vt 0.338583 0.826772 
vt 0.346457 0.811024 
vt 0.362205 0.842520 
vt 0.354331 0.842520 
vt 0.354331 0.842520 
vt 0.338583 0.858268 
vt 0.330709 0.842520 
vt 0.338583 0.858268 
vt 0.322835 0.850394 
vt 0.330709 0.842520 
vt 0.322835 0.850394 
vt 0.322835 0.826772 
vt 0.330709 0.842520 
vt 0.322835 0.826772 
vt 0.338583 0.826772 
vt 0.330709 0.842520 
vt 0.338583 0.826772 
vt 0.354331 0.842520 
vt 0.330709 0.842520 
f 1/1/1 2/2/2 3/3/3
f 4/4/4 5/5/5 6/6/6
f 7/7/7 8/8/8 9/9/9
f 10/10/10 11/11/11 12/12/12
f 13/13/13 14/14/14 15/15/15
f 16/16/16 17/17/17 18/18/18
f 19/19/19 20/20/20 21/21/21
f 22/22/22 23/23/23 24/24/24
f 25/25/25 26/26/26 27/27/27
f 28/28/28 29/29/29 30/30/30
f 31/31/31 32/32/32 33/33/33
f 34/34/34 35/35/35 36/36/36
f 37/37/37 38/38/38 39/39/39
f 40/40/40 41/41/41 42/42/42
f 43/43/43 44/44/44 45/45/45
f 46/46/46 47/47/47 48/48/48
f 49/49/49 50/50/50 51/51/51
f 52/52/52 53/53/53 54/54/54
f 55/55/55 56/56/56 57/57/57
f 58/58/58 59/59/59 60/60/60
f 61/61/61 62/62/62 63/63/63
f 64/64/64 65/65/65 66/66/66
f 67/67/67 68/68/68 69/69/69
f 70/70/70 71/71/71 72/72/72
f 73/73/73 74/74/74 75/75/75
f 76/76/76 77/77/77 78/78/78
f 79/79/79 80/80/80 81/81/81
f 82/82/82 83/83/83 84/84/84
f 85/85/85 86/86/86 87/87/87
f 88/88/88 89/89/89 90/90/90
