v 4.000000 0.000000 -5.000000 
v 4.000000 3.000000 -4.000000 
v 4.000000 0.000000 1.000000 
v 4.000000 -3.000000 -4.000000 
v 4.000000 0.000000 -5.000000 
v 4.000000 0.000000 1.000000 
v 4.000000 0.000000 8.000000 
v 4.000000 -3.000000 7.000000 
v 4.000000 0.000000 1.000000 
v 4.000000 3.000000 7.000000 
v 4.000000 0.000000 8.000000 
v 4.000000 0.000000 1.000000 
vn 0.999756 0.000000 -0.001221 
vn 0.999756 -0.000244 -0.000732 
vn 0.999756 0.000000 -0.000732 
vn 0.999756 0.000244 -0.000977 
vn 0.999756 0.000000 -0.001221 
vn 0.999756 0.000000 -0.000732 
vn 0.999756 0.000244 -0.001221 
vn 0.999756 -0.000488 -0.000977 
vn 0.999756 0.000000 -0.000732 
vn 0.999756 0.000732 -0.000488 
vn 0.999756 0.000244 -0.001221 
vn 0.999756 0.000000 -0.000732 
vt 1.000000 1.000000 
vt 0.904762 1.000000 
vt 0.492063 1.000000 
vt 0.079365 1.000000 
vt 0.000000 1.000000 
vt 0.492063 1.000000 
vt 0.492063 1.000000 
vt 0.396825 1.000000 
vt 0.492063 1.000000 
vt 0.587302 1.000000 
vt 0.492063 1.000000 
vt 0.492063 1.000000 
f 1/1/1 2/2/2 3/3/3
f 4/4/4 5/5/5 6/6/6
f 7/7/7 8/8/8 9/9/9
f 10/10/10 11/11/11 12/12/12
