v 28.000000 -2.000000 20.000000 
v 15.000000 11.000000 10.000000 
v 11.000000 -2.000000 18.000000 
v 45.000000 11.000000 1.000000 
v 38.000000 6.000000 -5.000000 
v 24.000000 13.000000 -5.000000 
v 38.000000 6.000000 -5.000000 
v 32.000000 2.000000 -10.000000 
v 24.000000 13.000000 -5.000000 
v 45.000000 11.000000 1.000000 
v 24.000000 13.000000 -5.000000 
v 15.000000 11.000000 10.000000 
v 38.000000 6.000000 -5.000000 
v 36.000000 -4.000000 0.000000 
v 32.000000 2.000000 -10.000000 
v 36.000000 -4.000000 0.000000 
v 33.000000 -7.000000 2.000000 
v 32.000000 2.000000 -10.000000 
v 36.000000 -4.000000 0.000000 
v 41.000000 -5.000000 10.000000 
v 33.000000 -7.000000 2.000000 
v 41.000000 -5.000000 10.000000 
v 28.000000 -2.000000 20.000000 
v 33.000000 -7.000000 2.000000 
v 41.000000 -5.000000 10.000000 
v 47.000000 4.000000 11.000000 
v 28.000000 -2.000000 20.000000 
v 47.000000 4.000000 11.000000 
v 15.000000 11.000000 10.000000 
v 28.000000 -2.000000 20.000000 
v 47.000000 4.000000 11.000000 
v 45.000000 11.000000 1.000000 
v 15.000000 11.000000 10.000000 
v 41.000000 3.000000 -12.000000 
v 38.000000 6.000000 -5.000000 
v 45.000000 11.000000 1.000000 
v 41.000000 3.000000 -12.000000 
v 41.000000 -8.000000 -8.000000 
v 38.000000 6.000000 -5.000000 
v 41.000000 -8.000000 -8.000000 
v 36.000000 -4.000000 0.000000 
v 38.000000 6.000000 -5.000000 
vn 0.336426 -0.332520 0.880859 
vn -0.195801 0.767334 0.610352 
vn -0.270996 0.034668 0.961914 
vn 0.099121 0.967529 -0.231934 
vn -0.237549 0.326904 -0.914551 
vn -0.073975 0.748291 -0.658936 
vn -0.237549 0.326904 -0.914551 
vn 0.450195 -0.002441 -0.892822 
vn -0.073975 0.748291 -0.658936 
vn 0.099121 0.967529 -0.231934 
vn -0.073975 0.748291 -0.658936 
vn -0.195801 0.767334 0.610352 
vn -0.237549 0.326904 -0.914551 
vn 0.067383 -0.901855 -0.426514 
vn 0.450195 -0.002441 -0.892822 
vn 0.067383 -0.901855 -0.426514 
vn 0.735107 -0.652588 -0.183105 
vn 0.450195 -0.002441 -0.892822 
vn 0.067383 -0.901855 -0.426514 
vn 0.449951 -0.740479 0.499023 
vn 0.735107 -0.652588 -0.183105 
vn 0.449951 -0.740479 0.499023 
vn 0.336426 -0.332520 0.880859 
vn 0.735107 -0.652588 -0.183105 
vn 0.449951 -0.740479 0.499023 
vn 0.586670 0.300537 0.751709 
vn 0.336426 -0.332520 0.880859 
vn 0.586670 0.300537 0.751709 
vn -0.195801 0.767334 0.610352 
vn 0.336426 -0.332520 0.880859 
vn 0.586670 0.300537 0.751709 
vn 0.099121 0.967529 -0.231934 
vn -0.195801 0.767334 0.610352 
vn -0.807129 0.528076 -0.263184 
vn -0.237549 0.326904 -0.914551 
vn 0.099121 0.967529 -0.231934 
vn -0.807129 0.528076 -0.263184 
vn -0.809326 -0.564941 -0.159668 
vn -0.237549 0.326904 -0.914551 
vn -0.809326 -0.564941 -0.159668 
vn 0.067383 -0.901855 -0.426514 
vn -0.237549 0.326904 -0.914551 
vt 0.826772 0.307087 
vt 0.992126 0.307087 
vt 0.826772 0.000000 
vt 0.826772 0.307087 
vt 0.992126 0.307087 
vt 0.826772 0.000000 
vt 0.992126 0.307087 
vt 0.992126 0.000000 
vt 0.826772 0.000000 
vt 0.992126 0.307087 
vt 0.992126 0.000000 
vt 0.826772 0.000000 
vt 0.826772 0.307087 
vt 0.992126 0.307087 
vt 0.826772 0.000000 
vt 0.992126 0.307087 
vt 0.992126 0.000000 
vt 0.826772 0.000000 
vt 0.826772 0.307087 
vt 0.992126 0.307087 
vt 0.826772 0.000000 
vt 0.992126 0.307087 
vt 0.992126 0.000000 
vt 0.826772 0.000000 
vt 0.826772 0.307087 
vt 0.992126 0.307087 
vt 0.826772 0.000000 
vt 0.992126 0.307087 
vt 0.992126 0.000000 
vt 0.826772 0.000000 
vt 0.826772 0.307087 
vt 0.992126 0.307087 
vt 0.826772 0.000000 
vt 0.992126 0.307087 
vt 0.992126 0.000000 
vt 0.826772 0.000000 
vt 0.826772 0.307087 
vt 0.992126 0.307087 
vt 0.826772 0.000000 
vt 0.992126 0.307087 
vt 0.992126 0.000000 
vt 0.826772 0.000000 
f 1/1/1 2/2/2 3/3/3
f 4/4/4 5/5/5 6/6/6
f 7/7/7 8/8/8 9/9/9
f 10/10/10 11/11/11 12/12/12
f 13/13/13 14/14/14 15/15/15
f 16/16/16 17/17/17 18/18/18
f 19/19/19 20/20/20 21/21/21
f 22/22/22 23/23/23 24/24/24
f 25/25/25 26/26/26 27/27/27
f 28/28/28 29/29/29 30/30/30
f 31/31/31 32/32/32 33/33/33
f 34/34/34 35/35/35 36/36/36
f 37/37/37 38/38/38 39/39/39
f 40/40/40 41/41/41 42/42/42
