v 242.000000 497.000000 280.000000 
v 242.000000 497.000000 170.000000 
v -242.000000 497.000000 170.000000 
v -242.000000 497.000000 170.000000 
v -242.000000 497.000000 280.000000 
v 242.000000 497.000000 280.000000 
v 242.000000 497.000000 280.000000 
v 242.000000 408.000000 280.000000 
v 242.000000 408.000000 170.000000 
v 242.000000 408.000000 170.000000 
v 242.000000 497.000000 170.000000 
v 242.000000 497.000000 280.000000 
v -249.000000 9.000000 -252.000000 
v -249.000000 129.000000 -251.000000 
v 236.000000 129.000000 -251.000000 
v -249.000000 9.000000 -252.000000 
v 236.000000 129.000000 -251.000000 
v 236.000000 9.000000 -252.000000 
v 242.000000 408.000000 170.000000 
v 242.000000 411.000000 61.000000 
v -242.000000 411.000000 61.000000 
v -242.000000 497.000000 170.000000 
v 242.000000 497.000000 170.000000 
v 242.000000 408.000000 170.000000 
v 242.000000 408.000000 170.000000 
v -242.000000 411.000000 61.000000 
v -242.000000 411.000000 171.000000 
v -242.000000 411.000000 171.000000 
v -242.000000 497.000000 170.000000 
v 242.000000 408.000000 170.000000 
v 242.000000 411.000000 61.000000 
v 242.000000 408.000000 170.000000 
v 242.000000 322.000000 171.000000 
v 242.000000 322.000000 61.000000 
v 242.000000 411.000000 61.000000 
v 242.000000 322.000000 171.000000 
v 242.000000 320.000000 62.000000 
v 242.000000 323.000000 -46.000000 
v -242.000000 323.000000 -46.000000 
v -242.000000 409.000000 62.000000 
v 242.000000 409.000000 62.000000 
v 242.000000 320.000000 62.000000 
v 242.000000 320.000000 62.000000 
v -242.000000 323.000000 -46.000000 
v -242.000000 323.000000 64.000000 
v -242.000000 323.000000 64.000000 
v -242.000000 409.000000 62.000000 
v 242.000000 320.000000 62.000000 
v 242.000000 323.000000 -46.000000 
v 242.000000 320.000000 62.000000 
v 242.000000 234.000000 64.000000 
v 242.000000 234.000000 -46.000000 
v 242.000000 323.000000 -46.000000 
v 242.000000 234.000000 64.000000 
v 242.000000 234.000000 -46.000000 
v 242.000000 236.000000 -155.000000 
v -242.000000 236.000000 -155.000000 
v -242.000000 322.000000 -46.000000 
v 242.000000 322.000000 -46.000000 
v 242.000000 234.000000 -46.000000 
v 242.000000 234.000000 -46.000000 
v -242.000000 236.000000 -155.000000 
v -242.000000 236.000000 -44.000000 
v -242.000000 236.000000 -44.000000 
v -242.000000 322.000000 -46.000000 
v 242.000000 234.000000 -46.000000 
v 242.000000 236.000000 -155.000000 
v 242.000000 234.000000 -46.000000 
v 242.000000 148.000000 -44.000000 
v 242.000000 148.000000 -155.000000 
v 242.000000 236.000000 -155.000000 
v 242.000000 148.000000 -44.000000 
v 242.000000 147.000000 -158.000000 
v 242.000000 150.000000 -267.000000 
v -242.000000 150.000000 -267.000000 
v -242.000000 236.000000 -158.000000 
v 242.000000 236.000000 -158.000000 
v 242.000000 147.000000 -158.000000 
v 242.000000 147.000000 -158.000000 
v -242.000000 150.000000 -267.000000 
v -242.000000 150.000000 -156.000000 
v -242.000000 150.000000 -156.000000 
v -242.000000 236.000000 -158.000000 
v 242.000000 147.000000 -158.000000 
v 242.000000 150.000000 -267.000000 
v 242.000000 147.000000 -158.000000 
v 242.000000 27.000000 -156.000000 
v 242.000000 27.000000 -267.000000 
v 242.000000 150.000000 -267.000000 
v 242.000000 27.000000 -156.000000 
vn 0.707031 0.707031 0.000000 
vn 0.707031 0.707031 0.000000 
vn 0.000000 1.000000 0.000000 
vn 0.000000 1.000000 0.000000 
vn 0.000000 1.000000 0.000000 
vn 0.707031 0.707031 0.000000 
vn 0.707031 0.707031 0.000000 
vn 1.000000 0.000000 0.000000 
vn 1.000000 0.000000 0.000000 
vn 1.000000 0.000000 0.000000 
vn 0.707031 0.707031 0.000000 
vn 0.707031 0.707031 0.000000 
vn 0.000000 0.010498 -0.999756 
vn 0.000000 0.010498 -0.999756 
vn 0.000000 0.010498 -0.999756 
vn 0.000000 0.010498 -0.999756 
vn 0.000000 0.010498 -0.999756 
vn 0.000000 0.010498 -0.999756 
vn 0.000000 0.705322 -0.708740 
vn 0.000000 0.999756 0.016113 
vn 0.005615 0.999756 0.008057 
vn -0.005371 -0.012695 -0.999756 
vn 0.000000 0.000000 -1.000000 
vn 0.000000 0.705322 -0.708740 
vn 0.000000 0.705322 -0.708740 
vn 0.005615 0.999756 0.008057 
vn 0.000000 0.697998 -0.715820 
vn 0.000000 0.697998 -0.715820 
vn -0.005371 -0.012695 -0.999756 
vn 0.000000 0.705322 -0.708740 
vn 1.000000 0.000000 0.000000 
vn 1.000000 0.000000 0.000000 
vn 1.000000 0.000000 0.000000 
vn 1.000000 0.000000 0.000000 
vn 1.000000 0.000000 0.000000 
vn 1.000000 0.000000 0.000000 
vn 0.000000 0.705322 -0.708740 
vn 0.000000 0.999756 0.016113 
vn 0.005615 0.999756 0.008057 
vn -0.005371 -0.012695 -0.999756 
vn 0.000000 0.000000 -1.000000 
vn 0.000000 0.705322 -0.708740 
vn 0.000000 0.705322 -0.708740 
vn 0.005615 0.999756 0.008057 
vn 0.000000 0.697998 -0.715820 
vn 0.000000 0.697998 -0.715820 
vn -0.005371 -0.012695 -0.999756 
vn 0.000000 0.705322 -0.708740 
vn 1.000000 0.000000 0.000000 
vn 1.000000 0.000000 0.000000 
vn 1.000000 0.000000 0.000000 
vn 1.000000 0.000000 0.000000 
vn 1.000000 0.000000 0.000000 
vn 1.000000 0.000000 0.000000 
vn 0.000000 0.705322 -0.708740 
vn 0.000000 0.999756 0.016113 
vn 0.005615 0.999756 0.008057 
vn -0.005371 -0.012695 -0.999756 
vn 0.000000 0.000000 -1.000000 
vn 0.000000 0.705322 -0.708740 
vn 0.000000 0.705322 -0.708740 
vn 0.005615 0.999756 0.008057 
vn 0.000000 0.697998 -0.715820 
vn 0.000000 0.697998 -0.715820 
vn -0.005371 -0.012695 -0.999756 
vn 0.000000 0.705322 -0.708740 
vn 1.000000 0.000000 0.000000 
vn 1.000000 0.000000 0.000000 
vn 1.000000 0.000000 0.000000 
vn 1.000000 0.000000 0.000000 
vn 1.000000 0.000000 0.000000 
vn 1.000000 0.000000 0.000000 
vn 0.000000 0.705322 -0.708740 
vn 0.000000 0.999756 0.016113 
vn 0.005615 0.999756 0.008057 
vn -0.005371 -0.012695 -0.999756 
vn 0.000000 0.000000 -1.000000 
vn 0.000000 0.705322 -0.708740 
vn 0.000000 0.705322 -0.708740 
vn 0.005615 0.999756 0.008057 
vn 0.000000 0.697998 -0.715820 
vn 0.000000 0.697998 -0.715820 
vn -0.005371 -0.012695 -0.999756 
vn 0.000000 0.705322 -0.708740 
vn 1.000000 0.000000 0.000000 
vn 1.000000 0.000000 0.000000 
vn 1.000000 0.000000 0.000000 
vn 1.000000 0.000000 0.000000 
vn 1.000000 0.000000 0.000000 
vn 1.000000 0.000000 0.000000 
vt 0.000000 0.000000 
vt 0.000000 1.000000 
vt 1.000000 1.000000 
vt 1.000000 1.000000 
vt 1.000000 0.000000 
vt 0.000000 0.000000 
vt 0.000000 -0.032258 
vt 0.000000 1.000000 
vt 1.000000 1.000000 
vt 1.000000 1.000000 
vt 1.000000 -0.032258 
vt 0.000000 -0.032258 
vt 0.000000 0.000000 
vt 0.000000 1.000000 
vt 0.968254 1.000000 
vt 0.000000 0.000000 
vt 0.968254 1.000000 
vt 0.968254 0.000000 
vt 1.000000 0.612903 
vt 1.000000 0.000000 
vt 0.000000 0.000000 
vt 0.000000 1.000000 
vt 0.984127 1.000000 
vt 0.984127 -0.032258 
vt 1.000000 0.612903 
vt 0.000000 0.000000 
vt 0.000000 0.612903 
vt 0.000000 0.000000 
vt 0.000000 1.000000 
vt 0.984127 -0.032258 
vt 0.015873 0.967742 
vt 0.968254 0.967742 
vt 0.984127 0.000000 
vt 0.015873 0.000000 
vt 0.015873 0.967742 
vt 0.984127 0.000000 
vt 0.984127 0.580645 
vt 1.000000 0.000000 
vt 0.000000 0.000000 
vt 0.984127 1.000000 
vt 0.000000 1.000000 
vt 0.000000 -0.032258 
vt 0.984127 0.580645 
vt 0.000000 0.000000 
vt 0.000000 0.612903 
vt 0.984127 0.000000 
vt 0.984127 1.000000 
vt 0.000000 -0.032258 
vt 0.015873 0.967742 
vt 0.968254 0.967742 
vt 0.984127 0.000000 
vt 0.015873 0.000000 
vt 0.015873 0.967742 
vt 0.984127 0.000000 
vt 0.000000 0.774194 
vt 0.000000 0.096774 
vt 1.000000 0.096774 
vt 0.984127 1.000000 
vt 0.000000 1.000000 
vt 0.000000 -0.032258 
vt 0.000000 0.774194 
vt 1.000000 0.096774 
vt 1.000000 0.774194 
vt 0.984127 -0.032258 
vt 0.984127 1.000000 
vt 0.000000 -0.032258 
vt 0.015873 0.967742 
vt 0.968254 0.967742 
vt 0.984127 0.000000 
vt 0.015873 0.000000 
vt 0.015873 0.967742 
vt 0.984127 0.000000 
vt 1.000000 0.612903 
vt 1.000000 0.000000 
vt 0.000000 0.000000 
vt 0.000000 1.000000 
vt 0.984127 1.000000 
vt 0.984127 -0.032258 
vt 1.000000 0.612903 
vt 0.000000 0.000000 
vt 0.000000 0.612903 
vt 0.000000 0.000000 
vt 0.000000 1.000000 
vt 0.984127 -0.032258 
vt 0.015873 0.967742 
vt 0.968254 0.967742 
vt 0.984127 0.000000 
vt 0.015873 0.000000 
vt 0.015873 0.967742 
vt 0.984127 0.000000 
f 1/1/1 2/2/2 3/3/3
f 4/4/4 5/5/5 6/6/6
f 7/7/7 8/8/8 9/9/9
f 10/10/10 11/11/11 12/12/12
f 13/13/13 14/14/14 15/15/15
f 16/16/16 17/17/17 18/18/18
f 19/19/19 20/20/20 21/21/21
f 22/22/22 23/23/23 24/24/24
f 25/25/25 26/26/26 27/27/27
f 28/28/28 29/29/29 30/30/30
f 31/31/31 32/32/32 33/33/33
f 34/34/34 35/35/35 36/36/36
f 37/37/37 38/38/38 39/39/39
f 40/40/40 41/41/41 42/42/42
f 43/43/43 44/44/44 45/45/45
f 46/46/46 47/47/47 48/48/48
f 49/49/49 50/50/50 51/51/51
f 52/52/52 53/53/53 54/54/54
f 55/55/55 56/56/56 57/57/57
f 58/58/58 59/59/59 60/60/60
f 61/61/61 62/62/62 63/63/63
f 64/64/64 65/65/65 66/66/66
f 67/67/67 68/68/68 69/69/69
f 70/70/70 71/71/71 72/72/72
f 73/73/73 74/74/74 75/75/75
f 76/76/76 77/77/77 78/78/78
f 79/79/79 80/80/80 81/81/81
f 82/82/82 83/83/83 84/84/84
f 85/85/85 86/86/86 87/87/87
f 88/88/88 89/89/89 90/90/90
