v 14.000000 3.000000 4.000000 
v 0.000000 -3.000000 8.000000 
v 0.000000 -5.000000 -3.000000 
v 0.000000 -3.000000 8.000000 
v -14.000000 2.000000 5.000000 
v 0.000000 -5.000000 -3.000000 
v -14.000000 2.000000 5.000000 
v -8.000000 3.000000 -6.000000 
v 0.000000 -5.000000 -3.000000 
v -8.000000 3.000000 -6.000000 
v 8.000000 4.000000 -6.000000 
v 0.000000 -5.000000 -3.000000 
v 8.000000 4.000000 -6.000000 
v 14.000000 3.000000 4.000000 
v 0.000000 -5.000000 -3.000000 
v 14.000000 11.000000 8.000000 
v 0.000000 7.000000 14.000000 
v 14.000000 3.000000 4.000000 
v 0.000000 7.000000 14.000000 
v 0.000000 -3.000000 8.000000 
v 14.000000 3.000000 4.000000 
v 0.000000 7.000000 14.000000 
v -14.000000 11.000000 9.000000 
v 0.000000 -3.000000 8.000000 
v -14.000000 11.000000 9.000000 
v -14.000000 2.000000 5.000000 
v 0.000000 -3.000000 8.000000 
v -14.000000 11.000000 9.000000 
v -8.000000 15.000000 0.000000 
v -14.000000 2.000000 5.000000 
v -8.000000 15.000000 0.000000 
v -8.000000 3.000000 -6.000000 
v -14.000000 2.000000 5.000000 
v -8.000000 15.000000 0.000000 
v 8.000000 16.000000 0.000000 
v -8.000000 3.000000 -6.000000 
v 8.000000 16.000000 0.000000 
v 8.000000 4.000000 -6.000000 
v -8.000000 3.000000 -6.000000 
v 8.000000 16.000000 0.000000 
v 14.000000 11.000000 8.000000 
v 8.000000 4.000000 -6.000000 
v 14.000000 11.000000 8.000000 
v 14.000000 3.000000 4.000000 
v 8.000000 4.000000 -6.000000 
v 6.000000 19.000000 10.000000 
v 0.000000 17.000000 14.000000 
v 14.000000 11.000000 8.000000 
v 0.000000 17.000000 14.000000 
v 0.000000 7.000000 14.000000 
v 14.000000 11.000000 8.000000 
v 0.000000 17.000000 14.000000 
v -5.000000 19.000000 10.000000 
v 0.000000 7.000000 14.000000 
v -5.000000 19.000000 10.000000 
v -14.000000 11.000000 9.000000 
v 0.000000 7.000000 14.000000 
v -5.000000 19.000000 10.000000 
v -4.000000 22.000000 4.000000 
v -14.000000 11.000000 9.000000 
v -4.000000 22.000000 4.000000 
v -8.000000 15.000000 0.000000 
v -14.000000 11.000000 9.000000 
v -4.000000 22.000000 4.000000 
v 5.000000 22.000000 4.000000 
v -8.000000 15.000000 0.000000 
v 5.000000 22.000000 4.000000 
v 8.000000 16.000000 0.000000 
v -8.000000 15.000000 0.000000 
v 5.000000 22.000000 4.000000 
v 6.000000 19.000000 10.000000 
v 8.000000 16.000000 0.000000 
v 6.000000 19.000000 10.000000 
v 14.000000 11.000000 8.000000 
v 8.000000 16.000000 0.000000 
v 0.000000 17.000000 14.000000 
v 6.000000 19.000000 10.000000 
v 2.000000 38.000000 13.000000 
v -5.000000 19.000000 10.000000 
v 0.000000 17.000000 14.000000 
v 2.000000 38.000000 13.000000 
v -4.000000 22.000000 4.000000 
v -5.000000 19.000000 10.000000 
v 2.000000 38.000000 13.000000 
v 5.000000 22.000000 4.000000 
v -4.000000 22.000000 4.000000 
v 2.000000 38.000000 13.000000 
v 6.000000 19.000000 10.000000 
v 5.000000 22.000000 4.000000 
v 2.000000 38.000000 13.000000 
vn 0.840332 -0.505859 0.193848 
vn -0.152588 -0.780029 0.606689 
vn 0.000488 -0.911865 -0.410156 
vn -0.152588 -0.780029 0.606689 
vn -0.921387 -0.387451 -0.024414 
vn 0.000488 -0.911865 -0.410156 
vn -0.921387 -0.387451 -0.024414 
vn -0.442139 -0.017822 -0.896484 
vn 0.000488 -0.911865 -0.410156 
vn -0.442139 -0.017822 -0.896484 
vn 0.671631 -0.078125 -0.736572 
vn 0.000488 -0.911865 -0.410156 
vn 0.671631 -0.078125 -0.736572 
vn 0.840332 -0.505859 0.193848 
vn 0.000488 -0.911865 -0.410156 
vn 0.896973 0.251953 0.362793 
vn 0.011963 -0.106201 0.994141 
vn 0.840332 -0.505859 0.193848 
vn 0.011963 -0.106201 0.994141 
vn -0.152588 -0.780029 0.606689 
vn 0.840332 -0.505859 0.193848 
vn 0.011963 -0.106201 0.994141 
vn -0.851074 0.195312 0.487061 
vn -0.152588 -0.780029 0.606689 
vn -0.851074 0.195312 0.487061 
vn -0.921387 -0.387451 -0.024414 
vn -0.152588 -0.780029 0.606689 
vn -0.851074 0.195312 0.487061 
vn -0.573975 0.563232 -0.593994 
vn -0.921387 -0.387451 -0.024414 
vn -0.573975 0.563232 -0.593994 
vn -0.442139 -0.017822 -0.896484 
vn -0.921387 -0.387451 -0.024414 
vn -0.573975 0.563232 -0.593994 
vn 0.562988 0.589844 -0.578369 
vn -0.442139 -0.017822 -0.896484 
vn 0.562988 0.589844 -0.578369 
vn 0.671631 -0.078125 -0.736572 
vn -0.442139 -0.017822 -0.896484 
vn 0.562988 0.589844 -0.578369 
vn 0.896973 0.251953 0.362793 
vn 0.671631 -0.078125 -0.736572 
vn 0.896973 0.251953 0.362793 
vn 0.840332 -0.505859 0.193848 
vn 0.671631 -0.078125 -0.736572 
vn 0.868408 0.358643 0.341797 
vn 0.125977 0.241211 0.962158 
vn 0.896973 0.251953 0.362793 
vn 0.125977 0.241211 0.962158 
vn 0.011963 -0.106201 0.994141 
vn 0.896973 0.251953 0.362793 
vn 0.125977 0.241211 0.962158 
vn -0.720703 0.351562 0.597168 
vn 0.011963 -0.106201 0.994141 
vn -0.720703 0.351562 0.597168 
vn -0.851074 0.195312 0.487061 
vn 0.011963 -0.106201 0.994141 
vn -0.720703 0.351562 0.597168 
vn -0.646484 0.696777 -0.309814 
vn -0.851074 0.195312 0.487061 
vn -0.646484 0.696777 -0.309814 
vn -0.573975 0.563232 -0.593994 
vn -0.851074 0.195312 0.487061 
vn -0.646484 0.696777 -0.309814 
vn 0.494385 0.641602 -0.586182 
vn -0.573975 0.563232 -0.593994 
vn 0.494385 0.641602 -0.586182 
vn 0.562988 0.589844 -0.578369 
vn -0.573975 0.563232 -0.593994 
vn 0.494385 0.641602 -0.586182 
vn 0.868408 0.358643 0.341797 
vn 0.562988 0.589844 -0.578369 
vn 0.868408 0.358643 0.341797 
vn 0.896973 0.251953 0.362793 
vn 0.562988 0.589844 -0.578369 
vn 0.125977 0.241211 0.962158 
vn 0.868408 0.358643 0.341797 
vn 0.065186 0.870361 0.487793 
vn -0.720703 0.351562 0.597168 
vn 0.125977 0.241211 0.962158 
vn 0.065186 0.870361 0.487793 
vn -0.646484 0.696777 -0.309814 
vn -0.720703 0.351562 0.597168 
vn 0.065186 0.870361 0.487793 
vn 0.494385 0.641602 -0.586182 
vn -0.646484 0.696777 -0.309814 
vn 0.065186 0.870361 0.487793 
vn 0.868408 0.358643 0.341797 
vn 0.494385 0.641602 -0.586182 
vn 0.065186 0.870361 0.487793 
vt 0.740157 0.118110 
vt 0.606299 0.125984 
vt 0.574803 0.070866 
vt 0.606299 0.125984 
vt 0.464567 0.165354 
vt 0.574803 0.070866 
vt 0.464567 0.165354 
vt 0.464567 0.133858 
vt 0.574803 0.070866 
vt 0.464567 0.133858 
vt 0.606299 0.125984 
vt 0.574803 0.070866 
vt 0.606299 0.125984 
vt 0.740157 0.118110 
vt 0.574803 0.070866 
vt 0.708661 0.204724 
vt 0.606299 0.173228 
vt 0.740157 0.118110 
vt 0.606299 0.173228 
vt 0.606299 0.125984 
vt 0.740157 0.118110 
vt 0.606299 0.173228 
vt 0.496063 0.188976 
vt 0.606299 0.125984 
vt 0.496063 0.188976 
vt 0.464567 0.165354 
vt 0.606299 0.125984 
vt 0.496063 0.188976 
vt 0.496063 0.188976 
vt 0.464567 0.165354 
vt 0.496063 0.188976 
vt 0.464567 0.133858 
vt 0.464567 0.165354 
vt 0.496063 0.188976 
vt 0.606299 0.181102 
vt 0.464567 0.133858 
vt 0.606299 0.181102 
vt 0.606299 0.125984 
vt 0.464567 0.133858 
vt 0.606299 0.181102 
vt 0.708661 0.204724 
vt 0.606299 0.125984 
vt 0.708661 0.204724 
vt 0.740157 0.118110 
vt 0.606299 0.125984 
vt 0.669291 0.275591 
vt 0.598425 0.236220 
vt 0.708661 0.204724 
vt 0.598425 0.236220 
vt 0.606299 0.173228 
vt 0.708661 0.204724 
vt 0.598425 0.236220 
vt 0.543307 0.259843 
vt 0.606299 0.173228 
vt 0.543307 0.259843 
vt 0.496063 0.188976 
vt 0.606299 0.173228 
vt 0.543307 0.259843 
vt 0.527559 0.259843 
vt 0.496063 0.188976 
vt 0.527559 0.259843 
vt 0.496063 0.188976 
vt 0.496063 0.188976 
vt 0.527559 0.259843 
vt 0.590551 0.236220 
vt 0.496063 0.188976 
vt 0.590551 0.236220 
vt 0.606299 0.181102 
vt 0.496063 0.188976 
vt 0.590551 0.236220 
vt 0.669291 0.275591 
vt 0.606299 0.181102 
vt 0.669291 0.275591 
vt 0.708661 0.204724 
vt 0.606299 0.181102 
vt 0.598425 0.236220 
vt 0.669291 0.275591 
vt 0.629921 0.433071 
vt 0.543307 0.259843 
vt 0.598425 0.236220 
vt 0.629921 0.433071 
vt 0.527559 0.259843 
vt 0.543307 0.259843 
vt 0.629921 0.433071 
vt 0.590551 0.236220 
vt 0.527559 0.259843 
vt 0.629921 0.433071 
vt 0.669291 0.275591 
vt 0.590551 0.236220 
vt 0.629921 0.433071 
f 1/1/1 2/2/2 3/3/3
f 4/4/4 5/5/5 6/6/6
f 7/7/7 8/8/8 9/9/9
f 10/10/10 11/11/11 12/12/12
f 13/13/13 14/14/14 15/15/15
f 16/16/16 17/17/17 18/18/18
f 19/19/19 20/20/20 21/21/21
f 22/22/22 23/23/23 24/24/24
f 25/25/25 26/26/26 27/27/27
f 28/28/28 29/29/29 30/30/30
f 31/31/31 32/32/32 33/33/33
f 34/34/34 35/35/35 36/36/36
f 37/37/37 38/38/38 39/39/39
f 40/40/40 41/41/41 42/42/42
f 43/43/43 44/44/44 45/45/45
f 46/46/46 47/47/47 48/48/48
f 49/49/49 50/50/50 51/51/51
f 52/52/52 53/53/53 54/54/54
f 55/55/55 56/56/56 57/57/57
f 58/58/58 59/59/59 60/60/60
f 61/61/61 62/62/62 63/63/63
f 64/64/64 65/65/65 66/66/66
f 67/67/67 68/68/68 69/69/69
f 70/70/70 71/71/71 72/72/72
f 73/73/73 74/74/74 75/75/75
f 76/76/76 77/77/77 78/78/78
f 79/79/79 80/80/80 81/81/81
f 82/82/82 83/83/83 84/84/84
f 85/85/85 86/86/86 87/87/87
f 88/88/88 89/89/89 90/90/90
