v 6.000000 3.000000 -9.000000 
v 2.000000 11.000000 1.000000 
v 8.000000 11.000000 3.000000 
v 8.000000 11.000000 3.000000 
v 2.000000 11.000000 1.000000 
v 9.000000 2.000000 12.000000 
v 10.000000 3.000000 -9.000000 
v 6.000000 3.000000 -9.000000 
v 8.000000 11.000000 3.000000 
v 6.000000 -10.000000 -7.000000 
v 6.000000 3.000000 -9.000000 
v 10.000000 3.000000 -9.000000 
v 10.000000 -10.000000 -4.000000 
v 6.000000 -10.000000 -7.000000 
v 10.000000 3.000000 -9.000000 
v 10.000000 3.000000 -9.000000 
v 8.000000 11.000000 3.000000 
v 27.000000 11.000000 0.000000 
v 27.000000 3.000000 -14.000000 
v 10.000000 3.000000 -9.000000 
v 27.000000 11.000000 0.000000 
v 27.000000 11.000000 0.000000 
v 8.000000 11.000000 3.000000 
v 27.000000 2.000000 10.000000 
v 10.000000 -10.000000 -4.000000 
v 10.000000 3.000000 -9.000000 
v 27.000000 3.000000 -14.000000 
v 27.000000 -10.000000 -10.000000 
v 10.000000 -10.000000 -4.000000 
v 27.000000 3.000000 -14.000000 
v 8.000000 -9.000000 10.000000 
v 10.000000 -10.000000 -4.000000 
v 27.000000 -10.000000 -10.000000 
v 27.000000 -8.000000 6.000000 
v 8.000000 -9.000000 10.000000 
v 27.000000 -10.000000 -10.000000 
v 9.000000 2.000000 12.000000 
v 8.000000 -9.000000 10.000000 
v 27.000000 -8.000000 6.000000 
v 27.000000 2.000000 10.000000 
v 9.000000 2.000000 12.000000 
v 27.000000 -8.000000 6.000000 
v 8.000000 11.000000 3.000000 
v 9.000000 2.000000 12.000000 
v 27.000000 2.000000 10.000000 
vn -0.741211 0.320312 -0.589600 
vn 0.036377 0.997070 -0.065674 
vn 0.053711 0.998291 0.021484 
vn 0.053711 0.998291 0.021484 
vn 0.036377 0.997070 -0.065674 
vn 0.911621 0.232666 0.338379 
vn -0.871826 0.310303 -0.378418 
vn -0.741211 0.320312 -0.589600 
vn 0.053711 0.998291 0.021484 
vn -0.573975 -0.704834 -0.416504 
vn -0.741211 0.320312 -0.589600 
vn -0.871826 0.310303 -0.378418 
vn -0.553955 -0.781250 -0.287109 
vn -0.573975 -0.704834 -0.416504 
vn -0.871826 0.310303 -0.378418 
vn -0.871826 0.310303 -0.378418 
vn 0.053711 0.998291 0.021484 
vn -0.001465 0.999023 -0.043701 
vn -0.899902 0.305908 -0.310303 
vn -0.871826 0.310303 -0.378418 
vn -0.001465 0.999023 -0.043701 
vn -0.001465 0.999023 -0.043701 
vn 0.053711 0.998291 0.021484 
vn 0.935791 0.195068 0.292725 
vn -0.553955 -0.781250 -0.287109 
vn -0.871826 0.310303 -0.378418 
vn -0.899902 0.305908 -0.310303 
vn -0.510742 -0.796631 -0.322754 
vn -0.553955 -0.781250 -0.287109 
vn -0.899902 0.305908 -0.310303 
vn 0.705078 -0.687012 0.174316 
vn -0.553955 -0.781250 -0.287109 
vn -0.510742 -0.796631 -0.322754 
vn 0.705566 -0.699951 0.109131 
vn 0.705078 -0.687012 0.174316 
vn -0.510742 -0.796631 -0.322754 
vn 0.911621 0.232666 0.338379 
vn 0.705078 -0.687012 0.174316 
vn 0.705566 -0.699951 0.109131 
vn 0.935791 0.195068 0.292725 
vn 0.911621 0.232666 0.338379 
vn 0.705566 -0.699951 0.109131 
vn 0.053711 0.998291 0.021484 
vn 0.911621 0.232666 0.338379 
vn 0.935791 0.195068 0.292725 
vt 0.582677 0.244094 
vt 0.748031 0.244094 
vt 0.748031 0.220472 
vt 0.748031 0.220472 
vt 0.748031 0.244094 
vt 0.582677 0.196850 
vt 0.582677 0.236220 
vt 0.582677 0.244094 
vt 0.748031 0.220472 
vt 0.322835 0.244094 
vt 0.582677 0.244094 
vt 0.582677 0.236220 
vt 0.314961 0.228346 
vt 0.322835 0.244094 
vt 0.582677 0.236220 
vt 0.582677 0.236220 
vt 0.748031 0.220472 
vt 0.748031 0.149606 
vt 0.582677 0.173228 
vt 0.582677 0.236220 
vt 0.748031 0.149606 
vt 0.748031 0.149606 
vt 0.748031 0.220472 
vt 0.582677 0.125984 
vt 0.314961 0.228346 
vt 0.582677 0.236220 
vt 0.582677 0.173228 
vt 0.314961 0.165354 
vt 0.314961 0.228346 
vt 0.582677 0.173228 
vt 0.354331 0.204724 
vt 0.314961 0.228346 
vt 0.314961 0.165354 
vt 0.354331 0.133858 
vt 0.354331 0.204724 
vt 0.314961 0.165354 
vt 0.582677 0.196850 
vt 0.354331 0.204724 
vt 0.354331 0.133858 
vt 0.582677 0.125984 
vt 0.582677 0.196850 
vt 0.354331 0.133858 
vt 0.748031 0.220472 
vt 0.582677 0.196850 
vt 0.582677 0.125984 
f 1/1/1 2/2/2 3/3/3
f 4/4/4 5/5/5 6/6/6
f 7/7/7 8/8/8 9/9/9
f 10/10/10 11/11/11 12/12/12
f 13/13/13 14/14/14 15/15/15
f 16/16/16 17/17/17 18/18/18
f 19/19/19 20/20/20 21/21/21
f 22/22/22 23/23/23 24/24/24
f 25/25/25 26/26/26 27/27/27
f 28/28/28 29/29/29 30/30/30
f 31/31/31 32/32/32 33/33/33
f 34/34/34 35/35/35 36/36/36
f 37/37/37 38/38/38 39/39/39
f 40/40/40 41/41/41 42/42/42
f 43/43/43 44/44/44 45/45/45
