v -32.000000 36.000000 -27.000000 
v -41.000000 32.000000 -5.000000 
v 4.000000 36.000000 -3.000000 
v -9.000000 31.000000 -36.000000 
v -32.000000 36.000000 -27.000000 
v 4.000000 36.000000 -3.000000 
v 18.000000 31.000000 -36.000000 
v -9.000000 31.000000 -36.000000 
v 4.000000 36.000000 -3.000000 
v 42.000000 30.000000 -27.000000 
v 18.000000 31.000000 -36.000000 
v 4.000000 36.000000 -3.000000 
v 49.000000 30.000000 -3.000000 
v 42.000000 30.000000 -27.000000 
v 4.000000 36.000000 -3.000000 
v 43.000000 33.000000 16.000000 
v 49.000000 30.000000 -3.000000 
v 4.000000 36.000000 -3.000000 
v 18.000000 34.000000 28.000000 
v 43.000000 33.000000 16.000000 
v 4.000000 36.000000 -3.000000 
v -9.000000 34.000000 28.000000 
v 18.000000 34.000000 28.000000 
v 4.000000 36.000000 -3.000000 
v -34.000000 32.000000 16.000000 
v -9.000000 34.000000 28.000000 
v 4.000000 36.000000 -3.000000 
v -41.000000 32.000000 -5.000000 
v -34.000000 32.000000 16.000000 
v 4.000000 36.000000 -3.000000 
v -47.000000 23.000000 -39.000000 
v -62.000000 23.000000 -12.000000 
v -41.000000 32.000000 -5.000000 
v -32.000000 36.000000 -27.000000 
v -47.000000 23.000000 -39.000000 
v -41.000000 32.000000 -5.000000 
v -15.000000 19.000000 -55.000000 
v -47.000000 23.000000 -39.000000 
v -32.000000 36.000000 -27.000000 
v -9.000000 31.000000 -36.000000 
v -15.000000 19.000000 -55.000000 
v -32.000000 36.000000 -27.000000 
v 25.000000 19.000000 -52.000000 
v -15.000000 19.000000 -55.000000 
v -9.000000 31.000000 -36.000000 
v 18.000000 31.000000 -36.000000 
v 25.000000 19.000000 -52.000000 
v -9.000000 31.000000 -36.000000 
v 63.000000 18.000000 -39.000000 
v 25.000000 19.000000 -52.000000 
v 18.000000 31.000000 -36.000000 
v 42.000000 30.000000 -27.000000 
v 63.000000 18.000000 -39.000000 
v 18.000000 31.000000 -36.000000 
v 68.000000 18.000000 -3.000000 
v 63.000000 18.000000 -39.000000 
v 42.000000 30.000000 -27.000000 
v 49.000000 30.000000 -3.000000 
v 68.000000 18.000000 -3.000000 
v 42.000000 30.000000 -27.000000 
v 60.000000 18.000000 25.000000 
v 68.000000 18.000000 -3.000000 
v 49.000000 30.000000 -3.000000 
v 43.000000 33.000000 16.000000 
v 60.000000 18.000000 25.000000 
v 49.000000 30.000000 -3.000000 
v 24.000000 19.000000 49.000000 
v 60.000000 18.000000 25.000000 
v 43.000000 33.000000 16.000000 
v 18.000000 34.000000 28.000000 
v 24.000000 19.000000 49.000000 
v 43.000000 33.000000 16.000000 
v -16.000000 18.000000 49.000000 
v 24.000000 19.000000 49.000000 
v 18.000000 34.000000 28.000000 
v -9.000000 34.000000 28.000000 
v -16.000000 18.000000 49.000000 
v 18.000000 34.000000 28.000000 
v -50.000000 23.000000 25.000000 
v -16.000000 18.000000 49.000000 
v -9.000000 34.000000 28.000000 
v -34.000000 32.000000 16.000000 
v -50.000000 23.000000 25.000000 
v -9.000000 34.000000 28.000000 
v -62.000000 23.000000 -12.000000 
v -50.000000 23.000000 25.000000 
v -34.000000 32.000000 16.000000 
v -41.000000 32.000000 -5.000000 
v -62.000000 23.000000 -12.000000 
v -34.000000 32.000000 16.000000 
v -59.000000 0.000000 -49.000000 
v -74.000000 0.000000 -16.000000 
v -62.000000 23.000000 -12.000000 
v -47.000000 23.000000 -39.000000 
v -59.000000 0.000000 -49.000000 
v -62.000000 23.000000 -12.000000 
v -19.000000 0.000000 -64.000000 
v -59.000000 0.000000 -49.000000 
v -47.000000 23.000000 -39.000000 
v -15.000000 19.000000 -55.000000 
v -19.000000 0.000000 -64.000000 
v -47.000000 23.000000 -39.000000 
v 30.000000 0.000000 -63.000000 
v -19.000000 0.000000 -64.000000 
v -15.000000 19.000000 -55.000000 
v 25.000000 19.000000 -52.000000 
v 30.000000 0.000000 -63.000000 
v -15.000000 19.000000 -55.000000 
v 70.000000 0.000000 -39.000000 
v 30.000000 0.000000 -63.000000 
v 25.000000 19.000000 -52.000000 
v 63.000000 18.000000 -39.000000 
v 70.000000 0.000000 -39.000000 
v 25.000000 19.000000 -52.000000 
v 77.000000 0.000000 -3.000000 
v 70.000000 0.000000 -39.000000 
v 63.000000 18.000000 -39.000000 
v 68.000000 18.000000 -3.000000 
v 77.000000 0.000000 -3.000000 
v 63.000000 18.000000 -39.000000 
v 73.000000 0.000000 30.000000 
v 77.000000 0.000000 -3.000000 
v 68.000000 18.000000 -3.000000 
v 60.000000 18.000000 25.000000 
v 73.000000 0.000000 30.000000 
v 68.000000 18.000000 -3.000000 
v 27.000000 0.000000 56.000000 
v 73.000000 0.000000 30.000000 
v 60.000000 18.000000 25.000000 
v 24.000000 19.000000 49.000000 
v 27.000000 0.000000 56.000000 
v 60.000000 18.000000 25.000000 
v -19.000000 0.000000 50.000000 
v 27.000000 0.000000 56.000000 
v 24.000000 19.000000 49.000000 
v -16.000000 18.000000 49.000000 
v -19.000000 0.000000 50.000000 
v 24.000000 19.000000 49.000000 
v -58.000000 0.000000 30.000000 
v -19.000000 0.000000 50.000000 
v -16.000000 18.000000 49.000000 
v -50.000000 23.000000 25.000000 
v -58.000000 0.000000 30.000000 
v -16.000000 18.000000 49.000000 
v -74.000000 0.000000 -16.000000 
v -58.000000 0.000000 30.000000 
v -50.000000 23.000000 25.000000 
v -62.000000 23.000000 -12.000000 
v -74.000000 0.000000 -16.000000 
v -50.000000 23.000000 25.000000 
vn -0.167480 0.944580 -0.281494 
vn -0.322754 0.946289 -0.001221 
vn 0.024902 0.999023 -0.032471 
vn 0.023926 0.910400 -0.412354 
vn -0.167480 0.944580 -0.281494 
vn 0.024902 0.999023 -0.032471 
vn 0.096924 0.916016 -0.388672 
vn 0.023926 0.910400 -0.412354 
vn 0.024902 0.999023 -0.032471 
vn 0.291260 0.939941 -0.177246 
vn 0.096924 0.916016 -0.388672 
vn 0.024902 0.999023 -0.032471 
vn 0.394287 0.918701 -0.010498 
vn 0.291260 0.939941 -0.177246 
vn 0.024902 0.999023 -0.032471 
vn 0.311768 0.921631 0.230225 
vn 0.394287 0.918701 -0.010498 
vn 0.024902 0.999023 -0.032471 
vn 0.074951 0.919678 0.384766 
vn 0.311768 0.921631 0.230225 
vn 0.024902 0.999023 -0.032471 
vn -0.133057 0.930176 0.341553 
vn 0.074951 0.919678 0.384766 
vn 0.024902 0.999023 -0.032471 
vn -0.272461 0.949463 0.155273 
vn -0.133057 0.930176 0.341553 
vn 0.024902 0.999023 -0.032471 
vn -0.322754 0.946289 -0.001221 
vn -0.272461 0.949463 0.155273 
vn 0.024902 0.999023 -0.032471 
vn -0.458008 0.721191 -0.519287 
vn -0.657959 0.749268 -0.073975 
vn -0.322754 0.946289 -0.001221 
vn -0.167480 0.944580 -0.281494 
vn -0.458008 0.721191 -0.519287 
vn -0.322754 0.946289 -0.001221 
vn -0.081299 0.671631 -0.736084 
vn -0.458008 0.721191 -0.519287 
vn -0.167480 0.944580 -0.281494 
vn 0.023926 0.910400 -0.412354 
vn -0.081299 0.671631 -0.736084 
vn -0.167480 0.944580 -0.281494 
vn 0.187988 0.640381 -0.744385 
vn -0.081299 0.671631 -0.736084 
vn 0.023926 0.910400 -0.412354 
vn 0.096924 0.916016 -0.388672 
vn 0.187988 0.640381 -0.744385 
vn 0.023926 0.910400 -0.412354 
vn 0.590332 0.674072 -0.443359 
vn 0.187988 0.640381 -0.744385 
vn 0.096924 0.916016 -0.388672 
vn 0.291260 0.939941 -0.177246 
vn 0.590332 0.674072 -0.443359 
vn 0.096924 0.916016 -0.388672 
vn 0.715820 0.697754 0.020752 
vn 0.590332 0.674072 -0.443359 
vn 0.291260 0.939941 -0.177246 
vn 0.394287 0.918701 -0.010498 
vn 0.715820 0.697754 0.020752 
vn 0.291260 0.939941 -0.177246 
vn 0.572266 0.691895 0.439941 
vn 0.715820 0.697754 0.020752 
vn 0.394287 0.918701 -0.010498 
vn 0.311768 0.921631 0.230225 
vn 0.572266 0.691895 0.439941 
vn 0.394287 0.918701 -0.010498 
vn 0.194580 0.579346 0.791260 
vn 0.572266 0.691895 0.439941 
vn 0.311768 0.921631 0.230225 
vn 0.074951 0.919678 0.384766 
vn 0.194580 0.579346 0.791260 
vn 0.311768 0.921631 0.230225 
vn -0.223877 0.542969 0.809082 
vn 0.194580 0.579346 0.791260 
vn 0.074951 0.919678 0.384766 
vn -0.133057 0.930176 0.341553 
vn -0.223877 0.542969 0.809082 
vn 0.074951 0.919678 0.384766 
vn -0.589111 0.675049 0.443604 
vn -0.223877 0.542969 0.809082 
vn -0.133057 0.930176 0.341553 
vn -0.272461 0.949463 0.155273 
vn -0.589111 0.675049 0.443604 
vn -0.133057 0.930176 0.341553 
vn -0.657959 0.749268 -0.073975 
vn -0.589111 0.675049 0.443604 
vn -0.272461 0.949463 0.155273 
vn -0.322754 0.946289 -0.001221 
vn -0.657959 0.749268 -0.073975 
vn -0.272461 0.949463 0.155273 
vn -0.641602 0.538574 -0.545898 
vn -0.894287 0.441406 0.071777 
vn -0.657959 0.749268 -0.073975 
vn -0.458008 0.721191 -0.519287 
vn -0.641602 0.538574 -0.545898 
vn -0.657959 0.749268 -0.073975 
vn -0.217773 0.471191 -0.854492 
vn -0.641602 0.538574 -0.545898 
vn -0.458008 0.721191 -0.519287 
vn -0.081299 0.671631 -0.736084 
vn -0.217773 0.471191 -0.854492 
vn -0.458008 0.721191 -0.519287 
vn 0.179932 0.472168 -0.862793 
vn -0.217773 0.471191 -0.854492 
vn -0.081299 0.671631 -0.736084 
vn 0.187988 0.640381 -0.744385 
vn 0.179932 0.472168 -0.862793 
vn -0.081299 0.671631 -0.736084 
vn 0.628662 0.366943 -0.685547 
vn 0.179932 0.472168 -0.862793 
vn 0.187988 0.640381 -0.744385 
vn 0.590332 0.674072 -0.443359 
vn 0.628662 0.366943 -0.685547 
vn 0.187988 0.640381 -0.744385 
vn 0.917236 0.393066 -0.062744 
vn 0.628662 0.366943 -0.685547 
vn 0.590332 0.674072 -0.443359 
vn 0.715820 0.697754 0.020752 
vn 0.917236 0.393066 -0.062744 
vn 0.590332 0.674072 -0.443359 
vn 0.754883 0.535400 0.378174 
vn 0.917236 0.393066 -0.062744 
vn 0.715820 0.697754 0.020752 
vn 0.572266 0.691895 0.439941 
vn 0.754883 0.535400 0.378174 
vn 0.715820 0.697754 0.020752 
vn 0.289795 0.437012 0.851318 
vn 0.754883 0.535400 0.378174 
vn 0.572266 0.691895 0.439941 
vn 0.194580 0.579346 0.791260 
vn 0.289795 0.437012 0.851318 
vn 0.572266 0.691895 0.439941 
vn -0.193115 0.193359 0.961670 
vn 0.289795 0.437012 0.851318 
vn 0.194580 0.579346 0.791260 
vn -0.223877 0.542969 0.809082 
vn -0.193115 0.193359 0.961670 
vn 0.194580 0.579346 0.791260 
vn -0.651123 0.300781 0.696533 
vn -0.193115 0.193359 0.961670 
vn -0.223877 0.542969 0.809082 
vn -0.589111 0.675049 0.443604 
vn -0.651123 0.300781 0.696533 
vn -0.223877 0.542969 0.809082 
vn -0.894287 0.441406 0.071777 
vn -0.651123 0.300781 0.696533 
vn -0.589111 0.675049 0.443604 
vn -0.657959 0.749268 -0.073975 
vn -0.894287 0.441406 0.071777 
vn -0.589111 0.675049 0.443604 
vt 0.387097 0.741935 
vt 0.516129 0.774194 
vt 0.516129 0.483871 
vt 0.290323 0.612903 
vt 0.387097 0.741935 
vt 0.516129 0.483871 
vt 0.290323 0.419355 
vt 0.290323 0.612903 
vt 0.516129 0.483871 
vt 0.354839 0.258065 
vt 0.290323 0.419355 
vt 0.516129 0.483871 
vt 0.516129 0.193548 
vt 0.354839 0.258065 
vt 0.516129 0.483871 
vt 0.645161 0.225806 
vt 0.516129 0.193548 
vt 0.516129 0.483871 
vt 0.741935 0.354839 
vt 0.645161 0.225806 
vt 0.516129 0.483871 
vt 0.741935 0.548387 
vt 0.741935 0.354839 
vt 0.516129 0.483871 
vt 0.677419 0.709677 
vt 0.741935 0.548387 
vt 0.516129 0.483871 
vt 0.516129 0.774194 
vt 0.677419 0.709677 
vt 0.516129 0.483871 
vt 0.290323 0.838710 
vt 0.483871 0.903226 
vt 0.516129 0.774194 
vt 0.387097 0.741935 
vt 0.290323 0.838710 
vt 0.516129 0.774194 
vt 0.161290 0.677419 
vt 0.290323 0.838710 
vt 0.387097 0.741935 
vt 0.290323 0.612903 
vt 0.161290 0.677419 
vt 0.387097 0.741935 
vt 0.193548 0.387097 
vt 0.161290 0.677419 
vt 0.290323 0.612903 
vt 0.290323 0.419355 
vt 0.193548 0.387097 
vt 0.290323 0.612903 
vt 0.258065 0.129032 
vt 0.193548 0.387097 
vt 0.290323 0.419355 
vt 0.354839 0.258065 
vt 0.258065 0.129032 
vt 0.290323 0.419355 
vt 0.516129 0.064516 
vt 0.258065 0.129032 
vt 0.354839 0.258065 
vt 0.516129 0.193548 
vt 0.516129 0.064516 
vt 0.354839 0.258065 
vt 0.709677 0.096774 
vt 0.516129 0.064516 
vt 0.516129 0.193548 
vt 0.645161 0.225806 
vt 0.709677 0.096774 
vt 0.516129 0.193548 
vt 0.870968 0.290323 
vt 0.709677 0.096774 
vt 0.645161 0.225806 
vt 0.741935 0.354839 
vt 0.870968 0.290323 
vt 0.645161 0.225806 
vt 0.870968 0.548387 
vt 0.870968 0.290323 
vt 0.741935 0.354839 
vt 0.741935 0.548387 
vt 0.870968 0.548387 
vt 0.741935 0.354839 
vt 0.741935 0.806452 
vt 0.870968 0.548387 
vt 0.741935 0.548387 
vt 0.677419 0.709677 
vt 0.741935 0.806452 
vt 0.741935 0.548387 
vt 0.483871 0.903226 
vt 0.741935 0.806452 
vt 0.677419 0.709677 
vt 0.516129 0.774194 
vt 0.483871 0.903226 
vt 0.677419 0.709677 
vt 0.225806 0.935484 
vt 0.451613 0.967742 
vt 0.483871 0.903226 
vt 0.290323 0.838710 
vt 0.225806 0.935484 
vt 0.483871 0.903226 
vt 0.096774 0.709677 
vt 0.225806 0.935484 
vt 0.290323 0.838710 
vt 0.161290 0.677419 
vt 0.096774 0.709677 
vt 0.290323 0.838710 
vt 0.129032 0.387097 
vt 0.096774 0.709677 
vt 0.161290 0.677419 
vt 0.193548 0.387097 
vt 0.129032 0.387097 
vt 0.161290 0.677419 
vt 0.193548 0.096774 
vt 0.129032 0.387097 
vt 0.193548 0.387097 
vt 0.258065 0.129032 
vt 0.193548 0.096774 
vt 0.193548 0.387097 
vt 0.516129 0.000000 
vt 0.193548 0.096774 
vt 0.258065 0.129032 
vt 0.516129 0.064516 
vt 0.516129 0.000000 
vt 0.258065 0.129032 
vt 0.741935 0.000000 
vt 0.516129 0.000000 
vt 0.516129 0.064516 
vt 0.709677 0.096774 
vt 0.741935 0.000000 
vt 0.516129 0.064516 
vt 0.935484 0.258065 
vt 0.741935 0.000000 
vt 0.709677 0.096774 
vt 0.870968 0.290323 
vt 0.935484 0.258065 
vt 0.709677 0.096774 
vt 0.935484 0.548387 
vt 0.935484 0.258065 
vt 0.870968 0.290323 
vt 0.870968 0.548387 
vt 0.935484 0.548387 
vt 0.870968 0.290323 
vt 0.774194 0.838710 
vt 0.935484 0.548387 
vt 0.870968 0.548387 
vt 0.741935 0.806452 
vt 0.774194 0.838710 
vt 0.870968 0.548387 
vt 0.451613 0.967742 
vt 0.774194 0.838710 
vt 0.741935 0.806452 
vt 0.483871 0.903226 
vt 0.451613 0.967742 
vt 0.741935 0.806452 
f 1/1/1 2/2/2 3/3/3
f 4/4/4 5/5/5 6/6/6
f 7/7/7 8/8/8 9/9/9
f 10/10/10 11/11/11 12/12/12
f 13/13/13 14/14/14 15/15/15
f 16/16/16 17/17/17 18/18/18
f 19/19/19 20/20/20 21/21/21
f 22/22/22 23/23/23 24/24/24
f 25/25/25 26/26/26 27/27/27
f 28/28/28 29/29/29 30/30/30
f 31/31/31 32/32/32 33/33/33
f 34/34/34 35/35/35 36/36/36
f 37/37/37 38/38/38 39/39/39
f 40/40/40 41/41/41 42/42/42
f 43/43/43 44/44/44 45/45/45
f 46/46/46 47/47/47 48/48/48
f 49/49/49 50/50/50 51/51/51
f 52/52/52 53/53/53 54/54/54
f 55/55/55 56/56/56 57/57/57
f 58/58/58 59/59/59 60/60/60
f 61/61/61 62/62/62 63/63/63
f 64/64/64 65/65/65 66/66/66
f 67/67/67 68/68/68 69/69/69
f 70/70/70 71/71/71 72/72/72
f 73/73/73 74/74/74 75/75/75
f 76/76/76 77/77/77 78/78/78
f 79/79/79 80/80/80 81/81/81
f 82/82/82 83/83/83 84/84/84
f 85/85/85 86/86/86 87/87/87
f 88/88/88 89/89/89 90/90/90
f 91/91/91 92/92/92 93/93/93
f 94/94/94 95/95/95 96/96/96
f 97/97/97 98/98/98 99/99/99
f 100/100/100 101/101/101 102/102/102
f 103/103/103 104/104/104 105/105/105
f 106/106/106 107/107/107 108/108/108
f 109/109/109 110/110/110 111/111/111
f 112/112/112 113/113/113 114/114/114
f 115/115/115 116/116/116 117/117/117
f 118/118/118 119/119/119 120/120/120
f 121/121/121 122/122/122 123/123/123
f 124/124/124 125/125/125 126/126/126
f 127/127/127 128/128/128 129/129/129
f 130/130/130 131/131/131 132/132/132
f 133/133/133 134/134/134 135/135/135
f 136/136/136 137/137/137 138/138/138
f 139/139/139 140/140/140 141/141/141
f 142/142/142 143/143/143 144/144/144
f 145/145/145 146/146/146 147/147/147
f 148/148/148 149/149/149 150/150/150
