v 45.000000 16.000000 0.000000 
v 40.000000 16.000000 0.000000 
v 49.000000 1.000000 13.000000 
v 41.000000 1.000000 -15.000000 
v 40.000000 1.000000 -14.000000 
v 45.000000 16.000000 0.000000 
v 40.000000 1.000000 -14.000000 
v 40.000000 16.000000 0.000000 
v 45.000000 16.000000 0.000000 
v 45.000000 -13.000000 0.000000 
v 40.000000 -13.000000 0.000000 
v 41.000000 1.000000 -15.000000 
v 40.000000 -13.000000 0.000000 
v 40.000000 1.000000 -14.000000 
v 41.000000 1.000000 -15.000000 
v 49.000000 1.000000 13.000000 
v 40.000000 1.000000 14.000000 
v 45.000000 -13.000000 0.000000 
v 40.000000 1.000000 14.000000 
v 40.000000 -13.000000 0.000000 
v 45.000000 -13.000000 0.000000 
v 40.000000 16.000000 0.000000 
v 40.000000 1.000000 14.000000 
v 49.000000 1.000000 13.000000 
vn -0.144043 0.988770 0.034912 
vn 0.069580 0.997314 -0.006348 
vn 0.454346 0.002197 0.890625 
vn -0.823730 0.007568 -0.566650 
vn -0.312012 0.018311 -0.949707 
vn -0.144043 0.988770 0.034912 
vn -0.312012 0.018311 -0.949707 
vn 0.069580 0.997314 -0.006348 
vn -0.144043 0.988770 0.034912 
vn -0.114746 -0.992920 0.022705 
vn -0.329834 -0.941895 0.059570 
vn -0.823730 0.007568 -0.566650 
vn -0.329834 -0.941895 0.059570 
vn -0.312012 0.018311 -0.949707 
vn -0.823730 0.007568 -0.566650 
vn 0.454346 0.002197 0.890625 
vn -0.324707 -0.005127 0.945557 
vn -0.114746 -0.992920 0.022705 
vn -0.324707 -0.005127 0.945557 
vn -0.329834 -0.941895 0.059570 
vn -0.114746 -0.992920 0.022705 
vn 0.069580 0.997314 -0.006348 
vn -0.324707 -0.005127 0.945557 
vn 0.454346 0.002197 0.890625 
vt 0.222222 0.111111 
vt 0.222222 0.126984 
vt 0.111111 0.111111 
vt 0.111111 0.111111 
vt 0.111111 0.111111 
vt 0.222222 0.111111 
vt 0.111111 0.111111 
vt 0.222222 0.126984 
vt 0.222222 0.111111 
vt 0.000000 0.111111 
vt 0.000000 0.126984 
vt 0.111111 0.111111 
vt 0.000000 0.126984 
vt 0.111111 0.111111 
vt 0.111111 0.111111 
vt 0.111111 0.111111 
vt 0.111111 0.142857 
vt 0.000000 0.111111 
vt 0.111111 0.142857 
vt 0.000000 0.126984 
vt 0.000000 0.111111 
vt 0.222222 0.126984 
vt 0.111111 0.142857 
vt 0.111111 0.111111 
f 1/1/1 2/2/2 3/3/3
f 4/4/4 5/5/5 6/6/6
f 7/7/7 8/8/8 9/9/9
f 10/10/10 11/11/11 12/12/12
f 13/13/13 14/14/14 15/15/15
f 16/16/16 17/17/17 18/18/18
f 19/19/19 20/20/20 21/21/21
f 22/22/22 23/23/23 24/24/24
