v -217.000000 277.000000 21.000000 
v -217.000000 277.000000 2.000000 
v -217.000000 0.000000 21.000000 
v -217.000000 277.000000 2.000000 
v -217.000000 0.000000 2.000000 
v -217.000000 0.000000 21.000000 
v -217.000000 277.000000 2.000000 
v -198.000000 277.000000 -3.000000 
v -217.000000 0.000000 2.000000 
v -198.000000 277.000000 -3.000000 
v -198.000000 0.000000 -3.000000 
v -217.000000 0.000000 2.000000 
v -198.000000 277.000000 -3.000000 
v -187.000000 277.000000 11.000000 
v -198.000000 0.000000 -3.000000 
v -187.000000 277.000000 11.000000 
v -187.000000 0.000000 11.000000 
v -198.000000 0.000000 -3.000000 
v -198.000000 277.000000 27.000000 
v -187.000000 277.000000 11.000000 
v -203.000000 277.000000 11.000000 
v -217.000000 277.000000 21.000000 
v -198.000000 277.000000 27.000000 
v -203.000000 277.000000 11.000000 
v -217.000000 277.000000 2.000000 
v -217.000000 277.000000 21.000000 
v -203.000000 277.000000 11.000000 
v -198.000000 277.000000 -3.000000 
v -217.000000 277.000000 2.000000 
v -203.000000 277.000000 11.000000 
v -187.000000 277.000000 11.000000 
v -198.000000 277.000000 -3.000000 
v -203.000000 277.000000 11.000000 
v 188.000000 278.000000 21.000000 
v 188.000000 278.000000 1.000000 
v 188.000000 -3.000000 21.000000 
v 188.000000 278.000000 1.000000 
v 188.000000 -3.000000 1.000000 
v 188.000000 -3.000000 21.000000 
v 188.000000 278.000000 1.000000 
v 206.000000 278.000000 -4.000000 
v 188.000000 -3.000000 1.000000 
v 206.000000 278.000000 -4.000000 
v 206.000000 -3.000000 -4.000000 
v 188.000000 -3.000000 1.000000 
v 206.000000 278.000000 -4.000000 
v 218.000000 278.000000 11.000000 
v 206.000000 -3.000000 -4.000000 
v 218.000000 278.000000 11.000000 
v 218.000000 -3.000000 11.000000 
v 206.000000 -3.000000 -4.000000 
v 206.000000 278.000000 27.000000 
v 218.000000 278.000000 11.000000 
v 201.000000 278.000000 11.000000 
v 188.000000 278.000000 21.000000 
v 206.000000 278.000000 27.000000 
v 201.000000 278.000000 11.000000 
v 188.000000 278.000000 1.000000 
v 188.000000 278.000000 21.000000 
v 201.000000 278.000000 11.000000 
v 206.000000 278.000000 -4.000000 
v 188.000000 278.000000 1.000000 
v 201.000000 278.000000 11.000000 
v 218.000000 278.000000 11.000000 
v 206.000000 278.000000 -4.000000 
v 201.000000 278.000000 11.000000 
v -187.000000 277.000000 11.000000 
v -198.000000 277.000000 27.000000 
v -198.000000 0.000000 27.000000 
v -187.000000 0.000000 11.000000 
v -187.000000 277.000000 11.000000 
v -198.000000 0.000000 27.000000 
v 206.000000 278.000000 27.000000 
v 206.000000 0.000000 27.000000 
v 218.000000 -3.000000 11.000000 
v 218.000000 278.000000 11.000000 
v 206.000000 278.000000 27.000000 
v 218.000000 -3.000000 11.000000 
v -198.000000 277.000000 27.000000 
v -217.000000 277.000000 21.000000 
v -217.000000 0.000000 21.000000 
v -198.000000 0.000000 27.000000 
v -198.000000 277.000000 27.000000 
v -217.000000 0.000000 21.000000 
v 206.000000 278.000000 27.000000 
v 188.000000 278.000000 21.000000 
v 188.000000 -3.000000 21.000000 
v 206.000000 0.000000 27.000000 
v 206.000000 278.000000 27.000000 
v 188.000000 -3.000000 21.000000 
vn -0.508789 0.777344 0.369629 
vn -0.721680 0.625000 -0.297119 
vn -0.808838 0.000000 0.587646 
vn -0.721680 0.625000 -0.297119 
vn -0.647705 0.000000 -0.761475 
vn -0.808838 0.000000 0.587646 
vn -0.721680 0.625000 -0.297119 
vn 0.059570 0.625000 -0.778076 
vn -0.647705 0.000000 -0.761475 
vn 0.059570 0.625000 -0.778076 
vn 0.524170 0.000000 -0.851562 
vn -0.647705 0.000000 -0.761475 
vn 0.059570 0.625000 -0.778076 
vn 0.850586 0.525635 0.000000 
vn 0.524170 0.000000 -0.851562 
vn 0.850586 0.525635 0.000000 
vn 1.000000 0.000000 0.000000 
vn 0.524170 0.000000 -0.851562 
vn 0.059570 0.625000 0.778076 
vn 0.850586 0.525635 0.000000 
vn 0.000000 1.000000 0.000000 
vn -0.508789 0.777344 0.369629 
vn 0.059570 0.625000 0.778076 
vn 0.000000 1.000000 0.000000 
vn -0.721680 0.625000 -0.297119 
vn -0.508789 0.777344 0.369629 
vn 0.000000 1.000000 0.000000 
vn 0.059570 0.625000 -0.778076 
vn -0.721680 0.625000 -0.297119 
vn 0.000000 1.000000 0.000000 
vn 0.850586 0.525635 0.000000 
vn 0.059570 0.625000 -0.778076 
vn 0.000000 1.000000 0.000000 
vn -0.508789 0.777344 0.369629 
vn -0.721680 0.625000 -0.297119 
vn -0.808838 0.000000 0.587646 
vn -0.721680 0.625000 -0.297119 
vn -0.647705 0.000000 -0.761475 
vn -0.808838 0.000000 0.587646 
vn -0.721680 0.625000 -0.297119 
vn 0.059570 0.625000 -0.778076 
vn -0.647705 0.000000 -0.761475 
vn 0.059570 0.625000 -0.778076 
vn 0.524170 0.000000 -0.851562 
vn -0.647705 0.000000 -0.761475 
vn 0.059570 0.625000 -0.778076 
vn 0.758545 0.625000 -0.183594 
vn 0.524170 0.000000 -0.851562 
vn 0.758545 0.625000 -0.183594 
vn 0.971680 0.000000 0.235352 
vn 0.524170 0.000000 -0.851562 
vn 0.262695 0.525635 0.808838 
vn 0.758545 0.625000 -0.183594 
vn 0.000000 1.000000 0.000000 
vn -0.508789 0.777344 0.369629 
vn 0.262695 0.525635 0.808838 
vn 0.000000 1.000000 0.000000 
vn -0.721680 0.625000 -0.297119 
vn -0.508789 0.777344 0.369629 
vn 0.000000 1.000000 0.000000 
vn 0.059570 0.625000 -0.778076 
vn -0.721680 0.625000 -0.297119 
vn 0.000000 1.000000 0.000000 
vn 0.758545 0.625000 -0.183594 
vn 0.059570 0.625000 -0.778076 
vn 0.000000 1.000000 0.000000 
vn 0.850586 0.525635 0.000000 
vn 0.059570 0.625000 0.778076 
vn 0.523926 0.000000 0.851562 
vn 1.000000 0.000000 0.000000 
vn 0.850586 0.525635 0.000000 
vn 0.523926 0.000000 0.851562 
vn 0.262695 0.525635 0.808838 
vn 0.308838 0.000000 0.950928 
vn 0.971680 0.000000 0.235352 
vn 0.758545 0.625000 -0.183594 
vn 0.262695 0.525635 0.808838 
vn 0.971680 0.000000 0.235352 
vn 0.059570 0.625000 0.778076 
vn -0.508789 0.777344 0.369629 
vn -0.808838 0.000000 0.587646 
vn 0.523926 0.000000 0.851562 
vn 0.059570 0.625000 0.778076 
vn -0.808838 0.000000 0.587646 
vn 0.262695 0.525635 0.808838 
vn -0.508789 0.777344 0.369629 
vn -0.808838 0.000000 0.587646 
vn 0.308838 0.000000 0.950928 
vn 0.262695 0.525635 0.808838 
vn -0.808838 0.000000 0.587646 
vt 0.161290 1.000000 
vt 0.419355 1.000000 
vt 0.161290 0.000000 
vt 0.419355 1.000000 
vt 0.419355 0.000000 
vt 0.161290 0.000000 
vt 0.612903 0.968254 
vt 0.258065 0.968254 
vt 0.612903 0.000000 
vt 0.258065 0.968254 
vt 0.258065 0.000000 
vt 0.612903 0.000000 
vt 0.387097 1.000000 
vt 0.806452 1.000000 
vt 0.387097 0.000000 
vt 0.806452 1.000000 
vt 0.806452 0.000000 
vt 0.387097 0.000000 
vt 0.580645 0.825397 
vt 0.677419 0.698413 
vt 0.548387 0.698413 
vt 0.419355 0.777778 
vt 0.580645 0.825397 
vt 0.548387 0.698413 
vt 0.419355 0.619048 
vt 0.419355 0.777778 
vt 0.548387 0.698413 
vt 0.580645 0.571429 
vt 0.419355 0.619048 
vt 0.548387 0.698413 
vt 0.677419 0.698413 
vt 0.580645 0.571429 
vt 0.548387 0.698413 
vt 0.225806 0.968254 
vt 0.483871 0.968254 
vt 0.225806 0.015873 
vt 0.483871 0.968254 
vt 0.483871 0.015873 
vt 0.225806 0.015873 
vt 0.483871 0.968254 
vt 0.741935 0.968254 
vt 0.483871 0.015873 
vt 0.741935 0.968254 
vt 0.741935 0.015873 
vt 0.483871 0.015873 
vt 0.225806 0.968254 
vt 0.483871 0.968254 
vt 0.225806 0.000000 
vt 0.483871 0.968254 
vt 0.483871 0.000000 
vt 0.225806 0.000000 
vt 0.193548 0.761905 
vt 0.290323 0.650794 
vt 0.193548 0.650794 
vt 0.064516 0.714286 
vt 0.193548 0.761905 
vt 0.193548 0.650794 
vt 0.064516 0.571429 
vt 0.064516 0.714286 
vt 0.193548 0.650794 
vt 0.193548 0.523810 
vt 0.064516 0.571429 
vt 0.193548 0.650794 
vt 0.290323 0.650794 
vt 0.193548 0.523810 
vt 0.193548 0.650794 
vt 0.709677 1.000000 
vt 0.516129 1.000000 
vt 0.516129 -0.015873 
vt 0.709677 -0.015873 
vt 0.709677 1.000000 
vt 0.516129 -0.015873 
vt 0.741935 0.968254 
vt 0.741935 0.000000 
vt 0.483871 0.000000 
vt 0.483871 0.968254 
vt 0.741935 0.968254 
vt 0.483871 0.000000 
vt 0.516129 1.000000 
vt 0.741935 1.000000 
vt 0.741935 -0.015873 
vt 0.516129 -0.015873 
vt 0.516129 1.000000 
vt 0.741935 -0.015873 
vt 0.129032 1.000000 
vt 0.387097 1.000000 
vt 0.387097 -0.015873 
vt 0.129032 -0.015873 
vt 0.129032 1.000000 
vt 0.387097 -0.015873 
f 1/1/1 2/2/2 3/3/3
f 4/4/4 5/5/5 6/6/6
f 7/7/7 8/8/8 9/9/9
f 10/10/10 11/11/11 12/12/12
f 13/13/13 14/14/14 15/15/15
f 16/16/16 17/17/17 18/18/18
f 19/19/19 20/20/20 21/21/21
f 22/22/22 23/23/23 24/24/24
f 25/25/25 26/26/26 27/27/27
f 28/28/28 29/29/29 30/30/30
f 31/31/31 32/32/32 33/33/33
f 34/34/34 35/35/35 36/36/36
f 37/37/37 38/38/38 39/39/39
f 40/40/40 41/41/41 42/42/42
f 43/43/43 44/44/44 45/45/45
f 46/46/46 47/47/47 48/48/48
f 49/49/49 50/50/50 51/51/51
f 52/52/52 53/53/53 54/54/54
f 55/55/55 56/56/56 57/57/57
f 58/58/58 59/59/59 60/60/60
f 61/61/61 62/62/62 63/63/63
f 64/64/64 65/65/65 66/66/66
f 67/67/67 68/68/68 69/69/69
f 70/70/70 71/71/71 72/72/72
f 73/73/73 74/74/74 75/75/75
f 76/76/76 77/77/77 78/78/78
f 79/79/79 80/80/80 81/81/81
f 82/82/82 83/83/83 84/84/84
f 85/85/85 86/86/86 87/87/87
f 88/88/88 89/89/89 90/90/90
