v -20.000000 -3.000000 11.000000 
v -15.000000 6.000000 21.000000 
v -30.000000 13.000000 0.000000 
v -21.000000 -7.000000 -11.000000 
v -20.000000 -3.000000 11.000000 
v -30.000000 13.000000 0.000000 
v -15.000000 6.000000 -21.000000 
v -21.000000 -7.000000 -11.000000 
v -30.000000 13.000000 0.000000 
v -9.000000 20.000000 -13.000000 
v -15.000000 6.000000 -21.000000 
v -30.000000 13.000000 0.000000 
v -9.000000 20.000000 13.000000 
v -9.000000 20.000000 -13.000000 
v -30.000000 13.000000 0.000000 
v -15.000000 6.000000 21.000000 
v -9.000000 20.000000 13.000000 
v -30.000000 13.000000 0.000000 
v 13.000000 -10.000000 11.000000 
v 15.000000 -5.000000 19.000000 
v -15.000000 6.000000 21.000000 
v -20.000000 -3.000000 11.000000 
v 13.000000 -10.000000 11.000000 
v -15.000000 6.000000 21.000000 
v 12.000000 -12.000000 -11.000000 
v 13.000000 -10.000000 11.000000 
v -20.000000 -3.000000 11.000000 
v -21.000000 -7.000000 -11.000000 
v 12.000000 -12.000000 -11.000000 
v -20.000000 -3.000000 11.000000 
v 15.000000 -6.000000 -21.000000 
v 12.000000 -12.000000 -11.000000 
v -21.000000 -7.000000 -11.000000 
v -15.000000 6.000000 -21.000000 
v 15.000000 -6.000000 -21.000000 
v -21.000000 -7.000000 -11.000000 
v 21.000000 7.000000 -16.000000 
v 15.000000 -6.000000 -21.000000 
v -15.000000 6.000000 -21.000000 
v -9.000000 20.000000 -13.000000 
v 21.000000 7.000000 -16.000000 
v -15.000000 6.000000 -21.000000 
v 21.000000 7.000000 14.000000 
v 21.000000 7.000000 -16.000000 
v -9.000000 20.000000 -13.000000 
v -9.000000 20.000000 13.000000 
v 21.000000 7.000000 14.000000 
v -9.000000 20.000000 -13.000000 
v 15.000000 -5.000000 19.000000 
v 21.000000 7.000000 14.000000 
v -9.000000 20.000000 13.000000 
v -15.000000 6.000000 21.000000 
v 15.000000 -5.000000 19.000000 
v -9.000000 20.000000 13.000000 
v 15.000000 -5.000000 19.000000 
v 13.000000 -10.000000 11.000000 
v 21.000000 -9.000000 0.000000 
v 13.000000 -10.000000 11.000000 
v 12.000000 -12.000000 -11.000000 
v 21.000000 -9.000000 0.000000 
v 12.000000 -12.000000 -11.000000 
v 15.000000 -6.000000 -21.000000 
v 21.000000 -9.000000 0.000000 
v 15.000000 -6.000000 -21.000000 
v 21.000000 7.000000 -16.000000 
v 21.000000 -9.000000 0.000000 
v 21.000000 7.000000 -16.000000 
v 21.000000 7.000000 14.000000 
v 21.000000 -9.000000 0.000000 
v 21.000000 7.000000 14.000000 
v 15.000000 -5.000000 19.000000 
v 21.000000 -9.000000 0.000000 
v 18.000000 -17.000000 -18.000000 
v 16.000000 -22.000000 -13.000000 
v 19.000000 -23.000000 -17.000000 
v 16.000000 -22.000000 -13.000000 
v 14.000000 -26.000000 -18.000000 
v 19.000000 -23.000000 -17.000000 
v 14.000000 -26.000000 -18.000000 
v 16.000000 -22.000000 -23.000000 
v 19.000000 -23.000000 -17.000000 
v 16.000000 -22.000000 -23.000000 
v 18.000000 -17.000000 -18.000000 
v 19.000000 -23.000000 -17.000000 
v 8.000000 -11.000000 -18.000000 
v 6.000000 -15.000000 -13.000000 
v 18.000000 -17.000000 -18.000000 
v 6.000000 -15.000000 -13.000000 
v 16.000000 -22.000000 -13.000000 
v 18.000000 -17.000000 -18.000000 
v 6.000000 -15.000000 -13.000000 
v 3.000000 -21.000000 -18.000000 
v 16.000000 -22.000000 -13.000000 
v 3.000000 -21.000000 -18.000000 
v 14.000000 -26.000000 -18.000000 
v 16.000000 -22.000000 -13.000000 
v 3.000000 -21.000000 -18.000000 
v 5.000000 -17.000000 -23.000000 
v 14.000000 -26.000000 -18.000000 
v 5.000000 -17.000000 -23.000000 
v 16.000000 -22.000000 -23.000000 
v 14.000000 -26.000000 -18.000000 
v 5.000000 -17.000000 -23.000000 
v 8.000000 -11.000000 -18.000000 
v 16.000000 -22.000000 -23.000000 
v 8.000000 -11.000000 -18.000000 
v 18.000000 -17.000000 -18.000000 
v 16.000000 -22.000000 -23.000000 
v -2.000000 -1.000000 -14.000000 
v -4.000000 -5.000000 -9.000000 
v 8.000000 -11.000000 -18.000000 
v -4.000000 -5.000000 -9.000000 
v 6.000000 -15.000000 -13.000000 
v 8.000000 -11.000000 -18.000000 
v -4.000000 -5.000000 -9.000000 
v -14.000000 -11.000000 -14.000000 
v 6.000000 -15.000000 -13.000000 
v -14.000000 -11.000000 -14.000000 
v 3.000000 -21.000000 -18.000000 
v 6.000000 -15.000000 -13.000000 
v -14.000000 -11.000000 -14.000000 
v -12.000000 -6.000000 -19.000000 
v 3.000000 -21.000000 -18.000000 
v -12.000000 -6.000000 -19.000000 
v 5.000000 -17.000000 -23.000000 
v 3.000000 -21.000000 -18.000000 
v -12.000000 -6.000000 -19.000000 
v -2.000000 -1.000000 -14.000000 
v 5.000000 -17.000000 -23.000000 
v -2.000000 -1.000000 -14.000000 
v 8.000000 -11.000000 -18.000000 
v 5.000000 -17.000000 -23.000000 
v -4.000000 -5.000000 -9.000000 
v -2.000000 -1.000000 -14.000000 
v -18.000000 0.000000 -14.000000 
v -14.000000 -11.000000 -14.000000 
v -4.000000 -5.000000 -9.000000 
v -18.000000 0.000000 -14.000000 
v -12.000000 -6.000000 -19.000000 
v -14.000000 -11.000000 -14.000000 
v -18.000000 0.000000 -14.000000 
v -2.000000 -1.000000 -14.000000 
v -12.000000 -6.000000 -19.000000 
v -18.000000 0.000000 -14.000000 
v 45.000000 -13.000000 12.000000 
v 38.000000 -20.000000 14.000000 
v 38.000000 -20.000000 -16.000000 
v 38.000000 -20.000000 -16.000000 
v 45.000000 -13.000000 -14.000000 
v 45.000000 -13.000000 12.000000 
v 17.000000 4.000000 14.000000 
v 17.000000 4.000000 -16.000000 
v 13.000000 -5.000000 -18.000000 
v 13.000000 -5.000000 -18.000000 
v 13.000000 -5.000000 16.000000 
v 17.000000 4.000000 14.000000 
v 34.000000 -3.000000 -15.000000 
v 45.000000 -13.000000 -14.000000 
v 38.000000 -20.000000 -16.000000 
v 38.000000 -20.000000 -16.000000 
v 28.000000 -12.000000 -18.000000 
v 34.000000 -3.000000 -15.000000 
v 17.000000 4.000000 -16.000000 
v 34.000000 -3.000000 -15.000000 
v 28.000000 -12.000000 -18.000000 
v 28.000000 -12.000000 -18.000000 
v 13.000000 -5.000000 -18.000000 
v 17.000000 4.000000 -16.000000 
v 34.000000 -3.000000 12.000000 
v 45.000000 -13.000000 12.000000 
v 45.000000 -13.000000 -14.000000 
v 45.000000 -13.000000 -14.000000 
v 34.000000 -3.000000 -15.000000 
v 34.000000 -3.000000 12.000000 
v 17.000000 4.000000 14.000000 
v 34.000000 -3.000000 12.000000 
v 34.000000 -3.000000 -15.000000 
v 34.000000 -3.000000 -15.000000 
v 17.000000 4.000000 -16.000000 
v 17.000000 4.000000 14.000000 
v 28.000000 -12.000000 16.000000 
v 38.000000 -20.000000 14.000000 
v 45.000000 -13.000000 12.000000 
v 45.000000 -13.000000 12.000000 
v 34.000000 -3.000000 12.000000 
v 28.000000 -12.000000 16.000000 
v 13.000000 -5.000000 16.000000 
v 28.000000 -12.000000 16.000000 
v 34.000000 -3.000000 12.000000 
v 34.000000 -3.000000 12.000000 
v 17.000000 4.000000 14.000000 
v 13.000000 -5.000000 16.000000 
v 28.000000 -12.000000 -18.000000 
v 38.000000 -20.000000 -16.000000 
v 38.000000 -20.000000 14.000000 
v 38.000000 -20.000000 14.000000 
v 28.000000 -12.000000 16.000000 
v 28.000000 -12.000000 -18.000000 
v 13.000000 -5.000000 -18.000000 
v 28.000000 -12.000000 -18.000000 
v 28.000000 -12.000000 16.000000 
v 28.000000 -12.000000 16.000000 
v 13.000000 -5.000000 16.000000 
v 13.000000 -5.000000 -18.000000 
vn -0.506592 -0.729736 0.458740 
vn -0.421875 -0.127197 0.897461 
vn -0.930908 0.364014 0.021484 
vn -0.576172 -0.660400 -0.480957 
vn -0.506592 -0.729736 0.458740 
vn -0.930908 0.364014 0.021484 
vn -0.368408 0.189209 -0.909912 
vn -0.576172 -0.660400 -0.480957 
vn -0.930908 0.364014 0.021484 
vn -0.085205 0.925781 -0.367676 
vn -0.368408 0.189209 -0.909912 
vn -0.930908 0.364014 0.021484 
vn -0.134277 0.759521 0.636230 
vn -0.085205 0.925781 -0.367676 
vn -0.930908 0.364014 0.021484 
vn -0.421875 -0.127197 0.897461 
vn -0.134277 0.759521 0.636230 
vn -0.930908 0.364014 0.021484 
vn 0.202637 -0.874023 0.441406 
vn 0.462646 -0.322021 0.825928 
vn -0.421875 -0.127197 0.897461 
vn -0.506592 -0.729736 0.458740 
vn 0.202637 -0.874023 0.441406 
vn -0.421875 -0.127197 0.897461 
vn 0.261719 -0.960693 -0.091553 
vn 0.202637 -0.874023 0.441406 
vn -0.506592 -0.729736 0.458740 
vn -0.576172 -0.660400 -0.480957 
vn 0.261719 -0.960693 -0.091553 
vn -0.506592 -0.729736 0.458740 
vn 0.411621 -0.508789 -0.755859 
vn 0.261719 -0.960693 -0.091553 
vn -0.576172 -0.660400 -0.480957 
vn -0.368408 0.189209 -0.909912 
vn 0.411621 -0.508789 -0.755859 
vn -0.576172 -0.660400 -0.480957 
vn 0.728271 0.292725 -0.619385 
vn 0.411621 -0.508789 -0.755859 
vn -0.368408 0.189209 -0.909912 
vn -0.085205 0.925781 -0.367676 
vn 0.728271 0.292725 -0.619385 
vn -0.368408 0.189209 -0.909912 
vn 0.814697 0.459229 0.353760 
vn 0.728271 0.292725 -0.619385 
vn -0.085205 0.925781 -0.367676 
vn -0.134277 0.759521 0.636230 
vn 0.814697 0.459229 0.353760 
vn -0.085205 0.925781 -0.367676 
vn 0.462646 -0.322021 0.825928 
vn 0.814697 0.459229 0.353760 
vn -0.134277 0.759521 0.636230 
vn -0.421875 -0.127197 0.897461 
vn 0.462646 -0.322021 0.825928 
vn -0.134277 0.759521 0.636230 
vn 0.462646 -0.322021 0.825928 
vn 0.202637 -0.874023 0.441406 
vn 0.843994 -0.535400 0.029297 
vn 0.202637 -0.874023 0.441406 
vn 0.261719 -0.960693 -0.091553 
vn 0.843994 -0.535400 0.029297 
vn 0.261719 -0.960693 -0.091553 
vn 0.411621 -0.508789 -0.755859 
vn 0.843994 -0.535400 0.029297 
vn 0.411621 -0.508789 -0.755859 
vn 0.728271 0.292725 -0.619385 
vn 0.843994 -0.535400 0.029297 
vn 0.728271 0.292725 -0.619385 
vn 0.814697 0.459229 0.353760 
vn 0.843994 -0.535400 0.029297 
vn 0.814697 0.459229 0.353760 
vn 0.462646 -0.322021 0.825928 
vn 0.843994 -0.535400 0.029297 
vn 0.865723 0.419678 0.271973 
vn 0.344727 -0.304932 0.887695 
vn 0.911133 -0.405518 0.070068 
vn 0.344727 -0.304932 0.887695 
vn 0.185791 -0.958008 -0.217041 
vn 0.911133 -0.405518 0.070068 
vn 0.185791 -0.958008 -0.217041 
vn 0.534180 -0.084717 -0.841064 
vn 0.911133 -0.405518 0.070068 
vn 0.534180 -0.084717 -0.841064 
vn 0.865723 0.419678 0.271973 
vn 0.911133 -0.405518 0.070068 
vn 0.719727 0.685547 -0.108154 
vn 0.176514 -0.012939 0.984131 
vn 0.865723 0.419678 0.271973 
vn 0.176514 -0.012939 0.984131 
vn 0.344727 -0.304932 0.887695 
vn 0.865723 0.419678 0.271973 
vn 0.176514 -0.012939 0.984131 
vn -0.546875 -0.835205 0.053223 
vn 0.344727 -0.304932 0.887695 
vn -0.546875 -0.835205 0.053223 
vn 0.185791 -0.958008 -0.217041 
vn 0.344727 -0.304932 0.887695 
vn -0.546875 -0.835205 0.053223 
vn -0.094238 -0.035156 -0.994873 
vn 0.185791 -0.958008 -0.217041 
vn -0.094238 -0.035156 -0.994873 
vn 0.534180 -0.084717 -0.841064 
vn 0.185791 -0.958008 -0.217041 
vn -0.094238 -0.035156 -0.994873 
vn 0.719727 0.685547 -0.108154 
vn 0.534180 -0.084717 -0.841064 
vn 0.719727 0.685547 -0.108154 
vn 0.865723 0.419678 0.271973 
vn 0.534180 -0.084717 -0.841064 
vn 0.343262 0.837891 -0.423828 
vn 0.208984 0.176514 0.961670 
vn 0.719727 0.685547 -0.108154 
vn 0.208984 0.176514 0.961670 
vn 0.176514 -0.012939 0.984131 
vn 0.719727 0.685547 -0.108154 
vn 0.208984 0.176514 0.961670 
vn -0.703857 -0.518066 0.485352 
vn 0.176514 -0.012939 0.984131 
vn -0.703857 -0.518066 0.485352 
vn -0.546875 -0.835205 0.053223 
vn 0.176514 -0.012939 0.984131 
vn -0.703857 -0.518066 0.485352 
vn -0.424072 0.006592 -0.905518 
vn -0.546875 -0.835205 0.053223 
vn -0.424072 0.006592 -0.905518 
vn -0.094238 -0.035156 -0.994873 
vn -0.546875 -0.835205 0.053223 
vn -0.424072 0.006592 -0.905518 
vn 0.343262 0.837891 -0.423828 
vn -0.094238 -0.035156 -0.994873 
vn 0.343262 0.837891 -0.423828 
vn 0.719727 0.685547 -0.108154 
vn -0.094238 -0.035156 -0.994873 
vn 0.208984 0.176514 0.961670 
vn 0.343262 0.837891 -0.423828 
vn -0.770264 0.617188 0.159424 
vn -0.703857 -0.518066 0.485352 
vn 0.208984 0.176514 0.961670 
vn -0.770264 0.617188 0.159424 
vn -0.424072 0.006592 -0.905518 
vn -0.703857 -0.518066 0.485352 
vn -0.770264 0.617188 0.159424 
vn 0.343262 0.837891 -0.423828 
vn -0.424072 0.006592 -0.905518 
vn -0.770264 0.617188 0.159424 
vn 0.829102 -0.131348 0.542969 
vn -0.141602 -0.891113 0.430908 
vn 0.479248 -0.588379 -0.650879 
vn 0.479248 -0.588379 -0.650879 
vn 0.918213 0.210205 -0.334717 
vn 0.829102 -0.131348 0.542969 
vn -0.913330 0.406494 0.000000 
vn -0.913330 0.406494 0.000000 
vn -0.913330 0.406494 0.000000 
vn -0.913330 0.406494 0.000000 
vn -0.913330 0.406494 0.000000 
vn -0.913330 0.406494 0.000000 
vn 0.502930 0.591553 -0.629883 
vn 0.918213 0.210205 -0.334717 
vn 0.479248 -0.588379 -0.650879 
vn 0.479248 -0.588379 -0.650879 
vn -0.334229 -0.531006 -0.778320 
vn 0.502930 0.591553 -0.629883 
vn 0.271729 0.502686 -0.820312 
vn 0.502930 0.591553 -0.629883 
vn -0.334229 -0.531006 -0.778320 
vn -0.334229 -0.531006 -0.778320 
vn -0.353760 -0.808350 -0.470459 
vn 0.271729 0.502686 -0.820312 
vn 0.557861 0.532471 0.636230 
vn 0.829102 -0.131348 0.542969 
vn 0.918213 0.210205 -0.334717 
vn 0.918213 0.210205 -0.334717 
vn 0.502930 0.591553 -0.629883 
vn 0.557861 0.532471 0.636230 
vn 0.405518 0.812988 0.417236 
vn 0.557861 0.532471 0.636230 
vn 0.502930 0.591553 -0.629883 
vn 0.502930 0.591553 -0.629883 
vn 0.271729 0.502686 -0.820312 
vn 0.405518 0.812988 0.417236 
vn -0.238525 -0.584473 0.775391 
vn -0.141602 -0.891113 0.430908 
vn 0.829102 -0.131348 0.542969 
vn 0.829102 -0.131348 0.542969 
vn 0.557861 0.532471 0.636230 
vn -0.238525 -0.584473 0.775391 
vn -0.077148 -0.299561 0.950684 
vn -0.238525 -0.584473 0.775391 
vn 0.557861 0.532471 0.636230 
vn 0.557861 0.532471 0.636230 
vn 0.405518 0.812988 0.417236 
vn -0.077148 -0.299561 0.950684 
vn -0.334229 -0.531006 -0.778320 
vn 0.479248 -0.588379 -0.650879 
vn -0.141602 -0.891113 0.430908 
vn -0.141602 -0.891113 0.430908 
vn -0.238525 -0.584473 0.775391 
vn -0.334229 -0.531006 -0.778320 
vn -0.353760 -0.808350 -0.470459 
vn -0.334229 -0.531006 -0.778320 
vn -0.238525 -0.584473 0.775391 
vn -0.238525 -0.584473 0.775391 
vn -0.077148 -0.299561 0.950684 
vn -0.353760 -0.808350 -0.470459 
vt 0.857143 0.396825 
vt 0.777778 0.396825 
vt 0.888889 0.492063 
vt 0.952381 0.396825 
vt 0.857143 0.396825 
vt 0.888889 0.492063 
vt 0.984127 0.396825 
vt 0.952381 0.396825 
vt 0.888889 0.492063 
vt 0.968254 0.396825 
vt 0.984127 0.396825 
vt 0.888889 0.492063 
vt 0.825397 0.396825 
vt 0.968254 0.396825 
vt 0.888889 0.492063 
vt 0.777778 0.396825 
vt 0.825397 0.396825 
vt 0.888889 0.492063 
vt 0.857143 0.253968 
vt 0.793651 0.253968 
vt 0.777778 0.396825 
vt 0.857143 0.396825 
vt 0.857143 0.253968 
vt 0.777778 0.396825 
vt 0.952381 0.253968 
vt 0.857143 0.253968 
vt 0.857143 0.396825 
vt 0.952381 0.396825 
vt 0.952381 0.253968 
vt 0.857143 0.396825 
vt 0.984127 0.253968 
vt 0.952381 0.253968 
vt 0.952381 0.396825 
vt 0.984127 0.396825 
vt 0.984127 0.253968 
vt 0.952381 0.396825 
vt 0.968254 0.253968 
vt 0.984127 0.253968 
vt 0.984127 0.396825 
vt 0.968254 0.396825 
vt 0.968254 0.253968 
vt 0.984127 0.396825 
vt 0.825397 0.253968 
vt 0.968254 0.253968 
vt 0.968254 0.396825 
vt 0.825397 0.396825 
vt 0.825397 0.253968 
vt 0.968254 0.396825 
vt 0.793651 0.253968 
vt 0.825397 0.253968 
vt 0.825397 0.396825 
vt 0.777778 0.396825 
vt 0.793651 0.253968 
vt 0.825397 0.396825 
vt 0.793651 0.253968 
vt 0.857143 0.253968 
vt 0.888889 0.190476 
vt 0.857143 0.253968 
vt 0.952381 0.253968 
vt 0.888889 0.190476 
vt 0.952381 0.253968 
vt 0.984127 0.253968 
vt 0.888889 0.190476 
vt 0.984127 0.253968 
vt 0.968254 0.253968 
vt 0.888889 0.190476 
vt 0.968254 0.253968 
vt 0.825397 0.253968 
vt 0.888889 0.190476 
vt 0.825397 0.253968 
vt 0.793651 0.253968 
vt 0.888889 0.190476 
vt 0.126984 0.523810 
vt 0.047619 0.539683 
vt 0.126984 0.507937 
vt 0.047619 0.539683 
vt 0.126984 0.523810 
vt 0.126984 0.507937 
vt 0.126984 0.523810 
vt 0.222222 0.523810 
vt 0.126984 0.507937 
vt 0.222222 0.523810 
vt 0.126984 0.523810 
vt 0.126984 0.507937 
vt 0.142857 0.555556 
vt 0.047619 0.555556 
vt 0.126984 0.523810 
vt 0.047619 0.555556 
vt 0.047619 0.539683 
vt 0.126984 0.523810 
vt 0.047619 0.555556 
vt 0.142857 0.555556 
vt 0.047619 0.539683 
vt 0.142857 0.555556 
vt 0.126984 0.523810 
vt 0.047619 0.539683 
vt 0.142857 0.555556 
vt 0.222222 0.555556 
vt 0.126984 0.523810 
vt 0.222222 0.555556 
vt 0.222222 0.523810 
vt 0.126984 0.523810 
vt 0.222222 0.555556 
vt 0.142857 0.555556 
vt 0.222222 0.523810 
vt 0.142857 0.555556 
vt 0.126984 0.523810 
vt 0.222222 0.523810 
vt 0.142857 0.587302 
vt 0.047619 0.587302 
vt 0.142857 0.555556 
vt 0.047619 0.587302 
vt 0.047619 0.555556 
vt 0.142857 0.555556 
vt 0.047619 0.587302 
vt 0.142857 0.587302 
vt 0.047619 0.555556 
vt 0.142857 0.587302 
vt 0.142857 0.555556 
vt 0.047619 0.555556 
vt 0.142857 0.587302 
vt 0.222222 0.587302 
vt 0.142857 0.555556 
vt 0.222222 0.587302 
vt 0.222222 0.555556 
vt 0.142857 0.555556 
vt 0.222222 0.587302 
vt 0.142857 0.587302 
vt 0.222222 0.555556 
vt 0.142857 0.587302 
vt 0.142857 0.555556 
vt 0.222222 0.555556 
vt 0.047619 0.587302 
vt 0.142857 0.587302 
vt 0.142857 0.587302 
vt 0.142857 0.587302 
vt 0.047619 0.587302 
vt 0.142857 0.587302 
vt 0.222222 0.587302 
vt 0.142857 0.587302 
vt 0.142857 0.587302 
vt 0.142857 0.587302 
vt 0.222222 0.587302 
vt 0.142857 0.587302 
vt 0.174603 0.619048 
vt 0.190476 0.619048 
vt 0.190476 0.492063 
vt 0.190476 0.492063 
vt 0.174603 0.492063 
vt 0.174603 0.619048 
vt 0.253968 0.619048 
vt 0.253968 0.492063 
vt 0.253968 0.476190 
vt 0.253968 0.476190 
vt 0.253968 0.634921 
vt 0.253968 0.619048 
vt 0.206349 0.492063 
vt 0.174603 0.492063 
vt 0.190476 0.492063 
vt 0.190476 0.492063 
vt 0.222222 0.476190 
vt 0.206349 0.492063 
vt 0.253968 0.492063 
vt 0.206349 0.492063 
vt 0.222222 0.476190 
vt 0.222222 0.476190 
vt 0.253968 0.476190 
vt 0.253968 0.492063 
vt 0.206349 0.619048 
vt 0.174603 0.619048 
vt 0.174603 0.492063 
vt 0.174603 0.492063 
vt 0.206349 0.492063 
vt 0.206349 0.619048 
vt 0.253968 0.619048 
vt 0.206349 0.619048 
vt 0.206349 0.492063 
vt 0.206349 0.492063 
vt 0.253968 0.492063 
vt 0.253968 0.619048 
vt 0.222222 0.634921 
vt 0.190476 0.619048 
vt 0.174603 0.619048 
vt 0.174603 0.619048 
vt 0.206349 0.619048 
vt 0.222222 0.634921 
vt 0.253968 0.634921 
vt 0.222222 0.634921 
vt 0.206349 0.619048 
vt 0.206349 0.619048 
vt 0.253968 0.619048 
vt 0.253968 0.634921 
vt 0.222222 0.476190 
vt 0.190476 0.492063 
vt 0.190476 0.619048 
vt 0.190476 0.619048 
vt 0.222222 0.634921 
vt 0.222222 0.476190 
vt 0.253968 0.476190 
vt 0.222222 0.476190 
vt 0.222222 0.634921 
vt 0.222222 0.634921 
vt 0.253968 0.634921 
vt 0.253968 0.476190 
f 1/1/1 2/2/2 3/3/3
f 4/4/4 5/5/5 6/6/6
f 7/7/7 8/8/8 9/9/9
f 10/10/10 11/11/11 12/12/12
f 13/13/13 14/14/14 15/15/15
f 16/16/16 17/17/17 18/18/18
f 19/19/19 20/20/20 21/21/21
f 22/22/22 23/23/23 24/24/24
f 25/25/25 26/26/26 27/27/27
f 28/28/28 29/29/29 30/30/30
f 31/31/31 32/32/32 33/33/33
f 34/34/34 35/35/35 36/36/36
f 37/37/37 38/38/38 39/39/39
f 40/40/40 41/41/41 42/42/42
f 43/43/43 44/44/44 45/45/45
f 46/46/46 47/47/47 48/48/48
f 49/49/49 50/50/50 51/51/51
f 52/52/52 53/53/53 54/54/54
f 55/55/55 56/56/56 57/57/57
f 58/58/58 59/59/59 60/60/60
f 61/61/61 62/62/62 63/63/63
f 64/64/64 65/65/65 66/66/66
f 67/67/67 68/68/68 69/69/69
f 70/70/70 71/71/71 72/72/72
f 73/73/73 74/74/74 75/75/75
f 76/76/76 77/77/77 78/78/78
f 79/79/79 80/80/80 81/81/81
f 82/82/82 83/83/83 84/84/84
f 85/85/85 86/86/86 87/87/87
f 88/88/88 89/89/89 90/90/90
f 91/91/91 92/92/92 93/93/93
f 94/94/94 95/95/95 96/96/96
f 97/97/97 98/98/98 99/99/99
f 100/100/100 101/101/101 102/102/102
f 103/103/103 104/104/104 105/105/105
f 106/106/106 107/107/107 108/108/108
f 109/109/109 110/110/110 111/111/111
f 112/112/112 113/113/113 114/114/114
f 115/115/115 116/116/116 117/117/117
f 118/118/118 119/119/119 120/120/120
f 121/121/121 122/122/122 123/123/123
f 124/124/124 125/125/125 126/126/126
f 127/127/127 128/128/128 129/129/129
f 130/130/130 131/131/131 132/132/132
f 133/133/133 134/134/134 135/135/135
f 136/136/136 137/137/137 138/138/138
f 139/139/139 140/140/140 141/141/141
f 142/142/142 143/143/143 144/144/144
f 145/145/145 146/146/146 147/147/147
f 148/148/148 149/149/149 150/150/150
f 151/151/151 152/152/152 153/153/153
f 154/154/154 155/155/155 156/156/156
f 157/157/157 158/158/158 159/159/159
f 160/160/160 161/161/161 162/162/162
f 163/163/163 164/164/164 165/165/165
f 166/166/166 167/167/167 168/168/168
f 169/169/169 170/170/170 171/171/171
f 172/172/172 173/173/173 174/174/174
f 175/175/175 176/176/176 177/177/177
f 178/178/178 179/179/179 180/180/180
f 181/181/181 182/182/182 183/183/183
f 184/184/184 185/185/185 186/186/186
f 187/187/187 188/188/188 189/189/189
f 190/190/190 191/191/191 192/192/192
f 193/193/193 194/194/194 195/195/195
f 196/196/196 197/197/197 198/198/198
f 199/199/199 200/200/200 201/201/201
f 202/202/202 203/203/203 204/204/204
