v 13.000000 -31.000000 -10.000000 
v 13.000000 -31.000000 9.000000 
v 11.000000 -52.000000 -9.000000 
v 13.000000 -31.000000 9.000000 
v 11.000000 -52.000000 8.000000 
v 11.000000 -52.000000 -9.000000 
v 13.000000 31.000000 9.000000 
v 13.000000 31.000000 -10.000000 
v 11.000000 52.000000 -9.000000 
v 11.000000 52.000000 8.000000 
v 13.000000 31.000000 9.000000 
v 11.000000 52.000000 -9.000000 
v 12.000000 54.000000 -18.000000 
v 0.000000 50.000000 -26.000000 
v 0.000000 50.000000 -17.000000 
v 12.000000 54.000000 -11.000000 
v 12.000000 54.000000 -18.000000 
v 0.000000 50.000000 -17.000000 
v 0.000000 50.000000 -26.000000 
v 12.000000 54.000000 -18.000000 
v 12.000000 50.000000 -22.000000 
v 0.000000 -50.000000 -26.000000 
v 12.000000 -54.000000 -18.000000 
v 0.000000 -50.000000 -17.000000 
v 12.000000 -54.000000 -18.000000 
v 12.000000 -54.000000 -11.000000 
v 0.000000 -50.000000 -17.000000 
v 12.000000 -54.000000 -18.000000 
v 0.000000 -50.000000 -26.000000 
v 12.000000 -50.000000 -22.000000 
vn 0.979492 -0.028320 -0.199219 
vn 0.997314 -0.022949 0.067383 
vn 0.950684 -0.292480 -0.101807 
vn 0.997314 -0.022949 0.067383 
vn 0.940430 -0.308350 0.142334 
vn 0.950684 -0.292480 -0.101807 
vn 0.997314 0.022949 0.067383 
vn 0.979492 0.028320 -0.199219 
vn 0.950684 0.292480 -0.101807 
vn 0.940430 0.308350 0.142334 
vn 0.997314 0.022949 0.067383 
vn 0.950684 0.292480 -0.101807 
vn -0.787109 0.616211 0.014160 
vn -0.940674 0.338379 0.017090 
vn -0.882324 0.469971 0.015869 
vn -0.787109 0.616211 0.014160 
vn -0.787109 0.616211 0.014160 
vn -0.882324 0.469971 0.015869 
vn 0.789795 0.445312 -0.421143 
vn 0.734375 0.552734 -0.393311 
vn 0.749023 0.484619 -0.451416 
vn -0.940674 -0.338379 0.017090 
vn -0.787109 -0.616211 0.014160 
vn -0.882324 -0.469971 0.015869 
vn -0.787109 -0.616211 0.014160 
vn -0.787109 -0.616211 0.014160 
vn -0.882324 -0.469971 0.015869 
vn 0.734375 -0.552734 -0.393311 
vn 0.789795 -0.445312 -0.421143 
vn 0.749023 -0.484619 -0.451416 
vt 0.047619 0.936508 
vt 0.047619 0.793651 
vt 0.063492 0.920635 
vt 0.047619 0.793651 
vt 0.063492 0.793651 
vt 0.063492 0.920635 
vt 0.047619 0.793651 
vt 0.047619 0.936508 
vt 0.063492 0.920635 
vt 0.063492 0.793651 
vt 0.047619 0.793651 
vt 0.063492 0.920635 
vt 0.523810 0.984127 
vt 0.492063 0.841270 
vt 0.492063 0.841270 
vt 0.523810 0.984127 
vt 0.523810 0.984127 
vt 0.492063 0.841270 
vt 0.492063 0.841270 
vt 0.523810 0.984127 
vt 0.492063 0.984127 
vt 0.000000 0.841270 
vt 0.000000 0.984127 
vt 0.000000 0.841270 
vt 0.000000 0.984127 
vt 0.000000 0.984127 
vt 0.000000 0.841270 
vt 0.000000 0.984127 
vt 0.000000 0.841270 
vt 0.015873 0.984127 
f 1/1/1 2/2/2 3/3/3
f 4/4/4 5/5/5 6/6/6
f 7/7/7 8/8/8 9/9/9
f 10/10/10 11/11/11 12/12/12
f 13/13/13 14/14/14 15/15/15
f 16/16/16 17/17/17 18/18/18
f 19/19/19 20/20/20 21/21/21
f 22/22/22 23/23/23 24/24/24
f 25/25/25 26/26/26 27/27/27
f 28/28/28 29/29/29 30/30/30
