v -16.000000 -31.000000 -11.000000 
v -17.000000 -31.000000 8.000000 
v -18.000000 -52.000000 -10.000000 
v -17.000000 -31.000000 8.000000 
v -19.000000 -52.000000 7.000000 
v -18.000000 -52.000000 -10.000000 
v -17.000000 31.000000 8.000000 
v -16.000000 31.000000 -11.000000 
v -18.000000 52.000000 -10.000000 
v -19.000000 52.000000 7.000000 
v -17.000000 31.000000 8.000000 
v -18.000000 52.000000 -10.000000 
v 2.000000 60.000000 0.000000 
v 3.000000 52.000000 -30.000000 
v -15.000000 58.000000 -1.000000 
v 3.000000 52.000000 -30.000000 
v -17.000000 52.000000 -31.000000 
v -15.000000 58.000000 -1.000000 
v 2.000000 60.000000 0.000000 
v -15.000000 58.000000 -1.000000 
v -20.000000 52.000000 28.000000 
v 3.000000 52.000000 -30.000000 
v 5.000000 30.000000 -52.000000 
v -17.000000 52.000000 -31.000000 
v 5.000000 30.000000 -52.000000 
v -16.000000 30.000000 -53.000000 
v -17.000000 52.000000 -31.000000 
v 5.000000 30.000000 -52.000000 
v 5.000000 0.000000 -60.000000 
v -16.000000 30.000000 -53.000000 
v 5.000000 0.000000 -60.000000 
v -15.000000 0.000000 -61.000000 
v -16.000000 30.000000 -53.000000 
v 5.000000 0.000000 -60.000000 
v 5.000000 -30.000000 -52.000000 
v -15.000000 0.000000 -61.000000 
v 5.000000 -30.000000 -52.000000 
v -16.000000 -30.000000 -53.000000 
v -15.000000 0.000000 -61.000000 
v 5.000000 -30.000000 -52.000000 
v 3.000000 -52.000000 -30.000000 
v -16.000000 -30.000000 -53.000000 
v 3.000000 -52.000000 -30.000000 
v -17.000000 -52.000000 -31.000000 
v -16.000000 -30.000000 -53.000000 
v 3.000000 -52.000000 -30.000000 
v 2.000000 -60.000000 0.000000 
v -17.000000 -52.000000 -31.000000 
v 2.000000 -60.000000 0.000000 
v -15.000000 -58.000000 -1.000000 
v -17.000000 -52.000000 -31.000000 
v 2.000000 -60.000000 0.000000 
v 0.000000 -52.000000 29.000000 
v -15.000000 -58.000000 -1.000000 
v 0.000000 -52.000000 29.000000 
v -20.000000 -52.000000 28.000000 
v -15.000000 -58.000000 -1.000000 
v 0.000000 -52.000000 29.000000 
v 0.000000 -30.000000 51.000000 
v -20.000000 -52.000000 28.000000 
v 0.000000 -30.000000 51.000000 
v -21.000000 -30.000000 50.000000 
v -20.000000 -52.000000 28.000000 
v 0.000000 -30.000000 51.000000 
v 0.000000 0.000000 59.000000 
v -21.000000 -30.000000 50.000000 
v 0.000000 0.000000 59.000000 
v -21.000000 0.000000 58.000000 
v -21.000000 -30.000000 50.000000 
v 0.000000 0.000000 59.000000 
v 0.000000 30.000000 51.000000 
v -21.000000 0.000000 58.000000 
v 0.000000 30.000000 51.000000 
v -21.000000 30.000000 50.000000 
v -21.000000 0.000000 58.000000 
v 0.000000 30.000000 51.000000 
v 0.000000 52.000000 29.000000 
v -21.000000 30.000000 50.000000 
v 0.000000 52.000000 29.000000 
v -20.000000 52.000000 28.000000 
v -21.000000 30.000000 50.000000 
v 0.000000 52.000000 29.000000 
v 2.000000 60.000000 0.000000 
v -20.000000 52.000000 28.000000 
vn 0.990967 -0.028320 -0.129639 
vn 0.989990 -0.022949 0.137695 
vn 0.955322 -0.292725 -0.034424 
vn 0.989990 -0.022949 0.137695 
vn 0.927734 -0.308838 0.208496 
vn 0.955322 -0.292725 -0.034424 
vn 0.989990 0.022949 0.137695 
vn 0.990967 0.028320 -0.129639 
vn 0.955322 0.292725 -0.034424 
vn 0.927734 0.308838 0.208496 
vn 0.989990 0.022949 0.137695 
vn 0.955322 0.292725 -0.034424 
vn -0.244873 0.968994 0.030518 
vn -0.111328 0.949951 -0.291260 
vn -0.238770 0.968262 -0.071777 
vn -0.111328 0.949951 -0.291260 
vn 0.021729 0.909424 -0.414795 
vn -0.238770 0.968262 -0.071777 
vn -0.244873 0.968994 0.030518 
vn -0.238770 0.968262 -0.071777 
vn -0.142334 0.950439 0.276123 
vn -0.111328 0.949951 -0.291260 
vn 0.036133 0.720703 -0.691895 
vn 0.021729 0.909424 -0.414795 
vn 0.036133 0.720703 -0.691895 
vn 0.042969 0.564209 -0.824463 
vn 0.021729 0.909424 -0.414795 
vn 0.036133 0.720703 -0.691895 
vn 0.051758 0.134277 -0.989502 
vn 0.042969 0.564209 -0.824463 
vn 0.051758 0.134277 -0.989502 
vn 0.051758 -0.134277 -0.989502 
vn 0.042969 0.564209 -0.824463 
vn 0.051758 0.134277 -0.989502 
vn 0.042969 -0.564209 -0.824463 
vn 0.051758 -0.134277 -0.989502 
vn 0.042969 -0.564209 -0.824463 
vn 0.036133 -0.720703 -0.691895 
vn 0.051758 -0.134277 -0.989502 
vn 0.042969 -0.564209 -0.824463 
vn 0.022217 -0.904053 -0.426514 
vn 0.036133 -0.720703 -0.691895 
vn 0.022217 -0.904053 -0.426514 
vn -0.112793 -0.950439 -0.289307 
vn 0.036133 -0.720703 -0.691895 
vn 0.022217 -0.904053 -0.426514 
vn -0.240479 -0.968994 -0.055908 
vn -0.112793 -0.950439 -0.289307 
vn -0.240479 -0.968994 -0.055908 
vn -0.244873 -0.968262 0.046387 
vn -0.112793 -0.950439 -0.289307 
vn -0.240479 -0.968994 -0.055908 
vn -0.141357 -0.949951 0.278076 
vn -0.244873 -0.968262 0.046387 
vn -0.141357 -0.949951 0.278076 
vn -0.021729 -0.909424 0.414795 
vn -0.244873 -0.968262 0.046387 
vn -0.141357 -0.949951 0.278076 
vn -0.036133 -0.720703 0.691895 
vn -0.021729 -0.909424 0.414795 
vn -0.036133 -0.720703 0.691895 
vn -0.042969 -0.564209 0.824463 
vn -0.021729 -0.909424 0.414795 
vn -0.036133 -0.720703 0.691895 
vn -0.051758 -0.134277 0.989502 
vn -0.042969 -0.564209 0.824463 
vn -0.051758 -0.134277 0.989502 
vn -0.051758 0.134277 0.989502 
vn -0.042969 -0.564209 0.824463 
vn -0.051758 -0.134277 0.989502 
vn -0.042969 0.564209 0.824463 
vn -0.051758 0.134277 0.989502 
vn -0.042969 0.564209 0.824463 
vn -0.036133 0.720703 0.691895 
vn -0.051758 0.134277 0.989502 
vn -0.042969 0.564209 0.824463 
vn -0.022217 0.904053 0.426514 
vn -0.036133 0.720703 0.691895 
vn -0.022217 0.904053 0.426514 
vn -0.142334 0.950439 0.276123 
vn -0.036133 0.720703 0.691895 
vn -0.022217 0.904053 0.426514 
vn -0.244873 0.968994 0.030518 
vn -0.142334 0.950439 0.276123 
vt 0.047619 0.936508 
vt 0.047619 0.793651 
vt 0.063492 0.920635 
vt 0.047619 0.793651 
vt 0.063492 0.793651 
vt 0.063492 0.920635 
vt 0.047619 0.793651 
vt 0.047619 0.936508 
vt 0.063492 0.920635 
vt 0.063492 0.793651 
vt 0.047619 0.793651 
vt 0.063492 0.920635 
vt 0.984127 1.000000 
vt 0.968254 1.000000 
vt 0.984127 0.920635 
vt 0.968254 1.000000 
vt 0.968254 0.920635 
vt 0.984127 0.920635 
vt 0.984127 1.000000 
vt 0.984127 0.920635 
vt 0.968254 0.920635 
vt 0.968254 1.000000 
vt 0.888889 1.000000 
vt 0.968254 0.920635 
vt 0.888889 1.000000 
vt 0.888889 0.920635 
vt 0.968254 0.920635 
vt 0.888889 1.000000 
vt 0.793651 1.000000 
vt 0.888889 0.920635 
vt 0.793651 1.000000 
vt 0.793651 0.920635 
vt 0.888889 0.920635 
vt 0.793651 1.000000 
vt 0.698413 1.000000 
vt 0.793651 0.920635 
vt 0.698413 1.000000 
vt 0.698413 0.920635 
vt 0.793651 0.920635 
vt 0.698413 1.000000 
vt 0.619048 1.000000 
vt 0.698413 0.920635 
vt 0.619048 1.000000 
vt 0.619048 0.920635 
vt 0.698413 0.920635 
vt 0.619048 1.000000 
vt 0.603175 1.000000 
vt 0.619048 0.920635 
vt 0.603175 1.000000 
vt 0.603175 0.920635 
vt 0.619048 0.920635 
vt 0.603175 1.000000 
vt 0.619048 1.000000 
vt 0.603175 0.920635 
vt 0.619048 1.000000 
vt 0.619048 0.920635 
vt 0.603175 0.920635 
vt 0.619048 1.000000 
vt 0.698413 1.000000 
vt 0.619048 0.920635 
vt 0.698413 1.000000 
vt 0.698413 0.920635 
vt 0.619048 0.920635 
vt 0.698413 1.000000 
vt 0.793651 1.000000 
vt 0.698413 0.920635 
vt 0.793651 1.000000 
vt 0.793651 0.920635 
vt 0.698413 0.920635 
vt 0.793651 1.000000 
vt 0.888889 1.000000 
vt 0.793651 0.920635 
vt 0.888889 1.000000 
vt 0.888889 0.920635 
vt 0.793651 0.920635 
vt 0.888889 1.000000 
vt 0.968254 1.000000 
vt 0.888889 0.920635 
vt 0.968254 1.000000 
vt 0.968254 0.920635 
vt 0.888889 0.920635 
vt 0.968254 1.000000 
vt 0.984127 1.000000 
vt 0.968254 0.920635 
f 1/1/1 2/2/2 3/3/3
f 4/4/4 5/5/5 6/6/6
f 7/7/7 8/8/8 9/9/9
f 10/10/10 11/11/11 12/12/12
f 13/13/13 14/14/14 15/15/15
f 16/16/16 17/17/17 18/18/18
f 19/19/19 20/20/20 21/21/21
f 22/22/22 23/23/23 24/24/24
f 25/25/25 26/26/26 27/27/27
f 28/28/28 29/29/29 30/30/30
f 31/31/31 32/32/32 33/33/33
f 34/34/34 35/35/35 36/36/36
f 37/37/37 38/38/38 39/39/39
f 40/40/40 41/41/41 42/42/42
f 43/43/43 44/44/44 45/45/45
f 46/46/46 47/47/47 48/48/48
f 49/49/49 50/50/50 51/51/51
f 52/52/52 53/53/53 54/54/54
f 55/55/55 56/56/56 57/57/57
f 58/58/58 59/59/59 60/60/60
f 61/61/61 62/62/62 63/63/63
f 64/64/64 65/65/65 66/66/66
f 67/67/67 68/68/68 69/69/69
f 70/70/70 71/71/71 72/72/72
f 73/73/73 74/74/74 75/75/75
f 76/76/76 77/77/77 78/78/78
f 79/79/79 80/80/80 81/81/81
f 82/82/82 83/83/83 84/84/84
