v 17.000000 696.000000 -18.000000 
v 22.000000 696.000000 6.000000 
v 33.000000 0.000000 -30.000000 
v 22.000000 696.000000 6.000000 
v 43.000000 0.000000 23.000000 
v 33.000000 0.000000 -30.000000 
v -19.000000 696.000000 1.000000 
v -8.000000 696.000000 -22.000000 
v -44.000000 0.000000 12.000000 
v -8.000000 696.000000 -22.000000 
v -20.000000 0.000000 -37.000000 
v -44.000000 0.000000 12.000000 
v -8.000000 696.000000 -22.000000 
v 17.000000 696.000000 -18.000000 
v -20.000000 0.000000 -37.000000 
v 17.000000 696.000000 -18.000000 
v 33.000000 0.000000 -30.000000 
v -20.000000 0.000000 -37.000000 
v -56.000000 690.000000 -129.000000 
v -59.000000 681.000000 -126.000000 
v -18.000000 627.000000 -11.000000 
v -59.000000 681.000000 -126.000000 
v -23.000000 608.000000 -7.000000 
v -18.000000 627.000000 -11.000000 
v -46.000000 681.000000 -135.000000 
v -49.000000 690.000000 -134.000000 
v 2.000000 607.000000 -26.000000 
v -49.000000 690.000000 -134.000000 
v -2.000000 626.000000 -23.000000 
v 2.000000 607.000000 -26.000000 
v -49.000000 690.000000 -134.000000 
v -56.000000 690.000000 -129.000000 
v -2.000000 626.000000 -23.000000 
v -56.000000 690.000000 -129.000000 
v -18.000000 627.000000 -11.000000 
v -2.000000 626.000000 -23.000000 
v 176.000000 568.000000 -130.000000 
v 174.000000 559.000000 -133.000000 
v 12.000000 487.000000 -31.000000 
v 174.000000 559.000000 -133.000000 
v 7.000000 468.000000 -36.000000 
v 12.000000 487.000000 -31.000000 
v 183.000000 559.000000 -121.000000 
v 182.000000 568.000000 -123.000000 
v 27.000000 467.000000 -11.000000 
v 182.000000 568.000000 -123.000000 
v 24.000000 486.000000 -16.000000 
v 27.000000 467.000000 -11.000000 
v 182.000000 568.000000 -123.000000 
v 176.000000 568.000000 -130.000000 
v 24.000000 486.000000 -16.000000 
v 176.000000 568.000000 -130.000000 
v 12.000000 487.000000 -31.000000 
v 24.000000 486.000000 -16.000000 
v 91.000000 759.000000 -112.000000 
v 88.000000 750.000000 -112.000000 
v 7.000000 702.000000 -18.000000 
v 88.000000 750.000000 -112.000000 
v 1.000000 683.000000 -19.000000 
v 7.000000 702.000000 -18.000000 
v 102.000000 750.000000 -105.000000 
v 100.000000 759.000000 -107.000000 
v 30.000000 683.000000 -5.000000 
v 100.000000 759.000000 -107.000000 
v 25.000000 702.000000 -9.000000 
v 30.000000 683.000000 -5.000000 
v 100.000000 759.000000 -107.000000 
v 91.000000 759.000000 -112.000000 
v 25.000000 702.000000 -9.000000 
v 91.000000 759.000000 -112.000000 
v 7.000000 702.000000 -18.000000 
v 25.000000 702.000000 -9.000000 
vn 0.498047 0.026123 -0.866699 
vn 0.982910 0.025879 -0.182129 
vn 0.839355 0.028564 -0.542725 
vn 0.982910 0.025879 -0.182129 
vn 0.982910 0.025879 -0.182129 
vn 0.839355 0.028564 -0.542725 
vn -0.902100 0.025879 -0.430176 
vn -0.670166 0.028564 -0.741455 
vn -0.902100 0.025879 -0.430176 
vn -0.670166 0.028564 -0.741455 
vn -0.256592 0.026123 -0.966064 
vn -0.902100 0.025879 -0.430176 
vn -0.670166 0.028564 -0.741455 
vn 0.498047 0.026123 -0.866699 
vn -0.256592 0.026123 -0.966064 
vn 0.498047 0.026123 -0.866699 
vn 0.839355 0.028564 -0.542725 
vn -0.256592 0.026123 -0.966064 
vn -0.093018 0.863037 0.496338 
vn -0.825928 0.335938 0.452148 
vn -0.558105 0.639404 0.528320 
vn -0.825928 0.335938 0.452148 
vn -0.825928 0.335938 0.452148 
vn -0.558105 0.639404 0.528320 
vn 0.932373 0.269531 -0.239990 
vn 0.836182 0.546875 -0.040527 
vn 0.932373 0.269531 -0.239990 
vn 0.836182 0.546875 -0.040527 
vn 0.591797 0.781494 0.196777 
vn 0.932373 0.269531 -0.239990 
vn 0.836182 0.546875 -0.040527 
vn -0.093018 0.863037 0.496338 
vn 0.591797 0.781494 0.196777 
vn -0.093018 0.863037 0.496338 
vn -0.558105 0.639404 0.528320 
vn 0.591797 0.781494 0.196777 
vn -0.477539 0.875488 -0.070312 
vn -0.604248 0.341064 -0.719971 
vn -0.603760 0.643799 -0.469971 
vn -0.604248 0.341064 -0.719971 
vn -0.604248 0.341064 -0.719971 
vn -0.603760 0.643799 -0.469971 
vn 0.437744 0.277100 0.855225 
vn 0.230225 0.579834 0.781250 
vn 0.437744 0.277100 0.855225 
vn 0.230225 0.579834 0.781250 
vn -0.056885 0.831787 0.551758 
vn 0.437744 0.277100 0.855225 
vn 0.230225 0.579834 0.781250 
vn -0.477539 0.875488 -0.070312 
vn -0.056885 0.831787 0.551758 
vn -0.477539 0.875488 -0.070312 
vn -0.603760 0.643799 -0.469971 
vn -0.056885 0.831787 0.551758 
vn -0.484863 0.869385 0.094482 
vn -0.793213 0.295654 -0.531982 
vn -0.733643 0.617676 -0.282227 
vn -0.793213 0.295654 -0.531982 
vn -0.793213 0.295654 -0.531982 
vn -0.733643 0.617676 -0.282227 
vn 0.654297 0.321045 0.684326 
vn 0.431885 0.597412 0.675537 
vn 0.654297 0.321045 0.684326 
vn 0.431885 0.597412 0.675537 
vn 0.105469 0.822754 0.558105 
vn 0.654297 0.321045 0.684326 
vn 0.431885 0.597412 0.675537 
vn -0.484863 0.869385 0.094482 
vn 0.105469 0.822754 0.558105 
vn -0.484863 0.869385 0.094482 
vn -0.733643 0.617676 -0.282227 
vn 0.105469 0.822754 0.558105 
vt 0.645161 1.000000 
vt 1.000000 1.000000 
vt 0.645161 0.000000 
vt 1.000000 1.000000 
vt 1.000000 0.000000 
vt 0.645161 0.000000 
vt 0.000000 1.000000 
vt 0.258065 1.000000 
vt 0.000000 0.000000 
vt 0.258065 1.000000 
vt 0.258065 0.000000 
vt 0.000000 0.000000 
vt 0.258065 1.000000 
vt 0.645161 1.000000 
vt 0.258065 0.000000 
vt 0.645161 1.000000 
vt 0.645161 0.000000 
vt 0.258065 0.000000 
vt 0.967742 0.142857 
vt 0.967742 0.968254 
vt 0.000000 0.142857 
vt 0.967742 0.968254 
vt 0.000000 0.968254 
vt 0.000000 0.142857 
vt 0.967742 0.047619 
vt 0.967742 0.873016 
vt 0.000000 0.047619 
vt 0.967742 0.873016 
vt 0.000000 0.904762 
vt 0.000000 0.047619 
vt 0.967742 0.873016 
vt 0.967742 0.142857 
vt 0.000000 0.904762 
vt 0.967742 0.142857 
vt 0.000000 0.142857 
vt 0.000000 0.904762 
vt 0.967742 0.142857 
vt 0.967742 0.968254 
vt 0.000000 0.142857 
vt 0.967742 0.968254 
vt 0.000000 0.968254 
vt 0.000000 0.142857 
vt 0.967742 0.047619 
vt 0.967742 0.873016 
vt 0.000000 0.047619 
vt 0.967742 0.873016 
vt 0.000000 0.904762 
vt 0.000000 0.047619 
vt 0.967742 0.873016 
vt 0.967742 0.142857 
vt 0.000000 0.904762 
vt 0.967742 0.142857 
vt 0.000000 0.142857 
vt 0.000000 0.904762 
vt 0.967742 0.142857 
vt 0.967742 0.968254 
vt 0.000000 0.142857 
vt 0.967742 0.968254 
vt 0.000000 0.968254 
vt 0.000000 0.142857 
vt 0.967742 0.047619 
vt 0.967742 0.873016 
vt 0.000000 0.047619 
vt 0.967742 0.873016 
vt 0.000000 0.904762 
vt 0.000000 0.047619 
vt 0.967742 0.873016 
vt 0.967742 0.142857 
vt 0.000000 0.904762 
vt 0.967742 0.142857 
vt 0.000000 0.142857 
vt 0.000000 0.904762 
f 1/1/1 2/2/2 3/3/3
f 4/4/4 5/5/5 6/6/6
f 7/7/7 8/8/8 9/9/9
f 10/10/10 11/11/11 12/12/12
f 13/13/13 14/14/14 15/15/15
f 16/16/16 17/17/17 18/18/18
f 19/19/19 20/20/20 21/21/21
f 22/22/22 23/23/23 24/24/24
f 25/25/25 26/26/26 27/27/27
f 28/28/28 29/29/29 30/30/30
f 31/31/31 32/32/32 33/33/33
f 34/34/34 35/35/35 36/36/36
f 37/37/37 38/38/38 39/39/39
f 40/40/40 41/41/41 42/42/42
f 43/43/43 44/44/44 45/45/45
f 46/46/46 47/47/47 48/48/48
f 49/49/49 50/50/50 51/51/51
f 52/52/52 53/53/53 54/54/54
f 55/55/55 56/56/56 57/57/57
f 58/58/58 59/59/59 60/60/60
f 61/61/61 62/62/62 63/63/63
f 64/64/64 65/65/65 66/66/66
f 67/67/67 68/68/68 69/69/69
f 70/70/70 71/71/71 72/72/72
