v 31.000000 -12.000000 11.000000 
v 14.000000 -27.000000 21.000000 
v 36.000000 -11.000000 5.000000 
v 14.000000 -15.000000 29.000000 
v 14.000000 -27.000000 21.000000 
v 31.000000 -12.000000 11.000000 
v 31.000000 -7.000000 16.000000 
v 14.000000 -15.000000 29.000000 
v 31.000000 -12.000000 11.000000 
v 14.000000 27.000000 21.000000 
v 14.000000 15.000000 29.000000 
v 31.000000 7.000000 16.000000 
v 31.000000 12.000000 11.000000 
v 14.000000 27.000000 21.000000 
v 31.000000 7.000000 16.000000 
v 36.000000 10.000000 0.000000 
v 14.000000 27.000000 -6.000000 
v 36.000000 11.000000 5.000000 
v 14.000000 15.000000 -14.000000 
v 14.000000 27.000000 -6.000000 
v 36.000000 10.000000 0.000000 
v 4.000000 27.000000 4.000000 
v 11.000000 27.000000 0.000000 
v 13.000000 11.000000 5.000000 
v 9.000000 27.000000 12.000000 
v 4.000000 27.000000 4.000000 
v 13.000000 11.000000 5.000000 
v 11.000000 -28.000000 0.000000 
v 4.000000 -28.000000 4.000000 
v 13.000000 -12.000000 5.000000 
v 4.000000 -28.000000 4.000000 
v 9.000000 -28.000000 12.000000 
v 13.000000 -12.000000 5.000000 
v 35.000000 16.000000 10.000000 
v 19.000000 14.000000 29.000000 
v 33.000000 10.000000 17.000000 
v 29.000000 24.000000 10.000000 
v 19.000000 14.000000 29.000000 
v 35.000000 16.000000 10.000000 
v 27.000000 22.000000 -7.000000 
v 29.000000 24.000000 10.000000 
v 35.000000 16.000000 10.000000 
v 36.000000 14.000000 -4.000000 
v 27.000000 22.000000 -7.000000 
v 35.000000 16.000000 10.000000 
v 19.000000 -12.000000 29.000000 
v 35.000000 -14.000000 10.000000 
v 33.000000 -8.000000 17.000000 
v 19.000000 -12.000000 29.000000 
v 29.000000 -21.000000 10.000000 
v 35.000000 -14.000000 10.000000 
v 29.000000 -21.000000 10.000000 
v 27.000000 -19.000000 -7.000000 
v 35.000000 -14.000000 10.000000 
v 27.000000 -19.000000 -7.000000 
v 36.000000 -11.000000 -4.000000 
v 35.000000 -14.000000 10.000000 
vn 0.947021 -0.298828 0.116699 
vn 0.774414 -0.554199 0.304688 
vn 0.905762 -0.409912 -0.105957 
vn 0.849609 -0.314697 0.422852 
vn 0.774414 -0.554199 0.304688 
vn 0.947021 -0.298828 0.116699 
vn 0.958008 -0.180908 0.221436 
vn 0.849609 -0.314697 0.422852 
vn 0.947021 -0.298828 0.116699 
vn 0.776855 0.544678 0.315430 
vn 0.806396 0.266113 0.527832 
vn 0.957275 0.221191 0.185547 
vn 0.929443 0.367432 0.025879 
vn 0.776855 0.544678 0.315430 
vn 0.957275 0.221191 0.185547 
vn 0.763672 0.393555 -0.511475 
vn 0.501221 0.657715 -0.562012 
vn 0.869629 0.450684 -0.200684 
vn 0.407959 0.347900 -0.843994 
vn 0.501221 0.657715 -0.562012 
vn 0.763672 0.393555 -0.511475 
vn -0.991455 -0.127930 0.020508 
vn 0.432861 -0.145996 -0.889404 
vn 0.186035 -0.982178 0.024902 
vn -0.371826 -0.154297 0.915283 
vn -0.991455 -0.127930 0.020508 
vn 0.186035 -0.982178 0.024902 
vn 0.432617 0.146240 -0.889404 
vn -0.991455 0.127930 0.020508 
vn 0.185547 0.982178 0.025146 
vn -0.991455 0.127930 0.020508 
vn -0.371826 0.154297 0.915039 
vn 0.185547 0.982178 0.025146 
vn 0.968994 0.224609 -0.100830 
vn 0.947021 0.265137 0.180664 
vn 0.997314 0.069336 0.014404 
vn 0.939453 0.334229 -0.074219 
vn 0.947021 0.265137 0.180664 
vn 0.968994 0.224609 -0.100830 
vn 0.845459 0.346191 -0.406006 
vn 0.939453 0.334229 -0.074219 
vn 0.968994 0.224609 -0.100830 
vn 0.921387 0.139648 -0.362305 
vn 0.845459 0.346191 -0.406006 
vn 0.968994 0.224609 -0.100830 
vn 0.947021 -0.265137 0.180664 
vn 0.968994 -0.224609 -0.100586 
vn 0.997314 -0.069336 0.014404 
vn 0.947021 -0.265137 0.180664 
vn 0.939453 -0.334229 -0.074219 
vn 0.968994 -0.224609 -0.100586 
vn 0.939453 -0.334229 -0.074219 
vn 0.845459 -0.346191 -0.406006 
vn 0.968994 -0.224609 -0.100586 
vn 0.845459 -0.346191 -0.406006 
vn 0.921387 -0.139648 -0.362305 
vn 0.968994 -0.224609 -0.100586 
vt 0.095238 0.984127 
vt 0.063492 0.793651 
vt 0.015873 0.984127 
vt 0.158730 0.793651 
vt 0.063492 0.793651 
vt 0.095238 0.984127 
vt 0.174603 0.984127 
vt 0.158730 0.793651 
vt 0.095238 0.984127 
vt 0.523810 0.793651 
vt 0.412698 0.809524 
vt 0.396825 0.984127 
vt 0.460317 0.984127 
vt 0.523810 0.793651 
vt 0.396825 0.984127 
vt 0.507937 0.349206 
vt 0.507937 0.238095 
vt 0.587302 0.349206 
vt 0.396825 0.238095 
vt 0.507937 0.238095 
vt 0.507937 0.349206 
vt 0.714286 0.936508 
vt 0.936508 0.936508 
vt 0.714286 0.492063 
vt 0.714286 0.936508 
vt 0.936508 0.936508 
vt 0.714286 0.492063 
vt 0.936508 0.936508 
vt 0.714286 0.936508 
vt 0.714286 0.492063 
vt 0.936508 0.936508 
vt 0.714286 0.936508 
vt 0.714286 0.492063 
vt 0.714286 0.539683 
vt 0.603175 0.174603 
vt 0.714286 0.349206 
vt 0.603175 0.507937 
vt 0.603175 0.174603 
vt 0.714286 0.539683 
vt 0.603175 0.809524 
vt 0.603175 0.507937 
vt 0.714286 0.539683 
vt 0.714286 0.777778 
vt 0.603175 0.809524 
vt 0.714286 0.539683 
vt 0.603175 0.174603 
vt 0.714286 0.539683 
vt 0.714286 0.349206 
vt 0.603175 0.174603 
vt 0.603175 0.507937 
vt 0.714286 0.539683 
vt 0.603175 0.507937 
vt 0.603175 0.809524 
vt 0.714286 0.539683 
vt 0.603175 0.809524 
vt 0.714286 0.777778 
vt 0.714286 0.539683 
f 1/1/1 2/2/2 3/3/3
f 4/4/4 5/5/5 6/6/6
f 7/7/7 8/8/8 9/9/9
f 10/10/10 11/11/11 12/12/12
f 13/13/13 14/14/14 15/15/15
f 16/16/16 17/17/17 18/18/18
f 19/19/19 20/20/20 21/21/21
f 22/22/22 23/23/23 24/24/24
f 25/25/25 26/26/26 27/27/27
f 28/28/28 29/29/29 30/30/30
f 31/31/31 32/32/32 33/33/33
f 34/34/34 35/35/35 36/36/36
f 37/37/37 38/38/38 39/39/39
f 40/40/40 41/41/41 42/42/42
f 43/43/43 44/44/44 45/45/45
f 46/46/46 47/47/47 48/48/48
f 49/49/49 50/50/50 51/51/51
f 52/52/52 53/53/53 54/54/54
f 55/55/55 56/56/56 57/57/57
