v 50.000000 -13.000000 0.000000 
v 49.000000 -2.000000 11.000000 
v 5.000000 -8.000000 0.000000 
v 49.000000 -2.000000 11.000000 
v 4.000000 0.000000 8.000000 
v 5.000000 -8.000000 0.000000 
v 50.000000 -13.000000 0.000000 
v 5.000000 -8.000000 0.000000 
v 5.000000 0.000000 -6.000000 
v 49.000000 -2.000000 11.000000 
v 49.000000 9.000000 0.000000 
v 4.000000 0.000000 8.000000 
v 49.000000 9.000000 0.000000 
v 3.000000 6.000000 0.000000 
v 4.000000 0.000000 8.000000 
v 49.000000 9.000000 0.000000 
v 50.000000 -1.000000 -11.000000 
v 3.000000 6.000000 0.000000 
v 50.000000 -1.000000 -11.000000 
v 5.000000 0.000000 -6.000000 
v 3.000000 6.000000 0.000000 
v 50.000000 -1.000000 -11.000000 
v 50.000000 -13.000000 0.000000 
v 5.000000 0.000000 -6.000000 
v 49.000000 -2.000000 11.000000 
v 50.000000 -13.000000 0.000000 
v 47.000000 -2.000000 0.000000 
v 50.000000 -13.000000 0.000000 
v 50.000000 -1.000000 -11.000000 
v 47.000000 -2.000000 0.000000 
v 49.000000 9.000000 0.000000 
v 49.000000 -2.000000 11.000000 
v 47.000000 -2.000000 0.000000 
v 50.000000 -1.000000 -11.000000 
v 49.000000 9.000000 0.000000 
v 47.000000 -2.000000 0.000000 
vn 0.727295 -0.680176 -0.091309 
vn 0.747559 -0.394531 0.533936 
vn 0.305176 -0.950195 0.060547 
vn 0.747559 -0.394531 0.533936 
vn -0.161133 -0.041016 0.985840 
vn 0.305176 -0.950195 0.060547 
vn 0.727295 -0.680176 -0.091309 
vn 0.305176 -0.950195 0.060547 
vn 0.107666 0.052490 -0.992676 
vn 0.747559 -0.394531 0.533936 
vn 0.729248 0.554688 0.400146 
vn -0.161133 -0.041016 0.985840 
vn 0.729248 0.554688 0.400146 
vn -0.385010 0.920898 -0.057373 
vn -0.161133 -0.041016 0.985840 
vn 0.729248 0.554688 0.400146 
vn 0.727051 0.163330 -0.666504 
vn -0.385010 0.920898 -0.057373 
vn 0.727051 0.163330 -0.666504 
vn 0.107666 0.052490 -0.992676 
vn -0.385010 0.920898 -0.057373 
vn 0.727051 0.163330 -0.666504 
vn 0.727295 -0.680176 -0.091309 
vn 0.107666 0.052490 -0.992676 
vn 0.747559 -0.394531 0.533936 
vn 0.727295 -0.680176 -0.091309 
vn 0.961426 -0.240479 0.132568 
vn 0.727295 -0.680176 -0.091309 
vn 0.727051 0.163330 -0.666504 
vn 0.961426 -0.240479 0.132568 
vn 0.729248 0.554688 0.400146 
vn 0.747559 -0.394531 0.533936 
vn 0.961426 -0.240479 0.132568 
vn 0.727051 0.163330 -0.666504 
vn 0.729248 0.554688 0.400146 
vn 0.961426 -0.240479 0.132568 
vt 0.015748 0.346457 
vt 0.015748 0.023622 
vt 0.440945 0.322835 
vt 0.015748 0.023622 
vt 0.440945 0.047244 
vt 0.440945 0.322835 
vt 0.023622 0.031496 
vt 0.385827 0.031496 
vt 0.385827 0.181102 
vt 0.015748 0.346457 
vt 0.015748 0.023622 
vt 0.440945 0.322835 
vt 0.015748 0.023622 
vt 0.440945 0.047244 
vt 0.440945 0.322835 
vt 0.023622 0.322835 
vt 0.023622 0.181102 
vt 0.385827 0.322835 
vt 0.023622 0.181102 
vt 0.385827 0.181102 
vt 0.385827 0.322835 
vt 0.023622 0.181102 
vt 0.023622 0.031496 
vt 0.385827 0.181102 
vt 0.141732 0.362205 
vt 0.141732 0.000000 
vt 0.078740 0.188976 
vt 0.141732 0.000000 
vt 0.023622 0.000000 
vt 0.078740 0.188976 
vt 0.023622 0.362205 
vt 0.141732 0.362205 
vt 0.078740 0.188976 
vt 0.023622 0.000000 
vt 0.023622 0.362205 
vt 0.078740 0.188976 
f 1/1/1 2/2/2 3/3/3
f 4/4/4 5/5/5 6/6/6
f 7/7/7 8/8/8 9/9/9
f 10/10/10 11/11/11 12/12/12
f 13/13/13 14/14/14 15/15/15
f 16/16/16 17/17/17 18/18/18
f 19/19/19 20/20/20 21/21/21
f 22/22/22 23/23/23 24/24/24
f 25/25/25 26/26/26 27/27/27
f 28/28/28 29/29/29 30/30/30
f 31/31/31 32/32/32 33/33/33
f 34/34/34 35/35/35 36/36/36
