v -54.000000 77.000000 17.000000 
v -34.000000 100.000000 28.000000 
v -39.000000 103.000000 -16.000000 
v -58.000000 62.000000 -10.000000 
v -54.000000 77.000000 17.000000 
v -39.000000 103.000000 -16.000000 
v -45.000000 64.000000 -39.000000 
v -58.000000 62.000000 -10.000000 
v -39.000000 103.000000 -16.000000 
v -21.000000 81.000000 -52.000000 
v -45.000000 64.000000 -39.000000 
v -39.000000 103.000000 -16.000000 
v 0.000000 104.000000 -41.000000 
v -21.000000 81.000000 -52.000000 
v -39.000000 103.000000 -16.000000 
v 3.000000 119.000000 -13.000000 
v 0.000000 104.000000 -41.000000 
v -39.000000 103.000000 -16.000000 
v -10.000000 118.000000 15.000000 
v 3.000000 119.000000 -13.000000 
v -39.000000 103.000000 -16.000000 
v -34.000000 100.000000 28.000000 
v -10.000000 118.000000 15.000000 
v -39.000000 103.000000 -16.000000 
v -38.000000 45.000000 39.000000 
v -11.000000 76.000000 54.000000 
v -34.000000 100.000000 28.000000 
v -54.000000 77.000000 17.000000 
v -38.000000 45.000000 39.000000 
v -34.000000 100.000000 28.000000 
v -44.000000 24.000000 0.000000 
v -38.000000 45.000000 39.000000 
v -54.000000 77.000000 17.000000 
v -58.000000 62.000000 -10.000000 
v -44.000000 24.000000 0.000000 
v -54.000000 77.000000 17.000000 
v -25.000000 26.000000 -39.000000 
v -44.000000 24.000000 0.000000 
v -58.000000 62.000000 -10.000000 
v -45.000000 64.000000 -39.000000 
v -25.000000 26.000000 -39.000000 
v -58.000000 62.000000 -10.000000 
v 7.000000 50.000000 -56.000000 
v -25.000000 26.000000 -39.000000 
v -45.000000 64.000000 -39.000000 
v -21.000000 81.000000 -52.000000 
v 7.000000 50.000000 -56.000000 
v -45.000000 64.000000 -39.000000 
v 34.000000 81.000000 -42.000000 
v 7.000000 50.000000 -56.000000 
v -21.000000 81.000000 -52.000000 
v 0.000000 104.000000 -41.000000 
v 34.000000 81.000000 -42.000000 
v -21.000000 81.000000 -52.000000 
v 40.000000 102.000000 -3.000000 
v 34.000000 81.000000 -42.000000 
v 0.000000 104.000000 -41.000000 
v 3.000000 119.000000 -13.000000 
v 40.000000 102.000000 -3.000000 
v 0.000000 104.000000 -41.000000 
v 21.000000 100.000000 36.000000 
v 40.000000 102.000000 -3.000000 
v 3.000000 119.000000 -13.000000 
v -10.000000 118.000000 15.000000 
v 21.000000 100.000000 36.000000 
v 3.000000 119.000000 -13.000000 
v -11.000000 76.000000 54.000000 
v 21.000000 100.000000 36.000000 
v -10.000000 118.000000 15.000000 
v -34.000000 100.000000 28.000000 
v -11.000000 76.000000 54.000000 
v -10.000000 118.000000 15.000000 
v -11.000000 22.000000 43.000000 
v 12.000000 50.000000 56.000000 
v -11.000000 76.000000 54.000000 
v -38.000000 45.000000 39.000000 
v -11.000000 22.000000 43.000000 
v -11.000000 76.000000 54.000000 
v -16.000000 4.000000 10.000000 
v -11.000000 22.000000 43.000000 
v -38.000000 45.000000 39.000000 
v -44.000000 24.000000 0.000000 
v -16.000000 4.000000 10.000000 
v -38.000000 45.000000 39.000000 
v 0.000000 6.000000 -24.000000 
v -16.000000 4.000000 10.000000 
v -44.000000 24.000000 0.000000 
v -25.000000 26.000000 -39.000000 
v 0.000000 6.000000 -24.000000 
v -44.000000 24.000000 0.000000 
v 28.000000 27.000000 -40.000000 
v 0.000000 6.000000 -24.000000 
v -25.000000 26.000000 -39.000000 
v 7.000000 50.000000 -56.000000 
v 28.000000 27.000000 -40.000000 
v -25.000000 26.000000 -39.000000 
v 52.000000 54.000000 -27.000000 
v 28.000000 27.000000 -40.000000 
v 7.000000 50.000000 -56.000000 
v 34.000000 81.000000 -42.000000 
v 52.000000 54.000000 -27.000000 
v 7.000000 50.000000 -56.000000 
v 58.000000 72.000000 6.000000 
v 52.000000 54.000000 -27.000000 
v 34.000000 81.000000 -42.000000 
v 40.000000 102.000000 -3.000000 
v 58.000000 72.000000 6.000000 
v 34.000000 81.000000 -42.000000 
v 41.000000 70.000000 41.000000 
v 58.000000 72.000000 6.000000 
v 40.000000 102.000000 -3.000000 
v 21.000000 100.000000 36.000000 
v 41.000000 70.000000 41.000000 
v 40.000000 102.000000 -3.000000 
v 12.000000 50.000000 56.000000 
v 41.000000 70.000000 41.000000 
v 21.000000 100.000000 36.000000 
v -11.000000 76.000000 54.000000 
v 12.000000 50.000000 56.000000 
v 21.000000 100.000000 36.000000 
v 47.000000 9.000000 19.000000 
v 31.000000 29.000000 44.000000 
v 16.000000 12.000000 36.000000 
v 47.000000 9.000000 19.000000 
v 16.000000 12.000000 36.000000 
v 12.000000 1.000000 15.000000 
v 47.000000 9.000000 19.000000 
v 12.000000 1.000000 15.000000 
v 23.000000 2.000000 -5.000000 
v 47.000000 9.000000 19.000000 
v 23.000000 2.000000 -5.000000 
v 40.000000 15.000000 -15.000000 
v 47.000000 9.000000 19.000000 
v 40.000000 15.000000 -15.000000 
v 55.000000 32.000000 -7.000000 
v 47.000000 9.000000 19.000000 
v 55.000000 32.000000 -7.000000 
v 58.000000 43.000000 13.000000 
v 47.000000 9.000000 19.000000 
v 58.000000 43.000000 13.000000 
v 48.000000 42.000000 34.000000 
v 47.000000 9.000000 19.000000 
v 48.000000 42.000000 34.000000 
v 31.000000 29.000000 44.000000 
v 12.000000 50.000000 56.000000 
v 16.000000 12.000000 36.000000 
v 31.000000 29.000000 44.000000 
v -11.000000 22.000000 43.000000 
v 16.000000 12.000000 36.000000 
v 12.000000 50.000000 56.000000 
v -11.000000 22.000000 43.000000 
v -16.000000 4.000000 10.000000 
v 16.000000 12.000000 36.000000 
v -16.000000 4.000000 10.000000 
v 12.000000 1.000000 15.000000 
v 16.000000 12.000000 36.000000 
v -16.000000 4.000000 10.000000 
v 0.000000 6.000000 -24.000000 
v 12.000000 1.000000 15.000000 
v 0.000000 6.000000 -24.000000 
v 23.000000 2.000000 -5.000000 
v 12.000000 1.000000 15.000000 
v 0.000000 6.000000 -24.000000 
v 28.000000 27.000000 -40.000000 
v 23.000000 2.000000 -5.000000 
v 28.000000 27.000000 -40.000000 
v 40.000000 15.000000 -15.000000 
v 23.000000 2.000000 -5.000000 
v 28.000000 27.000000 -40.000000 
v 52.000000 54.000000 -27.000000 
v 40.000000 15.000000 -15.000000 
v 52.000000 54.000000 -27.000000 
v 55.000000 32.000000 -7.000000 
v 40.000000 15.000000 -15.000000 
v 52.000000 54.000000 -27.000000 
v 58.000000 72.000000 6.000000 
v 55.000000 32.000000 -7.000000 
v 58.000000 72.000000 6.000000 
v 58.000000 43.000000 13.000000 
v 55.000000 32.000000 -7.000000 
v 58.000000 72.000000 6.000000 
v 41.000000 70.000000 41.000000 
v 58.000000 43.000000 13.000000 
v 41.000000 70.000000 41.000000 
v 48.000000 42.000000 34.000000 
v 58.000000 43.000000 13.000000 
v 41.000000 70.000000 41.000000 
v 31.000000 29.000000 44.000000 
v 48.000000 42.000000 34.000000 
v 12.000000 50.000000 56.000000 
v 31.000000 29.000000 44.000000 
v 41.000000 70.000000 41.000000 
vn -0.945312 0.170654 0.277344 
vn -0.617920 0.596924 0.511230 
vn -0.651367 0.719482 -0.239990 
vn -0.977051 -0.074951 -0.198730 
vn -0.945312 0.170654 0.277344 
vn -0.651367 0.719482 -0.239990 
vn -0.722656 -0.004639 -0.690918 
vn -0.977051 -0.074951 -0.198730 
vn -0.651367 0.719482 -0.239990 
vn -0.259521 0.380615 -0.887451 
vn -0.722656 -0.004639 -0.690918 
vn -0.651367 0.719482 -0.239990 
vn 0.095703 0.790527 -0.604736 
vn -0.259521 0.380615 -0.887451 
vn -0.651367 0.719482 -0.239990 
vn 0.123779 0.986084 -0.109131 
vn 0.095703 0.790527 -0.604736 
vn -0.651367 0.719482 -0.239990 
vn -0.158691 0.927490 0.337891 
vn 0.123779 0.986084 -0.109131 
vn -0.651367 0.719482 -0.239990 
vn -0.617920 0.596924 0.511230 
vn -0.158691 0.927490 0.337891 
vn -0.651367 0.719482 -0.239990 
vn -0.725830 -0.265625 0.634033 
vn -0.242188 0.316895 0.916748 
vn -0.617920 0.596924 0.511230 
vn -0.945312 0.170654 0.277344 
vn -0.725830 -0.265625 0.634033 
vn -0.617920 0.596924 0.511230 
vn -0.787842 -0.615723 0.009521 
vn -0.725830 -0.265625 0.634033 
vn -0.945312 0.170654 0.277344 
vn -0.977051 -0.074951 -0.198730 
vn -0.787842 -0.615723 0.009521 
vn -0.945312 0.170654 0.277344 
vn -0.480225 -0.608398 -0.631348 
vn -0.787842 -0.615723 0.009521 
vn -0.977051 -0.074951 -0.198730 
vn -0.722656 -0.004639 -0.690918 
vn -0.480225 -0.608398 -0.631348 
vn -0.977051 -0.074951 -0.198730 
vn 0.111816 -0.183594 -0.976562 
vn -0.480225 -0.608398 -0.631348 
vn -0.722656 -0.004639 -0.690918 
vn -0.259521 0.380615 -0.887451 
vn 0.111816 -0.183594 -0.976562 
vn -0.722656 -0.004639 -0.690918 
vn 0.600586 0.407471 -0.687744 
vn 0.111816 -0.183594 -0.976562 
vn -0.259521 0.380615 -0.887451 
vn 0.095703 0.790527 -0.604736 
vn 0.600586 0.407471 -0.687744 
vn -0.259521 0.380615 -0.887451 
vn 0.670166 0.740234 -0.050537 
vn 0.600586 0.407471 -0.687744 
vn 0.095703 0.790527 -0.604736 
vn 0.123779 0.986084 -0.109131 
vn 0.670166 0.740234 -0.050537 
vn 0.095703 0.790527 -0.604736 
vn 0.358887 0.726318 0.585938 
vn 0.670166 0.740234 -0.050537 
vn 0.123779 0.986084 -0.109131 
vn -0.158691 0.927490 0.337891 
vn 0.358887 0.726318 0.585938 
vn 0.123779 0.986084 -0.109131 
vn -0.242188 0.316895 0.916748 
vn 0.358887 0.726318 0.585938 
vn -0.158691 0.927490 0.337891 
vn -0.617920 0.596924 0.511230 
vn -0.242188 0.316895 0.916748 
vn -0.158691 0.927490 0.337891 
vn -0.308105 -0.557373 0.770752 
vn 0.178955 -0.115967 0.976807 
vn -0.242188 0.316895 0.916748 
vn -0.725830 -0.265625 0.634033 
vn -0.308105 -0.557373 0.770752 
vn -0.242188 0.316895 0.916748 
vn -0.388672 -0.890869 0.234619 
vn -0.308105 -0.557373 0.770752 
vn -0.725830 -0.265625 0.634033 
vn -0.787842 -0.615723 0.009521 
vn -0.388672 -0.890869 0.234619 
vn -0.725830 -0.265625 0.634033 
vn -0.155029 -0.929199 -0.334961 
vn -0.388672 -0.890869 0.234619 
vn -0.787842 -0.615723 0.009521 
vn -0.480225 -0.608398 -0.631348 
vn -0.155029 -0.929199 -0.334961 
vn -0.787842 -0.615723 0.009521 
vn 0.353271 -0.639893 -0.682129 
vn -0.155029 -0.929199 -0.334961 
vn -0.480225 -0.608398 -0.631348 
vn 0.111816 -0.183594 -0.976562 
vn 0.353271 -0.639893 -0.682129 
vn -0.480225 -0.608398 -0.631348 
vn 0.830078 -0.115967 -0.545166 
vn 0.353271 -0.639893 -0.682129 
vn 0.111816 -0.183594 -0.976562 
vn 0.600586 0.407471 -0.687744 
vn 0.830078 -0.115967 -0.545166 
vn 0.111816 -0.183594 -0.976562 
vn 0.962646 0.268799 -0.026367 
vn 0.830078 -0.115967 -0.545166 
vn 0.600586 0.407471 -0.687744 
vn 0.670166 0.740234 -0.050537 
vn 0.962646 0.268799 -0.026367 
vn 0.600586 0.407471 -0.687744 
vn 0.741211 0.256348 0.620117 
vn 0.962646 0.268799 -0.026367 
vn 0.670166 0.740234 -0.050537 
vn 0.358887 0.726318 0.585938 
vn 0.741211 0.256348 0.620117 
vn 0.670166 0.740234 -0.050537 
vn 0.178955 -0.115967 0.976807 
vn 0.741211 0.256348 0.620117 
vn 0.358887 0.726318 0.585938 
vn -0.242188 0.316895 0.916748 
vn 0.178955 -0.115967 0.976807 
vn 0.358887 0.726318 0.585938 
vn 0.651855 -0.717773 0.243896 
vn 0.468506 -0.371094 0.801514 
vn 0.048340 -0.777832 0.626465 
vn 0.651855 -0.717773 0.243896 
vn 0.048340 -0.777832 0.626465 
vn 0.002686 -0.989502 0.143799 
vn 0.651855 -0.717773 0.243896 
vn 0.002686 -0.989502 0.143799 
vn 0.250000 -0.937256 -0.242188 
vn 0.651855 -0.717773 0.243896 
vn 0.250000 -0.937256 -0.242188 
vn 0.646484 -0.655273 -0.390381 
vn 0.651855 -0.717773 0.243896 
vn 0.646484 -0.655273 -0.390381 
vn 0.937744 -0.284180 -0.199463 
vn 0.651855 -0.717773 0.243896 
vn 0.937744 -0.284180 -0.199463 
vn 0.975342 -0.064453 0.210938 
vn 0.651855 -0.717773 0.243896 
vn 0.975342 -0.064453 0.210938 
vn 0.800781 -0.148438 0.579834 
vn 0.651855 -0.717773 0.243896 
vn 0.800781 -0.148438 0.579834 
vn 0.468506 -0.371094 0.801514 
vn 0.178955 -0.115967 0.976807 
vn 0.048340 -0.777832 0.626465 
vn 0.468506 -0.371094 0.801514 
vn -0.308105 -0.557373 0.770752 
vn 0.048340 -0.777832 0.626465 
vn 0.178955 -0.115967 0.976807 
vn -0.308105 -0.557373 0.770752 
vn -0.388672 -0.890869 0.234619 
vn 0.048340 -0.777832 0.626465 
vn -0.388672 -0.890869 0.234619 
vn 0.002686 -0.989502 0.143799 
vn 0.048340 -0.777832 0.626465 
vn -0.388672 -0.890869 0.234619 
vn -0.155029 -0.929199 -0.334961 
vn 0.002686 -0.989502 0.143799 
vn -0.155029 -0.929199 -0.334961 
vn 0.250000 -0.937256 -0.242188 
vn 0.002686 -0.989502 0.143799 
vn -0.155029 -0.929199 -0.334961 
vn 0.353271 -0.639893 -0.682129 
vn 0.250000 -0.937256 -0.242188 
vn 0.353271 -0.639893 -0.682129 
vn 0.646484 -0.655273 -0.390381 
vn 0.250000 -0.937256 -0.242188 
vn 0.353271 -0.639893 -0.682129 
vn 0.830078 -0.115967 -0.545166 
vn 0.646484 -0.655273 -0.390381 
vn 0.830078 -0.115967 -0.545166 
vn 0.937744 -0.284180 -0.199463 
vn 0.646484 -0.655273 -0.390381 
vn 0.830078 -0.115967 -0.545166 
vn 0.962646 0.268799 -0.026367 
vn 0.937744 -0.284180 -0.199463 
vn 0.962646 0.268799 -0.026367 
vn 0.975342 -0.064453 0.210938 
vn 0.937744 -0.284180 -0.199463 
vn 0.962646 0.268799 -0.026367 
vn 0.741211 0.256348 0.620117 
vn 0.975342 -0.064453 0.210938 
vn 0.741211 0.256348 0.620117 
vn 0.800781 -0.148438 0.579834 
vn 0.975342 -0.064453 0.210938 
vn 0.741211 0.256348 0.620117 
vn 0.468506 -0.371094 0.801514 
vn 0.800781 -0.148438 0.579834 
vn 0.178955 -0.115967 0.976807 
vn 0.468506 -0.371094 0.801514 
vn 0.741211 0.256348 0.620117 
vt 0.238095 0.873016 
vt 0.492063 0.873016 
vt 0.492063 1.000000 
vt 0.126984 0.857143 
vt 0.238095 0.873016 
vt 0.492063 1.000000 
vt 0.238095 0.873016 
vt 0.126984 0.857143 
vt 0.492063 1.000000 
vt 0.492063 0.873016 
vt 0.238095 0.873016 
vt 0.492063 1.000000 
vt 0.746032 0.873016 
vt 0.492063 0.873016 
vt 0.492063 1.000000 
vt 0.857143 0.857143 
vt 0.746032 0.873016 
vt 0.492063 1.000000 
vt 0.746032 0.873016 
vt 0.857143 0.857143 
vt 0.492063 1.000000 
vt 0.492063 0.873016 
vt 0.746032 0.873016 
vt 0.492063 1.000000 
vt 0.126984 0.571429 
vt 0.492063 0.571429 
vt 0.492063 0.873016 
vt 0.238095 0.873016 
vt 0.126984 0.571429 
vt 0.492063 0.873016 
vt 0.000000 0.555556 
vt 0.126984 0.571429 
vt 0.238095 0.873016 
vt 0.126984 0.857143 
vt 0.000000 0.555556 
vt 0.238095 0.873016 
vt 0.126984 0.571429 
vt 0.000000 0.555556 
vt 0.126984 0.857143 
vt 0.238095 0.873016 
vt 0.126984 0.571429 
vt 0.126984 0.857143 
vt 0.492063 0.571429 
vt 0.126984 0.571429 
vt 0.238095 0.873016 
vt 0.492063 0.873016 
vt 0.492063 0.571429 
vt 0.238095 0.873016 
vt 0.857143 0.571429 
vt 0.492063 0.571429 
vt 0.492063 0.873016 
vt 0.746032 0.873016 
vt 0.857143 0.571429 
vt 0.492063 0.873016 
vt 0.984127 0.571429 
vt 0.857143 0.571429 
vt 0.746032 0.873016 
vt 0.857143 0.857143 
vt 0.984127 0.571429 
vt 0.746032 0.873016 
vt 0.857143 0.571429 
vt 0.984127 0.571429 
vt 0.857143 0.857143 
vt 0.746032 0.873016 
vt 0.857143 0.571429 
vt 0.857143 0.857143 
vt 0.492063 0.571429 
vt 0.857143 0.571429 
vt 0.746032 0.873016 
vt 0.492063 0.873016 
vt 0.492063 0.571429 
vt 0.746032 0.873016 
vt 0.174603 0.301587 
vt 0.492063 0.301587 
vt 0.492063 0.571429 
vt 0.126984 0.571429 
vt 0.174603 0.301587 
vt 0.492063 0.571429 
vt 0.063492 0.301587 
vt 0.174603 0.301587 
vt 0.126984 0.571429 
vt 0.000000 0.555556 
vt 0.063492 0.301587 
vt 0.126984 0.571429 
vt 0.174603 0.301587 
vt 0.063492 0.301587 
vt 0.000000 0.555556 
vt 0.126984 0.571429 
vt 0.174603 0.301587 
vt 0.000000 0.555556 
vt 0.492063 0.301587 
vt 0.174603 0.301587 
vt 0.126984 0.571429 
vt 0.492063 0.571429 
vt 0.492063 0.301587 
vt 0.126984 0.571429 
vt 0.809524 0.301587 
vt 0.492063 0.301587 
vt 0.492063 0.571429 
vt 0.857143 0.571429 
vt 0.809524 0.301587 
vt 0.492063 0.571429 
vt 0.920635 0.317460 
vt 0.809524 0.301587 
vt 0.857143 0.571429 
vt 0.984127 0.571429 
vt 0.920635 0.317460 
vt 0.857143 0.571429 
vt 0.809524 0.301587 
vt 0.920635 0.317460 
vt 0.984127 0.571429 
vt 0.857143 0.571429 
vt 0.809524 0.301587 
vt 0.984127 0.571429 
vt 0.492063 0.301587 
vt 0.809524 0.301587 
vt 0.857143 0.571429 
vt 0.492063 0.571429 
vt 0.492063 0.301587 
vt 0.857143 0.571429 
vt 0.523810 -0.015873 
vt 0.492063 0.126984 
vt 0.301587 0.126984 
vt 0.523810 -0.015873 
vt 0.301587 0.126984 
vt 0.222222 0.126984 
vt 0.523810 -0.015873 
vt 0.222222 0.126984 
vt 0.301587 0.126984 
vt 0.523810 -0.015873 
vt 0.301587 0.126984 
vt 0.492063 0.126984 
vt 0.523810 -0.015873 
vt 0.492063 0.126984 
vt 0.682540 0.142857 
vt 0.523810 -0.015873 
vt 0.682540 0.142857 
vt 0.761905 0.126984 
vt 0.523810 -0.015873 
vt 0.761905 0.126984 
vt 0.682540 0.142857 
vt 0.523810 -0.015873 
vt 0.682540 0.142857 
vt 0.492063 0.126984 
vt 0.492063 0.301587 
vt 0.301587 0.126984 
vt 0.492063 0.126984 
vt 0.174603 0.301587 
vt 0.301587 0.126984 
vt 0.492063 0.301587 
vt 0.174603 0.301587 
vt 0.063492 0.301587 
vt 0.301587 0.126984 
vt 0.063492 0.301587 
vt 0.222222 0.126984 
vt 0.301587 0.126984 
vt 0.063492 0.301587 
vt 0.174603 0.301587 
vt 0.222222 0.126984 
vt 0.174603 0.301587 
vt 0.301587 0.126984 
vt 0.222222 0.126984 
vt 0.174603 0.301587 
vt 0.492063 0.301587 
vt 0.301587 0.126984 
vt 0.492063 0.301587 
vt 0.492063 0.126984 
vt 0.301587 0.126984 
vt 0.492063 0.301587 
vt 0.809524 0.301587 
vt 0.492063 0.126984 
vt 0.809524 0.301587 
vt 0.682540 0.142857 
vt 0.492063 0.126984 
vt 0.809524 0.301587 
vt 0.920635 0.317460 
vt 0.682540 0.142857 
vt 0.920635 0.317460 
vt 0.761905 0.126984 
vt 0.682540 0.142857 
vt 0.920635 0.317460 
vt 0.809524 0.301587 
vt 0.761905 0.126984 
vt 0.809524 0.301587 
vt 0.682540 0.142857 
vt 0.761905 0.126984 
vt 0.809524 0.301587 
vt 0.492063 0.126984 
vt 0.682540 0.142857 
vt 0.492063 0.301587 
vt 0.492063 0.126984 
vt 0.809524 0.301587 
f 1/1/1 2/2/2 3/3/3
f 4/4/4 5/5/5 6/6/6
f 7/7/7 8/8/8 9/9/9
f 10/10/10 11/11/11 12/12/12
f 13/13/13 14/14/14 15/15/15
f 16/16/16 17/17/17 18/18/18
f 19/19/19 20/20/20 21/21/21
f 22/22/22 23/23/23 24/24/24
f 25/25/25 26/26/26 27/27/27
f 28/28/28 29/29/29 30/30/30
f 31/31/31 32/32/32 33/33/33
f 34/34/34 35/35/35 36/36/36
f 37/37/37 38/38/38 39/39/39
f 40/40/40 41/41/41 42/42/42
f 43/43/43 44/44/44 45/45/45
f 46/46/46 47/47/47 48/48/48
f 49/49/49 50/50/50 51/51/51
f 52/52/52 53/53/53 54/54/54
f 55/55/55 56/56/56 57/57/57
f 58/58/58 59/59/59 60/60/60
f 61/61/61 62/62/62 63/63/63
f 64/64/64 65/65/65 66/66/66
f 67/67/67 68/68/68 69/69/69
f 70/70/70 71/71/71 72/72/72
f 73/73/73 74/74/74 75/75/75
f 76/76/76 77/77/77 78/78/78
f 79/79/79 80/80/80 81/81/81
f 82/82/82 83/83/83 84/84/84
f 85/85/85 86/86/86 87/87/87
f 88/88/88 89/89/89 90/90/90
f 91/91/91 92/92/92 93/93/93
f 94/94/94 95/95/95 96/96/96
f 97/97/97 98/98/98 99/99/99
f 100/100/100 101/101/101 102/102/102
f 103/103/103 104/104/104 105/105/105
f 106/106/106 107/107/107 108/108/108
f 109/109/109 110/110/110 111/111/111
f 112/112/112 113/113/113 114/114/114
f 115/115/115 116/116/116 117/117/117
f 118/118/118 119/119/119 120/120/120
f 121/121/121 122/122/122 123/123/123
f 124/124/124 125/125/125 126/126/126
f 127/127/127 128/128/128 129/129/129
f 130/130/130 131/131/131 132/132/132
f 133/133/133 134/134/134 135/135/135
f 136/136/136 137/137/137 138/138/138
f 139/139/139 140/140/140 141/141/141
f 142/142/142 143/143/143 144/144/144
f 145/145/145 146/146/146 147/147/147
f 148/148/148 149/149/149 150/150/150
f 151/151/151 152/152/152 153/153/153
f 154/154/154 155/155/155 156/156/156
f 157/157/157 158/158/158 159/159/159
f 160/160/160 161/161/161 162/162/162
f 163/163/163 164/164/164 165/165/165
f 166/166/166 167/167/167 168/168/168
f 169/169/169 170/170/170 171/171/171
f 172/172/172 173/173/173 174/174/174
f 175/175/175 176/176/176 177/177/177
f 178/178/178 179/179/179 180/180/180
f 181/181/181 182/182/182 183/183/183
f 184/184/184 185/185/185 186/186/186
f 187/187/187 188/188/188 189/189/189
f 190/190/190 191/191/191 192/192/192
