v 43.000000 -15.000000 -19.000000 
v 43.000000 0.000000 -23.000000 
v 65.000000 0.000000 -14.000000 
v 65.000000 -8.000000 -11.000000 
v 43.000000 -15.000000 -19.000000 
v 65.000000 0.000000 -14.000000 
v 65.000000 0.000000 -14.000000 
v 43.000000 0.000000 -23.000000 
v 65.000000 9.000000 -11.000000 
v 43.000000 -26.000000 -11.000000 
v 43.000000 -15.000000 -19.000000 
v 65.000000 -8.000000 -11.000000 
v 65.000000 -15.000000 -5.000000 
v 43.000000 -26.000000 -11.000000 
v 65.000000 -8.000000 -11.000000 
v 65.000000 -15.000000 13.000000 
v 43.000000 -26.000000 16.000000 
v 65.000000 -18.000000 4.000000 
v 43.000000 -15.000000 28.000000 
v 43.000000 -26.000000 16.000000 
v 65.000000 -15.000000 13.000000 
v 65.000000 -8.000000 21.000000 
v 43.000000 -15.000000 28.000000 
v 65.000000 -15.000000 13.000000 
v 43.000000 0.000000 32.000000 
v 43.000000 -15.000000 28.000000 
v 65.000000 -8.000000 21.000000 
v 65.000000 0.000000 23.000000 
v 43.000000 0.000000 32.000000 
v 65.000000 -8.000000 21.000000 
v 43.000000 16.000000 28.000000 
v 43.000000 0.000000 32.000000 
v 65.000000 0.000000 23.000000 
v 65.000000 9.000000 21.000000 
v 43.000000 16.000000 28.000000 
v 65.000000 0.000000 23.000000 
v 43.000000 27.000000 16.000000 
v 43.000000 16.000000 28.000000 
v 65.000000 9.000000 21.000000 
v 65.000000 16.000000 13.000000 
v 43.000000 27.000000 16.000000 
v 65.000000 9.000000 21.000000 
v 65.000000 16.000000 -5.000000 
v 43.000000 27.000000 -11.000000 
v 65.000000 19.000000 4.000000 
v 43.000000 16.000000 -19.000000 
v 43.000000 27.000000 -11.000000 
v 65.000000 16.000000 -5.000000 
v 65.000000 9.000000 -11.000000 
v 43.000000 16.000000 -19.000000 
v 65.000000 16.000000 -5.000000 
v 43.000000 0.000000 -23.000000 
v 43.000000 16.000000 -19.000000 
v 65.000000 9.000000 -11.000000 
v 43.000000 -26.000000 -11.000000 
v -5.000000 -32.000000 -14.000000 
v 43.000000 -15.000000 -19.000000 
v -5.000000 -37.000000 4.000000 
v -5.000000 -32.000000 -14.000000 
v 43.000000 -26.000000 -11.000000 
v -5.000000 -18.000000 30.000000 
v -5.000000 -32.000000 17.000000 
v 43.000000 -26.000000 16.000000 
v 43.000000 -15.000000 28.000000 
v -5.000000 -18.000000 30.000000 
v 43.000000 -26.000000 16.000000 
v -5.000000 0.000000 35.000000 
v -5.000000 -18.000000 30.000000 
v 43.000000 -15.000000 28.000000 
v 43.000000 0.000000 32.000000 
v -5.000000 0.000000 35.000000 
v 43.000000 -15.000000 28.000000 
v -5.000000 19.000000 30.000000 
v -5.000000 0.000000 35.000000 
v 43.000000 0.000000 32.000000 
v 43.000000 16.000000 28.000000 
v -5.000000 19.000000 30.000000 
v 43.000000 0.000000 32.000000 
v -5.000000 32.000000 17.000000 
v -5.000000 19.000000 30.000000 
v 43.000000 16.000000 28.000000 
v 43.000000 27.000000 16.000000 
v -5.000000 32.000000 17.000000 
v 43.000000 16.000000 28.000000 
v -5.000000 37.000000 4.000000 
v -5.000000 32.000000 17.000000 
v 43.000000 27.000000 16.000000 
vn 0.479736 -0.363770 -0.798096 
vn 0.469727 -0.006104 -0.882568 
vn 0.678955 -0.065186 -0.730957 
vn 0.727295 -0.353760 -0.587646 
vn 0.479736 -0.363770 -0.798096 
vn 0.678955 -0.065186 -0.730957 
vn 0.678955 -0.065186 -0.730957 
vn 0.469727 -0.006104 -0.882568 
vn 0.691162 0.301514 -0.656494 
vn 0.574707 -0.695801 -0.430420 
vn 0.479736 -0.363770 -0.798096 
vn 0.727295 -0.353760 -0.587646 
vn 0.778320 -0.575439 -0.250732 
vn 0.574707 -0.695801 -0.430420 
vn 0.727295 -0.353760 -0.587646 
vn 0.726562 -0.566895 0.387451 
vn 0.529541 -0.727051 0.436523 
vn 0.762939 -0.643799 0.055420 
vn 0.460449 -0.443359 0.768799 
vn 0.529541 -0.727051 0.436523 
vn 0.726562 -0.566895 0.387451 
vn 0.669434 -0.322510 0.668945 
vn 0.460449 -0.443359 0.768799 
vn 0.726562 -0.566895 0.387451 
vn 0.427734 0.004883 0.903564 
vn 0.460449 -0.443359 0.768799 
vn 0.669434 -0.322510 0.668945 
vn 0.652100 0.067139 0.754883 
vn 0.427734 0.004883 0.903564 
vn 0.669434 -0.322510 0.668945 
vn 0.453125 0.442139 0.773926 
vn 0.427734 0.004883 0.903564 
vn 0.652100 0.067139 0.754883 
vn 0.696289 0.420654 0.581299 
vn 0.453125 0.442139 0.773926 
vn 0.652100 0.067139 0.754883 
vn 0.535889 0.737061 0.411377 
vn 0.453125 0.442139 0.773926 
vn 0.696289 0.420654 0.581299 
vn 0.747070 0.611084 0.260254 
vn 0.535889 0.737061 0.411377 
vn 0.696289 0.420654 0.581299 
vn 0.762695 0.502686 -0.406494 
vn 0.573242 0.674072 -0.465332 
vn 0.762207 0.646240 -0.033203 
vn 0.499268 0.378906 -0.779053 
vn 0.573242 0.674072 -0.465332 
vn 0.762695 0.502686 -0.406494 
vn 0.691162 0.301514 -0.656494 
vn 0.499268 0.378906 -0.779053 
vn 0.762695 0.502686 -0.406494 
vn 0.469727 -0.006104 -0.882568 
vn 0.499268 0.378906 -0.779053 
vn 0.691162 0.301514 -0.656494 
vn 0.574707 -0.695801 -0.430420 
vn 0.192871 -0.792236 -0.578613 
vn 0.479736 -0.363770 -0.798096 
vn 0.207764 -0.975342 0.070801 
vn 0.192871 -0.792236 -0.578613 
vn 0.574707 -0.695801 -0.430420 
vn 0.109619 -0.482666 0.868652 
vn 0.151611 -0.832031 0.533203 
vn 0.529541 -0.727051 0.436523 
vn 0.460449 -0.443359 0.768799 
vn 0.109619 -0.482666 0.868652 
vn 0.529541 -0.727051 0.436523 
vn 0.088379 -0.000244 0.995850 
vn 0.109619 -0.482666 0.868652 
vn 0.460449 -0.443359 0.768799 
vn 0.427734 0.004883 0.903564 
vn 0.088379 -0.000244 0.995850 
vn 0.460449 -0.443359 0.768799 
vn 0.091553 0.483398 0.870361 
vn 0.088379 -0.000244 0.995850 
vn 0.427734 0.004883 0.903564 
vn 0.453125 0.442139 0.773926 
vn 0.091553 0.483398 0.870361 
vn 0.427734 0.004883 0.903564 
vn 0.136719 0.817627 0.558838 
vn 0.091553 0.483398 0.870361 
vn 0.453125 0.442139 0.773926 
vn 0.535889 0.737061 0.411377 
vn 0.136719 0.817627 0.558838 
vn 0.453125 0.442139 0.773926 
vn 0.221436 0.974854 0.020508 
vn 0.136719 0.817627 0.558838 
vn 0.535889 0.737061 0.411377 
vt 0.188976 0.244094 
vt 0.275591 0.244094 
vt 0.275591 0.354331 
vt 0.188976 0.354331 
vt 0.188976 0.244094 
vt 0.275591 0.354331 
vt 0.275591 0.354331 
vt 0.275591 0.244094 
vt 0.393701 0.354331 
vt 0.102362 0.244094 
vt 0.188976 0.244094 
vt 0.188976 0.354331 
vt 0.102362 0.354331 
vt 0.102362 0.244094 
vt 0.188976 0.354331 
vt 0.102362 0.992126 
vt 0.078740 0.795276 
vt 0.023622 0.992126 
vt 0.157480 0.803150 
vt 0.078740 0.795276 
vt 0.102362 0.992126 
vt 0.173228 0.992126 
vt 0.157480 0.803150 
vt 0.102362 0.992126 
vt 0.275591 0.803150 
vt 0.157480 0.803150 
vt 0.173228 0.992126 
vt 0.275591 0.992126 
vt 0.275591 0.803150 
vt 0.173228 0.992126 
vt 0.409449 0.803150 
vt 0.275591 0.803150 
vt 0.275591 0.992126 
vt 0.393701 0.992126 
vt 0.409449 0.803150 
vt 0.275591 0.992126 
vt 0.527559 0.803150 
vt 0.409449 0.803150 
vt 0.393701 0.992126 
vt 0.472441 0.984252 
vt 0.527559 0.803150 
vt 0.393701 0.992126 
vt 0.511811 0.354331 
vt 0.511811 0.244094 
vt 0.590551 0.354331 
vt 0.393701 0.244094 
vt 0.511811 0.244094 
vt 0.511811 0.354331 
vt 0.393701 0.354331 
vt 0.393701 0.244094 
vt 0.511811 0.354331 
vt 0.275591 0.244094 
vt 0.393701 0.244094 
vt 0.393701 0.354331 
vt 0.102362 0.244094 
vt 0.102362 0.125984 
vt 0.188976 0.244094 
vt 0.015748 0.125984 
vt 0.102362 0.125984 
vt 0.102362 0.244094 
vt 0.157480 0.582677 
vt 0.078740 0.582677 
vt 0.078740 0.795276 
vt 0.157480 0.803150 
vt 0.157480 0.582677 
vt 0.078740 0.795276 
vt 0.275591 0.582677 
vt 0.157480 0.582677 
vt 0.157480 0.803150 
vt 0.275591 0.803150 
vt 0.275591 0.582677 
vt 0.157480 0.803150 
vt 0.409449 0.590551 
vt 0.275591 0.582677 
vt 0.275591 0.803150 
vt 0.409449 0.803150 
vt 0.409449 0.590551 
vt 0.275591 0.803150 
vt 0.527559 0.582677 
vt 0.409449 0.590551 
vt 0.409449 0.803150 
vt 0.527559 0.803150 
vt 0.527559 0.582677 
vt 0.409449 0.803150 
vt 0.606299 0.582677 
vt 0.527559 0.582677 
vt 0.527559 0.803150 
f 1/1/1 2/2/2 3/3/3
f 4/4/4 5/5/5 6/6/6
f 7/7/7 8/8/8 9/9/9
f 10/10/10 11/11/11 12/12/12
f 13/13/13 14/14/14 15/15/15
f 16/16/16 17/17/17 18/18/18
f 19/19/19 20/20/20 21/21/21
f 22/22/22 23/23/23 24/24/24
f 25/25/25 26/26/26 27/27/27
f 28/28/28 29/29/29 30/30/30
f 31/31/31 32/32/32 33/33/33
f 34/34/34 35/35/35 36/36/36
f 37/37/37 38/38/38 39/39/39
f 40/40/40 41/41/41 42/42/42
f 43/43/43 44/44/44 45/45/45
f 46/46/46 47/47/47 48/48/48
f 49/49/49 50/50/50 51/51/51
f 52/52/52 53/53/53 54/54/54
f 55/55/55 56/56/56 57/57/57
f 58/58/58 59/59/59 60/60/60
f 61/61/61 62/62/62 63/63/63
f 64/64/64 65/65/65 66/66/66
f 67/67/67 68/68/68 69/69/69
f 70/70/70 71/71/71 72/72/72
f 73/73/73 74/74/74 75/75/75
f 76/76/76 77/77/77 78/78/78
f 79/79/79 80/80/80 81/81/81
f 82/82/82 83/83/83 84/84/84
f 85/85/85 86/86/86 87/87/87
