v 386.000000 18.000000 -6.000000 
v 137.000000 -224.000000 -9.000000 
v 386.000000 -224.000000 -9.000000 
v 137.000000 -224.000000 -9.000000 
v 386.000000 18.000000 -6.000000 
v 137.000000 18.000000 -6.000000 
v 386.000000 260.000000 -3.000000 
v 137.000000 18.000000 -6.000000 
v 386.000000 18.000000 -6.000000 
v 137.000000 18.000000 -6.000000 
v 386.000000 260.000000 -3.000000 
v 137.000000 260.000000 -3.000000 
vn 0.000000 -0.014648 0.999756 
vn 0.000000 -0.014648 0.999756 
vn 0.000000 -0.014648 0.999756 
vn 0.000000 -0.014648 0.999756 
vn 0.000000 -0.014648 0.999756 
vn 0.000000 -0.014648 0.999756 
vn 0.000000 -0.014648 0.999756 
vn 0.000000 -0.014648 0.999756 
vn 0.000000 -0.014648 0.999756 
vn 0.000000 -0.014648 0.999756 
vn 0.000000 -0.014648 0.999756 
vn 0.000000 -0.014648 0.999756 
vt 0.564706 1.000000 
vt 0.000000 0.000000 
vt 0.000000 1.000000 
vt 0.000000 0.000000 
vt 0.564706 1.000000 
vt 0.564706 0.000000 
vt 0.996078 1.000000 
vt 0.431373 0.000000 
vt 0.431373 1.000000 
vt 0.431373 0.000000 
vt 0.996078 1.000000 
vt 0.996078 0.000000 
f 1/1/1 2/2/2 3/3/3
f 4/4/4 5/5/5 6/6/6
f 7/7/7 8/8/8 9/9/9
f 10/10/10 11/11/11 12/12/12
