v -482.000000 9.000000 -519.000000 
v -482.000000 9.000000 499.000000 
v 484.000000 9.000000 497.000000 
v 485.000000 9.000000 -517.000000 
v -482.000000 9.000000 -519.000000 
v 484.000000 9.000000 497.000000 
v 235.000000 30.000000 -512.000000 
v 235.000000 30.000000 -712.000000 
v -234.000000 30.000000 -712.000000 
v -234.000000 30.000000 -712.000000 
v -234.000000 30.000000 -512.000000 
v 235.000000 30.000000 -512.000000 
v 235.000000 30.000000 -712.000000 
v 235.000000 0.000000 -712.000000 
v -234.000000 0.000000 -712.000000 
v -234.000000 0.000000 -712.000000 
v -234.000000 30.000000 -712.000000 
v 235.000000 30.000000 -712.000000 
v 235.000000 30.000000 -512.000000 
v 235.000000 0.000000 -512.000000 
v 235.000000 0.000000 -712.000000 
v 235.000000 0.000000 -712.000000 
v 235.000000 30.000000 -712.000000 
v 235.000000 30.000000 -512.000000 
v -234.000000 30.000000 -712.000000 
v -234.000000 0.000000 -712.000000 
v -234.000000 0.000000 -512.000000 
v -234.000000 0.000000 -512.000000 
v -234.000000 30.000000 -512.000000 
v -234.000000 30.000000 -712.000000 
vn 0.000000 1.000000 0.000000 
vn 0.000000 1.000000 0.000000 
vn 0.000000 1.000000 0.000000 
vn 0.000000 1.000000 0.000000 
vn 0.000000 1.000000 0.000000 
vn 0.000000 1.000000 0.000000 
vn 0.000000 1.000000 0.000000 
vn 0.000000 1.000000 0.000000 
vn 0.000000 1.000000 0.000000 
vn 0.000000 1.000000 0.000000 
vn 0.000000 1.000000 0.000000 
vn 0.000000 1.000000 0.000000 
vn 0.000000 0.000000 -1.000000 
vn 0.000000 0.000000 -1.000000 
vn 0.000000 0.000000 -1.000000 
vn 0.000000 0.000000 -1.000000 
vn 0.000000 0.000000 -1.000000 
vn 0.000000 0.000000 -1.000000 
vn 1.000000 0.000000 0.000000 
vn 1.000000 0.000000 0.000000 
vn 1.000000 0.000000 0.000000 
vn 1.000000 0.000000 0.000000 
vn 1.000000 0.000000 0.000000 
vn 1.000000 0.000000 0.000000 
vn -1.000000 0.000000 0.000000 
vn -1.000000 0.000000 0.000000 
vn -1.000000 0.000000 0.000000 
vn -1.000000 0.000000 0.000000 
vn -1.000000 0.000000 0.000000 
vn -1.000000 0.000000 0.000000 
vt 1.000000 1.000000 
vt 1.000000 0.173228 
vt 0.003922 0.173228 
vt 0.992157 0.165354 
vt 0.000000 0.165354 
vt 0.996078 1.000000 
vt 0.937255 1.000000 
vt 0.937255 0.196850 
vt 0.137255 0.196850 
vt 0.137255 0.196850 
vt 0.137255 1.000000 
vt 0.937255 1.000000 
vt 1.000000 0.401575 
vt 1.000000 0.181102 
vt 0.000000 0.181102 
vt 0.000000 0.181102 
vt 0.000000 0.401575 
vt 1.000000 0.401575 
vt 1.000000 0.322835 
vt 1.000000 0.181102 
vt 0.000000 0.181102 
vt 0.000000 0.181102 
vt 0.000000 0.322835 
vt 1.000000 0.322835 
vt 1.000000 0.322835 
vt 1.000000 0.181102 
vt 0.000000 0.181102 
vt 0.000000 0.181102 
vt 0.000000 0.322835 
vt 1.000000 0.322835 
f 1/1/1 2/2/2 3/3/3
f 4/4/4 5/5/5 6/6/6
f 7/7/7 8/8/8 9/9/9
f 10/10/10 11/11/11 12/12/12
f 13/13/13 14/14/14 15/15/15
f 16/16/16 17/17/17 18/18/18
f 19/19/19 20/20/20 21/21/21
f 22/22/22 23/23/23 24/24/24
f 25/25/25 26/26/26 27/27/27
f 28/28/28 29/29/29 30/30/30
