v 31.000000 -6.000000 0.000000 
v 38.000000 -3.000000 -7.000000 
v 38.000000 -6.000000 0.000000 
v 31.000000 -6.000000 0.000000 
v 38.000000 -6.000000 0.000000 
v 38.000000 0.000000 6.000000 
v 38.000000 8.000000 0.000000 
v 38.000000 5.000000 -7.000000 
v 31.000000 8.000000 1.000000 
v 38.000000 5.000000 -7.000000 
v 0.000000 8.000000 1.000000 
v 31.000000 8.000000 1.000000 
v 31.000000 8.000000 1.000000 
v 38.000000 0.000000 6.000000 
v 38.000000 8.000000 0.000000 
v 38.000000 0.000000 6.000000 
v 31.000000 8.000000 1.000000 
v 31.000000 0.000000 6.000000 
v 38.000000 0.000000 6.000000 
v 31.000000 0.000000 6.000000 
v 31.000000 -6.000000 0.000000 
v 31.000000 0.000000 6.000000 
v 31.000000 8.000000 1.000000 
v 0.000000 8.000000 1.000000 
vn 0.040039 -0.803223 0.593994 
vn 0.020996 -0.601074 -0.798828 
vn -0.102051 -0.909912 0.401611 
vn 0.040039 -0.803223 0.593994 
vn -0.102051 -0.909912 0.401611 
vn -0.187256 0.022949 0.981934 
vn -0.191895 0.916748 0.349854 
vn -0.118652 0.686523 -0.717285 
vn -0.087646 0.839600 0.535645 
vn -0.118652 0.686523 -0.717285 
vn -0.108887 0.927490 0.357422 
vn -0.087646 0.839600 0.535645 
vn -0.087646 0.839600 0.535645 
vn -0.187256 0.022949 0.981934 
vn -0.191895 0.916748 0.349854 
vn -0.187256 0.022949 0.981934 
vn -0.087646 0.839600 0.535645 
vn -0.089111 0.027588 0.995605 
vn -0.187256 0.022949 0.981934 
vn -0.089111 0.027588 0.995605 
vn 0.040039 -0.803223 0.593994 
vn -0.089111 0.027588 0.995605 
vn -0.087646 0.839600 0.535645 
vn -0.108887 0.927490 0.357422 
vt 0.779528 0.222222 
vt 0.905512 0.222222 
vt 0.779528 0.238095 
vt 0.984252 0.222222 
vt 0.984252 0.253968 
vt 0.874016 0.238095 
vt 0.984252 0.253968 
vt 0.874016 0.238095 
vt 0.984252 0.222222 
vt 0.874016 0.238095 
vt 0.984252 1.000000 
vt 0.984252 0.222222 
vt 0.779528 0.222222 
vt 0.874016 0.238095 
vt 0.779528 0.253968 
vt 0.874016 0.238095 
vt 0.779528 0.222222 
vt 0.874016 0.222222 
vt 0.874016 0.238095 
vt 0.874016 0.222222 
vt 0.984252 0.222222 
vt 0.874016 0.222222 
vt 0.779528 0.222222 
vt 0.779528 1.000000 
f 1/1/1 2/2/2 3/3/3
f 4/4/4 5/5/5 6/6/6
f 7/7/7 8/8/8 9/9/9
f 10/10/10 11/11/11 12/12/12
f 13/13/13 14/14/14 15/15/15
f 16/16/16 17/17/17 18/18/18
f 19/19/19 20/20/20 21/21/21
f 22/22/22 23/23/23 24/24/24
