v 18.000000 0.000000 19.000000 
v -4.000000 0.000000 20.000000 
v -4.000000 0.000000 -1.000000 
v -4.000000 0.000000 -1.000000 
v 19.000000 0.000000 -1.000000 
v 18.000000 0.000000 19.000000 
v 18.000000 9.000000 19.000000 
v 19.000000 9.000000 -1.000000 
v -4.000000 9.000000 -1.000000 
v -4.000000 9.000000 -1.000000 
v -4.000000 9.000000 20.000000 
v 18.000000 9.000000 19.000000 
v 2.000000 -4.000000 -20.000000 
v 3.000000 -8.000000 -16.000000 
v -3.000000 -8.000000 -14.000000 
v -3.000000 -8.000000 -14.000000 
v -5.000000 -5.000000 -19.000000 
v 2.000000 -4.000000 -20.000000 
v 23.000000 8.000000 16.000000 
v 23.000000 1.000000 16.000000 
v 24.000000 1.000000 1.000000 
v 24.000000 1.000000 1.000000 
v 24.000000 8.000000 1.000000 
v 23.000000 8.000000 16.000000 
v -4.000000 9.000000 20.000000 
v -4.000000 0.000000 20.000000 
v 18.000000 0.000000 19.000000 
v 18.000000 0.000000 19.000000 
v 18.000000 9.000000 19.000000 
v -4.000000 9.000000 20.000000 
v -24.000000 -6.000000 0.000000 
v -20.000000 -9.000000 0.000000 
v -20.000000 -9.000000 16.000000 
v -20.000000 -9.000000 16.000000 
v -24.000000 -6.000000 16.000000 
v -24.000000 -6.000000 0.000000 
v -13.000000 -2.000000 -1.000000 
v -4.000000 0.000000 -1.000000 
v -4.000000 0.000000 20.000000 
v -4.000000 0.000000 20.000000 
v -13.000000 -2.000000 20.000000 
v -13.000000 -2.000000 -1.000000 
v -16.000000 3.000000 20.000000 
v -4.000000 9.000000 20.000000 
v -4.000000 9.000000 -1.000000 
v -4.000000 9.000000 -1.000000 
v -16.000000 3.000000 -1.000000 
v -16.000000 3.000000 20.000000 
v -16.000000 3.000000 -1.000000 
v -4.000000 9.000000 -1.000000 
v -4.000000 0.000000 -1.000000 
v -4.000000 0.000000 -1.000000 
v -13.000000 -2.000000 -1.000000 
v -16.000000 3.000000 -1.000000 
v -13.000000 -2.000000 20.000000 
v -4.000000 0.000000 20.000000 
v -4.000000 9.000000 20.000000 
v -4.000000 9.000000 20.000000 
v -16.000000 3.000000 20.000000 
v -13.000000 -2.000000 20.000000 
v -20.000000 -9.000000 0.000000 
v -13.000000 -2.000000 -1.000000 
v -13.000000 -2.000000 20.000000 
v -13.000000 -2.000000 20.000000 
v -20.000000 -9.000000 16.000000 
v -20.000000 -9.000000 0.000000 
v -24.000000 -6.000000 0.000000 
v -16.000000 3.000000 -1.000000 
v -13.000000 -2.000000 -1.000000 
v -13.000000 -2.000000 -1.000000 
v -20.000000 -9.000000 0.000000 
v -24.000000 -6.000000 0.000000 
v -24.000000 -6.000000 16.000000 
v -16.000000 3.000000 20.000000 
v -16.000000 3.000000 -1.000000 
v -16.000000 3.000000 -1.000000 
v -24.000000 -6.000000 0.000000 
v -24.000000 -6.000000 16.000000 
v -20.000000 -9.000000 16.000000 
v -13.000000 -2.000000 20.000000 
v -16.000000 3.000000 20.000000 
v -16.000000 3.000000 20.000000 
v -24.000000 -6.000000 16.000000 
v -20.000000 -9.000000 16.000000 
v 10.000000 -1.000000 -9.000000 
v 19.000000 0.000000 -1.000000 
v -4.000000 0.000000 -1.000000 
v -4.000000 0.000000 -1.000000 
v 0.000000 -1.000000 -6.000000 
v 10.000000 -1.000000 -9.000000 
v 0.000000 5.000000 -9.000000 
v -4.000000 9.000000 -1.000000 
v 19.000000 9.000000 -1.000000 
v 19.000000 9.000000 -1.000000 
v 10.000000 5.000000 -12.000000 
v 0.000000 5.000000 -9.000000 
v 10.000000 5.000000 -12.000000 
v 19.000000 9.000000 -1.000000 
v 19.000000 0.000000 -1.000000 
v 19.000000 0.000000 -1.000000 
v 10.000000 -1.000000 -9.000000 
v 10.000000 5.000000 -12.000000 
v 0.000000 -1.000000 -6.000000 
v -4.000000 0.000000 -1.000000 
v -4.000000 9.000000 -1.000000 
v -4.000000 9.000000 -1.000000 
v 0.000000 5.000000 -9.000000 
v 0.000000 -1.000000 -6.000000 
v 3.000000 -8.000000 -16.000000 
v 10.000000 -1.000000 -9.000000 
v 0.000000 -1.000000 -6.000000 
v 0.000000 -1.000000 -6.000000 
v -3.000000 -8.000000 -14.000000 
v 3.000000 -8.000000 -16.000000 
v 2.000000 -4.000000 -20.000000 
v 10.000000 5.000000 -12.000000 
v 10.000000 -1.000000 -9.000000 
v 10.000000 -1.000000 -9.000000 
v 3.000000 -8.000000 -16.000000 
v 2.000000 -4.000000 -20.000000 
v -5.000000 -5.000000 -19.000000 
v 0.000000 5.000000 -9.000000 
v 10.000000 5.000000 -12.000000 
v 10.000000 5.000000 -12.000000 
v 2.000000 -4.000000 -20.000000 
v -5.000000 -5.000000 -19.000000 
v -3.000000 -8.000000 -14.000000 
v 0.000000 -1.000000 -6.000000 
v 0.000000 5.000000 -9.000000 
v 0.000000 5.000000 -9.000000 
v -5.000000 -5.000000 -19.000000 
v -3.000000 -8.000000 -14.000000 
v 23.000000 1.000000 16.000000 
v 18.000000 0.000000 19.000000 
v 19.000000 0.000000 -1.000000 
v 19.000000 0.000000 -1.000000 
v 24.000000 1.000000 1.000000 
v 23.000000 1.000000 16.000000 
v 24.000000 8.000000 1.000000 
v 19.000000 9.000000 -1.000000 
v 18.000000 9.000000 19.000000 
v 18.000000 9.000000 19.000000 
v 23.000000 8.000000 16.000000 
v 24.000000 8.000000 1.000000 
v 23.000000 8.000000 16.000000 
v 18.000000 9.000000 19.000000 
v 18.000000 0.000000 19.000000 
v 18.000000 0.000000 19.000000 
v 23.000000 1.000000 16.000000 
v 23.000000 8.000000 16.000000 
v 24.000000 1.000000 1.000000 
v 19.000000 0.000000 -1.000000 
v 19.000000 9.000000 -1.000000 
v 19.000000 9.000000 -1.000000 
v 24.000000 8.000000 1.000000 
v 24.000000 1.000000 1.000000 
vn 0.244141 -0.598145 0.762939 
vn 0.177979 -0.809814 0.558838 
vn -0.062012 -0.921631 -0.382812 
vn -0.062012 -0.921631 -0.382812 
vn 0.459473 -0.812256 -0.358643 
vn 0.244141 -0.598145 0.762939 
vn 0.211182 0.879150 0.426758 
vn 0.365967 0.717041 -0.592773 
vn -0.440918 0.783203 -0.437988 
vn -0.440918 0.783203 -0.437988 
vn -0.095459 0.424316 0.900391 
vn 0.211182 0.879150 0.426758 
vn 0.361328 -0.433594 -0.825195 
vn 0.351807 -0.933350 0.069092 
vn -0.667725 -0.740234 0.076904 
vn -0.667725 -0.740234 0.076904 
vn -0.635254 0.324951 -0.700439 
vn 0.361328 -0.433594 -0.825195 
vn 0.822266 0.256836 0.507324 
vn 0.646973 -0.682373 0.339844 
vn 0.863281 -0.263428 -0.430176 
vn 0.863281 -0.263428 -0.430176 
vn 0.680420 0.679688 -0.272949 
vn 0.822266 0.256836 0.507324 
vn -0.095459 0.424316 0.900391 
vn 0.177979 -0.809814 0.558838 
vn 0.244141 -0.598145 0.762939 
vn 0.244141 -0.598145 0.762939 
vn 0.211182 0.879150 0.426758 
vn -0.095459 0.424316 0.900391 
vn -0.673584 -0.372803 -0.637939 
vn 0.287598 -0.881104 -0.374756 
vn -0.264404 -0.789062 0.553955 
vn -0.264404 -0.789062 0.553955 
vn -0.919678 0.077393 0.384766 
vn -0.673584 -0.372803 -0.637939 
vn 0.282715 -0.648438 -0.706543 
vn -0.062012 -0.921631 -0.382812 
vn 0.177979 -0.809814 0.558838 
vn 0.177979 -0.809814 0.558838 
vn 0.319336 -0.620605 0.715820 
vn 0.282715 -0.648438 -0.706543 
vn -0.519043 0.489502 0.700439 
vn -0.095459 0.424316 0.900391 
vn -0.440918 0.783203 -0.437988 
vn -0.440918 0.783203 -0.437988 
vn -0.499023 0.494385 -0.711426 
vn -0.519043 0.489502 0.700439 
vn -0.499023 0.494385 -0.711426 
vn -0.440918 0.783203 -0.437988 
vn -0.062012 -0.921631 -0.382812 
vn -0.062012 -0.921631 -0.382812 
vn 0.282715 -0.648438 -0.706543 
vn -0.499023 0.494385 -0.711426 
vn 0.319336 -0.620605 0.715820 
vn 0.177979 -0.809814 0.558838 
vn -0.095459 0.424316 0.900391 
vn -0.095459 0.424316 0.900391 
vn -0.519043 0.489502 0.700439 
vn 0.319336 -0.620605 0.715820 
vn 0.287598 -0.881104 -0.374756 
vn 0.282715 -0.648438 -0.706543 
vn 0.319336 -0.620605 0.715820 
vn 0.319336 -0.620605 0.715820 
vn -0.264404 -0.789062 0.553955 
vn 0.287598 -0.881104 -0.374756 
vn -0.673584 -0.372803 -0.637939 
vn -0.499023 0.494385 -0.711426 
vn 0.282715 -0.648438 -0.706543 
vn 0.282715 -0.648438 -0.706543 
vn 0.287598 -0.881104 -0.374756 
vn -0.673584 -0.372803 -0.637939 
vn -0.919678 0.077393 0.384766 
vn -0.519043 0.489502 0.700439 
vn -0.499023 0.494385 -0.711426 
vn -0.499023 0.494385 -0.711426 
vn -0.673584 -0.372803 -0.637939 
vn -0.919678 0.077393 0.384766 
vn -0.264404 -0.789062 0.553955 
vn 0.319336 -0.620605 0.715820 
vn -0.519043 0.489502 0.700439 
vn -0.519043 0.489502 0.700439 
vn -0.919678 0.077393 0.384766 
vn -0.264404 -0.789062 0.553955 
vn 0.596436 -0.798096 -0.083008 
vn 0.459473 -0.812256 -0.358643 
vn -0.062012 -0.921631 -0.382812 
vn -0.062012 -0.921631 -0.382812 
vn -0.637207 -0.714355 0.288574 
vn 0.596436 -0.798096 -0.083008 
vn -0.728760 0.626465 -0.275879 
vn -0.440918 0.783203 -0.437988 
vn 0.365967 0.717041 -0.592773 
vn 0.365967 0.717041 -0.592773 
vn 0.426758 0.417480 -0.802002 
vn -0.728760 0.626465 -0.275879 
vn 0.426758 0.417480 -0.802002 
vn 0.365967 0.717041 -0.592773 
vn 0.459473 -0.812256 -0.358643 
vn 0.459473 -0.812256 -0.358643 
vn 0.596436 -0.798096 -0.083008 
vn 0.426758 0.417480 -0.802002 
vn -0.637207 -0.714355 0.288574 
vn -0.062012 -0.921631 -0.382812 
vn -0.440918 0.783203 -0.437988 
vn -0.440918 0.783203 -0.437988 
vn -0.728760 0.626465 -0.275879 
vn -0.637207 -0.714355 0.288574 
vn 0.351807 -0.933350 0.069092 
vn 0.596436 -0.798096 -0.083008 
vn -0.637207 -0.714355 0.288574 
vn -0.637207 -0.714355 0.288574 
vn -0.667725 -0.740234 0.076904 
vn 0.351807 -0.933350 0.069092 
vn 0.361328 -0.433594 -0.825195 
vn 0.426758 0.417480 -0.802002 
vn 0.596436 -0.798096 -0.083008 
vn 0.596436 -0.798096 -0.083008 
vn 0.351807 -0.933350 0.069092 
vn 0.361328 -0.433594 -0.825195 
vn -0.635254 0.324951 -0.700439 
vn -0.728760 0.626465 -0.275879 
vn 0.426758 0.417480 -0.802002 
vn 0.426758 0.417480 -0.802002 
vn 0.361328 -0.433594 -0.825195 
vn -0.635254 0.324951 -0.700439 
vn -0.667725 -0.740234 0.076904 
vn -0.637207 -0.714355 0.288574 
vn -0.728760 0.626465 -0.275879 
vn -0.728760 0.626465 -0.275879 
vn -0.635254 0.324951 -0.700439 
vn -0.667725 -0.740234 0.076904 
vn 0.646973 -0.682373 0.339844 
vn 0.244141 -0.598145 0.762939 
vn 0.459473 -0.812256 -0.358643 
vn 0.459473 -0.812256 -0.358643 
vn 0.863281 -0.263428 -0.430176 
vn 0.646973 -0.682373 0.339844 
vn 0.680420 0.679688 -0.272949 
vn 0.365967 0.717041 -0.592773 
vn 0.211182 0.879150 0.426758 
vn 0.211182 0.879150 0.426758 
vn 0.822266 0.256836 0.507324 
vn 0.680420 0.679688 -0.272949 
vn 0.822266 0.256836 0.507324 
vn 0.211182 0.879150 0.426758 
vn 0.244141 -0.598145 0.762939 
vn 0.244141 -0.598145 0.762939 
vn 0.646973 -0.682373 0.339844 
vn 0.822266 0.256836 0.507324 
vn 0.863281 -0.263428 -0.430176 
vn 0.459473 -0.812256 -0.358643 
vn 0.365967 0.717041 -0.592773 
vn 0.365967 0.717041 -0.592773 
vn 0.680420 0.679688 -0.272949 
vn 0.863281 -0.263428 -0.430176 
vt 0.290323 0.419355 
vt 0.322581 0.193548 
vt 0.064516 0.193548 
vt 0.064516 0.193548 
vt 0.032258 0.419355 
vt 0.290323 0.419355 
vt 0.129032 0.064516 
vt 0.903226 0.064516 
vt 0.903226 0.387097 
vt 0.903226 0.387097 
vt 0.129032 0.387097 
vt 0.129032 0.064516 
vt 0.096774 0.032258 
vt 0.096774 0.064516 
vt 0.193548 0.064516 
vt 0.193548 0.064516 
vt 0.193548 0.000000 
vt 0.096774 0.032258 
vt 0.258065 0.322581 
vt 0.258065 0.161290 
vt 0.096774 0.161290 
vt 0.096774 0.161290 
vt 0.096774 0.322581 
vt 0.258065 0.322581 
vt 0.129032 0.387097 
vt 0.000000 0.419355 
vt 0.000000 0.064516 
vt 0.000000 0.064516 
vt 0.129032 0.064516 
vt 0.129032 0.387097 
vt 0.774194 0.935484 
vt 0.774194 0.838710 
vt 0.161290 0.838710 
vt 0.161290 0.838710 
vt 0.161290 0.935484 
vt 0.774194 0.935484 
vt 0.838710 0.645161 
vt 0.838710 0.419355 
vt 0.000000 0.419355 
vt 0.000000 0.419355 
vt 0.000000 0.645161 
vt 0.838710 0.645161 
vt 0.000000 0.741935 
vt 0.000000 0.419355 
vt 0.838710 0.419355 
vt 0.838710 0.419355 
vt 0.838710 0.741935 
vt 0.000000 0.741935 
vt 0.838710 0.741935 
vt 0.838710 0.419355 
vt 0.838710 0.419355 
vt 0.838710 0.419355 
vt 0.838710 0.645161 
vt 0.838710 0.741935 
vt 0.000000 0.645161 
vt 0.000000 0.419355 
vt 0.000000 0.419355 
vt 0.000000 0.419355 
vt 0.000000 0.741935 
vt 0.000000 0.645161 
vt 0.774194 0.838710 
vt 0.838710 0.645161 
vt 0.000000 0.645161 
vt 0.000000 0.645161 
vt 0.161290 0.838710 
vt 0.774194 0.838710 
vt 0.774194 0.935484 
vt 0.838710 0.741935 
vt 0.838710 0.645161 
vt 0.838710 0.645161 
vt 0.774194 0.838710 
vt 0.774194 0.935484 
vt 0.161290 0.935484 
vt 0.000000 0.741935 
vt 0.838710 0.741935 
vt 0.838710 0.741935 
vt 0.774194 0.935484 
vt 0.161290 0.935484 
vt 0.161290 0.838710 
vt 0.000000 0.645161 
vt 0.000000 0.741935 
vt 0.000000 0.741935 
vt 0.161290 0.935484 
vt 0.161290 0.838710 
vt 0.064516 0.161290 
vt 0.000000 0.290323 
vt 0.258065 0.225806 
vt 0.258065 0.225806 
vt 0.193548 0.161290 
vt 0.064516 0.161290 
vt 0.645161 0.451613 
vt 0.870968 0.451613 
vt 0.870968 0.064516 
vt 0.870968 0.064516 
vt 0.580645 0.193548 
vt 0.645161 0.451613 
vt 0.741935 0.193548 
vt 0.870968 0.258065 
vt 0.870968 0.129032 
vt 0.870968 0.129032 
vt 0.774194 0.129032 
vt 0.741935 0.193548 
vt 0.419355 0.193548 
vt 0.258065 0.258065 
vt 0.258065 0.516129 
vt 0.258065 0.516129 
vt 0.548387 0.354839 
vt 0.419355 0.193548 
vt 0.096774 0.064516 
vt 0.064516 0.161290 
vt 0.193548 0.161290 
vt 0.193548 0.161290 
vt 0.193548 0.064516 
vt 0.096774 0.064516 
vt 0.645161 0.064516 
vt 0.741935 0.193548 
vt 0.774194 0.129032 
vt 0.774194 0.129032 
vt 0.709677 0.032258 
vt 0.645161 0.064516 
vt 0.548387 0.709677 
vt 0.645161 0.451613 
vt 0.580645 0.193548 
vt 0.580645 0.193548 
vt 0.451613 0.548387 
vt 0.548387 0.709677 
vt 0.677419 0.000000 
vt 0.419355 0.193548 
vt 0.548387 0.354839 
vt 0.548387 0.354839 
vt 0.806452 0.064516 
vt 0.677419 0.000000 
vt 0.258065 0.451613 
vt 0.290323 0.419355 
vt 0.032258 0.419355 
vt 0.032258 0.419355 
vt 0.064516 0.451613 
vt 0.258065 0.451613 
vt 0.903226 -0.032258 
vt 0.903226 0.064516 
vt 0.129032 0.064516 
vt 0.129032 0.064516 
vt 0.129032 -0.032258 
vt 0.903226 -0.032258 
vt 0.129032 -0.032258 
vt 0.129032 0.064516 
vt 0.000000 0.064516 
vt 0.000000 0.064516 
vt 0.000000 -0.032258 
vt 0.129032 -0.032258 
vt 0.838710 0.322581 
vt 0.709677 0.225806 
vt 0.709677 0.225806 
vt 0.709677 0.225806 
vt 0.838710 0.322581 
vt 0.838710 0.322581 
f 1/1/1 2/2/2 3/3/3
f 4/4/4 5/5/5 6/6/6
f 7/7/7 8/8/8 9/9/9
f 10/10/10 11/11/11 12/12/12
f 13/13/13 14/14/14 15/15/15
f 16/16/16 17/17/17 18/18/18
f 19/19/19 20/20/20 21/21/21
f 22/22/22 23/23/23 24/24/24
f 25/25/25 26/26/26 27/27/27
f 28/28/28 29/29/29 30/30/30
f 31/31/31 32/32/32 33/33/33
f 34/34/34 35/35/35 36/36/36
f 37/37/37 38/38/38 39/39/39
f 40/40/40 41/41/41 42/42/42
f 43/43/43 44/44/44 45/45/45
f 46/46/46 47/47/47 48/48/48
f 49/49/49 50/50/50 51/51/51
f 52/52/52 53/53/53 54/54/54
f 55/55/55 56/56/56 57/57/57
f 58/58/58 59/59/59 60/60/60
f 61/61/61 62/62/62 63/63/63
f 64/64/64 65/65/65 66/66/66
f 67/67/67 68/68/68 69/69/69
f 70/70/70 71/71/71 72/72/72
f 73/73/73 74/74/74 75/75/75
f 76/76/76 77/77/77 78/78/78
f 79/79/79 80/80/80 81/81/81
f 82/82/82 83/83/83 84/84/84
f 85/85/85 86/86/86 87/87/87
f 88/88/88 89/89/89 90/90/90
f 91/91/91 92/92/92 93/93/93
f 94/94/94 95/95/95 96/96/96
f 97/97/97 98/98/98 99/99/99
f 100/100/100 101/101/101 102/102/102
f 103/103/103 104/104/104 105/105/105
f 106/106/106 107/107/107 108/108/108
f 109/109/109 110/110/110 111/111/111
f 112/112/112 113/113/113 114/114/114
f 115/115/115 116/116/116 117/117/117
f 118/118/118 119/119/119 120/120/120
f 121/121/121 122/122/122 123/123/123
f 124/124/124 125/125/125 126/126/126
f 127/127/127 128/128/128 129/129/129
f 130/130/130 131/131/131 132/132/132
f 133/133/133 134/134/134 135/135/135
f 136/136/136 137/137/137 138/138/138
f 139/139/139 140/140/140 141/141/141
f 142/142/142 143/143/143 144/144/144
f 145/145/145 146/146/146 147/147/147
f 148/148/148 149/149/149 150/150/150
f 151/151/151 152/152/152 153/153/153
f 154/154/154 155/155/155 156/156/156
