v 0.000000 81.000000 -56.000000 
v 6.000000 79.000000 -53.000000 
v 0.000000 -1.000000 -56.000000 
v 6.000000 79.000000 -53.000000 
v 6.000000 -1.000000 -53.000000 
v 0.000000 -1.000000 -56.000000 
v -8.000000 79.000000 -53.000000 
v 0.000000 81.000000 -56.000000 
v -8.000000 -1.000000 -53.000000 
v 0.000000 81.000000 -56.000000 
v 0.000000 -1.000000 -56.000000 
v -8.000000 -1.000000 -53.000000 
v 0.000000 84.000000 -43.000000 
v 6.000000 81.000000 -42.000000 
v 0.000000 81.000000 -56.000000 
v 6.000000 81.000000 -42.000000 
v 6.000000 79.000000 -53.000000 
v 0.000000 81.000000 -56.000000 
v -7.000000 81.000000 -43.000000 
v 0.000000 84.000000 -43.000000 
v -8.000000 79.000000 -53.000000 
v 0.000000 84.000000 -43.000000 
v 0.000000 81.000000 -56.000000 
v -8.000000 79.000000 -53.000000 
v 0.000000 80.000000 -27.000000 
v 6.000000 77.000000 -27.000000 
v 0.000000 84.000000 -43.000000 
v 6.000000 77.000000 -27.000000 
v 6.000000 81.000000 -42.000000 
v 0.000000 84.000000 -43.000000 
v -7.000000 77.000000 -27.000000 
v 0.000000 80.000000 -27.000000 
v -7.000000 81.000000 -43.000000 
v 0.000000 80.000000 -27.000000 
v 0.000000 84.000000 -43.000000 
v -7.000000 81.000000 -43.000000 
v 0.000000 43.000000 36.000000 
v 7.000000 41.000000 33.000000 
v 0.000000 80.000000 -27.000000 
v 7.000000 41.000000 33.000000 
v 6.000000 77.000000 -27.000000 
v 0.000000 80.000000 -27.000000 
v -6.000000 42.000000 35.000000 
v 0.000000 43.000000 36.000000 
v -7.000000 77.000000 -27.000000 
v 0.000000 43.000000 36.000000 
v 0.000000 80.000000 -27.000000 
v -7.000000 77.000000 -27.000000 
v 0.000000 16.000000 55.000000 
v 8.000000 15.000000 52.000000 
v 0.000000 43.000000 36.000000 
v 8.000000 15.000000 52.000000 
v 7.000000 41.000000 33.000000 
v 0.000000 43.000000 36.000000 
v -6.000000 16.000000 54.000000 
v 0.000000 16.000000 55.000000 
v -6.000000 42.000000 35.000000 
v 0.000000 16.000000 55.000000 
v 0.000000 43.000000 36.000000 
v -6.000000 42.000000 35.000000 
v 0.000000 -17.000000 55.000000 
v 8.000000 -16.000000 52.000000 
v 0.000000 16.000000 55.000000 
v 8.000000 -16.000000 52.000000 
v 8.000000 15.000000 52.000000 
v 0.000000 16.000000 55.000000 
v -6.000000 -17.000000 54.000000 
v 0.000000 -17.000000 55.000000 
v -6.000000 16.000000 54.000000 
v 0.000000 -17.000000 55.000000 
v 0.000000 16.000000 55.000000 
v -6.000000 16.000000 54.000000 
v 0.000000 -44.000000 36.000000 
v 7.000000 -42.000000 34.000000 
v 0.000000 -17.000000 55.000000 
v 7.000000 -42.000000 34.000000 
v 8.000000 -16.000000 52.000000 
v 0.000000 -17.000000 55.000000 
v -6.000000 -43.000000 35.000000 
v 0.000000 -44.000000 36.000000 
v -6.000000 -17.000000 54.000000 
v 0.000000 -44.000000 36.000000 
v 0.000000 -17.000000 55.000000 
v -6.000000 -17.000000 54.000000 
v 0.000000 -82.000000 -29.000000 
v 6.000000 -79.000000 -30.000000 
v 0.000000 -44.000000 36.000000 
v 6.000000 -79.000000 -30.000000 
v 7.000000 -42.000000 34.000000 
v 0.000000 -44.000000 36.000000 
v -7.000000 -79.000000 -30.000000 
v 0.000000 -82.000000 -29.000000 
v -6.000000 -43.000000 35.000000 
v 0.000000 -82.000000 -29.000000 
v 0.000000 -44.000000 36.000000 
v -6.000000 -43.000000 35.000000 
v 0.000000 -84.000000 -43.000000 
v 6.000000 -81.000000 -42.000000 
v 0.000000 -82.000000 -29.000000 
v 6.000000 -81.000000 -42.000000 
v 6.000000 -79.000000 -30.000000 
v 0.000000 -82.000000 -29.000000 
v -7.000000 -81.000000 -42.000000 
v 0.000000 -84.000000 -43.000000 
v -7.000000 -79.000000 -30.000000 
v 0.000000 -84.000000 -43.000000 
v 0.000000 -82.000000 -29.000000 
v -7.000000 -79.000000 -30.000000 
v 0.000000 -81.000000 -56.000000 
v 6.000000 -79.000000 -53.000000 
v 0.000000 -84.000000 -43.000000 
v 6.000000 -79.000000 -53.000000 
v 6.000000 -81.000000 -42.000000 
v 0.000000 -84.000000 -43.000000 
v -8.000000 -79.000000 -53.000000 
v 0.000000 -81.000000 -56.000000 
v -7.000000 -81.000000 -42.000000 
v 0.000000 -81.000000 -56.000000 
v 0.000000 -84.000000 -43.000000 
v -7.000000 -81.000000 -42.000000 
v 0.000000 -1.000000 -56.000000 
v 6.000000 -1.000000 -53.000000 
v 0.000000 -81.000000 -56.000000 
v 6.000000 -1.000000 -53.000000 
v 6.000000 -79.000000 -53.000000 
v 0.000000 -81.000000 -56.000000 
v -8.000000 -1.000000 -53.000000 
v 0.000000 -1.000000 -56.000000 
v -8.000000 -79.000000 -53.000000 
v 0.000000 -1.000000 -56.000000 
v 0.000000 -81.000000 -56.000000 
v -8.000000 -79.000000 -53.000000 
vn -0.009766 0.645020 -0.763916 
vn 0.726807 0.313721 -0.610596 
vn 0.005371 -0.001465 -0.999756 
vn 0.726807 0.313721 -0.610596 
vn 0.677734 -0.001465 -0.735107 
vn 0.005371 -0.001465 -0.999756 
vn -0.727539 0.557129 -0.399658 
vn -0.009766 0.645020 -0.763916 
vn -0.686279 0.000000 -0.727295 
vn -0.009766 0.645020 -0.763916 
vn 0.005371 -0.001465 -0.999756 
vn -0.686279 0.000000 -0.727295 
vn 0.026611 0.999268 0.020508 
vn 0.656494 0.753418 -0.033936 
vn -0.009766 0.645020 -0.763916 
vn 0.656494 0.753418 -0.033936 
vn 0.726807 0.313721 -0.610596 
vn -0.009766 0.645020 -0.763916 
vn -0.704102 0.704346 0.088379 
vn 0.026611 0.999268 0.020508 
vn -0.727539 0.557129 -0.399658 
vn 0.026611 0.999268 0.020508 
vn -0.009766 0.645020 -0.763916 
vn -0.727539 0.557129 -0.399658 
vn 0.004639 0.924316 0.381348 
vn 0.690918 0.679199 0.246826 
vn 0.026611 0.999268 0.020508 
vn 0.690918 0.679199 0.246826 
vn 0.656494 0.753418 -0.033936 
vn 0.026611 0.999268 0.020508 
vn -0.599121 0.725342 0.338623 
vn 0.004639 0.924316 0.381348 
vn -0.704102 0.704346 0.088379 
vn 0.004639 0.924316 0.381348 
vn 0.026611 0.999268 0.020508 
vn -0.704102 0.704346 0.088379 
vn 0.140137 0.739258 0.658447 
vn 0.699707 0.563721 0.438232 
vn 0.004639 0.924316 0.381348 
vn 0.699707 0.563721 0.438232 
vn 0.690918 0.679199 0.246826 
vn 0.004639 0.924316 0.381348 
vn -0.396973 0.641113 0.656494 
vn 0.140137 0.739258 0.658447 
vn -0.599121 0.725342 0.338623 
vn 0.140137 0.739258 0.658447 
vn 0.004639 0.924316 0.381348 
vn -0.599121 0.725342 0.338623 
vn 0.177734 0.317871 0.931152 
vn 0.707764 0.290771 0.643555 
vn 0.140137 0.739258 0.658447 
vn 0.707764 0.290771 0.643555 
vn 0.699707 0.563721 0.438232 
vn 0.140137 0.739258 0.658447 
vn -0.456055 0.182861 0.870850 
vn 0.177734 0.317871 0.931152 
vn -0.396973 0.641113 0.656494 
vn 0.177734 0.317871 0.931152 
vn 0.140137 0.739258 0.658447 
vn -0.396973 0.641113 0.656494 
vn 0.162109 -0.290771 0.942627 
vn 0.706299 -0.142822 0.693115 
vn 0.177734 0.317871 0.931152 
vn 0.706299 -0.142822 0.693115 
vn 0.707764 0.290771 0.643555 
vn 0.177734 0.317871 0.931152 
vn -0.475586 -0.359619 0.802734 
vn 0.162109 -0.290771 0.942627 
vn -0.456055 0.182861 0.870850 
vn 0.162109 -0.290771 0.942627 
vn 0.177734 0.317871 0.931152 
vn -0.456055 0.182861 0.870850 
vn 0.137207 -0.729004 0.670410 
vn 0.701904 -0.491455 0.515137 
vn 0.162109 -0.290771 0.942627 
vn 0.701904 -0.491455 0.515137 
vn 0.706299 -0.142822 0.693115 
vn 0.162109 -0.290771 0.942627 
vn -0.584473 -0.638428 0.500488 
vn 0.137207 -0.729004 0.670410 
vn -0.475586 -0.359619 0.802734 
vn 0.137207 -0.729004 0.670410 
vn 0.162109 -0.290771 0.942627 
vn -0.475586 -0.359619 0.802734 
vn 0.038574 -0.944092 0.326660 
vn 0.705078 -0.654053 0.273438 
vn 0.137207 -0.729004 0.670410 
vn 0.705078 -0.654053 0.273438 
vn 0.701904 -0.491455 0.515137 
vn 0.137207 -0.729004 0.670410 
vn -0.704102 -0.685791 0.182617 
vn 0.038574 -0.944092 0.326660 
vn -0.584473 -0.638428 0.500488 
vn 0.038574 -0.944092 0.326660 
vn 0.137207 -0.729004 0.670410 
vn -0.584473 -0.638428 0.500488 
vn -0.022461 -0.999268 -0.022461 
vn 0.706299 -0.706787 0.034912 
vn 0.038574 -0.944092 0.326660 
vn 0.706299 -0.706787 0.034912 
vn 0.705078 -0.654053 0.273438 
vn 0.038574 -0.944092 0.326660 
vn -0.666504 -0.743652 -0.047852 
vn -0.022461 -0.999268 -0.022461 
vn -0.704102 -0.685791 0.182617 
vn -0.022461 -0.999268 -0.022461 
vn 0.038574 -0.944092 0.326660 
vn -0.704102 -0.685791 0.182617 
vn 0.006836 -0.649170 -0.760254 
vn 0.730225 -0.559570 -0.391357 
vn -0.022461 -0.999268 -0.022461 
vn 0.730225 -0.559570 -0.391357 
vn 0.706299 -0.706787 0.034912 
vn -0.022461 -0.999268 -0.022461 
vn -0.729492 -0.309570 -0.609619 
vn 0.006836 -0.649170 -0.760254 
vn -0.666504 -0.743652 -0.047852 
vn 0.006836 -0.649170 -0.760254 
vn -0.022461 -0.999268 -0.022461 
vn -0.666504 -0.743652 -0.047852 
vn 0.005371 -0.001465 -0.999756 
vn 0.677734 -0.001465 -0.735107 
vn 0.006836 -0.649170 -0.760254 
vn 0.677734 -0.001465 -0.735107 
vn 0.730225 -0.559570 -0.391357 
vn 0.006836 -0.649170 -0.760254 
vn -0.686279 0.000000 -0.727295 
vn 0.005371 -0.001465 -0.999756 
vn -0.729492 -0.309570 -0.609619 
vn 0.005371 -0.001465 -0.999756 
vn 0.006836 -0.649170 -0.760254 
vn -0.729492 -0.309570 -0.609619 
vt 0.000000 0.483871 
vt 0.000000 1.000000 
vt 1.000000 0.483871 
vt 0.000000 1.000000 
vt 1.000000 1.000000 
vt 1.000000 0.483871 
vt 0.000000 -0.032258 
vt 0.000000 0.483871 
vt 1.000000 -0.032258 
vt 0.000000 0.483871 
vt 1.000000 0.483871 
vt 1.000000 -0.032258 
vt 0.238095 0.483871 
vt 0.238095 1.000000 
vt 0.492063 0.483871 
vt 0.238095 1.000000 
vt 0.492063 1.000000 
vt 0.492063 0.483871 
vt 0.238095 -0.032258 
vt 0.238095 0.483871 
vt 0.492063 -0.032258 
vt 0.238095 0.483871 
vt 0.492063 0.483871 
vt 0.492063 -0.032258 
vt 0.000000 0.483871 
vt 0.000000 1.000000 
vt 0.238095 0.483871 
vt 0.000000 1.000000 
vt 0.238095 1.000000 
vt 0.238095 0.483871 
vt 0.000000 -0.032258 
vt 0.000000 0.483871 
vt 0.238095 -0.032258 
vt 0.000000 0.483871 
vt 0.238095 0.483871 
vt 0.238095 -0.032258 
vt 0.000000 0.483871 
vt 0.000000 1.000000 
vt 1.000000 0.483871 
vt 0.000000 1.000000 
vt 1.000000 1.000000 
vt 1.000000 0.483871 
vt 0.000000 -0.032258 
vt 0.000000 0.483871 
vt 1.000000 -0.032258 
vt 0.000000 0.483871 
vt 1.000000 0.483871 
vt 1.000000 -0.032258 
vt 0.000000 0.483871 
vt 0.000000 1.000000 
vt 0.492063 0.483871 
vt 0.000000 1.000000 
vt 0.492063 1.000000 
vt 0.492063 0.483871 
vt 0.000000 -0.032258 
vt 0.000000 0.483871 
vt 0.492063 -0.032258 
vt 0.000000 0.483871 
vt 0.492063 0.483871 
vt 0.492063 -0.032258 
vt 0.000000 0.483871 
vt 0.000000 1.000000 
vt 0.492063 0.483871 
vt 0.000000 1.000000 
vt 0.492063 1.000000 
vt 0.492063 0.483871 
vt 0.000000 -0.032258 
vt 0.000000 0.483871 
vt 0.492063 -0.032258 
vt 0.000000 0.483871 
vt 0.492063 0.483871 
vt 0.492063 -0.032258 
vt 0.000000 0.483871 
vt 0.000000 1.000000 
vt 0.492063 0.483871 
vt 0.000000 1.000000 
vt 0.492063 1.000000 
vt 0.492063 0.483871 
vt 0.000000 -0.032258 
vt 0.000000 0.483871 
vt 0.492063 -0.032258 
vt 0.000000 0.483871 
vt 0.492063 0.483871 
vt 0.492063 -0.032258 
vt 0.000000 0.483871 
vt 0.000000 1.000000 
vt 1.000000 0.483871 
vt 0.000000 1.000000 
vt 1.000000 1.000000 
vt 1.000000 0.483871 
vt 0.000000 -0.032258 
vt 0.000000 0.483871 
vt 1.000000 -0.032258 
vt 0.000000 0.483871 
vt 1.000000 0.483871 
vt 1.000000 -0.032258 
vt 0.238095 0.483871 
vt 0.238095 1.000000 
vt 0.492063 0.483871 
vt 0.238095 1.000000 
vt 0.492063 1.000000 
vt 0.492063 0.483871 
vt 0.238095 -0.032258 
vt 0.238095 0.483871 
vt 0.492063 -0.032258 
vt 0.238095 0.483871 
vt 0.492063 0.483871 
vt 0.492063 -0.032258 
vt 0.000000 0.483871 
vt 0.000000 1.000000 
vt 0.238095 0.483871 
vt 0.000000 1.000000 
vt 0.238095 1.000000 
vt 0.238095 0.483871 
vt 0.000000 -0.032258 
vt 0.000000 0.483871 
vt 0.238095 -0.032258 
vt 0.000000 0.483871 
vt 0.238095 0.483871 
vt 0.238095 -0.032258 
vt 0.000000 0.483871 
vt 0.000000 1.000000 
vt 1.000000 0.483871 
vt 0.000000 1.000000 
vt 1.000000 1.000000 
vt 1.000000 0.483871 
vt 0.000000 -0.032258 
vt 0.000000 0.483871 
vt 1.000000 -0.032258 
vt 0.000000 0.483871 
vt 1.000000 0.483871 
vt 1.000000 -0.032258 
f 1/1/1 2/2/2 3/3/3
f 4/4/4 5/5/5 6/6/6
f 7/7/7 8/8/8 9/9/9
f 10/10/10 11/11/11 12/12/12
f 13/13/13 14/14/14 15/15/15
f 16/16/16 17/17/17 18/18/18
f 19/19/19 20/20/20 21/21/21
f 22/22/22 23/23/23 24/24/24
f 25/25/25 26/26/26 27/27/27
f 28/28/28 29/29/29 30/30/30
f 31/31/31 32/32/32 33/33/33
f 34/34/34 35/35/35 36/36/36
f 37/37/37 38/38/38 39/39/39
f 40/40/40 41/41/41 42/42/42
f 43/43/43 44/44/44 45/45/45
f 46/46/46 47/47/47 48/48/48
f 49/49/49 50/50/50 51/51/51
f 52/52/52 53/53/53 54/54/54
f 55/55/55 56/56/56 57/57/57
f 58/58/58 59/59/59 60/60/60
f 61/61/61 62/62/62 63/63/63
f 64/64/64 65/65/65 66/66/66
f 67/67/67 68/68/68 69/69/69
f 70/70/70 71/71/71 72/72/72
f 73/73/73 74/74/74 75/75/75
f 76/76/76 77/77/77 78/78/78
f 79/79/79 80/80/80 81/81/81
f 82/82/82 83/83/83 84/84/84
f 85/85/85 86/86/86 87/87/87
f 88/88/88 89/89/89 90/90/90
f 91/91/91 92/92/92 93/93/93
f 94/94/94 95/95/95 96/96/96
f 97/97/97 98/98/98 99/99/99
f 100/100/100 101/101/101 102/102/102
f 103/103/103 104/104/104 105/105/105
f 106/106/106 107/107/107 108/108/108
f 109/109/109 110/110/110 111/111/111
f 112/112/112 113/113/113 114/114/114
f 115/115/115 116/116/116 117/117/117
f 118/118/118 119/119/119 120/120/120
f 121/121/121 122/122/122 123/123/123
f 124/124/124 125/125/125 126/126/126
f 127/127/127 128/128/128 129/129/129
f 130/130/130 131/131/131 132/132/132
