v -5.000000 10.000000 0.000000 
v -5.000000 8.000000 4.000000 
v -6.000000 6.000000 3.000000 
v -6.000000 6.000000 3.000000 
v -5.000000 7.000000 0.000000 
v -5.000000 10.000000 0.000000 
v -5.000000 7.000000 0.000000 
v -6.000000 6.000000 3.000000 
v -5.000000 -8.000000 3.000000 
v -5.000000 -8.000000 3.000000 
v -2.000000 -2.000000 -13.000000 
v -5.000000 7.000000 0.000000 
v -11.000000 10.000000 0.000000 
v -11.000000 8.000000 0.000000 
v -12.000000 7.000000 3.000000 
v -12.000000 7.000000 3.000000 
v -12.000000 9.000000 4.000000 
v -11.000000 10.000000 0.000000 
v -11.000000 8.000000 0.000000 
v -19.000000 -1.000000 -12.000000 
v -21.000000 -7.000000 5.000000 
v -21.000000 -7.000000 5.000000 
v -12.000000 7.000000 3.000000 
v -11.000000 8.000000 0.000000 
v -19.000000 -1.000000 -12.000000 
v -22.000000 -14.000000 -19.000000 
v -23.000000 -22.000000 0.000000 
v -23.000000 -22.000000 0.000000 
v -21.000000 -7.000000 5.000000 
v -19.000000 -1.000000 -12.000000 
v -5.000000 10.000000 0.000000 
v -5.000000 7.000000 0.000000 
v -8.000000 8.000000 -1.000000 
v -8.000000 8.000000 -1.000000 
v -8.000000 10.000000 0.000000 
v -5.000000 10.000000 0.000000 
v -5.000000 7.000000 0.000000 
v -2.000000 -2.000000 -13.000000 
v -10.000000 0.000000 -17.000000 
v -10.000000 0.000000 -17.000000 
v -8.000000 8.000000 -1.000000 
v -5.000000 7.000000 0.000000 
v 3.000000 -21.000000 -23.000000 
v -2.000000 -22.000000 -22.000000 
v -7.000000 -24.000000 -27.000000 
v -7.000000 -24.000000 -27.000000 
v 0.000000 -21.000000 -28.000000 
v 3.000000 -21.000000 -23.000000 
v -8.000000 10.000000 0.000000 
v -8.000000 8.000000 -1.000000 
v -11.000000 8.000000 0.000000 
v -11.000000 8.000000 0.000000 
v -11.000000 10.000000 0.000000 
v -8.000000 10.000000 0.000000 
v -8.000000 8.000000 -1.000000 
v -10.000000 0.000000 -17.000000 
v -19.000000 -1.000000 -12.000000 
v -19.000000 -1.000000 -12.000000 
v -11.000000 8.000000 0.000000 
v -8.000000 8.000000 -1.000000 
v -10.000000 0.000000 -17.000000 
v -14.000000 -12.000000 -20.000000 
v -22.000000 -14.000000 -19.000000 
v -22.000000 -14.000000 -19.000000 
v -19.000000 -1.000000 -12.000000 
v -10.000000 0.000000 -17.000000 
v -11.000000 -42.000000 -26.000000 
v -13.000000 -50.000000 -8.000000 
v -17.000000 -48.000000 -8.000000 
v -17.000000 -48.000000 -8.000000 
v -17.000000 -42.000000 -25.000000 
v -11.000000 -42.000000 -26.000000 
v -5.000000 -8.000000 3.000000 
v -6.000000 6.000000 3.000000 
v -9.000000 6.000000 4.000000 
v -9.000000 6.000000 4.000000 
v -12.000000 -10.000000 9.000000 
v -5.000000 -8.000000 3.000000 
v -6.000000 6.000000 3.000000 
v -5.000000 8.000000 4.000000 
v -9.000000 8.000000 5.000000 
v -9.000000 8.000000 5.000000 
v -9.000000 6.000000 4.000000 
v -6.000000 6.000000 3.000000 
v -17.000000 -24.000000 5.000000 
v -12.000000 -10.000000 9.000000 
v -21.000000 -7.000000 5.000000 
v -21.000000 -7.000000 5.000000 
v -23.000000 -22.000000 0.000000 
v -17.000000 -24.000000 5.000000 
v -12.000000 -10.000000 9.000000 
v -9.000000 6.000000 4.000000 
v -12.000000 7.000000 3.000000 
v -12.000000 7.000000 3.000000 
v -21.000000 -7.000000 5.000000 
v -12.000000 -10.000000 9.000000 
v -9.000000 6.000000 4.000000 
v -9.000000 8.000000 5.000000 
v -12.000000 9.000000 4.000000 
v -12.000000 9.000000 4.000000 
v -12.000000 7.000000 3.000000 
v -9.000000 6.000000 4.000000 
v -23.000000 -22.000000 0.000000 
v -22.000000 -14.000000 -19.000000 
v -21.000000 -32.000000 -22.000000 
v -21.000000 -32.000000 -22.000000 
v -23.000000 -37.000000 -6.000000 
v -23.000000 -22.000000 0.000000 
v -22.000000 -14.000000 -19.000000 
v -14.000000 -12.000000 -20.000000 
v -15.000000 -31.000000 -26.000000 
v -15.000000 -31.000000 -26.000000 
v -21.000000 -32.000000 -22.000000 
v -22.000000 -14.000000 -19.000000 
v -14.000000 -12.000000 -20.000000 
v -17.000000 -24.000000 5.000000 
v -18.000000 -39.000000 -2.000000 
v -18.000000 -39.000000 -2.000000 
v -15.000000 -31.000000 -26.000000 
v -14.000000 -12.000000 -20.000000 
v -17.000000 -24.000000 5.000000 
v -23.000000 -22.000000 0.000000 
v -23.000000 -37.000000 -6.000000 
v -23.000000 -37.000000 -6.000000 
v -18.000000 -39.000000 -2.000000 
v -17.000000 -24.000000 5.000000 
v -15.000000 -31.000000 -26.000000 
v -18.000000 -39.000000 -2.000000 
v -13.000000 -50.000000 -8.000000 
v -13.000000 -50.000000 -8.000000 
v -11.000000 -42.000000 -26.000000 
v -15.000000 -31.000000 -26.000000 
v -18.000000 -39.000000 -2.000000 
v -23.000000 -37.000000 -6.000000 
v -17.000000 -48.000000 -8.000000 
v -17.000000 -48.000000 -8.000000 
v -13.000000 -50.000000 -8.000000 
v -18.000000 -39.000000 -2.000000 
v -23.000000 -37.000000 -6.000000 
v -21.000000 -32.000000 -22.000000 
v -17.000000 -42.000000 -25.000000 
v -17.000000 -42.000000 -25.000000 
v -17.000000 -48.000000 -8.000000 
v -23.000000 -37.000000 -6.000000 
v -21.000000 -32.000000 -22.000000 
v -15.000000 -31.000000 -26.000000 
v -11.000000 -42.000000 -26.000000 
v -11.000000 -42.000000 -26.000000 
v -17.000000 -42.000000 -25.000000 
v -21.000000 -32.000000 -22.000000 
v -2.000000 -2.000000 -13.000000 
v -8.000000 -12.000000 -16.000000 
v -2.000000 -19.000000 -20.000000 
v -2.000000 -19.000000 -20.000000 
v 0.000000 -11.000000 -22.000000 
v -2.000000 -2.000000 -13.000000 
v -10.000000 0.000000 -17.000000 
v -2.000000 -2.000000 -13.000000 
v 0.000000 -11.000000 -22.000000 
v 0.000000 -11.000000 -22.000000 
v -4.000000 -12.000000 -24.000000 
v -10.000000 0.000000 -17.000000 
v -8.000000 -12.000000 -16.000000 
v -14.000000 -12.000000 -20.000000 
v -9.000000 -17.000000 -22.000000 
v -9.000000 -17.000000 -22.000000 
v -2.000000 -19.000000 -20.000000 
v -8.000000 -12.000000 -16.000000 
v -14.000000 -12.000000 -20.000000 
v -10.000000 0.000000 -17.000000 
v -4.000000 -12.000000 -24.000000 
v -4.000000 -12.000000 -24.000000 
v -9.000000 -17.000000 -22.000000 
v -14.000000 -12.000000 -20.000000 
v 0.000000 -11.000000 -22.000000 
v -2.000000 -19.000000 -20.000000 
v -2.000000 -22.000000 -22.000000 
v -2.000000 -22.000000 -22.000000 
v 3.000000 -21.000000 -23.000000 
v 0.000000 -11.000000 -22.000000 
v -2.000000 -19.000000 -20.000000 
v -9.000000 -17.000000 -22.000000 
v -7.000000 -24.000000 -27.000000 
v -7.000000 -24.000000 -27.000000 
v -2.000000 -22.000000 -22.000000 
v -2.000000 -19.000000 -20.000000 
v -9.000000 -17.000000 -22.000000 
v -4.000000 -12.000000 -24.000000 
v 0.000000 -21.000000 -28.000000 
v 0.000000 -21.000000 -28.000000 
v -7.000000 -24.000000 -27.000000 
v -9.000000 -17.000000 -22.000000 
v -4.000000 -12.000000 -24.000000 
v 0.000000 -11.000000 -22.000000 
v 3.000000 -21.000000 -23.000000 
v 3.000000 -21.000000 -23.000000 
v 0.000000 -21.000000 -28.000000 
v -4.000000 -12.000000 -24.000000 
v -12.000000 -10.000000 9.000000 
v -17.000000 -24.000000 5.000000 
v -5.000000 -8.000000 3.000000 
v -2.000000 -2.000000 -13.000000 
v -5.000000 -8.000000 3.000000 
v -17.000000 -24.000000 5.000000 
v -2.000000 -2.000000 -13.000000 
v -17.000000 -24.000000 5.000000 
v -8.000000 -12.000000 -16.000000 
v -8.000000 -12.000000 -16.000000 
v -17.000000 -24.000000 5.000000 
v -14.000000 -12.000000 -20.000000 
vn 0.869385 0.076172 -0.488037 
vn 0.754150 -0.303467 0.582275 
vn 0.765381 -0.200684 0.611328 
vn 0.765381 -0.200684 0.611328 
vn 0.880859 0.357178 -0.309814 
vn 0.869385 0.076172 -0.488037 
vn 0.880859 0.357178 -0.309814 
vn 0.765381 -0.200684 0.611328 
vn 0.852783 -0.175049 0.491699 
vn 0.852783 -0.175049 0.491699 
vn 0.995361 -0.034668 0.088867 
vn 0.880859 0.357178 -0.309814 
vn -0.880615 0.251709 -0.400635 
vn -0.688721 0.557129 -0.463623 
vn -0.802246 0.238770 0.546631 
vn -0.802246 0.238770 0.546631 
vn -0.738037 -0.153809 0.656494 
vn -0.880615 0.251709 -0.400635 
vn -0.688721 0.557129 -0.463623 
vn -0.728027 0.595947 -0.338135 
vn -0.813965 0.250000 0.524170 
vn -0.813965 0.250000 0.524170 
vn -0.802246 0.238770 0.546631 
vn -0.688721 0.557129 -0.463623 
vn -0.728027 0.595947 -0.338135 
vn -0.642334 0.286865 -0.710205 
vn -0.973877 -0.013428 0.225586 
vn -0.973877 -0.013428 0.225586 
vn -0.813965 0.250000 0.524170 
vn -0.728027 0.595947 -0.338135 
vn 0.869385 0.076172 -0.488037 
vn 0.880859 0.357178 -0.309814 
vn 0.113525 0.612793 -0.781738 
vn 0.113525 0.612793 -0.781738 
vn -0.021240 0.347168 -0.937500 
vn 0.869385 0.076172 -0.488037 
vn 0.880859 0.357178 -0.309814 
vn 0.995361 -0.034668 0.088867 
vn 0.025391 0.662842 -0.748291 
vn 0.025391 0.662842 -0.748291 
vn 0.113525 0.612793 -0.781738 
vn 0.880859 0.357178 -0.309814 
vn 0.791016 -0.471680 -0.389160 
vn 0.329346 -0.556885 0.762207 
vn -0.291748 -0.952148 0.089844 
vn -0.291748 -0.952148 0.089844 
vn 0.041016 0.078857 -0.995850 
vn 0.791016 -0.471680 -0.389160 
vn -0.021240 0.347168 -0.937500 
vn 0.113525 0.612793 -0.781738 
vn -0.688721 0.557129 -0.463623 
vn -0.688721 0.557129 -0.463623 
vn -0.880615 0.251709 -0.400635 
vn -0.021240 0.347168 -0.937500 
vn 0.113525 0.612793 -0.781738 
vn 0.025391 0.662842 -0.748291 
vn -0.728027 0.595947 -0.338135 
vn -0.728027 0.595947 -0.338135 
vn -0.688721 0.557129 -0.463623 
vn 0.113525 0.612793 -0.781738 
vn 0.025391 0.662842 -0.748291 
vn 0.256348 -0.217529 -0.941650 
vn -0.642334 0.286865 -0.710205 
vn -0.642334 0.286865 -0.710205 
vn -0.728027 0.595947 -0.338135 
vn 0.025391 0.662842 -0.748291 
vn -0.060791 -0.536377 -0.841553 
vn 0.694092 -0.521240 0.495850 
vn -0.586182 -0.804199 0.095947 
vn -0.586182 -0.804199 0.095947 
vn -0.660156 -0.508789 -0.552246 
vn -0.060791 -0.536377 -0.841553 
vn 0.852783 -0.175049 0.491699 
vn 0.765381 -0.200684 0.611328 
vn 0.004639 -0.091797 0.995605 
vn 0.004639 -0.091797 0.995605 
vn 0.080322 0.047119 0.995605 
vn 0.852783 -0.175049 0.491699 
vn 0.765381 -0.200684 0.611328 
vn 0.754150 -0.303467 0.582275 
vn 0.021240 -0.347168 0.937500 
vn 0.021240 -0.347168 0.937500 
vn 0.004639 -0.091797 0.995605 
vn 0.765381 -0.200684 0.611328 
vn 0.233154 -0.700684 0.674072 
vn 0.080322 0.047119 0.995605 
vn -0.813965 0.250000 0.524170 
vn -0.813965 0.250000 0.524170 
vn -0.973877 -0.013428 0.225586 
vn 0.233154 -0.700684 0.674072 
vn 0.080322 0.047119 0.995605 
vn 0.004639 -0.091797 0.995605 
vn -0.802246 0.238770 0.546631 
vn -0.802246 0.238770 0.546631 
vn -0.813965 0.250000 0.524170 
vn 0.080322 0.047119 0.995605 
vn 0.004639 -0.091797 0.995605 
vn 0.021240 -0.347168 0.937500 
vn -0.738037 -0.153809 0.656494 
vn -0.738037 -0.153809 0.656494 
vn -0.802246 0.238770 0.546631 
vn 0.004639 -0.091797 0.995605 
vn -0.973877 -0.013428 0.225586 
vn -0.642334 0.286865 -0.710205 
vn -0.798096 -0.039795 -0.600830 
vn -0.798096 -0.039795 -0.600830 
vn -0.898682 -0.348633 0.265137 
vn -0.973877 -0.013428 0.225586 
vn -0.642334 0.286865 -0.710205 
vn 0.256348 -0.217529 -0.941650 
vn 0.605225 0.281738 -0.744385 
vn 0.605225 0.281738 -0.744385 
vn -0.798096 -0.039795 -0.600830 
vn -0.642334 0.286865 -0.710205 
vn 0.256348 -0.217529 -0.941650 
vn 0.233154 -0.700684 0.674072 
vn 0.406006 -0.436768 0.802490 
vn 0.406006 -0.436768 0.802490 
vn 0.605225 0.281738 -0.744385 
vn 0.256348 -0.217529 -0.941650 
vn 0.233154 -0.700684 0.674072 
vn -0.973877 -0.013428 0.225586 
vn -0.898682 -0.348633 0.265137 
vn -0.898682 -0.348633 0.265137 
vn 0.406006 -0.436768 0.802490 
vn 0.233154 -0.700684 0.674072 
vn 0.605225 0.281738 -0.744385 
vn 0.406006 -0.436768 0.802490 
vn 0.694092 -0.521240 0.495850 
vn 0.694092 -0.521240 0.495850 
vn -0.060791 -0.536377 -0.841553 
vn 0.605225 0.281738 -0.744385 
vn 0.406006 -0.436768 0.802490 
vn -0.898682 -0.348633 0.265137 
vn -0.586182 -0.804199 0.095947 
vn -0.586182 -0.804199 0.095947 
vn 0.694092 -0.521240 0.495850 
vn 0.406006 -0.436768 0.802490 
vn -0.898682 -0.348633 0.265137 
vn -0.798096 -0.039795 -0.600830 
vn -0.660156 -0.508789 -0.552246 
vn -0.660156 -0.508789 -0.552246 
vn -0.586182 -0.804199 0.095947 
vn -0.898682 -0.348633 0.265137 
vn -0.798096 -0.039795 -0.600830 
vn 0.605225 0.281738 -0.744385 
vn -0.060791 -0.536377 -0.841553 
vn -0.060791 -0.536377 -0.841553 
vn -0.660156 -0.508789 -0.552246 
vn -0.798096 -0.039795 -0.600830 
vn 0.995361 -0.034668 0.088867 
vn 0.174316 -0.862793 0.474121 
vn 0.133789 -0.521973 0.842041 
vn 0.133789 -0.521973 0.842041 
vn 0.914307 0.376465 -0.147705 
vn 0.995361 -0.034668 0.088867 
vn 0.025391 0.662842 -0.748291 
vn 0.995361 -0.034668 0.088867 
vn 0.914307 0.376465 -0.147705 
vn 0.914307 0.376465 -0.147705 
vn -0.040527 0.375977 -0.925537 
vn 0.025391 0.662842 -0.748291 
vn 0.174316 -0.862793 0.474121 
vn 0.256348 -0.217529 -0.941650 
vn -0.852783 -0.453857 -0.257568 
vn -0.852783 -0.453857 -0.257568 
vn 0.133789 -0.521973 0.842041 
vn 0.174316 -0.862793 0.474121 
vn 0.256348 -0.217529 -0.941650 
vn 0.025391 0.662842 -0.748291 
vn -0.040527 0.375977 -0.925537 
vn -0.040527 0.375977 -0.925537 
vn -0.852783 -0.453857 -0.257568 
vn 0.256348 -0.217529 -0.941650 
vn 0.914307 0.376465 -0.147705 
vn 0.133789 -0.521973 0.842041 
vn 0.329346 -0.556885 0.762207 
vn 0.329346 -0.556885 0.762207 
vn 0.791016 -0.471680 -0.389160 
vn 0.914307 0.376465 -0.147705 
vn 0.133789 -0.521973 0.842041 
vn -0.852783 -0.453857 -0.257568 
vn -0.291748 -0.952148 0.089844 
vn -0.291748 -0.952148 0.089844 
vn 0.329346 -0.556885 0.762207 
vn 0.133789 -0.521973 0.842041 
vn -0.852783 -0.453857 -0.257568 
vn -0.040527 0.375977 -0.925537 
vn 0.041016 0.078857 -0.995850 
vn 0.041016 0.078857 -0.995850 
vn -0.291748 -0.952148 0.089844 
vn -0.852783 -0.453857 -0.257568 
vn -0.040527 0.375977 -0.925537 
vn 0.914307 0.376465 -0.147705 
vn 0.791016 -0.471680 -0.389160 
vn 0.791016 -0.471680 -0.389160 
vn 0.041016 0.078857 -0.995850 
vn -0.040527 0.375977 -0.925537 
vn 0.080322 0.047119 0.995605 
vn 0.233154 -0.700684 0.674072 
vn 0.852783 -0.175049 0.491699 
vn 0.995361 -0.034668 0.088867 
vn 0.852783 -0.175049 0.491699 
vn 0.233154 -0.700684 0.674072 
vn 0.995361 -0.034668 0.088867 
vn 0.233154 -0.700684 0.674072 
vn 0.174316 -0.862793 0.474121 
vn 0.174316 -0.862793 0.474121 
vn 0.233154 -0.700684 0.674072 
vn 0.256348 -0.217529 -0.941650 
vt 0.483871 -0.032258 
vt 0.354839 -0.032258 
vt 0.354839 0.000000 
vt 0.354839 0.000000 
vt 0.483871 0.000000 
vt 0.483871 -0.032258 
vt 0.483871 0.000000 
vt 0.354839 0.000000 
vt 0.225806 0.258065 
vt 0.225806 0.258065 
vt 0.741935 0.258065 
vt 0.483871 0.000000 
vt 0.483871 -0.032258 
vt 0.483871 0.000000 
vt 0.354839 0.000000 
vt 0.354839 0.000000 
vt 0.354839 -0.032258 
vt 0.483871 -0.032258 
vt 0.483871 0.000000 
vt 0.677419 0.258065 
vt 0.129032 0.258065 
vt 0.129032 0.258065 
vt 0.354839 0.000000 
vt 0.483871 0.000000 
vt 0.516129 0.290323 
vt 0.516129 0.419355 
vt 0.193548 0.451613 
vt 0.193548 0.451613 
vt 0.161290 0.290323 
vt 0.516129 0.290323 
vt 0.483871 -0.032258 
vt 0.483871 0.000000 
vt 0.516129 0.000000 
vt 0.516129 0.000000 
vt 0.516129 -0.032258 
vt 0.483871 -0.032258 
vt 0.483871 0.000000 
vt 0.741935 0.258065 
vt 0.838710 0.258065 
vt 0.838710 0.258065 
vt 0.516129 0.000000 
vt 0.483871 0.000000 
vt 0.967742 0.580645 
vt 0.838710 0.612903 
vt 0.870968 0.677419 
vt 0.870968 0.677419 
vt 1.000000 0.645161 
vt 0.967742 0.580645 
vt 0.516129 -0.032258 
vt 0.516129 0.000000 
vt 0.483871 0.000000 
vt 0.483871 0.000000 
vt 0.483871 -0.032258 
vt 0.516129 -0.032258 
vt 0.516129 0.000000 
vt 0.838710 0.258065 
vt 0.677419 0.258065 
vt 0.677419 0.258065 
vt 0.483871 0.000000 
vt 0.516129 0.000000 
vt 0.548387 0.322581 
vt 0.548387 0.451613 
vt 0.516129 0.419355 
vt 0.516129 0.419355 
vt 0.516129 0.290323 
vt 0.548387 0.322581 
vt 0.548387 1.000000 
vt 0.161290 0.967742 
vt 0.161290 0.935484 
vt 0.161290 0.935484 
vt 0.483871 0.935484 
vt 0.548387 1.000000 
vt 0.225806 0.258065 
vt 0.354839 0.000000 
vt 0.322581 0.000000 
vt 0.322581 0.000000 
vt 0.000000 0.258065 
vt 0.225806 0.258065 
vt 0.354839 0.000000 
vt 0.354839 -0.032258 
vt 0.322581 -0.032258 
vt 0.322581 -0.032258 
vt 0.322581 0.000000 
vt 0.354839 0.000000 
vt 0.161290 0.516129 
vt 0.096774 0.290323 
vt 0.161290 0.290323 
vt 0.161290 0.290323 
vt 0.193548 0.451613 
vt 0.161290 0.516129 
vt 0.000000 0.258065 
vt 0.322581 0.000000 
vt 0.354839 0.000000 
vt 0.354839 0.000000 
vt 0.129032 0.258065 
vt 0.000000 0.258065 
vt 0.322581 0.000000 
vt 0.322581 -0.032258 
vt 0.354839 -0.032258 
vt 0.354839 -0.032258 
vt 0.354839 0.000000 
vt 0.322581 0.000000 
vt 0.193548 0.451613 
vt 0.516129 0.419355 
vt 0.483871 0.774194 
vt 0.483871 0.774194 
vt 0.193548 0.741935 
vt 0.193548 0.451613 
vt 0.516129 0.419355 
vt 0.548387 0.451613 
vt 0.548387 0.741935 
vt 0.548387 0.741935 
vt 0.483871 0.774194 
vt 0.516129 0.419355 
vt 0.548387 0.516129 
vt 0.129032 0.516129 
vt 0.129032 0.645161 
vt 0.129032 0.645161 
vt 0.548387 0.677419 
vt 0.548387 0.516129 
vt 0.161290 0.516129 
vt 0.193548 0.451613 
vt 0.193548 0.741935 
vt 0.193548 0.741935 
vt 0.129032 0.741935 
vt 0.161290 0.516129 
vt 0.548387 0.677419 
vt 0.129032 0.645161 
vt 0.129032 0.806452 
vt 0.129032 0.806452 
vt 0.483871 0.806452 
vt 0.548387 0.677419 
vt 0.129032 0.741935 
vt 0.193548 0.741935 
vt 0.161290 0.903226 
vt 0.161290 0.903226 
vt 0.161290 0.967742 
vt 0.129032 0.741935 
vt 0.193548 0.741935 
vt 0.483871 0.774194 
vt 0.483871 0.870968 
vt 0.483871 0.870968 
vt 0.161290 0.903226 
vt 0.193548 0.741935 
vt 0.483871 0.774194 
vt 0.548387 0.741935 
vt 0.548387 0.935484 
vt 0.548387 0.935484 
vt 0.483871 0.870968 
vt 0.483871 0.774194 
vt 0.741935 0.258065 
vt 0.774194 0.419355 
vt 0.806452 0.548387 
vt 0.806452 0.548387 
vt 0.903226 0.451613 
vt 0.741935 0.258065 
vt 0.838710 0.258065 
vt 0.741935 0.258065 
vt 0.903226 0.451613 
vt 0.903226 0.451613 
vt 0.935484 0.483871 
vt 0.838710 0.258065 
vt 0.774194 0.419355 
vt 0.838710 0.483871 
vt 0.870968 0.548387 
vt 0.870968 0.548387 
vt 0.806452 0.548387 
vt 0.774194 0.419355 
vt 0.677419 0.387097 
vt 0.774194 0.354839 
vt 0.806452 0.516129 
vt 0.806452 0.516129 
vt 0.709677 0.516129 
vt 0.677419 0.387097 
vt 0.903226 0.451613 
vt 0.806452 0.548387 
vt 0.838710 0.612903 
vt 0.838710 0.612903 
vt 0.967742 0.580645 
vt 0.903226 0.451613 
vt 0.806452 0.548387 
vt 0.870968 0.548387 
vt 0.870968 0.677419 
vt 0.870968 0.677419 
vt 0.838710 0.612903 
vt 0.806452 0.548387 
vt 0.709677 0.516129 
vt 0.806452 0.516129 
vt 0.838710 0.612903 
vt 0.838710 0.612903 
vt 0.709677 0.645161 
vt 0.709677 0.516129 
vt 0.935484 0.483871 
vt 0.903226 0.451613 
vt 0.967742 0.580645 
vt 0.967742 0.580645 
vt 1.000000 0.645161 
vt 0.935484 0.483871 
vt 0.000000 0.258065 
vt 0.000000 0.516129 
vt 0.225806 0.258065 
vt 0.741935 0.258065 
vt 0.225806 0.258065 
vt 0.000000 0.516129 
vt 0.741935 0.258065 
vt 0.000000 0.516129 
vt 0.774194 0.419355 
vt 0.774194 0.419355 
vt 0.000000 0.516129 
vt 0.838710 0.483871 
f 1/1/1 2/2/2 3/3/3
f 4/4/4 5/5/5 6/6/6
f 7/7/7 8/8/8 9/9/9
f 10/10/10 11/11/11 12/12/12
f 13/13/13 14/14/14 15/15/15
f 16/16/16 17/17/17 18/18/18
f 19/19/19 20/20/20 21/21/21
f 22/22/22 23/23/23 24/24/24
f 25/25/25 26/26/26 27/27/27
f 28/28/28 29/29/29 30/30/30
f 31/31/31 32/32/32 33/33/33
f 34/34/34 35/35/35 36/36/36
f 37/37/37 38/38/38 39/39/39
f 40/40/40 41/41/41 42/42/42
f 43/43/43 44/44/44 45/45/45
f 46/46/46 47/47/47 48/48/48
f 49/49/49 50/50/50 51/51/51
f 52/52/52 53/53/53 54/54/54
f 55/55/55 56/56/56 57/57/57
f 58/58/58 59/59/59 60/60/60
f 61/61/61 62/62/62 63/63/63
f 64/64/64 65/65/65 66/66/66
f 67/67/67 68/68/68 69/69/69
f 70/70/70 71/71/71 72/72/72
f 73/73/73 74/74/74 75/75/75
f 76/76/76 77/77/77 78/78/78
f 79/79/79 80/80/80 81/81/81
f 82/82/82 83/83/83 84/84/84
f 85/85/85 86/86/86 87/87/87
f 88/88/88 89/89/89 90/90/90
f 91/91/91 92/92/92 93/93/93
f 94/94/94 95/95/95 96/96/96
f 97/97/97 98/98/98 99/99/99
f 100/100/100 101/101/101 102/102/102
f 103/103/103 104/104/104 105/105/105
f 106/106/106 107/107/107 108/108/108
f 109/109/109 110/110/110 111/111/111
f 112/112/112 113/113/113 114/114/114
f 115/115/115 116/116/116 117/117/117
f 118/118/118 119/119/119 120/120/120
f 121/121/121 122/122/122 123/123/123
f 124/124/124 125/125/125 126/126/126
f 127/127/127 128/128/128 129/129/129
f 130/130/130 131/131/131 132/132/132
f 133/133/133 134/134/134 135/135/135
f 136/136/136 137/137/137 138/138/138
f 139/139/139 140/140/140 141/141/141
f 142/142/142 143/143/143 144/144/144
f 145/145/145 146/146/146 147/147/147
f 148/148/148 149/149/149 150/150/150
f 151/151/151 152/152/152 153/153/153
f 154/154/154 155/155/155 156/156/156
f 157/157/157 158/158/158 159/159/159
f 160/160/160 161/161/161 162/162/162
f 163/163/163 164/164/164 165/165/165
f 166/166/166 167/167/167 168/168/168
f 169/169/169 170/170/170 171/171/171
f 172/172/172 173/173/173 174/174/174
f 175/175/175 176/176/176 177/177/177
f 178/178/178 179/179/179 180/180/180
f 181/181/181 182/182/182 183/183/183
f 184/184/184 185/185/185 186/186/186
f 187/187/187 188/188/188 189/189/189
f 190/190/190 191/191/191 192/192/192
f 193/193/193 194/194/194 195/195/195
f 196/196/196 197/197/197 198/198/198
f 199/199/199 200/200/200 201/201/201
f 202/202/202 203/203/203 204/204/204
f 205/205/205 206/206/206 207/207/207
f 208/208/208 209/209/209 210/210/210
