v -11.000000 -11.000000 -13.000000 
v -11.000000 0.000000 -15.000000 
v 0.000000 0.000000 -20.000000 
v 0.000000 -15.000000 -18.000000 
v -11.000000 -11.000000 -13.000000 
v 0.000000 0.000000 -20.000000 
v -11.000000 0.000000 -15.000000 
v -11.000000 10.000000 -13.000000 
v 0.000000 0.000000 -20.000000 
v 0.000000 0.000000 -20.000000 
v -11.000000 10.000000 -13.000000 
v 0.000000 14.000000 -18.000000 
v 4.000000 -16.000000 -18.000000 
v 0.000000 0.000000 -20.000000 
v 4.000000 0.000000 -21.000000 
v 0.000000 0.000000 -20.000000 
v 4.000000 -16.000000 -18.000000 
v 0.000000 -15.000000 -18.000000 
v 0.000000 14.000000 -18.000000 
v 4.000000 0.000000 -21.000000 
v 0.000000 0.000000 -20.000000 
v -11.000000 -19.000000 -7.000000 
v -11.000000 -11.000000 -13.000000 
v 0.000000 -15.000000 -18.000000 
v 0.000000 -27.000000 -10.000000 
v -11.000000 -19.000000 -7.000000 
v 0.000000 -15.000000 -18.000000 
v 0.000000 -27.000000 -10.000000 
v 0.000000 -15.000000 -18.000000 
v 4.000000 -16.000000 -18.000000 
v -11.000000 -22.000000 -1.000000 
v -11.000000 -19.000000 -7.000000 
v 0.000000 -27.000000 -10.000000 
v 0.000000 -31.000000 -1.000000 
v -11.000000 -22.000000 -1.000000 
v 0.000000 -27.000000 -10.000000 
v 4.000000 -16.000000 -18.000000 
v 4.000000 -28.000000 -10.000000 
v 0.000000 -27.000000 -10.000000 
v 0.000000 -31.000000 -1.000000 
v 0.000000 -27.000000 -10.000000 
v 4.000000 -28.000000 -10.000000 
v -11.000000 -19.000000 8.000000 
v -11.000000 -22.000000 -1.000000 
v 0.000000 -31.000000 -1.000000 
v 0.000000 -27.000000 13.000000 
v -11.000000 -19.000000 8.000000 
v 0.000000 -31.000000 -1.000000 
v 4.000000 -28.000000 -10.000000 
v 4.000000 -32.000000 -2.000000 
v 0.000000 -31.000000 -1.000000 
v 4.000000 -28.000000 14.000000 
v 0.000000 -31.000000 -1.000000 
v 4.000000 -32.000000 -2.000000 
v 0.000000 -31.000000 -1.000000 
v 4.000000 -28.000000 14.000000 
v 0.000000 -27.000000 13.000000 
v -11.000000 -11.000000 16.000000 
v -11.000000 -19.000000 8.000000 
v 0.000000 -27.000000 13.000000 
v 0.000000 -15.000000 24.000000 
v -11.000000 -11.000000 16.000000 
v 0.000000 -27.000000 13.000000 
v 4.000000 -16.000000 25.000000 
v 0.000000 -27.000000 13.000000 
v 4.000000 -28.000000 14.000000 
v 0.000000 -27.000000 13.000000 
v 4.000000 -16.000000 25.000000 
v 0.000000 -15.000000 24.000000 
v -11.000000 0.000000 19.000000 
v -11.000000 -11.000000 16.000000 
v 0.000000 -15.000000 24.000000 
v 0.000000 0.000000 28.000000 
v -11.000000 0.000000 19.000000 
v 0.000000 -15.000000 24.000000 
v 4.000000 0.000000 29.000000 
v 0.000000 -15.000000 24.000000 
v 4.000000 -16.000000 25.000000 
v 0.000000 -15.000000 24.000000 
v 4.000000 0.000000 29.000000 
v 0.000000 0.000000 28.000000 
v 0.000000 14.000000 24.000000 
v -11.000000 0.000000 19.000000 
v 0.000000 0.000000 28.000000 
v 4.000000 15.000000 25.000000 
v 0.000000 0.000000 28.000000 
v 4.000000 0.000000 29.000000 
v 0.000000 0.000000 28.000000 
v 4.000000 15.000000 25.000000 
v 0.000000 14.000000 24.000000 
v -11.000000 10.000000 16.000000 
v -11.000000 0.000000 19.000000 
v 0.000000 14.000000 24.000000 
v -11.000000 18.000000 8.000000 
v -11.000000 10.000000 16.000000 
v 0.000000 14.000000 24.000000 
v 0.000000 25.000000 13.000000 
v -11.000000 18.000000 8.000000 
v 0.000000 14.000000 24.000000 
v 4.000000 27.000000 14.000000 
v 0.000000 14.000000 24.000000 
v 4.000000 15.000000 25.000000 
v 0.000000 14.000000 24.000000 
v 4.000000 27.000000 14.000000 
v 0.000000 25.000000 13.000000 
v -11.000000 21.000000 -1.000000 
v -11.000000 18.000000 8.000000 
v 0.000000 25.000000 13.000000 
v 0.000000 30.000000 -1.000000 
v -11.000000 21.000000 -1.000000 
v 0.000000 25.000000 13.000000 
v 4.000000 31.000000 -2.000000 
v 0.000000 25.000000 13.000000 
v 4.000000 27.000000 14.000000 
v 0.000000 25.000000 13.000000 
v 4.000000 31.000000 -2.000000 
v 0.000000 30.000000 -1.000000 
v -11.000000 18.000000 -7.000000 
v -11.000000 21.000000 -1.000000 
v 0.000000 30.000000 -1.000000 
v 0.000000 25.000000 -10.000000 
v -11.000000 18.000000 -7.000000 
v 0.000000 30.000000 -1.000000 
v 4.000000 27.000000 -10.000000 
v 0.000000 30.000000 -1.000000 
v 4.000000 31.000000 -2.000000 
v 0.000000 30.000000 -1.000000 
v 4.000000 27.000000 -10.000000 
v 0.000000 25.000000 -10.000000 
v -11.000000 10.000000 -13.000000 
v -11.000000 18.000000 -7.000000 
v 0.000000 25.000000 -10.000000 
v 0.000000 14.000000 -18.000000 
v -11.000000 10.000000 -13.000000 
v 0.000000 25.000000 -10.000000 
v 4.000000 15.000000 -18.000000 
v 0.000000 25.000000 -10.000000 
v 4.000000 27.000000 -10.000000 
v 0.000000 25.000000 -10.000000 
v 4.000000 15.000000 -18.000000 
v 0.000000 14.000000 -18.000000 
v 4.000000 0.000000 -21.000000 
v 0.000000 14.000000 -18.000000 
v 4.000000 15.000000 -18.000000 
v -11.000000 0.000000 -15.000000 
v -11.000000 -11.000000 -13.000000 
v -13.000000 0.000000 -1.000000 
v -11.000000 10.000000 -13.000000 
v -11.000000 0.000000 -15.000000 
v -13.000000 0.000000 -1.000000 
v -11.000000 -11.000000 -13.000000 
v -11.000000 -19.000000 -7.000000 
v -13.000000 0.000000 -1.000000 
v -11.000000 -19.000000 -7.000000 
v -11.000000 -22.000000 -1.000000 
v -13.000000 0.000000 -1.000000 
v -11.000000 -22.000000 -1.000000 
v -11.000000 -19.000000 8.000000 
v -13.000000 0.000000 -1.000000 
v -11.000000 -19.000000 8.000000 
v -11.000000 -11.000000 16.000000 
v -13.000000 0.000000 -1.000000 
v -11.000000 -11.000000 16.000000 
v -11.000000 0.000000 19.000000 
v -13.000000 0.000000 -1.000000 
v -11.000000 0.000000 19.000000 
v -11.000000 10.000000 16.000000 
v -13.000000 0.000000 -1.000000 
v -11.000000 10.000000 16.000000 
v -11.000000 18.000000 8.000000 
v -13.000000 0.000000 -1.000000 
v -11.000000 18.000000 8.000000 
v -11.000000 21.000000 -1.000000 
v -13.000000 0.000000 -1.000000 
v -11.000000 21.000000 -1.000000 
v -11.000000 18.000000 -7.000000 
v -13.000000 0.000000 -1.000000 
v -11.000000 18.000000 -7.000000 
v -11.000000 10.000000 -13.000000 
v -13.000000 0.000000 -1.000000 
vn -0.762451 -0.215820 -0.609619 
vn -0.818604 0.001221 -0.574219 
vn -0.357178 -0.025879 -0.933594 
vn -0.388428 -0.407959 -0.825928 
vn -0.762451 -0.215820 -0.609619 
vn -0.357178 -0.025879 -0.933594 
vn -0.818604 0.001221 -0.574219 
vn -0.717773 0.276367 -0.638672 
vn -0.357178 -0.025879 -0.933594 
vn -0.357178 -0.025879 -0.933594 
vn -0.717773 0.276367 -0.638672 
vn -0.343262 0.337402 -0.876465 
vn -0.117920 -0.431152 -0.894287 
vn -0.357178 -0.025879 -0.933594 
vn -0.032471 0.021240 -0.999023 
vn -0.357178 -0.025879 -0.933594 
vn -0.117920 -0.431152 -0.894287 
vn -0.388428 -0.407959 -0.825928 
vn -0.343262 0.337402 -0.876465 
vn -0.032471 0.021240 -0.999023 
vn -0.357178 -0.025879 -0.933594 
vn -0.789551 -0.438477 -0.428955 
vn -0.762451 -0.215820 -0.609619 
vn -0.388428 -0.407959 -0.825928 
vn -0.409424 -0.705322 -0.578369 
vn -0.789551 -0.438477 -0.428955 
vn -0.388428 -0.407959 -0.825928 
vn -0.409424 -0.705322 -0.578369 
vn -0.388428 -0.407959 -0.825928 
vn -0.117920 -0.431152 -0.894287 
vn -0.815186 -0.566895 -0.117676 
vn -0.789551 -0.438477 -0.428955 
vn -0.409424 -0.705322 -0.578369 
vn -0.422607 -0.905273 -0.038574 
vn -0.815186 -0.566895 -0.117676 
vn -0.409424 -0.705322 -0.578369 
vn -0.117920 -0.431152 -0.894287 
vn -0.108643 -0.775879 -0.621094 
vn -0.409424 -0.705322 -0.578369 
vn -0.422607 -0.905273 -0.038574 
vn -0.409424 -0.705322 -0.578369 
vn -0.108643 -0.775879 -0.621094 
vn -0.821777 -0.520752 0.230957 
vn -0.815186 -0.566895 -0.117676 
vn -0.422607 -0.905273 -0.038574 
vn -0.448730 -0.741699 0.498047 
vn -0.821777 -0.520752 0.230957 
vn -0.422607 -0.905273 -0.038574 
vn -0.108643 -0.775879 -0.621094 
vn -0.044922 -0.995117 -0.086182 
vn -0.422607 -0.905273 -0.038574 
vn -0.149902 -0.890625 0.428711 
vn -0.422607 -0.905273 -0.038574 
vn -0.044922 -0.995117 -0.086182 
vn -0.422607 -0.905273 -0.038574 
vn -0.149902 -0.890625 0.428711 
vn -0.448730 -0.741699 0.498047 
vn -0.836670 -0.324219 0.441162 
vn -0.821777 -0.520752 0.230957 
vn -0.448730 -0.741699 0.498047 
vn -0.460938 -0.384521 0.799561 
vn -0.836670 -0.324219 0.441162 
vn -0.448730 -0.741699 0.498047 
vn -0.085205 -0.541504 0.836182 
vn -0.448730 -0.741699 0.498047 
vn -0.149902 -0.890625 0.428711 
vn -0.448730 -0.741699 0.498047 
vn -0.085205 -0.541504 0.836182 
vn -0.460938 -0.384521 0.799561 
vn -0.813477 -0.001709 0.581299 
vn -0.836670 -0.324219 0.441162 
vn -0.460938 -0.384521 0.799561 
vn -0.432373 0.052246 0.899902 
vn -0.813477 -0.001709 0.581299 
vn -0.460938 -0.384521 0.799561 
vn -0.086182 -0.037109 0.995361 
vn -0.460938 -0.384521 0.799561 
vn -0.085205 -0.541504 0.836182 
vn -0.460938 -0.384521 0.799561 
vn -0.086182 -0.037109 0.995361 
vn -0.432373 0.052246 0.899902 
vn -0.485107 0.480957 0.729980 
vn -0.813477 -0.001709 0.581299 
vn -0.432373 0.052246 0.899902 
vn -0.085693 0.478027 0.874023 
vn -0.432373 0.052246 0.899902 
vn -0.086182 -0.037109 0.995361 
vn -0.432373 0.052246 0.899902 
vn -0.085693 0.478027 0.874023 
vn -0.485107 0.480957 0.729980 
vn -0.885986 0.242676 0.394531 
vn -0.813477 -0.001709 0.581299 
vn -0.485107 0.480957 0.729980 
vn -0.828613 0.466309 0.308838 
vn -0.885986 0.242676 0.394531 
vn -0.485107 0.480957 0.729980 
vn -0.444336 0.821533 0.356689 
vn -0.828613 0.466309 0.308838 
vn -0.485107 0.480957 0.729980 
vn -0.112305 0.872070 0.475830 
vn -0.485107 0.480957 0.729980 
vn -0.085693 0.478027 0.874023 
vn -0.485107 0.480957 0.729980 
vn -0.112305 0.872070 0.475830 
vn -0.444336 0.821533 0.356689 
vn -0.818359 0.574463 0.003418 
vn -0.828613 0.466309 0.308838 
vn -0.444336 0.821533 0.356689 
vn -0.434082 0.881104 -0.187256 
vn -0.818359 0.574463 0.003418 
vn -0.444336 0.821533 0.356689 
vn -0.112549 0.989502 -0.090332 
vn -0.444336 0.821533 0.356689 
vn -0.112305 0.872070 0.475830 
vn -0.444336 0.821533 0.356689 
vn -0.112549 0.989502 -0.090332 
vn -0.434082 0.881104 -0.187256 
vn -0.795898 0.495850 -0.346924 
vn -0.818359 0.574463 0.003418 
vn -0.434082 0.881104 -0.187256 
vn -0.397949 0.659180 -0.637695 
vn -0.795898 0.495850 -0.346924 
vn -0.434082 0.881104 -0.187256 
vn -0.076904 0.753174 -0.653076 
vn -0.434082 0.881104 -0.187256 
vn -0.112549 0.989502 -0.090332 
vn -0.434082 0.881104 -0.187256 
vn -0.076904 0.753174 -0.653076 
vn -0.397949 0.659180 -0.637695 
vn -0.717773 0.276367 -0.638672 
vn -0.795898 0.495850 -0.346924 
vn -0.397949 0.659180 -0.637695 
vn -0.343262 0.337402 -0.876465 
vn -0.717773 0.276367 -0.638672 
vn -0.397949 0.659180 -0.637695 
vn -0.130615 0.439697 -0.888428 
vn -0.397949 0.659180 -0.637695 
vn -0.076904 0.753174 -0.653076 
vn -0.397949 0.659180 -0.637695 
vn -0.130615 0.439697 -0.888428 
vn -0.343262 0.337402 -0.876465 
vn -0.032471 0.021240 -0.999023 
vn -0.343262 0.337402 -0.876465 
vn -0.130615 0.439697 -0.888428 
vn -0.818604 0.001221 -0.574219 
vn -0.762451 -0.215820 -0.609619 
vn -0.999756 0.000000 -0.018555 
vn -0.717773 0.276367 -0.638672 
vn -0.818604 0.001221 -0.574219 
vn -0.999756 0.000000 -0.018555 
vn -0.762451 -0.215820 -0.609619 
vn -0.789551 -0.438477 -0.428955 
vn -0.999756 0.000000 -0.018555 
vn -0.789551 -0.438477 -0.428955 
vn -0.815186 -0.566895 -0.117676 
vn -0.999756 0.000000 -0.018555 
vn -0.815186 -0.566895 -0.117676 
vn -0.821777 -0.520752 0.230957 
vn -0.999756 0.000000 -0.018555 
vn -0.821777 -0.520752 0.230957 
vn -0.836670 -0.324219 0.441162 
vn -0.999756 0.000000 -0.018555 
vn -0.836670 -0.324219 0.441162 
vn -0.813477 -0.001709 0.581299 
vn -0.999756 0.000000 -0.018555 
vn -0.813477 -0.001709 0.581299 
vn -0.885986 0.242676 0.394531 
vn -0.999756 0.000000 -0.018555 
vn -0.885986 0.242676 0.394531 
vn -0.828613 0.466309 0.308838 
vn -0.999756 0.000000 -0.018555 
vn -0.828613 0.466309 0.308838 
vn -0.818359 0.574463 0.003418 
vn -0.999756 0.000000 -0.018555 
vn -0.818359 0.574463 0.003418 
vn -0.795898 0.495850 -0.346924 
vn -0.999756 0.000000 -0.018555 
vn -0.795898 0.495850 -0.346924 
vn -0.717773 0.276367 -0.638672 
vn -0.999756 0.000000 -0.018555 
vt 0.330709 0.165354 
vt 0.244094 0.188976 
vt 0.244094 0.377953 
vt 0.370079 0.346457 
vt 0.330709 0.165354 
vt 0.244094 0.377953 
vt 0.244094 0.188976 
vt 0.157480 0.165354 
vt 0.244094 0.377953 
vt 0.244094 0.377953 
vt 0.157480 0.165354 
vt 0.125984 0.346457 
vt 0.370079 0.401575 
vt 0.244094 0.377953 
vt 0.244094 0.425197 
vt 0.244094 0.377953 
vt 0.370079 0.401575 
vt 0.370079 0.346457 
vt 0.125984 0.346457 
vt 0.244094 0.425197 
vt 0.244094 0.377953 
vt 0.401575 0.118110 
vt 0.330709 0.165354 
vt 0.370079 0.346457 
vt 0.456693 0.275591 
vt 0.401575 0.118110 
vt 0.370079 0.346457 
vt 0.456693 0.275591 
vt 0.370079 0.346457 
vt 0.370079 0.401575 
vt 0.236220 0.228346 
vt 0.173228 0.204724 
vt 0.157480 0.401575 
vt 0.244094 0.433071 
vt 0.236220 0.228346 
vt 0.157480 0.401575 
vt 0.370079 0.401575 
vt 0.456693 0.322835 
vt 0.456693 0.275591 
vt 0.228346 0.062992 
vt 0.102362 0.062992 
vt 0.102362 0.110236 
vt 0.338583 0.188976 
vt 0.236220 0.228346 
vt 0.244094 0.433071 
vt 0.393701 0.377953 
vt 0.338583 0.188976 
vt 0.244094 0.433071 
vt 0.102362 0.110236 
vt 0.228346 0.102362 
vt 0.228346 0.062992 
vt 0.456693 0.110236 
vt 0.228346 0.062992 
vt 0.228346 0.102362 
vt 0.228346 0.062992 
vt 0.456693 0.110236 
vt 0.456693 0.070866 
vt 0.157480 0.220472 
vt 0.094488 0.149606 
vt 0.039370 0.291339 
vt 0.125984 0.385827 
vt 0.157480 0.220472 
vt 0.039370 0.291339 
vt 0.370079 0.251969 
vt 0.196850 0.196850 
vt 0.196850 0.251969 
vt 0.196850 0.196850 
vt 0.370079 0.251969 
vt 0.370079 0.196850 
vt 0.244094 0.244094 
vt 0.157480 0.220472 
vt 0.125984 0.385827 
vt 0.244094 0.417323 
vt 0.244094 0.244094 
vt 0.125984 0.385827 
vt 0.244094 0.456693 
vt 0.125984 0.385827 
vt 0.125984 0.425197 
vt 0.125984 0.385827 
vt 0.244094 0.456693 
vt 0.244094 0.417323 
vt 0.370079 0.385827 
vt 0.244094 0.244094 
vt 0.244094 0.417323 
vt 0.370079 0.425197 
vt 0.244094 0.417323 
vt 0.244094 0.456693 
vt 0.244094 0.417323 
vt 0.370079 0.425197 
vt 0.370079 0.385827 
vt 0.330709 0.220472 
vt 0.244094 0.244094 
vt 0.370079 0.385827 
vt 0.401575 0.149606 
vt 0.330709 0.220472 
vt 0.370079 0.385827 
vt 0.456693 0.291339 
vt 0.401575 0.149606 
vt 0.370079 0.385827 
vt 0.299213 0.141732 
vt 0.157480 0.094488 
vt 0.149606 0.141732 
vt 0.157480 0.094488 
vt 0.299213 0.141732 
vt 0.299213 0.094488 
vt 0.322835 0.165354 
vt 0.220472 0.125984 
vt 0.165354 0.314961 
vt 0.314961 0.370079 
vt 0.322835 0.165354 
vt 0.165354 0.314961 
vt 0.338583 0.299213 
vt 0.173228 0.212598 
vt 0.173228 0.291339 
vt 0.173228 0.212598 
vt 0.338583 0.299213 
vt 0.338583 0.220472 
vt 0.385827 0.141732 
vt 0.322835 0.165354 
vt 0.314961 0.370079 
vt 0.409449 0.338583 
vt 0.385827 0.141732 
vt 0.314961 0.370079 
vt 0.440945 0.291339 
vt 0.338583 0.220472 
vt 0.338583 0.299213 
vt 0.338583 0.220472 
vt 0.440945 0.291339 
vt 0.440945 0.212598 
vt 0.157480 0.165354 
vt 0.094488 0.118110 
vt 0.039370 0.275591 
vt 0.125984 0.346457 
vt 0.157480 0.165354 
vt 0.039370 0.275591 
vt 0.125984 0.393701 
vt 0.039370 0.275591 
vt 0.039370 0.322835 
vt 0.039370 0.275591 
vt 0.125984 0.393701 
vt 0.125984 0.346457 
vt 0.244094 0.425197 
vt 0.125984 0.346457 
vt 0.125984 0.393701 
vt 0.244094 0.188976 
vt 0.330709 0.165354 
vt 0.244094 0.047244 
vt 0.157480 0.165354 
vt 0.244094 0.188976 
vt 0.244094 0.047244 
vt 0.330709 0.165354 
vt 0.401575 0.118110 
vt 0.244094 0.047244 
vt 0.401575 0.118110 
vt 0.425197 0.062992 
vt 0.244094 0.047244 
vt 0.070866 0.055118 
vt 0.094488 0.149606 
vt 0.244094 0.047244 
vt 0.094488 0.149606 
vt 0.157480 0.220472 
vt 0.244094 0.047244 
vt 0.157480 0.220472 
vt 0.244094 0.244094 
vt 0.244094 0.047244 
vt 0.244094 0.244094 
vt 0.330709 0.220472 
vt 0.244094 0.047244 
vt 0.330709 0.220472 
vt 0.401575 0.149606 
vt 0.244094 0.047244 
vt 0.401575 0.149606 
vt 0.425197 0.055118 
vt 0.244094 0.047244 
vt 0.070866 0.062992 
vt 0.094488 0.118110 
vt 0.244094 0.047244 
vt 0.094488 0.118110 
vt 0.157480 0.165354 
vt 0.244094 0.047244 
f 1/1/1 2/2/2 3/3/3
f 4/4/4 5/5/5 6/6/6
f 7/7/7 8/8/8 9/9/9
f 10/10/10 11/11/11 12/12/12
f 13/13/13 14/14/14 15/15/15
f 16/16/16 17/17/17 18/18/18
f 19/19/19 20/20/20 21/21/21
f 22/22/22 23/23/23 24/24/24
f 25/25/25 26/26/26 27/27/27
f 28/28/28 29/29/29 30/30/30
f 31/31/31 32/32/32 33/33/33
f 34/34/34 35/35/35 36/36/36
f 37/37/37 38/38/38 39/39/39
f 40/40/40 41/41/41 42/42/42
f 43/43/43 44/44/44 45/45/45
f 46/46/46 47/47/47 48/48/48
f 49/49/49 50/50/50 51/51/51
f 52/52/52 53/53/53 54/54/54
f 55/55/55 56/56/56 57/57/57
f 58/58/58 59/59/59 60/60/60
f 61/61/61 62/62/62 63/63/63
f 64/64/64 65/65/65 66/66/66
f 67/67/67 68/68/68 69/69/69
f 70/70/70 71/71/71 72/72/72
f 73/73/73 74/74/74 75/75/75
f 76/76/76 77/77/77 78/78/78
f 79/79/79 80/80/80 81/81/81
f 82/82/82 83/83/83 84/84/84
f 85/85/85 86/86/86 87/87/87
f 88/88/88 89/89/89 90/90/90
f 91/91/91 92/92/92 93/93/93
f 94/94/94 95/95/95 96/96/96
f 97/97/97 98/98/98 99/99/99
f 100/100/100 101/101/101 102/102/102
f 103/103/103 104/104/104 105/105/105
f 106/106/106 107/107/107 108/108/108
f 109/109/109 110/110/110 111/111/111
f 112/112/112 113/113/113 114/114/114
f 115/115/115 116/116/116 117/117/117
f 118/118/118 119/119/119 120/120/120
f 121/121/121 122/122/122 123/123/123
f 124/124/124 125/125/125 126/126/126
f 127/127/127 128/128/128 129/129/129
f 130/130/130 131/131/131 132/132/132
f 133/133/133 134/134/134 135/135/135
f 136/136/136 137/137/137 138/138/138
f 139/139/139 140/140/140 141/141/141
f 142/142/142 143/143/143 144/144/144
f 145/145/145 146/146/146 147/147/147
f 148/148/148 149/149/149 150/150/150
f 151/151/151 152/152/152 153/153/153
f 154/154/154 155/155/155 156/156/156
f 157/157/157 158/158/158 159/159/159
f 160/160/160 161/161/161 162/162/162
f 163/163/163 164/164/164 165/165/165
f 166/166/166 167/167/167 168/168/168
f 169/169/169 170/170/170 171/171/171
f 172/172/172 173/173/173 174/174/174
f 175/175/175 176/176/176 177/177/177
f 178/178/178 179/179/179 180/180/180
