v -875.000000 0.000000 -590.000000 
v -1114.000000 260.000000 -590.000000 
v -875.000000 260.000000 -590.000000 
v -1114.000000 260.000000 -590.000000 
v -875.000000 0.000000 -590.000000 
v -1114.000000 0.000000 -590.000000 
v -1114.000000 0.000000 -590.000000 
v -1297.000000 260.000000 -590.000000 
v -1114.000000 260.000000 -590.000000 
v -1297.000000 260.000000 -590.000000 
v -1114.000000 0.000000 -590.000000 
v -1297.000000 -1.000000 -590.000000 
vn 0.000000 0.000000 -1.000000 
vn 0.000000 0.000000 -1.000000 
vn 0.000000 0.000000 -1.000000 
vn 0.000000 0.000000 -1.000000 
vn 0.000000 0.000000 -1.000000 
vn 0.000000 0.000000 -1.000000 
vn 0.000000 0.000000 -1.000000 
vn 0.000000 0.000000 -1.000000 
vn 0.000000 0.000000 -1.000000 
vn 0.000000 0.000000 -1.000000 
vn 0.000000 0.000000 -1.000000 
vn 0.000000 0.000000 -1.000000 
vt 1.000000 0.000000 
vt 0.000000 1.000000 
vt 1.000000 1.000000 
vt 0.000000 1.000000 
vt 1.000000 0.000000 
vt 0.000000 -0.007874 
vt 0.000000 -0.007874 
vt 1.000000 1.000000 
vt 0.000000 1.000000 
vt 1.000000 1.000000 
vt 0.000000 -0.007874 
vt 1.000000 -0.007874 
f 1/1/1 2/2/2 3/3/3
f 4/4/4 5/5/5 6/6/6
f 7/7/7 8/8/8 9/9/9
f 10/10/10 11/11/11 12/12/12
