v 0.000000 -97.000000 -8.000000 
v 0.000000 -106.000000 58.000000 
v -20.000000 -104.000000 52.000000 
v 0.000000 -97.000000 -8.000000 
v -20.000000 -104.000000 52.000000 
v -38.000000 -98.000000 35.000000 
v 0.000000 -97.000000 -8.000000 
v -38.000000 -98.000000 35.000000 
v -52.000000 -88.000000 8.000000 
v 0.000000 -97.000000 -8.000000 
v -52.000000 -88.000000 8.000000 
v -44.000000 -80.000000 -10.000000 
v 0.000000 -97.000000 -8.000000 
v -44.000000 -80.000000 -10.000000 
v -29.000000 -75.000000 -24.000000 
v 0.000000 -97.000000 -8.000000 
v -29.000000 -75.000000 -24.000000 
v -10.000000 -72.000000 -31.000000 
v 0.000000 -97.000000 -8.000000 
v -10.000000 -72.000000 -31.000000 
v 10.000000 -72.000000 -31.000000 
v 0.000000 -97.000000 -8.000000 
v 10.000000 -72.000000 -31.000000 
v 29.000000 -75.000000 -24.000000 
v 0.000000 -97.000000 -8.000000 
v 29.000000 -75.000000 -24.000000 
v 44.000000 -80.000000 -10.000000 
v 0.000000 -97.000000 -8.000000 
v 44.000000 -80.000000 -10.000000 
v 52.000000 -88.000000 8.000000 
v 0.000000 -97.000000 -8.000000 
v 52.000000 -88.000000 8.000000 
v 38.000000 -98.000000 35.000000 
v 0.000000 -97.000000 -8.000000 
v 38.000000 -98.000000 35.000000 
v 20.000000 -104.000000 52.000000 
v 0.000000 -97.000000 -8.000000 
v 20.000000 -104.000000 52.000000 
v 0.000000 -106.000000 58.000000 
v 0.000000 -88.000000 75.000000 
v -20.000000 -104.000000 52.000000 
v 0.000000 -106.000000 58.000000 
v -30.000000 -86.000000 66.000000 
v -20.000000 -104.000000 52.000000 
v 0.000000 -88.000000 75.000000 
v -30.000000 -86.000000 66.000000 
v -53.000000 -80.000000 41.000000 
v -20.000000 -104.000000 52.000000 
v -53.000000 -80.000000 41.000000 
v -38.000000 -98.000000 35.000000 
v -20.000000 -104.000000 52.000000 
v -53.000000 -80.000000 41.000000 
v -63.000000 -70.000000 10.000000 
v -38.000000 -98.000000 35.000000 
v -63.000000 -70.000000 10.000000 
v -52.000000 -88.000000 8.000000 
v -38.000000 -98.000000 35.000000 
v -63.000000 -70.000000 10.000000 
v -60.000000 -62.000000 -13.000000 
v -52.000000 -88.000000 8.000000 
v -60.000000 -62.000000 -13.000000 
v -44.000000 -80.000000 -10.000000 
v -52.000000 -88.000000 8.000000 
v 63.000000 -70.000000 10.000000 
v 53.000000 -79.000000 41.000000 
v 52.000000 -88.000000 8.000000 
v 53.000000 -79.000000 41.000000 
v 38.000000 -98.000000 35.000000 
v 52.000000 -88.000000 8.000000 
v 53.000000 -79.000000 41.000000 
v 30.000000 -86.000000 66.000000 
v 38.000000 -98.000000 35.000000 
v 30.000000 -86.000000 66.000000 
v 20.000000 -104.000000 52.000000 
v 38.000000 -98.000000 35.000000 
v 30.000000 -86.000000 66.000000 
v 0.000000 -106.000000 58.000000 
v 20.000000 -104.000000 52.000000 
v 0.000000 -88.000000 75.000000 
v 0.000000 -106.000000 58.000000 
v 30.000000 -86.000000 66.000000 
v -30.000000 -86.000000 66.000000 
v 0.000000 -88.000000 75.000000 
v 0.000000 -72.000000 80.000000 
v 0.000000 -72.000000 80.000000 
v -29.000000 -70.000000 71.000000 
v -30.000000 -86.000000 66.000000 
v -53.000000 -80.000000 41.000000 
v -30.000000 -86.000000 66.000000 
v -29.000000 -70.000000 71.000000 
v -29.000000 -70.000000 71.000000 
v -52.000000 -64.000000 46.000000 
v -53.000000 -80.000000 41.000000 
v -63.000000 -70.000000 10.000000 
v -53.000000 -80.000000 41.000000 
v -52.000000 -64.000000 46.000000 
v -52.000000 -64.000000 46.000000 
v -66.000000 -56.000000 10.000000 
v -63.000000 -70.000000 10.000000 
v 52.000000 -64.000000 46.000000 
v 63.000000 -70.000000 10.000000 
v 66.000000 -56.000000 10.000000 
v 63.000000 -70.000000 10.000000 
v 52.000000 -64.000000 46.000000 
v 53.000000 -79.000000 41.000000 
v 29.000000 -70.000000 71.000000 
v 53.000000 -79.000000 41.000000 
v 52.000000 -64.000000 46.000000 
v 53.000000 -79.000000 41.000000 
v 29.000000 -70.000000 71.000000 
v 30.000000 -86.000000 66.000000 
v 0.000000 -72.000000 80.000000 
v 30.000000 -86.000000 66.000000 
v 29.000000 -70.000000 71.000000 
v 30.000000 -86.000000 66.000000 
v 0.000000 -72.000000 80.000000 
v 0.000000 -88.000000 75.000000 
v -20.000000 -70.000000 71.000000 
v -29.000000 -70.000000 71.000000 
v 0.000000 -72.000000 80.000000 
v 44.000000 -64.000000 46.000000 
v -43.000000 -64.000000 46.000000 
v -20.000000 -70.000000 71.000000 
v -20.000000 -70.000000 71.000000 
v -43.000000 -64.000000 46.000000 
v -29.000000 -70.000000 71.000000 
v -57.000000 -56.000000 10.000000 
v -66.000000 -56.000000 10.000000 
v -52.000000 -64.000000 46.000000 
v 44.000000 -64.000000 46.000000 
v 60.000000 -56.000000 10.000000 
v -43.000000 -64.000000 46.000000 
v 66.000000 -56.000000 10.000000 
v 55.000000 -41.000000 -2.000000 
v 48.000000 -41.000000 -2.000000 
v -55.000000 -41.000000 -2.000000 
v -66.000000 -56.000000 10.000000 
v -57.000000 -56.000000 10.000000 
v -66.000000 -56.000000 10.000000 
v -55.000000 -41.000000 -2.000000 
v -60.000000 -62.000000 -13.000000 
v -63.000000 -70.000000 10.000000 
v -66.000000 -56.000000 10.000000 
v -60.000000 -62.000000 -13.000000 
v 52.000000 -88.000000 8.000000 
v 44.000000 -80.000000 -10.000000 
v 63.000000 -70.000000 10.000000 
v 66.000000 -56.000000 10.000000 
v 48.000000 -41.000000 -2.000000 
v 60.000000 -56.000000 10.000000 
v 44.000000 -80.000000 -10.000000 
v 66.000000 -56.000000 10.000000 
v 63.000000 -70.000000 10.000000 
v 55.000000 -41.000000 -2.000000 
v 66.000000 -56.000000 10.000000 
v 44.000000 -80.000000 -10.000000 
v 52.000000 -64.000000 46.000000 
v 66.000000 -56.000000 10.000000 
v 44.000000 -64.000000 46.000000 
v 52.000000 -64.000000 46.000000 
v 44.000000 -64.000000 46.000000 
v 19.000000 -70.000000 71.000000 
v 29.000000 -70.000000 71.000000 
v 52.000000 -64.000000 46.000000 
v 19.000000 -70.000000 71.000000 
v 29.000000 -70.000000 71.000000 
v 19.000000 -70.000000 71.000000 
v 0.000000 -72.000000 80.000000 
v 19.000000 -70.000000 71.000000 
v 44.000000 -64.000000 46.000000 
v -20.000000 -70.000000 71.000000 
v 19.000000 -70.000000 71.000000 
v -20.000000 -70.000000 71.000000 
v 0.000000 -72.000000 80.000000 
v -43.000000 -64.000000 46.000000 
v -52.000000 -64.000000 46.000000 
v -29.000000 -70.000000 71.000000 
v -43.000000 -64.000000 46.000000 
v -57.000000 -56.000000 10.000000 
v -52.000000 -64.000000 46.000000 
v -55.000000 -41.000000 -2.000000 
v -57.000000 -56.000000 10.000000 
v -48.000000 -41.000000 -2.000000 
v 60.000000 -56.000000 10.000000 
v -57.000000 -56.000000 10.000000 
v -43.000000 -64.000000 46.000000 
v 48.000000 -41.000000 -2.000000 
v -48.000000 -41.000000 -2.000000 
v -57.000000 -56.000000 10.000000 
v -57.000000 -56.000000 10.000000 
v 60.000000 -56.000000 10.000000 
v 48.000000 -41.000000 -2.000000 
v 66.000000 -56.000000 10.000000 
v 60.000000 -56.000000 10.000000 
v 44.000000 -64.000000 46.000000 
vn -0.000244 -0.917725 -0.396973 
vn 0.064453 -0.919678 0.386963 
vn -0.395508 -0.859131 0.324463 
vn -0.000244 -0.917725 -0.396973 
vn -0.395508 -0.859131 0.324463 
vn -0.587646 -0.806885 0.058105 
vn -0.000244 -0.917725 -0.396973 
vn -0.587646 -0.806885 0.058105 
vn -0.628906 -0.739258 -0.240234 
vn -0.000244 -0.917725 -0.396973 
vn -0.628906 -0.739258 -0.240234 
vn -0.422607 -0.763916 -0.487305 
vn -0.000244 -0.917725 -0.396973 
vn -0.422607 -0.763916 -0.487305 
vn -0.238037 -0.761230 -0.603027 
vn -0.000244 -0.917725 -0.396973 
vn -0.238037 -0.761230 -0.603027 
vn -0.089355 -0.722656 -0.685059 
vn -0.000244 -0.917725 -0.396973 
vn -0.089355 -0.722656 -0.685059 
vn 0.087646 -0.722900 -0.685059 
vn -0.000244 -0.917725 -0.396973 
vn 0.087646 -0.722900 -0.685059 
vn 0.236328 -0.761963 -0.602539 
vn -0.000244 -0.917725 -0.396973 
vn 0.236328 -0.761963 -0.602539 
vn 0.661621 -0.501465 -0.557129 
vn -0.000244 -0.917725 -0.396973 
vn 0.661621 -0.501465 -0.557129 
vn 0.656494 -0.731934 -0.181396 
vn -0.000244 -0.917725 -0.396973 
vn 0.656494 -0.731934 -0.181396 
vn 0.542236 -0.832031 0.114014 
vn -0.000244 -0.917725 -0.396973 
vn 0.542236 -0.832031 0.114014 
vn 0.335693 -0.918457 0.208984 
vn -0.000244 -0.917725 -0.396973 
vn 0.335693 -0.918457 0.208984 
vn 0.064453 -0.919678 0.386963 
vn -0.062988 -0.596436 0.800049 
vn -0.395508 -0.859131 0.324463 
vn 0.064453 -0.919678 0.386963 
vn -0.518066 -0.466553 0.716553 
vn -0.395508 -0.859131 0.324463 
vn -0.062988 -0.596436 0.800049 
vn -0.518066 -0.466553 0.716553 
vn -0.826904 -0.407715 0.386719 
vn -0.395508 -0.859131 0.324463 
vn -0.826904 -0.407715 0.386719 
vn -0.587646 -0.806885 0.058105 
vn -0.395508 -0.859131 0.324463 
vn -0.826904 -0.407715 0.386719 
vn -0.931885 -0.355713 0.068848 
vn -0.587646 -0.806885 0.058105 
vn -0.931885 -0.355713 0.068848 
vn -0.628906 -0.739258 -0.240234 
vn -0.587646 -0.806885 0.058105 
vn -0.931885 -0.355713 0.068848 
vn -0.914307 -0.260742 -0.309326 
vn -0.628906 -0.739258 -0.240234 
vn -0.914307 -0.260742 -0.309326 
vn -0.422607 -0.763916 -0.487305 
vn -0.628906 -0.739258 -0.240234 
vn 0.954590 -0.288330 -0.071777 
vn 0.853516 -0.382080 0.353760 
vn 0.656494 -0.731934 -0.181396 
vn 0.853516 -0.382080 0.353760 
vn 0.542236 -0.832031 0.114014 
vn 0.656494 -0.731934 -0.181396 
vn 0.853516 -0.382080 0.353760 
vn 0.515869 -0.538818 0.665771 
vn 0.542236 -0.832031 0.114014 
vn 0.515869 -0.538818 0.665771 
vn 0.335693 -0.918457 0.208984 
vn 0.542236 -0.832031 0.114014 
vn 0.515869 -0.538818 0.665771 
vn 0.064453 -0.919678 0.386963 
vn 0.335693 -0.918457 0.208984 
vn -0.062988 -0.596436 0.800049 
vn 0.064453 -0.919678 0.386963 
vn 0.515869 -0.538818 0.665771 
vn -0.518066 -0.466553 0.716553 
vn -0.062988 -0.596436 0.800049 
vn 0.000000 -0.340576 0.939941 
vn 0.000000 -0.340576 0.939941 
vn -0.673828 -0.221924 0.704346 
vn -0.518066 -0.466553 0.716553 
vn -0.826904 -0.407715 0.386719 
vn -0.518066 -0.466553 0.716553 
vn -0.673828 -0.221924 0.704346 
vn -0.673828 -0.221924 0.704346 
vn -0.918213 -0.124512 0.375488 
vn -0.826904 -0.407715 0.386719 
vn -0.931885 -0.355713 0.068848 
vn -0.826904 -0.407715 0.386719 
vn -0.918213 -0.124512 0.375488 
vn -0.918213 -0.124512 0.375488 
vn -0.941650 -0.192383 0.275635 
vn -0.931885 -0.355713 0.068848 
vn 0.918213 -0.124756 0.375732 
vn 0.954590 -0.288330 -0.071777 
vn 0.941406 -0.192871 0.276123 
vn 0.954590 -0.288330 -0.071777 
vn 0.918213 -0.124756 0.375732 
vn 0.853516 -0.382080 0.353760 
vn 0.673828 -0.222168 0.704346 
vn 0.853516 -0.382080 0.353760 
vn 0.918213 -0.124756 0.375732 
vn 0.853516 -0.382080 0.353760 
vn 0.673828 -0.222168 0.704346 
vn 0.515869 -0.538818 0.665771 
vn 0.000000 -0.340576 0.939941 
vn 0.515869 -0.538818 0.665771 
vn 0.673828 -0.222168 0.704346 
vn 0.515869 -0.538818 0.665771 
vn 0.000000 -0.340576 0.939941 
vn -0.062988 -0.596436 0.800049 
vn 0.000000 0.979736 0.199219 
vn 0.000000 0.979736 0.199219 
vn 0.000000 0.979736 0.199219 
vn 0.000000 0.979736 0.199219 
vn 0.000000 0.979736 0.199219 
vn 0.000000 0.979736 0.199219 
vn 0.000000 0.979736 0.199219 
vn 0.000000 0.979736 0.199219 
vn 0.000000 0.979736 0.199219 
vn -0.000244 0.860596 0.509033 
vn 0.000000 0.881836 0.471436 
vn 0.000000 0.979736 0.199219 
vn 0.000000 0.979736 0.199219 
vn 0.000000 0.907715 0.419434 
vn 0.000000 0.979736 0.199219 
vn -0.000244 0.880615 0.473389 
vn -0.000977 0.706543 0.707520 
vn -0.000488 0.707764 0.706299 
vn -0.000488 0.709961 0.703857 
vn 0.000000 0.881836 0.471436 
vn -0.000244 0.860596 0.509033 
vn -0.968994 0.073730 -0.234863 
vn -0.890869 0.351807 -0.286865 
vn -0.914307 -0.260742 -0.309326 
vn -0.931885 -0.355713 0.068848 
vn -0.968994 0.073730 -0.234863 
vn -0.914307 -0.260742 -0.309326 
vn 0.656494 -0.731934 -0.181396 
vn 0.661621 -0.501465 -0.557129 
vn 0.954590 -0.288330 -0.071777 
vn -0.000244 0.880615 0.473389 
vn -0.000488 0.707764 0.706299 
vn 0.000000 0.907715 0.419434 
vn 0.661621 -0.501465 -0.557129 
vn 0.806396 -0.134766 -0.575684 
vn 0.954590 -0.288330 -0.071777 
vn 0.783936 -0.076172 -0.615723 
vn 0.806396 -0.134766 -0.575684 
vn 0.661621 -0.501465 -0.557129 
vn 0.000000 0.979736 0.199219 
vn -0.000244 0.880615 0.473389 
vn 0.000000 0.979736 0.199219 
vn 0.000000 0.979736 0.199219 
vn 0.000000 0.979736 0.199219 
vn 0.000000 0.979736 0.199219 
vn 0.000000 0.979736 0.199219 
vn 0.000000 0.979736 0.199219 
vn 0.000000 0.979736 0.199219 
vn 0.000000 0.979736 0.199219 
vn 0.000000 0.979736 0.199219 
vn 0.000000 0.979736 0.199219 
vn 0.000000 0.979736 0.199219 
vn 0.000000 0.979736 0.199219 
vn 0.000000 0.979736 0.199219 
vn 0.000000 0.979736 0.199219 
vn 0.000000 0.979736 0.199219 
vn 0.000000 0.979736 0.199219 
vn 0.000000 0.979736 0.199219 
vn 0.000000 0.979736 0.199219 
vn 0.000000 0.979736 0.199219 
vn 0.000000 0.979736 0.199219 
vn -0.000244 0.860596 0.509033 
vn 0.000000 0.979736 0.199219 
vn -0.000488 0.709961 0.703857 
vn -0.000244 0.860596 0.509033 
vn -0.000977 0.709961 0.703857 
vn 0.000000 0.907715 0.419434 
vn -0.000244 0.860596 0.509033 
vn 0.000000 0.979736 0.199219 
vn -0.000488 0.707764 0.706299 
vn -0.000977 0.709961 0.703857 
vn -0.000244 0.860596 0.509033 
vn -0.000244 0.860596 0.509033 
vn 0.000000 0.907715 0.419434 
vn -0.000488 0.707764 0.706299 
vn -0.000244 0.880615 0.473389 
vn 0.000000 0.907715 0.419434 
vn 0.000000 0.979736 0.199219 
vt 0.483871 0.190476 
vt 0.483871 0.603175 
vt 0.387097 0.571429 
vt 0.483871 0.190476 
vt 0.387097 0.571429 
vt 0.290323 0.476190 
vt 0.483871 0.190476 
vt 0.290323 0.476190 
vt 0.225806 0.301587 
vt 0.483871 0.190476 
vt 0.225806 0.301587 
vt 0.258065 0.190476 
vt 0.483871 0.190476 
vt 0.258065 0.190476 
vt 0.354839 0.095238 
vt 0.483871 0.190476 
vt 0.354839 0.095238 
vt 0.451613 0.063492 
vt 0.483871 0.190476 
vt 0.451613 0.063492 
vt 0.548387 0.063492 
vt 0.483871 0.190476 
vt 0.548387 0.063492 
vt 0.645161 0.095238 
vt 0.483871 0.190476 
vt 0.645161 0.095238 
vt 0.709677 0.190476 
vt 0.483871 0.190476 
vt 0.709677 0.190476 
vt 0.774194 0.301587 
vt 0.483871 0.190476 
vt 0.774194 0.301587 
vt 0.677419 0.476190 
vt 0.483871 0.190476 
vt 0.677419 0.476190 
vt 0.612903 0.571429 
vt 0.483871 0.190476 
vt 0.612903 0.571429 
vt 0.483871 0.603175 
vt 0.483871 0.714286 
vt 0.387097 0.571429 
vt 0.483871 0.603175 
vt 0.354839 0.666667 
vt 0.387097 0.571429 
vt 0.483871 0.714286 
vt 0.354839 0.666667 
vt 0.225806 0.507937 
vt 0.387097 0.571429 
vt 0.225806 0.507937 
vt 0.290323 0.476190 
vt 0.387097 0.571429 
vt 0.225806 0.507937 
vt 0.161290 0.317460 
vt 0.290323 0.476190 
vt 0.161290 0.317460 
vt 0.225806 0.301587 
vt 0.290323 0.476190 
vt 0.161290 0.317460 
vt 0.193548 0.174603 
vt 0.225806 0.301587 
vt 0.193548 0.174603 
vt 0.258065 0.190476 
vt 0.225806 0.301587 
vt 0.838710 0.317460 
vt 0.774194 0.507937 
vt 0.774194 0.301587 
vt 0.774194 0.507937 
vt 0.677419 0.476190 
vt 0.774194 0.301587 
vt 0.774194 0.507937 
vt 0.645161 0.666667 
vt 0.677419 0.476190 
vt 0.645161 0.666667 
vt 0.612903 0.571429 
vt 0.677419 0.476190 
vt 0.645161 0.666667 
vt 0.483871 0.603175 
vt 0.612903 0.571429 
vt 0.483871 0.714286 
vt 0.483871 0.603175 
vt 0.645161 0.666667 
vt 0.354839 0.666667 
vt 0.483871 0.714286 
vt 0.483871 0.746032 
vt 0.483871 0.746032 
vt 0.354839 0.698413 
vt 0.354839 0.666667 
vt 0.225806 0.507937 
vt 0.354839 0.666667 
vt 0.354839 0.698413 
vt 0.354839 0.698413 
vt 0.225806 0.539683 
vt 0.225806 0.507937 
vt 0.161290 0.317460 
vt 0.225806 0.507937 
vt 0.225806 0.539683 
vt 0.225806 0.539683 
vt 0.161290 0.317460 
vt 0.161290 0.317460 
vt 0.774194 0.539683 
vt 0.838710 0.317460 
vt 0.838710 0.317460 
vt 0.838710 0.317460 
vt 0.774194 0.539683 
vt 0.774194 0.507937 
vt 0.645161 0.698413 
vt 0.774194 0.507937 
vt 0.774194 0.539683 
vt 0.774194 0.507937 
vt 0.645161 0.698413 
vt 0.645161 0.666667 
vt 0.483871 0.746032 
vt 0.645161 0.666667 
vt 0.645161 0.698413 
vt 0.645161 0.666667 
vt 0.483871 0.746032 
vt 0.483871 0.714286 
vt 0.387097 0.698413 
vt 0.354839 0.698413 
vt 0.483871 0.746032 
vt 0.741935 0.539683 
vt 0.258065 0.539683 
vt 0.387097 0.698413 
vt 0.387097 0.698413 
vt 0.258065 0.539683 
vt 0.354839 0.698413 
vt 0.193548 0.317460 
vt 0.161290 0.317460 
vt 0.225806 0.539683 
vt 0.741935 0.539683 
vt 0.806452 0.317460 
vt 0.258065 0.539683 
vt 0.225806 0.238095 
vt 0.258065 0.333333 
vt 0.290323 0.333333 
vt 0.677419 0.317460 
vt 0.741935 0.238095 
vt 0.709677 0.238095 
vt 0.161290 0.317460 
vt 0.161290 0.317460 
vt 0.193548 0.174603 
vt 0.161290 0.317460 
vt 0.161290 0.317460 
vt 0.193548 0.174603 
vt 0.548387 0.380952 
vt 0.419355 0.412698 
vt 0.612903 0.460317 
vt 0.225806 0.238095 
vt 0.290323 0.333333 
vt 0.225806 0.238095 
vt 0.516129 0.460317 
vt 0.612903 0.507937 
vt 0.612903 0.460317 
vt 0.516129 0.571429 
vt 0.612903 0.507937 
vt 0.516129 0.460317 
vt 0.774194 0.539683 
vt 0.838710 0.317460 
vt 0.741935 0.539683 
vt 0.774194 0.539683 
vt 0.741935 0.539683 
vt 0.612903 0.698413 
vt 0.645161 0.698413 
vt 0.774194 0.539683 
vt 0.612903 0.698413 
vt 0.645161 0.698413 
vt 0.612903 0.698413 
vt 0.483871 0.746032 
vt 0.612903 0.698413 
vt 0.741935 0.539683 
vt 0.387097 0.698413 
vt 0.612903 0.698413 
vt 0.387097 0.698413 
vt 0.483871 0.746032 
vt 0.258065 0.539683 
vt 0.225806 0.539683 
vt 0.354839 0.698413 
vt 0.258065 0.539683 
vt 0.193548 0.317460 
vt 0.225806 0.539683 
vt 0.677419 0.317460 
vt 0.709677 0.238095 
vt 0.645161 0.333333 
vt 0.806452 0.317460 
vt 0.193548 0.317460 
vt 0.258065 0.539683 
vt 0.290323 0.333333 
vt 0.645161 0.333333 
vt 0.709677 0.238095 
vt 0.709677 0.238095 
vt 0.225806 0.238095 
vt 0.290323 0.333333 
vt 0.838710 0.317460 
vt 0.806452 0.317460 
vt 0.741935 0.539683 
f 1/1/1 2/2/2 3/3/3
f 4/4/4 5/5/5 6/6/6
f 7/7/7 8/8/8 9/9/9
f 10/10/10 11/11/11 12/12/12
f 13/13/13 14/14/14 15/15/15
f 16/16/16 17/17/17 18/18/18
f 19/19/19 20/20/20 21/21/21
f 22/22/22 23/23/23 24/24/24
f 25/25/25 26/26/26 27/27/27
f 28/28/28 29/29/29 30/30/30
f 31/31/31 32/32/32 33/33/33
f 34/34/34 35/35/35 36/36/36
f 37/37/37 38/38/38 39/39/39
f 40/40/40 41/41/41 42/42/42
f 43/43/43 44/44/44 45/45/45
f 46/46/46 47/47/47 48/48/48
f 49/49/49 50/50/50 51/51/51
f 52/52/52 53/53/53 54/54/54
f 55/55/55 56/56/56 57/57/57
f 58/58/58 59/59/59 60/60/60
f 61/61/61 62/62/62 63/63/63
f 64/64/64 65/65/65 66/66/66
f 67/67/67 68/68/68 69/69/69
f 70/70/70 71/71/71 72/72/72
f 73/73/73 74/74/74 75/75/75
f 76/76/76 77/77/77 78/78/78
f 79/79/79 80/80/80 81/81/81
f 82/82/82 83/83/83 84/84/84
f 85/85/85 86/86/86 87/87/87
f 88/88/88 89/89/89 90/90/90
f 91/91/91 92/92/92 93/93/93
f 94/94/94 95/95/95 96/96/96
f 97/97/97 98/98/98 99/99/99
f 100/100/100 101/101/101 102/102/102
f 103/103/103 104/104/104 105/105/105
f 106/106/106 107/107/107 108/108/108
f 109/109/109 110/110/110 111/111/111
f 112/112/112 113/113/113 114/114/114
f 115/115/115 116/116/116 117/117/117
f 118/118/118 119/119/119 120/120/120
f 121/121/121 122/122/122 123/123/123
f 124/124/124 125/125/125 126/126/126
f 127/127/127 128/128/128 129/129/129
f 130/130/130 131/131/131 132/132/132
f 133/133/133 134/134/134 135/135/135
f 136/136/136 137/137/137 138/138/138
f 139/139/139 140/140/140 141/141/141
f 142/142/142 143/143/143 144/144/144
f 145/145/145 146/146/146 147/147/147
f 148/148/148 149/149/149 150/150/150
f 151/151/151 152/152/152 153/153/153
f 154/154/154 155/155/155 156/156/156
f 157/157/157 158/158/158 159/159/159
f 160/160/160 161/161/161 162/162/162
f 163/163/163 164/164/164 165/165/165
f 166/166/166 167/167/167 168/168/168
f 169/169/169 170/170/170 171/171/171
f 172/172/172 173/173/173 174/174/174
f 175/175/175 176/176/176 177/177/177
f 178/178/178 179/179/179 180/180/180
f 181/181/181 182/182/182 183/183/183
f 184/184/184 185/185/185 186/186/186
f 187/187/187 188/188/188 189/189/189
f 190/190/190 191/191/191 192/192/192
f 193/193/193 194/194/194 195/195/195
