v 0.000000 -6.000000 0.000000 
v 0.000000 0.000000 6.000000 
v -1.000000 0.000000 0.000000 
v 0.000000 0.000000 6.000000 
v 0.000000 6.000000 0.000000 
v -1.000000 0.000000 0.000000 
v 0.000000 6.000000 0.000000 
v 0.000000 0.000000 -6.000000 
v -1.000000 0.000000 0.000000 
v 0.000000 0.000000 -6.000000 
v 0.000000 -6.000000 0.000000 
v -1.000000 0.000000 0.000000 
v 24.000000 -7.000000 -4.000000 
v 24.000000 0.000000 3.000000 
v 0.000000 -6.000000 0.000000 
v 24.000000 0.000000 3.000000 
v 0.000000 0.000000 6.000000 
v 0.000000 -6.000000 0.000000 
v 24.000000 0.000000 3.000000 
v 24.000000 7.000000 -4.000000 
v 0.000000 0.000000 6.000000 
v 24.000000 7.000000 -4.000000 
v 0.000000 6.000000 0.000000 
v 0.000000 0.000000 6.000000 
v 24.000000 7.000000 -4.000000 
v 24.000000 0.000000 -11.000000 
v 0.000000 6.000000 0.000000 
v 24.000000 0.000000 -11.000000 
v 0.000000 0.000000 -6.000000 
v 0.000000 6.000000 0.000000 
v 24.000000 0.000000 -11.000000 
v 24.000000 -7.000000 -4.000000 
v 0.000000 0.000000 -6.000000 
v 24.000000 -7.000000 -4.000000 
v 0.000000 -6.000000 0.000000 
v 0.000000 0.000000 -6.000000 
v 24.000000 0.000000 3.000000 
v 24.000000 -7.000000 -4.000000 
v 22.000000 0.000000 -4.000000 
v 24.000000 7.000000 -4.000000 
v 24.000000 0.000000 3.000000 
v 22.000000 0.000000 -4.000000 
v 24.000000 0.000000 -11.000000 
v 24.000000 7.000000 -4.000000 
v 22.000000 0.000000 -4.000000 
v 24.000000 -7.000000 -4.000000 
v 24.000000 0.000000 -11.000000 
v 22.000000 0.000000 -4.000000 
vn -0.965576 -0.259766 0.000000 
vn -0.965576 -0.000244 0.259521 
vn -0.999756 -0.000244 0.000000 
vn -0.965576 -0.000244 0.259521 
vn -0.965576 0.259033 0.000000 
vn -0.999756 -0.000244 0.000000 
vn -0.965576 0.259033 0.000000 
vn -0.965576 -0.000244 -0.259521 
vn -0.999756 -0.000244 0.000000 
vn -0.965576 -0.000244 -0.259521 
vn -0.965576 -0.259766 0.000000 
vn -0.999756 -0.000244 0.000000 
vn -0.082031 -0.946045 -0.313232 
vn 0.129150 -0.312500 0.940918 
vn 0.029785 -0.947510 0.317871 
vn 0.129150 -0.312500 0.940918 
vn 0.117676 0.314941 0.941650 
vn 0.029785 -0.947510 0.317871 
vn 0.129150 -0.312500 0.940918 
vn -0.004639 0.947021 0.320312 
vn 0.117676 0.314941 0.941650 
vn -0.004639 0.947021 0.320312 
vn -0.116455 0.943604 -0.309570 
vn 0.117676 0.314941 0.941650 
vn -0.004639 0.947021 0.320312 
vn -0.213623 0.307373 -0.927246 
vn -0.116455 0.943604 -0.309570 
vn -0.213623 0.307373 -0.927246 
vn -0.202393 -0.311035 -0.928467 
vn -0.116455 0.943604 -0.309570 
vn -0.213623 0.307373 -0.927246 
vn -0.082031 -0.946045 -0.313232 
vn -0.202393 -0.311035 -0.928467 
vn -0.082031 -0.946045 -0.313232 
vn 0.029785 -0.947510 0.317871 
vn -0.202393 -0.311035 -0.928467 
vn 0.976807 0.000244 -0.212891 
vn 0.976807 0.213379 0.000000 
vn 0.999756 0.000244 0.000000 
vn 0.977051 -0.212646 0.000000 
vn 0.976807 0.000244 -0.212891 
vn 0.999756 0.000244 0.000000 
vn 0.976807 0.000244 0.212891 
vn 0.977051 -0.212646 0.000000 
vn 0.999756 0.000244 0.000000 
vn 0.976807 0.213379 0.000000 
vn 0.976807 0.000244 0.212891 
vn 0.999756 0.000244 0.000000 
vt 0.047619 0.809524 
vt 0.047619 0.190476 
vt 0.936508 0.809524 
vt 0.047619 0.809524 
vt 0.047619 0.190476 
vt 0.936508 0.809524 
vt 0.047619 0.809524 
vt 0.047619 0.190476 
vt 0.936508 0.809524 
vt 0.047619 0.809524 
vt 0.047619 0.190476 
vt 0.936508 0.809524 
vt 0.000000 0.015873 
vt 0.000000 0.984127 
vt 0.936508 0.015873 
vt 0.000000 0.984127 
vt 0.936508 0.984127 
vt 0.936508 0.015873 
vt 0.000000 0.984127 
vt 0.000000 0.000000 
vt 0.936508 0.984127 
vt 0.000000 0.000000 
vt 0.936508 0.000000 
vt 0.936508 0.984127 
vt 0.000000 0.000000 
vt 0.000000 0.984127 
vt 0.936508 0.000000 
vt 0.000000 0.984127 
vt 0.936508 0.984127 
vt 0.936508 0.000000 
vt 0.000000 0.984127 
vt 0.000000 0.015873 
vt 0.936508 0.984127 
vt 0.000000 0.015873 
vt 0.936508 0.015873 
vt 0.936508 0.984127 
vt 0.000000 0.968254 
vt 0.126984 0.968254 
vt 0.063492 0.904762 
vt 0.000000 0.841270 
vt 0.000000 0.968254 
vt 0.063492 0.904762 
vt 0.126984 0.841270 
vt 0.000000 0.841270 
vt 0.063492 0.904762 
vt 0.126984 0.968254 
vt 0.126984 0.841270 
vt 0.063492 0.904762 
f 1/1/1 2/2/2 3/3/3
f 4/4/4 5/5/5 6/6/6
f 7/7/7 8/8/8 9/9/9
f 10/10/10 11/11/11 12/12/12
f 13/13/13 14/14/14 15/15/15
f 16/16/16 17/17/17 18/18/18
f 19/19/19 20/20/20 21/21/21
f 22/22/22 23/23/23 24/24/24
f 25/25/25 26/26/26 27/27/27
f 28/28/28 29/29/29 30/30/30
f 31/31/31 32/32/32 33/33/33
f 34/34/34 35/35/35 36/36/36
f 37/37/37 38/38/38 39/39/39
f 40/40/40 41/41/41 42/42/42
f 43/43/43 44/44/44 45/45/45
f 46/46/46 47/47/47 48/48/48
