v 0.000000 -66.000000 -29.000000 
v 0.000000 -45.000000 -45.000000 
v 32.000000 -42.000000 -45.000000 
v 29.000000 -65.000000 -26.000000 
v 0.000000 -66.000000 -29.000000 
v 32.000000 -42.000000 -45.000000 
v 0.000000 -66.000000 28.000000 
v 0.000000 -66.000000 -29.000000 
v 29.000000 -65.000000 -26.000000 
v 27.000000 -65.000000 24.000000 
v 0.000000 -66.000000 28.000000 
v 29.000000 -65.000000 -26.000000 
v -3.000000 -45.000000 52.000000 
v 0.000000 -66.000000 28.000000 
v 27.000000 -65.000000 24.000000 
v 25.000000 -42.000000 48.000000 
v -3.000000 -45.000000 52.000000 
v 27.000000 -65.000000 24.000000 
v 27.000000 65.000000 24.000000 
v 0.000000 65.000000 28.000000 
v 25.000000 42.000000 48.000000 
v 0.000000 65.000000 -29.000000 
v 0.000000 65.000000 28.000000 
v 27.000000 65.000000 24.000000 
v 29.000000 65.000000 -26.000000 
v 0.000000 65.000000 -29.000000 
v 27.000000 65.000000 24.000000 
v 0.000000 45.000000 -45.000000 
v 0.000000 65.000000 -29.000000 
v 29.000000 65.000000 -26.000000 
v 32.000000 42.000000 -45.000000 
v 0.000000 45.000000 -45.000000 
v 29.000000 65.000000 -26.000000 
v 0.000000 0.000000 -58.000000 
v 0.000000 45.000000 -45.000000 
v 32.000000 42.000000 -45.000000 
v 0.000000 0.000000 -58.000000 
v -33.000000 0.000000 -63.000000 
v 0.000000 45.000000 -45.000000 
vn 0.003662 -0.897217 -0.441406 
vn 0.007568 -0.476562 -0.878906 
vn 0.092773 -0.449707 -0.888184 
vn 0.120361 -0.906738 -0.403809 
vn 0.003662 -0.897217 -0.441406 
vn 0.092773 -0.449707 -0.888184 
vn -0.003662 -0.938721 0.343994 
vn 0.003662 -0.897217 -0.441406 
vn 0.120361 -0.906738 -0.403809 
vn 0.146973 -0.906738 0.394775 
vn -0.003662 -0.938721 0.343994 
vn 0.120361 -0.906738 -0.403809 
vn 0.011719 -0.535156 0.844482 
vn -0.003662 -0.938721 0.343994 
vn 0.146973 -0.906738 0.394775 
vn 0.172363 -0.489990 0.854248 
vn 0.011719 -0.535156 0.844482 
vn 0.146973 -0.906738 0.394775 
vn 0.132568 0.906982 0.399414 
vn 0.028320 0.931396 0.362549 
vn 0.171875 0.502930 0.846924 
vn 0.008057 0.916504 -0.399658 
vn 0.028320 0.931396 0.362549 
vn 0.132568 0.906982 0.399414 
vn 0.127441 0.898926 -0.418701 
vn 0.008057 0.916504 -0.399658 
vn 0.132568 0.906982 0.399414 
vn 0.053223 0.453613 -0.889404 
vn 0.008057 0.916504 -0.399658 
vn 0.127441 0.898926 -0.418701 
vn 0.105225 0.469238 -0.876709 
vn 0.053223 0.453613 -0.889404 
vn 0.127441 0.898926 -0.418701 
vn 0.055176 -0.006592 -0.998291 
vn 0.053223 0.453613 -0.889404 
vn 0.105225 0.469238 -0.876709 
vn 0.055176 -0.006592 -0.998291 
vn 0.087891 -0.000732 -0.996094 
vn 0.053223 0.453613 -0.889404 
vt 0.503937 0.401575 
vt 0.582677 0.401575 
vt 0.590551 0.598425 
vt 0.503937 0.598425 
vt 0.503937 0.401575 
vt 0.590551 0.598425 
vt 0.039370 0.417323 
vt 0.000000 0.417323 
vt 0.000000 0.606299 
vt 0.047244 0.629921 
vt 0.039370 0.417323 
vt 0.000000 0.606299 
vt 0.125984 0.393701 
vt 0.039370 0.417323 
vt 0.047244 0.629921 
vt 0.141732 0.566929 
vt 0.125984 0.393701 
vt 0.047244 0.629921 
vt 0.456693 0.582677 
vt 0.456693 0.409449 
vt 0.354331 0.566929 
vt 0.488189 0.409449 
vt 0.456693 0.409449 
vt 0.456693 0.582677 
vt 0.480315 0.598425 
vt 0.488189 0.409449 
vt 0.456693 0.582677 
vt 0.905512 0.401575 
vt 0.984252 0.401575 
vt 0.984252 0.590551 
vt 0.889764 0.598425 
vt 0.905512 0.401575 
vt 0.984252 0.590551 
vt 0.740157 0.401575 
vt 0.905512 0.401575 
vt 0.889764 0.598425 
vt 0.740157 0.401575 
vt 0.740157 0.196850 
vt 0.905512 0.401575 
f 1/1/1 2/2/2 3/3/3
f 4/4/4 5/5/5 6/6/6
f 7/7/7 8/8/8 9/9/9
f 10/10/10 11/11/11 12/12/12
f 13/13/13 14/14/14 15/15/15
f 16/16/16 17/17/17 18/18/18
f 19/19/19 20/20/20 21/21/21
f 22/22/22 23/23/23 24/24/24
f 25/25/25 26/26/26 27/27/27
f 28/28/28 29/29/29 30/30/30
f 31/31/31 32/32/32 33/33/33
f 34/34/34 35/35/35 36/36/36
f 37/37/37 38/38/38 39/39/39
