v 21.000000 18.000000 149.000000 
v 21.000000 18.000000 -149.000000 
v -21.000000 18.000000 -149.000000 
v -21.000000 18.000000 -149.000000 
v -21.000000 18.000000 149.000000 
v 21.000000 18.000000 149.000000 
v 21.000000 18.000000 149.000000 
v 21.000000 0.000000 149.000000 
v 21.000000 0.000000 -149.000000 
v 21.000000 0.000000 -149.000000 
v 21.000000 18.000000 -149.000000 
v 21.000000 18.000000 149.000000 
v 22.000000 56.000000 -150.000000 
v 22.000000 56.000000 -175.000000 
v -248.000000 56.000000 -175.000000 
v -248.000000 56.000000 -175.000000 
v -248.000000 56.000000 -150.000000 
v 22.000000 56.000000 -150.000000 
v 22.000000 56.000000 -150.000000 
v 22.000000 0.000000 -150.000000 
v 22.000000 0.000000 -175.000000 
v 22.000000 0.000000 -175.000000 
v 22.000000 56.000000 -175.000000 
v 22.000000 56.000000 -150.000000 
v -248.000000 56.000000 -150.000000 
v -248.000000 0.000000 -150.000000 
v 22.000000 0.000000 -150.000000 
v 22.000000 0.000000 -150.000000 
v 22.000000 56.000000 -150.000000 
v -248.000000 56.000000 -150.000000 
v -200.000000 18.000000 149.000000 
v -200.000000 18.000000 -149.000000 
v -244.000000 18.000000 -149.000000 
v -244.000000 18.000000 -149.000000 
v -244.000000 18.000000 149.000000 
v -200.000000 18.000000 149.000000 
v -200.000000 18.000000 149.000000 
v -200.000000 0.000000 149.000000 
v -200.000000 0.000000 -149.000000 
v -200.000000 0.000000 -149.000000 
v -200.000000 18.000000 -149.000000 
v -200.000000 18.000000 149.000000 
vn 0.000000 1.000000 0.000000 
vn 0.000000 1.000000 0.000000 
vn 0.000000 1.000000 0.000000 
vn 0.000000 1.000000 0.000000 
vn 0.000000 1.000000 0.000000 
vn 0.000000 1.000000 0.000000 
vn 1.000000 0.000000 0.000000 
vn 1.000000 0.000000 0.000000 
vn 1.000000 0.000000 0.000000 
vn 1.000000 0.000000 0.000000 
vn 1.000000 0.000000 0.000000 
vn 1.000000 0.000000 0.000000 
vn 0.000000 1.000000 0.000000 
vn 0.000000 1.000000 0.000000 
vn 0.000000 1.000000 0.000000 
vn 0.000000 1.000000 0.000000 
vn 0.000000 1.000000 0.000000 
vn 0.000000 1.000000 0.000000 
vn 1.000000 0.000000 0.000000 
vn 1.000000 0.000000 0.000000 
vn 1.000000 0.000000 0.000000 
vn 1.000000 0.000000 0.000000 
vn 1.000000 0.000000 0.000000 
vn 1.000000 0.000000 0.000000 
vn 0.000000 0.000000 1.000000 
vn 0.000000 0.000000 1.000000 
vn 0.000000 0.000000 1.000000 
vn 0.000000 0.000000 1.000000 
vn 0.000000 0.000000 1.000000 
vn 0.000000 0.000000 1.000000 
vn 0.000000 1.000000 0.000000 
vn 0.000000 1.000000 0.000000 
vn 0.000000 1.000000 0.000000 
vn 0.000000 1.000000 0.000000 
vn 0.000000 1.000000 0.000000 
vn 0.000000 1.000000 0.000000 
vn 1.000000 0.000000 0.000000 
vn 1.000000 0.000000 0.000000 
vn 1.000000 0.000000 0.000000 
vn 1.000000 0.000000 0.000000 
vn 1.000000 0.000000 0.000000 
vn 1.000000 0.000000 0.000000 
vt 0.622047 0.841270 
vt 0.748031 0.841270 
vt 0.748031 0.095238 
vt 0.748031 0.095238 
vt 0.622047 0.095238 
vt 0.622047 0.841270 
vt 0.622047 0.841270 
vt 0.748031 0.841270 
vt 0.748031 0.095238 
vt 0.748031 0.095238 
vt 0.622047 0.095238 
vt 0.622047 0.841270 
vt 0.157480 0.746032 
vt 0.157480 0.809524 
vt 0.834646 0.809524 
vt 0.834646 0.809524 
vt 0.834646 0.746032 
vt 0.157480 0.746032 
vt 0.582677 0.015873 
vt 0.582677 0.015873 
vt 0.582677 -0.063492 
vt 0.582677 -0.063492 
vt 0.582677 -0.063492 
vt 0.582677 0.015873 
vt 0.834646 0.746032 
vt 0.834646 0.126984 
vt 0.157480 0.126984 
vt 0.157480 0.126984 
vt 0.157480 0.746032 
vt 0.834646 0.746032 
vt 0.622047 0.841270 
vt 0.748031 0.841270 
vt 0.748031 0.095238 
vt 0.748031 0.095238 
vt 0.622047 0.095238 
vt 0.622047 0.841270 
vt 0.622047 0.841270 
vt 0.748031 0.841270 
vt 0.748031 0.095238 
vt 0.748031 0.095238 
vt 0.622047 0.095238 
vt 0.622047 0.841270 
f 1/1/1 2/2/2 3/3/3
f 4/4/4 5/5/5 6/6/6
f 7/7/7 8/8/8 9/9/9
f 10/10/10 11/11/11 12/12/12
f 13/13/13 14/14/14 15/15/15
f 16/16/16 17/17/17 18/18/18
f 19/19/19 20/20/20 21/21/21
f 22/22/22 23/23/23 24/24/24
f 25/25/25 26/26/26 27/27/27
f 28/28/28 29/29/29 30/30/30
f 31/31/31 32/32/32 33/33/33
f 34/34/34 35/35/35 36/36/36
f 37/37/37 38/38/38 39/39/39
f 40/40/40 41/41/41 42/42/42
