v 0.000000 22.000000 0.000000 
v 0.000000 28.000000 11.000000 
v -11.000000 28.000000 0.000000 
v 0.000000 22.000000 0.000000 
v 11.000000 28.000000 0.000000 
v 0.000000 28.000000 11.000000 
v 0.000000 22.000000 0.000000 
v 0.000000 27.000000 -12.000000 
v 11.000000 28.000000 0.000000 
v 0.000000 22.000000 0.000000 
v -11.000000 28.000000 0.000000 
v 0.000000 27.000000 -12.000000 
v -11.000000 28.000000 0.000000 
v 1.000000 55.000000 10.000000 
v -9.000000 55.000000 0.000000 
v -11.000000 28.000000 0.000000 
v 0.000000 28.000000 11.000000 
v 1.000000 55.000000 10.000000 
v 0.000000 28.000000 11.000000 
v 12.000000 54.000000 0.000000 
v 1.000000 55.000000 10.000000 
v 0.000000 28.000000 11.000000 
v 11.000000 28.000000 0.000000 
v 12.000000 54.000000 0.000000 
v 11.000000 28.000000 0.000000 
v 1.000000 54.000000 -11.000000 
v 12.000000 54.000000 0.000000 
v 11.000000 28.000000 0.000000 
v 0.000000 27.000000 -12.000000 
v 1.000000 54.000000 -11.000000 
v 0.000000 27.000000 -12.000000 
v -9.000000 55.000000 0.000000 
v 1.000000 54.000000 -11.000000 
v 0.000000 27.000000 -12.000000 
v -11.000000 28.000000 0.000000 
v -9.000000 55.000000 0.000000 
vn -0.021729 -0.999023 0.038086 
vn -0.023682 -0.875244 0.482666 
vn -0.467041 -0.883545 0.029541 
vn -0.021729 -0.999023 0.038086 
vn 0.427246 -0.903076 0.038574 
vn -0.023682 -0.875244 0.482666 
vn -0.021729 -0.999023 0.038086 
vn -0.015137 -0.911377 -0.411133 
vn 0.427246 -0.903076 0.038574 
vn -0.021729 -0.999023 0.038086 
vn -0.467041 -0.883545 0.029541 
vn -0.015137 -0.911377 -0.411133 
vn -0.949219 0.077881 0.304688 
vn -0.324219 0.062012 0.943848 
vn -0.942627 0.065918 -0.326660 
vn -0.949219 0.077881 0.304688 
vn 0.307373 0.034180 0.950928 
vn -0.324219 0.062012 0.943848 
vn 0.307373 0.034180 0.950928 
vn 0.945312 -0.005615 0.325684 
vn -0.324219 0.062012 0.943848 
vn 0.307373 0.034180 0.950928 
vn 0.951660 -0.017822 -0.306396 
vn 0.945312 -0.005615 0.325684 
vn 0.951660 -0.017822 -0.306396 
vn 0.325928 -0.001709 -0.945068 
vn 0.945312 -0.005615 0.325684 
vn 0.951660 -0.017822 -0.306396 
vn -0.305176 0.025879 -0.951660 
vn 0.325928 -0.001709 -0.945068 
vn -0.305176 0.025879 -0.951660 
vn -0.942627 0.065918 -0.326660 
vn 0.325928 -0.001709 -0.945068 
vn -0.305176 0.025879 -0.951660 
vn -0.949219 0.077881 0.304688 
vn -0.942627 0.065918 -0.326660 
vt 0.161290 0.483871 
vt 0.354839 0.548387 
vt 0.419355 0.516129 
vt 0.161290 0.483871 
vt 0.064516 0.548387 
vt 0.000000 0.516129 
vt 0.161290 0.483871 
vt 0.161290 0.580645 
vt 0.064516 0.548387 
vt 0.161290 0.483871 
vt 0.354839 0.548387 
vt 0.161290 0.580645 
vt 0.483871 0.516129 
vt 0.741935 0.967742 
vt 0.483871 0.967742 
vt 0.483871 0.516129 
vt 0.741935 0.516129 
vt 0.741935 0.967742 
vt 0.483871 0.516129 
vt 0.741935 0.967742 
vt 0.483871 0.967742 
vt 0.483871 0.516129 
vt 0.741935 0.516129 
vt 0.741935 0.967742 
vt 0.000000 0.548387 
vt 0.193548 0.967742 
vt 0.000000 0.967742 
vt 0.000000 0.548387 
vt 0.193548 0.548387 
vt 0.193548 0.967742 
vt 0.193548 0.548387 
vt 0.419355 0.967742 
vt 0.193548 0.967742 
vt 0.193548 0.548387 
vt 0.419355 0.548387 
vt 0.419355 0.967742 
f 1/1/1 2/2/2 3/3/3
f 4/4/4 5/5/5 6/6/6
f 7/7/7 8/8/8 9/9/9
f 10/10/10 11/11/11 12/12/12
f 13/13/13 14/14/14 15/15/15
f 16/16/16 17/17/17 18/18/18
f 19/19/19 20/20/20 21/21/21
f 22/22/22 23/23/23 24/24/24
f 25/25/25 26/26/26 27/27/27
f 28/28/28 29/29/29 30/30/30
f 31/31/31 32/32/32 33/33/33
f 34/34/34 35/35/35 36/36/36
