v -9.000000 30.000000 -27.000000 
v -9.000000 0.000000 -33.000000 
v -9.000000 0.000000 0.000000 
v -9.000000 0.000000 -33.000000 
v -9.000000 -30.000000 -27.000000 
v -9.000000 0.000000 0.000000 
v -9.000000 -30.000000 -27.000000 
v -9.000000 -42.000000 0.000000 
v -9.000000 0.000000 0.000000 
v -9.000000 0.000000 0.000000 
v -9.000000 -42.000000 0.000000 
v -8.000000 -30.000000 26.000000 
v -8.000000 0.000000 38.000000 
v -9.000000 0.000000 0.000000 
v -8.000000 -30.000000 26.000000 
v -8.000000 30.000000 26.000000 
v -9.000000 0.000000 0.000000 
v -8.000000 0.000000 38.000000 
v -8.000000 30.000000 26.000000 
v -9.000000 42.000000 0.000000 
v -9.000000 0.000000 0.000000 
v -9.000000 42.000000 0.000000 
v -9.000000 30.000000 -27.000000 
v -9.000000 0.000000 0.000000 
vn -0.999756 0.001465 -0.007568 
vn -0.999756 0.001465 -0.007568 
vn -0.999756 0.001465 -0.007568 
vn -0.999756 -0.001465 -0.007568 
vn -0.999756 -0.001465 -0.007568 
vn -0.999756 -0.001465 -0.007568 
vn -0.999756 -0.006592 -0.001953 
vn -0.999756 -0.006592 -0.001953 
vn -0.999756 -0.006592 -0.001953 
vn -0.999756 -0.006592 0.003662 
vn -0.999756 -0.006592 0.003662 
vn -0.999756 -0.006592 0.003662 
vn -0.999756 -0.002686 0.007812 
vn -0.999756 -0.002686 0.007812 
vn -0.999756 -0.002686 0.007812 
vn -0.999756 0.002686 0.007812 
vn -0.999756 0.002686 0.007812 
vn -0.999756 0.002686 0.007812 
vn -0.999756 0.006592 0.003662 
vn -0.999756 0.006592 0.003662 
vn -0.999756 0.006592 0.003662 
vn -0.999756 0.006592 -0.001953 
vn -0.999756 0.006592 -0.001953 
vn -0.999756 0.006592 -0.001953 
vt 0.746032 0.523810 
vt 0.841270 0.730159 
vt 0.936508 0.523810 
vt 0.936508 0.523810 
vt 0.841270 0.730159 
vt 0.746032 0.523810 
vt 0.936508 0.523810 
vt 0.841270 0.730159 
vt 0.746032 0.523810 
vt 0.746032 0.523810 
vt 0.841270 0.730159 
vt 0.936508 0.523810 
vt 0.936508 0.523810 
vt 0.841270 0.730159 
vt 0.746032 0.523810 
vt 0.746032 0.523810 
vt 0.841270 0.730159 
vt 0.936508 0.523810 
vt 0.746032 0.523810 
vt 0.841270 0.730159 
vt 0.936508 0.523810 
vt 0.746032 0.523810 
vt 0.841270 0.730159 
vt 0.936508 0.523810 
f 1/1/1 2/2/2 3/3/3
f 4/4/4 5/5/5 6/6/6
f 7/7/7 8/8/8 9/9/9
f 10/10/10 11/11/11 12/12/12
f 13/13/13 14/14/14 15/15/15
f 16/16/16 17/17/17 18/18/18
f 19/19/19 20/20/20 21/21/21
f 22/22/22 23/23/23 24/24/24
