v 11.000000 4.000000 28.000000 
v 3.000000 5.000000 28.000000 
v 5.000000 -1.000000 31.000000 
v 3.000000 5.000000 28.000000 
v -1.000000 -1.000000 28.000000 
v 5.000000 -1.000000 31.000000 
v 11.000000 -7.000000 28.000000 
v 11.000000 4.000000 28.000000 
v 5.000000 -1.000000 31.000000 
v 3.000000 -7.000000 28.000000 
v 11.000000 -7.000000 28.000000 
v 5.000000 -1.000000 31.000000 
v -1.000000 -1.000000 28.000000 
v 3.000000 -7.000000 28.000000 
v 5.000000 -1.000000 31.000000 
v 0.000000 7.000000 3.000000 
v 2.000000 8.000000 21.000000 
v 11.000000 3.000000 -8.000000 
v 2.000000 8.000000 21.000000 
v 0.000000 7.000000 3.000000 
v -3.000000 -1.000000 21.000000 
v 11.000000 7.000000 21.000000 
v 11.000000 3.000000 -8.000000 
v 2.000000 8.000000 21.000000 
v 11.000000 3.000000 -8.000000 
v 11.000000 7.000000 21.000000 
v 11.000000 -5.000000 -8.000000 
v 11.000000 -10.000000 21.000000 
v 11.000000 -5.000000 -8.000000 
v 11.000000 7.000000 21.000000 
v 11.000000 -5.000000 -8.000000 
v 11.000000 -10.000000 21.000000 
v 0.000000 -10.000000 3.000000 
v 2.000000 -10.000000 21.000000 
v 0.000000 -10.000000 3.000000 
v 11.000000 -10.000000 21.000000 
v 2.000000 8.000000 21.000000 
v 3.000000 5.000000 28.000000 
v 11.000000 7.000000 21.000000 
v -3.000000 -1.000000 21.000000 
v -1.000000 -1.000000 28.000000 
v 2.000000 8.000000 21.000000 
v 3.000000 5.000000 28.000000 
v 2.000000 8.000000 21.000000 
v -1.000000 -1.000000 28.000000 
v 11.000000 4.000000 28.000000 
v 11.000000 7.000000 21.000000 
v 3.000000 5.000000 28.000000 
v 11.000000 7.000000 21.000000 
v 11.000000 4.000000 28.000000 
v 11.000000 -10.000000 21.000000 
v 11.000000 -7.000000 28.000000 
v 11.000000 -10.000000 21.000000 
v 11.000000 4.000000 28.000000 
v 11.000000 -10.000000 21.000000 
v 11.000000 -7.000000 28.000000 
v 2.000000 -10.000000 21.000000 
v 3.000000 -7.000000 28.000000 
v 2.000000 -10.000000 21.000000 
v 11.000000 -7.000000 28.000000 
v 2.000000 -10.000000 21.000000 
v 3.000000 -7.000000 28.000000 
v -3.000000 -1.000000 21.000000 
v -1.000000 -1.000000 28.000000 
v -3.000000 -1.000000 21.000000 
v 3.000000 -7.000000 28.000000 
vn 0.719238 0.646484 0.253906 
vn -0.234619 0.964111 0.122559 
vn -0.065674 0.564941 0.822266 
vn -0.234619 0.964111 0.122559 
vn -0.772217 0.447510 0.450439 
vn -0.065674 0.564941 0.822266 
vn 0.434570 -0.136963 0.889893 
vn 0.719238 0.646484 0.253906 
vn -0.065674 0.564941 0.822266 
vn -0.445557 -0.175537 0.877686 
vn 0.434570 -0.136963 0.889893 
vn -0.065674 0.564941 0.822266 
vn -0.772217 0.447510 0.450439 
vn -0.445557 -0.175537 0.877686 
vn -0.065674 0.564941 0.822266 
vn -0.352539 0.743408 -0.567871 
vn -0.400635 0.842285 -0.360352 
vn 0.462402 0.225342 -0.857422 
vn -0.400635 0.842285 -0.360352 
vn -0.352539 0.743408 -0.567871 
vn -0.964844 0.173584 0.196777 
vn 0.737305 0.625977 -0.252930 
vn 0.462402 0.225342 -0.857422 
vn -0.400635 0.842285 -0.360352 
vn 0.462402 0.225342 -0.857422 
vn 0.737305 0.625977 -0.252930 
vn 0.599854 -0.799805 0.009277 
vn 0.758545 -0.509277 0.405762 
vn 0.599854 -0.799805 0.009277 
vn 0.737305 0.625977 -0.252930 
vn 0.599854 -0.799805 0.009277 
vn 0.758545 -0.509277 0.405762 
vn -0.216553 -0.810791 0.543457 
vn -0.428223 -0.568604 0.702148 
vn -0.216553 -0.810791 0.543457 
vn 0.758545 -0.509277 0.405762 
vn -0.400635 0.842285 -0.360352 
vn -0.234619 0.964111 0.122559 
vn 0.737305 0.625977 -0.252930 
vn -0.964844 0.173584 0.196777 
vn -0.772217 0.447510 0.450439 
vn -0.400635 0.842285 -0.360352 
vn -0.234619 0.964111 0.122559 
vn -0.400635 0.842285 -0.360352 
vn -0.772217 0.447510 0.450439 
vn 0.719238 0.646484 0.253906 
vn 0.737305 0.625977 -0.252930 
vn -0.234619 0.964111 0.122559 
vn 0.737305 0.625977 -0.252930 
vn 0.719238 0.646484 0.253906 
vn 0.758545 -0.509277 0.405762 
vn 0.434570 -0.136963 0.889893 
vn 0.758545 -0.509277 0.405762 
vn 0.719238 0.646484 0.253906 
vn 0.758545 -0.509277 0.405762 
vn 0.434570 -0.136963 0.889893 
vn -0.428223 -0.568604 0.702148 
vn -0.445557 -0.175537 0.877686 
vn -0.428223 -0.568604 0.702148 
vn 0.434570 -0.136963 0.889893 
vn -0.428223 -0.568604 0.702148 
vn -0.445557 -0.175537 0.877686 
vn -0.964844 0.173584 0.196777 
vn -0.772217 0.447510 0.450439 
vn -0.964844 0.173584 0.196777 
vn -0.445557 -0.175537 0.877686 
vt 0.472441 0.125984 
vt 0.488189 0.377953 
vt 0.283465 0.299213 
vt 0.488189 0.377953 
vt 0.283465 0.535433 
vt 0.283465 0.299213 
vt 0.086614 0.125984 
vt 0.472441 0.125984 
vt 0.283465 0.299213 
vt 0.078740 0.377953 
vt 0.086614 0.125984 
vt 0.283465 0.299213 
vt 0.283465 0.535433 
vt 0.078740 0.377953 
vt 0.283465 0.299213 
vt 0.354331 0.212598 
vt 0.181102 0.196850 
vt 0.456693 0.141732 
vt 0.181102 0.196850 
vt 0.354331 0.212598 
vt 0.149606 0.259843 
vt 0.173228 0.125984 
vt 0.456693 0.141732 
vt 0.181102 0.196850 
vt 0.181102 0.244094 
vt 0.078740 0.141732 
vt 0.385827 0.244094 
vt 0.488189 0.141732 
vt 0.385827 0.244094 
vt 0.078740 0.141732 
vt 0.094488 0.141732 
vt 0.370079 0.118110 
vt 0.196850 0.212598 
vt 0.370079 0.196850 
vt 0.196850 0.212598 
vt 0.370079 0.118110 
vt 0.181102 0.196850 
vt 0.102362 0.188976 
vt 0.173228 0.125984 
vt 0.149606 0.259843 
vt 0.086614 0.236220 
vt 0.181102 0.196850 
vt 0.102362 0.188976 
vt 0.181102 0.196850 
vt 0.086614 0.236220 
vt 0.102362 0.125984 
vt 0.173228 0.125984 
vt 0.102362 0.188976 
vt 0.078740 0.141732 
vt 0.141732 0.125984 
vt 0.488189 0.141732 
vt 0.417323 0.125984 
vt 0.488189 0.141732 
vt 0.141732 0.125984 
vt 0.370079 0.118110 
vt 0.448819 0.125984 
vt 0.370079 0.196850 
vt 0.440945 0.188976 
vt 0.370079 0.196850 
vt 0.448819 0.125984 
vt 0.370079 0.196850 
vt 0.440945 0.188976 
vt 0.393701 0.259843 
vt 0.464567 0.236220 
vt 0.393701 0.259843 
vt 0.440945 0.188976 
f 1/1/1 2/2/2 3/3/3
f 4/4/4 5/5/5 6/6/6
f 7/7/7 8/8/8 9/9/9
f 10/10/10 11/11/11 12/12/12
f 13/13/13 14/14/14 15/15/15
f 16/16/16 17/17/17 18/18/18
f 19/19/19 20/20/20 21/21/21
f 22/22/22 23/23/23 24/24/24
f 25/25/25 26/26/26 27/27/27
f 28/28/28 29/29/29 30/30/30
f 31/31/31 32/32/32 33/33/33
f 34/34/34 35/35/35 36/36/36
f 37/37/37 38/38/38 39/39/39
f 40/40/40 41/41/41 42/42/42
f 43/43/43 44/44/44 45/45/45
f 46/46/46 47/47/47 48/48/48
f 49/49/49 50/50/50 51/51/51
f 52/52/52 53/53/53 54/54/54
f 55/55/55 56/56/56 57/57/57
f 58/58/58 59/59/59 60/60/60
f 61/61/61 62/62/62 63/63/63
f 64/64/64 65/65/65 66/66/66
