v 42.000000 78.000000 0.000000 
v -1.000000 76.000000 2.000000 
v 42.000000 78.000000 2.000000 
v -2.000000 -78.000000 2.000000 
v 41.000000 -76.000000 2.000000 
v 42.000000 78.000000 2.000000 
v -2.000000 -78.000000 2.000000 
v 42.000000 78.000000 2.000000 
v -1.000000 76.000000 2.000000 
v -2.000000 -78.000000 0.000000 
v 41.000000 -76.000000 2.000000 
v -2.000000 -78.000000 2.000000 
v 41.000000 -76.000000 2.000000 
v -2.000000 -78.000000 0.000000 
v 41.000000 -76.000000 0.000000 
v -1.000000 76.000000 2.000000 
v 42.000000 78.000000 0.000000 
v -1.000000 76.000000 0.000000 
v -2.000000 -78.000000 0.000000 
v 42.000000 78.000000 0.000000 
v 41.000000 -76.000000 0.000000 
v -2.000000 -78.000000 0.000000 
v -1.000000 76.000000 0.000000 
v 42.000000 78.000000 0.000000 
vn -0.037109 0.999268 0.001953 
vn -0.037109 0.999268 0.001953 
vn -0.037109 0.999268 0.001953 
vn -0.001221 -0.002686 0.999756 
vn -0.001465 -0.001953 0.999756 
vn -0.001465 -0.002197 0.999756 
vn -0.001221 -0.002686 0.999756 
vn -0.001465 -0.002197 0.999756 
vn -0.001221 -0.002686 0.999756 
vn 0.038086 -0.999268 -0.002197 
vn 0.038086 -0.999268 -0.002197 
vn 0.038086 -0.999268 -0.002197 
vn 0.038086 -0.999268 -0.001953 
vn 0.038086 -0.999268 -0.001953 
vn 0.038086 -0.999268 -0.001953 
vn -0.037109 0.999268 0.001953 
vn -0.037109 0.999268 0.001953 
vn -0.037109 0.999268 0.001953 
vn 0.001221 0.002686 -0.999756 
vn 0.001465 0.002197 -0.999756 
vn 0.001465 0.001953 -0.999756 
vn 0.001221 0.002686 -0.999756 
vn 0.001221 0.002686 -0.999756 
vn 0.001465 0.002197 -0.999756 
vt 0.165354 0.492063 
vt 0.165354 0.746032 
vt 0.165354 0.492063 
vt 0.354331 0.746032 
vt 0.354331 0.492063 
vt 0.165354 0.492063 
vt 0.354331 0.746032 
vt 0.165354 0.492063 
vt 0.165354 0.746032 
vt 0.354331 0.746032 
vt 0.354331 0.492063 
vt 0.354331 0.746032 
vt 0.354331 0.492063 
vt 0.354331 0.746032 
vt 0.354331 0.492063 
vt 0.165354 0.746032 
vt 0.165354 0.492063 
vt 0.165354 0.746032 
vt 0.354331 0.746032 
vt 0.165354 0.492063 
vt 0.354331 0.492063 
vt 0.354331 0.746032 
vt 0.165354 0.746032 
vt 0.165354 0.492063 
f 1/1/1 2/2/2 3/3/3
f 4/4/4 5/5/5 6/6/6
f 7/7/7 8/8/8 9/9/9
f 10/10/10 11/11/11 12/12/12
f 13/13/13 14/14/14 15/15/15
f 16/16/16 17/17/17 18/18/18
f 19/19/19 20/20/20 21/21/21
f 22/22/22 23/23/23 24/24/24
