v 2.000000 -87.000000 5.000000 
v 61.000000 -87.000000 7.000000 
v 61.000000 89.000000 7.000000 
v 61.000000 89.000000 7.000000 
v 2.000000 89.000000 5.000000 
v 2.000000 -87.000000 5.000000 
v 2.000000 89.000000 5.000000 
v 61.000000 89.000000 7.000000 
v 61.000000 89.000000 1.000000 
v 2.000000 -87.000000 0.000000 
v 61.000000 -87.000000 1.000000 
v 61.000000 -87.000000 7.000000 
v 61.000000 -87.000000 7.000000 
v 2.000000 -87.000000 5.000000 
v 2.000000 -87.000000 0.000000 
v 61.000000 89.000000 1.000000 
v 2.000000 89.000000 0.000000 
v 2.000000 89.000000 5.000000 
v 2.000000 -87.000000 0.000000 
v 61.000000 89.000000 1.000000 
v 61.000000 -87.000000 1.000000 
v 61.000000 89.000000 1.000000 
v 2.000000 -87.000000 0.000000 
v 2.000000 89.000000 0.000000 
vn -0.020996 0.000000 0.999756 
vn -0.020996 0.000000 0.999756 
vn -0.020996 0.000000 0.999756 
vn -0.020996 0.000000 0.999756 
vn -0.020996 0.000000 0.999756 
vn -0.020996 0.000000 0.999756 
vn 0.000000 1.000000 0.000000 
vn 0.000000 1.000000 0.000000 
vn 0.000000 1.000000 0.000000 
vn 0.000000 -1.000000 0.000000 
vn 0.000000 -1.000000 0.000000 
vn 0.000000 -1.000000 0.000000 
vn 0.000000 -1.000000 0.000000 
vn 0.000000 -1.000000 0.000000 
vn 0.000000 -1.000000 0.000000 
vn 0.000000 1.000000 0.000000 
vn 0.000000 1.000000 0.000000 
vn 0.000000 1.000000 0.000000 
vn 0.020020 0.000244 -0.999756 
vn 0.020020 0.000244 -0.999756 
vn 0.021240 0.000000 -0.999756 
vn 0.020020 0.000244 -0.999756 
vn 0.020020 0.000244 -0.999756 
vn 0.018799 0.000732 -0.999756 
vt 0.629921 0.222222 
vt 0.629921 0.000000 
vt 0.314961 0.000000 
vt 0.314961 0.000000 
vt 0.314961 0.222222 
vt 0.629921 0.222222 
vt 0.314961 0.222222 
vt 0.314961 0.000000 
vt 0.314961 0.000000 
vt 0.629921 0.222222 
vt 0.629921 0.000000 
vt 0.629921 0.000000 
vt 0.629921 0.000000 
vt 0.629921 0.222222 
vt 0.629921 0.222222 
vt 0.314961 0.000000 
vt 0.314961 0.222222 
vt 0.314961 0.222222 
vt 0.629921 0.222222 
vt 0.314961 0.000000 
vt 0.629921 0.000000 
vt 0.314961 0.000000 
vt 0.629921 0.222222 
vt 0.314961 0.222222 
f 1/1/1 2/2/2 3/3/3
f 4/4/4 5/5/5 6/6/6
f 7/7/7 8/8/8 9/9/9
f 10/10/10 11/11/11 12/12/12
f 13/13/13 14/14/14 15/15/15
f 16/16/16 17/17/17 18/18/18
f 19/19/19 20/20/20 21/21/21
f 22/22/22 23/23/23 24/24/24
