v -3.000000 10.000000 0.000000 
v -4.000000 9.000000 4.000000 
v -9.000000 -8.000000 4.000000 
v -9.000000 -8.000000 4.000000 
v -4.000000 -2.000000 -15.000000 
v -3.000000 10.000000 0.000000 
v -10.000000 13.000000 0.000000 
v -22.000000 4.000000 -13.000000 
v -26.000000 -1.000000 7.000000 
v -26.000000 -1.000000 7.000000 
v -11.000000 12.000000 4.000000 
v -10.000000 13.000000 0.000000 
v -22.000000 4.000000 -13.000000 
v -31.000000 -9.000000 -21.000000 
v -33.000000 -17.000000 2.000000 
v -33.000000 -17.000000 2.000000 
v -26.000000 -1.000000 7.000000 
v -22.000000 4.000000 -13.000000 
v -3.000000 10.000000 0.000000 
v -4.000000 -2.000000 -15.000000 
v -12.000000 1.000000 -19.000000 
v -12.000000 1.000000 -19.000000 
v -7.000000 12.000000 -1.000000 
v -3.000000 10.000000 0.000000 
v -4.000000 -25.000000 -27.000000 
v -11.000000 -25.000000 -24.000000 
v -17.000000 -25.000000 -30.000000 
v -17.000000 -25.000000 -30.000000 
v -9.000000 -24.000000 -32.000000 
v -4.000000 -25.000000 -27.000000 
v -7.000000 12.000000 -1.000000 
v -12.000000 1.000000 -19.000000 
v -22.000000 4.000000 -13.000000 
v -22.000000 4.000000 -13.000000 
v -10.000000 13.000000 0.000000 
v -7.000000 12.000000 -1.000000 
v -12.000000 1.000000 -19.000000 
v -21.000000 -10.000000 -22.000000 
v -31.000000 -9.000000 -21.000000 
v -31.000000 -9.000000 -21.000000 
v -22.000000 4.000000 -13.000000 
v -12.000000 1.000000 -19.000000 
v -28.000000 -39.000000 -28.000000 
v -32.000000 -46.000000 -3.000000 
v -35.000000 -42.000000 -4.000000 
v -35.000000 -42.000000 -4.000000 
v -34.000000 -36.000000 -27.000000 
v -28.000000 -39.000000 -28.000000 
v -9.000000 -8.000000 4.000000 
v -4.000000 9.000000 4.000000 
v -8.000000 10.000000 5.000000 
v -8.000000 10.000000 5.000000 
v -16.000000 -7.000000 12.000000 
v -9.000000 -8.000000 4.000000 
v -27.000000 -21.000000 8.000000 
v -16.000000 -7.000000 12.000000 
v -26.000000 -1.000000 7.000000 
v -26.000000 -1.000000 7.000000 
v -33.000000 -17.000000 2.000000 
v -27.000000 -21.000000 8.000000 
v -16.000000 -7.000000 12.000000 
v -8.000000 10.000000 5.000000 
v -11.000000 12.000000 4.000000 
v -11.000000 12.000000 4.000000 
v -26.000000 -1.000000 7.000000 
v -16.000000 -7.000000 12.000000 
v -33.000000 -17.000000 2.000000 
v -31.000000 -9.000000 -21.000000 
v -35.000000 -23.000000 -23.000000 
v -35.000000 -23.000000 -23.000000 
v -39.000000 -28.000000 -1.000000 
v -33.000000 -17.000000 2.000000 
v -31.000000 -9.000000 -21.000000 
v -21.000000 -10.000000 -22.000000 
v -28.000000 -24.000000 -27.000000 
v -28.000000 -24.000000 -27.000000 
v -35.000000 -23.000000 -23.000000 
v -31.000000 -9.000000 -21.000000 
v -21.000000 -10.000000 -22.000000 
v -27.000000 -21.000000 8.000000 
v -33.000000 -32.000000 3.000000 
v -33.000000 -32.000000 3.000000 
v -28.000000 -24.000000 -27.000000 
v -21.000000 -10.000000 -22.000000 
v -27.000000 -21.000000 8.000000 
v -33.000000 -17.000000 2.000000 
v -39.000000 -28.000000 -1.000000 
v -39.000000 -28.000000 -1.000000 
v -33.000000 -32.000000 3.000000 
v -27.000000 -21.000000 8.000000 
v -28.000000 -24.000000 -27.000000 
v -33.000000 -32.000000 3.000000 
v -32.000000 -46.000000 -3.000000 
v -32.000000 -46.000000 -3.000000 
v -28.000000 -39.000000 -28.000000 
v -28.000000 -24.000000 -27.000000 
v -33.000000 -32.000000 3.000000 
v -39.000000 -28.000000 -1.000000 
v -35.000000 -42.000000 -4.000000 
v -35.000000 -42.000000 -4.000000 
v -32.000000 -46.000000 -3.000000 
v -33.000000 -32.000000 3.000000 
v -39.000000 -28.000000 -1.000000 
v -35.000000 -23.000000 -23.000000 
v -34.000000 -36.000000 -27.000000 
v -34.000000 -36.000000 -27.000000 
v -35.000000 -42.000000 -4.000000 
v -39.000000 -28.000000 -1.000000 
v -35.000000 -23.000000 -23.000000 
v -28.000000 -24.000000 -27.000000 
v -28.000000 -39.000000 -28.000000 
v -28.000000 -39.000000 -28.000000 
v -34.000000 -36.000000 -27.000000 
v -35.000000 -23.000000 -23.000000 
v -4.000000 -2.000000 -15.000000 
v -13.000000 -11.000000 -17.000000 
v -10.000000 -20.000000 -22.000000 
v -10.000000 -20.000000 -22.000000 
v -5.000000 -13.000000 -25.000000 
v -4.000000 -2.000000 -15.000000 
v -12.000000 1.000000 -19.000000 
v -4.000000 -2.000000 -15.000000 
v -5.000000 -13.000000 -25.000000 
v -5.000000 -13.000000 -25.000000 
v -10.000000 -12.000000 -27.000000 
v -12.000000 1.000000 -19.000000 
v -13.000000 -11.000000 -17.000000 
v -21.000000 -10.000000 -22.000000 
v -17.000000 -16.000000 -25.000000 
v -17.000000 -16.000000 -25.000000 
v -10.000000 -20.000000 -22.000000 
v -13.000000 -11.000000 -17.000000 
v -21.000000 -10.000000 -22.000000 
v -12.000000 1.000000 -19.000000 
v -10.000000 -12.000000 -27.000000 
v -10.000000 -12.000000 -27.000000 
v -17.000000 -16.000000 -25.000000 
v -21.000000 -10.000000 -22.000000 
v -5.000000 -13.000000 -25.000000 
v -10.000000 -20.000000 -22.000000 
v -11.000000 -25.000000 -24.000000 
v -11.000000 -25.000000 -24.000000 
v -4.000000 -25.000000 -27.000000 
v -5.000000 -13.000000 -25.000000 
v -10.000000 -20.000000 -22.000000 
v -17.000000 -16.000000 -25.000000 
v -17.000000 -25.000000 -30.000000 
v -17.000000 -25.000000 -30.000000 
v -11.000000 -25.000000 -24.000000 
v -10.000000 -20.000000 -22.000000 
v -17.000000 -16.000000 -25.000000 
v -10.000000 -12.000000 -27.000000 
v -9.000000 -24.000000 -32.000000 
v -9.000000 -24.000000 -32.000000 
v -17.000000 -25.000000 -30.000000 
v -17.000000 -16.000000 -25.000000 
v -10.000000 -12.000000 -27.000000 
v -5.000000 -13.000000 -25.000000 
v -4.000000 -25.000000 -27.000000 
v -4.000000 -25.000000 -27.000000 
v -9.000000 -24.000000 -32.000000 
v -10.000000 -12.000000 -27.000000 
v -16.000000 -7.000000 12.000000 
v -27.000000 -21.000000 8.000000 
v -9.000000 -8.000000 4.000000 
v -4.000000 -2.000000 -15.000000 
v -9.000000 -8.000000 4.000000 
v -27.000000 -21.000000 8.000000 
v -4.000000 -2.000000 -15.000000 
v -27.000000 -21.000000 8.000000 
v -13.000000 -11.000000 -17.000000 
v -13.000000 -11.000000 -17.000000 
v -27.000000 -21.000000 8.000000 
v -21.000000 -10.000000 -22.000000 
vn 0.940918 0.224121 -0.253418 
vn 0.761230 -0.188232 0.620361 
vn 0.791504 -0.393799 0.466797 
vn 0.791504 -0.393799 0.466797 
vn 0.949951 -0.307129 0.054932 
vn 0.940918 0.224121 -0.253418 
vn -0.486816 0.861084 -0.145996 
vn -0.549316 0.766846 -0.331299 
vn -0.690186 0.476807 0.543945 
vn -0.690186 0.476807 0.543945 
vn -0.378906 0.581055 0.719971 
vn -0.486816 0.861084 -0.145996 
vn -0.549316 0.766846 -0.331299 
vn -0.561035 0.472656 -0.679199 
vn -0.902588 0.323975 0.282715 
vn -0.902588 0.323975 0.282715 
vn -0.690186 0.476807 0.543945 
vn -0.549316 0.766846 -0.331299 
vn 0.940918 0.224121 -0.253418 
vn 0.949951 -0.307129 0.054932 
vn 0.175293 0.613770 -0.769531 
vn 0.175293 0.613770 -0.769531 
vn 0.199951 0.794678 -0.572754 
vn 0.940918 0.224121 -0.253418 
vn 0.613037 -0.680420 -0.401367 
vn 0.195068 -0.609863 0.767822 
vn -0.538818 -0.832031 0.130615 
vn -0.538818 -0.832031 0.130615 
vn 0.018799 0.043213 -0.998779 
vn 0.613037 -0.680420 -0.401367 
vn 0.199951 0.794678 -0.572754 
vn 0.175293 0.613770 -0.769531 
vn -0.549316 0.766846 -0.331299 
vn -0.549316 0.766846 -0.331299 
vn -0.486816 0.861084 -0.145996 
vn 0.199951 0.794678 -0.572754 
vn 0.175293 0.613770 -0.769531 
vn 0.115723 -0.337891 -0.933838 
vn -0.561035 0.472656 -0.679199 
vn -0.561035 0.472656 -0.679199 
vn -0.549316 0.766846 -0.331299 
vn 0.175293 0.613770 -0.769531 
vn -0.246826 -0.496826 -0.831787 
vn 0.536377 -0.688721 0.487305 
vn -0.775635 -0.607910 0.167969 
vn -0.775635 -0.607910 0.167969 
vn -0.814941 -0.301270 -0.494873 
vn -0.246826 -0.496826 -0.831787 
vn 0.791504 -0.393799 0.466797 
vn 0.761230 -0.188232 0.620361 
vn 0.314453 0.097900 0.944092 
vn 0.314453 0.097900 0.944092 
vn 0.132568 0.044189 0.989990 
vn 0.791504 -0.393799 0.466797 
vn 0.070801 -0.702393 0.708008 
vn 0.132568 0.044189 0.989990 
vn -0.690186 0.476807 0.543945 
vn -0.690186 0.476807 0.543945 
vn -0.902588 0.323975 0.282715 
vn 0.070801 -0.702393 0.708008 
vn 0.132568 0.044189 0.989990 
vn 0.314453 0.097900 0.944092 
vn -0.378906 0.581055 0.719971 
vn -0.378906 0.581055 0.719971 
vn -0.690186 0.476807 0.543945 
vn 0.132568 0.044189 0.989990 
vn -0.902588 0.323975 0.282715 
vn -0.561035 0.472656 -0.679199 
vn -0.794678 0.253418 -0.551270 
vn -0.794678 0.253418 -0.551270 
vn -0.936523 -0.007324 0.350342 
vn -0.902588 0.323975 0.282715 
vn -0.561035 0.472656 -0.679199 
vn 0.115723 -0.337891 -0.933838 
vn 0.607666 0.099854 -0.787598 
vn 0.607666 0.099854 -0.787598 
vn -0.794678 0.253418 -0.551270 
vn -0.561035 0.472656 -0.679199 
vn 0.115723 -0.337891 -0.933838 
vn 0.070801 -0.702393 0.708008 
vn 0.286621 -0.548828 0.784912 
vn 0.286621 -0.548828 0.784912 
vn 0.607666 0.099854 -0.787598 
vn 0.115723 -0.337891 -0.933838 
vn 0.070801 -0.702393 0.708008 
vn -0.902588 0.323975 0.282715 
vn -0.936523 -0.007324 0.350342 
vn -0.936523 -0.007324 0.350342 
vn 0.286621 -0.548828 0.784912 
vn 0.070801 -0.702393 0.708008 
vn 0.607666 0.099854 -0.787598 
vn 0.286621 -0.548828 0.784912 
vn 0.536377 -0.688721 0.487305 
vn 0.536377 -0.688721 0.487305 
vn -0.246826 -0.496826 -0.831787 
vn 0.607666 0.099854 -0.787598 
vn 0.286621 -0.548828 0.784912 
vn -0.936523 -0.007324 0.350342 
vn -0.775635 -0.607910 0.167969 
vn -0.775635 -0.607910 0.167969 
vn 0.536377 -0.688721 0.487305 
vn 0.286621 -0.548828 0.784912 
vn -0.936523 -0.007324 0.350342 
vn -0.794678 0.253418 -0.551270 
vn -0.814941 -0.301270 -0.494873 
vn -0.814941 -0.301270 -0.494873 
vn -0.775635 -0.607910 0.167969 
vn -0.936523 -0.007324 0.350342 
vn -0.794678 0.253418 -0.551270 
vn 0.607666 0.099854 -0.787598 
vn -0.246826 -0.496826 -0.831787 
vn -0.246826 -0.496826 -0.831787 
vn -0.814941 -0.301270 -0.494873 
vn -0.794678 0.253418 -0.551270 
vn 0.949951 -0.307129 0.054932 
vn -0.050293 -0.867188 0.495361 
vn 0.020508 -0.520752 0.853271 
vn 0.020508 -0.520752 0.853271 
vn 0.975586 0.105469 -0.191650 
vn 0.949951 -0.307129 0.054932 
vn 0.175293 0.613770 -0.769531 
vn 0.949951 -0.307129 0.054932 
vn 0.975586 0.105469 -0.191650 
vn 0.975586 0.105469 -0.191650 
vn 0.025146 0.352783 -0.935059 
vn 0.175293 0.613770 -0.769531 
vn -0.050293 -0.867188 0.495361 
vn 0.115723 -0.337891 -0.933838 
vn -0.955078 -0.205322 -0.212891 
vn -0.955078 -0.205322 -0.212891 
vn 0.020508 -0.520752 0.853271 
vn -0.050293 -0.867188 0.495361 
vn 0.115723 -0.337891 -0.933838 
vn 0.175293 0.613770 -0.769531 
vn 0.025146 0.352783 -0.935059 
vn 0.025146 0.352783 -0.935059 
vn -0.955078 -0.205322 -0.212891 
vn 0.115723 -0.337891 -0.933838 
vn 0.975586 0.105469 -0.191650 
vn 0.020508 -0.520752 0.853271 
vn 0.195068 -0.609863 0.767822 
vn 0.195068 -0.609863 0.767822 
vn 0.613037 -0.680420 -0.401367 
vn 0.975586 0.105469 -0.191650 
vn 0.020508 -0.520752 0.853271 
vn -0.955078 -0.205322 -0.212891 
vn -0.538818 -0.832031 0.130615 
vn -0.538818 -0.832031 0.130615 
vn 0.195068 -0.609863 0.767822 
vn 0.020508 -0.520752 0.853271 
vn -0.955078 -0.205322 -0.212891 
vn 0.025146 0.352783 -0.935059 
vn 0.018799 0.043213 -0.998779 
vn 0.018799 0.043213 -0.998779 
vn -0.538818 -0.832031 0.130615 
vn -0.955078 -0.205322 -0.212891 
vn 0.025146 0.352783 -0.935059 
vn 0.975586 0.105469 -0.191650 
vn 0.613037 -0.680420 -0.401367 
vn 0.613037 -0.680420 -0.401367 
vn 0.018799 0.043213 -0.998779 
vn 0.025146 0.352783 -0.935059 
vn 0.132568 0.044189 0.989990 
vn 0.070801 -0.702393 0.708008 
vn 0.791504 -0.393799 0.466797 
vn 0.949951 -0.307129 0.054932 
vn 0.791504 -0.393799 0.466797 
vn 0.070801 -0.702393 0.708008 
vn 0.949951 -0.307129 0.054932 
vn 0.070801 -0.702393 0.708008 
vn -0.050293 -0.867188 0.495361 
vn -0.050293 -0.867188 0.495361 
vn 0.070801 -0.702393 0.708008 
vn 0.115723 -0.337891 -0.933838 
vt 0.290323 0.967742 
vt 0.935484 0.935484 
vt 0.903226 0.677419 
vt 0.903226 0.677419 
vt 0.161290 0.677419 
vt 0.290323 0.967742 
vt 0.290323 0.967742 
vt 0.354839 0.709677 
vt 0.903226 0.677419 
vt 0.903226 0.677419 
vt 0.935484 0.935484 
vt 0.290323 0.967742 
vt 0.354839 0.709677 
vt 0.354839 0.645161 
vt 0.967742 0.645161 
vt 0.967742 0.645161 
vt 0.903226 0.677419 
vt 0.354839 0.709677 
vt 0.290323 0.967742 
vt 0.161290 0.677419 
vt 0.064516 0.677419 
vt 0.064516 0.677419 
vt 0.225806 0.967742 
vt 0.290323 0.967742 
vt 0.064516 0.258065 
vt 0.129032 0.225806 
vt 0.064516 0.193548 
vt 0.064516 0.193548 
vt 0.000000 0.258065 
vt 0.064516 0.258065 
vt 0.225806 0.967742 
vt 0.064516 0.677419 
vt 0.354839 0.709677 
vt 0.354839 0.709677 
vt 0.290323 0.967742 
vt 0.225806 0.967742 
vt 0.064516 0.677419 
vt 0.258065 0.548387 
vt 0.354839 0.645161 
vt 0.354839 0.645161 
vt 0.354839 0.709677 
vt 0.064516 0.677419 
vt 0.193548 0.000000 
vt 1.000000 -0.032258 
vt 0.967742 0.032258 
vt 0.967742 0.032258 
vt 0.322581 0.000000 
vt 0.193548 0.000000 
vt 0.903226 0.677419 
vt 0.935484 0.935484 
vt 0.967742 0.935484 
vt 0.967742 0.935484 
vt 0.967742 0.709677 
vt 0.903226 0.677419 
vt 0.967742 0.580645 
vt 0.967742 0.709677 
vt 0.903226 0.677419 
vt 0.903226 0.677419 
vt 0.967742 0.645161 
vt 0.967742 0.580645 
vt 0.967742 0.709677 
vt 0.967742 0.935484 
vt 0.935484 0.935484 
vt 0.935484 0.935484 
vt 0.903226 0.677419 
vt 0.967742 0.709677 
vt 0.967742 0.645161 
vt 0.354839 0.645161 
vt 0.354839 0.290323 
vt 0.354839 0.290323 
vt 0.967742 0.322581 
vt 0.967742 0.645161 
vt 0.354839 0.645161 
vt 0.258065 0.548387 
vt 0.193548 0.225806 
vt 0.193548 0.225806 
vt 0.354839 0.290323 
vt 0.354839 0.645161 
vt 0.258065 0.548387 
vt 0.967742 0.580645 
vt 1.000000 0.193548 
vt 1.000000 0.193548 
vt 0.193548 0.225806 
vt 0.258065 0.548387 
vt 0.967742 0.580645 
vt 0.967742 0.645161 
vt 0.967742 0.322581 
vt 0.967742 0.322581 
vt 1.000000 0.193548 
vt 0.967742 0.580645 
vt 0.193548 0.225806 
vt 1.000000 0.193548 
vt 1.000000 -0.032258 
vt 1.000000 -0.032258 
vt 0.193548 0.000000 
vt 0.193548 0.225806 
vt 1.000000 0.193548 
vt 0.967742 0.322581 
vt 0.967742 0.032258 
vt 0.967742 0.032258 
vt 1.000000 -0.032258 
vt 1.000000 0.193548 
vt 0.967742 0.322581 
vt 0.354839 0.290323 
vt 0.322581 0.000000 
vt 0.322581 0.000000 
vt 0.967742 0.032258 
vt 0.967742 0.322581 
vt 0.354839 0.290323 
vt 0.193548 0.225806 
vt 0.193548 0.000000 
vt 0.193548 0.000000 
vt 0.322581 0.000000 
vt 0.354839 0.290323 
vt 0.161290 0.677419 
vt 0.258065 0.612903 
vt 0.193548 0.354839 
vt 0.193548 0.354839 
vt 0.032258 0.483871 
vt 0.161290 0.677419 
vt 0.064516 0.677419 
vt 0.161290 0.677419 
vt 0.032258 0.483871 
vt 0.032258 0.483871 
vt 0.032258 0.451613 
vt 0.064516 0.677419 
vt 0.258065 0.612903 
vt 0.258065 0.548387 
vt 0.129032 0.354839 
vt 0.129032 0.354839 
vt 0.193548 0.354839 
vt 0.258065 0.612903 
vt 0.258065 0.548387 
vt 0.064516 0.677419 
vt 0.032258 0.451613 
vt 0.032258 0.451613 
vt 0.129032 0.354839 
vt 0.258065 0.548387 
vt 0.032258 0.483871 
vt 0.193548 0.354839 
vt 0.129032 0.225806 
vt 0.129032 0.225806 
vt 0.064516 0.258065 
vt 0.032258 0.483871 
vt 0.193548 0.354839 
vt 0.129032 0.354839 
vt 0.064516 0.193548 
vt 0.064516 0.193548 
vt 0.129032 0.225806 
vt 0.193548 0.354839 
vt 0.129032 0.354839 
vt 0.032258 0.451613 
vt 0.000000 0.258065 
vt 0.000000 0.258065 
vt 0.064516 0.193548 
vt 0.129032 0.354839 
vt 0.032258 0.451613 
vt 0.032258 0.483871 
vt 0.064516 0.258065 
vt 0.064516 0.258065 
vt 0.000000 0.258065 
vt 0.032258 0.451613 
vt 0.967742 0.709677 
vt 0.967742 0.580645 
vt 0.903226 0.677419 
vt 0.161290 0.677419 
vt 0.903226 0.677419 
vt 0.967742 0.580645 
vt 0.161290 0.677419 
vt 0.967742 0.580645 
vt 0.258065 0.612903 
vt 0.258065 0.612903 
vt 0.967742 0.580645 
vt 0.258065 0.548387 
f 1/1/1 2/2/2 3/3/3
f 4/4/4 5/5/5 6/6/6
f 7/7/7 8/8/8 9/9/9
f 10/10/10 11/11/11 12/12/12
f 13/13/13 14/14/14 15/15/15
f 16/16/16 17/17/17 18/18/18
f 19/19/19 20/20/20 21/21/21
f 22/22/22 23/23/23 24/24/24
f 25/25/25 26/26/26 27/27/27
f 28/28/28 29/29/29 30/30/30
f 31/31/31 32/32/32 33/33/33
f 34/34/34 35/35/35 36/36/36
f 37/37/37 38/38/38 39/39/39
f 40/40/40 41/41/41 42/42/42
f 43/43/43 44/44/44 45/45/45
f 46/46/46 47/47/47 48/48/48
f 49/49/49 50/50/50 51/51/51
f 52/52/52 53/53/53 54/54/54
f 55/55/55 56/56/56 57/57/57
f 58/58/58 59/59/59 60/60/60
f 61/61/61 62/62/62 63/63/63
f 64/64/64 65/65/65 66/66/66
f 67/67/67 68/68/68 69/69/69
f 70/70/70 71/71/71 72/72/72
f 73/73/73 74/74/74 75/75/75
f 76/76/76 77/77/77 78/78/78
f 79/79/79 80/80/80 81/81/81
f 82/82/82 83/83/83 84/84/84
f 85/85/85 86/86/86 87/87/87
f 88/88/88 89/89/89 90/90/90
f 91/91/91 92/92/92 93/93/93
f 94/94/94 95/95/95 96/96/96
f 97/97/97 98/98/98 99/99/99
f 100/100/100 101/101/101 102/102/102
f 103/103/103 104/104/104 105/105/105
f 106/106/106 107/107/107 108/108/108
f 109/109/109 110/110/110 111/111/111
f 112/112/112 113/113/113 114/114/114
f 115/115/115 116/116/116 117/117/117
f 118/118/118 119/119/119 120/120/120
f 121/121/121 122/122/122 123/123/123
f 124/124/124 125/125/125 126/126/126
f 127/127/127 128/128/128 129/129/129
f 130/130/130 131/131/131 132/132/132
f 133/133/133 134/134/134 135/135/135
f 136/136/136 137/137/137 138/138/138
f 139/139/139 140/140/140 141/141/141
f 142/142/142 143/143/143 144/144/144
f 145/145/145 146/146/146 147/147/147
f 148/148/148 149/149/149 150/150/150
f 151/151/151 152/152/152 153/153/153
f 154/154/154 155/155/155 156/156/156
f 157/157/157 158/158/158 159/159/159
f 160/160/160 161/161/161 162/162/162
f 163/163/163 164/164/164 165/165/165
f 166/166/166 167/167/167 168/168/168
f 169/169/169 170/170/170 171/171/171
f 172/172/172 173/173/173 174/174/174
