v 0.000000 76.000000 1.000000 
v 0.000000 76.000000 3.000000 
v -3.000000 -78.000000 3.000000 
v -3.000000 -78.000000 3.000000 
v -3.000000 -78.000000 1.000000 
v 0.000000 76.000000 1.000000 
vn 0.999268 -0.024170 -0.025635 
vn 0.999268 -0.024170 -0.025635 
vn 0.999268 -0.024170 -0.025635 
vn 0.999268 -0.024170 -0.025635 
vn 0.999268 -0.024170 -0.025635 
vn 0.999268 -0.024170 -0.025635 
vt 0.685039 1.000000 
vt 0.685039 1.000000 
vt 0.858268 1.000000 
vt 0.858268 1.000000 
vt 0.858268 1.000000 
vt 0.685039 1.000000 
f 1/1/1 2/2/2 3/3/3
f 4/4/4 5/5/5 6/6/6
