v -4.000000 4.000000 3.000000 
v 0.000000 4.000000 6.000000 
v 0.000000 7.000000 0.000000 
v -4.000000 4.000000 -3.000000 
v -4.000000 4.000000 3.000000 
v 0.000000 7.000000 0.000000 
v 0.000000 4.000000 -6.000000 
v -4.000000 4.000000 -3.000000 
v 0.000000 7.000000 0.000000 
v 7.000000 6.000000 -3.000000 
v 0.000000 4.000000 -6.000000 
v 0.000000 7.000000 0.000000 
v 7.000000 6.000000 3.000000 
v 7.000000 6.000000 -3.000000 
v 0.000000 7.000000 0.000000 
v 0.000000 4.000000 6.000000 
v 7.000000 6.000000 3.000000 
v 0.000000 7.000000 0.000000 
v -4.000000 -4.000000 3.000000 
v 0.000000 -4.000000 6.000000 
v 0.000000 4.000000 6.000000 
v -4.000000 4.000000 3.000000 
v -4.000000 -4.000000 3.000000 
v 0.000000 4.000000 6.000000 
v 0.000000 -4.000000 -6.000000 
v -4.000000 -4.000000 -3.000000 
v -4.000000 4.000000 -3.000000 
v 0.000000 4.000000 -6.000000 
v 0.000000 -4.000000 -6.000000 
v -4.000000 4.000000 -3.000000 
v 7.000000 -6.000000 -3.000000 
v 0.000000 -4.000000 -6.000000 
v 0.000000 4.000000 -6.000000 
v 7.000000 6.000000 -3.000000 
v 7.000000 -6.000000 -3.000000 
v 0.000000 4.000000 -6.000000 
v 7.000000 -6.000000 3.000000 
v 7.000000 -6.000000 -3.000000 
v 7.000000 6.000000 -3.000000 
v 7.000000 6.000000 3.000000 
v 7.000000 -6.000000 3.000000 
v 7.000000 6.000000 -3.000000 
v 0.000000 -4.000000 6.000000 
v 7.000000 -6.000000 3.000000 
v 7.000000 6.000000 3.000000 
v 0.000000 4.000000 6.000000 
v 0.000000 -4.000000 6.000000 
v 7.000000 6.000000 3.000000 
v 0.000000 -4.000000 6.000000 
v -4.000000 -4.000000 3.000000 
v 0.000000 -7.000000 0.000000 
v -4.000000 -4.000000 3.000000 
v -4.000000 -4.000000 -3.000000 
v 0.000000 -7.000000 0.000000 
v -4.000000 -4.000000 -3.000000 
v 0.000000 -4.000000 -6.000000 
v 0.000000 -7.000000 0.000000 
v 0.000000 -4.000000 -6.000000 
v 7.000000 -6.000000 -3.000000 
v 0.000000 -7.000000 0.000000 
v 7.000000 -6.000000 -3.000000 
v 7.000000 -6.000000 3.000000 
v 0.000000 -7.000000 0.000000 
v 7.000000 -6.000000 3.000000 
v 0.000000 -4.000000 6.000000 
v 0.000000 -7.000000 0.000000 
v 1.000000 -10.000000 -2.000000 
v 0.000000 -5.000000 -4.000000 
v 0.000000 -2.000000 3.000000 
v -2.000000 -15.000000 0.000000 
v 1.000000 -10.000000 -2.000000 
v 0.000000 -2.000000 3.000000 
v -1.000000 -11.000000 -18.000000 
v -4.000000 -11.000000 -22.000000 
v 0.000000 -5.000000 -4.000000 
v 1.000000 -14.000000 -15.000000 
v -1.000000 -11.000000 -18.000000 
v 0.000000 -5.000000 -4.000000 
v 1.000000 -10.000000 -2.000000 
v 1.000000 -14.000000 -15.000000 
v 0.000000 -5.000000 -4.000000 
v -1.000000 -20.000000 -17.000000 
v 1.000000 -14.000000 -15.000000 
v 1.000000 -10.000000 -2.000000 
v -2.000000 -15.000000 0.000000 
v -1.000000 -20.000000 -17.000000 
v 1.000000 -10.000000 -2.000000 
v -4.000000 -23.000000 -18.000000 
v -1.000000 -20.000000 -17.000000 
v -2.000000 -15.000000 0.000000 
v -4.000000 -11.000000 -22.000000 
v -1.000000 -11.000000 -18.000000 
v -3.000000 -18.000000 -30.000000 
v -1.000000 -11.000000 -18.000000 
v 1.000000 -14.000000 -15.000000 
v -3.000000 -18.000000 -30.000000 
v 1.000000 -14.000000 -15.000000 
v -1.000000 -20.000000 -17.000000 
v -3.000000 -18.000000 -30.000000 
v -1.000000 -20.000000 -17.000000 
v -4.000000 -23.000000 -18.000000 
v -3.000000 -18.000000 -30.000000 
v 0.000000 5.000000 -4.000000 
v 1.000000 10.000000 -2.000000 
v 0.000000 2.000000 3.000000 
v 1.000000 10.000000 -2.000000 
v -2.000000 15.000000 0.000000 
v 0.000000 2.000000 3.000000 
v -4.000000 11.000000 -22.000000 
v -1.000000 11.000000 -18.000000 
v 0.000000 5.000000 -4.000000 
v -1.000000 11.000000 -18.000000 
v 1.000000 14.000000 -15.000000 
v 0.000000 5.000000 -4.000000 
v 1.000000 14.000000 -15.000000 
v 1.000000 10.000000 -2.000000 
v 0.000000 5.000000 -4.000000 
v 1.000000 14.000000 -15.000000 
v -1.000000 20.000000 -17.000000 
v 1.000000 10.000000 -2.000000 
v -1.000000 20.000000 -17.000000 
v -2.000000 15.000000 0.000000 
v 1.000000 10.000000 -2.000000 
v -1.000000 20.000000 -17.000000 
v -4.000000 23.000000 -18.000000 
v -2.000000 15.000000 0.000000 
v -1.000000 11.000000 -18.000000 
v -4.000000 11.000000 -22.000000 
v -3.000000 18.000000 -30.000000 
v 1.000000 14.000000 -15.000000 
v -1.000000 11.000000 -18.000000 
v -3.000000 18.000000 -30.000000 
v -1.000000 20.000000 -17.000000 
v 1.000000 14.000000 -15.000000 
v -3.000000 18.000000 -30.000000 
v -4.000000 23.000000 -18.000000 
v -1.000000 20.000000 -17.000000 
v -3.000000 18.000000 -30.000000 
vn -0.364014 0.813965 0.452393 
vn -0.217773 0.518555 0.826660 
vn -0.082031 0.996582 0.000000 
vn -0.445557 0.632080 -0.633545 
vn -0.364014 0.813965 0.452393 
vn -0.082031 0.996582 0.000000 
vn 0.002686 0.521729 -0.852783 
vn -0.445557 0.632080 -0.633545 
vn -0.082031 0.996582 0.000000 
vn 0.717285 0.600830 -0.352295 
vn 0.002686 0.521729 -0.852783 
vn -0.082031 0.996582 0.000000 
vn 0.504395 0.591064 0.629150 
vn 0.717285 0.600830 -0.352295 
vn -0.082031 0.996582 0.000000 
vn -0.217773 0.518555 0.826660 
vn 0.504395 0.591064 0.629150 
vn -0.082031 0.996582 0.000000 
vn -0.445557 -0.632080 0.633545 
vn 0.002686 -0.521729 0.852783 
vn -0.217773 0.518555 0.826660 
vn -0.364014 0.813965 0.452393 
vn -0.445557 -0.632080 0.633545 
vn -0.217773 0.518555 0.826660 
vn -0.217773 -0.518555 -0.826660 
vn -0.364014 -0.813965 -0.452393 
vn -0.445557 0.632080 -0.633545 
vn 0.002686 0.521729 -0.852783 
vn -0.217773 -0.518555 -0.826660 
vn -0.445557 0.632080 -0.633545 
vn 0.504395 -0.591064 -0.629150 
vn -0.217773 -0.518555 -0.826660 
vn 0.002686 0.521729 -0.852783 
vn 0.717285 0.600830 -0.352295 
vn 0.504395 -0.591064 -0.629150 
vn 0.002686 0.521729 -0.852783 
vn 0.717285 -0.600830 0.352295 
vn 0.504395 -0.591064 -0.629150 
vn 0.717285 0.600830 -0.352295 
vn 0.504395 0.591064 0.629150 
vn 0.717285 -0.600830 0.352295 
vn 0.717285 0.600830 -0.352295 
vn 0.002686 -0.521729 0.852783 
vn 0.717285 -0.600830 0.352295 
vn 0.504395 0.591064 0.629150 
vn -0.217773 0.518555 0.826660 
vn 0.002686 -0.521729 0.852783 
vn 0.504395 0.591064 0.629150 
vn 0.002686 -0.521729 0.852783 
vn -0.445557 -0.632080 0.633545 
vn -0.082031 -0.996582 0.000000 
vn -0.445557 -0.632080 0.633545 
vn -0.364014 -0.813965 -0.452393 
vn -0.082031 -0.996582 0.000000 
vn -0.364014 -0.813965 -0.452393 
vn -0.217773 -0.518555 -0.826660 
vn -0.082031 -0.996582 0.000000 
vn -0.217773 -0.518555 -0.826660 
vn 0.504395 -0.591064 -0.629150 
vn -0.082031 -0.996582 0.000000 
vn 0.504395 -0.591064 -0.629150 
vn 0.717285 -0.600830 0.352295 
vn -0.082031 -0.996582 0.000000 
vn 0.717285 -0.600830 0.352295 
vn 0.002686 -0.521729 0.852783 
vn -0.082031 -0.996582 0.000000 
vn 0.942871 -0.288818 0.164307 
vn 0.669922 0.712402 -0.208740 
vn 0.967773 -0.055176 0.245117 
vn 0.478271 -0.808838 0.341309 
vn 0.942871 -0.288818 0.164307 
vn 0.967773 -0.055176 0.245117 
vn 0.559326 0.753906 -0.344238 
vn 0.399902 0.848145 -0.346924 
vn 0.669922 0.712402 -0.208740 
vn 0.963379 0.135498 -0.230713 
vn 0.559326 0.753906 -0.344238 
vn 0.669922 0.712402 -0.208740 
vn 0.942871 -0.288818 0.164307 
vn 0.963379 0.135498 -0.230713 
vn 0.669922 0.712402 -0.208740 
vn 0.556641 -0.830078 0.028320 
vn 0.963379 0.135498 -0.230713 
vn 0.942871 -0.288818 0.164307 
vn 0.478271 -0.808838 0.341309 
vn 0.556641 -0.830078 0.028320 
vn 0.942871 -0.288818 0.164307 
vn 0.356689 -0.933838 0.015137 
vn 0.556641 -0.830078 0.028320 
vn 0.478271 -0.808838 0.341309 
vn 0.399902 0.848145 -0.346924 
vn 0.559326 0.753906 -0.344238 
vn 0.878662 -0.080322 -0.470215 
vn 0.559326 0.753906 -0.344238 
vn 0.963379 0.135498 -0.230713 
vn 0.878662 -0.080322 -0.470215 
vn 0.963379 0.135498 -0.230713 
vn 0.556641 -0.830078 0.028320 
vn 0.878662 -0.080322 -0.470215 
vn 0.556641 -0.830078 0.028320 
vn 0.356689 -0.933838 0.015137 
vn 0.878662 -0.080322 -0.470215 
vn 0.669922 -0.712402 -0.208740 
vn 0.942871 0.288818 0.164307 
vn 0.967773 0.055176 0.245117 
vn 0.942871 0.288818 0.164307 
vn 0.478271 0.808838 0.341309 
vn 0.967773 0.055176 0.245117 
vn 0.399902 -0.848145 -0.346924 
vn 0.559326 -0.753906 -0.344238 
vn 0.669922 -0.712402 -0.208740 
vn 0.559326 -0.753906 -0.344238 
vn 0.963379 -0.135498 -0.230713 
vn 0.669922 -0.712402 -0.208740 
vn 0.963379 -0.135498 -0.230713 
vn 0.942871 0.288818 0.164307 
vn 0.669922 -0.712402 -0.208740 
vn 0.963379 -0.135498 -0.230713 
vn 0.556641 0.830078 0.028320 
vn 0.942871 0.288818 0.164307 
vn 0.556641 0.830078 0.028320 
vn 0.478271 0.808838 0.341309 
vn 0.942871 0.288818 0.164307 
vn 0.556641 0.830078 0.028320 
vn 0.356689 0.933838 0.015137 
vn 0.478271 0.808838 0.341309 
vn 0.559326 -0.753906 -0.344238 
vn 0.399902 -0.848145 -0.346924 
vn 0.878662 0.080322 -0.470215 
vn 0.963379 -0.135498 -0.230713 
vn 0.559326 -0.753906 -0.344238 
vn 0.878662 0.080322 -0.470215 
vn 0.556641 0.830078 0.028320 
vn 0.963379 -0.135498 -0.230713 
vn 0.878662 0.080322 -0.470215 
vn 0.356689 0.933838 0.015137 
vn 0.556641 0.830078 0.028320 
vn 0.878662 0.080322 -0.470215 
vt 0.111111 0.746032 
vt 0.492063 1.000000 
vt 0.492063 0.492063 
vt 0.111111 0.238095 
vt 0.111111 0.746032 
vt 0.492063 0.492063 
vt 0.492063 -0.015873 
vt 0.111111 0.238095 
vt 0.492063 0.492063 
vt 0.984127 0.285714 
vt 0.492063 -0.015873 
vt 0.492063 0.492063 
vt 0.984127 0.793651 
vt 0.984127 0.285714 
vt 0.492063 0.492063 
vt 0.492063 1.000000 
vt 0.984127 0.793651 
vt 0.492063 0.492063 
vt 0.111111 0.746032 
vt 0.492063 1.000000 
vt 0.492063 1.000000 
vt 0.111111 0.746032 
vt 0.111111 0.746032 
vt 0.492063 1.000000 
vt 0.492063 -0.015873 
vt 0.111111 0.238095 
vt 0.111111 0.238095 
vt 0.492063 -0.015873 
vt 0.492063 -0.015873 
vt 0.111111 0.238095 
vt 0.984127 0.285714 
vt 0.492063 -0.015873 
vt 0.492063 -0.015873 
vt 0.984127 0.285714 
vt 0.984127 0.285714 
vt 0.492063 -0.015873 
vt 0.984127 0.793651 
vt 0.984127 0.285714 
vt 0.984127 0.285714 
vt 0.984127 0.793651 
vt 0.984127 0.793651 
vt 0.984127 0.285714 
vt 0.492063 1.000000 
vt 0.984127 0.793651 
vt 0.984127 0.793651 
vt 0.492063 1.000000 
vt 0.492063 1.000000 
vt 0.984127 0.793651 
vt 0.492063 1.000000 
vt 0.111111 0.746032 
vt 0.492063 0.492063 
vt 0.111111 0.746032 
vt 0.111111 0.238095 
vt 0.492063 0.492063 
vt 0.111111 0.238095 
vt 0.492063 -0.015873 
vt 0.492063 0.492063 
vt 0.492063 -0.015873 
vt 0.984127 0.285714 
vt 0.492063 0.492063 
vt 0.984127 0.285714 
vt 0.984127 0.793651 
vt 0.492063 0.492063 
vt 0.984127 0.793651 
vt 0.492063 1.000000 
vt 0.492063 0.492063 
vt 0.365079 0.000000 
vt 0.206349 0.333333 
vt 0.000000 0.174603 
vt 0.523810 0.746032 
vt 0.365079 0.000000 
vt 0.000000 0.174603 
vt 0.571429 0.476190 
vt 0.555556 0.936508 
vt 0.206349 0.333333 
vt 0.650794 0.000000 
vt 0.571429 0.476190 
vt 0.206349 0.333333 
vt 0.365079 0.000000 
vt 0.650794 0.000000 
vt 0.206349 0.333333 
vt 0.904762 0.476190 
vt 0.650794 0.000000 
vt 0.365079 0.000000 
vt 0.523810 0.746032 
vt 0.904762 0.476190 
vt 0.365079 0.000000 
vt 0.968254 0.952381 
vt 0.904762 0.476190 
vt 0.523810 0.746032 
vt 0.555556 0.936508 
vt 0.571429 0.476190 
vt 0.936508 0.873016 
vt 0.571429 0.476190 
vt 0.650794 0.000000 
vt 0.936508 0.873016 
vt 0.650794 0.000000 
vt 0.904762 0.476190 
vt 0.936508 0.873016 
vt 0.904762 0.476190 
vt 0.968254 0.952381 
vt 0.936508 0.873016 
vt 0.206349 0.333333 
vt 0.365079 0.000000 
vt 0.000000 0.174603 
vt 0.365079 0.000000 
vt 0.523810 0.746032 
vt 0.000000 0.174603 
vt 0.555556 0.936508 
vt 0.571429 0.476190 
vt 0.206349 0.333333 
vt 0.571429 0.476190 
vt 0.650794 0.000000 
vt 0.206349 0.333333 
vt 0.650794 0.000000 
vt 0.365079 0.000000 
vt 0.206349 0.333333 
vt 0.650794 0.000000 
vt 0.904762 0.476190 
vt 0.365079 0.000000 
vt 0.904762 0.476190 
vt 0.523810 0.746032 
vt 0.365079 0.000000 
vt 0.904762 0.476190 
vt 0.968254 0.952381 
vt 0.523810 0.746032 
vt 0.571429 0.476190 
vt 0.555556 0.936508 
vt 0.936508 0.873016 
vt 0.650794 0.000000 
vt 0.571429 0.476190 
vt 0.936508 0.873016 
vt 0.904762 0.476190 
vt 0.650794 0.000000 
vt 0.936508 0.873016 
vt 0.968254 0.952381 
vt 0.904762 0.476190 
vt 0.936508 0.873016 
f 1/1/1 2/2/2 3/3/3
f 4/4/4 5/5/5 6/6/6
f 7/7/7 8/8/8 9/9/9
f 10/10/10 11/11/11 12/12/12
f 13/13/13 14/14/14 15/15/15
f 16/16/16 17/17/17 18/18/18
f 19/19/19 20/20/20 21/21/21
f 22/22/22 23/23/23 24/24/24
f 25/25/25 26/26/26 27/27/27
f 28/28/28 29/29/29 30/30/30
f 31/31/31 32/32/32 33/33/33
f 34/34/34 35/35/35 36/36/36
f 37/37/37 38/38/38 39/39/39
f 40/40/40 41/41/41 42/42/42
f 43/43/43 44/44/44 45/45/45
f 46/46/46 47/47/47 48/48/48
f 49/49/49 50/50/50 51/51/51
f 52/52/52 53/53/53 54/54/54
f 55/55/55 56/56/56 57/57/57
f 58/58/58 59/59/59 60/60/60
f 61/61/61 62/62/62 63/63/63
f 64/64/64 65/65/65 66/66/66
f 67/67/67 68/68/68 69/69/69
f 70/70/70 71/71/71 72/72/72
f 73/73/73 74/74/74 75/75/75
f 76/76/76 77/77/77 78/78/78
f 79/79/79 80/80/80 81/81/81
f 82/82/82 83/83/83 84/84/84
f 85/85/85 86/86/86 87/87/87
f 88/88/88 89/89/89 90/90/90
f 91/91/91 92/92/92 93/93/93
f 94/94/94 95/95/95 96/96/96
f 97/97/97 98/98/98 99/99/99
f 100/100/100 101/101/101 102/102/102
f 103/103/103 104/104/104 105/105/105
f 106/106/106 107/107/107 108/108/108
f 109/109/109 110/110/110 111/111/111
f 112/112/112 113/113/113 114/114/114
f 115/115/115 116/116/116 117/117/117
f 118/118/118 119/119/119 120/120/120
f 121/121/121 122/122/122 123/123/123
f 124/124/124 125/125/125 126/126/126
f 127/127/127 128/128/128 129/129/129
f 130/130/130 131/131/131 132/132/132
f 133/133/133 134/134/134 135/135/135
f 136/136/136 137/137/137 138/138/138
