v 7.000000 47.000000 0.000000 
v -7.000000 47.000000 0.000000 
v -6.000000 47.000000 23.000000 
v -6.000000 47.000000 23.000000 
v 6.000000 47.000000 23.000000 
v 7.000000 47.000000 0.000000 
v 7.000000 20.000000 0.000000 
v -7.000000 20.000000 0.000000 
v -7.000000 47.000000 0.000000 
v -7.000000 47.000000 0.000000 
v 7.000000 47.000000 0.000000 
v 7.000000 20.000000 0.000000 
v 6.000000 9.000000 23.000000 
v 7.000000 20.000000 0.000000 
v 7.000000 47.000000 0.000000 
v 7.000000 47.000000 0.000000 
v 6.000000 47.000000 23.000000 
v 6.000000 9.000000 23.000000 
v -7.000000 20.000000 0.000000 
v -6.000000 9.000000 23.000000 
v -6.000000 47.000000 23.000000 
v -6.000000 47.000000 23.000000 
v -7.000000 47.000000 0.000000 
v -7.000000 20.000000 0.000000 
v -6.000000 9.000000 23.000000 
v 6.000000 9.000000 23.000000 
v 6.000000 47.000000 23.000000 
v 6.000000 47.000000 23.000000 
v -6.000000 47.000000 23.000000 
v -6.000000 9.000000 23.000000 
vn 0.668701 0.677490 -0.305908 
vn -0.409180 0.430176 -0.804443 
vn -0.661377 0.661133 0.353760 
vn -0.661377 0.661133 0.353760 
vn 0.402100 0.401611 0.822510 
vn 0.668701 0.677490 -0.305908 
vn 0.454346 0.022705 -0.890381 
vn -0.906494 0.010986 -0.421631 
vn -0.409180 0.430176 -0.804443 
vn -0.409180 0.430176 -0.804443 
vn 0.668701 0.677490 -0.305908 
vn 0.454346 0.022705 -0.890381 
vn 0.878662 -0.000732 0.477051 
vn 0.454346 0.022705 -0.890381 
vn 0.668701 0.677490 -0.305908 
vn 0.668701 0.677490 -0.305908 
vn 0.402100 0.401611 0.822510 
vn 0.878662 -0.000732 0.477051 
vn -0.906494 0.010986 -0.421631 
vn -0.440918 -0.000732 0.897461 
vn -0.661377 0.661133 0.353760 
vn -0.661377 0.661133 0.353760 
vn -0.409180 0.430176 -0.804443 
vn -0.906494 0.010986 -0.421631 
vn -0.440918 -0.000732 0.897461 
vn 0.878662 -0.000732 0.477051 
vn 0.402100 0.401611 0.822510 
vn 0.402100 0.401611 0.822510 
vn -0.661377 0.661133 0.353760 
vn -0.440918 -0.000732 0.897461 
vt 0.709677 0.451613 
vt 0.870968 0.451613 
vt 0.870968 0.225806 
vt 0.870968 0.225806 
vt 0.709677 0.225806 
vt 0.709677 0.451613 
vt 0.677419 0.258065 
vt 0.741935 0.258065 
vt 0.741935 0.096774 
vt 0.741935 0.096774 
vt 0.677419 0.096774 
vt 0.677419 0.258065 
vt 0.483871 0.258065 
vt 0.677419 0.258065 
vt 0.677419 0.096774 
vt 0.677419 0.096774 
vt 0.483871 0.096774 
vt 0.483871 0.258065 
vt 0.741935 0.258065 
vt 0.935484 0.258065 
vt 0.935484 0.096774 
vt 0.935484 0.096774 
vt 0.741935 0.096774 
vt 0.741935 0.258065 
vt 0.419355 0.258065 
vt 0.483871 0.258065 
vt 0.483871 0.096774 
vt 0.483871 0.096774 
vt 0.419355 0.096774 
vt 0.419355 0.258065 
f 1/1/1 2/2/2 3/3/3
f 4/4/4 5/5/5 6/6/6
f 7/7/7 8/8/8 9/9/9
f 10/10/10 11/11/11 12/12/12
f 13/13/13 14/14/14 15/15/15
f 16/16/16 17/17/17 18/18/18
f 19/19/19 20/20/20 21/21/21
f 22/22/22 23/23/23 24/24/24
f 25/25/25 26/26/26 27/27/27
f 28/28/28 29/29/29 30/30/30
