v -15.000000 48.000000 5.000000 
v -15.000000 39.000000 -21.000000 
v -15.000000 0.000000 5.000000 
v -15.000000 39.000000 -21.000000 
v -15.000000 14.000000 -37.000000 
v -15.000000 0.000000 5.000000 
v -15.000000 14.000000 -37.000000 
v -15.000000 -16.000000 -37.000000 
v -15.000000 0.000000 5.000000 
v -15.000000 -16.000000 -37.000000 
v -15.000000 -42.000000 -21.000000 
v -15.000000 0.000000 5.000000 
v -15.000000 -42.000000 -21.000000 
v -15.000000 -50.000000 5.000000 
v -15.000000 0.000000 5.000000 
v -15.000000 -50.000000 5.000000 
v -15.000000 -40.000000 36.000000 
v -15.000000 0.000000 5.000000 
v -15.000000 -40.000000 36.000000 
v -15.000000 -18.000000 54.000000 
v -15.000000 0.000000 5.000000 
v -15.000000 -18.000000 54.000000 
v -15.000000 14.000000 54.000000 
v -15.000000 0.000000 5.000000 
v -15.000000 14.000000 54.000000 
v -15.000000 39.000000 36.000000 
v -15.000000 0.000000 5.000000 
v -15.000000 39.000000 36.000000 
v -15.000000 48.000000 5.000000 
v -15.000000 0.000000 5.000000 
vn -0.671143 0.721436 -0.168945 
vn -0.639648 0.454102 -0.620117 
vn -1.000000 0.000000 0.000000 
vn -0.639648 0.454102 -0.620117 
vn -0.638428 0.100586 -0.762695 
vn -1.000000 0.000000 0.000000 
vn -0.638428 0.100586 -0.762695 
vn -0.628174 -0.220459 -0.745850 
vn -1.000000 0.000000 0.000000 
vn -0.628174 -0.220459 -0.745850 
vn -0.628906 -0.569580 -0.528564 
vn -1.000000 0.000000 0.000000 
vn -0.628906 -0.569580 -0.528564 
vn -0.646973 -0.752930 0.118652 
vn -1.000000 0.000000 0.000000 
vn -0.646973 -0.752930 0.118652 
vn -0.616455 -0.539062 0.573730 
vn -1.000000 0.000000 0.000000 
vn -0.616455 -0.539062 0.573730 
vn -0.614502 -0.121338 0.779297 
vn -1.000000 0.000000 0.000000 
vn -0.614502 -0.121338 0.779297 
vn -0.482422 0.246582 0.840332 
vn -1.000000 0.000000 0.000000 
vn -0.482422 0.246582 0.840332 
vn -0.613525 0.610596 0.500244 
vn -1.000000 0.000000 0.000000 
vn -0.613525 0.610596 0.500244 
vn -0.671143 0.721436 -0.168945 
vn -1.000000 0.000000 0.000000 
vt 0.543307 0.396825 
vt 0.543307 0.396825 
vt 0.535433 0.396825 
vt 0.543307 0.396825 
vt 0.543307 0.396825 
vt 0.535433 0.396825 
vt 0.543307 0.396825 
vt 0.535433 0.396825 
vt 0.535433 0.396825 
vt 0.535433 0.396825 
vt 0.535433 0.396825 
vt 0.535433 0.396825 
vt 0.535433 0.396825 
vt 0.535433 0.396825 
vt 0.535433 0.396825 
vt 0.535433 0.396825 
vt 0.535433 0.380952 
vt 0.535433 0.396825 
vt 0.535433 0.380952 
vt 0.535433 0.380952 
vt 0.535433 0.396825 
vt 0.535433 0.380952 
vt 0.543307 0.380952 
vt 0.535433 0.396825 
vt 0.543307 0.380952 
vt 0.543307 0.380952 
vt 0.535433 0.396825 
vt 0.543307 0.380952 
vt 0.543307 0.396825 
vt 0.535433 0.396825 
f 1/1/1 2/2/2 3/3/3
f 4/4/4 5/5/5 6/6/6
f 7/7/7 8/8/8 9/9/9
f 10/10/10 11/11/11 12/12/12
f 13/13/13 14/14/14 15/15/15
f 16/16/16 17/17/17 18/18/18
f 19/19/19 20/20/20 21/21/21
f 22/22/22 23/23/23 24/24/24
f 25/25/25 26/26/26 27/27/27
f 28/28/28 29/29/29 30/30/30
