v -5.000000 21.000000 -3.000000 
v -5.000000 19.000000 2.000000 
v 0.000000 22.000000 3.000000 
v -3.000000 22.000000 -7.000000 
v -5.000000 21.000000 -3.000000 
v 0.000000 22.000000 3.000000 
v 0.000000 23.000000 -9.000000 
v -3.000000 22.000000 -7.000000 
v 0.000000 22.000000 3.000000 
v 3.000000 22.000000 -7.000000 
v 0.000000 23.000000 -9.000000 
v 0.000000 22.000000 3.000000 
v 5.000000 21.000000 -3.000000 
v 3.000000 22.000000 -7.000000 
v 0.000000 22.000000 3.000000 
v 5.000000 19.000000 2.000000 
v 5.000000 21.000000 -3.000000 
v 0.000000 22.000000 3.000000 
v -11.000000 12.000000 -10.000000 
v -10.000000 9.000000 0.000000 
v -5.000000 19.000000 2.000000 
v -5.000000 21.000000 -3.000000 
v -11.000000 12.000000 -10.000000 
v -5.000000 19.000000 2.000000 
v -6.000000 14.000000 -18.000000 
v -11.000000 12.000000 -10.000000 
v -5.000000 21.000000 -3.000000 
v -3.000000 22.000000 -7.000000 
v -6.000000 14.000000 -18.000000 
v -5.000000 21.000000 -3.000000 
v 0.000000 14.000000 -20.000000 
v -6.000000 14.000000 -18.000000 
v -3.000000 22.000000 -7.000000 
v 0.000000 23.000000 -9.000000 
v 0.000000 14.000000 -20.000000 
v -3.000000 22.000000 -7.000000 
v 6.000000 14.000000 -18.000000 
v 0.000000 14.000000 -20.000000 
v 0.000000 23.000000 -9.000000 
v 3.000000 22.000000 -7.000000 
v 6.000000 14.000000 -18.000000 
v 0.000000 23.000000 -9.000000 
v 11.000000 12.000000 -10.000000 
v 6.000000 14.000000 -18.000000 
v 3.000000 22.000000 -7.000000 
v 5.000000 21.000000 -3.000000 
v 11.000000 12.000000 -10.000000 
v 3.000000 22.000000 -7.000000 
v 10.000000 9.000000 0.000000 
v 11.000000 12.000000 -10.000000 
v 5.000000 21.000000 -3.000000 
v 5.000000 19.000000 2.000000 
v 10.000000 9.000000 0.000000 
v 5.000000 21.000000 -3.000000 
v -14.000000 -1.000000 -15.000000 
v -13.000000 -3.000000 -4.000000 
v -10.000000 9.000000 0.000000 
v -11.000000 12.000000 -10.000000 
v -14.000000 -1.000000 -15.000000 
v -10.000000 9.000000 0.000000 
v -8.000000 0.000000 -24.000000 
v -14.000000 -1.000000 -15.000000 
v -11.000000 12.000000 -10.000000 
v -6.000000 14.000000 -18.000000 
v -8.000000 0.000000 -24.000000 
v -11.000000 12.000000 -10.000000 
v 0.000000 1.000000 -27.000000 
v -8.000000 0.000000 -24.000000 
v -6.000000 14.000000 -18.000000 
v 0.000000 14.000000 -20.000000 
v 0.000000 1.000000 -27.000000 
v -6.000000 14.000000 -18.000000 
v 8.000000 0.000000 -24.000000 
v 0.000000 1.000000 -27.000000 
v 0.000000 14.000000 -20.000000 
v 6.000000 14.000000 -18.000000 
v 8.000000 0.000000 -24.000000 
v 0.000000 14.000000 -20.000000 
v 14.000000 -1.000000 -15.000000 
v 8.000000 0.000000 -24.000000 
v 6.000000 14.000000 -18.000000 
v 11.000000 12.000000 -10.000000 
v 14.000000 -1.000000 -15.000000 
v 6.000000 14.000000 -18.000000 
v 13.000000 -3.000000 -4.000000 
v 14.000000 -1.000000 -15.000000 
v 11.000000 12.000000 -10.000000 
v 10.000000 9.000000 0.000000 
v 13.000000 -3.000000 -4.000000 
v 11.000000 12.000000 -10.000000 
v -12.000000 -15.000000 -18.000000 
v -11.000000 -16.000000 -7.000000 
v -13.000000 -3.000000 -4.000000 
v -14.000000 -1.000000 -15.000000 
v -12.000000 -15.000000 -18.000000 
v -13.000000 -3.000000 -4.000000 
v -7.000000 -13.000000 -24.000000 
v -12.000000 -15.000000 -18.000000 
v -14.000000 -1.000000 -15.000000 
v -8.000000 0.000000 -24.000000 
v -7.000000 -13.000000 -24.000000 
v -14.000000 -1.000000 -15.000000 
v 0.000000 -13.000000 -26.000000 
v -7.000000 -13.000000 -24.000000 
v -8.000000 0.000000 -24.000000 
v 0.000000 1.000000 -27.000000 
v 0.000000 -13.000000 -26.000000 
v -8.000000 0.000000 -24.000000 
v 7.000000 -13.000000 -24.000000 
v 0.000000 -13.000000 -26.000000 
v 0.000000 1.000000 -27.000000 
v 8.000000 0.000000 -24.000000 
v 7.000000 -13.000000 -24.000000 
v 0.000000 1.000000 -27.000000 
v 12.000000 -15.000000 -18.000000 
v 7.000000 -13.000000 -24.000000 
v 8.000000 0.000000 -24.000000 
v 14.000000 -1.000000 -15.000000 
v 12.000000 -15.000000 -18.000000 
v 8.000000 0.000000 -24.000000 
v 11.000000 -16.000000 -7.000000 
v 12.000000 -15.000000 -18.000000 
v 14.000000 -1.000000 -15.000000 
v 13.000000 -3.000000 -4.000000 
v 11.000000 -16.000000 -7.000000 
v 14.000000 -1.000000 -15.000000 
v -6.000000 -22.000000 -15.000000 
v -6.000000 -21.000000 -5.000000 
v -11.000000 -16.000000 -7.000000 
v -12.000000 -15.000000 -18.000000 
v -6.000000 -22.000000 -15.000000 
v -11.000000 -16.000000 -7.000000 
v -3.000000 -21.000000 -19.000000 
v -6.000000 -22.000000 -15.000000 
v -12.000000 -15.000000 -18.000000 
v -7.000000 -13.000000 -24.000000 
v -3.000000 -21.000000 -19.000000 
v -12.000000 -15.000000 -18.000000 
v 0.000000 -20.000000 -21.000000 
v -3.000000 -21.000000 -19.000000 
v -7.000000 -13.000000 -24.000000 
v 0.000000 -13.000000 -26.000000 
v 0.000000 -20.000000 -21.000000 
v -7.000000 -13.000000 -24.000000 
v 3.000000 -21.000000 -19.000000 
v 0.000000 -20.000000 -21.000000 
v 0.000000 -13.000000 -26.000000 
v 7.000000 -13.000000 -24.000000 
v 3.000000 -21.000000 -19.000000 
v 0.000000 -13.000000 -26.000000 
v 6.000000 -22.000000 -15.000000 
v 3.000000 -21.000000 -19.000000 
v 7.000000 -13.000000 -24.000000 
v 12.000000 -15.000000 -18.000000 
v 6.000000 -22.000000 -15.000000 
v 7.000000 -13.000000 -24.000000 
v 6.000000 -21.000000 -5.000000 
v 6.000000 -22.000000 -15.000000 
v 12.000000 -15.000000 -18.000000 
v 11.000000 -16.000000 -7.000000 
v 6.000000 -21.000000 -5.000000 
v 12.000000 -15.000000 -18.000000 
v -6.000000 -21.000000 -5.000000 
v -6.000000 -22.000000 -15.000000 
v 0.000000 -23.000000 -5.000000 
v -6.000000 -22.000000 -15.000000 
v -3.000000 -21.000000 -19.000000 
v 0.000000 -23.000000 -5.000000 
v -3.000000 -21.000000 -19.000000 
v 0.000000 -20.000000 -21.000000 
v 0.000000 -23.000000 -5.000000 
v 0.000000 -20.000000 -21.000000 
v 3.000000 -21.000000 -19.000000 
v 0.000000 -23.000000 -5.000000 
v 3.000000 -21.000000 -19.000000 
v 6.000000 -22.000000 -15.000000 
v 0.000000 -23.000000 -5.000000 
v 6.000000 -22.000000 -15.000000 
v 6.000000 -21.000000 -5.000000 
v 0.000000 -23.000000 -5.000000 
vn -0.706787 0.707031 0.016846 
vn -0.816162 0.515137 0.260742 
vn 0.000000 0.984863 0.173096 
vn -0.390869 0.878418 -0.273926 
vn -0.706787 0.707031 0.016846 
vn 0.000000 0.984863 0.173096 
vn 0.070312 0.934814 -0.347900 
vn -0.390869 0.878418 -0.273926 
vn 0.000000 0.984863 0.173096 
vn 0.478760 0.850586 -0.217041 
vn 0.070312 0.934814 -0.347900 
vn 0.000000 0.984863 0.173096 
vn 0.736816 0.664307 0.124756 
vn 0.478760 0.850586 -0.217041 
vn 0.000000 0.984863 0.173096 
vn 0.757080 0.580566 0.298828 
vn 0.736816 0.664307 0.124756 
vn 0.000000 0.984863 0.173096 
vn -0.907471 0.403076 -0.116211 
vn -0.951172 0.260254 0.164307 
vn -0.816162 0.515137 0.260742 
vn -0.706787 0.707031 0.016846 
vn -0.907471 0.403076 -0.116211 
vn -0.816162 0.515137 0.260742 
vn -0.600830 0.553955 -0.575928 
vn -0.907471 0.403076 -0.116211 
vn -0.706787 0.707031 0.016846 
vn -0.390869 0.878418 -0.273926 
vn -0.600830 0.553955 -0.575928 
vn -0.706787 0.707031 0.016846 
vn 0.002197 0.644043 -0.764648 
vn -0.600830 0.553955 -0.575928 
vn -0.390869 0.878418 -0.273926 
vn 0.070312 0.934814 -0.347900 
vn 0.002197 0.644043 -0.764648 
vn -0.390869 0.878418 -0.273926 
vn 0.602051 0.575439 -0.553223 
vn 0.002197 0.644043 -0.764648 
vn 0.070312 0.934814 -0.347900 
vn 0.478760 0.850586 -0.217041 
vn 0.602051 0.575439 -0.553223 
vn 0.070312 0.934814 -0.347900 
vn 0.906006 0.412842 -0.090820 
vn 0.602051 0.575439 -0.553223 
vn 0.478760 0.850586 -0.217041 
vn 0.736816 0.664307 0.124756 
vn 0.906006 0.412842 -0.090820 
vn 0.478760 0.850586 -0.217041 
vn 0.926758 0.323975 0.188965 
vn 0.906006 0.412842 -0.090820 
vn 0.736816 0.664307 0.124756 
vn 0.757080 0.580566 0.298828 
vn 0.926758 0.323975 0.188965 
vn 0.736816 0.664307 0.124756 
vn -0.963135 0.097656 -0.250244 
vn -0.991943 -0.045166 0.116943 
vn -0.951172 0.260254 0.164307 
vn -0.907471 0.403076 -0.116211 
vn -0.963135 0.097656 -0.250244 
vn -0.951172 0.260254 0.164307 
vn -0.613281 0.171143 -0.770752 
vn -0.963135 0.097656 -0.250244 
vn -0.907471 0.403076 -0.116211 
vn -0.600830 0.553955 -0.575928 
vn -0.613281 0.171143 -0.770752 
vn -0.907471 0.403076 -0.116211 
vn -0.022217 0.189453 -0.981445 
vn -0.613281 0.171143 -0.770752 
vn -0.600830 0.553955 -0.575928 
vn 0.002197 0.644043 -0.764648 
vn -0.022217 0.189453 -0.981445 
vn -0.600830 0.553955 -0.575928 
vn 0.604492 0.184570 -0.774658 
vn -0.022217 0.189453 -0.981445 
vn 0.002197 0.644043 -0.764648 
vn 0.602051 0.575439 -0.553223 
vn 0.604492 0.184570 -0.774658 
vn 0.002197 0.644043 -0.764648 
vn 0.971924 0.102539 -0.210449 
vn 0.604492 0.184570 -0.774658 
vn 0.602051 0.575439 -0.553223 
vn 0.906006 0.412842 -0.090820 
vn 0.971924 0.102539 -0.210449 
vn 0.602051 0.575439 -0.553223 
vn 0.988770 0.071289 0.131104 
vn 0.971924 0.102539 -0.210449 
vn 0.906006 0.412842 -0.090820 
vn 0.926758 0.323975 0.188965 
vn 0.988770 0.071289 0.131104 
vn 0.906006 0.412842 -0.090820 
vn -0.857422 -0.404785 -0.316650 
vn -0.858643 -0.505615 0.083008 
vn -0.991943 -0.045166 0.116943 
vn -0.963135 0.097656 -0.250244 
vn -0.857422 -0.404785 -0.316650 
vn -0.991943 -0.045166 0.116943 
vn -0.492432 -0.307129 -0.814209 
vn -0.857422 -0.404785 -0.316650 
vn -0.963135 0.097656 -0.250244 
vn -0.613281 0.171143 -0.770752 
vn -0.492432 -0.307129 -0.814209 
vn -0.963135 0.097656 -0.250244 
vn -0.018066 -0.305664 -0.951660 
vn -0.492432 -0.307129 -0.814209 
vn -0.613281 0.171143 -0.770752 
vn -0.022217 0.189453 -0.981445 
vn -0.018066 -0.305664 -0.951660 
vn -0.613281 0.171143 -0.770752 
vn 0.457275 -0.332764 -0.824463 
vn -0.018066 -0.305664 -0.951660 
vn -0.022217 0.189453 -0.981445 
vn 0.604492 0.184570 -0.774658 
vn 0.457275 -0.332764 -0.824463 
vn -0.022217 0.189453 -0.981445 
vn 0.854492 -0.408203 -0.321045 
vn 0.457275 -0.332764 -0.824463 
vn 0.604492 0.184570 -0.774658 
vn 0.971924 0.102539 -0.210449 
vn 0.854492 -0.408203 -0.321045 
vn 0.604492 0.184570 -0.774658 
vn 0.934326 -0.346924 0.078613 
vn 0.854492 -0.408203 -0.321045 
vn 0.971924 0.102539 -0.210449 
vn 0.988770 0.071289 0.131104 
vn 0.934326 -0.346924 0.078613 
vn 0.971924 0.102539 -0.210449 
vn -0.479004 -0.870117 -0.115234 
vn -0.512451 -0.852783 0.098389 
vn -0.858643 -0.505615 0.083008 
vn -0.857422 -0.404785 -0.316650 
vn -0.479004 -0.870117 -0.115234 
vn -0.858643 -0.505615 0.083008 
vn -0.234863 -0.819824 -0.521973 
vn -0.479004 -0.870117 -0.115234 
vn -0.857422 -0.404785 -0.316650 
vn -0.492432 -0.307129 -0.814209 
vn -0.234863 -0.819824 -0.521973 
vn -0.857422 -0.404785 -0.316650 
vn -0.041016 -0.786621 -0.615967 
vn -0.234863 -0.819824 -0.521973 
vn -0.492432 -0.307129 -0.814209 
vn -0.018066 -0.305664 -0.951660 
vn -0.041016 -0.786621 -0.615967 
vn -0.492432 -0.307129 -0.814209 
vn 0.179443 -0.798340 -0.574219 
vn -0.041016 -0.786621 -0.615967 
vn -0.018066 -0.305664 -0.951660 
vn 0.457275 -0.332764 -0.824463 
vn 0.179443 -0.798340 -0.574219 
vn -0.018066 -0.305664 -0.951660 
vn 0.440186 -0.853516 -0.277832 
vn 0.179443 -0.798340 -0.574219 
vn 0.457275 -0.332764 -0.824463 
vn 0.854492 -0.408203 -0.321045 
vn 0.440186 -0.853516 -0.277832 
vn 0.457275 -0.332764 -0.824463 
vn 0.607910 -0.790039 0.077393 
vn 0.440186 -0.853516 -0.277832 
vn 0.854492 -0.408203 -0.321045 
vn 0.934326 -0.346924 0.078613 
vn 0.607910 -0.790039 0.077393 
vn 0.854492 -0.408203 -0.321045 
vn -0.512451 -0.852783 0.098389 
vn -0.479004 -0.870117 -0.115234 
vn 0.000000 -0.996826 -0.076660 
vn -0.479004 -0.870117 -0.115234 
vn -0.234863 -0.819824 -0.521973 
vn 0.000000 -0.996826 -0.076660 
vn -0.234863 -0.819824 -0.521973 
vn -0.041016 -0.786621 -0.615967 
vn 0.000000 -0.996826 -0.076660 
vn -0.041016 -0.786621 -0.615967 
vn 0.179443 -0.798340 -0.574219 
vn 0.000000 -0.996826 -0.076660 
vn 0.179443 -0.798340 -0.574219 
vn 0.440186 -0.853516 -0.277832 
vn 0.000000 -0.996826 -0.076660 
vn 0.440186 -0.853516 -0.277832 
vn 0.607910 -0.790039 0.077393 
vn 0.000000 -0.996826 -0.076660 
vt 0.708661 0.401575 
vt 0.700787 0.440945 
vt 0.763780 0.464567 
vt 0.732283 0.401575 
vt 0.708661 0.401575 
vt 0.763780 0.464567 
vt 0.763780 0.401575 
vt 0.732283 0.401575 
vt 0.763780 0.464567 
vt 0.795276 0.401575 
vt 0.763780 0.401575 
vt 0.763780 0.464567 
vt 0.818898 0.401575 
vt 0.795276 0.401575 
vt 0.763780 0.464567 
vt 0.834646 0.440945 
vt 0.818898 0.401575 
vt 0.763780 0.464567 
vt 0.661417 0.338583 
vt 0.629921 0.362205 
vt 0.700787 0.440945 
vt 0.708661 0.401575 
vt 0.661417 0.338583 
vt 0.700787 0.440945 
vt 0.700787 0.346457 
vt 0.661417 0.338583 
vt 0.708661 0.401575 
vt 0.732283 0.401575 
vt 0.700787 0.346457 
vt 0.708661 0.401575 
vt 0.763780 0.346457 
vt 0.700787 0.346457 
vt 0.732283 0.401575 
vt 0.763780 0.401575 
vt 0.763780 0.346457 
vt 0.732283 0.401575 
vt 0.826772 0.346457 
vt 0.763780 0.346457 
vt 0.763780 0.401575 
vt 0.795276 0.401575 
vt 0.826772 0.346457 
vt 0.763780 0.401575 
vt 0.874016 0.338583 
vt 0.826772 0.346457 
vt 0.795276 0.401575 
vt 0.818898 0.401575 
vt 0.874016 0.338583 
vt 0.795276 0.401575 
vt 0.897638 0.362205 
vt 0.874016 0.338583 
vt 0.818898 0.401575 
vt 0.834646 0.440945 
vt 0.897638 0.362205 
vt 0.818898 0.401575 
vt 0.622047 0.251969 
vt 0.590551 0.244094 
vt 0.629921 0.362205 
vt 0.661417 0.338583 
vt 0.622047 0.251969 
vt 0.629921 0.362205 
vt 0.685039 0.259843 
vt 0.622047 0.251969 
vt 0.661417 0.338583 
vt 0.700787 0.346457 
vt 0.685039 0.259843 
vt 0.661417 0.338583 
vt 0.763780 0.267717 
vt 0.685039 0.259843 
vt 0.700787 0.346457 
vt 0.763780 0.346457 
vt 0.763780 0.267717 
vt 0.700787 0.346457 
vt 0.842520 0.259843 
vt 0.763780 0.267717 
vt 0.763780 0.346457 
vt 0.826772 0.346457 
vt 0.842520 0.259843 
vt 0.763780 0.346457 
vt 0.905512 0.251969 
vt 0.842520 0.259843 
vt 0.826772 0.346457 
vt 0.874016 0.338583 
vt 0.905512 0.251969 
vt 0.826772 0.346457 
vt 0.937008 0.244094 
vt 0.905512 0.251969 
vt 0.874016 0.338583 
vt 0.897638 0.362205 
vt 0.937008 0.244094 
vt 0.874016 0.338583 
vt 0.645669 0.165354 
vt 0.614173 0.141732 
vt 0.590551 0.244094 
vt 0.622047 0.251969 
vt 0.645669 0.165354 
vt 0.590551 0.244094 
vt 0.692913 0.173228 
vt 0.645669 0.165354 
vt 0.622047 0.251969 
vt 0.685039 0.259843 
vt 0.692913 0.173228 
vt 0.622047 0.251969 
vt 0.763780 0.181102 
vt 0.692913 0.173228 
vt 0.685039 0.259843 
vt 0.763780 0.267717 
vt 0.763780 0.181102 
vt 0.685039 0.259843 
vt 0.834646 0.173228 
vt 0.763780 0.181102 
vt 0.763780 0.267717 
vt 0.842520 0.259843 
vt 0.834646 0.173228 
vt 0.763780 0.267717 
vt 0.881890 0.165354 
vt 0.834646 0.173228 
vt 0.842520 0.259843 
vt 0.905512 0.251969 
vt 0.881890 0.165354 
vt 0.842520 0.259843 
vt 0.913386 0.141732 
vt 0.881890 0.165354 
vt 0.905512 0.251969 
vt 0.937008 0.244094 
vt 0.913386 0.141732 
vt 0.905512 0.251969 
vt 0.700787 0.133858 
vt 0.685039 0.102362 
vt 0.614173 0.141732 
vt 0.645669 0.165354 
vt 0.700787 0.133858 
vt 0.614173 0.141732 
vt 0.724409 0.133858 
vt 0.700787 0.133858 
vt 0.645669 0.165354 
vt 0.692913 0.173228 
vt 0.724409 0.133858 
vt 0.645669 0.165354 
vt 0.763780 0.133858 
vt 0.724409 0.133858 
vt 0.692913 0.173228 
vt 0.763780 0.181102 
vt 0.763780 0.133858 
vt 0.692913 0.173228 
vt 0.803150 0.133858 
vt 0.763780 0.133858 
vt 0.763780 0.181102 
vt 0.834646 0.173228 
vt 0.803150 0.133858 
vt 0.763780 0.181102 
vt 0.826772 0.133858 
vt 0.803150 0.133858 
vt 0.834646 0.173228 
vt 0.881890 0.165354 
vt 0.826772 0.133858 
vt 0.834646 0.173228 
vt 0.842520 0.102362 
vt 0.826772 0.133858 
vt 0.881890 0.165354 
vt 0.913386 0.141732 
vt 0.842520 0.102362 
vt 0.881890 0.165354 
vt 0.685039 0.102362 
vt 0.700787 0.133858 
vt 0.763780 0.086614 
vt 0.700787 0.133858 
vt 0.724409 0.133858 
vt 0.763780 0.086614 
vt 0.724409 0.133858 
vt 0.763780 0.133858 
vt 0.763780 0.086614 
vt 0.763780 0.133858 
vt 0.803150 0.133858 
vt 0.763780 0.086614 
vt 0.803150 0.133858 
vt 0.826772 0.133858 
vt 0.763780 0.086614 
vt 0.826772 0.133858 
vt 0.842520 0.102362 
vt 0.763780 0.086614 
f 1/1/1 2/2/2 3/3/3
f 4/4/4 5/5/5 6/6/6
f 7/7/7 8/8/8 9/9/9
f 10/10/10 11/11/11 12/12/12
f 13/13/13 14/14/14 15/15/15
f 16/16/16 17/17/17 18/18/18
f 19/19/19 20/20/20 21/21/21
f 22/22/22 23/23/23 24/24/24
f 25/25/25 26/26/26 27/27/27
f 28/28/28 29/29/29 30/30/30
f 31/31/31 32/32/32 33/33/33
f 34/34/34 35/35/35 36/36/36
f 37/37/37 38/38/38 39/39/39
f 40/40/40 41/41/41 42/42/42
f 43/43/43 44/44/44 45/45/45
f 46/46/46 47/47/47 48/48/48
f 49/49/49 50/50/50 51/51/51
f 52/52/52 53/53/53 54/54/54
f 55/55/55 56/56/56 57/57/57
f 58/58/58 59/59/59 60/60/60
f 61/61/61 62/62/62 63/63/63
f 64/64/64 65/65/65 66/66/66
f 67/67/67 68/68/68 69/69/69
f 70/70/70 71/71/71 72/72/72
f 73/73/73 74/74/74 75/75/75
f 76/76/76 77/77/77 78/78/78
f 79/79/79 80/80/80 81/81/81
f 82/82/82 83/83/83 84/84/84
f 85/85/85 86/86/86 87/87/87
f 88/88/88 89/89/89 90/90/90
f 91/91/91 92/92/92 93/93/93
f 94/94/94 95/95/95 96/96/96
f 97/97/97 98/98/98 99/99/99
f 100/100/100 101/101/101 102/102/102
f 103/103/103 104/104/104 105/105/105
f 106/106/106 107/107/107 108/108/108
f 109/109/109 110/110/110 111/111/111
f 112/112/112 113/113/113 114/114/114
f 115/115/115 116/116/116 117/117/117
f 118/118/118 119/119/119 120/120/120
f 121/121/121 122/122/122 123/123/123
f 124/124/124 125/125/125 126/126/126
f 127/127/127 128/128/128 129/129/129
f 130/130/130 131/131/131 132/132/132
f 133/133/133 134/134/134 135/135/135
f 136/136/136 137/137/137 138/138/138
f 139/139/139 140/140/140 141/141/141
f 142/142/142 143/143/143 144/144/144
f 145/145/145 146/146/146 147/147/147
f 148/148/148 149/149/149 150/150/150
f 151/151/151 152/152/152 153/153/153
f 154/154/154 155/155/155 156/156/156
f 157/157/157 158/158/158 159/159/159
f 160/160/160 161/161/161 162/162/162
f 163/163/163 164/164/164 165/165/165
f 166/166/166 167/167/167 168/168/168
f 169/169/169 170/170/170 171/171/171
f 172/172/172 173/173/173 174/174/174
f 175/175/175 176/176/176 177/177/177
f 178/178/178 179/179/179 180/180/180
