v -20.000000 31.000000 -10.000000 
v -33.000000 29.000000 -7.000000 
v -23.000000 12.000000 22.000000 
v -20.000000 31.000000 -10.000000 
v -23.000000 12.000000 22.000000 
v -33.000000 29.000000 -7.000000 
vn 0.036377 0.999268 -0.009766 
vn -0.694336 0.718018 0.044678 
vn 0.033936 0.836182 0.546875 
vn -0.036377 -0.999268 0.009766 
vn -0.033936 -0.836182 -0.546875 
vn 0.694336 -0.718018 -0.044678 
vt 0.761905 -0.015873 
vt 0.761905 -0.015873 
vt 1.000000 -0.015873 
vt 0.761905 -0.015873 
vt 1.000000 -0.015873 
vt 0.761905 -0.015873 
f 1/1/1 2/2/2 3/3/3
f 4/4/4 5/5/5 6/6/6
