v -29.000000 0.000000 0.000000 
v 0.000000 0.000000 0.000000 
v -20.000000 20.000000 0.000000 
v -20.000000 20.000000 0.000000 
v 0.000000 0.000000 0.000000 
v 0.000000 29.000000 0.000000 
v 0.000000 29.000000 0.000000 
v 0.000000 0.000000 0.000000 
v 20.000000 20.000000 0.000000 
v 20.000000 20.000000 0.000000 
v 0.000000 0.000000 0.000000 
v 29.000000 0.000000 0.000000 
v 29.000000 0.000000 0.000000 
v 0.000000 0.000000 0.000000 
v 20.000000 -20.000000 0.000000 
v 20.000000 -20.000000 0.000000 
v 0.000000 0.000000 0.000000 
v 0.000000 -29.000000 0.000000 
v 0.000000 -29.000000 0.000000 
v 0.000000 0.000000 0.000000 
v -20.000000 -20.000000 0.000000 
v -20.000000 -20.000000 0.000000 
v 0.000000 0.000000 0.000000 
v -29.000000 0.000000 0.000000 
vn 0.000000 0.000000 1.000000 
vn 0.000000 0.000000 1.000000 
vn 0.000000 0.000000 1.000000 
vn 0.000000 0.000000 1.000000 
vn 0.000000 0.000000 1.000000 
vn 0.000000 0.000000 1.000000 
vn 0.000000 0.000000 1.000000 
vn 0.000000 0.000000 1.000000 
vn 0.000000 0.000000 1.000000 
vn 0.000000 0.000000 1.000000 
vn 0.000000 0.000000 1.000000 
vn 0.000000 0.000000 1.000000 
vn 0.000000 0.000000 1.000000 
vn 0.000000 0.000000 1.000000 
vn 0.000000 0.000000 1.000000 
vn 0.000000 0.000000 1.000000 
vn 0.000000 0.000000 1.000000 
vn 0.000000 0.000000 1.000000 
vn 0.000000 0.000000 1.000000 
vn 0.000000 0.000000 1.000000 
vn 0.000000 0.000000 1.000000 
vn 0.000000 0.000000 1.000000 
vn 0.000000 0.000000 1.000000 
vn 0.000000 0.000000 1.000000 
vt 1.000000 0.354839 
vt 0.580645 0.354839 
vt 0.870968 0.645161 
vt 0.870968 0.645161 
vt 0.580645 0.354839 
vt 0.580645 0.774194 
vt 0.580645 0.774194 
vt 0.580645 0.354839 
vt 0.290323 0.645161 
vt 0.290323 0.645161 
vt 0.580645 0.354839 
vt 0.161290 0.354839 
vt 0.161290 0.354839 
vt 0.580645 0.354839 
vt 0.290323 0.064516 
vt 0.290323 0.064516 
vt 0.580645 0.354839 
vt 0.580645 -0.064516 
vt 0.580645 -0.064516 
vt 0.580645 0.354839 
vt 0.870968 0.064516 
vt 0.870968 0.064516 
vt 0.580645 0.354839 
vt 1.000000 0.354839 
f 1/1/1 2/2/2 3/3/3
f 4/4/4 5/5/5 6/6/6
f 7/7/7 8/8/8 9/9/9
f 10/10/10 11/11/11 12/12/12
f 13/13/13 14/14/14 15/15/15
f 16/16/16 17/17/17 18/18/18
f 19/19/19 20/20/20 21/21/21
f 22/22/22 23/23/23 24/24/24
