v 29.000000 6.000000 29.000000 
v 40.000000 6.000000 11.000000 
v 0.000000 13.000000 -1.000000 
v 40.000000 6.000000 11.000000 
v 40.000000 7.000000 -10.000000 
v 0.000000 13.000000 -1.000000 
v 40.000000 7.000000 -10.000000 
v 29.000000 7.000000 -29.000000 
v 0.000000 13.000000 -1.000000 
v 29.000000 7.000000 -29.000000 
v 10.000000 7.000000 -40.000000 
v 0.000000 13.000000 -1.000000 
v 10.000000 7.000000 -40.000000 
v -10.000000 6.000000 -40.000000 
v 0.000000 13.000000 -1.000000 
v -10.000000 6.000000 -40.000000 
v -29.000000 6.000000 -29.000000 
v 0.000000 13.000000 -1.000000 
v -29.000000 6.000000 -29.000000 
v -40.000000 6.000000 -10.000000 
v 0.000000 13.000000 -1.000000 
v -40.000000 6.000000 -10.000000 
v -40.000000 6.000000 10.000000 
v 0.000000 13.000000 -1.000000 
v -40.000000 6.000000 10.000000 
v -29.000000 6.000000 29.000000 
v 0.000000 13.000000 -1.000000 
v -29.000000 6.000000 29.000000 
v -11.000000 6.000000 40.000000 
v 0.000000 13.000000 -1.000000 
v -11.000000 6.000000 40.000000 
v 10.000000 6.000000 40.000000 
v 0.000000 13.000000 -1.000000 
v 10.000000 6.000000 40.000000 
v 29.000000 6.000000 29.000000 
v 0.000000 13.000000 -1.000000 
v 29.000000 0.000000 29.000000 
v 40.000000 0.000000 11.000000 
v 29.000000 6.000000 29.000000 
v 40.000000 0.000000 11.000000 
v 40.000000 6.000000 11.000000 
v 29.000000 6.000000 29.000000 
v 40.000000 0.000000 11.000000 
v 40.000000 0.000000 -10.000000 
v 40.000000 6.000000 11.000000 
v 40.000000 0.000000 -10.000000 
v 40.000000 7.000000 -10.000000 
v 40.000000 6.000000 11.000000 
v 40.000000 0.000000 -10.000000 
v 29.000000 0.000000 -29.000000 
v 40.000000 7.000000 -10.000000 
v 29.000000 0.000000 -29.000000 
v 29.000000 7.000000 -29.000000 
v 40.000000 7.000000 -10.000000 
v 29.000000 0.000000 -29.000000 
v 10.000000 0.000000 -40.000000 
v 29.000000 7.000000 -29.000000 
v 10.000000 0.000000 -40.000000 
v 10.000000 7.000000 -40.000000 
v 29.000000 7.000000 -29.000000 
v 10.000000 0.000000 -40.000000 
v -10.000000 0.000000 -40.000000 
v 10.000000 7.000000 -40.000000 
v -10.000000 0.000000 -40.000000 
v -10.000000 6.000000 -40.000000 
v 10.000000 7.000000 -40.000000 
v -10.000000 0.000000 -40.000000 
v -29.000000 0.000000 -29.000000 
v -10.000000 6.000000 -40.000000 
v -29.000000 0.000000 -29.000000 
v -29.000000 6.000000 -29.000000 
v -10.000000 6.000000 -40.000000 
v -29.000000 0.000000 -29.000000 
v -40.000000 0.000000 -10.000000 
v -29.000000 6.000000 -29.000000 
v -40.000000 0.000000 -10.000000 
v -40.000000 6.000000 -10.000000 
v -29.000000 6.000000 -29.000000 
v -40.000000 0.000000 -10.000000 
v -40.000000 0.000000 10.000000 
v -40.000000 6.000000 -10.000000 
v -40.000000 0.000000 10.000000 
v -40.000000 6.000000 10.000000 
v -40.000000 6.000000 -10.000000 
v -40.000000 0.000000 10.000000 
v -29.000000 0.000000 29.000000 
v -40.000000 6.000000 10.000000 
v -29.000000 0.000000 29.000000 
v -29.000000 6.000000 29.000000 
v -40.000000 6.000000 10.000000 
v -29.000000 0.000000 29.000000 
v -10.000000 0.000000 40.000000 
v -29.000000 6.000000 29.000000 
v -10.000000 0.000000 40.000000 
v -11.000000 6.000000 40.000000 
v -29.000000 6.000000 29.000000 
v -10.000000 0.000000 40.000000 
v 10.000000 0.000000 40.000000 
v -11.000000 6.000000 40.000000 
v 10.000000 0.000000 40.000000 
v 10.000000 6.000000 40.000000 
v -11.000000 6.000000 40.000000 
v 10.000000 0.000000 40.000000 
v 29.000000 0.000000 29.000000 
v 10.000000 6.000000 40.000000 
v 29.000000 0.000000 29.000000 
v 29.000000 6.000000 29.000000 
v 10.000000 6.000000 40.000000 
v 40.000000 0.000000 11.000000 
v 29.000000 0.000000 29.000000 
v 0.000000 0.000000 0.000000 
v 40.000000 0.000000 -10.000000 
v 40.000000 0.000000 11.000000 
v 0.000000 0.000000 0.000000 
v 29.000000 0.000000 -29.000000 
v 40.000000 0.000000 -10.000000 
v 0.000000 0.000000 0.000000 
v 10.000000 0.000000 -40.000000 
v 29.000000 0.000000 -29.000000 
v 0.000000 0.000000 0.000000 
v -10.000000 0.000000 -40.000000 
v 10.000000 0.000000 -40.000000 
v 0.000000 0.000000 0.000000 
v -29.000000 0.000000 -29.000000 
v -10.000000 0.000000 -40.000000 
v 0.000000 0.000000 0.000000 
v -40.000000 0.000000 -10.000000 
v -29.000000 0.000000 -29.000000 
v 0.000000 0.000000 0.000000 
v -40.000000 0.000000 10.000000 
v -40.000000 0.000000 -10.000000 
v 0.000000 0.000000 0.000000 
v -29.000000 0.000000 29.000000 
v -40.000000 0.000000 10.000000 
v 0.000000 0.000000 0.000000 
v -10.000000 0.000000 40.000000 
v -29.000000 0.000000 29.000000 
v 0.000000 0.000000 0.000000 
v 10.000000 0.000000 40.000000 
v -10.000000 0.000000 40.000000 
v 0.000000 0.000000 0.000000 
v 29.000000 0.000000 29.000000 
v 10.000000 0.000000 40.000000 
v 0.000000 0.000000 0.000000 
vn 0.637695 0.540771 0.548096 
vn 0.827637 0.539062 0.155762 
vn -0.002930 0.999756 0.001221 
vn 0.827637 0.539062 0.155762 
vn 0.795898 0.536133 -0.280273 
vn -0.002930 0.999756 0.001221 
vn 0.795898 0.536133 -0.280273 
vn 0.549561 0.533203 -0.642822 
vn -0.002930 0.999756 0.001221 
vn 0.549561 0.533203 -0.642822 
vn 0.153564 0.531006 -0.833252 
vn -0.002930 0.999756 0.001221 
vn 0.153564 0.531006 -0.833252 
vn -0.284424 0.529785 -0.798828 
vn -0.002930 0.999756 0.001221 
vn -0.284424 0.529785 -0.798828 
vn -0.645752 0.530029 -0.549072 
vn -0.002930 0.999756 0.001221 
vn -0.645752 0.530029 -0.549072 
vn -0.832764 0.531982 -0.152588 
vn -0.002930 0.999756 0.001221 
vn -0.832764 0.531982 -0.152588 
vn -0.796143 0.534912 0.282471 
vn -0.002930 0.999756 0.001221 
vn -0.796143 0.534912 0.282471 
vn -0.547607 0.537842 0.640625 
vn -0.002930 0.999756 0.001221 
vn -0.547607 0.537842 0.640625 
vn -0.154785 0.540283 0.826904 
vn -0.002930 0.999756 0.001221 
vn -0.154785 0.540283 0.826904 
vn 0.278320 0.541504 0.793213 
vn -0.002930 0.999756 0.001221 
vn 0.278320 0.541504 0.793213 
vn 0.637695 0.540771 0.548096 
vn -0.002930 0.999756 0.001221 
vn 0.527588 -0.561279 0.637207 
vn 0.774414 -0.562988 0.287598 
vn 0.637695 0.540771 0.548096 
vn 0.774414 -0.562988 0.287598 
vn 0.827637 0.539062 0.155762 
vn 0.637695 0.540771 0.548096 
vn 0.774414 -0.562988 0.287598 
vn 0.812744 -0.565674 -0.137695 
vn 0.827637 0.539062 0.155762 
vn 0.812744 -0.565674 -0.137695 
vn 0.795898 0.536133 -0.280273 
vn 0.827637 0.539062 0.155762 
vn 0.812744 -0.565674 -0.137695 
vn 0.633545 -0.568359 -0.524658 
vn 0.795898 0.536133 -0.280273 
vn 0.633545 -0.568359 -0.524658 
vn 0.549561 0.533203 -0.642822 
vn 0.795898 0.536133 -0.280273 
vn 0.633545 -0.568359 -0.524658 
vn 0.285889 -0.570312 -0.769775 
vn 0.549561 0.533203 -0.642822 
vn 0.285889 -0.570312 -0.769775 
vn 0.153564 0.531006 -0.833252 
vn 0.549561 0.533203 -0.642822 
vn 0.285889 -0.570312 -0.769775 
vn -0.137207 -0.571533 -0.808838 
vn 0.153564 0.531006 -0.833252 
vn -0.137207 -0.571533 -0.808838 
vn -0.284424 0.529785 -0.798828 
vn 0.153564 0.531006 -0.833252 
vn -0.137207 -0.571533 -0.808838 
vn -0.523193 -0.571289 -0.632080 
vn -0.284424 0.529785 -0.798828 
vn -0.523193 -0.571289 -0.632080 
vn -0.645752 0.530029 -0.549072 
vn -0.284424 0.529785 -0.798828 
vn -0.523193 -0.571289 -0.632080 
vn -0.770264 -0.569824 -0.285889 
vn -0.645752 0.530029 -0.549072 
vn -0.770264 -0.569824 -0.285889 
vn -0.832764 0.531982 -0.152588 
vn -0.645752 0.530029 -0.549072 
vn -0.770264 -0.569824 -0.285889 
vn -0.811768 -0.567139 0.137695 
vn -0.832764 0.531982 -0.152588 
vn -0.811768 -0.567139 0.137695 
vn -0.796143 0.534912 0.282471 
vn -0.832764 0.531982 -0.152588 
vn -0.811768 -0.567139 0.137695 
vn -0.635742 -0.564453 0.526367 
vn -0.796143 0.534912 0.282471 
vn -0.635742 -0.564453 0.526367 
vn -0.547607 0.537842 0.640625 
vn -0.796143 0.534912 0.282471 
vn -0.635742 -0.564453 0.526367 
vn -0.287842 -0.562012 0.775146 
vn -0.547607 0.537842 0.640625 
vn -0.287842 -0.562012 0.775146 
vn -0.154785 0.540283 0.826904 
vn -0.547607 0.537842 0.640625 
vn -0.287842 -0.562012 0.775146 
vn 0.138428 -0.561035 0.815918 
vn -0.154785 0.540283 0.826904 
vn 0.138428 -0.561035 0.815918 
vn 0.278320 0.541504 0.793213 
vn -0.154785 0.540283 0.826904 
vn 0.138428 -0.561035 0.815918 
vn 0.527588 -0.561279 0.637207 
vn 0.278320 0.541504 0.793213 
vn 0.527588 -0.561279 0.637207 
vn 0.637695 0.540771 0.548096 
vn 0.278320 0.541504 0.793213 
vn 0.774414 -0.562988 0.287598 
vn 0.527588 -0.561279 0.637207 
vn 0.000000 -1.000000 0.000000 
vn 0.812744 -0.565674 -0.137695 
vn 0.774414 -0.562988 0.287598 
vn 0.000000 -1.000000 0.000000 
vn 0.633545 -0.568359 -0.524658 
vn 0.812744 -0.565674 -0.137695 
vn 0.000000 -1.000000 0.000000 
vn 0.285889 -0.570312 -0.769775 
vn 0.633545 -0.568359 -0.524658 
vn 0.000000 -1.000000 0.000000 
vn -0.137207 -0.571533 -0.808838 
vn 0.285889 -0.570312 -0.769775 
vn 0.000000 -1.000000 0.000000 
vn -0.523193 -0.571289 -0.632080 
vn -0.137207 -0.571533 -0.808838 
vn 0.000000 -1.000000 0.000000 
vn -0.770264 -0.569824 -0.285889 
vn -0.523193 -0.571289 -0.632080 
vn 0.000000 -1.000000 0.000000 
vn -0.811768 -0.567139 0.137695 
vn -0.770264 -0.569824 -0.285889 
vn 0.000000 -1.000000 0.000000 
vn -0.635742 -0.564453 0.526367 
vn -0.811768 -0.567139 0.137695 
vn 0.000000 -1.000000 0.000000 
vn -0.287842 -0.562012 0.775146 
vn -0.635742 -0.564453 0.526367 
vn 0.000000 -1.000000 0.000000 
vn 0.138428 -0.561035 0.815918 
vn -0.287842 -0.562012 0.775146 
vn 0.000000 -1.000000 0.000000 
vn 0.527588 -0.561279 0.637207 
vn 0.138428 -0.561035 0.815918 
vn 0.000000 -1.000000 0.000000 
vt 0.857143 0.857143 
vt 0.984127 0.619048 
vt 0.492063 0.492063 
vt 0.984127 0.619048 
vt 0.984127 0.365079 
vt 0.492063 0.492063 
vt 0.984127 0.365079 
vt 0.857143 0.142857 
vt 0.492063 0.492063 
vt 0.857143 0.142857 
vt 0.634921 0.000000 
vt 0.492063 0.492063 
vt 0.634921 0.000000 
vt 0.365079 0.000000 
vt 0.492063 0.492063 
vt 0.365079 0.000000 
vt 0.142857 0.126984 
vt 0.492063 0.492063 
vt 0.142857 0.126984 
vt 0.015873 0.365079 
vt 0.492063 0.492063 
vt 0.015873 0.365079 
vt 0.015873 0.619048 
vt 0.492063 0.492063 
vt 0.015873 0.619048 
vt 0.142857 0.841270 
vt 0.492063 0.492063 
vt 0.142857 0.841270 
vt 0.365079 0.984127 
vt 0.492063 0.492063 
vt 0.365079 0.984127 
vt 0.619048 0.984127 
vt 0.492063 0.492063 
vt 0.619048 0.984127 
vt 0.857143 0.857143 
vt 0.492063 0.492063 
vt 0.031746 0.936508 
vt 0.031746 0.666667 
vt 0.000000 0.952381 
vt 0.031746 0.666667 
vt 0.000000 0.666667 
vt 0.000000 0.952381 
vt 0.031746 0.666667 
vt 0.031746 0.333333 
vt 0.000000 0.666667 
vt 0.031746 0.333333 
vt 0.000000 0.333333 
vt 0.000000 0.666667 
vt 0.031746 0.333333 
vt 0.031746 0.047619 
vt 0.000000 0.333333 
vt 0.031746 0.047619 
vt 0.000000 0.047619 
vt 0.000000 0.333333 
vt 0.031746 0.952381 
vt 0.031746 0.666667 
vt 0.000000 0.952381 
vt 0.031746 0.666667 
vt 0.000000 0.666667 
vt 0.000000 0.952381 
vt 0.031746 0.666667 
vt 0.031746 0.349206 
vt 0.000000 0.666667 
vt 0.031746 0.349206 
vt 0.000000 0.349206 
vt 0.000000 0.666667 
vt 0.031746 0.349206 
vt 0.031746 0.063492 
vt 0.000000 0.349206 
vt 0.031746 0.063492 
vt 0.000000 0.063492 
vt 0.000000 0.349206 
vt 0.031746 0.968254 
vt 0.031746 0.682540 
vt 0.000000 0.968254 
vt 0.031746 0.682540 
vt 0.000000 0.682540 
vt 0.000000 0.968254 
vt 0.031746 0.682540 
vt 0.031746 0.365079 
vt 0.000000 0.682540 
vt 0.031746 0.365079 
vt 0.000000 0.365079 
vt 0.000000 0.682540 
vt 0.031746 0.365079 
vt 0.031746 0.079365 
vt 0.000000 0.365079 
vt 0.031746 0.079365 
vt 0.000000 0.079365 
vt 0.000000 0.365079 
vt 0.031746 0.968254 
vt 0.031746 0.682540 
vt 0.000000 0.968254 
vt 0.031746 0.682540 
vt 0.000000 0.682540 
vt 0.000000 0.968254 
vt 0.031746 0.682540 
vt 0.031746 0.349206 
vt 0.000000 0.682540 
vt 0.031746 0.349206 
vt 0.000000 0.349206 
vt 0.000000 0.682540 
vt 0.031746 0.349206 
vt 0.031746 0.063492 
vt 0.000000 0.349206 
vt 0.031746 0.063492 
vt 0.015873 0.063492 
vt 0.000000 0.349206 
vt 0.015873 0.619048 
vt 0.142857 0.857143 
vt 0.507937 0.492063 
vt 0.015873 0.365079 
vt 0.015873 0.619048 
vt 0.507937 0.492063 
vt 0.142857 0.142857 
vt 0.015873 0.365079 
vt 0.507937 0.492063 
vt 0.365079 0.000000 
vt 0.142857 0.142857 
vt 0.507937 0.492063 
vt 0.634921 0.000000 
vt 0.365079 0.000000 
vt 0.507937 0.492063 
vt 0.857143 0.126984 
vt 0.634921 0.000000 
vt 0.507937 0.492063 
vt 0.984127 0.365079 
vt 0.857143 0.126984 
vt 0.507937 0.492063 
vt 0.984127 0.619048 
vt 0.984127 0.365079 
vt 0.507937 0.492063 
vt 0.857143 0.841270 
vt 0.984127 0.619048 
vt 0.507937 0.492063 
vt 0.634921 0.984127 
vt 0.857143 0.841270 
vt 0.507937 0.492063 
vt 0.380952 0.984127 
vt 0.634921 0.984127 
vt 0.507937 0.492063 
vt 0.142857 0.857143 
vt 0.380952 0.984127 
vt 0.507937 0.492063 
f 1/1/1 2/2/2 3/3/3
f 4/4/4 5/5/5 6/6/6
f 7/7/7 8/8/8 9/9/9
f 10/10/10 11/11/11 12/12/12
f 13/13/13 14/14/14 15/15/15
f 16/16/16 17/17/17 18/18/18
f 19/19/19 20/20/20 21/21/21
f 22/22/22 23/23/23 24/24/24
f 25/25/25 26/26/26 27/27/27
f 28/28/28 29/29/29 30/30/30
f 31/31/31 32/32/32 33/33/33
f 34/34/34 35/35/35 36/36/36
f 37/37/37 38/38/38 39/39/39
f 40/40/40 41/41/41 42/42/42
f 43/43/43 44/44/44 45/45/45
f 46/46/46 47/47/47 48/48/48
f 49/49/49 50/50/50 51/51/51
f 52/52/52 53/53/53 54/54/54
f 55/55/55 56/56/56 57/57/57
f 58/58/58 59/59/59 60/60/60
f 61/61/61 62/62/62 63/63/63
f 64/64/64 65/65/65 66/66/66
f 67/67/67 68/68/68 69/69/69
f 70/70/70 71/71/71 72/72/72
f 73/73/73 74/74/74 75/75/75
f 76/76/76 77/77/77 78/78/78
f 79/79/79 80/80/80 81/81/81
f 82/82/82 83/83/83 84/84/84
f 85/85/85 86/86/86 87/87/87
f 88/88/88 89/89/89 90/90/90
f 91/91/91 92/92/92 93/93/93
f 94/94/94 95/95/95 96/96/96
f 97/97/97 98/98/98 99/99/99
f 100/100/100 101/101/101 102/102/102
f 103/103/103 104/104/104 105/105/105
f 106/106/106 107/107/107 108/108/108
f 109/109/109 110/110/110 111/111/111
f 112/112/112 113/113/113 114/114/114
f 115/115/115 116/116/116 117/117/117
f 118/118/118 119/119/119 120/120/120
f 121/121/121 122/122/122 123/123/123
f 124/124/124 125/125/125 126/126/126
f 127/127/127 128/128/128 129/129/129
f 130/130/130 131/131/131 132/132/132
f 133/133/133 134/134/134 135/135/135
f 136/136/136 137/137/137 138/138/138
f 139/139/139 140/140/140 141/141/141
f 142/142/142 143/143/143 144/144/144
