v 19.000000 -19.000000 10.000000 
v 18.000000 -32.000000 6.000000 
v -16.000000 -17.000000 0.000000 
v -17.000000 -30.000000 -3.000000 
v -16.000000 -17.000000 0.000000 
v 18.000000 -32.000000 6.000000 
v 25.000000 -4.000000 23.000000 
v 19.000000 -19.000000 10.000000 
v -24.000000 2.000000 10.000000 
v -16.000000 -17.000000 0.000000 
v -24.000000 2.000000 10.000000 
v 19.000000 -19.000000 10.000000 
v 28.000000 15.000000 37.000000 
v 25.000000 -4.000000 23.000000 
v -19.000000 24.000000 25.000000 
v -24.000000 2.000000 10.000000 
v -19.000000 24.000000 25.000000 
v 25.000000 -4.000000 23.000000 
v 8.000000 -15.000000 -7.000000 
v 7.000000 -28.000000 -10.000000 
v -2.000000 -23.000000 26.000000 
v -3.000000 -36.000000 23.000000 
v -2.000000 -23.000000 26.000000 
v 7.000000 -28.000000 -10.000000 
v 11.000000 2.000000 -5.000000 
v 8.000000 -15.000000 -7.000000 
v -3.000000 -5.000000 42.000000 
v -2.000000 -23.000000 26.000000 
v -3.000000 -5.000000 42.000000 
v 8.000000 -15.000000 -7.000000 
v 14.000000 24.000000 3.000000 
v 11.000000 2.000000 -5.000000 
v 0.000000 18.000000 51.000000 
v -3.000000 -5.000000 42.000000 
v 0.000000 18.000000 51.000000 
v 11.000000 2.000000 -5.000000 
v -17.000000 -18.000000 6.000000 
v 15.000000 -14.000000 -11.000000 
v -18.000000 -31.000000 2.000000 
v 14.000000 -27.000000 -15.000000 
v -18.000000 -31.000000 2.000000 
v 15.000000 -14.000000 -11.000000 
v -28.000000 -8.000000 18.000000 
v 17.000000 0.000000 -5.000000 
v -17.000000 -18.000000 6.000000 
v 15.000000 -14.000000 -11.000000 
v -17.000000 -18.000000 6.000000 
v 17.000000 0.000000 -5.000000 
v -42.000000 12.000000 37.000000 
v 1.000000 23.000000 15.000000 
v -28.000000 -8.000000 18.000000 
v 17.000000 0.000000 -5.000000 
v -28.000000 -8.000000 18.000000 
v 1.000000 23.000000 15.000000 
v -10.000000 -13.000000 -13.000000 
v 8.000000 -21.000000 17.000000 
v -11.000000 -27.000000 -16.000000 
v 7.000000 -34.000000 14.000000 
v -11.000000 -27.000000 -16.000000 
v 8.000000 -21.000000 17.000000 
v -21.000000 0.000000 -13.000000 
v 3.000000 -8.000000 30.000000 
v -10.000000 -13.000000 -13.000000 
v 8.000000 -21.000000 17.000000 
v -10.000000 -13.000000 -13.000000 
v 3.000000 -8.000000 30.000000 
v -36.000000 21.000000 0.000000 
v -11.000000 16.000000 44.000000 
v -21.000000 0.000000 -13.000000 
v 3.000000 -8.000000 30.000000 
v -21.000000 0.000000 -13.000000 
v -11.000000 16.000000 44.000000 
v 15.000000 -14.000000 -10.000000 
v 16.000000 -27.000000 -15.000000 
v -16.000000 -19.000000 8.000000 
v -15.000000 -31.000000 3.000000 
v -16.000000 -19.000000 8.000000 
v 16.000000 -27.000000 -15.000000 
v 29.000000 0.000000 -17.000000 
v 15.000000 -14.000000 -10.000000 
v -15.000000 -3.000000 9.000000 
v -16.000000 -19.000000 8.000000 
v -15.000000 -3.000000 9.000000 
v 15.000000 -14.000000 -10.000000 
v 45.000000 26.000000 -21.000000 
v 29.000000 0.000000 -17.000000 
v 2.000000 26.000000 5.000000 
v -15.000000 -3.000000 9.000000 
v 2.000000 26.000000 5.000000 
v 29.000000 0.000000 -17.000000 
v -6.000000 -13.000000 -14.000000 
v -4.000000 -26.000000 -18.000000 
v 13.000000 -20.000000 16.000000 
v 15.000000 -33.000000 11.000000 
v 13.000000 -20.000000 16.000000 
v -4.000000 -26.000000 -18.000000 
v -2.000000 2.000000 -27.000000 
v -6.000000 -13.000000 -14.000000 
v 24.000000 -4.000000 16.000000 
v 13.000000 -20.000000 16.000000 
v 24.000000 -4.000000 16.000000 
v -6.000000 -13.000000 -14.000000 
v 9.000000 30.000000 -34.000000 
v -2.000000 2.000000 -27.000000 
v 35.000000 25.000000 8.000000 
v 24.000000 -4.000000 16.000000 
v 35.000000 25.000000 8.000000 
v -2.000000 2.000000 -27.000000 
v -13.000000 -13.000000 8.000000 
v -17.000000 -26.000000 7.000000 
v 13.000000 -20.000000 -16.000000 
v 8.000000 -33.000000 -17.000000 
v 13.000000 -20.000000 -16.000000 
v -17.000000 -26.000000 7.000000 
v -26.000000 2.000000 7.000000 
v -13.000000 -13.000000 8.000000 
v 11.000000 -4.000000 -26.000000 
v 13.000000 -20.000000 -16.000000 
v 11.000000 -4.000000 -26.000000 
v -13.000000 -13.000000 8.000000 
v -35.000000 30.000000 -2.000000 
v -26.000000 2.000000 7.000000 
v 2.000000 25.000000 -36.000000 
v 11.000000 -4.000000 -26.000000 
v 2.000000 25.000000 -36.000000 
v -26.000000 2.000000 7.000000 
v 14.000000 -13.000000 6.000000 
v 15.000000 -26.000000 11.000000 
v -20.000000 -20.000000 -3.000000 
v -19.000000 -33.000000 1.000000 
v -20.000000 -20.000000 -3.000000 
v 15.000000 -26.000000 11.000000 
v 20.000000 2.000000 18.000000 
v 14.000000 -13.000000 6.000000 
v -28.000000 -4.000000 3.000000 
v -20.000000 -20.000000 -3.000000 
v -28.000000 -4.000000 3.000000 
v 14.000000 -13.000000 6.000000 
v 15.000000 30.000000 31.000000 
v 20.000000 2.000000 18.000000 
v -32.000000 25.000000 16.000000 
v -28.000000 -4.000000 3.000000 
v -32.000000 25.000000 16.000000 
v 20.000000 2.000000 18.000000 
vn 0.297119 0.337646 -0.892822 
vn 0.292236 0.226562 -0.928955 
vn 0.292236 0.279541 -0.914551 
vn 0.292236 0.226562 -0.928955 
vn 0.292236 0.279541 -0.914551 
vn 0.292236 0.226562 -0.928955 
vn 0.308838 0.375732 -0.873535 
vn 0.297119 0.337646 -0.892822 
vn 0.300049 0.380859 -0.874512 
vn 0.292236 0.279541 -0.914551 
vn 0.300049 0.380859 -0.874512 
vn 0.297119 0.337646 -0.892822 
vn 0.315918 0.367920 -0.874268 
vn 0.308838 0.375732 -0.873535 
vn 0.309570 0.363525 -0.878418 
vn 0.300049 0.380859 -0.874512 
vn 0.309570 0.363525 -0.878418 
vn 0.308838 0.375732 -0.873535 
vn -0.955078 0.115723 -0.272705 
vn -0.955322 0.119141 -0.270020 
vn -0.955322 0.116211 -0.270752 
vn -0.955322 0.119141 -0.270020 
vn -0.955322 0.116211 -0.270752 
vn -0.955322 0.119141 -0.270020 
vn -0.952148 0.132812 -0.274902 
vn -0.955078 0.115723 -0.272705 
vn -0.954102 0.121582 -0.273438 
vn -0.955322 0.116211 -0.270752 
vn -0.954102 0.121582 -0.273438 
vn -0.955078 0.115723 -0.272705 
vn -0.949707 0.144775 -0.277100 
vn -0.952148 0.132812 -0.274902 
vn -0.951172 0.140625 -0.274658 
vn -0.954102 0.121582 -0.273438 
vn -0.951172 0.140625 -0.274658 
vn -0.952148 0.132812 -0.274902 
vn -0.494141 0.267578 -0.826904 
vn -0.492188 0.248047 -0.834229 
vn -0.492188 0.230957 -0.838867 
vn -0.492188 0.230957 -0.838867 
vn -0.492188 0.230957 -0.838867 
vn -0.492188 0.248047 -0.834229 
vn -0.499512 0.287842 -0.816895 
vn -0.495605 0.285645 -0.819824 
vn -0.494141 0.267578 -0.826904 
vn -0.492188 0.248047 -0.834229 
vn -0.494141 0.267578 -0.826904 
vn -0.495605 0.285645 -0.819824 
vn -0.503174 0.288086 -0.814453 
vn -0.500488 0.287109 -0.816650 
vn -0.499512 0.287842 -0.816895 
vn -0.495605 0.285645 -0.819824 
vn -0.499512 0.287842 -0.816895 
vn -0.500488 0.287109 -0.816650 
vn 0.852539 0.289307 -0.434814 
vn 0.869141 0.177734 -0.460938 
vn 0.869141 0.083008 -0.487061 
vn 0.869141 0.083008 -0.487061 
vn 0.869141 0.083008 -0.487061 
vn 0.869141 0.177734 -0.460938 
vn 0.807373 0.421143 -0.412842 
vn 0.825195 0.394775 -0.403320 
vn 0.852539 0.289307 -0.434814 
vn 0.869141 0.177734 -0.460938 
vn 0.852539 0.289307 -0.434814 
vn 0.825195 0.394775 -0.403320 
vn 0.790527 0.440674 -0.424805 
vn 0.803467 0.425293 -0.416260 
vn 0.807373 0.421143 -0.412842 
vn 0.825195 0.394775 -0.403320 
vn 0.807373 0.421143 -0.412842 
vn 0.803467 0.425293 -0.416260 
vn -0.524902 0.166016 -0.834717 
vn -0.522461 0.226318 -0.821777 
vn -0.522217 0.198730 -0.829102 
vn -0.522461 0.226318 -0.821777 
vn -0.522217 0.198730 -0.829102 
vn -0.522461 0.226318 -0.821777 
vn -0.528809 0.166992 -0.832031 
vn -0.524902 0.166016 -0.834717 
vn -0.525635 0.153076 -0.836670 
vn -0.522217 0.198730 -0.829102 
vn -0.525635 0.153076 -0.836670 
vn -0.524902 0.166016 -0.834717 
vn -0.529785 0.185059 -0.827637 
vn -0.528809 0.166992 -0.832031 
vn -0.527832 0.186279 -0.828369 
vn -0.525635 0.153076 -0.836670 
vn -0.527832 0.186279 -0.828369 
vn -0.528809 0.166992 -0.832031 
vn -0.835449 0.104248 0.539307 
vn -0.851562 -0.186035 0.489990 
vn -0.849365 -0.053955 0.524902 
vn -0.851562 -0.186035 0.489990 
vn -0.849365 -0.053955 0.524902 
vn -0.851562 -0.186035 0.489990 
vn -0.823730 0.226562 0.519531 
vn -0.835449 0.104248 0.539307 
vn -0.809814 0.225586 0.541260 
vn -0.849365 -0.053955 0.524902 
vn -0.809814 0.225586 0.541260 
vn -0.835449 0.104248 0.539307 
vn -0.838135 0.216309 0.500244 
vn -0.823730 0.226562 0.519531 
vn -0.833252 0.199951 0.515137 
vn -0.809814 0.225586 0.541260 
vn -0.833252 0.199951 0.515137 
vn -0.823730 0.226562 0.519531 
vn 0.741699 0.093994 0.663818 
vn 0.630371 -0.211914 0.746582 
vn 0.696777 -0.072510 0.713379 
vn 0.630371 -0.211914 0.746582 
vn 0.696777 -0.072510 0.713379 
vn 0.630371 -0.211914 0.746582 
vn 0.743652 0.218994 0.631348 
vn 0.741699 0.093994 0.663818 
vn 0.760010 0.220703 0.610840 
vn 0.696777 -0.072510 0.713379 
vn 0.760010 0.220703 0.610840 
vn 0.741699 0.093994 0.663818 
vn 0.727539 0.205566 0.654297 
vn 0.743652 0.218994 0.631348 
vn 0.737061 0.190430 0.648193 
vn 0.760010 0.220703 0.610840 
vn 0.737061 0.190430 0.648193 
vn 0.743652 0.218994 0.631348 
vn 0.230713 0.229248 -0.945557 
vn 0.344238 -0.053955 -0.937256 
vn 0.287842 0.078369 -0.954346 
vn 0.344238 -0.053955 -0.937256 
vn 0.287842 0.078369 -0.954346 
vn 0.344238 -0.053955 -0.937256 
vn 0.203613 0.345459 -0.915771 
vn 0.230713 0.229248 -0.945557 
vn 0.179932 0.346191 -0.920410 
vn 0.287842 0.078369 -0.954346 
vn 0.179932 0.346191 -0.920410 
vn 0.230713 0.229248 -0.945557 
vn 0.228271 0.336182 -0.913574 
vn 0.203613 0.345459 -0.915771 
vn 0.218018 0.324219 -0.920410 
vn 0.179932 0.346191 -0.920410 
vn 0.218018 0.324219 -0.920410 
vn 0.203613 0.345459 -0.915771 
vt 0.000000 0.015873 
vt 0.000000 -0.015873 
vt 1.000000 0.015873 
vt 1.000000 -0.015873 
vt 1.000000 0.015873 
vt 0.000000 -0.015873 
vt 0.000000 -0.015873 
vt 0.000000 0.015873 
vt 1.000000 -0.015873 
vt 1.000000 0.015873 
vt 1.000000 -0.015873 
vt 0.000000 0.015873 
vt 0.000000 1.000000 
vt 0.000000 -0.015873 
vt 1.000000 1.000000 
vt 1.000000 -0.015873 
vt 1.000000 1.000000 
vt 0.000000 -0.015873 
vt 0.000000 0.015873 
vt 0.000000 -0.015873 
vt 1.000000 0.015873 
vt 1.000000 -0.015873 
vt 1.000000 0.015873 
vt 0.000000 -0.015873 
vt 0.000000 -0.015873 
vt 0.000000 0.015873 
vt 1.000000 -0.015873 
vt 1.000000 0.015873 
vt 1.000000 -0.015873 
vt 0.000000 0.015873 
vt 0.000000 1.000000 
vt 0.000000 -0.015873 
vt 1.000000 1.000000 
vt 1.000000 -0.015873 
vt 1.000000 1.000000 
vt 0.000000 -0.015873 
vt 0.000000 0.015873 
vt 1.000000 0.015873 
vt 0.000000 -0.015873 
vt 1.000000 -0.015873 
vt 0.000000 -0.015873 
vt 1.000000 0.015873 
vt 0.000000 -0.015873 
vt 1.000000 -0.015873 
vt 0.000000 0.015873 
vt 1.000000 0.015873 
vt 0.000000 0.015873 
vt 1.000000 -0.015873 
vt 0.000000 1.000000 
vt 1.000000 1.000000 
vt 0.000000 -0.015873 
vt 1.000000 -0.015873 
vt 0.000000 -0.015873 
vt 1.000000 1.000000 
vt 0.000000 0.015873 
vt 1.000000 0.015873 
vt 0.000000 -0.015873 
vt 1.000000 -0.015873 
vt 0.000000 -0.015873 
vt 1.000000 0.015873 
vt 0.000000 -0.015873 
vt 1.000000 -0.015873 
vt 0.000000 0.015873 
vt 1.000000 0.015873 
vt 0.000000 0.015873 
vt 1.000000 -0.015873 
vt 0.000000 1.000000 
vt 1.000000 1.000000 
vt 0.000000 -0.015873 
vt 1.000000 -0.015873 
vt 0.000000 -0.015873 
vt 1.000000 1.000000 
vt 0.000000 0.015873 
vt 0.000000 -0.015873 
vt 1.000000 0.015873 
vt 1.000000 -0.015873 
vt 1.000000 0.015873 
vt 0.000000 -0.015873 
vt 0.000000 -0.015873 
vt 0.000000 0.015873 
vt 1.000000 -0.015873 
vt 1.000000 0.015873 
vt 1.000000 -0.015873 
vt 0.000000 0.015873 
vt 0.000000 1.000000 
vt 0.000000 -0.015873 
vt 1.000000 1.000000 
vt 1.000000 -0.015873 
vt 1.000000 1.000000 
vt 0.000000 -0.015873 
vt 0.000000 0.015873 
vt 0.000000 -0.015873 
vt 1.000000 0.015873 
vt 1.000000 -0.015873 
vt 1.000000 0.015873 
vt 0.000000 -0.015873 
vt 0.000000 -0.015873 
vt 0.000000 0.015873 
vt 1.000000 -0.015873 
vt 1.000000 0.015873 
vt 1.000000 -0.015873 
vt 0.000000 0.015873 
vt 0.000000 1.000000 
vt 0.000000 -0.015873 
vt 1.000000 1.000000 
vt 1.000000 -0.015873 
vt 1.000000 1.000000 
vt 0.000000 -0.015873 
vt 0.000000 0.015873 
vt 0.000000 -0.015873 
vt 1.000000 0.015873 
vt 1.000000 -0.015873 
vt 1.000000 0.015873 
vt 0.000000 -0.015873 
vt 0.000000 -0.015873 
vt 0.000000 0.015873 
vt 1.000000 -0.015873 
vt 1.000000 0.015873 
vt 1.000000 -0.015873 
vt 0.000000 0.015873 
vt 0.000000 1.000000 
vt 0.000000 -0.015873 
vt 1.000000 1.000000 
vt 1.000000 -0.015873 
vt 1.000000 1.000000 
vt 0.000000 -0.015873 
vt 0.000000 0.015873 
vt 0.000000 -0.015873 
vt 1.000000 0.015873 
vt 1.000000 -0.015873 
vt 1.000000 0.015873 
vt 0.000000 -0.015873 
vt 0.000000 -0.015873 
vt 0.000000 0.015873 
vt 1.000000 -0.015873 
vt 1.000000 0.015873 
vt 1.000000 -0.015873 
vt 0.000000 0.015873 
vt 0.000000 1.000000 
vt 0.000000 -0.015873 
vt 1.000000 1.000000 
vt 1.000000 -0.015873 
vt 1.000000 1.000000 
vt 0.000000 -0.015873 
f 1/1/1 2/2/2 3/3/3
f 4/4/4 5/5/5 6/6/6
f 7/7/7 8/8/8 9/9/9
f 10/10/10 11/11/11 12/12/12
f 13/13/13 14/14/14 15/15/15
f 16/16/16 17/17/17 18/18/18
f 19/19/19 20/20/20 21/21/21
f 22/22/22 23/23/23 24/24/24
f 25/25/25 26/26/26 27/27/27
f 28/28/28 29/29/29 30/30/30
f 31/31/31 32/32/32 33/33/33
f 34/34/34 35/35/35 36/36/36
f 37/37/37 38/38/38 39/39/39
f 40/40/40 41/41/41 42/42/42
f 43/43/43 44/44/44 45/45/45
f 46/46/46 47/47/47 48/48/48
f 49/49/49 50/50/50 51/51/51
f 52/52/52 53/53/53 54/54/54
f 55/55/55 56/56/56 57/57/57
f 58/58/58 59/59/59 60/60/60
f 61/61/61 62/62/62 63/63/63
f 64/64/64 65/65/65 66/66/66
f 67/67/67 68/68/68 69/69/69
f 70/70/70 71/71/71 72/72/72
f 73/73/73 74/74/74 75/75/75
f 76/76/76 77/77/77 78/78/78
f 79/79/79 80/80/80 81/81/81
f 82/82/82 83/83/83 84/84/84
f 85/85/85 86/86/86 87/87/87
f 88/88/88 89/89/89 90/90/90
f 91/91/91 92/92/92 93/93/93
f 94/94/94 95/95/95 96/96/96
f 97/97/97 98/98/98 99/99/99
f 100/100/100 101/101/101 102/102/102
f 103/103/103 104/104/104 105/105/105
f 106/106/106 107/107/107 108/108/108
f 109/109/109 110/110/110 111/111/111
f 112/112/112 113/113/113 114/114/114
f 115/115/115 116/116/116 117/117/117
f 118/118/118 119/119/119 120/120/120
f 121/121/121 122/122/122 123/123/123
f 124/124/124 125/125/125 126/126/126
f 127/127/127 128/128/128 129/129/129
f 130/130/130 131/131/131 132/132/132
f 133/133/133 134/134/134 135/135/135
f 136/136/136 137/137/137 138/138/138
f 139/139/139 140/140/140 141/141/141
f 142/142/142 143/143/143 144/144/144
