v -26.000000 52.000000 16.000000 
v 0.000000 52.000000 32.000000 
v 1.000000 65.000000 0.000000 
v -26.000000 52.000000 -15.000000 
v -26.000000 52.000000 16.000000 
v 1.000000 65.000000 0.000000 
v 0.000000 52.000000 -31.000000 
v -26.000000 52.000000 -15.000000 
v 1.000000 65.000000 0.000000 
v 28.000000 52.000000 -15.000000 
v 0.000000 52.000000 -31.000000 
v 1.000000 65.000000 0.000000 
v 28.000000 52.000000 16.000000 
v 28.000000 52.000000 -15.000000 
v 1.000000 65.000000 0.000000 
v 0.000000 52.000000 32.000000 
v 28.000000 52.000000 16.000000 
v 1.000000 65.000000 0.000000 
v -34.000000 19.000000 20.000000 
v 0.000000 19.000000 40.000000 
v 0.000000 52.000000 32.000000 
v -26.000000 52.000000 16.000000 
v -34.000000 19.000000 20.000000 
v 0.000000 52.000000 32.000000 
v -34.000000 19.000000 -19.000000 
v -34.000000 19.000000 20.000000 
v -26.000000 52.000000 16.000000 
v -26.000000 52.000000 -15.000000 
v -34.000000 19.000000 -19.000000 
v -26.000000 52.000000 16.000000 
v 0.000000 19.000000 -39.000000 
v -34.000000 19.000000 -19.000000 
v -26.000000 52.000000 -15.000000 
v 0.000000 52.000000 -31.000000 
v 0.000000 19.000000 -39.000000 
v -26.000000 52.000000 -15.000000 
v 35.000000 19.000000 -19.000000 
v 0.000000 19.000000 -39.000000 
v 0.000000 52.000000 -31.000000 
v 28.000000 52.000000 -15.000000 
v 35.000000 19.000000 -19.000000 
v 0.000000 52.000000 -31.000000 
v 35.000000 19.000000 20.000000 
v 35.000000 19.000000 -19.000000 
v 28.000000 52.000000 -15.000000 
v 28.000000 52.000000 16.000000 
v 35.000000 19.000000 20.000000 
v 28.000000 52.000000 -15.000000 
v 0.000000 19.000000 40.000000 
v 35.000000 19.000000 20.000000 
v 28.000000 52.000000 16.000000 
v 0.000000 52.000000 32.000000 
v 0.000000 19.000000 40.000000 
v 28.000000 52.000000 16.000000 
v -24.000000 -7.000000 -18.000000 
v -24.000000 -7.000000 14.000000 
v -42.000000 25.000000 29.000000 
v -42.000000 25.000000 29.000000 
v -42.000000 25.000000 -33.000000 
v -24.000000 -7.000000 -18.000000 
v -42.000000 25.000000 -33.000000 
v -42.000000 25.000000 29.000000 
v -54.000000 32.000000 19.000000 
v -54.000000 32.000000 19.000000 
v -54.000000 32.000000 -23.000000 
v -42.000000 25.000000 -33.000000 
v 4.000000 25.000000 45.000000 
v 17.000000 0.000000 2.000000 
v -1.000000 0.000000 21.000000 
v 17.000000 0.000000 2.000000 
v 4.000000 25.000000 45.000000 
v 41.000000 25.000000 8.000000 
v 25.000000 34.000000 53.000000 
v 41.000000 25.000000 8.000000 
v 4.000000 25.000000 45.000000 
v 41.000000 25.000000 8.000000 
v 25.000000 34.000000 53.000000 
v 50.000000 34.000000 29.000000 
v 20.000000 0.000000 1.000000 
v 7.000000 25.000000 -40.000000 
v 1.000000 0.000000 -17.000000 
v 7.000000 25.000000 -40.000000 
v 20.000000 0.000000 1.000000 
v 44.000000 25.000000 -4.000000 
v 44.000000 25.000000 -4.000000 
v 28.000000 34.000000 -49.000000 
v 7.000000 25.000000 -40.000000 
v 28.000000 34.000000 -49.000000 
v 44.000000 25.000000 -4.000000 
v 53.000000 34.000000 -25.000000 
v 0.000000 0.000000 -18.000000 
v -43.000000 25.000000 -5.000000 
v -19.000000 0.000000 0.000000 
v -43.000000 25.000000 -5.000000 
v 0.000000 0.000000 -18.000000 
v -6.000000 25.000000 -42.000000 
v -6.000000 25.000000 -42.000000 
v -52.000000 34.000000 -26.000000 
v -43.000000 25.000000 -5.000000 
v -52.000000 34.000000 -26.000000 
v -6.000000 25.000000 -42.000000 
v -27.000000 34.000000 -51.000000 
v -43.000000 25.000000 8.000000 
v 0.000000 0.000000 21.000000 
v -19.000000 0.000000 2.000000 
v 0.000000 0.000000 21.000000 
v -43.000000 25.000000 8.000000 
v -6.000000 25.000000 45.000000 
v -52.000000 34.000000 29.000000 
v -6.000000 25.000000 45.000000 
v -43.000000 25.000000 8.000000 
v -6.000000 25.000000 45.000000 
v -52.000000 34.000000 29.000000 
v -27.000000 34.000000 53.000000 
v 44.000000 24.000000 27.000000 
v 28.000000 -4.000000 -13.000000 
v 28.000000 -4.000000 14.000000 
v 28.000000 -4.000000 -13.000000 
v 44.000000 24.000000 27.000000 
v 44.000000 24.000000 -26.000000 
v 53.000000 30.000000 18.000000 
v 44.000000 24.000000 -26.000000 
v 44.000000 24.000000 27.000000 
v 44.000000 24.000000 -26.000000 
v 53.000000 30.000000 18.000000 
v 53.000000 30.000000 -17.000000 
v 14.000000 -6.000000 -23.000000 
v -17.000000 -6.000000 -23.000000 
v -32.000000 27.000000 -39.000000 
v -32.000000 27.000000 -39.000000 
v 29.000000 27.000000 -39.000000 
v 14.000000 -6.000000 -23.000000 
v 29.000000 27.000000 -39.000000 
v -32.000000 27.000000 -39.000000 
v -22.000000 34.000000 -57.000000 
v -22.000000 34.000000 -57.000000 
v 19.000000 34.000000 -57.000000 
v 29.000000 27.000000 -39.000000 
v -30.000000 26.000000 42.000000 
v 12.000000 -4.000000 24.000000 
v -17.000000 -4.000000 24.000000 
v 12.000000 -4.000000 24.000000 
v -30.000000 26.000000 42.000000 
v 25.000000 26.000000 42.000000 
v -21.000000 32.000000 59.000000 
v 25.000000 26.000000 42.000000 
v -30.000000 26.000000 42.000000 
v 25.000000 26.000000 42.000000 
v -21.000000 32.000000 59.000000 
v 16.000000 32.000000 59.000000 
vn -0.748291 0.593262 0.296387 
vn -0.116699 0.591309 0.797852 
vn 0.003906 0.999756 0.000000 
vn -0.630371 0.593262 -0.500244 
vn -0.748291 0.593262 0.296387 
vn 0.003906 0.999756 0.000000 
vn 0.118408 0.591309 -0.797607 
vn -0.630371 0.593262 -0.500244 
vn 0.003906 0.999756 0.000000 
vn 0.750977 0.589355 -0.297363 
vn 0.118408 0.591309 -0.797607 
vn 0.003906 0.999756 0.000000 
vn 0.633545 0.589355 0.500977 
vn 0.750977 0.589355 -0.297363 
vn 0.003906 0.999756 0.000000 
vn -0.116699 0.591309 0.797852 
vn 0.633545 0.589355 0.500977 
vn 0.003906 0.999756 0.000000 
vn -0.731934 0.248779 0.634033 
vn 0.182861 0.248779 0.950928 
vn -0.116699 0.591309 0.797852 
vn -0.748291 0.593262 0.296387 
vn -0.731934 0.248779 0.634033 
vn -0.116699 0.591309 0.797852 
vn -0.915039 0.248779 -0.316895 
vn -0.731934 0.248779 0.634033 
vn -0.748291 0.593262 0.296387 
vn -0.630371 0.593262 -0.500244 
vn -0.915039 0.248779 -0.316895 
vn -0.748291 0.593262 0.296387 
vn -0.182861 0.248779 -0.950928 
vn -0.915039 0.248779 -0.316895 
vn -0.630371 0.593262 -0.500244 
vn 0.118408 0.591309 -0.797607 
vn -0.182861 0.248779 -0.950928 
vn -0.630371 0.593262 -0.500244 
vn 0.731934 0.248779 -0.634033 
vn -0.182861 0.248779 -0.950928 
vn 0.118408 0.591309 -0.797607 
vn 0.750977 0.589355 -0.297363 
vn 0.731934 0.248779 -0.634033 
vn 0.118408 0.591309 -0.797607 
vn 0.915039 0.248779 0.316895 
vn 0.731934 0.248779 -0.634033 
vn 0.750977 0.589355 -0.297363 
vn 0.633545 0.589355 0.500977 
vn 0.915039 0.248779 0.316895 
vn 0.750977 0.589355 -0.297363 
vn 0.182861 0.248779 0.950928 
vn 0.915039 0.248779 0.316895 
vn 0.633545 0.589355 0.500977 
vn -0.116699 0.591309 0.797852 
vn 0.182861 0.248779 0.950928 
vn 0.633545 0.589355 0.500977 
vn -0.874023 -0.485596 0.000000 
vn -0.874023 -0.485596 0.000000 
vn -0.772217 -0.635010 0.000000 
vn -0.772217 -0.635010 0.000000 
vn -0.640381 -0.767822 0.000000 
vn -0.874023 -0.485596 0.000000 
vn -0.640381 -0.767822 0.000000 
vn -0.772217 -0.635010 0.000000 
vn -0.491455 -0.870605 0.000000 
vn -0.491455 -0.870605 0.000000 
vn -0.491455 -0.870605 0.000000 
vn -0.640381 -0.767822 0.000000 
vn -0.465332 0.752686 -0.465332 
vn -0.545166 0.636475 -0.545166 
vn -0.545166 0.636475 -0.545166 
vn -0.545166 0.636475 -0.545166 
vn -0.465332 0.752686 -0.465332 
vn -0.370605 0.851562 -0.370605 
vn -0.268311 0.925049 -0.268311 
vn -0.370605 0.851562 -0.370605 
vn -0.465332 0.752686 -0.465332 
vn -0.370605 0.851562 -0.370605 
vn -0.268311 0.925049 -0.268311 
vn -0.268311 0.925049 -0.268311 
vn -0.545166 0.636475 0.545166 
vn -0.465332 0.752686 0.465332 
vn -0.545166 0.636475 0.545166 
vn -0.465332 0.752686 0.465332 
vn -0.545166 0.636475 0.545166 
vn -0.370605 0.851562 0.370605 
vn -0.370605 0.851562 0.370605 
vn -0.268311 0.925049 0.268311 
vn -0.465332 0.752686 0.465332 
vn -0.268311 0.925049 0.268311 
vn -0.370605 0.851562 0.370605 
vn -0.268311 0.925049 0.268311 
vn 0.545166 0.636475 0.545166 
vn 0.465332 0.752686 0.465332 
vn 0.545166 0.636475 0.545166 
vn 0.465332 0.752686 0.465332 
vn 0.545166 0.636475 0.545166 
vn 0.370605 0.851562 0.370605 
vn 0.370605 0.851562 0.370605 
vn 0.268311 0.925049 0.268311 
vn 0.465332 0.752686 0.465332 
vn 0.268311 0.925049 0.268311 
vn 0.370605 0.851562 0.370605 
vn 0.268311 0.925049 0.268311 
vn 0.465332 0.752686 -0.465332 
vn 0.545166 0.636475 -0.545166 
vn 0.545166 0.636475 -0.545166 
vn 0.545166 0.636475 -0.545166 
vn 0.465332 0.752686 -0.465332 
vn 0.370605 0.851562 -0.370605 
vn 0.268311 0.925049 -0.268311 
vn 0.370605 0.851562 -0.370605 
vn 0.465332 0.752686 -0.465332 
vn 0.370605 0.851562 -0.370605 
vn 0.268311 0.925049 -0.268311 
vn 0.268311 0.925049 -0.268311 
vn -0.789307 0.613770 0.000000 
vn -0.876465 0.480957 0.000000 
vn -0.876465 0.480957 0.000000 
vn -0.876465 0.480957 0.000000 
vn -0.789307 0.613770 0.000000 
vn -0.679199 0.733887 0.000000 
vn -0.554443 0.832031 0.000000 
vn -0.679199 0.733887 0.000000 
vn -0.789307 0.613770 0.000000 
vn -0.679199 0.733887 0.000000 
vn -0.554443 0.832031 0.000000 
vn -0.554443 0.832031 0.000000 
vn 0.000000 -0.441895 -0.896973 
vn 0.000000 -0.441895 -0.896973 
vn 0.000000 -0.648682 -0.760742 
vn 0.000000 -0.648682 -0.760742 
vn 0.000000 -0.825684 -0.563965 
vn 0.000000 -0.441895 -0.896973 
vn 0.000000 -0.825684 -0.563965 
vn 0.000000 -0.648682 -0.760742 
vn 0.000000 -0.938965 -0.343750 
vn 0.000000 -0.938965 -0.343750 
vn 0.000000 -0.938965 -0.343750 
vn 0.000000 -0.825684 -0.563965 
vn 0.000000 0.676758 -0.736084 
vn 0.000000 0.479980 -0.877197 
vn 0.000000 0.479980 -0.877197 
vn 0.000000 0.479980 -0.877197 
vn 0.000000 0.676758 -0.736084 
vn 0.000000 0.842529 -0.538574 
vn 0.000000 0.947266 -0.320312 
vn 0.000000 0.842529 -0.538574 
vn 0.000000 0.676758 -0.736084 
vn 0.000000 0.842529 -0.538574 
vn 0.000000 0.947266 -0.320312 
vn 0.000000 0.947266 -0.320312 
vt 0.129032 0.809524 
vt 0.000000 0.809524 
vt 0.483871 1.000000 
vt 0.322581 0.809524 
vt 0.129032 0.809524 
vt 0.483871 1.000000 
vt 0.483871 0.809524 
vt 0.322581 0.809524 
vt 0.483871 1.000000 
vt 0.645161 0.809524 
vt 0.483871 0.809524 
vt 0.483871 1.000000 
vt 0.838710 0.809524 
vt 0.645161 0.809524 
vt 0.483871 1.000000 
vt 1.000000 0.809524 
vt 0.838710 0.809524 
vt 0.483871 1.000000 
vt 0.129032 0.539683 
vt 0.000000 0.539683 
vt 0.000000 0.809524 
vt 0.129032 0.809524 
vt 0.129032 0.539683 
vt 0.000000 0.809524 
vt 0.322581 0.539683 
vt 0.129032 0.539683 
vt 0.129032 0.809524 
vt 0.322581 0.809524 
vt 0.322581 0.539683 
vt 0.129032 0.809524 
vt 0.483871 0.539683 
vt 0.322581 0.539683 
vt 0.322581 0.809524 
vt 0.483871 0.809524 
vt 0.483871 0.539683 
vt 0.322581 0.809524 
vt 0.645161 0.539683 
vt 0.483871 0.539683 
vt 0.483871 0.809524 
vt 0.645161 0.809524 
vt 0.645161 0.539683 
vt 0.483871 0.809524 
vt 0.838710 0.539683 
vt 0.645161 0.539683 
vt 0.645161 0.809524 
vt 0.838710 0.809524 
vt 0.838710 0.539683 
vt 0.645161 0.809524 
vt 1.000000 0.539683 
vt 0.838710 0.539683 
vt 0.838710 0.809524 
vt 1.000000 0.809524 
vt 1.000000 0.539683 
vt 0.838710 0.809524 
vt 0.935484 0.000000 
vt 0.032258 0.000000 
vt 0.000000 0.269841 
vt 0.000000 0.269841 
vt 1.000000 0.269841 
vt 0.935484 0.000000 
vt 1.000000 0.269841 
vt 0.000000 0.269841 
vt 0.129032 0.507937 
vt 0.129032 0.507937 
vt 0.806452 0.507937 
vt 1.000000 0.269841 
vt 0.000000 0.269841 
vt 0.935484 0.000000 
vt 0.032258 0.000000 
vt 0.935484 0.000000 
vt 0.000000 0.269841 
vt 1.000000 0.269841 
vt 0.129032 0.507937 
vt 1.000000 0.269841 
vt 0.000000 0.269841 
vt 1.000000 0.269841 
vt 0.129032 0.507937 
vt 0.806452 0.507937 
vt 0.935484 0.000000 
vt 0.000000 0.269841 
vt 0.032258 0.000000 
vt 0.000000 0.269841 
vt 0.935484 0.000000 
vt 1.000000 0.269841 
vt 1.000000 0.269841 
vt 0.129032 0.507937 
vt 0.000000 0.269841 
vt 0.129032 0.507937 
vt 1.000000 0.269841 
vt 0.806452 0.507937 
vt 0.935484 0.000000 
vt 0.000000 0.269841 
vt 0.032258 0.000000 
vt 0.000000 0.269841 
vt 0.935484 0.000000 
vt 1.000000 0.269841 
vt 1.000000 0.269841 
vt 0.129032 0.507937 
vt 0.000000 0.269841 
vt 0.129032 0.507937 
vt 1.000000 0.269841 
vt 0.806452 0.507937 
vt 0.000000 0.269841 
vt 0.935484 0.000000 
vt 0.032258 0.000000 
vt 0.935484 0.000000 
vt 0.000000 0.269841 
vt 1.000000 0.269841 
vt 0.129032 0.507937 
vt 1.000000 0.269841 
vt 0.000000 0.269841 
vt 1.000000 0.269841 
vt 0.129032 0.507937 
vt 0.806452 0.507937 
vt 0.000000 0.269841 
vt 0.935484 0.000000 
vt 0.032258 0.000000 
vt 0.935484 0.000000 
vt 0.000000 0.269841 
vt 1.000000 0.269841 
vt 0.129032 0.507937 
vt 1.000000 0.269841 
vt 0.000000 0.269841 
vt 1.000000 0.269841 
vt 0.129032 0.507937 
vt 0.806452 0.507937 
vt 0.935484 0.000000 
vt 0.032258 0.000000 
vt 0.000000 0.269841 
vt 0.000000 0.269841 
vt 1.000000 0.269841 
vt 0.935484 0.000000 
vt 1.000000 0.269841 
vt 0.000000 0.269841 
vt 0.129032 0.507937 
vt 0.129032 0.507937 
vt 0.806452 0.507937 
vt 1.000000 0.269841 
vt 0.000000 0.269841 
vt 0.935484 0.000000 
vt 0.032258 0.000000 
vt 0.935484 0.000000 
vt 0.000000 0.269841 
vt 1.000000 0.269841 
vt 0.129032 0.507937 
vt 1.000000 0.269841 
vt 0.000000 0.269841 
vt 1.000000 0.269841 
vt 0.129032 0.507937 
vt 0.806452 0.507937 
f 1/1/1 2/2/2 3/3/3
f 4/4/4 5/5/5 6/6/6
f 7/7/7 8/8/8 9/9/9
f 10/10/10 11/11/11 12/12/12
f 13/13/13 14/14/14 15/15/15
f 16/16/16 17/17/17 18/18/18
f 19/19/19 20/20/20 21/21/21
f 22/22/22 23/23/23 24/24/24
f 25/25/25 26/26/26 27/27/27
f 28/28/28 29/29/29 30/30/30
f 31/31/31 32/32/32 33/33/33
f 34/34/34 35/35/35 36/36/36
f 37/37/37 38/38/38 39/39/39
f 40/40/40 41/41/41 42/42/42
f 43/43/43 44/44/44 45/45/45
f 46/46/46 47/47/47 48/48/48
f 49/49/49 50/50/50 51/51/51
f 52/52/52 53/53/53 54/54/54
f 55/55/55 56/56/56 57/57/57
f 58/58/58 59/59/59 60/60/60
f 61/61/61 62/62/62 63/63/63
f 64/64/64 65/65/65 66/66/66
f 67/67/67 68/68/68 69/69/69
f 70/70/70 71/71/71 72/72/72
f 73/73/73 74/74/74 75/75/75
f 76/76/76 77/77/77 78/78/78
f 79/79/79 80/80/80 81/81/81
f 82/82/82 83/83/83 84/84/84
f 85/85/85 86/86/86 87/87/87
f 88/88/88 89/89/89 90/90/90
f 91/91/91 92/92/92 93/93/93
f 94/94/94 95/95/95 96/96/96
f 97/97/97 98/98/98 99/99/99
f 100/100/100 101/101/101 102/102/102
f 103/103/103 104/104/104 105/105/105
f 106/106/106 107/107/107 108/108/108
f 109/109/109 110/110/110 111/111/111
f 112/112/112 113/113/113 114/114/114
f 115/115/115 116/116/116 117/117/117
f 118/118/118 119/119/119 120/120/120
f 121/121/121 122/122/122 123/123/123
f 124/124/124 125/125/125 126/126/126
f 127/127/127 128/128/128 129/129/129
f 130/130/130 131/131/131 132/132/132
f 133/133/133 134/134/134 135/135/135
f 136/136/136 137/137/137 138/138/138
f 139/139/139 140/140/140 141/141/141
f 142/142/142 143/143/143 144/144/144
f 145/145/145 146/146/146 147/147/147
f 148/148/148 149/149/149 150/150/150
