v 6.000000 -5.000000 38.000000 
v -25.000000 -16.000000 38.000000 
v -25.000000 -16.000000 -38.000000 
v -25.000000 -16.000000 -38.000000 
v 6.000000 -5.000000 -38.000000 
v 6.000000 -5.000000 38.000000 
v 29.000000 -10.000000 38.000000 
v 6.000000 -5.000000 38.000000 
v 6.000000 -5.000000 -38.000000 
v 6.000000 -5.000000 -38.000000 
v 29.000000 -10.000000 -38.000000 
v 29.000000 -10.000000 38.000000 
v 6.000000 16.000000 38.000000 
v 6.000000 16.000000 -38.000000 
v -34.000000 3.000000 -38.000000 
v -34.000000 3.000000 -38.000000 
v -34.000000 3.000000 38.000000 
v 6.000000 16.000000 38.000000 
v 34.000000 10.000000 38.000000 
v 34.000000 10.000000 -38.000000 
v 6.000000 16.000000 -38.000000 
v 6.000000 16.000000 -38.000000 
v 6.000000 16.000000 38.000000 
v 34.000000 10.000000 38.000000 
v 6.000000 16.000000 -38.000000 
v 6.000000 -5.000000 -38.000000 
v -25.000000 -16.000000 -38.000000 
v -25.000000 -16.000000 -38.000000 
v -34.000000 3.000000 -38.000000 
v 6.000000 16.000000 -38.000000 
v 34.000000 10.000000 -38.000000 
v 29.000000 -10.000000 -38.000000 
v 6.000000 -5.000000 -38.000000 
v 6.000000 -5.000000 -38.000000 
v 6.000000 16.000000 -38.000000 
v 34.000000 10.000000 -38.000000 
v 34.000000 10.000000 38.000000 
v 29.000000 -10.000000 38.000000 
v 29.000000 -10.000000 -38.000000 
v 29.000000 -10.000000 -38.000000 
v 34.000000 10.000000 -38.000000 
v 34.000000 10.000000 38.000000 
v 6.000000 16.000000 38.000000 
v 6.000000 -5.000000 38.000000 
v 29.000000 -10.000000 38.000000 
v 29.000000 -10.000000 38.000000 
v 34.000000 10.000000 38.000000 
v 6.000000 16.000000 38.000000 
v -34.000000 3.000000 38.000000 
v -25.000000 -16.000000 38.000000 
v 6.000000 -5.000000 38.000000 
v 6.000000 -5.000000 38.000000 
v 6.000000 16.000000 38.000000 
v -34.000000 3.000000 38.000000 
vn 0.368896 -0.929443 0.000000 
vn 0.722900 -0.690674 0.000000 
vn 0.722900 -0.690674 0.000000 
vn 0.722900 -0.690674 0.000000 
vn -0.177734 -0.983887 0.000000 
vn 0.368896 -0.929443 0.000000 
vn -0.572021 -0.820068 0.000000 
vn 0.368896 -0.929443 0.000000 
vn -0.177734 -0.983887 0.000000 
vn -0.177734 -0.983887 0.000000 
vn -0.572021 -0.820068 0.000000 
vn -0.572021 -0.820068 0.000000 
vn -0.349854 0.936523 0.000000 
vn 0.157227 0.987549 0.000000 
vn -0.695312 0.718506 0.000000 
vn -0.695312 0.718506 0.000000 
vn -0.695312 0.718506 0.000000 
vn -0.349854 0.936523 0.000000 
vn 0.539062 0.842041 0.000000 
vn 0.539062 0.842041 0.000000 
vn 0.157227 0.987549 0.000000 
vn 0.157227 0.987549 0.000000 
vn -0.349854 0.936523 0.000000 
vn 0.539062 0.842041 0.000000 
vn 0.000000 0.000000 -1.000000 
vn 0.000000 0.000000 -1.000000 
vn 0.000000 0.000000 -1.000000 
vn 0.000000 0.000000 -1.000000 
vn 0.000000 0.000000 -1.000000 
vn 0.000000 0.000000 -1.000000 
vn 0.000000 0.000000 -1.000000 
vn 0.000000 0.000000 -1.000000 
vn 0.000000 0.000000 -1.000000 
vn 0.000000 0.000000 -1.000000 
vn 0.000000 0.000000 -1.000000 
vn 0.000000 0.000000 -1.000000 
vn 0.997559 -0.069580 0.000000 
vn 0.997559 -0.069580 0.000000 
vn 0.997559 -0.069580 0.000000 
vn 0.997559 -0.069580 0.000000 
vn 0.997559 -0.069580 0.000000 
vn 0.997559 -0.069580 0.000000 
vn 0.000000 0.000000 1.000000 
vn 0.000000 0.000000 1.000000 
vn 0.000000 0.000000 1.000000 
vn 0.000000 0.000000 1.000000 
vn 0.000000 0.000000 1.000000 
vn 0.000000 0.000000 1.000000 
vn 0.000000 0.000000 1.000000 
vn 0.000000 0.000000 1.000000 
vn 0.000000 0.000000 1.000000 
vn 0.000000 0.000000 1.000000 
vn 0.000000 0.000000 1.000000 
vn 0.000000 0.000000 1.000000 
vt 0.349206 1.000000 
vt 1.000000 1.000000 
vt 1.000000 -0.015873 
vt 1.000000 -0.015873 
vt 0.349206 -0.015873 
vt 0.349206 1.000000 
vt 0.000000 1.000000 
vt 0.349206 1.000000 
vt 0.349206 -0.015873 
vt 0.349206 -0.015873 
vt 0.000000 -0.015873 
vt 0.000000 1.000000 
vt 0.746032 1.000000 
vt 0.746032 -0.015873 
vt 1.000000 -0.015873 
vt 1.000000 -0.015873 
vt 1.000000 1.000000 
vt 0.746032 1.000000 
vt 1.000000 1.000000 
vt 1.000000 -0.015873 
vt 0.746032 -0.015873 
vt 0.746032 -0.015873 
vt 0.746032 1.000000 
vt 1.000000 1.000000 
vt 0.380952 1.000000 
vt 0.380952 -0.015873 
vt 0.984127 -0.015873 
vt 0.984127 -0.015873 
vt 0.984127 1.000000 
vt 0.380952 1.000000 
vt 0.000000 1.000000 
vt 0.000000 -0.015873 
vt 0.380952 -0.015873 
vt 0.380952 -0.015873 
vt 0.380952 1.000000 
vt 0.000000 1.000000 
vt 1.000000 1.000000 
vt 1.000000 -0.015873 
vt 0.000000 -0.015873 
vt 0.000000 -0.015873 
vt 0.000000 1.000000 
vt 1.000000 1.000000 
vt 0.238095 1.000000 
vt 0.238095 -0.015873 
vt 0.000000 -0.015873 
vt 0.000000 -0.015873 
vt 0.000000 1.000000 
vt 0.238095 1.000000 
vt 0.984127 1.000000 
vt 0.984127 -0.015873 
vt 0.238095 -0.015873 
vt 0.238095 -0.015873 
vt 0.238095 1.000000 
vt 0.984127 1.000000 
f 1/1/1 2/2/2 3/3/3
f 4/4/4 5/5/5 6/6/6
f 7/7/7 8/8/8 9/9/9
f 10/10/10 11/11/11 12/12/12
f 13/13/13 14/14/14 15/15/15
f 16/16/16 17/17/17 18/18/18
f 19/19/19 20/20/20 21/21/21
f 22/22/22 23/23/23 24/24/24
f 25/25/25 26/26/26 27/27/27
f 28/28/28 29/29/29 30/30/30
f 31/31/31 32/32/32 33/33/33
f 34/34/34 35/35/35 36/36/36
f 37/37/37 38/38/38 39/39/39
f 40/40/40 41/41/41 42/42/42
f 43/43/43 44/44/44 45/45/45
f 46/46/46 47/47/47 48/48/48
f 49/49/49 50/50/50 51/51/51
f 52/52/52 53/53/53 54/54/54
