v -34.000000 0.000000 0.000000 
v 34.000000 0.000000 -24.000000 
v 34.000000 0.000000 24.000000 
v 34.000000 49.000000 24.000000 
v 34.000000 49.000000 -24.000000 
v -34.000000 49.000000 0.000000 
v 34.000000 49.000000 -24.000000 
v 34.000000 0.000000 -24.000000 
v -34.000000 0.000000 0.000000 
v -34.000000 0.000000 0.000000 
v -34.000000 49.000000 0.000000 
v 34.000000 49.000000 -24.000000 
v 34.000000 49.000000 24.000000 
v 34.000000 0.000000 24.000000 
v 34.000000 0.000000 -24.000000 
v 34.000000 0.000000 -24.000000 
v 34.000000 49.000000 -24.000000 
v 34.000000 49.000000 24.000000 
v -34.000000 49.000000 0.000000 
v -34.000000 0.000000 0.000000 
v 34.000000 0.000000 24.000000 
v 34.000000 0.000000 24.000000 
v 34.000000 49.000000 24.000000 
v -34.000000 49.000000 0.000000 
v 13.000000 67.000000 5.000000 
v 22.000000 65.000000 11.000000 
v 25.000000 79.000000 0.000000 
v 13.000000 67.000000 -5.000000 
v 13.000000 67.000000 5.000000 
v 25.000000 79.000000 0.000000 
v 22.000000 65.000000 -10.000000 
v 13.000000 67.000000 -5.000000 
v 25.000000 79.000000 0.000000 
v 31.000000 63.000000 -5.000000 
v 22.000000 65.000000 -10.000000 
v 25.000000 79.000000 0.000000 
v 31.000000 63.000000 5.000000 
v 31.000000 63.000000 -5.000000 
v 25.000000 79.000000 0.000000 
v 22.000000 65.000000 11.000000 
v 31.000000 63.000000 5.000000 
v 25.000000 79.000000 0.000000 
v 7.000000 49.000000 6.000000 
v 18.000000 47.000000 13.000000 
v 22.000000 65.000000 11.000000 
v 13.000000 67.000000 5.000000 
v 7.000000 49.000000 6.000000 
v 22.000000 65.000000 11.000000 
v 7.000000 49.000000 -6.000000 
v 7.000000 49.000000 6.000000 
v 13.000000 67.000000 5.000000 
v 13.000000 67.000000 -5.000000 
v 7.000000 49.000000 -6.000000 
v 13.000000 67.000000 5.000000 
v 18.000000 47.000000 -12.000000 
v 7.000000 49.000000 -6.000000 
v 13.000000 67.000000 -5.000000 
v 22.000000 65.000000 -10.000000 
v 18.000000 47.000000 -12.000000 
v 13.000000 67.000000 -5.000000 
v 29.000000 45.000000 -6.000000 
v 18.000000 47.000000 -12.000000 
v 22.000000 65.000000 -10.000000 
v 31.000000 63.000000 -5.000000 
v 29.000000 45.000000 -6.000000 
v 22.000000 65.000000 -10.000000 
v 29.000000 45.000000 6.000000 
v 29.000000 45.000000 -6.000000 
v 31.000000 63.000000 -5.000000 
v 31.000000 63.000000 5.000000 
v 29.000000 45.000000 6.000000 
v 31.000000 63.000000 -5.000000 
v 18.000000 47.000000 13.000000 
v 29.000000 45.000000 6.000000 
v 31.000000 63.000000 5.000000 
v 22.000000 65.000000 11.000000 
v 18.000000 47.000000 13.000000 
v 31.000000 63.000000 5.000000 
vn 0.000000 -1.000000 0.000000 
vn 0.000000 -1.000000 0.000000 
vn 0.000000 -1.000000 0.000000 
vn 0.000000 1.000000 0.000000 
vn 0.000000 1.000000 0.000000 
vn 0.000000 1.000000 0.000000 
vn -0.339111 0.000000 -0.940674 
vn -0.339111 0.000000 -0.940674 
vn -0.339111 0.000000 -0.940674 
vn -0.339111 0.000000 -0.940674 
vn -0.339111 0.000000 -0.940674 
vn -0.339111 0.000000 -0.940674 
vn 1.000000 0.000000 0.000000 
vn 1.000000 0.000000 0.000000 
vn 1.000000 0.000000 0.000000 
vn 1.000000 0.000000 0.000000 
vn 1.000000 0.000000 0.000000 
vn 1.000000 0.000000 0.000000 
vn -0.339111 0.000000 0.940674 
vn -0.339111 0.000000 0.940674 
vn -0.339111 0.000000 0.940674 
vn -0.339111 0.000000 0.940674 
vn -0.339111 0.000000 0.940674 
vn -0.339111 0.000000 0.940674 
vn -0.780518 0.504395 0.368896 
vn -0.042969 0.341064 0.938965 
vn 0.216309 0.976074 0.000000 
vn -0.667236 0.479248 -0.569824 
vn -0.780518 0.504395 0.368896 
vn 0.216309 0.976074 0.000000 
vn 0.183105 0.290771 -0.938965 
vn -0.667236 0.479248 -0.569824 
vn 0.216309 0.976074 0.000000 
vn 0.920410 0.127197 -0.368896 
vn 0.183105 0.290771 -0.938965 
vn 0.216309 0.976074 0.000000 
vn 0.807373 0.152344 0.569824 
vn 0.920410 0.127197 -0.368896 
vn 0.216309 0.976074 0.000000 
vn -0.042969 0.341064 0.938965 
vn 0.807373 0.152344 0.569824 
vn 0.216309 0.976074 0.000000 
vn -0.710449 0.266846 0.650879 
vn 0.206543 0.063477 0.976318 
vn -0.042969 0.341064 0.938965 
vn -0.780518 0.504395 0.368896 
vn -0.710449 0.266846 0.650879 
vn -0.042969 0.341064 0.938965 
vn -0.894043 0.307373 -0.325439 
vn -0.710449 0.266846 0.650879 
vn -0.780518 0.504395 0.368896 
vn -0.667236 0.479248 -0.569824 
vn -0.894043 0.307373 -0.325439 
vn -0.780518 0.504395 0.368896 
vn -0.160156 0.144775 -0.976318 
vn -0.894043 0.307373 -0.325439 
vn -0.667236 0.479248 -0.569824 
vn 0.183105 0.290771 -0.938965 
vn -0.160156 0.144775 -0.976318 
vn -0.667236 0.479248 -0.569824 
vn 0.756836 -0.058350 -0.650879 
vn -0.160156 0.144775 -0.976318 
vn 0.183105 0.290771 -0.938965 
vn 0.920410 0.127197 -0.368896 
vn 0.756836 -0.058350 -0.650879 
vn 0.183105 0.290771 -0.938965 
vn 0.940186 -0.098877 0.325439 
vn 0.756836 -0.058350 -0.650879 
vn 0.920410 0.127197 -0.368896 
vn 0.807373 0.152344 0.569824 
vn 0.940186 -0.098877 0.325439 
vn 0.920410 0.127197 -0.368896 
vn 0.206543 0.063477 0.976318 
vn 0.940186 -0.098877 0.325439 
vn 0.807373 0.152344 0.569824 
vn -0.042969 0.341064 0.938965 
vn 0.206543 0.063477 0.976318 
vn 0.807373 0.152344 0.569824 
vt 0.000000 -0.015873 
vt 0.873016 0.222222 
vt 0.873016 -0.015873 
vt 0.666667 0.698413 
vt 0.666667 0.984127 
vt 0.000000 0.825397 
vt 0.984127 0.682540 
vt 0.984127 -0.015873 
vt 0.000000 -0.015873 
vt 0.000000 -0.015873 
vt 0.000000 0.682540 
vt 0.984127 0.682540 
vt 1.000000 0.666667 
vt 1.000000 -0.015873 
vt 0.206349 0.000000 
vt 0.206349 0.000000 
vt 0.206349 0.682540 
vt 1.000000 0.666667 
vt 0.000000 0.682540 
vt 0.000000 -0.015873 
vt 1.000000 -0.015873 
vt 1.000000 -0.015873 
vt 1.000000 0.666667 
vt 0.000000 0.682540 
vt 0.777778 0.952381 
vt 0.857143 0.920635 
vt 0.888889 0.984127 
vt 0.841270 0.904762 
vt 0.777778 0.952381 
vt 0.888889 0.984127 
vt 0.936508 0.920635 
vt 0.841270 0.904762 
vt 0.888889 0.984127 
vt 0.920635 0.730159 
vt 0.936508 0.920635 
vt 0.888889 0.984127 
vt 0.936508 0.904762 
vt 0.920635 0.730159 
vt 0.888889 0.984127 
vt 0.857143 0.920635 
vt 0.936508 0.904762 
vt 0.888889 0.984127 
vt 0.730159 0.809524 
vt 0.809524 0.730159 
vt 0.857143 0.920635 
vt 0.777778 0.952381 
vt 0.730159 0.809524 
vt 0.857143 0.920635 
vt 0.809524 0.714286 
vt 0.730159 0.809524 
vt 0.777778 0.952381 
vt 0.841270 0.904762 
vt 0.809524 0.714286 
vt 0.777778 0.952381 
vt 0.904762 0.714286 
vt 0.809524 0.714286 
vt 0.841270 0.904762 
vt 0.936508 0.920635 
vt 0.904762 0.714286 
vt 0.841270 0.904762 
vt 0.984127 0.730159 
vt 0.904762 0.714286 
vt 0.936508 0.920635 
vt 0.920635 0.730159 
vt 0.984127 0.730159 
vt 0.936508 0.920635 
vt 0.920635 0.714286 
vt 0.984127 0.730159 
vt 0.920635 0.730159 
vt 0.936508 0.904762 
vt 0.920635 0.714286 
vt 0.920635 0.730159 
vt 0.809524 0.730159 
vt 0.920635 0.714286 
vt 0.936508 0.904762 
vt 0.857143 0.920635 
vt 0.809524 0.730159 
vt 0.936508 0.904762 
f 1/1/1 2/2/2 3/3/3
f 4/4/4 5/5/5 6/6/6
f 7/7/7 8/8/8 9/9/9
f 10/10/10 11/11/11 12/12/12
f 13/13/13 14/14/14 15/15/15
f 16/16/16 17/17/17 18/18/18
f 19/19/19 20/20/20 21/21/21
f 22/22/22 23/23/23 24/24/24
f 25/25/25 26/26/26 27/27/27
f 28/28/28 29/29/29 30/30/30
f 31/31/31 32/32/32 33/33/33
f 34/34/34 35/35/35 36/36/36
f 37/37/37 38/38/38 39/39/39
f 40/40/40 41/41/41 42/42/42
f 43/43/43 44/44/44 45/45/45
f 46/46/46 47/47/47 48/48/48
f 49/49/49 50/50/50 51/51/51
f 52/52/52 53/53/53 54/54/54
f 55/55/55 56/56/56 57/57/57
f 58/58/58 59/59/59 60/60/60
f 61/61/61 62/62/62 63/63/63
f 64/64/64 65/65/65 66/66/66
f 67/67/67 68/68/68 69/69/69
f 70/70/70 71/71/71 72/72/72
f 73/73/73 74/74/74 75/75/75
f 76/76/76 77/77/77 78/78/78
