v 9.000000 9.000000 -6.000000 
v 20.000000 9.000000 2.000000 
v 9.000000 0.000000 -6.000000 
v 20.000000 9.000000 2.000000 
v 20.000000 0.000000 2.000000 
v 9.000000 0.000000 -6.000000 
v 20.000000 9.000000 2.000000 
v 0.000000 9.000000 11.000000 
v 20.000000 0.000000 2.000000 
v 0.000000 9.000000 11.000000 
v 0.000000 0.000000 11.000000 
v 20.000000 0.000000 2.000000 
v 0.000000 9.000000 11.000000 
v -10.000000 9.000000 20.000000 
v 0.000000 0.000000 11.000000 
v -10.000000 9.000000 20.000000 
v -10.000000 0.000000 20.000000 
v 0.000000 0.000000 11.000000 
v -10.000000 9.000000 20.000000 
v -20.000000 9.000000 8.000000 
v -10.000000 0.000000 20.000000 
v -20.000000 9.000000 8.000000 
v -20.000000 0.000000 8.000000 
v -10.000000 0.000000 20.000000 
v -20.000000 9.000000 8.000000 
v -14.000000 9.000000 -12.000000 
v -20.000000 0.000000 8.000000 
v -14.000000 9.000000 -12.000000 
v -14.000000 0.000000 -12.000000 
v -20.000000 0.000000 8.000000 
v -14.000000 9.000000 -12.000000 
v 0.000000 9.000000 -19.000000 
v -14.000000 0.000000 -12.000000 
v 0.000000 9.000000 -19.000000 
v 0.000000 0.000000 -19.000000 
v -14.000000 0.000000 -12.000000 
v 0.000000 9.000000 -19.000000 
v 7.000000 9.000000 -13.000000 
v 0.000000 0.000000 -19.000000 
v 7.000000 9.000000 -13.000000 
v 7.000000 0.000000 -13.000000 
v 0.000000 0.000000 -19.000000 
v 7.000000 9.000000 -13.000000 
v 9.000000 9.000000 -6.000000 
v 7.000000 0.000000 -13.000000 
v 9.000000 9.000000 -6.000000 
v 9.000000 0.000000 -6.000000 
v 7.000000 0.000000 -13.000000 
vn 0.666016 0.000000 -0.745850 
vn 0.666016 0.000000 -0.745850 
vn 0.666016 0.000000 -0.745850 
vn 0.666016 0.000000 -0.745850 
vn 0.666016 0.000000 -0.745850 
vn 0.666016 0.000000 -0.745850 
vn 0.398193 0.000000 0.917236 
vn 0.398193 0.000000 0.917236 
vn 0.398193 0.000000 0.917236 
vn 0.398193 0.000000 0.917236 
vn 0.398193 0.000000 0.917236 
vn 0.398193 0.000000 0.917236 
vn 0.658447 0.000000 0.752441 
vn 0.658447 0.000000 0.752441 
vn 0.658447 0.000000 0.752441 
vn 0.658447 0.000000 0.752441 
vn 0.658447 0.000000 0.752441 
vn 0.658447 0.000000 0.752441 
vn -0.768555 0.000000 0.639404 
vn -0.768555 0.000000 0.639404 
vn -0.768555 0.000000 0.639404 
vn -0.768555 0.000000 0.639404 
vn -0.768555 0.000000 0.639404 
vn -0.768555 0.000000 0.639404 
vn -0.960938 0.000000 -0.275879 
vn -0.960938 0.000000 -0.275879 
vn -0.960938 0.000000 -0.275879 
vn -0.960938 0.000000 -0.275879 
vn -0.960938 0.000000 -0.275879 
vn -0.960938 0.000000 -0.275879 
vn -0.437500 0.000000 -0.898926 
vn -0.437500 0.000000 -0.898926 
vn -0.437500 0.000000 -0.898926 
vn -0.437500 0.000000 -0.898926 
vn -0.437500 0.000000 -0.898926 
vn -0.437500 0.000000 -0.898926 
vn 0.634766 0.000000 -0.772461 
vn 0.634766 0.000000 -0.772461 
vn 0.634766 0.000000 -0.772461 
vn 0.634766 0.000000 -0.772461 
vn 0.634766 0.000000 -0.772461 
vn 0.634766 0.000000 -0.772461 
vn 0.957764 0.000000 -0.287354 
vn 0.957764 0.000000 -0.287354 
vn 0.957764 0.000000 -0.287354 
vn 0.957764 0.000000 -0.287354 
vn 0.957764 0.000000 -0.287354 
vn 0.957764 0.000000 -0.287354 
vt 0.000000 1.000000 
vt 0.000000 1.000000 
vt 0.000000 1.000000 
vt 0.000000 1.000000 
vt 0.000000 1.000000 
vt 0.000000 1.000000 
vt 0.000000 1.000000 
vt 0.000000 1.000000 
vt 0.000000 1.000000 
vt 0.000000 1.000000 
vt 0.000000 1.000000 
vt 0.000000 1.000000 
vt 0.000000 1.000000 
vt 0.000000 1.000000 
vt 0.000000 1.000000 
vt 0.000000 1.000000 
vt 0.000000 1.000000 
vt 0.000000 1.000000 
vt 0.000000 1.000000 
vt 0.000000 1.000000 
vt 0.000000 1.000000 
vt 0.000000 1.000000 
vt 0.000000 1.000000 
vt 0.000000 1.000000 
vt 0.000000 1.000000 
vt 0.000000 1.000000 
vt 0.000000 1.000000 
vt 0.000000 1.000000 
vt 0.000000 1.000000 
vt 0.000000 1.000000 
vt 0.000000 1.000000 
vt 0.000000 1.000000 
vt 0.000000 1.000000 
vt 0.000000 1.000000 
vt 0.000000 1.000000 
vt 0.000000 1.000000 
vt 0.000000 1.000000 
vt 0.000000 1.000000 
vt 0.000000 1.000000 
vt 0.000000 1.000000 
vt 0.000000 1.000000 
vt 0.000000 1.000000 
vt 0.000000 1.000000 
vt 0.000000 1.000000 
vt 0.000000 1.000000 
vt 0.000000 1.000000 
vt 0.000000 1.000000 
vt 0.000000 1.000000 
f 1/1/1 2/2/2 3/3/3
f 4/4/4 5/5/5 6/6/6
f 7/7/7 8/8/8 9/9/9
f 10/10/10 11/11/11 12/12/12
f 13/13/13 14/14/14 15/15/15
f 16/16/16 17/17/17 18/18/18
f 19/19/19 20/20/20 21/21/21
f 22/22/22 23/23/23 24/24/24
f 25/25/25 26/26/26 27/27/27
f 28/28/28 29/29/29 30/30/30
f 31/31/31 32/32/32 33/33/33
f 34/34/34 35/35/35 36/36/36
f 37/37/37 38/38/38 39/39/39
f 40/40/40 41/41/41 42/42/42
f 43/43/43 44/44/44 45/45/45
f 46/46/46 47/47/47 48/48/48
