v -8.000000 34.000000 3.000000 
v 0.000000 34.000000 6.000000 
v 0.000000 35.000000 3.000000 
v -12.000000 34.000000 0.000000 
v -8.000000 34.000000 3.000000 
v 0.000000 35.000000 3.000000 
v -7.000000 34.000000 -6.000000 
v -12.000000 34.000000 0.000000 
v 0.000000 35.000000 3.000000 
v 0.000000 34.000000 -9.000000 
v -7.000000 34.000000 -6.000000 
v 0.000000 35.000000 3.000000 
v 6.000000 34.000000 -6.000000 
v 0.000000 34.000000 -9.000000 
v 0.000000 35.000000 3.000000 
v 12.000000 34.000000 0.000000 
v 6.000000 34.000000 -6.000000 
v 0.000000 35.000000 3.000000 
v 8.000000 34.000000 3.000000 
v 12.000000 34.000000 0.000000 
v 0.000000 35.000000 3.000000 
v 0.000000 34.000000 6.000000 
v 8.000000 34.000000 3.000000 
v 0.000000 35.000000 3.000000 
v -10.000000 15.000000 2.000000 
v 0.000000 15.000000 5.000000 
v 0.000000 34.000000 6.000000 
v -8.000000 34.000000 3.000000 
v -10.000000 15.000000 2.000000 
v 0.000000 34.000000 6.000000 
v -14.000000 15.000000 -2.000000 
v -10.000000 15.000000 2.000000 
v -8.000000 34.000000 3.000000 
v -12.000000 34.000000 0.000000 
v -14.000000 15.000000 -2.000000 
v -8.000000 34.000000 3.000000 
v -8.000000 15.000000 -12.000000 
v -14.000000 15.000000 -2.000000 
v -12.000000 34.000000 0.000000 
v -7.000000 34.000000 -6.000000 
v -8.000000 15.000000 -12.000000 
v -12.000000 34.000000 0.000000 
v 0.000000 15.000000 -18.000000 
v -8.000000 15.000000 -12.000000 
v -7.000000 34.000000 -6.000000 
v 0.000000 34.000000 -9.000000 
v 0.000000 15.000000 -18.000000 
v -7.000000 34.000000 -6.000000 
v 8.000000 15.000000 -12.000000 
v 0.000000 15.000000 -18.000000 
v 0.000000 34.000000 -9.000000 
v 6.000000 34.000000 -6.000000 
v 8.000000 15.000000 -12.000000 
v 0.000000 34.000000 -9.000000 
v 14.000000 15.000000 -2.000000 
v 8.000000 15.000000 -12.000000 
v 6.000000 34.000000 -6.000000 
v 12.000000 34.000000 0.000000 
v 14.000000 15.000000 -2.000000 
v 6.000000 34.000000 -6.000000 
v 10.000000 15.000000 2.000000 
v 14.000000 15.000000 -2.000000 
v 12.000000 34.000000 0.000000 
v 8.000000 34.000000 3.000000 
v 10.000000 15.000000 2.000000 
v 12.000000 34.000000 0.000000 
v 0.000000 15.000000 5.000000 
v 10.000000 15.000000 2.000000 
v 8.000000 34.000000 3.000000 
v 0.000000 34.000000 6.000000 
v 0.000000 15.000000 5.000000 
v 8.000000 34.000000 3.000000 
v -13.000000 -4.000000 2.000000 
v 0.000000 -4.000000 5.000000 
v 0.000000 15.000000 5.000000 
v -10.000000 15.000000 2.000000 
v -13.000000 -4.000000 2.000000 
v 0.000000 15.000000 5.000000 
v -19.000000 -4.000000 -4.000000 
v -13.000000 -4.000000 2.000000 
v -10.000000 15.000000 2.000000 
v -14.000000 15.000000 -2.000000 
v -19.000000 -4.000000 -4.000000 
v -10.000000 15.000000 2.000000 
v -12.000000 -4.000000 -17.000000 
v -19.000000 -4.000000 -4.000000 
v -14.000000 15.000000 -2.000000 
v -8.000000 15.000000 -12.000000 
v -12.000000 -4.000000 -17.000000 
v -14.000000 15.000000 -2.000000 
v 0.000000 -4.000000 -25.000000 
v -12.000000 -4.000000 -17.000000 
v -8.000000 15.000000 -12.000000 
v 0.000000 15.000000 -18.000000 
v 0.000000 -4.000000 -25.000000 
v -8.000000 15.000000 -12.000000 
v 12.000000 -4.000000 -17.000000 
v 0.000000 -4.000000 -25.000000 
v 0.000000 15.000000 -18.000000 
v 8.000000 15.000000 -12.000000 
v 12.000000 -4.000000 -17.000000 
v 0.000000 15.000000 -18.000000 
v 19.000000 -4.000000 -4.000000 
v 12.000000 -4.000000 -17.000000 
v 8.000000 15.000000 -12.000000 
v 14.000000 15.000000 -2.000000 
v 19.000000 -4.000000 -4.000000 
v 8.000000 15.000000 -12.000000 
v 13.000000 -4.000000 2.000000 
v 19.000000 -4.000000 -4.000000 
v 14.000000 15.000000 -2.000000 
v 10.000000 15.000000 2.000000 
v 13.000000 -4.000000 2.000000 
v 14.000000 15.000000 -2.000000 
v 0.000000 -4.000000 5.000000 
v 13.000000 -4.000000 2.000000 
v 10.000000 15.000000 2.000000 
v 0.000000 15.000000 5.000000 
v 0.000000 -4.000000 5.000000 
v 10.000000 15.000000 2.000000 
v -14.000000 -26.000000 0.000000 
v 0.000000 -29.000000 3.000000 
v 0.000000 -4.000000 5.000000 
v -13.000000 -4.000000 2.000000 
v -14.000000 -26.000000 0.000000 
v 0.000000 -4.000000 5.000000 
v -20.000000 -24.000000 -3.000000 
v -14.000000 -26.000000 0.000000 
v -13.000000 -4.000000 2.000000 
v -19.000000 -4.000000 -4.000000 
v -20.000000 -24.000000 -3.000000 
v -13.000000 -4.000000 2.000000 
v -12.000000 -26.000000 -14.000000 
v -20.000000 -24.000000 -3.000000 
v -19.000000 -4.000000 -4.000000 
v -12.000000 -4.000000 -17.000000 
v -12.000000 -26.000000 -14.000000 
v -19.000000 -4.000000 -4.000000 
v 0.000000 -29.000000 -19.000000 
v -12.000000 -26.000000 -14.000000 
v -12.000000 -4.000000 -17.000000 
v 0.000000 -4.000000 -25.000000 
v 0.000000 -29.000000 -19.000000 
v -12.000000 -4.000000 -17.000000 
v 12.000000 -26.000000 -14.000000 
v 0.000000 -29.000000 -19.000000 
v 0.000000 -4.000000 -25.000000 
v 12.000000 -4.000000 -17.000000 
v 12.000000 -26.000000 -14.000000 
v 0.000000 -4.000000 -25.000000 
v 20.000000 -24.000000 -3.000000 
v 12.000000 -26.000000 -14.000000 
v 12.000000 -4.000000 -17.000000 
v 19.000000 -4.000000 -4.000000 
v 20.000000 -24.000000 -3.000000 
v 12.000000 -4.000000 -17.000000 
v 14.000000 -26.000000 0.000000 
v 20.000000 -24.000000 -3.000000 
v 19.000000 -4.000000 -4.000000 
v 13.000000 -4.000000 2.000000 
v 14.000000 -26.000000 0.000000 
v 19.000000 -4.000000 -4.000000 
v 0.000000 -29.000000 3.000000 
v 14.000000 -26.000000 0.000000 
v 13.000000 -4.000000 2.000000 
v 0.000000 -4.000000 5.000000 
v 0.000000 -29.000000 3.000000 
v 13.000000 -4.000000 2.000000 
v 0.000000 -29.000000 3.000000 
v -14.000000 -26.000000 0.000000 
v 0.000000 -37.000000 0.000000 
v -14.000000 -26.000000 0.000000 
v -20.000000 -24.000000 -3.000000 
v 0.000000 -37.000000 0.000000 
v -20.000000 -24.000000 -3.000000 
v -12.000000 -26.000000 -14.000000 
v 0.000000 -37.000000 0.000000 
v -12.000000 -26.000000 -14.000000 
v 0.000000 -29.000000 -19.000000 
v 0.000000 -37.000000 0.000000 
v 0.000000 -29.000000 -19.000000 
v 12.000000 -26.000000 -14.000000 
v 0.000000 -37.000000 0.000000 
v 12.000000 -26.000000 -14.000000 
v 20.000000 -24.000000 -3.000000 
v 0.000000 -37.000000 0.000000 
v 20.000000 -24.000000 -3.000000 
v 14.000000 -26.000000 0.000000 
v 0.000000 -37.000000 0.000000 
v 14.000000 -26.000000 0.000000 
v 0.000000 -29.000000 3.000000 
v 0.000000 -37.000000 0.000000 
vn -0.348145 0.479980 0.804932 
vn -0.035645 0.458496 0.887695 
vn 0.001953 0.996582 0.081543 
vn -0.612061 0.778320 -0.138428 
vn -0.348145 0.479980 0.804932 
vn 0.001953 0.996582 0.081543 
vn -0.317871 0.684570 -0.655762 
vn -0.612061 0.778320 -0.138428 
vn 0.001953 0.996582 0.081543 
vn 0.100098 0.708984 -0.697754 
vn -0.317871 0.684570 -0.655762 
vn 0.001953 0.996582 0.081543 
vn 0.400391 0.674316 -0.620117 
vn 0.100098 0.708984 -0.697754 
vn 0.001953 0.996582 0.081543 
vn 0.559082 0.743164 0.366943 
vn 0.400391 0.674316 -0.620117 
vn 0.001953 0.996582 0.081543 
vn 0.232178 0.481689 0.844727 
vn 0.559082 0.743164 0.366943 
vn 0.001953 0.996582 0.081543 
vn -0.035645 0.458496 0.887695 
vn 0.232178 0.481689 0.844727 
vn 0.001953 0.996582 0.081543 
vn -0.410400 0.041992 0.910889 
vn 0.014160 -0.014648 0.999756 
vn -0.035645 0.458496 0.887695 
vn -0.348145 0.479980 0.804932 
vn -0.410400 0.041992 0.910889 
vn -0.035645 0.458496 0.887695 
vn -0.970703 0.205322 0.123535 
vn -0.410400 0.041992 0.910889 
vn -0.348145 0.479980 0.804932 
vn -0.612061 0.778320 -0.138428 
vn -0.970703 0.205322 0.123535 
vn -0.348145 0.479980 0.804932 
vn -0.533447 0.241211 -0.810547 
vn -0.970703 0.205322 0.123535 
vn -0.612061 0.778320 -0.138428 
vn -0.317871 0.684570 -0.655762 
vn -0.533447 0.241211 -0.810547 
vn -0.612061 0.778320 -0.138428 
vn 0.014404 0.290039 -0.956787 
vn -0.533447 0.241211 -0.810547 
vn -0.317871 0.684570 -0.655762 
vn 0.100098 0.708984 -0.697754 
vn 0.014404 0.290039 -0.956787 
vn -0.317871 0.684570 -0.655762 
vn 0.525879 0.276611 -0.803955 
vn 0.014404 0.290039 -0.956787 
vn 0.100098 0.708984 -0.697754 
vn 0.400391 0.674316 -0.620117 
vn 0.525879 0.276611 -0.803955 
vn 0.100098 0.708984 -0.697754 
vn 0.966553 0.246094 0.070312 
vn 0.525879 0.276611 -0.803955 
vn 0.400391 0.674316 -0.620117 
vn 0.559082 0.743164 0.366943 
vn 0.966553 0.246094 0.070312 
vn 0.400391 0.674316 -0.620117 
vn 0.340332 0.020996 0.939941 
vn 0.966553 0.246094 0.070312 
vn 0.559082 0.743164 0.366943 
vn 0.232178 0.481689 0.844727 
vn 0.340332 0.020996 0.939941 
vn 0.559082 0.743164 0.366943 
vn 0.014160 -0.014648 0.999756 
vn 0.340332 0.020996 0.939941 
vn 0.232178 0.481689 0.844727 
vn -0.035645 0.458496 0.887695 
vn 0.014160 -0.014648 0.999756 
vn 0.232178 0.481689 0.844727 
vn -0.329102 0.013184 0.944092 
vn -0.002686 -0.027832 0.999512 
vn 0.014160 -0.014648 0.999756 
vn -0.410400 0.041992 0.910889 
vn -0.329102 0.013184 0.944092 
vn 0.014160 -0.014648 0.999756 
vn -0.985840 0.152100 0.067627 
vn -0.329102 0.013184 0.944092 
vn -0.410400 0.041992 0.910889 
vn -0.970703 0.205322 0.123535 
vn -0.985840 0.152100 0.067627 
vn -0.410400 0.041992 0.910889 
vn -0.538330 0.090088 -0.837646 
vn -0.985840 0.152100 0.067627 
vn -0.970703 0.205322 0.123535 
vn -0.533447 0.241211 -0.810547 
vn -0.538330 0.090088 -0.837646 
vn -0.970703 0.205322 0.123535 
vn -0.022949 0.055908 -0.998047 
vn -0.538330 0.090088 -0.837646 
vn -0.533447 0.241211 -0.810547 
vn 0.014404 0.290039 -0.956787 
vn -0.022949 0.055908 -0.998047 
vn -0.533447 0.241211 -0.810547 
vn 0.548340 0.111816 -0.828613 
vn -0.022949 0.055908 -0.998047 
vn 0.014404 0.290039 -0.956787 
vn 0.525879 0.276611 -0.803955 
vn 0.548340 0.111816 -0.828613 
vn 0.014404 0.290039 -0.956787 
vn 0.971680 0.187256 0.142090 
vn 0.548340 0.111816 -0.828613 
vn 0.525879 0.276611 -0.803955 
vn 0.966553 0.246094 0.070312 
vn 0.971680 0.187256 0.142090 
vn 0.525879 0.276611 -0.803955 
vn 0.384033 0.010498 0.923096 
vn 0.971680 0.187256 0.142090 
vn 0.966553 0.246094 0.070312 
vn 0.340332 0.020996 0.939941 
vn 0.384033 0.010498 0.923096 
vn 0.966553 0.246094 0.070312 
vn -0.002686 -0.027832 0.999512 
vn 0.384033 0.010498 0.923096 
vn 0.340332 0.020996 0.939941 
vn 0.014160 -0.014648 0.999756 
vn -0.002686 -0.027832 0.999512 
vn 0.340332 0.020996 0.939941 
vn -0.239990 -0.227539 0.943604 
vn 0.031738 -0.186768 0.981689 
vn -0.002686 -0.027832 0.999512 
vn -0.329102 0.013184 0.944092 
vn -0.239990 -0.227539 0.943604 
vn -0.002686 -0.027832 0.999512 
vn -0.739014 -0.460205 0.491699 
vn -0.239990 -0.227539 0.943604 
vn -0.329102 0.013184 0.944092 
vn -0.985840 0.152100 0.067627 
vn -0.739014 -0.460205 0.491699 
vn -0.329102 0.013184 0.944092 
vn -0.531982 -0.434814 -0.726318 
vn -0.739014 -0.460205 0.491699 
vn -0.985840 0.152100 0.067627 
vn -0.538330 0.090088 -0.837646 
vn -0.531982 -0.434814 -0.726318 
vn -0.985840 0.152100 0.067627 
vn -0.081787 -0.502441 -0.860596 
vn -0.531982 -0.434814 -0.726318 
vn -0.538330 0.090088 -0.837646 
vn -0.022949 0.055908 -0.998047 
vn -0.081787 -0.502441 -0.860596 
vn -0.538330 0.090088 -0.837646 
vn 0.445312 -0.467529 -0.763428 
vn -0.081787 -0.502441 -0.860596 
vn -0.022949 0.055908 -0.998047 
vn 0.548340 0.111816 -0.828613 
vn 0.445312 -0.467529 -0.763428 
vn -0.022949 0.055908 -0.998047 
vn 0.861328 -0.507812 0.003418 
vn 0.445312 -0.467529 -0.763428 
vn 0.548340 0.111816 -0.828613 
vn 0.971680 0.187256 0.142090 
vn 0.861328 -0.507812 0.003418 
vn 0.548340 0.111816 -0.828613 
vn 0.331055 -0.198730 0.922119 
vn 0.861328 -0.507812 0.003418 
vn 0.971680 0.187256 0.142090 
vn 0.384033 0.010498 0.923096 
vn 0.331055 -0.198730 0.922119 
vn 0.971680 0.187256 0.142090 
vn 0.031738 -0.186768 0.981689 
vn 0.331055 -0.198730 0.922119 
vn 0.384033 0.010498 0.923096 
vn -0.002686 -0.027832 0.999512 
vn 0.031738 -0.186768 0.981689 
vn 0.384033 0.010498 0.923096 
vn 0.031738 -0.186768 0.981689 
vn -0.239990 -0.227539 0.943604 
vn 0.000000 -0.940430 0.339600 
vn -0.239990 -0.227539 0.943604 
vn -0.739014 -0.460205 0.491699 
vn 0.000000 -0.940430 0.339600 
vn -0.739014 -0.460205 0.491699 
vn -0.531982 -0.434814 -0.726318 
vn 0.000000 -0.940430 0.339600 
vn -0.531982 -0.434814 -0.726318 
vn -0.081787 -0.502441 -0.860596 
vn 0.000000 -0.940430 0.339600 
vn -0.081787 -0.502441 -0.860596 
vn 0.445312 -0.467529 -0.763428 
vn 0.000000 -0.940430 0.339600 
vn 0.445312 -0.467529 -0.763428 
vn 0.861328 -0.507812 0.003418 
vn 0.000000 -0.940430 0.339600 
vn 0.861328 -0.507812 0.003418 
vn 0.331055 -0.198730 0.922119 
vn 0.000000 -0.940430 0.339600 
vn 0.331055 -0.198730 0.922119 
vn 0.031738 -0.186768 0.981689 
vn 0.000000 -0.940430 0.339600 
vt 0.222222 0.793651 
vt 0.492063 0.793651 
vt 0.492063 0.920635 
vt 0.349206 0.920635 
vt 0.222222 0.793651 
vt 0.492063 0.920635 
vt 0.333333 0.984127 
vt 0.349206 0.920635 
vt 0.492063 0.920635 
vt 0.492063 0.984127 
vt 0.333333 0.984127 
vt 0.492063 0.888889 
vt 0.650794 0.984127 
vt 0.492063 0.984127 
vt 0.476190 0.904762 
vt 0.666667 0.920635 
vt 0.650794 0.984127 
vt 0.492063 0.920635 
vt 0.746032 0.793651 
vt 0.666667 0.920635 
vt 0.492063 0.920635 
vt 0.492063 0.793651 
vt 0.746032 0.793651 
vt 0.492063 0.920635 
vt 0.412698 0.634921 
vt 0.507937 0.650794 
vt 0.492063 0.793651 
vt 0.222222 0.793651 
vt 0.412698 0.634921 
vt 0.492063 0.793651 
vt 0.000000 0.650794 
vt 0.412698 0.634921 
vt 0.222222 0.793651 
vt 0.095238 1.000000 
vt 0.000000 0.650794 
vt 0.222222 0.793651 
vt 0.174603 0.650794 
vt 0.000000 0.650794 
vt 0.095238 1.000000 
vt 0.238095 1.000000 
vt 0.174603 0.650794 
vt 0.095238 1.000000 
vt 0.476190 0.650794 
vt 0.174603 0.650794 
vt 0.238095 1.000000 
vt 0.476190 1.000000 
vt 0.476190 0.650794 
vt 0.238095 1.000000 
vt 0.809524 0.650794 
vt 0.476190 0.650794 
vt 0.476190 1.000000 
vt 0.714286 1.000000 
vt 0.809524 0.650794 
vt 0.476190 1.000000 
vt 1.000000 0.650794 
vt 0.809524 0.650794 
vt 0.714286 1.000000 
vt 0.873016 1.000000 
vt 1.000000 0.650794 
vt 0.714286 1.000000 
vt 0.571429 0.634921 
vt 1.000000 0.650794 
vt 0.873016 1.000000 
vt 0.746032 0.793651 
vt 0.571429 0.634921 
vt 0.873016 1.000000 
vt 0.507937 0.650794 
vt 0.571429 0.634921 
vt 0.746032 0.793651 
vt 0.492063 0.793651 
vt 0.507937 0.650794 
vt 0.746032 0.793651 
vt 0.396825 0.285714 
vt 0.476190 0.285714 
vt 0.507937 0.650794 
vt 0.412698 0.634921 
vt 0.396825 0.285714 
vt 0.507937 0.650794 
vt 0.000000 0.285714 
vt 0.396825 0.285714 
vt 0.412698 0.634921 
vt 0.000000 0.650794 
vt 0.000000 0.285714 
vt 0.412698 0.634921 
vt 0.190476 0.285714 
vt 0.000000 0.285714 
vt 0.000000 0.650794 
vt 0.174603 0.650794 
vt 0.190476 0.285714 
vt 0.000000 0.650794 
vt 0.476190 0.285714 
vt 0.190476 0.285714 
vt 0.174603 0.650794 
vt 0.476190 0.650794 
vt 0.476190 0.285714 
vt 0.174603 0.650794 
vt 0.793651 0.285714 
vt 0.476190 0.285714 
vt 0.476190 0.650794 
vt 0.809524 0.650794 
vt 0.793651 0.285714 
vt 0.476190 0.650794 
vt 0.968254 0.285714 
vt 0.793651 0.285714 
vt 0.809524 0.650794 
vt 1.000000 0.650794 
vt 0.968254 0.285714 
vt 0.809524 0.650794 
vt 0.571429 0.285714 
vt 0.968254 0.285714 
vt 1.000000 0.650794 
vt 0.571429 0.634921 
vt 0.571429 0.285714 
vt 1.000000 0.650794 
vt 0.476190 0.285714 
vt 0.571429 0.285714 
vt 0.571429 0.634921 
vt 0.507937 0.650794 
vt 0.476190 0.285714 
vt 0.571429 0.634921 
vt 0.412698 0.063492 
vt 0.476190 0.079365 
vt 0.476190 0.285714 
vt 0.396825 0.285714 
vt 0.412698 0.063492 
vt 0.476190 0.285714 
vt 0.047619 0.079365 
vt 0.412698 0.063492 
vt 0.396825 0.285714 
vt 0.000000 0.285714 
vt 0.047619 0.079365 
vt 0.396825 0.285714 
vt 0.238095 0.079365 
vt 0.047619 0.079365 
vt 0.000000 0.285714 
vt 0.190476 0.285714 
vt 0.238095 0.079365 
vt 0.000000 0.285714 
vt 0.476190 0.079365 
vt 0.238095 0.079365 
vt 0.190476 0.285714 
vt 0.476190 0.285714 
vt 0.476190 0.079365 
vt 0.190476 0.285714 
vt 0.746032 0.079365 
vt 0.476190 0.079365 
vt 0.476190 0.285714 
vt 0.793651 0.285714 
vt 0.746032 0.079365 
vt 0.476190 0.285714 
vt 0.936508 0.079365 
vt 0.746032 0.079365 
vt 0.793651 0.285714 
vt 0.968254 0.285714 
vt 0.936508 0.079365 
vt 0.793651 0.285714 
vt 0.571429 0.063492 
vt 0.936508 0.079365 
vt 0.968254 0.285714 
vt 0.571429 0.285714 
vt 0.571429 0.063492 
vt 0.968254 0.285714 
vt 0.476190 0.079365 
vt 0.571429 0.063492 
vt 0.571429 0.285714 
vt 0.476190 0.285714 
vt 0.476190 0.079365 
vt 0.571429 0.285714 
vt 0.476190 0.079365 
vt 0.412698 0.063492 
vt 0.476190 0.000000 
vt 0.412698 0.063492 
vt 0.047619 0.079365 
vt 0.476190 0.000000 
vt 0.047619 0.079365 
vt 0.238095 0.079365 
vt 0.476190 0.000000 
vt 0.238095 0.079365 
vt 0.476190 0.079365 
vt 0.476190 0.000000 
vt 0.476190 0.079365 
vt 0.746032 0.079365 
vt 0.476190 0.000000 
vt 0.746032 0.079365 
vt 0.936508 0.079365 
vt 0.476190 0.000000 
vt 0.936508 0.079365 
vt 0.571429 0.063492 
vt 0.476190 0.000000 
vt 0.571429 0.063492 
vt 0.476190 0.079365 
vt 0.476190 0.000000 
f 1/1/1 2/2/2 3/3/3
f 4/4/4 5/5/5 6/6/6
f 7/7/7 8/8/8 9/9/9
f 10/10/10 11/11/11 12/12/12
f 13/13/13 14/14/14 15/15/15
f 16/16/16 17/17/17 18/18/18
f 19/19/19 20/20/20 21/21/21
f 22/22/22 23/23/23 24/24/24
f 25/25/25 26/26/26 27/27/27
f 28/28/28 29/29/29 30/30/30
f 31/31/31 32/32/32 33/33/33
f 34/34/34 35/35/35 36/36/36
f 37/37/37 38/38/38 39/39/39
f 40/40/40 41/41/41 42/42/42
f 43/43/43 44/44/44 45/45/45
f 46/46/46 47/47/47 48/48/48
f 49/49/49 50/50/50 51/51/51
f 52/52/52 53/53/53 54/54/54
f 55/55/55 56/56/56 57/57/57
f 58/58/58 59/59/59 60/60/60
f 61/61/61 62/62/62 63/63/63
f 64/64/64 65/65/65 66/66/66
f 67/67/67 68/68/68 69/69/69
f 70/70/70 71/71/71 72/72/72
f 73/73/73 74/74/74 75/75/75
f 76/76/76 77/77/77 78/78/78
f 79/79/79 80/80/80 81/81/81
f 82/82/82 83/83/83 84/84/84
f 85/85/85 86/86/86 87/87/87
f 88/88/88 89/89/89 90/90/90
f 91/91/91 92/92/92 93/93/93
f 94/94/94 95/95/95 96/96/96
f 97/97/97 98/98/98 99/99/99
f 100/100/100 101/101/101 102/102/102
f 103/103/103 104/104/104 105/105/105
f 106/106/106 107/107/107 108/108/108
f 109/109/109 110/110/110 111/111/111
f 112/112/112 113/113/113 114/114/114
f 115/115/115 116/116/116 117/117/117
f 118/118/118 119/119/119 120/120/120
f 121/121/121 122/122/122 123/123/123
f 124/124/124 125/125/125 126/126/126
f 127/127/127 128/128/128 129/129/129
f 130/130/130 131/131/131 132/132/132
f 133/133/133 134/134/134 135/135/135
f 136/136/136 137/137/137 138/138/138
f 139/139/139 140/140/140 141/141/141
f 142/142/142 143/143/143 144/144/144
f 145/145/145 146/146/146 147/147/147
f 148/148/148 149/149/149 150/150/150
f 151/151/151 152/152/152 153/153/153
f 154/154/154 155/155/155 156/156/156
f 157/157/157 158/158/158 159/159/159
f 160/160/160 161/161/161 162/162/162
f 163/163/163 164/164/164 165/165/165
f 166/166/166 167/167/167 168/168/168
f 169/169/169 170/170/170 171/171/171
f 172/172/172 173/173/173 174/174/174
f 175/175/175 176/176/176 177/177/177
f 178/178/178 179/179/179 180/180/180
f 181/181/181 182/182/182 183/183/183
f 184/184/184 185/185/185 186/186/186
f 187/187/187 188/188/188 189/189/189
f 190/190/190 191/191/191 192/192/192
