v -2.000000 16.000000 5.000000 
v 32.000000 44.000000 -1.000000 
v 0.000000 37.000000 -3.000000 
v 0.000000 37.000000 -3.000000 
v 32.000000 44.000000 -1.000000 
v -1.000000 16.000000 -12.000000 
v 30.000000 26.000000 6.000000 
v 32.000000 44.000000 -1.000000 
v -2.000000 16.000000 5.000000 
v 14.000000 -10.000000 7.000000 
v 30.000000 26.000000 6.000000 
v -2.000000 16.000000 5.000000 
v -1.000000 -15.000000 7.000000 
v 14.000000 -10.000000 7.000000 
v -2.000000 16.000000 5.000000 
v 19.000000 -21.000000 -2.000000 
v 14.000000 -10.000000 7.000000 
v -1.000000 -15.000000 7.000000 
v 0.000000 -26.000000 -3.000000 
v 19.000000 -21.000000 -2.000000 
v -1.000000 -15.000000 7.000000 
v 14.000000 -10.000000 -13.000000 
v 19.000000 -21.000000 -2.000000 
v 0.000000 -26.000000 -3.000000 
v 0.000000 -15.000000 -14.000000 
v 14.000000 -10.000000 -13.000000 
v 0.000000 -26.000000 -3.000000 
v -1.000000 16.000000 -12.000000 
v 31.000000 26.000000 -9.000000 
v 0.000000 -15.000000 -14.000000 
v 32.000000 44.000000 -1.000000 
v 31.000000 26.000000 -9.000000 
v -1.000000 16.000000 -12.000000 
vn 0.145996 0.838623 0.524414 
vn -0.657227 0.724609 0.205811 
vn -0.684082 0.656006 0.317871 
vn -0.684082 0.656006 0.317871 
vn -0.657227 0.724609 0.205811 
vn -0.868896 -0.357178 -0.342285 
vn 0.131104 0.877930 0.459961 
vn -0.657227 0.724609 0.205811 
vn 0.145996 0.838623 0.524414 
vn 0.840820 0.385010 0.380127 
vn 0.131104 0.877930 0.459961 
vn 0.145996 0.838623 0.524414 
vn 0.902588 0.170654 0.394531 
vn 0.840820 0.385010 0.380127 
vn 0.145996 0.838623 0.524414 
vn 0.615967 -0.738525 -0.273438 
vn 0.840820 0.385010 0.380127 
vn 0.902588 0.170654 0.394531 
vn 0.590576 -0.785156 -0.185303 
vn 0.615967 -0.738525 -0.273438 
vn 0.902588 0.170654 0.394531 
vn -0.010986 -0.856201 -0.516357 
vn 0.615967 -0.738525 -0.273438 
vn 0.590576 -0.785156 -0.185303 
vn -0.212646 -0.869629 -0.445068 
vn -0.010986 -0.856201 -0.516357 
vn 0.590576 -0.785156 -0.185303 
vn -0.868896 -0.357178 -0.342285 
vn -0.838623 -0.308594 -0.448486 
vn -0.212646 -0.869629 -0.445068 
vn -0.657227 0.724609 0.205811 
vn -0.838623 -0.308594 -0.448486 
vn -0.868896 -0.357178 -0.342285 
vt 0.095238 0.448819 
vt 0.000000 0.488189 
vt 0.031746 0.448819 
vt 0.031746 0.448819 
vt 0.000000 0.488189 
vt 0.095238 0.448819 
vt 0.063492 0.488189 
vt 0.000000 0.488189 
vt 0.095238 0.448819 
vt 0.190476 0.464567 
vt 0.063492 0.488189 
vt 0.095238 0.448819 
vt 0.206349 0.448819 
vt 0.190476 0.464567 
vt 0.095238 0.448819 
vt 0.238095 0.472441 
vt 0.190476 0.464567 
vt 0.206349 0.448819 
vt 0.253968 0.448819 
vt 0.238095 0.472441 
vt 0.206349 0.448819 
vt 0.190476 0.464567 
vt 0.238095 0.472441 
vt 0.253968 0.448819 
vt 0.206349 0.448819 
vt 0.190476 0.464567 
vt 0.253968 0.448819 
vt 0.095238 0.448819 
vt 0.063492 0.488189 
vt 0.206349 0.448819 
vt 0.000000 0.488189 
vt 0.063492 0.488189 
vt 0.095238 0.448819 
f 1/1/1 2/2/2 3/3/3
f 4/4/4 5/5/5 6/6/6
f 7/7/7 8/8/8 9/9/9
f 10/10/10 11/11/11 12/12/12
f 13/13/13 14/14/14 15/15/15
f 16/16/16 17/17/17 18/18/18
f 19/19/19 20/20/20 21/21/21
f 22/22/22 23/23/23 24/24/24
f 25/25/25 26/26/26 27/27/27
f 28/28/28 29/29/29 30/30/30
f 31/31/31 32/32/32 33/33/33
