v 34.000000 35.000000 -9.000000 
v 41.000000 4.000000 -15.000000 
v 25.000000 17.000000 -40.000000 
v 34.000000 35.000000 -9.000000 
v 25.000000 17.000000 -40.000000 
v 25.000000 58.000000 -19.000000 
v 25.000000 58.000000 -19.000000 
v 25.000000 17.000000 -40.000000 
v 0.000000 17.000000 -50.000000 
v 25.000000 58.000000 -19.000000 
v 0.000000 17.000000 -50.000000 
v 0.000000 63.000000 -25.000000 
v 36.000000 4.000000 32.000000 
v 39.000000 -17.000000 32.000000 
v 50.000000 -17.000000 1.000000 
v 36.000000 4.000000 32.000000 
v 50.000000 -17.000000 1.000000 
v 46.000000 4.000000 1.000000 
v 46.000000 4.000000 1.000000 
v 50.000000 -17.000000 1.000000 
v 45.000000 -17.000000 -15.000000 
v 46.000000 4.000000 1.000000 
v 45.000000 -17.000000 -15.000000 
v 41.000000 4.000000 -15.000000 
v 41.000000 4.000000 -15.000000 
v 45.000000 -17.000000 -15.000000 
v 33.000000 -17.000000 -40.000000 
v 41.000000 4.000000 -15.000000 
v 33.000000 -17.000000 -40.000000 
v 25.000000 17.000000 -40.000000 
v 25.000000 17.000000 -40.000000 
v 33.000000 -17.000000 -40.000000 
v 0.000000 -17.000000 -50.000000 
v 25.000000 17.000000 -40.000000 
v 0.000000 -17.000000 -50.000000 
v 0.000000 17.000000 -50.000000 
v 39.000000 -17.000000 32.000000 
v 36.000000 -41.000000 33.000000 
v 49.000000 -41.000000 0.000000 
v 39.000000 -17.000000 32.000000 
v 49.000000 -41.000000 0.000000 
v 50.000000 -17.000000 1.000000 
v 50.000000 -17.000000 1.000000 
v 49.000000 -41.000000 0.000000 
v 44.000000 -41.000000 -12.000000 
v 50.000000 -17.000000 1.000000 
v 44.000000 -41.000000 -12.000000 
v 45.000000 -17.000000 -15.000000 
v 45.000000 -17.000000 -15.000000 
v 44.000000 -41.000000 -12.000000 
v 34.000000 -41.000000 -34.000000 
v 45.000000 -17.000000 -15.000000 
v 34.000000 -41.000000 -34.000000 
v 33.000000 -17.000000 -40.000000 
v 33.000000 -17.000000 -40.000000 
v 34.000000 -41.000000 -34.000000 
v 0.000000 -41.000000 -44.000000 
v 33.000000 -17.000000 -40.000000 
v 0.000000 -41.000000 -44.000000 
v 0.000000 -17.000000 -50.000000 
v -34.000000 35.000000 -9.000000 
v -25.000000 17.000000 -40.000000 
v -41.000000 4.000000 -15.000000 
v -34.000000 35.000000 -9.000000 
v -23.000000 58.000000 -19.000000 
v -25.000000 17.000000 -40.000000 
v -23.000000 58.000000 -19.000000 
v 0.000000 17.000000 -50.000000 
v -25.000000 17.000000 -40.000000 
v -23.000000 58.000000 -19.000000 
v 0.000000 63.000000 -25.000000 
v 0.000000 17.000000 -50.000000 
v -36.000000 4.000000 32.000000 
v -50.000000 -17.000000 1.000000 
v -39.000000 -17.000000 32.000000 
v -36.000000 4.000000 32.000000 
v -46.000000 4.000000 1.000000 
v -50.000000 -17.000000 1.000000 
v -46.000000 4.000000 1.000000 
v -45.000000 -17.000000 -15.000000 
v -50.000000 -17.000000 1.000000 
v -46.000000 4.000000 1.000000 
v -41.000000 4.000000 -15.000000 
v -45.000000 -17.000000 -15.000000 
v -41.000000 4.000000 -15.000000 
v -33.000000 -17.000000 -40.000000 
v -45.000000 -17.000000 -15.000000 
v -41.000000 4.000000 -15.000000 
v -25.000000 17.000000 -40.000000 
v -33.000000 -17.000000 -40.000000 
v -25.000000 17.000000 -40.000000 
v 0.000000 -17.000000 -50.000000 
v -33.000000 -17.000000 -40.000000 
v -25.000000 17.000000 -40.000000 
v 0.000000 17.000000 -50.000000 
v 0.000000 -17.000000 -50.000000 
v -39.000000 -17.000000 32.000000 
v -49.000000 -41.000000 0.000000 
v -36.000000 -41.000000 33.000000 
v -39.000000 -17.000000 32.000000 
v -50.000000 -17.000000 1.000000 
v -49.000000 -41.000000 0.000000 
v -50.000000 -17.000000 1.000000 
v -44.000000 -41.000000 -12.000000 
v -49.000000 -41.000000 0.000000 
v -50.000000 -17.000000 1.000000 
v -45.000000 -17.000000 -15.000000 
v -44.000000 -41.000000 -12.000000 
v -45.000000 -17.000000 -15.000000 
v -34.000000 -41.000000 -34.000000 
v -44.000000 -41.000000 -12.000000 
v -45.000000 -17.000000 -15.000000 
v -33.000000 -17.000000 -40.000000 
v -34.000000 -41.000000 -34.000000 
v -33.000000 -17.000000 -40.000000 
v 0.000000 -41.000000 -44.000000 
v -34.000000 -41.000000 -34.000000 
v -33.000000 -17.000000 -40.000000 
v 0.000000 -17.000000 -50.000000 
v 0.000000 -41.000000 -44.000000 
v 0.000000 4.000000 40.000000 
v 0.000000 -41.000000 46.000000 
v 36.000000 -41.000000 33.000000 
v 0.000000 -41.000000 46.000000 
v -36.000000 4.000000 32.000000 
v -36.000000 -41.000000 33.000000 
v 0.000000 4.000000 40.000000 
v -36.000000 4.000000 32.000000 
v 0.000000 -41.000000 46.000000 
v 36.000000 4.000000 32.000000 
v 0.000000 4.000000 40.000000 
v 36.000000 -41.000000 33.000000 
vn 0.884277 0.256592 -0.389404 
vn 0.894775 0.209961 -0.393555 
vn 0.646973 0.230713 -0.726562 
vn 0.884277 0.256592 -0.389404 
vn 0.646973 0.230713 -0.726562 
vn 0.531982 0.420654 -0.734619 
vn 0.531982 0.420654 -0.734619 
vn 0.646973 0.230713 -0.726562 
vn -0.003662 0.346680 -0.937744 
vn 0.531982 0.420654 -0.734619 
vn -0.003662 0.346680 -0.937744 
vn -0.011963 0.507080 -0.861572 
vn 0.925537 0.157715 0.343506 
vn 0.931396 -0.019043 0.363037 
vn 0.998291 0.055176 0.009033 
vn 0.925537 0.157715 0.343506 
vn 0.998291 0.055176 0.009033 
vn 0.979248 0.181396 -0.088623 
vn 0.979248 0.181396 -0.088623 
vn 0.998291 0.055176 0.009033 
vn 0.930664 0.037598 -0.363525 
vn 0.979248 0.181396 -0.088623 
vn 0.930664 0.037598 -0.363525 
vn 0.894775 0.209961 -0.393555 
vn 0.894775 0.209961 -0.393555 
vn 0.930664 0.037598 -0.363525 
vn 0.641602 -0.028076 -0.766113 
vn 0.894775 0.209961 -0.393555 
vn 0.641602 -0.028076 -0.766113 
vn 0.646973 0.230713 -0.726562 
vn 0.646973 0.230713 -0.726562 
vn 0.641602 -0.028076 -0.766113 
vn 0.000000 -0.058838 -0.998047 
vn 0.646973 0.230713 -0.726562 
vn 0.000000 -0.058838 -0.998047 
vn -0.003662 0.346680 -0.937744 
vn 0.931396 -0.019043 0.363037 
vn 0.923584 -0.105957 0.368164 
vn 0.989502 -0.076660 0.121582 
vn 0.931396 -0.019043 0.363037 
vn 0.989502 -0.076660 0.121582 
vn 0.998291 0.055176 0.009033 
vn 0.998291 0.055176 0.009033 
vn 0.989502 -0.076660 0.121582 
vn 0.925049 -0.063965 -0.373779 
vn 0.998291 0.055176 0.009033 
vn 0.925049 -0.063965 -0.373779 
vn 0.930664 0.037598 -0.363525 
vn 0.930664 0.037598 -0.363525 
vn 0.925049 -0.063965 -0.373779 
vn 0.748535 -0.161621 -0.642822 
vn 0.930664 0.037598 -0.363525 
vn 0.748535 -0.161621 -0.642822 
vn 0.641602 -0.028076 -0.766113 
vn 0.641602 -0.028076 -0.766113 
vn 0.748535 -0.161621 -0.642822 
vn 0.000000 -0.252441 -0.967529 
vn 0.641602 -0.028076 -0.766113 
vn 0.000000 -0.252441 -0.967529 
vn 0.000000 -0.058838 -0.998047 
vn -0.868652 0.287842 -0.402588 
vn -0.639648 0.244141 -0.728760 
vn -0.894775 0.209961 -0.393555 
vn -0.868652 0.287842 -0.402588 
vn -0.521973 0.440430 -0.730225 
vn -0.639648 0.244141 -0.728760 
vn -0.521973 0.440430 -0.730225 
vn -0.003662 0.346680 -0.937744 
vn -0.639648 0.244141 -0.728760 
vn -0.521973 0.440430 -0.730225 
vn -0.011963 0.507080 -0.861572 
vn -0.003662 0.346680 -0.937744 
vn -0.925537 0.157715 0.343506 
vn -0.998291 0.055176 0.009033 
vn -0.931396 -0.019043 0.363037 
vn -0.925537 0.157715 0.343506 
vn -0.979248 0.181396 -0.088623 
vn -0.998291 0.055176 0.009033 
vn -0.979248 0.181396 -0.088623 
vn -0.930664 0.037598 -0.363525 
vn -0.998291 0.055176 0.009033 
vn -0.979248 0.181396 -0.088623 
vn -0.894775 0.209961 -0.393555 
vn -0.930664 0.037598 -0.363525 
vn -0.894775 0.209961 -0.393555 
vn -0.641602 -0.028076 -0.766113 
vn -0.930664 0.037598 -0.363525 
vn -0.894775 0.209961 -0.393555 
vn -0.639648 0.244141 -0.728760 
vn -0.641602 -0.028076 -0.766113 
vn -0.639648 0.244141 -0.728760 
vn 0.000000 -0.058838 -0.998047 
vn -0.641602 -0.028076 -0.766113 
vn -0.639648 0.244141 -0.728760 
vn -0.003662 0.346680 -0.937744 
vn 0.000000 -0.058838 -0.998047 
vn -0.931396 -0.019043 0.363037 
vn -0.989502 -0.076660 0.121582 
vn -0.923584 -0.105957 0.368164 
vn -0.931396 -0.019043 0.363037 
vn -0.998291 0.055176 0.009033 
vn -0.989502 -0.076660 0.121582 
vn -0.998291 0.055176 0.009033 
vn -0.925049 -0.063965 -0.373779 
vn -0.989502 -0.076660 0.121582 
vn -0.998291 0.055176 0.009033 
vn -0.930664 0.037598 -0.363525 
vn -0.925049 -0.063965 -0.373779 
vn -0.930664 0.037598 -0.363525 
vn -0.748535 -0.161621 -0.642822 
vn -0.925049 -0.063965 -0.373779 
vn -0.930664 0.037598 -0.363525 
vn -0.641602 -0.028076 -0.766113 
vn -0.748535 -0.161621 -0.642822 
vn -0.641602 -0.028076 -0.766113 
vn 0.000000 -0.252441 -0.967529 
vn -0.748535 -0.161621 -0.642822 
vn -0.641602 -0.028076 -0.766113 
vn 0.000000 -0.058838 -0.998047 
vn 0.000000 -0.252441 -0.967529 
vn 0.343994 0.131836 0.929443 
vn 0.343994 0.131836 0.929443 
vn 0.343994 0.131836 0.929443 
vn -0.346924 0.020264 0.937500 
vn -0.346924 0.020264 0.937500 
vn -0.346924 0.020264 0.937500 
vn -0.225586 0.136963 0.964355 
vn -0.225586 0.136963 0.964355 
vn -0.225586 0.136963 0.964355 
vn 0.227783 0.020996 0.973389 
vn 0.227783 0.020996 0.973389 
vn 0.227783 0.020996 0.973389 
vt 0.253968 0.841270 
vt 0.222222 0.555556 
vt 0.333333 0.634921 
vt 0.253968 0.841270 
vt 0.333333 0.634921 
vt 0.301587 0.873016 
vt 0.301587 0.873016 
vt 0.333333 0.634921 
vt 0.460317 0.634921 
vt 0.301587 0.873016 
vt 0.460317 0.634921 
vt 0.460317 0.841270 
vt 0.126984 0.555556 
vt 0.126984 0.301587 
vt 0.174603 0.301587 
vt 0.126984 0.555556 
vt 0.174603 0.301587 
vt 0.174603 0.555556 
vt 0.174603 0.555556 
vt 0.174603 0.301587 
vt 0.222222 0.301587 
vt 0.174603 0.555556 
vt 0.222222 0.301587 
vt 0.222222 0.555556 
vt 0.222222 0.555556 
vt 0.222222 0.301587 
vt 0.317460 0.301587 
vt 0.222222 0.555556 
vt 0.317460 0.301587 
vt 0.333333 0.634921 
vt 0.333333 0.634921 
vt 0.317460 0.301587 
vt 0.460317 0.301587 
vt 0.333333 0.634921 
vt 0.460317 0.301587 
vt 0.460317 0.634921 
vt 0.126984 0.301587 
vt 0.190476 0.158730 
vt 0.238095 0.158730 
vt 0.126984 0.301587 
vt 0.238095 0.158730 
vt 0.174603 0.301587 
vt 0.174603 0.301587 
vt 0.206349 0.079365 
vt 0.238095 0.079365 
vt 0.174603 0.301587 
vt 0.238095 0.079365 
vt 0.222222 0.301587 
vt 0.222222 0.301587 
vt 0.238095 0.079365 
vt 0.301587 0.079365 
vt 0.222222 0.301587 
vt 0.301587 0.079365 
vt 0.317460 0.301587 
vt 0.317460 0.301587 
vt 0.301587 0.079365 
vt 0.460317 0.079365 
vt 0.317460 0.301587 
vt 0.460317 0.079365 
vt 0.460317 0.301587 
vt 0.698413 0.746032 
vt 0.587302 0.634921 
vt 0.698413 0.555556 
vt 0.698413 0.746032 
vt 0.650794 0.857143 
vt 0.587302 0.634921 
vt 0.650794 0.857143 
vt 0.460317 0.634921 
vt 0.587302 0.634921 
vt 0.650794 0.857143 
vt 0.460317 0.841270 
vt 0.460317 0.634921 
vt 0.809524 0.555556 
vt 0.730159 0.317460 
vt 0.809524 0.301587 
vt 0.809524 0.555556 
vt 0.746032 0.555556 
vt 0.730159 0.317460 
vt 0.746032 0.555556 
vt 0.698413 0.301587 
vt 0.746032 0.301587 
vt 0.746032 0.555556 
vt 0.698413 0.555556 
vt 0.698413 0.301587 
vt 0.698413 0.555556 
vt 0.603175 0.301587 
vt 0.698413 0.301587 
vt 0.698413 0.555556 
vt 0.587302 0.634921 
vt 0.603175 0.301587 
vt 0.587302 0.634921 
vt 0.460317 0.301587 
vt 0.603175 0.301587 
vt 0.587302 0.634921 
vt 0.460317 0.634921 
vt 0.460317 0.301587 
vt 0.809524 0.301587 
vt 0.698413 0.190476 
vt 0.761905 0.190476 
vt 0.809524 0.301587 
vt 0.730159 0.317460 
vt 0.698413 0.190476 
vt 0.746032 0.301587 
vt 0.682540 0.079365 
vt 0.714286 0.079365 
vt 0.746032 0.301587 
vt 0.698413 0.301587 
vt 0.682540 0.079365 
vt 0.698413 0.301587 
vt 0.634921 0.079365 
vt 0.682540 0.079365 
vt 0.698413 0.301587 
vt 0.603175 0.301587 
vt 0.634921 0.079365 
vt 0.603175 0.301587 
vt 0.460317 0.079365 
vt 0.634921 0.079365 
vt 0.603175 0.301587 
vt 0.460317 0.301587 
vt 0.460317 0.079365 
vt 0.793651 0.825397 
vt 0.984127 0.825397 
vt 0.984127 0.634921 
vt 0.984127 0.825397 
vt 0.793651 0.984127 
vt 0.984127 0.968254 
vt 0.793651 0.825397 
vt 0.793651 0.984127 
vt 0.984127 0.825397 
vt 0.793651 0.603175 
vt 0.793651 0.825397 
vt 0.984127 0.634921 
f 1/1/1 2/2/2 3/3/3
f 4/4/4 5/5/5 6/6/6
f 7/7/7 8/8/8 9/9/9
f 10/10/10 11/11/11 12/12/12
f 13/13/13 14/14/14 15/15/15
f 16/16/16 17/17/17 18/18/18
f 19/19/19 20/20/20 21/21/21
f 22/22/22 23/23/23 24/24/24
f 25/25/25 26/26/26 27/27/27
f 28/28/28 29/29/29 30/30/30
f 31/31/31 32/32/32 33/33/33
f 34/34/34 35/35/35 36/36/36
f 37/37/37 38/38/38 39/39/39
f 40/40/40 41/41/41 42/42/42
f 43/43/43 44/44/44 45/45/45
f 46/46/46 47/47/47 48/48/48
f 49/49/49 50/50/50 51/51/51
f 52/52/52 53/53/53 54/54/54
f 55/55/55 56/56/56 57/57/57
f 58/58/58 59/59/59 60/60/60
f 61/61/61 62/62/62 63/63/63
f 64/64/64 65/65/65 66/66/66
f 67/67/67 68/68/68 69/69/69
f 70/70/70 71/71/71 72/72/72
f 73/73/73 74/74/74 75/75/75
f 76/76/76 77/77/77 78/78/78
f 79/79/79 80/80/80 81/81/81
f 82/82/82 83/83/83 84/84/84
f 85/85/85 86/86/86 87/87/87
f 88/88/88 89/89/89 90/90/90
f 91/91/91 92/92/92 93/93/93
f 94/94/94 95/95/95 96/96/96
f 97/97/97 98/98/98 99/99/99
f 100/100/100 101/101/101 102/102/102
f 103/103/103 104/104/104 105/105/105
f 106/106/106 107/107/107 108/108/108
f 109/109/109 110/110/110 111/111/111
f 112/112/112 113/113/113 114/114/114
f 115/115/115 116/116/116 117/117/117
f 118/118/118 119/119/119 120/120/120
f 121/121/121 122/122/122 123/123/123
f 124/124/124 125/125/125 126/126/126
f 127/127/127 128/128/128 129/129/129
f 130/130/130 131/131/131 132/132/132
