v 7.000000 1.000000 35.000000 
v 0.000000 -7.000000 34.000000 
v 0.000000 -7.000000 0.000000 
v 7.000000 0.000000 0.000000 
v 7.000000 1.000000 35.000000 
v 0.000000 -7.000000 0.000000 
v 0.000000 7.000000 35.000000 
v 7.000000 1.000000 35.000000 
v 7.000000 0.000000 0.000000 
v 0.000000 5.000000 0.000000 
v 0.000000 7.000000 35.000000 
v 7.000000 0.000000 0.000000 
v 0.000000 -7.000000 34.000000 
v 7.000000 1.000000 35.000000 
v 0.000000 0.000000 40.000000 
v 7.000000 1.000000 35.000000 
v 0.000000 7.000000 35.000000 
v 0.000000 0.000000 40.000000 
v 0.000000 -7.000000 34.000000 
v -7.000000 1.000000 35.000000 
v 0.000000 -7.000000 0.000000 
v -7.000000 1.000000 35.000000 
v -7.000000 0.000000 0.000000 
v 0.000000 -7.000000 0.000000 
v -7.000000 1.000000 35.000000 
v 0.000000 7.000000 35.000000 
v -7.000000 0.000000 0.000000 
v 0.000000 7.000000 35.000000 
v 0.000000 5.000000 0.000000 
v -7.000000 0.000000 0.000000 
v -7.000000 1.000000 35.000000 
v 0.000000 -7.000000 34.000000 
v 0.000000 0.000000 40.000000 
v 0.000000 7.000000 35.000000 
v -7.000000 1.000000 35.000000 
v 0.000000 0.000000 40.000000 
v 0.000000 -7.000000 0.000000 
v -7.000000 0.000000 0.000000 
v 0.000000 0.000000 -3.000000 
v 7.000000 0.000000 0.000000 
v 0.000000 -7.000000 0.000000 
v 0.000000 0.000000 -3.000000 
v 7.000000 0.000000 0.000000 
v 0.000000 0.000000 -3.000000 
v 0.000000 5.000000 0.000000 
v 0.000000 0.000000 -3.000000 
v -7.000000 0.000000 0.000000 
v 0.000000 5.000000 0.000000 
vn 0.911621 -0.154297 0.380371 
vn 0.000000 -0.902588 0.430176 
vn 0.000000 -0.909424 -0.415527 
vn 0.812256 0.304443 -0.497070 
vn 0.911621 -0.154297 0.380371 
vn 0.000000 -0.909424 -0.415527 
vn 0.000000 0.952393 0.304199 
vn 0.911621 -0.154297 0.380371 
vn 0.812256 0.304443 -0.497070 
vn 0.000000 0.832031 -0.554443 
vn 0.000000 0.952393 0.304199 
vn 0.812256 0.304443 -0.497070 
vn 0.000000 -0.902588 0.430176 
vn 0.911621 -0.154297 0.380371 
vn 0.000000 -0.007568 0.999756 
vn 0.911621 -0.154297 0.380371 
vn 0.000000 0.952393 0.304199 
vn 0.000000 -0.007568 0.999756 
vn 0.000000 -0.902588 0.430176 
vn -0.911621 -0.154297 0.380371 
vn 0.000000 -0.909424 -0.415527 
vn -0.911621 -0.154297 0.380371 
vn -0.812256 0.304443 -0.497070 
vn 0.000000 -0.909424 -0.415527 
vn -0.911621 -0.154297 0.380371 
vn 0.000000 0.952393 0.304199 
vn -0.812256 0.304443 -0.497070 
vn 0.000000 0.952393 0.304199 
vn 0.000000 0.832031 -0.554443 
vn -0.812256 0.304443 -0.497070 
vn -0.911621 -0.154297 0.380371 
vn 0.000000 -0.902588 0.430176 
vn 0.000000 -0.007568 0.999756 
vn 0.000000 0.952393 0.304199 
vn -0.911621 -0.154297 0.380371 
vn 0.000000 -0.007568 0.999756 
vn 0.000000 -0.909424 -0.415527 
vn -0.812256 0.304443 -0.497070 
vn 0.000000 0.037109 -0.999268 
vn 0.812256 0.304443 -0.497070 
vn 0.000000 -0.909424 -0.415527 
vn 0.000000 0.037109 -0.999268 
vn 0.812256 0.304443 -0.497070 
vn 0.000000 0.037109 -0.999268 
vn 0.000000 0.832031 -0.554443 
vn 0.000000 0.037109 -0.999268 
vn -0.812256 0.304443 -0.497070 
vn 0.000000 0.832031 -0.554443 
vt 0.881890 0.858268 
vt 0.850394 0.858268 
vt 0.842520 0.795276 
vt 0.881890 0.795276 
vt 0.881890 0.858268 
vt 0.842520 0.795276 
vt 0.826772 0.858268 
vt 0.881890 0.858268 
vt 0.881890 0.795276 
vt 0.889764 0.724409 
vt 0.826772 0.858268 
vt 0.881890 0.795276 
vt 0.850394 0.858268 
vt 0.881890 0.858268 
vt 0.842520 0.795276 
vt 0.881890 0.858268 
vt 0.881890 0.795276 
vt 0.842520 0.795276 
vt 0.881890 0.858268 
vt 0.826772 0.858268 
vt 0.881890 0.795276 
vt 0.826772 0.858268 
vt 0.889764 0.724409 
vt 0.881890 0.795276 
vt 0.842520 0.795276 
vt 0.881890 0.795276 
vt 0.866142 0.763780 
vt 0.881890 0.795276 
vt 0.842520 0.795276 
vt 0.866142 0.763780 
vt 0.850394 0.858268 
vt 0.881890 0.858268 
vt 0.842520 0.858268 
vt 0.881890 0.858268 
vt 0.850394 0.858268 
vt 0.842520 0.858268 
vt 0.881890 0.858268 
vt 0.842520 0.858268 
vt 0.826772 0.858268 
vt 0.842520 0.858268 
vt 0.881890 0.858268 
vt 0.826772 0.858268 
vt 0.881890 0.795276 
vt 0.866142 0.763780 
vt 0.889764 0.724409 
vt 0.866142 0.763780 
vt 0.881890 0.795276 
vt 0.889764 0.724409 
f 1/1/1 2/2/2 3/3/3
f 4/4/4 5/5/5 6/6/6
f 7/7/7 8/8/8 9/9/9
f 10/10/10 11/11/11 12/12/12
f 13/13/13 14/14/14 15/15/15
f 16/16/16 17/17/17 18/18/18
f 19/19/19 20/20/20 21/21/21
f 22/22/22 23/23/23 24/24/24
f 25/25/25 26/26/26 27/27/27
f 28/28/28 29/29/29 30/30/30
f 31/31/31 32/32/32 33/33/33
f 34/34/34 35/35/35 36/36/36
f 37/37/37 38/38/38 39/39/39
f 40/40/40 41/41/41 42/42/42
f 43/43/43 44/44/44 45/45/45
f 46/46/46 47/47/47 48/48/48
