v 6.000000 58.000000 12.000000 
v 3.000000 57.000000 15.000000 
v 2.000000 55.000000 12.000000 
v 3.000000 57.000000 15.000000 
v 0.000000 57.000000 14.000000 
v 2.000000 55.000000 12.000000 
v 0.000000 57.000000 14.000000 
v 0.000000 57.000000 7.000000 
v 2.000000 55.000000 12.000000 
v 0.000000 57.000000 7.000000 
v 5.000000 58.000000 7.000000 
v 2.000000 55.000000 12.000000 
v 5.000000 58.000000 7.000000 
v 6.000000 58.000000 12.000000 
v 2.000000 55.000000 12.000000 
v 17.000000 90.000000 13.000000 
v 4.000000 90.000000 24.000000 
v 6.000000 58.000000 12.000000 
v 4.000000 90.000000 24.000000 
v 3.000000 57.000000 15.000000 
v 6.000000 58.000000 12.000000 
v 4.000000 90.000000 24.000000 
v -6.000000 90.000000 16.000000 
v 3.000000 57.000000 15.000000 
v -6.000000 90.000000 16.000000 
v 0.000000 57.000000 14.000000 
v 3.000000 57.000000 15.000000 
v -6.000000 90.000000 16.000000 
v -4.000000 91.000000 7.000000 
v 0.000000 57.000000 14.000000 
v -4.000000 91.000000 7.000000 
v 0.000000 57.000000 7.000000 
v 0.000000 57.000000 14.000000 
v -4.000000 91.000000 7.000000 
v 8.000000 89.000000 8.000000 
v 0.000000 57.000000 7.000000 
v 8.000000 89.000000 8.000000 
v 5.000000 58.000000 7.000000 
v 0.000000 57.000000 7.000000 
v 8.000000 89.000000 8.000000 
v 17.000000 90.000000 13.000000 
v 5.000000 58.000000 7.000000 
v 17.000000 90.000000 13.000000 
v 6.000000 58.000000 12.000000 
v 5.000000 58.000000 7.000000 
vn 0.869141 -0.424316 0.253418 
vn -0.035645 -0.505615 0.861816 
vn 0.053467 -0.992676 0.107666 
vn -0.035645 -0.505615 0.861816 
vn -0.870850 -0.371094 0.322021 
vn 0.053467 -0.992676 0.107666 
vn -0.870850 -0.371094 0.322021 
vn -0.468750 -0.462402 -0.752441 
vn 0.053467 -0.992676 0.107666 
vn -0.468750 -0.462402 -0.752441 
vn 0.589600 -0.456787 -0.665771 
vn 0.053467 -0.992676 0.107666 
vn 0.589600 -0.456787 -0.665771 
vn 0.869141 -0.424316 0.253418 
vn 0.053467 -0.992676 0.107666 
vn 0.975586 -0.152588 -0.156982 
vn 0.441162 -0.235596 0.865723 
vn 0.869141 -0.424316 0.253418 
vn 0.441162 -0.235596 0.865723 
vn -0.035645 -0.505615 0.861816 
vn 0.869141 -0.424316 0.253418 
vn 0.441162 -0.235596 0.865723 
vn -0.849121 -0.126709 0.512451 
vn -0.035645 -0.505615 0.861816 
vn -0.849121 -0.126709 0.512451 
vn -0.870850 -0.371094 0.322021 
vn -0.035645 -0.505615 0.861816 
vn -0.849121 -0.126709 0.512451 
vn -0.844971 -0.069336 -0.530029 
vn -0.870850 -0.371094 0.322021 
vn -0.844971 -0.069336 -0.530029 
vn -0.468750 -0.462402 -0.752441 
vn -0.870850 -0.371094 0.322021 
vn -0.844971 -0.069336 -0.530029 
vn 0.281250 0.020020 -0.959229 
vn -0.468750 -0.462402 -0.752441 
vn 0.281250 0.020020 -0.959229 
vn 0.589600 -0.456787 -0.665771 
vn -0.468750 -0.462402 -0.752441 
vn 0.281250 0.020020 -0.959229 
vn 0.975586 -0.152588 -0.156982 
vn 0.589600 -0.456787 -0.665771 
vn 0.975586 -0.152588 -0.156982 
vn 0.869141 -0.424316 0.253418 
vn 0.589600 -0.456787 -0.665771 
vt 0.600000 0.066667 
vt 0.733333 0.066667 
vt 0.200000 0.066667 
vt 0.200000 0.066667 
vt 0.333333 0.066667 
vt 0.200000 0.000000 
vt 0.333333 0.066667 
vt 0.400000 0.066667 
vt 0.333333 0.000000 
vt 0.400000 0.066667 
vt 0.466667 0.066667 
vt 0.266667 0.000000 
vt 0.466667 0.066667 
vt 0.600000 0.066667 
vt 0.133333 0.000000 
vt 0.600000 0.133333 
vt 0.733333 0.133333 
vt 0.600000 0.066667 
vt 0.733333 0.133333 
vt 0.733333 0.066667 
vt 0.600000 0.066667 
vt 0.200000 0.133333 
vt 0.333333 0.133333 
vt 0.200000 0.066667 
vt 0.333333 0.133333 
vt 0.333333 0.066667 
vt 0.200000 0.066667 
vt 0.333333 0.133333 
vt 0.400000 0.133333 
vt 0.333333 0.066667 
vt 0.400000 0.133333 
vt 0.400000 0.066667 
vt 0.333333 0.066667 
vt 0.400000 0.133333 
vt 0.466667 0.133333 
vt 0.400000 0.066667 
vt 0.466667 0.133333 
vt 0.466667 0.066667 
vt 0.400000 0.066667 
vt 0.466667 0.133333 
vt 0.600000 0.133333 
vt 0.466667 0.066667 
vt 0.600000 0.133333 
vt 0.600000 0.066667 
vt 0.466667 0.066667 
f 1/1/1 2/2/2 3/3/3
f 4/4/4 5/5/5 6/6/6
f 7/7/7 8/8/8 9/9/9
f 10/10/10 11/11/11 12/12/12
f 13/13/13 14/14/14 15/15/15
f 16/16/16 17/17/17 18/18/18
f 19/19/19 20/20/20 21/21/21
f 22/22/22 23/23/23 24/24/24
f 25/25/25 26/26/26 27/27/27
f 28/28/28 29/29/29 30/30/30
f 31/31/31 32/32/32 33/33/33
f 34/34/34 35/35/35 36/36/36
f 37/37/37 38/38/38 39/39/39
f 40/40/40 41/41/41 42/42/42
f 43/43/43 44/44/44 45/45/45
