v 12.000000 1.000000 -6.000000 
v 11.000000 12.000000 6.000000 
v 14.000000 0.000000 6.000000 
v 12.000000 -8.000000 -5.000000 
v 12.000000 1.000000 -6.000000 
v 14.000000 0.000000 6.000000 
v 11.000000 -12.000000 11.000000 
v 12.000000 -8.000000 -5.000000 
v 14.000000 0.000000 6.000000 
v 11.000000 1.000000 21.000000 
v 11.000000 -12.000000 11.000000 
v 14.000000 0.000000 6.000000 
v 11.000000 12.000000 6.000000 
v 11.000000 1.000000 21.000000 
v 14.000000 0.000000 6.000000 
v 11.000000 1.000000 21.000000 
v -4.000000 2.000000 22.000000 
v 11.000000 -12.000000 11.000000 
v 12.000000 6.000000 16.000000 
v 12.000000 10.000000 6.000000 
v 11.000000 14.000000 23.000000 
v 12.000000 10.000000 6.000000 
v 7.000000 8.000000 13.000000 
v 11.000000 14.000000 23.000000 
v 7.000000 8.000000 13.000000 
v 12.000000 6.000000 16.000000 
v 11.000000 14.000000 23.000000 
v 11.000000 1.000000 17.000000 
v 11.000000 8.000000 15.000000 
v 11.000000 9.000000 28.000000 
v 11.000000 8.000000 15.000000 
v 7.000000 5.000000 17.000000 
v 11.000000 9.000000 28.000000 
v 7.000000 5.000000 17.000000 
v 11.000000 1.000000 17.000000 
v 11.000000 9.000000 28.000000 
v 11.000000 -2.000000 18.000000 
v 11.000000 4.000000 18.000000 
v 11.000000 0.000000 31.000000 
v 11.000000 4.000000 18.000000 
v 5.000000 0.000000 21.000000 
v 11.000000 0.000000 31.000000 
v 5.000000 0.000000 21.000000 
v 11.000000 -2.000000 18.000000 
v 11.000000 0.000000 31.000000 
v 12.000000 -6.000000 15.000000 
v 11.000000 0.000000 18.000000 
v 11.000000 -7.000000 28.000000 
v 11.000000 0.000000 18.000000 
v 6.000000 -3.000000 16.000000 
v 11.000000 -7.000000 28.000000 
v 6.000000 -3.000000 16.000000 
v 12.000000 -6.000000 15.000000 
v 11.000000 -7.000000 28.000000 
v 12.000000 -11.000000 11.000000 
v 12.000000 -5.000000 16.000000 
v 11.000000 -14.000000 23.000000 
v 12.000000 -5.000000 16.000000 
v 5.000000 -8.000000 12.000000 
v 11.000000 -14.000000 23.000000 
v 5.000000 -8.000000 12.000000 
v 12.000000 -11.000000 11.000000 
v 11.000000 -14.000000 23.000000 
vn 0.467041 0.250000 -0.847900 
vn 0.538574 0.827637 -0.157227 
vn 0.999756 0.006592 0.014160 
vn 0.470703 -0.763184 -0.441895 
vn 0.467041 0.250000 -0.847900 
vn 0.999756 0.006592 0.014160 
vn 0.548584 -0.738037 0.392090 
vn 0.470703 -0.763184 -0.441895 
vn 0.999756 0.006592 0.014160 
vn 0.699707 0.357910 0.618164 
vn 0.548584 -0.738037 0.392090 
vn 0.999756 0.006592 0.014160 
vn 0.538574 0.827637 -0.157227 
vn 0.699707 0.357910 0.618164 
vn 0.999756 0.006592 0.014160 
vn 0.699707 0.357910 0.618164 
vn 0.121826 0.180176 0.975830 
vn 0.548584 -0.738037 0.392090 
vn 0.472412 -0.649414 0.595459 
vn 0.429199 0.889160 -0.157471 
vn -0.466797 0.360596 0.807129 
vn 0.429199 0.889160 -0.157471 
vn -0.952148 0.133545 0.274170 
vn -0.466797 0.360596 0.807129 
vn -0.952148 0.133545 0.274170 
vn 0.472412 -0.649414 0.595459 
vn -0.466797 0.360596 0.807129 
vn 0.431885 -0.792969 0.429443 
vn 0.451660 0.889648 -0.063232 
vn -0.583740 0.321777 0.745117 
vn 0.451660 0.889648 -0.063232 
vn -0.961914 0.116211 0.247070 
vn -0.583740 0.321777 0.745117 
vn -0.961914 0.116211 0.247070 
vn 0.431885 -0.792969 0.429443 
vn -0.583740 0.321777 0.745117 
vn 0.537354 -0.823730 0.179932 
vn 0.537354 0.823730 0.179932 
vn 0.298096 0.000000 0.954346 
vn 0.537354 0.823730 0.179932 
vn -0.891357 0.000000 0.452881 
vn 0.298096 0.000000 0.954346 
vn -0.891357 0.000000 0.452881 
vn 0.537354 -0.823730 0.179932 
vn 0.298096 0.000000 0.954346 
vn 0.523926 -0.850586 -0.038086 
vn 0.430664 0.785156 0.444336 
vn -0.229248 -0.577637 0.783203 
vn 0.430664 0.785156 0.444336 
vn -0.947754 -0.199707 0.248047 
vn -0.229248 -0.577637 0.783203 
vn -0.947754 -0.199707 0.248047 
vn 0.523926 -0.850586 -0.038086 
vn -0.229248 -0.577637 0.783203 
vn 0.504639 -0.850830 -0.145264 
vn 0.471191 0.600098 0.646240 
vn -0.164551 -0.618408 0.768066 
vn 0.471191 0.600098 0.646240 
vn -0.910156 -0.269775 0.313721 
vn -0.164551 -0.618408 0.768066 
vn -0.910156 -0.269775 0.313721 
vn 0.504639 -0.850830 -0.145264 
vn -0.164551 -0.618408 0.768066 
vt 0.900763 0.111111 
vt 0.992366 0.111111 
vt 0.900763 0.222222 
vt 0.748092 0.111111 
vt 0.900763 0.111111 
vt 0.900763 0.222222 
vt 0.748092 0.111111 
vt 0.748092 0.111111 
vt 0.900763 0.222222 
vt 0.900763 0.111111 
vt 0.748092 0.111111 
vt 0.900763 0.222222 
vt 0.992366 0.111111 
vt 0.900763 0.111111 
vt 0.900763 0.222222 
vt 0.900763 0.111111 
vt 0.900763 0.365079 
vt 0.748092 0.111111 
vt 0.984733 0.000000 
vt 0.984733 0.000000 
vt 0.755725 0.047619 
vt 0.984733 0.000000 
vt 0.984733 0.079365 
vt 0.755725 0.047619 
vt 0.984733 0.079365 
vt 0.984733 0.000000 
vt 0.755725 0.047619 
vt 0.984733 0.000000 
vt 0.984733 0.000000 
vt 0.755725 0.047619 
vt 0.984733 0.000000 
vt 0.984733 0.079365 
vt 0.755725 0.047619 
vt 0.984733 0.079365 
vt 0.984733 0.000000 
vt 0.755725 0.047619 
vt 0.984733 0.000000 
vt 0.984733 0.000000 
vt 0.755725 0.047619 
vt 0.984733 0.000000 
vt 0.984733 0.079365 
vt 0.755725 0.047619 
vt 0.984733 0.079365 
vt 0.984733 0.000000 
vt 0.755725 0.047619 
vt 0.984733 0.000000 
vt 0.984733 0.000000 
vt 0.755725 0.047619 
vt 0.984733 0.000000 
vt 0.984733 0.079365 
vt 0.755725 0.047619 
vt 0.984733 0.079365 
vt 0.984733 0.000000 
vt 0.755725 0.047619 
vt 0.984733 0.000000 
vt 0.984733 0.000000 
vt 0.755725 0.047619 
vt 0.984733 0.000000 
vt 0.984733 0.079365 
vt 0.755725 0.047619 
vt 0.984733 0.079365 
vt 0.984733 0.000000 
vt 0.755725 0.047619 
f 1/1/1 2/2/2 3/3/3
f 4/4/4 5/5/5 6/6/6
f 7/7/7 8/8/8 9/9/9
f 10/10/10 11/11/11 12/12/12
f 13/13/13 14/14/14 15/15/15
f 16/16/16 17/17/17 18/18/18
f 19/19/19 20/20/20 21/21/21
f 22/22/22 23/23/23 24/24/24
f 25/25/25 26/26/26 27/27/27
f 28/28/28 29/29/29 30/30/30
f 31/31/31 32/32/32 33/33/33
f 34/34/34 35/35/35 36/36/36
f 37/37/37 38/38/38 39/39/39
f 40/40/40 41/41/41 42/42/42
f 43/43/43 44/44/44 45/45/45
f 46/46/46 47/47/47 48/48/48
f 49/49/49 50/50/50 51/51/51
f 52/52/52 53/53/53 54/54/54
f 55/55/55 56/56/56 57/57/57
f 58/58/58 59/59/59 60/60/60
f 61/61/61 62/62/62 63/63/63
