v 10.000000 18.000000 -13.000000 
v 31.000000 18.000000 -15.000000 
v 30.000000 4.000000 -24.000000 
v 6.000000 4.000000 -24.000000 
v 10.000000 18.000000 -13.000000 
v 30.000000 4.000000 -24.000000 
v 35.000000 5.000000 -2.000000 
v 30.000000 4.000000 -24.000000 
v 31.000000 18.000000 -15.000000 
v 35.000000 0.000000 -5.000000 
v 30.000000 4.000000 -24.000000 
v 35.000000 5.000000 -2.000000 
v 11.000000 21.000000 0.000000 
v 32.000000 23.000000 -2.000000 
v 31.000000 18.000000 -15.000000 
v 10.000000 18.000000 -13.000000 
v 11.000000 21.000000 0.000000 
v 31.000000 18.000000 -15.000000 
v 36.000000 7.000000 0.000000 
v 31.000000 18.000000 -15.000000 
v 32.000000 23.000000 -2.000000 
v 35.000000 5.000000 -2.000000 
v 31.000000 18.000000 -15.000000 
v 36.000000 7.000000 0.000000 
v 14.000000 15.000000 21.000000 
v 34.000000 18.000000 20.000000 
v 32.000000 23.000000 -2.000000 
v 11.000000 21.000000 0.000000 
v 14.000000 15.000000 21.000000 
v 32.000000 23.000000 -2.000000 
v 36.000000 5.000000 -2.000000 
v 32.000000 23.000000 -2.000000 
v 34.000000 18.000000 20.000000 
v 36.000000 7.000000 0.000000 
v 32.000000 23.000000 -2.000000 
v 36.000000 5.000000 -2.000000 
v 14.000000 4.000000 24.000000 
v 35.000000 6.000000 24.000000 
v 34.000000 18.000000 20.000000 
v 14.000000 15.000000 21.000000 
v 14.000000 4.000000 24.000000 
v 34.000000 18.000000 20.000000 
v 36.000000 0.000000 -2.000000 
v 34.000000 18.000000 20.000000 
v 35.000000 6.000000 24.000000 
v 36.000000 5.000000 -2.000000 
v 34.000000 18.000000 20.000000 
v 36.000000 0.000000 -2.000000 
vn -0.130127 0.920898 -0.367188 
vn 0.513184 0.760010 -0.398438 
vn 0.558350 0.526367 -0.640869 
vn -0.218994 0.541748 -0.811279 
vn -0.130127 0.920898 -0.367188 
vn 0.558350 0.526367 -0.640869 
vn 0.955322 0.084473 -0.282715 
vn 0.558350 0.526367 -0.640869 
vn 0.513184 0.760010 -0.398438 
vn 0.962158 0.123535 -0.242432 
vn 0.558350 0.526367 -0.640869 
vn 0.955322 0.084473 -0.282715 
vn -0.095703 0.995117 0.016846 
vn 0.157227 0.987305 0.017822 
vn 0.513184 0.760010 -0.398438 
vn -0.130127 0.920898 -0.367188 
vn -0.095703 0.995117 0.016846 
vn 0.513184 0.760010 -0.398438 
vn 0.895264 -0.219482 -0.387207 
vn 0.513184 0.760010 -0.398438 
vn 0.157227 0.987305 0.017822 
vn 0.955322 0.084473 -0.282715 
vn 0.513184 0.760010 -0.398438 
vn 0.895264 -0.219482 -0.387207 
vn -0.149414 0.851074 0.502930 
vn 0.641846 0.582764 0.497803 
vn 0.157227 0.987305 0.017822 
vn -0.095703 0.995117 0.016846 
vn -0.149414 0.851074 0.502930 
vn 0.157227 0.987305 0.017822 
vn 0.965820 -0.083740 0.244385 
vn 0.157227 0.987305 0.017822 
vn 0.641846 0.582764 0.497803 
vn 0.895264 -0.219482 -0.387207 
vn 0.157227 0.987305 0.017822 
vn 0.965820 -0.083740 0.244385 
vn -0.089600 0.147461 0.984863 
vn 0.684814 0.013916 0.728271 
vn 0.641846 0.582764 0.497803 
vn -0.149414 0.851074 0.502930 
vn -0.089600 0.147461 0.984863 
vn 0.641846 0.582764 0.497803 
vn 0.998291 -0.004395 0.057617 
vn 0.641846 0.582764 0.497803 
vn 0.684814 0.013916 0.728271 
vn 0.965820 -0.083740 0.244385 
vn 0.641846 0.582764 0.497803 
vn 0.998291 -0.004395 0.057617 
vt 0.222222 0.111111 
vt 0.222222 0.000000 
vt 0.507937 0.000000 
vt 0.507937 0.111111 
vt 0.222222 0.111111 
vt 0.507937 0.000000 
vt 0.222222 0.111111 
vt 0.507937 0.000000 
vt 0.222222 0.000000 
vt 0.507937 0.111111 
vt 0.507937 0.000000 
vt 0.222222 0.111111 
vt 0.000000 0.111111 
vt 0.000000 0.000000 
vt 0.222222 0.000000 
vt 0.222222 0.111111 
vt 0.000000 0.111111 
vt 0.222222 0.000000 
vt 0.000000 0.111111 
vt 0.222222 0.000000 
vt 0.000000 0.000000 
vt 0.222222 0.111111 
vt 0.222222 0.000000 
vt 0.000000 0.111111 
vt 0.460317 0.111111 
vt 0.460317 0.000000 
vt 0.000000 0.000000 
vt 0.000000 0.111111 
vt 0.460317 0.111111 
vt 0.000000 0.000000 
vt 0.460317 0.111111 
vt 0.000000 0.000000 
vt 0.460317 0.000000 
vt 0.000000 0.111111 
vt 0.000000 0.000000 
vt 0.460317 0.111111 
vt 0.238095 0.111111 
vt 0.238095 0.000000 
vt 0.460317 0.000000 
vt 0.460317 0.111111 
vt 0.238095 0.111111 
vt 0.460317 0.000000 
vt 0.238095 0.111111 
vt 0.460317 0.000000 
vt 0.238095 0.000000 
vt 0.460317 0.111111 
vt 0.460317 0.000000 
vt 0.238095 0.111111 
f 1/1/1 2/2/2 3/3/3
f 4/4/4 5/5/5 6/6/6
f 7/7/7 8/8/8 9/9/9
f 10/10/10 11/11/11 12/12/12
f 13/13/13 14/14/14 15/15/15
f 16/16/16 17/17/17 18/18/18
f 19/19/19 20/20/20 21/21/21
f 22/22/22 23/23/23 24/24/24
f 25/25/25 26/26/26 27/27/27
f 28/28/28 29/29/29 30/30/30
f 31/31/31 32/32/32 33/33/33
f 34/34/34 35/35/35 36/36/36
f 37/37/37 38/38/38 39/39/39
f 40/40/40 41/41/41 42/42/42
f 43/43/43 44/44/44 45/45/45
f 46/46/46 47/47/47 48/48/48
