v 19.000000 26.000000 11.000000 
v 16.000000 26.000000 -12.000000 
v -7.000000 24.000000 -6.000000 
v -5.000000 24.000000 19.000000 
v 19.000000 26.000000 11.000000 
v -7.000000 24.000000 -6.000000 
v 21.000000 12.000000 30.000000 
v 19.000000 26.000000 11.000000 
v -5.000000 24.000000 19.000000 
vn 0.051514 0.892578 0.447754 
vn -0.105713 0.860352 -0.498047 
vn -0.044434 0.875488 -0.480957 
vn 0.108887 0.843750 0.525391 
vn 0.051514 0.892578 0.447754 
vn -0.044434 0.875488 -0.480957 
vn 0.095703 0.374268 0.922119 
vn 0.051514 0.892578 0.447754 
vn 0.108887 0.843750 0.525391 
vt 0.039370 0.472441 
vt 0.015748 0.480315 
vt 0.015748 0.551181 
vt 0.039370 0.551181 
vt 0.039370 0.472441 
vt 0.015748 0.551181 
vt 0.125984 0.472441 
vt 0.039370 0.472441 
vt 0.039370 0.551181 
f 1/1/1 2/2/2 3/3/3
f 4/4/4 5/5/5 6/6/6
f 7/7/7 8/8/8 9/9/9
