v -3.000000 -8.000000 61.000000 
v 87.000000 -8.000000 79.000000 
v 53.000000 29.000000 7.000000 
v -15.000000 -8.000000 -31.000000 
v -3.000000 -8.000000 61.000000 
v 53.000000 29.000000 7.000000 
v 69.000000 -8.000000 -70.000000 
v -15.000000 -8.000000 -31.000000 
v 53.000000 29.000000 7.000000 
v 132.000000 -8.000000 -2.000000 
v 69.000000 -8.000000 -70.000000 
v 53.000000 29.000000 7.000000 
v 87.000000 -8.000000 79.000000 
v 132.000000 -8.000000 -2.000000 
v 53.000000 29.000000 7.000000 
v -14.000000 -7.000000 27.000000 
v 67.000000 -7.000000 -16.000000 
v -4.000000 49.000000 -50.000000 
v -82.000000 -7.000000 -36.000000 
v -14.000000 -7.000000 27.000000 
v -4.000000 49.000000 -50.000000 
v -42.000000 -7.000000 -120.000000 
v -82.000000 -7.000000 -36.000000 
v -4.000000 49.000000 -50.000000 
v 50.000000 -7.000000 -108.000000 
v -42.000000 -7.000000 -120.000000 
v -4.000000 49.000000 -50.000000 
v 67.000000 -7.000000 -16.000000 
v 50.000000 -7.000000 -108.000000 
v -4.000000 49.000000 -50.000000 
v -7.000000 -7.000000 -24.000000 
v -84.000000 -7.000000 27.000000 
v -10.000000 49.000000 54.000000 
v 65.000000 -7.000000 32.000000 
v -7.000000 -7.000000 -24.000000 
v -10.000000 49.000000 54.000000 
v 33.000000 -7.000000 120.000000 
v 65.000000 -7.000000 32.000000 
v -10.000000 49.000000 54.000000 
v -59.000000 -7.000000 117.000000 
v 33.000000 -7.000000 120.000000 
v -10.000000 49.000000 54.000000 
v -84.000000 -7.000000 27.000000 
v -59.000000 -7.000000 117.000000 
v -10.000000 49.000000 54.000000 
v -4.000000 -7.000000 -51.000000 
v -97.000000 -7.000000 -56.000000 
v -53.000000 49.000000 9.000000 
v 19.000000 -7.000000 38.000000 
v -4.000000 -7.000000 -51.000000 
v -53.000000 49.000000 9.000000 
v -58.000000 -7.000000 88.000000 
v 19.000000 -7.000000 38.000000 
v -53.000000 49.000000 9.000000 
v -130.000000 -7.000000 30.000000 
v -58.000000 -7.000000 88.000000 
v -53.000000 49.000000 9.000000 
v -97.000000 -7.000000 -56.000000 
v -130.000000 -7.000000 30.000000 
v -53.000000 49.000000 9.000000 
v -6.000000 -7.000000 50.000000 
v 17.000000 -7.000000 -39.000000 
v -56.000000 49.000000 -11.000000 
v -99.000000 -7.000000 55.000000 
v -6.000000 -7.000000 50.000000 
v -56.000000 49.000000 -11.000000 
v -132.000000 -7.000000 -31.000000 
v -99.000000 -7.000000 55.000000 
v -56.000000 49.000000 -11.000000 
v -60.000000 -7.000000 -90.000000 
v -132.000000 -7.000000 -31.000000 
v -56.000000 49.000000 -11.000000 
v 17.000000 -7.000000 -39.000000 
v -60.000000 -7.000000 -90.000000 
v -56.000000 49.000000 -11.000000 
vn -0.317139 0.909912 0.266602 
vn 0.183105 0.916748 0.354248 
vn 0.000000 1.000000 0.000000 
vn -0.379150 0.905518 -0.189453 
vn -0.317139 0.909912 0.266602 
vn 0.000000 1.000000 0.000000 
vn 0.082520 0.919434 -0.383789 
vn -0.379150 0.905518 -0.189453 
vn 0.000000 1.000000 0.000000 
vn 0.430176 0.901367 -0.047607 
vn 0.082520 0.919434 -0.383789 
vn 0.000000 1.000000 0.000000 
vn 0.183105 0.916748 0.354248 
vn 0.430176 0.901367 -0.047607 
vn 0.000000 1.000000 0.000000 
vn -0.076904 0.841064 0.535400 
vn 0.531006 0.814941 0.231445 
vn 0.000000 1.000000 0.000000 
vn -0.577881 0.810059 0.097900 
vn -0.076904 0.841064 0.535400 
vn 0.000000 1.000000 0.000000 
vn -0.281006 0.834229 -0.474121 
vn -0.577881 0.810059 0.097900 
vn 0.000000 1.000000 0.000000 
vn 0.405273 0.826172 -0.390869 
vn -0.281006 0.834229 -0.474121 
vn 0.000000 1.000000 0.000000 
vn 0.531006 0.814941 0.231445 
vn 0.405273 0.826172 -0.390869 
vn 0.000000 1.000000 0.000000 
vn 0.020508 0.841553 -0.539551 
vn -0.552490 0.812744 -0.183838 
vn 0.000000 1.000000 0.000000 
vn 0.565186 0.811279 -0.148193 
vn 0.020508 0.841553 -0.539551 
vn 0.000000 1.000000 0.000000 
vn 0.329346 0.831299 0.447266 
vn 0.565186 0.811279 -0.148193 
vn 0.000000 1.000000 0.000000 
vn -0.362549 0.829102 0.425049 
vn 0.329346 0.831299 0.447266 
vn 0.000000 1.000000 0.000000 
vn -0.552490 0.812744 -0.183838 
vn -0.362549 0.829102 0.425049 
vn 0.000000 1.000000 0.000000 
vn 0.370605 0.828613 -0.418945 
vn -0.320801 0.831787 -0.452393 
vn 0.000000 1.000000 0.000000 
vn 0.549072 0.812988 0.192627 
vn 0.370605 0.828613 -0.418945 
vn 0.000000 1.000000 0.000000 
vn -0.030762 0.841309 0.539307 
vn 0.549072 0.812988 0.192627 
vn 0.000000 1.000000 0.000000 
vn -0.567871 0.811035 0.138916 
vn -0.030762 0.841309 0.539307 
vn 0.000000 1.000000 0.000000 
vn -0.320801 0.831787 -0.452393 
vn -0.567871 0.811035 0.138916 
vn 0.000000 1.000000 0.000000 
vn 0.370605 0.828613 0.418945 
vn 0.549072 0.812988 -0.192627 
vn 0.000000 1.000000 0.000000 
vn -0.320801 0.831787 0.452393 
vn 0.370605 0.828613 0.418945 
vn 0.000000 1.000000 0.000000 
vn -0.567871 0.811035 -0.138916 
vn -0.320801 0.831787 0.452393 
vn 0.000000 1.000000 0.000000 
vn -0.030762 0.841309 -0.539307 
vn -0.567871 0.811035 -0.138916 
vn 0.000000 1.000000 0.000000 
vn 0.549072 0.812988 -0.192627 
vn -0.030762 0.841309 -0.539307 
vn 0.000000 1.000000 0.000000 
vt 0.507937 1.000000 
vt 1.000000 0.619048 
vt 0.476190 0.428571 
vt 0.000000 0.619048 
vt 0.507937 1.000000 
vt 0.476190 0.428571 
vt 0.142857 -0.015873 
vt 0.000000 0.619048 
vt 0.476190 0.428571 
vt 0.793651 -0.015873 
vt 0.142857 -0.015873 
vt 0.476190 0.428571 
vt 1.000000 0.619048 
vt 0.793651 -0.015873 
vt 0.476190 0.428571 
vt 0.507937 1.000000 
vt 1.000000 0.619048 
vt 0.476190 0.428571 
vt 0.000000 0.619048 
vt 0.507937 1.000000 
vt 0.476190 0.428571 
vt 0.142857 -0.015873 
vt 0.000000 0.619048 
vt 0.476190 0.428571 
vt 0.793651 -0.015873 
vt 0.142857 -0.015873 
vt 0.476190 0.428571 
vt 1.000000 0.619048 
vt 0.793651 -0.015873 
vt 0.476190 0.428571 
vt 0.507937 1.000000 
vt 1.000000 0.619048 
vt 0.476190 0.428571 
vt 0.000000 0.619048 
vt 0.507937 1.000000 
vt 0.476190 0.428571 
vt 0.142857 -0.015873 
vt 0.000000 0.619048 
vt 0.476190 0.428571 
vt 0.793651 -0.015873 
vt 0.142857 -0.015873 
vt 0.476190 0.428571 
vt 1.000000 0.619048 
vt 0.793651 -0.015873 
vt 0.476190 0.428571 
vt 0.507937 1.000000 
vt 1.000000 0.619048 
vt 0.476190 0.428571 
vt 0.000000 0.619048 
vt 0.507937 1.000000 
vt 0.476190 0.428571 
vt 0.142857 -0.015873 
vt 0.000000 0.619048 
vt 0.476190 0.428571 
vt 0.793651 -0.015873 
vt 0.142857 -0.015873 
vt 0.476190 0.428571 
vt 1.000000 0.619048 
vt 0.793651 -0.015873 
vt 0.476190 0.428571 
vt 0.507937 1.000000 
vt 1.000000 0.619048 
vt 0.476190 0.428571 
vt 0.000000 0.619048 
vt 0.507937 1.000000 
vt 0.476190 0.428571 
vt 0.142857 -0.015873 
vt 0.000000 0.619048 
vt 0.476190 0.428571 
vt 0.793651 -0.015873 
vt 0.142857 -0.015873 
vt 0.476190 0.428571 
vt 1.000000 0.619048 
vt 0.793651 -0.015873 
vt 0.476190 0.428571 
f 1/1/1 2/2/2 3/3/3
f 4/4/4 5/5/5 6/6/6
f 7/7/7 8/8/8 9/9/9
f 10/10/10 11/11/11 12/12/12
f 13/13/13 14/14/14 15/15/15
f 16/16/16 17/17/17 18/18/18
f 19/19/19 20/20/20 21/21/21
f 22/22/22 23/23/23 24/24/24
f 25/25/25 26/26/26 27/27/27
f 28/28/28 29/29/29 30/30/30
f 31/31/31 32/32/32 33/33/33
f 34/34/34 35/35/35 36/36/36
f 37/37/37 38/38/38 39/39/39
f 40/40/40 41/41/41 42/42/42
f 43/43/43 44/44/44 45/45/45
f 46/46/46 47/47/47 48/48/48
f 49/49/49 50/50/50 51/51/51
f 52/52/52 53/53/53 54/54/54
f 55/55/55 56/56/56 57/57/57
f 58/58/58 59/59/59 60/60/60
f 61/61/61 62/62/62 63/63/63
f 64/64/64 65/65/65 66/66/66
f 67/67/67 68/68/68 69/69/69
f 70/70/70 71/71/71 72/72/72
f 73/73/73 74/74/74 75/75/75
