v 24.000000 3.000000 14.000000 
v 22.000000 -8.000000 7.000000 
v 29.000000 -8.000000 7.000000 
v 3.000000 0.000000 -6.000000 
v 1.000000 8.000000 2.000000 
v 20.000000 12.000000 0.000000 
v 18.000000 1.000000 -9.000000 
v 3.000000 0.000000 -6.000000 
v 20.000000 12.000000 0.000000 
v 20.000000 12.000000 0.000000 
v 1.000000 8.000000 2.000000 
v 24.000000 3.000000 14.000000 
v 5.000000 -5.000000 -6.000000 
v 3.000000 0.000000 -6.000000 
v 18.000000 1.000000 -9.000000 
v 18.000000 -5.000000 -7.000000 
v 5.000000 -5.000000 -6.000000 
v 18.000000 1.000000 -9.000000 
v 10.000000 -7.000000 6.000000 
v 5.000000 -5.000000 -6.000000 
v 18.000000 -5.000000 -7.000000 
v 22.000000 -8.000000 7.000000 
v 10.000000 -7.000000 6.000000 
v 18.000000 -5.000000 -7.000000 
v 7.000000 2.000000 13.000000 
v 10.000000 -7.000000 6.000000 
v 22.000000 -8.000000 7.000000 
v 24.000000 3.000000 14.000000 
v 7.000000 2.000000 13.000000 
v 22.000000 -8.000000 7.000000 
v 1.000000 8.000000 2.000000 
v 7.000000 2.000000 13.000000 
v 24.000000 3.000000 14.000000 
v 1.000000 8.000000 2.000000 
v 3.000000 0.000000 -6.000000 
v -1.000000 -3.000000 4.000000 
v 7.000000 2.000000 13.000000 
v 1.000000 8.000000 2.000000 
v -1.000000 -3.000000 4.000000 
v 3.000000 0.000000 -6.000000 
v 5.000000 -5.000000 -6.000000 
v -1.000000 -3.000000 4.000000 
v 5.000000 -5.000000 -6.000000 
v 10.000000 -7.000000 6.000000 
v -1.000000 -3.000000 4.000000 
v 10.000000 -7.000000 6.000000 
v 7.000000 2.000000 13.000000 
v -1.000000 -3.000000 4.000000 
vn -0.111816 0.243896 0.963135 
vn -0.050781 -0.933594 0.354004 
vn -0.026855 -0.924316 0.380615 
vn -0.601074 0.285889 -0.746094 
vn -0.582520 0.796631 0.160156 
vn -0.104736 0.989502 -0.098877 
vn -0.039795 0.344238 -0.937744 
vn -0.601074 0.285889 -0.746094 
vn -0.104736 0.989502 -0.098877 
vn -0.104736 0.989502 -0.098877 
vn -0.582520 0.796631 0.160156 
vn -0.111816 0.243896 0.963135 
vn -0.324219 -0.750732 -0.575195 
vn -0.601074 0.285889 -0.746094 
vn -0.039795 0.344238 -0.937744 
vn -0.009277 -0.776123 -0.630127 
vn -0.324219 -0.750732 -0.575195 
vn -0.039795 0.344238 -0.937744 
vn -0.183350 -0.953369 0.239258 
vn -0.324219 -0.750732 -0.575195 
vn -0.009277 -0.776123 -0.630127 
vn -0.050781 -0.933594 0.354004 
vn -0.183350 -0.953369 0.239258 
vn -0.009277 -0.776123 -0.630127 
vn -0.408447 -0.237549 0.881104 
vn -0.183350 -0.953369 0.239258 
vn -0.050781 -0.933594 0.354004 
vn -0.111816 0.243896 0.963135 
vn -0.408447 -0.237549 0.881104 
vn -0.050781 -0.933594 0.354004 
vn -0.582520 0.796631 0.160156 
vn -0.408447 -0.237549 0.881104 
vn -0.111816 0.243896 0.963135 
vn -0.582520 0.796631 0.160156 
vn -0.601074 0.285889 -0.746094 
vn -0.860352 -0.484131 0.158447 
vn -0.408447 -0.237549 0.881104 
vn -0.582520 0.796631 0.160156 
vn -0.860352 -0.484131 0.158447 
vn -0.601074 0.285889 -0.746094 
vn -0.324219 -0.750732 -0.575195 
vn -0.860352 -0.484131 0.158447 
vn -0.324219 -0.750732 -0.575195 
vn -0.183350 -0.953369 0.239258 
vn -0.860352 -0.484131 0.158447 
vn -0.183350 -0.953369 0.239258 
vn -0.408447 -0.237549 0.881104 
vn -0.860352 -0.484131 0.158447 
vt 0.900763 0.650794 
vt 0.748092 0.650794 
vt 0.748092 0.523810 
vt 0.900763 0.984127 
vt 0.992366 0.984127 
vt 0.992366 0.650794 
vt 0.900763 0.650794 
vt 0.900763 0.984127 
vt 0.992366 0.650794 
vt 0.992366 0.650794 
vt 0.992366 0.984127 
vt 0.900763 0.650794 
vt 0.748092 0.984127 
vt 0.900763 0.984127 
vt 0.900763 0.650794 
vt 0.748092 0.650794 
vt 0.748092 0.984127 
vt 0.900763 0.650794 
vt 0.748092 0.984127 
vt 0.748092 0.984127 
vt 0.748092 0.650794 
vt 0.748092 0.650794 
vt 0.748092 0.984127 
vt 0.748092 0.650794 
vt 0.900763 0.984127 
vt 0.748092 0.984127 
vt 0.748092 0.650794 
vt 0.900763 0.650794 
vt 0.900763 0.984127 
vt 0.748092 0.650794 
vt 0.992366 0.984127 
vt 0.900763 0.984127 
vt 0.900763 0.650794 
vt 0.992366 0.984127 
vt 0.900763 0.984127 
vt 0.900763 0.825397 
vt 0.900763 0.984127 
vt 0.992366 0.984127 
vt 0.900763 0.825397 
vt 0.900763 0.984127 
vt 0.748092 0.984127 
vt 0.900763 0.825397 
vt 0.748092 0.984127 
vt 0.748092 0.984127 
vt 0.900763 0.825397 
vt 0.748092 0.984127 
vt 0.900763 0.984127 
vt 0.900763 0.825397 
f 1/1/1 2/2/2 3/3/3
f 4/4/4 5/5/5 6/6/6
f 7/7/7 8/8/8 9/9/9
f 10/10/10 11/11/11 12/12/12
f 13/13/13 14/14/14 15/15/15
f 16/16/16 17/17/17 18/18/18
f 19/19/19 20/20/20 21/21/21
f 22/22/22 23/23/23 24/24/24
f 25/25/25 26/26/26 27/27/27
f 28/28/28 29/29/29 30/30/30
f 31/31/31 32/32/32 33/33/33
f 34/34/34 35/35/35 36/36/36
f 37/37/37 38/38/38 39/39/39
f 40/40/40 41/41/41 42/42/42
f 43/43/43 44/44/44 45/45/45
f 46/46/46 47/47/47 48/48/48
