v 0.000000 -43.000000 -4.000000 
v -3.000000 -43.000000 0.000000 
v -4.000000 31.000000 0.000000 
v -4.000000 31.000000 0.000000 
v 0.000000 31.000000 -4.000000 
v 0.000000 -43.000000 -4.000000 
v -3.000000 -43.000000 0.000000 
v 0.000000 -43.000000 2.000000 
v 0.000000 31.000000 4.000000 
v 0.000000 31.000000 4.000000 
v -4.000000 31.000000 0.000000 
v -3.000000 -43.000000 0.000000 
v 0.000000 -43.000000 2.000000 
v 3.000000 -43.000000 0.000000 
v 4.000000 31.000000 0.000000 
v 4.000000 31.000000 0.000000 
v 0.000000 31.000000 4.000000 
v 0.000000 -43.000000 2.000000 
v 3.000000 -43.000000 0.000000 
v 0.000000 -43.000000 -4.000000 
v 0.000000 31.000000 -4.000000 
v 0.000000 31.000000 -4.000000 
v 4.000000 31.000000 0.000000 
v 3.000000 -43.000000 0.000000 
v -6.000000 37.000000 0.000000 
v 0.000000 37.000000 -6.000000 
v 0.000000 31.000000 -4.000000 
v 0.000000 31.000000 -4.000000 
v -4.000000 31.000000 0.000000 
v -6.000000 37.000000 0.000000 
v 0.000000 37.000000 6.000000 
v -6.000000 37.000000 0.000000 
v -4.000000 31.000000 0.000000 
v -4.000000 31.000000 0.000000 
v 0.000000 31.000000 4.000000 
v 0.000000 37.000000 6.000000 
v 6.000000 37.000000 0.000000 
v 0.000000 37.000000 6.000000 
v 0.000000 31.000000 4.000000 
v 0.000000 31.000000 4.000000 
v 4.000000 31.000000 0.000000 
v 6.000000 37.000000 0.000000 
v 0.000000 37.000000 -6.000000 
v 6.000000 37.000000 0.000000 
v 4.000000 31.000000 0.000000 
v 4.000000 31.000000 0.000000 
v 0.000000 31.000000 -4.000000 
v 0.000000 37.000000 -6.000000 
v -4.000000 42.000000 0.000000 
v 0.000000 42.000000 -4.000000 
v 0.000000 37.000000 -6.000000 
v 0.000000 37.000000 -6.000000 
v -6.000000 37.000000 0.000000 
v -4.000000 42.000000 0.000000 
v 0.000000 43.000000 4.000000 
v -4.000000 42.000000 0.000000 
v -6.000000 37.000000 0.000000 
v -6.000000 37.000000 0.000000 
v 0.000000 37.000000 6.000000 
v 0.000000 43.000000 4.000000 
v 4.000000 42.000000 0.000000 
v 0.000000 43.000000 4.000000 
v 0.000000 37.000000 6.000000 
v 0.000000 37.000000 6.000000 
v 6.000000 37.000000 0.000000 
v 4.000000 42.000000 0.000000 
v 0.000000 42.000000 -4.000000 
v 4.000000 42.000000 0.000000 
v 6.000000 37.000000 0.000000 
v 6.000000 37.000000 0.000000 
v 0.000000 37.000000 -6.000000 
v 0.000000 42.000000 -4.000000 
v 0.000000 42.000000 -4.000000 
v -4.000000 42.000000 0.000000 
v 0.000000 43.000000 4.000000 
v 0.000000 42.000000 -4.000000 
v 0.000000 43.000000 4.000000 
v 4.000000 42.000000 0.000000 
vn -0.707031 -0.009033 -0.707031 
vn -0.707031 -0.009033 -0.707031 
vn -0.707031 -0.009033 -0.707031 
vn -0.707031 -0.009033 -0.707031 
vn -0.707031 -0.009033 -0.707031 
vn -0.707031 -0.009033 -0.707031 
vn -0.706787 -0.018799 0.706787 
vn -0.706787 -0.018799 0.706787 
vn -0.706787 -0.018799 0.706787 
vn -0.764648 -0.009766 0.644287 
vn -0.764648 -0.009766 0.644287 
vn -0.764648 -0.009766 0.644287 
vn 0.707031 -0.009033 0.707031 
vn 0.707031 -0.009033 0.707031 
vn 0.707031 -0.009033 0.707031 
vn 0.764404 -0.017090 0.644043 
vn 0.764404 -0.017090 0.644043 
vn 0.764404 -0.017090 0.644043 
vn 0.707031 -0.009033 -0.707031 
vn 0.707031 -0.009033 -0.707031 
vn 0.707031 -0.009033 -0.707031 
vn 0.707031 -0.009033 -0.707031 
vn 0.707031 -0.009033 -0.707031 
vn 0.707031 -0.009033 -0.707031 
vn -0.677002 -0.288086 -0.677002 
vn -0.677002 -0.288086 -0.677002 
vn -0.677002 -0.288086 -0.677002 
vn -0.677002 -0.288086 -0.677002 
vn -0.677002 -0.288086 -0.677002 
vn -0.677002 -0.288086 -0.677002 
vn -0.728027 -0.309814 0.611328 
vn -0.728027 -0.309814 0.611328 
vn -0.728027 -0.309814 0.611328 
vn -0.726318 -0.312256 0.612061 
vn -0.726318 -0.312256 0.612061 
vn -0.726318 -0.312256 0.612061 
vn 0.727539 -0.311768 0.610840 
vn 0.727539 -0.311768 0.610840 
vn 0.727539 -0.311768 0.610840 
vn 0.727051 -0.309326 0.612549 
vn 0.727051 -0.309326 0.612549 
vn 0.727051 -0.309326 0.612549 
vn 0.677002 -0.288086 -0.677002 
vn 0.677002 -0.288086 -0.677002 
vn 0.677002 -0.288086 -0.677002 
vn 0.677002 -0.288086 -0.677002 
vn 0.677002 -0.288086 -0.677002 
vn 0.677002 -0.288086 -0.677002 
vn -0.666504 0.300293 -0.682129 
vn -0.666504 0.300293 -0.682129 
vn -0.666504 0.300293 -0.682129 
vn -0.678223 0.282715 -0.678223 
vn -0.678223 0.282715 -0.678223 
vn -0.678223 0.282715 -0.678223 
vn -0.701904 0.292480 0.648926 
vn -0.701904 0.292480 0.648926 
vn -0.701904 0.292480 0.648926 
vn -0.714600 0.359131 0.600098 
vn -0.714600 0.359131 0.600098 
vn -0.714600 0.359131 0.600098 
vn 0.682617 0.375000 0.626709 
vn 0.682617 0.375000 0.626709 
vn 0.682617 0.375000 0.626709 
vn 0.729492 0.303955 0.612549 
vn 0.729492 0.303955 0.612549 
vn 0.729492 0.303955 0.612549 
vn 0.671387 0.279785 -0.686035 
vn 0.671387 0.279785 -0.686035 
vn 0.671387 0.279785 -0.686035 
vn 0.675049 0.297119 -0.675049 
vn 0.675049 0.297119 -0.675049 
vn 0.675049 0.297119 -0.675049 
vn 0.000000 0.998779 -0.048096 
vn 0.000000 0.998779 -0.048096 
vn 0.000000 0.998779 -0.048096 
vn 0.000000 0.998779 -0.048096 
vn 0.000000 0.998779 -0.048096 
vn 0.000000 0.998779 -0.048096 
vt 0.000000 1.000000 
vt 0.000000 1.000000 
vt 0.000000 1.000000 
vt 0.000000 1.000000 
vt 0.000000 1.000000 
vt 0.000000 1.000000 
vt 0.000000 1.000000 
vt 0.000000 1.000000 
vt 0.000000 1.000000 
vt 0.000000 1.000000 
vt 0.000000 1.000000 
vt 0.000000 1.000000 
vt 0.000000 1.000000 
vt 0.000000 1.000000 
vt 0.000000 1.000000 
vt 0.000000 1.000000 
vt 0.000000 1.000000 
vt 0.000000 1.000000 
vt 0.000000 1.000000 
vt 0.000000 1.000000 
vt 0.000000 1.000000 
vt 0.000000 1.000000 
vt 0.000000 1.000000 
vt 0.000000 1.000000 
vt 0.000000 1.000000 
vt 0.000000 1.000000 
vt 0.000000 1.000000 
vt 0.000000 1.000000 
vt 0.000000 1.000000 
vt 0.000000 1.000000 
vt 0.000000 1.000000 
vt 0.000000 1.000000 
vt 0.000000 1.000000 
vt 0.000000 1.000000 
vt 0.000000 1.000000 
vt 0.000000 1.000000 
vt 0.000000 1.000000 
vt 0.000000 1.000000 
vt 0.000000 1.000000 
vt 0.000000 1.000000 
vt 0.000000 1.000000 
vt 0.000000 1.000000 
vt 0.000000 1.000000 
vt 0.000000 1.000000 
vt 0.000000 1.000000 
vt 0.000000 1.000000 
vt 0.000000 1.000000 
vt 0.000000 1.000000 
vt 0.000000 1.000000 
vt 0.000000 1.000000 
vt 0.000000 1.000000 
vt 0.000000 1.000000 
vt 0.000000 1.000000 
vt 0.000000 1.000000 
vt 0.000000 1.000000 
vt 0.000000 1.000000 
vt 0.000000 1.000000 
vt 0.000000 1.000000 
vt 0.000000 1.000000 
vt 0.000000 1.000000 
vt 0.000000 1.000000 
vt 0.000000 1.000000 
vt 0.000000 1.000000 
vt 0.000000 1.000000 
vt 0.000000 1.000000 
vt 0.000000 1.000000 
vt 0.000000 1.000000 
vt 0.000000 1.000000 
vt 0.000000 1.000000 
vt 0.000000 1.000000 
vt 0.000000 1.000000 
vt 0.000000 1.000000 
vt 0.000000 1.000000 
vt 0.000000 1.000000 
vt 0.000000 1.000000 
vt 0.000000 1.000000 
vt 0.000000 1.000000 
vt 0.000000 1.000000 
f 1/1/1 2/2/2 3/3/3
f 4/4/4 5/5/5 6/6/6
f 7/7/7 8/8/8 9/9/9
f 10/10/10 11/11/11 12/12/12
f 13/13/13 14/14/14 15/15/15
f 16/16/16 17/17/17 18/18/18
f 19/19/19 20/20/20 21/21/21
f 22/22/22 23/23/23 24/24/24
f 25/25/25 26/26/26 27/27/27
f 28/28/28 29/29/29 30/30/30
f 31/31/31 32/32/32 33/33/33
f 34/34/34 35/35/35 36/36/36
f 37/37/37 38/38/38 39/39/39
f 40/40/40 41/41/41 42/42/42
f 43/43/43 44/44/44 45/45/45
f 46/46/46 47/47/47 48/48/48
f 49/49/49 50/50/50 51/51/51
f 52/52/52 53/53/53 54/54/54
f 55/55/55 56/56/56 57/57/57
f 58/58/58 59/59/59 60/60/60
f 61/61/61 62/62/62 63/63/63
f 64/64/64 65/65/65 66/66/66
f 67/67/67 68/68/68 69/69/69
f 70/70/70 71/71/71 72/72/72
f 73/73/73 74/74/74 75/75/75
f 76/76/76 77/77/77 78/78/78
