v 0.000000 -14.000000 1.000000 
v 6.000000 -4.000000 -6.000000 
v 6.000000 -14.000000 4.000000 
v 6.000000 -4.000000 -6.000000 
v 12.000000 -4.000000 -4.000000 
v 6.000000 -14.000000 4.000000 
v 6.000000 -4.000000 -6.000000 
v 5.000000 3.000000 -5.000000 
v 12.000000 -4.000000 -4.000000 
v 5.000000 3.000000 -5.000000 
v 11.000000 4.000000 -3.000000 
v 12.000000 -4.000000 -4.000000 
vn 0.107666 -0.992188 -0.061035 
vn 0.536133 -0.357666 -0.764404 
vn 0.020508 -0.993652 -0.108887 
vn 0.536133 -0.357666 -0.764404 
vn 0.257568 -0.363525 -0.895020 
vn 0.020508 -0.993652 -0.108887 
vn 0.536133 -0.357666 -0.764404 
vn 0.267822 0.779785 -0.565674 
vn 0.257568 -0.363525 -0.895020 
vn 0.267822 0.779785 -0.565674 
vn 0.098145 0.738525 -0.666748 
vn 0.257568 -0.363525 -0.895020 
vt 0.992366 0.523810 
vt 0.900763 0.523810 
vt 0.992366 0.365079 
vt 0.900763 0.523810 
vt 0.900763 0.365079 
vt 0.992366 0.365079 
vt 0.900763 0.523810 
vt 0.748092 0.523810 
vt 0.900763 0.365079 
vt 0.748092 0.523810 
vt 0.748092 0.365079 
vt 0.900763 0.365079 
f 1/1/1 2/2/2 3/3/3
f 4/4/4 5/5/5 6/6/6
f 7/7/7 8/8/8 9/9/9
f 10/10/10 11/11/11 12/12/12
