v -85.000000 151.000000 -69.000000 
v -109.000000 137.000000 -13.000000 
v 8.000000 169.000000 -8.000000 
v -27.000000 131.000000 -93.000000 
v -85.000000 151.000000 -69.000000 
v 8.000000 169.000000 -8.000000 
v 45.000000 132.000000 -93.000000 
v -27.000000 131.000000 -93.000000 
v 8.000000 169.000000 -8.000000 
v 109.000000 129.000000 -69.000000 
v 45.000000 132.000000 -93.000000 
v 8.000000 169.000000 -8.000000 
v 126.000000 129.000000 -8.000000 
v 109.000000 129.000000 -69.000000 
v 8.000000 169.000000 -8.000000 
v 110.000000 139.000000 44.000000 
v 126.000000 129.000000 -8.000000 
v 8.000000 169.000000 -8.000000 
v 45.000000 144.000000 77.000000 
v 110.000000 139.000000 44.000000 
v 8.000000 169.000000 -8.000000 
v -27.000000 143.000000 77.000000 
v 45.000000 144.000000 77.000000 
v 8.000000 169.000000 -8.000000 
v -91.000000 136.000000 44.000000 
v -27.000000 143.000000 77.000000 
v 8.000000 169.000000 -8.000000 
v -109.000000 137.000000 -13.000000 
v -91.000000 136.000000 44.000000 
v 8.000000 169.000000 -8.000000 
v -127.000000 98.000000 -100.000000 
v -165.000000 98.000000 -30.000000 
v -109.000000 137.000000 -13.000000 
v -85.000000 151.000000 -69.000000 
v -127.000000 98.000000 -100.000000 
v -109.000000 137.000000 -13.000000 
v -43.000000 62.000000 -143.000000 
v -127.000000 98.000000 -100.000000 
v -85.000000 151.000000 -69.000000 
v -27.000000 131.000000 -93.000000 
v -43.000000 62.000000 -143.000000 
v -85.000000 151.000000 -69.000000 
v 63.000000 62.000000 -136.000000 
v -43.000000 62.000000 -143.000000 
v -27.000000 131.000000 -93.000000 
v 45.000000 132.000000 -93.000000 
v 63.000000 62.000000 -136.000000 
v -27.000000 131.000000 -93.000000 
v 165.000000 58.000000 -100.000000 
v 63.000000 62.000000 -136.000000 
v 45.000000 132.000000 -93.000000 
v 109.000000 129.000000 -69.000000 
v 165.000000 58.000000 -100.000000 
v 45.000000 132.000000 -93.000000 
v 177.000000 58.000000 -8.000000 
v 165.000000 58.000000 -100.000000 
v 109.000000 129.000000 -69.000000 
v 126.000000 129.000000 -8.000000 
v 177.000000 58.000000 -8.000000 
v 109.000000 129.000000 -69.000000 
v 156.000000 59.000000 67.000000 
v 177.000000 58.000000 -8.000000 
v 126.000000 129.000000 -8.000000 
v 110.000000 139.000000 44.000000 
v 156.000000 59.000000 67.000000 
v 126.000000 129.000000 -8.000000 
v 63.000000 60.000000 130.000000 
v 156.000000 59.000000 67.000000 
v 110.000000 139.000000 44.000000 
v 45.000000 144.000000 77.000000 
v 63.000000 60.000000 130.000000 
v 110.000000 139.000000 44.000000 
v -44.000000 59.000000 131.000000 
v 63.000000 60.000000 130.000000 
v 45.000000 144.000000 77.000000 
v -27.000000 143.000000 77.000000 
v -44.000000 59.000000 131.000000 
v 45.000000 144.000000 77.000000 
v -134.000000 98.000000 69.000000 
v -44.000000 59.000000 131.000000 
v -27.000000 143.000000 77.000000 
v -91.000000 136.000000 44.000000 
v -134.000000 98.000000 69.000000 
v -27.000000 143.000000 77.000000 
v -165.000000 98.000000 -30.000000 
v -134.000000 98.000000 69.000000 
v -91.000000 136.000000 44.000000 
v -109.000000 137.000000 -13.000000 
v -165.000000 98.000000 -30.000000 
v -91.000000 136.000000 44.000000 
v -108.000000 0.000000 -93.000000 
v -141.000000 0.000000 -32.000000 
v -165.000000 98.000000 -30.000000 
v -127.000000 98.000000 -100.000000 
v -108.000000 0.000000 -93.000000 
v -165.000000 98.000000 -30.000000 
v -35.000000 0.000000 -121.000000 
v -108.000000 0.000000 -93.000000 
v -127.000000 98.000000 -100.000000 
v -43.000000 62.000000 -143.000000 
v -35.000000 0.000000 -121.000000 
v -127.000000 98.000000 -100.000000 
v 57.000000 0.000000 -118.000000 
v -35.000000 0.000000 -121.000000 
v -43.000000 62.000000 -143.000000 
v 63.000000 62.000000 -136.000000 
v 57.000000 0.000000 -118.000000 
v -43.000000 62.000000 -143.000000 
v 139.000000 0.000000 -91.000000 
v 57.000000 0.000000 -118.000000 
v 63.000000 62.000000 -136.000000 
v 165.000000 58.000000 -100.000000 
v 139.000000 0.000000 -91.000000 
v 63.000000 62.000000 -136.000000 
v 144.000000 0.000000 -8.000000 
v 139.000000 0.000000 -91.000000 
v 165.000000 58.000000 -100.000000 
v 177.000000 58.000000 -8.000000 
v 144.000000 0.000000 -8.000000 
v 165.000000 58.000000 -100.000000 
v 136.000000 0.000000 55.000000 
v 144.000000 0.000000 -8.000000 
v 177.000000 58.000000 -8.000000 
v 156.000000 59.000000 67.000000 
v 136.000000 0.000000 55.000000 
v 177.000000 58.000000 -8.000000 
v 52.000000 0.000000 103.000000 
v 136.000000 0.000000 55.000000 
v 156.000000 59.000000 67.000000 
v 63.000000 60.000000 130.000000 
v 52.000000 0.000000 103.000000 
v 156.000000 59.000000 67.000000 
v -35.000000 0.000000 108.000000 
v 52.000000 0.000000 103.000000 
v 63.000000 60.000000 130.000000 
v -44.000000 59.000000 131.000000 
v -35.000000 0.000000 108.000000 
v 63.000000 60.000000 130.000000 
v -112.000000 0.000000 55.000000 
v -35.000000 0.000000 108.000000 
v -44.000000 59.000000 131.000000 
v -134.000000 98.000000 69.000000 
v -112.000000 0.000000 55.000000 
v -44.000000 59.000000 131.000000 
v -141.000000 0.000000 -32.000000 
v -112.000000 0.000000 55.000000 
v -134.000000 98.000000 69.000000 
v -165.000000 98.000000 -30.000000 
v -141.000000 0.000000 -32.000000 
v -134.000000 98.000000 69.000000 
vn -0.260742 0.844238 -0.467773 
vn -0.489258 0.871826 0.000732 
vn 0.036865 0.998047 -0.047363 
vn 0.006592 0.727051 -0.686279 
vn -0.260742 0.844238 -0.467773 
vn 0.036865 0.998047 -0.047363 
vn 0.158691 0.737305 -0.656250 
vn 0.006592 0.727051 -0.686279 
vn 0.036865 0.998047 -0.047363 
vn 0.511230 0.795898 -0.323975 
vn 0.158691 0.737305 -0.656250 
vn 0.036865 0.998047 -0.047363 
vn 0.651855 0.758057 -0.008789 
vn 0.511230 0.795898 -0.323975 
vn 0.036865 0.998047 -0.047363 
vn 0.499756 0.776123 0.384033 
vn 0.651855 0.758057 -0.008789 
vn 0.036865 0.998047 -0.047363 
vn 0.123535 0.767822 0.628418 
vn 0.499756 0.776123 0.384033 
vn 0.036865 0.998047 -0.047363 
vn -0.188721 0.805420 0.561768 
vn 0.123535 0.767822 0.628418 
vn 0.036865 0.998047 -0.047363 
vn -0.416260 0.874512 0.248291 
vn -0.188721 0.805420 0.561768 
vn 0.036865 0.998047 -0.047363 
vn -0.489258 0.871826 0.000732 
vn -0.416260 0.874512 0.248291 
vn 0.036865 0.998047 -0.047363 
vn -0.652588 0.291016 -0.699463 
vn -0.919922 0.375000 -0.113770 
vn -0.489258 0.871826 0.000732 
vn -0.260742 0.844238 -0.467773 
vn -0.652588 0.291016 -0.699463 
vn -0.489258 0.871826 0.000732 
vn -0.126709 0.156738 -0.979248 
vn -0.652588 0.291016 -0.699463 
vn -0.260742 0.844238 -0.467773 
vn 0.006592 0.727051 -0.686279 
vn -0.126709 0.156738 -0.979248 
vn -0.260742 0.844238 -0.467773 
vn 0.189453 0.146484 -0.970703 
vn -0.126709 0.156738 -0.979248 
vn 0.006592 0.727051 -0.686279 
vn 0.158691 0.737305 -0.656250 
vn 0.189453 0.146484 -0.970703 
vn 0.006592 0.727051 -0.686279 
vn 0.779785 0.135254 -0.611084 
vn 0.189453 0.146484 -0.970703 
vn 0.158691 0.737305 -0.656250 
vn 0.511230 0.795898 -0.323975 
vn 0.779785 0.135254 -0.611084 
vn 0.158691 0.737305 -0.656250 
vn 0.995605 0.090332 0.023926 
vn 0.779785 0.135254 -0.611084 
vn 0.511230 0.795898 -0.323975 
vn 0.651855 0.758057 -0.008789 
vn 0.995605 0.090332 0.023926 
vn 0.511230 0.795898 -0.323975 
vn 0.804932 0.096924 0.585205 
vn 0.995605 0.090332 0.023926 
vn 0.651855 0.758057 -0.008789 
vn 0.499756 0.776123 0.384033 
vn 0.804932 0.096924 0.585205 
vn 0.651855 0.758057 -0.008789 
vn 0.286865 0.070557 0.955078 
vn 0.804932 0.096924 0.585205 
vn 0.499756 0.776123 0.384033 
vn 0.123535 0.767822 0.628418 
vn 0.286865 0.070557 0.955078 
vn 0.499756 0.776123 0.384033 
vn -0.277832 0.123291 0.952393 
vn 0.286865 0.070557 0.955078 
vn 0.123535 0.767822 0.628418 
vn -0.188721 0.805420 0.561768 
vn -0.277832 0.123291 0.952393 
vn 0.123535 0.767822 0.628418 
vn -0.761475 0.281494 0.583496 
vn -0.277832 0.123291 0.952393 
vn -0.188721 0.805420 0.561768 
vn -0.416260 0.874512 0.248291 
vn -0.761475 0.281494 0.583496 
vn -0.188721 0.805420 0.561768 
vn -0.919922 0.375000 -0.113770 
vn -0.761475 0.281494 0.583496 
vn -0.416260 0.874512 0.248291 
vn -0.489258 0.871826 0.000732 
vn -0.919922 0.375000 -0.113770 
vn -0.416260 0.874512 0.248291 
vn -0.732422 -0.186279 -0.654541 
vn -0.968994 -0.241699 0.048340 
vn -0.919922 0.375000 -0.113770 
vn -0.652588 0.291016 -0.699463 
vn -0.732422 -0.186279 -0.654541 
vn -0.919922 0.375000 -0.113770 
vn -0.299072 -0.279053 -0.912354 
vn -0.732422 -0.186279 -0.654541 
vn -0.652588 0.291016 -0.699463 
vn -0.126709 0.156738 -0.979248 
vn -0.299072 -0.279053 -0.912354 
vn -0.652588 0.291016 -0.699463 
vn 0.133057 -0.306885 -0.942139 
vn -0.299072 -0.279053 -0.912354 
vn -0.126709 0.156738 -0.979248 
vn 0.189453 0.146484 -0.970703 
vn 0.133057 -0.306885 -0.942139 
vn -0.126709 0.156738 -0.979248 
vn 0.585205 -0.375488 -0.718506 
vn 0.133057 -0.306885 -0.942139 
vn 0.189453 0.146484 -0.970703 
vn 0.779785 0.135254 -0.611084 
vn 0.585205 -0.375488 -0.718506 
vn 0.189453 0.146484 -0.970703 
vn 0.884766 -0.465088 -0.022705 
vn 0.585205 -0.375488 -0.718506 
vn 0.779785 0.135254 -0.611084 
vn 0.995605 0.090332 0.023926 
vn 0.884766 -0.465088 -0.022705 
vn 0.779785 0.135254 -0.611084 
vn 0.803467 -0.420410 0.420898 
vn 0.884766 -0.465088 -0.022705 
vn 0.995605 0.090332 0.023926 
vn 0.804932 0.096924 0.585205 
vn 0.803467 -0.420410 0.420898 
vn 0.995605 0.090332 0.023926 
vn 0.351562 -0.397461 0.847412 
vn 0.803467 -0.420410 0.420898 
vn 0.804932 0.096924 0.585205 
vn 0.286865 0.070557 0.955078 
vn 0.351562 -0.397461 0.847412 
vn 0.804932 0.096924 0.585205 
vn -0.160400 -0.399902 0.902100 
vn 0.351562 -0.397461 0.847412 
vn 0.286865 0.070557 0.955078 
vn -0.277832 0.123291 0.952393 
vn -0.160400 -0.399902 0.902100 
vn 0.286865 0.070557 0.955078 
vn -0.716064 -0.302979 0.628662 
vn -0.160400 -0.399902 0.902100 
vn -0.277832 0.123291 0.952393 
vn -0.761475 0.281494 0.583496 
vn -0.716064 -0.302979 0.628662 
vn -0.277832 0.123291 0.952393 
vn -0.968994 -0.241699 0.048340 
vn -0.716064 -0.302979 0.628662 
vn -0.761475 0.281494 0.583496 
vn -0.919922 0.375000 -0.113770 
vn -0.968994 -0.241699 0.048340 
vn -0.761475 0.281494 0.583496 
vt 0.338583 0.669291 
vt 0.472441 0.716535 
vt 0.488189 0.488189 
vt 0.267717 0.543307 
vt 0.338583 0.669291 
vt 0.488189 0.488189 
vt 0.275591 0.417323 
vt 0.267717 0.543307 
vt 0.488189 0.488189 
vt 0.338583 0.291339 
vt 0.275591 0.417323 
vt 0.488189 0.488189 
vt 0.488189 0.259843 
vt 0.338583 0.291339 
vt 0.488189 0.488189 
vt 0.614173 0.291339 
vt 0.488189 0.259843 
vt 0.488189 0.488189 
vt 0.692913 0.417323 
vt 0.614173 0.291339 
vt 0.488189 0.488189 
vt 0.692913 0.559055 
vt 0.692913 0.417323 
vt 0.488189 0.488189 
vt 0.614173 0.685039 
vt 0.692913 0.559055 
vt 0.488189 0.488189 
vt 0.472441 0.716535 
vt 0.614173 0.685039 
vt 0.488189 0.488189 
vt 0.015748 0.968504 
vt 0.409449 1.000000 
vt 0.472441 0.716535 
vt 0.338583 0.669291 
vt 0.015748 0.968504 
vt 0.472441 0.716535 
vt 0.000000 0.637795 
vt 0.015748 0.968504 
vt 0.338583 0.669291 
vt 0.267717 0.543307 
vt 0.000000 0.637795 
vt 0.338583 0.669291 
vt 0.000000 0.236220 
vt 0.000000 0.637795 
vt 0.267717 0.543307 
vt 0.275591 0.417323 
vt 0.000000 0.236220 
vt 0.267717 0.543307 
vt 0.023622 0.023622 
vt 0.000000 0.236220 
vt 0.275591 0.417323 
vt 0.338583 0.291339 
vt 0.023622 0.023622 
vt 0.275591 0.417323 
vt 0.488189 -0.007874 
vt 0.023622 0.023622 
vt 0.338583 0.291339 
vt 0.488189 0.259843 
vt 0.488189 -0.007874 
vt 0.338583 0.291339 
vt 0.968504 0.000000 
vt 0.488189 -0.007874 
vt 0.488189 0.259843 
vt 0.614173 0.291339 
vt 0.968504 0.000000 
vt 0.488189 0.259843 
vt 0.992126 0.330709 
vt 0.968504 0.000000 
vt 0.614173 0.291339 
vt 0.692913 0.417323 
vt 0.992126 0.330709 
vt 0.614173 0.291339 
vt 0.984252 0.637795 
vt 0.992126 0.330709 
vt 0.692913 0.417323 
vt 0.692913 0.559055 
vt 0.984252 0.637795 
vt 0.692913 0.417323 
vt 0.921260 0.952756 
vt 0.984252 0.637795 
vt 0.692913 0.559055 
vt 0.614173 0.685039 
vt 0.921260 0.952756 
vt 0.692913 0.559055 
vt 0.409449 1.000000 
vt 0.921260 0.952756 
vt 0.614173 0.685039 
vt 0.472441 0.716535 
vt 0.409449 1.000000 
vt 0.614173 0.685039 
vt 0.196850 0.811024 
vt 0.401575 0.897638 
vt 0.409449 1.000000 
vt 0.015748 0.968504 
vt 0.196850 0.811024 
vt 0.409449 1.000000 
vt 0.102362 0.606299 
vt 0.196850 0.811024 
vt 0.015748 0.968504 
vt 0.000000 0.637795 
vt 0.102362 0.606299 
vt 0.015748 0.968504 
vt 0.165354 0.385827 
vt 0.102362 0.606299 
vt 0.000000 0.637795 
vt 0.000000 0.236220 
vt 0.165354 0.385827 
vt 0.000000 0.637795 
vt 0.149606 0.125984 
vt 0.165354 0.385827 
vt 0.000000 0.236220 
vt 0.023622 0.023622 
vt 0.149606 0.125984 
vt 0.000000 0.236220 
vt 0.488189 0.118110 
vt 0.149606 0.125984 
vt 0.023622 0.023622 
vt 0.488189 -0.007874 
vt 0.488189 0.118110 
vt 0.023622 0.023622 
vt 0.700787 0.133858 
vt 0.488189 0.118110 
vt 0.488189 -0.007874 
vt 0.968504 0.000000 
vt 0.700787 0.133858 
vt 0.488189 -0.007874 
vt 0.866142 0.370079 
vt 0.700787 0.133858 
vt 0.968504 0.000000 
vt 0.992126 0.330709 
vt 0.866142 0.370079 
vt 0.968504 0.000000 
vt 0.889764 0.606299 
vt 0.866142 0.370079 
vt 0.992126 0.330709 
vt 0.984252 0.637795 
vt 0.889764 0.606299 
vt 0.992126 0.330709 
vt 0.700787 0.818898 
vt 0.889764 0.606299 
vt 0.984252 0.637795 
vt 0.921260 0.952756 
vt 0.700787 0.818898 
vt 0.984252 0.637795 
vt 0.401575 0.897638 
vt 0.700787 0.818898 
vt 0.921260 0.952756 
vt 0.409449 1.000000 
vt 0.401575 0.897638 
vt 0.921260 0.952756 
f 1/1/1 2/2/2 3/3/3
f 4/4/4 5/5/5 6/6/6
f 7/7/7 8/8/8 9/9/9
f 10/10/10 11/11/11 12/12/12
f 13/13/13 14/14/14 15/15/15
f 16/16/16 17/17/17 18/18/18
f 19/19/19 20/20/20 21/21/21
f 22/22/22 23/23/23 24/24/24
f 25/25/25 26/26/26 27/27/27
f 28/28/28 29/29/29 30/30/30
f 31/31/31 32/32/32 33/33/33
f 34/34/34 35/35/35 36/36/36
f 37/37/37 38/38/38 39/39/39
f 40/40/40 41/41/41 42/42/42
f 43/43/43 44/44/44 45/45/45
f 46/46/46 47/47/47 48/48/48
f 49/49/49 50/50/50 51/51/51
f 52/52/52 53/53/53 54/54/54
f 55/55/55 56/56/56 57/57/57
f 58/58/58 59/59/59 60/60/60
f 61/61/61 62/62/62 63/63/63
f 64/64/64 65/65/65 66/66/66
f 67/67/67 68/68/68 69/69/69
f 70/70/70 71/71/71 72/72/72
f 73/73/73 74/74/74 75/75/75
f 76/76/76 77/77/77 78/78/78
f 79/79/79 80/80/80 81/81/81
f 82/82/82 83/83/83 84/84/84
f 85/85/85 86/86/86 87/87/87
f 88/88/88 89/89/89 90/90/90
f 91/91/91 92/92/92 93/93/93
f 94/94/94 95/95/95 96/96/96
f 97/97/97 98/98/98 99/99/99
f 100/100/100 101/101/101 102/102/102
f 103/103/103 104/104/104 105/105/105
f 106/106/106 107/107/107 108/108/108
f 109/109/109 110/110/110 111/111/111
f 112/112/112 113/113/113 114/114/114
f 115/115/115 116/116/116 117/117/117
f 118/118/118 119/119/119 120/120/120
f 121/121/121 122/122/122 123/123/123
f 124/124/124 125/125/125 126/126/126
f 127/127/127 128/128/128 129/129/129
f 130/130/130 131/131/131 132/132/132
f 133/133/133 134/134/134 135/135/135
f 136/136/136 137/137/137 138/138/138
f 139/139/139 140/140/140 141/141/141
f 142/142/142 143/143/143 144/144/144
f 145/145/145 146/146/146 147/147/147
f 148/148/148 149/149/149 150/150/150
