v -10.000000 41.000000 7.000000 
v -10.000000 33.000000 -17.000000 
v -10.000000 0.000000 7.000000 
v -10.000000 33.000000 -17.000000 
v -10.000000 12.000000 -32.000000 
v -10.000000 0.000000 7.000000 
v -10.000000 12.000000 -32.000000 
v -10.000000 -12.000000 -32.000000 
v -10.000000 0.000000 7.000000 
v -10.000000 -12.000000 -32.000000 
v -10.000000 -33.000000 -17.000000 
v -10.000000 0.000000 7.000000 
v -10.000000 -33.000000 -17.000000 
v -10.000000 -41.000000 7.000000 
v -10.000000 0.000000 7.000000 
v -10.000000 -41.000000 7.000000 
v -10.000000 -33.000000 31.000000 
v -10.000000 0.000000 7.000000 
v -10.000000 -33.000000 31.000000 
v -10.000000 -12.000000 46.000000 
v -10.000000 0.000000 7.000000 
v -10.000000 -12.000000 46.000000 
v -10.000000 12.000000 46.000000 
v -10.000000 0.000000 7.000000 
v -10.000000 12.000000 46.000000 
v -10.000000 33.000000 31.000000 
v -10.000000 0.000000 7.000000 
v -10.000000 33.000000 31.000000 
v -10.000000 41.000000 7.000000 
v -10.000000 0.000000 7.000000 
v 41.000000 43.000000 6.000000 
v 41.000000 35.000000 -18.000000 
v -10.000000 41.000000 7.000000 
v 41.000000 35.000000 -18.000000 
v -10.000000 33.000000 -17.000000 
v -10.000000 41.000000 7.000000 
v 41.000000 43.000000 6.000000 
v -10.000000 41.000000 7.000000 
v -10.000000 33.000000 31.000000 
v 41.000000 35.000000 -18.000000 
v 41.000000 13.000000 -34.000000 
v -10.000000 33.000000 -17.000000 
v 41.000000 13.000000 -34.000000 
v -10.000000 12.000000 -32.000000 
v -10.000000 33.000000 -17.000000 
v 41.000000 13.000000 -34.000000 
v 41.000000 -13.000000 -34.000000 
v -10.000000 12.000000 -32.000000 
v 41.000000 -13.000000 -34.000000 
v -10.000000 -12.000000 -32.000000 
v -10.000000 12.000000 -32.000000 
v 41.000000 -13.000000 -34.000000 
v 41.000000 -34.000000 -18.000000 
v -10.000000 -12.000000 -32.000000 
v 41.000000 -34.000000 -18.000000 
v -10.000000 -33.000000 -17.000000 
v -10.000000 -12.000000 -32.000000 
v 41.000000 -34.000000 -18.000000 
v 41.000000 -43.000000 6.000000 
v -10.000000 -33.000000 -17.000000 
v 41.000000 -43.000000 6.000000 
v -10.000000 -41.000000 7.000000 
v -10.000000 -33.000000 -17.000000 
v 41.000000 -43.000000 6.000000 
v 41.000000 -34.000000 32.000000 
v -10.000000 -41.000000 7.000000 
v 41.000000 -34.000000 32.000000 
v -10.000000 -33.000000 31.000000 
v -10.000000 -41.000000 7.000000 
v 41.000000 -34.000000 32.000000 
v 42.000000 -13.000000 47.000000 
v -10.000000 -33.000000 31.000000 
v 42.000000 -13.000000 47.000000 
v -10.000000 -12.000000 46.000000 
v -10.000000 -33.000000 31.000000 
v 42.000000 -13.000000 47.000000 
v 42.000000 13.000000 47.000000 
v -10.000000 -12.000000 46.000000 
v 42.000000 13.000000 47.000000 
v -10.000000 12.000000 46.000000 
v -10.000000 -12.000000 46.000000 
v 42.000000 13.000000 47.000000 
v 42.000000 35.000000 32.000000 
v -10.000000 12.000000 46.000000 
v 42.000000 35.000000 32.000000 
v -10.000000 33.000000 31.000000 
v -10.000000 12.000000 46.000000 
v 42.000000 35.000000 32.000000 
v 41.000000 43.000000 6.000000 
v -10.000000 33.000000 31.000000 
vn -0.999756 0.000244 0.000732 
vn -0.999756 0.001465 0.001953 
vn -0.999756 -0.000244 0.000732 
vn -0.999756 0.001465 0.001953 
vn -0.999756 -0.000244 0.002197 
vn -0.999756 -0.000244 0.000732 
vn -0.999756 -0.000244 0.002197 
vn -0.999756 -0.001709 0.000977 
vn -0.999756 -0.000244 0.000732 
vn -0.999756 -0.001709 0.000977 
vn -0.999756 -0.000244 0.000488 
vn -0.999756 -0.000244 0.000732 
vn -0.999756 -0.000244 0.000488 
vn -0.999756 -0.000244 0.000732 
vn -0.999756 -0.000244 0.000732 
vn -0.999756 -0.000244 0.000732 
vn -0.999756 -0.000244 0.000977 
vn -0.999756 -0.000244 0.000732 
vn -0.999756 -0.000244 0.000977 
vn -0.999756 -0.001709 0.000488 
vn -0.999756 -0.000244 0.000732 
vn -0.999756 -0.001709 0.000488 
vn -0.999756 -0.000244 -0.000488 
vn -0.999756 -0.000244 0.000732 
vn -0.999756 -0.000244 -0.000488 
vn -0.999756 0.001221 -0.000244 
vn -0.999756 -0.000244 0.000732 
vn -0.999756 0.001221 -0.000244 
vn -0.999756 0.000244 0.000732 
vn -0.999756 -0.000244 0.000732 
vn -0.016602 0.999756 0.000244 
vn -0.019287 0.808594 -0.587891 
vn -0.015625 0.993896 -0.107422 
vn -0.019287 0.808594 -0.587891 
vn -0.016846 0.741455 -0.670410 
vn -0.015625 0.993896 -0.107422 
vn -0.016602 0.999756 0.000244 
vn -0.015625 0.993896 -0.107422 
vn -0.013672 0.868408 0.495605 
vn -0.019287 0.808594 -0.587891 
vn -0.020508 0.309326 -0.950684 
vn -0.016846 0.741455 -0.670410 
vn -0.020508 0.309326 -0.950684 
vn -0.017334 0.204346 -0.978516 
vn -0.016846 0.741455 -0.670410 
vn -0.020508 0.309326 -0.950684 
vn -0.020508 -0.310791 -0.950195 
vn -0.017334 0.204346 -0.978516 
vn -0.020508 -0.310791 -0.950195 
vn -0.017822 -0.412109 -0.910645 
vn -0.017334 0.204346 -0.978516 
vn -0.020508 -0.310791 -0.950195 
vn -0.019287 -0.810791 -0.584717 
vn -0.017822 -0.412109 -0.910645 
vn -0.019287 -0.810791 -0.584717 
vn -0.015625 -0.868408 -0.495117 
vn -0.017822 -0.412109 -0.910645 
vn -0.019287 -0.810791 -0.584717 
vn -0.016357 -0.999756 0.000488 
vn -0.015625 -0.868408 -0.495117 
vn -0.016357 -0.999756 0.000488 
vn -0.013428 -0.994141 0.105713 
vn -0.015625 -0.868408 -0.495117 
vn -0.016357 -0.999756 0.000488 
vn -0.013428 -0.810547 0.585205 
vn -0.013428 -0.994141 0.105713 
vn -0.013428 -0.810547 0.585205 
vn -0.012695 -0.741699 0.670166 
vn -0.013428 -0.994141 0.105713 
vn -0.013428 -0.810547 0.585205 
vn -0.011963 -0.309814 0.950684 
vn -0.012695 -0.741699 0.670166 
vn -0.011963 -0.309814 0.950684 
vn -0.011719 -0.206787 0.978271 
vn -0.012695 -0.741699 0.670166 
vn -0.011963 -0.309814 0.950684 
vn -0.011719 0.307129 0.951416 
vn -0.011719 -0.206787 0.978271 
vn -0.011719 0.307129 0.951416 
vn -0.011475 0.408447 0.912598 
vn -0.011719 -0.206787 0.978271 
vn -0.011719 0.307129 0.951416 
vn -0.013672 0.808594 0.587891 
vn -0.011475 0.408447 0.912598 
vn -0.013672 0.808594 0.587891 
vn -0.013672 0.868408 0.495605 
vn -0.011475 0.408447 0.912598 
vn -0.013672 0.808594 0.587891 
vn -0.016602 0.999756 0.000244 
vn -0.013672 0.868408 0.495605 
vt 0.507937 0.253968 
vt 0.444444 0.095238 
vt 0.253968 0.253968 
vt 0.444444 0.095238 
vt 0.317460 0.000000 
vt 0.253968 0.253968 
vt 0.317460 0.000000 
vt 0.174603 0.000000 
vt 0.253968 0.253968 
vt 0.174603 0.000000 
vt 0.047619 0.095238 
vt 0.253968 0.253968 
vt 0.047619 0.095238 
vt 0.000000 0.253968 
vt 0.253968 0.253968 
vt 0.000000 0.253968 
vt 0.047619 0.412698 
vt 0.253968 0.253968 
vt 0.047619 0.412698 
vt 0.174603 0.507937 
vt 0.253968 0.253968 
vt 0.174603 0.507937 
vt 0.317460 0.507937 
vt 0.253968 0.253968 
vt 0.317460 0.507937 
vt 0.444444 0.412698 
vt 0.253968 0.253968 
vt 0.444444 0.412698 
vt 0.507937 0.253968 
vt 0.253968 0.253968 
vt 0.000000 0.317460 
vt 0.095238 0.317460 
vt 0.000000 -0.015873 
vt 0.095238 0.317460 
vt 0.095238 -0.015873 
vt 0.000000 -0.015873 
vt 0.000000 0.317460 
vt 0.000000 -0.015873 
vt 0.095238 -0.015873 
vt 0.095238 0.317460 
vt 0.190476 0.317460 
vt 0.095238 -0.015873 
vt 0.190476 0.317460 
vt 0.190476 -0.015873 
vt 0.095238 -0.015873 
vt 0.190476 0.317460 
vt 0.301587 0.317460 
vt 0.190476 -0.015873 
vt 0.301587 0.317460 
vt 0.301587 -0.015873 
vt 0.190476 -0.015873 
vt 0.301587 0.317460 
vt 0.396825 0.317460 
vt 0.301587 -0.015873 
vt 0.396825 0.317460 
vt 0.396825 -0.015873 
vt 0.301587 -0.015873 
vt 0.396825 0.317460 
vt 0.492063 0.317460 
vt 0.396825 -0.015873 
vt 0.492063 0.317460 
vt 0.492063 -0.015873 
vt 0.396825 -0.015873 
vt 0.492063 0.317460 
vt 0.396825 0.317460 
vt 0.492063 -0.015873 
vt 0.396825 0.317460 
vt 0.396825 -0.015873 
vt 0.492063 -0.015873 
vt 0.396825 0.317460 
vt 0.301587 0.317460 
vt 0.396825 -0.015873 
vt 0.301587 0.317460 
vt 0.301587 -0.015873 
vt 0.396825 -0.015873 
vt 0.301587 0.317460 
vt 0.190476 0.317460 
vt 0.301587 -0.015873 
vt 0.190476 0.317460 
vt 0.190476 -0.015873 
vt 0.301587 -0.015873 
vt 0.190476 0.317460 
vt 0.095238 0.317460 
vt 0.190476 -0.015873 
vt 0.095238 0.317460 
vt 0.095238 -0.015873 
vt 0.190476 -0.015873 
vt 0.095238 0.317460 
vt 0.000000 0.317460 
vt 0.095238 -0.015873 
f 1/1/1 2/2/2 3/3/3
f 4/4/4 5/5/5 6/6/6
f 7/7/7 8/8/8 9/9/9
f 10/10/10 11/11/11 12/12/12
f 13/13/13 14/14/14 15/15/15
f 16/16/16 17/17/17 18/18/18
f 19/19/19 20/20/20 21/21/21
f 22/22/22 23/23/23 24/24/24
f 25/25/25 26/26/26 27/27/27
f 28/28/28 29/29/29 30/30/30
f 31/31/31 32/32/32 33/33/33
f 34/34/34 35/35/35 36/36/36
f 37/37/37 38/38/38 39/39/39
f 40/40/40 41/41/41 42/42/42
f 43/43/43 44/44/44 45/45/45
f 46/46/46 47/47/47 48/48/48
f 49/49/49 50/50/50 51/51/51
f 52/52/52 53/53/53 54/54/54
f 55/55/55 56/56/56 57/57/57
f 58/58/58 59/59/59 60/60/60
f 61/61/61 62/62/62 63/63/63
f 64/64/64 65/65/65 66/66/66
f 67/67/67 68/68/68 69/69/69
f 70/70/70 71/71/71 72/72/72
f 73/73/73 74/74/74 75/75/75
f 76/76/76 77/77/77 78/78/78
f 79/79/79 80/80/80 81/81/81
f 82/82/82 83/83/83 84/84/84
f 85/85/85 86/86/86 87/87/87
f 88/88/88 89/89/89 90/90/90
