v 1.000000 0.000000 21.000000 
v -18.000000 0.000000 30.000000 
v 1.000000 -15.000000 13.000000 
v 1.000000 0.000000 -16.000000 
v -18.000000 0.000000 -30.000000 
v 1.000000 18.000000 -10.000000 
vn -0.010498 -0.061035 0.998047 
vn 0.679443 0.090088 0.728027 
vn 0.055908 -0.589355 0.805664 
vn 0.419922 -0.018311 -0.907227 
vn 0.225830 0.111816 -0.967529 
vn 0.348633 0.764160 -0.542236 
vt 0.000000 0.456693 
vt 0.000000 0.322835 
vt 0.157480 0.456693 
vt 0.551181 0.448819 
vt 0.551181 0.322835 
vt 0.425197 0.433071 
f 1/1/1 2/2/2 3/3/3
f 4/4/4 5/5/5 6/6/6
