v 9.000000 7.000000 -7.000000 
v 9.000000 6.000000 -1.000000 
v 14.000000 -1.000000 0.000000 
v 9.000000 0.000000 -10.000000 
v 9.000000 7.000000 -7.000000 
v 14.000000 -1.000000 0.000000 
v 9.000000 0.000000 0.000000 
v 9.000000 0.000000 -10.000000 
v 14.000000 -1.000000 0.000000 
v 0.000000 9.000000 -10.000000 
v 0.000000 9.000000 -1.000000 
v 9.000000 6.000000 -1.000000 
v 9.000000 7.000000 -7.000000 
v 0.000000 9.000000 -10.000000 
v 9.000000 6.000000 -1.000000 
v 0.000000 1.000000 -12.000000 
v 0.000000 9.000000 -10.000000 
v 9.000000 7.000000 -7.000000 
v 9.000000 0.000000 -10.000000 
v 0.000000 1.000000 -12.000000 
v 9.000000 7.000000 -7.000000 
v 0.000000 0.000000 0.000000 
v 0.000000 1.000000 -12.000000 
v 9.000000 0.000000 -10.000000 
v 9.000000 0.000000 0.000000 
v 0.000000 0.000000 0.000000 
v 9.000000 0.000000 -10.000000 
v -9.000000 7.000000 -7.000000 
v -9.000000 6.000000 -1.000000 
v 0.000000 9.000000 -1.000000 
v 0.000000 9.000000 -10.000000 
v -9.000000 7.000000 -7.000000 
v 0.000000 9.000000 -1.000000 
v -9.000000 0.000000 -10.000000 
v -9.000000 7.000000 -7.000000 
v 0.000000 9.000000 -10.000000 
v 0.000000 1.000000 -12.000000 
v -9.000000 0.000000 -10.000000 
v 0.000000 9.000000 -10.000000 
v -9.000000 0.000000 0.000000 
v -9.000000 0.000000 -10.000000 
v 0.000000 1.000000 -12.000000 
v 0.000000 0.000000 0.000000 
v -9.000000 0.000000 0.000000 
v 0.000000 1.000000 -12.000000 
v -9.000000 6.000000 -1.000000 
v -9.000000 7.000000 -7.000000 
v -14.000000 -1.000000 0.000000 
v -9.000000 7.000000 -7.000000 
v -9.000000 0.000000 -10.000000 
v -14.000000 -1.000000 0.000000 
v -9.000000 0.000000 -10.000000 
v -9.000000 0.000000 0.000000 
v -14.000000 -1.000000 0.000000 
vn 0.708496 0.431885 -0.557617 
vn 0.607422 0.791992 0.058350 
vn 0.894531 -0.315186 -0.316162 
vn 0.208496 -0.798096 -0.564941 
vn 0.708496 0.431885 -0.557617 
vn 0.894531 -0.315186 -0.316162 
vn -0.236328 -0.952637 -0.190674 
vn 0.208496 -0.798096 -0.564941 
vn 0.894531 -0.315186 -0.316162 
vn 0.027588 0.772217 -0.634277 
vn -0.119385 0.991211 0.053467 
vn 0.607422 0.791992 0.058350 
vn 0.708496 0.431885 -0.557617 
vn 0.027588 0.772217 -0.634277 
vn 0.607422 0.791992 0.058350 
vn 0.087646 -0.602539 -0.792969 
vn 0.027588 0.772217 -0.634277 
vn 0.708496 0.431885 -0.557617 
vn 0.208496 -0.798096 -0.564941 
vn 0.087646 -0.602539 -0.792969 
vn 0.708496 0.431885 -0.557617 
vn 0.000732 -0.989502 -0.143066 
vn 0.087646 -0.602539 -0.792969 
vn 0.208496 -0.798096 -0.564941 
vn -0.236328 -0.952637 -0.190674 
vn 0.000732 -0.989502 -0.143066 
vn 0.208496 -0.798096 -0.564941 
vn -0.735107 0.614014 -0.286377 
vn -0.737061 0.671875 0.071533 
vn -0.119385 0.991211 0.053467 
vn 0.027588 0.772217 -0.634277 
vn -0.735107 0.614014 -0.286377 
vn -0.119385 0.991211 0.053467 
vn -0.341064 -0.456299 -0.821533 
vn -0.735107 0.614014 -0.286377 
vn 0.027588 0.772217 -0.634277 
vn 0.087646 -0.602539 -0.792969 
vn -0.341064 -0.456299 -0.821533 
vn 0.027588 0.772217 -0.634277 
vn 0.153076 -0.973877 -0.166504 
vn -0.341064 -0.456299 -0.821533 
vn 0.087646 -0.602539 -0.792969 
vn 0.000732 -0.989502 -0.143066 
vn 0.153076 -0.973877 -0.166504 
vn 0.087646 -0.602539 -0.792969 
vn -0.737061 0.671875 0.071533 
vn -0.735107 0.614014 -0.286377 
vn -0.894531 -0.315430 -0.315918 
vn -0.735107 0.614014 -0.286377 
vn -0.341064 -0.456299 -0.821533 
vn -0.894531 -0.315430 -0.315918 
vn -0.341064 -0.456299 -0.821533 
vn 0.153076 -0.973877 -0.166504 
vn -0.894531 -0.315430 -0.315918 
vt 0.580645 0.322581 
vt 0.580645 0.322581 
vt 0.451613 0.354839 
vt 0.483871 0.322581 
vt 0.580645 0.322581 
vt 0.451613 0.354839 
vt 0.483871 0.322581 
vt 0.483871 0.322581 
vt 0.451613 0.354839 
vt 0.580645 0.258065 
vt 0.612903 0.258065 
vt 0.580645 0.322581 
vt 0.580645 0.322581 
vt 0.580645 0.258065 
vt 0.580645 0.322581 
vt 0.483871 0.258065 
vt 0.580645 0.258065 
vt 0.580645 0.322581 
vt 0.483871 0.322581 
vt 0.483871 0.258065 
vt 0.580645 0.322581 
vt 0.483871 0.258065 
vt 0.483871 0.258065 
vt 0.483871 0.322581 
vt 0.483871 0.322581 
vt 0.483871 0.258065 
vt 0.483871 0.322581 
vt 0.580645 0.161290 
vt 0.580645 0.161290 
vt 0.612903 0.258065 
vt 0.580645 0.258065 
vt 0.580645 0.161290 
vt 0.612903 0.258065 
vt 0.483871 0.161290 
vt 0.580645 0.161290 
vt 0.580645 0.258065 
vt 0.483871 0.258065 
vt 0.483871 0.161290 
vt 0.580645 0.258065 
vt 0.483871 0.161290 
vt 0.483871 0.161290 
vt 0.483871 0.258065 
vt 0.483871 0.258065 
vt 0.483871 0.161290 
vt 0.483871 0.258065 
vt 0.580645 0.161290 
vt 0.580645 0.161290 
vt 0.451613 0.129032 
vt 0.580645 0.161290 
vt 0.483871 0.161290 
vt 0.451613 0.129032 
vt 0.483871 0.161290 
vt 0.483871 0.161290 
vt 0.451613 0.129032 
f 1/1/1 2/2/2 3/3/3
f 4/4/4 5/5/5 6/6/6
f 7/7/7 8/8/8 9/9/9
f 10/10/10 11/11/11 12/12/12
f 13/13/13 14/14/14 15/15/15
f 16/16/16 17/17/17 18/18/18
f 19/19/19 20/20/20 21/21/21
f 22/22/22 23/23/23 24/24/24
f 25/25/25 26/26/26 27/27/27
f 28/28/28 29/29/29 30/30/30
f 31/31/31 32/32/32 33/33/33
f 34/34/34 35/35/35 36/36/36
f 37/37/37 38/38/38 39/39/39
f 40/40/40 41/41/41 42/42/42
f 43/43/43 44/44/44 45/45/45
f 46/46/46 47/47/47 48/48/48
f 49/49/49 50/50/50 51/51/51
f 52/52/52 53/53/53 54/54/54
