v 5.000000 -22.000000 0.000000 
v 5.000000 -42.000000 0.000000 
v 0.000000 -42.000000 -6.000000 
v 0.000000 -42.000000 -6.000000 
v 0.000000 -22.000000 -6.000000 
v 5.000000 -22.000000 0.000000 
v 3.000000 -22.000000 6.000000 
v 3.000000 -42.000000 6.000000 
v 5.000000 -42.000000 0.000000 
v 5.000000 -42.000000 0.000000 
v 5.000000 -22.000000 0.000000 
v 3.000000 -22.000000 6.000000 
v -4.000000 -22.000000 5.000000 
v -4.000000 -42.000000 5.000000 
v 3.000000 -42.000000 6.000000 
v 3.000000 -42.000000 6.000000 
v 3.000000 -22.000000 6.000000 
v -4.000000 -22.000000 5.000000 
v -5.000000 -22.000000 -2.000000 
v -4.000000 -43.000000 -2.000000 
v -4.000000 -42.000000 5.000000 
v -4.000000 -42.000000 5.000000 
v -4.000000 -22.000000 5.000000 
v -5.000000 -22.000000 -2.000000 
v -4.000000 -43.000000 -2.000000 
v -5.000000 -22.000000 -2.000000 
v 0.000000 -22.000000 -6.000000 
v 0.000000 -22.000000 -6.000000 
v 0.000000 -42.000000 -6.000000 
v -4.000000 -43.000000 -2.000000 
vn 0.940918 0.001465 -0.338135 
vn 0.996338 0.000488 -0.083008 
vn 0.481445 0.003906 -0.876221 
vn 0.481445 0.003906 -0.876221 
vn -0.177734 -0.001221 -0.983887 
vn 0.940918 0.001465 -0.338135 
vn 0.816650 0.001221 0.576904 
vn 0.322266 0.000000 0.946533 
vn 0.996338 0.000488 -0.083008 
vn 0.996338 0.000488 -0.083008 
vn 0.940918 0.001465 -0.338135 
vn 0.816650 0.001221 0.576904 
vn -0.516357 0.000000 0.856201 
vn -0.875244 -0.000732 0.483398 
vn 0.322266 0.000000 0.946533 
vn 0.322266 0.000000 0.946533 
vn 0.816650 0.001221 0.576904 
vn -0.516357 0.000000 0.856201 
vn -0.970947 -0.005615 -0.238281 
vn -0.827881 -0.002930 -0.560791 
vn -0.875244 -0.000732 0.483398 
vn -0.875244 -0.000732 0.483398 
vn -0.516357 0.000000 0.856201 
vn -0.970947 -0.005615 -0.238281 
vn -0.827881 -0.002930 -0.560791 
vn -0.970947 -0.005615 -0.238281 
vn -0.177734 -0.001221 -0.983887 
vn -0.177734 -0.001221 -0.983887 
vn 0.481445 0.003906 -0.876221 
vn -0.827881 -0.002930 -0.560791 
vt 0.064516 0.741935 
vt 0.064516 0.258065 
vt 0.000000 0.258065 
vt 0.000000 0.258065 
vt 0.032258 0.774194 
vt 0.064516 0.741935 
vt 0.129032 0.741935 
vt 0.129032 0.258065 
vt 0.064516 0.258065 
vt 0.064516 0.258065 
vt 0.064516 0.741935 
vt 0.129032 0.741935 
vt 0.064516 0.741935 
vt 0.064516 0.258065 
vt 0.129032 0.258065 
vt 0.129032 0.258065 
vt 0.129032 0.741935 
vt 0.064516 0.741935 
vt 0.000000 0.741935 
vt 0.000000 0.225806 
vt 0.064516 0.258065 
vt 0.064516 0.258065 
vt 0.064516 0.741935 
vt 0.000000 0.741935 
vt 0.000000 0.225806 
vt 0.000000 0.741935 
vt 0.032258 0.774194 
vt 0.032258 0.774194 
vt 0.000000 0.258065 
vt 0.000000 0.225806 
f 1/1/1 2/2/2 3/3/3
f 4/4/4 5/5/5 6/6/6
f 7/7/7 8/8/8 9/9/9
f 10/10/10 11/11/11 12/12/12
f 13/13/13 14/14/14 15/15/15
f 16/16/16 17/17/17 18/18/18
f 19/19/19 20/20/20 21/21/21
f 22/22/22 23/23/23 24/24/24
f 25/25/25 26/26/26 27/27/27
f 28/28/28 29/29/29 30/30/30
