v 49.000000 156.000000 33.000000 
v 34.000000 141.000000 -14.000000 
v -34.000000 141.000000 -14.000000 
v -34.000000 141.000000 -14.000000 
v -49.000000 156.000000 33.000000 
v 49.000000 156.000000 33.000000 
v 34.000000 141.000000 -14.000000 
v 35.000000 34.000000 -14.000000 
v -35.000000 34.000000 -14.000000 
v -35.000000 34.000000 -14.000000 
v -34.000000 141.000000 -14.000000 
v 34.000000 141.000000 -14.000000 
v 49.000000 156.000000 33.000000 
v 49.000000 49.000000 33.000000 
v 35.000000 34.000000 -14.000000 
v 35.000000 34.000000 -14.000000 
v 34.000000 141.000000 -14.000000 
v 49.000000 156.000000 33.000000 
v -34.000000 141.000000 -14.000000 
v -35.000000 34.000000 -14.000000 
v -49.000000 49.000000 33.000000 
v -49.000000 49.000000 33.000000 
v -49.000000 156.000000 33.000000 
v -34.000000 141.000000 -14.000000 
v 34.000000 -35.000000 -6.000000 
v -35.000000 34.000000 -14.000000 
v 35.000000 34.000000 -14.000000 
v 156.000000 -49.000000 33.000000 
v 141.000000 -34.000000 -14.000000 
v 141.000000 34.000000 -14.000000 
v 141.000000 34.000000 -14.000000 
v 156.000000 49.000000 33.000000 
v 156.000000 -49.000000 33.000000 
v 141.000000 -34.000000 -14.000000 
v 34.000000 -35.000000 -6.000000 
v 35.000000 34.000000 -14.000000 
v 35.000000 34.000000 -14.000000 
v 141.000000 34.000000 -14.000000 
v 141.000000 -34.000000 -14.000000 
v 156.000000 -49.000000 33.000000 
v 49.000000 -49.000000 33.000000 
v 34.000000 -35.000000 -6.000000 
v 34.000000 -35.000000 -6.000000 
v 141.000000 -34.000000 -14.000000 
v 156.000000 -49.000000 33.000000 
v 141.000000 34.000000 -14.000000 
v 35.000000 34.000000 -14.000000 
v 49.000000 49.000000 33.000000 
v 49.000000 49.000000 33.000000 
v 156.000000 49.000000 33.000000 
v 141.000000 34.000000 -14.000000 
v -49.000000 -156.000000 33.000000 
v -34.000000 -141.000000 -14.000000 
v 34.000000 -141.000000 -14.000000 
v 34.000000 -141.000000 -14.000000 
v 49.000000 -156.000000 33.000000 
v -49.000000 -156.000000 33.000000 
v -34.000000 -141.000000 -14.000000 
v -35.000000 -34.000000 -14.000000 
v 34.000000 -35.000000 -6.000000 
v 34.000000 -35.000000 -6.000000 
v 34.000000 -141.000000 -14.000000 
v -34.000000 -141.000000 -14.000000 
v -49.000000 -156.000000 33.000000 
v -49.000000 -49.000000 33.000000 
v -35.000000 -34.000000 -14.000000 
v -35.000000 -34.000000 -14.000000 
v -34.000000 -141.000000 -14.000000 
v -49.000000 -156.000000 33.000000 
v 34.000000 -141.000000 -14.000000 
v 34.000000 -35.000000 -6.000000 
v 49.000000 -49.000000 33.000000 
v 49.000000 -49.000000 33.000000 
v 49.000000 -156.000000 33.000000 
v 34.000000 -141.000000 -14.000000 
v -156.000000 49.000000 33.000000 
v -141.000000 34.000000 -14.000000 
v -141.000000 -34.000000 -14.000000 
v -141.000000 -34.000000 -14.000000 
v -156.000000 -49.000000 33.000000 
v -156.000000 49.000000 33.000000 
v -141.000000 34.000000 -14.000000 
v -35.000000 34.000000 -14.000000 
v -35.000000 -34.000000 -14.000000 
v -35.000000 -34.000000 -14.000000 
v -141.000000 -34.000000 -14.000000 
v -141.000000 34.000000 -14.000000 
v -156.000000 49.000000 33.000000 
v -49.000000 49.000000 33.000000 
v -35.000000 34.000000 -14.000000 
v -35.000000 34.000000 -14.000000 
v -141.000000 34.000000 -14.000000 
v -156.000000 49.000000 33.000000 
v -141.000000 -34.000000 -14.000000 
v -35.000000 -34.000000 -14.000000 
v -49.000000 -49.000000 33.000000 
v -49.000000 -49.000000 33.000000 
v -156.000000 -49.000000 33.000000 
v -141.000000 -34.000000 -14.000000 
v 34.000000 -35.000000 -6.000000 
v -35.000000 -34.000000 -14.000000 
v -35.000000 34.000000 -14.000000 
vn 0.647705 0.649658 -0.397461 
vn 0.327148 0.328369 -0.885742 
vn -0.550537 0.552246 -0.625732 
vn -0.550537 0.552246 -0.625732 
vn -0.647705 0.649414 -0.398193 
vn 0.647705 0.649658 -0.397461 
vn 0.327148 0.328369 -0.885742 
vn 0.349854 0.137939 -0.926270 
vn -0.136230 0.289795 -0.947266 
vn -0.136230 0.289795 -0.947266 
vn -0.550537 0.552246 -0.625732 
vn 0.327148 0.328369 -0.885742 
vn 0.647705 0.649658 -0.397461 
vn 0.416016 0.825684 -0.380371 
vn 0.349854 0.137939 -0.926270 
vn 0.349854 0.137939 -0.926270 
vn 0.327148 0.328369 -0.885742 
vn 0.647705 0.649658 -0.397461 
vn -0.550537 0.552246 -0.625732 
vn -0.136230 0.289795 -0.947266 
vn -0.826660 0.414551 -0.380127 
vn -0.826660 0.414551 -0.380127 
vn -0.647705 0.649414 -0.398193 
vn -0.550537 0.552246 -0.625732 
vn 0.170410 -0.317871 -0.932373 
vn -0.136230 0.289795 -0.947266 
vn 0.349854 0.137939 -0.926270 
vn 0.643311 -0.642334 -0.416016 
vn 0.294434 -0.368896 -0.881348 
vn 0.551514 0.549316 -0.627441 
vn 0.551514 0.549316 -0.627441 
vn 0.650146 0.646973 -0.398193 
vn 0.643311 -0.642334 -0.416016 
vn 0.294434 -0.368896 -0.881348 
vn 0.170410 -0.317871 -0.932373 
vn 0.349854 0.137939 -0.926270 
vn 0.349854 0.137939 -0.926270 
vn 0.551514 0.549316 -0.627441 
vn 0.294434 -0.368896 -0.881348 
vn 0.643311 -0.642334 -0.416016 
vn 0.816406 -0.392578 -0.423096 
vn 0.170410 -0.317871 -0.932373 
vn 0.170410 -0.317871 -0.932373 
vn 0.294434 -0.368896 -0.881348 
vn 0.643311 -0.642334 -0.416016 
vn 0.551514 0.549316 -0.627441 
vn 0.349854 0.137939 -0.926270 
vn 0.416016 0.825684 -0.380371 
vn 0.416016 0.825684 -0.380371 
vn 0.650146 0.646973 -0.398193 
vn 0.551514 0.549316 -0.627441 
vn -0.647705 -0.649658 -0.397461 
vn -0.293457 -0.308838 -0.904541 
vn 0.551514 -0.526611 -0.646729 
vn 0.551514 -0.526611 -0.646729 
vn 0.647705 -0.649414 -0.398193 
vn -0.647705 -0.649658 -0.397461 
vn -0.293457 -0.308838 -0.904541 
vn -0.320068 -0.183594 -0.929199 
vn 0.170410 -0.317871 -0.932373 
vn 0.170410 -0.317871 -0.932373 
vn 0.551514 -0.526611 -0.646729 
vn -0.293457 -0.308838 -0.904541 
vn -0.647705 -0.649658 -0.397461 
vn -0.416016 -0.825684 -0.380371 
vn -0.320068 -0.183594 -0.929199 
vn -0.320068 -0.183594 -0.929199 
vn -0.293457 -0.308838 -0.904541 
vn -0.647705 -0.649658 -0.397461 
vn 0.551514 -0.526611 -0.646729 
vn 0.170410 -0.317871 -0.932373 
vn 0.816406 -0.392578 -0.423096 
vn 0.816406 -0.392578 -0.423096 
vn 0.647705 -0.649414 -0.398193 
vn 0.551514 -0.526611 -0.646729 
vn -0.649170 0.646484 -0.400146 
vn -0.327881 0.327393 -0.885986 
vn -0.551514 -0.549316 -0.627441 
vn -0.551514 -0.549316 -0.627441 
vn -0.650146 -0.646973 -0.398193 
vn -0.649170 0.646484 -0.400146 
vn -0.327881 0.327393 -0.885986 
vn -0.136230 0.289795 -0.947266 
vn -0.320068 -0.183594 -0.929199 
vn -0.320068 -0.183594 -0.929199 
vn -0.551514 -0.549316 -0.627441 
vn -0.327881 0.327393 -0.885986 
vn -0.649170 0.646484 -0.400146 
vn -0.826660 0.414551 -0.380127 
vn -0.136230 0.289795 -0.947266 
vn -0.136230 0.289795 -0.947266 
vn -0.327881 0.327393 -0.885986 
vn -0.649170 0.646484 -0.400146 
vn -0.551514 -0.549316 -0.627441 
vn -0.320068 -0.183594 -0.929199 
vn -0.416016 -0.825684 -0.380371 
vn -0.416016 -0.825684 -0.380371 
vn -0.650146 -0.646973 -0.398193 
vn -0.551514 -0.549316 -0.627441 
vn 0.170410 -0.317871 -0.932373 
vn -0.320068 -0.183594 -0.929199 
vn -0.136230 0.289795 -0.947266 
vt 1.000000 1.000000 
vt 0.857143 0.888889 
vt 0.111111 0.888889 
vt 0.111111 0.888889 
vt 0.000000 1.000000 
vt 1.000000 1.000000 
vt 0.857143 0.888889 
vt 0.857143 0.285714 
vt 0.111111 0.285714 
vt 0.111111 0.285714 
vt 0.111111 0.888889 
vt 0.857143 0.888889 
vt 1.000000 1.000000 
vt 1.000000 0.285714 
vt 0.857143 0.285714 
vt 0.857143 0.285714 
vt 0.857143 0.888889 
vt 1.000000 1.000000 
vt 0.111111 0.888889 
vt 0.111111 0.285714 
vt 0.000000 0.285714 
vt 0.000000 0.285714 
vt 0.000000 1.000000 
vt 0.111111 0.888889 
vt 0.873016 0.317460 
vt 0.126984 0.857143 
vt 0.873016 0.857143 
vt 1.000000 1.000000 
vt 0.857143 0.888889 
vt 0.111111 0.888889 
vt 0.111111 0.888889 
vt 0.000000 1.000000 
vt 1.000000 1.000000 
vt 0.857143 0.888889 
vt 0.857143 0.285714 
vt 0.111111 0.285714 
vt 0.111111 0.285714 
vt 0.111111 0.888889 
vt 0.857143 0.888889 
vt 1.000000 1.000000 
vt 1.000000 0.285714 
vt 0.857143 0.285714 
vt 0.857143 0.285714 
vt 0.857143 0.888889 
vt 1.000000 1.000000 
vt 0.111111 0.888889 
vt 0.111111 0.285714 
vt 0.000000 0.285714 
vt 0.000000 0.285714 
vt 0.000000 1.000000 
vt 0.111111 0.888889 
vt 1.000000 1.000000 
vt 0.857143 0.888889 
vt 0.111111 0.888889 
vt 0.111111 0.888889 
vt 0.000000 1.000000 
vt 1.000000 1.000000 
vt 0.857143 0.888889 
vt 0.857143 0.285714 
vt 0.111111 0.285714 
vt 0.111111 0.285714 
vt 0.111111 0.888889 
vt 0.857143 0.888889 
vt 1.000000 1.000000 
vt 1.000000 0.285714 
vt 0.857143 0.285714 
vt 0.857143 0.285714 
vt 0.857143 0.888889 
vt 1.000000 1.000000 
vt 0.111111 0.888889 
vt 0.111111 0.285714 
vt 0.000000 0.285714 
vt 0.000000 0.285714 
vt 0.000000 1.000000 
vt 0.111111 0.888889 
vt 1.000000 1.000000 
vt 0.857143 0.888889 
vt 0.111111 0.888889 
vt 0.111111 0.888889 
vt 0.000000 1.000000 
vt 1.000000 1.000000 
vt 0.857143 0.888889 
vt 0.857143 0.285714 
vt 0.111111 0.285714 
vt 0.111111 0.285714 
vt 0.111111 0.888889 
vt 0.857143 0.888889 
vt 1.000000 1.000000 
vt 1.000000 0.285714 
vt 0.857143 0.285714 
vt 0.857143 0.285714 
vt 0.857143 0.888889 
vt 1.000000 1.000000 
vt 0.111111 0.888889 
vt 0.111111 0.285714 
vt 0.000000 0.285714 
vt 0.000000 0.285714 
vt 0.000000 1.000000 
vt 0.111111 0.888889 
vt 0.873016 0.317460 
vt 0.126984 0.317460 
vt 0.126984 0.857143 
f 1/1/1 2/2/2 3/3/3
f 4/4/4 5/5/5 6/6/6
f 7/7/7 8/8/8 9/9/9
f 10/10/10 11/11/11 12/12/12
f 13/13/13 14/14/14 15/15/15
f 16/16/16 17/17/17 18/18/18
f 19/19/19 20/20/20 21/21/21
f 22/22/22 23/23/23 24/24/24
f 25/25/25 26/26/26 27/27/27
f 28/28/28 29/29/29 30/30/30
f 31/31/31 32/32/32 33/33/33
f 34/34/34 35/35/35 36/36/36
f 37/37/37 38/38/38 39/39/39
f 40/40/40 41/41/41 42/42/42
f 43/43/43 44/44/44 45/45/45
f 46/46/46 47/47/47 48/48/48
f 49/49/49 50/50/50 51/51/51
f 52/52/52 53/53/53 54/54/54
f 55/55/55 56/56/56 57/57/57
f 58/58/58 59/59/59 60/60/60
f 61/61/61 62/62/62 63/63/63
f 64/64/64 65/65/65 66/66/66
f 67/67/67 68/68/68 69/69/69
f 70/70/70 71/71/71 72/72/72
f 73/73/73 74/74/74 75/75/75
f 76/76/76 77/77/77 78/78/78
f 79/79/79 80/80/80 81/81/81
f 82/82/82 83/83/83 84/84/84
f 85/85/85 86/86/86 87/87/87
f 88/88/88 89/89/89 90/90/90
f 91/91/91 92/92/92 93/93/93
f 94/94/94 95/95/95 96/96/96
f 97/97/97 98/98/98 99/99/99
f 100/100/100 101/101/101 102/102/102
