v 19.000000 10.000000 56.000000 
v 24.000000 15.000000 -19.000000 
v 24.000000 24.000000 4.000000 
v 24.000000 24.000000 4.000000 
v 23.000000 28.000000 52.000000 
v 19.000000 10.000000 56.000000 
v 6.000000 26.000000 53.000000 
v 23.000000 28.000000 52.000000 
v 24.000000 24.000000 4.000000 
v 24.000000 24.000000 4.000000 
v 5.000000 23.000000 7.000000 
v 6.000000 26.000000 53.000000 
v 5.000000 23.000000 7.000000 
v 24.000000 24.000000 4.000000 
v 24.000000 15.000000 -19.000000 
v 23.000000 28.000000 52.000000 
v 16.000000 14.000000 59.000000 
v 19.000000 10.000000 56.000000 
v 19.000000 10.000000 56.000000 
v 16.000000 14.000000 59.000000 
v 16.000000 -1.000000 60.000000 
v 19.000000 -14.000000 48.000000 
v 22.000000 -10.000000 -17.000000 
v 24.000000 15.000000 -19.000000 
v 24.000000 15.000000 -19.000000 
v 19.000000 10.000000 56.000000 
v 19.000000 -14.000000 48.000000 
v 16.000000 -15.000000 56.000000 
v 19.000000 -14.000000 48.000000 
v 19.000000 10.000000 56.000000 
v 16.000000 -1.000000 60.000000 
v 16.000000 -15.000000 56.000000 
v 19.000000 10.000000 56.000000 
v 24.000000 -27.000000 41.000000 
v 20.000000 -23.000000 -6.000000 
v 22.000000 -10.000000 -17.000000 
v 2.000000 -14.000000 -11.000000 
v 22.000000 -10.000000 -17.000000 
v 20.000000 -23.000000 -6.000000 
v 22.000000 -10.000000 -17.000000 
v 19.000000 -14.000000 48.000000 
v 24.000000 -27.000000 41.000000 
v 21.000000 -28.000000 51.000000 
v 24.000000 -27.000000 41.000000 
v 19.000000 -14.000000 48.000000 
v 16.000000 -15.000000 56.000000 
v 21.000000 -28.000000 51.000000 
v 19.000000 -14.000000 48.000000 
v 8.000000 -22.000000 -1.000000 
v 20.000000 -23.000000 -6.000000 
v 24.000000 -27.000000 41.000000 
v 20.000000 -23.000000 -6.000000 
v 8.000000 -22.000000 -1.000000 
v 2.000000 -14.000000 -11.000000 
v 3.000000 -24.000000 37.000000 
v 24.000000 -27.000000 41.000000 
v 21.000000 -28.000000 51.000000 
v 24.000000 -27.000000 41.000000 
v 3.000000 -24.000000 37.000000 
v 8.000000 -22.000000 -1.000000 
v 21.000000 -28.000000 51.000000 
v 7.000000 -28.000000 50.000000 
v 3.000000 -24.000000 37.000000 
v 0.000000 9.000000 36.000000 
v 6.000000 26.000000 53.000000 
v 5.000000 23.000000 7.000000 
v 0.000000 9.000000 36.000000 
v 4.000000 24.000000 57.000000 
v 6.000000 26.000000 53.000000 
v 0.000000 9.000000 36.000000 
v 4.000000 14.000000 60.000000 
v 4.000000 24.000000 57.000000 
v 4.000000 14.000000 60.000000 
v 0.000000 9.000000 36.000000 
v 0.000000 5.000000 59.000000 
v 0.000000 5.000000 59.000000 
v 0.000000 9.000000 36.000000 
v 2.000000 -1.000000 60.000000 
v 0.000000 -7.000000 58.000000 
v 2.000000 -1.000000 60.000000 
v 0.000000 9.000000 36.000000 
v 0.000000 9.000000 36.000000 
v 0.000000 -12.000000 35.000000 
v 0.000000 -7.000000 58.000000 
v 3.000000 -24.000000 37.000000 
v 0.000000 -12.000000 35.000000 
v 2.000000 -14.000000 -11.000000 
v 2.000000 -14.000000 -11.000000 
v 8.000000 -22.000000 -1.000000 
v 3.000000 -24.000000 37.000000 
v 0.000000 -7.000000 58.000000 
v 0.000000 -12.000000 35.000000 
v 2.000000 -16.000000 55.000000 
v 7.000000 -28.000000 50.000000 
v 0.000000 -23.000000 55.000000 
v 0.000000 -12.000000 35.000000 
v 0.000000 -12.000000 35.000000 
v 3.000000 -24.000000 37.000000 
v 7.000000 -28.000000 50.000000 
v 0.000000 -23.000000 55.000000 
v 2.000000 -16.000000 55.000000 
v 0.000000 -12.000000 35.000000 
vn 0.754150 -0.078125 0.651855 
vn 0.650391 0.430420 -0.625732 
vn 0.469971 0.876221 -0.104736 
vn 0.469971 0.876221 -0.104736 
vn 0.550537 0.806152 0.216064 
vn 0.754150 -0.078125 0.651855 
vn -0.403564 0.908936 -0.102783 
vn 0.550537 0.806152 0.216064 
vn 0.469971 0.876221 -0.104736 
vn 0.469971 0.876221 -0.104736 
vn -0.387207 0.895996 -0.216309 
vn -0.403564 0.908936 -0.102783 
vn -0.387207 0.895996 -0.216309 
vn 0.469971 0.876221 -0.104736 
vn 0.650391 0.430420 -0.625732 
vn 0.550537 0.806152 0.216064 
vn 0.822021 0.270508 0.500732 
vn 0.754150 -0.078125 0.651855 
vn 0.754150 -0.078125 0.651855 
vn 0.822021 0.270508 0.500732 
vn 0.892334 0.356201 0.276611 
vn 0.897949 0.146729 0.414551 
vn 0.479004 -0.252686 -0.840576 
vn 0.650391 0.430420 -0.625732 
vn 0.650391 0.430420 -0.625732 
vn 0.754150 -0.078125 0.651855 
vn 0.897949 0.146729 0.414551 
vn 0.873047 0.372803 0.314209 
vn 0.897949 0.146729 0.414551 
vn 0.754150 -0.078125 0.651855 
vn 0.892334 0.356201 0.276611 
vn 0.873047 0.372803 0.314209 
vn 0.754150 -0.078125 0.651855 
vn 0.569092 -0.818604 -0.074951 
vn 0.115479 -0.792480 -0.598389 
vn 0.479004 -0.252686 -0.840576 
vn -0.462402 -0.574707 -0.674805 
vn 0.479004 -0.252686 -0.840576 
vn 0.115479 -0.792480 -0.598389 
vn 0.479004 -0.252686 -0.840576 
vn 0.897949 0.146729 0.414551 
vn 0.569092 -0.818604 -0.074951 
vn 0.813721 -0.567139 -0.126465 
vn 0.569092 -0.818604 -0.074951 
vn 0.897949 0.146729 0.414551 
vn 0.873047 0.372803 0.314209 
vn 0.813721 -0.567139 -0.126465 
vn 0.897949 0.146729 0.414551 
vn -0.189209 -0.917969 -0.347900 
vn 0.115479 -0.792480 -0.598389 
vn 0.569092 -0.818604 -0.074951 
vn 0.115479 -0.792480 -0.598389 
vn -0.189209 -0.917969 -0.347900 
vn -0.462402 -0.574707 -0.674805 
vn -0.403564 -0.891846 -0.203125 
vn 0.569092 -0.818604 -0.074951 
vn 0.813721 -0.567139 -0.126465 
vn 0.569092 -0.818604 -0.074951 
vn -0.403564 -0.891846 -0.203125 
vn -0.189209 -0.917969 -0.347900 
vn 0.813721 -0.567139 -0.126465 
vn -0.274170 -0.881104 -0.384766 
vn -0.403564 -0.891846 -0.203125 
vn -0.947998 0.305420 0.088867 
vn -0.403564 0.908936 -0.102783 
vn -0.387207 0.895996 -0.216309 
vn -0.947998 0.305420 0.088867 
vn -0.908447 0.299805 0.290527 
vn -0.403564 0.908936 -0.102783 
vn -0.947998 0.305420 0.088867 
vn -0.751709 0.291992 0.590820 
vn -0.908447 0.299805 0.290527 
vn -0.751709 0.291992 0.590820 
vn -0.947998 0.305420 0.088867 
vn -0.947754 -0.023438 0.317871 
vn -0.947754 -0.023438 0.317871 
vn -0.947998 0.305420 0.088867 
vn -0.863037 -0.161865 0.478027 
vn -0.940430 -0.087158 0.328369 
vn -0.863037 -0.161865 0.478027 
vn -0.947998 0.305420 0.088867 
vn -0.947998 0.305420 0.088867 
vn -0.970703 -0.236084 -0.041260 
vn -0.940430 -0.087158 0.328369 
vn -0.403564 -0.891846 -0.203125 
vn -0.970703 -0.236084 -0.041260 
vn -0.462402 -0.574707 -0.674805 
vn -0.462402 -0.574707 -0.674805 
vn -0.189209 -0.917969 -0.347900 
vn -0.403564 -0.891846 -0.203125 
vn -0.940430 -0.087158 0.328369 
vn -0.970703 -0.236084 -0.041260 
vn -0.881348 -0.061523 0.468018 
vn -0.274170 -0.881104 -0.384766 
vn -0.872314 -0.484863 -0.059082 
vn -0.970703 -0.236084 -0.041260 
vn -0.970703 -0.236084 -0.041260 
vn -0.403564 -0.891846 -0.203125 
vn -0.274170 -0.881104 -0.384766 
vn -0.872314 -0.484863 -0.059082 
vn -0.881348 -0.061523 0.468018 
vn -0.970703 -0.236084 -0.041260 
vt 0.774194 0.322581 
vt 0.483871 0.225806 
vt 0.548387 0.064516 
vt 0.548387 0.064516 
vt 0.709677 0.000000 
vt 0.774194 0.322581 
vt 0.548387 0.000000 
vt 0.548387 0.032258 
vt 0.806452 0.000000 
vt 0.806452 0.000000 
vt 0.677419 0.000000 
vt 0.548387 0.000000 
vt 0.677419 0.000000 
vt 0.774194 0.000000 
vt 0.903226 0.064516 
vt 0.709677 0.000000 
vt 0.838710 0.258065 
vt 0.774194 0.322581 
vt 0.774194 0.322581 
vt 0.838710 0.258065 
vt 0.838710 0.516129 
vt 0.774194 0.774194 
vt 0.483871 0.838710 
vt 0.483871 0.225806 
vt 0.483871 0.225806 
vt 0.774194 0.322581 
vt 0.774194 0.774194 
vt 0.806452 0.741935 
vt 0.774194 0.774194 
vt 0.774194 0.322581 
vt 0.838710 0.516129 
vt 0.806452 0.741935 
vt 0.774194 0.322581 
vt 0.741935 0.967742 
vt 0.580645 1.000000 
vt 0.483871 0.838710 
vt 0.774194 0.193548 
vt 0.935484 0.225806 
vt 0.774194 0.290323 
vt 0.483871 0.838710 
vt 0.774194 0.774194 
vt 0.741935 0.967742 
vt 0.806452 0.967742 
vt 0.741935 0.967742 
vt 0.774194 0.774194 
vt 0.806452 0.741935 
vt 0.806452 0.967742 
vt 0.774194 0.774194 
vt 0.677419 0.451613 
vt 0.838710 0.387097 
vt 0.548387 0.322581 
vt 0.774194 0.290323 
vt 0.677419 0.451613 
vt 0.774194 0.193548 
vt 0.580645 0.419355 
vt 0.548387 0.322581 
vt 0.258065 0.419355 
vt 0.548387 0.322581 
vt 0.580645 0.419355 
vt 0.677419 0.451613 
vt 0.258065 0.419355 
vt 0.225806 0.354839 
vt 0.580645 0.419355 
vt 0.516129 0.064516 
vt 0.548387 0.000000 
vt 0.677419 0.000000 
vt 0.516129 0.064516 
vt 0.258065 0.032258 
vt 0.548387 0.000000 
vt 0.516129 0.064516 
vt 0.161290 0.096774 
vt 0.258065 0.032258 
vt 0.161290 0.096774 
vt 0.516129 0.064516 
vt 0.129032 0.129032 
vt 0.129032 0.129032 
vt 0.516129 0.064516 
vt 0.161290 0.161290 
vt 0.129032 0.225806 
vt 0.161290 0.161290 
vt 0.516129 0.064516 
vt 0.516129 0.064516 
vt 0.612903 0.225806 
vt 0.129032 0.225806 
vt 0.580645 0.419355 
vt 0.612903 0.225806 
vt 0.774194 0.193548 
vt 0.774194 0.193548 
vt 0.677419 0.451613 
vt 0.580645 0.419355 
vt 0.129032 0.225806 
vt 0.612903 0.225806 
vt 0.193548 0.258065 
vt 0.225806 0.354839 
vt 0.161290 0.354839 
vt 0.612903 0.225806 
vt 0.612903 0.225806 
vt 0.580645 0.419355 
vt 0.225806 0.354839 
vt 0.161290 0.354839 
vt 0.193548 0.258065 
vt 0.612903 0.225806 
f 1/1/1 2/2/2 3/3/3
f 4/4/4 5/5/5 6/6/6
f 7/7/7 8/8/8 9/9/9
f 10/10/10 11/11/11 12/12/12
f 13/13/13 14/14/14 15/15/15
f 16/16/16 17/17/17 18/18/18
f 19/19/19 20/20/20 21/21/21
f 22/22/22 23/23/23 24/24/24
f 25/25/25 26/26/26 27/27/27
f 28/28/28 29/29/29 30/30/30
f 31/31/31 32/32/32 33/33/33
f 34/34/34 35/35/35 36/36/36
f 37/37/37 38/38/38 39/39/39
f 40/40/40 41/41/41 42/42/42
f 43/43/43 44/44/44 45/45/45
f 46/46/46 47/47/47 48/48/48
f 49/49/49 50/50/50 51/51/51
f 52/52/52 53/53/53 54/54/54
f 55/55/55 56/56/56 57/57/57
f 58/58/58 59/59/59 60/60/60
f 61/61/61 62/62/62 63/63/63
f 64/64/64 65/65/65 66/66/66
f 67/67/67 68/68/68 69/69/69
f 70/70/70 71/71/71 72/72/72
f 73/73/73 74/74/74 75/75/75
f 76/76/76 77/77/77 78/78/78
f 79/79/79 80/80/80 81/81/81
f 82/82/82 83/83/83 84/84/84
f 85/85/85 86/86/86 87/87/87
f 88/88/88 89/89/89 90/90/90
f 91/91/91 92/92/92 93/93/93
f 94/94/94 95/95/95 96/96/96
f 97/97/97 98/98/98 99/99/99
f 100/100/100 101/101/101 102/102/102
