v 22.000000 -4.000000 11.000000 
v 2.000000 -4.000000 4.000000 
v 2.000000 -4.000000 -3.000000 
v 2.000000 -4.000000 -3.000000 
v 27.000000 -3.000000 -6.000000 
v 22.000000 -4.000000 11.000000 
v 22.000000 5.000000 12.000000 
v 27.000000 6.000000 -7.000000 
v 2.000000 4.000000 -4.000000 
v 2.000000 4.000000 -4.000000 
v 2.000000 4.000000 3.000000 
v 22.000000 5.000000 12.000000 
v 32.000000 -1.000000 -22.000000 
v 32.000000 -5.000000 -22.000000 
v 26.000000 -5.000000 -25.000000 
v 26.000000 -5.000000 -25.000000 
v 26.000000 -1.000000 -25.000000 
v 32.000000 -1.000000 -22.000000 
v 46.000000 0.000000 14.000000 
v 44.000000 -4.000000 14.000000 
v 48.000000 -4.000000 -3.000000 
v 48.000000 -4.000000 -3.000000 
v 50.000000 0.000000 -3.000000 
v 46.000000 0.000000 14.000000 
v 5.000000 3.000000 9.000000 
v 5.000000 -4.000000 9.000000 
v 16.000000 -4.000000 12.000000 
v 16.000000 -4.000000 12.000000 
v 16.000000 3.000000 12.000000 
v 5.000000 3.000000 9.000000 
v -5.000000 4.000000 -3.000000 
v -5.000000 -4.000000 -2.000000 
v -6.000000 -4.000000 4.000000 
v -6.000000 -4.000000 4.000000 
v -5.000000 4.000000 3.000000 
v -5.000000 4.000000 -3.000000 
v 33.000000 -2.000000 13.000000 
v 22.000000 -4.000000 11.000000 
v 27.000000 -3.000000 -6.000000 
v 27.000000 -3.000000 -6.000000 
v 36.000000 -2.000000 -5.000000 
v 33.000000 -2.000000 13.000000 
v 37.000000 2.000000 -4.000000 
v 27.000000 6.000000 -7.000000 
v 22.000000 5.000000 12.000000 
v 22.000000 5.000000 12.000000 
v 34.000000 2.000000 13.000000 
v 37.000000 2.000000 -4.000000 
v 36.000000 -2.000000 -5.000000 
v 27.000000 -3.000000 -6.000000 
v 27.000000 6.000000 -7.000000 
v 27.000000 6.000000 -7.000000 
v 37.000000 2.000000 -4.000000 
v 36.000000 -2.000000 -5.000000 
v 34.000000 2.000000 13.000000 
v 22.000000 5.000000 12.000000 
v 22.000000 -4.000000 11.000000 
v 22.000000 -4.000000 11.000000 
v 33.000000 -2.000000 13.000000 
v 34.000000 2.000000 13.000000 
v 44.000000 -4.000000 14.000000 
v 33.000000 -2.000000 13.000000 
v 36.000000 -2.000000 -5.000000 
v 36.000000 -2.000000 -5.000000 
v 48.000000 -4.000000 -3.000000 
v 44.000000 -4.000000 14.000000 
v 46.000000 0.000000 14.000000 
v 34.000000 2.000000 13.000000 
v 33.000000 -2.000000 13.000000 
v 33.000000 -2.000000 13.000000 
v 44.000000 -4.000000 14.000000 
v 46.000000 0.000000 14.000000 
v 50.000000 0.000000 -3.000000 
v 37.000000 2.000000 -4.000000 
v 34.000000 2.000000 13.000000 
v 34.000000 2.000000 13.000000 
v 46.000000 0.000000 14.000000 
v 50.000000 0.000000 -3.000000 
v 48.000000 -4.000000 -3.000000 
v 36.000000 -2.000000 -5.000000 
v 37.000000 2.000000 -4.000000 
v 37.000000 2.000000 -4.000000 
v 50.000000 0.000000 -3.000000 
v 48.000000 -4.000000 -3.000000 
v 23.000000 -3.000000 -10.000000 
v 27.000000 -3.000000 -6.000000 
v 2.000000 -4.000000 -3.000000 
v 2.000000 -4.000000 -3.000000 
v 12.000000 -3.000000 -13.000000 
v 23.000000 -3.000000 -10.000000 
v 12.000000 2.000000 -13.000000 
v 2.000000 4.000000 -4.000000 
v 27.000000 6.000000 -7.000000 
v 27.000000 6.000000 -7.000000 
v 23.000000 2.000000 -10.000000 
v 12.000000 2.000000 -13.000000 
v 23.000000 2.000000 -10.000000 
v 27.000000 6.000000 -7.000000 
v 27.000000 -3.000000 -6.000000 
v 27.000000 -3.000000 -6.000000 
v 23.000000 -3.000000 -10.000000 
v 23.000000 2.000000 -10.000000 
v 12.000000 -3.000000 -13.000000 
v 2.000000 -4.000000 -3.000000 
v 2.000000 4.000000 -4.000000 
v 2.000000 4.000000 -4.000000 
v 12.000000 2.000000 -13.000000 
v 12.000000 -3.000000 -13.000000 
v 5.000000 -4.000000 9.000000 
v 2.000000 -4.000000 4.000000 
v 22.000000 -4.000000 11.000000 
v 22.000000 -4.000000 11.000000 
v 16.000000 -4.000000 12.000000 
v 5.000000 -4.000000 9.000000 
v 16.000000 3.000000 12.000000 
v 22.000000 5.000000 12.000000 
v 2.000000 4.000000 3.000000 
v 2.000000 4.000000 3.000000 
v 5.000000 3.000000 9.000000 
v 16.000000 3.000000 12.000000 
v 5.000000 3.000000 9.000000 
v 2.000000 4.000000 3.000000 
v 2.000000 -4.000000 4.000000 
v 2.000000 -4.000000 4.000000 
v 5.000000 -4.000000 9.000000 
v 5.000000 3.000000 9.000000 
v 16.000000 -4.000000 12.000000 
v 22.000000 -4.000000 11.000000 
v 22.000000 5.000000 12.000000 
v 22.000000 5.000000 12.000000 
v 16.000000 3.000000 12.000000 
v 16.000000 -4.000000 12.000000 
v -5.000000 -4.000000 -2.000000 
v 2.000000 -4.000000 -3.000000 
v 2.000000 -4.000000 4.000000 
v 2.000000 -4.000000 4.000000 
v -6.000000 -4.000000 4.000000 
v -5.000000 -4.000000 -2.000000 
v -5.000000 4.000000 3.000000 
v 2.000000 4.000000 3.000000 
v 2.000000 4.000000 -4.000000 
v 2.000000 4.000000 -4.000000 
v -5.000000 4.000000 -3.000000 
v -5.000000 4.000000 3.000000 
v -5.000000 4.000000 -3.000000 
v 2.000000 4.000000 -4.000000 
v 2.000000 -4.000000 -3.000000 
v 2.000000 -4.000000 -3.000000 
v -5.000000 -4.000000 -2.000000 
v -5.000000 4.000000 -3.000000 
v -6.000000 -4.000000 4.000000 
v 2.000000 -4.000000 4.000000 
v 2.000000 4.000000 3.000000 
v 2.000000 4.000000 3.000000 
v -5.000000 4.000000 3.000000 
v -6.000000 -4.000000 4.000000 
v 27.000000 -4.000000 -17.000000 
v 23.000000 -3.000000 -10.000000 
v 12.000000 -3.000000 -13.000000 
v 12.000000 -3.000000 -13.000000 
v 21.000000 -4.000000 -20.000000 
v 27.000000 -4.000000 -17.000000 
v 27.000000 0.000000 -17.000000 
v 23.000000 2.000000 -10.000000 
v 23.000000 -3.000000 -10.000000 
v 23.000000 -3.000000 -10.000000 
v 27.000000 -4.000000 -17.000000 
v 27.000000 0.000000 -17.000000 
v 21.000000 0.000000 -20.000000 
v 12.000000 2.000000 -13.000000 
v 23.000000 2.000000 -10.000000 
v 23.000000 2.000000 -10.000000 
v 27.000000 0.000000 -17.000000 
v 21.000000 0.000000 -20.000000 
v 21.000000 -4.000000 -20.000000 
v 12.000000 -3.000000 -13.000000 
v 12.000000 2.000000 -13.000000 
v 12.000000 2.000000 -13.000000 
v 21.000000 0.000000 -20.000000 
v 21.000000 -4.000000 -20.000000 
v 32.000000 -5.000000 -22.000000 
v 27.000000 -4.000000 -17.000000 
v 21.000000 -4.000000 -20.000000 
v 21.000000 -4.000000 -20.000000 
v 26.000000 -5.000000 -25.000000 
v 32.000000 -5.000000 -22.000000 
v 32.000000 -1.000000 -22.000000 
v 27.000000 0.000000 -17.000000 
v 27.000000 -4.000000 -17.000000 
v 27.000000 -4.000000 -17.000000 
v 32.000000 -5.000000 -22.000000 
v 32.000000 -1.000000 -22.000000 
v 26.000000 -1.000000 -25.000000 
v 21.000000 0.000000 -20.000000 
v 27.000000 0.000000 -17.000000 
v 27.000000 0.000000 -17.000000 
v 32.000000 -1.000000 -22.000000 
v 26.000000 -1.000000 -25.000000 
v 26.000000 -5.000000 -25.000000 
v 21.000000 -4.000000 -20.000000 
v 21.000000 0.000000 -20.000000 
v 21.000000 0.000000 -20.000000 
v 26.000000 -1.000000 -25.000000 
v 26.000000 -5.000000 -25.000000 
vn 0.007812 -0.868164 0.496094 
vn -0.371094 -0.822510 0.430420 
vn -0.149902 -0.871094 -0.467529 
vn -0.149902 -0.871094 -0.467529 
vn 0.393311 -0.795654 -0.460449 
vn 0.007812 -0.868164 0.496094 
vn 0.067139 0.770752 0.633301 
vn 0.288330 0.612793 -0.735596 
vn -0.302979 0.819824 -0.485596 
vn -0.302979 0.819824 -0.485596 
vn -0.267090 0.739746 0.617188 
vn 0.067139 0.770752 0.633301 
vn 0.906738 0.334717 -0.255859 
vn 0.493652 -0.869629 0.003662 
vn -0.205811 -0.307861 -0.928711 
vn -0.205811 -0.307861 -0.928711 
vn -0.027588 0.700684 -0.712646 
vn 0.906738 0.334717 -0.255859 
vn 0.622559 0.103027 0.775635 
vn 0.188721 -0.885010 0.425293 
vn 0.678955 -0.500000 -0.537354 
vn 0.678955 -0.500000 -0.537354 
vn 0.656250 0.686035 -0.313721 
vn 0.622559 0.103027 0.775635 
vn -0.604736 0.248779 0.756348 
vn -0.422363 -0.727051 0.540771 
vn -0.061035 -0.275635 0.959229 
vn -0.061035 -0.275635 0.959229 
vn -0.190674 0.511475 0.837646 
vn -0.604736 0.248779 0.756348 
vn -0.995605 0.002686 -0.091309 
vn -0.990479 -0.032227 -0.133789 
vn -0.995605 0.002686 -0.091309 
vn -0.995605 0.002686 -0.091309 
vn -0.998047 0.037598 -0.048828 
vn -0.995605 0.002686 -0.091309 
vn -0.052734 -0.705566 0.706543 
vn 0.007812 -0.868164 0.496094 
vn 0.393311 -0.795654 -0.460449 
vn 0.393311 -0.795654 -0.460449 
vn 0.111084 -0.684570 -0.720215 
vn -0.052734 -0.705566 0.706543 
vn 0.356201 0.691895 -0.627686 
vn 0.288330 0.612793 -0.735596 
vn 0.067139 0.770752 0.633301 
vn 0.067139 0.770752 0.633301 
vn 0.058838 0.683105 0.727539 
vn 0.356201 0.691895 -0.627686 
vn 0.111084 -0.684570 -0.720215 
vn 0.393311 -0.795654 -0.460449 
vn 0.288330 0.612793 -0.735596 
vn 0.288330 0.612793 -0.735596 
vn 0.356201 0.691895 -0.627686 
vn 0.111084 -0.684570 -0.720215 
vn 0.058838 0.683105 0.727539 
vn 0.067139 0.770752 0.633301 
vn 0.007812 -0.868164 0.496094 
vn 0.007812 -0.868164 0.496094 
vn -0.052734 -0.705566 0.706543 
vn 0.058838 0.683105 0.727539 
vn 0.188721 -0.885010 0.425293 
vn -0.052734 -0.705566 0.706543 
vn 0.111084 -0.684570 -0.720215 
vn 0.111084 -0.684570 -0.720215 
vn 0.678955 -0.500000 -0.537354 
vn 0.188721 -0.885010 0.425293 
vn 0.622559 0.103027 0.775635 
vn 0.058838 0.683105 0.727539 
vn -0.052734 -0.705566 0.706543 
vn -0.052734 -0.705566 0.706543 
vn 0.188721 -0.885010 0.425293 
vn 0.622559 0.103027 0.775635 
vn 0.656250 0.686035 -0.313721 
vn 0.356201 0.691895 -0.627686 
vn 0.058838 0.683105 0.727539 
vn 0.058838 0.683105 0.727539 
vn 0.622559 0.103027 0.775635 
vn 0.656250 0.686035 -0.313721 
vn 0.678955 -0.500000 -0.537354 
vn 0.111084 -0.684570 -0.720215 
vn 0.356201 0.691895 -0.627686 
vn 0.356201 0.691895 -0.627686 
vn 0.656250 0.686035 -0.313721 
vn 0.678955 -0.500000 -0.537354 
vn 0.630127 -0.769775 0.101074 
vn 0.393311 -0.795654 -0.460449 
vn -0.149902 -0.871094 -0.467529 
vn -0.149902 -0.871094 -0.467529 
vn -0.504883 -0.719238 -0.477051 
vn 0.630127 -0.769775 0.101074 
vn -0.397461 0.495117 -0.772461 
vn -0.302979 0.819824 -0.485596 
vn 0.288330 0.612793 -0.735596 
vn 0.288330 0.612793 -0.735596 
vn 0.647705 0.567383 -0.508057 
vn -0.397461 0.495117 -0.772461 
vn 0.647705 0.567383 -0.508057 
vn 0.288330 0.612793 -0.735596 
vn 0.393311 -0.795654 -0.460449 
vn 0.393311 -0.795654 -0.460449 
vn 0.630127 -0.769775 0.101074 
vn 0.647705 0.567383 -0.508057 
vn -0.504883 -0.719238 -0.477051 
vn -0.149902 -0.871094 -0.467529 
vn -0.302979 0.819824 -0.485596 
vn -0.302979 0.819824 -0.485596 
vn -0.397461 0.495117 -0.772461 
vn -0.504883 -0.719238 -0.477051 
vn -0.422363 -0.727051 0.540771 
vn -0.371094 -0.822510 0.430420 
vn 0.007812 -0.868164 0.496094 
vn 0.007812 -0.868164 0.496094 
vn -0.061035 -0.275635 0.959229 
vn -0.422363 -0.727051 0.540771 
vn -0.190674 0.511475 0.837646 
vn 0.067139 0.770752 0.633301 
vn -0.267090 0.739746 0.617188 
vn -0.267090 0.739746 0.617188 
vn -0.604736 0.248779 0.756348 
vn -0.190674 0.511475 0.837646 
vn -0.604736 0.248779 0.756348 
vn -0.267090 0.739746 0.617188 
vn -0.371094 -0.822510 0.430420 
vn -0.371094 -0.822510 0.430420 
vn -0.422363 -0.727051 0.540771 
vn -0.604736 0.248779 0.756348 
vn -0.061035 -0.275635 0.959229 
vn 0.007812 -0.868164 0.496094 
vn 0.067139 0.770752 0.633301 
vn 0.067139 0.770752 0.633301 
vn -0.190674 0.511475 0.837646 
vn -0.061035 -0.275635 0.959229 
vn -0.053223 -0.899170 -0.434082 
vn -0.149902 -0.871094 -0.467529 
vn -0.371094 -0.822510 0.430420 
vn -0.371094 -0.822510 0.430420 
vn -0.004639 -0.389893 0.920654 
vn -0.053223 -0.899170 -0.434082 
vn 0.001221 0.899902 0.436035 
vn -0.267090 0.739746 0.617188 
vn -0.302979 0.819824 -0.485596 
vn -0.302979 0.819824 -0.485596 
vn -0.106445 0.402588 -0.908936 
vn 0.001221 0.899902 0.436035 
vn -0.106445 0.402588 -0.908936 
vn -0.302979 0.819824 -0.485596 
vn -0.149902 -0.871094 -0.467529 
vn -0.149902 -0.871094 -0.467529 
vn -0.053223 -0.899170 -0.434082 
vn -0.106445 0.402588 -0.908936 
vn -0.004639 -0.389893 0.920654 
vn -0.371094 -0.822510 0.430420 
vn -0.267090 0.739746 0.617188 
vn -0.267090 0.739746 0.617188 
vn 0.001221 0.899902 0.436035 
vn -0.004639 -0.389893 0.920654 
vn 0.531494 -0.693604 0.485840 
vn 0.630127 -0.769775 0.101074 
vn -0.504883 -0.719238 -0.477051 
vn -0.504883 -0.719238 -0.477051 
vn -0.554932 -0.715332 -0.424072 
vn 0.531494 -0.693604 0.485840 
vn 0.670410 0.699219 0.247559 
vn 0.647705 0.567383 -0.508057 
vn 0.630127 -0.769775 0.101074 
vn 0.630127 -0.769775 0.101074 
vn 0.531494 -0.693604 0.485840 
vn 0.670410 0.699219 0.247559 
vn -0.450684 0.667969 -0.591797 
vn -0.397461 0.495117 -0.772461 
vn 0.647705 0.567383 -0.508057 
vn 0.647705 0.567383 -0.508057 
vn 0.670410 0.699219 0.247559 
vn -0.450684 0.667969 -0.591797 
vn -0.554932 -0.715332 -0.424072 
vn -0.504883 -0.719238 -0.477051 
vn -0.397461 0.495117 -0.772461 
vn -0.397461 0.495117 -0.772461 
vn -0.450684 0.667969 -0.591797 
vn -0.554932 -0.715332 -0.424072 
vn 0.493652 -0.869629 0.003662 
vn 0.531494 -0.693604 0.485840 
vn -0.554932 -0.715332 -0.424072 
vn -0.554932 -0.715332 -0.424072 
vn -0.205811 -0.307861 -0.928711 
vn 0.493652 -0.869629 0.003662 
vn 0.906738 0.334717 -0.255859 
vn 0.670410 0.699219 0.247559 
vn 0.531494 -0.693604 0.485840 
vn 0.531494 -0.693604 0.485840 
vn 0.493652 -0.869629 0.003662 
vn 0.906738 0.334717 -0.255859 
vn -0.027588 0.700684 -0.712646 
vn -0.450684 0.667969 -0.591797 
vn 0.670410 0.699219 0.247559 
vn 0.670410 0.699219 0.247559 
vn 0.906738 0.334717 -0.255859 
vn -0.027588 0.700684 -0.712646 
vn -0.205811 -0.307861 -0.928711 
vn -0.554932 -0.715332 -0.424072 
vn -0.450684 0.667969 -0.591797 
vn -0.450684 0.667969 -0.591797 
vn -0.027588 0.700684 -0.712646 
vn -0.205811 -0.307861 -0.928711 
vt 1.000000 0.451613 
vt 0.838710 -0.032258 
vt 0.677419 0.000000 
vt 0.677419 0.000000 
vt 0.580645 0.516129 
vt 1.000000 0.451613 
vt 0.935484 0.419355 
vt 0.483871 0.451613 
vt 0.580645 -0.032258 
vt 0.580645 -0.032258 
vt 0.741935 -0.032258 
vt 0.935484 0.419355 
vt 0.322581 0.548387 
vt 0.354839 0.548387 
vt 0.258065 0.387097 
vt 0.258065 0.387097 
vt 0.225806 0.387097 
vt 0.322581 0.548387 
vt 0.935484 0.903226 
vt 0.967742 0.838710 
vt 0.483871 0.870968 
vt 0.483871 0.870968 
vt 0.451613 0.935484 
vt 0.935484 0.903226 
vt 0.903226 0.096774 
vt 0.967742 0.096774 
vt 0.967742 0.225806 
vt 0.967742 0.225806 
vt 0.903226 0.225806 
vt 0.903226 0.096774 
vt 0.580645 0.193548 
vt 0.677419 0.193548 
vt 0.838710 0.193548 
vt 0.838710 0.193548 
vt 0.741935 0.225806 
vt 0.580645 0.193548 
vt 0.967742 0.612903 
vt 1.000000 0.451613 
vt 0.580645 0.516129 
vt 0.580645 0.516129 
vt 0.483871 0.612903 
vt 0.967742 0.612903 
vt 0.451613 0.645161 
vt 0.483871 0.451613 
vt 0.935484 0.419355 
vt 0.935484 0.419355 
vt 0.935484 0.645161 
vt 0.451613 0.645161 
vt 0.483871 0.612903 
vt 0.580645 0.516129 
vt 0.483871 0.451613 
vt 0.483871 0.451613 
vt 0.451613 0.645161 
vt 0.483871 0.612903 
vt 0.935484 0.645161 
vt 0.935484 0.419355 
vt 1.000000 0.451613 
vt 1.000000 0.451613 
vt 0.967742 0.612903 
vt 0.935484 0.645161 
vt 0.967742 0.838710 
vt 0.967742 0.612903 
vt 0.483871 0.612903 
vt 0.483871 0.612903 
vt 0.483871 0.870968 
vt 0.967742 0.838710 
vt 0.935484 0.903226 
vt 0.935484 0.645161 
vt 0.967742 0.612903 
vt 0.967742 0.612903 
vt 0.967742 0.838710 
vt 0.935484 0.903226 
vt 0.451613 0.935484 
vt 0.451613 0.645161 
vt 0.935484 0.645161 
vt 0.935484 0.645161 
vt 0.935484 0.903226 
vt 0.451613 0.935484 
vt 0.483871 0.870968 
vt 0.483871 0.612903 
vt 0.451613 0.645161 
vt 0.451613 0.645161 
vt 0.451613 0.935484 
vt 0.483871 0.870968 
vt 0.516129 0.354839 
vt 0.580645 0.516129 
vt 0.677419 0.000000 
vt 0.677419 0.000000 
vt 0.451613 0.096774 
vt 0.516129 0.354839 
vt 0.387097 0.096774 
vt 0.580645 -0.032258 
vt 0.483871 0.451613 
vt 0.483871 0.451613 
vt 0.451613 0.354839 
vt 0.387097 0.096774 
vt 0.451613 0.354839 
vt 0.483871 0.451613 
vt 0.580645 0.516129 
vt 0.580645 0.516129 
vt 0.516129 0.354839 
vt 0.451613 0.354839 
vt 0.451613 0.096774 
vt 0.677419 0.000000 
vt 0.580645 -0.032258 
vt 0.580645 -0.032258 
vt 0.387097 0.096774 
vt 0.451613 0.096774 
vt 0.967742 0.096774 
vt 0.838710 -0.032258 
vt 1.000000 0.451613 
vt 1.000000 0.451613 
vt 0.967742 0.225806 
vt 0.967742 0.096774 
vt 0.903226 0.225806 
vt 0.935484 0.419355 
vt 0.741935 -0.032258 
vt 0.741935 -0.032258 
vt 0.903226 0.096774 
vt 0.903226 0.225806 
vt 0.903226 0.096774 
vt 0.741935 -0.032258 
vt 0.838710 -0.032258 
vt 0.838710 -0.032258 
vt 0.967742 0.096774 
vt 0.903226 0.096774 
vt 0.967742 0.225806 
vt 1.000000 0.451613 
vt 0.935484 0.419355 
vt 0.935484 0.419355 
vt 0.903226 0.225806 
vt 0.967742 0.225806 
vt 0.677419 0.193548 
vt 0.677419 0.000000 
vt 0.838710 -0.032258 
vt 0.838710 -0.032258 
vt 0.838710 0.193548 
vt 0.677419 0.193548 
vt 0.741935 0.225806 
vt 0.741935 -0.032258 
vt 0.580645 -0.032258 
vt 0.580645 -0.032258 
vt 0.580645 0.193548 
vt 0.741935 0.225806 
vt 0.580645 0.193548 
vt 0.580645 -0.032258 
vt 0.677419 0.000000 
vt 0.677419 0.000000 
vt 0.677419 0.193548 
vt 0.580645 0.193548 
vt 0.838710 0.193548 
vt 0.838710 -0.032258 
vt 0.741935 -0.032258 
vt 0.741935 -0.032258 
vt 0.741935 0.225806 
vt 0.838710 0.193548 
vt 0.451613 0.419355 
vt 0.516129 0.354839 
vt 0.451613 0.096774 
vt 0.451613 0.096774 
vt 0.387097 0.290323 
vt 0.451613 0.419355 
vt 0.387097 0.419355 
vt 0.451613 0.354839 
vt 0.516129 0.354839 
vt 0.516129 0.354839 
vt 0.451613 0.419355 
vt 0.387097 0.419355 
vt 0.322581 0.290323 
vt 0.387097 0.096774 
vt 0.451613 0.354839 
vt 0.451613 0.354839 
vt 0.387097 0.419355 
vt 0.322581 0.290323 
vt 0.387097 0.290323 
vt 0.451613 0.096774 
vt 0.387097 0.096774 
vt 0.387097 0.096774 
vt 0.322581 0.290323 
vt 0.387097 0.290323 
vt 0.354839 0.548387 
vt 0.451613 0.419355 
vt 0.387097 0.290323 
vt 0.387097 0.290323 
vt 0.258065 0.387097 
vt 0.354839 0.548387 
vt 0.322581 0.548387 
vt 0.387097 0.419355 
vt 0.451613 0.419355 
vt 0.451613 0.419355 
vt 0.354839 0.548387 
vt 0.322581 0.548387 
vt 0.225806 0.387097 
vt 0.322581 0.290323 
vt 0.387097 0.419355 
vt 0.387097 0.419355 
vt 0.322581 0.548387 
vt 0.225806 0.387097 
vt 0.258065 0.387097 
vt 0.387097 0.290323 
vt 0.322581 0.290323 
vt 0.322581 0.290323 
vt 0.225806 0.387097 
vt 0.258065 0.387097 
f 1/1/1 2/2/2 3/3/3
f 4/4/4 5/5/5 6/6/6
f 7/7/7 8/8/8 9/9/9
f 10/10/10 11/11/11 12/12/12
f 13/13/13 14/14/14 15/15/15
f 16/16/16 17/17/17 18/18/18
f 19/19/19 20/20/20 21/21/21
f 22/22/22 23/23/23 24/24/24
f 25/25/25 26/26/26 27/27/27
f 28/28/28 29/29/29 30/30/30
f 31/31/31 32/32/32 33/33/33
f 34/34/34 35/35/35 36/36/36
f 37/37/37 38/38/38 39/39/39
f 40/40/40 41/41/41 42/42/42
f 43/43/43 44/44/44 45/45/45
f 46/46/46 47/47/47 48/48/48
f 49/49/49 50/50/50 51/51/51
f 52/52/52 53/53/53 54/54/54
f 55/55/55 56/56/56 57/57/57
f 58/58/58 59/59/59 60/60/60
f 61/61/61 62/62/62 63/63/63
f 64/64/64 65/65/65 66/66/66
f 67/67/67 68/68/68 69/69/69
f 70/70/70 71/71/71 72/72/72
f 73/73/73 74/74/74 75/75/75
f 76/76/76 77/77/77 78/78/78
f 79/79/79 80/80/80 81/81/81
f 82/82/82 83/83/83 84/84/84
f 85/85/85 86/86/86 87/87/87
f 88/88/88 89/89/89 90/90/90
f 91/91/91 92/92/92 93/93/93
f 94/94/94 95/95/95 96/96/96
f 97/97/97 98/98/98 99/99/99
f 100/100/100 101/101/101 102/102/102
f 103/103/103 104/104/104 105/105/105
f 106/106/106 107/107/107 108/108/108
f 109/109/109 110/110/110 111/111/111
f 112/112/112 113/113/113 114/114/114
f 115/115/115 116/116/116 117/117/117
f 118/118/118 119/119/119 120/120/120
f 121/121/121 122/122/122 123/123/123
f 124/124/124 125/125/125 126/126/126
f 127/127/127 128/128/128 129/129/129
f 130/130/130 131/131/131 132/132/132
f 133/133/133 134/134/134 135/135/135
f 136/136/136 137/137/137 138/138/138
f 139/139/139 140/140/140 141/141/141
f 142/142/142 143/143/143 144/144/144
f 145/145/145 146/146/146 147/147/147
f 148/148/148 149/149/149 150/150/150
f 151/151/151 152/152/152 153/153/153
f 154/154/154 155/155/155 156/156/156
f 157/157/157 158/158/158 159/159/159
f 160/160/160 161/161/161 162/162/162
f 163/163/163 164/164/164 165/165/165
f 166/166/166 167/167/167 168/168/168
f 169/169/169 170/170/170 171/171/171
f 172/172/172 173/173/173 174/174/174
f 175/175/175 176/176/176 177/177/177
f 178/178/178 179/179/179 180/180/180
f 181/181/181 182/182/182 183/183/183
f 184/184/184 185/185/185 186/186/186
f 187/187/187 188/188/188 189/189/189
f 190/190/190 191/191/191 192/192/192
f 193/193/193 194/194/194 195/195/195
f 196/196/196 197/197/197 198/198/198
f 199/199/199 200/200/200 201/201/201
f 202/202/202 203/203/203 204/204/204
