v 9.000000 1.000000 -10.000000 
v 9.000000 1.000000 0.000000 
v 14.000000 0.000000 0.000000 
v 9.000000 -5.000000 -8.000000 
v 9.000000 1.000000 -10.000000 
v 14.000000 0.000000 0.000000 
v 9.000000 -5.000000 -1.000000 
v 9.000000 -5.000000 -8.000000 
v 14.000000 0.000000 0.000000 
v 0.000000 0.000000 -12.000000 
v 0.000000 1.000000 0.000000 
v 9.000000 1.000000 0.000000 
v 9.000000 1.000000 -10.000000 
v 0.000000 0.000000 -12.000000 
v 9.000000 1.000000 0.000000 
v 0.000000 -7.000000 -9.000000 
v 0.000000 0.000000 -12.000000 
v 9.000000 1.000000 -10.000000 
v 9.000000 -5.000000 -8.000000 
v 0.000000 -7.000000 -9.000000 
v 9.000000 1.000000 -10.000000 
v 0.000000 -8.000000 -1.000000 
v 0.000000 -7.000000 -9.000000 
v 9.000000 -5.000000 -8.000000 
v 9.000000 -5.000000 -1.000000 
v 0.000000 -8.000000 -1.000000 
v 9.000000 -5.000000 -8.000000 
v -9.000000 1.000000 -10.000000 
v -9.000000 1.000000 0.000000 
v 0.000000 1.000000 0.000000 
v 0.000000 0.000000 -12.000000 
v -9.000000 1.000000 -10.000000 
v 0.000000 1.000000 0.000000 
v -9.000000 -5.000000 -8.000000 
v -9.000000 1.000000 -10.000000 
v 0.000000 0.000000 -12.000000 
v 0.000000 -7.000000 -9.000000 
v -9.000000 -5.000000 -8.000000 
v 0.000000 0.000000 -12.000000 
v -9.000000 -5.000000 -1.000000 
v -9.000000 -5.000000 -8.000000 
v 0.000000 -7.000000 -9.000000 
v 0.000000 -8.000000 -1.000000 
v -9.000000 -5.000000 -1.000000 
v 0.000000 -7.000000 -9.000000 
v -9.000000 1.000000 0.000000 
v -9.000000 1.000000 -10.000000 
v -14.000000 0.000000 0.000000 
v -9.000000 1.000000 -10.000000 
v -9.000000 -5.000000 -8.000000 
v -14.000000 0.000000 0.000000 
v -9.000000 -5.000000 -8.000000 
v -9.000000 -5.000000 -1.000000 
v -14.000000 0.000000 0.000000 
vn 0.492432 0.472168 -0.730957 
vn 0.120117 0.990479 -0.066650 
vn 0.965576 0.187500 -0.179443 
vn 0.696777 -0.612549 -0.372559 
vn 0.492432 0.472168 -0.730957 
vn 0.965576 0.187500 -0.179443 
vn 0.713623 -0.700195 0.009766 
vn 0.696777 -0.612549 -0.372559 
vn 0.965576 0.187500 -0.179443 
vn -0.036377 0.601074 -0.798096 
vn 0.027344 0.991943 -0.122559 
vn 0.120117 0.990479 -0.066650 
vn 0.492432 0.472168 -0.730957 
vn -0.036377 0.601074 -0.798096 
vn 0.120117 0.990479 -0.066650 
vn -0.047363 -0.719482 -0.692627 
vn -0.036377 0.601074 -0.798096 
vn 0.492432 0.472168 -0.730957 
vn 0.696777 -0.612549 -0.372559 
vn -0.047363 -0.719482 -0.692627 
vn 0.492432 0.472168 -0.730957 
vn 0.130127 -0.987549 -0.087646 
vn -0.047363 -0.719482 -0.692627 
vn 0.696777 -0.612549 -0.372559 
vn 0.713623 -0.700195 0.009766 
vn 0.130127 -0.987549 -0.087646 
vn 0.696777 -0.612549 -0.372559 
vn -0.439453 0.775391 -0.453125 
vn -0.241211 0.970215 -0.009521 
vn 0.027344 0.991943 -0.122559 
vn -0.036377 0.601074 -0.798096 
vn -0.439453 0.775391 -0.453125 
vn 0.027344 0.991943 -0.122559 
vn -0.661621 -0.451904 -0.597900 
vn -0.439453 0.775391 -0.453125 
vn -0.036377 0.601074 -0.798096 
vn -0.047363 -0.719482 -0.692627 
vn -0.661621 -0.451904 -0.597900 
vn -0.036377 0.601074 -0.798096 
vn -0.599365 -0.799316 -0.036377 
vn -0.661621 -0.451904 -0.597900 
vn -0.047363 -0.719482 -0.692627 
vn 0.130127 -0.987549 -0.087646 
vn -0.599365 -0.799316 -0.036377 
vn -0.047363 -0.719482 -0.692627 
vn -0.241211 0.970215 -0.009521 
vn -0.439453 0.775391 -0.453125 
vn -0.965576 0.187012 -0.179932 
vn -0.439453 0.775391 -0.453125 
vn -0.661621 -0.451904 -0.597900 
vn -0.965576 0.187012 -0.179932 
vn -0.661621 -0.451904 -0.597900 
vn -0.599365 -0.799316 -0.036377 
vn -0.965576 0.187012 -0.179932 
vt 0.451613 0.322581 
vt 0.483871 0.322581 
vt 0.451613 0.354839 
vt 0.387097 0.322581 
vt 0.451613 0.322581 
vt 0.451613 0.354839 
vt 0.387097 0.322581 
vt 0.387097 0.322581 
vt 0.451613 0.354839 
vt 0.451613 0.258065 
vt 0.483871 0.258065 
vt 0.483871 0.322581 
vt 0.451613 0.322581 
vt 0.451613 0.258065 
vt 0.483871 0.322581 
vt 0.354839 0.258065 
vt 0.451613 0.258065 
vt 0.451613 0.322581 
vt 0.387097 0.322581 
vt 0.354839 0.258065 
vt 0.451613 0.322581 
vt 0.354839 0.258065 
vt 0.354839 0.258065 
vt 0.387097 0.322581 
vt 0.387097 0.322581 
vt 0.354839 0.258065 
vt 0.387097 0.322581 
vt 0.451613 0.161290 
vt 0.483871 0.161290 
vt 0.483871 0.258065 
vt 0.451613 0.258065 
vt 0.451613 0.161290 
vt 0.483871 0.258065 
vt 0.387097 0.161290 
vt 0.451613 0.161290 
vt 0.451613 0.258065 
vt 0.354839 0.258065 
vt 0.387097 0.161290 
vt 0.451613 0.258065 
vt 0.387097 0.161290 
vt 0.387097 0.161290 
vt 0.354839 0.258065 
vt 0.354839 0.258065 
vt 0.387097 0.161290 
vt 0.354839 0.258065 
vt 0.483871 0.161290 
vt 0.451613 0.161290 
vt 0.451613 0.129032 
vt 0.451613 0.161290 
vt 0.387097 0.161290 
vt 0.451613 0.129032 
vt 0.387097 0.161290 
vt 0.387097 0.161290 
vt 0.451613 0.129032 
f 1/1/1 2/2/2 3/3/3
f 4/4/4 5/5/5 6/6/6
f 7/7/7 8/8/8 9/9/9
f 10/10/10 11/11/11 12/12/12
f 13/13/13 14/14/14 15/15/15
f 16/16/16 17/17/17 18/18/18
f 19/19/19 20/20/20 21/21/21
f 22/22/22 23/23/23 24/24/24
f 25/25/25 26/26/26 27/27/27
f 28/28/28 29/29/29 30/30/30
f 31/31/31 32/32/32 33/33/33
f 34/34/34 35/35/35 36/36/36
f 37/37/37 38/38/38 39/39/39
f 40/40/40 41/41/41 42/42/42
f 43/43/43 44/44/44 45/45/45
f 46/46/46 47/47/47 48/48/48
f 49/49/49 50/50/50 51/51/51
f 52/52/52 53/53/53 54/54/54
