v -37.000000 5.000000 13.000000 
v -37.000000 0.000000 19.000000 
v 1.000000 0.000000 23.000000 
v 1.000000 6.000000 16.000000 
v -37.000000 5.000000 13.000000 
v 1.000000 0.000000 23.000000 
v -37.000000 8.000000 0.000000 
v -37.000000 5.000000 13.000000 
v 1.000000 6.000000 16.000000 
v 1.000000 9.000000 0.000000 
v -37.000000 8.000000 0.000000 
v 1.000000 6.000000 16.000000 
v -37.000000 5.000000 -13.000000 
v -37.000000 8.000000 0.000000 
v 1.000000 9.000000 0.000000 
v 1.000000 6.000000 -16.000000 
v -37.000000 5.000000 -13.000000 
v 1.000000 9.000000 0.000000 
v -37.000000 0.000000 -19.000000 
v -37.000000 5.000000 -13.000000 
v 1.000000 6.000000 -16.000000 
v 1.000000 0.000000 -23.000000 
v -37.000000 0.000000 -19.000000 
v 1.000000 6.000000 -16.000000 
v -37.000000 -5.000000 -13.000000 
v -37.000000 0.000000 -19.000000 
v 1.000000 0.000000 -23.000000 
v 1.000000 -6.000000 -16.000000 
v -37.000000 -5.000000 -13.000000 
v 1.000000 0.000000 -23.000000 
v -37.000000 -8.000000 0.000000 
v -37.000000 -5.000000 -13.000000 
v 1.000000 -6.000000 -16.000000 
v 1.000000 -9.000000 0.000000 
v -37.000000 -8.000000 0.000000 
v 1.000000 -6.000000 -16.000000 
v -37.000000 -5.000000 13.000000 
v -37.000000 -8.000000 0.000000 
v 1.000000 -9.000000 0.000000 
v 1.000000 -6.000000 16.000000 
v -37.000000 -5.000000 13.000000 
v 1.000000 -9.000000 0.000000 
v -37.000000 0.000000 19.000000 
v -37.000000 -5.000000 13.000000 
v 1.000000 -6.000000 16.000000 
v 1.000000 0.000000 23.000000 
v -37.000000 0.000000 19.000000 
v 1.000000 -6.000000 16.000000 
v -37.000000 0.000000 19.000000 
v -37.000000 5.000000 13.000000 
v -59.000000 0.000000 2.000000 
v -37.000000 5.000000 13.000000 
v -37.000000 8.000000 0.000000 
v -59.000000 0.000000 2.000000 
v -37.000000 8.000000 0.000000 
v -37.000000 5.000000 -13.000000 
v -59.000000 0.000000 2.000000 
v -37.000000 5.000000 -13.000000 
v -37.000000 0.000000 -19.000000 
v -59.000000 0.000000 2.000000 
v -37.000000 0.000000 -19.000000 
v -37.000000 -5.000000 -13.000000 
v -59.000000 0.000000 2.000000 
v -37.000000 -5.000000 -13.000000 
v -37.000000 -8.000000 0.000000 
v -59.000000 0.000000 2.000000 
v -37.000000 -8.000000 0.000000 
v -37.000000 -5.000000 13.000000 
v -59.000000 0.000000 2.000000 
v -37.000000 -5.000000 13.000000 
v -37.000000 0.000000 19.000000 
v -59.000000 0.000000 2.000000 
v 7.000000 0.000000 20.000000 
v 1.000000 6.000000 16.000000 
v 1.000000 0.000000 23.000000 
v 1.000000 6.000000 16.000000 
v 7.000000 0.000000 20.000000 
v 7.000000 0.000000 0.000000 
v 7.000000 0.000000 0.000000 
v 1.000000 9.000000 0.000000 
v 1.000000 6.000000 16.000000 
v 1.000000 9.000000 0.000000 
v 7.000000 0.000000 0.000000 
v 6.000000 0.000000 -20.000000 
v 6.000000 0.000000 -20.000000 
v 1.000000 6.000000 -16.000000 
v 1.000000 9.000000 0.000000 
v 6.000000 0.000000 -20.000000 
v 1.000000 0.000000 -23.000000 
v 1.000000 6.000000 -16.000000 
v 6.000000 0.000000 -20.000000 
v 1.000000 -6.000000 -16.000000 
v 1.000000 0.000000 -23.000000 
v 1.000000 -6.000000 -16.000000 
v 6.000000 0.000000 -20.000000 
v 7.000000 0.000000 0.000000 
v 7.000000 0.000000 0.000000 
v 1.000000 -9.000000 0.000000 
v 1.000000 -6.000000 -16.000000 
v 1.000000 -9.000000 0.000000 
v 7.000000 0.000000 0.000000 
v 7.000000 0.000000 20.000000 
v 7.000000 0.000000 20.000000 
v 1.000000 -6.000000 16.000000 
v 1.000000 -9.000000 0.000000 
v 7.000000 0.000000 20.000000 
v 1.000000 0.000000 23.000000 
v 1.000000 -6.000000 16.000000 
vn -0.489258 0.520264 0.699463 
vn -0.484863 -0.083008 0.870361 
vn 0.218506 0.080566 0.972412 
vn 0.539062 0.629883 0.558838 
vn -0.489258 0.520264 0.699463 
vn 0.218506 0.080566 0.972412 
vn -0.478760 0.872070 0.099854 
vn -0.489258 0.520264 0.699463 
vn 0.539062 0.629883 0.558838 
vn 0.647217 0.754395 -0.107178 
vn -0.478760 0.872070 0.099854 
vn 0.539062 0.629883 0.558838 
vn -0.490479 0.658203 -0.570801 
vn -0.478760 0.872070 0.099854 
vn 0.647217 0.754395 -0.107178 
vn 0.337891 0.559082 -0.756836 
vn -0.490479 0.658203 -0.570801 
vn 0.647217 0.754395 -0.107178 
vn -0.533936 0.093750 -0.840088 
vn -0.490479 0.658203 -0.570801 
vn 0.337891 0.559082 -0.756836 
vn 0.235352 -0.083008 -0.968262 
vn -0.533936 0.093750 -0.840088 
vn 0.337891 0.559082 -0.756836 
vn -0.518311 -0.520264 -0.678467 
vn -0.533936 0.093750 -0.840088 
vn 0.235352 -0.083008 -0.968262 
vn 0.551758 -0.636475 -0.538574 
vn -0.518311 -0.520264 -0.678467 
vn 0.235352 -0.083008 -0.968262 
vn -0.477295 -0.874268 -0.085449 
vn -0.518311 -0.520264 -0.678467 
vn 0.551758 -0.636475 -0.538574 
vn 0.646729 -0.754395 0.110840 
vn -0.477295 -0.874268 -0.085449 
vn 0.551758 -0.636475 -0.538574 
vn -0.469727 -0.656738 0.589600 
vn -0.477295 -0.874268 -0.085449 
vn 0.646729 -0.754395 0.110840 
vn 0.327148 -0.540283 0.774902 
vn -0.469727 -0.656738 0.589600 
vn 0.646729 -0.754395 0.110840 
vn -0.484863 -0.083008 0.870361 
vn -0.469727 -0.656738 0.589600 
vn 0.327148 -0.540283 0.774902 
vn 0.218506 0.080566 0.972412 
vn -0.484863 -0.083008 0.870361 
vn 0.327148 -0.540283 0.774902 
vn -0.484863 -0.083008 0.870361 
vn -0.489258 0.520264 0.699463 
vn -0.999268 -0.000244 0.034912 
vn -0.489258 0.520264 0.699463 
vn -0.478760 0.872070 0.099854 
vn -0.999268 -0.000244 0.034912 
vn -0.478760 0.872070 0.099854 
vn -0.490479 0.658203 -0.570801 
vn -0.999268 -0.000244 0.034912 
vn -0.490479 0.658203 -0.570801 
vn -0.533936 0.093750 -0.840088 
vn -0.999268 -0.000244 0.034912 
vn -0.533936 0.093750 -0.840088 
vn -0.518311 -0.520264 -0.678467 
vn -0.999268 -0.000244 0.034912 
vn -0.518311 -0.520264 -0.678467 
vn -0.477295 -0.874268 -0.085449 
vn -0.999268 -0.000244 0.034912 
vn -0.477295 -0.874268 -0.085449 
vn -0.469727 -0.656738 0.589600 
vn -0.999268 -0.000244 0.034912 
vn -0.469727 -0.656738 0.589600 
vn -0.484863 -0.083008 0.870361 
vn -0.999268 -0.000244 0.034912 
vn 0.954102 -0.030273 0.297119 
vn 0.539062 0.629883 0.558838 
vn 0.218506 0.080566 0.972412 
vn 0.539062 0.629883 0.558838 
vn 0.954102 -0.030273 0.297119 
vn 0.999756 0.000000 -0.005371 
vn 0.999756 0.000000 -0.005371 
vn 0.647217 0.754395 -0.107178 
vn 0.539062 0.629883 0.558838 
vn 0.647217 0.754395 -0.107178 
vn 0.999756 0.000000 -0.005371 
vn 0.958740 0.031250 -0.281982 
vn 0.958740 0.031250 -0.281982 
vn 0.337891 0.559082 -0.756836 
vn 0.647217 0.754395 -0.107178 
vn 0.958740 0.031250 -0.281982 
vn 0.235352 -0.083008 -0.968262 
vn 0.337891 0.559082 -0.756836 
vn 0.958740 0.031250 -0.281982 
vn 0.551758 -0.636475 -0.538574 
vn 0.235352 -0.083008 -0.968262 
vn 0.551758 -0.636475 -0.538574 
vn 0.958740 0.031250 -0.281982 
vn 0.999756 0.000000 -0.005371 
vn 0.999756 0.000000 -0.005371 
vn 0.646729 -0.754395 0.110840 
vn 0.551758 -0.636475 -0.538574 
vn 0.646729 -0.754395 0.110840 
vn 0.999756 0.000000 -0.005371 
vn 0.954102 -0.030273 0.297119 
vn 0.954102 -0.030273 0.297119 
vn 0.327148 -0.540283 0.774902 
vn 0.646729 -0.754395 0.110840 
vn 0.954102 -0.030273 0.297119 
vn 0.218506 0.080566 0.972412 
vn 0.327148 -0.540283 0.774902 
vt 0.133858 0.698413 
vt 0.110236 0.873016 
vt 0.401575 0.968254 
vt 0.393701 0.793651 
vt 0.133858 0.698413 
vt 0.401575 0.968254 
vt 0.141732 0.539683 
vt 0.133858 0.698413 
vt 0.393701 0.793651 
vt 0.393701 0.523810 
vt 0.141732 0.539683 
vt 0.393701 0.793651 
vt 0.141732 0.301587 
vt 0.141732 0.539683 
vt 0.393701 0.523810 
vt 0.385827 0.222222 
vt 0.141732 0.301587 
vt 0.393701 0.523810 
vt 0.125984 0.190476 
vt 0.141732 0.301587 
vt 0.385827 0.222222 
vt 0.385827 0.095238 
vt 0.125984 0.190476 
vt 0.385827 0.222222 
vt 0.141732 0.301587 
vt 0.125984 0.190476 
vt 0.385827 0.095238 
vt 0.385827 0.222222 
vt 0.141732 0.301587 
vt 0.385827 0.095238 
vt 0.141732 0.539683 
vt 0.141732 0.301587 
vt 0.385827 0.222222 
vt 0.393701 0.523810 
vt 0.141732 0.539683 
vt 0.385827 0.222222 
vt 0.133858 0.698413 
vt 0.141732 0.539683 
vt 0.393701 0.523810 
vt 0.393701 0.793651 
vt 0.133858 0.698413 
vt 0.393701 0.523810 
vt 0.110236 0.873016 
vt 0.133858 0.698413 
vt 0.393701 0.793651 
vt 0.401575 0.968254 
vt 0.110236 0.873016 
vt 0.393701 0.793651 
vt 0.110236 0.873016 
vt 0.133858 0.698413 
vt 0.000000 0.523810 
vt 0.133858 0.698413 
vt 0.141732 0.539683 
vt 0.000000 0.523810 
vt 0.141732 0.539683 
vt 0.141732 0.301587 
vt 0.000000 0.523810 
vt 0.141732 0.301587 
vt 0.125984 0.190476 
vt 0.000000 0.523810 
vt 0.125984 0.190476 
vt 0.141732 0.301587 
vt 0.000000 0.523810 
vt 0.141732 0.301587 
vt 0.141732 0.539683 
vt 0.000000 0.523810 
vt 0.141732 0.539683 
vt 0.133858 0.698413 
vt 0.000000 0.523810 
vt 0.133858 0.698413 
vt 0.110236 0.873016 
vt 0.000000 0.523810 
vt 0.393701 0.793651 
vt 0.393701 0.793651 
vt 0.401575 0.968254 
vt 0.393701 0.793651 
vt 0.393701 0.793651 
vt 0.393701 0.523810 
vt 0.393701 0.523810 
vt 0.393701 0.523810 
vt 0.393701 0.793651 
vt 0.393701 0.523810 
vt 0.393701 0.523810 
vt 0.385827 0.222222 
vt 0.385827 0.222222 
vt 0.385827 0.222222 
vt 0.393701 0.523810 
vt 0.385827 0.095238 
vt 0.385827 0.095238 
vt 0.385827 0.222222 
vt 0.385827 0.222222 
vt 0.385827 0.222222 
vt 0.385827 0.095238 
vt 0.385827 0.222222 
vt 0.385827 0.222222 
vt 0.393701 0.523810 
vt 0.393701 0.523810 
vt 0.393701 0.523810 
vt 0.385827 0.222222 
vt 0.393701 0.523810 
vt 0.393701 0.523810 
vt 0.393701 0.793651 
vt 0.393701 0.793651 
vt 0.393701 0.793651 
vt 0.393701 0.523810 
vt 0.401575 0.968254 
vt 0.401575 0.968254 
vt 0.393701 0.793651 
f 1/1/1 2/2/2 3/3/3
f 4/4/4 5/5/5 6/6/6
f 7/7/7 8/8/8 9/9/9
f 10/10/10 11/11/11 12/12/12
f 13/13/13 14/14/14 15/15/15
f 16/16/16 17/17/17 18/18/18
f 19/19/19 20/20/20 21/21/21
f 22/22/22 23/23/23 24/24/24
f 25/25/25 26/26/26 27/27/27
f 28/28/28 29/29/29 30/30/30
f 31/31/31 32/32/32 33/33/33
f 34/34/34 35/35/35 36/36/36
f 37/37/37 38/38/38 39/39/39
f 40/40/40 41/41/41 42/42/42
f 43/43/43 44/44/44 45/45/45
f 46/46/46 47/47/47 48/48/48
f 49/49/49 50/50/50 51/51/51
f 52/52/52 53/53/53 54/54/54
f 55/55/55 56/56/56 57/57/57
f 58/58/58 59/59/59 60/60/60
f 61/61/61 62/62/62 63/63/63
f 64/64/64 65/65/65 66/66/66
f 67/67/67 68/68/68 69/69/69
f 70/70/70 71/71/71 72/72/72
f 73/73/73 74/74/74 75/75/75
f 76/76/76 77/77/77 78/78/78
f 79/79/79 80/80/80 81/81/81
f 82/82/82 83/83/83 84/84/84
f 85/85/85 86/86/86 87/87/87
f 88/88/88 89/89/89 90/90/90
f 91/91/91 92/92/92 93/93/93
f 94/94/94 95/95/95 96/96/96
f 97/97/97 98/98/98 99/99/99
f 100/100/100 101/101/101 102/102/102
f 103/103/103 104/104/104 105/105/105
f 106/106/106 107/107/107 108/108/108
