v 284.000000 9.000000 92.000000 
v 0.000000 5.000000 2.000000 
v 160.000000 4.000000 254.000000 
v 0.000000 5.000000 2.000000 
v -38.000000 17.000000 298.000000 
v 160.000000 4.000000 254.000000 
v 0.000000 5.000000 2.000000 
v -219.000000 17.000000 204.000000 
v -38.000000 17.000000 298.000000 
v 0.000000 5.000000 2.000000 
v -297.000000 4.000000 15.000000 
v -219.000000 17.000000 204.000000 
v 0.000000 5.000000 2.000000 
v -207.000000 4.000000 -179.000000 
v -297.000000 4.000000 15.000000 
v 0.000000 5.000000 2.000000 
v -64.000000 0.000000 -288.000000 
v -207.000000 4.000000 -179.000000 
v 0.000000 5.000000 2.000000 
v 137.000000 0.000000 -261.000000 
v -64.000000 0.000000 -288.000000 
v 0.000000 5.000000 2.000000 
v 275.000000 0.000000 -111.000000 
v 137.000000 0.000000 -261.000000 
v 0.000000 5.000000 2.000000 
v 284.000000 9.000000 92.000000 
v 275.000000 0.000000 -111.000000 
vn -0.029053 0.999023 0.030273 
vn -0.029053 0.999023 0.030273 
vn -0.029053 0.999023 0.030273 
vn 0.090332 0.993408 -0.069580 
vn 0.090332 0.993408 -0.069580 
vn 0.090332 0.993408 -0.069580 
vn 0.031738 0.996094 -0.079834 
vn 0.031738 0.996094 -0.079834 
vn 0.031738 0.996094 -0.079834 
vn -0.008301 0.990479 -0.136719 
vn -0.008301 0.990479 -0.136719 
vn -0.008301 0.990479 -0.136719 
vn -0.003906 0.999756 -0.004883 
vn -0.003906 0.999756 -0.004883 
vn -0.003906 0.999756 -0.004883 
vn 0.029053 0.998047 -0.054443 
vn 0.029053 0.998047 -0.054443 
vn 0.029053 0.998047 -0.054443 
vn 0.004639 0.998779 -0.047363 
vn 0.004639 0.998779 -0.047363 
vn 0.004639 0.998779 -0.047363 
vn 0.026855 0.999023 -0.032227 
vn 0.026855 0.999023 -0.032227 
vn 0.026855 0.999023 -0.032227 
vn 0.003418 0.994141 -0.105713 
vn 0.003418 0.994141 -0.105713 
vn 0.003418 0.994141 -0.105713 
vt 0.818898 0.259843 
vt 0.409449 0.913386 
vt 0.992126 0.826772 
vt 0.496063 0.488189 
vt 0.661417 0.992126 
vt 0.992126 0.740157 
vt 0.496063 0.488189 
vt 0.322835 0.992126 
vt 0.661417 0.992126 
vt 0.496063 0.488189 
vt 0.000000 0.740157 
vt 0.322835 0.992126 
vt 0.622047 0.984252 
vt 0.244094 0.259843 
vt 0.015748 0.842520 
vt 0.622047 0.984252 
vt 0.637795 0.015748 
vt 0.244094 0.259843 
vt 0.622047 0.984252 
vt 1.031496 0.220472 
vt 0.637795 0.015748 
vt 0.409449 0.913386 
vt 0.456693 0.000000 
vt 0.070866 0.165354 
vt 0.409449 0.913386 
vt 0.818898 0.259843 
vt 0.456693 0.000000 
f 1/1/1 2/2/2 3/3/3
f 4/4/4 5/5/5 6/6/6
f 7/7/7 8/8/8 9/9/9
f 10/10/10 11/11/11 12/12/12
f 13/13/13 14/14/14 15/15/15
f 16/16/16 17/17/17 18/18/18
f 19/19/19 20/20/20 21/21/21
f 22/22/22 23/23/23 24/24/24
f 25/25/25 26/26/26 27/27/27
