v 15.000000 -8.000000 -7.000000 
v 17.000000 -8.000000 8.000000 
v 9.000000 -8.000000 9.000000 
v 9.000000 -8.000000 9.000000 
v 5.000000 -8.000000 -11.000000 
v 15.000000 -8.000000 -7.000000 
v 5.000000 -8.000000 -11.000000 
v 9.000000 -8.000000 9.000000 
v -8.000000 -8.000000 12.000000 
v -8.000000 -8.000000 12.000000 
v -9.000000 -8.000000 -8.000000 
v 5.000000 -8.000000 -11.000000 
v -9.000000 -8.000000 -8.000000 
v -8.000000 -8.000000 12.000000 
v -17.000000 -8.000000 11.000000 
v -17.000000 -8.000000 11.000000 
v -15.000000 -8.000000 -2.000000 
v -9.000000 -8.000000 -8.000000 
v 15.000000 7.000000 -5.000000 
v 7.000000 8.000000 -9.000000 
v 8.000000 3.000000 12.000000 
v 8.000000 3.000000 12.000000 
v 16.000000 1.000000 11.000000 
v 15.000000 7.000000 -5.000000 
v 7.000000 8.000000 -9.000000 
v -11.000000 5.000000 -6.000000 
v -10.000000 3.000000 14.000000 
v -10.000000 3.000000 14.000000 
v 8.000000 3.000000 12.000000 
v 7.000000 8.000000 -9.000000 
v -11.000000 5.000000 -6.000000 
v -17.000000 3.000000 -2.000000 
v -18.000000 0.000000 12.000000 
v -18.000000 0.000000 12.000000 
v -10.000000 3.000000 14.000000 
v -11.000000 5.000000 -6.000000 
v 15.000000 -8.000000 -7.000000 
v 5.000000 -8.000000 -11.000000 
v 7.000000 -1.000000 -14.000000 
v 7.000000 -1.000000 -14.000000 
v 17.000000 -1.000000 -9.000000 
v 15.000000 -8.000000 -7.000000 
v 5.000000 -8.000000 -11.000000 
v -9.000000 -8.000000 -8.000000 
v -11.000000 0.000000 -10.000000 
v -11.000000 0.000000 -10.000000 
v 7.000000 -1.000000 -14.000000 
v 5.000000 -8.000000 -11.000000 
v -9.000000 -8.000000 -8.000000 
v -15.000000 -8.000000 -2.000000 
v -17.000000 -2.000000 -2.000000 
v -17.000000 -2.000000 -2.000000 
v -11.000000 0.000000 -10.000000 
v -9.000000 -8.000000 -8.000000 
v 17.000000 -1.000000 -9.000000 
v 7.000000 -1.000000 -14.000000 
v 7.000000 8.000000 -9.000000 
v 7.000000 8.000000 -9.000000 
v 15.000000 7.000000 -5.000000 
v 17.000000 -1.000000 -9.000000 
v 7.000000 -1.000000 -14.000000 
v -11.000000 0.000000 -10.000000 
v -11.000000 5.000000 -6.000000 
v -11.000000 5.000000 -6.000000 
v 7.000000 8.000000 -9.000000 
v 7.000000 -1.000000 -14.000000 
v -11.000000 0.000000 -10.000000 
v -17.000000 -2.000000 -2.000000 
v -17.000000 3.000000 -2.000000 
v -17.000000 3.000000 -2.000000 
v -11.000000 5.000000 -6.000000 
v -11.000000 0.000000 -10.000000 
v -15.000000 -8.000000 -2.000000 
v -17.000000 -8.000000 11.000000 
v -18.000000 -4.000000 11.000000 
v -18.000000 -4.000000 11.000000 
v -17.000000 -2.000000 -2.000000 
v -15.000000 -8.000000 -2.000000 
v -17.000000 -2.000000 -2.000000 
v -18.000000 -4.000000 11.000000 
v -18.000000 0.000000 12.000000 
v -18.000000 0.000000 12.000000 
v -17.000000 3.000000 -2.000000 
v -17.000000 -2.000000 -2.000000 
v 17.000000 -8.000000 8.000000 
v 15.000000 -8.000000 -7.000000 
v 17.000000 -1.000000 -9.000000 
v 17.000000 -1.000000 -9.000000 
v 18.000000 -3.000000 10.000000 
v 17.000000 -8.000000 8.000000 
v 18.000000 -3.000000 10.000000 
v 17.000000 -1.000000 -9.000000 
v 15.000000 7.000000 -5.000000 
v 15.000000 7.000000 -5.000000 
v 16.000000 1.000000 11.000000 
v 18.000000 -3.000000 10.000000 
v 8.000000 3.000000 12.000000 
v 9.000000 -8.000000 9.000000 
v 17.000000 -8.000000 8.000000 
v 8.000000 3.000000 12.000000 
v 17.000000 -8.000000 8.000000 
v 18.000000 -3.000000 10.000000 
v 8.000000 3.000000 12.000000 
v 18.000000 -3.000000 10.000000 
v 16.000000 1.000000 11.000000 
v 9.000000 -8.000000 9.000000 
v 8.000000 3.000000 12.000000 
v -10.000000 3.000000 14.000000 
v 9.000000 -8.000000 9.000000 
v -10.000000 3.000000 14.000000 
v -8.000000 -8.000000 12.000000 
v -10.000000 3.000000 14.000000 
v -18.000000 0.000000 12.000000 
v -18.000000 -4.000000 11.000000 
v -10.000000 3.000000 14.000000 
v -18.000000 -4.000000 11.000000 
v -17.000000 -8.000000 11.000000 
v -10.000000 3.000000 14.000000 
v -17.000000 -8.000000 11.000000 
v -8.000000 -8.000000 12.000000 
vn 0.498779 -0.742920 -0.446045 
vn 0.631348 -0.589600 0.503662 
vn 0.115723 -0.770264 0.626953 
vn 0.115723 -0.770264 0.626953 
vn -0.004639 -0.824463 -0.565674 
vn 0.498779 -0.742920 -0.446045 
vn -0.004639 -0.824463 -0.565674 
vn 0.115723 -0.770264 0.626953 
vn 0.017334 -0.859619 0.510254 
vn 0.017334 -0.859619 0.510254 
vn -0.373047 -0.813721 -0.445557 
vn -0.004639 -0.824463 -0.565674 
vn -0.373047 -0.813721 -0.445557 
vn 0.017334 -0.859619 0.510254 
vn -0.370605 -0.750000 0.547363 
vn -0.370605 -0.750000 0.547363 
vn -0.820801 -0.507080 -0.261963 
vn -0.373047 -0.813721 -0.445557 
vn 0.710938 0.701660 -0.042236 
vn 0.137451 0.904053 -0.404541 
vn 0.182129 0.377441 0.907715 
vn 0.182129 0.377441 0.907715 
vn 0.632568 0.481689 0.606201 
vn 0.710938 0.701660 -0.042236 
vn 0.137451 0.904053 -0.404541 
vn -0.436523 0.814941 -0.380615 
vn -0.161621 0.354248 0.920898 
vn -0.161621 0.354248 0.920898 
vn 0.182129 0.377441 0.907715 
vn 0.137451 0.904053 -0.404541 
vn -0.436523 0.814941 -0.380615 
vn -0.876953 0.381592 -0.291504 
vn -0.819824 0.471680 0.323730 
vn -0.819824 0.471680 0.323730 
vn -0.161621 0.354248 0.920898 
vn -0.436523 0.814941 -0.380615 
vn 0.498779 -0.742920 -0.446045 
vn -0.004639 -0.824463 -0.565674 
vn 0.130371 0.077393 -0.988281 
vn 0.130371 0.077393 -0.988281 
vn 0.864746 0.042725 -0.500000 
vn 0.498779 -0.742920 -0.446045 
vn -0.004639 -0.824463 -0.565674 
vn -0.373047 -0.813721 -0.445557 
vn -0.577393 -0.013916 -0.816162 
vn -0.577393 -0.013916 -0.816162 
vn 0.130371 0.077393 -0.988281 
vn -0.004639 -0.824463 -0.565674 
vn -0.373047 -0.813721 -0.445557 
vn -0.820801 -0.507080 -0.261963 
vn -0.936768 -0.130127 -0.324463 
vn -0.936768 -0.130127 -0.324463 
vn -0.577393 -0.013916 -0.816162 
vn -0.373047 -0.813721 -0.445557 
vn 0.864746 0.042725 -0.500000 
vn 0.130371 0.077393 -0.988281 
vn 0.137451 0.904053 -0.404541 
vn 0.137451 0.904053 -0.404541 
vn 0.710938 0.701660 -0.042236 
vn 0.864746 0.042725 -0.500000 
vn 0.130371 0.077393 -0.988281 
vn -0.577393 -0.013916 -0.816162 
vn -0.436523 0.814941 -0.380615 
vn -0.436523 0.814941 -0.380615 
vn 0.137451 0.904053 -0.404541 
vn 0.130371 0.077393 -0.988281 
vn -0.577393 -0.013916 -0.816162 
vn -0.936768 -0.130127 -0.324463 
vn -0.876953 0.381592 -0.291504 
vn -0.876953 0.381592 -0.291504 
vn -0.436523 0.814941 -0.380615 
vn -0.577393 -0.013916 -0.816162 
vn -0.820801 -0.507080 -0.261963 
vn -0.370605 -0.750000 0.547363 
vn -0.878174 -0.169189 0.446777 
vn -0.878174 -0.169189 0.446777 
vn -0.936768 -0.130127 -0.324463 
vn -0.820801 -0.507080 -0.261963 
vn -0.936768 -0.130127 -0.324463 
vn -0.878174 -0.169189 0.446777 
vn -0.819824 0.471680 0.323730 
vn -0.819824 0.471680 0.323730 
vn -0.876953 0.381592 -0.291504 
vn -0.936768 -0.130127 -0.324463 
vn 0.631348 -0.589600 0.503662 
vn 0.498779 -0.742920 -0.446045 
vn 0.864746 0.042725 -0.500000 
vn 0.864746 0.042725 -0.500000 
vn 0.840820 -0.062500 0.537354 
vn 0.631348 -0.589600 0.503662 
vn 0.840820 -0.062500 0.537354 
vn 0.864746 0.042725 -0.500000 
vn 0.710938 0.701660 -0.042236 
vn 0.710938 0.701660 -0.042236 
vn 0.632568 0.481689 0.606201 
vn 0.840820 -0.062500 0.537354 
vn 0.182129 0.377441 0.907715 
vn 0.115723 -0.770264 0.626953 
vn 0.631348 -0.589600 0.503662 
vn 0.182129 0.377441 0.907715 
vn 0.631348 -0.589600 0.503662 
vn 0.840820 -0.062500 0.537354 
vn 0.182129 0.377441 0.907715 
vn 0.840820 -0.062500 0.537354 
vn 0.632568 0.481689 0.606201 
vn 0.115723 -0.770264 0.626953 
vn 0.182129 0.377441 0.907715 
vn -0.161621 0.354248 0.920898 
vn 0.115723 -0.770264 0.626953 
vn -0.161621 0.354248 0.920898 
vn 0.017334 -0.859619 0.510254 
vn -0.161621 0.354248 0.920898 
vn -0.819824 0.471680 0.323730 
vn -0.878174 -0.169189 0.446777 
vn -0.161621 0.354248 0.920898 
vn -0.878174 -0.169189 0.446777 
vn -0.370605 -0.750000 0.547363 
vn -0.161621 0.354248 0.920898 
vn -0.370605 -0.750000 0.547363 
vn 0.017334 -0.859619 0.510254 
vt 0.984127 0.396825 
vt 0.984127 0.111111 
vt 0.841270 0.095238 
vt 0.841270 0.095238 
vt 0.841270 0.460317 
vt 0.984127 0.396825 
vt 0.841270 0.460317 
vt 0.841270 0.095238 
vt 0.619048 0.079365 
vt 0.619048 0.079365 
vt 0.619048 0.428571 
vt 0.841270 0.460317 
vt 0.619048 0.428571 
vt 0.619048 0.079365 
vt 0.507937 0.095238 
vt 0.507937 0.095238 
vt 0.523810 0.349206 
vt 0.619048 0.428571 
vt 0.952381 0.396825 
vt 0.857143 0.444444 
vt 0.841270 0.047619 
vt 0.841270 0.047619 
vt 0.936508 0.063492 
vt 0.952381 0.396825 
vt 0.857143 0.444444 
vt 0.619048 0.428571 
vt 0.587302 0.047619 
vt 0.587302 0.047619 
vt 0.841270 0.047619 
vt 0.857143 0.444444 
vt 0.619048 0.428571 
vt 0.523810 0.349206 
vt 0.492063 0.079365 
vt 0.492063 0.079365 
vt 0.587302 0.047619 
vt 0.619048 0.428571 
vt 0.984127 0.396825 
vt 0.841270 0.460317 
vt 0.888889 0.507937 
vt 0.888889 0.507937 
vt 1.000000 0.444444 
vt 0.984127 0.396825 
vt 0.841270 0.460317 
vt 0.619048 0.428571 
vt 0.619048 0.460317 
vt 0.619048 0.460317 
vt 0.888889 0.507937 
vt 0.841270 0.460317 
vt 0.619048 0.428571 
vt 0.523810 0.349206 
vt 0.476190 0.380952 
vt 0.476190 0.380952 
vt 0.619048 0.460317 
vt 0.619048 0.428571 
vt 1.000000 0.444444 
vt 0.888889 0.507937 
vt 0.857143 0.444444 
vt 0.857143 0.444444 
vt 0.952381 0.396825 
vt 1.000000 0.444444 
vt 0.888889 0.507937 
vt 0.619048 0.460317 
vt 0.619048 0.428571 
vt 0.619048 0.428571 
vt 0.857143 0.444444 
vt 0.888889 0.507937 
vt 0.619048 0.460317 
vt 0.476190 0.380952 
vt 0.523810 0.349206 
vt 0.523810 0.349206 
vt 0.619048 0.428571 
vt 0.619048 0.460317 
vt 0.523810 0.349206 
vt 0.507937 0.095238 
vt 0.492063 0.095238 
vt 0.492063 0.095238 
vt 0.476190 0.380952 
vt 0.523810 0.349206 
vt 0.476190 0.380952 
vt 0.492063 0.095238 
vt 0.492063 0.079365 
vt 0.492063 0.079365 
vt 0.523810 0.349206 
vt 0.476190 0.380952 
vt 0.984127 0.111111 
vt 0.984127 0.396825 
vt 1.000000 0.444444 
vt 1.000000 0.444444 
vt 1.000000 0.079365 
vt 0.984127 0.111111 
vt 1.000000 0.079365 
vt 1.000000 0.444444 
vt 0.952381 0.396825 
vt 0.952381 0.396825 
vt 0.936508 0.063492 
vt 1.000000 0.079365 
vt 0.841270 0.047619 
vt 0.841270 0.095238 
vt 0.984127 0.111111 
vt 0.841270 0.047619 
vt 0.984127 0.111111 
vt 1.000000 0.079365 
vt 0.841270 0.047619 
vt 1.000000 0.079365 
vt 0.936508 0.063492 
vt 0.841270 0.095238 
vt 0.841270 0.047619 
vt 0.587302 0.047619 
vt 0.841270 0.095238 
vt 0.587302 0.047619 
vt 0.619048 0.079365 
vt 0.587302 0.047619 
vt 0.492063 0.079365 
vt 0.492063 0.095238 
vt 0.587302 0.047619 
vt 0.492063 0.095238 
vt 0.507937 0.095238 
vt 0.587302 0.047619 
vt 0.507937 0.095238 
vt 0.619048 0.079365 
f 1/1/1 2/2/2 3/3/3
f 4/4/4 5/5/5 6/6/6
f 7/7/7 8/8/8 9/9/9
f 10/10/10 11/11/11 12/12/12
f 13/13/13 14/14/14 15/15/15
f 16/16/16 17/17/17 18/18/18
f 19/19/19 20/20/20 21/21/21
f 22/22/22 23/23/23 24/24/24
f 25/25/25 26/26/26 27/27/27
f 28/28/28 29/29/29 30/30/30
f 31/31/31 32/32/32 33/33/33
f 34/34/34 35/35/35 36/36/36
f 37/37/37 38/38/38 39/39/39
f 40/40/40 41/41/41 42/42/42
f 43/43/43 44/44/44 45/45/45
f 46/46/46 47/47/47 48/48/48
f 49/49/49 50/50/50 51/51/51
f 52/52/52 53/53/53 54/54/54
f 55/55/55 56/56/56 57/57/57
f 58/58/58 59/59/59 60/60/60
f 61/61/61 62/62/62 63/63/63
f 64/64/64 65/65/65 66/66/66
f 67/67/67 68/68/68 69/69/69
f 70/70/70 71/71/71 72/72/72
f 73/73/73 74/74/74 75/75/75
f 76/76/76 77/77/77 78/78/78
f 79/79/79 80/80/80 81/81/81
f 82/82/82 83/83/83 84/84/84
f 85/85/85 86/86/86 87/87/87
f 88/88/88 89/89/89 90/90/90
f 91/91/91 92/92/92 93/93/93
f 94/94/94 95/95/95 96/96/96
f 97/97/97 98/98/98 99/99/99
f 100/100/100 101/101/101 102/102/102
f 103/103/103 104/104/104 105/105/105
f 106/106/106 107/107/107 108/108/108
f 109/109/109 110/110/110 111/111/111
f 112/112/112 113/113/113 114/114/114
f 115/115/115 116/116/116 117/117/117
f 118/118/118 119/119/119 120/120/120
