v 3.000000 -3.000000 6.000000 
v 3.000000 -6.000000 0.000000 
v 18.000000 -6.000000 -1.000000 
v 3.000000 -6.000000 0.000000 
v 0.000000 -6.000000 0.000000 
v 4.000000 -3.000000 -6.000000 
vn 0.007568 -0.431885 0.901611 
vn 0.008301 -0.999756 0.000244 
vn -0.007080 -0.973633 0.227051 
vn 0.008301 -0.999756 0.000244 
vn -0.016357 -0.999756 -0.000732 
vn -0.000488 -0.430420 -0.902344 
vt 0.161290 0.483871 
vt 0.870968 0.483871 
vt 0.870968 0.967742 
vt 0.870968 0.483871 
vt 0.870968 0.258065 
vt 0.161290 0.645161 
f 1/1/1 2/2/2 3/3/3
f 4/4/4 5/5/5 6/6/6
