v 49.000000 156.000000 33.000000 
v 34.000000 141.000000 -14.000000 
v -34.000000 141.000000 -14.000000 
v -34.000000 141.000000 -14.000000 
v -49.000000 156.000000 33.000000 
v 49.000000 156.000000 33.000000 
v 34.000000 141.000000 -14.000000 
v 35.000000 34.000000 -14.000000 
v -35.000000 34.000000 -6.000000 
v -35.000000 34.000000 -6.000000 
v -34.000000 141.000000 -14.000000 
v 34.000000 141.000000 -14.000000 
v 49.000000 156.000000 33.000000 
v 49.000000 49.000000 33.000000 
v 35.000000 34.000000 -14.000000 
v 35.000000 34.000000 -14.000000 
v 34.000000 141.000000 -14.000000 
v 49.000000 156.000000 33.000000 
v -34.000000 141.000000 -14.000000 
v -35.000000 34.000000 -6.000000 
v -49.000000 49.000000 33.000000 
v -49.000000 49.000000 33.000000 
v -49.000000 156.000000 33.000000 
v -34.000000 141.000000 -14.000000 
v 156.000000 -49.000000 33.000000 
v 141.000000 -34.000000 -14.000000 
v 141.000000 34.000000 -14.000000 
v 141.000000 34.000000 -14.000000 
v 156.000000 49.000000 33.000000 
v 156.000000 -49.000000 33.000000 
v 141.000000 -34.000000 -14.000000 
v 35.000000 -34.000000 -14.000000 
v 35.000000 34.000000 -14.000000 
v 35.000000 34.000000 -14.000000 
v 141.000000 34.000000 -14.000000 
v 141.000000 -34.000000 -14.000000 
v 156.000000 -49.000000 33.000000 
v 49.000000 -49.000000 33.000000 
v 35.000000 -34.000000 -14.000000 
v 35.000000 -34.000000 -14.000000 
v 141.000000 -34.000000 -14.000000 
v 156.000000 -49.000000 33.000000 
v 141.000000 34.000000 -14.000000 
v 35.000000 34.000000 -14.000000 
v 49.000000 49.000000 33.000000 
v 49.000000 49.000000 33.000000 
v 156.000000 49.000000 33.000000 
v 141.000000 34.000000 -14.000000 
v -35.000000 34.000000 -6.000000 
v 35.000000 34.000000 -14.000000 
v 35.000000 -34.000000 -14.000000 
v -49.000000 -156.000000 33.000000 
v -34.000000 -141.000000 -14.000000 
v 34.000000 -141.000000 -14.000000 
v 34.000000 -141.000000 -14.000000 
v 49.000000 -156.000000 33.000000 
v -49.000000 -156.000000 33.000000 
v -34.000000 -141.000000 -14.000000 
v -35.000000 -34.000000 -14.000000 
v 35.000000 -34.000000 -14.000000 
v 35.000000 -34.000000 -14.000000 
v 34.000000 -141.000000 -14.000000 
v -34.000000 -141.000000 -14.000000 
v -49.000000 -156.000000 33.000000 
v -49.000000 -49.000000 33.000000 
v -35.000000 -34.000000 -14.000000 
v -35.000000 -34.000000 -14.000000 
v -34.000000 -141.000000 -14.000000 
v -49.000000 -156.000000 33.000000 
v 34.000000 -141.000000 -14.000000 
v 35.000000 -34.000000 -14.000000 
v 49.000000 -49.000000 33.000000 
v 49.000000 -49.000000 33.000000 
v 49.000000 -156.000000 33.000000 
v 34.000000 -141.000000 -14.000000 
v -35.000000 34.000000 -6.000000 
v 35.000000 -34.000000 -14.000000 
v -35.000000 -34.000000 -14.000000 
v -156.000000 49.000000 33.000000 
v -141.000000 34.000000 -14.000000 
v -141.000000 -34.000000 -14.000000 
v -141.000000 -34.000000 -14.000000 
v -156.000000 -49.000000 33.000000 
v -156.000000 49.000000 33.000000 
v -141.000000 34.000000 -14.000000 
v -35.000000 34.000000 -6.000000 
v -35.000000 -34.000000 -14.000000 
v -35.000000 -34.000000 -14.000000 
v -141.000000 -34.000000 -14.000000 
v -141.000000 34.000000 -14.000000 
v -156.000000 49.000000 33.000000 
v -49.000000 49.000000 33.000000 
v -35.000000 34.000000 -6.000000 
v -35.000000 34.000000 -6.000000 
v -141.000000 34.000000 -14.000000 
v -156.000000 49.000000 33.000000 
v -141.000000 -34.000000 -14.000000 
v -35.000000 -34.000000 -14.000000 
v -49.000000 -49.000000 33.000000 
v -49.000000 -49.000000 33.000000 
v -156.000000 -49.000000 33.000000 
v -141.000000 -34.000000 -14.000000 
vn 0.649170 0.650879 -0.393311 
vn 0.293701 0.310059 -0.904053 
vn -0.553955 0.529053 -0.642334 
vn -0.553955 0.529053 -0.642334 
vn -0.648193 0.648682 -0.398193 
vn 0.649170 0.650879 -0.393311 
vn 0.293701 0.310059 -0.904053 
vn 0.322754 0.185059 -0.927979 
vn -0.170410 0.320557 -0.931641 
vn -0.170410 0.320557 -0.931641 
vn -0.553955 0.529053 -0.642334 
vn 0.293701 0.310059 -0.904053 
vn 0.649170 0.650879 -0.393311 
vn 0.417969 0.829102 -0.370850 
vn 0.322754 0.185059 -0.927979 
vn 0.322754 0.185059 -0.927979 
vn 0.293701 0.310059 -0.904053 
vn 0.649170 0.650879 -0.393311 
vn -0.553955 0.529053 -0.642334 
vn -0.170410 0.320557 -0.931641 
vn -0.819092 0.397217 -0.413330 
vn -0.819092 0.397217 -0.413330 
vn -0.648193 0.648682 -0.398193 
vn -0.553955 0.529053 -0.642334 
vn 0.649170 -0.648438 -0.396973 
vn 0.328125 -0.327393 -0.885986 
vn 0.551758 0.551270 -0.625488 
vn 0.551758 0.551270 -0.625488 
vn 0.648682 0.648193 -0.398193 
vn 0.649170 -0.648438 -0.396973 
vn 0.328125 -0.327393 -0.885986 
vn 0.137207 -0.291992 -0.946289 
vn 0.322754 0.185059 -0.927979 
vn 0.322754 0.185059 -0.927979 
vn 0.551758 0.551270 -0.625488 
vn 0.328125 -0.327393 -0.885986 
vn 0.649170 -0.648438 -0.396973 
vn 0.828857 -0.418457 -0.371094 
vn 0.137207 -0.291992 -0.946289 
vn 0.137207 -0.291992 -0.946289 
vn 0.328125 -0.327393 -0.885986 
vn 0.649170 -0.648438 -0.396973 
vn 0.551758 0.551270 -0.625488 
vn 0.322754 0.185059 -0.927979 
vn 0.417969 0.829102 -0.370850 
vn 0.417969 0.829102 -0.370850 
vn 0.648682 0.648193 -0.398193 
vn 0.551758 0.551270 -0.625488 
vn -0.170410 0.320557 -0.931641 
vn 0.322754 0.185059 -0.927979 
vn 0.137207 -0.291992 -0.946289 
vn -0.649170 -0.650879 -0.393311 
vn -0.326660 -0.329834 -0.885498 
vn 0.552246 -0.553711 -0.622803 
vn 0.552246 -0.553711 -0.622803 
vn 0.648193 -0.648682 -0.398193 
vn -0.649170 -0.650879 -0.393311 
vn -0.326660 -0.329834 -0.885498 
vn -0.352051 -0.139648 -0.925293 
vn 0.137207 -0.291992 -0.946289 
vn 0.137207 -0.291992 -0.946289 
vn 0.552246 -0.553711 -0.622803 
vn -0.326660 -0.329834 -0.885498 
vn -0.649170 -0.650879 -0.393311 
vn -0.417969 -0.829102 -0.370850 
vn -0.352051 -0.139648 -0.925293 
vn -0.352051 -0.139648 -0.925293 
vn -0.326660 -0.329834 -0.885498 
vn -0.649170 -0.650879 -0.393311 
vn 0.552246 -0.553711 -0.622803 
vn 0.137207 -0.291992 -0.946289 
vn 0.828857 -0.418457 -0.371094 
vn 0.828857 -0.418457 -0.371094 
vn 0.648193 -0.648682 -0.398193 
vn 0.552246 -0.553711 -0.622803 
vn -0.170410 0.320557 -0.931641 
vn 0.137207 -0.291992 -0.946289 
vn -0.352051 -0.139648 -0.925293 
vn -0.642578 0.644287 -0.414307 
vn -0.293945 0.369141 -0.881592 
vn -0.551758 -0.551270 -0.625488 
vn -0.551758 -0.551270 -0.625488 
vn -0.648682 -0.648193 -0.398193 
vn -0.642578 0.644287 -0.414307 
vn -0.293945 0.369141 -0.881592 
vn -0.170410 0.320557 -0.931641 
vn -0.352051 -0.139648 -0.925293 
vn -0.352051 -0.139648 -0.925293 
vn -0.551758 -0.551270 -0.625488 
vn -0.293945 0.369141 -0.881592 
vn -0.642578 0.644287 -0.414307 
vn -0.819092 0.397217 -0.413330 
vn -0.170410 0.320557 -0.931641 
vn -0.170410 0.320557 -0.931641 
vn -0.293945 0.369141 -0.881592 
vn -0.642578 0.644287 -0.414307 
vn -0.551758 -0.551270 -0.625488 
vn -0.352051 -0.139648 -0.925293 
vn -0.417969 -0.829102 -0.370850 
vn -0.417969 -0.829102 -0.370850 
vn -0.648682 -0.648193 -0.398193 
vn -0.551758 -0.551270 -0.625488 
vt 1.000000 1.000000 
vt 0.857143 0.888889 
vt 0.111111 0.888889 
vt 0.111111 0.888889 
vt 0.000000 1.000000 
vt 1.000000 1.000000 
vt 0.857143 0.888889 
vt 0.857143 0.285714 
vt 0.111111 0.285714 
vt 0.111111 0.285714 
vt 0.111111 0.888889 
vt 0.857143 0.888889 
vt 1.000000 1.000000 
vt 1.000000 0.285714 
vt 0.857143 0.285714 
vt 0.857143 0.285714 
vt 0.857143 0.888889 
vt 1.000000 1.000000 
vt 0.111111 0.888889 
vt 0.111111 0.285714 
vt 0.000000 0.285714 
vt 0.000000 0.285714 
vt 0.000000 1.000000 
vt 0.111111 0.888889 
vt 1.000000 1.000000 
vt 0.857143 0.888889 
vt 0.111111 0.888889 
vt 0.111111 0.888889 
vt 0.000000 1.000000 
vt 1.000000 1.000000 
vt 0.857143 0.888889 
vt 0.857143 0.285714 
vt 0.111111 0.285714 
vt 0.111111 0.285714 
vt 0.111111 0.888889 
vt 0.857143 0.888889 
vt 1.000000 1.000000 
vt 1.000000 0.285714 
vt 0.857143 0.285714 
vt 0.857143 0.285714 
vt 0.857143 0.888889 
vt 1.000000 1.000000 
vt 0.111111 0.888889 
vt 0.111111 0.285714 
vt 0.000000 0.285714 
vt 0.000000 0.285714 
vt 0.000000 1.000000 
vt 0.111111 0.888889 
vt 0.174603 0.777778 
vt 0.174603 0.222222 
vt 0.841270 0.222222 
vt 1.000000 1.000000 
vt 0.857143 0.888889 
vt 0.111111 0.888889 
vt 0.111111 0.888889 
vt 0.000000 1.000000 
vt 1.000000 1.000000 
vt 0.857143 0.888889 
vt 0.857143 0.285714 
vt 0.111111 0.285714 
vt 0.111111 0.285714 
vt 0.111111 0.888889 
vt 0.857143 0.888889 
vt 1.000000 1.000000 
vt 1.000000 0.285714 
vt 0.857143 0.285714 
vt 0.857143 0.285714 
vt 0.857143 0.888889 
vt 1.000000 1.000000 
vt 0.111111 0.888889 
vt 0.111111 0.285714 
vt 0.000000 0.285714 
vt 0.000000 0.285714 
vt 0.000000 1.000000 
vt 0.111111 0.888889 
vt 0.174603 0.777778 
vt 0.841270 0.222222 
vt 0.841270 0.777778 
vt 1.000000 1.000000 
vt 0.857143 0.888889 
vt 0.111111 0.888889 
vt 0.111111 0.888889 
vt 0.000000 1.000000 
vt 1.000000 1.000000 
vt 0.857143 0.888889 
vt 0.857143 0.285714 
vt 0.111111 0.285714 
vt 0.111111 0.285714 
vt 0.111111 0.888889 
vt 0.857143 0.888889 
vt 1.000000 1.000000 
vt 1.000000 0.285714 
vt 0.857143 0.285714 
vt 0.857143 0.285714 
vt 0.857143 0.888889 
vt 1.000000 1.000000 
vt 0.111111 0.888889 
vt 0.111111 0.285714 
vt 0.000000 0.285714 
vt 0.000000 0.285714 
vt 0.000000 1.000000 
vt 0.111111 0.888889 
f 1/1/1 2/2/2 3/3/3
f 4/4/4 5/5/5 6/6/6
f 7/7/7 8/8/8 9/9/9
f 10/10/10 11/11/11 12/12/12
f 13/13/13 14/14/14 15/15/15
f 16/16/16 17/17/17 18/18/18
f 19/19/19 20/20/20 21/21/21
f 22/22/22 23/23/23 24/24/24
f 25/25/25 26/26/26 27/27/27
f 28/28/28 29/29/29 30/30/30
f 31/31/31 32/32/32 33/33/33
f 34/34/34 35/35/35 36/36/36
f 37/37/37 38/38/38 39/39/39
f 40/40/40 41/41/41 42/42/42
f 43/43/43 44/44/44 45/45/45
f 46/46/46 47/47/47 48/48/48
f 49/49/49 50/50/50 51/51/51
f 52/52/52 53/53/53 54/54/54
f 55/55/55 56/56/56 57/57/57
f 58/58/58 59/59/59 60/60/60
f 61/61/61 62/62/62 63/63/63
f 64/64/64 65/65/65 66/66/66
f 67/67/67 68/68/68 69/69/69
f 70/70/70 71/71/71 72/72/72
f 73/73/73 74/74/74 75/75/75
f 76/76/76 77/77/77 78/78/78
f 79/79/79 80/80/80 81/81/81
f 82/82/82 83/83/83 84/84/84
f 85/85/85 86/86/86 87/87/87
f 88/88/88 89/89/89 90/90/90
f 91/91/91 92/92/92 93/93/93
f 94/94/94 95/95/95 96/96/96
f 97/97/97 98/98/98 99/99/99
f 100/100/100 101/101/101 102/102/102
