v 7.000000 0.000000 0.000000 
v 3.000000 0.000000 7.000000 
v 0.000000 0.000000 0.000000 
v 3.000000 0.000000 7.000000 
v -3.000000 0.000000 7.000000 
v 0.000000 0.000000 0.000000 
v 3.000000 0.000000 -7.000000 
v 7.000000 0.000000 0.000000 
v 0.000000 0.000000 0.000000 
v -3.000000 0.000000 7.000000 
v -7.000000 0.000000 0.000000 
v 0.000000 0.000000 0.000000 
v -7.000000 0.000000 0.000000 
v -3.000000 0.000000 -7.000000 
v 0.000000 0.000000 0.000000 
v -3.000000 0.000000 -7.000000 
v 3.000000 0.000000 -7.000000 
v 0.000000 0.000000 0.000000 
v 7.000000 79.000000 -6.000000 
v 3.000000 79.000000 6.000000 
v 7.000000 0.000000 0.000000 
v 3.000000 79.000000 6.000000 
v 3.000000 0.000000 7.000000 
v 7.000000 0.000000 0.000000 
v 3.000000 79.000000 6.000000 
v -3.000000 79.000000 6.000000 
v 3.000000 0.000000 7.000000 
v -3.000000 79.000000 6.000000 
v -3.000000 0.000000 7.000000 
v 3.000000 0.000000 7.000000 
v -3.000000 79.000000 6.000000 
v -7.000000 79.000000 -6.000000 
v -3.000000 0.000000 7.000000 
v -7.000000 79.000000 -6.000000 
v -7.000000 0.000000 0.000000 
v -3.000000 0.000000 7.000000 
v -7.000000 79.000000 -6.000000 
v -3.000000 79.000000 -20.000000 
v -7.000000 0.000000 0.000000 
v -3.000000 79.000000 -20.000000 
v -3.000000 0.000000 -7.000000 
v -7.000000 0.000000 0.000000 
v -3.000000 79.000000 -20.000000 
v 3.000000 79.000000 -20.000000 
v -3.000000 0.000000 -7.000000 
v 3.000000 79.000000 -20.000000 
v 3.000000 0.000000 -7.000000 
v -3.000000 0.000000 -7.000000 
v 3.000000 79.000000 -20.000000 
v 7.000000 79.000000 -6.000000 
v 3.000000 0.000000 -7.000000 
v 7.000000 79.000000 -6.000000 
v 7.000000 0.000000 0.000000 
v 3.000000 0.000000 -7.000000 
v 9.000000 152.000000 -7.000000 
v 4.000000 151.000000 12.000000 
v 7.000000 79.000000 -6.000000 
v 4.000000 151.000000 12.000000 
v 3.000000 79.000000 6.000000 
v 7.000000 79.000000 -6.000000 
v 4.000000 151.000000 12.000000 
v -4.000000 151.000000 12.000000 
v 3.000000 79.000000 6.000000 
v -4.000000 151.000000 12.000000 
v -3.000000 79.000000 6.000000 
v 3.000000 79.000000 6.000000 
v -4.000000 151.000000 12.000000 
v -9.000000 152.000000 -7.000000 
v -3.000000 79.000000 6.000000 
v -9.000000 152.000000 -7.000000 
v -7.000000 79.000000 -6.000000 
v -3.000000 79.000000 6.000000 
v -9.000000 152.000000 -7.000000 
v -4.000000 152.000000 -28.000000 
v -7.000000 79.000000 -6.000000 
v -4.000000 152.000000 -28.000000 
v -3.000000 79.000000 -20.000000 
v -7.000000 79.000000 -6.000000 
v -4.000000 152.000000 -28.000000 
v 4.000000 152.000000 -28.000000 
v -3.000000 79.000000 -20.000000 
v 4.000000 152.000000 -28.000000 
v 3.000000 79.000000 -20.000000 
v -3.000000 79.000000 -20.000000 
v 4.000000 152.000000 -28.000000 
v 9.000000 152.000000 -7.000000 
v 3.000000 79.000000 -20.000000 
v 9.000000 152.000000 -7.000000 
v 7.000000 79.000000 -6.000000 
v 3.000000 79.000000 -20.000000 
v 10.000000 221.000000 -3.000000 
v 4.000000 151.000000 12.000000 
v 9.000000 152.000000 -7.000000 
v 4.000000 151.000000 12.000000 
v 10.000000 221.000000 -3.000000 
v 4.000000 219.000000 20.000000 
v 4.000000 219.000000 20.000000 
v -4.000000 151.000000 12.000000 
v 4.000000 151.000000 12.000000 
v -4.000000 151.000000 12.000000 
v 4.000000 219.000000 20.000000 
v -4.000000 219.000000 20.000000 
v -10.000000 221.000000 -3.000000 
v -9.000000 152.000000 -7.000000 
v -4.000000 151.000000 12.000000 
v -4.000000 151.000000 12.000000 
v -4.000000 219.000000 20.000000 
v -10.000000 221.000000 -3.000000 
v -4.000000 223.000000 -27.000000 
v -4.000000 152.000000 -28.000000 
v -9.000000 152.000000 -7.000000 
v -9.000000 152.000000 -7.000000 
v -10.000000 221.000000 -3.000000 
v -4.000000 223.000000 -27.000000 
v -4.000000 223.000000 -27.000000 
v 4.000000 152.000000 -28.000000 
v -4.000000 152.000000 -28.000000 
v 4.000000 152.000000 -28.000000 
v -4.000000 223.000000 -27.000000 
v 4.000000 223.000000 -27.000000 
v 4.000000 223.000000 -27.000000 
v 9.000000 152.000000 -7.000000 
v 4.000000 152.000000 -28.000000 
v 9.000000 152.000000 -7.000000 
v 4.000000 223.000000 -27.000000 
v 10.000000 221.000000 -3.000000 
v 4.000000 279.000000 30.000000 
v 10.000000 281.000000 5.000000 
v 0.000000 281.000000 5.000000 
v 10.000000 281.000000 5.000000 
v 4.000000 284.000000 -19.000000 
v 0.000000 281.000000 5.000000 
v -4.000000 279.000000 30.000000 
v 4.000000 279.000000 30.000000 
v 0.000000 281.000000 5.000000 
v -10.000000 281.000000 5.000000 
v -4.000000 279.000000 30.000000 
v 0.000000 281.000000 5.000000 
v -4.000000 284.000000 -19.000000 
v -10.000000 281.000000 5.000000 
v 0.000000 281.000000 5.000000 
v 4.000000 284.000000 -19.000000 
v -4.000000 284.000000 -19.000000 
v 0.000000 281.000000 5.000000 
v 10.000000 281.000000 5.000000 
v 4.000000 279.000000 30.000000 
v 4.000000 219.000000 20.000000 
v 4.000000 219.000000 20.000000 
v 10.000000 221.000000 -3.000000 
v 10.000000 281.000000 5.000000 
v 4.000000 219.000000 20.000000 
v -4.000000 279.000000 30.000000 
v -4.000000 219.000000 20.000000 
v -4.000000 279.000000 30.000000 
v 4.000000 219.000000 20.000000 
v 4.000000 279.000000 30.000000 
v -4.000000 219.000000 20.000000 
v -10.000000 281.000000 5.000000 
v -10.000000 221.000000 -3.000000 
v -10.000000 281.000000 5.000000 
v -4.000000 219.000000 20.000000 
v -4.000000 279.000000 30.000000 
v -10.000000 221.000000 -3.000000 
v -4.000000 284.000000 -19.000000 
v -4.000000 223.000000 -27.000000 
v -4.000000 284.000000 -19.000000 
v -10.000000 221.000000 -3.000000 
v -10.000000 281.000000 5.000000 
v -4.000000 223.000000 -27.000000 
v 4.000000 284.000000 -19.000000 
v 4.000000 223.000000 -27.000000 
v 4.000000 284.000000 -19.000000 
v -4.000000 223.000000 -27.000000 
v -4.000000 284.000000 -19.000000 
v 4.000000 284.000000 -19.000000 
v 10.000000 281.000000 5.000000 
v 10.000000 221.000000 -3.000000 
v 10.000000 221.000000 -3.000000 
v 4.000000 223.000000 -27.000000 
v 4.000000 284.000000 -19.000000 
vn 0.000000 -1.000000 0.000000 
vn 0.000000 -1.000000 0.000000 
vn 0.000000 -1.000000 0.000000 
vn 0.000000 -1.000000 0.000000 
vn 0.000000 -1.000000 0.000000 
vn 0.000000 -1.000000 0.000000 
vn 0.000000 -1.000000 0.000000 
vn 0.000000 -1.000000 0.000000 
vn 0.000000 -1.000000 0.000000 
vn 0.000000 -1.000000 0.000000 
vn 0.000000 -1.000000 0.000000 
vn 0.000000 -1.000000 0.000000 
vn 0.000000 -1.000000 0.000000 
vn 0.000000 -1.000000 0.000000 
vn 0.000000 -1.000000 0.000000 
vn 0.000000 -1.000000 0.000000 
vn 0.000000 -1.000000 0.000000 
vn 0.000000 -1.000000 0.000000 
vn 0.995361 -0.081055 -0.049072 
vn 0.359619 -0.027588 0.932617 
vn 0.935791 -0.001709 0.352295 
vn 0.359619 -0.027588 0.932617 
vn 0.185303 0.014893 0.982422 
vn 0.935791 -0.001709 0.352295 
vn 0.359619 -0.027588 0.932617 
vn -0.409912 -0.032227 0.911377 
vn 0.185303 0.014893 0.982422 
vn -0.409912 -0.032227 0.911377 
vn -0.449707 0.034180 0.892334 
vn 0.185303 0.014893 0.982422 
vn -0.409912 -0.032227 0.911377 
vn -0.997314 -0.050537 0.049805 
vn -0.449707 0.034180 0.892334 
vn -0.997314 -0.050537 0.049805 
vn -0.934814 -0.061768 -0.348877 
vn -0.449707 0.034180 0.892334 
vn -0.997314 -0.050537 0.049805 
vn -0.357910 -0.116699 -0.926270 
vn -0.934814 -0.061768 -0.348877 
vn -0.357910 -0.116699 -0.926270 
vn -0.183594 -0.152100 -0.970947 
vn -0.934814 -0.061768 -0.348877 
vn -0.357910 -0.116699 -0.926270 
vn 0.407227 -0.126221 -0.904297 
vn -0.183594 -0.152100 -0.970947 
vn 0.407227 -0.126221 -0.904297 
vn 0.447754 -0.118164 -0.885986 
vn -0.183594 -0.152100 -0.970947 
vn 0.407227 -0.126221 -0.904297 
vn 0.995361 -0.081055 -0.049072 
vn 0.447754 -0.118164 -0.885986 
vn 0.995361 -0.081055 -0.049072 
vn 0.935791 -0.001709 0.352295 
vn 0.447754 -0.118164 -0.885986 
vn 0.962158 -0.059326 -0.265625 
vn 0.562012 -0.087402 0.822266 
vn 0.995361 -0.081055 -0.049072 
vn 0.562012 -0.087402 0.822266 
vn 0.359619 -0.027588 0.932617 
vn 0.995361 -0.081055 -0.049072 
vn 0.562012 -0.087402 0.822266 
vn -0.372559 -0.096436 0.922852 
vn 0.359619 -0.027588 0.932617 
vn -0.372559 -0.096436 0.922852 
vn -0.409912 -0.032227 0.911377 
vn 0.359619 -0.027588 0.932617 
vn -0.372559 -0.096436 0.922852 
vn -0.998047 -0.058105 0.016113 
vn -0.409912 -0.032227 0.911377 
vn -0.998047 -0.058105 0.016113 
vn -0.997314 -0.050537 0.049805 
vn -0.409912 -0.032227 0.911377 
vn -0.998047 -0.058105 0.016113 
vn -0.499268 -0.060791 -0.864014 
vn -0.997314 -0.050537 0.049805 
vn -0.499268 -0.060791 -0.864014 
vn -0.357910 -0.116699 -0.926270 
vn -0.997314 -0.050537 0.049805 
vn -0.499268 -0.060791 -0.864014 
vn 0.281250 -0.052734 -0.958008 
vn -0.357910 -0.116699 -0.926270 
vn 0.281250 -0.052734 -0.958008 
vn 0.407227 -0.126221 -0.904297 
vn -0.357910 -0.116699 -0.926270 
vn 0.281250 -0.052734 -0.958008 
vn 0.962158 -0.059326 -0.265625 
vn 0.407227 -0.126221 -0.904297 
vn 0.962158 -0.059326 -0.265625 
vn 0.995361 -0.081055 -0.049072 
vn 0.407227 -0.126221 -0.904297 
vn 0.999756 -0.010010 0.009521 
vn 0.562012 -0.087402 0.822266 
vn 0.962158 -0.059326 -0.265625 
vn 0.562012 -0.087402 0.822266 
vn 0.999756 -0.010010 0.009521 
vn 0.387695 -0.130127 0.912354 
vn 0.387695 -0.130127 0.912354 
vn -0.372559 -0.096436 0.922852 
vn 0.562012 -0.087402 0.822266 
vn -0.372559 -0.096436 0.922852 
vn 0.387695 -0.130127 0.912354 
vn -0.541504 -0.119873 0.831787 
vn -0.999756 -0.010010 0.009521 
vn -0.998047 -0.058105 0.016113 
vn -0.372559 -0.096436 0.922852 
vn -0.372559 -0.096436 0.922852 
vn -0.541504 -0.119873 0.831787 
vn -0.999756 -0.010010 0.009521 
vn -0.379150 0.058594 -0.923340 
vn -0.499268 -0.060791 -0.864014 
vn -0.998047 -0.058105 0.016113 
vn -0.998047 -0.058105 0.016113 
vn -0.999756 -0.010010 0.009521 
vn -0.379150 0.058594 -0.923340 
vn -0.379150 0.058594 -0.923340 
vn 0.281250 -0.052734 -0.958008 
vn -0.499268 -0.060791 -0.864014 
vn 0.281250 -0.052734 -0.958008 
vn -0.379150 0.058594 -0.923340 
vn 0.529297 0.050781 -0.846680 
vn 0.529297 0.050781 -0.846680 
vn 0.962158 -0.059326 -0.265625 
vn 0.281250 -0.052734 -0.958008 
vn 0.962158 -0.059326 -0.265625 
vn 0.529297 0.050781 -0.846680 
vn 0.999756 -0.010010 0.009521 
vn 0.000000 0.992920 0.117188 
vn 0.000000 0.992920 0.117188 
vn 0.000000 0.992920 0.117188 
vn 0.000000 0.992920 0.117188 
vn 0.000000 0.992920 0.117188 
vn 0.000000 0.992920 0.117188 
vn 0.000000 0.992920 0.117188 
vn 0.000000 0.992920 0.117188 
vn 0.000000 0.992920 0.117188 
vn 0.000000 0.992920 0.117188 
vn 0.000000 0.992920 0.117188 
vn 0.000000 0.992920 0.117188 
vn 0.000000 0.992920 0.117188 
vn 0.000000 0.992920 0.117188 
vn 0.000000 0.992920 0.117188 
vn 0.000000 0.992920 0.117188 
vn 0.000000 0.992920 0.117188 
vn 0.000000 0.992920 0.117188 
vn 0.971436 -0.037842 0.233398 
vn 0.458252 -0.143066 0.876953 
vn 0.387695 -0.130127 0.912354 
vn 0.387695 -0.130127 0.912354 
vn 0.999756 -0.010010 0.009521 
vn 0.971436 -0.037842 0.233398 
vn 0.387695 -0.130127 0.912354 
vn -0.301025 -0.153564 0.940918 
vn -0.541504 -0.119873 0.831787 
vn -0.301025 -0.153564 0.940918 
vn 0.387695 -0.130127 0.912354 
vn 0.458252 -0.143066 0.876953 
vn -0.541504 -0.119873 0.831787 
vn -0.971436 -0.037842 0.233398 
vn -0.999756 -0.010010 0.009521 
vn -0.971436 -0.037842 0.233398 
vn -0.541504 -0.119873 0.831787 
vn -0.301025 -0.153564 0.940918 
vn -0.999756 -0.010010 0.009521 
vn -0.597168 0.109131 -0.794434 
vn -0.379150 0.058594 -0.923340 
vn -0.597168 0.109131 -0.794434 
vn -0.999756 -0.010010 0.009521 
vn -0.971436 -0.037842 0.233398 
vn -0.379150 0.058594 -0.923340 
vn 0.454346 0.120117 -0.882568 
vn 0.529297 0.050781 -0.846680 
vn 0.454346 0.120117 -0.882568 
vn -0.379150 0.058594 -0.923340 
vn -0.597168 0.109131 -0.794434 
vn 0.454346 0.120117 -0.882568 
vn 0.971436 -0.037842 0.233398 
vn 0.999756 -0.010010 0.009521 
vn 0.999756 -0.010010 0.009521 
vn 0.529297 0.050781 -0.846680 
vn 0.454346 0.120117 -0.882568 
vt 0.516129 0.158730 
vt 0.290323 0.126984 
vt 0.516129 0.095238 
vt 0.290323 0.126984 
vt 0.290323 0.079365 
vt 0.516129 0.095238 
vt 0.774194 0.126984 
vt 0.516129 0.158730 
vt 0.516129 0.095238 
vt 0.290323 0.079365 
vt 0.516129 0.047619 
vt 0.516129 0.095238 
vt 0.516129 0.047619 
vt 0.774194 0.079365 
vt 0.516129 0.095238 
vt 0.774194 0.079365 
vt 0.774194 0.126984 
vt 0.516129 0.095238 
vt 0.548387 0.222222 
vt 0.935484 0.222222 
vt 0.612903 -0.015873 
vt 0.935484 0.222222 
vt 0.838710 -0.015873 
vt 0.612903 -0.015873 
vt 0.000000 0.269841 
vt 0.096774 0.269841 
vt 0.000000 0.000000 
vt 0.096774 0.269841 
vt 0.096774 0.000000 
vt 0.000000 0.000000 
vt 0.161290 0.238095 
vt 0.516129 0.222222 
vt 0.258065 -0.015873 
vt 0.516129 0.222222 
vt 0.419355 -0.015873 
vt 0.258065 -0.015873 
vt 0.516129 0.222222 
vt 0.870968 0.222222 
vt 0.419355 -0.015873 
vt 0.870968 0.222222 
vt 0.580645 -0.015873 
vt 0.419355 -0.015873 
vt 0.000000 0.269841 
vt 0.096774 0.269841 
vt 0.000000 -0.015873 
vt 0.096774 0.269841 
vt 0.096774 -0.015873 
vt 0.000000 -0.015873 
vt 0.096774 0.222222 
vt 0.548387 0.222222 
vt 0.387097 -0.015873 
vt 0.548387 0.222222 
vt 0.612903 -0.015873 
vt 0.387097 -0.015873 
vt 0.483871 0.492063 
vt 1.000000 0.507937 
vt 0.548387 0.222222 
vt 1.000000 0.507937 
vt 0.935484 0.222222 
vt 0.548387 0.222222 
vt 0.000000 0.523810 
vt 0.129032 0.523810 
vt 0.000000 0.269841 
vt 0.129032 0.523810 
vt 0.096774 0.269841 
vt 0.000000 0.269841 
vt 0.032258 0.492063 
vt 0.548387 0.492063 
vt 0.161290 0.238095 
vt 0.548387 0.492063 
vt 0.516129 0.222222 
vt 0.161290 0.238095 
vt 0.548387 0.492063 
vt 0.967742 0.492063 
vt 0.516129 0.222222 
vt 0.967742 0.492063 
vt 0.870968 0.222222 
vt 0.516129 0.222222 
vt 0.000000 0.523810 
vt 0.129032 0.523810 
vt 0.000000 0.269841 
vt 0.129032 0.523810 
vt 0.096774 0.269841 
vt 0.000000 0.269841 
vt 0.000000 0.507937 
vt 0.483871 0.492063 
vt 0.096774 0.222222 
vt 0.483871 0.492063 
vt 0.548387 0.222222 
vt 0.096774 0.222222 
vt 0.483871 0.777778 
vt 1.000000 0.507937 
vt 0.483871 0.492063 
vt 1.000000 0.507937 
vt 0.483871 0.777778 
vt 1.000000 0.777778 
vt 0.000000 0.746032 
vt 0.129032 0.523810 
vt 0.000000 0.523810 
vt 0.129032 0.523810 
vt 0.000000 0.746032 
vt 0.129032 0.746032 
vt 0.516129 0.761905 
vt 0.548387 0.492063 
vt 0.032258 0.492063 
vt 0.032258 0.492063 
vt 0.000000 0.746032 
vt 0.516129 0.761905 
vt 0.935484 0.761905 
vt 0.967742 0.492063 
vt 0.548387 0.492063 
vt 0.548387 0.492063 
vt 0.516129 0.761905 
vt 0.935484 0.761905 
vt 0.000000 0.761905 
vt 0.129032 0.523810 
vt 0.000000 0.523810 
vt 0.129032 0.523810 
vt 0.000000 0.761905 
vt 0.129032 0.761905 
vt 0.000000 0.761905 
vt 0.483871 0.492063 
vt 0.000000 0.507937 
vt 0.483871 0.492063 
vt 0.000000 0.761905 
vt 0.483871 0.777778 
vt 0.129032 0.158730 
vt 0.483871 0.222222 
vt 0.483871 0.111111 
vt 0.483871 0.222222 
vt 0.838710 0.158730 
vt 0.483871 0.111111 
vt 0.129032 0.063492 
vt 0.129032 0.158730 
vt 0.483871 0.111111 
vt 0.483871 0.000000 
vt 0.129032 0.063492 
vt 0.483871 0.111111 
vt 0.838710 0.063492 
vt 0.483871 0.000000 
vt 0.483871 0.111111 
vt 0.838710 0.158730 
vt 0.838710 0.063492 
vt 0.483871 0.111111 
vt 0.483871 0.984127 
vt 1.000000 1.000000 
vt 1.000000 0.777778 
vt 1.000000 0.777778 
vt 0.483871 0.777778 
vt 0.483871 0.984127 
vt 0.000000 0.746032 
vt 0.129032 0.952381 
vt 0.129032 0.746032 
vt 0.129032 0.952381 
vt 0.000000 0.746032 
vt 0.000000 0.952381 
vt 0.000000 0.746032 
vt 0.419355 1.000000 
vt 0.516129 0.761905 
vt 0.419355 1.000000 
vt 0.000000 0.746032 
vt 0.000000 1.000000 
vt 0.516129 0.761905 
vt 0.903226 1.000000 
vt 0.935484 0.761905 
vt 0.903226 1.000000 
vt 0.516129 0.761905 
vt 0.419355 1.000000 
vt 0.000000 0.761905 
vt 0.129032 0.984127 
vt 0.129032 0.761905 
vt 0.129032 0.984127 
vt 0.000000 0.761905 
vt 0.000000 0.984127 
vt 0.000000 0.952381 
vt 0.483871 0.984127 
vt 0.483871 0.777778 
vt 0.483871 0.777778 
vt 0.000000 0.761905 
vt 0.000000 0.952381 
f 1/1/1 2/2/2 3/3/3
f 4/4/4 5/5/5 6/6/6
f 7/7/7 8/8/8 9/9/9
f 10/10/10 11/11/11 12/12/12
f 13/13/13 14/14/14 15/15/15
f 16/16/16 17/17/17 18/18/18
f 19/19/19 20/20/20 21/21/21
f 22/22/22 23/23/23 24/24/24
f 25/25/25 26/26/26 27/27/27
f 28/28/28 29/29/29 30/30/30
f 31/31/31 32/32/32 33/33/33
f 34/34/34 35/35/35 36/36/36
f 37/37/37 38/38/38 39/39/39
f 40/40/40 41/41/41 42/42/42
f 43/43/43 44/44/44 45/45/45
f 46/46/46 47/47/47 48/48/48
f 49/49/49 50/50/50 51/51/51
f 52/52/52 53/53/53 54/54/54
f 55/55/55 56/56/56 57/57/57
f 58/58/58 59/59/59 60/60/60
f 61/61/61 62/62/62 63/63/63
f 64/64/64 65/65/65 66/66/66
f 67/67/67 68/68/68 69/69/69
f 70/70/70 71/71/71 72/72/72
f 73/73/73 74/74/74 75/75/75
f 76/76/76 77/77/77 78/78/78
f 79/79/79 80/80/80 81/81/81
f 82/82/82 83/83/83 84/84/84
f 85/85/85 86/86/86 87/87/87
f 88/88/88 89/89/89 90/90/90
f 91/91/91 92/92/92 93/93/93
f 94/94/94 95/95/95 96/96/96
f 97/97/97 98/98/98 99/99/99
f 100/100/100 101/101/101 102/102/102
f 103/103/103 104/104/104 105/105/105
f 106/106/106 107/107/107 108/108/108
f 109/109/109 110/110/110 111/111/111
f 112/112/112 113/113/113 114/114/114
f 115/115/115 116/116/116 117/117/117
f 118/118/118 119/119/119 120/120/120
f 121/121/121 122/122/122 123/123/123
f 124/124/124 125/125/125 126/126/126
f 127/127/127 128/128/128 129/129/129
f 130/130/130 131/131/131 132/132/132
f 133/133/133 134/134/134 135/135/135
f 136/136/136 137/137/137 138/138/138
f 139/139/139 140/140/140 141/141/141
f 142/142/142 143/143/143 144/144/144
f 145/145/145 146/146/146 147/147/147
f 148/148/148 149/149/149 150/150/150
f 151/151/151 152/152/152 153/153/153
f 154/154/154 155/155/155 156/156/156
f 157/157/157 158/158/158 159/159/159
f 160/160/160 161/161/161 162/162/162
f 163/163/163 164/164/164 165/165/165
f 166/166/166 167/167/167 168/168/168
f 169/169/169 170/170/170 171/171/171
f 172/172/172 173/173/173 174/174/174
f 175/175/175 176/176/176 177/177/177
f 178/178/178 179/179/179 180/180/180
