v -9.000000 -3.000000 5.000000 
v -4.000000 0.000000 15.000000 
v -2.000000 6.000000 -6.000000 
v 2.000000 -7.000000 1.000000 
v -9.000000 -3.000000 5.000000 
v -2.000000 6.000000 -6.000000 
v 9.000000 -8.000000 2.000000 
v 2.000000 -7.000000 1.000000 
v -2.000000 6.000000 -6.000000 
v 12.000000 -3.000000 8.000000 
v 9.000000 -8.000000 2.000000 
v -2.000000 6.000000 -6.000000 
v 5.000000 0.000000 15.000000 
v 12.000000 -3.000000 8.000000 
v -2.000000 6.000000 -6.000000 
v -4.000000 0.000000 15.000000 
v 5.000000 0.000000 15.000000 
v -2.000000 6.000000 -6.000000 
v -11.000000 -44.000000 4.000000 
v -3.000000 -46.000000 17.000000 
v -4.000000 0.000000 15.000000 
v -9.000000 -3.000000 5.000000 
v -11.000000 -44.000000 4.000000 
v -4.000000 0.000000 15.000000 
v 1.000000 -43.000000 -1.000000 
v -11.000000 -44.000000 4.000000 
v -9.000000 -3.000000 5.000000 
v 2.000000 -7.000000 1.000000 
v 1.000000 -43.000000 -1.000000 
v -9.000000 -3.000000 5.000000 
v 15.000000 -44.000000 2.000000 
v 1.000000 -43.000000 -1.000000 
v 2.000000 -7.000000 1.000000 
v 9.000000 -8.000000 2.000000 
v 15.000000 -44.000000 2.000000 
v 2.000000 -7.000000 1.000000 
v 20.000000 -46.000000 12.000000 
v 15.000000 -44.000000 2.000000 
v 9.000000 -8.000000 2.000000 
v 12.000000 -3.000000 8.000000 
v 20.000000 -46.000000 12.000000 
v 9.000000 -8.000000 2.000000 
v 10.000000 -47.000000 21.000000 
v 20.000000 -46.000000 12.000000 
v 12.000000 -3.000000 8.000000 
v 5.000000 0.000000 15.000000 
v 10.000000 -47.000000 21.000000 
v 12.000000 -3.000000 8.000000 
v -3.000000 -46.000000 17.000000 
v 10.000000 -47.000000 21.000000 
v 5.000000 0.000000 15.000000 
v -4.000000 0.000000 15.000000 
v -3.000000 -46.000000 17.000000 
v 5.000000 0.000000 15.000000 
v -2.000000 -99.000000 15.000000 
v -12.000000 -93.000000 2.000000 
v 8.000000 -126.000000 -8.000000 
v -12.000000 -93.000000 2.000000 
v 3.000000 -81.000000 -5.000000 
v 8.000000 -126.000000 -8.000000 
v 3.000000 -81.000000 -5.000000 
v 14.000000 -79.000000 -1.000000 
v 8.000000 -126.000000 -8.000000 
v 14.000000 -79.000000 -1.000000 
v 22.000000 -86.000000 10.000000 
v 8.000000 -126.000000 -8.000000 
v 22.000000 -86.000000 10.000000 
v 13.000000 -103.000000 19.000000 
v 8.000000 -126.000000 -8.000000 
v 13.000000 -103.000000 19.000000 
v -2.000000 -99.000000 15.000000 
v 8.000000 -126.000000 -8.000000 
v -3.000000 -46.000000 17.000000 
v -11.000000 -44.000000 4.000000 
v -2.000000 -99.000000 15.000000 
v -11.000000 -44.000000 4.000000 
v -12.000000 -93.000000 2.000000 
v -2.000000 -99.000000 15.000000 
v -11.000000 -44.000000 4.000000 
v 1.000000 -43.000000 -1.000000 
v -12.000000 -93.000000 2.000000 
v 1.000000 -43.000000 -1.000000 
v 3.000000 -81.000000 -5.000000 
v -12.000000 -93.000000 2.000000 
v 1.000000 -43.000000 -1.000000 
v 15.000000 -44.000000 2.000000 
v 3.000000 -81.000000 -5.000000 
v 15.000000 -44.000000 2.000000 
v 14.000000 -79.000000 -1.000000 
v 3.000000 -81.000000 -5.000000 
v 15.000000 -44.000000 2.000000 
v 20.000000 -46.000000 12.000000 
v 14.000000 -79.000000 -1.000000 
v 20.000000 -46.000000 12.000000 
v 22.000000 -86.000000 10.000000 
v 14.000000 -79.000000 -1.000000 
v 20.000000 -46.000000 12.000000 
v 10.000000 -47.000000 21.000000 
v 22.000000 -86.000000 10.000000 
v 10.000000 -47.000000 21.000000 
v 13.000000 -103.000000 19.000000 
v 22.000000 -86.000000 10.000000 
v 10.000000 -47.000000 21.000000 
v -3.000000 -46.000000 17.000000 
v 13.000000 -103.000000 19.000000 
v -3.000000 -46.000000 17.000000 
v -2.000000 -99.000000 15.000000 
v 13.000000 -103.000000 19.000000 
vn -0.784668 0.045654 -0.617920 
vn -0.471436 0.665283 0.578613 
vn 0.200439 0.842529 -0.499756 
vn -0.036865 -0.491943 -0.869629 
vn -0.784668 0.045654 -0.617920 
vn 0.200439 0.842529 -0.499756 
vn 0.618164 -0.057129 -0.783691 
vn -0.036865 -0.491943 -0.869629 
vn 0.200439 0.842529 -0.499756 
vn 0.686768 0.725342 0.044922 
vn 0.618164 -0.057129 -0.783691 
vn 0.200439 0.842529 -0.499756 
vn 0.106201 0.782471 0.613281 
vn 0.686768 0.725342 0.044922 
vn 0.200439 0.842529 -0.499756 
vn -0.471436 0.665283 0.578613 
vn 0.106201 0.782471 0.613281 
vn 0.200439 0.842529 -0.499756 
vn -0.989990 0.084473 0.111328 
vn -0.445557 0.233398 0.864014 
vn -0.471436 0.665283 0.578613 
vn -0.784668 0.045654 -0.617920 
vn -0.989990 0.084473 0.111328 
vn -0.471436 0.665283 0.578613 
vn -0.183838 -0.054932 -0.981201 
vn -0.989990 0.084473 0.111328 
vn -0.784668 0.045654 -0.617920 
vn -0.036865 -0.491943 -0.869629 
vn -0.183838 -0.054932 -0.981201 
vn -0.784668 0.045654 -0.617920 
vn 0.486816 0.027588 -0.872803 
vn -0.183838 -0.054932 -0.981201 
vn -0.036865 -0.491943 -0.869629 
vn 0.618164 -0.057129 -0.783691 
vn 0.486816 0.027588 -0.872803 
vn -0.036865 -0.491943 -0.869629 
vn 0.945557 0.298096 -0.129639 
vn 0.486816 0.027588 -0.872803 
vn 0.618164 -0.057129 -0.783691 
vn 0.686768 0.725342 0.044922 
vn 0.945557 0.298096 -0.129639 
vn 0.618164 -0.057129 -0.783691 
vn 0.310791 0.419434 0.852783 
vn 0.945557 0.298096 -0.129639 
vn 0.686768 0.725342 0.044922 
vn 0.106201 0.782471 0.613281 
vn 0.310791 0.419434 0.852783 
vn 0.686768 0.725342 0.044922 
vn -0.445557 0.233398 0.864014 
vn 0.310791 0.419434 0.852783 
vn 0.106201 0.782471 0.613281 
vn -0.471436 0.665283 0.578613 
vn -0.445557 0.233398 0.864014 
vn 0.106201 0.782471 0.613281 
vn -0.620850 -0.414062 0.665283 
vn -0.723877 -0.360596 -0.587891 
vn 0.192871 -0.821777 -0.535645 
vn -0.723877 -0.360596 -0.587891 
vn 0.001709 -0.036133 -0.999268 
vn 0.192871 -0.821777 -0.535645 
vn 0.001709 -0.036133 -0.999268 
vn 0.666016 -0.019043 -0.745605 
vn 0.192871 -0.821777 -0.535645 
vn 0.666016 -0.019043 -0.745605 
vn 0.978516 -0.153320 0.137451 
vn 0.192871 -0.821777 -0.535645 
vn 0.978516 -0.153320 0.137451 
vn 0.153076 -0.406738 0.900391 
vn 0.192871 -0.821777 -0.535645 
vn 0.153076 -0.406738 0.900391 
vn -0.620850 -0.414062 0.665283 
vn 0.192871 -0.821777 -0.535645 
vn -0.445557 0.233398 0.864014 
vn -0.989990 0.084473 0.111328 
vn -0.620850 -0.414062 0.665283 
vn -0.989990 0.084473 0.111328 
vn -0.723877 -0.360596 -0.587891 
vn -0.620850 -0.414062 0.665283 
vn -0.989990 0.084473 0.111328 
vn -0.183838 -0.054932 -0.981201 
vn -0.723877 -0.360596 -0.587891 
vn -0.183838 -0.054932 -0.981201 
vn 0.001709 -0.036133 -0.999268 
vn -0.723877 -0.360596 -0.587891 
vn -0.183838 -0.054932 -0.981201 
vn 0.486816 0.027588 -0.872803 
vn 0.001709 -0.036133 -0.999268 
vn 0.486816 0.027588 -0.872803 
vn 0.666016 -0.019043 -0.745605 
vn 0.001709 -0.036133 -0.999268 
vn 0.486816 0.027588 -0.872803 
vn 0.945557 0.298096 -0.129639 
vn 0.666016 -0.019043 -0.745605 
vn 0.945557 0.298096 -0.129639 
vn 0.978516 -0.153320 0.137451 
vn 0.666016 -0.019043 -0.745605 
vn 0.945557 0.298096 -0.129639 
vn 0.310791 0.419434 0.852783 
vn 0.978516 -0.153320 0.137451 
vn 0.310791 0.419434 0.852783 
vn 0.153076 -0.406738 0.900391 
vn 0.978516 -0.153320 0.137451 
vn 0.310791 0.419434 0.852783 
vn -0.445557 0.233398 0.864014 
vn 0.153076 -0.406738 0.900391 
vn -0.445557 0.233398 0.864014 
vn -0.620850 -0.414062 0.665283 
vn 0.153076 -0.406738 0.900391 
vt 0.456693 0.771654 
vt 0.606299 0.850394 
vt 0.433071 0.559055 
vt 0.574803 0.566929 
vt 0.456693 0.771654 
vt 0.433071 0.559055 
vt 0.645669 0.480315 
vt 0.574803 0.566929 
vt 0.433071 0.559055 
vt 0.740157 0.535433 
vt 0.645669 0.480315 
vt 0.433071 0.559055 
vt 0.748031 0.755906 
vt 0.740157 0.535433 
vt 0.433071 0.559055 
vt 0.606299 0.850394 
vt 0.748031 0.755906 
vt 0.433071 0.559055 
vt 0.448819 0.795276 
vt 0.700787 0.976378 
vt 0.606299 0.850394 
vt 0.456693 0.771654 
vt 0.448819 0.795276 
vt 0.606299 0.850394 
vt 0.566929 0.645669 
vt 0.448819 0.795276 
vt 0.456693 0.771654 
vt 0.574803 0.566929 
vt 0.566929 0.645669 
vt 0.456693 0.771654 
vt 0.763780 0.456693 
vt 0.566929 0.645669 
vt 0.574803 0.566929 
vt 0.645669 0.480315 
vt 0.763780 0.456693 
vt 0.574803 0.566929 
vt 0.968504 0.519685 
vt 0.763780 0.456693 
vt 0.645669 0.480315 
vt 0.740157 0.535433 
vt 0.968504 0.519685 
vt 0.645669 0.480315 
vt 0.960630 0.771654 
vt 0.968504 0.519685 
vt 0.740157 0.535433 
vt 0.748031 0.755906 
vt 0.960630 0.771654 
vt 0.740157 0.535433 
vt 0.700787 0.976378 
vt 0.960630 0.771654 
vt 0.748031 0.755906 
vt 0.606299 0.850394 
vt 0.700787 0.976378 
vt 0.748031 0.755906 
vt 0.606299 0.850394 
vt 0.456693 0.771654 
vt 0.433071 0.559055 
vt 0.456693 0.771654 
vt 0.574803 0.566929 
vt 0.433071 0.559055 
vt 0.574803 0.566929 
vt 0.645669 0.480315 
vt 0.433071 0.559055 
vt 0.645669 0.480315 
vt 0.740157 0.535433 
vt 0.433071 0.559055 
vt 0.740157 0.535433 
vt 0.748031 0.755906 
vt 0.433071 0.559055 
vt 0.748031 0.755906 
vt 0.606299 0.850394 
vt 0.433071 0.559055 
vt 0.700787 0.976378 
vt 0.448819 0.795276 
vt 0.606299 0.850394 
vt 0.448819 0.795276 
vt 0.456693 0.771654 
vt 0.606299 0.850394 
vt 0.448819 0.795276 
vt 0.566929 0.645669 
vt 0.456693 0.771654 
vt 0.566929 0.645669 
vt 0.574803 0.566929 
vt 0.456693 0.771654 
vt 0.566929 0.645669 
vt 0.763780 0.456693 
vt 0.574803 0.566929 
vt 0.763780 0.456693 
vt 0.645669 0.480315 
vt 0.574803 0.566929 
vt 0.763780 0.456693 
vt 0.968504 0.519685 
vt 0.645669 0.480315 
vt 0.968504 0.519685 
vt 0.740157 0.535433 
vt 0.645669 0.480315 
vt 0.968504 0.519685 
vt 0.960630 0.771654 
vt 0.740157 0.535433 
vt 0.960630 0.771654 
vt 0.748031 0.755906 
vt 0.740157 0.535433 
vt 0.960630 0.771654 
vt 0.700787 0.976378 
vt 0.748031 0.755906 
vt 0.700787 0.976378 
vt 0.606299 0.850394 
vt 0.748031 0.755906 
f 1/1/1 2/2/2 3/3/3
f 4/4/4 5/5/5 6/6/6
f 7/7/7 8/8/8 9/9/9
f 10/10/10 11/11/11 12/12/12
f 13/13/13 14/14/14 15/15/15
f 16/16/16 17/17/17 18/18/18
f 19/19/19 20/20/20 21/21/21
f 22/22/22 23/23/23 24/24/24
f 25/25/25 26/26/26 27/27/27
f 28/28/28 29/29/29 30/30/30
f 31/31/31 32/32/32 33/33/33
f 34/34/34 35/35/35 36/36/36
f 37/37/37 38/38/38 39/39/39
f 40/40/40 41/41/41 42/42/42
f 43/43/43 44/44/44 45/45/45
f 46/46/46 47/47/47 48/48/48
f 49/49/49 50/50/50 51/51/51
f 52/52/52 53/53/53 54/54/54
f 55/55/55 56/56/56 57/57/57
f 58/58/58 59/59/59 60/60/60
f 61/61/61 62/62/62 63/63/63
f 64/64/64 65/65/65 66/66/66
f 67/67/67 68/68/68 69/69/69
f 70/70/70 71/71/71 72/72/72
f 73/73/73 74/74/74 75/75/75
f 76/76/76 77/77/77 78/78/78
f 79/79/79 80/80/80 81/81/81
f 82/82/82 83/83/83 84/84/84
f 85/85/85 86/86/86 87/87/87
f 88/88/88 89/89/89 90/90/90
f 91/91/91 92/92/92 93/93/93
f 94/94/94 95/95/95 96/96/96
f 97/97/97 98/98/98 99/99/99
f 100/100/100 101/101/101 102/102/102
f 103/103/103 104/104/104 105/105/105
f 106/106/106 107/107/107 108/108/108
