v 0.000000 0.000000 -6.000000 
v -3.000000 0.000000 0.000000 
v 0.000000 0.000000 3.000000 
v 0.000000 0.000000 3.000000 
v 3.000000 0.000000 0.000000 
v 0.000000 0.000000 -6.000000 
v 2.000000 3.000000 0.000000 
v 4.000000 -2.000000 3.000000 
v 9.000000 -1.000000 5.000000 
v 9.000000 -1.000000 5.000000 
v 9.000000 2.000000 3.000000 
v 2.000000 3.000000 0.000000 
v 1.000000 0.000000 -12.000000 
v 2.000000 3.000000 -5.000000 
v 4.000000 0.000000 -3.000000 
v 4.000000 0.000000 -3.000000 
v 4.000000 -2.000000 -6.000000 
v 1.000000 0.000000 -12.000000 
v 0.000000 -2.000000 -2.000000 
v 0.000000 1.000000 -8.000000 
v -4.000000 1.000000 -9.000000 
v -4.000000 1.000000 -9.000000 
v -5.000000 -1.000000 -6.000000 
v 0.000000 -2.000000 -2.000000 
vn 0.000000 1.000000 0.000000 
vn 0.000000 1.000000 0.000000 
vn 0.000000 1.000000 0.000000 
vn 0.000000 1.000000 0.000000 
vn 0.000000 1.000000 0.000000 
vn 0.000000 1.000000 0.000000 
vn -0.351318 0.580566 0.734131 
vn -0.351318 0.580566 0.734131 
vn -0.351318 0.580566 0.734131 
vn -0.351318 0.580566 0.734131 
vn -0.351318 0.580566 0.734131 
vn -0.351318 0.580566 0.734131 
vn 0.872070 0.438232 -0.217285 
vn 0.872070 0.438232 -0.217285 
vn 0.872070 0.438232 -0.217285 
vn 0.872070 0.438232 -0.217285 
vn 0.872070 0.438232 -0.217285 
vn 0.872070 0.438232 -0.217285 
vn -0.117188 0.939697 0.321045 
vn -0.117188 0.939697 0.321045 
vn -0.117188 0.939697 0.321045 
vn -0.117188 0.939697 0.321045 
vn -0.117188 0.939697 0.321045 
vn -0.117188 0.939697 0.321045 
vt 0.741935 0.419355 
vt 0.709677 0.516129 
vt 0.741935 0.548387 
vt 0.741935 0.548387 
vt 0.806452 0.516129 
vt 0.741935 0.419355 
vt 0.806452 0.516129 
vt 0.838710 0.548387 
vt 0.870968 0.580645 
vt 0.870968 0.580645 
vt 0.870968 0.548387 
vt 0.806452 0.516129 
vt 0.774194 0.354839 
vt 0.774194 0.451613 
vt 0.806452 0.483871 
vt 0.806452 0.483871 
vt 0.806452 0.451613 
vt 0.774194 0.354839 
vt 0.774194 0.483871 
vt 0.741935 0.419355 
vt 0.677419 0.387097 
vt 0.677419 0.387097 
vt 0.677419 0.451613 
vt 0.774194 0.483871 
f 1/1/1 2/2/2 3/3/3
f 4/4/4 5/5/5 6/6/6
f 7/7/7 8/8/8 9/9/9
f 10/10/10 11/11/11 12/12/12
f 13/13/13 14/14/14 15/15/15
f 16/16/16 17/17/17 18/18/18
f 19/19/19 20/20/20 21/21/21
f 22/22/22 23/23/23 24/24/24
