v 0.000000 -7.000000 0.000000 
v -4.000000 -16.000000 -7.000000 
v -9.000000 -16.000000 0.000000 
v 0.000000 -7.000000 0.000000 
v 4.000000 -16.000000 -7.000000 
v -4.000000 -16.000000 -7.000000 
v 0.000000 -7.000000 0.000000 
v 9.000000 -16.000000 0.000000 
v 4.000000 -16.000000 -7.000000 
v 0.000000 -7.000000 0.000000 
v 4.000000 -16.000000 13.000000 
v 9.000000 -16.000000 0.000000 
v 0.000000 -7.000000 0.000000 
v -4.000000 -16.000000 13.000000 
v 4.000000 -16.000000 13.000000 
v 0.000000 -7.000000 0.000000 
v -9.000000 -16.000000 0.000000 
v -4.000000 -16.000000 13.000000 
v -9.000000 -16.000000 0.000000 
v -3.000000 -44.000000 -12.000000 
v -7.000000 -44.000000 -6.000000 
v -9.000000 -16.000000 0.000000 
v -4.000000 -16.000000 -7.000000 
v -3.000000 -44.000000 -12.000000 
v -4.000000 -16.000000 -7.000000 
v 3.000000 -44.000000 -12.000000 
v -3.000000 -44.000000 -12.000000 
v -4.000000 -16.000000 -7.000000 
v 4.000000 -16.000000 -7.000000 
v 3.000000 -44.000000 -12.000000 
v 4.000000 -16.000000 -7.000000 
v 7.000000 -44.000000 -6.000000 
v 3.000000 -44.000000 -12.000000 
v 4.000000 -16.000000 -7.000000 
v 9.000000 -16.000000 0.000000 
v 7.000000 -44.000000 -6.000000 
v 9.000000 -16.000000 0.000000 
v 3.000000 -44.000000 0.000000 
v 7.000000 -44.000000 -6.000000 
v 9.000000 -16.000000 0.000000 
v 4.000000 -16.000000 13.000000 
v 3.000000 -44.000000 0.000000 
v 4.000000 -16.000000 13.000000 
v -3.000000 -44.000000 0.000000 
v 3.000000 -44.000000 0.000000 
v 4.000000 -16.000000 13.000000 
v -4.000000 -16.000000 13.000000 
v -3.000000 -44.000000 0.000000 
v -4.000000 -16.000000 13.000000 
v -7.000000 -44.000000 -6.000000 
v -3.000000 -44.000000 0.000000 
v -4.000000 -16.000000 13.000000 
v -9.000000 -16.000000 0.000000 
v -7.000000 -44.000000 -6.000000 
v 0.000000 -49.000000 -6.000000 
v -7.000000 -44.000000 -6.000000 
v -3.000000 -44.000000 -12.000000 
v 0.000000 -49.000000 -6.000000 
v -3.000000 -44.000000 -12.000000 
v 3.000000 -44.000000 -12.000000 
v 0.000000 -49.000000 -6.000000 
v 3.000000 -44.000000 -12.000000 
v 7.000000 -44.000000 -6.000000 
v 0.000000 -49.000000 -6.000000 
v 7.000000 -44.000000 -6.000000 
v 3.000000 -44.000000 0.000000 
v 0.000000 -49.000000 -6.000000 
v 3.000000 -44.000000 0.000000 
v -3.000000 -44.000000 0.000000 
v 0.000000 -49.000000 -6.000000 
v -3.000000 -44.000000 0.000000 
v -7.000000 -44.000000 -6.000000 
vn 0.000000 0.998535 -0.052246 
vn -0.157471 0.948975 -0.272949 
vn -0.314941 0.948242 -0.038330 
vn 0.000000 0.998535 -0.052246 
vn 0.157471 0.948975 -0.272949 
vn -0.157471 0.948975 -0.272949 
vn 0.000000 0.998535 -0.052246 
vn 0.314941 0.948242 -0.038330 
vn 0.157471 0.948975 -0.272949 
vn 0.000000 0.998535 -0.052246 
vn 0.158936 0.974121 0.160400 
vn 0.314941 0.948242 -0.038330 
vn 0.000000 0.998535 -0.052246 
vn -0.158936 0.974121 0.160400 
vn 0.158936 0.974121 0.160400 
vn 0.000000 0.998535 -0.052246 
vn -0.314941 0.948242 -0.038330 
vn -0.158936 0.974121 0.160400 
vn -0.965820 0.000977 -0.258545 
vn -0.639404 0.317627 -0.699951 
vn -0.943848 -0.321533 0.072510 
vn -0.965820 0.000977 -0.258545 
vn -0.319580 0.426270 -0.845947 
vn -0.639404 0.317627 -0.699951 
vn -0.319580 0.426270 -0.845947 
vn 0.319580 0.426025 -0.846191 
vn -0.639404 0.317627 -0.699951 
vn -0.319580 0.426270 -0.845947 
vn 0.639404 0.317383 -0.699951 
vn 0.319580 0.426025 -0.846191 
vn 0.639404 0.317383 -0.699951 
vn 0.976562 -0.033447 -0.212158 
vn 0.319580 0.426025 -0.846191 
vn 0.639404 0.317383 -0.699951 
vn 0.951904 -0.292725 0.087891 
vn 0.976562 -0.033447 -0.212158 
vn 0.951904 -0.292725 0.087891 
vn 0.591797 -0.653564 0.471436 
vn 0.976562 -0.033447 -0.212158 
vn 0.951904 -0.292725 0.087891 
vn 0.309326 -0.797852 0.517090 
vn 0.591797 -0.653564 0.471436 
vn 0.309326 -0.797852 0.517090 
vn -0.236572 -0.812988 0.531738 
vn 0.591797 -0.653564 0.471436 
vn 0.309326 -0.797852 0.517090 
vn -0.574463 -0.678955 0.457031 
vn -0.236572 -0.812988 0.531738 
vn -0.574463 -0.678955 0.457031 
vn -0.943848 -0.321533 0.072510 
vn -0.236572 -0.812988 0.531738 
vn -0.574463 -0.678955 0.457031 
vn -0.965820 0.000977 -0.258545 
vn -0.943848 -0.321533 0.072510 
vn -0.000488 -0.999756 0.000000 
vn -0.228027 -0.973389 0.000000 
vn -0.114014 -0.973633 -0.197021 
vn -0.000488 -0.999756 0.000000 
vn -0.114014 -0.973633 -0.197021 
vn 0.113037 -0.973877 -0.196533 
vn -0.000488 -0.999756 0.000000 
vn 0.113037 -0.973877 -0.196533 
vn 0.226318 -0.973877 0.000000 
vn -0.000488 -0.999756 0.000000 
vn 0.226318 -0.973877 0.000000 
vn 0.113037 -0.973877 0.196533 
vn -0.000488 -0.999756 0.000000 
vn 0.113037 -0.973877 0.196533 
vn -0.114014 -0.973633 0.197021 
vn -0.000488 -0.999756 0.000000 
vn -0.114014 -0.973633 0.197021 
vn -0.228027 -0.973389 0.000000 
vt 0.483871 0.483871 
vt 0.741935 0.774194 
vt 0.838710 0.516129 
vt 0.483871 0.483871 
vt 0.225806 0.774194 
vt 0.741935 0.774194 
vt 0.483871 0.483871 
vt 0.129032 0.548387 
vt 0.225806 0.774194 
vt 0.483871 0.483871 
vt 0.290323 0.387097 
vt 0.129032 0.548387 
vt 0.483871 0.483871 
vt 0.741935 0.387097 
vt 0.290323 0.387097 
vt 0.483871 0.483871 
vt 0.838710 0.516129 
vt 0.741935 0.387097 
vt 0.838710 0.516129 
vt 0.677419 1.000000 
vt 0.774194 0.774194 
vt 0.838710 0.516129 
vt 0.741935 0.774194 
vt 0.677419 1.000000 
vt 0.741935 0.774194 
vt 0.290323 1.000000 
vt 0.677419 1.000000 
vt 0.741935 0.774194 
vt 0.225806 0.774194 
vt 0.290323 1.000000 
vt 0.225806 0.774194 
vt 0.064516 0.741935 
vt 0.290323 1.000000 
vt 0.225806 0.774194 
vt 0.129032 0.548387 
vt 0.064516 0.741935 
vt 0.129032 0.548387 
vt 0.290323 0.483871 
vt 0.064516 0.741935 
vt 0.129032 0.548387 
vt 0.290323 0.387097 
vt 0.290323 0.483871 
vt 0.290323 0.387097 
vt 0.677419 0.483871 
vt 0.290323 0.483871 
vt 0.290323 0.387097 
vt 0.741935 0.387097 
vt 0.677419 0.483871 
vt 0.741935 0.387097 
vt 0.774194 0.774194 
vt 0.677419 0.483871 
vt 0.741935 0.387097 
vt 0.838710 0.516129 
vt 0.774194 0.774194 
vt 0.483871 0.741935 
vt 0.774194 0.774194 
vt 0.677419 1.000000 
vt 0.483871 0.741935 
vt 0.677419 1.000000 
vt 0.290323 1.000000 
vt 0.483871 0.741935 
vt 0.290323 1.000000 
vt 0.064516 0.741935 
vt 0.483871 0.741935 
vt 0.064516 0.741935 
vt 0.290323 0.483871 
vt 0.483871 0.741935 
vt 0.290323 0.483871 
vt 0.677419 0.483871 
vt 0.483871 0.741935 
vt 0.677419 0.483871 
vt 0.774194 0.774194 
f 1/1/1 2/2/2 3/3/3
f 4/4/4 5/5/5 6/6/6
f 7/7/7 8/8/8 9/9/9
f 10/10/10 11/11/11 12/12/12
f 13/13/13 14/14/14 15/15/15
f 16/16/16 17/17/17 18/18/18
f 19/19/19 20/20/20 21/21/21
f 22/22/22 23/23/23 24/24/24
f 25/25/25 26/26/26 27/27/27
f 28/28/28 29/29/29 30/30/30
f 31/31/31 32/32/32 33/33/33
f 34/34/34 35/35/35 36/36/36
f 37/37/37 38/38/38 39/39/39
f 40/40/40 41/41/41 42/42/42
f 43/43/43 44/44/44 45/45/45
f 46/46/46 47/47/47 48/48/48
f 49/49/49 50/50/50 51/51/51
f 52/52/52 53/53/53 54/54/54
f 55/55/55 56/56/56 57/57/57
f 58/58/58 59/59/59 60/60/60
f 61/61/61 62/62/62 63/63/63
f 64/64/64 65/65/65 66/66/66
f 67/67/67 68/68/68 69/69/69
f 70/70/70 71/71/71 72/72/72
