v 0.000000 -5.000000 4.000000 
v 0.000000 -10.000000 -5.000000 
v -6.000000 -10.000000 3.000000 
v 0.000000 -5.000000 4.000000 
v 8.000000 -10.000000 -2.000000 
v 0.000000 -10.000000 -5.000000 
v 0.000000 -5.000000 4.000000 
v 9.000000 -10.000000 8.000000 
v 8.000000 -10.000000 -2.000000 
v 0.000000 -5.000000 4.000000 
v 0.000000 -10.000000 14.000000 
v 9.000000 -10.000000 8.000000 
v 0.000000 -5.000000 4.000000 
v -6.000000 -10.000000 3.000000 
v 0.000000 -10.000000 14.000000 
v -6.000000 -10.000000 3.000000 
v 5.000000 -41.000000 -7.000000 
v -2.000000 -43.000000 2.000000 
v -6.000000 -10.000000 3.000000 
v 0.000000 -10.000000 -5.000000 
v 5.000000 -41.000000 -7.000000 
v 0.000000 -10.000000 -5.000000 
v 11.000000 -36.000000 -5.000000 
v 5.000000 -41.000000 -7.000000 
v 0.000000 -10.000000 -5.000000 
v 8.000000 -10.000000 -2.000000 
v 11.000000 -36.000000 -5.000000 
v 8.000000 -10.000000 -2.000000 
v 11.000000 -34.000000 7.000000 
v 11.000000 -36.000000 -5.000000 
v 8.000000 -10.000000 -2.000000 
v 9.000000 -10.000000 8.000000 
v 11.000000 -34.000000 7.000000 
v 9.000000 -10.000000 8.000000 
v 2.000000 -40.000000 11.000000 
v 11.000000 -34.000000 7.000000 
v 9.000000 -10.000000 8.000000 
v 0.000000 -10.000000 14.000000 
v 2.000000 -40.000000 11.000000 
v 0.000000 -10.000000 14.000000 
v -2.000000 -43.000000 2.000000 
v 2.000000 -40.000000 11.000000 
v 0.000000 -10.000000 14.000000 
v -6.000000 -10.000000 3.000000 
v -2.000000 -43.000000 2.000000 
vn -0.072510 0.996338 -0.042236 
vn -0.161377 0.465576 -0.869873 
vn -0.923340 0.304199 -0.233154 
vn -0.072510 0.996338 -0.042236 
vn 0.745605 0.548584 -0.377686 
vn -0.161377 0.465576 -0.869873 
vn -0.072510 0.996338 -0.042236 
vn 0.689209 0.469238 0.551758 
vn 0.745605 0.548584 -0.377686 
vn -0.072510 0.996338 -0.042236 
vn -0.469482 0.383545 0.795166 
vn 0.689209 0.469238 0.551758 
vn -0.072510 0.996338 -0.042236 
vn -0.923340 0.304199 -0.233154 
vn -0.469482 0.383545 0.795166 
vn -0.923340 0.304199 -0.233154 
vn -0.519043 0.000488 -0.854492 
vn -0.977539 -0.131836 0.163086 
vn -0.923340 0.304199 -0.233154 
vn -0.161377 0.465576 -0.869873 
vn -0.519043 0.000488 -0.854492 
vn -0.161377 0.465576 -0.869873 
vn 0.614990 0.164795 -0.770752 
vn -0.519043 0.000488 -0.854492 
vn -0.161377 0.465576 -0.869873 
vn 0.745605 0.548584 -0.377686 
vn 0.614990 0.164795 -0.770752 
vn 0.745605 0.548584 -0.377686 
vn 0.938232 0.081787 0.335693 
vn 0.614990 0.164795 -0.770752 
vn 0.745605 0.548584 -0.377686 
vn 0.689209 0.469238 0.551758 
vn 0.938232 0.081787 0.335693 
vn 0.689209 0.469238 0.551758 
vn 0.052246 -0.085449 0.994873 
vn 0.938232 0.081787 0.335693 
vn 0.689209 0.469238 0.551758 
vn -0.469482 0.383545 0.795166 
vn 0.052246 -0.085449 0.994873 
vn -0.469482 0.383545 0.795166 
vn -0.977539 -0.131836 0.163086 
vn 0.052246 -0.085449 0.994873 
vn -0.469482 0.383545 0.795166 
vn -0.923340 0.304199 -0.233154 
vn -0.977539 -0.131836 0.163086 
vt 0.533333 0.400000 
vt 0.400000 0.733333 
vt 0.866667 0.333333 
vt 0.533333 0.400000 
vt 0.200000 0.666667 
vt 0.400000 0.733333 
vt 0.533333 0.400000 
vt 0.266667 0.333333 
vt 0.200000 0.666667 
vt 0.533333 0.400000 
vt 0.666667 0.200000 
vt 0.266667 0.333333 
vt 0.533333 0.400000 
vt 0.866667 0.333333 
vt 0.666667 0.200000 
vt 0.866667 0.333333 
vt 0.466667 0.933333 
vt 0.800000 0.800000 
vt 0.866667 0.333333 
vt 0.400000 0.733333 
vt 0.466667 0.933333 
vt 0.400000 0.733333 
vt 0.000000 0.733333 
vt 0.466667 0.933333 
vt 0.400000 0.733333 
vt 0.200000 0.666667 
vt 0.000000 0.733333 
vt 0.200000 0.666667 
vt 0.066667 0.133333 
vt 0.000000 0.733333 
vt 0.200000 0.666667 
vt 0.266667 0.333333 
vt 0.066667 0.133333 
vt 0.266667 0.333333 
vt 0.333333 0.066667 
vt 0.066667 0.133333 
vt 0.266667 0.333333 
vt 0.666667 0.200000 
vt 0.333333 0.066667 
vt 0.666667 0.200000 
vt 0.800000 0.800000 
vt 0.333333 0.066667 
vt 0.666667 0.200000 
vt 0.866667 0.333333 
vt 0.800000 0.800000 
f 1/1/1 2/2/2 3/3/3
f 4/4/4 5/5/5 6/6/6
f 7/7/7 8/8/8 9/9/9
f 10/10/10 11/11/11 12/12/12
f 13/13/13 14/14/14 15/15/15
f 16/16/16 17/17/17 18/18/18
f 19/19/19 20/20/20 21/21/21
f 22/22/22 23/23/23 24/24/24
f 25/25/25 26/26/26 27/27/27
f 28/28/28 29/29/29 30/30/30
f 31/31/31 32/32/32 33/33/33
f 34/34/34 35/35/35 36/36/36
f 37/37/37 38/38/38 39/39/39
f 40/40/40 41/41/41 42/42/42
f 43/43/43 44/44/44 45/45/45
