v -8.000000 -10.000000 2.000000 
v -13.000000 -10.000000 2.000000 
v -17.000000 -10.000000 -24.000000 
v -17.000000 -10.000000 -24.000000 
v -9.000000 -10.000000 -23.000000 
v -8.000000 -10.000000 2.000000 
v 4.000000 -10.000000 2.000000 
v -8.000000 -10.000000 2.000000 
v -9.000000 -10.000000 -23.000000 
v -9.000000 -10.000000 -23.000000 
v 9.000000 -10.000000 -20.000000 
v 4.000000 -10.000000 2.000000 
v 9.000000 -10.000000 2.000000 
v 4.000000 -10.000000 2.000000 
v 9.000000 -10.000000 -20.000000 
v 9.000000 -10.000000 -20.000000 
v 17.000000 -10.000000 -21.000000 
v 9.000000 -10.000000 2.000000 
v -9.000000 -10.000000 22.000000 
v -11.000000 -10.000000 19.000000 
v -13.000000 -10.000000 2.000000 
v -13.000000 -10.000000 2.000000 
v -8.000000 -10.000000 2.000000 
v -9.000000 -10.000000 22.000000 
v 4.000000 -10.000000 22.000000 
v -9.000000 -10.000000 22.000000 
v -8.000000 -10.000000 2.000000 
v -8.000000 -10.000000 2.000000 
v 4.000000 -10.000000 2.000000 
v 4.000000 -10.000000 22.000000 
v 7.000000 -10.000000 19.000000 
v 4.000000 -10.000000 22.000000 
v 4.000000 -10.000000 2.000000 
v 4.000000 -10.000000 2.000000 
v 9.000000 -10.000000 2.000000 
v 7.000000 -10.000000 19.000000 
v -5.000000 10.000000 7.000000 
v -8.000000 2.000000 -20.000000 
v -16.000000 0.000000 -21.000000 
v -16.000000 0.000000 -21.000000 
v -13.000000 -3.000000 2.000000 
v -5.000000 10.000000 7.000000 
v 0.000000 10.000000 7.000000 
v 10.000000 2.000000 -18.000000 
v -8.000000 2.000000 -20.000000 
v -8.000000 2.000000 -20.000000 
v -5.000000 10.000000 7.000000 
v 0.000000 10.000000 7.000000 
v 10.000000 -3.000000 2.000000 
v 18.000000 0.000000 -20.000000 
v 10.000000 2.000000 -18.000000 
v 10.000000 2.000000 -18.000000 
v 0.000000 10.000000 7.000000 
v 10.000000 -3.000000 2.000000 
v -4.000000 8.000000 16.000000 
v -5.000000 10.000000 7.000000 
v -13.000000 -3.000000 2.000000 
v -13.000000 -3.000000 2.000000 
v -12.000000 -2.000000 20.000000 
v -4.000000 8.000000 16.000000 
v 0.000000 8.000000 16.000000 
v 0.000000 10.000000 7.000000 
v -5.000000 10.000000 7.000000 
v -5.000000 10.000000 7.000000 
v -4.000000 8.000000 16.000000 
v 0.000000 8.000000 16.000000 
v 8.000000 -2.000000 20.000000 
v 10.000000 -3.000000 2.000000 
v 0.000000 10.000000 7.000000 
v 0.000000 10.000000 7.000000 
v 0.000000 8.000000 16.000000 
v 8.000000 -2.000000 20.000000 
v 12.000000 -6.000000 2.000000 
v 9.000000 -10.000000 2.000000 
v 17.000000 -10.000000 -21.000000 
v 17.000000 -10.000000 -21.000000 
v 18.000000 -7.000000 -21.000000 
v 12.000000 -6.000000 2.000000 
v 8.000000 -2.000000 20.000000 
v 7.000000 -10.000000 19.000000 
v 9.000000 -10.000000 2.000000 
v 9.000000 -10.000000 2.000000 
v 12.000000 -6.000000 2.000000 
v 8.000000 -2.000000 20.000000 
v 10.000000 -3.000000 2.000000 
v 12.000000 -6.000000 2.000000 
v 18.000000 -7.000000 -21.000000 
v 18.000000 -7.000000 -21.000000 
v 18.000000 0.000000 -20.000000 
v 10.000000 -3.000000 2.000000 
v 12.000000 -6.000000 2.000000 
v 10.000000 -3.000000 2.000000 
v 8.000000 -2.000000 20.000000 
v 5.000000 -3.000000 24.000000 
v 4.000000 -10.000000 22.000000 
v 7.000000 -10.000000 19.000000 
v 7.000000 -10.000000 19.000000 
v 8.000000 -2.000000 20.000000 
v 5.000000 -3.000000 24.000000 
v -9.000000 -3.000000 24.000000 
v -9.000000 -10.000000 22.000000 
v 4.000000 -10.000000 22.000000 
v 4.000000 -10.000000 22.000000 
v 5.000000 -3.000000 24.000000 
v -9.000000 -3.000000 24.000000 
v -12.000000 -2.000000 20.000000 
v -11.000000 -10.000000 19.000000 
v -9.000000 -10.000000 22.000000 
v -9.000000 -10.000000 22.000000 
v -9.000000 -3.000000 24.000000 
v -12.000000 -2.000000 20.000000 
v 0.000000 8.000000 16.000000 
v 5.000000 -3.000000 24.000000 
v 8.000000 -2.000000 20.000000 
v -4.000000 8.000000 16.000000 
v -9.000000 -3.000000 24.000000 
v 5.000000 -3.000000 24.000000 
v 5.000000 -3.000000 24.000000 
v 0.000000 8.000000 16.000000 
v -4.000000 8.000000 16.000000 
v -9.000000 -3.000000 24.000000 
v -4.000000 8.000000 16.000000 
v -12.000000 -2.000000 20.000000 
v -15.000000 -5.000000 2.000000 
v -13.000000 -10.000000 2.000000 
v -11.000000 -10.000000 19.000000 
v -11.000000 -10.000000 19.000000 
v -12.000000 -2.000000 20.000000 
v -15.000000 -5.000000 2.000000 
v -18.000000 -6.000000 -22.000000 
v -17.000000 -10.000000 -24.000000 
v -13.000000 -10.000000 2.000000 
v -13.000000 -10.000000 2.000000 
v -15.000000 -5.000000 2.000000 
v -18.000000 -6.000000 -22.000000 
v -13.000000 -3.000000 2.000000 
v -15.000000 -5.000000 2.000000 
v -12.000000 -2.000000 20.000000 
v -16.000000 0.000000 -21.000000 
v -18.000000 -6.000000 -22.000000 
v -15.000000 -5.000000 2.000000 
v -15.000000 -5.000000 2.000000 
v -13.000000 -3.000000 2.000000 
v -16.000000 0.000000 -21.000000 
v 18.000000 -7.000000 -21.000000 
v 17.000000 -10.000000 -21.000000 
v 9.000000 -10.000000 -20.000000 
v 18.000000 0.000000 -20.000000 
v 18.000000 -7.000000 -21.000000 
v 9.000000 -10.000000 -20.000000 
v 10.000000 2.000000 -18.000000 
v 18.000000 0.000000 -20.000000 
v 9.000000 -10.000000 -20.000000 
v -8.000000 2.000000 -20.000000 
v 10.000000 2.000000 -18.000000 
v 9.000000 -10.000000 -20.000000 
v -9.000000 -10.000000 -23.000000 
v -8.000000 2.000000 -20.000000 
v 9.000000 -10.000000 -20.000000 
v -16.000000 0.000000 -21.000000 
v -8.000000 2.000000 -20.000000 
v -9.000000 -10.000000 -23.000000 
v -18.000000 -6.000000 -22.000000 
v -16.000000 0.000000 -21.000000 
v -9.000000 -10.000000 -23.000000 
v -17.000000 -10.000000 -24.000000 
v -18.000000 -6.000000 -22.000000 
v -9.000000 -10.000000 -23.000000 
vn -0.012207 -0.999756 0.000000 
vn -0.597168 -0.799805 0.058105 
vn -0.353271 -0.862061 -0.362793 
vn -0.353271 -0.862061 -0.362793 
vn 0.110352 -0.490967 -0.864014 
vn -0.012207 -0.999756 0.000000 
vn -0.012207 -0.999756 0.000000 
vn -0.012207 -0.999756 0.000000 
vn 0.110352 -0.490967 -0.864014 
vn 0.110352 -0.490967 -0.864014 
vn -0.022949 -0.435059 -0.899902 
vn -0.012207 -0.999756 0.000000 
vn 0.573242 -0.810547 0.118896 
vn -0.012207 -0.999756 0.000000 
vn -0.022949 -0.435059 -0.899902 
vn -0.022949 -0.435059 -0.899902 
vn 0.733887 -0.639160 -0.229492 
vn 0.573242 -0.810547 0.118896 
vn -0.395020 -0.797363 0.455811 
vn -0.848145 -0.464355 0.254395 
vn -0.597168 -0.799805 0.058105 
vn -0.597168 -0.799805 0.058105 
vn -0.012207 -0.999756 0.000000 
vn -0.395020 -0.797363 0.455811 
vn 0.169678 -0.809082 0.562256 
vn -0.395020 -0.797363 0.455811 
vn -0.012207 -0.999756 0.000000 
vn -0.012207 -0.999756 0.000000 
vn -0.012207 -0.999756 0.000000 
vn 0.169678 -0.809082 0.562256 
vn 0.700684 -0.643799 0.307129 
vn 0.169678 -0.809082 0.562256 
vn -0.012207 -0.999756 0.000000 
vn -0.012207 -0.999756 0.000000 
vn 0.573242 -0.810547 0.118896 
vn 0.700684 -0.643799 0.307129 
vn -0.429688 0.901611 0.044678 
vn 0.050049 0.631592 -0.773438 
vn -0.688721 0.555908 -0.464600 
vn -0.688721 0.555908 -0.464600 
vn -0.890381 0.444824 0.093750 
vn -0.429688 0.901611 0.044678 
vn 0.546875 0.836914 -0.016602 
vn 0.410889 0.708984 -0.572998 
vn 0.050049 0.631592 -0.773438 
vn 0.050049 0.631592 -0.773438 
vn -0.429688 0.901611 0.044678 
vn 0.546875 0.836914 -0.016602 
vn 0.901367 0.405273 0.150879 
vn 0.563721 0.480713 -0.671387 
vn 0.410889 0.708984 -0.572998 
vn 0.410889 0.708984 -0.572998 
vn 0.546875 0.836914 -0.016602 
vn 0.901367 0.405273 0.150879 
vn -0.517334 0.653320 0.552246 
vn -0.429688 0.901611 0.044678 
vn -0.890381 0.444824 0.093750 
vn -0.890381 0.444824 0.093750 
vn -0.927734 0.207275 0.310059 
vn -0.517334 0.653320 0.552246 
vn 0.343994 0.791992 0.503906 
vn 0.546875 0.836914 -0.016602 
vn -0.429688 0.901611 0.044678 
vn -0.429688 0.901611 0.044678 
vn -0.517334 0.653320 0.552246 
vn 0.343994 0.791992 0.503906 
vn 0.949463 0.181396 0.255371 
vn 0.901367 0.405273 0.150879 
vn 0.546875 0.836914 -0.016602 
vn 0.546875 0.836914 -0.016602 
vn 0.343994 0.791992 0.503906 
vn 0.949463 0.181396 0.255371 
vn 0.978271 -0.072998 0.193848 
vn 0.573242 -0.810547 0.118896 
vn 0.733887 -0.639160 -0.229492 
vn 0.733887 -0.639160 -0.229492 
vn 0.887695 0.102295 -0.448242 
vn 0.978271 -0.072998 0.193848 
vn 0.949463 0.181396 0.255371 
vn 0.700684 -0.643799 0.307129 
vn 0.573242 -0.810547 0.118896 
vn 0.573242 -0.810547 0.118896 
vn 0.978271 -0.072998 0.193848 
vn 0.949463 0.181396 0.255371 
vn 0.901367 0.405273 0.150879 
vn 0.978271 -0.072998 0.193848 
vn 0.887695 0.102295 -0.448242 
vn 0.887695 0.102295 -0.448242 
vn 0.563721 0.480713 -0.671387 
vn 0.901367 0.405273 0.150879 
vn 0.978271 -0.072998 0.193848 
vn 0.901367 0.405273 0.150879 
vn 0.949463 0.181396 0.255371 
vn 0.462402 0.200684 0.863525 
vn 0.169678 -0.809082 0.562256 
vn 0.700684 -0.643799 0.307129 
vn 0.700684 -0.643799 0.307129 
vn 0.949463 0.181396 0.255371 
vn 0.462402 0.200684 0.863525 
vn -0.381348 0.094971 0.919434 
vn -0.395020 -0.797363 0.455811 
vn 0.169678 -0.809082 0.562256 
vn 0.169678 -0.809082 0.562256 
vn 0.462402 0.200684 0.863525 
vn -0.381348 0.094971 0.919434 
vn -0.927734 0.207275 0.310059 
vn -0.848145 -0.464355 0.254395 
vn -0.395020 -0.797363 0.455811 
vn -0.395020 -0.797363 0.455811 
vn -0.381348 0.094971 0.919434 
vn -0.927734 0.207275 0.310059 
vn 0.343994 0.791992 0.503906 
vn 0.462402 0.200684 0.863525 
vn 0.949463 0.181396 0.255371 
vn -0.517334 0.653320 0.552246 
vn -0.381348 0.094971 0.919434 
vn 0.462402 0.200684 0.863525 
vn 0.462402 0.200684 0.863525 
vn 0.343994 0.791992 0.503906 
vn -0.517334 0.653320 0.552246 
vn -0.381348 0.094971 0.919434 
vn -0.517334 0.653320 0.552246 
vn -0.927734 0.207275 0.310059 
vn -0.987549 0.114990 0.106689 
vn -0.597168 -0.799805 0.058105 
vn -0.848145 -0.464355 0.254395 
vn -0.848145 -0.464355 0.254395 
vn -0.927734 0.207275 0.310059 
vn -0.987549 0.114990 0.106689 
vn -0.857178 0.039551 -0.513428 
vn -0.353271 -0.862061 -0.362793 
vn -0.597168 -0.799805 0.058105 
vn -0.597168 -0.799805 0.058105 
vn -0.987549 0.114990 0.106689 
vn -0.857178 0.039551 -0.513428 
vn -0.890381 0.444824 0.093750 
vn -0.987549 0.114990 0.106689 
vn -0.927734 0.207275 0.310059 
vn -0.688721 0.555908 -0.464600 
vn -0.857178 0.039551 -0.513428 
vn -0.987549 0.114990 0.106689 
vn -0.987549 0.114990 0.106689 
vn -0.890381 0.444824 0.093750 
vn -0.688721 0.555908 -0.464600 
vn 0.887695 0.102295 -0.448242 
vn 0.733887 -0.639160 -0.229492 
vn -0.022949 -0.435059 -0.899902 
vn 0.563721 0.480713 -0.671387 
vn 0.887695 0.102295 -0.448242 
vn -0.022949 -0.435059 -0.899902 
vn 0.410889 0.708984 -0.572998 
vn 0.563721 0.480713 -0.671387 
vn -0.022949 -0.435059 -0.899902 
vn 0.050049 0.631592 -0.773438 
vn 0.410889 0.708984 -0.572998 
vn -0.022949 -0.435059 -0.899902 
vn 0.110352 -0.490967 -0.864014 
vn 0.050049 0.631592 -0.773438 
vn -0.022949 -0.435059 -0.899902 
vn -0.688721 0.555908 -0.464600 
vn 0.050049 0.631592 -0.773438 
vn 0.110352 -0.490967 -0.864014 
vn -0.857178 0.039551 -0.513428 
vn -0.688721 0.555908 -0.464600 
vn 0.110352 -0.490967 -0.864014 
vn -0.353271 -0.862061 -0.362793 
vn -0.857178 0.039551 -0.513428 
vn 0.110352 -0.490967 -0.864014 
vt 0.365079 0.222222 
vt 0.428571 0.222222 
vt 0.476190 0.492063 
vt 0.476190 0.492063 
vt 0.380952 0.492063 
vt 0.365079 0.222222 
vt 0.190476 0.222222 
vt 0.365079 0.222222 
vt 0.380952 0.492063 
vt 0.380952 0.492063 
vt 0.126984 0.460317 
vt 0.190476 0.222222 
vt 0.111111 0.222222 
vt 0.190476 0.222222 
vt 0.126984 0.460317 
vt 0.126984 0.460317 
vt 0.015873 0.476190 
vt 0.111111 0.222222 
vt 0.365079 0.015873 
vt 0.396825 0.047619 
vt 0.428571 0.222222 
vt 0.428571 0.222222 
vt 0.365079 0.222222 
vt 0.365079 0.015873 
vt 0.174603 0.015873 
vt 0.365079 0.015873 
vt 0.365079 0.222222 
vt 0.365079 0.222222 
vt 0.190476 0.222222 
vt 0.174603 0.015873 
vt 0.142857 0.047619 
vt 0.174603 0.015873 
vt 0.190476 0.222222 
vt 0.190476 0.222222 
vt 0.111111 0.222222 
vt 0.142857 0.047619 
vt 0.317460 0.158730 
vt 0.365079 0.460317 
vt 0.476190 0.476190 
vt 0.476190 0.476190 
vt 0.428571 0.222222 
vt 0.317460 0.158730 
vt 0.238095 0.158730 
vt 0.095238 0.444444 
vt 0.365079 0.460317 
vt 0.365079 0.460317 
vt 0.317460 0.158730 
vt 0.238095 0.158730 
vt 0.095238 0.222222 
vt 0.000000 0.460317 
vt 0.095238 0.444444 
vt 0.095238 0.444444 
vt 0.238095 0.158730 
vt 0.095238 0.222222 
vt 0.317460 0.079365 
vt 0.317460 0.158730 
vt 0.428571 0.222222 
vt 0.428571 0.222222 
vt 0.412698 0.031746 
vt 0.317460 0.079365 
vt 0.238095 0.079365 
vt 0.238095 0.158730 
vt 0.317460 0.158730 
vt 0.317460 0.158730 
vt 0.317460 0.079365 
vt 0.238095 0.079365 
vt 0.111111 0.031746 
vt 0.095238 0.222222 
vt 0.238095 0.158730 
vt 0.238095 0.158730 
vt 0.238095 0.079365 
vt 0.111111 0.031746 
vt 0.079365 0.222222 
vt 0.111111 0.222222 
vt 0.015873 0.476190 
vt 0.015873 0.476190 
vt 0.000000 0.460317 
vt 0.079365 0.222222 
vt 0.111111 0.031746 
vt 0.142857 0.047619 
vt 0.111111 0.222222 
vt 0.111111 0.222222 
vt 0.079365 0.222222 
vt 0.111111 0.031746 
vt 0.095238 0.222222 
vt 0.079365 0.222222 
vt 0.000000 0.460317 
vt 0.000000 0.460317 
vt 0.000000 0.460317 
vt 0.095238 0.222222 
vt 0.079365 0.222222 
vt 0.095238 0.222222 
vt 0.111111 0.031746 
vt 0.158730 0.000000 
vt 0.174603 0.015873 
vt 0.142857 0.047619 
vt 0.142857 0.047619 
vt 0.111111 0.031746 
vt 0.158730 0.000000 
vt 0.365079 -0.015873 
vt 0.365079 0.015873 
vt 0.174603 0.015873 
vt 0.174603 0.015873 
vt 0.158730 0.000000 
vt 0.365079 -0.015873 
vt 0.412698 0.031746 
vt 0.396825 0.047619 
vt 0.365079 0.015873 
vt 0.365079 0.015873 
vt 0.365079 -0.015873 
vt 0.412698 0.031746 
vt 0.238095 0.079365 
vt 0.158730 0.000000 
vt 0.111111 0.031746 
vt 0.317460 0.079365 
vt 0.365079 -0.015873 
vt 0.158730 0.000000 
vt 0.158730 0.000000 
vt 0.238095 0.079365 
vt 0.317460 0.079365 
vt 0.365079 -0.015873 
vt 0.317460 0.079365 
vt 0.412698 0.031746 
vt 0.460317 0.222222 
vt 0.428571 0.222222 
vt 0.396825 0.047619 
vt 0.396825 0.047619 
vt 0.412698 0.031746 
vt 0.460317 0.222222 
vt 0.507937 0.476190 
vt 0.476190 0.492063 
vt 0.428571 0.222222 
vt 0.428571 0.222222 
vt 0.460317 0.222222 
vt 0.507937 0.476190 
vt 0.428571 0.222222 
vt 0.460317 0.222222 
vt 0.412698 0.031746 
vt 0.476190 0.476190 
vt 0.507937 0.476190 
vt 0.460317 0.222222 
vt 0.460317 0.222222 
vt 0.428571 0.222222 
vt 0.476190 0.476190 
vt 0.000000 0.460317 
vt 0.015873 0.476190 
vt 0.126984 0.460317 
vt 0.000000 0.460317 
vt 0.000000 0.460317 
vt 0.126984 0.460317 
vt 0.095238 0.444444 
vt 0.000000 0.460317 
vt 0.126984 0.460317 
vt 0.365079 0.460317 
vt 0.095238 0.444444 
vt 0.126984 0.460317 
vt 0.380952 0.492063 
vt 0.365079 0.460317 
vt 0.126984 0.460317 
vt 0.476190 0.476190 
vt 0.365079 0.460317 
vt 0.380952 0.492063 
vt 0.507937 0.476190 
vt 0.476190 0.476190 
vt 0.380952 0.492063 
vt 0.476190 0.492063 
vt 0.507937 0.476190 
vt 0.380952 0.492063 
f 1/1/1 2/2/2 3/3/3
f 4/4/4 5/5/5 6/6/6
f 7/7/7 8/8/8 9/9/9
f 10/10/10 11/11/11 12/12/12
f 13/13/13 14/14/14 15/15/15
f 16/16/16 17/17/17 18/18/18
f 19/19/19 20/20/20 21/21/21
f 22/22/22 23/23/23 24/24/24
f 25/25/25 26/26/26 27/27/27
f 28/28/28 29/29/29 30/30/30
f 31/31/31 32/32/32 33/33/33
f 34/34/34 35/35/35 36/36/36
f 37/37/37 38/38/38 39/39/39
f 40/40/40 41/41/41 42/42/42
f 43/43/43 44/44/44 45/45/45
f 46/46/46 47/47/47 48/48/48
f 49/49/49 50/50/50 51/51/51
f 52/52/52 53/53/53 54/54/54
f 55/55/55 56/56/56 57/57/57
f 58/58/58 59/59/59 60/60/60
f 61/61/61 62/62/62 63/63/63
f 64/64/64 65/65/65 66/66/66
f 67/67/67 68/68/68 69/69/69
f 70/70/70 71/71/71 72/72/72
f 73/73/73 74/74/74 75/75/75
f 76/76/76 77/77/77 78/78/78
f 79/79/79 80/80/80 81/81/81
f 82/82/82 83/83/83 84/84/84
f 85/85/85 86/86/86 87/87/87
f 88/88/88 89/89/89 90/90/90
f 91/91/91 92/92/92 93/93/93
f 94/94/94 95/95/95 96/96/96
f 97/97/97 98/98/98 99/99/99
f 100/100/100 101/101/101 102/102/102
f 103/103/103 104/104/104 105/105/105
f 106/106/106 107/107/107 108/108/108
f 109/109/109 110/110/110 111/111/111
f 112/112/112 113/113/113 114/114/114
f 115/115/115 116/116/116 117/117/117
f 118/118/118 119/119/119 120/120/120
f 121/121/121 122/122/122 123/123/123
f 124/124/124 125/125/125 126/126/126
f 127/127/127 128/128/128 129/129/129
f 130/130/130 131/131/131 132/132/132
f 133/133/133 134/134/134 135/135/135
f 136/136/136 137/137/137 138/138/138
f 139/139/139 140/140/140 141/141/141
f 142/142/142 143/143/143 144/144/144
f 145/145/145 146/146/146 147/147/147
f 148/148/148 149/149/149 150/150/150
f 151/151/151 152/152/152 153/153/153
f 154/154/154 155/155/155 156/156/156
f 157/157/157 158/158/158 159/159/159
f 160/160/160 161/161/161 162/162/162
f 163/163/163 164/164/164 165/165/165
f 166/166/166 167/167/167 168/168/168
