v 14.000000 -6.000000 8.000000 
v 10.000000 -4.000000 -8.000000 
v 24.000000 -1.000000 2.000000 
v 24.000000 -1.000000 2.000000 
v 14.000000 7.000000 -5.000000 
v 15.000000 9.000000 9.000000 
v 14.000000 7.000000 -5.000000 
v 1.000000 9.000000 -3.000000 
v 1.000000 7.000000 11.000000 
v 1.000000 7.000000 11.000000 
v 15.000000 9.000000 9.000000 
v 14.000000 7.000000 -5.000000 
v 24.000000 -1.000000 2.000000 
v 10.000000 -4.000000 -8.000000 
v 10.000000 2.000000 -10.000000 
v -5.000000 -8.000000 -12.000000 
v -6.000000 -4.000000 -8.000000 
v -9.000000 -1.000000 -13.000000 
v -9.000000 -1.000000 -13.000000 
v -7.000000 -4.000000 -15.000000 
v -5.000000 -8.000000 -12.000000 
v 24.000000 -1.000000 2.000000 
v 10.000000 2.000000 -10.000000 
v 14.000000 7.000000 -5.000000 
v 10.000000 2.000000 -10.000000 
v 3.000000 2.000000 -7.000000 
v 1.000000 9.000000 -3.000000 
v 1.000000 9.000000 -3.000000 
v 14.000000 7.000000 -5.000000 
v 10.000000 2.000000 -10.000000 
v -2.000000 -8.000000 -1.000000 
v -2.000000 -9.000000 13.000000 
v -8.000000 -6.000000 13.000000 
v -8.000000 -6.000000 13.000000 
v -9.000000 -6.000000 0.000000 
v -2.000000 -8.000000 -1.000000 
v 24.000000 -1.000000 2.000000 
v 14.000000 -1.000000 14.000000 
v 14.000000 -6.000000 8.000000 
v 1.000000 1.000000 15.000000 
v 14.000000 -1.000000 14.000000 
v 15.000000 9.000000 9.000000 
v 15.000000 9.000000 9.000000 
v 1.000000 7.000000 11.000000 
v 1.000000 1.000000 15.000000 
v 24.000000 -1.000000 2.000000 
v 15.000000 9.000000 9.000000 
v 14.000000 -1.000000 14.000000 
v 1.000000 7.000000 11.000000 
v 1.000000 9.000000 -3.000000 
v -10.000000 5.000000 0.000000 
v -10.000000 5.000000 0.000000 
v -10.000000 5.000000 12.000000 
v 1.000000 7.000000 11.000000 
v 1.000000 9.000000 -3.000000 
v 3.000000 2.000000 -7.000000 
v -3.000000 0.000000 -2.000000 
v -3.000000 0.000000 -2.000000 
v -10.000000 5.000000 0.000000 
v 1.000000 9.000000 -3.000000 
v 3.000000 2.000000 -7.000000 
v 1.000000 1.000000 15.000000 
v -4.000000 0.000000 15.000000 
v -4.000000 0.000000 15.000000 
v -3.000000 0.000000 -2.000000 
v 3.000000 2.000000 -7.000000 
v 1.000000 1.000000 15.000000 
v 1.000000 7.000000 11.000000 
v -10.000000 5.000000 12.000000 
v -10.000000 5.000000 12.000000 
v -4.000000 0.000000 15.000000 
v 1.000000 1.000000 15.000000 
v -3.000000 0.000000 -2.000000 
v -4.000000 0.000000 15.000000 
v -2.000000 -9.000000 13.000000 
v -2.000000 -9.000000 13.000000 
v -2.000000 -8.000000 -1.000000 
v -3.000000 0.000000 -2.000000 
v -4.000000 0.000000 15.000000 
v -10.000000 5.000000 12.000000 
v -8.000000 -6.000000 13.000000 
v -8.000000 -6.000000 13.000000 
v -2.000000 -9.000000 13.000000 
v -4.000000 0.000000 15.000000 
v -10.000000 5.000000 12.000000 
v -10.000000 5.000000 0.000000 
v -9.000000 -6.000000 0.000000 
v -9.000000 -6.000000 0.000000 
v -8.000000 -6.000000 13.000000 
v -10.000000 5.000000 12.000000 
v -10.000000 5.000000 0.000000 
v -3.000000 0.000000 -2.000000 
v -2.000000 -8.000000 -1.000000 
v -2.000000 -8.000000 -1.000000 
v -9.000000 -6.000000 0.000000 
v -10.000000 5.000000 0.000000 
v 10.000000 -4.000000 -8.000000 
v 5.000000 -3.000000 -6.000000 
v -3.000000 -3.000000 -9.000000 
v -3.000000 -3.000000 -9.000000 
v 2.000000 -5.000000 -12.000000 
v 10.000000 -4.000000 -8.000000 
v 10.000000 2.000000 -10.000000 
v 10.000000 -4.000000 -8.000000 
v 2.000000 -5.000000 -12.000000 
v 2.000000 -5.000000 -12.000000 
v 0.000000 0.000000 -14.000000 
v 10.000000 2.000000 -10.000000 
v 5.000000 -3.000000 -6.000000 
v 3.000000 2.000000 -7.000000 
v -3.000000 0.000000 -12.000000 
v -3.000000 0.000000 -12.000000 
v -3.000000 -3.000000 -9.000000 
v 5.000000 -3.000000 -6.000000 
v 3.000000 2.000000 -7.000000 
v 10.000000 2.000000 -10.000000 
v 0.000000 0.000000 -14.000000 
v 0.000000 0.000000 -14.000000 
v -3.000000 0.000000 -12.000000 
v 3.000000 2.000000 -7.000000 
v 2.000000 -5.000000 -12.000000 
v -3.000000 -3.000000 -9.000000 
v -6.000000 -4.000000 -8.000000 
v -6.000000 -4.000000 -8.000000 
v -5.000000 -8.000000 -12.000000 
v 2.000000 -5.000000 -12.000000 
v -3.000000 -3.000000 -9.000000 
v -3.000000 0.000000 -12.000000 
v -9.000000 -1.000000 -13.000000 
v -9.000000 -1.000000 -13.000000 
v -6.000000 -4.000000 -8.000000 
v -3.000000 -3.000000 -9.000000 
v -3.000000 0.000000 -12.000000 
v 0.000000 0.000000 -14.000000 
v -7.000000 -4.000000 -15.000000 
v -7.000000 -4.000000 -15.000000 
v -9.000000 -1.000000 -13.000000 
v -3.000000 0.000000 -12.000000 
v 0.000000 0.000000 -14.000000 
v 2.000000 -5.000000 -12.000000 
v -5.000000 -8.000000 -12.000000 
v -5.000000 -8.000000 -12.000000 
v -7.000000 -4.000000 -15.000000 
v 0.000000 0.000000 -14.000000 
v 14.000000 -1.000000 14.000000 
v 1.000000 1.000000 15.000000 
v 14.000000 -6.000000 8.000000 
v 10.000000 -4.000000 -8.000000 
v 14.000000 -6.000000 8.000000 
v 1.000000 1.000000 15.000000 
v 10.000000 -4.000000 -8.000000 
v 1.000000 1.000000 15.000000 
v 5.000000 -3.000000 -6.000000 
v 5.000000 -3.000000 -6.000000 
v 1.000000 1.000000 15.000000 
v 3.000000 2.000000 -7.000000 
v -19.000000 -4.000000 -11.000000 
v -20.000000 -4.000000 -3.000000 
v -24.000000 1.000000 -5.000000 
v -24.000000 1.000000 -5.000000 
v -24.000000 1.000000 -10.000000 
v -19.000000 -4.000000 -11.000000 
v 4.000000 7.000000 0.000000 
v 7.000000 7.000000 -4.000000 
v -12.000000 7.000000 -9.000000 
v -12.000000 7.000000 -9.000000 
v -12.000000 7.000000 -4.000000 
v 4.000000 7.000000 0.000000 
v 7.000000 7.000000 -4.000000 
v 6.000000 1.000000 -5.000000 
v -11.000000 0.000000 -11.000000 
v -11.000000 0.000000 -11.000000 
v -12.000000 7.000000 -9.000000 
v 7.000000 7.000000 -4.000000 
v 6.000000 1.000000 -5.000000 
v 4.000000 2.000000 0.000000 
v -12.000000 1.000000 -2.000000 
v -12.000000 1.000000 -2.000000 
v -11.000000 0.000000 -11.000000 
v 6.000000 1.000000 -5.000000 
v 4.000000 2.000000 0.000000 
v 4.000000 7.000000 0.000000 
v -12.000000 7.000000 -4.000000 
v -12.000000 7.000000 -4.000000 
v -12.000000 1.000000 -2.000000 
v 4.000000 2.000000 0.000000 
v -11.000000 0.000000 -11.000000 
v -12.000000 1.000000 -2.000000 
v -20.000000 -4.000000 -3.000000 
v -20.000000 -4.000000 -3.000000 
v -19.000000 -4.000000 -11.000000 
v -11.000000 0.000000 -11.000000 
v -12.000000 1.000000 -2.000000 
v -12.000000 7.000000 -4.000000 
v -24.000000 1.000000 -5.000000 
v -24.000000 1.000000 -5.000000 
v -20.000000 -4.000000 -3.000000 
v -12.000000 1.000000 -2.000000 
v -12.000000 7.000000 -4.000000 
v -12.000000 7.000000 -9.000000 
v -24.000000 1.000000 -10.000000 
v -24.000000 1.000000 -10.000000 
v -24.000000 1.000000 -5.000000 
v -12.000000 7.000000 -4.000000 
v -12.000000 7.000000 -9.000000 
v -11.000000 0.000000 -11.000000 
v -19.000000 -4.000000 -11.000000 
v -19.000000 -4.000000 -11.000000 
v -24.000000 1.000000 -10.000000 
v -12.000000 7.000000 -9.000000 
vn 0.130371 -0.944824 0.299805 
vn 0.108398 -0.980469 -0.163086 
vn 0.970459 -0.187256 -0.151123 
vn 0.970459 -0.187256 -0.151123 
vn 0.349121 0.861328 -0.368652 
vn 0.405518 0.731445 0.547607 
vn 0.349121 0.861328 -0.368652 
vn -0.306152 0.680420 -0.665527 
vn -0.102539 0.939209 0.327393 
vn -0.102539 0.939209 0.327393 
vn 0.405518 0.731445 0.547607 
vn 0.349121 0.861328 -0.368652 
vn 0.970459 -0.187256 -0.151123 
vn 0.108398 -0.980469 -0.163086 
vn 0.317871 0.246826 -0.915283 
vn -0.311768 -0.886230 -0.342285 
vn -0.137939 -0.239502 0.960938 
vn -0.900391 0.348633 0.259277 
vn -0.900391 0.348633 0.259277 
vn -0.309082 0.092285 -0.946289 
vn -0.311768 -0.886230 -0.342285 
vn 0.970459 -0.187256 -0.151123 
vn 0.317871 0.246826 -0.915283 
vn 0.349121 0.861328 -0.368652 
vn 0.317871 0.246826 -0.915283 
vn -0.778076 0.043213 -0.626465 
vn -0.306152 0.680420 -0.665527 
vn -0.306152 0.680420 -0.665527 
vn 0.349121 0.861328 -0.368652 
vn 0.317871 0.246826 -0.915283 
vn -0.048340 -0.696289 -0.716064 
vn 0.731201 -0.459473 0.503662 
vn -0.601318 -0.606445 0.519775 
vn -0.601318 -0.606445 0.519775 
vn -0.845947 -0.436523 -0.305664 
vn -0.048340 -0.696289 -0.716064 
vn 0.970459 -0.187256 -0.151123 
vn 0.471680 -0.245361 0.846680 
vn 0.130371 -0.944824 0.299805 
vn -0.297119 -0.428955 0.852783 
vn 0.471680 -0.245361 0.846680 
vn 0.405518 0.731445 0.547607 
vn 0.405518 0.731445 0.547607 
vn -0.102539 0.939209 0.327393 
vn -0.297119 -0.428955 0.852783 
vn 0.970459 -0.187256 -0.151123 
vn 0.405518 0.731445 0.547607 
vn 0.471680 -0.245361 0.846680 
vn -0.102539 0.939209 0.327393 
vn -0.306152 0.680420 -0.665527 
vn -0.541992 0.423096 -0.725586 
vn -0.541992 0.423096 -0.725586 
vn -0.671143 0.364502 0.645264 
vn -0.102539 0.939209 0.327393 
vn -0.306152 0.680420 -0.665527 
vn -0.778076 0.043213 -0.626465 
vn 0.439697 -0.210449 -0.872803 
vn 0.439697 -0.210449 -0.872803 
vn -0.541992 0.423096 -0.725586 
vn -0.306152 0.680420 -0.665527 
vn -0.778076 0.043213 -0.626465 
vn -0.297119 -0.428955 0.852783 
vn 0.259766 -0.503174 0.823975 
vn 0.259766 -0.503174 0.823975 
vn 0.439697 -0.210449 -0.872803 
vn -0.778076 0.043213 -0.626465 
vn -0.297119 -0.428955 0.852783 
vn -0.102539 0.939209 0.327393 
vn -0.671143 0.364502 0.645264 
vn -0.671143 0.364502 0.645264 
vn 0.259766 -0.503174 0.823975 
vn -0.297119 -0.428955 0.852783 
vn 0.439697 -0.210449 -0.872803 
vn 0.259766 -0.503174 0.823975 
vn 0.731201 -0.459473 0.503662 
vn 0.731201 -0.459473 0.503662 
vn -0.048340 -0.696289 -0.716064 
vn 0.439697 -0.210449 -0.872803 
vn 0.259766 -0.503174 0.823975 
vn -0.671143 0.364502 0.645264 
vn -0.601318 -0.606445 0.519775 
vn -0.601318 -0.606445 0.519775 
vn 0.731201 -0.459473 0.503662 
vn 0.259766 -0.503174 0.823975 
vn -0.671143 0.364502 0.645264 
vn -0.541992 0.423096 -0.725586 
vn -0.845947 -0.436523 -0.305664 
vn -0.845947 -0.436523 -0.305664 
vn -0.601318 -0.606445 0.519775 
vn -0.671143 0.364502 0.645264 
vn -0.541992 0.423096 -0.725586 
vn 0.439697 -0.210449 -0.872803 
vn -0.048340 -0.696289 -0.716064 
vn -0.048340 -0.696289 -0.716064 
vn -0.845947 -0.436523 -0.305664 
vn -0.541992 0.423096 -0.725586 
vn 0.108398 -0.980469 -0.163086 
vn -0.624756 -0.532715 0.570557 
vn -0.160645 -0.065186 0.984619 
vn -0.160645 -0.065186 0.984619 
vn 0.497070 -0.846436 -0.190186 
vn 0.108398 -0.980469 -0.163086 
vn 0.317871 0.246826 -0.915283 
vn 0.108398 -0.980469 -0.163086 
vn 0.497070 -0.846436 -0.190186 
vn 0.497070 -0.846436 -0.190186 
vn 0.134277 0.335449 -0.932373 
vn 0.317871 0.246826 -0.915283 
vn -0.624756 -0.532715 0.570557 
vn -0.778076 0.043213 -0.626465 
vn -0.419189 0.894531 0.153809 
vn -0.419189 0.894531 0.153809 
vn -0.160645 -0.065186 0.984619 
vn -0.624756 -0.532715 0.570557 
vn -0.778076 0.043213 -0.626465 
vn 0.317871 0.246826 -0.915283 
vn 0.134277 0.335449 -0.932373 
vn 0.134277 0.335449 -0.932373 
vn -0.419189 0.894531 0.153809 
vn -0.778076 0.043213 -0.626465 
vn 0.497070 -0.846436 -0.190186 
vn -0.160645 -0.065186 0.984619 
vn -0.137939 -0.239502 0.960938 
vn -0.137939 -0.239502 0.960938 
vn -0.311768 -0.886230 -0.342285 
vn 0.497070 -0.846436 -0.190186 
vn -0.160645 -0.065186 0.984619 
vn -0.419189 0.894531 0.153809 
vn -0.900391 0.348633 0.259277 
vn -0.900391 0.348633 0.259277 
vn -0.137939 -0.239502 0.960938 
vn -0.160645 -0.065186 0.984619 
vn -0.419189 0.894531 0.153809 
vn 0.134277 0.335449 -0.932373 
vn -0.309082 0.092285 -0.946289 
vn -0.309082 0.092285 -0.946289 
vn -0.900391 0.348633 0.259277 
vn -0.419189 0.894531 0.153809 
vn 0.134277 0.335449 -0.932373 
vn 0.497070 -0.846436 -0.190186 
vn -0.311768 -0.886230 -0.342285 
vn -0.311768 -0.886230 -0.342285 
vn -0.309082 0.092285 -0.946289 
vn 0.134277 0.335449 -0.932373 
vn 0.471680 -0.245361 0.846680 
vn -0.297119 -0.428955 0.852783 
vn 0.130371 -0.944824 0.299805 
vn 0.108398 -0.980469 -0.163086 
vn 0.130371 -0.944824 0.299805 
vn -0.297119 -0.428955 0.852783 
vn 0.108398 -0.980469 -0.163086 
vn -0.297119 -0.428955 0.852783 
vn -0.624756 -0.532715 0.570557 
vn -0.624756 -0.532715 0.570557 
vn -0.297119 -0.428955 0.852783 
vn -0.778076 0.043213 -0.626465 
vn -0.423096 -0.557373 -0.714111 
vn -0.016357 -0.893066 0.449219 
vn -0.829590 0.014160 0.557861 
vn -0.829590 0.014160 0.557861 
vn -0.712402 0.551758 -0.433105 
vn -0.423096 -0.557373 -0.714111 
vn -0.079834 0.903076 0.421387 
vn 0.212891 0.619629 -0.755371 
vn -0.063232 0.784424 -0.616699 
vn -0.063232 0.784424 -0.616699 
vn -0.337646 0.712158 0.614990 
vn -0.079834 0.903076 0.421387 
vn 0.212891 0.619629 -0.755371 
vn 0.190186 -0.913818 -0.358154 
vn 0.429199 -0.543945 -0.720703 
vn 0.429199 -0.543945 -0.720703 
vn -0.063232 0.784424 -0.616699 
vn 0.212891 0.619629 -0.755371 
vn 0.190186 -0.913818 -0.358154 
vn -0.133789 -0.317383 0.938721 
vn -0.006592 -0.559082 0.828857 
vn -0.006592 -0.559082 0.828857 
vn 0.429199 -0.543945 -0.720703 
vn 0.190186 -0.913818 -0.358154 
vn -0.133789 -0.317383 0.938721 
vn -0.079834 0.903076 0.421387 
vn -0.337646 0.712158 0.614990 
vn -0.337646 0.712158 0.614990 
vn -0.006592 -0.559082 0.828857 
vn -0.133789 -0.317383 0.938721 
vn 0.429199 -0.543945 -0.720703 
vn -0.006592 -0.559082 0.828857 
vn -0.016357 -0.893066 0.449219 
vn -0.016357 -0.893066 0.449219 
vn -0.423096 -0.557373 -0.714111 
vn 0.429199 -0.543945 -0.720703 
vn -0.006592 -0.559082 0.828857 
vn -0.337646 0.712158 0.614990 
vn -0.829590 0.014160 0.557861 
vn -0.829590 0.014160 0.557861 
vn -0.016357 -0.893066 0.449219 
vn -0.006592 -0.559082 0.828857 
vn -0.337646 0.712158 0.614990 
vn -0.063232 0.784424 -0.616699 
vn -0.712402 0.551758 -0.433105 
vn -0.712402 0.551758 -0.433105 
vn -0.829590 0.014160 0.557861 
vn -0.337646 0.712158 0.614990 
vn -0.063232 0.784424 -0.616699 
vn 0.429199 -0.543945 -0.720703 
vn -0.423096 -0.557373 -0.714111 
vn -0.423096 -0.557373 -0.714111 
vn -0.712402 0.551758 -0.433105 
vn -0.063232 0.784424 -0.616699 
vt 0.619048 0.603175 
vt 0.888889 0.571429 
vt 0.714286 0.507937 
vt 0.714286 0.507937 
vt 0.857143 0.539683 
vt 0.603175 0.587302 
vt 0.857143 0.539683 
vt 0.809524 0.746032 
vt 0.587302 0.730159 
vt 0.587302 0.730159 
vt 0.603175 0.587302 
vt 0.857143 0.539683 
vt 0.714286 0.507937 
vt 0.888889 0.571429 
vt 0.920635 0.571429 
vt 0.968254 0.746032 
vt 0.920635 0.809524 
vt 0.968254 0.809524 
vt 0.968254 0.809524 
vt 1.000000 0.777778 
vt 0.968254 0.746032 
vt 0.714286 0.507937 
vt 0.920635 0.571429 
vt 0.857143 0.539683 
vt 0.920635 0.571429 
vt 0.857143 0.714286 
vt 0.809524 0.746032 
vt 0.809524 0.746032 
vt 0.857143 0.539683 
vt 0.920635 0.571429 
vt 0.761905 0.809524 
vt 0.555556 0.777778 
vt 0.587302 0.746032 
vt 0.587302 0.746032 
vt 0.873016 0.793651 
vt 0.761905 0.809524 
vt 0.714286 0.507937 
vt 0.539683 0.603175 
vt 0.619048 0.603175 
vt 0.523810 0.730159 
vt 0.539683 0.603175 
vt 0.603175 0.587302 
vt 0.603175 0.587302 
vt 0.587302 0.730159 
vt 0.523810 0.730159 
vt 0.714286 0.507937 
vt 0.603175 0.587302 
vt 0.539683 0.603175 
vt 0.587302 0.730159 
vt 0.809524 0.746032 
vt 0.873016 0.920635 
vt 0.873016 0.920635 
vt 0.571429 0.857143 
vt 0.587302 0.730159 
vt 0.809524 0.746032 
vt 0.857143 0.714286 
vt 0.777778 0.825397 
vt 0.777778 0.825397 
vt 0.873016 0.920635 
vt 0.809524 0.746032 
vt 0.857143 0.714286 
vt 0.523810 0.730159 
vt 0.539683 0.793651 
vt 0.539683 0.793651 
vt 0.777778 0.825397 
vt 0.857143 0.714286 
vt 0.523810 0.730159 
vt 0.587302 0.730159 
vt 0.571429 0.857143 
vt 0.571429 0.857143 
vt 0.539683 0.793651 
vt 0.523810 0.730159 
vt 0.777778 0.825397 
vt 0.539683 0.793651 
vt 0.555556 0.777778 
vt 0.555556 0.777778 
vt 0.761905 0.809524 
vt 0.777778 0.825397 
vt 0.539683 0.793651 
vt 0.571429 0.857143 
vt 0.587302 0.746032 
vt 0.587302 0.746032 
vt 0.555556 0.777778 
vt 0.539683 0.793651 
vt 0.571429 0.857143 
vt 0.873016 0.920635 
vt 0.873016 0.793651 
vt 0.873016 0.793651 
vt 0.587302 0.746032 
vt 0.571429 0.857143 
vt 0.873016 0.920635 
vt 0.777778 0.825397 
vt 0.761905 0.809524 
vt 0.761905 0.809524 
vt 0.873016 0.793651 
vt 0.873016 0.920635 
vt 0.888889 0.571429 
vt 0.857143 0.698413 
vt 0.888889 0.730159 
vt 0.888889 0.730159 
vt 0.936508 0.666667 
vt 0.888889 0.571429 
vt 0.920635 0.571429 
vt 0.888889 0.571429 
vt 0.936508 0.666667 
vt 0.936508 0.666667 
vt 0.984127 0.682540 
vt 0.920635 0.571429 
vt 0.857143 0.698413 
vt 0.857143 0.714286 
vt 0.952381 0.746032 
vt 0.952381 0.746032 
vt 0.888889 0.730159 
vt 0.857143 0.698413 
vt 0.857143 0.714286 
vt 0.920635 0.571429 
vt 0.984127 0.682540 
vt 0.984127 0.682540 
vt 0.952381 0.746032 
vt 0.857143 0.714286 
vt 0.936508 0.666667 
vt 0.888889 0.730159 
vt 0.920635 0.809524 
vt 0.920635 0.809524 
vt 0.968254 0.746032 
vt 0.936508 0.666667 
vt 0.888889 0.730159 
vt 0.952381 0.746032 
vt 0.968254 0.809524 
vt 0.968254 0.809524 
vt 0.920635 0.809524 
vt 0.888889 0.730159 
vt 0.952381 0.746032 
vt 0.984127 0.682540 
vt 1.000000 0.777778 
vt 1.000000 0.777778 
vt 0.968254 0.809524 
vt 0.952381 0.746032 
vt 0.984127 0.682540 
vt 0.936508 0.666667 
vt 0.968254 0.746032 
vt 0.968254 0.746032 
vt 1.000000 0.777778 
vt 0.984127 0.682540 
vt 0.539683 0.603175 
vt 0.523810 0.730159 
vt 0.619048 0.603175 
vt 0.888889 0.571429 
vt 0.619048 0.603175 
vt 0.523810 0.730159 
vt 0.888889 0.571429 
vt 0.523810 0.730159 
vt 0.857143 0.698413 
vt 0.857143 0.698413 
vt 0.523810 0.730159 
vt 0.857143 0.714286 
vt 0.904762 0.936508 
vt 0.793651 0.952381 
vt 0.809524 0.984127 
vt 0.809524 0.984127 
vt 0.888889 0.984127 
vt 0.904762 0.936508 
vt 0.761905 0.761905 
vt 0.857143 0.698413 
vt 0.841270 0.873016 
vt 0.841270 0.873016 
vt 0.809524 0.873016 
vt 0.761905 0.761905 
vt 0.857143 0.698413 
vt 0.857143 0.698413 
vt 0.873016 0.873016 
vt 0.873016 0.873016 
vt 0.841270 0.873016 
vt 0.857143 0.698413 
vt 0.857143 0.698413 
vt 0.761905 0.761905 
vt 0.793651 0.873016 
vt 0.793651 0.873016 
vt 0.873016 0.873016 
vt 0.857143 0.698413 
vt 0.761905 0.761905 
vt 0.761905 0.761905 
vt 0.809524 0.873016 
vt 0.809524 0.873016 
vt 0.793651 0.873016 
vt 0.761905 0.761905 
vt 0.873016 0.873016 
vt 0.793651 0.873016 
vt 0.793651 0.952381 
vt 0.793651 0.952381 
vt 0.904762 0.936508 
vt 0.873016 0.873016 
vt 0.793651 0.873016 
vt 0.809524 0.873016 
vt 0.809524 0.984127 
vt 0.809524 0.984127 
vt 0.793651 0.952381 
vt 0.793651 0.873016 
vt 0.809524 0.873016 
vt 0.841270 0.873016 
vt 0.888889 0.984127 
vt 0.888889 0.984127 
vt 0.809524 0.984127 
vt 0.809524 0.873016 
vt 0.841270 0.873016 
vt 0.873016 0.873016 
vt 0.904762 0.936508 
vt 0.904762 0.936508 
vt 0.888889 0.984127 
vt 0.841270 0.873016 
f 1/1/1 2/2/2 3/3/3
f 4/4/4 5/5/5 6/6/6
f 7/7/7 8/8/8 9/9/9
f 10/10/10 11/11/11 12/12/12
f 13/13/13 14/14/14 15/15/15
f 16/16/16 17/17/17 18/18/18
f 19/19/19 20/20/20 21/21/21
f 22/22/22 23/23/23 24/24/24
f 25/25/25 26/26/26 27/27/27
f 28/28/28 29/29/29 30/30/30
f 31/31/31 32/32/32 33/33/33
f 34/34/34 35/35/35 36/36/36
f 37/37/37 38/38/38 39/39/39
f 40/40/40 41/41/41 42/42/42
f 43/43/43 44/44/44 45/45/45
f 46/46/46 47/47/47 48/48/48
f 49/49/49 50/50/50 51/51/51
f 52/52/52 53/53/53 54/54/54
f 55/55/55 56/56/56 57/57/57
f 58/58/58 59/59/59 60/60/60
f 61/61/61 62/62/62 63/63/63
f 64/64/64 65/65/65 66/66/66
f 67/67/67 68/68/68 69/69/69
f 70/70/70 71/71/71 72/72/72
f 73/73/73 74/74/74 75/75/75
f 76/76/76 77/77/77 78/78/78
f 79/79/79 80/80/80 81/81/81
f 82/82/82 83/83/83 84/84/84
f 85/85/85 86/86/86 87/87/87
f 88/88/88 89/89/89 90/90/90
f 91/91/91 92/92/92 93/93/93
f 94/94/94 95/95/95 96/96/96
f 97/97/97 98/98/98 99/99/99
f 100/100/100 101/101/101 102/102/102
f 103/103/103 104/104/104 105/105/105
f 106/106/106 107/107/107 108/108/108
f 109/109/109 110/110/110 111/111/111
f 112/112/112 113/113/113 114/114/114
f 115/115/115 116/116/116 117/117/117
f 118/118/118 119/119/119 120/120/120
f 121/121/121 122/122/122 123/123/123
f 124/124/124 125/125/125 126/126/126
f 127/127/127 128/128/128 129/129/129
f 130/130/130 131/131/131 132/132/132
f 133/133/133 134/134/134 135/135/135
f 136/136/136 137/137/137 138/138/138
f 139/139/139 140/140/140 141/141/141
f 142/142/142 143/143/143 144/144/144
f 145/145/145 146/146/146 147/147/147
f 148/148/148 149/149/149 150/150/150
f 151/151/151 152/152/152 153/153/153
f 154/154/154 155/155/155 156/156/156
f 157/157/157 158/158/158 159/159/159
f 160/160/160 161/161/161 162/162/162
f 163/163/163 164/164/164 165/165/165
f 166/166/166 167/167/167 168/168/168
f 169/169/169 170/170/170 171/171/171
f 172/172/172 173/173/173 174/174/174
f 175/175/175 176/176/176 177/177/177
f 178/178/178 179/179/179 180/180/180
f 181/181/181 182/182/182 183/183/183
f 184/184/184 185/185/185 186/186/186
f 187/187/187 188/188/188 189/189/189
f 190/190/190 191/191/191 192/192/192
f 193/193/193 194/194/194 195/195/195
f 196/196/196 197/197/197 198/198/198
f 199/199/199 200/200/200 201/201/201
f 202/202/202 203/203/203 204/204/204
f 205/205/205 206/206/206 207/207/207
f 208/208/208 209/209/209 210/210/210
