v -142.000000 551.000000 232.000000 
v -128.000000 544.000000 224.000000 
v -228.000000 545.000000 35.000000 
v -228.000000 545.000000 35.000000 
v -242.000000 551.000000 43.000000 
v -142.000000 551.000000 232.000000 
v -128.000000 544.000000 224.000000 
v -174.000000 423.000000 248.000000 
v -274.000000 423.000000 59.000000 
v -274.000000 423.000000 59.000000 
v -228.000000 545.000000 35.000000 
v -128.000000 544.000000 224.000000 
v -142.000000 551.000000 232.000000 
v -188.000000 429.000000 255.000000 
v -174.000000 423.000000 248.000000 
v -174.000000 423.000000 248.000000 
v -128.000000 544.000000 224.000000 
v -142.000000 551.000000 232.000000 
v -228.000000 545.000000 35.000000 
v -274.000000 423.000000 59.000000 
v -288.000000 430.000000 67.000000 
v -288.000000 430.000000 67.000000 
v -242.000000 551.000000 43.000000 
v -228.000000 545.000000 35.000000 
vn 0.245361 0.960693 -0.127930 
vn 0.245361 0.960693 -0.127930 
vn 0.245361 0.960693 -0.127930 
vn 0.245361 0.960693 -0.127930 
vn 0.245361 0.960693 -0.127930 
vn 0.245361 0.960693 -0.127930 
vn 0.749023 -0.531250 -0.395508 
vn 0.749023 -0.531250 -0.395508 
vn 0.749023 -0.531250 -0.395508 
vn 0.749023 -0.531250 -0.395508 
vn 0.749023 -0.531250 -0.395508 
vn 0.749023 -0.531250 -0.395508 
vn 0.466064 -0.002686 0.884521 
vn 0.466064 -0.002686 0.884521 
vn 0.466064 -0.002686 0.884521 
vn 0.466064 -0.002686 0.884521 
vn 0.466064 -0.002686 0.884521 
vn 0.466064 -0.002686 0.884521 
vn -0.466064 0.002686 -0.884521 
vn -0.466064 0.002686 -0.884521 
vn -0.466064 0.002686 -0.884521 
vn -0.466064 0.002686 -0.884521 
vn -0.466064 0.002686 -0.884521 
vn -0.466064 0.002686 -0.884521 
vt 1.000000 0.809524 
vt 1.000000 1.000000 
vt 0.000000 1.000000 
vt 0.000000 1.000000 
vt 0.000000 0.809524 
vt 1.000000 0.809524 
vt 1.000000 1.000000 
vt 1.000000 -0.015873 
vt 0.000000 -0.015873 
vt 0.000000 -0.015873 
vt 0.000000 1.000000 
vt 1.000000 1.000000 
vt 1.000000 1.000000 
vt 1.000000 -0.015873 
vt 0.913386 -0.015873 
vt 0.913386 -0.015873 
vt 0.913386 1.000000 
vt 1.000000 1.000000 
vt 0.000000 1.000000 
vt 0.000000 -0.015873 
vt 0.062992 -0.015873 
vt 0.062992 -0.015873 
vt 0.062992 1.000000 
vt 0.000000 1.000000 
f 1/1/1 2/2/2 3/3/3
f 4/4/4 5/5/5 6/6/6
f 7/7/7 8/8/8 9/9/9
f 10/10/10 11/11/11 12/12/12
f 13/13/13 14/14/14 15/15/15
f 16/16/16 17/17/17 18/18/18
f 19/19/19 20/20/20 21/21/21
f 22/22/22 23/23/23 24/24/24
