v 36.000000 -39.000000 -10.000000 
v 0.000000 -3.000000 -20.000000 
v 0.000000 0.000000 -23.000000 
v 0.000000 -3.000000 -20.000000 
v 36.000000 -39.000000 -10.000000 
v 36.000000 -41.000000 -7.000000 
v 78.000000 0.000000 23.000000 
v 36.000000 -41.000000 -7.000000 
v 36.000000 -39.000000 -10.000000 
v 35.000000 -36.000000 -7.000000 
v 0.000000 0.000000 -23.000000 
v 0.000000 2.000000 -20.000000 
v 0.000000 0.000000 -23.000000 
v 35.000000 -36.000000 -7.000000 
v 36.000000 -39.000000 -10.000000 
v 78.000000 0.000000 23.000000 
v 36.000000 -39.000000 -10.000000 
v 35.000000 -36.000000 -7.000000 
v 0.000000 0.000000 -23.000000 
v 0.000000 -3.000000 -20.000000 
v 0.000000 2.000000 -20.000000 
v 0.000000 -3.000000 -20.000000 
v 36.000000 -41.000000 -7.000000 
v 35.000000 -36.000000 -7.000000 
v 0.000000 2.000000 -20.000000 
v 0.000000 -3.000000 -20.000000 
v 35.000000 -36.000000 -7.000000 
v 35.000000 -36.000000 -7.000000 
v 36.000000 -41.000000 -7.000000 
v 78.000000 0.000000 23.000000 
vn 0.148438 -0.149414 -0.977295 
vn -0.499023 -0.659424 -0.561768 
vn 0.547119 0.236572 -0.802734 
vn -0.499023 -0.659424 -0.561768 
vn 0.148438 -0.149414 -0.977295 
vn 0.157959 -0.707275 -0.688721 
vn 0.471436 0.237793 -0.849121 
vn 0.157959 -0.707275 -0.688721 
vn 0.148438 -0.149414 -0.977295 
vn 0.500488 0.657471 -0.562988 
vn 0.547119 0.236572 -0.802734 
vn 0.721191 0.501953 -0.477051 
vn 0.547119 0.236572 -0.802734 
vn 0.500488 0.657471 -0.562988 
vn 0.148438 -0.149414 -0.977295 
vn 0.471436 0.237793 -0.849121 
vn 0.148438 -0.149414 -0.977295 
vn 0.500488 0.657471 -0.562988 
vn -1.000000 0.000000 0.000000 
vn -1.000000 0.000000 0.000000 
vn -1.000000 0.000000 0.000000 
vn -0.417236 -0.096191 0.903564 
vn -0.417236 -0.096191 0.903564 
vn -0.417236 -0.096191 0.903564 
vn -0.341309 0.000000 0.939697 
vn -0.341309 0.000000 0.939697 
vn -0.341309 0.000000 0.939697 
vn -0.516113 -0.119141 0.848145 
vn -0.516113 -0.119141 0.848145 
vn -0.516113 -0.119141 0.848145 
vt 0.161290 0.968254 
vt 0.129032 0.984127 
vt 0.129032 1.000000 
vt 0.129032 0.984127 
vt 0.161290 0.968254 
vt 0.129032 0.968254 
vt 0.161290 0.920635 
vt 0.129032 0.968254 
vt 0.161290 0.968254 
vt 0.161290 0.968254 
vt 0.129032 1.000000 
vt 0.161290 1.000000 
vt 0.129032 1.000000 
vt 0.161290 0.968254 
vt 0.161290 0.968254 
vt 0.161290 0.920635 
vt 0.161290 0.968254 
vt 0.161290 0.968254 
vt 0.129032 1.000000 
vt 0.129032 0.984127 
vt 0.161290 1.000000 
vt 0.129032 0.984127 
vt 0.129032 0.968254 
vt 0.161290 0.968254 
vt 0.161290 1.000000 
vt 0.129032 0.984127 
vt 0.161290 0.968254 
vt 0.161290 0.968254 
vt 0.129032 0.968254 
vt 0.161290 0.920635 
f 1/1/1 2/2/2 3/3/3
f 4/4/4 5/5/5 6/6/6
f 7/7/7 8/8/8 9/9/9
f 10/10/10 11/11/11 12/12/12
f 13/13/13 14/14/14 15/15/15
f 16/16/16 17/17/17 18/18/18
f 19/19/19 20/20/20 21/21/21
f 22/22/22 23/23/23 24/24/24
f 25/25/25 26/26/26 27/27/27
f 28/28/28 29/29/29 30/30/30
