v -16.000000 26.000000 -13.000000 
v -16.000000 7.000000 -13.000000 
v -46.000000 27.000000 -9.000000 
v -46.000000 8.000000 -9.000000 
v -46.000000 27.000000 -9.000000 
v -16.000000 7.000000 -13.000000 
v -23.000000 -3.000000 -12.000000 
v -23.000000 -28.000000 -11.000000 
v -43.000000 -3.000000 5.000000 
v -43.000000 -28.000000 5.000000 
v -43.000000 -3.000000 5.000000 
v -23.000000 -28.000000 -11.000000 
v 13.000000 26.000000 -13.000000 
v 43.000000 27.000000 -9.000000 
v 13.000000 7.000000 -13.000000 
v 43.000000 8.000000 -9.000000 
v 13.000000 7.000000 -13.000000 
v 43.000000 27.000000 -9.000000 
v 20.000000 -3.000000 -12.000000 
v 40.000000 -3.000000 5.000000 
v 20.000000 -28.000000 -11.000000 
v 40.000000 -28.000000 5.000000 
v 20.000000 -28.000000 -11.000000 
v 40.000000 -3.000000 5.000000 
vn -0.106934 0.000977 -0.994141 
vn -0.106934 0.000977 -0.994141 
vn -0.106934 0.000977 -0.994141 
vn -0.106934 0.000977 -0.994141 
vn -0.106934 0.000977 -0.994141 
vn -0.106934 0.000977 -0.994141 
vn -0.721680 -0.031494 -0.691162 
vn -0.721680 -0.031494 -0.691162 
vn -0.721680 -0.031494 -0.691162 
vn -0.721680 -0.031494 -0.691162 
vn -0.721680 -0.031494 -0.691162 
vn -0.721680 -0.031494 -0.691162 
vn 0.237793 0.010986 -0.971191 
vn 0.237793 0.010986 -0.971191 
vn 0.237793 0.010986 -0.971191 
vn 0.237793 0.010986 -0.971191 
vn 0.237793 0.010986 -0.971191 
vn 0.237793 0.010986 -0.971191 
vn 0.724854 0.011963 -0.688721 
vn 0.724854 0.011963 -0.688721 
vn 0.724854 0.011963 -0.688721 
vn 0.724854 0.011963 -0.688721 
vn 0.724854 0.011963 -0.688721 
vn 0.724854 0.011963 -0.688721 
vt 0.000000 0.967742 
vt 0.000000 0.483871 
vt 1.000000 0.967742 
vt 1.000000 0.483871 
vt 1.000000 0.967742 
vt 0.000000 0.483871 
vt 0.225806 0.451613 
vt 0.225806 -0.032258 
vt 0.741935 0.451613 
vt 0.741935 -0.032258 
vt 0.741935 0.451613 
vt 0.225806 -0.032258 
vt 0.000000 0.967742 
vt 1.000000 0.967742 
vt 0.000000 0.483871 
vt 1.000000 0.483871 
vt 0.000000 0.483871 
vt 1.000000 0.967742 
vt 0.225806 0.451613 
vt 0.741935 0.451613 
vt 0.225806 -0.032258 
vt 0.741935 -0.032258 
vt 0.225806 -0.032258 
vt 0.741935 0.451613 
f 1/1/1 2/2/2 3/3/3
f 4/4/4 5/5/5 6/6/6
f 7/7/7 8/8/8 9/9/9
f 10/10/10 11/11/11 12/12/12
f 13/13/13 14/14/14 15/15/15
f 16/16/16 17/17/17 18/18/18
f 19/19/19 20/20/20 21/21/21
f 22/22/22 23/23/23 24/24/24
