v -3.000000 -4.000000 -4.000000 
v -5.000000 -5.000000 4.000000 
v -14.000000 -4.000000 9.000000 
v -14.000000 -4.000000 9.000000 
v -19.000000 -3.000000 -9.000000 
v -3.000000 -4.000000 -4.000000 
v -3.000000 5.000000 -4.000000 
v -25.000000 6.000000 -11.000000 
v -25.000000 6.000000 9.000000 
v -25.000000 6.000000 9.000000 
v -5.000000 5.000000 3.000000 
v -3.000000 5.000000 -4.000000 
v -16.000000 -14.000000 -8.000000 
v -22.000000 -12.000000 -8.000000 
v -23.000000 -13.000000 -12.000000 
v -23.000000 -13.000000 -12.000000 
v -17.000000 -14.000000 -13.000000 
v -16.000000 -14.000000 -8.000000 
v -27.000000 -13.000000 -7.000000 
v -26.000000 -13.000000 8.000000 
v -33.000000 -8.000000 8.000000 
v -33.000000 -8.000000 8.000000 
v -34.000000 -9.000000 -9.000000 
v -27.000000 -13.000000 -7.000000 
v -14.000000 -4.000000 9.000000 
v -8.000000 -4.000000 7.000000 
v -8.000000 4.000000 7.000000 
v -8.000000 4.000000 7.000000 
v -19.000000 4.000000 9.000000 
v -14.000000 -4.000000 9.000000 
v 2.000000 -5.000000 5.000000 
v 2.000000 -4.000000 -2.000000 
v 3.000000 5.000000 -2.000000 
v 3.000000 5.000000 -2.000000 
v 2.000000 5.000000 4.000000 
v 2.000000 -5.000000 5.000000 
v -19.000000 -3.000000 -9.000000 
v -14.000000 -4.000000 9.000000 
v -19.000000 -7.000000 9.000000 
v -19.000000 -7.000000 9.000000 
v -21.000000 -13.000000 -7.000000 
v -19.000000 -3.000000 -9.000000 
v -25.000000 6.000000 9.000000 
v -25.000000 6.000000 -11.000000 
v -33.000000 3.000000 -10.000000 
v -33.000000 3.000000 -10.000000 
v -33.000000 3.000000 8.000000 
v -25.000000 6.000000 9.000000 
v -25.000000 6.000000 -11.000000 
v -19.000000 -3.000000 -9.000000 
v -21.000000 -13.000000 -7.000000 
v -21.000000 -13.000000 -7.000000 
v -33.000000 3.000000 -10.000000 
v -25.000000 6.000000 -11.000000 
v -14.000000 -4.000000 9.000000 
v -25.000000 6.000000 9.000000 
v -33.000000 3.000000 8.000000 
v -33.000000 3.000000 8.000000 
v -19.000000 -7.000000 9.000000 
v -14.000000 -4.000000 9.000000 
v -21.000000 -13.000000 -7.000000 
v -19.000000 -7.000000 9.000000 
v -26.000000 -13.000000 8.000000 
v -26.000000 -13.000000 8.000000 
v -27.000000 -13.000000 -7.000000 
v -21.000000 -13.000000 -7.000000 
v -19.000000 -7.000000 9.000000 
v -33.000000 3.000000 8.000000 
v -33.000000 -8.000000 8.000000 
v -33.000000 -8.000000 8.000000 
v -26.000000 -13.000000 8.000000 
v -19.000000 -7.000000 9.000000 
v -33.000000 3.000000 8.000000 
v -33.000000 3.000000 -10.000000 
v -34.000000 -9.000000 -9.000000 
v -34.000000 -9.000000 -9.000000 
v -33.000000 -8.000000 8.000000 
v -33.000000 3.000000 8.000000 
v -33.000000 3.000000 -10.000000 
v -21.000000 -13.000000 -7.000000 
v -27.000000 -13.000000 -7.000000 
v -27.000000 -13.000000 -7.000000 
v -34.000000 -9.000000 -9.000000 
v -33.000000 3.000000 -10.000000 
v -19.000000 -3.000000 -9.000000 
v -12.000000 -4.000000 -9.000000 
v -3.000000 -4.000000 -4.000000 
v -25.000000 6.000000 -11.000000 
v -3.000000 5.000000 -4.000000 
v -11.000000 2.000000 -14.000000 
v -11.000000 2.000000 -14.000000 
v -20.000000 2.000000 -13.000000 
v -25.000000 6.000000 -11.000000 
v -19.000000 -3.000000 -9.000000 
v -25.000000 6.000000 -11.000000 
v -20.000000 2.000000 -13.000000 
v -3.000000 5.000000 -4.000000 
v -3.000000 -4.000000 -4.000000 
v -12.000000 -4.000000 -9.000000 
v -12.000000 -4.000000 -9.000000 
v -11.000000 2.000000 -14.000000 
v -3.000000 5.000000 -4.000000 
v -14.000000 -4.000000 9.000000 
v -5.000000 -5.000000 4.000000 
v -8.000000 -4.000000 7.000000 
v -5.000000 5.000000 3.000000 
v -25.000000 6.000000 9.000000 
v -19.000000 4.000000 9.000000 
v -19.000000 4.000000 9.000000 
v -8.000000 4.000000 7.000000 
v -5.000000 5.000000 3.000000 
v -5.000000 -5.000000 4.000000 
v -5.000000 5.000000 3.000000 
v -8.000000 4.000000 7.000000 
v -8.000000 4.000000 7.000000 
v -8.000000 -4.000000 7.000000 
v -5.000000 -5.000000 4.000000 
v -14.000000 -4.000000 9.000000 
v -19.000000 4.000000 9.000000 
v -25.000000 6.000000 9.000000 
v -5.000000 -5.000000 4.000000 
v -3.000000 -4.000000 -4.000000 
v 2.000000 -4.000000 -2.000000 
v 2.000000 -4.000000 -2.000000 
v 2.000000 -5.000000 5.000000 
v -5.000000 -5.000000 4.000000 
v -3.000000 5.000000 -4.000000 
v -5.000000 5.000000 3.000000 
v 2.000000 5.000000 4.000000 
v 2.000000 5.000000 4.000000 
v 3.000000 5.000000 -2.000000 
v -3.000000 5.000000 -4.000000 
v -3.000000 -4.000000 -4.000000 
v -3.000000 5.000000 -4.000000 
v 3.000000 5.000000 -2.000000 
v 3.000000 5.000000 -2.000000 
v 2.000000 -4.000000 -2.000000 
v -3.000000 -4.000000 -4.000000 
v -5.000000 5.000000 3.000000 
v -5.000000 -5.000000 4.000000 
v 2.000000 -5.000000 5.000000 
v 2.000000 -5.000000 5.000000 
v 2.000000 5.000000 4.000000 
v -5.000000 5.000000 3.000000 
v -12.000000 -4.000000 -9.000000 
v -19.000000 -3.000000 -9.000000 
v -20.000000 -6.000000 -9.000000 
v -20.000000 -6.000000 -9.000000 
v -13.000000 -7.000000 -10.000000 
v -12.000000 -4.000000 -9.000000 
v -19.000000 -3.000000 -9.000000 
v -20.000000 2.000000 -13.000000 
v -21.000000 -7.000000 -15.000000 
v -21.000000 -7.000000 -15.000000 
v -20.000000 -6.000000 -9.000000 
v -19.000000 -3.000000 -9.000000 
v -20.000000 2.000000 -13.000000 
v -11.000000 2.000000 -14.000000 
v -14.000000 -7.000000 -15.000000 
v -14.000000 -7.000000 -15.000000 
v -21.000000 -7.000000 -15.000000 
v -20.000000 2.000000 -13.000000 
v -11.000000 2.000000 -14.000000 
v -12.000000 -4.000000 -9.000000 
v -13.000000 -7.000000 -10.000000 
v -13.000000 -7.000000 -10.000000 
v -14.000000 -7.000000 -15.000000 
v -11.000000 2.000000 -14.000000 
v -13.000000 -7.000000 -10.000000 
v -20.000000 -6.000000 -9.000000 
v -22.000000 -12.000000 -8.000000 
v -22.000000 -12.000000 -8.000000 
v -16.000000 -14.000000 -8.000000 
v -13.000000 -7.000000 -10.000000 
v -20.000000 -6.000000 -9.000000 
v -21.000000 -7.000000 -15.000000 
v -23.000000 -13.000000 -12.000000 
v -23.000000 -13.000000 -12.000000 
v -22.000000 -12.000000 -8.000000 
v -20.000000 -6.000000 -9.000000 
v -21.000000 -7.000000 -15.000000 
v -14.000000 -7.000000 -15.000000 
v -17.000000 -14.000000 -13.000000 
v -17.000000 -14.000000 -13.000000 
v -23.000000 -13.000000 -12.000000 
v -21.000000 -7.000000 -15.000000 
v -14.000000 -7.000000 -15.000000 
v -13.000000 -7.000000 -10.000000 
v -16.000000 -14.000000 -8.000000 
v -16.000000 -14.000000 -8.000000 
v -17.000000 -14.000000 -13.000000 
v -14.000000 -7.000000 -15.000000 
vn 0.196777 -0.817383 -0.541016 
vn 0.287598 -0.823242 0.489258 
vn 0.105469 -0.626221 0.772217 
vn 0.105469 -0.626221 0.772217 
vn -0.323242 -0.939453 -0.112793 
vn 0.196777 -0.817383 -0.541016 
vn 0.362549 0.800537 -0.476807 
vn -0.226807 0.524902 -0.820312 
vn -0.098877 0.844727 0.525879 
vn -0.098877 0.844727 0.525879 
vn 0.162842 0.725342 0.668457 
vn 0.362549 0.800537 -0.476807 
vn 0.486816 -0.807129 0.333252 
vn -0.386719 -0.054688 0.920410 
vn -0.827148 -0.520996 -0.209717 
vn -0.827148 -0.520996 -0.209717 
vn 0.156738 -0.736572 -0.657715 
vn 0.486816 -0.807129 0.333252 
vn -0.201904 -0.826172 -0.525635 
vn 0.033691 -0.917480 0.395752 
vn -0.598145 -0.514404 0.614258 
vn -0.598145 -0.514404 0.614258 
vn -0.886963 -0.316650 -0.335693 
vn -0.201904 -0.826172 -0.525635 
vn 0.105469 -0.626221 0.772217 
vn 0.462158 -0.453369 0.761963 
vn 0.488037 0.268799 0.830078 
vn 0.488037 0.268799 0.830078 
vn 0.125977 0.491211 0.861572 
vn 0.105469 -0.626221 0.772217 
vn 0.996338 0.002686 0.082520 
vn 0.998535 -0.032227 0.040039 
vn 0.996338 0.002686 0.082520 
vn 0.996338 0.002686 0.082520 
vn 0.991211 0.037598 0.125000 
vn 0.996338 0.002686 0.082520 
vn -0.323242 -0.939453 -0.112793 
vn 0.105469 -0.626221 0.772217 
vn 0.483643 -0.484131 0.729004 
vn 0.483643 -0.484131 0.729004 
vn 0.416992 -0.599365 -0.682861 
vn -0.323242 -0.939453 -0.112793 
vn -0.098877 0.844727 0.525879 
vn -0.226807 0.524902 -0.820312 
vn -0.435791 0.405273 -0.803467 
vn -0.435791 0.405273 -0.803467 
vn -0.623779 0.250977 0.739746 
vn -0.098877 0.844727 0.525879 
vn -0.226807 0.524902 -0.820312 
vn -0.323242 -0.939453 -0.112793 
vn 0.416992 -0.599365 -0.682861 
vn 0.416992 -0.599365 -0.682861 
vn -0.435791 0.405273 -0.803467 
vn -0.226807 0.524902 -0.820312 
vn 0.105469 -0.626221 0.772217 
vn -0.098877 0.844727 0.525879 
vn -0.623779 0.250977 0.739746 
vn -0.623779 0.250977 0.739746 
vn 0.483643 -0.484131 0.729004 
vn 0.105469 -0.626221 0.772217 
vn 0.416992 -0.599365 -0.682861 
vn 0.483643 -0.484131 0.729004 
vn 0.033691 -0.917480 0.395752 
vn 0.033691 -0.917480 0.395752 
vn -0.201904 -0.826172 -0.525635 
vn 0.416992 -0.599365 -0.682861 
vn 0.483643 -0.484131 0.729004 
vn -0.623779 0.250977 0.739746 
vn -0.598145 -0.514404 0.614258 
vn -0.598145 -0.514404 0.614258 
vn 0.033691 -0.917480 0.395752 
vn 0.483643 -0.484131 0.729004 
vn -0.623779 0.250977 0.739746 
vn -0.435791 0.405273 -0.803467 
vn -0.886963 -0.316650 -0.335693 
vn -0.886963 -0.316650 -0.335693 
vn -0.598145 -0.514404 0.614258 
vn -0.623779 0.250977 0.739746 
vn -0.435791 0.405273 -0.803467 
vn 0.416992 -0.599365 -0.682861 
vn -0.201904 -0.826172 -0.525635 
vn -0.201904 -0.826172 -0.525635 
vn -0.886963 -0.316650 -0.335693 
vn -0.435791 0.405273 -0.803467 
vn -0.323242 -0.939453 -0.112793 
vn 0.678223 -0.730225 0.080078 
vn 0.196777 -0.817383 -0.541016 
vn -0.226807 0.524902 -0.820312 
vn 0.362549 0.800537 -0.476807 
vn 0.621582 0.084961 -0.778564 
vn 0.621582 0.084961 -0.778564 
vn -0.531494 0.075928 -0.843506 
vn -0.226807 0.524902 -0.820312 
vn -0.323242 -0.939453 -0.112793 
vn -0.226807 0.524902 -0.820312 
vn -0.531494 0.075928 -0.843506 
vn 0.362549 0.800537 -0.476807 
vn 0.196777 -0.817383 -0.541016 
vn 0.678223 -0.730225 0.080078 
vn 0.678223 -0.730225 0.080078 
vn 0.621582 0.084961 -0.778564 
vn 0.362549 0.800537 -0.476807 
vn 0.105469 -0.626221 0.772217 
vn 0.287598 -0.823242 0.489258 
vn 0.462158 -0.453369 0.761963 
vn 0.162842 0.725342 0.668457 
vn -0.098877 0.844727 0.525879 
vn 0.125977 0.491211 0.861572 
vn 0.125977 0.491211 0.861572 
vn 0.488037 0.268799 0.830078 
vn 0.162842 0.725342 0.668457 
vn 0.287598 -0.823242 0.489258 
vn 0.162842 0.725342 0.668457 
vn 0.488037 0.268799 0.830078 
vn 0.488037 0.268799 0.830078 
vn 0.462158 -0.453369 0.761963 
vn 0.287598 -0.823242 0.489258 
vn 0.105469 -0.626221 0.772217 
vn 0.125977 0.491211 0.861572 
vn -0.098877 0.844727 0.525879 
vn 0.287598 -0.823242 0.489258 
vn 0.196777 -0.817383 -0.541016 
vn 0.127686 -0.899170 -0.418213 
vn 0.127686 -0.899170 -0.418213 
vn -0.155029 -0.389893 0.907471 
vn 0.287598 -0.823242 0.489258 
vn 0.362549 0.800537 -0.476807 
vn 0.162842 0.725342 0.668457 
vn -0.076904 0.899902 0.429199 
vn -0.076904 0.899902 0.429199 
vn 0.262695 0.402588 -0.876709 
vn 0.362549 0.800537 -0.476807 
vn 0.196777 -0.817383 -0.541016 
vn 0.362549 0.800537 -0.476807 
vn 0.262695 0.402588 -0.876709 
vn 0.262695 0.402588 -0.876709 
vn 0.127686 -0.899170 -0.418213 
vn 0.196777 -0.817383 -0.541016 
vn 0.162842 0.725342 0.668457 
vn 0.287598 -0.823242 0.489258 
vn -0.155029 -0.389893 0.907471 
vn -0.155029 -0.389893 0.907471 
vn -0.076904 0.899902 0.429199 
vn 0.162842 0.725342 0.668457 
vn 0.678223 -0.730225 0.080078 
vn -0.323242 -0.939453 -0.112793 
vn -0.629883 0.162842 0.759033 
vn -0.629883 0.162842 0.759033 
vn 0.761719 -0.223877 0.607666 
vn 0.678223 -0.730225 0.080078 
vn -0.323242 -0.939453 -0.112793 
vn -0.531494 0.075928 -0.843506 
vn -0.786133 0.012451 -0.617676 
vn -0.786133 0.012451 -0.617676 
vn -0.629883 0.162842 0.759033 
vn -0.323242 -0.939453 -0.112793 
vn -0.531494 0.075928 -0.843506 
vn 0.621582 0.084961 -0.778564 
vn 0.603271 -0.268311 -0.750732 
vn 0.603271 -0.268311 -0.750732 
vn -0.786133 0.012451 -0.617676 
vn -0.531494 0.075928 -0.843506 
vn 0.621582 0.084961 -0.778564 
vn 0.678223 -0.730225 0.080078 
vn 0.761719 -0.223877 0.607666 
vn 0.761719 -0.223877 0.607666 
vn 0.603271 -0.268311 -0.750732 
vn 0.621582 0.084961 -0.778564 
vn 0.761719 -0.223877 0.607666 
vn -0.629883 0.162842 0.759033 
vn -0.386719 -0.054688 0.920410 
vn -0.386719 -0.054688 0.920410 
vn 0.486816 -0.807129 0.333252 
vn 0.761719 -0.223877 0.607666 
vn -0.629883 0.162842 0.759033 
vn -0.786133 0.012451 -0.617676 
vn -0.827148 -0.520996 -0.209717 
vn -0.827148 -0.520996 -0.209717 
vn -0.386719 -0.054688 0.920410 
vn -0.629883 0.162842 0.759033 
vn -0.786133 0.012451 -0.617676 
vn 0.603271 -0.268311 -0.750732 
vn 0.156738 -0.736572 -0.657715 
vn 0.156738 -0.736572 -0.657715 
vn -0.827148 -0.520996 -0.209717 
vn -0.786133 0.012451 -0.617676 
vn 0.603271 -0.268311 -0.750732 
vn 0.761719 -0.223877 0.607666 
vn 0.486816 -0.807129 0.333252 
vn 0.486816 -0.807129 0.333252 
vn 0.156738 -0.736572 -0.657715 
vn 0.603271 -0.268311 -0.750732 
vt 0.677419 0.000000 
vt 0.838710 -0.032258 
vt 1.000000 0.451613 
vt 1.000000 0.451613 
vt 0.580645 0.516129 
vt 0.677419 0.000000 
vt 0.580645 -0.032258 
vt 0.483871 0.451613 
vt 0.935484 0.419355 
vt 0.935484 0.419355 
vt 0.741935 -0.032258 
vt 0.580645 -0.032258 
vt 0.258065 0.387097 
vt 0.354839 0.548387 
vt 0.322581 0.548387 
vt 0.322581 0.548387 
vt 0.225806 0.387097 
vt 0.258065 0.387097 
vt 0.483871 0.870968 
vt 0.967742 0.838710 
vt 0.935484 0.903226 
vt 0.935484 0.903226 
vt 0.451613 0.935484 
vt 0.483871 0.870968 
vt 0.967742 0.225806 
vt 0.967742 0.096774 
vt 0.903226 0.096774 
vt 0.903226 0.096774 
vt 0.903226 0.225806 
vt 0.967742 0.225806 
vt 0.838710 0.193548 
vt 0.677419 0.193548 
vt 0.580645 0.193548 
vt 0.580645 0.193548 
vt 0.741935 0.225806 
vt 0.838710 0.193548 
vt 0.580645 0.516129 
vt 1.000000 0.451613 
vt 0.967742 0.612903 
vt 0.967742 0.612903 
vt 0.483871 0.612903 
vt 0.580645 0.516129 
vt 0.935484 0.419355 
vt 0.483871 0.451613 
vt 0.451613 0.645161 
vt 0.451613 0.645161 
vt 0.935484 0.645161 
vt 0.935484 0.419355 
vt 0.483871 0.451613 
vt 0.580645 0.516129 
vt 0.483871 0.612903 
vt 0.483871 0.612903 
vt 0.451613 0.645161 
vt 0.483871 0.451613 
vt 1.000000 0.451613 
vt 0.935484 0.419355 
vt 0.935484 0.645161 
vt 0.935484 0.645161 
vt 0.967742 0.612903 
vt 1.000000 0.451613 
vt 0.483871 0.612903 
vt 0.967742 0.612903 
vt 0.967742 0.838710 
vt 0.967742 0.838710 
vt 0.483871 0.870968 
vt 0.483871 0.612903 
vt 0.967742 0.612903 
vt 0.935484 0.645161 
vt 0.935484 0.903226 
vt 0.935484 0.903226 
vt 0.967742 0.838710 
vt 0.967742 0.612903 
vt 0.935484 0.645161 
vt 0.451613 0.645161 
vt 0.451613 0.935484 
vt 0.451613 0.935484 
vt 0.935484 0.903226 
vt 0.935484 0.645161 
vt 0.451613 0.645161 
vt 0.483871 0.612903 
vt 0.483871 0.870968 
vt 0.483871 0.870968 
vt 0.451613 0.935484 
vt 0.451613 0.645161 
vt 0.516129 0.354839 
vt 0.451613 0.096774 
vt 0.677419 0.000000 
vt 0.483871 0.451613 
vt 0.580645 -0.032258 
vt 0.387097 0.096774 
vt 0.387097 0.096774 
vt 0.451613 0.354839 
vt 0.483871 0.451613 
vt 0.580645 0.516129 
vt 0.483871 0.451613 
vt 0.451613 0.354839 
vt 0.580645 -0.032258 
vt 0.677419 0.000000 
vt 0.451613 0.096774 
vt 0.451613 0.096774 
vt 0.387097 0.096774 
vt 0.580645 -0.032258 
vt 1.000000 0.451613 
vt 0.838710 -0.032258 
vt 0.967742 0.096774 
vt 0.741935 -0.032258 
vt 0.935484 0.419355 
vt 0.903226 0.225806 
vt 0.903226 0.225806 
vt 0.903226 0.096774 
vt 0.741935 -0.032258 
vt 0.838710 -0.032258 
vt 0.741935 -0.032258 
vt 0.903226 0.096774 
vt 0.903226 0.096774 
vt 0.967742 0.096774 
vt 0.838710 -0.032258 
vt 0.967742 0.225806 
vt 0.903226 0.225806 
vt 0.935484 0.419355 
vt 0.838710 -0.032258 
vt 0.677419 0.000000 
vt 0.677419 0.193548 
vt 0.677419 0.193548 
vt 0.838710 0.193548 
vt 0.838710 -0.032258 
vt 0.580645 -0.032258 
vt 0.741935 -0.032258 
vt 0.741935 0.225806 
vt 0.741935 0.225806 
vt 0.580645 0.193548 
vt 0.580645 -0.032258 
vt 0.677419 0.000000 
vt 0.580645 -0.032258 
vt 0.580645 0.193548 
vt 0.580645 0.193548 
vt 0.677419 0.193548 
vt 0.677419 0.000000 
vt 0.741935 -0.032258 
vt 0.838710 -0.032258 
vt 0.838710 0.193548 
vt 0.838710 0.193548 
vt 0.741935 0.225806 
vt 0.741935 -0.032258 
vt 0.451613 0.096774 
vt 0.516129 0.354839 
vt 0.451613 0.419355 
vt 0.451613 0.419355 
vt 0.387097 0.290323 
vt 0.451613 0.096774 
vt 0.516129 0.354839 
vt 0.451613 0.354839 
vt 0.387097 0.419355 
vt 0.387097 0.419355 
vt 0.451613 0.419355 
vt 0.516129 0.354839 
vt 0.451613 0.354839 
vt 0.387097 0.096774 
vt 0.322581 0.290323 
vt 0.322581 0.290323 
vt 0.387097 0.419355 
vt 0.451613 0.354839 
vt 0.387097 0.096774 
vt 0.451613 0.096774 
vt 0.387097 0.290323 
vt 0.387097 0.290323 
vt 0.322581 0.290323 
vt 0.387097 0.096774 
vt 0.387097 0.290323 
vt 0.451613 0.419355 
vt 0.354839 0.548387 
vt 0.354839 0.548387 
vt 0.258065 0.387097 
vt 0.387097 0.290323 
vt 0.451613 0.419355 
vt 0.387097 0.419355 
vt 0.322581 0.548387 
vt 0.322581 0.548387 
vt 0.354839 0.548387 
vt 0.451613 0.419355 
vt 0.387097 0.419355 
vt 0.322581 0.290323 
vt 0.225806 0.387097 
vt 0.225806 0.387097 
vt 0.322581 0.548387 
vt 0.387097 0.419355 
vt 0.322581 0.290323 
vt 0.387097 0.290323 
vt 0.258065 0.387097 
vt 0.258065 0.387097 
vt 0.225806 0.387097 
vt 0.322581 0.290323 
f 1/1/1 2/2/2 3/3/3
f 4/4/4 5/5/5 6/6/6
f 7/7/7 8/8/8 9/9/9
f 10/10/10 11/11/11 12/12/12
f 13/13/13 14/14/14 15/15/15
f 16/16/16 17/17/17 18/18/18
f 19/19/19 20/20/20 21/21/21
f 22/22/22 23/23/23 24/24/24
f 25/25/25 26/26/26 27/27/27
f 28/28/28 29/29/29 30/30/30
f 31/31/31 32/32/32 33/33/33
f 34/34/34 35/35/35 36/36/36
f 37/37/37 38/38/38 39/39/39
f 40/40/40 41/41/41 42/42/42
f 43/43/43 44/44/44 45/45/45
f 46/46/46 47/47/47 48/48/48
f 49/49/49 50/50/50 51/51/51
f 52/52/52 53/53/53 54/54/54
f 55/55/55 56/56/56 57/57/57
f 58/58/58 59/59/59 60/60/60
f 61/61/61 62/62/62 63/63/63
f 64/64/64 65/65/65 66/66/66
f 67/67/67 68/68/68 69/69/69
f 70/70/70 71/71/71 72/72/72
f 73/73/73 74/74/74 75/75/75
f 76/76/76 77/77/77 78/78/78
f 79/79/79 80/80/80 81/81/81
f 82/82/82 83/83/83 84/84/84
f 85/85/85 86/86/86 87/87/87
f 88/88/88 89/89/89 90/90/90
f 91/91/91 92/92/92 93/93/93
f 94/94/94 95/95/95 96/96/96
f 97/97/97 98/98/98 99/99/99
f 100/100/100 101/101/101 102/102/102
f 103/103/103 104/104/104 105/105/105
f 106/106/106 107/107/107 108/108/108
f 109/109/109 110/110/110 111/111/111
f 112/112/112 113/113/113 114/114/114
f 115/115/115 116/116/116 117/117/117
f 118/118/118 119/119/119 120/120/120
f 121/121/121 122/122/122 123/123/123
f 124/124/124 125/125/125 126/126/126
f 127/127/127 128/128/128 129/129/129
f 130/130/130 131/131/131 132/132/132
f 133/133/133 134/134/134 135/135/135
f 136/136/136 137/137/137 138/138/138
f 139/139/139 140/140/140 141/141/141
f 142/142/142 143/143/143 144/144/144
f 145/145/145 146/146/146 147/147/147
f 148/148/148 149/149/149 150/150/150
f 151/151/151 152/152/152 153/153/153
f 154/154/154 155/155/155 156/156/156
f 157/157/157 158/158/158 159/159/159
f 160/160/160 161/161/161 162/162/162
f 163/163/163 164/164/164 165/165/165
f 166/166/166 167/167/167 168/168/168
f 169/169/169 170/170/170 171/171/171
f 172/172/172 173/173/173 174/174/174
f 175/175/175 176/176/176 177/177/177
f 178/178/178 179/179/179 180/180/180
f 181/181/181 182/182/182 183/183/183
f 184/184/184 185/185/185 186/186/186
f 187/187/187 188/188/188 189/189/189
f 190/190/190 191/191/191 192/192/192
