v 29.000000 42.000000 18.000000 
v 38.000000 24.000000 44.000000 
v 59.000000 19.000000 0.000000 
v 29.000000 42.000000 -18.000000 
v 29.000000 42.000000 18.000000 
v 59.000000 19.000000 0.000000 
v 38.000000 24.000000 -44.000000 
v 29.000000 42.000000 -18.000000 
v 59.000000 19.000000 0.000000 
v 52.000000 0.000000 -44.000000 
v 38.000000 24.000000 -44.000000 
v 59.000000 19.000000 0.000000 
v 61.000000 -15.000000 -18.000000 
v 52.000000 0.000000 -44.000000 
v 59.000000 19.000000 0.000000 
v 61.000000 -15.000000 18.000000 
v 61.000000 -15.000000 -18.000000 
v 59.000000 19.000000 0.000000 
v 52.000000 0.000000 44.000000 
v 61.000000 -15.000000 18.000000 
v 59.000000 19.000000 0.000000 
v 38.000000 24.000000 44.000000 
v 52.000000 0.000000 44.000000 
v 59.000000 19.000000 0.000000 
v -21.000000 35.000000 22.000000 
v -8.000000 15.000000 53.000000 
v 38.000000 24.000000 44.000000 
v 29.000000 42.000000 18.000000 
v -21.000000 35.000000 22.000000 
v 38.000000 24.000000 44.000000 
v -21.000000 35.000000 -22.000000 
v -21.000000 35.000000 22.000000 
v 29.000000 42.000000 18.000000 
v 29.000000 42.000000 -18.000000 
v -21.000000 35.000000 -22.000000 
v 29.000000 42.000000 18.000000 
v -8.000000 15.000000 -53.000000 
v -21.000000 35.000000 -22.000000 
v 29.000000 42.000000 -18.000000 
v 38.000000 24.000000 -44.000000 
v -8.000000 15.000000 -53.000000 
v 29.000000 42.000000 -18.000000 
v 10.000000 -15.000000 -53.000000 
v -8.000000 15.000000 -53.000000 
v 38.000000 24.000000 -44.000000 
v 52.000000 0.000000 -44.000000 
v 10.000000 -15.000000 -53.000000 
v 38.000000 24.000000 -44.000000 
v 24.000000 -37.000000 -22.000000 
v 10.000000 -15.000000 -53.000000 
v 52.000000 0.000000 -44.000000 
v 61.000000 -15.000000 -18.000000 
v 24.000000 -37.000000 -22.000000 
v 52.000000 0.000000 -44.000000 
v 24.000000 -37.000000 22.000000 
v 24.000000 -37.000000 -22.000000 
v 61.000000 -15.000000 -18.000000 
v 61.000000 -15.000000 18.000000 
v 24.000000 -37.000000 22.000000 
v 61.000000 -15.000000 -18.000000 
v 10.000000 -15.000000 53.000000 
v 24.000000 -37.000000 22.000000 
v 61.000000 -15.000000 18.000000 
v 52.000000 0.000000 44.000000 
v 10.000000 -15.000000 53.000000 
v 61.000000 -15.000000 18.000000 
v -8.000000 15.000000 53.000000 
v 10.000000 -15.000000 53.000000 
v 52.000000 0.000000 44.000000 
v 38.000000 24.000000 44.000000 
v -8.000000 15.000000 53.000000 
v 52.000000 0.000000 44.000000 
v -57.000000 13.000000 13.000000 
v -54.000000 0.000000 32.000000 
v -8.000000 15.000000 53.000000 
v -21.000000 35.000000 22.000000 
v -57.000000 13.000000 13.000000 
v -8.000000 15.000000 53.000000 
v -57.000000 13.000000 -13.000000 
v -57.000000 13.000000 13.000000 
v -21.000000 35.000000 22.000000 
v -21.000000 35.000000 -22.000000 
v -57.000000 13.000000 -13.000000 
v -21.000000 35.000000 22.000000 
v -54.000000 0.000000 -32.000000 
v -57.000000 13.000000 -13.000000 
v -21.000000 35.000000 -22.000000 
v -8.000000 15.000000 -53.000000 
v -54.000000 0.000000 -32.000000 
v -21.000000 35.000000 -22.000000 
v -49.000000 -22.000000 -32.000000 
v -54.000000 0.000000 -32.000000 
v -8.000000 15.000000 -53.000000 
v 10.000000 -15.000000 -53.000000 
v -49.000000 -22.000000 -32.000000 
v -8.000000 15.000000 -53.000000 
v -45.000000 -38.000000 -13.000000 
v -49.000000 -22.000000 -32.000000 
v 10.000000 -15.000000 -53.000000 
v 24.000000 -37.000000 -22.000000 
v -45.000000 -38.000000 -13.000000 
v 10.000000 -15.000000 -53.000000 
v -45.000000 -38.000000 13.000000 
v -45.000000 -38.000000 -13.000000 
v 24.000000 -37.000000 -22.000000 
v 24.000000 -37.000000 22.000000 
v -45.000000 -38.000000 13.000000 
v 24.000000 -37.000000 -22.000000 
v -49.000000 -22.000000 32.000000 
v -45.000000 -38.000000 13.000000 
v 24.000000 -37.000000 22.000000 
v 10.000000 -15.000000 53.000000 
v -49.000000 -22.000000 32.000000 
v 24.000000 -37.000000 22.000000 
v -54.000000 0.000000 32.000000 
v -49.000000 -22.000000 32.000000 
v 10.000000 -15.000000 53.000000 
v -8.000000 15.000000 53.000000 
v -54.000000 0.000000 32.000000 
v 10.000000 -15.000000 53.000000 
v -54.000000 0.000000 32.000000 
v -57.000000 13.000000 13.000000 
v -66.000000 -16.000000 0.000000 
v -57.000000 13.000000 13.000000 
v -57.000000 13.000000 -13.000000 
v -66.000000 -16.000000 0.000000 
v -57.000000 13.000000 -13.000000 
v -54.000000 0.000000 -32.000000 
v -66.000000 -16.000000 0.000000 
v -54.000000 0.000000 -32.000000 
v -49.000000 -22.000000 -32.000000 
v -66.000000 -16.000000 0.000000 
v -49.000000 -22.000000 -32.000000 
v -45.000000 -38.000000 -13.000000 
v -66.000000 -16.000000 0.000000 
v -45.000000 -38.000000 -13.000000 
v -45.000000 -38.000000 13.000000 
v -66.000000 -16.000000 0.000000 
v -45.000000 -38.000000 13.000000 
v -49.000000 -22.000000 32.000000 
v -66.000000 -16.000000 0.000000 
v -49.000000 -22.000000 32.000000 
v -54.000000 0.000000 32.000000 
v -66.000000 -16.000000 0.000000 
vn 0.149170 0.969971 0.190674 
vn 0.262695 0.715820 0.646729 
vn 0.765625 0.642822 0.000000 
vn 0.162109 0.936768 -0.309570 
vn 0.149170 0.969971 0.190674 
vn 0.765625 0.642822 0.000000 
vn 0.304688 0.569336 -0.763428 
vn 0.162109 0.936768 -0.309570 
vn 0.765625 0.642822 0.000000 
vn 0.571045 -0.105225 -0.813965 
vn 0.304688 0.569336 -0.763428 
vn 0.765625 0.642822 0.000000 
vn 0.761719 -0.590332 -0.266113 
vn 0.571045 -0.105225 -0.813965 
vn 0.765625 0.642822 0.000000 
vn 0.729736 -0.520508 0.443115 
vn 0.761719 -0.590332 -0.266113 
vn 0.765625 0.642822 0.000000 
vn 0.501465 0.096680 0.859375 
vn 0.729736 -0.520508 0.443115 
vn 0.765625 0.642822 0.000000 
vn 0.262695 0.715820 0.646729 
vn 0.501465 0.096680 0.859375 
vn 0.765625 0.642822 0.000000 
vn -0.205078 0.923096 0.324463 
vn -0.126465 0.416016 0.900391 
vn 0.262695 0.715820 0.646729 
vn 0.149170 0.969971 0.190674 
vn -0.205078 0.923096 0.324463 
vn 0.262695 0.715820 0.646729 
vn -0.213379 0.919434 -0.329834 
vn -0.205078 0.923096 0.324463 
vn 0.149170 0.969971 0.190674 
vn 0.162109 0.936768 -0.309570 
vn -0.213379 0.919434 -0.329834 
vn 0.149170 0.969971 0.190674 
vn -0.132324 0.408447 -0.903076 
vn -0.213379 0.919434 -0.329834 
vn 0.162109 0.936768 -0.309570 
vn 0.304688 0.569336 -0.763428 
vn -0.132324 0.408447 -0.903076 
vn 0.162109 0.936768 -0.309570 
vn 0.029541 -0.433105 -0.900635 
vn -0.132324 0.408447 -0.903076 
vn 0.304688 0.569336 -0.763428 
vn 0.571045 -0.105225 -0.813965 
vn 0.029541 -0.433105 -0.900635 
vn 0.304688 0.569336 -0.763428 
vn 0.148193 -0.931885 -0.330566 
vn 0.029541 -0.433105 -0.900635 
vn 0.571045 -0.105225 -0.813965 
vn 0.761719 -0.590332 -0.266113 
vn 0.148193 -0.931885 -0.330566 
vn 0.571045 -0.105225 -0.813965 
vn 0.149658 -0.931152 0.331787 
vn 0.148193 -0.931885 -0.330566 
vn 0.761719 -0.590332 -0.266113 
vn 0.729736 -0.520508 0.443115 
vn 0.149658 -0.931152 0.331787 
vn 0.761719 -0.590332 -0.266113 
vn 0.031250 -0.457275 0.888672 
vn 0.149658 -0.931152 0.331787 
vn 0.729736 -0.520508 0.443115 
vn 0.501465 0.096680 0.859375 
vn 0.031250 -0.457275 0.888672 
vn 0.729736 -0.520508 0.443115 
vn -0.126465 0.416016 0.900391 
vn 0.031250 -0.457275 0.888672 
vn 0.501465 0.096680 0.859375 
vn 0.262695 0.715820 0.646729 
vn -0.126465 0.416016 0.900391 
vn 0.501465 0.096680 0.859375 
vn -0.624512 0.676758 0.389160 
vn -0.546387 0.091064 0.832520 
vn -0.126465 0.416016 0.900391 
vn -0.205078 0.923096 0.324463 
vn -0.624512 0.676758 0.389160 
vn -0.126465 0.416016 0.900391 
vn -0.632568 0.736816 -0.237549 
vn -0.624512 0.676758 0.389160 
vn -0.205078 0.923096 0.324463 
vn -0.213379 0.919434 -0.329834 
vn -0.632568 0.736816 -0.237549 
vn -0.205078 0.923096 0.324463 
vn -0.584473 0.290771 -0.757324 
vn -0.632568 0.736816 -0.237549 
vn -0.213379 0.919434 -0.329834 
vn -0.132324 0.408447 -0.903076 
vn -0.584473 0.290771 -0.757324 
vn -0.213379 0.919434 -0.329834 
vn -0.412109 -0.462158 -0.784912 
vn -0.584473 0.290771 -0.757324 
vn -0.132324 0.408447 -0.903076 
vn 0.029541 -0.433105 -0.900635 
vn -0.412109 -0.462158 -0.784912 
vn -0.132324 0.408447 -0.903076 
vn -0.262695 -0.906494 -0.329590 
vn -0.412109 -0.462158 -0.784912 
vn 0.029541 -0.433105 -0.900635 
vn 0.148193 -0.931885 -0.330566 
vn -0.262695 -0.906494 -0.329590 
vn 0.029541 -0.433105 -0.900635 
vn -0.248291 -0.945068 0.211914 
vn -0.262695 -0.906494 -0.329590 
vn 0.148193 -0.931885 -0.330566 
vn 0.149658 -0.931152 0.331787 
vn -0.248291 -0.945068 0.211914 
vn 0.148193 -0.931885 -0.330566 
vn -0.370117 -0.607910 0.701904 
vn -0.248291 -0.945068 0.211914 
vn 0.149658 -0.931152 0.331787 
vn 0.031250 -0.457275 0.888672 
vn -0.370117 -0.607910 0.701904 
vn 0.149658 -0.931152 0.331787 
vn -0.546387 0.091064 0.832520 
vn -0.370117 -0.607910 0.701904 
vn 0.031250 -0.457275 0.888672 
vn -0.126465 0.416016 0.900391 
vn -0.546387 0.091064 0.832520 
vn 0.031250 -0.457275 0.888672 
vn -0.546387 0.091064 0.832520 
vn -0.624512 0.676758 0.389160 
vn -0.948242 -0.316650 0.000000 
vn -0.624512 0.676758 0.389160 
vn -0.632568 0.736816 -0.237549 
vn -0.948242 -0.316650 0.000000 
vn -0.632568 0.736816 -0.237549 
vn -0.584473 0.290771 -0.757324 
vn -0.948242 -0.316650 0.000000 
vn -0.584473 0.290771 -0.757324 
vn -0.412109 -0.462158 -0.784912 
vn -0.948242 -0.316650 0.000000 
vn -0.412109 -0.462158 -0.784912 
vn -0.262695 -0.906494 -0.329590 
vn -0.948242 -0.316650 0.000000 
vn -0.262695 -0.906494 -0.329590 
vn -0.248291 -0.945068 0.211914 
vn -0.948242 -0.316650 0.000000 
vn -0.248291 -0.945068 0.211914 
vn -0.370117 -0.607910 0.701904 
vn -0.948242 -0.316650 0.000000 
vn -0.370117 -0.607910 0.701904 
vn -0.546387 0.091064 0.832520 
vn -0.948242 -0.316650 0.000000 
vt 0.365079 0.746032 
vt 0.174603 0.825397 
vt 0.492063 0.984127 
vt 0.619048 0.746032 
vt 0.365079 0.746032 
vt 0.492063 0.984127 
vt 0.809524 0.825397 
vt 0.619048 0.746032 
vt 0.492063 0.984127 
vt 0.904762 0.873016 
vt 0.809524 0.825397 
vt 0.492063 0.984127 
vt 0.666667 0.873016 
vt 0.904762 0.873016 
vt 0.492063 0.984127 
vt 0.317460 0.873016 
vt 0.666667 0.873016 
vt 0.492063 0.984127 
vt 0.079365 0.873016 
vt 0.317460 0.873016 
vt 0.492063 0.984127 
vt 0.174603 0.825397 
vt 0.079365 0.873016 
vt 0.492063 0.984127 
vt 0.301587 0.301587 
vt 0.095238 0.349206 
vt 0.174603 0.825397 
vt 0.365079 0.746032 
vt 0.301587 0.301587 
vt 0.174603 0.825397 
vt 0.619048 0.301587 
vt 0.301587 0.301587 
vt 0.365079 0.746032 
vt 0.619048 0.746032 
vt 0.619048 0.301587 
vt 0.365079 0.746032 
vt 0.888889 0.349206 
vt 0.619048 0.301587 
vt 0.619048 0.746032 
vt 0.809524 0.825397 
vt 0.888889 0.349206 
vt 0.619048 0.746032 
vt 1.000000 0.380952 
vt 0.888889 0.349206 
vt 0.809524 0.825397 
vt 0.904762 0.873016 
vt 1.000000 0.380952 
vt 0.809524 0.825397 
vt 0.666667 0.444444 
vt 1.000000 0.380952 
vt 0.904762 0.873016 
vt 0.666667 0.873016 
vt 0.666667 0.444444 
vt 0.904762 0.873016 
vt 0.317460 0.444444 
vt 0.666667 0.444444 
vt 0.666667 0.873016 
vt 0.317460 0.873016 
vt 0.317460 0.444444 
vt 0.666667 0.873016 
vt 0.000000 0.380952 
vt 0.317460 0.444444 
vt 0.317460 0.873016 
vt 0.079365 0.873016 
vt 0.000000 0.380952 
vt 0.317460 0.873016 
vt 0.095238 0.349206 
vt 0.000000 0.380952 
vt 0.079365 0.873016 
vt 0.174603 0.825397 
vt 0.095238 0.349206 
vt 0.079365 0.873016 
vt 0.380952 0.111111 
vt 0.253968 0.095238 
vt 0.095238 0.349206 
vt 0.301587 0.301587 
vt 0.380952 0.111111 
vt 0.095238 0.349206 
vt 0.571429 0.111111 
vt 0.380952 0.111111 
vt 0.301587 0.301587 
vt 0.619048 0.301587 
vt 0.571429 0.111111 
vt 0.301587 0.301587 
vt 0.730159 0.095238 
vt 0.571429 0.111111 
vt 0.619048 0.301587 
vt 0.888889 0.349206 
vt 0.730159 0.095238 
vt 0.619048 0.301587 
vt 0.809524 0.063492 
vt 0.730159 0.095238 
vt 0.888889 0.349206 
vt 1.000000 0.380952 
vt 0.809524 0.063492 
vt 0.888889 0.349206 
vt 0.603175 0.111111 
vt 0.809524 0.063492 
vt 1.000000 0.380952 
vt 0.666667 0.444444 
vt 0.603175 0.111111 
vt 1.000000 0.380952 
vt 0.380952 0.111111 
vt 0.603175 0.111111 
vt 0.666667 0.444444 
vt 0.317460 0.444444 
vt 0.380952 0.111111 
vt 0.666667 0.444444 
vt 0.174603 0.063492 
vt 0.380952 0.111111 
vt 0.317460 0.444444 
vt 0.000000 0.380952 
vt 0.174603 0.063492 
vt 0.317460 0.444444 
vt 0.253968 0.095238 
vt 0.174603 0.063492 
vt 0.000000 0.380952 
vt 0.095238 0.349206 
vt 0.253968 0.095238 
vt 0.000000 0.380952 
vt 0.253968 0.095238 
vt 0.380952 0.111111 
vt 0.492063 -0.015873 
vt 0.380952 0.111111 
vt 0.571429 0.111111 
vt 0.492063 -0.015873 
vt 0.571429 0.111111 
vt 0.730159 0.095238 
vt 0.492063 -0.015873 
vt 0.730159 0.095238 
vt 0.809524 0.063492 
vt 0.492063 -0.015873 
vt 0.809524 0.063492 
vt 0.603175 0.111111 
vt 0.492063 -0.015873 
vt 0.603175 0.111111 
vt 0.380952 0.111111 
vt 0.492063 -0.015873 
vt 0.380952 0.111111 
vt 0.174603 0.063492 
vt 0.492063 -0.015873 
vt 0.174603 0.063492 
vt 0.253968 0.095238 
vt 0.492063 -0.015873 
f 1/1/1 2/2/2 3/3/3
f 4/4/4 5/5/5 6/6/6
f 7/7/7 8/8/8 9/9/9
f 10/10/10 11/11/11 12/12/12
f 13/13/13 14/14/14 15/15/15
f 16/16/16 17/17/17 18/18/18
f 19/19/19 20/20/20 21/21/21
f 22/22/22 23/23/23 24/24/24
f 25/25/25 26/26/26 27/27/27
f 28/28/28 29/29/29 30/30/30
f 31/31/31 32/32/32 33/33/33
f 34/34/34 35/35/35 36/36/36
f 37/37/37 38/38/38 39/39/39
f 40/40/40 41/41/41 42/42/42
f 43/43/43 44/44/44 45/45/45
f 46/46/46 47/47/47 48/48/48
f 49/49/49 50/50/50 51/51/51
f 52/52/52 53/53/53 54/54/54
f 55/55/55 56/56/56 57/57/57
f 58/58/58 59/59/59 60/60/60
f 61/61/61 62/62/62 63/63/63
f 64/64/64 65/65/65 66/66/66
f 67/67/67 68/68/68 69/69/69
f 70/70/70 71/71/71 72/72/72
f 73/73/73 74/74/74 75/75/75
f 76/76/76 77/77/77 78/78/78
f 79/79/79 80/80/80 81/81/81
f 82/82/82 83/83/83 84/84/84
f 85/85/85 86/86/86 87/87/87
f 88/88/88 89/89/89 90/90/90
f 91/91/91 92/92/92 93/93/93
f 94/94/94 95/95/95 96/96/96
f 97/97/97 98/98/98 99/99/99
f 100/100/100 101/101/101 102/102/102
f 103/103/103 104/104/104 105/105/105
f 106/106/106 107/107/107 108/108/108
f 109/109/109 110/110/110 111/111/111
f 112/112/112 113/113/113 114/114/114
f 115/115/115 116/116/116 117/117/117
f 118/118/118 119/119/119 120/120/120
f 121/121/121 122/122/122 123/123/123
f 124/124/124 125/125/125 126/126/126
f 127/127/127 128/128/128 129/129/129
f 130/130/130 131/131/131 132/132/132
f 133/133/133 134/134/134 135/135/135
f 136/136/136 137/137/137 138/138/138
f 139/139/139 140/140/140 141/141/141
f 142/142/142 143/143/143 144/144/144
