v 0.000000 73.000000 8.000000 
v 0.000000 20.000000 4.000000 
v -14.000000 23.000000 7.000000 
v 0.000000 73.000000 8.000000 
v 14.000000 21.000000 10.000000 
v 0.000000 20.000000 4.000000 
v 0.000000 73.000000 8.000000 
v -14.000000 23.000000 7.000000 
v 0.000000 16.000000 7.000000 
v 0.000000 73.000000 8.000000 
v 0.000000 16.000000 7.000000 
v 14.000000 21.000000 10.000000 
vn 0.134033 -0.017822 -0.990723 
vn 0.116455 0.274658 -0.954346 
vn -0.129395 0.168945 -0.977051 
vn 0.134033 -0.017822 -0.990723 
vn 0.394775 0.200684 -0.896484 
vn 0.116455 0.274658 -0.954346 
vn -0.152344 0.060547 0.986328 
vn -0.152588 -0.065918 0.985840 
vn -0.124512 -0.200928 0.971436 
vn -0.152344 0.060547 0.986328 
vn -0.124512 -0.200928 0.971436 
vn -0.141602 -0.126953 0.981689 
vt 0.396825 1.000000 
vt 0.444444 0.857143 
vt 0.206349 0.857143 
vt 0.523810 1.000000 
vt 0.761905 0.857143 
vt 0.444444 0.857143 
vt 0.492063 1.000000 
vt 0.746032 0.841270 
vt 0.492063 0.777778 
vt 0.492063 1.000000 
vt 0.492063 0.777778 
vt 0.301587 0.857143 
f 1/1/1 2/2/2 3/3/3
f 4/4/4 5/5/5 6/6/6
f 7/7/7 8/8/8 9/9/9
f 10/10/10 11/11/11 12/12/12
