v 7.000000 -2.000000 -9.000000 
v 4.000000 -1.000000 -15.000000 
v 6.000000 9.000000 -3.000000 
v 4.000000 -1.000000 -15.000000 
v -4.000000 9.000000 -1.000000 
v 6.000000 9.000000 -3.000000 
v 4.000000 -1.000000 -15.000000 
v 0.000000 -8.000000 -9.000000 
v -4.000000 9.000000 -1.000000 
v 0.000000 -8.000000 -9.000000 
v -3.000000 2.000000 -1.000000 
v -4.000000 9.000000 -1.000000 
v 0.000000 -8.000000 -9.000000 
v 4.000000 -8.000000 -4.000000 
v -3.000000 2.000000 -1.000000 
v 4.000000 -8.000000 -4.000000 
v 2.000000 -1.000000 0.000000 
v -3.000000 2.000000 -1.000000 
v 4.000000 -8.000000 -4.000000 
v 7.000000 -2.000000 -9.000000 
v 2.000000 -1.000000 0.000000 
v 7.000000 -2.000000 -9.000000 
v 6.000000 9.000000 -3.000000 
v 2.000000 -1.000000 0.000000 
v 13.000000 -10.000000 -13.000000 
v 8.000000 -11.000000 -18.000000 
v 7.000000 -2.000000 -9.000000 
v 8.000000 -11.000000 -18.000000 
v 4.000000 -1.000000 -15.000000 
v 7.000000 -2.000000 -9.000000 
v 8.000000 -11.000000 -18.000000 
v 5.000000 -15.000000 -12.000000 
v 4.000000 -1.000000 -15.000000 
v 5.000000 -15.000000 -12.000000 
v 0.000000 -8.000000 -9.000000 
v 4.000000 -1.000000 -15.000000 
v 5.000000 -15.000000 -12.000000 
v 11.000000 -14.000000 -9.000000 
v 0.000000 -8.000000 -9.000000 
v 11.000000 -14.000000 -9.000000 
v 4.000000 -8.000000 -4.000000 
v 0.000000 -8.000000 -9.000000 
v 11.000000 -14.000000 -9.000000 
v 13.000000 -10.000000 -13.000000 
v 4.000000 -8.000000 -4.000000 
v 13.000000 -10.000000 -13.000000 
v 7.000000 -2.000000 -9.000000 
v 4.000000 -8.000000 -4.000000 
v 8.000000 -11.000000 -18.000000 
v 13.000000 -10.000000 -13.000000 
v 11.000000 -15.000000 -14.000000 
v 5.000000 -15.000000 -12.000000 
v 8.000000 -11.000000 -18.000000 
v 11.000000 -15.000000 -14.000000 
v 11.000000 -14.000000 -9.000000 
v 5.000000 -15.000000 -12.000000 
v 11.000000 -15.000000 -14.000000 
v 13.000000 -10.000000 -13.000000 
v 11.000000 -14.000000 -9.000000 
v 11.000000 -15.000000 -14.000000 
vn 0.988281 0.147461 -0.036133 
vn -0.155029 0.120361 -0.980469 
vn 0.840820 0.320068 -0.436035 
vn -0.155029 0.120361 -0.980469 
vn -0.742676 0.289795 -0.603516 
vn 0.840820 0.320068 -0.436035 
vn -0.155029 0.120361 -0.980469 
vn -0.896729 -0.440674 0.036865 
vn -0.742676 0.289795 -0.603516 
vn -0.896729 -0.440674 0.036865 
vn -0.838379 -0.258545 0.479492 
vn -0.742676 0.289795 -0.603516 
vn -0.896729 -0.440674 0.036865 
vn 0.073242 -0.190674 0.978760 
vn -0.838379 -0.258545 0.479492 
vn 0.073242 -0.190674 0.978760 
vn 0.551025 -0.215576 0.805908 
vn -0.838379 -0.258545 0.479492 
vn 0.073242 -0.190674 0.978760 
vn 0.988281 0.147461 -0.036133 
vn 0.551025 -0.215576 0.805908 
vn 0.988281 0.147461 -0.036133 
vn 0.840820 0.320068 -0.436035 
vn 0.551025 -0.215576 0.805908 
vn 0.999023 0.029785 -0.027588 
vn 0.354004 -0.176270 -0.918213 
vn 0.988281 0.147461 -0.036133 
vn 0.354004 -0.176270 -0.918213 
vn -0.155029 0.120361 -0.980469 
vn 0.988281 0.147461 -0.036133 
vn 0.354004 -0.176270 -0.918213 
vn -0.375244 -0.777832 -0.503906 
vn -0.155029 0.120361 -0.980469 
vn -0.375244 -0.777832 -0.503906 
vn -0.896729 -0.440674 0.036865 
vn -0.155029 0.120361 -0.980469 
vn -0.375244 -0.777832 -0.503906 
vn 0.231445 -0.803467 0.548096 
vn -0.896729 -0.440674 0.036865 
vn 0.231445 -0.803467 0.548096 
vn 0.073242 -0.190674 0.978760 
vn -0.896729 -0.440674 0.036865 
vn 0.231445 -0.803467 0.548096 
vn 0.999023 0.029785 -0.027588 
vn 0.073242 -0.190674 0.978760 
vn 0.999023 0.029785 -0.027588 
vn 0.988281 0.147461 -0.036133 
vn 0.073242 -0.190674 0.978760 
vn 0.354004 -0.176270 -0.918213 
vn 0.999023 0.029785 -0.027588 
vn 0.490479 -0.692139 -0.529053 
vn -0.375244 -0.777832 -0.503906 
vn 0.354004 -0.176270 -0.918213 
vn 0.490479 -0.692139 -0.529053 
vn 0.231445 -0.803467 0.548096 
vn -0.375244 -0.777832 -0.503906 
vn 0.490479 -0.692139 -0.529053 
vn 0.999023 0.029785 -0.027588 
vn 0.231445 -0.803467 0.548096 
vn 0.490479 -0.692139 -0.529053 
vt 0.937008 0.275591 
vt 0.921260 0.275591 
vt 0.944882 0.244094 
vt 0.921260 0.275591 
vt 0.905512 0.236220 
vt 0.944882 0.244094 
vt 0.921260 0.275591 
vt 0.889764 0.275591 
vt 0.905512 0.236220 
vt 0.889764 0.275591 
vt 0.889764 0.236220 
vt 0.905512 0.236220 
vt 0.889764 0.275591 
vt 0.905512 0.275591 
vt 0.889764 0.236220 
vt 0.905512 0.275591 
vt 0.905512 0.244094 
vt 0.889764 0.236220 
vt 0.905512 0.275591 
vt 0.937008 0.275591 
vt 0.905512 0.244094 
vt 0.937008 0.275591 
vt 0.944882 0.244094 
vt 0.905512 0.244094 
vt 0.944882 0.393701 
vt 0.897638 0.401575 
vt 0.937008 0.275591 
vt 0.897638 0.401575 
vt 0.921260 0.275591 
vt 0.937008 0.275591 
vt 0.897638 0.385827 
vt 0.874016 0.385827 
vt 0.921260 0.275591 
vt 0.874016 0.385827 
vt 0.889764 0.275591 
vt 0.921260 0.275591 
vt 0.874016 0.385827 
vt 0.897638 0.385827 
vt 0.889764 0.275591 
vt 0.897638 0.385827 
vt 0.905512 0.275591 
vt 0.889764 0.275591 
vt 0.897638 0.354331 
vt 0.944882 0.346457 
vt 0.905512 0.275591 
vt 0.944882 0.346457 
vt 0.937008 0.275591 
vt 0.905512 0.275591 
vt 0.897638 0.385827 
vt 0.921260 0.377953 
vt 0.897638 0.401575 
vt 0.874016 0.385827 
vt 0.897638 0.385827 
vt 0.897638 0.401575 
vt 0.897638 0.385827 
vt 0.874016 0.385827 
vt 0.897638 0.401575 
vt 0.921260 0.377953 
vt 0.897638 0.385827 
vt 0.897638 0.401575 
f 1/1/1 2/2/2 3/3/3
f 4/4/4 5/5/5 6/6/6
f 7/7/7 8/8/8 9/9/9
f 10/10/10 11/11/11 12/12/12
f 13/13/13 14/14/14 15/15/15
f 16/16/16 17/17/17 18/18/18
f 19/19/19 20/20/20 21/21/21
f 22/22/22 23/23/23 24/24/24
f 25/25/25 26/26/26 27/27/27
f 28/28/28 29/29/29 30/30/30
f 31/31/31 32/32/32 33/33/33
f 34/34/34 35/35/35 36/36/36
f 37/37/37 38/38/38 39/39/39
f 40/40/40 41/41/41 42/42/42
f 43/43/43 44/44/44 45/45/45
f 46/46/46 47/47/47 48/48/48
f 49/49/49 50/50/50 51/51/51
f 52/52/52 53/53/53 54/54/54
f 55/55/55 56/56/56 57/57/57
f 58/58/58 59/59/59 60/60/60
