v 17.000000 -60.000000 176.000000 
v 17.000000 -60.000000 192.000000 
v 0.000000 -66.000000 191.000000 
v 0.000000 -66.000000 191.000000 
v 0.000000 -66.000000 178.000000 
v 17.000000 -60.000000 176.000000 
v 17.000000 -16.000000 176.000000 
v 17.000000 -16.000000 192.000000 
v 17.000000 -60.000000 192.000000 
v 17.000000 -60.000000 192.000000 
v 17.000000 -60.000000 176.000000 
v 17.000000 -16.000000 176.000000 
v 0.000000 -11.000000 178.000000 
v 0.000000 -11.000000 191.000000 
v 17.000000 -16.000000 192.000000 
v 17.000000 -16.000000 192.000000 
v 17.000000 -16.000000 176.000000 
v 0.000000 -11.000000 178.000000 
v 11.000000 -56.000000 178.000000 
v 0.000000 -56.000000 178.000000 
v 0.000000 -56.000000 191.000000 
v 0.000000 -56.000000 191.000000 
v 11.000000 -56.000000 191.000000 
v 11.000000 -56.000000 178.000000 
v 11.000000 -21.000000 178.000000 
v 11.000000 -56.000000 178.000000 
v 11.000000 -56.000000 191.000000 
v 11.000000 -56.000000 191.000000 
v 11.000000 -24.000000 192.000000 
v 11.000000 -21.000000 178.000000 
v 0.000000 -22.000000 178.000000 
v 11.000000 -21.000000 178.000000 
v 11.000000 -24.000000 192.000000 
v 11.000000 -24.000000 192.000000 
v 0.000000 -22.000000 191.000000 
v 0.000000 -22.000000 178.000000 
v 11.000000 -56.000000 178.000000 
v 17.000000 -60.000000 176.000000 
v 0.000000 -66.000000 178.000000 
v 0.000000 -66.000000 178.000000 
v 0.000000 -56.000000 178.000000 
v 11.000000 -56.000000 178.000000 
v 11.000000 -21.000000 178.000000 
v 17.000000 -16.000000 176.000000 
v 17.000000 -60.000000 176.000000 
v 17.000000 -60.000000 176.000000 
v 11.000000 -56.000000 178.000000 
v 11.000000 -21.000000 178.000000 
v 0.000000 -22.000000 178.000000 
v 0.000000 -11.000000 178.000000 
v 17.000000 -16.000000 176.000000 
v 17.000000 -16.000000 176.000000 
v 11.000000 -21.000000 178.000000 
v 0.000000 -22.000000 178.000000 
v 11.000000 -24.000000 192.000000 
v 17.000000 -16.000000 192.000000 
v 0.000000 -11.000000 191.000000 
v 0.000000 -11.000000 191.000000 
v 0.000000 -22.000000 191.000000 
v 11.000000 -24.000000 192.000000 
v 11.000000 -56.000000 191.000000 
v 17.000000 -60.000000 192.000000 
v 17.000000 -16.000000 192.000000 
v 17.000000 -16.000000 192.000000 
v 11.000000 -24.000000 192.000000 
v 11.000000 -56.000000 191.000000 
v 0.000000 -56.000000 191.000000 
v 0.000000 -66.000000 191.000000 
v 17.000000 -60.000000 192.000000 
v 17.000000 -60.000000 192.000000 
v 11.000000 -56.000000 191.000000 
v 0.000000 -56.000000 191.000000 
vn 0.658691 -0.752197 0.000000 
vn 0.926514 -0.375977 0.000000 
vn 0.327393 -0.944824 0.000000 
vn 0.327393 -0.944824 0.000000 
vn 0.327393 -0.944824 0.000000 
vn 0.658691 -0.752197 0.000000 
vn 0.919189 0.393066 0.000000 
vn 0.617432 0.786377 0.000000 
vn 0.926514 -0.375977 0.000000 
vn 0.926514 -0.375977 0.000000 
vn 0.658691 -0.752197 0.000000 
vn 0.919189 0.393066 0.000000 
vn 0.258301 0.965820 0.000000 
vn 0.258301 0.965820 0.000000 
vn 0.617432 0.786377 0.000000 
vn 0.617432 0.786377 0.000000 
vn 0.919189 0.393066 0.000000 
vn 0.258301 0.965820 0.000000 
vn -0.443848 0.895996 0.000000 
vn 0.004395 0.999756 0.000000 
vn 0.004395 0.999756 0.000000 
vn 0.004395 0.999756 0.000000 
vn -0.897705 0.438965 -0.030518 
vn -0.443848 0.895996 0.000000 
vn -0.886719 -0.449219 -0.108643 
vn -0.443848 0.895996 0.000000 
vn -0.897705 0.438965 -0.030518 
vn -0.897705 0.438965 -0.030518 
vn -0.522461 -0.846191 -0.104248 
vn -0.886719 -0.449219 -0.108643 
vn -0.114502 -0.989258 -0.088867 
vn -0.886719 -0.449219 -0.108643 
vn -0.522461 -0.846191 -0.104248 
vn -0.522461 -0.846191 -0.104248 
vn -0.231201 -0.972656 0.000000 
vn -0.114502 -0.989258 -0.088867 
vn -0.171631 0.072998 -0.982178 
vn -0.281006 0.072510 -0.956787 
vn -0.090332 0.108887 -0.989746 
vn -0.090332 0.108887 -0.989746 
vn 0.000000 0.000000 -1.000000 
vn -0.171631 0.072998 -0.982178 
vn -0.223633 -0.102295 -0.968994 
vn -0.147949 -0.102051 -0.983643 
vn -0.281006 0.072510 -0.956787 
vn -0.281006 0.072510 -0.956787 
vn -0.171631 0.072998 -0.982178 
vn -0.223633 -0.102295 -0.968994 
vn -0.053955 -0.152100 -0.986816 
vn -0.107666 0.000244 -0.994141 
vn -0.147949 -0.102051 -0.983643 
vn -0.147949 -0.102051 -0.983643 
vn -0.223633 -0.102295 -0.968994 
vn -0.053955 -0.152100 -0.986816 
vn -0.041748 0.002930 0.999023 
vn -0.079834 0.002686 0.996582 
vn -0.086670 0.022217 0.995850 
vn -0.086670 0.022217 0.995850 
vn -0.113037 0.000244 0.993408 
vn -0.041748 0.002930 0.999023 
vn -0.059814 0.092773 0.993652 
vn -0.100342 0.104492 0.989258 
vn -0.079834 0.002686 0.996582 
vn -0.079834 0.002686 0.996582 
vn -0.041748 0.002930 0.999023 
vn -0.059814 0.092773 0.993652 
vn -0.035645 0.156250 0.986816 
vn -0.072021 0.000000 0.997314 
vn -0.100342 0.104492 0.989258 
vn -0.100342 0.104492 0.989258 
vn -0.059814 0.092773 0.993652 
vn -0.035645 0.156250 0.986816 
vt 0.299213 0.111111 
vt 0.299213 0.206349 
vt 0.299213 0.206349 
vt 0.299213 0.206349 
vt 0.299213 0.111111 
vt 0.299213 0.111111 
vt 0.118110 0.111111 
vt 0.118110 0.206349 
vt 0.299213 0.206349 
vt 0.299213 0.206349 
vt 0.299213 0.111111 
vt 0.118110 0.111111 
vt 0.118110 0.111111 
vt 0.118110 0.206349 
vt 0.118110 0.206349 
vt 0.118110 0.206349 
vt 0.118110 0.111111 
vt 0.118110 0.111111 
vt 0.267717 0.111111 
vt 0.267717 0.111111 
vt 0.267717 0.206349 
vt 0.267717 0.206349 
vt 0.267717 0.206349 
vt 0.267717 0.111111 
vt 0.149606 0.111111 
vt 0.267717 0.111111 
vt 0.267717 0.206349 
vt 0.267717 0.206349 
vt 0.149606 0.206349 
vt 0.149606 0.111111 
vt 0.149606 0.111111 
vt 0.149606 0.111111 
vt 0.149606 0.206349 
vt 0.149606 0.206349 
vt 0.149606 0.206349 
vt 0.149606 0.111111 
vt 0.267717 0.111111 
vt 0.299213 0.111111 
vt 0.299213 0.111111 
vt 0.299213 0.111111 
vt 0.267717 0.111111 
vt 0.267717 0.111111 
vt 0.149606 0.111111 
vt 0.118110 0.111111 
vt 0.299213 0.111111 
vt 0.299213 0.111111 
vt 0.267717 0.111111 
vt 0.149606 0.111111 
vt 0.149606 0.111111 
vt 0.118110 0.111111 
vt 0.118110 0.111111 
vt 0.118110 0.111111 
vt 0.149606 0.111111 
vt 0.149606 0.111111 
vt 0.149606 0.206349 
vt 0.118110 0.206349 
vt 0.118110 0.206349 
vt 0.118110 0.206349 
vt 0.149606 0.206349 
vt 0.149606 0.206349 
vt 0.267717 0.206349 
vt 0.299213 0.206349 
vt 0.118110 0.206349 
vt 0.118110 0.206349 
vt 0.149606 0.206349 
vt 0.267717 0.206349 
vt 0.267717 0.206349 
vt 0.299213 0.206349 
vt 0.299213 0.206349 
vt 0.299213 0.206349 
vt 0.267717 0.206349 
vt 0.267717 0.206349 
f 1/1/1 2/2/2 3/3/3
f 4/4/4 5/5/5 6/6/6
f 7/7/7 8/8/8 9/9/9
f 10/10/10 11/11/11 12/12/12
f 13/13/13 14/14/14 15/15/15
f 16/16/16 17/17/17 18/18/18
f 19/19/19 20/20/20 21/21/21
f 22/22/22 23/23/23 24/24/24
f 25/25/25 26/26/26 27/27/27
f 28/28/28 29/29/29 30/30/30
f 31/31/31 32/32/32 33/33/33
f 34/34/34 35/35/35 36/36/36
f 37/37/37 38/38/38 39/39/39
f 40/40/40 41/41/41 42/42/42
f 43/43/43 44/44/44 45/45/45
f 46/46/46 47/47/47 48/48/48
f 49/49/49 50/50/50 51/51/51
f 52/52/52 53/53/53 54/54/54
f 55/55/55 56/56/56 57/57/57
f 58/58/58 59/59/59 60/60/60
f 61/61/61 62/62/62 63/63/63
f 64/64/64 65/65/65 66/66/66
f 67/67/67 68/68/68 69/69/69
f 70/70/70 71/71/71 72/72/72
