v 0.000000 41.000000 -20.000000 
v -40.000000 29.000000 -14.000000 
v -68.000000 71.000000 -6.000000 
v -24.000000 90.000000 -19.000000 
v 0.000000 41.000000 -20.000000 
v -68.000000 71.000000 -6.000000 
v -5.000000 66.000000 -20.000000 
v -68.000000 71.000000 -6.000000 
v -40.000000 29.000000 -14.000000 
v 23.000000 90.000000 -19.000000 
v 0.000000 41.000000 -20.000000 
v -24.000000 90.000000 -19.000000 
v 39.000000 29.000000 -12.000000 
v 0.000000 41.000000 -20.000000 
v 23.000000 90.000000 -19.000000 
v 68.000000 70.000000 -4.000000 
v 39.000000 29.000000 -12.000000 
v 23.000000 90.000000 -19.000000 
v 68.000000 70.000000 -4.000000 
v -5.000000 66.000000 -20.000000 
v 39.000000 29.000000 -12.000000 
vn -0.073486 -0.037109 -0.996582 
vn -0.138916 -0.098877 -0.985107 
vn -0.374756 0.322754 -0.868896 
vn -0.305420 0.444580 -0.841797 
vn -0.073486 -0.037109 -0.996582 
vn -0.374756 0.322754 -0.868896 
vn 0.024170 -0.259766 0.965332 
vn 0.233154 -0.535400 0.811523 
vn 0.027100 -0.013184 0.999512 
vn 0.148682 0.415039 -0.897217 
vn -0.073486 -0.037109 -0.996582 
vn -0.305420 0.444580 -0.841797 
vn 0.216309 -0.080811 -0.972900 
vn -0.073486 -0.037109 -0.996582 
vn 0.148682 0.415039 -0.897217 
vn 0.440674 0.420654 -0.792725 
vn 0.216309 -0.080811 -0.972900 
vn 0.148682 0.415039 -0.897217 
vn -0.149902 -0.529297 0.834717 
vn 0.024170 -0.259766 0.965332 
vn -0.009521 0.004639 0.999756 
vt 0.444444 0.079365 
vt 0.206349 0.063492 
vt 0.079365 0.190476 
vt 0.285714 0.190476 
vt 0.444444 0.079365 
vt 0.079365 0.190476 
vt 0.492063 0.095238 
vt 0.793651 0.111111 
vt 0.746032 0.000000 
vt 0.603175 0.190476 
vt 0.444444 0.079365 
vt 0.285714 0.190476 
vt 0.761905 0.063492 
vt 0.444444 0.079365 
vt 0.603175 0.190476 
vt 0.888889 0.190476 
vt 0.761905 0.063492 
vt 0.603175 0.190476 
vt 0.253968 0.126984 
vt 0.492063 0.095238 
vt 0.301587 0.000000 
f 1/1/1 2/2/2 3/3/3
f 4/4/4 5/5/5 6/6/6
f 7/7/7 8/8/8 9/9/9
f 10/10/10 11/11/11 12/12/12
f 13/13/13 14/14/14 15/15/15
f 16/16/16 17/17/17 18/18/18
f 19/19/19 20/20/20 21/21/21
