v -14.000000 -14.000000 -12.000000 
v 1.000000 -12.000000 -24.000000 
v 14.000000 -14.000000 -16.000000 
v -14.000000 -14.000000 -12.000000 
v -8.000000 -12.000000 6.000000 
v -11.000000 -5.000000 7.000000 
v -11.000000 -5.000000 7.000000 
v -18.000000 -5.000000 -12.000000 
v -14.000000 -14.000000 -12.000000 
v -5.000000 -7.000000 29.000000 
v 15.000000 -9.000000 25.000000 
v -2.000000 0.000000 30.000000 
v 15.000000 0.000000 27.000000 
v -2.000000 0.000000 30.000000 
v 15.000000 -9.000000 25.000000 
v 14.000000 -14.000000 -16.000000 
v 7.000000 -13.000000 -27.000000 
v 18.000000 -5.000000 -17.000000 
v 8.000000 -5.000000 -30.000000 
v 18.000000 -5.000000 -17.000000 
v 7.000000 -13.000000 -27.000000 
v 7.000000 -13.000000 -27.000000 
v 1.000000 -12.000000 -24.000000 
v 8.000000 -5.000000 -30.000000 
v 1.000000 -5.000000 -25.000000 
v 8.000000 -5.000000 -30.000000 
v 1.000000 -12.000000 -24.000000 
v 1.000000 -12.000000 -24.000000 
v -12.000000 -12.000000 -22.000000 
v -14.000000 -5.000000 -23.000000 
v -14.000000 -5.000000 -23.000000 
v 1.000000 -5.000000 -25.000000 
v 1.000000 -12.000000 -24.000000 
v -12.000000 -12.000000 -22.000000 
v -14.000000 -14.000000 -12.000000 
v -18.000000 -5.000000 -12.000000 
v -18.000000 -5.000000 -12.000000 
v -14.000000 -5.000000 -23.000000 
v -12.000000 -12.000000 -22.000000 
v 5.000000 3.000000 -11.000000 
v 2.000000 2.000000 3.000000 
v 9.000000 0.000000 2.000000 
v 9.000000 0.000000 2.000000 
v 14.000000 3.000000 -12.000000 
v 5.000000 3.000000 -11.000000 
v 9.000000 -14.000000 15.000000 
v 13.000000 -14.000000 21.000000 
v -4.000000 -15.000000 16.000000 
v -3.000000 -14.000000 23.000000 
v -4.000000 -15.000000 16.000000 
v 13.000000 -14.000000 21.000000 
v -4.000000 -15.000000 16.000000 
v -3.000000 -14.000000 23.000000 
v -5.000000 -7.000000 29.000000 
v -2.000000 0.000000 30.000000 
v -7.000000 -5.000000 17.000000 
v -5.000000 -7.000000 29.000000 
v 14.000000 -5.000000 11.000000 
v 13.000000 -12.000000 3.000000 
v 16.000000 -5.000000 0.000000 
v 13.000000 -12.000000 3.000000 
v 14.000000 -5.000000 11.000000 
v 9.000000 -14.000000 15.000000 
v 3.000000 15.000000 18.000000 
v -4.000000 7.000000 13.000000 
v 0.000000 6.000000 25.000000 
v -9.000000 3.000000 -11.000000 
v -6.000000 0.000000 4.000000 
v 2.000000 2.000000 3.000000 
v -9.000000 3.000000 -11.000000 
v 2.000000 2.000000 3.000000 
v 5.000000 3.000000 -11.000000 
v 5.000000 3.000000 -11.000000 
v 1.000000 -2.000000 -24.000000 
v -12.000000 0.000000 -21.000000 
v 5.000000 3.000000 -11.000000 
v -12.000000 0.000000 -21.000000 
v -9.000000 3.000000 -11.000000 
v 6.000000 0.000000 -27.000000 
v 1.000000 -2.000000 -24.000000 
v 5.000000 3.000000 -11.000000 
v 6.000000 0.000000 -27.000000 
v 5.000000 3.000000 -11.000000 
v 14.000000 3.000000 -12.000000 
v -7.000000 -5.000000 17.000000 
v -4.000000 7.000000 13.000000 
v -6.000000 0.000000 4.000000 
v -6.000000 0.000000 4.000000 
v -11.000000 -5.000000 7.000000 
v -7.000000 -5.000000 17.000000 
v 15.000000 0.000000 27.000000 
v 11.000000 6.000000 23.000000 
v -2.000000 0.000000 30.000000 
v 0.000000 6.000000 25.000000 
v -2.000000 0.000000 30.000000 
v 11.000000 6.000000 23.000000 
v 14.000000 -5.000000 11.000000 
v 10.000000 7.000000 11.000000 
v 11.000000 6.000000 23.000000 
v 11.000000 6.000000 23.000000 
v 15.000000 0.000000 27.000000 
v 14.000000 -5.000000 11.000000 
v 8.000000 -5.000000 -30.000000 
v 6.000000 0.000000 -27.000000 
v 18.000000 -5.000000 -17.000000 
v 14.000000 3.000000 -12.000000 
v 18.000000 -5.000000 -17.000000 
v 6.000000 0.000000 -27.000000 
v 1.000000 -5.000000 -25.000000 
v 1.000000 -2.000000 -24.000000 
v 8.000000 -5.000000 -30.000000 
v 6.000000 0.000000 -27.000000 
v 8.000000 -5.000000 -30.000000 
v 1.000000 -2.000000 -24.000000 
v -14.000000 -5.000000 -23.000000 
v -12.000000 0.000000 -21.000000 
v 1.000000 -2.000000 -24.000000 
v 1.000000 -2.000000 -24.000000 
v 1.000000 -5.000000 -25.000000 
v -14.000000 -5.000000 -23.000000 
v -18.000000 -5.000000 -12.000000 
v -9.000000 3.000000 -11.000000 
v -12.000000 0.000000 -21.000000 
v -12.000000 0.000000 -21.000000 
v -14.000000 -5.000000 -23.000000 
v -18.000000 -5.000000 -12.000000 
v 18.000000 -5.000000 -17.000000 
v 14.000000 3.000000 -12.000000 
v 9.000000 0.000000 2.000000 
v 9.000000 0.000000 2.000000 
v 16.000000 -5.000000 0.000000 
v 18.000000 -5.000000 -17.000000 
v -8.000000 -12.000000 6.000000 
v -4.000000 -15.000000 16.000000 
v -11.000000 -5.000000 7.000000 
v -7.000000 -5.000000 17.000000 
v -11.000000 -5.000000 7.000000 
v -4.000000 -15.000000 16.000000 
v 13.000000 -12.000000 3.000000 
v 14.000000 -14.000000 -16.000000 
v 18.000000 -5.000000 -17.000000 
v 18.000000 -5.000000 -17.000000 
v 16.000000 -5.000000 0.000000 
v 13.000000 -12.000000 3.000000 
v 2.000000 2.000000 3.000000 
v -6.000000 0.000000 4.000000 
v -4.000000 7.000000 13.000000 
v -6.000000 0.000000 4.000000 
v -9.000000 3.000000 -11.000000 
v -11.000000 -5.000000 7.000000 
v -18.000000 -5.000000 -12.000000 
v -11.000000 -5.000000 7.000000 
v -9.000000 3.000000 -11.000000 
v 9.000000 0.000000 2.000000 
v 10.000000 7.000000 11.000000 
v 14.000000 -5.000000 11.000000 
v 14.000000 -5.000000 11.000000 
v 16.000000 -5.000000 0.000000 
v 9.000000 0.000000 2.000000 
v 13.000000 -12.000000 3.000000 
v -4.000000 -15.000000 16.000000 
v -8.000000 -12.000000 6.000000 
v 9.000000 -14.000000 15.000000 
v -4.000000 -15.000000 16.000000 
v 13.000000 -12.000000 3.000000 
v 13.000000 -12.000000 3.000000 
v -8.000000 -12.000000 6.000000 
v -14.000000 -14.000000 -12.000000 
v 13.000000 -12.000000 3.000000 
v -14.000000 -14.000000 -12.000000 
v 14.000000 -14.000000 -16.000000 
v 7.000000 -13.000000 -27.000000 
v 14.000000 -14.000000 -16.000000 
v 1.000000 -12.000000 -24.000000 
v 1.000000 -12.000000 -24.000000 
v -14.000000 -14.000000 -12.000000 
v -12.000000 -12.000000 -22.000000 
v 11.000000 6.000000 23.000000 
v 3.000000 15.000000 18.000000 
v 0.000000 6.000000 25.000000 
v 10.000000 7.000000 11.000000 
v 3.000000 15.000000 18.000000 
v 11.000000 6.000000 23.000000 
v 10.000000 7.000000 11.000000 
v -4.000000 7.000000 13.000000 
v 3.000000 15.000000 18.000000 
v 10.000000 7.000000 11.000000 
v 2.000000 2.000000 3.000000 
v -4.000000 7.000000 13.000000 
v 10.000000 7.000000 11.000000 
v 9.000000 0.000000 2.000000 
v 2.000000 2.000000 3.000000 
v -5.000000 -7.000000 29.000000 
v -7.000000 -5.000000 17.000000 
v -4.000000 -15.000000 16.000000 
v -3.000000 -14.000000 23.000000 
v 13.000000 -14.000000 21.000000 
v -5.000000 -7.000000 29.000000 
v 15.000000 -9.000000 25.000000 
v -5.000000 -7.000000 29.000000 
v 13.000000 -14.000000 21.000000 
v 15.000000 0.000000 27.000000 
v 15.000000 -9.000000 25.000000 
v 14.000000 -5.000000 11.000000 
v 15.000000 -9.000000 25.000000 
v 13.000000 -14.000000 21.000000 
v 9.000000 -14.000000 15.000000 
v 15.000000 -9.000000 25.000000 
v 9.000000 -14.000000 15.000000 
v 14.000000 -5.000000 11.000000 
v -7.000000 -5.000000 17.000000 
v -2.000000 0.000000 30.000000 
v 0.000000 6.000000 25.000000 
v -7.000000 -5.000000 17.000000 
v 0.000000 6.000000 25.000000 
v -4.000000 7.000000 13.000000 
vn -0.458008 -0.888428 0.024170 
vn -0.338135 -0.656738 -0.673584 
vn 0.359131 -0.927979 -0.096924 
vn -0.458008 -0.888428 0.024170 
vn -0.546875 -0.831543 0.095947 
vn -0.972412 0.054688 0.225586 
vn -0.972412 0.054688 0.225586 
vn -0.991943 0.116699 -0.048096 
vn -0.458008 -0.888428 0.024170 
vn -0.562500 -0.554443 0.612793 
vn 0.771729 -0.440674 0.458008 
vn -0.253906 0.384277 0.887451 
vn 0.792480 0.299072 0.531250 
vn -0.253906 0.384277 0.887451 
vn 0.771729 -0.440674 0.458008 
vn 0.359131 -0.927979 -0.096924 
vn 0.328125 -0.757080 -0.564453 
vn 0.985107 0.052490 -0.162354 
vn -0.263428 0.076172 -0.961426 
vn 0.985107 0.052490 -0.162354 
vn 0.328125 -0.757080 -0.564453 
vn 0.328125 -0.757080 -0.564453 
vn -0.338135 -0.656738 -0.673584 
vn -0.263428 0.076172 -0.961426 
vn -0.455322 0.182373 -0.871094 
vn -0.263428 0.076172 -0.961426 
vn -0.338135 -0.656738 -0.673584 
vn -0.338135 -0.656738 -0.673584 
vn -0.650391 -0.602051 -0.462891 
vn -0.513672 0.161377 -0.842285 
vn -0.513672 0.161377 -0.842285 
vn -0.455322 0.182373 -0.871094 
vn -0.338135 -0.656738 -0.673584 
vn -0.650391 -0.602051 -0.462891 
vn -0.458008 -0.888428 0.024170 
vn -0.991943 0.116699 -0.048096 
vn -0.991943 0.116699 -0.048096 
vn -0.513672 0.161377 -0.842285 
vn -0.650391 -0.602051 -0.462891 
vn -0.008789 0.996582 -0.081299 
vn -0.009033 0.990723 -0.134521 
vn 0.623779 0.781494 -0.004150 
vn 0.623779 0.781494 -0.004150 
vn 0.541260 0.839844 -0.037842 
vn -0.008789 0.996582 -0.081299 
vn 0.638672 -0.758057 -0.131592 
vn 0.299805 -0.929199 0.215088 
vn -0.543945 -0.837402 0.050049 
vn -0.328369 -0.893066 0.307129 
vn -0.543945 -0.837402 0.050049 
vn 0.299805 -0.929199 0.215088 
vn -0.543945 -0.837402 0.050049 
vn -0.328369 -0.893066 0.307129 
vn -0.562500 -0.554443 0.612793 
vn -0.253906 0.384277 0.887451 
vn -0.968262 0.193115 0.158203 
vn -0.562500 -0.554443 0.612793 
vn 0.998291 0.046143 -0.032471 
vn 0.543457 -0.838623 0.030518 
vn 0.978027 0.191895 0.080811 
vn 0.543457 -0.838623 0.030518 
vn 0.998291 0.046143 -0.032471 
vn 0.638672 -0.758057 -0.131592 
vn 0.007324 0.998779 0.047852 
vn -0.603516 0.779785 -0.164795 
vn -0.526855 0.704834 0.474609 
vn -0.422119 0.905029 0.049316 
vn -0.630127 0.775635 0.033203 
vn -0.009033 0.990723 -0.134521 
vn -0.422119 0.905029 0.049316 
vn -0.009033 0.990723 -0.134521 
vn -0.008789 0.996582 -0.081299 
vn -0.008789 0.996582 -0.081299 
vn -0.402588 0.623291 -0.669922 
vn -0.396729 0.829346 -0.392822 
vn -0.008789 0.996582 -0.081299 
vn -0.396729 0.829346 -0.392822 
vn -0.422119 0.905029 0.049316 
vn 0.090088 0.876953 -0.471680 
vn -0.402588 0.623291 -0.669922 
vn -0.008789 0.996582 -0.081299 
vn 0.090088 0.876953 -0.471680 
vn -0.008789 0.996582 -0.081299 
vn 0.541260 0.839844 -0.037842 
vn -0.968262 0.193115 0.158203 
vn -0.603516 0.779785 -0.164795 
vn -0.630127 0.775635 0.033203 
vn -0.630127 0.775635 0.033203 
vn -0.972412 0.054688 0.225586 
vn -0.968262 0.193115 0.158203 
vn 0.792480 0.299072 0.531250 
vn 0.622559 0.688477 0.371582 
vn -0.253906 0.384277 0.887451 
vn -0.526855 0.704834 0.474609 
vn -0.253906 0.384277 0.887451 
vn 0.622559 0.688477 0.371582 
vn 0.998291 0.046143 -0.032471 
vn 0.508301 0.798584 -0.321777 
vn 0.622559 0.688477 0.371582 
vn 0.622559 0.688477 0.371582 
vn 0.792480 0.299072 0.531250 
vn 0.998291 0.046143 -0.032471 
vn -0.263428 0.076172 -0.961426 
vn 0.090088 0.876953 -0.471680 
vn 0.985107 0.052490 -0.162354 
vn 0.541260 0.839844 -0.037842 
vn 0.985107 0.052490 -0.162354 
vn 0.090088 0.876953 -0.471680 
vn -0.455322 0.182373 -0.871094 
vn -0.402588 0.623291 -0.669922 
vn -0.263428 0.076172 -0.961426 
vn 0.090088 0.876953 -0.471680 
vn -0.263428 0.076172 -0.961426 
vn -0.402588 0.623291 -0.669922 
vn -0.513672 0.161377 -0.842285 
vn -0.396729 0.829346 -0.392822 
vn -0.402588 0.623291 -0.669922 
vn -0.402588 0.623291 -0.669922 
vn -0.455322 0.182373 -0.871094 
vn -0.513672 0.161377 -0.842285 
vn -0.991943 0.116699 -0.048096 
vn -0.422119 0.905029 0.049316 
vn -0.396729 0.829346 -0.392822 
vn -0.396729 0.829346 -0.392822 
vn -0.513672 0.161377 -0.842285 
vn -0.991943 0.116699 -0.048096 
vn 0.985107 0.052490 -0.162354 
vn 0.541260 0.839844 -0.037842 
vn 0.623779 0.781494 -0.004150 
vn 0.623779 0.781494 -0.004150 
vn 0.978027 0.191895 0.080811 
vn 0.985107 0.052490 -0.162354 
vn -0.546875 -0.831543 0.095947 
vn -0.543945 -0.837402 0.050049 
vn -0.972412 0.054688 0.225586 
vn -0.968262 0.193115 0.158203 
vn -0.972412 0.054688 0.225586 
vn -0.543945 -0.837402 0.050049 
vn 0.543457 -0.838623 0.030518 
vn 0.359131 -0.927979 -0.096924 
vn 0.985107 0.052490 -0.162354 
vn 0.985107 0.052490 -0.162354 
vn 0.978027 0.191895 0.080811 
vn 0.543457 -0.838623 0.030518 
vn -0.009033 0.990723 -0.134521 
vn -0.630127 0.775635 0.033203 
vn -0.603516 0.779785 -0.164795 
vn -0.630127 0.775635 0.033203 
vn -0.422119 0.905029 0.049316 
vn -0.972412 0.054688 0.225586 
vn -0.991943 0.116699 -0.048096 
vn -0.972412 0.054688 0.225586 
vn -0.422119 0.905029 0.049316 
vn 0.623779 0.781494 -0.004150 
vn 0.508301 0.798584 -0.321777 
vn 0.998291 0.046143 -0.032471 
vn 0.998291 0.046143 -0.032471 
vn 0.978027 0.191895 0.080811 
vn 0.623779 0.781494 -0.004150 
vn 0.543457 -0.838623 0.030518 
vn -0.543945 -0.837402 0.050049 
vn -0.546875 -0.831543 0.095947 
vn 0.638672 -0.758057 -0.131592 
vn -0.543945 -0.837402 0.050049 
vn 0.543457 -0.838623 0.030518 
vn 0.543457 -0.838623 0.030518 
vn -0.546875 -0.831543 0.095947 
vn -0.458008 -0.888428 0.024170 
vn 0.543457 -0.838623 0.030518 
vn -0.458008 -0.888428 0.024170 
vn 0.359131 -0.927979 -0.096924 
vn 0.328125 -0.757080 -0.564453 
vn 0.359131 -0.927979 -0.096924 
vn -0.338135 -0.656738 -0.673584 
vn -0.338135 -0.656738 -0.673584 
vn -0.458008 -0.888428 0.024170 
vn -0.650391 -0.602051 -0.462891 
vn 0.622559 0.688477 0.371582 
vn 0.007324 0.998779 0.047852 
vn -0.526855 0.704834 0.474609 
vn 0.508301 0.798584 -0.321777 
vn 0.007324 0.998779 0.047852 
vn 0.622559 0.688477 0.371582 
vn 0.508301 0.798584 -0.321777 
vn -0.603516 0.779785 -0.164795 
vn 0.007324 0.998779 0.047852 
vn 0.508301 0.798584 -0.321777 
vn -0.009033 0.990723 -0.134521 
vn -0.603516 0.779785 -0.164795 
vn 0.508301 0.798584 -0.321777 
vn 0.623779 0.781494 -0.004150 
vn -0.009033 0.990723 -0.134521 
vn -0.562500 -0.554443 0.612793 
vn -0.968262 0.193115 0.158203 
vn -0.543945 -0.837402 0.050049 
vn -0.328369 -0.893066 0.307129 
vn 0.299805 -0.929199 0.215088 
vn -0.562500 -0.554443 0.612793 
vn 0.771729 -0.440674 0.458008 
vn -0.562500 -0.554443 0.612793 
vn 0.299805 -0.929199 0.215088 
vn 0.792480 0.299072 0.531250 
vn 0.771729 -0.440674 0.458008 
vn 0.998291 0.046143 -0.032471 
vn 0.771729 -0.440674 0.458008 
vn 0.299805 -0.929199 0.215088 
vn 0.638672 -0.758057 -0.131592 
vn 0.771729 -0.440674 0.458008 
vn 0.638672 -0.758057 -0.131592 
vn 0.998291 0.046143 -0.032471 
vn -0.968262 0.193115 0.158203 
vn -0.253906 0.384277 0.887451 
vn -0.526855 0.704834 0.474609 
vn -0.968262 0.193115 0.158203 
vn -0.526855 0.704834 0.474609 
vn -0.603516 0.779785 -0.164795 
vt 0.645161 0.258065 
vt 0.290323 0.870968 
vt 0.064516 0.258065 
vt 0.645161 0.258065 
vt 0.580645 0.096774 
vt 0.612903 0.096774 
vt 0.612903 0.096774 
vt 0.709677 0.258065 
vt 0.645161 0.258065 
vt 0.548387 0.483871 
vt 0.096774 0.516129 
vt 0.483871 0.516129 
vt 0.129032 0.548387 
vt 0.483871 0.516129 
vt 0.096774 0.516129 
vt 0.064516 0.258065 
vt 0.161290 0.870968 
vt 0.000000 0.258065 
vt 0.129032 0.903226 
vt 0.000000 0.258065 
vt 0.161290 0.870968 
vt 0.161290 0.870968 
vt 0.290323 0.870968 
vt 0.129032 0.903226 
vt 0.290323 0.870968 
vt 0.129032 0.903226 
vt 0.290323 0.870968 
vt 0.290323 0.870968 
vt 0.580645 0.903226 
vt 0.612903 0.903226 
vt 0.612903 0.903226 
vt 0.290323 0.870968 
vt 0.290323 0.870968 
vt 0.580645 0.903226 
vt 0.645161 0.258065 
vt 0.709677 0.258065 
vt 0.709677 0.258065 
vt 0.612903 0.903226 
vt 0.580645 0.903226 
vt 0.258065 0.225806 
vt 0.354839 0.096774 
vt 0.193548 0.096774 
vt 0.193548 0.096774 
vt 0.064516 0.193548 
vt 0.258065 0.225806 
vt 0.225806 0.322581 
vt 0.161290 0.451613 
vt 0.483871 0.290323 
vt 0.483871 0.419355 
vt 0.483871 0.290323 
vt 0.161290 0.451613 
vt 0.483871 0.290323 
vt 0.483871 0.419355 
vt 0.548387 0.483871 
vt 0.483871 0.516129 
vt 0.580645 0.290323 
vt 0.548387 0.483871 
vt 0.096774 0.290323 
vt 0.129032 0.161290 
vt 0.064516 0.096774 
vt 0.129032 0.161290 
vt 0.096774 0.290323 
vt 0.225806 0.322581 
vt 0.322581 0.354839 
vt 0.483871 0.225806 
vt 0.419355 0.451613 
vt 0.548387 0.225806 
vt 0.516129 0.064516 
vt 0.354839 0.096774 
vt 0.548387 0.225806 
vt 0.354839 0.096774 
vt 0.258065 0.225806 
vt 0.258065 0.225806 
vt 0.290323 0.838710 
vt 0.580645 0.870968 
vt 0.258065 0.225806 
vt 0.580645 0.870968 
vt 0.548387 0.225806 
vt 0.161290 0.870968 
vt 0.290323 0.838710 
vt 0.258065 0.225806 
vt 0.161290 0.870968 
vt 0.258065 0.225806 
vt 0.064516 0.193548 
vt 0.580645 0.290323 
vt 0.483871 0.225806 
vt 0.516129 0.064516 
vt 0.516129 0.064516 
vt 0.612903 0.096774 
vt 0.580645 0.290323 
vt 0.129032 0.548387 
vt 0.193548 0.483871 
vt 0.483871 0.516129 
vt 0.419355 0.451613 
vt 0.483871 0.516129 
vt 0.193548 0.483871 
vt 0.096774 0.290323 
vt 0.193548 0.258065 
vt 0.193548 0.483871 
vt 0.193548 0.483871 
vt 0.129032 0.548387 
vt 0.096774 0.290323 
vt 0.129032 0.903226 
vt 0.161290 0.870968 
vt 0.000000 0.258065 
vt 0.064516 0.193548 
vt 0.000000 0.258065 
vt 0.161290 0.870968 
vt 0.290323 0.870968 
vt 0.290323 0.838710 
vt 0.129032 0.903226 
vt 0.161290 0.870968 
vt 0.129032 0.903226 
vt 0.290323 0.838710 
vt 0.612903 0.903226 
vt 0.580645 0.870968 
vt 0.290323 0.838710 
vt 0.290323 0.838710 
vt 0.290323 0.870968 
vt 0.612903 0.903226 
vt 0.709677 0.258065 
vt 0.548387 0.225806 
vt 0.580645 0.870968 
vt 0.580645 0.870968 
vt 0.612903 0.903226 
vt 0.709677 0.258065 
vt 0.000000 0.258065 
vt 0.064516 0.193548 
vt 0.193548 0.096774 
vt 0.193548 0.096774 
vt 0.064516 0.096774 
vt 0.000000 0.258065 
vt 0.580645 0.096774 
vt 0.483871 0.290323 
vt 0.612903 0.096774 
vt 0.580645 0.290323 
vt 0.612903 0.096774 
vt 0.483871 0.290323 
vt 0.129032 0.161290 
vt 0.064516 0.258065 
vt 0.000000 0.258065 
vt 0.000000 0.258065 
vt 0.064516 0.096774 
vt 0.129032 0.161290 
vt 0.354839 0.096774 
vt 0.516129 0.064516 
vt 0.483871 0.225806 
vt 0.516129 0.064516 
vt 0.548387 0.225806 
vt 0.612903 0.096774 
vt 0.709677 0.258065 
vt 0.612903 0.096774 
vt 0.548387 0.225806 
vt 0.193548 0.096774 
vt 0.193548 0.258065 
vt 0.096774 0.290323 
vt 0.096774 0.290323 
vt 0.064516 0.096774 
vt 0.193548 0.096774 
vt 0.129032 0.161290 
vt 0.483871 0.290323 
vt 0.580645 0.096774 
vt 0.225806 0.322581 
vt 0.483871 0.290323 
vt 0.129032 0.161290 
vt 0.129032 0.161290 
vt 0.580645 0.096774 
vt 0.645161 0.258065 
vt 0.129032 0.161290 
vt 0.645161 0.258065 
vt 0.064516 0.258065 
vt 0.161290 0.870968 
vt 0.064516 0.258065 
vt 0.290323 0.870968 
vt 0.290323 0.870968 
vt 0.645161 0.258065 
vt 0.580645 0.903226 
vt 0.193548 0.483871 
vt 0.322581 0.354839 
vt 0.419355 0.451613 
vt 0.193548 0.258065 
vt 0.322581 0.354839 
vt 0.193548 0.483871 
vt 0.193548 0.258065 
vt 0.483871 0.225806 
vt 0.322581 0.354839 
vt 0.193548 0.258065 
vt 0.354839 0.096774 
vt 0.483871 0.225806 
vt 0.193548 0.258065 
vt 0.193548 0.096774 
vt 0.354839 0.096774 
vt 0.548387 0.483871 
vt 0.580645 0.290323 
vt 0.483871 0.290323 
vt 0.483871 0.419355 
vt 0.161290 0.451613 
vt 0.548387 0.483871 
vt 0.096774 0.516129 
vt 0.548387 0.483871 
vt 0.161290 0.451613 
vt 0.129032 0.548387 
vt 0.096774 0.516129 
vt 0.096774 0.290323 
vt 0.096774 0.516129 
vt 0.161290 0.451613 
vt 0.225806 0.322581 
vt 0.096774 0.516129 
vt 0.225806 0.322581 
vt 0.096774 0.290323 
vt 0.580645 0.290323 
vt 0.483871 0.516129 
vt 0.419355 0.451613 
vt 0.580645 0.290323 
vt 0.419355 0.451613 
vt 0.483871 0.225806 
f 1/1/1 2/2/2 3/3/3
f 4/4/4 5/5/5 6/6/6
f 7/7/7 8/8/8 9/9/9
f 10/10/10 11/11/11 12/12/12
f 13/13/13 14/14/14 15/15/15
f 16/16/16 17/17/17 18/18/18
f 19/19/19 20/20/20 21/21/21
f 22/22/22 23/23/23 24/24/24
f 25/25/25 26/26/26 27/27/27
f 28/28/28 29/29/29 30/30/30
f 31/31/31 32/32/32 33/33/33
f 34/34/34 35/35/35 36/36/36
f 37/37/37 38/38/38 39/39/39
f 40/40/40 41/41/41 42/42/42
f 43/43/43 44/44/44 45/45/45
f 46/46/46 47/47/47 48/48/48
f 49/49/49 50/50/50 51/51/51
f 52/52/52 53/53/53 54/54/54
f 55/55/55 56/56/56 57/57/57
f 58/58/58 59/59/59 60/60/60
f 61/61/61 62/62/62 63/63/63
f 64/64/64 65/65/65 66/66/66
f 67/67/67 68/68/68 69/69/69
f 70/70/70 71/71/71 72/72/72
f 73/73/73 74/74/74 75/75/75
f 76/76/76 77/77/77 78/78/78
f 79/79/79 80/80/80 81/81/81
f 82/82/82 83/83/83 84/84/84
f 85/85/85 86/86/86 87/87/87
f 88/88/88 89/89/89 90/90/90
f 91/91/91 92/92/92 93/93/93
f 94/94/94 95/95/95 96/96/96
f 97/97/97 98/98/98 99/99/99
f 100/100/100 101/101/101 102/102/102
f 103/103/103 104/104/104 105/105/105
f 106/106/106 107/107/107 108/108/108
f 109/109/109 110/110/110 111/111/111
f 112/112/112 113/113/113 114/114/114
f 115/115/115 116/116/116 117/117/117
f 118/118/118 119/119/119 120/120/120
f 121/121/121 122/122/122 123/123/123
f 124/124/124 125/125/125 126/126/126
f 127/127/127 128/128/128 129/129/129
f 130/130/130 131/131/131 132/132/132
f 133/133/133 134/134/134 135/135/135
f 136/136/136 137/137/137 138/138/138
f 139/139/139 140/140/140 141/141/141
f 142/142/142 143/143/143 144/144/144
f 145/145/145 146/146/146 147/147/147
f 148/148/148 149/149/149 150/150/150
f 151/151/151 152/152/152 153/153/153
f 154/154/154 155/155/155 156/156/156
f 157/157/157 158/158/158 159/159/159
f 160/160/160 161/161/161 162/162/162
f 163/163/163 164/164/164 165/165/165
f 166/166/166 167/167/167 168/168/168
f 169/169/169 170/170/170 171/171/171
f 172/172/172 173/173/173 174/174/174
f 175/175/175 176/176/176 177/177/177
f 178/178/178 179/179/179 180/180/180
f 181/181/181 182/182/182 183/183/183
f 184/184/184 185/185/185 186/186/186
f 187/187/187 188/188/188 189/189/189
f 190/190/190 191/191/191 192/192/192
f 193/193/193 194/194/194 195/195/195
f 196/196/196 197/197/197 198/198/198
f 199/199/199 200/200/200 201/201/201
f 202/202/202 203/203/203 204/204/204
f 205/205/205 206/206/206 207/207/207
f 208/208/208 209/209/209 210/210/210
f 211/211/211 212/212/212 213/213/213
f 214/214/214 215/215/215 216/216/216
