v 23.000000 92.000000 -20.000000 
v -25.000000 92.000000 -20.000000 
v -28.000000 128.000000 3.000000 
v 27.000000 127.000000 3.000000 
v 23.000000 92.000000 -20.000000 
v -28.000000 128.000000 3.000000 
v 67.000000 70.000000 -5.000000 
v 23.000000 92.000000 -20.000000 
v 27.000000 127.000000 3.000000 
v 78.000000 103.000000 21.000000 
v 67.000000 70.000000 -5.000000 
v 27.000000 127.000000 3.000000 
v -1.000000 42.000000 -21.000000 
v -41.000000 31.000000 -15.000000 
v -69.000000 73.000000 -7.000000 
v -25.000000 92.000000 -20.000000 
v -1.000000 42.000000 -21.000000 
v -69.000000 73.000000 -7.000000 
v -6.000000 67.000000 -21.000000 
v -69.000000 73.000000 -7.000000 
v -41.000000 31.000000 -15.000000 
v 23.000000 92.000000 -20.000000 
v -1.000000 42.000000 -21.000000 
v -25.000000 92.000000 -20.000000 
v 38.000000 30.000000 -13.000000 
v -1.000000 42.000000 -21.000000 
v 23.000000 92.000000 -20.000000 
v 67.000000 70.000000 -5.000000 
v 38.000000 30.000000 -13.000000 
v 23.000000 92.000000 -20.000000 
v 67.000000 70.000000 -5.000000 
v -6.000000 67.000000 -21.000000 
v 38.000000 30.000000 -13.000000 
vn 0.143555 0.514648 -0.845215 
vn -0.281494 0.550781 -0.785645 
vn -0.239014 0.839111 -0.488525 
vn 0.182617 0.847900 -0.497314 
vn 0.143555 0.514648 -0.845215 
vn -0.239014 0.839111 -0.488525 
vn 0.418213 0.517578 -0.746094 
vn 0.143555 0.514648 -0.845215 
vn 0.182617 0.847900 -0.497314 
vn 0.408447 0.818604 -0.403076 
vn 0.418213 0.517578 -0.746094 
vn 0.182617 0.847900 -0.497314 
vn -0.073730 -0.048096 -0.996094 
vn -0.139404 -0.128418 -0.981689 
vn -0.358154 0.414307 -0.836426 
vn -0.281494 0.550781 -0.785645 
vn -0.073730 -0.048096 -0.996094 
vn -0.358154 0.414307 -0.836426 
vn 0.021240 -0.334717 0.941895 
vn 0.207275 -0.643555 0.736328 
vn 0.027100 -0.017822 0.999268 
vn 0.143555 0.514648 -0.845215 
vn -0.073730 -0.048096 -0.996094 
vn -0.281494 0.550781 -0.785645 
vn 0.215088 -0.108887 -0.970459 
vn -0.073730 -0.048096 -0.996094 
vn 0.143555 0.514648 -0.845215 
vn 0.418213 0.517578 -0.746094 
vn 0.215088 -0.108887 -0.970459 
vn 0.143555 0.514648 -0.845215 
vn -0.140625 -0.634521 0.759766 
vn 0.021240 -0.334717 0.941895 
vn -0.009521 0.006348 0.999756 
vt 0.603175 0.190476 
vt 0.285714 0.190476 
vt 0.285714 0.365079 
vt 0.603175 0.365079 
vt 0.603175 0.190476 
vt 0.285714 0.365079 
vt 0.888889 0.190476 
vt 0.603175 0.190476 
vt 0.603175 0.365079 
vt 0.920635 0.365079 
vt 0.888889 0.190476 
vt 0.603175 0.365079 
vt 0.444444 0.079365 
vt 0.206349 0.063492 
vt 0.079365 0.190476 
vt 0.285714 0.190476 
vt 0.444444 0.079365 
vt 0.079365 0.190476 
vt 0.492063 0.095238 
vt 0.793651 0.111111 
vt 0.746032 0.000000 
vt 0.603175 0.190476 
vt 0.444444 0.079365 
vt 0.285714 0.190476 
vt 0.761905 0.063492 
vt 0.444444 0.079365 
vt 0.603175 0.190476 
vt 0.888889 0.190476 
vt 0.761905 0.063492 
vt 0.603175 0.190476 
vt 0.253968 0.126984 
vt 0.492063 0.095238 
vt 0.301587 0.000000 
f 1/1/1 2/2/2 3/3/3
f 4/4/4 5/5/5 6/6/6
f 7/7/7 8/8/8 9/9/9
f 10/10/10 11/11/11 12/12/12
f 13/13/13 14/14/14 15/15/15
f 16/16/16 17/17/17 18/18/18
f 19/19/19 20/20/20 21/21/21
f 22/22/22 23/23/23 24/24/24
f 25/25/25 26/26/26 27/27/27
f 28/28/28 29/29/29 30/30/30
f 31/31/31 32/32/32 33/33/33
