v -24.000000 48.000000 -26.000000 
v -68.000000 64.000000 -9.000000 
v -38.000000 107.000000 -5.000000 
v 0.000000 97.000000 -14.000000 
v -24.000000 48.000000 -26.000000 
v -38.000000 107.000000 -5.000000 
v 1.000000 25.000000 -16.000000 
v -38.000000 107.000000 -5.000000 
v -68.000000 64.000000 -9.000000 
v 23.000000 47.000000 -26.000000 
v -24.000000 48.000000 -26.000000 
v 0.000000 97.000000 -14.000000 
v 37.000000 107.000000 -3.000000 
v 23.000000 47.000000 -26.000000 
v 0.000000 97.000000 -14.000000 
v 68.000000 65.000000 -6.000000 
v 23.000000 47.000000 -26.000000 
v 37.000000 107.000000 -3.000000 
v 37.000000 107.000000 -3.000000 
v 1.000000 25.000000 -16.000000 
v 68.000000 65.000000 -6.000000 
v 1.000000 25.000000 -16.000000 
v -68.000000 64.000000 -9.000000 
v -79.000000 20.000000 14.000000 
vn -0.165039 -0.195068 -0.966553 
vn -0.372070 -0.239990 -0.896484 
vn -0.196289 -0.035645 -0.979736 
vn -0.010742 0.000244 -0.999756 
vn -0.165039 -0.195068 -0.966553 
vn -0.196289 -0.035645 -0.979736 
vn 0.023193 0.410156 0.911621 
vn 0.002930 0.147461 0.989014 
vn 0.181152 0.253174 0.950195 
vn 0.196289 -0.172607 -0.965088 
vn -0.165039 -0.195068 -0.966553 
vn -0.010742 0.000244 -0.999756 
vn 0.213135 0.011963 -0.976807 
vn 0.196289 -0.172607 -0.965088 
vn -0.010742 0.000244 -0.999756 
vn 0.342773 -0.151611 -0.927002 
vn 0.196289 -0.172607 -0.965088 
vn 0.213135 0.011963 -0.976807 
vn -0.007812 0.113281 0.993408 
vn 0.023193 0.410156 0.911621 
vn -0.146729 0.243652 0.958496 
vn 0.023193 0.410156 0.911621 
vn 0.181152 0.253174 0.950195 
vn 0.236084 0.542725 0.805908 
vt 0.285714 0.571429 
vt 0.047619 0.571429 
vt 0.095238 0.714286 
vt 0.444444 0.714286 
vt 0.285714 0.571429 
vt 0.095238 0.714286 
vt 0.492063 0.444444 
vt 0.777778 0.682540 
vt 0.793651 0.507937 
vt 0.587302 0.571429 
vt 0.285714 0.571429 
vt 0.444444 0.714286 
vt 0.888889 0.714286 
vt 0.587302 0.571429 
vt 0.444444 0.714286 
vt 0.920635 0.571429 
vt 0.587302 0.571429 
vt 0.888889 0.714286 
vt 0.269841 0.730159 
vt 0.492063 0.444444 
vt 0.253968 0.523810 
vt 0.492063 0.444444 
vt 0.793651 0.507937 
vt 0.793651 0.285714 
f 1/1/1 2/2/2 3/3/3
f 4/4/4 5/5/5 6/6/6
f 7/7/7 8/8/8 9/9/9
f 10/10/10 11/11/11 12/12/12
f 13/13/13 14/14/14 15/15/15
f 16/16/16 17/17/17 18/18/18
f 19/19/19 20/20/20 21/21/21
f 22/22/22 23/23/23 24/24/24
