v 30.000000 -30.000000 -335.000000 
v 22.000000 -86.000000 -332.000000 
v -6.000000 -88.000000 -329.000000 
v -80.000000 -83.000000 -327.000000 
v -72.000000 -28.000000 -332.000000 
v -54.000000 -30.000000 -336.000000 
v -72.000000 -28.000000 -332.000000 
v 75.000000 -28.000000 -188.000000 
v -71.000000 -34.000000 -211.000000 
v 75.000000 -28.000000 -188.000000 
v -72.000000 -28.000000 -332.000000 
v -54.000000 -30.000000 -336.000000 
v 75.000000 -28.000000 -188.000000 
v 67.000000 -93.000000 -221.000000 
v 66.000000 -85.000000 -329.000000 
v 74.000000 -29.000000 -330.000000 
v 75.000000 -28.000000 -188.000000 
v 66.000000 -85.000000 -329.000000 
v -71.000000 -34.000000 -211.000000 
v -72.000000 -28.000000 -332.000000 
v -80.000000 -83.000000 -327.000000 
v -71.000000 -96.000000 -234.000000 
v -71.000000 -34.000000 -211.000000 
v -80.000000 -83.000000 -327.000000 
v -54.000000 -30.000000 -336.000000 
v -62.000000 -87.000000 -334.000000 
v -80.000000 -83.000000 -327.000000 
v -71.000000 -96.000000 -234.000000 
v -80.000000 -83.000000 -327.000000 
v -62.000000 -87.000000 -334.000000 
v 66.000000 -85.000000 -329.000000 
v 67.000000 -93.000000 -221.000000 
v 36.000000 -94.000000 -285.000000 
v -43.000000 -87.000000 -332.000000 
v -44.000000 -99.000000 -239.000000 
v -71.000000 -96.000000 -234.000000 
v -7.000000 -100.000000 -240.000000 
v -6.000000 -88.000000 -329.000000 
v 22.000000 -86.000000 -332.000000 
v -6.000000 -88.000000 -329.000000 
v 1.000000 -32.000000 -334.000000 
v 30.000000 -30.000000 -335.000000 
v 75.000000 -28.000000 -188.000000 
v 1.000000 -32.000000 -334.000000 
v 30.000000 -30.000000 -335.000000 
v 1.000000 -32.000000 -334.000000 
v -6.000000 -88.000000 -329.000000 
v -43.000000 -87.000000 -332.000000 
v -44.000000 -99.000000 -239.000000 
v -43.000000 -87.000000 -332.000000 
v -6.000000 -88.000000 -329.000000 
v -43.000000 -87.000000 -332.000000 
v -35.000000 -31.000000 -335.000000 
v 1.000000 -32.000000 -334.000000 
v 75.000000 -28.000000 -188.000000 
v -35.000000 -31.000000 -335.000000 
v 1.000000 -32.000000 -334.000000 
v 52.000000 -30.000000 -335.000000 
v 44.000000 -87.000000 -334.000000 
v 22.000000 -86.000000 -332.000000 
v 36.000000 -94.000000 -285.000000 
v 22.000000 -86.000000 -332.000000 
v 44.000000 -87.000000 -334.000000 
v 22.000000 -86.000000 -332.000000 
v 30.000000 -30.000000 -335.000000 
v 52.000000 -30.000000 -335.000000 
v 75.000000 -28.000000 -188.000000 
v 30.000000 -30.000000 -335.000000 
v 52.000000 -30.000000 -335.000000 
v -35.000000 -31.000000 -335.000000 
v -43.000000 -87.000000 -332.000000 
v -62.000000 -87.000000 -334.000000 
v -71.000000 -96.000000 -234.000000 
v -62.000000 -87.000000 -334.000000 
v -43.000000 -87.000000 -332.000000 
v -62.000000 -87.000000 -334.000000 
v -54.000000 -30.000000 -336.000000 
v -35.000000 -31.000000 -335.000000 
v 75.000000 -28.000000 -188.000000 
v -54.000000 -30.000000 -336.000000 
v -35.000000 -31.000000 -335.000000 
v 74.000000 -29.000000 -330.000000 
v 66.000000 -85.000000 -329.000000 
v 44.000000 -87.000000 -334.000000 
v 36.000000 -94.000000 -285.000000 
v 44.000000 -87.000000 -334.000000 
v 66.000000 -85.000000 -329.000000 
v 44.000000 -87.000000 -334.000000 
v 52.000000 -30.000000 -335.000000 
v 74.000000 -29.000000 -330.000000 
v 75.000000 -28.000000 -188.000000 
v 52.000000 -30.000000 -335.000000 
v 74.000000 -29.000000 -330.000000 
v -6.000000 -88.000000 -329.000000 
v -7.000000 -100.000000 -240.000000 
v -44.000000 -99.000000 -239.000000 
v -7.000000 -100.000000 -240.000000 
v 22.000000 -86.000000 -332.000000 
v 36.000000 -94.000000 -285.000000 
v 36.000000 -94.000000 -285.000000 
v 67.000000 -93.000000 -221.000000 
v 36.000000 -97.000000 -228.000000 
v 36.000000 -94.000000 -285.000000 
v 36.000000 -97.000000 -228.000000 
v -7.000000 -100.000000 -240.000000 
vn -0.018799 -0.590332 -0.806641 
vn -0.037354 -0.666260 -0.744629 
vn -0.010742 -0.689209 -0.724365 
vn -0.784424 -0.263672 -0.561279 
vn -0.491455 -0.783691 -0.379395 
vn -0.166992 -0.589844 -0.789795 
vn -0.491455 -0.783691 -0.379395 
vn 0.265137 -0.963867 0.015137 
vn -0.910889 -0.410645 0.033691 
vn 0.265137 -0.963867 0.015137 
vn -0.491455 -0.783691 -0.379395 
vn -0.166992 -0.589844 -0.789795 
vn 0.265137 -0.963867 0.015137 
vn 0.516113 -0.854248 -0.061035 
vn 0.676514 -0.648682 -0.347900 
vn 0.528564 -0.459229 -0.713623 
vn 0.265137 -0.963867 0.015137 
vn 0.676514 -0.648682 -0.347900 
vn -0.910889 -0.410645 0.033691 
vn -0.491455 -0.783691 -0.379395 
vn -0.784424 -0.263672 -0.561279 
vn -0.396973 -0.915039 -0.068848 
vn -0.910889 -0.410645 0.033691 
vn -0.784424 -0.263672 -0.561279 
vn -0.166992 -0.589844 -0.789795 
vn -0.115234 -0.541992 -0.832275 
vn -0.784424 -0.263672 -0.561279 
vn -0.396973 -0.915039 -0.068848 
vn -0.784424 -0.263672 -0.561279 
vn -0.115234 -0.541992 -0.832275 
vn 0.676514 -0.648682 -0.347900 
vn 0.516113 -0.854248 -0.061035 
vn 0.067139 -0.992432 -0.102295 
vn 0.014160 -0.694580 -0.718994 
vn -0.050293 -0.990479 -0.127441 
vn -0.396973 -0.915039 -0.068848 
vn 0.012695 -0.992676 -0.119141 
vn -0.010742 -0.689209 -0.724365 
vn -0.037354 -0.666260 -0.744629 
vn -0.010742 -0.689209 -0.724365 
vn 0.030518 -0.608398 -0.792725 
vn -0.018799 -0.590332 -0.806641 
vn 0.265137 -0.963867 0.015137 
vn 0.030518 -0.608398 -0.792725 
vn -0.018799 -0.590332 -0.806641 
vn 0.030518 -0.608398 -0.792725 
vn -0.010742 -0.689209 -0.724365 
vn 0.014160 -0.694580 -0.718994 
vn -0.050293 -0.990479 -0.127441 
vn 0.014160 -0.694580 -0.718994 
vn -0.010742 -0.689209 -0.724365 
vn 0.014160 -0.694580 -0.718994 
vn 0.019531 -0.597168 -0.801514 
vn 0.030518 -0.608398 -0.792725 
vn 0.265137 -0.963867 0.015137 
vn 0.019531 -0.597168 -0.801514 
vn 0.030518 -0.608398 -0.792725 
vn 0.060059 -0.585449 -0.808105 
vn 0.104248 -0.541260 -0.834229 
vn -0.037354 -0.666260 -0.744629 
vn 0.067139 -0.992432 -0.102295 
vn -0.037354 -0.666260 -0.744629 
vn 0.104248 -0.541260 -0.834229 
vn -0.037354 -0.666260 -0.744629 
vn -0.018799 -0.590332 -0.806641 
vn 0.060059 -0.585449 -0.808105 
vn 0.265137 -0.963867 0.015137 
vn -0.018799 -0.590332 -0.806641 
vn 0.060059 -0.585449 -0.808105 
vn 0.019531 -0.597168 -0.801514 
vn 0.014160 -0.694580 -0.718994 
vn -0.115234 -0.541992 -0.832275 
vn -0.396973 -0.915039 -0.068848 
vn -0.115234 -0.541992 -0.832275 
vn 0.014160 -0.694580 -0.718994 
vn -0.115234 -0.541992 -0.832275 
vn -0.166992 -0.589844 -0.789795 
vn 0.019531 -0.597168 -0.801514 
vn 0.265137 -0.963867 0.015137 
vn -0.166992 -0.589844 -0.789795 
vn 0.019531 -0.597168 -0.801514 
vn 0.528564 -0.459229 -0.713623 
vn 0.676514 -0.648682 -0.347900 
vn 0.104248 -0.541260 -0.834229 
vn 0.067139 -0.992432 -0.102295 
vn 0.104248 -0.541260 -0.834229 
vn 0.676514 -0.648682 -0.347900 
vn 0.104248 -0.541260 -0.834229 
vn 0.060059 -0.585449 -0.808105 
vn 0.528564 -0.459229 -0.713623 
vn 0.265137 -0.963867 0.015137 
vn 0.060059 -0.585449 -0.808105 
vn 0.528564 -0.459229 -0.713623 
vn -0.010742 -0.689209 -0.724365 
vn 0.012695 -0.992676 -0.119141 
vn -0.050293 -0.990479 -0.127441 
vn 0.012695 -0.992676 -0.119141 
vn -0.037354 -0.666260 -0.744629 
vn 0.067139 -0.992432 -0.102295 
vn 0.067139 -0.992432 -0.102295 
vn 0.516113 -0.854248 -0.061035 
vn 0.097900 -0.993896 -0.048096 
vn 0.067139 -0.992432 -0.102295 
vn 0.097900 -0.993896 -0.048096 
vn 0.012695 -0.992676 -0.119141 
vt 0.000000 0.125984 
vt 0.503937 0.125984 
vt 0.503937 0.244094 
vt 0.503937 0.480315 
vt 0.000000 0.480315 
vt 0.000000 0.425197 
vt 0.503937 0.503937 
vt 0.039370 -0.007874 
vt 0.503937 -0.007874 
vt 0.039370 -0.007874 
vt 0.503937 0.503937 
vt 0.448819 0.503937 
vt 0.039370 -0.007874 
vt 0.952756 -0.007874 
vt 0.503937 0.000000 
vt 0.000000 0.000000 
vt 0.039370 -0.007874 
vt 0.503937 0.000000 
vt 0.488189 0.472441 
vt 0.488189 0.000000 
vt 0.000000 0.007874 
vt 0.000000 0.472441 
vt 0.488189 0.472441 
vt 0.000000 0.007874 
vt 0.000000 0.425197 
vt 0.503937 0.425197 
vt 0.503937 0.480315 
vt 0.496063 -0.007874 
vt 0.496063 0.488189 
vt 0.551181 0.488189 
vt 0.952756 0.488189 
vt 0.952756 -0.007874 
vt 0.834646 0.236220 
vt 0.614173 0.488189 
vt 0.606299 -0.007874 
vt 0.496063 -0.007874 
vt 0.724409 -0.007874 
vt 0.724409 0.488189 
vt 0.842520 0.488189 
vt 0.503937 0.244094 
vt 0.000000 0.244094 
vt 0.000000 0.125984 
vt 0.039370 -0.007874 
vt 0.275591 0.503937 
vt 0.157480 0.503937 
vt 0.000000 0.244094 
vt 0.503937 0.244094 
vt 0.503937 0.362205 
vt 0.606299 -0.007874 
vt 0.614173 0.488189 
vt 0.724409 0.488189 
vt 0.503937 0.362205 
vt 0.000000 0.362205 
vt 0.000000 0.244094 
vt 0.039370 -0.007874 
vt 0.385827 0.503937 
vt 0.275591 0.503937 
vt 0.000000 0.062992 
vt 0.503937 0.062992 
vt 0.503937 0.125984 
vt 0.834646 0.236220 
vt 0.842520 0.488189 
vt 0.897638 0.488189 
vt 0.503937 0.125984 
vt 0.000000 0.125984 
vt 0.000000 0.062992 
vt 0.039370 -0.007874 
vt 0.157480 0.503937 
vt 0.102362 0.503937 
vt 0.000000 0.362205 
vt 0.503937 0.362205 
vt 0.503937 0.425197 
vt 0.496063 -0.007874 
vt 0.551181 0.488189 
vt 0.614173 0.488189 
vt 0.503937 0.425197 
vt 0.000000 0.425197 
vt 0.000000 0.362205 
vt 0.039370 -0.007874 
vt 0.448819 0.503937 
vt 0.385827 0.503937 
vt 0.000000 0.000000 
vt 0.503937 0.000000 
vt 0.503937 0.062992 
vt 0.834646 0.236220 
vt 0.897638 0.488189 
vt 0.952756 0.488189 
vt 0.503937 0.062992 
vt 0.000000 0.062992 
vt 0.000000 0.000000 
vt 0.039370 -0.007874 
vt 0.102362 0.503937 
vt 0.047244 0.503937 
vt 0.724409 0.488189 
vt 0.724409 -0.007874 
vt 0.606299 -0.007874 
vt 0.724409 -0.007874 
vt 0.842520 0.488189 
vt 0.834646 0.236220 
vt 0.834646 0.236220 
vt 0.952756 -0.007874 
vt 0.834646 -0.007874 
vt 0.834646 0.236220 
vt 0.834646 -0.007874 
vt 0.724409 -0.007874 
f 1/1/1 2/2/2 3/3/3
f 4/4/4 5/5/5 6/6/6
f 7/7/7 8/8/8 9/9/9
f 10/10/10 11/11/11 12/12/12
f 13/13/13 14/14/14 15/15/15
f 16/16/16 17/17/17 18/18/18
f 19/19/19 20/20/20 21/21/21
f 22/22/22 23/23/23 24/24/24
f 25/25/25 26/26/26 27/27/27
f 28/28/28 29/29/29 30/30/30
f 31/31/31 32/32/32 33/33/33
f 34/34/34 35/35/35 36/36/36
f 37/37/37 38/38/38 39/39/39
f 40/40/40 41/41/41 42/42/42
f 43/43/43 44/44/44 45/45/45
f 46/46/46 47/47/47 48/48/48
f 49/49/49 50/50/50 51/51/51
f 52/52/52 53/53/53 54/54/54
f 55/55/55 56/56/56 57/57/57
f 58/58/58 59/59/59 60/60/60
f 61/61/61 62/62/62 63/63/63
f 64/64/64 65/65/65 66/66/66
f 67/67/67 68/68/68 69/69/69
f 70/70/70 71/71/71 72/72/72
f 73/73/73 74/74/74 75/75/75
f 76/76/76 77/77/77 78/78/78
f 79/79/79 80/80/80 81/81/81
f 82/82/82 83/83/83 84/84/84
f 85/85/85 86/86/86 87/87/87
f 88/88/88 89/89/89 90/90/90
f 91/91/91 92/92/92 93/93/93
f 94/94/94 95/95/95 96/96/96
f 97/97/97 98/98/98 99/99/99
f 100/100/100 101/101/101 102/102/102
f 103/103/103 104/104/104 105/105/105
