v 46.000000 60.000000 10.000000 
v 37.000000 33.000000 10.000000 
v 0.000000 60.000000 10.000000 
v 37.000000 33.000000 10.000000 
v 14.000000 16.000000 10.000000 
v 0.000000 60.000000 10.000000 
v 14.000000 16.000000 10.000000 
v -14.000000 16.000000 10.000000 
v 0.000000 60.000000 10.000000 
v -14.000000 16.000000 10.000000 
v -37.000000 33.000000 10.000000 
v 0.000000 60.000000 10.000000 
v -37.000000 33.000000 10.000000 
v -46.000000 60.000000 10.000000 
v 0.000000 60.000000 10.000000 
v -46.000000 60.000000 10.000000 
v -37.000000 88.000000 10.000000 
v 0.000000 60.000000 10.000000 
v -37.000000 88.000000 10.000000 
v -14.000000 105.000000 10.000000 
v 0.000000 60.000000 10.000000 
v -14.000000 105.000000 10.000000 
v 14.000000 105.000000 10.000000 
v 0.000000 60.000000 10.000000 
v 14.000000 105.000000 10.000000 
v 37.000000 88.000000 10.000000 
v 0.000000 60.000000 10.000000 
v 37.000000 88.000000 10.000000 
v 46.000000 60.000000 10.000000 
v 0.000000 60.000000 10.000000 
v 52.000000 60.000000 51.000000 
v 42.000000 29.000000 51.000000 
v 52.000000 60.000000 7.000000 
v 42.000000 29.000000 51.000000 
v 42.000000 29.000000 7.000000 
v 52.000000 60.000000 7.000000 
v 42.000000 29.000000 51.000000 
v 16.000000 10.000000 51.000000 
v 42.000000 29.000000 7.000000 
v 16.000000 10.000000 51.000000 
v 16.000000 10.000000 7.000000 
v 42.000000 29.000000 7.000000 
v 16.000000 10.000000 51.000000 
v -16.000000 10.000000 51.000000 
v 16.000000 10.000000 7.000000 
v -16.000000 10.000000 51.000000 
v -16.000000 10.000000 7.000000 
v 16.000000 10.000000 7.000000 
v -16.000000 10.000000 51.000000 
v -42.000000 29.000000 51.000000 
v -16.000000 10.000000 7.000000 
v -42.000000 29.000000 51.000000 
v -42.000000 29.000000 7.000000 
v -16.000000 10.000000 7.000000 
v -42.000000 29.000000 51.000000 
v -52.000000 60.000000 51.000000 
v -42.000000 29.000000 7.000000 
v -52.000000 60.000000 51.000000 
v -52.000000 60.000000 7.000000 
v -42.000000 29.000000 7.000000 
v -52.000000 60.000000 51.000000 
v -42.000000 91.000000 51.000000 
v -52.000000 60.000000 7.000000 
v -42.000000 91.000000 51.000000 
v -42.000000 91.000000 7.000000 
v -52.000000 60.000000 7.000000 
v -42.000000 91.000000 51.000000 
v -16.000000 110.000000 51.000000 
v -42.000000 91.000000 7.000000 
v -16.000000 110.000000 51.000000 
v -16.000000 110.000000 7.000000 
v -42.000000 91.000000 7.000000 
v -16.000000 110.000000 51.000000 
v 16.000000 110.000000 51.000000 
v -16.000000 110.000000 7.000000 
v 16.000000 110.000000 51.000000 
v 16.000000 110.000000 7.000000 
v -16.000000 110.000000 7.000000 
v 16.000000 110.000000 51.000000 
v 42.000000 91.000000 51.000000 
v 16.000000 110.000000 7.000000 
v 42.000000 91.000000 51.000000 
v 42.000000 91.000000 7.000000 
v 16.000000 110.000000 7.000000 
v 42.000000 91.000000 51.000000 
v 52.000000 60.000000 51.000000 
v 42.000000 91.000000 7.000000 
v 52.000000 60.000000 51.000000 
v 52.000000 60.000000 7.000000 
v 42.000000 91.000000 7.000000 
v 46.000000 60.000000 10.000000 
v 52.000000 60.000000 7.000000 
v 42.000000 29.000000 7.000000 
v 42.000000 29.000000 7.000000 
v 37.000000 33.000000 10.000000 
v 46.000000 60.000000 10.000000 
v 37.000000 33.000000 10.000000 
v 42.000000 29.000000 7.000000 
v 16.000000 10.000000 7.000000 
v 16.000000 10.000000 7.000000 
v 14.000000 16.000000 10.000000 
v 37.000000 33.000000 10.000000 
v 14.000000 16.000000 10.000000 
v 16.000000 10.000000 7.000000 
v -16.000000 10.000000 7.000000 
v -16.000000 10.000000 7.000000 
v -14.000000 16.000000 10.000000 
v 14.000000 16.000000 10.000000 
v -14.000000 16.000000 10.000000 
v -16.000000 10.000000 7.000000 
v -42.000000 29.000000 7.000000 
v -42.000000 29.000000 7.000000 
v -37.000000 33.000000 10.000000 
v -14.000000 16.000000 10.000000 
v -37.000000 33.000000 10.000000 
v -42.000000 29.000000 7.000000 
v -52.000000 60.000000 7.000000 
v -52.000000 60.000000 7.000000 
v -46.000000 60.000000 10.000000 
v -37.000000 33.000000 10.000000 
v -46.000000 60.000000 10.000000 
v -52.000000 60.000000 7.000000 
v -42.000000 91.000000 7.000000 
v -42.000000 91.000000 7.000000 
v -37.000000 88.000000 10.000000 
v -46.000000 60.000000 10.000000 
v -37.000000 88.000000 10.000000 
v -42.000000 91.000000 7.000000 
v -16.000000 110.000000 7.000000 
v -16.000000 110.000000 7.000000 
v -14.000000 105.000000 10.000000 
v -37.000000 88.000000 10.000000 
v -14.000000 105.000000 10.000000 
v -16.000000 110.000000 7.000000 
v 16.000000 110.000000 7.000000 
v 16.000000 110.000000 7.000000 
v 14.000000 105.000000 10.000000 
v -14.000000 105.000000 10.000000 
v 14.000000 105.000000 10.000000 
v 16.000000 110.000000 7.000000 
v 42.000000 91.000000 7.000000 
v 42.000000 91.000000 7.000000 
v 37.000000 88.000000 10.000000 
v 14.000000 105.000000 10.000000 
v 37.000000 88.000000 10.000000 
v 42.000000 91.000000 7.000000 
v 52.000000 60.000000 7.000000 
v 52.000000 60.000000 7.000000 
v 46.000000 60.000000 10.000000 
v 37.000000 88.000000 10.000000 
v -33.000000 0.000000 22.000000 
v -38.000000 4.000000 25.000000 
v -37.000000 3.000000 22.000000 
v -38.000000 4.000000 25.000000 
v -38.000000 4.000000 19.000000 
v -37.000000 3.000000 22.000000 
v -38.000000 4.000000 19.000000 
v -33.000000 0.000000 22.000000 
v -37.000000 3.000000 22.000000 
v -19.000000 17.000000 22.000000 
v -27.000000 22.000000 27.000000 
v -33.000000 0.000000 22.000000 
v -27.000000 22.000000 27.000000 
v -38.000000 4.000000 25.000000 
v -33.000000 0.000000 22.000000 
v -27.000000 22.000000 27.000000 
v -27.000000 22.000000 17.000000 
v -38.000000 4.000000 25.000000 
v -27.000000 22.000000 17.000000 
v -38.000000 4.000000 19.000000 
v -38.000000 4.000000 25.000000 
v -27.000000 22.000000 17.000000 
v -19.000000 17.000000 22.000000 
v -38.000000 4.000000 19.000000 
v -19.000000 17.000000 22.000000 
v -33.000000 0.000000 22.000000 
v -38.000000 4.000000 19.000000 
v 34.000000 0.000000 22.000000 
v 39.000000 4.000000 19.000000 
v 37.000000 3.000000 22.000000 
v 39.000000 4.000000 19.000000 
v 39.000000 4.000000 25.000000 
v 37.000000 3.000000 22.000000 
v 39.000000 4.000000 25.000000 
v 34.000000 0.000000 22.000000 
v 37.000000 3.000000 22.000000 
v 20.000000 17.000000 22.000000 
v 27.000000 22.000000 17.000000 
v 34.000000 0.000000 22.000000 
v 27.000000 22.000000 17.000000 
v 39.000000 4.000000 19.000000 
v 34.000000 0.000000 22.000000 
v 27.000000 22.000000 17.000000 
v 27.000000 22.000000 27.000000 
v 39.000000 4.000000 19.000000 
v 27.000000 22.000000 27.000000 
v 39.000000 4.000000 25.000000 
v 39.000000 4.000000 19.000000 
v 27.000000 22.000000 27.000000 
v 20.000000 17.000000 22.000000 
v 39.000000 4.000000 25.000000 
v 20.000000 17.000000 22.000000 
v 34.000000 0.000000 22.000000 
v 39.000000 4.000000 25.000000 
vn 0.000000 0.000000 -0.999756 
vn 0.000000 0.000000 -0.999756 
vn 0.000000 0.000000 -0.999756 
vn 0.000000 0.000000 -0.999756 
vn 0.000000 0.000000 -0.999756 
vn 0.000000 0.000000 -0.999756 
vn 0.000000 0.000000 -0.999756 
vn 0.000000 0.000000 -0.999756 
vn 0.000000 0.000000 -0.999756 
vn 0.000000 0.000000 -0.999756 
vn 0.000000 0.000000 -0.999756 
vn 0.000000 0.000000 -0.999756 
vn 0.000000 0.000000 -0.999756 
vn 0.000000 0.000000 -0.999756 
vn 0.000000 0.000000 -0.999756 
vn 0.000000 0.000000 -0.999756 
vn 0.000000 0.000000 -0.999756 
vn 0.000000 0.000000 -0.999756 
vn 0.000000 0.000000 -0.999756 
vn 0.000000 0.000000 -0.999756 
vn 0.000000 0.000000 -0.999756 
vn 0.000000 0.000000 -0.999756 
vn 0.000000 0.000000 -0.999756 
vn 0.000000 0.000000 -0.999756 
vn 0.000000 0.000000 -0.999756 
vn 0.000000 0.000000 -0.999756 
vn 0.000000 0.000000 -0.999756 
vn 0.000000 0.000000 -0.999756 
vn 0.000000 0.000000 -0.999756 
vn 0.000000 0.000000 -0.999756 
vn 0.994141 0.107666 0.000000 
vn 0.867432 -0.497070 0.000000 
vn 0.482666 -0.150879 -0.862549 
vn 0.867432 -0.497070 0.000000 
vn 0.301758 -0.405762 -0.862549 
vn 0.482666 -0.150879 -0.862549 
vn 0.867432 -0.497070 0.000000 
vn 0.409424 -0.912109 0.000000 
vn 0.301758 -0.405762 -0.862549 
vn 0.409424 -0.912109 0.000000 
vn 0.005371 -0.505615 -0.862549 
vn 0.301758 -0.405762 -0.862549 
vn 0.409424 -0.912109 0.000000 
vn -0.204590 -0.978760 0.000000 
vn 0.005371 -0.505615 -0.862549 
vn -0.204590 -0.978760 0.000000 
vn -0.292725 -0.412354 -0.862549 
vn 0.005371 -0.505615 -0.862549 
vn -0.204590 -0.978760 0.000000 
vn -0.740967 -0.671387 0.000000 
vn -0.292725 -0.412354 -0.862549 
vn -0.740967 -0.671387 0.000000 
vn -0.479248 -0.161621 -0.862549 
vn -0.292725 -0.412354 -0.862549 
vn -0.740967 -0.671387 0.000000 
vn -0.994141 -0.107666 0.000000 
vn -0.479248 -0.161621 -0.862549 
vn -0.994141 -0.107666 0.000000 
vn -0.482666 0.150879 -0.862549 
vn -0.479248 -0.161621 -0.862549 
vn -0.994141 -0.107666 0.000000 
vn -0.867432 0.497070 0.000000 
vn -0.482666 0.150879 -0.862549 
vn -0.867432 0.497070 0.000000 
vn -0.301758 0.405762 -0.862549 
vn -0.482666 0.150879 -0.862549 
vn -0.867432 0.497070 0.000000 
vn -0.409424 0.912109 0.000000 
vn -0.301758 0.405762 -0.862549 
vn -0.409424 0.912109 0.000000 
vn -0.005371 0.505615 -0.862549 
vn -0.301758 0.405762 -0.862549 
vn -0.409424 0.912109 0.000000 
vn 0.204590 0.978760 0.000000 
vn -0.005371 0.505615 -0.862549 
vn 0.204590 0.978760 0.000000 
vn 0.292725 0.412354 -0.862549 
vn -0.005371 0.505615 -0.862549 
vn 0.204590 0.978760 0.000000 
vn 0.740967 0.671387 0.000000 
vn 0.292725 0.412354 -0.862549 
vn 0.740967 0.671387 0.000000 
vn 0.479248 0.161621 -0.862549 
vn 0.292725 0.412354 -0.862549 
vn 0.740967 0.671387 0.000000 
vn 0.994141 0.107666 0.000000 
vn 0.479248 0.161621 -0.862549 
vn 0.994141 0.107666 0.000000 
vn 0.482666 -0.150879 -0.862549 
vn 0.479248 0.161621 -0.862549 
vn -0.466309 0.050293 -0.883057 
vn 0.482666 -0.150879 -0.862549 
vn 0.301758 -0.405762 -0.862549 
vn 0.301758 -0.405762 -0.862549 
vn -0.347412 0.314941 -0.883057 
vn -0.466309 0.050293 -0.883057 
vn -0.347412 0.314941 -0.883057 
vn 0.301758 -0.405762 -0.862549 
vn 0.005371 -0.505615 -0.862549 
vn 0.005371 -0.505615 -0.862549 
vn -0.095947 0.458984 -0.883057 
vn -0.347412 0.314941 -0.883057 
vn -0.095947 0.458984 -0.883057 
vn 0.005371 -0.505615 -0.862549 
vn -0.292725 -0.412354 -0.862549 
vn -0.292725 -0.412354 -0.862549 
vn 0.192139 0.427734 -0.883057 
vn -0.095947 0.458984 -0.883057 
vn 0.192139 0.427734 -0.883057 
vn -0.292725 -0.412354 -0.862549 
vn -0.479248 -0.161621 -0.862549 
vn -0.479248 -0.161621 -0.862549 
vn 0.406982 0.233154 -0.883057 
vn 0.192139 0.427734 -0.883057 
vn 0.406982 0.233154 -0.883057 
vn -0.479248 -0.161621 -0.862549 
vn -0.482666 0.150879 -0.862549 
vn -0.482666 0.150879 -0.862549 
vn 0.466309 -0.050293 -0.883057 
vn 0.406982 0.233154 -0.883057 
vn 0.466309 -0.050293 -0.883057 
vn -0.482666 0.150879 -0.862549 
vn -0.301758 0.405762 -0.862549 
vn -0.301758 0.405762 -0.862549 
vn 0.347412 -0.314941 -0.883057 
vn 0.466309 -0.050293 -0.883057 
vn 0.347412 -0.314941 -0.883057 
vn -0.301758 0.405762 -0.862549 
vn -0.005371 0.505615 -0.862549 
vn -0.005371 0.505615 -0.862549 
vn 0.095947 -0.458984 -0.883057 
vn 0.347412 -0.314941 -0.883057 
vn 0.095947 -0.458984 -0.883057 
vn -0.005371 0.505615 -0.862549 
vn 0.292725 0.412354 -0.862549 
vn 0.292725 0.412354 -0.862549 
vn -0.192139 -0.427734 -0.883057 
vn 0.095947 -0.458984 -0.883057 
vn -0.192139 -0.427734 -0.883057 
vn 0.292725 0.412354 -0.862549 
vn 0.479248 0.161621 -0.862549 
vn 0.479248 0.161621 -0.862549 
vn -0.406982 -0.233154 -0.883057 
vn -0.192139 -0.427734 -0.883057 
vn -0.406982 -0.233154 -0.883057 
vn 0.479248 0.161621 -0.862549 
vn 0.482666 -0.150879 -0.862549 
vn 0.482666 -0.150879 -0.862549 
vn -0.466309 0.050293 -0.883057 
vn -0.406982 -0.233154 -0.883057 
vn -0.003174 -0.949707 0.312988 
vn -0.891357 -0.327637 0.312988 
vn -0.573486 -0.819092 0.000000 
vn -0.891357 -0.327637 0.312988 
vn -0.447266 -0.638672 -0.625977 
vn -0.573486 -0.819092 0.000000 
vn -0.447266 -0.638672 -0.625977 
vn -0.003174 -0.949707 0.312988 
vn -0.573486 -0.819092 0.000000 
vn 0.655273 -0.567627 -0.497803 
vn -0.051025 -0.072998 0.995850 
vn -0.003174 -0.949707 0.312988 
vn -0.051025 -0.072998 0.995850 
vn -0.891357 -0.327637 0.312988 
vn -0.003174 -0.949707 0.312988 
vn -0.051025 -0.072998 0.995850 
vn -0.757568 0.421631 -0.497803 
vn -0.891357 -0.327637 0.312988 
vn -0.757568 0.421631 -0.497803 
vn -0.447266 -0.638672 -0.625977 
vn -0.891357 -0.327637 0.312988 
vn -0.757568 0.421631 -0.497803 
vn 0.655273 -0.567627 -0.497803 
vn -0.447266 -0.638672 -0.625977 
vn 0.655273 -0.567627 -0.497803 
vn -0.003174 -0.949707 0.312988 
vn -0.447266 -0.638672 -0.625977 
vn 0.003174 -0.949707 -0.312988 
vn 0.891357 -0.327637 -0.312988 
vn 0.573486 -0.819092 0.000000 
vn 0.891357 -0.327637 -0.312988 
vn 0.447266 -0.638672 0.625977 
vn 0.573486 -0.819092 0.000000 
vn 0.447266 -0.638672 0.625977 
vn 0.003174 -0.949707 -0.312988 
vn 0.573486 -0.819092 0.000000 
vn -0.655273 -0.567627 0.497803 
vn 0.051025 -0.072998 -0.995850 
vn 0.003174 -0.949707 -0.312988 
vn 0.051025 -0.072998 -0.995850 
vn 0.891357 -0.327637 -0.312988 
vn 0.003174 -0.949707 -0.312988 
vn 0.051025 -0.072998 -0.995850 
vn 0.757568 0.421631 0.497803 
vn 0.891357 -0.327637 -0.312988 
vn 0.757568 0.421631 0.497803 
vn 0.447266 -0.638672 0.625977 
vn 0.891357 -0.327637 -0.312988 
vn 0.757568 0.421631 0.497803 
vn -0.655273 -0.567627 0.497803 
vn 0.447266 -0.638672 0.625977 
vn -0.655273 -0.567627 0.497803 
vn 0.003174 -0.949707 -0.312988 
vn 0.447266 -0.638672 0.625977 
vt 0.888889 0.507937 
vt 0.809524 0.269841 
vt 0.492063 0.507937 
vt 0.809524 0.269841 
vt 0.619048 0.111111 
vt 0.492063 0.507937 
vt 0.619048 0.111111 
vt 0.380952 0.111111 
vt 0.492063 0.507937 
vt 0.380952 0.111111 
vt 0.174603 0.269841 
vt 0.492063 0.507937 
vt 0.174603 0.269841 
vt 0.111111 0.507937 
vt 0.492063 0.507937 
vt 0.111111 0.507937 
vt 0.174603 0.746032 
vt 0.492063 0.507937 
vt 0.174603 0.746032 
vt 0.380952 0.904762 
vt 0.492063 0.507937 
vt 0.380952 0.904762 
vt 0.619048 0.904762 
vt 0.492063 0.507937 
vt 0.619048 0.904762 
vt 0.809524 0.746032 
vt 0.492063 0.507937 
vt 0.809524 0.746032 
vt 0.888889 0.507937 
vt 0.492063 0.507937 
vt 0.031746 0.777778 
vt 0.000000 0.777778 
vt 0.031746 1.000000 
vt 0.000000 0.777778 
vt 0.000000 1.000000 
vt 0.031746 1.000000 
vt 0.111111 0.777778 
vt 0.063492 0.777778 
vt 0.111111 1.000000 
vt 0.063492 0.777778 
vt 0.063492 1.000000 
vt 0.111111 1.000000 
vt 0.492063 -0.015873 
vt 0.396825 -0.015873 
vt 0.492063 0.206349 
vt 0.396825 -0.015873 
vt 0.396825 0.206349 
vt 0.492063 0.206349 
vt 0.206349 -0.015873 
vt 0.158730 -0.015873 
vt 0.206349 0.206349 
vt 0.158730 -0.015873 
vt 0.158730 0.206349 
vt 0.206349 0.206349 
vt 0.158730 -0.015873 
vt 0.095238 -0.015873 
vt 0.158730 0.206349 
vt 0.095238 -0.015873 
vt 0.095238 0.206349 
vt 0.158730 0.206349 
vt 0.095238 -0.015873 
vt 0.047619 -0.015873 
vt 0.095238 0.206349 
vt 0.047619 -0.015873 
vt 0.047619 0.206349 
vt 0.095238 0.206349 
vt 0.047619 -0.015873 
vt 0.000000 -0.015873 
vt 0.047619 0.206349 
vt 0.000000 -0.015873 
vt 0.000000 0.206349 
vt 0.047619 0.206349 
vt 0.333333 1.000000 
vt 0.650794 1.000000 
vt 0.333333 1.000000 
vt 0.650794 1.000000 
vt 0.650794 1.000000 
vt 0.333333 1.000000 
vt 0.158730 0.777778 
vt 0.111111 0.777778 
vt 0.158730 1.000000 
vt 0.111111 0.777778 
vt 0.111111 1.000000 
vt 0.158730 1.000000 
vt 0.063492 0.777778 
vt 0.031746 0.777778 
vt 0.063492 1.000000 
vt 0.031746 0.777778 
vt 0.031746 1.000000 
vt 0.063492 1.000000 
vt 0.904762 0.492063 
vt 0.952381 0.492063 
vt 0.873016 0.253968 
vt 0.873016 0.253968 
vt 0.825397 0.285714 
vt 0.904762 0.492063 
vt 0.825397 0.285714 
vt 0.873016 0.253968 
vt 0.634921 0.079365 
vt 0.634921 0.079365 
vt 0.619048 0.142857 
vt 0.825397 0.285714 
vt 0.619048 0.142857 
vt 0.634921 0.079365 
vt 0.349206 0.079365 
vt 0.349206 0.079365 
vt 0.365079 0.142857 
vt 0.619048 0.142857 
vt 0.365079 0.142857 
vt 0.349206 0.079365 
vt 0.126984 0.253968 
vt 0.126984 0.253968 
vt 0.174603 0.285714 
vt 0.365079 0.142857 
vt 0.174603 0.285714 
vt 0.126984 0.253968 
vt 0.047619 0.492063 
vt 0.047619 0.492063 
vt 0.095238 0.492063 
vt 0.174603 0.285714 
vt 0.095238 0.492063 
vt 0.047619 0.492063 
vt 0.126984 0.777778 
vt 0.126984 0.777778 
vt 0.158730 0.746032 
vt 0.095238 0.492063 
vt 0.158730 0.746032 
vt 0.126984 0.777778 
vt 0.349206 0.952381 
vt 0.349206 0.952381 
vt 0.365079 0.888889 
vt 0.158730 0.746032 
vt 0.349206 0.936508 
vt 0.333333 1.000000 
vt 0.650794 1.000000 
vt 0.650794 1.000000 
vt 0.634921 0.936508 
vt 0.349206 0.936508 
vt 0.619048 0.888889 
vt 0.634921 0.952381 
vt 0.857143 0.777778 
vt 0.857143 0.777778 
vt 0.825397 0.746032 
vt 0.619048 0.888889 
vt 0.825397 0.746032 
vt 0.857143 0.777778 
vt 0.952381 0.492063 
vt 0.952381 0.492063 
vt 0.904762 0.492063 
vt 0.825397 0.746032 
vt 0.063492 0.126984 
vt 0.031746 0.174603 
vt 0.031746 0.126984 
vt 0.031746 0.174603 
vt 0.031746 0.079365 
vt 0.031746 0.126984 
vt 0.031746 0.079365 
vt 0.063492 0.126984 
vt 0.031746 0.126984 
vt 0.158730 0.126984 
vt 0.111111 0.190476 
vt 0.063492 0.126984 
vt 0.111111 0.190476 
vt 0.031746 0.174603 
vt 0.063492 0.126984 
vt 0.111111 0.190476 
vt 0.111111 0.047619 
vt 0.031746 0.174603 
vt 0.111111 0.047619 
vt 0.031746 0.079365 
vt 0.031746 0.174603 
vt 0.111111 0.047619 
vt 0.158730 0.126984 
vt 0.031746 0.079365 
vt 0.158730 0.126984 
vt 0.063492 0.126984 
vt 0.031746 0.079365 
vt 0.920635 0.126984 
vt 0.968254 0.079365 
vt 0.952381 0.126984 
vt 0.968254 0.079365 
vt 0.968254 0.174603 
vt 0.952381 0.126984 
vt 0.968254 0.174603 
vt 0.920635 0.126984 
vt 0.952381 0.126984 
vt 0.809524 0.126984 
vt 0.873016 0.047619 
vt 0.920635 0.126984 
vt 0.873016 0.047619 
vt 0.968254 0.079365 
vt 0.920635 0.126984 
vt 0.873016 0.047619 
vt 0.873016 0.206349 
vt 0.968254 0.079365 
vt 0.873016 0.206349 
vt 0.968254 0.174603 
vt 0.968254 0.079365 
vt 0.873016 0.206349 
vt 0.809524 0.126984 
vt 0.968254 0.174603 
vt 0.809524 0.126984 
vt 0.920635 0.126984 
vt 0.968254 0.174603 
f 1/1/1 2/2/2 3/3/3
f 4/4/4 5/5/5 6/6/6
f 7/7/7 8/8/8 9/9/9
f 10/10/10 11/11/11 12/12/12
f 13/13/13 14/14/14 15/15/15
f 16/16/16 17/17/17 18/18/18
f 19/19/19 20/20/20 21/21/21
f 22/22/22 23/23/23 24/24/24
f 25/25/25 26/26/26 27/27/27
f 28/28/28 29/29/29 30/30/30
f 31/31/31 32/32/32 33/33/33
f 34/34/34 35/35/35 36/36/36
f 37/37/37 38/38/38 39/39/39
f 40/40/40 41/41/41 42/42/42
f 43/43/43 44/44/44 45/45/45
f 46/46/46 47/47/47 48/48/48
f 49/49/49 50/50/50 51/51/51
f 52/52/52 53/53/53 54/54/54
f 55/55/55 56/56/56 57/57/57
f 58/58/58 59/59/59 60/60/60
f 61/61/61 62/62/62 63/63/63
f 64/64/64 65/65/65 66/66/66
f 67/67/67 68/68/68 69/69/69
f 70/70/70 71/71/71 72/72/72
f 73/73/73 74/74/74 75/75/75
f 76/76/76 77/77/77 78/78/78
f 79/79/79 80/80/80 81/81/81
f 82/82/82 83/83/83 84/84/84
f 85/85/85 86/86/86 87/87/87
f 88/88/88 89/89/89 90/90/90
f 91/91/91 92/92/92 93/93/93
f 94/94/94 95/95/95 96/96/96
f 97/97/97 98/98/98 99/99/99
f 100/100/100 101/101/101 102/102/102
f 103/103/103 104/104/104 105/105/105
f 106/106/106 107/107/107 108/108/108
f 109/109/109 110/110/110 111/111/111
f 112/112/112 113/113/113 114/114/114
f 115/115/115 116/116/116 117/117/117
f 118/118/118 119/119/119 120/120/120
f 121/121/121 122/122/122 123/123/123
f 124/124/124 125/125/125 126/126/126
f 127/127/127 128/128/128 129/129/129
f 130/130/130 131/131/131 132/132/132
f 133/133/133 134/134/134 135/135/135
f 136/136/136 137/137/137 138/138/138
f 139/139/139 140/140/140 141/141/141
f 142/142/142 143/143/143 144/144/144
f 145/145/145 146/146/146 147/147/147
f 148/148/148 149/149/149 150/150/150
f 151/151/151 152/152/152 153/153/153
f 154/154/154 155/155/155 156/156/156
f 157/157/157 158/158/158 159/159/159
f 160/160/160 161/161/161 162/162/162
f 163/163/163 164/164/164 165/165/165
f 166/166/166 167/167/167 168/168/168
f 169/169/169 170/170/170 171/171/171
f 172/172/172 173/173/173 174/174/174
f 175/175/175 176/176/176 177/177/177
f 178/178/178 179/179/179 180/180/180
f 181/181/181 182/182/182 183/183/183
f 184/184/184 185/185/185 186/186/186
f 187/187/187 188/188/188 189/189/189
f 190/190/190 191/191/191 192/192/192
f 193/193/193 194/194/194 195/195/195
f 196/196/196 197/197/197 198/198/198
f 199/199/199 200/200/200 201/201/201
f 202/202/202 203/203/203 204/204/204
