v -6.000000 -8.000000 0.000000 
v -6.000000 -4.000000 3.000000 
v -10.000000 -5.000000 0.000000 
v -6.000000 -8.000000 0.000000 
v -2.000000 -4.000000 0.000000 
v -6.000000 -4.000000 3.000000 
v -6.000000 -8.000000 0.000000 
v -6.000000 -4.000000 -3.000000 
v -2.000000 -4.000000 0.000000 
v -6.000000 -8.000000 0.000000 
v -10.000000 -5.000000 0.000000 
v -6.000000 -4.000000 -3.000000 
v -10.000000 -5.000000 0.000000 
v -8.000000 -1.000000 3.000000 
v -10.000000 -4.000000 0.000000 
v -10.000000 -5.000000 0.000000 
v -6.000000 -4.000000 3.000000 
v -8.000000 -1.000000 3.000000 
v -6.000000 -4.000000 3.000000 
v -6.000000 1.000000 0.000000 
v -8.000000 -1.000000 3.000000 
v -6.000000 -4.000000 3.000000 
v -2.000000 -4.000000 0.000000 
v -6.000000 1.000000 0.000000 
v -2.000000 -4.000000 0.000000 
v -8.000000 -1.000000 -3.000000 
v -6.000000 1.000000 0.000000 
v -2.000000 -4.000000 0.000000 
v -6.000000 -4.000000 -3.000000 
v -8.000000 -1.000000 -3.000000 
v -6.000000 -4.000000 -3.000000 
v -10.000000 -4.000000 0.000000 
v -8.000000 -1.000000 -3.000000 
v -6.000000 -4.000000 -3.000000 
v -10.000000 -5.000000 0.000000 
v -10.000000 -4.000000 0.000000 
v -10.000000 -4.000000 0.000000 
v -11.000000 0.000000 3.000000 
v -11.000000 -3.000000 0.000000 
v -10.000000 -4.000000 0.000000 
v -8.000000 -1.000000 3.000000 
v -11.000000 0.000000 3.000000 
v -8.000000 -1.000000 3.000000 
v -11.000000 3.000000 0.000000 
v -11.000000 0.000000 3.000000 
v -8.000000 -1.000000 3.000000 
v -6.000000 1.000000 0.000000 
v -11.000000 3.000000 0.000000 
v -6.000000 1.000000 0.000000 
v -11.000000 0.000000 -3.000000 
v -11.000000 3.000000 0.000000 
v -6.000000 1.000000 0.000000 
v -8.000000 -1.000000 -3.000000 
v -11.000000 0.000000 -3.000000 
v -8.000000 -1.000000 -3.000000 
v -11.000000 -3.000000 0.000000 
v -11.000000 0.000000 -3.000000 
v -8.000000 -1.000000 -3.000000 
v -10.000000 -4.000000 0.000000 
v -11.000000 -3.000000 0.000000 
v -11.000000 -3.000000 0.000000 
v -43.000000 0.000000 6.000000 
v -43.000000 -6.000000 0.000000 
v -11.000000 -3.000000 0.000000 
v -11.000000 0.000000 3.000000 
v -43.000000 0.000000 6.000000 
v -11.000000 0.000000 3.000000 
v -43.000000 6.000000 0.000000 
v -43.000000 0.000000 6.000000 
v -11.000000 0.000000 3.000000 
v -11.000000 3.000000 0.000000 
v -43.000000 6.000000 0.000000 
v -11.000000 3.000000 0.000000 
v -43.000000 0.000000 -6.000000 
v -43.000000 6.000000 0.000000 
v -11.000000 3.000000 0.000000 
v -11.000000 0.000000 -3.000000 
v -43.000000 0.000000 -6.000000 
v -11.000000 0.000000 -3.000000 
v -43.000000 -6.000000 0.000000 
v -43.000000 0.000000 -6.000000 
v -11.000000 0.000000 -3.000000 
v -11.000000 -3.000000 0.000000 
v -43.000000 -6.000000 0.000000 
v -47.000000 0.000000 0.000000 
v -43.000000 -6.000000 0.000000 
v -43.000000 0.000000 6.000000 
v -47.000000 0.000000 0.000000 
v -43.000000 0.000000 6.000000 
v -43.000000 6.000000 0.000000 
v -47.000000 0.000000 0.000000 
v -43.000000 6.000000 0.000000 
v -43.000000 0.000000 -6.000000 
v -47.000000 0.000000 0.000000 
v -43.000000 0.000000 -6.000000 
v -43.000000 -6.000000 0.000000 
vn 0.052002 -0.998535 0.000000 
vn 0.036865 -0.710205 0.702881 
vn -0.664795 -0.746826 0.000000 
vn 0.052002 -0.998535 0.000000 
vn 0.739014 -0.673340 0.000000 
vn 0.036865 -0.710205 0.702881 
vn 0.052002 -0.998535 0.000000 
vn 0.036865 -0.710205 -0.702881 
vn 0.739014 -0.673340 0.000000 
vn 0.052002 -0.998535 0.000000 
vn -0.664795 -0.746826 0.000000 
vn 0.036865 -0.710205 -0.702881 
vn -0.863525 -0.416992 0.282959 
vn -0.045898 0.079590 0.995605 
vn -0.720947 -0.692627 -0.010498 
vn -0.863525 -0.416992 0.282959 
vn 0.274170 0.209229 0.938477 
vn -0.045898 0.079590 0.995605 
vn 0.274170 0.209229 0.938477 
vn 0.711426 0.702637 0.001953 
vn -0.045898 0.079590 0.995605 
vn 0.274170 0.209229 0.938477 
vn 0.813232 0.505859 -0.287109 
vn 0.711426 0.702637 0.001953 
vn 0.813232 0.505859 -0.287109 
vn 0.095947 -0.067383 -0.992920 
vn 0.711426 0.702637 0.001953 
vn 0.813232 0.505859 -0.287109 
vn -0.324463 -0.109863 -0.939209 
vn 0.095947 -0.067383 -0.992920 
vn -0.324463 -0.109863 -0.939209 
vn -0.720947 -0.692627 -0.010498 
vn 0.095947 -0.067383 -0.992920 
vn -0.324463 -0.109863 -0.939209 
vn -0.863525 -0.416992 0.282959 
vn -0.720947 -0.692627 -0.010498 
vn -0.720947 -0.692627 -0.010498 
vn -0.010254 0.003174 0.999756 
vn -0.210449 -0.977539 -0.005859 
vn -0.720947 -0.692627 -0.010498 
vn -0.045898 0.079590 0.995605 
vn -0.010254 0.003174 0.999756 
vn -0.045898 0.079590 0.995605 
vn 0.315918 0.948486 -0.007080 
vn -0.010254 0.003174 0.999756 
vn -0.045898 0.079590 0.995605 
vn 0.711426 0.702637 0.001953 
vn 0.315918 0.948486 -0.007080 
vn 0.711426 0.702637 0.001953 
vn 0.160889 -0.040527 -0.986084 
vn 0.315918 0.948486 -0.007080 
vn 0.711426 0.702637 0.001953 
vn 0.095947 -0.067383 -0.992920 
vn 0.160889 -0.040527 -0.986084 
vn 0.095947 -0.067383 -0.992920 
vn -0.210449 -0.977539 -0.005859 
vn 0.160889 -0.040527 -0.986084 
vn 0.095947 -0.067383 -0.992920 
vn -0.720947 -0.692627 -0.010498 
vn -0.210449 -0.977539 -0.005859 
vn -0.210449 -0.977539 -0.005859 
vn 0.066650 -0.315430 0.946533 
vn 0.066650 -0.946533 -0.315430 
vn -0.210449 -0.977539 -0.005859 
vn -0.010254 0.003174 0.999756 
vn 0.066650 -0.315430 0.946533 
vn -0.010254 0.003174 0.999756 
vn 0.066895 0.946533 0.315430 
vn 0.066650 -0.315430 0.946533 
vn -0.010254 0.003174 0.999756 
vn 0.315918 0.948486 -0.007080 
vn 0.066895 0.946533 0.315430 
vn 0.315918 0.948486 -0.007080 
vn 0.066650 0.315430 -0.946533 
vn 0.066895 0.946533 0.315430 
vn 0.315918 0.948486 -0.007080 
vn 0.160889 -0.040527 -0.986084 
vn 0.066650 0.315430 -0.946533 
vn 0.160889 -0.040527 -0.986084 
vn 0.066650 -0.946533 -0.315430 
vn 0.066650 0.315430 -0.946533 
vn 0.160889 -0.040527 -0.986084 
vn -0.210449 -0.977539 -0.005859 
vn 0.066650 -0.946533 -0.315430 
vn -0.999756 0.000244 0.000000 
vn -0.858887 -0.511719 0.000000 
vn -0.858887 0.000000 0.511963 
vn -0.999756 0.000244 0.000000 
vn -0.858887 0.000000 0.511963 
vn -0.858643 0.512207 0.000000 
vn -0.999756 0.000244 0.000000 
vn -0.858643 0.512207 0.000000 
vn -0.858887 0.000000 -0.511963 
vn -0.999756 0.000244 0.000000 
vn -0.858887 0.000000 -0.511963 
vn -0.858887 -0.511719 0.000000 
vt 0.496063 0.047244 
vt 0.724409 0.299213 
vt 0.496063 0.299213 
vt 0.496063 0.047244 
vt 0.724409 0.299213 
vt 0.496063 0.299213 
vt 0.496063 0.047244 
vt 0.724409 0.299213 
vt 0.496063 0.299213 
vt 0.496063 0.047244 
vt 0.724409 0.299213 
vt 0.496063 0.299213 
vt 0.496063 0.047244 
vt 0.724409 0.299213 
vt 0.496063 0.299213 
vt 0.496063 0.047244 
vt 0.724409 0.047244 
vt 0.724409 0.299213 
vt 0.496063 0.047244 
vt 0.724409 0.299213 
vt 0.496063 0.299213 
vt 0.496063 0.047244 
vt 0.724409 0.047244 
vt 0.724409 0.299213 
vt 0.496063 0.047244 
vt 0.724409 0.299213 
vt 0.496063 0.299213 
vt 0.496063 0.047244 
vt 0.724409 0.047244 
vt 0.724409 0.299213 
vt 0.496063 0.047244 
vt 0.724409 0.299213 
vt 0.496063 0.299213 
vt 0.496063 0.047244 
vt 0.724409 0.047244 
vt 0.724409 0.299213 
vt 0.496063 0.047244 
vt 0.724409 0.299213 
vt 0.496063 0.299213 
vt 0.496063 0.047244 
vt 0.724409 0.047244 
vt 0.724409 0.299213 
vt 0.496063 0.047244 
vt 0.724409 0.299213 
vt 0.496063 0.299213 
vt 0.496063 0.047244 
vt 0.724409 0.047244 
vt 0.724409 0.299213 
vt 0.496063 0.047244 
vt 0.724409 0.299213 
vt 0.496063 0.299213 
vt 0.496063 0.047244 
vt 0.724409 0.047244 
vt 0.724409 0.299213 
vt 0.496063 0.047244 
vt 0.724409 0.299213 
vt 0.496063 0.299213 
vt 0.496063 0.047244 
vt 0.724409 0.047244 
vt 0.724409 0.299213 
vt 0.496063 0.047244 
vt 0.724409 0.299213 
vt 0.496063 0.299213 
vt 0.496063 0.047244 
vt 0.724409 0.047244 
vt 0.724409 0.299213 
vt 0.496063 0.047244 
vt 0.724409 0.299213 
vt 0.496063 0.299213 
vt 0.496063 0.047244 
vt 0.724409 0.047244 
vt 0.724409 0.299213 
vt 0.496063 0.047244 
vt 0.724409 0.299213 
vt 0.496063 0.299213 
vt 0.496063 0.047244 
vt 0.724409 0.047244 
vt 0.724409 0.299213 
vt 0.496063 0.047244 
vt 0.724409 0.299213 
vt 0.496063 0.299213 
vt 0.496063 0.047244 
vt 0.724409 0.047244 
vt 0.724409 0.299213 
vt 0.724409 0.299213 
vt 0.496063 0.047244 
vt 0.724409 0.047244 
vt 0.724409 0.299213 
vt 0.496063 0.047244 
vt 0.724409 0.047244 
vt 0.724409 0.299213 
vt 0.496063 0.047244 
vt 0.724409 0.047244 
vt 0.724409 0.299213 
vt 0.496063 0.047244 
vt 0.724409 0.047244 
f 1/1/1 2/2/2 3/3/3
f 4/4/4 5/5/5 6/6/6
f 7/7/7 8/8/8 9/9/9
f 10/10/10 11/11/11 12/12/12
f 13/13/13 14/14/14 15/15/15
f 16/16/16 17/17/17 18/18/18
f 19/19/19 20/20/20 21/21/21
f 22/22/22 23/23/23 24/24/24
f 25/25/25 26/26/26 27/27/27
f 28/28/28 29/29/29 30/30/30
f 31/31/31 32/32/32 33/33/33
f 34/34/34 35/35/35 36/36/36
f 37/37/37 38/38/38 39/39/39
f 40/40/40 41/41/41 42/42/42
f 43/43/43 44/44/44 45/45/45
f 46/46/46 47/47/47 48/48/48
f 49/49/49 50/50/50 51/51/51
f 52/52/52 53/53/53 54/54/54
f 55/55/55 56/56/56 57/57/57
f 58/58/58 59/59/59 60/60/60
f 61/61/61 62/62/62 63/63/63
f 64/64/64 65/65/65 66/66/66
f 67/67/67 68/68/68 69/69/69
f 70/70/70 71/71/71 72/72/72
f 73/73/73 74/74/74 75/75/75
f 76/76/76 77/77/77 78/78/78
f 79/79/79 80/80/80 81/81/81
f 82/82/82 83/83/83 84/84/84
f 85/85/85 86/86/86 87/87/87
f 88/88/88 89/89/89 90/90/90
f 91/91/91 92/92/92 93/93/93
f 94/94/94 95/95/95 96/96/96
