v 96.000000 -20.000000 -138.000000 
v 89.000000 0.000000 -143.000000 
v 117.000000 0.000000 -132.000000 
v 112.000000 -28.000000 -125.000000 
v 96.000000 -20.000000 -138.000000 
v 117.000000 0.000000 -132.000000 
v 129.000000 -20.000000 -113.000000 
v 112.000000 -28.000000 -125.000000 
v 117.000000 0.000000 -132.000000 
v 135.000000 0.000000 -108.000000 
v 129.000000 -20.000000 -113.000000 
v 117.000000 0.000000 -132.000000 
v 129.000000 20.000000 -113.000000 
v 135.000000 0.000000 -108.000000 
v 117.000000 0.000000 -132.000000 
v 112.000000 28.000000 -125.000000 
v 129.000000 20.000000 -113.000000 
v 117.000000 0.000000 -132.000000 
v 96.000000 20.000000 -138.000000 
v 112.000000 28.000000 -125.000000 
v 117.000000 0.000000 -132.000000 
v 89.000000 0.000000 -143.000000 
v 96.000000 20.000000 -138.000000 
v 117.000000 0.000000 -132.000000 
v 77.000000 -28.000000 -127.000000 
v 68.000000 0.000000 -134.000000 
v 89.000000 0.000000 -143.000000 
v 96.000000 -20.000000 -138.000000 
v 77.000000 -28.000000 -127.000000 
v 89.000000 0.000000 -143.000000 
v 100.000000 -40.000000 -109.000000 
v 77.000000 -28.000000 -127.000000 
v 96.000000 -20.000000 -138.000000 
v 112.000000 -28.000000 -125.000000 
v 100.000000 -40.000000 -109.000000 
v 96.000000 -20.000000 -138.000000 
v 123.000000 -28.000000 -92.000000 
v 100.000000 -40.000000 -109.000000 
v 112.000000 -28.000000 -125.000000 
v 129.000000 -20.000000 -113.000000 
v 123.000000 -28.000000 -92.000000 
v 112.000000 -28.000000 -125.000000 
v 132.000000 0.000000 -85.000000 
v 123.000000 -28.000000 -92.000000 
v 129.000000 -20.000000 -113.000000 
v 135.000000 0.000000 -108.000000 
v 132.000000 0.000000 -85.000000 
v 129.000000 -20.000000 -113.000000 
v 123.000000 28.000000 -92.000000 
v 132.000000 0.000000 -85.000000 
v 135.000000 0.000000 -108.000000 
v 129.000000 20.000000 -113.000000 
v 123.000000 28.000000 -92.000000 
v 135.000000 0.000000 -108.000000 
v 100.000000 40.000000 -109.000000 
v 123.000000 28.000000 -92.000000 
v 129.000000 20.000000 -113.000000 
v 112.000000 28.000000 -125.000000 
v 100.000000 40.000000 -109.000000 
v 129.000000 20.000000 -113.000000 
v 77.000000 28.000000 -127.000000 
v 100.000000 40.000000 -109.000000 
v 112.000000 28.000000 -125.000000 
v 96.000000 20.000000 -138.000000 
v 77.000000 28.000000 -127.000000 
v 112.000000 28.000000 -125.000000 
v 68.000000 0.000000 -134.000000 
v 77.000000 28.000000 -127.000000 
v 96.000000 20.000000 -138.000000 
v 89.000000 0.000000 -143.000000 
v 68.000000 0.000000 -134.000000 
v 96.000000 20.000000 -138.000000 
v 72.000000 -20.000000 -106.000000 
v 65.000000 0.000000 -111.000000 
v 68.000000 0.000000 -134.000000 
v 77.000000 -28.000000 -127.000000 
v 72.000000 -20.000000 -106.000000 
v 68.000000 0.000000 -134.000000 
v 88.000000 -28.000000 -93.000000 
v 72.000000 -20.000000 -106.000000 
v 77.000000 -28.000000 -127.000000 
v 100.000000 -40.000000 -109.000000 
v 88.000000 -28.000000 -93.000000 
v 77.000000 -28.000000 -127.000000 
v 104.000000 -20.000000 -81.000000 
v 88.000000 -28.000000 -93.000000 
v 100.000000 -40.000000 -109.000000 
v 123.000000 -28.000000 -92.000000 
v 104.000000 -20.000000 -81.000000 
v 100.000000 -40.000000 -109.000000 
v 111.000000 0.000000 -76.000000 
v 104.000000 -20.000000 -81.000000 
v 123.000000 -28.000000 -92.000000 
v 132.000000 0.000000 -85.000000 
v 111.000000 0.000000 -76.000000 
v 123.000000 -28.000000 -92.000000 
v 104.000000 20.000000 -81.000000 
v 111.000000 0.000000 -76.000000 
v 132.000000 0.000000 -85.000000 
v 123.000000 28.000000 -92.000000 
v 104.000000 20.000000 -81.000000 
v 132.000000 0.000000 -85.000000 
v 88.000000 28.000000 -93.000000 
v 104.000000 20.000000 -81.000000 
v 123.000000 28.000000 -92.000000 
v 100.000000 40.000000 -109.000000 
v 88.000000 28.000000 -93.000000 
v 123.000000 28.000000 -92.000000 
v 72.000000 20.000000 -106.000000 
v 88.000000 28.000000 -93.000000 
v 100.000000 40.000000 -109.000000 
v 77.000000 28.000000 -127.000000 
v 72.000000 20.000000 -106.000000 
v 100.000000 40.000000 -109.000000 
v 65.000000 0.000000 -111.000000 
v 72.000000 20.000000 -106.000000 
v 77.000000 28.000000 -127.000000 
v 68.000000 0.000000 -134.000000 
v 65.000000 0.000000 -111.000000 
v 77.000000 28.000000 -127.000000 
vn 0.019775 -0.589600 -0.807373 
vn -0.200195 -0.080322 -0.976318 
vn 0.608643 0.000000 -0.793213 
vn 0.460938 -0.753174 -0.468750 
vn 0.019775 -0.589600 -0.807373 
vn 0.608643 0.000000 -0.793213 
vn 0.864990 -0.475586 -0.158691 
vn 0.460938 -0.753174 -0.468750 
vn 0.608643 0.000000 -0.793213 
vn 0.994873 0.080322 -0.059082 
vn 0.864990 -0.475586 -0.158691 
vn 0.608643 0.000000 -0.793213 
vn 0.774658 0.589600 -0.228027 
vn 0.994873 0.080322 -0.059082 
vn 0.608643 0.000000 -0.793213 
vn 0.333252 0.753174 -0.566650 
vn 0.774658 0.589600 -0.228027 
vn 0.608643 0.000000 -0.793213 
vn -0.070312 0.475586 -0.876709 
vn 0.333252 0.753174 -0.566650 
vn 0.608643 0.000000 -0.793213 
vn -0.200195 -0.080322 -0.976318 
vn -0.070312 0.475586 -0.876709 
vn 0.608643 0.000000 -0.793213 
vn -0.560791 -0.707031 -0.430420 
vn -0.793213 0.000000 -0.608643 
vn -0.200195 -0.080322 -0.976318 
vn 0.019775 -0.589600 -0.807373 
vn -0.560791 -0.707031 -0.430420 
vn -0.200195 -0.080322 -0.976318 
vn 0.000000 -1.000000 0.000000 
vn -0.560791 -0.707031 -0.430420 
vn 0.019775 -0.589600 -0.807373 
vn 0.460938 -0.753174 -0.468750 
vn 0.000000 -1.000000 0.000000 
vn 0.019775 -0.589600 -0.807373 
vn 0.560791 -0.707031 0.430420 
vn 0.000000 -1.000000 0.000000 
vn 0.460938 -0.753174 -0.468750 
vn 0.864990 -0.475586 -0.158691 
vn 0.560791 -0.707031 0.430420 
vn 0.460938 -0.753174 -0.468750 
vn 0.793213 0.000000 0.608643 
vn 0.560791 -0.707031 0.430420 
vn 0.864990 -0.475586 -0.158691 
vn 0.994873 0.080322 -0.059082 
vn 0.793213 0.000000 0.608643 
vn 0.864990 -0.475586 -0.158691 
vn 0.560791 0.707031 0.430420 
vn 0.793213 0.000000 0.608643 
vn 0.994873 0.080322 -0.059082 
vn 0.774658 0.589600 -0.228027 
vn 0.560791 0.707031 0.430420 
vn 0.994873 0.080322 -0.059082 
vn 0.000000 1.000000 0.000000 
vn 0.560791 0.707031 0.430420 
vn 0.774658 0.589600 -0.228027 
vn 0.333252 0.753174 -0.566650 
vn 0.000000 1.000000 0.000000 
vn 0.774658 0.589600 -0.228027 
vn -0.560791 0.707031 -0.430420 
vn 0.000000 1.000000 0.000000 
vn 0.333252 0.753174 -0.566650 
vn -0.070312 0.475586 -0.876709 
vn -0.560791 0.707031 -0.430420 
vn 0.333252 0.753174 -0.566650 
vn -0.793213 0.000000 -0.608643 
vn -0.560791 0.707031 -0.430420 
vn -0.070312 0.475586 -0.876709 
vn -0.200195 -0.080322 -0.976318 
vn -0.793213 0.000000 -0.608643 
vn -0.070312 0.475586 -0.876709 
vn -0.816162 -0.558350 -0.147705 
vn -0.958008 0.126465 -0.256592 
vn -0.793213 0.000000 -0.608643 
vn -0.560791 -0.707031 -0.430420 
vn -0.816162 -0.558350 -0.147705 
vn -0.793213 0.000000 -0.608643 
vn -0.331299 -0.916260 0.224121 
vn -0.816162 -0.558350 -0.147705 
vn -0.560791 -0.707031 -0.430420 
vn 0.000000 -1.000000 0.000000 
vn -0.331299 -0.916260 0.224121 
vn -0.560791 -0.707031 -0.430420 
vn 0.211914 -0.737305 0.641113 
vn -0.331299 -0.916260 0.224121 
vn 0.000000 -1.000000 0.000000 
vn 0.560791 -0.707031 0.430420 
vn 0.211914 -0.737305 0.641113 
vn 0.000000 -1.000000 0.000000 
vn 0.495850 -0.126465 0.858887 
vn 0.211914 -0.737305 0.641113 
vn 0.560791 -0.707031 0.430420 
vn 0.793213 0.000000 0.608643 
vn 0.495850 -0.126465 0.858887 
vn 0.560791 -0.707031 0.430420 
vn 0.354004 0.558350 0.750000 
vn 0.495850 -0.126465 0.858887 
vn 0.793213 0.000000 0.608643 
vn 0.560791 0.707031 0.430420 
vn 0.354004 0.558350 0.750000 
vn 0.793213 0.000000 0.608643 
vn -0.130615 0.916260 0.378174 
vn 0.354004 0.558350 0.750000 
vn 0.560791 0.707031 0.430420 
vn 0.000000 1.000000 0.000000 
vn -0.130615 0.916260 0.378174 
vn 0.560791 0.707031 0.430420 
vn -0.674072 0.737305 -0.038818 
vn -0.130615 0.916260 0.378174 
vn 0.000000 1.000000 0.000000 
vn -0.560791 0.707031 -0.430420 
vn -0.674072 0.737305 -0.038818 
vn 0.000000 1.000000 0.000000 
vn -0.958008 0.126465 -0.256592 
vn -0.674072 0.737305 -0.038818 
vn -0.560791 0.707031 -0.430420 
vn -0.793213 0.000000 -0.608643 
vn -0.958008 0.126465 -0.256592 
vn -0.560791 0.707031 -0.430420 
vt 0.225806 0.746032 
vt 0.741935 0.746032 
vt 0.516129 0.888889 
vt 0.741935 0.746032 
vt 0.225806 0.746032 
vt 0.516129 0.888889 
vt 0.225806 0.746032 
vt 0.741935 0.746032 
vt 0.516129 0.888889 
vt 0.741935 0.746032 
vt 0.225806 0.746032 
vt 0.516129 0.888889 
vt 0.225806 0.746032 
vt 0.741935 0.746032 
vt 0.516129 0.888889 
vt 0.741935 0.746032 
vt 0.225806 0.746032 
vt 0.516129 0.888889 
vt 0.225806 0.746032 
vt 0.741935 0.746032 
vt 0.516129 0.888889 
vt 0.741935 0.746032 
vt 0.225806 0.746032 
vt 0.516129 0.888889 
vt 0.000000 0.587302 
vt 1.000000 0.587302 
vt 0.741935 0.746032 
vt 0.225806 0.746032 
vt 0.000000 0.587302 
vt 0.741935 0.746032 
vt 1.000000 0.587302 
vt 0.000000 0.587302 
vt 0.225806 0.746032 
vt 0.741935 0.746032 
vt 1.000000 0.587302 
vt 0.225806 0.746032 
vt 0.000000 0.587302 
vt 1.000000 0.587302 
vt 0.741935 0.746032 
vt 0.225806 0.746032 
vt 0.000000 0.587302 
vt 0.741935 0.746032 
vt 1.000000 0.587302 
vt 0.000000 0.587302 
vt 0.225806 0.746032 
vt 0.741935 0.746032 
vt 1.000000 0.587302 
vt 0.225806 0.746032 
vt 0.000000 0.587302 
vt 1.000000 0.587302 
vt 0.741935 0.746032 
vt 0.225806 0.746032 
vt 0.000000 0.587302 
vt 0.741935 0.746032 
vt 1.000000 0.587302 
vt 0.000000 0.587302 
vt 0.225806 0.746032 
vt 0.741935 0.746032 
vt 1.000000 0.587302 
vt 0.225806 0.746032 
vt 0.000000 0.587302 
vt 1.000000 0.587302 
vt 0.741935 0.746032 
vt 0.225806 0.746032 
vt 0.000000 0.587302 
vt 0.741935 0.746032 
vt 1.000000 0.587302 
vt 0.000000 0.587302 
vt 0.225806 0.746032 
vt 0.741935 0.746032 
vt 1.000000 0.587302 
vt 0.225806 0.746032 
vt 0.225806 0.746032 
vt 0.741935 0.746032 
vt 1.000000 0.587302 
vt 0.000000 0.587302 
vt 0.225806 0.746032 
vt 1.000000 0.587302 
vt 0.741935 0.746032 
vt 0.225806 0.746032 
vt 0.000000 0.587302 
vt 1.000000 0.587302 
vt 0.741935 0.746032 
vt 0.000000 0.587302 
vt 0.225806 0.746032 
vt 0.741935 0.746032 
vt 1.000000 0.587302 
vt 0.000000 0.587302 
vt 0.225806 0.746032 
vt 1.000000 0.587302 
vt 0.741935 0.746032 
vt 0.225806 0.746032 
vt 0.000000 0.587302 
vt 1.000000 0.587302 
vt 0.741935 0.746032 
vt 0.000000 0.587302 
vt 0.225806 0.746032 
vt 0.741935 0.746032 
vt 1.000000 0.587302 
vt 0.000000 0.587302 
vt 0.225806 0.746032 
vt 1.000000 0.587302 
vt 0.741935 0.746032 
vt 0.225806 0.746032 
vt 0.000000 0.587302 
vt 1.000000 0.587302 
vt 0.741935 0.746032 
vt 0.000000 0.587302 
vt 0.225806 0.746032 
vt 0.741935 0.746032 
vt 1.000000 0.587302 
vt 0.000000 0.587302 
vt 0.225806 0.746032 
vt 1.000000 0.587302 
vt 0.741935 0.746032 
vt 0.225806 0.746032 
vt 0.000000 0.587302 
vt 1.000000 0.587302 
vt 0.741935 0.746032 
vt 0.000000 0.587302 
f 1/1/1 2/2/2 3/3/3
f 4/4/4 5/5/5 6/6/6
f 7/7/7 8/8/8 9/9/9
f 10/10/10 11/11/11 12/12/12
f 13/13/13 14/14/14 15/15/15
f 16/16/16 17/17/17 18/18/18
f 19/19/19 20/20/20 21/21/21
f 22/22/22 23/23/23 24/24/24
f 25/25/25 26/26/26 27/27/27
f 28/28/28 29/29/29 30/30/30
f 31/31/31 32/32/32 33/33/33
f 34/34/34 35/35/35 36/36/36
f 37/37/37 38/38/38 39/39/39
f 40/40/40 41/41/41 42/42/42
f 43/43/43 44/44/44 45/45/45
f 46/46/46 47/47/47 48/48/48
f 49/49/49 50/50/50 51/51/51
f 52/52/52 53/53/53 54/54/54
f 55/55/55 56/56/56 57/57/57
f 58/58/58 59/59/59 60/60/60
f 61/61/61 62/62/62 63/63/63
f 64/64/64 65/65/65 66/66/66
f 67/67/67 68/68/68 69/69/69
f 70/70/70 71/71/71 72/72/72
f 73/73/73 74/74/74 75/75/75
f 76/76/76 77/77/77 78/78/78
f 79/79/79 80/80/80 81/81/81
f 82/82/82 83/83/83 84/84/84
f 85/85/85 86/86/86 87/87/87
f 88/88/88 89/89/89 90/90/90
f 91/91/91 92/92/92 93/93/93
f 94/94/94 95/95/95 96/96/96
f 97/97/97 98/98/98 99/99/99
f 100/100/100 101/101/101 102/102/102
f 103/103/103 104/104/104 105/105/105
f 106/106/106 107/107/107 108/108/108
f 109/109/109 110/110/110 111/111/111
f 112/112/112 113/113/113 114/114/114
f 115/115/115 116/116/116 117/117/117
f 118/118/118 119/119/119 120/120/120
