v 0.000000 72.000000 7.000000 
v 0.000000 20.000000 4.000000 
v -14.000000 23.000000 7.000000 
v 0.000000 72.000000 7.000000 
v 14.000000 21.000000 10.000000 
v 0.000000 20.000000 4.000000 
v 0.000000 72.000000 7.000000 
v -14.000000 23.000000 7.000000 
v 0.000000 16.000000 7.000000 
v 0.000000 72.000000 7.000000 
v 0.000000 16.000000 7.000000 
v 14.000000 21.000000 10.000000 
vn 0.032227 -0.011475 -0.999268 
vn 0.020996 0.281494 -0.959229 
vn -0.228516 0.162109 -0.959717 
vn 0.032227 -0.011475 -0.999268 
vn 0.321289 0.224121 -0.919922 
vn 0.020996 0.281494 -0.959229 
vn -0.041016 0.056396 0.997314 
vn -0.045166 -0.072510 0.996094 
vn -0.019775 -0.206055 0.978271 
vn -0.041016 0.056396 0.997314 
vn -0.019775 -0.206055 0.978271 
vn -0.033936 -0.130859 0.990723 
vt 0.396825 1.000000 
vt 0.444444 0.857143 
vt 0.206349 0.857143 
vt 0.523810 1.000000 
vt 0.761905 0.857143 
vt 0.444444 0.857143 
vt 0.492063 1.000000 
vt 0.746032 0.841270 
vt 0.492063 0.777778 
vt 0.492063 1.000000 
vt 0.492063 0.777778 
vt 0.301587 0.857143 
f 1/1/1 2/2/2 3/3/3
f 4/4/4 5/5/5 6/6/6
f 7/7/7 8/8/8 9/9/9
f 10/10/10 11/11/11 12/12/12
