v -30.000000 -43.000000 8.000000 
v -26.000000 -40.000000 24.000000 
v -45.000000 -24.000000 33.000000 
v -52.000000 -29.000000 5.000000 
v -30.000000 -43.000000 8.000000 
v -45.000000 -24.000000 33.000000 
v -26.000000 -45.000000 -8.000000 
v -30.000000 -43.000000 8.000000 
v -52.000000 -29.000000 5.000000 
v -45.000000 -33.000000 -22.000000 
v -26.000000 -45.000000 -8.000000 
v -52.000000 -29.000000 5.000000 
v -15.000000 -48.000000 -19.000000 
v -26.000000 -45.000000 -8.000000 
v -45.000000 -33.000000 -22.000000 
v -26.000000 -37.000000 -43.000000 
v -15.000000 -48.000000 -19.000000 
v -45.000000 -33.000000 -22.000000 
v 0.000000 -48.000000 -24.000000 
v -15.000000 -48.000000 -19.000000 
v -26.000000 -37.000000 -43.000000 
v 0.000000 -38.000000 -50.000000 
v 0.000000 -48.000000 -24.000000 
v -26.000000 -37.000000 -43.000000 
v 15.000000 -48.000000 -19.000000 
v 0.000000 -48.000000 -24.000000 
v 0.000000 -38.000000 -50.000000 
v 26.000000 -37.000000 -43.000000 
v 15.000000 -48.000000 -19.000000 
v 0.000000 -38.000000 -50.000000 
v 26.000000 -45.000000 -8.000000 
v 15.000000 -48.000000 -19.000000 
v 26.000000 -37.000000 -43.000000 
v 45.000000 -33.000000 -22.000000 
v 26.000000 -45.000000 -8.000000 
v 26.000000 -37.000000 -43.000000 
v 30.000000 -43.000000 8.000000 
v 26.000000 -45.000000 -8.000000 
v 45.000000 -33.000000 -22.000000 
v 52.000000 -29.000000 5.000000 
v 30.000000 -43.000000 8.000000 
v 45.000000 -33.000000 -22.000000 
v 26.000000 -40.000000 24.000000 
v 30.000000 -43.000000 8.000000 
v 52.000000 -29.000000 5.000000 
v 45.000000 -24.000000 33.000000 
v 26.000000 -40.000000 24.000000 
v 52.000000 -29.000000 5.000000 
v -26.000000 -40.000000 24.000000 
v -30.000000 -43.000000 8.000000 
v 0.000000 -47.000000 28.000000 
v -30.000000 -43.000000 8.000000 
v -26.000000 -45.000000 -8.000000 
v 0.000000 -47.000000 28.000000 
v -26.000000 -45.000000 -8.000000 
v -15.000000 -48.000000 -19.000000 
v 0.000000 -47.000000 28.000000 
v -15.000000 -48.000000 -19.000000 
v 0.000000 -48.000000 -24.000000 
v 0.000000 -47.000000 28.000000 
v 0.000000 -48.000000 -24.000000 
v 15.000000 -48.000000 -19.000000 
v 0.000000 -47.000000 28.000000 
v 15.000000 -48.000000 -19.000000 
v 26.000000 -45.000000 -8.000000 
v 0.000000 -47.000000 28.000000 
v 26.000000 -45.000000 -8.000000 
v 30.000000 -43.000000 8.000000 
v 0.000000 -47.000000 28.000000 
v 30.000000 -43.000000 8.000000 
v 26.000000 -40.000000 24.000000 
v 0.000000 -47.000000 28.000000 
v -45.000000 -24.000000 33.000000 
v -60.000000 -12.000000 2.000000 
v -52.000000 -29.000000 5.000000 
v -52.000000 -18.000000 -29.000000 
v -52.000000 -29.000000 5.000000 
v -60.000000 -12.000000 2.000000 
v -52.000000 -29.000000 5.000000 
v -52.000000 -18.000000 -29.000000 
v -45.000000 -33.000000 -22.000000 
v -30.000000 -22.000000 -53.000000 
v -45.000000 -33.000000 -22.000000 
v -52.000000 -18.000000 -29.000000 
v -45.000000 -33.000000 -22.000000 
v -28.000000 -23.000000 -53.000000 
v -26.000000 -37.000000 -43.000000 
v 0.000000 -38.000000 -50.000000 
v -26.000000 -37.000000 -43.000000 
v -28.000000 -23.000000 -53.000000 
v -28.000000 -23.000000 -53.000000 
v 0.000000 -24.000000 -61.000000 
v 0.000000 -24.000000 -60.000000 
v 30.000000 -22.000000 -53.000000 
v 0.000000 -24.000000 -60.000000 
v 0.000000 -23.000000 -61.000000 
v 0.000000 -24.000000 -60.000000 
v 30.000000 -22.000000 -53.000000 
v 28.000000 -23.000000 -53.000000 
v 52.000000 -18.000000 -29.000000 
v 28.000000 -23.000000 -53.000000 
v 30.000000 -22.000000 -53.000000 
v 26.000000 -37.000000 -43.000000 
v 52.000000 -18.000000 -29.000000 
v 45.000000 -33.000000 -22.000000 
v 60.000000 -12.000000 2.000000 
v 45.000000 -33.000000 -22.000000 
v 52.000000 -18.000000 -29.000000 
v 45.000000 -33.000000 -22.000000 
v 60.000000 -12.000000 2.000000 
v 52.000000 -29.000000 5.000000 
v 45.000000 -24.000000 33.000000 
v 52.000000 -29.000000 5.000000 
v 60.000000 -12.000000 2.000000 
v 11.000000 -24.000000 -58.000000 
v 7.000000 -28.000000 -54.000000 
v 5.000000 -27.000000 -61.000000 
v -11.000000 -24.000000 -58.000000 
v 0.000000 -24.000000 -61.000000 
v -5.000000 -27.000000 -61.000000 
v -7.000000 -28.000000 -54.000000 
v -5.000000 -27.000000 -61.000000 
v 0.000000 -28.000000 -63.000000 
v 0.000000 -29.000000 -56.000000 
v -7.000000 -28.000000 -54.000000 
v 0.000000 -28.000000 -63.000000 
v 7.000000 -28.000000 -54.000000 
v 0.000000 -29.000000 -56.000000 
v 0.000000 -28.000000 -63.000000 
v 0.000000 -24.000000 -61.000000 
v 5.000000 -27.000000 -61.000000 
v 0.000000 -28.000000 -63.000000 
v 5.000000 -27.000000 -61.000000 
v 7.000000 -28.000000 -54.000000 
v 0.000000 -28.000000 -63.000000 
v 0.000000 -24.000000 -61.000000 
v 0.000000 -28.000000 -63.000000 
v -5.000000 -27.000000 -61.000000 
v -7.000000 -28.000000 -54.000000 
v -11.000000 -24.000000 -58.000000 
v -5.000000 -27.000000 -61.000000 
v 0.000000 -24.000000 -61.000000 
v 11.000000 -24.000000 -58.000000 
v 5.000000 -27.000000 -61.000000 
v 0.000000 -24.000000 -61.000000 
v -28.000000 -23.000000 -53.000000 
v -30.000000 -22.000000 -53.000000 
v -45.000000 -33.000000 -22.000000 
v -30.000000 -22.000000 -53.000000 
v -28.000000 -23.000000 -53.000000 
v -28.000000 -23.000000 -53.000000 
v 0.000000 -24.000000 -60.000000 
v 0.000000 -38.000000 -50.000000 
v 28.000000 -23.000000 -53.000000 
v 0.000000 -38.000000 -50.000000 
v 0.000000 -24.000000 -60.000000 
v 0.000000 -38.000000 -50.000000 
v 28.000000 -23.000000 -53.000000 
v 26.000000 -37.000000 -43.000000 
v 52.000000 -18.000000 -29.000000 
v 26.000000 -37.000000 -43.000000 
v 28.000000 -23.000000 -53.000000 
v 0.000000 -23.000000 -58.000000 
v 0.000000 -24.000000 -61.000000 
v -28.000000 -23.000000 -53.000000 
v -48.000000 -18.000000 -29.000000 
v -28.000000 -23.000000 -53.000000 
v -52.000000 -18.000000 -29.000000 
v 30.000000 -22.000000 -53.000000 
v 0.000000 -23.000000 -58.000000 
v 28.000000 -22.000000 -50.000000 
v -56.000000 -12.000000 2.000000 
v -52.000000 -18.000000 -29.000000 
v -60.000000 -12.000000 2.000000 
v -48.000000 -18.000000 -29.000000 
v -52.000000 -18.000000 -29.000000 
v -56.000000 -12.000000 2.000000 
v 52.000000 -7.000000 34.000000 
v -56.000000 -12.000000 2.000000 
v -52.000000 -7.000000 34.000000 
v -56.000000 -12.000000 2.000000 
v -60.000000 -12.000000 2.000000 
v -52.000000 -7.000000 34.000000 
v 30.000000 -2.000000 57.000000 
v -52.000000 -7.000000 34.000000 
v -30.000000 -2.000000 57.000000 
v 52.000000 -7.000000 34.000000 
v -52.000000 -7.000000 34.000000 
v 30.000000 -2.000000 57.000000 
v 30.000000 -2.000000 57.000000 
v -30.000000 -2.000000 57.000000 
v 0.000000 -1.000000 66.000000 
v -25.000000 -23.000000 -51.000000 
v 0.000000 -23.000000 -58.000000 
v -28.000000 -23.000000 -53.000000 
v 30.000000 -22.000000 -53.000000 
v 0.000000 -24.000000 -61.000000 
v 0.000000 -23.000000 -58.000000 
v 52.000000 -18.000000 -29.000000 
v 49.000000 -18.000000 -29.000000 
v 60.000000 -12.000000 2.000000 
v 52.000000 -18.000000 -29.000000 
v 30.000000 -22.000000 -53.000000 
v 49.000000 -18.000000 -29.000000 
v 49.000000 -18.000000 -29.000000 
v -48.000000 -18.000000 -29.000000 
v 56.000000 -12.000000 2.000000 
v 49.000000 -18.000000 -29.000000 
v -25.000000 -23.000000 -51.000000 
v -48.000000 -18.000000 -29.000000 
v 60.000000 -12.000000 2.000000 
v 56.000000 -12.000000 2.000000 
v 52.000000 -7.000000 34.000000 
v 60.000000 -12.000000 2.000000 
v 49.000000 -18.000000 -29.000000 
v 56.000000 -12.000000 2.000000 
v 56.000000 -12.000000 2.000000 
v -56.000000 -12.000000 2.000000 
v 52.000000 -7.000000 34.000000 
v 56.000000 -12.000000 2.000000 
v -48.000000 -18.000000 -29.000000 
v -56.000000 -12.000000 2.000000 
v 49.000000 -18.000000 -29.000000 
v 28.000000 -22.000000 -50.000000 
v -25.000000 -23.000000 -51.000000 
v 30.000000 -22.000000 -53.000000 
v 28.000000 -22.000000 -50.000000 
v 49.000000 -18.000000 -29.000000 
v -25.000000 -23.000000 -51.000000 
v 28.000000 -22.000000 -50.000000 
v 0.000000 -23.000000 -58.000000 
v -25.000000 -23.000000 -51.000000 
v -28.000000 -23.000000 -53.000000 
v -48.000000 -18.000000 -29.000000 
vn -0.478271 -0.857422 0.188477 
vn -0.464600 -0.841553 0.274658 
vn -0.714355 -0.629395 0.305176 
vn -0.785645 -0.617432 0.037598 
vn -0.478271 -0.857422 0.188477 
vn -0.714355 -0.629395 0.305176 
vn -0.409912 -0.911133 -0.038818 
vn -0.478271 -0.857422 0.188477 
vn -0.785645 -0.617432 0.037598 
vn -0.636230 -0.671875 -0.378662 
vn -0.409912 -0.911133 -0.038818 
vn -0.785645 -0.617432 0.037598 
vn -0.248779 -0.946777 -0.203125 
vn -0.409912 -0.911133 -0.038818 
vn -0.636230 -0.671875 -0.378662 
vn -0.345215 -0.770508 -0.535645 
vn -0.248779 -0.946777 -0.203125 
vn -0.636230 -0.671875 -0.378662 
vn -0.031982 -0.961182 -0.273193 
vn -0.248779 -0.946777 -0.203125 
vn -0.345215 -0.770508 -0.535645 
vn 0.023438 -0.726318 -0.686523 
vn -0.031982 -0.961182 -0.273193 
vn -0.345215 -0.770508 -0.535645 
vn 0.193115 -0.952637 -0.234619 
vn -0.031982 -0.961182 -0.273193 
vn 0.023438 -0.726318 -0.686523 
vn 0.450439 -0.722656 -0.523926 
vn 0.193115 -0.952637 -0.234619 
vn 0.023438 -0.726318 -0.686523 
vn 0.377441 -0.921143 -0.093262 
vn 0.193115 -0.952637 -0.234619 
vn 0.450439 -0.722656 -0.523926 
vn 0.714600 -0.664062 -0.219238 
vn 0.377441 -0.921143 -0.093262 
vn 0.450439 -0.722656 -0.523926 
vn 0.477783 -0.869141 0.125488 
vn 0.377441 -0.921143 -0.093262 
vn 0.714600 -0.664062 -0.219238 
vn 0.751709 -0.642578 0.147217 
vn 0.477783 -0.869141 0.125488 
vn 0.714600 -0.664062 -0.219238 
vn 0.506836 -0.814697 0.281494 
vn 0.477783 -0.869141 0.125488 
vn 0.751709 -0.642578 0.147217 
vn 0.771729 -0.556152 0.307861 
vn 0.506836 -0.814697 0.281494 
vn 0.751709 -0.642578 0.147217 
vn -0.464600 -0.841553 0.274658 
vn -0.478271 -0.857422 0.188477 
vn 0.000000 -0.995605 0.093262 
vn -0.478271 -0.857422 0.188477 
vn -0.409912 -0.911133 -0.038818 
vn 0.000000 -0.995605 0.093262 
vn -0.409912 -0.911133 -0.038818 
vn -0.248779 -0.946777 -0.203125 
vn 0.000000 -0.995605 0.093262 
vn -0.248779 -0.946777 -0.203125 
vn -0.031982 -0.961182 -0.273193 
vn 0.000000 -0.995605 0.093262 
vn -0.031982 -0.961182 -0.273193 
vn 0.193115 -0.952637 -0.234619 
vn 0.000000 -0.995605 0.093262 
vn 0.193115 -0.952637 -0.234619 
vn 0.377441 -0.921143 -0.093262 
vn 0.000000 -0.995605 0.093262 
vn 0.377441 -0.921143 -0.093262 
vn 0.477783 -0.869141 0.125488 
vn 0.000000 -0.995605 0.093262 
vn 0.477783 -0.869141 0.125488 
vn 0.506836 -0.814697 0.281494 
vn 0.000000 -0.995605 0.093262 
vn -0.714355 -0.629395 0.305176 
vn -0.926514 -0.370117 0.065186 
vn -0.785645 -0.617432 0.037598 
vn -0.840332 -0.438477 -0.318359 
vn -0.785645 -0.617432 0.037598 
vn -0.926514 -0.370117 0.065186 
vn -0.785645 -0.617432 0.037598 
vn -0.840332 -0.438477 -0.318359 
vn -0.636230 -0.671875 -0.378662 
vn -0.538086 -0.321045 -0.779053 
vn -0.636230 -0.671875 -0.378662 
vn -0.840332 -0.438477 -0.318359 
vn -0.636230 -0.671875 -0.378662 
vn -0.379883 -0.439697 -0.813721 
vn -0.345215 -0.770508 -0.535645 
vn 0.023438 -0.726318 -0.686523 
vn -0.345215 -0.770508 -0.535645 
vn -0.379883 -0.439697 -0.813721 
vn -0.379883 -0.439697 -0.813721 
vn -0.082520 0.121826 -0.989014 
vn -0.005371 -0.145996 -0.989258 
vn 0.423096 -0.613770 -0.666260 
vn 0.082275 -0.533447 -0.841553 
vn 0.240479 -0.519531 -0.819824 
vn -0.005371 -0.145996 -0.989258 
vn 0.204102 0.274902 -0.939453 
vn 0.204102 0.274902 -0.939453 
vn 0.716309 -0.517090 -0.467773 
vn 0.435791 -0.571045 -0.695312 
vn 0.423096 -0.613770 -0.666260 
vn 0.450439 -0.722656 -0.523926 
vn 0.716309 -0.517090 -0.467773 
vn 0.714600 -0.664062 -0.219238 
vn 0.923340 -0.383545 -0.015869 
vn 0.714600 -0.664062 -0.219238 
vn 0.716309 -0.517090 -0.467773 
vn 0.714600 -0.664062 -0.219238 
vn 0.923340 -0.383545 -0.015869 
vn 0.751709 -0.642578 0.147217 
vn 0.771729 -0.556152 0.307861 
vn 0.751709 -0.642578 0.147217 
vn 0.923340 -0.383545 -0.015869 
vn 0.572998 -0.339111 -0.745850 
vn 0.368164 -0.911621 -0.181885 
vn 0.481934 -0.425537 -0.765625 
vn -0.572998 -0.339111 -0.745850 
vn -0.082520 0.121826 -0.989014 
vn -0.481934 -0.425537 -0.765625 
vn -0.368164 -0.911621 -0.181885 
vn -0.481934 -0.425537 -0.765625 
vn 0.000000 -0.799072 -0.601074 
vn 0.000000 -0.977051 -0.211914 
vn -0.368164 -0.911621 -0.181885 
vn 0.000000 -0.799072 -0.601074 
vn 0.368164 -0.911621 -0.181885 
vn 0.000000 -0.977051 -0.211914 
vn 0.000000 -0.799072 -0.601074 
vn -0.082520 0.121826 -0.989014 
vn 0.481934 -0.425537 -0.765625 
vn 0.000000 -0.799072 -0.601074 
vn 0.481934 -0.425537 -0.765625 
vn 0.368164 -0.911621 -0.181885 
vn 0.000000 -0.799072 -0.601074 
vn -0.082520 0.121826 -0.989014 
vn 0.000000 -0.799072 -0.601074 
vn -0.481934 -0.425537 -0.765625 
vn -0.368164 -0.911621 -0.181885 
vn -0.572998 -0.339111 -0.745850 
vn -0.481934 -0.425537 -0.765625 
vn -0.082520 0.121826 -0.989014 
vn 0.572998 -0.339111 -0.745850 
vn 0.481934 -0.425537 -0.765625 
vn -0.082520 0.121826 -0.989014 
vn -0.379883 -0.439697 -0.813721 
vn -0.538086 -0.321045 -0.779053 
vn -0.636230 -0.671875 -0.378662 
vn -0.538086 -0.321045 -0.779053 
vn -0.379883 -0.439697 -0.813721 
vn -0.379883 -0.439697 -0.813721 
vn 0.082275 -0.533447 -0.841553 
vn 0.023438 -0.726318 -0.686523 
vn 0.435791 -0.571045 -0.695312 
vn 0.023438 -0.726318 -0.686523 
vn 0.082275 -0.533447 -0.841553 
vn 0.023438 -0.726318 -0.686523 
vn 0.435791 -0.571045 -0.695312 
vn 0.450439 -0.722656 -0.523926 
vn 0.716309 -0.517090 -0.467773 
vn 0.450439 -0.722656 -0.523926 
vn 0.435791 -0.571045 -0.695312 
vn -0.038818 0.982422 -0.182129 
vn -0.038818 0.982422 -0.182129 
vn -0.038818 0.982422 -0.182129 
vn 0.000000 0.975586 -0.218750 
vn 0.000000 0.975586 -0.218750 
vn 0.000000 0.975586 -0.218750 
vn 0.000000 0.984619 -0.173584 
vn 0.000000 0.984619 -0.173584 
vn 0.000000 0.984619 -0.173584 
vn 0.000000 0.984619 -0.173584 
vn 0.000000 0.984619 -0.173584 
vn 0.000000 0.984619 -0.173584 
vn 0.000000 0.984619 -0.173584 
vn 0.000000 0.984619 -0.173584 
vn 0.000000 0.984619 -0.173584 
vn 0.000000 0.984619 -0.173584 
vn 0.000000 0.984619 -0.173584 
vn 0.000000 0.984619 -0.173584 
vn 0.000000 0.984619 -0.173584 
vn 0.000000 0.984619 -0.173584 
vn 0.000000 0.984619 -0.173584 
vn 0.000000 0.984619 -0.173584 
vn 0.000000 0.984619 -0.173584 
vn 0.000000 0.984619 -0.173584 
vn 0.000000 0.984619 -0.173584 
vn 0.000000 0.984619 -0.173584 
vn 0.000000 0.984619 -0.173584 
vn 0.000000 0.984619 -0.173584 
vn 0.000000 0.984619 -0.173584 
vn 0.000000 0.984619 -0.173584 
vn -0.022461 0.997803 -0.061279 
vn -0.022461 0.997803 -0.061279 
vn -0.022461 0.997803 -0.061279 
vn 0.001221 0.983154 -0.182129 
vn 0.001221 0.983154 -0.182129 
vn 0.001221 0.983154 -0.182129 
vn 0.000000 0.984619 -0.173584 
vn 0.000000 0.984619 -0.173584 
vn 0.000000 0.984619 -0.173584 
vn 0.000000 0.984619 -0.173584 
vn 0.000000 0.984619 -0.173584 
vn 0.000000 0.984619 -0.173584 
vn 0.000000 0.984619 -0.173584 
vn 0.000000 0.984619 -0.173584 
vn 0.000000 0.984619 -0.173584 
vn 0.000000 0.972900 -0.230469 
vn 0.000000 0.972900 -0.230469 
vn 0.000000 0.972900 -0.230469 
vn 0.000000 0.984619 -0.173584 
vn 0.000000 0.984619 -0.173584 
vn 0.000000 0.984619 -0.173584 
vn 0.000000 0.984619 -0.173584 
vn 0.000000 0.984619 -0.173584 
vn 0.000000 0.984619 -0.173584 
vn 0.000000 0.984619 -0.173584 
vn 0.000000 0.984619 -0.173584 
vn 0.000000 0.984619 -0.173584 
vn 0.000000 0.984619 -0.173584 
vn 0.000000 0.984619 -0.173584 
vn 0.000000 0.984619 -0.173584 
vn -0.022949 0.988281 -0.149902 
vn -0.022949 0.988281 -0.149902 
vn -0.022949 0.988281 -0.149902 
vn 0.000000 0.984619 -0.173584 
vn 0.000000 0.984619 -0.173584 
vn 0.000000 0.984619 -0.173584 
vn -0.024658 0.997070 -0.071533 
vn -0.024658 0.997070 -0.071533 
vn -0.024658 0.997070 -0.071533 
vn 0.067871 0.984619 -0.159912 
vn 0.067871 0.984619 -0.159912 
vn 0.067871 0.984619 -0.159912 
vt 0.809524 0.267717 
vt 0.809524 0.275591 
vt 0.793651 0.275591 
vt 0.793651 0.267717 
vt 0.809524 0.267717 
vt 0.793651 0.275591 
vt 0.460317 0.291339 
vt 0.714286 0.291339 
vt 0.809524 0.385827 
vt 0.476190 0.385827 
vt 0.460317 0.291339 
vt 0.809524 0.385827 
vt 0.190476 0.291339 
vt 0.460317 0.291339 
vt 0.476190 0.385827 
vt 0.111111 0.385827 
vt 0.190476 0.291339 
vt 0.476190 0.385827 
vt 0.825397 0.251969 
vt 0.809524 0.251969 
vt 0.809524 0.244094 
vt 0.825397 0.244094 
vt 0.825397 0.251969 
vt 0.809524 0.244094 
vt 0.825397 0.251969 
vt 0.825397 0.251969 
vt 0.825397 0.244094 
vt 0.825397 0.244094 
vt 0.825397 0.251969 
vt 0.825397 0.244094 
vt 0.460317 0.291339 
vt 0.190476 0.291339 
vt 0.111111 0.385827 
vt 0.476190 0.385827 
vt 0.460317 0.291339 
vt 0.111111 0.385827 
vt 0.714286 0.291339 
vt 0.460317 0.291339 
vt 0.476190 0.385827 
vt 0.809524 0.385827 
vt 0.714286 0.291339 
vt 0.476190 0.385827 
vt 0.825397 0.275591 
vt 0.841270 0.267717 
vt 0.841270 0.267717 
vt 0.841270 0.275591 
vt 0.825397 0.275591 
vt 0.841270 0.267717 
vt 0.809524 0.275591 
vt 0.809524 0.267717 
vt 0.825397 0.267717 
vt 0.809524 0.267717 
vt 0.809524 0.259843 
vt 0.825397 0.267717 
vt 0.809524 0.259843 
vt 0.809524 0.251969 
vt 0.825397 0.267717 
vt 0.809524 0.251969 
vt 0.825397 0.251969 
vt 0.825397 0.267717 
vt 0.825397 0.251969 
vt 0.825397 0.251969 
vt 0.825397 0.267717 
vt 0.825397 0.251969 
vt 0.825397 0.259843 
vt 0.825397 0.267717 
vt 0.825397 0.259843 
vt 0.841270 0.267717 
vt 0.825397 0.267717 
vt 0.841270 0.267717 
vt 0.825397 0.275591 
vt 0.825397 0.267717 
vt 0.793651 0.275591 
vt 0.793651 0.267717 
vt 0.793651 0.267717 
vt 0.476190 0.488189 
vt 0.809524 0.385827 
vt 0.841270 0.488189 
vt 0.809524 0.385827 
vt 0.476190 0.488189 
vt 0.476190 0.385827 
vt 0.079365 0.488189 
vt 0.476190 0.385827 
vt 0.476190 0.488189 
vt 0.476190 0.385827 
vt 0.063492 0.472441 
vt 0.111111 0.385827 
vt 0.825397 0.244094 
vt 0.809524 0.244094 
vt 0.809524 0.244094 
vt 0.460317 0.472441 
vt 0.492063 0.503937 
vt 0.492063 0.456693 
vt 0.523810 0.511811 
vt 0.492063 0.456693 
vt 0.492063 0.503937 
vt 0.492063 0.456693 
vt 0.523810 0.511811 
vt 0.523810 0.472441 
vt 0.476190 0.488189 
vt 0.063492 0.472441 
vt 0.079365 0.488189 
vt 0.111111 0.385827 
vt 0.476190 0.488189 
vt 0.476190 0.385827 
vt 0.841270 0.488189 
vt 0.476190 0.385827 
vt 0.476190 0.488189 
vt 0.476190 0.385827 
vt 0.841270 0.488189 
vt 0.809524 0.385827 
vt 0.841270 0.275591 
vt 0.841270 0.267717 
vt 0.841270 0.267717 
vt 0.523810 0.511811 
vt 0.507937 0.456693 
vt 0.507937 0.496063 
vt 0.444444 0.511811 
vt 0.492063 0.527559 
vt 0.476190 0.496063 
vt 0.460317 0.456693 
vt 0.476190 0.496063 
vt 0.492063 0.503937 
vt 0.492063 0.456693 
vt 0.460317 0.456693 
vt 0.492063 0.503937 
vt 0.507937 0.456693 
vt 0.492063 0.456693 
vt 0.492063 0.503937 
vt 0.492063 0.527559 
vt 0.507937 0.496063 
vt 0.492063 0.503937 
vt 0.507937 0.496063 
vt 0.507937 0.456693 
vt 0.492063 0.503937 
vt 0.492063 0.527559 
vt 0.492063 0.503937 
vt 0.476190 0.496063 
vt 0.460317 0.456693 
vt 0.444444 0.511811 
vt 0.476190 0.496063 
vt 0.492063 0.527559 
vt 0.523810 0.511811 
vt 0.507937 0.496063 
vt 0.492063 0.503937 
vt 0.460317 0.472441 
vt 0.460317 0.511811 
vt 0.476190 0.385827 
vt 0.079365 0.488189 
vt 0.063492 0.472441 
vt 0.809524 0.244094 
vt 0.825397 0.244094 
vt 0.825397 0.244094 
vt 0.825397 0.244094 
vt 0.825397 0.244094 
vt 0.825397 0.244094 
vt 0.825397 0.244094 
vt 0.825397 0.244094 
vt 0.825397 0.244094 
vt 0.476190 0.488189 
vt 0.111111 0.385827 
vt 0.063492 0.472441 
vt 0.825397 0.228346 
vt 0.825397 0.228346 
vt 0.825397 0.228346 
vt 0.825397 0.228346 
vt 0.825397 0.228346 
vt 0.809524 0.228346 
vt 0.841270 0.228346 
vt 0.825397 0.228346 
vt 0.825397 0.228346 
vt 0.825397 0.236220 
vt 0.809524 0.228346 
vt 0.809524 0.236220 
vt 0.825397 0.228346 
vt 0.809524 0.228346 
vt 0.825397 0.236220 
vt 0.841270 0.244094 
vt 0.825397 0.236220 
vt 0.809524 0.244094 
vt 0.825397 0.236220 
vt 0.809524 0.236220 
vt 0.809524 0.244094 
vt 0.841270 0.251969 
vt 0.809524 0.244094 
vt 0.825397 0.251969 
vt 0.841270 0.244094 
vt 0.809524 0.244094 
vt 0.841270 0.251969 
vt 0.841270 0.251969 
vt 0.825397 0.251969 
vt 0.825397 0.251969 
vt 0.825397 0.228346 
vt 0.825397 0.228346 
vt 0.825397 0.228346 
vt 0.841270 0.228346 
vt 0.825397 0.228346 
vt 0.825397 0.228346 
vt 0.841270 0.228346 
vt 0.825397 0.228346 
vt 0.841270 0.236220 
vt 0.841270 0.228346 
vt 0.841270 0.228346 
vt 0.825397 0.228346 
vt 0.825397 0.228346 
vt 0.825397 0.228346 
vt 0.825397 0.236220 
vt 0.825397 0.228346 
vt 0.825397 0.228346 
vt 0.825397 0.228346 
vt 0.841270 0.236220 
vt 0.825397 0.236220 
vt 0.841270 0.244094 
vt 0.841270 0.236220 
vt 0.825397 0.228346 
vt 0.825397 0.236220 
vt 0.825397 0.236220 
vt 0.825397 0.236220 
vt 0.841270 0.244094 
vt 0.825397 0.236220 
vt 0.825397 0.228346 
vt 0.825397 0.236220 
vt 0.825397 0.228346 
vt 0.825397 0.228346 
vt 0.825397 0.228346 
vt 0.841270 0.228346 
vt 0.825397 0.228346 
vt 0.825397 0.228346 
vt 0.825397 0.228346 
vt 0.825397 0.228346 
vt 0.825397 0.228346 
vt 0.825397 0.228346 
vt 0.825397 0.228346 
vt 0.825397 0.228346 
f 1/1/1 2/2/2 3/3/3
f 4/4/4 5/5/5 6/6/6
f 7/7/7 8/8/8 9/9/9
f 10/10/10 11/11/11 12/12/12
f 13/13/13 14/14/14 15/15/15
f 16/16/16 17/17/17 18/18/18
f 19/19/19 20/20/20 21/21/21
f 22/22/22 23/23/23 24/24/24
f 25/25/25 26/26/26 27/27/27
f 28/28/28 29/29/29 30/30/30
f 31/31/31 32/32/32 33/33/33
f 34/34/34 35/35/35 36/36/36
f 37/37/37 38/38/38 39/39/39
f 40/40/40 41/41/41 42/42/42
f 43/43/43 44/44/44 45/45/45
f 46/46/46 47/47/47 48/48/48
f 49/49/49 50/50/50 51/51/51
f 52/52/52 53/53/53 54/54/54
f 55/55/55 56/56/56 57/57/57
f 58/58/58 59/59/59 60/60/60
f 61/61/61 62/62/62 63/63/63
f 64/64/64 65/65/65 66/66/66
f 67/67/67 68/68/68 69/69/69
f 70/70/70 71/71/71 72/72/72
f 73/73/73 74/74/74 75/75/75
f 76/76/76 77/77/77 78/78/78
f 79/79/79 80/80/80 81/81/81
f 82/82/82 83/83/83 84/84/84
f 85/85/85 86/86/86 87/87/87
f 88/88/88 89/89/89 90/90/90
f 91/91/91 92/92/92 93/93/93
f 94/94/94 95/95/95 96/96/96
f 97/97/97 98/98/98 99/99/99
f 100/100/100 101/101/101 102/102/102
f 103/103/103 104/104/104 105/105/105
f 106/106/106 107/107/107 108/108/108
f 109/109/109 110/110/110 111/111/111
f 112/112/112 113/113/113 114/114/114
f 115/115/115 116/116/116 117/117/117
f 118/118/118 119/119/119 120/120/120
f 121/121/121 122/122/122 123/123/123
f 124/124/124 125/125/125 126/126/126
f 127/127/127 128/128/128 129/129/129
f 130/130/130 131/131/131 132/132/132
f 133/133/133 134/134/134 135/135/135
f 136/136/136 137/137/137 138/138/138
f 139/139/139 140/140/140 141/141/141
f 142/142/142 143/143/143 144/144/144
f 145/145/145 146/146/146 147/147/147
f 148/148/148 149/149/149 150/150/150
f 151/151/151 152/152/152 153/153/153
f 154/154/154 155/155/155 156/156/156
f 157/157/157 158/158/158 159/159/159
f 160/160/160 161/161/161 162/162/162
f 163/163/163 164/164/164 165/165/165
f 166/166/166 167/167/167 168/168/168
f 169/169/169 170/170/170 171/171/171
f 172/172/172 173/173/173 174/174/174
f 175/175/175 176/176/176 177/177/177
f 178/178/178 179/179/179 180/180/180
f 181/181/181 182/182/182 183/183/183
f 184/184/184 185/185/185 186/186/186
f 187/187/187 188/188/188 189/189/189
f 190/190/190 191/191/191 192/192/192
f 193/193/193 194/194/194 195/195/195
f 196/196/196 197/197/197 198/198/198
f 199/199/199 200/200/200 201/201/201
f 202/202/202 203/203/203 204/204/204
f 205/205/205 206/206/206 207/207/207
f 208/208/208 209/209/209 210/210/210
f 211/211/211 212/212/212 213/213/213
f 214/214/214 215/215/215 216/216/216
f 217/217/217 218/218/218 219/219/219
f 220/220/220 221/221/221 222/222/222
f 223/223/223 224/224/224 225/225/225
f 226/226/226 227/227/227 228/228/228
f 229/229/229 230/230/230 231/231/231
f 232/232/232 233/233/233 234/234/234
