v -1.000000 43.000000 -22.000000 
v -41.000000 31.000000 -15.000000 
v -69.000000 73.000000 -7.000000 
v -25.000000 92.000000 -20.000000 
v -1.000000 43.000000 -22.000000 
v -69.000000 73.000000 -7.000000 
v -6.000000 67.000000 -21.000000 
v -69.000000 73.000000 -7.000000 
v -41.000000 31.000000 -15.000000 
v 22.000000 92.000000 -21.000000 
v -1.000000 43.000000 -22.000000 
v -25.000000 92.000000 -20.000000 
v 38.000000 31.000000 -13.000000 
v -1.000000 43.000000 -22.000000 
v 22.000000 92.000000 -21.000000 
v 67.000000 71.000000 -5.000000 
v 38.000000 31.000000 -13.000000 
v 22.000000 92.000000 -21.000000 
v 67.000000 71.000000 -5.000000 
v -6.000000 67.000000 -21.000000 
v 38.000000 31.000000 -13.000000 
vn -0.010498 -0.040283 -0.999023 
vn -0.082764 -0.107178 -0.990723 
vn -0.306396 0.312988 -0.898682 
vn -0.223145 0.444824 -0.867188 
vn -0.010498 -0.040283 -0.999023 
vn -0.306396 0.312988 -0.898682 
vn -0.063477 -0.260742 0.963135 
vn 0.133301 -0.539062 0.831299 
vn -0.039307 -0.017090 0.999023 
vn 0.237793 0.417480 -0.876709 
vn -0.010498 -0.040283 -0.999023 
vn -0.223145 0.444824 -0.867188 
vn 0.268311 -0.058594 -0.961426 
vn -0.010498 -0.040283 -0.999023 
vn 0.237793 0.417480 -0.876709 
vn 0.492676 0.425537 -0.758789 
vn 0.268311 -0.058594 -0.961426 
vn 0.237793 0.417480 -0.876709 
vn -0.247803 -0.525635 0.813721 
vn -0.063477 -0.260742 0.963135 
vn -0.075439 0.003662 0.997070 
vt 0.444444 0.079365 
vt 0.206349 0.063492 
vt 0.079365 0.190476 
vt 0.285714 0.190476 
vt 0.444444 0.079365 
vt 0.079365 0.190476 
vt 0.492063 0.095238 
vt 0.793651 0.111111 
vt 0.746032 0.000000 
vt 0.603175 0.190476 
vt 0.444444 0.079365 
vt 0.285714 0.190476 
vt 0.761905 0.063492 
vt 0.444444 0.079365 
vt 0.603175 0.190476 
vt 0.888889 0.190476 
vt 0.761905 0.063492 
vt 0.603175 0.190476 
vt 0.253968 0.126984 
vt 0.492063 0.095238 
vt 0.301587 0.000000 
f 1/1/1 2/2/2 3/3/3
f 4/4/4 5/5/5 6/6/6
f 7/7/7 8/8/8 9/9/9
f 10/10/10 11/11/11 12/12/12
f 13/13/13 14/14/14 15/15/15
f 16/16/16 17/17/17 18/18/18
f 19/19/19 20/20/20 21/21/21
