v 19.000000 -1.000000 0.000000 
v 12.000000 -1.000000 -11.000000 
v 9.000000 8.000000 -3.000000 
v 9.000000 8.000000 -3.000000 
v 9.000000 8.000000 3.000000 
v 19.000000 -1.000000 0.000000 
v 12.000000 -1.000000 11.000000 
v 19.000000 -1.000000 0.000000 
v 9.000000 8.000000 3.000000 
v 12.000000 -1.000000 -11.000000 
v 19.000000 -1.000000 0.000000 
v 12.000000 -10.000000 -5.000000 
v 12.000000 -10.000000 5.000000 
v 12.000000 -10.000000 -5.000000 
v 19.000000 -1.000000 0.000000 
v 19.000000 -1.000000 0.000000 
v 12.000000 -1.000000 11.000000 
v 12.000000 -10.000000 5.000000 
v -19.000000 -1.000000 -3.000000 
v -15.000000 8.000000 -3.000000 
v -11.000000 8.000000 -11.000000 
v -11.000000 8.000000 -11.000000 
v -15.000000 -1.000000 -11.000000 
v -19.000000 -1.000000 -3.000000 
v -15.000000 -1.000000 11.000000 
v -11.000000 8.000000 11.000000 
v -15.000000 8.000000 -3.000000 
v -15.000000 8.000000 -3.000000 
v -19.000000 -1.000000 -3.000000 
v -15.000000 -1.000000 11.000000 
v -15.000000 -10.000000 -6.000000 
v -19.000000 -1.000000 -3.000000 
v -15.000000 -1.000000 -11.000000 
v -11.000000 -10.000000 6.000000 
v -15.000000 -1.000000 11.000000 
v -19.000000 -1.000000 -3.000000 
v -19.000000 -1.000000 -3.000000 
v -15.000000 -10.000000 -6.000000 
v -11.000000 -10.000000 6.000000 
v -6.000000 11.000000 11.000000 
v 9.000000 8.000000 3.000000 
v 9.000000 8.000000 -3.000000 
v 9.000000 8.000000 -3.000000 
v -6.000000 11.000000 -11.000000 
v -6.000000 11.000000 11.000000 
v -15.000000 8.000000 -3.000000 
v -6.000000 11.000000 -11.000000 
v -11.000000 8.000000 -11.000000 
v -11.000000 8.000000 11.000000 
v -6.000000 11.000000 11.000000 
v -6.000000 11.000000 -11.000000 
v -6.000000 11.000000 -11.000000 
v -15.000000 8.000000 -3.000000 
v -11.000000 8.000000 11.000000 
v -2.000000 0.000000 16.000000 
v 12.000000 -1.000000 11.000000 
v 9.000000 8.000000 3.000000 
v 9.000000 8.000000 3.000000 
v -6.000000 11.000000 11.000000 
v -2.000000 0.000000 16.000000 
v -1.000000 -5.000000 11.000000 
v 12.000000 -10.000000 5.000000 
v -2.000000 0.000000 16.000000 
v 12.000000 -1.000000 11.000000 
v -2.000000 0.000000 16.000000 
v 12.000000 -10.000000 5.000000 
v -15.000000 -1.000000 11.000000 
v -2.000000 0.000000 16.000000 
v -11.000000 8.000000 11.000000 
v -6.000000 11.000000 11.000000 
v -11.000000 8.000000 11.000000 
v -2.000000 0.000000 16.000000 
v -11.000000 -10.000000 6.000000 
v -1.000000 -5.000000 11.000000 
v -15.000000 -1.000000 11.000000 
v -2.000000 0.000000 16.000000 
v -15.000000 -1.000000 11.000000 
v -1.000000 -5.000000 11.000000 
v -1.000000 -5.000000 -11.000000 
v 12.000000 -10.000000 -5.000000 
v 12.000000 -10.000000 5.000000 
v 12.000000 -10.000000 5.000000 
v -1.000000 -5.000000 11.000000 
v -1.000000 -5.000000 -11.000000 
v -7.000000 -11.000000 -5.000000 
v -1.000000 -5.000000 -11.000000 
v -1.000000 -5.000000 11.000000 
v -1.000000 -5.000000 11.000000 
v -11.000000 -10.000000 6.000000 
v -7.000000 -11.000000 -5.000000 
v -2.000000 0.000000 -16.000000 
v 12.000000 -1.000000 -11.000000 
v 12.000000 -10.000000 -5.000000 
v 12.000000 -10.000000 -5.000000 
v -1.000000 -5.000000 -11.000000 
v -2.000000 0.000000 -16.000000 
v -6.000000 11.000000 -11.000000 
v 9.000000 8.000000 -3.000000 
v -2.000000 0.000000 -16.000000 
v 12.000000 -1.000000 -11.000000 
v -2.000000 0.000000 -16.000000 
v 9.000000 8.000000 -3.000000 
v -1.000000 -5.000000 -11.000000 
v -7.000000 -11.000000 -5.000000 
v -15.000000 -10.000000 -6.000000 
v -1.000000 -5.000000 -11.000000 
v -15.000000 -1.000000 -11.000000 
v -2.000000 0.000000 -16.000000 
v -11.000000 8.000000 -11.000000 
v -6.000000 11.000000 -11.000000 
v -2.000000 0.000000 -16.000000 
v -2.000000 0.000000 -16.000000 
v -15.000000 -1.000000 -11.000000 
v -11.000000 8.000000 -11.000000 
v -15.000000 -1.000000 -11.000000 
v -1.000000 -5.000000 -11.000000 
v -15.000000 -10.000000 -6.000000 
v -15.000000 -10.000000 -6.000000 
v -7.000000 -11.000000 -5.000000 
v -11.000000 -10.000000 6.000000 
vn 0.981689 0.189697 -0.002441 
vn 0.427490 0.133057 -0.894043 
vn 0.276367 0.881592 -0.382324 
vn 0.276367 0.881592 -0.382324 
vn 0.305176 0.834961 0.457520 
vn 0.981689 0.189697 -0.002441 
vn 0.428467 0.120117 0.895264 
vn 0.981689 0.189697 -0.002441 
vn 0.305176 0.834961 0.457520 
vn 0.427490 0.133057 -0.894043 
vn 0.981689 0.189697 -0.002441 
vn 0.273438 -0.815186 -0.510010 
vn 0.198486 -0.883545 0.423828 
vn 0.273438 -0.815186 -0.510010 
vn 0.981689 0.189697 -0.002441 
vn 0.981689 0.189697 -0.002441 
vn 0.428467 0.120117 0.895264 
vn 0.198486 -0.883545 0.423828 
vn -0.980469 -0.029541 -0.193604 
vn -0.589111 0.807373 -0.026855 
vn -0.406738 0.510010 -0.757568 
vn -0.406738 0.510010 -0.757568 
vn -0.396240 -0.232666 -0.887939 
vn -0.980469 -0.029541 -0.193604 
vn -0.574951 -0.162354 0.801758 
vn -0.371582 0.722168 0.583252 
vn -0.589111 0.807373 -0.026855 
vn -0.589111 0.807373 -0.026855 
vn -0.980469 -0.029541 -0.193604 
vn -0.574951 -0.162354 0.801758 
vn -0.394043 -0.807129 -0.438965 
vn -0.980469 -0.029541 -0.193604 
vn -0.396240 -0.232666 -0.887939 
vn -0.308105 -0.857422 0.411621 
vn -0.574951 -0.162354 0.801758 
vn -0.980469 -0.029541 -0.193604 
vn -0.980469 -0.029541 -0.193604 
vn -0.394043 -0.807129 -0.438965 
vn -0.308105 -0.857422 0.411621 
vn 0.013916 0.897949 0.439453 
vn 0.305176 0.834961 0.457520 
vn 0.276367 0.881592 -0.382324 
vn 0.276367 0.881592 -0.382324 
vn -0.107910 0.909180 -0.401855 
vn 0.013916 0.897949 0.439453 
vn -0.589111 0.807373 -0.026855 
vn -0.107910 0.909180 -0.401855 
vn -0.406738 0.510010 -0.757568 
vn -0.371582 0.722168 0.583252 
vn 0.013916 0.897949 0.439453 
vn -0.107910 0.909180 -0.401855 
vn -0.107910 0.909180 -0.401855 
vn -0.589111 0.807373 -0.026855 
vn -0.371582 0.722168 0.583252 
vn 0.027588 -0.074951 0.996582 
vn 0.428467 0.120117 0.895264 
vn 0.305176 0.834961 0.457520 
vn 0.305176 0.834961 0.457520 
vn 0.013916 0.897949 0.439453 
vn 0.027588 -0.074951 0.996582 
vn 0.049072 -0.889648 0.453613 
vn 0.198486 -0.883545 0.423828 
vn 0.027588 -0.074951 0.996582 
vn 0.428467 0.120117 0.895264 
vn 0.027588 -0.074951 0.996582 
vn 0.198486 -0.883545 0.423828 
vn -0.574951 -0.162354 0.801758 
vn 0.027588 -0.074951 0.996582 
vn -0.371582 0.722168 0.583252 
vn 0.013916 0.897949 0.439453 
vn -0.371582 0.722168 0.583252 
vn 0.027588 -0.074951 0.996582 
vn -0.308105 -0.857422 0.411621 
vn 0.049072 -0.889648 0.453613 
vn -0.574951 -0.162354 0.801758 
vn 0.027588 -0.074951 0.996582 
vn -0.574951 -0.162354 0.801758 
vn 0.049072 -0.889648 0.453613 
vn -0.008789 -0.881104 -0.472412 
vn 0.273438 -0.815186 -0.510010 
vn 0.198486 -0.883545 0.423828 
vn 0.198486 -0.883545 0.423828 
vn 0.049072 -0.889648 0.453613 
vn -0.008789 -0.881104 -0.472412 
vn 0.119629 -0.986816 -0.108398 
vn -0.008789 -0.881104 -0.472412 
vn 0.049072 -0.889648 0.453613 
vn 0.049072 -0.889648 0.453613 
vn -0.308105 -0.857422 0.411621 
vn 0.119629 -0.986816 -0.108398 
vn 0.026123 -0.071533 -0.997070 
vn 0.427490 0.133057 -0.894043 
vn 0.273438 -0.815186 -0.510010 
vn 0.273438 -0.815186 -0.510010 
vn -0.008789 -0.881104 -0.472412 
vn 0.026123 -0.071533 -0.997070 
vn -0.107910 0.909180 -0.401855 
vn 0.276367 0.881592 -0.382324 
vn 0.026123 -0.071533 -0.997070 
vn 0.427490 0.133057 -0.894043 
vn 0.026123 -0.071533 -0.997070 
vn 0.276367 0.881592 -0.382324 
vn -0.008789 -0.881104 -0.472412 
vn 0.119629 -0.986816 -0.108398 
vn -0.394043 -0.807129 -0.438965 
vn -0.008789 -0.881104 -0.472412 
vn -0.396240 -0.232666 -0.887939 
vn 0.026123 -0.071533 -0.997070 
vn -0.406738 0.510010 -0.757568 
vn -0.107910 0.909180 -0.401855 
vn 0.026123 -0.071533 -0.997070 
vn 0.026123 -0.071533 -0.997070 
vn -0.396240 -0.232666 -0.887939 
vn -0.406738 0.510010 -0.757568 
vn -0.396240 -0.232666 -0.887939 
vn -0.008789 -0.881104 -0.472412 
vn -0.394043 -0.807129 -0.438965 
vn -0.394043 -0.807129 -0.438965 
vn 0.119629 -0.986816 -0.108398 
vn -0.308105 -0.857422 0.411621 
vt 0.793651 0.322835 
vt 0.761905 0.322835 
vt 0.777778 0.275591 
vt 0.777778 0.275591 
vt 0.809524 0.275591 
vt 0.793651 0.322835 
vt 0.841270 0.322835 
vt 0.793651 0.322835 
vt 0.809524 0.275591 
vt 0.761905 0.322835 
vt 0.793651 0.322835 
vt 0.777778 0.370079 
vt 0.825397 0.370079 
vt 0.777778 0.370079 
vt 0.793651 0.322835 
vt 0.793651 0.322835 
vt 0.841270 0.322835 
vt 0.825397 0.370079 
vt 0.174603 0.031496 
vt 0.174603 0.055118 
vt 0.238095 0.055118 
vt 0.238095 0.055118 
vt 0.253968 0.039370 
vt 0.174603 0.031496 
vt 0.031746 0.023622 
vt 0.031746 0.055118 
vt 0.174603 0.055118 
vt 0.174603 0.055118 
vt 0.174603 0.031496 
vt 0.031746 0.023622 
vt 0.206349 -0.007874 
vt 0.174603 0.031496 
vt 0.253968 0.039370 
vt 0.063492 -0.007874 
vt 0.031746 0.023622 
vt 0.174603 0.031496 
vt 0.174603 0.031496 
vt 0.206349 -0.007874 
vt 0.063492 -0.007874 
vt 0.031746 0.086614 
vt 0.095238 0.196850 
vt 0.174603 0.196850 
vt 0.174603 0.196850 
vt 0.238095 0.086614 
vt 0.031746 0.086614 
vt 0.174603 0.055118 
vt 0.238095 0.086614 
vt 0.238095 0.055118 
vt 0.031746 0.055118 
vt 0.031746 0.086614 
vt 0.238095 0.086614 
vt 0.238095 0.086614 
vt 0.174603 0.055118 
vt 0.031746 0.055118 
vt 0.000000 0.102362 
vt 0.015873 0.244094 
vt 0.063492 0.204724 
vt 0.063492 0.204724 
vt 0.015873 0.086614 
vt 0.000000 0.102362 
vt 0.841270 0.346457 
vt 0.825397 0.370079 
vt 0.857143 0.322835 
vt 0.841270 0.322835 
vt 0.857143 0.322835 
vt 0.825397 0.370079 
vt 0.841270 0.322835 
vt 0.857143 0.322835 
vt 0.841270 0.275591 
vt 0.841270 0.267717 
vt 0.841270 0.275591 
vt 0.857143 0.322835 
vt 0.063492 -0.007874 
vt 0.000000 -0.007874 
vt 0.031746 0.023622 
vt 0.857143 0.322835 
vt 0.841270 0.322835 
vt 0.841270 0.346457 
vt 0.539683 0.062992 
vt 0.539683 -0.007874 
vt 0.333333 -0.007874 
vt 0.333333 -0.007874 
vt 0.349206 0.062992 
vt 0.539683 0.062992 
vt 0.190476 0.023622 
vt 0.253968 0.062992 
vt 0.000000 0.062992 
vt 0.000000 0.062992 
vt 0.063492 -0.007874 
vt 0.190476 0.023622 
vt 0.460317 0.110236 
vt 0.619048 0.149606 
vt 0.666667 0.062992 
vt 0.666667 0.062992 
vt 0.523810 0.062992 
vt 0.460317 0.110236 
vt 0.365079 0.188976 
vt 0.476190 0.204724 
vt 0.460317 0.110236 
vt 0.619048 0.149606 
vt 0.460317 0.110236 
vt 0.476190 0.204724 
vt 0.253968 0.062992 
vt 0.190476 0.023622 
vt 0.206349 -0.007874 
vt 0.523810 0.062992 
vt 0.317460 0.062992 
vt 0.460317 0.110236 
vt 0.317460 0.157480 
vt 0.365079 0.188976 
vt 0.460317 0.110236 
vt 0.460317 0.110236 
vt 0.317460 0.062992 
vt 0.317460 0.157480 
vt 0.253968 0.039370 
vt 0.253968 -0.007874 
vt 0.206349 -0.007874 
vt 0.206349 -0.007874 
vt 0.190476 0.023622 
vt 0.063492 -0.007874 
f 1/1/1 2/2/2 3/3/3
f 4/4/4 5/5/5 6/6/6
f 7/7/7 8/8/8 9/9/9
f 10/10/10 11/11/11 12/12/12
f 13/13/13 14/14/14 15/15/15
f 16/16/16 17/17/17 18/18/18
f 19/19/19 20/20/20 21/21/21
f 22/22/22 23/23/23 24/24/24
f 25/25/25 26/26/26 27/27/27
f 28/28/28 29/29/29 30/30/30
f 31/31/31 32/32/32 33/33/33
f 34/34/34 35/35/35 36/36/36
f 37/37/37 38/38/38 39/39/39
f 40/40/40 41/41/41 42/42/42
f 43/43/43 44/44/44 45/45/45
f 46/46/46 47/47/47 48/48/48
f 49/49/49 50/50/50 51/51/51
f 52/52/52 53/53/53 54/54/54
f 55/55/55 56/56/56 57/57/57
f 58/58/58 59/59/59 60/60/60
f 61/61/61 62/62/62 63/63/63
f 64/64/64 65/65/65 66/66/66
f 67/67/67 68/68/68 69/69/69
f 70/70/70 71/71/71 72/72/72
f 73/73/73 74/74/74 75/75/75
f 76/76/76 77/77/77 78/78/78
f 79/79/79 80/80/80 81/81/81
f 82/82/82 83/83/83 84/84/84
f 85/85/85 86/86/86 87/87/87
f 88/88/88 89/89/89 90/90/90
f 91/91/91 92/92/92 93/93/93
f 94/94/94 95/95/95 96/96/96
f 97/97/97 98/98/98 99/99/99
f 100/100/100 101/101/101 102/102/102
f 103/103/103 104/104/104 105/105/105
f 106/106/106 107/107/107 108/108/108
f 109/109/109 110/110/110 111/111/111
f 112/112/112 113/113/113 114/114/114
f 115/115/115 116/116/116 117/117/117
f 118/118/118 119/119/119 120/120/120
