v 0.000000 15.000000 -1.000000 
v 0.000000 4.000000 -16.000000 
v -6.000000 3.000000 -13.000000 
v 0.000000 15.000000 -1.000000 
v -6.000000 3.000000 -13.000000 
v -6.000000 12.000000 -1.000000 
v 6.000000 12.000000 -1.000000 
v 6.000000 3.000000 -13.000000 
v 0.000000 4.000000 -16.000000 
v 6.000000 12.000000 -1.000000 
v 0.000000 4.000000 -16.000000 
v 0.000000 15.000000 -1.000000 
v 0.000000 4.000000 -16.000000 
v 0.000000 -13.000000 -10.000000 
v -6.000000 -10.000000 -9.000000 
v 0.000000 4.000000 -16.000000 
v -6.000000 -10.000000 -9.000000 
v -6.000000 3.000000 -13.000000 
v 6.000000 3.000000 -13.000000 
v 6.000000 -10.000000 -9.000000 
v 0.000000 -13.000000 -10.000000 
v 6.000000 3.000000 -13.000000 
v 0.000000 -13.000000 -10.000000 
v 0.000000 4.000000 -16.000000 
v 0.000000 -13.000000 -10.000000 
v 0.000000 -13.000000 7.000000 
v -6.000000 -10.000000 6.000000 
v 0.000000 -13.000000 -10.000000 
v -6.000000 -10.000000 6.000000 
v -6.000000 -10.000000 -9.000000 
v 6.000000 -10.000000 -9.000000 
v 6.000000 -10.000000 6.000000 
v 0.000000 -13.000000 7.000000 
v 6.000000 -10.000000 -9.000000 
v 0.000000 -13.000000 7.000000 
v 0.000000 -13.000000 -10.000000 
v 0.000000 -13.000000 7.000000 
v 0.000000 4.000000 13.000000 
v -6.000000 3.000000 10.000000 
v 0.000000 -13.000000 7.000000 
v -6.000000 3.000000 10.000000 
v -6.000000 -10.000000 6.000000 
v 6.000000 -10.000000 6.000000 
v 6.000000 3.000000 10.000000 
v 0.000000 4.000000 13.000000 
v 6.000000 -10.000000 6.000000 
v 0.000000 4.000000 13.000000 
v 0.000000 -13.000000 7.000000 
v 0.000000 4.000000 13.000000 
v 0.000000 15.000000 -1.000000 
v -6.000000 12.000000 -1.000000 
v 0.000000 4.000000 13.000000 
v -6.000000 12.000000 -1.000000 
v -6.000000 3.000000 10.000000 
v 6.000000 3.000000 10.000000 
v 6.000000 12.000000 -1.000000 
v 0.000000 15.000000 -1.000000 
v 6.000000 3.000000 10.000000 
v 0.000000 15.000000 -1.000000 
v 0.000000 4.000000 13.000000 
vn 0.000488 0.999756 0.000000 
vn 0.000244 0.308838 -0.950928 
vn -0.393066 0.481689 -0.782959 
vn 0.000488 0.999756 0.000000 
vn -0.393066 0.481689 -0.782959 
vn -0.393066 0.893555 0.216309 
vn 0.393799 0.893066 -0.216064 
vn 0.393555 0.070312 -0.916504 
vn 0.000244 0.308838 -0.950928 
vn 0.393799 0.893066 -0.216064 
vn 0.000244 0.308838 -0.950928 
vn 0.000488 0.999756 0.000000 
vn 0.000244 0.308838 -0.950928 
vn -0.000244 -0.808838 -0.587646 
vn -0.393555 -0.595459 -0.699951 
vn 0.000244 0.308838 -0.950928 
vn -0.393555 -0.595459 -0.699951 
vn -0.393066 0.481689 -0.782959 
vn 0.393555 0.070312 -0.916504 
vn 0.393066 -0.850098 -0.350098 
vn -0.000244 -0.808838 -0.587646 
vn 0.393555 0.070312 -0.916504 
vn -0.000244 -0.808838 -0.587646 
vn 0.000244 0.308838 -0.950928 
vn -0.000244 -0.808838 -0.587646 
vn -0.000244 -0.808838 0.587646 
vn -0.393799 -0.849609 0.349854 
vn -0.000244 -0.808838 -0.587646 
vn -0.393799 -0.849609 0.349854 
vn -0.393555 -0.595459 -0.699951 
vn 0.393066 -0.850098 -0.350098 
vn 0.393066 -0.595459 0.700195 
vn -0.000244 -0.808838 0.587646 
vn 0.393066 -0.850098 -0.350098 
vn -0.000244 -0.808838 0.587646 
vn -0.000244 -0.808838 -0.587646 
vn -0.000244 -0.808838 0.587646 
vn 0.000000 0.308838 0.950928 
vn -0.393555 0.070068 0.916504 
vn -0.000244 -0.808838 0.587646 
vn -0.393555 0.070068 0.916504 
vn -0.393799 -0.849609 0.349854 
vn 0.393066 -0.595459 0.700195 
vn 0.393555 0.481934 0.782715 
vn 0.000000 0.308838 0.950928 
vn 0.393066 -0.595459 0.700195 
vn 0.000000 0.308838 0.950928 
vn -0.000244 -0.808838 0.587646 
vn 0.000000 0.308838 0.950928 
vn 0.000488 0.999756 0.000000 
vn -0.393066 0.893555 0.216309 
vn 0.000000 0.308838 0.950928 
vn -0.393066 0.893555 0.216309 
vn -0.393555 0.070068 0.916504 
vn 0.393555 0.481934 0.782715 
vn 0.393799 0.893066 -0.216064 
vn 0.000488 0.999756 0.000000 
vn 0.393555 0.481934 0.782715 
vn 0.000488 0.999756 0.000000 
vn 0.000000 0.308838 0.950928 
vt 0.451613 -0.015873 
vt 0.451613 0.238095 
vt 0.000000 0.238095 
vt 0.451613 -0.015873 
vt 0.000000 0.238095 
vt 0.000000 -0.015873 
vt 1.000000 -0.015873 
vt 1.000000 0.238095 
vt 0.451613 0.238095 
vt 1.000000 -0.015873 
vt 0.451613 0.238095 
vt 0.451613 -0.015873 
vt 0.451613 0.238095 
vt 0.451613 -0.015873 
vt 0.000000 -0.015873 
vt 0.451613 0.238095 
vt 0.000000 -0.015873 
vt 0.000000 0.238095 
vt 1.000000 0.238095 
vt 1.000000 -0.015873 
vt 0.451613 -0.015873 
vt 1.000000 0.238095 
vt 0.451613 -0.015873 
vt 0.451613 0.238095 
vt 0.451613 -0.015873 
vt 0.451613 0.238095 
vt 0.000000 0.238095 
vt 0.451613 -0.015873 
vt 0.000000 0.238095 
vt 0.000000 -0.015873 
vt 1.000000 -0.015873 
vt 1.000000 0.238095 
vt 0.451613 0.238095 
vt 1.000000 -0.015873 
vt 0.451613 0.238095 
vt 0.451613 -0.015873 
vt 0.451613 0.238095 
vt 0.451613 0.476190 
vt 0.000000 0.476190 
vt 0.451613 0.238095 
vt 0.000000 0.476190 
vt 0.000000 0.238095 
vt 1.000000 0.238095 
vt 1.000000 0.476190 
vt 0.451613 0.476190 
vt 1.000000 0.238095 
vt 0.451613 0.476190 
vt 0.451613 0.238095 
vt 0.451613 0.238095 
vt 0.451613 -0.015873 
vt 0.000000 -0.015873 
vt 0.451613 0.238095 
vt 0.000000 -0.015873 
vt 0.000000 0.238095 
vt 1.000000 0.238095 
vt 1.000000 -0.015873 
vt 0.451613 -0.015873 
vt 1.000000 0.238095 
vt 0.451613 -0.015873 
vt 0.451613 0.238095 
f 1/1/1 2/2/2 3/3/3
f 4/4/4 5/5/5 6/6/6
f 7/7/7 8/8/8 9/9/9
f 10/10/10 11/11/11 12/12/12
f 13/13/13 14/14/14 15/15/15
f 16/16/16 17/17/17 18/18/18
f 19/19/19 20/20/20 21/21/21
f 22/22/22 23/23/23 24/24/24
f 25/25/25 26/26/26 27/27/27
f 28/28/28 29/29/29 30/30/30
f 31/31/31 32/32/32 33/33/33
f 34/34/34 35/35/35 36/36/36
f 37/37/37 38/38/38 39/39/39
f 40/40/40 41/41/41 42/42/42
f 43/43/43 44/44/44 45/45/45
f 46/46/46 47/47/47 48/48/48
f 49/49/49 50/50/50 51/51/51
f 52/52/52 53/53/53 54/54/54
f 55/55/55 56/56/56 57/57/57
f 58/58/58 59/59/59 60/60/60
