v 35.000000 0.000000 6.000000 
v 35.000000 6.000000 1.000000 
v 4.000000 6.000000 2.000000 
v 4.000000 0.000000 7.000000 
v 35.000000 0.000000 6.000000 
v 4.000000 6.000000 2.000000 
v 4.000000 6.000000 2.000000 
v 35.000000 6.000000 1.000000 
v 4.000000 3.000000 -5.000000 
v 35.000000 -6.000000 1.000000 
v 35.000000 0.000000 6.000000 
v 4.000000 0.000000 7.000000 
v 4.000000 -6.000000 2.000000 
v 35.000000 -6.000000 1.000000 
v 4.000000 0.000000 7.000000 
v 36.000000 -3.000000 -6.000000 
v 35.000000 -6.000000 1.000000 
v 4.000000 -6.000000 2.000000 
v 4.000000 -4.000000 -5.000000 
v 36.000000 -3.000000 -6.000000 
v 4.000000 -6.000000 2.000000 
v 36.000000 4.000000 -6.000000 
v 36.000000 -3.000000 -6.000000 
v 4.000000 -4.000000 -5.000000 
v 4.000000 3.000000 -5.000000 
v 36.000000 4.000000 -6.000000 
v 4.000000 -4.000000 -5.000000 
v 35.000000 6.000000 1.000000 
v 36.000000 4.000000 -6.000000 
v 4.000000 3.000000 -5.000000 
vn 0.454834 0.318359 0.831543 
vn -0.636475 0.534180 0.556152 
vn -0.472900 0.555420 0.683838 
vn 0.579834 0.248291 0.775635 
vn 0.454834 0.318359 0.831543 
vn -0.472900 0.555420 0.683838 
vn -0.472900 0.555420 0.683838 
vn -0.636475 0.534180 0.556152 
vn -0.872314 0.019287 -0.488525 
vn 0.955322 -0.213135 0.203369 
vn 0.454834 0.318359 0.831543 
vn 0.579834 0.248291 0.775635 
vn 0.930176 -0.359375 -0.074707 
vn 0.955322 -0.213135 0.203369 
vn 0.579834 0.248291 0.775635 
vn -0.065186 -0.480469 -0.874512 
vn 0.955322 -0.213135 0.203369 
vn 0.930176 -0.359375 -0.074707 
vn -0.148193 -0.451416 -0.879639 
vn -0.065186 -0.480469 -0.874512 
vn 0.930176 -0.359375 -0.074707 
vn -0.903564 0.066406 -0.422852 
vn -0.065186 -0.480469 -0.874512 
vn -0.148193 -0.451416 -0.879639 
vn -0.872314 0.019287 -0.488525 
vn -0.903564 0.066406 -0.422852 
vn -0.148193 -0.451416 -0.879639 
vn -0.636475 0.534180 0.556152 
vn -0.903564 0.066406 -0.422852 
vn -0.872314 0.019287 -0.488525 
vt 0.476190 0.507937 
vt 0.476190 0.507937 
vt 0.476190 0.507937 
vt 0.476190 0.507937 
vt 0.476190 0.507937 
vt 0.476190 0.507937 
vt 0.476190 0.507937 
vt 0.476190 0.507937 
vt 0.476190 0.507937 
vt 0.476190 0.507937 
vt 0.476190 0.507937 
vt 0.476190 0.507937 
vt 0.476190 0.507937 
vt 0.476190 0.507937 
vt 0.476190 0.507937 
vt 0.476190 0.507937 
vt 0.476190 0.507937 
vt 0.476190 0.507937 
vt 0.476190 0.507937 
vt 0.476190 0.507937 
vt 0.476190 0.507937 
vt 0.476190 0.507937 
vt 0.476190 0.507937 
vt 0.476190 0.507937 
vt 0.476190 0.507937 
vt 0.476190 0.507937 
vt 0.476190 0.507937 
vt 0.476190 0.507937 
vt 0.476190 0.507937 
vt 0.476190 0.507937 
f 1/1/1 2/2/2 3/3/3
f 4/4/4 5/5/5 6/6/6
f 7/7/7 8/8/8 9/9/9
f 10/10/10 11/11/11 12/12/12
f 13/13/13 14/14/14 15/15/15
f 16/16/16 17/17/17 18/18/18
f 19/19/19 20/20/20 21/21/21
f 22/22/22 23/23/23 24/24/24
f 25/25/25 26/26/26 27/27/27
f 28/28/28 29/29/29 30/30/30
