v 12.000000 -1.000000 7.000000 
v 5.000000 7.000000 11.000000 
v 0.000000 -3.000000 11.000000 
v 10.000000 -12.000000 4.000000 
v 12.000000 -1.000000 7.000000 
v 0.000000 -3.000000 11.000000 
v -12.000000 -12.000000 2.000000 
v 10.000000 -12.000000 4.000000 
v 0.000000 -3.000000 11.000000 
v -13.000000 1.000000 5.000000 
v -12.000000 -12.000000 2.000000 
v 0.000000 -3.000000 11.000000 
v -4.000000 7.000000 7.000000 
v -13.000000 1.000000 5.000000 
v 0.000000 -3.000000 11.000000 
v 5.000000 7.000000 11.000000 
v -4.000000 7.000000 7.000000 
v 0.000000 -3.000000 11.000000 
v 15.000000 3.000000 -26.000000 
v 7.000000 11.000000 -25.000000 
v 5.000000 7.000000 11.000000 
v 12.000000 -1.000000 7.000000 
v 15.000000 3.000000 -26.000000 
v 5.000000 7.000000 11.000000 
v 16.000000 -12.000000 -32.000000 
v 15.000000 3.000000 -26.000000 
v 12.000000 -1.000000 7.000000 
v 10.000000 -12.000000 4.000000 
v 16.000000 -12.000000 -32.000000 
v 12.000000 -1.000000 7.000000 
v -15.000000 -12.000000 -26.000000 
v 16.000000 -12.000000 -32.000000 
v 10.000000 -12.000000 4.000000 
v -12.000000 -12.000000 2.000000 
v -15.000000 -12.000000 -26.000000 
v 10.000000 -12.000000 4.000000 
v -15.000000 1.000000 -26.000000 
v -15.000000 -12.000000 -26.000000 
v -12.000000 -12.000000 2.000000 
v -13.000000 1.000000 5.000000 
v -15.000000 1.000000 -26.000000 
v -12.000000 -12.000000 2.000000 
v -6.000000 10.000000 -26.000000 
v -15.000000 1.000000 -26.000000 
v -13.000000 1.000000 5.000000 
v -4.000000 7.000000 7.000000 
v -6.000000 10.000000 -26.000000 
v -13.000000 1.000000 5.000000 
v 7.000000 11.000000 -25.000000 
v -6.000000 10.000000 -26.000000 
v -4.000000 7.000000 7.000000 
v 5.000000 7.000000 11.000000 
v 7.000000 11.000000 -25.000000 
v -4.000000 7.000000 7.000000 
v 7.000000 11.000000 -25.000000 
v 15.000000 3.000000 -26.000000 
v 0.000000 1.000000 -37.000000 
v 15.000000 3.000000 -26.000000 
v 16.000000 -12.000000 -32.000000 
v 0.000000 1.000000 -37.000000 
v 16.000000 -12.000000 -32.000000 
v -15.000000 -12.000000 -26.000000 
v 0.000000 1.000000 -37.000000 
v -15.000000 -12.000000 -26.000000 
v -15.000000 1.000000 -26.000000 
v 0.000000 1.000000 -37.000000 
v -15.000000 1.000000 -26.000000 
v -6.000000 10.000000 -26.000000 
v 0.000000 1.000000 -37.000000 
v -6.000000 10.000000 -26.000000 
v 7.000000 11.000000 -25.000000 
v 0.000000 1.000000 -37.000000 
vn 0.837402 -0.002686 0.546143 
vn 0.410645 0.663330 0.625488 
vn -0.106934 -0.169434 0.979492 
vn 0.318115 -0.827881 0.461426 
vn 0.837402 -0.002686 0.546143 
vn -0.106934 -0.169434 0.979492 
vn -0.691162 -0.539307 0.480713 
vn 0.318115 -0.827881 0.461426 
vn -0.106934 -0.169434 0.979492 
vn -0.794189 0.344727 0.500000 
vn -0.691162 -0.539307 0.480713 
vn -0.106934 -0.169434 0.979492 
vn -0.334961 0.780029 0.528076 
vn -0.794189 0.344727 0.500000 
vn -0.106934 -0.169434 0.979492 
vn 0.410645 0.663330 0.625488 
vn -0.334961 0.780029 0.528076 
vn -0.106934 -0.169434 0.979492 
vn 0.820312 0.495850 -0.284180 
vn 0.242188 0.936035 -0.254395 
vn 0.410645 0.663330 0.625488 
vn 0.837402 -0.002686 0.546143 
vn 0.820312 0.495850 -0.284180 
vn 0.410645 0.663330 0.625488 
vn 0.761963 -0.448486 -0.466797 
vn 0.820312 0.495850 -0.284180 
vn 0.837402 -0.002686 0.546143 
vn 0.318115 -0.827881 0.461426 
vn 0.761963 -0.448486 -0.466797 
vn 0.837402 -0.002686 0.546143 
vn -0.510986 -0.720947 -0.467773 
vn 0.761963 -0.448486 -0.466797 
vn 0.318115 -0.827881 0.461426 
vn -0.691162 -0.539307 0.480713 
vn -0.510986 -0.720947 -0.467773 
vn 0.318115 -0.827881 0.461426 
vn -0.907471 0.275879 -0.316650 
vn -0.510986 -0.720947 -0.467773 
vn -0.691162 -0.539307 0.480713 
vn -0.794189 0.344727 0.500000 
vn -0.907471 0.275879 -0.316650 
vn -0.691162 -0.539307 0.480713 
vn -0.448730 0.855713 -0.256348 
vn -0.907471 0.275879 -0.316650 
vn -0.794189 0.344727 0.500000 
vn -0.334961 0.780029 0.528076 
vn -0.448730 0.855713 -0.256348 
vn -0.794189 0.344727 0.500000 
vn 0.242188 0.936035 -0.254395 
vn -0.448730 0.855713 -0.256348 
vn -0.334961 0.780029 0.528076 
vn 0.410645 0.663330 0.625488 
vn 0.242188 0.936035 -0.254395 
vn -0.334961 0.780029 0.528076 
vn 0.242188 0.936035 -0.254395 
vn 0.820312 0.495850 -0.284180 
vn -0.063965 0.331543 -0.941162 
vn 0.820312 0.495850 -0.284180 
vn 0.761963 -0.448486 -0.466797 
vn -0.063965 0.331543 -0.941162 
vn 0.761963 -0.448486 -0.466797 
vn -0.510986 -0.720947 -0.467773 
vn -0.063965 0.331543 -0.941162 
vn -0.510986 -0.720947 -0.467773 
vn -0.907471 0.275879 -0.316650 
vn -0.063965 0.331543 -0.941162 
vn -0.907471 0.275879 -0.316650 
vn -0.448730 0.855713 -0.256348 
vn -0.063965 0.331543 -0.941162 
vn -0.448730 0.855713 -0.256348 
vn 0.242188 0.936035 -0.254395 
vn -0.063965 0.331543 -0.941162 
vt 0.677419 0.516129 
vt 0.709677 0.483871 
vt 0.838710 0.612903 
vt 0.741935 0.548387 
vt 0.677419 0.516129 
vt 0.838710 0.612903 
vt 0.935484 0.580645 
vt 0.741935 0.548387 
vt 0.838710 0.612903 
vt 0.967742 0.516129 
vt 0.935484 0.580645 
vt 0.838710 0.612903 
vt 0.806452 0.483871 
vt 0.967742 0.516129 
vt 0.838710 0.612903 
vt 0.709677 0.483871 
vt 0.806452 0.483871 
vt 0.838710 0.612903 
vt 0.709677 0.064516 
vt 0.709677 0.193548 
vt 0.709677 0.483871 
vt 0.677419 0.516129 
vt 0.709677 0.064516 
vt 0.709677 0.483871 
vt 0.677419 0.000000 
vt 0.709677 0.064516 
vt 0.677419 0.516129 
vt 0.741935 0.548387 
vt 0.677419 0.000000 
vt 0.677419 0.516129 
vt 0.967742 0.000000 
vt 0.677419 0.000000 
vt 0.741935 0.548387 
vt 0.935484 0.580645 
vt 0.967742 0.000000 
vt 0.741935 0.548387 
vt 0.967742 0.096774 
vt 0.967742 0.000000 
vt 0.935484 0.580645 
vt 0.967742 0.516129 
vt 0.967742 0.096774 
vt 0.935484 0.580645 
vt 0.870968 0.258065 
vt 0.967742 0.096774 
vt 0.967742 0.516129 
vt 0.806452 0.483871 
vt 0.870968 0.258065 
vt 0.967742 0.516129 
vt 0.709677 0.193548 
vt 0.870968 0.258065 
vt 0.806452 0.483871 
vt 0.709677 0.483871 
vt 0.709677 0.193548 
vt 0.806452 0.483871 
vt 0.709677 0.193548 
vt 0.709677 0.064516 
vt 0.870968 -0.032258 
vt 0.709677 0.064516 
vt 0.677419 0.000000 
vt 0.870968 -0.032258 
vt 0.677419 0.000000 
vt 0.967742 0.000000 
vt 0.870968 -0.032258 
vt 0.967742 0.000000 
vt 0.967742 0.096774 
vt 0.870968 -0.032258 
vt 0.967742 0.096774 
vt 0.870968 0.258065 
vt 0.870968 -0.032258 
vt 0.870968 0.258065 
vt 0.709677 0.193548 
vt 0.870968 -0.032258 
f 1/1/1 2/2/2 3/3/3
f 4/4/4 5/5/5 6/6/6
f 7/7/7 8/8/8 9/9/9
f 10/10/10 11/11/11 12/12/12
f 13/13/13 14/14/14 15/15/15
f 16/16/16 17/17/17 18/18/18
f 19/19/19 20/20/20 21/21/21
f 22/22/22 23/23/23 24/24/24
f 25/25/25 26/26/26 27/27/27
f 28/28/28 29/29/29 30/30/30
f 31/31/31 32/32/32 33/33/33
f 34/34/34 35/35/35 36/36/36
f 37/37/37 38/38/38 39/39/39
f 40/40/40 41/41/41 42/42/42
f 43/43/43 44/44/44 45/45/45
f 46/46/46 47/47/47 48/48/48
f 49/49/49 50/50/50 51/51/51
f 52/52/52 53/53/53 54/54/54
f 55/55/55 56/56/56 57/57/57
f 58/58/58 59/59/59 60/60/60
f 61/61/61 62/62/62 63/63/63
f 64/64/64 65/65/65 66/66/66
f 67/67/67 68/68/68 69/69/69
f 70/70/70 71/71/71 72/72/72
