v -1.000000 77.000000 4.000000 
v -1.000000 20.000000 2.000000 
v -15.000000 22.000000 5.000000 
v -1.000000 77.000000 4.000000 
v 13.000000 21.000000 8.000000 
v -1.000000 20.000000 2.000000 
v -1.000000 77.000000 4.000000 
v -15.000000 22.000000 5.000000 
v -1.000000 15.000000 5.000000 
v -1.000000 77.000000 4.000000 
v -1.000000 15.000000 5.000000 
v 13.000000 21.000000 8.000000 
vn 0.132812 -0.032715 -0.990479 
vn 0.116211 0.269775 -0.955811 
vn -0.131348 0.161377 -0.978027 
vn 0.132812 -0.032715 -0.990479 
vn 0.395752 0.193604 -0.897461 
vn 0.116211 0.269775 -0.955811 
vn -0.151123 0.070801 0.985840 
vn -0.148682 -0.060547 0.986816 
vn -0.124268 -0.197510 0.972168 
vn -0.151123 0.070801 0.985840 
vn -0.124268 -0.197510 0.972168 
vn -0.144775 -0.121582 0.981934 
vt 0.396825 1.000000 
vt 0.444444 0.857143 
vt 0.206349 0.857143 
vt 0.523810 1.000000 
vt 0.761905 0.857143 
vt 0.444444 0.857143 
vt 0.492063 1.000000 
vt 0.746032 0.841270 
vt 0.492063 0.777778 
vt 0.492063 1.000000 
vt 0.492063 0.777778 
vt 0.301587 0.857143 
f 1/1/1 2/2/2 3/3/3
f 4/4/4 5/5/5 6/6/6
f 7/7/7 8/8/8 9/9/9
f 10/10/10 11/11/11 12/12/12
