v -25.000000 48.000000 -28.000000 
v -69.000000 64.000000 -10.000000 
v -39.000000 106.000000 -8.000000 
v -1.000000 97.000000 -17.000000 
v -25.000000 48.000000 -28.000000 
v -39.000000 106.000000 -8.000000 
v 0.000000 25.000000 -17.000000 
v -39.000000 106.000000 -8.000000 
v -69.000000 64.000000 -10.000000 
v 22.000000 47.000000 -28.000000 
v -25.000000 48.000000 -28.000000 
v -1.000000 97.000000 -17.000000 
v 36.000000 106.000000 -6.000000 
v 22.000000 47.000000 -28.000000 
v -1.000000 97.000000 -17.000000 
v 67.000000 64.000000 -8.000000 
v 22.000000 47.000000 -28.000000 
v 36.000000 106.000000 -6.000000 
v 36.000000 106.000000 -6.000000 
v 0.000000 25.000000 -17.000000 
v 67.000000 64.000000 -8.000000 
v -29.000000 2.000000 -6.000000 
v -79.000000 20.000000 13.000000 
v -69.000000 64.000000 -10.000000 
v -25.000000 48.000000 -28.000000 
v -29.000000 2.000000 -6.000000 
v -69.000000 64.000000 -10.000000 
v 0.000000 25.000000 -17.000000 
v -69.000000 64.000000 -10.000000 
v -79.000000 20.000000 13.000000 
v 26.000000 2.000000 -6.000000 
v -29.000000 2.000000 -6.000000 
v -25.000000 48.000000 -28.000000 
v 22.000000 47.000000 -28.000000 
v 26.000000 2.000000 -6.000000 
v -25.000000 48.000000 -28.000000 
v 78.000000 21.000000 15.000000 
v 26.000000 2.000000 -6.000000 
v 22.000000 47.000000 -28.000000 
v 67.000000 64.000000 -8.000000 
v 78.000000 21.000000 15.000000 
v 22.000000 47.000000 -28.000000 
v 67.000000 64.000000 -8.000000 
v 0.000000 25.000000 -17.000000 
v 78.000000 21.000000 15.000000 
vn -0.131104 -0.227295 -0.964844 
vn -0.412598 -0.272217 -0.869141 
vn -0.186035 -0.008545 -0.982422 
vn 0.059814 0.020264 -0.997803 
vn -0.131104 -0.227295 -0.964844 
vn -0.186035 -0.008545 -0.982422 
vn -0.072510 0.499512 0.863037 
vn -0.084961 0.173340 0.980957 
vn 0.146484 0.306152 0.940430 
vn 0.323730 -0.211670 -0.922119 
vn -0.131104 -0.227295 -0.964844 
vn 0.059814 0.020264 -0.997803 
vn 0.334473 0.011963 -0.942139 
vn 0.323730 -0.211670 -0.922119 
vn 0.059814 0.020264 -0.997803 
vn 0.477783 -0.188965 -0.857666 
vn 0.323730 -0.211670 -0.922119 
vn 0.334473 0.011963 -0.942139 
vn -0.097900 0.130859 0.986328 
vn -0.072510 0.499512 0.863037 
vn -0.272949 0.295898 0.915283 
vn -0.198975 -0.656982 -0.727051 
vn -0.443604 -0.656006 -0.610352 
vn -0.412598 -0.272217 -0.869141 
vn -0.131104 -0.227295 -0.964844 
vn -0.198975 -0.656982 -0.727051 
vn -0.412598 -0.272217 -0.869141 
vn -0.072510 0.499512 0.863037 
vn 0.146484 0.306152 0.940430 
vn 0.190674 0.648926 0.736328 
vn 0.303467 -0.638428 -0.707031 
vn -0.198975 -0.656982 -0.727051 
vn -0.131104 -0.227295 -0.964844 
vn 0.323730 -0.211670 -0.922119 
vn 0.303467 -0.638428 -0.707031 
vn -0.131104 -0.227295 -0.964844 
vn 0.526611 -0.519287 -0.672852 
vn 0.303467 -0.638428 -0.707031 
vn 0.323730 -0.211670 -0.922119 
vn 0.477783 -0.188965 -0.857666 
vn 0.526611 -0.519287 -0.672852 
vn 0.323730 -0.211670 -0.922119 
vn -0.272949 0.295898 0.915283 
vn -0.072510 0.499512 0.863037 
vn -0.321289 0.628418 0.708008 
vt 0.285714 0.571429 
vt 0.047619 0.571429 
vt 0.095238 0.714286 
vt 0.444444 0.714286 
vt 0.285714 0.571429 
vt 0.095238 0.714286 
vt 0.492063 0.444444 
vt 0.777778 0.682540 
vt 0.793651 0.507937 
vt 0.587302 0.571429 
vt 0.285714 0.571429 
vt 0.444444 0.714286 
vt 0.888889 0.714286 
vt 0.587302 0.571429 
vt 0.444444 0.714286 
vt 0.920635 0.571429 
vt 0.587302 0.571429 
vt 0.888889 0.714286 
vt 0.269841 0.730159 
vt 0.492063 0.444444 
vt 0.253968 0.523810 
vt 0.285714 0.365079 
vt 0.047619 0.365079 
vt 0.047619 0.571429 
vt 0.285714 0.571429 
vt 0.285714 0.365079 
vt 0.047619 0.571429 
vt 0.492063 0.444444 
vt 0.793651 0.507937 
vt 0.793651 0.285714 
vt 0.603175 0.365079 
vt 0.285714 0.365079 
vt 0.285714 0.571429 
vt 0.587302 0.571429 
vt 0.603175 0.365079 
vt 0.285714 0.571429 
vt 0.920635 0.365079 
vt 0.603175 0.365079 
vt 0.587302 0.571429 
vt 0.920635 0.571429 
vt 0.920635 0.365079 
vt 0.587302 0.571429 
vt 0.253968 0.523810 
vt 0.492063 0.444444 
vt 0.253968 0.285714 
f 1/1/1 2/2/2 3/3/3
f 4/4/4 5/5/5 6/6/6
f 7/7/7 8/8/8 9/9/9
f 10/10/10 11/11/11 12/12/12
f 13/13/13 14/14/14 15/15/15
f 16/16/16 17/17/17 18/18/18
f 19/19/19 20/20/20 21/21/21
f 22/22/22 23/23/23 24/24/24
f 25/25/25 26/26/26 27/27/27
f 28/28/28 29/29/29 30/30/30
f 31/31/31 32/32/32 33/33/33
f 34/34/34 35/35/35 36/36/36
f 37/37/37 38/38/38 39/39/39
f 40/40/40 41/41/41 42/42/42
f 43/43/43 44/44/44 45/45/45
