v 403.000000 424.000000 111.000000 
v 192.000000 556.000000 48.000000 
v 217.000000 557.000000 13.000000 
v 265.000000 570.000000 -30.000000 
v 217.000000 557.000000 13.000000 
v 26.000000 760.000000 -7.000000 
v 192.000000 556.000000 48.000000 
v 0.000000 760.000000 0.000000 
v 217.000000 557.000000 13.000000 
v 217.000000 557.000000 13.000000 
v 0.000000 760.000000 0.000000 
v 26.000000 760.000000 -7.000000 
v 424.000000 424.000000 0.000000 
v 217.000000 557.000000 13.000000 
v 265.000000 570.000000 -30.000000 
v 424.000000 424.000000 0.000000 
v 403.000000 424.000000 111.000000 
v 217.000000 557.000000 13.000000 
v 419.000000 244.000000 -13.000000 
v 426.000000 387.000000 -1.000000 
v 431.000000 274.000000 -20.000000 
v 373.000000 204.000000 16.000000 
v 367.000000 214.000000 48.000000 
v 371.000000 275.000000 39.000000 
v 348.000000 210.000000 85.000000 
v 399.000000 378.000000 63.000000 
v 371.000000 275.000000 39.000000 
v 348.000000 210.000000 85.000000 
v 348.000000 65.000000 95.000000 
v 343.000000 159.000000 92.000000 
v 420.000000 197.000000 -17.000000 
v 419.000000 244.000000 -13.000000 
v 431.000000 274.000000 -20.000000 
v 367.000000 214.000000 48.000000 
v 383.000000 141.000000 10.000000 
v 374.000000 126.000000 29.000000 
v 426.000000 387.000000 -1.000000 
v 373.000000 204.000000 16.000000 
v 371.000000 275.000000 39.000000 
v 426.000000 387.000000 -1.000000 
v 371.000000 275.000000 39.000000 
v 399.000000 378.000000 63.000000 
v 348.000000 65.000000 95.000000 
v 348.000000 210.000000 85.000000 
v 371.000000 275.000000 39.000000 
v 348.000000 65.000000 95.000000 
v 371.000000 275.000000 39.000000 
v 367.000000 214.000000 48.000000 
v 399.000000 378.000000 63.000000 
v 348.000000 210.000000 85.000000 
v 343.000000 159.000000 92.000000 
v 399.000000 378.000000 63.000000 
v 343.000000 159.000000 92.000000 
v 397.000000 379.000000 102.000000 
v 410.000000 259.000000 -5.000000 
v 426.000000 387.000000 -1.000000 
v 419.000000 244.000000 -13.000000 
v 404.000000 169.000000 -10.000000 
v 373.000000 204.000000 16.000000 
v 403.000000 261.000000 -2.000000 
v 422.000000 100.000000 -48.000000 
v 420.000000 197.000000 -17.000000 
v 433.000000 118.000000 -39.000000 
v 420.000000 197.000000 -17.000000 
v 431.000000 274.000000 -20.000000 
v 433.000000 118.000000 -39.000000 
v 403.000000 261.000000 -2.000000 
v 426.000000 387.000000 -1.000000 
v 410.000000 259.000000 -5.000000 
v 420.000000 197.000000 -17.000000 
v 411.000000 196.000000 -9.000000 
v 410.000000 259.000000 -5.000000 
v 420.000000 197.000000 -17.000000 
v 410.000000 259.000000 -5.000000 
v 419.000000 244.000000 -13.000000 
v 387.000000 89.000000 -11.000000 
v 373.000000 204.000000 16.000000 
v 404.000000 169.000000 -10.000000 
v 374.000000 126.000000 29.000000 
v 383.000000 141.000000 10.000000 
v 373.000000 89.000000 13.000000 
v 411.000000 196.000000 -9.000000 
v 404.000000 169.000000 -10.000000 
v 403.000000 261.000000 -2.000000 
v 411.000000 196.000000 -9.000000 
v 403.000000 261.000000 -2.000000 
v 410.000000 259.000000 -5.000000 
v 373.000000 204.000000 16.000000 
v 426.000000 387.000000 -1.000000 
v 403.000000 261.000000 -2.000000 
v 383.000000 141.000000 10.000000 
v 373.000000 204.000000 16.000000 
v 387.000000 89.000000 -11.000000 
v 367.000000 214.000000 48.000000 
v 373.000000 204.000000 16.000000 
v 383.000000 141.000000 10.000000 
v 403.000000 424.000000 111.000000 
v 424.000000 424.000000 0.000000 
v 426.000000 387.000000 -1.000000 
v 399.000000 378.000000 63.000000 
v 397.000000 379.000000 102.000000 
v 403.000000 424.000000 111.000000 
v 426.000000 387.000000 -1.000000 
v 399.000000 378.000000 63.000000 
v 403.000000 424.000000 111.000000 
v 326.000000 646.000000 0.000000 
v 390.000000 541.000000 0.000000 
v 424.000000 424.000000 0.000000 
v 265.000000 570.000000 -30.000000 
v 326.000000 646.000000 0.000000 
v 424.000000 424.000000 0.000000 
v 89.000000 760.000000 -1.000000 
v 263.000000 721.000000 40.000000 
v 326.000000 646.000000 0.000000 
v 26.000000 760.000000 -7.000000 
v 89.000000 760.000000 -1.000000 
v 326.000000 646.000000 0.000000 
v 265.000000 570.000000 -30.000000 
v 26.000000 760.000000 -7.000000 
v 326.000000 646.000000 0.000000 
v -188.000000 556.000000 14.000000 
v -403.000000 424.000000 111.000000 
v -217.000000 557.000000 -12.000000 
v -217.000000 557.000000 -12.000000 
v -265.000000 570.000000 -30.000000 
v -26.000000 760.000000 -7.000000 
v 0.000000 760.000000 0.000000 
v -188.000000 556.000000 14.000000 
v -217.000000 557.000000 -12.000000 
v 0.000000 760.000000 0.000000 
v -217.000000 557.000000 -12.000000 
v -26.000000 760.000000 -7.000000 
v -217.000000 557.000000 -12.000000 
v -424.000000 424.000000 0.000000 
v -265.000000 570.000000 -30.000000 
v -403.000000 424.000000 111.000000 
v -424.000000 424.000000 0.000000 
v -217.000000 557.000000 -12.000000 
v -426.000000 387.000000 -1.000000 
v -419.000000 244.000000 -13.000000 
v -431.000000 274.000000 -20.000000 
v -367.000000 214.000000 48.000000 
v -373.000000 204.000000 16.000000 
v -371.000000 275.000000 39.000000 
v -399.000000 378.000000 63.000000 
v -348.000000 210.000000 85.000000 
v -371.000000 275.000000 39.000000 
v -348.000000 65.000000 95.000000 
v -348.000000 210.000000 85.000000 
v -343.000000 159.000000 92.000000 
v -419.000000 244.000000 -13.000000 
v -420.000000 197.000000 -17.000000 
v -431.000000 274.000000 -20.000000 
v -383.000000 141.000000 10.000000 
v -367.000000 214.000000 48.000000 
v -374.000000 126.000000 29.000000 
v -373.000000 204.000000 16.000000 
v -426.000000 387.000000 -1.000000 
v -371.000000 275.000000 39.000000 
v -371.000000 275.000000 39.000000 
v -426.000000 387.000000 -1.000000 
v -399.000000 378.000000 63.000000 
v -348.000000 210.000000 85.000000 
v -348.000000 65.000000 95.000000 
v -371.000000 275.000000 39.000000 
v -371.000000 275.000000 39.000000 
v -348.000000 65.000000 95.000000 
v -367.000000 214.000000 48.000000 
v -343.000000 159.000000 92.000000 
v -399.000000 378.000000 63.000000 
v -397.000000 379.000000 102.000000 
v -426.000000 387.000000 -1.000000 
v -410.000000 259.000000 -5.000000 
v -419.000000 244.000000 -13.000000 
v -373.000000 204.000000 16.000000 
v -404.000000 169.000000 -10.000000 
v -403.000000 261.000000 -2.000000 
v -420.000000 197.000000 -17.000000 
v -422.000000 100.000000 -48.000000 
v -433.000000 118.000000 -39.000000 
v -431.000000 274.000000 -20.000000 
v -420.000000 197.000000 -17.000000 
v -433.000000 118.000000 -39.000000 
v -426.000000 387.000000 -1.000000 
v -403.000000 261.000000 -2.000000 
v -410.000000 259.000000 -5.000000 
v -411.000000 196.000000 -9.000000 
v -420.000000 197.000000 -17.000000 
v -410.000000 259.000000 -5.000000 
v -410.000000 259.000000 -5.000000 
v -420.000000 197.000000 -17.000000 
v -419.000000 244.000000 -13.000000 
v -373.000000 204.000000 16.000000 
v -387.000000 89.000000 -11.000000 
v -404.000000 169.000000 -10.000000 
v -383.000000 141.000000 10.000000 
v -374.000000 126.000000 29.000000 
v -373.000000 89.000000 13.000000 
v -404.000000 169.000000 -10.000000 
v -411.000000 196.000000 -9.000000 
v -403.000000 261.000000 -2.000000 
v -403.000000 261.000000 -2.000000 
v -411.000000 196.000000 -9.000000 
v -410.000000 259.000000 -5.000000 
v -426.000000 387.000000 -1.000000 
v -373.000000 204.000000 16.000000 
v -403.000000 261.000000 -2.000000 
v -373.000000 204.000000 16.000000 
v -383.000000 141.000000 10.000000 
v -387.000000 89.000000 -11.000000 
v -373.000000 204.000000 16.000000 
v -367.000000 214.000000 48.000000 
v -383.000000 141.000000 10.000000 
v -424.000000 424.000000 0.000000 
v -403.000000 424.000000 111.000000 
v -426.000000 387.000000 -1.000000 
v -397.000000 379.000000 102.000000 
v -399.000000 378.000000 63.000000 
v -403.000000 424.000000 111.000000 
v -399.000000 378.000000 63.000000 
v -426.000000 387.000000 -1.000000 
v -403.000000 424.000000 111.000000 
v -390.000000 541.000000 0.000000 
v -326.000000 646.000000 0.000000 
v -424.000000 424.000000 0.000000 
v -326.000000 646.000000 0.000000 
v -265.000000 570.000000 -30.000000 
v -424.000000 424.000000 0.000000 
v -263.000000 721.000000 40.000000 
v -89.000000 760.000000 -1.000000 
v -326.000000 646.000000 0.000000 
v -89.000000 760.000000 -1.000000 
v -26.000000 760.000000 -7.000000 
v -326.000000 646.000000 0.000000 
v -26.000000 760.000000 -7.000000 
v -265.000000 570.000000 -30.000000 
v -326.000000 646.000000 0.000000 
vn -0.935303 -0.289551 -0.202881 
vn -0.521973 -0.785645 -0.331299 
vn -0.497559 -0.708008 -0.500732 
vn -0.150879 -0.236328 -0.959717 
vn -0.497559 -0.708008 -0.500732 
vn -0.159424 -0.128418 -0.978760 
vn -0.521973 -0.785645 -0.331299 
vn -0.471680 -0.573730 -0.669189 
vn -0.497559 -0.708008 -0.500732 
vn -0.497559 -0.708008 -0.500732 
vn -0.471680 -0.573730 -0.669189 
vn -0.159424 -0.128418 -0.978760 
vn -0.466553 -0.397949 -0.789551 
vn -0.497559 -0.708008 -0.500732 
vn -0.150879 -0.236328 -0.959717 
vn -0.466553 -0.397949 -0.789551 
vn -0.935303 -0.289551 -0.202881 
vn -0.497559 -0.708008 -0.500732 
vn -0.653320 0.083008 -0.752197 
vn -0.806152 0.177734 -0.563965 
vn -0.697998 0.083252 -0.710938 
vn -0.899414 0.043457 -0.434326 
vn -0.972168 -0.010986 -0.233643 
vn -0.942139 0.141113 -0.303223 
vn -0.984619 0.136230 -0.108643 
vn -0.946289 0.317871 0.054688 
vn -0.942139 0.141113 -0.303223 
vn -0.984619 0.136230 -0.108643 
vn -0.868164 -0.020752 -0.495605 
vn -0.971436 0.204102 0.119873 
vn -0.538330 0.129639 -0.832520 
vn -0.653320 0.083008 -0.752197 
vn -0.697998 0.083252 -0.710938 
vn -0.972168 -0.010986 -0.233643 
vn -0.987061 -0.034668 -0.155762 
vn -0.941650 0.085938 -0.324951 
vn -0.806152 0.177734 -0.563965 
vn -0.899414 0.043457 -0.434326 
vn -0.942139 0.141113 -0.303223 
vn -0.806152 0.177734 -0.563965 
vn -0.942139 0.141113 -0.303223 
vn -0.946289 0.317871 0.054688 
vn -0.868164 -0.020752 -0.495605 
vn -0.984619 0.136230 -0.108643 
vn -0.942139 0.141113 -0.303223 
vn -0.868164 -0.020752 -0.495605 
vn -0.942139 0.141113 -0.303223 
vn -0.972168 -0.010986 -0.233643 
vn -0.946289 0.317871 0.054688 
vn -0.984619 0.136230 -0.108643 
vn -0.971436 0.204102 0.119873 
vn -0.946289 0.317871 0.054688 
vn -0.971436 0.204102 0.119873 
vn -0.979736 0.196045 -0.035645 
vn -0.582031 0.072998 -0.809570 
vn -0.806152 0.177734 -0.563965 
vn -0.653320 0.083008 -0.752197 
vn -0.535889 0.104980 -0.837646 
vn -0.899414 0.043457 -0.434326 
vn -0.533691 0.095947 -0.840088 
vn 0.325928 0.347656 -0.878906 
vn -0.538330 0.129639 -0.832520 
vn -0.261475 0.262207 -0.928711 
vn -0.538330 0.129639 -0.832520 
vn -0.697998 0.083252 -0.710938 
vn -0.261475 0.262207 -0.928711 
vn -0.533691 0.095947 -0.840088 
vn -0.806152 0.177734 -0.563965 
vn -0.582031 0.072998 -0.809570 
vn -0.538330 0.129639 -0.832520 
vn -0.488770 0.067871 -0.869629 
vn -0.582031 0.072998 -0.809570 
vn -0.538330 0.129639 -0.832520 
vn -0.582031 0.072998 -0.809570 
vn -0.653320 0.083008 -0.752197 
vn -0.936035 -0.015137 -0.351318 
vn -0.899414 0.043457 -0.434326 
vn -0.535889 0.104980 -0.837646 
vn -0.941650 0.085938 -0.324951 
vn -0.987061 -0.034668 -0.155762 
vn -0.946777 0.151855 -0.283447 
vn -0.488770 0.067871 -0.869629 
vn -0.535889 0.104980 -0.837646 
vn -0.533691 0.095947 -0.840088 
vn -0.488770 0.067871 -0.869629 
vn -0.533691 0.095947 -0.840088 
vn -0.582031 0.072998 -0.809570 
vn -0.899414 0.043457 -0.434326 
vn -0.806152 0.177734 -0.563965 
vn -0.533691 0.095947 -0.840088 
vn -0.987061 -0.034668 -0.155762 
vn -0.899414 0.043457 -0.434326 
vn -0.936035 -0.015137 -0.351318 
vn -0.972168 -0.010986 -0.233643 
vn -0.899414 0.043457 -0.434326 
vn -0.987061 -0.034668 -0.155762 
vn -0.935303 -0.289551 -0.202881 
vn -0.466553 -0.397949 -0.789551 
vn -0.806152 0.177734 -0.563965 
vn -0.946289 0.317871 0.054688 
vn -0.979736 0.196045 -0.035645 
vn -0.935303 -0.289551 -0.202881 
vn -0.806152 0.177734 -0.563965 
vn -0.946289 0.317871 0.054688 
vn -0.935303 -0.289551 -0.202881 
vn 0.192383 0.285400 -0.938721 
vn 0.000000 0.000000 -1.000000 
vn -0.466553 -0.397949 -0.789551 
vn -0.150879 -0.236328 -0.959717 
vn 0.192383 0.285400 -0.938721 
vn -0.466553 -0.397949 -0.789551 
vn 0.225342 0.465088 -0.855957 
vn 0.329834 0.693359 -0.640381 
vn 0.192383 0.285400 -0.938721 
vn -0.159424 -0.128418 -0.978760 
vn 0.225342 0.465088 -0.855957 
vn 0.192383 0.285400 -0.938721 
vn -0.150879 -0.236328 -0.959717 
vn -0.159424 -0.128418 -0.978760 
vn 0.192383 0.285400 -0.938721 
vn 0.476562 -0.755615 -0.448975 
vn 0.927979 -0.299561 -0.220947 
vn 0.422852 -0.612061 -0.667969 
vn 0.422852 -0.612061 -0.667969 
vn 0.016602 -0.074463 -0.997070 
vn 0.097412 -0.005127 -0.995117 
vn 0.460449 -0.450195 -0.764893 
vn 0.476562 -0.755615 -0.448975 
vn 0.422852 -0.612061 -0.667969 
vn 0.460449 -0.450195 -0.764893 
vn 0.422852 -0.612061 -0.667969 
vn 0.097412 -0.005127 -0.995117 
vn 0.422852 -0.612061 -0.667969 
vn 0.395996 -0.342773 -0.851562 
vn 0.016602 -0.074463 -0.997070 
vn 0.927979 -0.299561 -0.220947 
vn 0.395996 -0.342773 -0.851562 
vn 0.422852 -0.612061 -0.667969 
vn 0.806152 0.177734 -0.563965 
vn 0.653320 0.083008 -0.752197 
vn 0.697998 0.083252 -0.710938 
vn 0.972168 -0.010986 -0.233643 
vn 0.899414 0.043457 -0.434326 
vn 0.942139 0.141113 -0.303223 
vn 0.946777 0.287109 -0.144531 
vn 0.891113 0.067871 -0.448486 
vn 0.942139 0.141113 -0.303223 
vn 0.868164 -0.020752 -0.495605 
vn 0.891113 0.067871 -0.448486 
vn 0.896973 0.103271 -0.429199 
vn 0.653320 0.083008 -0.752197 
vn 0.538330 0.129639 -0.832520 
vn 0.697998 0.083252 -0.710938 
vn 0.987061 -0.034668 -0.155762 
vn 0.972168 -0.010986 -0.233643 
vn 0.941650 0.085938 -0.324951 
vn 0.899414 0.043457 -0.434326 
vn 0.806152 0.177734 -0.563965 
vn 0.942139 0.141113 -0.303223 
vn 0.942139 0.141113 -0.303223 
vn 0.806152 0.177734 -0.563965 
vn 0.946777 0.287109 -0.144531 
vn 0.891113 0.067871 -0.448486 
vn 0.868164 -0.020752 -0.495605 
vn 0.942139 0.141113 -0.303223 
vn 0.942139 0.141113 -0.303223 
vn 0.868164 -0.020752 -0.495605 
vn 0.972168 -0.010986 -0.233643 
vn 0.896973 0.103271 -0.429199 
vn 0.946777 0.287109 -0.144531 
vn 0.979736 0.196045 -0.035645 
vn 0.806152 0.177734 -0.563965 
vn 0.582031 0.072998 -0.809570 
vn 0.653320 0.083008 -0.752197 
vn 0.899414 0.043457 -0.434326 
vn 0.535889 0.104980 -0.837646 
vn 0.533691 0.095947 -0.840088 
vn 0.538330 0.129639 -0.832520 
vn -0.325928 0.347656 -0.878906 
vn 0.261475 0.262207 -0.928711 
vn 0.697998 0.083252 -0.710938 
vn 0.538330 0.129639 -0.832520 
vn 0.261475 0.262207 -0.928711 
vn 0.806152 0.177734 -0.563965 
vn 0.533691 0.095947 -0.840088 
vn 0.582031 0.072998 -0.809570 
vn 0.488770 0.067871 -0.869629 
vn 0.538330 0.129639 -0.832520 
vn 0.582031 0.072998 -0.809570 
vn 0.582031 0.072998 -0.809570 
vn 0.538330 0.129639 -0.832520 
vn 0.653320 0.083008 -0.752197 
vn 0.899414 0.043457 -0.434326 
vn 0.936035 -0.015137 -0.351318 
vn 0.535889 0.104980 -0.837646 
vn 0.987061 -0.034668 -0.155762 
vn 0.941650 0.085938 -0.324951 
vn 0.946777 0.151855 -0.283447 
vn 0.535889 0.104980 -0.837646 
vn 0.488770 0.067871 -0.869629 
vn 0.533691 0.095947 -0.840088 
vn 0.533691 0.095947 -0.840088 
vn 0.488770 0.067871 -0.869629 
vn 0.582031 0.072998 -0.809570 
vn 0.806152 0.177734 -0.563965 
vn 0.899414 0.043457 -0.434326 
vn 0.533691 0.095947 -0.840088 
vn 0.899414 0.043457 -0.434326 
vn 0.987061 -0.034668 -0.155762 
vn 0.936035 -0.015137 -0.351318 
vn 0.899414 0.043457 -0.434326 
vn 0.972168 -0.010986 -0.233643 
vn 0.987061 -0.034668 -0.155762 
vn 0.395996 -0.342773 -0.851562 
vn 0.927979 -0.299561 -0.220947 
vn 0.806152 0.177734 -0.563965 
vn 0.979736 0.196045 -0.035645 
vn 0.946777 0.287109 -0.144531 
vn 0.927979 -0.299561 -0.220947 
vn 0.946777 0.287109 -0.144531 
vn 0.806152 0.177734 -0.563965 
vn 0.927979 -0.299561 -0.220947 
vn 0.000000 0.000000 -1.000000 
vn -0.192383 0.285400 -0.938721 
vn 0.395996 -0.342773 -0.851562 
vn -0.192383 0.285400 -0.938721 
vn 0.016602 -0.074463 -0.997070 
vn 0.395996 -0.342773 -0.851562 
vn -0.329834 0.693359 -0.640381 
vn -0.225342 0.465088 -0.855957 
vn -0.192383 0.285400 -0.938721 
vn -0.225342 0.465088 -0.855957 
vn 0.097412 -0.005127 -0.995117 
vn -0.192383 0.285400 -0.938721 
vn 0.097412 -0.005127 -0.995117 
vn 0.016602 -0.074463 -0.997070 
vn -0.192383 0.285400 -0.938721 
vt 0.188976 0.251969 
vt 0.000000 0.440945 
vt 0.370079 0.448819 
vt 0.535433 0.472441 
vt 0.370079 0.448819 
vt 0.314961 0.960630 
vt 0.000000 0.440945 
vt 0.000000 0.960630 
vt 0.370079 0.448819 
vt 0.370079 0.448819 
vt 0.000000 0.960630 
vt 0.314961 0.960630 
vt 0.503937 0.259843 
vt 0.370079 0.448819 
vt 0.535433 0.472441 
vt 0.503937 0.259843 
vt 0.188976 0.251969 
vt 0.370079 0.448819 
vt 0.102362 0.362205 
vt 0.000000 0.992126 
vt 0.000000 0.362205 
vt 0.511811 0.425197 
vt 0.653543 0.267717 
vt 0.669291 0.425197 
vt 0.874016 0.377953 
vt 0.716535 0.992126 
vt 0.669291 0.425197 
vt 0.874016 0.377953 
vt 0.968504 0.000000 
vt 0.992126 0.244094 
vt 0.102362 -0.007874 
vt 0.102362 0.362205 
vt 0.000000 0.362205 
vt 0.653543 0.267717 
vt 0.425197 0.165354 
vt 0.527559 0.149606 
vt 0.000000 0.992126 
vt 0.511811 0.425197 
vt 0.669291 0.425197 
vt 0.000000 0.992126 
vt 0.669291 0.425197 
vt 0.716535 0.992126 
vt 0.968504 0.000000 
vt 0.874016 0.377953 
vt 0.669291 0.425197 
vt 0.968504 0.000000 
vt 0.669291 0.425197 
vt 0.653543 0.267717 
vt 0.716535 0.992126 
vt 0.874016 0.377953 
vt 0.992126 0.244094 
vt 0.716535 0.992126 
vt 0.992126 0.244094 
vt 0.984252 0.992126 
vt 0.173228 0.456693 
vt 0.000000 0.992126 
vt 0.102362 0.362205 
vt 0.291339 0.188976 
vt 0.511811 0.425197 
vt 0.228346 0.417323 
vt 0.000000 -0.007874 
vt 0.102362 -0.007874 
vt 0.000000 0.188976 
vt 0.102362 -0.007874 
vt 0.000000 0.362205 
vt 0.000000 0.188976 
vt 0.228346 0.417323 
vt 0.000000 0.992126 
vt 0.173228 0.456693 
vt 0.102362 -0.007874 
vt 0.173228 -0.007874 
vt 0.173228 0.456693 
vt 0.102362 -0.007874 
vt 0.173228 0.456693 
vt 0.102362 0.362205 
vt 0.370079 0.000000 
vt 0.511811 0.425197 
vt 0.291339 0.188976 
vt 0.527559 0.149606 
vt 0.425197 0.165354 
vt 0.456693 0.007874 
vt 0.173228 -0.007874 
vt 0.291339 0.188976 
vt 0.228346 0.417323 
vt 0.173228 -0.007874 
vt 0.228346 0.417323 
vt 0.173228 0.456693 
vt 0.511811 0.425197 
vt 0.000000 0.992126 
vt 0.228346 0.417323 
vt 0.425197 0.165354 
vt 0.511811 0.425197 
vt 0.370079 0.000000 
vt 0.653543 0.267717 
vt 0.511811 0.425197 
vt 0.425197 0.165354 
vt 0.433071 0.425197 
vt 0.433071 0.952756 
vt 0.811024 0.944882 
vt 0.811024 0.629921 
vt 0.811024 0.425197 
vt 0.433071 0.425197 
vt 0.811024 0.944882 
vt 0.811024 0.629921 
vt 0.433071 0.425197 
vt 0.811024 0.527559 
vt 0.811024 0.236220 
vt 0.503937 0.259843 
vt 0.535433 0.472441 
vt 0.811024 0.527559 
vt 0.503937 0.259843 
vt 0.417323 0.960630 
vt 0.811024 0.960630 
vt 0.811024 0.527559 
vt 0.314961 0.960630 
vt 0.417323 0.960630 
vt 0.811024 0.527559 
vt 0.535433 0.472441 
vt 0.314961 0.960630 
vt 0.811024 0.527559 
vt 0.000000 0.440945 
vt 0.188976 0.251969 
vt 0.370079 0.448819 
vt 0.370079 0.448819 
vt 0.535433 0.472441 
vt 0.314961 0.960630 
vt 0.000000 0.960630 
vt 0.000000 0.440945 
vt 0.370079 0.448819 
vt 0.000000 0.960630 
vt 0.370079 0.448819 
vt 0.314961 0.960630 
vt 0.370079 0.448819 
vt 0.503937 0.259843 
vt 0.535433 0.472441 
vt 0.188976 0.251969 
vt 0.503937 0.259843 
vt 0.370079 0.448819 
vt 0.000000 0.992126 
vt 0.102362 0.362205 
vt 0.000000 0.362205 
vt 0.653543 0.267717 
vt 0.511811 0.425197 
vt 0.669291 0.425197 
vt 0.716535 0.992126 
vt 0.874016 0.377953 
vt 0.669291 0.425197 
vt 0.968504 0.000000 
vt 0.874016 0.377953 
vt 0.992126 0.244094 
vt 0.102362 0.362205 
vt 0.102362 -0.007874 
vt 0.000000 0.362205 
vt 0.425197 0.165354 
vt 0.653543 0.267717 
vt 0.527559 0.149606 
vt 0.511811 0.425197 
vt 0.000000 0.992126 
vt 0.669291 0.425197 
vt 0.669291 0.425197 
vt 0.000000 0.992126 
vt 0.716535 0.992126 
vt 0.874016 0.377953 
vt 0.968504 0.000000 
vt 0.669291 0.425197 
vt 0.669291 0.425197 
vt 0.968504 0.000000 
vt 0.653543 0.267717 
vt 0.992126 0.244094 
vt 0.716535 0.992126 
vt 0.984252 0.992126 
vt 0.000000 0.992126 
vt 0.173228 0.456693 
vt 0.102362 0.362205 
vt 0.511811 0.425197 
vt 0.291339 0.188976 
vt 0.228346 0.417323 
vt 0.102362 -0.007874 
vt 0.000000 -0.007874 
vt 0.000000 0.188976 
vt 0.000000 0.362205 
vt 0.102362 -0.007874 
vt 0.000000 0.188976 
vt 0.000000 0.992126 
vt 0.228346 0.417323 
vt 0.173228 0.456693 
vt 0.173228 -0.007874 
vt 0.102362 -0.007874 
vt 0.173228 0.456693 
vt 0.173228 0.456693 
vt 0.102362 -0.007874 
vt 0.102362 0.362205 
vt 0.511811 0.425197 
vt 0.370079 0.000000 
vt 0.291339 0.188976 
vt 0.425197 0.165354 
vt 0.527559 0.149606 
vt 0.456693 0.007874 
vt 0.291339 0.188976 
vt 0.173228 -0.007874 
vt 0.228346 0.417323 
vt 0.228346 0.417323 
vt 0.173228 -0.007874 
vt 0.173228 0.456693 
vt 0.000000 0.992126 
vt 0.511811 0.425197 
vt 0.228346 0.417323 
vt 0.511811 0.425197 
vt 0.425197 0.165354 
vt 0.370079 0.000000 
vt 0.511811 0.425197 
vt 0.653543 0.267717 
vt 0.425197 0.165354 
vt 0.433071 0.952756 
vt 0.433071 0.425197 
vt 0.811024 0.944882 
vt 0.811024 0.425197 
vt 0.811024 0.629921 
vt 0.433071 0.425197 
vt 0.811024 0.629921 
vt 0.811024 0.944882 
vt 0.433071 0.425197 
vt 0.811024 0.236220 
vt 0.811024 0.527559 
vt 0.503937 0.259843 
vt 0.811024 0.527559 
vt 0.535433 0.472441 
vt 0.503937 0.259843 
vt 0.811024 0.960630 
vt 0.417323 0.960630 
vt 0.811024 0.527559 
vt 0.417323 0.960630 
vt 0.314961 0.960630 
vt 0.811024 0.527559 
vt 0.314961 0.960630 
vt 0.535433 0.472441 
vt 0.811024 0.527559 
f 1/1/1 2/2/2 3/3/3
f 4/4/4 5/5/5 6/6/6
f 7/7/7 8/8/8 9/9/9
f 10/10/10 11/11/11 12/12/12
f 13/13/13 14/14/14 15/15/15
f 16/16/16 17/17/17 18/18/18
f 19/19/19 20/20/20 21/21/21
f 22/22/22 23/23/23 24/24/24
f 25/25/25 26/26/26 27/27/27
f 28/28/28 29/29/29 30/30/30
f 31/31/31 32/32/32 33/33/33
f 34/34/34 35/35/35 36/36/36
f 37/37/37 38/38/38 39/39/39
f 40/40/40 41/41/41 42/42/42
f 43/43/43 44/44/44 45/45/45
f 46/46/46 47/47/47 48/48/48
f 49/49/49 50/50/50 51/51/51
f 52/52/52 53/53/53 54/54/54
f 55/55/55 56/56/56 57/57/57
f 58/58/58 59/59/59 60/60/60
f 61/61/61 62/62/62 63/63/63
f 64/64/64 65/65/65 66/66/66
f 67/67/67 68/68/68 69/69/69
f 70/70/70 71/71/71 72/72/72
f 73/73/73 74/74/74 75/75/75
f 76/76/76 77/77/77 78/78/78
f 79/79/79 80/80/80 81/81/81
f 82/82/82 83/83/83 84/84/84
f 85/85/85 86/86/86 87/87/87
f 88/88/88 89/89/89 90/90/90
f 91/91/91 92/92/92 93/93/93
f 94/94/94 95/95/95 96/96/96
f 97/97/97 98/98/98 99/99/99
f 100/100/100 101/101/101 102/102/102
f 103/103/103 104/104/104 105/105/105
f 106/106/106 107/107/107 108/108/108
f 109/109/109 110/110/110 111/111/111
f 112/112/112 113/113/113 114/114/114
f 115/115/115 116/116/116 117/117/117
f 118/118/118 119/119/119 120/120/120
f 121/121/121 122/122/122 123/123/123
f 124/124/124 125/125/125 126/126/126
f 127/127/127 128/128/128 129/129/129
f 130/130/130 131/131/131 132/132/132
f 133/133/133 134/134/134 135/135/135
f 136/136/136 137/137/137 138/138/138
f 139/139/139 140/140/140 141/141/141
f 142/142/142 143/143/143 144/144/144
f 145/145/145 146/146/146 147/147/147
f 148/148/148 149/149/149 150/150/150
f 151/151/151 152/152/152 153/153/153
f 154/154/154 155/155/155 156/156/156
f 157/157/157 158/158/158 159/159/159
f 160/160/160 161/161/161 162/162/162
f 163/163/163 164/164/164 165/165/165
f 166/166/166 167/167/167 168/168/168
f 169/169/169 170/170/170 171/171/171
f 172/172/172 173/173/173 174/174/174
f 175/175/175 176/176/176 177/177/177
f 178/178/178 179/179/179 180/180/180
f 181/181/181 182/182/182 183/183/183
f 184/184/184 185/185/185 186/186/186
f 187/187/187 188/188/188 189/189/189
f 190/190/190 191/191/191 192/192/192
f 193/193/193 194/194/194 195/195/195
f 196/196/196 197/197/197 198/198/198
f 199/199/199 200/200/200 201/201/201
f 202/202/202 203/203/203 204/204/204
f 205/205/205 206/206/206 207/207/207
f 208/208/208 209/209/209 210/210/210
f 211/211/211 212/212/212 213/213/213
f 214/214/214 215/215/215 216/216/216
f 217/217/217 218/218/218 219/219/219
f 220/220/220 221/221/221 222/222/222
f 223/223/223 224/224/224 225/225/225
f 226/226/226 227/227/227 228/228/228
f 229/229/229 230/230/230 231/231/231
f 232/232/232 233/233/233 234/234/234
f 235/235/235 236/236/236 237/237/237
