v 0.000000 10.000000 0.000000 
v -12.000000 3.000000 0.000000 
v 0.000000 0.000000 3.000000 
v -12.000000 3.000000 0.000000 
v -11.000000 -6.000000 0.000000 
v 0.000000 0.000000 3.000000 
v -11.000000 -6.000000 0.000000 
v 11.000000 -6.000000 0.000000 
v 0.000000 0.000000 3.000000 
v 11.000000 -6.000000 0.000000 
v 8.000000 3.000000 0.000000 
v 0.000000 0.000000 3.000000 
v 8.000000 3.000000 0.000000 
v 0.000000 10.000000 0.000000 
v 0.000000 0.000000 3.000000 
v 0.000000 15.000000 -4.000000 
v -15.000000 3.000000 -4.000000 
v 0.000000 10.000000 0.000000 
v -15.000000 3.000000 -4.000000 
v -12.000000 3.000000 0.000000 
v 0.000000 10.000000 0.000000 
v -15.000000 3.000000 -4.000000 
v -11.000000 -8.000000 -4.000000 
v -12.000000 3.000000 0.000000 
v -11.000000 -8.000000 -4.000000 
v -11.000000 -6.000000 0.000000 
v -12.000000 3.000000 0.000000 
v -11.000000 -8.000000 -4.000000 
v 11.000000 -8.000000 -7.000000 
v -11.000000 -6.000000 0.000000 
v 11.000000 -8.000000 -7.000000 
v 11.000000 -6.000000 0.000000 
v -11.000000 -6.000000 0.000000 
v 11.000000 -8.000000 -7.000000 
v 12.000000 3.000000 -4.000000 
v 11.000000 -6.000000 0.000000 
v 12.000000 3.000000 -4.000000 
v 8.000000 3.000000 0.000000 
v 11.000000 -6.000000 0.000000 
v 12.000000 3.000000 -4.000000 
v 0.000000 15.000000 -4.000000 
v 8.000000 3.000000 0.000000 
v 0.000000 15.000000 -4.000000 
v 0.000000 10.000000 0.000000 
v 8.000000 3.000000 0.000000 
v 0.000000 12.000000 -23.000000 
v -14.000000 3.000000 -23.000000 
v 0.000000 15.000000 -4.000000 
v -14.000000 3.000000 -23.000000 
v -15.000000 3.000000 -4.000000 
v 0.000000 15.000000 -4.000000 
v -14.000000 3.000000 -23.000000 
v -12.000000 -8.000000 -23.000000 
v -15.000000 3.000000 -4.000000 
v -12.000000 -8.000000 -23.000000 
v -11.000000 -8.000000 -4.000000 
v -15.000000 3.000000 -4.000000 
v -12.000000 -8.000000 -23.000000 
v 12.000000 -8.000000 -23.000000 
v -11.000000 -8.000000 -4.000000 
v 12.000000 -8.000000 -23.000000 
v 11.000000 -8.000000 -7.000000 
v -11.000000 -8.000000 -4.000000 
v 12.000000 -8.000000 -23.000000 
v 11.000000 3.000000 -23.000000 
v 11.000000 -8.000000 -7.000000 
v 11.000000 3.000000 -23.000000 
v 12.000000 3.000000 -4.000000 
v 11.000000 -8.000000 -7.000000 
v 11.000000 3.000000 -23.000000 
v 0.000000 12.000000 -23.000000 
v 12.000000 3.000000 -4.000000 
v 0.000000 12.000000 -23.000000 
v 0.000000 15.000000 -4.000000 
v 12.000000 3.000000 -4.000000 
v 0.000000 11.000000 -41.000000 
v -14.000000 1.000000 -41.000000 
v 0.000000 12.000000 -23.000000 
v -14.000000 1.000000 -41.000000 
v -14.000000 3.000000 -23.000000 
v 0.000000 12.000000 -23.000000 
v -14.000000 1.000000 -41.000000 
v -17.000000 -5.000000 -38.000000 
v -14.000000 3.000000 -23.000000 
v -17.000000 -5.000000 -38.000000 
v -12.000000 -8.000000 -23.000000 
v -14.000000 3.000000 -23.000000 
v -17.000000 -5.000000 -38.000000 
v 17.000000 -5.000000 -38.000000 
v -12.000000 -8.000000 -23.000000 
v 17.000000 -5.000000 -38.000000 
v 12.000000 -8.000000 -23.000000 
v -12.000000 -8.000000 -23.000000 
v 17.000000 -5.000000 -38.000000 
v 14.000000 1.000000 -41.000000 
v 12.000000 -8.000000 -23.000000 
v 14.000000 1.000000 -41.000000 
v 11.000000 3.000000 -23.000000 
v 12.000000 -8.000000 -23.000000 
v 14.000000 1.000000 -41.000000 
v 0.000000 11.000000 -41.000000 
v 11.000000 3.000000 -23.000000 
v 0.000000 11.000000 -41.000000 
v 0.000000 12.000000 -23.000000 
v 11.000000 3.000000 -23.000000 
v -3.000000 7.000000 -67.000000 
v -14.000000 3.000000 -62.000000 
v 0.000000 11.000000 -41.000000 
v -14.000000 3.000000 -62.000000 
v -14.000000 1.000000 -41.000000 
v 0.000000 11.000000 -41.000000 
v -14.000000 3.000000 -62.000000 
v -9.000000 -8.000000 -62.000000 
v -14.000000 1.000000 -41.000000 
v -9.000000 -8.000000 -62.000000 
v -17.000000 -5.000000 -38.000000 
v -14.000000 1.000000 -41.000000 
v -9.000000 -8.000000 -62.000000 
v 19.000000 -8.000000 -60.000000 
v -17.000000 -5.000000 -38.000000 
v 19.000000 -8.000000 -60.000000 
v 17.000000 -5.000000 -38.000000 
v -17.000000 -5.000000 -38.000000 
v 19.000000 -8.000000 -60.000000 
v 17.000000 3.000000 -62.000000 
v 17.000000 -5.000000 -38.000000 
v 17.000000 3.000000 -62.000000 
v 14.000000 1.000000 -41.000000 
v 17.000000 -5.000000 -38.000000 
v 17.000000 3.000000 -62.000000 
v -3.000000 7.000000 -67.000000 
v 14.000000 1.000000 -41.000000 
v -3.000000 7.000000 -67.000000 
v 0.000000 11.000000 -41.000000 
v 14.000000 1.000000 -41.000000 
v -14.000000 3.000000 -62.000000 
v -3.000000 7.000000 -67.000000 
v -4.000000 0.000000 -69.000000 
v -9.000000 -8.000000 -62.000000 
v -14.000000 3.000000 -62.000000 
v -4.000000 0.000000 -69.000000 
v 19.000000 -8.000000 -60.000000 
v -9.000000 -8.000000 -62.000000 
v -4.000000 0.000000 -69.000000 
v 17.000000 3.000000 -62.000000 
v 19.000000 -8.000000 -60.000000 
v -4.000000 0.000000 -69.000000 
v -3.000000 7.000000 -67.000000 
v 17.000000 3.000000 -62.000000 
v -4.000000 0.000000 -69.000000 
vn -0.109863 0.353760 0.928711 
vn -0.635742 0.097412 0.765625 
vn 0.026611 0.013184 0.999512 
vn -0.635742 0.097412 0.765625 
vn -0.288574 -0.475830 0.830566 
vn 0.026611 0.013184 0.999512 
vn -0.288574 -0.475830 0.830566 
vn 0.511963 -0.247070 0.822510 
vn 0.026611 0.013184 0.999512 
vn 0.511963 -0.247070 0.822510 
vn 0.515869 0.205322 0.831543 
vn 0.026611 0.013184 0.999512 
vn 0.515869 0.205322 0.831543 
vn -0.109863 0.353760 0.928711 
vn 0.026611 0.013184 0.999512 
vn 0.024658 0.865967 0.499023 
vn -0.902588 0.206055 0.377686 
vn -0.109863 0.353760 0.928711 
vn -0.902588 0.206055 0.377686 
vn -0.635742 0.097412 0.765625 
vn -0.109863 0.353760 0.928711 
vn -0.902588 0.206055 0.377686 
vn -0.596924 -0.722656 0.347900 
vn -0.635742 0.097412 0.765625 
vn -0.596924 -0.722656 0.347900 
vn -0.288574 -0.475830 0.830566 
vn -0.635742 0.097412 0.765625 
vn -0.596924 -0.722656 0.347900 
vn 0.719727 -0.619141 0.313232 
vn -0.288574 -0.475830 0.830566 
vn 0.719727 -0.619141 0.313232 
vn 0.511963 -0.247070 0.822510 
vn -0.288574 -0.475830 0.830566 
vn 0.719727 -0.619141 0.313232 
vn 0.938721 0.270752 0.212158 
vn 0.511963 -0.247070 0.822510 
vn 0.938721 0.270752 0.212158 
vn 0.515869 0.205322 0.831543 
vn 0.511963 -0.247070 0.822510 
vn 0.938721 0.270752 0.212158 
vn 0.024658 0.865967 0.499023 
vn 0.515869 0.205322 0.831543 
vn 0.024658 0.865967 0.499023 
vn -0.109863 0.353760 0.928711 
vn 0.515869 0.205322 0.831543 
vn 0.072021 0.980225 -0.184082 
vn -0.931885 0.360840 -0.029053 
vn 0.024658 0.865967 0.499023 
vn -0.931885 0.360840 -0.029053 
vn -0.902588 0.206055 0.377686 
vn 0.024658 0.865967 0.499023 
vn -0.931885 0.360840 -0.029053 
vn -0.670410 -0.731201 -0.124512 
vn -0.902588 0.206055 0.377686 
vn -0.670410 -0.731201 -0.124512 
vn -0.596924 -0.722656 0.347900 
vn -0.902588 0.206055 0.377686 
vn -0.670410 -0.731201 -0.124512 
vn 0.742920 -0.663574 0.084961 
vn -0.596924 -0.722656 0.347900 
vn 0.742920 -0.663574 0.084961 
vn 0.719727 -0.619141 0.313232 
vn -0.596924 -0.722656 0.347900 
vn 0.742920 -0.663574 0.084961 
vn 0.940674 0.336914 0.037598 
vn 0.719727 -0.619141 0.313232 
vn 0.940674 0.336914 0.037598 
vn 0.938721 0.270752 0.212158 
vn 0.719727 -0.619141 0.313232 
vn 0.940674 0.336914 0.037598 
vn 0.072021 0.980225 -0.184082 
vn 0.938721 0.270752 0.212158 
vn 0.072021 0.980225 -0.184082 
vn 0.024658 0.865967 0.499023 
vn 0.938721 0.270752 0.212158 
vn 0.046143 0.993164 -0.105713 
vn -0.916260 0.386475 -0.102783 
vn 0.072021 0.980225 -0.184082 
vn -0.916260 0.386475 -0.102783 
vn -0.931885 0.360840 -0.029053 
vn 0.072021 0.980225 -0.184082 
vn -0.916260 0.386475 -0.102783 
vn -0.744385 -0.667480 -0.009766 
vn -0.931885 0.360840 -0.029053 
vn -0.744385 -0.667480 -0.009766 
vn -0.670410 -0.731201 -0.124512 
vn -0.931885 0.360840 -0.029053 
vn -0.744385 -0.667480 -0.009766 
vn 0.804199 -0.593506 0.026611 
vn -0.670410 -0.731201 -0.124512 
vn 0.804199 -0.593506 0.026611 
vn 0.742920 -0.663574 0.084961 
vn -0.670410 -0.731201 -0.124512 
vn 0.804199 -0.593506 0.026611 
vn 0.839111 0.524170 0.144287 
vn 0.742920 -0.663574 0.084961 
vn 0.839111 0.524170 0.144287 
vn 0.940674 0.336914 0.037598 
vn 0.742920 -0.663574 0.084961 
vn 0.839111 0.524170 0.144287 
vn 0.046143 0.993164 -0.105713 
vn 0.940674 0.336914 0.037598 
vn 0.046143 0.993164 -0.105713 
vn 0.072021 0.980225 -0.184082 
vn 0.940674 0.336914 0.037598 
vn 0.081787 0.779541 -0.620850 
vn -0.828125 0.310059 -0.466553 
vn 0.046143 0.993164 -0.105713 
vn -0.828125 0.310059 -0.466553 
vn -0.916260 0.386475 -0.102783 
vn 0.046143 0.993164 -0.105713 
vn -0.828125 0.310059 -0.466553 
vn -0.680420 -0.460693 -0.569336 
vn -0.916260 0.386475 -0.102783 
vn -0.680420 -0.460693 -0.569336 
vn -0.744385 -0.667480 -0.009766 
vn -0.916260 0.386475 -0.102783 
vn -0.680420 -0.460693 -0.569336 
vn 0.450928 -0.770264 -0.450439 
vn -0.744385 -0.667480 -0.009766 
vn 0.450928 -0.770264 -0.450439 
vn 0.804199 -0.593506 0.026611 
vn -0.744385 -0.667480 -0.009766 
vn 0.450928 -0.770264 -0.450439 
vn 0.802734 0.412354 -0.430420 
vn 0.804199 -0.593506 0.026611 
vn 0.802734 0.412354 -0.430420 
vn 0.839111 0.524170 0.144287 
vn 0.804199 -0.593506 0.026611 
vn 0.802734 0.412354 -0.430420 
vn 0.081787 0.779541 -0.620850 
vn 0.839111 0.524170 0.144287 
vn 0.081787 0.779541 -0.620850 
vn 0.046143 0.993164 -0.105713 
vn 0.839111 0.524170 0.144287 
vn -0.828125 0.310059 -0.466553 
vn 0.081787 0.779541 -0.620850 
vn -0.086426 -0.065918 -0.993896 
vn -0.680420 -0.460693 -0.569336 
vn -0.828125 0.310059 -0.466553 
vn -0.086426 -0.065918 -0.993896 
vn 0.450928 -0.770264 -0.450439 
vn -0.680420 -0.460693 -0.569336 
vn -0.086426 -0.065918 -0.993896 
vn 0.802734 0.412354 -0.430420 
vn 0.450928 -0.770264 -0.450439 
vn -0.086426 -0.065918 -0.993896 
vn 0.081787 0.779541 -0.620850 
vn 0.802734 0.412354 -0.430420 
vn -0.086426 -0.065918 -0.993896 
vt 0.456693 0.275591 
vt 0.448819 0.204724 
vt 0.456693 0.275591 
vt 0.448819 0.204724 
vt 0.448819 0.212598 
vt 0.456693 0.275591 
vt 0.448819 0.212598 
vt 0.456693 0.338583 
vt 0.456693 0.275591 
vt 0.456693 0.338583 
vt 0.456693 0.322835 
vt 0.456693 0.275591 
vt 0.456693 0.322835 
vt 0.456693 0.275591 
vt 0.456693 0.275591 
vt 0.440945 0.275591 
vt 0.433071 0.188976 
vt 0.456693 0.275591 
vt 0.433071 0.188976 
vt 0.448819 0.204724 
vt 0.456693 0.275591 
vt 0.433071 0.188976 
vt 0.433071 0.212598 
vt 0.448819 0.204724 
vt 0.433071 0.212598 
vt 0.448819 0.212598 
vt 0.448819 0.204724 
vt 0.960630 0.039370 
vt 0.960630 0.133858 
vt 0.968504 0.039370 
vt 0.960630 0.133858 
vt 0.968504 0.133858 
vt 0.968504 0.039370 
vt 0.433071 0.338583 
vt 0.440945 0.338583 
vt 0.456693 0.338583 
vt 0.440945 0.338583 
vt 0.456693 0.322835 
vt 0.456693 0.338583 
vt 0.440945 0.338583 
vt 0.440945 0.275591 
vt 0.456693 0.322835 
vt 0.440945 0.275591 
vt 0.456693 0.275591 
vt 0.456693 0.322835 
vt 0.385827 0.275591 
vt 0.385827 0.196850 
vt 0.440945 0.275591 
vt 0.385827 0.196850 
vt 0.433071 0.188976 
vt 0.440945 0.275591 
vt 0.385827 0.196850 
vt 0.385827 0.204724 
vt 0.433071 0.188976 
vt 0.385827 0.204724 
vt 0.433071 0.212598 
vt 0.433071 0.188976 
vt 0.921260 0.031496 
vt 0.921260 0.141732 
vt 0.960630 0.039370 
vt 0.921260 0.141732 
vt 0.960630 0.133858 
vt 0.960630 0.039370 
vt 0.385827 0.346457 
vt 0.385827 0.338583 
vt 0.433071 0.338583 
vt 0.385827 0.338583 
vt 0.440945 0.338583 
vt 0.433071 0.338583 
vt 0.385827 0.338583 
vt 0.385827 0.275591 
vt 0.440945 0.338583 
vt 0.385827 0.275591 
vt 0.440945 0.275591 
vt 0.440945 0.338583 
vt 0.338583 0.275591 
vt 0.330709 0.196850 
vt 0.385827 0.275591 
vt 0.330709 0.196850 
vt 0.385827 0.196850 
vt 0.385827 0.275591 
vt 0.330709 0.196850 
vt 0.338583 0.181102 
vt 0.385827 0.196850 
vt 0.338583 0.181102 
vt 0.385827 0.204724 
vt 0.385827 0.196850 
vt 0.889764 0.007874 
vt 0.889764 0.165354 
vt 0.921260 0.031496 
vt 0.889764 0.165354 
vt 0.921260 0.141732 
vt 0.921260 0.031496 
vt 0.346457 0.377953 
vt 0.338583 0.354331 
vt 0.385827 0.346457 
vt 0.338583 0.354331 
vt 0.385827 0.338583 
vt 0.385827 0.346457 
vt 0.338583 0.354331 
vt 0.338583 0.275591 
vt 0.385827 0.338583 
vt 0.338583 0.275591 
vt 0.385827 0.275591 
vt 0.385827 0.338583 
vt 0.259843 0.259843 
vt 0.267717 0.196850 
vt 0.338583 0.275591 
vt 0.267717 0.196850 
vt 0.330709 0.196850 
vt 0.338583 0.275591 
vt 0.267717 0.196850 
vt 0.267717 0.188976 
vt 0.330709 0.196850 
vt 0.267717 0.188976 
vt 0.338583 0.181102 
vt 0.330709 0.196850 
vt 0.834646 0.023622 
vt 0.858268 0.173228 
vt 0.889764 0.007874 
vt 0.858268 0.173228 
vt 0.889764 0.165354 
vt 0.889764 0.007874 
vt 0.291339 0.385827 
vt 0.291339 0.370079 
vt 0.346457 0.377953 
vt 0.291339 0.370079 
vt 0.338583 0.354331 
vt 0.346457 0.377953 
vt 0.291339 0.370079 
vt 0.259843 0.259843 
vt 0.338583 0.354331 
vt 0.259843 0.259843 
vt 0.338583 0.275591 
vt 0.338583 0.354331 
vt 0.267717 0.196850 
vt 0.259843 0.259843 
vt 0.251969 0.259843 
vt 0.267717 0.188976 
vt 0.267717 0.196850 
vt 0.251969 0.259843 
vt 0.291339 0.385827 
vt 0.267717 0.188976 
vt 0.251969 0.259843 
vt 0.291339 0.370079 
vt 0.291339 0.385827 
vt 0.251969 0.259843 
vt 0.259843 0.259843 
vt 0.291339 0.370079 
vt 0.251969 0.259843 
f 1/1/1 2/2/2 3/3/3
f 4/4/4 5/5/5 6/6/6
f 7/7/7 8/8/8 9/9/9
f 10/10/10 11/11/11 12/12/12
f 13/13/13 14/14/14 15/15/15
f 16/16/16 17/17/17 18/18/18
f 19/19/19 20/20/20 21/21/21
f 22/22/22 23/23/23 24/24/24
f 25/25/25 26/26/26 27/27/27
f 28/28/28 29/29/29 30/30/30
f 31/31/31 32/32/32 33/33/33
f 34/34/34 35/35/35 36/36/36
f 37/37/37 38/38/38 39/39/39
f 40/40/40 41/41/41 42/42/42
f 43/43/43 44/44/44 45/45/45
f 46/46/46 47/47/47 48/48/48
f 49/49/49 50/50/50 51/51/51
f 52/52/52 53/53/53 54/54/54
f 55/55/55 56/56/56 57/57/57
f 58/58/58 59/59/59 60/60/60
f 61/61/61 62/62/62 63/63/63
f 64/64/64 65/65/65 66/66/66
f 67/67/67 68/68/68 69/69/69
f 70/70/70 71/71/71 72/72/72
f 73/73/73 74/74/74 75/75/75
f 76/76/76 77/77/77 78/78/78
f 79/79/79 80/80/80 81/81/81
f 82/82/82 83/83/83 84/84/84
f 85/85/85 86/86/86 87/87/87
f 88/88/88 89/89/89 90/90/90
f 91/91/91 92/92/92 93/93/93
f 94/94/94 95/95/95 96/96/96
f 97/97/97 98/98/98 99/99/99
f 100/100/100 101/101/101 102/102/102
f 103/103/103 104/104/104 105/105/105
f 106/106/106 107/107/107 108/108/108
f 109/109/109 110/110/110 111/111/111
f 112/112/112 113/113/113 114/114/114
f 115/115/115 116/116/116 117/117/117
f 118/118/118 119/119/119 120/120/120
f 121/121/121 122/122/122 123/123/123
f 124/124/124 125/125/125 126/126/126
f 127/127/127 128/128/128 129/129/129
f 130/130/130 131/131/131 132/132/132
f 133/133/133 134/134/134 135/135/135
f 136/136/136 137/137/137 138/138/138
f 139/139/139 140/140/140 141/141/141
f 142/142/142 143/143/143 144/144/144
f 145/145/145 146/146/146 147/147/147
f 148/148/148 149/149/149 150/150/150
