v 18.000000 6.000000 -9.000000 
v 20.000000 -3.000000 -8.000000 
v 18.000000 3.000000 -41.000000 
v 20.000000 -3.000000 -8.000000 
v 11.000000 -11.000000 -7.000000 
v 12.000000 -3.000000 -40.000000 
v 12.000000 -3.000000 -40.000000 
v 18.000000 3.000000 -41.000000 
v 20.000000 -3.000000 -8.000000 
v -15.000000 -3.000000 -8.000000 
v -11.000000 2.000000 -45.000000 
v -7.000000 -4.000000 -41.000000 
v -7.000000 -4.000000 -41.000000 
v -9.000000 -12.000000 -7.000000 
v -15.000000 -3.000000 -8.000000 
v -15.000000 -3.000000 -8.000000 
v -17.000000 6.000000 -9.000000 
v -14.000000 14.000000 -38.000000 
v -14.000000 14.000000 -38.000000 
v -11.000000 2.000000 -45.000000 
v -15.000000 -3.000000 -8.000000 
v -17.000000 6.000000 -9.000000 
v -7.000000 14.000000 -6.000000 
v -7.000000 20.000000 -34.000000 
v -7.000000 20.000000 -34.000000 
v -14.000000 14.000000 -38.000000 
v -17.000000 6.000000 -9.000000 
v 18.000000 6.000000 -9.000000 
v 17.000000 14.000000 -37.000000 
v 11.000000 20.000000 -34.000000 
v 11.000000 20.000000 -34.000000 
v 9.000000 15.000000 -5.000000 
v 18.000000 6.000000 -9.000000 
v 18.000000 3.000000 -41.000000 
v 17.000000 14.000000 -37.000000 
v 18.000000 6.000000 -9.000000 
v 10.000000 13.000000 -58.000000 
v -2.000000 13.000000 -59.000000 
v 2.000000 27.000000 -60.000000 
v 12.000000 24.000000 -57.000000 
v 10.000000 13.000000 -58.000000 
v 2.000000 27.000000 -60.000000 
v -2.000000 13.000000 -59.000000 
v 10.000000 13.000000 -58.000000 
v 12.000000 -3.000000 -40.000000 
v 18.000000 3.000000 -41.000000 
v 10.000000 13.000000 -58.000000 
v 12.000000 24.000000 -57.000000 
v 12.000000 -3.000000 -40.000000 
v 10.000000 13.000000 -58.000000 
v 18.000000 3.000000 -41.000000 
v -2.000000 13.000000 -59.000000 
v -6.000000 24.000000 -58.000000 
v 2.000000 27.000000 -60.000000 
v 12.000000 -3.000000 -40.000000 
v -7.000000 -4.000000 -41.000000 
v -2.000000 13.000000 -59.000000 
v -6.000000 24.000000 -58.000000 
v -2.000000 13.000000 -59.000000 
v -11.000000 2.000000 -45.000000 
v -11.000000 2.000000 -45.000000 
v -2.000000 13.000000 -59.000000 
v -7.000000 -4.000000 -41.000000 
v -11.000000 2.000000 -45.000000 
v -14.000000 14.000000 -38.000000 
v -6.000000 24.000000 -58.000000 
v -6.000000 24.000000 -58.000000 
v -7.000000 20.000000 -34.000000 
v 2.000000 27.000000 -60.000000 
v -7.000000 20.000000 -34.000000 
v -6.000000 24.000000 -58.000000 
v -14.000000 14.000000 -38.000000 
v 12.000000 24.000000 -57.000000 
v 17.000000 14.000000 -37.000000 
v 18.000000 3.000000 -41.000000 
v 11.000000 20.000000 -34.000000 
v 12.000000 24.000000 -57.000000 
v 2.000000 27.000000 -60.000000 
v 17.000000 14.000000 -37.000000 
v 12.000000 24.000000 -57.000000 
v 11.000000 20.000000 -34.000000 
v -7.000000 14.000000 -6.000000 
v 9.000000 15.000000 -5.000000 
v 11.000000 20.000000 -34.000000 
v 11.000000 20.000000 -34.000000 
v -7.000000 20.000000 -34.000000 
v -7.000000 14.000000 -6.000000 
v 11.000000 -11.000000 -7.000000 
v -9.000000 -12.000000 -7.000000 
v -7.000000 -4.000000 -41.000000 
v -7.000000 -4.000000 -41.000000 
v 12.000000 -3.000000 -40.000000 
v 11.000000 -11.000000 -7.000000 
v -7.000000 20.000000 -34.000000 
v 11.000000 20.000000 -34.000000 
v 2.000000 27.000000 -60.000000 
vn 0.877441 0.464111 0.119629 
vn 0.951416 -0.306396 -0.020996 
vn 0.954346 -0.157471 -0.252686 
vn 0.951416 -0.306396 -0.020996 
vn 0.403564 -0.888672 -0.216553 
vn 0.410400 -0.788086 -0.458496 
vn 0.410400 -0.788086 -0.458496 
vn 0.954346 -0.157471 -0.252686 
vn 0.951416 -0.306396 -0.020996 
vn -0.886963 -0.424805 -0.180176 
vn -0.832031 -0.346436 -0.432861 
vn -0.355469 -0.835938 -0.417480 
vn -0.355469 -0.835938 -0.417480 
vn -0.322266 -0.896484 -0.303467 
vn -0.886963 -0.424805 -0.180176 
vn -0.886963 -0.424805 -0.180176 
vn -0.940430 0.338867 0.022949 
vn -0.966309 0.235352 -0.101318 
vn -0.966309 0.235352 -0.101318 
vn -0.832031 -0.346436 -0.432861 
vn -0.886963 -0.424805 -0.180176 
vn -0.940430 0.338867 0.022949 
vn -0.382080 0.908691 0.167236 
vn -0.423584 0.889160 0.172119 
vn -0.423584 0.889160 0.172119 
vn -0.966309 0.235352 -0.101318 
vn -0.940430 0.338867 0.022949 
vn 0.877441 0.464111 0.119629 
vn 0.906494 0.421143 0.020752 
vn 0.351074 0.914795 0.198730 
vn 0.351074 0.914795 0.198730 
vn 0.285400 0.937256 0.199951 
vn 0.877441 0.464111 0.119629 
vn 0.954346 -0.157471 -0.252686 
vn 0.906494 0.421143 0.020752 
vn 0.877441 0.464111 0.119629 
vn 0.463379 -0.294922 -0.835449 
vn -0.221191 -0.430420 -0.874756 
vn 0.052979 0.781738 -0.621094 
vn 0.820068 0.471191 -0.323730 
vn 0.463379 -0.294922 -0.835449 
vn 0.052979 0.781738 -0.621094 
vn -0.221191 -0.430420 -0.874756 
vn 0.463379 -0.294922 -0.835449 
vn 0.410400 -0.788086 -0.458496 
vn 0.954346 -0.157471 -0.252686 
vn 0.463379 -0.294922 -0.835449 
vn 0.820068 0.471191 -0.323730 
vn 0.410400 -0.788086 -0.458496 
vn 0.463379 -0.294922 -0.835449 
vn 0.954346 -0.157471 -0.252686 
vn -0.221191 -0.430420 -0.874756 
vn -0.781982 0.400391 -0.477295 
vn 0.052979 0.781738 -0.621094 
vn 0.410400 -0.788086 -0.458496 
vn -0.355469 -0.835938 -0.417480 
vn -0.221191 -0.430420 -0.874756 
vn -0.781982 0.400391 -0.477295 
vn -0.221191 -0.430420 -0.874756 
vn -0.832031 -0.346436 -0.432861 
vn -0.832031 -0.346436 -0.432861 
vn -0.221191 -0.430420 -0.874756 
vn -0.355469 -0.835938 -0.417480 
vn -0.832031 -0.346436 -0.432861 
vn -0.966309 0.235352 -0.101318 
vn -0.781982 0.400391 -0.477295 
vn -0.781982 0.400391 -0.477295 
vn -0.423584 0.889160 0.172119 
vn 0.052979 0.781738 -0.621094 
vn -0.423584 0.889160 0.172119 
vn -0.781982 0.400391 -0.477295 
vn -0.966309 0.235352 -0.101318 
vn 0.820068 0.471191 -0.323730 
vn 0.906494 0.421143 0.020752 
vn 0.954346 -0.157471 -0.252686 
vn 0.351074 0.914795 0.198730 
vn 0.820068 0.471191 -0.323730 
vn 0.052979 0.781738 -0.621094 
vn 0.906494 0.421143 0.020752 
vn 0.820068 0.471191 -0.323730 
vn 0.351074 0.914795 0.198730 
vn -0.382080 0.908691 0.167236 
vn 0.285400 0.937256 0.199951 
vn 0.351074 0.914795 0.198730 
vn 0.351074 0.914795 0.198730 
vn -0.423584 0.889160 0.172119 
vn -0.382080 0.908691 0.167236 
vn 0.403564 -0.888672 -0.216553 
vn -0.322266 -0.896484 -0.303467 
vn -0.355469 -0.835938 -0.417480 
vn -0.355469 -0.835938 -0.417480 
vn 0.410400 -0.788086 -0.458496 
vn 0.403564 -0.888672 -0.216553 
vn -0.423584 0.889160 0.172119 
vn 0.351074 0.914795 0.198730 
vn 0.052979 0.781738 -0.621094 
vt 0.580392 0.890196 
vt 0.584314 0.874510 
vt 0.576471 0.941176 
vt 0.674510 0.874510 
vt 0.647059 0.862745 
vt 0.650980 0.890196 
vt 0.650980 0.890196 
vt 0.670588 0.901961 
vt 0.674510 0.874510 
vt 0.560784 0.870588 
vt 0.572549 0.905882 
vt 0.588235 0.890196 
vt 0.588235 0.890196 
vt 0.580392 0.858824 
vt 0.560784 0.870588 
vt 0.466667 0.870588 
vt 0.462745 0.886275 
vt 0.474510 0.945098 
vt 0.474510 0.945098 
vt 0.482353 0.941176 
vt 0.466667 0.870588 
vt 0.462745 0.886275 
vt 0.494118 0.894118 
vt 0.494118 0.945098 
vt 0.494118 0.945098 
vt 0.474510 0.945098 
vt 0.462745 0.886275 
vt 0.580392 0.890196 
vt 0.576471 0.945098 
vt 0.556863 0.949020 
vt 0.556863 0.949020 
vt 0.549020 0.894118 
vt 0.580392 0.890196 
vt 0.576471 0.941176 
vt 0.576471 0.945098 
vt 0.580392 0.890196 
vt 0.647059 0.921569 
vt 0.603922 0.921569 
vt 0.619608 0.941176 
vt 0.650980 0.933333 
vt 0.647059 0.921569 
vt 0.619608 0.941176 
vt 0.603922 0.921569 
vt 0.647059 0.921569 
vt 0.650980 0.890196 
vt 0.670588 0.901961 
vt 0.647059 0.921569 
vt 0.650980 0.933333 
vt 0.650980 0.890196 
vt 0.647059 0.921569 
vt 0.670588 0.901961 
vt 0.603922 0.921569 
vt 0.588235 0.933333 
vt 0.619608 0.941176 
vt 0.650980 0.890196 
vt 0.588235 0.890196 
vt 0.603922 0.921569 
vt 0.588235 0.933333 
vt 0.603922 0.921569 
vt 0.572549 0.905882 
vt 0.572549 0.905882 
vt 0.603922 0.921569 
vt 0.588235 0.890196 
vt 0.572549 0.905882 
vt 0.564706 0.909804 
vt 0.588235 0.933333 
vt 0.498039 0.992157 
vt 0.494118 0.945098 
vt 0.529412 1.000000 
vt 0.494118 0.945098 
vt 0.498039 0.992157 
vt 0.474510 0.945098 
vt 0.650980 0.933333 
vt 0.666667 0.909804 
vt 0.670588 0.901961 
vt 0.556863 0.949020 
vt 0.556863 0.992157 
vt 0.529412 1.000000 
vt 0.576471 0.945098 
vt 0.556863 0.992157 
vt 0.556863 0.949020 
vt 0.494118 0.894118 
vt 0.549020 0.894118 
vt 0.556863 0.949020 
vt 0.556863 0.949020 
vt 0.494118 0.945098 
vt 0.494118 0.894118 
vt 0.647059 0.862745 
vt 0.580392 0.858824 
vt 0.588235 0.890196 
vt 0.588235 0.890196 
vt 0.650980 0.890196 
vt 0.647059 0.862745 
vt 0.494118 0.945098 
vt 0.556863 0.949020 
vt 0.529412 1.000000 
f 1/1/1 2/2/2 3/3/3
f 4/4/4 5/5/5 6/6/6
f 7/7/7 8/8/8 9/9/9
f 10/10/10 11/11/11 12/12/12
f 13/13/13 14/14/14 15/15/15
f 16/16/16 17/17/17 18/18/18
f 19/19/19 20/20/20 21/21/21
f 22/22/22 23/23/23 24/24/24
f 25/25/25 26/26/26 27/27/27
f 28/28/28 29/29/29 30/30/30
f 31/31/31 32/32/32 33/33/33
f 34/34/34 35/35/35 36/36/36
f 37/37/37 38/38/38 39/39/39
f 40/40/40 41/41/41 42/42/42
f 43/43/43 44/44/44 45/45/45
f 46/46/46 47/47/47 48/48/48
f 49/49/49 50/50/50 51/51/51
f 52/52/52 53/53/53 54/54/54
f 55/55/55 56/56/56 57/57/57
f 58/58/58 59/59/59 60/60/60
f 61/61/61 62/62/62 63/63/63
f 64/64/64 65/65/65 66/66/66
f 67/67/67 68/68/68 69/69/69
f 70/70/70 71/71/71 72/72/72
f 73/73/73 74/74/74 75/75/75
f 76/76/76 77/77/77 78/78/78
f 79/79/79 80/80/80 81/81/81
f 82/82/82 83/83/83 84/84/84
f 85/85/85 86/86/86 87/87/87
f 88/88/88 89/89/89 90/90/90
f 91/91/91 92/92/92 93/93/93
f 94/94/94 95/95/95 96/96/96
