v 8.000000 6.000000 -28.000000 
v -1.000000 0.000000 -29.000000 
v -4.000000 14.000000 -32.000000 
v 4.000000 15.000000 -28.000000 
v 8.000000 6.000000 -28.000000 
v -4.000000 14.000000 -32.000000 
v -1.000000 0.000000 -29.000000 
v 8.000000 6.000000 -28.000000 
v 13.000000 -2.000000 -15.000000 
v 13.000000 1.000000 -12.000000 
v 8.000000 6.000000 -28.000000 
v 4.000000 15.000000 -28.000000 
v 13.000000 -2.000000 -15.000000 
v 8.000000 6.000000 -28.000000 
v 13.000000 1.000000 -12.000000 
v -1.000000 0.000000 -29.000000 
v -9.000000 7.000000 -30.000000 
v -4.000000 14.000000 -32.000000 
v 13.000000 -2.000000 -15.000000 
v 0.000000 -8.000000 -18.000000 
v -1.000000 0.000000 -29.000000 
v -9.000000 7.000000 -30.000000 
v -1.000000 0.000000 -29.000000 
v -5.000000 -8.000000 -17.000000 
v -5.000000 -8.000000 -17.000000 
v -1.000000 0.000000 -29.000000 
v 0.000000 -8.000000 -18.000000 
v -5.000000 -8.000000 -17.000000 
v -12.000000 0.000000 -14.000000 
v -9.000000 7.000000 -30.000000 
v -9.000000 7.000000 -30.000000 
v -10.000000 4.000000 -12.000000 
v -4.000000 14.000000 -32.000000 
v -10.000000 4.000000 -12.000000 
v -9.000000 7.000000 -30.000000 
v -12.000000 0.000000 -14.000000 
v 4.000000 15.000000 -28.000000 
v 6.000000 10.000000 -10.000000 
v 13.000000 1.000000 -12.000000 
v 1.000000 11.000000 -11.000000 
v 4.000000 15.000000 -28.000000 
v -4.000000 14.000000 -32.000000 
v 6.000000 10.000000 -10.000000 
v 4.000000 15.000000 -28.000000 
v 1.000000 11.000000 -11.000000 
v -10.000000 4.000000 -12.000000 
v 1.000000 11.000000 -11.000000 
v -4.000000 14.000000 -32.000000 
vn 0.699951 -0.047363 -0.712402 
vn 0.066895 -0.570557 -0.818359 
vn -0.317627 0.652100 -0.688232 
vn 0.510498 0.844971 -0.157959 
vn 0.699951 -0.047363 -0.712402 
vn -0.317627 0.652100 -0.688232 
vn 0.066895 -0.570557 -0.818359 
vn 0.699951 -0.047363 -0.712402 
vn 0.821533 -0.425781 -0.378662 
vn 0.925781 0.369873 -0.075928 
vn 0.699951 -0.047363 -0.712402 
vn 0.510498 0.844971 -0.157959 
vn 0.821533 -0.425781 -0.378662 
vn 0.699951 -0.047363 -0.712402 
vn 0.925781 0.369873 -0.075928 
vn 0.066895 -0.570557 -0.818359 
vn -0.851807 -0.092529 -0.515381 
vn -0.317627 0.652100 -0.688232 
vn 0.821533 -0.425781 -0.378662 
vn 0.169434 -0.866211 -0.469727 
vn 0.066895 -0.570557 -0.818359 
vn -0.851807 -0.092529 -0.515381 
vn 0.066895 -0.570557 -0.818359 
vn -0.501953 -0.719482 -0.479736 
vn -0.501953 -0.719482 -0.479736 
vn 0.066895 -0.570557 -0.818359 
vn 0.169434 -0.866211 -0.469727 
vn -0.501953 -0.719482 -0.479736 
vn -0.957275 -0.192139 -0.215820 
vn -0.851807 -0.092529 -0.515381 
vn -0.851807 -0.092529 -0.515381 
vn -0.795654 0.594971 0.112793 
vn -0.317627 0.652100 -0.688232 
vn -0.795654 0.594971 0.112793 
vn -0.851807 -0.092529 -0.515381 
vn -0.957275 -0.192139 -0.215820 
vn 0.510498 0.844971 -0.157959 
vn 0.470947 0.867920 0.156738 
vn 0.925781 0.369873 -0.075928 
vn -0.255859 0.940918 0.221436 
vn 0.510498 0.844971 -0.157959 
vn -0.317627 0.652100 -0.688232 
vn 0.470947 0.867920 0.156738 
vn 0.510498 0.844971 -0.157959 
vn -0.255859 0.940918 0.221436 
vn -0.795654 0.594971 0.112793 
vn -0.255859 0.940918 0.221436 
vn -0.317627 0.652100 -0.688232 
vt 0.152941 0.772549 
vt 0.129412 0.760784 
vt 0.109804 0.776471 
vt 0.129412 0.784314 
vt 0.152941 0.772549 
vt 0.109804 0.776471 
vt 0.129412 0.760784 
vt 0.152941 0.772549 
vt 0.172549 0.760784 
vt 0.172549 0.764706 
vt 0.152941 0.772549 
vt 0.129412 0.784314 
vt 0.113725 0.756863 
vt 0.078431 0.788235 
vt 0.113725 0.760784 
vt 0.129412 0.760784 
vt 0.109804 0.752941 
vt 0.109804 0.776471 
vt 0.172549 0.760784 
vt 0.149020 0.737255 
vt 0.129412 0.760784 
vt 0.109804 0.752941 
vt 0.129412 0.760784 
vt 0.141176 0.729412 
vt 0.141176 0.729412 
vt 0.129412 0.760784 
vt 0.149020 0.737255 
vt 0.141176 0.729412 
vt 0.117647 0.729412 
vt 0.109804 0.752941 
vt 0.035294 0.772549 
vt 0.058824 0.733333 
vt 0.039216 0.796078 
vt 0.058824 0.733333 
vt 0.035294 0.772549 
vt 0.058824 0.721569 
vt 0.129412 0.784314 
vt 0.156863 0.756863 
vt 0.172549 0.764706 
vt 0.078431 0.760784 
vt 0.058824 0.803922 
vt 0.039216 0.796078 
vt 0.090196 0.764706 
vt 0.058824 0.803922 
vt 0.078431 0.760784 
vt 0.058824 0.733333 
vt 0.078431 0.760784 
vt 0.039216 0.796078 
f 1/1/1 2/2/2 3/3/3
f 4/4/4 5/5/5 6/6/6
f 7/7/7 8/8/8 9/9/9
f 10/10/10 11/11/11 12/12/12
f 13/13/13 14/14/14 15/15/15
f 16/16/16 17/17/17 18/18/18
f 19/19/19 20/20/20 21/21/21
f 22/22/22 23/23/23 24/24/24
f 25/25/25 26/26/26 27/27/27
f 28/28/28 29/29/29 30/30/30
f 31/31/31 32/32/32 33/33/33
f 34/34/34 35/35/35 36/36/36
f 37/37/37 38/38/38 39/39/39
f 40/40/40 41/41/41 42/42/42
f 43/43/43 44/44/44 45/45/45
f 46/46/46 47/47/47 48/48/48
