v 331.000000 -4.000000 123.000000 
v 318.000000 -3.000000 165.000000 
v 272.000000 -2.000000 184.000000 
v 422.000000 138.000000 150.000000 
v 388.000000 135.000000 159.000000 
v 440.000000 120.000000 191.000000 
v 388.000000 135.000000 159.000000 
v 355.000000 129.000000 245.000000 
v 440.000000 120.000000 191.000000 
v 409.000000 -3.000000 64.000000 
v 449.000000 70.000000 93.000000 
v 442.000000 -9.000000 92.000000 
v 449.000000 70.000000 93.000000 
v 453.000000 51.000000 130.000000 
v 442.000000 -9.000000 92.000000 
v 449.000000 70.000000 93.000000 
v 422.000000 138.000000 150.000000 
v 453.000000 51.000000 130.000000 
v 422.000000 138.000000 150.000000 
v 440.000000 120.000000 191.000000 
v 453.000000 51.000000 130.000000 
v 388.000000 135.000000 159.000000 
v 308.000000 91.000000 214.000000 
v 355.000000 129.000000 245.000000 
v 409.000000 -3.000000 64.000000 
v 361.000000 -6.000000 102.000000 
v 449.000000 70.000000 93.000000 
v 361.000000 -6.000000 102.000000 
v 366.000000 64.000000 139.000000 
v 449.000000 70.000000 93.000000 
v 361.000000 -6.000000 102.000000 
v 331.000000 -4.000000 123.000000 
v 388.000000 135.000000 159.000000 
v 331.000000 -4.000000 123.000000 
v 272.000000 -2.000000 184.000000 
v 388.000000 135.000000 159.000000 
v 272.000000 -2.000000 184.000000 
v 308.000000 91.000000 214.000000 
v 388.000000 135.000000 159.000000 
v 366.000000 64.000000 139.000000 
v 388.000000 135.000000 159.000000 
v 449.000000 70.000000 93.000000 
v 388.000000 135.000000 159.000000 
v 422.000000 138.000000 150.000000 
v 449.000000 70.000000 93.000000 
vn 0.008545 -0.999023 0.039062 
vn 0.008545 -0.999023 0.039062 
vn 0.008545 -0.999023 0.039062 
vn 0.771240 0.629883 0.090088 
vn -0.127441 0.982178 0.136719 
vn 0.463867 0.877197 0.121826 
vn -0.127441 0.982178 0.136719 
vn -0.218262 0.975830 -0.001465 
vn 0.463867 0.877197 0.121826 
vn 0.679932 -0.043213 -0.731689 
vn 0.954102 0.063965 -0.292236 
vn 0.887207 -0.062988 -0.456787 
vn 0.954102 0.063965 -0.292236 
vn 0.976562 0.191895 -0.094971 
vn 0.887207 -0.062988 -0.456787 
vn 0.954102 0.063965 -0.292236 
vn 0.771240 0.629883 0.090088 
vn 0.976562 0.191895 -0.094971 
vn 0.771240 0.629883 0.090088 
vn 0.463867 0.877197 0.121826 
vn 0.976562 0.191895 -0.094971 
vn -0.127441 0.982178 0.136719 
vn -0.611572 0.777588 -0.144531 
vn -0.218262 0.975830 -0.001465 
vn -0.591553 0.519043 -0.616699 
vn -0.553955 0.472168 -0.685303 
vn -0.479492 0.472412 -0.739258 
vn -0.553955 0.472168 -0.685303 
vn -0.518066 0.387939 -0.761963 
vn -0.479492 0.472412 -0.739258 
vn -0.566406 0.383301 -0.729248 
vn -0.631592 0.391113 -0.669189 
vn -0.563965 0.433838 -0.702393 
vn -0.631592 0.391113 -0.669189 
vn -0.703857 0.409424 -0.580078 
vn -0.563965 0.433838 -0.702393 
vn -0.703857 0.409424 -0.580078 
vn -0.715820 0.422363 -0.555664 
vn -0.563965 0.433838 -0.702393 
vn -0.518066 0.387939 -0.761963 
vn -0.563965 0.433838 -0.702393 
vn -0.479492 0.472412 -0.739258 
vn -0.563965 0.433838 -0.702393 
vn -0.265137 0.569824 -0.777588 
vn -0.479492 0.472412 -0.739258 
vt 0.709804 0.101961 
vt 0.858824 0.109804 
vt 0.850980 0.321569 
vt 0.380392 0.792157 
vt 0.537255 0.768627 
vt 0.298039 0.964706 
vt 0.537255 0.768627 
vt 0.650980 0.960784 
vt 0.298039 0.964706 
vt 0.376471 0.109804 
vt 0.368627 0.427451 
vt 0.215686 0.113725 
vt 0.368627 0.427451 
vt 0.211765 0.435294 
vt 0.215686 0.113725 
vt 0.368627 0.427451 
vt 0.380392 0.792157 
vt 0.211765 0.435294 
vt 0.380392 0.792157 
vt 0.298039 0.964706 
vt 0.211765 0.435294 
vt 0.537255 0.768627 
vt 0.839216 0.733333 
vt 0.650980 0.960784 
vt 0.376471 0.109804 
vt 0.549020 0.109804 
vt 0.368627 0.427451 
vt 0.549020 0.109804 
vt 0.545098 0.411765 
vt 0.368627 0.427451 
vt 0.549020 0.109804 
vt 0.709804 0.101961 
vt 0.537255 0.768627 
vt 0.709804 0.101961 
vt 0.850980 0.321569 
vt 0.537255 0.768627 
vt 0.850980 0.321569 
vt 0.839216 0.733333 
vt 0.537255 0.768627 
vt 0.545098 0.411765 
vt 0.537255 0.768627 
vt 0.368627 0.427451 
vt 0.537255 0.768627 
vt 0.380392 0.792157 
vt 0.368627 0.427451 
f 1/1/1 2/2/2 3/3/3
f 4/4/4 5/5/5 6/6/6
f 7/7/7 8/8/8 9/9/9
f 10/10/10 11/11/11 12/12/12
f 13/13/13 14/14/14 15/15/15
f 16/16/16 17/17/17 18/18/18
f 19/19/19 20/20/20 21/21/21
f 22/22/22 23/23/23 24/24/24
f 25/25/25 26/26/26 27/27/27
f 28/28/28 29/29/29 30/30/30
f 31/31/31 32/32/32 33/33/33
f 34/34/34 35/35/35 36/36/36
f 37/37/37 38/38/38 39/39/39
f 40/40/40 41/41/41 42/42/42
f 43/43/43 44/44/44 45/45/45
