v 29.000000 119.000000 -183.000000 
v 29.000000 119.000000 -60.000000 
v 185.000000 119.000000 -60.000000 
v 185.000000 119.000000 -60.000000 
v 185.000000 119.000000 -183.000000 
v 29.000000 119.000000 -183.000000 
v 29.000000 119.000000 -60.000000 
v 21.000000 111.000000 -55.000000 
v 193.000000 111.000000 -55.000000 
v 193.000000 111.000000 -55.000000 
v 185.000000 119.000000 -60.000000 
v 29.000000 119.000000 -60.000000 
v 29.000000 119.000000 -183.000000 
v 21.000000 111.000000 -208.000000 
v 21.000000 111.000000 -55.000000 
v 21.000000 111.000000 -55.000000 
v 29.000000 119.000000 -60.000000 
v 29.000000 119.000000 -183.000000 
v 185.000000 119.000000 -183.000000 
v 193.000000 111.000000 -208.000000 
v 21.000000 111.000000 -208.000000 
v 21.000000 111.000000 -208.000000 
v 29.000000 119.000000 -183.000000 
v 185.000000 119.000000 -183.000000 
v 185.000000 119.000000 -60.000000 
v 193.000000 111.000000 -55.000000 
v 193.000000 111.000000 -208.000000 
v 193.000000 111.000000 -208.000000 
v 185.000000 119.000000 -183.000000 
v 185.000000 119.000000 -60.000000 
v 108.000000 130.000000 -172.000000 
v 109.000000 130.000000 -167.000000 
v 109.000000 223.000000 -167.000000 
v 108.000000 223.000000 -172.000000 
v 108.000000 130.000000 -172.000000 
v 109.000000 223.000000 -167.000000 
v 57.000000 130.000000 -137.000000 
v 53.000000 130.000000 -140.000000 
v 53.000000 223.000000 -140.000000 
v 57.000000 223.000000 -137.000000 
v 57.000000 130.000000 -137.000000 
v 53.000000 223.000000 -140.000000 
vn -0.328613 0.939697 -0.094482 
vn -0.233887 0.783691 0.575195 
vn 0.358887 0.906738 0.220703 
vn 0.358887 0.906738 0.220703 
vn 0.202881 0.950684 -0.233643 
vn -0.328613 0.939697 -0.094482 
vn -0.233887 0.783691 0.575195 
vn -0.601074 0.708252 0.369629 
vn 0.300537 0.602051 0.739502 
vn 0.300537 0.602051 0.739502 
vn 0.358887 0.906738 0.220703 
vn -0.233887 0.783691 0.575195 
vn -0.328613 0.939697 -0.094482 
vn -0.272217 0.909424 -0.313477 
vn -0.601074 0.708252 0.369629 
vn -0.601074 0.708252 0.369629 
vn -0.233887 0.783691 0.575195 
vn -0.328613 0.939697 -0.094482 
vn 0.202881 0.950684 -0.233643 
vn 0.544678 0.823730 -0.156738 
vn -0.272217 0.909424 -0.313477 
vn -0.272217 0.909424 -0.313477 
vn -0.328613 0.939697 -0.094482 
vn 0.202881 0.950684 -0.233643 
vn 0.358887 0.906738 0.220703 
vn 0.300537 0.602051 0.739502 
vn 0.544678 0.823730 -0.156738 
vn 0.544678 0.823730 -0.156738 
vn 0.202881 0.950684 -0.233643 
vn 0.358887 0.906738 0.220703 
vn -0.993896 0.000000 0.109863 
vn -0.993896 0.000000 0.109863 
vn -0.993896 0.000000 0.109863 
vn -0.993896 0.000000 0.109863 
vn -0.993896 0.000000 0.109863 
vn -0.993896 0.000000 0.109863 
vn 0.458252 0.000000 -0.888672 
vn 0.458252 0.000000 -0.888672 
vn 0.458252 0.000000 -0.888672 
vn 0.458252 0.000000 -0.888672 
vn 0.458252 0.000000 -0.888672 
vn 0.458252 0.000000 -0.888672 
vt 0.571429 1.000000 
vt 0.571429 0.732283 
vt 0.000000 0.732283 
vt 0.000000 0.732283 
vt 0.000000 1.000000 
vt 0.571429 1.000000 
vt 0.587302 0.984252 
vt 0.587302 0.716535 
vt 0.000000 0.716535 
vt 0.000000 0.716535 
vt 0.000000 0.984252 
vt 0.587302 0.984252 
vt 0.000000 1.000000 
vt 0.000000 0.708661 
vt 0.587302 0.708661 
vt 0.587302 0.708661 
vt 0.587302 1.000000 
vt 0.000000 1.000000 
vt 0.000000 0.984252 
vt 0.000000 0.716535 
vt 0.587302 0.716535 
vt 0.587302 0.716535 
vt 0.587302 0.984252 
vt 0.000000 0.984252 
vt 0.587302 1.000000 
vt 0.587302 0.708661 
vt 0.000000 0.708661 
vt 0.000000 0.708661 
vt 0.000000 1.000000 
vt 0.587302 1.000000 
vt 0.476190 0.551181 
vt 0.507937 0.551181 
vt 0.507937 0.661417 
vt 0.476190 0.661417 
vt 0.476190 0.551181 
vt 0.507937 0.661417 
vt 0.476190 0.551181 
vt 0.523810 0.551181 
vt 0.523810 0.661417 
vt 0.476190 0.661417 
vt 0.476190 0.551181 
vt 0.523810 0.661417 
f 1/1/1 2/2/2 3/3/3
f 4/4/4 5/5/5 6/6/6
f 7/7/7 8/8/8 9/9/9
f 10/10/10 11/11/11 12/12/12
f 13/13/13 14/14/14 15/15/15
f 16/16/16 17/17/17 18/18/18
f 19/19/19 20/20/20 21/21/21
f 22/22/22 23/23/23 24/24/24
f 25/25/25 26/26/26 27/27/27
f 28/28/28 29/29/29 30/30/30
f 31/31/31 32/32/32 33/33/33
f 34/34/34 35/35/35 36/36/36
f 37/37/37 38/38/38 39/39/39
f 40/40/40 41/41/41 42/42/42
