v 2.000000 -16.000000 3.000000 
v 0.000000 -1.000000 -11.000000 
v 2.000000 -1.000000 3.000000 
v 0.000000 -1.000000 -11.000000 
v 2.000000 13.000000 3.000000 
v 2.000000 -1.000000 3.000000 
v 2.000000 13.000000 3.000000 
v 4.000000 -1.000000 18.000000 
v 2.000000 -1.000000 3.000000 
v 4.000000 -1.000000 18.000000 
v 2.000000 -16.000000 3.000000 
v 2.000000 -1.000000 3.000000 
vn 0.999756 0.000000 -0.020752 
vn 0.999756 0.000000 -0.020752 
vn 0.999756 0.000000 -0.020752 
vn 0.999756 0.000000 -0.020752 
vn 0.999756 0.000000 -0.020752 
vn 0.999756 0.000000 -0.020752 
vn 0.999756 0.000000 -0.020752 
vn 0.999756 0.000000 -0.020752 
vn 0.999756 0.000000 -0.020752 
vn 0.999756 0.000000 -0.020752 
vn 0.999756 0.000000 -0.020752 
vn 0.999756 0.000000 -0.020752 
vt 0.222222 0.000000 
vt 0.111111 0.000000 
vt 0.111111 0.000000 
vt 0.111111 0.000000 
vt 0.000000 0.000000 
vt 0.111111 0.000000 
vt 0.000000 0.000000 
vt 0.111111 0.000000 
vt 0.111111 0.000000 
vt 0.111111 0.000000 
vt 0.222222 0.000000 
vt 0.111111 0.000000 
f 1/1/1 2/2/2 3/3/3
f 4/4/4 5/5/5 6/6/6
f 7/7/7 8/8/8 9/9/9
f 10/10/10 11/11/11 12/12/12
