v -71.000000 328.000000 175.000000 
v -87.000000 328.000000 169.000000 
v -71.000000 318.000000 195.000000 
v -87.000000 328.000000 169.000000 
v -99.000000 318.000000 186.000000 
v -71.000000 318.000000 195.000000 
v -87.000000 328.000000 169.000000 
v -96.000000 328.000000 156.000000 
v -99.000000 318.000000 186.000000 
v -96.000000 328.000000 156.000000 
v -116.000000 318.000000 162.000000 
v -99.000000 318.000000 186.000000 
v -96.000000 328.000000 156.000000 
v -96.000000 328.000000 139.000000 
v -116.000000 318.000000 162.000000 
v -96.000000 328.000000 139.000000 
v -116.000000 318.000000 133.000000 
v -116.000000 318.000000 162.000000 
v -96.000000 328.000000 139.000000 
v -87.000000 328.000000 126.000000 
v -116.000000 318.000000 133.000000 
v -87.000000 328.000000 126.000000 
v -99.000000 318.000000 110.000000 
v -116.000000 318.000000 133.000000 
v -87.000000 328.000000 126.000000 
v -71.000000 328.000000 121.000000 
v -99.000000 318.000000 110.000000 
v -71.000000 328.000000 121.000000 
v -71.000000 318.000000 101.000000 
v -99.000000 318.000000 110.000000 
v -71.000000 328.000000 121.000000 
v -55.000000 328.000000 126.000000 
v -71.000000 318.000000 101.000000 
v -55.000000 328.000000 126.000000 
v -43.000000 318.000000 110.000000 
v -71.000000 318.000000 101.000000 
v -55.000000 328.000000 126.000000 
v -45.000000 328.000000 139.000000 
v -43.000000 318.000000 110.000000 
v -45.000000 328.000000 139.000000 
v -26.000000 318.000000 133.000000 
v -43.000000 318.000000 110.000000 
v -45.000000 328.000000 139.000000 
v -45.000000 328.000000 156.000000 
v -26.000000 318.000000 133.000000 
v -45.000000 328.000000 156.000000 
v -26.000000 318.000000 162.000000 
v -26.000000 318.000000 133.000000 
v -45.000000 328.000000 156.000000 
v -55.000000 328.000000 169.000000 
v -26.000000 318.000000 162.000000 
v -55.000000 328.000000 169.000000 
v -43.000000 318.000000 186.000000 
v -26.000000 318.000000 162.000000 
v -55.000000 328.000000 169.000000 
v -71.000000 328.000000 175.000000 
v -43.000000 318.000000 186.000000 
v -71.000000 328.000000 175.000000 
v -71.000000 318.000000 195.000000 
v -43.000000 318.000000 186.000000 
v -87.000000 328.000000 169.000000 
v -71.000000 328.000000 175.000000 
v -71.000000 328.000000 148.000000 
v -96.000000 328.000000 156.000000 
v -87.000000 328.000000 169.000000 
v -71.000000 328.000000 148.000000 
v -96.000000 328.000000 139.000000 
v -96.000000 328.000000 156.000000 
v -71.000000 328.000000 148.000000 
v -87.000000 328.000000 126.000000 
v -96.000000 328.000000 139.000000 
v -71.000000 328.000000 148.000000 
v -71.000000 328.000000 121.000000 
v -87.000000 328.000000 126.000000 
v -71.000000 328.000000 148.000000 
v -55.000000 328.000000 126.000000 
v -71.000000 328.000000 121.000000 
v -71.000000 328.000000 148.000000 
v -45.000000 328.000000 139.000000 
v -55.000000 328.000000 126.000000 
v -71.000000 328.000000 148.000000 
v -45.000000 328.000000 156.000000 
v -45.000000 328.000000 139.000000 
v -71.000000 328.000000 148.000000 
v -55.000000 328.000000 169.000000 
v -45.000000 328.000000 156.000000 
v -71.000000 328.000000 148.000000 
v -71.000000 328.000000 175.000000 
v -55.000000 328.000000 169.000000 
v -71.000000 328.000000 148.000000 
vn 0.028809 0.934082 0.355469 
vn -0.134277 0.940918 0.310547 
vn -0.045166 0.822266 0.566895 
vn -0.134277 0.940918 0.310547 
vn -0.294434 0.852295 0.431885 
vn -0.045166 0.822266 0.566895 
vn -0.134277 0.940918 0.310547 
vn -0.251221 0.956055 0.149902 
vn -0.294434 0.852295 0.431885 
vn -0.251221 0.956055 0.149902 
vn -0.442871 0.888184 0.121826 
vn -0.294434 0.852295 0.431885 
vn -0.251221 0.956055 0.149902 
vn -0.271240 0.959473 -0.074707 
vn -0.442871 0.888184 0.121826 
vn -0.271240 0.959473 -0.074707 
vn -0.408936 0.879150 -0.243896 
vn -0.442871 0.888184 0.121826 
vn -0.271240 0.959473 -0.074707 
vn -0.182617 0.945801 -0.267578 
vn -0.408936 0.879150 -0.243896 
vn -0.182617 0.945801 -0.267578 
vn -0.215820 0.838867 -0.499268 
vn -0.408936 0.879150 -0.243896 
vn -0.182617 0.945801 -0.267578 
vn -0.028076 0.934570 -0.354492 
vn -0.215820 0.838867 -0.499268 
vn -0.028076 0.934570 -0.354492 
vn 0.046143 0.821289 -0.568359 
vn -0.215820 0.838867 -0.499268 
vn -0.028076 0.934570 -0.354492 
vn 0.136475 0.939209 -0.314209 
vn 0.046143 0.821289 -0.568359 
vn 0.136475 0.939209 -0.314209 
vn 0.300293 0.846924 -0.438477 
vn 0.046143 0.821289 -0.568359 
vn 0.136475 0.939209 -0.314209 
vn 0.257812 0.953857 -0.153320 
vn 0.300293 0.846924 -0.438477 
vn 0.257812 0.953857 -0.153320 
vn 0.454834 0.881592 -0.124756 
vn 0.300293 0.846924 -0.438477 
vn 0.257812 0.953857 -0.153320 
vn 0.279053 0.957031 0.076416 
vn 0.454834 0.881592 -0.124756 
vn 0.279053 0.957031 0.076416 
vn 0.419189 0.872803 0.249512 
vn 0.454834 0.881592 -0.124756 
vn 0.279053 0.957031 0.076416 
vn 0.186279 0.943848 0.271973 
vn 0.419189 0.872803 0.249512 
vn 0.186279 0.943848 0.271973 
vn 0.219238 0.834717 0.504883 
vn 0.419189 0.872803 0.249512 
vn 0.186279 0.943848 0.271973 
vn 0.028809 0.934082 0.355469 
vn 0.219238 0.834717 0.504883 
vn 0.028809 0.934082 0.355469 
vn -0.045166 0.822266 0.566895 
vn 0.219238 0.834717 0.504883 
vn -0.134277 0.940918 0.310547 
vn 0.028809 0.934082 0.355469 
vn 0.000000 1.000000 0.000000 
vn -0.251221 0.956055 0.149902 
vn -0.134277 0.940918 0.310547 
vn 0.000000 1.000000 0.000000 
vn -0.271240 0.959473 -0.074707 
vn -0.251221 0.956055 0.149902 
vn 0.000000 1.000000 0.000000 
vn -0.182617 0.945801 -0.267578 
vn -0.271240 0.959473 -0.074707 
vn 0.000000 1.000000 0.000000 
vn -0.028076 0.934570 -0.354492 
vn -0.182617 0.945801 -0.267578 
vn 0.000000 1.000000 0.000000 
vn 0.136475 0.939209 -0.314209 
vn -0.028076 0.934570 -0.354492 
vn 0.000000 1.000000 0.000000 
vn 0.257812 0.953857 -0.153320 
vn 0.136475 0.939209 -0.314209 
vn 0.000000 1.000000 0.000000 
vn 0.279053 0.957031 0.076416 
vn 0.257812 0.953857 -0.153320 
vn 0.000000 1.000000 0.000000 
vn 0.186279 0.943848 0.271973 
vn 0.279053 0.957031 0.076416 
vn 0.000000 1.000000 0.000000 
vn 0.028809 0.934082 0.355469 
vn 0.186279 0.943848 0.271973 
vn 0.000000 1.000000 0.000000 
vt 0.944882 0.190476 
vt 0.929134 0.253968 
vt 0.992126 0.190476 
vt 0.929134 0.253968 
vt 0.976378 0.301587 
vt 0.992126 0.190476 
vt 0.929134 0.253968 
vt 0.897638 0.301587 
vt 0.976378 0.301587 
vt 0.897638 0.301587 
vt 0.913386 0.380952 
vt 0.976378 0.301587 
vt 0.897638 0.301587 
vt 0.858268 0.301587 
vt 0.913386 0.380952 
vt 0.858268 0.301587 
vt 0.842520 0.380952 
vt 0.913386 0.380952 
vt 0.858268 0.301587 
vt 0.826772 0.253968 
vt 0.842520 0.380952 
vt 0.826772 0.253968 
vt 0.787402 0.301587 
vt 0.842520 0.380952 
vt 0.826772 0.253968 
vt 0.811024 0.190476 
vt 0.787402 0.301587 
vt 0.811024 0.190476 
vt 0.763780 0.190476 
vt 0.787402 0.301587 
vt 0.811024 0.190476 
vt 0.826772 0.126984 
vt 0.763780 0.190476 
vt 0.826772 0.126984 
vt 0.787402 0.079365 
vt 0.763780 0.190476 
vt 0.826772 0.126984 
vt 0.858268 0.079365 
vt 0.787402 0.079365 
vt 0.858268 0.079365 
vt 0.842520 0.000000 
vt 0.787402 0.079365 
vt 0.858268 0.079365 
vt 0.897638 0.079365 
vt 0.842520 0.000000 
vt 0.897638 0.079365 
vt 0.913386 0.000000 
vt 0.842520 0.000000 
vt 0.897638 0.079365 
vt 0.929134 0.126984 
vt 0.913386 0.000000 
vt 0.929134 0.126984 
vt 0.976378 0.079365 
vt 0.913386 0.000000 
vt 0.929134 0.126984 
vt 0.944882 0.190476 
vt 0.976378 0.079365 
vt 0.944882 0.190476 
vt 0.992126 0.190476 
vt 0.976378 0.079365 
vt 0.929134 0.253968 
vt 0.944882 0.190476 
vt 0.881890 0.190476 
vt 0.897638 0.301587 
vt 0.929134 0.253968 
vt 0.881890 0.190476 
vt 0.858268 0.301587 
vt 0.897638 0.301587 
vt 0.881890 0.190476 
vt 0.826772 0.253968 
vt 0.858268 0.301587 
vt 0.881890 0.190476 
vt 0.811024 0.190476 
vt 0.826772 0.253968 
vt 0.881890 0.190476 
vt 0.826772 0.126984 
vt 0.811024 0.190476 
vt 0.881890 0.190476 
vt 0.858268 0.079365 
vt 0.826772 0.126984 
vt 0.881890 0.190476 
vt 0.897638 0.079365 
vt 0.858268 0.079365 
vt 0.881890 0.190476 
vt 0.929134 0.126984 
vt 0.897638 0.079365 
vt 0.881890 0.190476 
vt 0.944882 0.190476 
vt 0.929134 0.126984 
vt 0.881890 0.190476 
f 1/1/1 2/2/2 3/3/3
f 4/4/4 5/5/5 6/6/6
f 7/7/7 8/8/8 9/9/9
f 10/10/10 11/11/11 12/12/12
f 13/13/13 14/14/14 15/15/15
f 16/16/16 17/17/17 18/18/18
f 19/19/19 20/20/20 21/21/21
f 22/22/22 23/23/23 24/24/24
f 25/25/25 26/26/26 27/27/27
f 28/28/28 29/29/29 30/30/30
f 31/31/31 32/32/32 33/33/33
f 34/34/34 35/35/35 36/36/36
f 37/37/37 38/38/38 39/39/39
f 40/40/40 41/41/41 42/42/42
f 43/43/43 44/44/44 45/45/45
f 46/46/46 47/47/47 48/48/48
f 49/49/49 50/50/50 51/51/51
f 52/52/52 53/53/53 54/54/54
f 55/55/55 56/56/56 57/57/57
f 58/58/58 59/59/59 60/60/60
f 61/61/61 62/62/62 63/63/63
f 64/64/64 65/65/65 66/66/66
f 67/67/67 68/68/68 69/69/69
f 70/70/70 71/71/71 72/72/72
f 73/73/73 74/74/74 75/75/75
f 76/76/76 77/77/77 78/78/78
f 79/79/79 80/80/80 81/81/81
f 82/82/82 83/83/83 84/84/84
f 85/85/85 86/86/86 87/87/87
f 88/88/88 89/89/89 90/90/90
