v 0.000000 -36.000000 -10.000000 
v 21.000000 -29.000000 -10.000000 
v 0.000000 -36.000000 49.000000 
v 21.000000 -29.000000 -10.000000 
v 21.000000 -29.000000 49.000000 
v 0.000000 -36.000000 49.000000 
v 21.000000 -29.000000 -10.000000 
v 35.000000 -11.000000 -10.000000 
v 21.000000 -29.000000 49.000000 
v 35.000000 -11.000000 -10.000000 
v 35.000000 -11.000000 49.000000 
v 21.000000 -29.000000 49.000000 
v 35.000000 -11.000000 -10.000000 
v 35.000000 11.000000 -10.000000 
v 35.000000 -11.000000 49.000000 
v 35.000000 11.000000 -10.000000 
v 35.000000 11.000000 49.000000 
v 35.000000 -11.000000 49.000000 
v 35.000000 11.000000 -10.000000 
v 21.000000 29.000000 -10.000000 
v 35.000000 11.000000 49.000000 
v 21.000000 29.000000 -10.000000 
v 21.000000 29.000000 49.000000 
v 35.000000 11.000000 49.000000 
v 21.000000 29.000000 -10.000000 
v 0.000000 36.000000 -10.000000 
v 21.000000 29.000000 49.000000 
v 0.000000 36.000000 -10.000000 
v 0.000000 36.000000 49.000000 
v 21.000000 29.000000 49.000000 
v 0.000000 36.000000 -10.000000 
v -21.000000 29.000000 -10.000000 
v 0.000000 36.000000 49.000000 
v -21.000000 29.000000 -10.000000 
v -21.000000 29.000000 49.000000 
v 0.000000 36.000000 49.000000 
v -21.000000 29.000000 -10.000000 
v -34.000000 11.000000 -10.000000 
v -21.000000 29.000000 49.000000 
v -34.000000 11.000000 -10.000000 
v -34.000000 11.000000 49.000000 
v -21.000000 29.000000 49.000000 
v -34.000000 11.000000 -10.000000 
v -34.000000 -11.000000 -10.000000 
v -34.000000 11.000000 49.000000 
v -34.000000 -11.000000 -10.000000 
v -34.000000 -11.000000 49.000000 
v -34.000000 11.000000 49.000000 
v -34.000000 -11.000000 -10.000000 
v -21.000000 -29.000000 -10.000000 
v -34.000000 -11.000000 49.000000 
v -21.000000 -29.000000 -10.000000 
v -21.000000 -29.000000 49.000000 
v -34.000000 -11.000000 49.000000 
v -21.000000 -29.000000 -10.000000 
v 0.000000 -36.000000 -10.000000 
v -21.000000 -29.000000 49.000000 
v 0.000000 -36.000000 -10.000000 
v 0.000000 -36.000000 49.000000 
v -21.000000 -29.000000 49.000000 
v 21.000000 -29.000000 -10.000000 
v 0.000000 -36.000000 -10.000000 
v 0.000000 0.000000 -10.000000 
v 35.000000 -11.000000 -10.000000 
v 21.000000 -29.000000 -10.000000 
v 0.000000 0.000000 -10.000000 
v 35.000000 11.000000 -10.000000 
v 35.000000 -11.000000 -10.000000 
v 0.000000 0.000000 -10.000000 
v 21.000000 29.000000 -10.000000 
v 35.000000 11.000000 -10.000000 
v 0.000000 0.000000 -10.000000 
v 0.000000 36.000000 -10.000000 
v 21.000000 29.000000 -10.000000 
v 0.000000 0.000000 -10.000000 
v -21.000000 29.000000 -10.000000 
v 0.000000 36.000000 -10.000000 
v 0.000000 0.000000 -10.000000 
v -34.000000 11.000000 -10.000000 
v -21.000000 29.000000 -10.000000 
v 0.000000 0.000000 -10.000000 
v -34.000000 -11.000000 -10.000000 
v -34.000000 11.000000 -10.000000 
v 0.000000 0.000000 -10.000000 
v -21.000000 -29.000000 -10.000000 
v -34.000000 -11.000000 -10.000000 
v 0.000000 0.000000 -10.000000 
v 0.000000 -36.000000 -10.000000 
v -21.000000 -29.000000 -10.000000 
v 0.000000 0.000000 -10.000000 
vn -0.164307 -0.986328 -0.000732 
vn 0.628662 -0.777344 0.003174 
vn 0.163086 -0.986572 0.000732 
vn 0.628662 -0.777344 0.003174 
vn 0.789307 -0.613770 0.004150 
vn 0.163086 -0.986572 0.000732 
vn 0.628662 -0.777344 0.003174 
vn 0.956299 -0.291992 0.005127 
vn 0.789307 -0.613770 0.004150 
vn 0.956299 -0.291992 0.005127 
vn 0.989014 -0.145996 0.005127 
vn 0.789307 -0.613770 0.004150 
vn 0.956299 -0.291992 0.005127 
vn 0.989258 0.145264 0.005127 
vn 0.989014 -0.145996 0.005127 
vn 0.989258 0.145264 0.005127 
vn 0.956543 0.291260 0.005127 
vn 0.989014 -0.145996 0.005127 
vn 0.989258 0.145264 0.005127 
vn 0.789795 0.613037 0.004150 
vn 0.956543 0.291260 0.005127 
vn 0.789795 0.613037 0.004150 
vn 0.629639 0.776611 0.003418 
vn 0.956543 0.291260 0.005127 
vn 0.789795 0.613037 0.004150 
vn 0.164307 0.986328 0.000732 
vn 0.629639 0.776611 0.003418 
vn 0.164307 0.986328 0.000732 
vn -0.163086 0.986572 -0.000732 
vn 0.629639 0.776611 0.003418 
vn 0.164307 0.986328 0.000732 
vn -0.628662 0.777344 -0.003174 
vn -0.163086 0.986572 -0.000732 
vn -0.628662 0.777344 -0.003174 
vn -0.789307 0.613770 -0.004150 
vn -0.163086 0.986572 -0.000732 
vn -0.628662 0.777344 -0.003174 
vn -0.956299 0.291992 -0.005127 
vn -0.789307 0.613770 -0.004150 
vn -0.956299 0.291992 -0.005127 
vn -0.989014 0.145996 -0.005127 
vn -0.789307 0.613770 -0.004150 
vn -0.956299 0.291992 -0.005127 
vn -0.989258 -0.145264 -0.005127 
vn -0.989014 0.145996 -0.005127 
vn -0.989258 -0.145264 -0.005127 
vn -0.956543 -0.291260 -0.005127 
vn -0.989014 0.145996 -0.005127 
vn -0.989258 -0.145264 -0.005127 
vn -0.789795 -0.613037 -0.004150 
vn -0.956543 -0.291260 -0.005127 
vn -0.789795 -0.613037 -0.004150 
vn -0.629639 -0.776611 -0.003418 
vn -0.956543 -0.291260 -0.005127 
vn -0.789795 -0.613037 -0.004150 
vn -0.164307 -0.986328 -0.000732 
vn -0.629639 -0.776611 -0.003418 
vn -0.164307 -0.986328 -0.000732 
vn 0.163086 -0.986572 0.000732 
vn -0.629639 -0.776611 -0.003418 
vn -0.012695 0.000000 -0.999756 
vn -0.012695 0.000000 -0.999756 
vn -0.012695 0.000000 -0.999756 
vn -0.012695 0.000000 -0.999756 
vn -0.012695 0.000000 -0.999756 
vn -0.012695 0.000000 -0.999756 
vn -0.012695 0.000000 -0.999756 
vn -0.012695 0.000000 -0.999756 
vn -0.012695 0.000000 -0.999756 
vn -0.012695 0.000000 -0.999756 
vn -0.012695 0.000000 -0.999756 
vn -0.012695 0.000000 -0.999756 
vn -0.012695 0.000000 -0.999756 
vn -0.012695 0.000000 -0.999756 
vn -0.012695 0.000000 -0.999756 
vn -0.012695 0.000000 -0.999756 
vn -0.012695 0.000000 -0.999756 
vn -0.012695 0.000000 -0.999756 
vn -0.012695 0.000000 -0.999756 
vn -0.012695 0.000000 -0.999756 
vn -0.012695 0.000000 -0.999756 
vn -0.012695 0.000000 -0.999756 
vn -0.012695 0.000000 -0.999756 
vn -0.012695 0.000000 -0.999756 
vn -0.012695 0.000000 -0.999756 
vn -0.012695 0.000000 -0.999756 
vn -0.012695 0.000000 -0.999756 
vn -0.012695 0.000000 -0.999756 
vn -0.012695 0.000000 -0.999756 
vn -0.012695 0.000000 -0.999756 
vt 1.000000 0.677419 
vt 1.000000 0.096774 
vt 0.000000 0.677419 
vt 1.000000 0.096774 
vt 0.000000 0.096774 
vt 0.000000 0.677419 
vt 1.000000 0.290323 
vt 1.000000 0.903226 
vt 0.000000 0.290323 
vt 1.000000 0.903226 
vt 0.000000 0.903226 
vt 0.000000 0.290323 
vt 1.000000 0.612903 
vt 1.000000 0.064516 
vt 0.000000 0.612903 
vt 1.000000 0.064516 
vt 0.000000 0.064516 
vt 0.000000 0.612903 
vt 1.000000 1.000000 
vt 1.000000 0.290323 
vt 0.000000 1.000000 
vt 1.000000 0.290323 
vt 0.000000 0.290323 
vt 0.000000 1.000000 
vt 0.774194 0.774194 
vt 0.774194 0.290323 
vt 0.258065 0.806452 
vt 0.774194 0.290323 
vt 0.258065 0.290323 
vt 0.258065 0.806452 
vt 1.000000 0.612903 
vt 1.000000 0.193548 
vt 0.000000 0.612903 
vt 1.000000 0.193548 
vt 0.000000 0.193548 
vt 0.000000 0.612903 
vt 0.967742 0.645161 
vt 0.967742 0.064516 
vt 0.000000 0.645161 
vt 0.967742 0.064516 
vt 0.000000 0.064516 
vt 0.000000 0.645161 
vt 1.000000 0.612903 
vt 1.000000 0.096774 
vt 0.000000 0.612903 
vt 1.000000 0.096774 
vt 0.000000 0.096774 
vt 0.000000 0.612903 
vt 1.000000 0.645161 
vt 1.000000 0.096774 
vt 0.000000 0.645161 
vt 1.000000 0.096774 
vt 0.000000 0.096774 
vt 0.000000 0.645161 
vt 0.967742 0.677419 
vt 0.967742 0.096774 
vt 0.000000 0.677419 
vt 0.967742 0.096774 
vt 0.000000 0.096774 
vt 0.000000 0.677419 
vt 0.903226 0.290323 
vt 0.935484 0.193548 
vt 0.774194 0.193548 
vt 0.806452 0.354839 
vt 0.903226 0.290323 
vt 0.774194 0.193548 
vt 0.709677 0.354839 
vt 0.806452 0.354839 
vt 0.774194 0.193548 
vt 0.612903 0.290323 
vt 0.709677 0.354839 
vt 0.774194 0.193548 
vt 0.580645 0.193548 
vt 0.612903 0.290323 
vt 0.774194 0.193548 
vt 0.612903 0.096774 
vt 0.580645 0.193548 
vt 0.774194 0.193548 
vt 0.709677 0.032258 
vt 0.612903 0.096774 
vt 0.774194 0.193548 
vt 0.806452 0.032258 
vt 0.709677 0.032258 
vt 0.774194 0.193548 
vt 0.903226 0.096774 
vt 0.806452 0.032258 
vt 0.774194 0.193548 
vt 0.935484 0.193548 
vt 0.903226 0.096774 
vt 0.774194 0.193548 
f 1/1/1 2/2/2 3/3/3
f 4/4/4 5/5/5 6/6/6
f 7/7/7 8/8/8 9/9/9
f 10/10/10 11/11/11 12/12/12
f 13/13/13 14/14/14 15/15/15
f 16/16/16 17/17/17 18/18/18
f 19/19/19 20/20/20 21/21/21
f 22/22/22 23/23/23 24/24/24
f 25/25/25 26/26/26 27/27/27
f 28/28/28 29/29/29 30/30/30
f 31/31/31 32/32/32 33/33/33
f 34/34/34 35/35/35 36/36/36
f 37/37/37 38/38/38 39/39/39
f 40/40/40 41/41/41 42/42/42
f 43/43/43 44/44/44 45/45/45
f 46/46/46 47/47/47 48/48/48
f 49/49/49 50/50/50 51/51/51
f 52/52/52 53/53/53 54/54/54
f 55/55/55 56/56/56 57/57/57
f 58/58/58 59/59/59 60/60/60
f 61/61/61 62/62/62 63/63/63
f 64/64/64 65/65/65 66/66/66
f 67/67/67 68/68/68 69/69/69
f 70/70/70 71/71/71 72/72/72
f 73/73/73 74/74/74 75/75/75
f 76/76/76 77/77/77 78/78/78
f 79/79/79 80/80/80 81/81/81
f 82/82/82 83/83/83 84/84/84
f 85/85/85 86/86/86 87/87/87
f 88/88/88 89/89/89 90/90/90
