v -4.000000 0.000000 -45.000000 
v -4.000000 -35.000000 -31.000000 
v -4.000000 0.000000 1.000000 
v -4.000000 35.000000 -31.000000 
v -4.000000 0.000000 -45.000000 
v -4.000000 0.000000 1.000000 
v -4.000000 -35.000000 33.000000 
v -4.000000 0.000000 47.000000 
v -4.000000 0.000000 1.000000 
v -4.000000 0.000000 47.000000 
v -4.000000 35.000000 33.000000 
v -4.000000 0.000000 1.000000 
v -4.000000 35.000000 33.000000 
v -4.000000 50.000000 1.000000 
v -4.000000 0.000000 1.000000 
v -4.000000 50.000000 1.000000 
v -4.000000 35.000000 -31.000000 
v -4.000000 0.000000 1.000000 
v 11.000000 26.000000 -17.000000 
v 13.000000 41.000000 -2.000000 
v 13.000000 26.000000 -2.000000 
v 13.000000 41.000000 -2.000000 
v 16.000000 26.000000 11.000000 
v 13.000000 26.000000 -2.000000 
v 13.000000 12.000000 -2.000000 
v 11.000000 26.000000 -17.000000 
v 13.000000 26.000000 -2.000000 
v 16.000000 26.000000 11.000000 
v 13.000000 12.000000 -2.000000 
v 13.000000 26.000000 -2.000000 
v 13.000000 -41.000000 -2.000000 
v 11.000000 -26.000000 -17.000000 
v 13.000000 -26.000000 -2.000000 
v 16.000000 -26.000000 11.000000 
v 13.000000 -41.000000 -2.000000 
v 13.000000 -26.000000 -2.000000 
v 11.000000 -26.000000 -17.000000 
v 13.000000 -12.000000 -2.000000 
v 13.000000 -26.000000 -2.000000 
v 13.000000 -12.000000 -2.000000 
v 16.000000 -26.000000 11.000000 
v 13.000000 -26.000000 -2.000000 
vn -1.000000 0.000000 0.000000 
vn -1.000000 0.000000 0.000000 
vn -1.000000 0.000000 0.000000 
vn -1.000000 0.000000 0.000000 
vn -1.000000 0.000000 0.000000 
vn -1.000000 0.000000 0.000000 
vn -1.000000 0.000000 0.000000 
vn -1.000000 0.000000 0.000000 
vn -1.000000 0.000000 0.000000 
vn -1.000000 0.000000 0.000000 
vn -1.000000 0.000000 0.000000 
vn -1.000000 0.000000 0.000000 
vn -1.000000 0.000000 0.000000 
vn -1.000000 0.000000 0.000000 
vn -1.000000 0.000000 0.000000 
vn -1.000000 0.000000 0.000000 
vn -1.000000 0.000000 0.000000 
vn -1.000000 0.000000 0.000000 
vn 0.999512 0.000000 -0.029785 
vn 0.999512 0.000000 -0.029785 
vn 0.999512 0.000000 -0.029785 
vn 0.999512 0.000000 -0.029785 
vn 0.999512 0.000000 -0.030029 
vn 0.999512 0.000000 -0.029785 
vn 0.999512 0.000000 -0.029785 
vn 0.999512 0.000000 -0.029785 
vn 0.999512 0.000000 -0.029785 
vn 0.999512 0.000000 -0.030029 
vn 0.999512 0.000000 -0.029785 
vn 0.999512 0.000000 -0.029785 
vn 0.999512 0.000000 -0.029785 
vn 0.999512 0.000000 -0.029785 
vn 0.999512 0.000000 -0.029785 
vn 0.999512 0.000000 -0.030029 
vn 0.999512 0.000000 -0.029785 
vn 0.999512 0.000000 -0.029785 
vn 0.999512 0.000000 -0.029785 
vn 0.999512 0.000000 -0.029785 
vn 0.999512 0.000000 -0.029785 
vn 0.999512 0.000000 -0.029785 
vn 0.999512 0.000000 -0.030029 
vn 0.999512 0.000000 -0.029785 
vt 0.365079 -0.015873 
vt 0.111111 -0.015873 
vt 0.365079 -0.015873 
vt 0.634921 -0.015873 
vt 0.365079 -0.015873 
vt 0.365079 -0.015873 
vt 0.111111 -0.015873 
vt 0.365079 -0.015873 
vt 0.365079 -0.015873 
vt 0.365079 -0.015873 
vt 0.634921 -0.015873 
vt 0.365079 -0.015873 
vt 0.634921 -0.015873 
vt 0.730159 -0.015873 
vt 0.365079 -0.015873 
vt 0.730159 -0.015873 
vt 0.634921 -0.015873 
vt 0.365079 -0.015873 
vt 0.111111 0.269841 
vt 0.222222 0.285714 
vt 0.111111 0.285714 
vt 0.222222 0.285714 
vt 0.111111 0.301587 
vt 0.111111 0.285714 
vt 0.000000 0.285714 
vt 0.111111 0.269841 
vt 0.111111 0.285714 
vt 0.111111 0.301587 
vt 0.000000 0.285714 
vt 0.111111 0.285714 
vt 0.222222 0.285714 
vt 0.111111 0.269841 
vt 0.111111 0.285714 
vt 0.111111 0.301587 
vt 0.222222 0.285714 
vt 0.111111 0.285714 
vt 0.111111 0.269841 
vt 0.000000 0.285714 
vt 0.111111 0.285714 
vt 0.000000 0.285714 
vt 0.111111 0.301587 
vt 0.111111 0.285714 
f 1/1/1 2/2/2 3/3/3
f 4/4/4 5/5/5 6/6/6
f 7/7/7 8/8/8 9/9/9
f 10/10/10 11/11/11 12/12/12
f 13/13/13 14/14/14 15/15/15
f 16/16/16 17/17/17 18/18/18
f 19/19/19 20/20/20 21/21/21
f 22/22/22 23/23/23 24/24/24
f 25/25/25 26/26/26 27/27/27
f 28/28/28 29/29/29 30/30/30
f 31/31/31 32/32/32 33/33/33
f 34/34/34 35/35/35 36/36/36
f 37/37/37 38/38/38 39/39/39
f 40/40/40 41/41/41 42/42/42
