v 5.000000 62.000000 13.000000 
v 15.000000 62.000000 0.000000 
v 1.000000 69.000000 0.000000 
v 18.000000 37.000000 13.000000 
v 24.000000 34.000000 0.000000 
v 15.000000 62.000000 0.000000 
v 5.000000 62.000000 13.000000 
v 18.000000 37.000000 13.000000 
v 15.000000 62.000000 0.000000 
v 7.000000 34.000000 22.000000 
v 18.000000 37.000000 13.000000 
v 5.000000 62.000000 13.000000 
v -10.000000 62.000000 8.000000 
v 5.000000 62.000000 13.000000 
v 1.000000 69.000000 0.000000 
v -7.000000 37.000000 21.000000 
v 7.000000 34.000000 22.000000 
v 5.000000 62.000000 13.000000 
v -10.000000 62.000000 8.000000 
v -7.000000 37.000000 21.000000 
v 5.000000 62.000000 13.000000 
v -19.000000 34.000000 13.000000 
v -7.000000 37.000000 21.000000 
v -10.000000 62.000000 8.000000 
v -10.000000 62.000000 -8.000000 
v -10.000000 62.000000 8.000000 
v 1.000000 69.000000 0.000000 
v -23.000000 37.000000 0.000000 
v -19.000000 34.000000 13.000000 
v -10.000000 62.000000 8.000000 
v -10.000000 62.000000 -8.000000 
v -23.000000 37.000000 0.000000 
v -10.000000 62.000000 8.000000 
v -19.000000 34.000000 -13.000000 
v -23.000000 37.000000 0.000000 
v -10.000000 62.000000 -8.000000 
v 5.000000 62.000000 -13.000000 
v -10.000000 62.000000 -8.000000 
v 1.000000 69.000000 0.000000 
v -7.000000 37.000000 -21.000000 
v -19.000000 34.000000 -13.000000 
v -10.000000 62.000000 -8.000000 
v 5.000000 62.000000 -13.000000 
v -7.000000 37.000000 -21.000000 
v -10.000000 62.000000 -8.000000 
v 7.000000 34.000000 -22.000000 
v -7.000000 37.000000 -21.000000 
v 5.000000 62.000000 -13.000000 
v 15.000000 62.000000 0.000000 
v 5.000000 62.000000 -13.000000 
v 1.000000 69.000000 0.000000 
v 18.000000 37.000000 -13.000000 
v 7.000000 34.000000 -22.000000 
v 5.000000 62.000000 -13.000000 
v 15.000000 62.000000 0.000000 
v 18.000000 37.000000 -13.000000 
v 5.000000 62.000000 -13.000000 
v 24.000000 34.000000 0.000000 
v 18.000000 37.000000 -13.000000 
v 15.000000 62.000000 0.000000 
v 33.000000 3.000000 10.000000 
v 33.000000 3.000000 -10.000000 
v 24.000000 34.000000 0.000000 
v 32.000000 -41.000000 0.000000 
v 27.000000 -37.000000 -17.000000 
v 33.000000 3.000000 -10.000000 
v 33.000000 3.000000 10.000000 
v 32.000000 -41.000000 0.000000 
v 33.000000 3.000000 -10.000000 
v 27.000000 -37.000000 17.000000 
v 32.000000 -41.000000 0.000000 
v 33.000000 3.000000 10.000000 
v 0.000000 0.000000 33.000000 
v 20.000000 1.000000 27.000000 
v 7.000000 34.000000 22.000000 
v 11.000000 -41.000000 26.000000 
v 27.000000 -37.000000 17.000000 
v 20.000000 1.000000 27.000000 
v 0.000000 0.000000 33.000000 
v 11.000000 -41.000000 26.000000 
v 20.000000 1.000000 27.000000 
v -6.000000 -37.000000 28.000000 
v 11.000000 -41.000000 26.000000 
v 0.000000 0.000000 33.000000 
v -33.000000 -3.000000 10.000000 
v -20.000000 -1.000000 27.000000 
v -19.000000 34.000000 13.000000 
v -21.000000 -41.000000 16.000000 
v -6.000000 -37.000000 28.000000 
v -20.000000 -1.000000 27.000000 
v -33.000000 -3.000000 10.000000 
v -21.000000 -41.000000 16.000000 
v -20.000000 -1.000000 27.000000 
v -28.000000 -37.000000 0.000000 
v -21.000000 -41.000000 16.000000 
v -33.000000 -3.000000 10.000000 
v -20.000000 -1.000000 -27.000000 
v -33.000000 -3.000000 -10.000000 
v -19.000000 34.000000 -13.000000 
v -21.000000 -41.000000 -16.000000 
v -28.000000 -37.000000 0.000000 
v -33.000000 -3.000000 -10.000000 
v -20.000000 -1.000000 -27.000000 
v -21.000000 -41.000000 -16.000000 
v -33.000000 -3.000000 -10.000000 
v -6.000000 -37.000000 -28.000000 
v -21.000000 -41.000000 -16.000000 
v -20.000000 -1.000000 -27.000000 
v 20.000000 1.000000 -27.000000 
v 0.000000 0.000000 -33.000000 
v 7.000000 34.000000 -22.000000 
v 11.000000 -41.000000 -26.000000 
v -6.000000 -37.000000 -28.000000 
v 0.000000 0.000000 -33.000000 
v 20.000000 1.000000 -27.000000 
v 11.000000 -41.000000 -26.000000 
v 0.000000 0.000000 -33.000000 
v 27.000000 -37.000000 -17.000000 
v 11.000000 -41.000000 -26.000000 
v 20.000000 1.000000 -27.000000 
v 33.000000 3.000000 10.000000 
v 20.000000 1.000000 27.000000 
v 27.000000 -37.000000 17.000000 
v 18.000000 37.000000 13.000000 
v 7.000000 34.000000 22.000000 
v 20.000000 1.000000 27.000000 
v 33.000000 3.000000 10.000000 
v 18.000000 37.000000 13.000000 
v 20.000000 1.000000 27.000000 
v 24.000000 34.000000 0.000000 
v 18.000000 37.000000 13.000000 
v 33.000000 3.000000 10.000000 
v 0.000000 0.000000 33.000000 
v -20.000000 -1.000000 27.000000 
v -6.000000 -37.000000 28.000000 
v -7.000000 37.000000 21.000000 
v -19.000000 34.000000 13.000000 
v -20.000000 -1.000000 27.000000 
v 0.000000 0.000000 33.000000 
v -7.000000 37.000000 21.000000 
v -20.000000 -1.000000 27.000000 
v 7.000000 34.000000 22.000000 
v -7.000000 37.000000 21.000000 
v 0.000000 0.000000 33.000000 
v -33.000000 -3.000000 10.000000 
v -33.000000 -3.000000 -10.000000 
v -28.000000 -37.000000 0.000000 
v -23.000000 37.000000 0.000000 
v -19.000000 34.000000 -13.000000 
v -33.000000 -3.000000 -10.000000 
v -33.000000 -3.000000 10.000000 
v -23.000000 37.000000 0.000000 
v -33.000000 -3.000000 -10.000000 
v -19.000000 34.000000 13.000000 
v -23.000000 37.000000 0.000000 
v -33.000000 -3.000000 10.000000 
v -20.000000 -1.000000 -27.000000 
v 0.000000 0.000000 -33.000000 
v -6.000000 -37.000000 -28.000000 
v -7.000000 37.000000 -21.000000 
v 7.000000 34.000000 -22.000000 
v 0.000000 0.000000 -33.000000 
v -20.000000 -1.000000 -27.000000 
v -7.000000 37.000000 -21.000000 
v 0.000000 0.000000 -33.000000 
v -19.000000 34.000000 -13.000000 
v -7.000000 37.000000 -21.000000 
v -20.000000 -1.000000 -27.000000 
v 20.000000 1.000000 -27.000000 
v 33.000000 3.000000 -10.000000 
v 27.000000 -37.000000 -17.000000 
v 18.000000 37.000000 -13.000000 
v 24.000000 34.000000 0.000000 
v 33.000000 3.000000 -10.000000 
v 20.000000 1.000000 -27.000000 
v 18.000000 37.000000 -13.000000 
v 33.000000 3.000000 -10.000000 
v 7.000000 34.000000 -22.000000 
v 18.000000 37.000000 -13.000000 
v 20.000000 1.000000 -27.000000 
v 17.000000 -61.000000 10.000000 
v -2.000000 -61.000000 16.000000 
v 2.000000 -70.000000 0.000000 
v 11.000000 -41.000000 26.000000 
v -6.000000 -37.000000 28.000000 
v -2.000000 -61.000000 16.000000 
v 17.000000 -61.000000 10.000000 
v 11.000000 -41.000000 26.000000 
v -2.000000 -61.000000 16.000000 
v 27.000000 -37.000000 17.000000 
v 11.000000 -41.000000 26.000000 
v 17.000000 -61.000000 10.000000 
v -2.000000 -61.000000 16.000000 
v -15.000000 -61.000000 0.000000 
v 2.000000 -70.000000 0.000000 
v -21.000000 -41.000000 16.000000 
v -28.000000 -37.000000 0.000000 
v -15.000000 -61.000000 0.000000 
v -2.000000 -61.000000 16.000000 
v -21.000000 -41.000000 16.000000 
v -15.000000 -61.000000 0.000000 
v -6.000000 -37.000000 28.000000 
v -21.000000 -41.000000 16.000000 
v -2.000000 -61.000000 16.000000 
v -15.000000 -61.000000 0.000000 
v -2.000000 -61.000000 -16.000000 
v 2.000000 -70.000000 0.000000 
v -21.000000 -41.000000 -16.000000 
v -6.000000 -37.000000 -28.000000 
v -2.000000 -61.000000 -16.000000 
v -15.000000 -61.000000 0.000000 
v -21.000000 -41.000000 -16.000000 
v -2.000000 -61.000000 -16.000000 
v -28.000000 -37.000000 0.000000 
v -21.000000 -41.000000 -16.000000 
v -15.000000 -61.000000 0.000000 
v -2.000000 -61.000000 -16.000000 
v 17.000000 -61.000000 -10.000000 
v 2.000000 -70.000000 0.000000 
v 11.000000 -41.000000 -26.000000 
v 27.000000 -37.000000 -17.000000 
v 17.000000 -61.000000 -10.000000 
v -2.000000 -61.000000 -16.000000 
v 11.000000 -41.000000 -26.000000 
v 17.000000 -61.000000 -10.000000 
v -6.000000 -37.000000 -28.000000 
v 11.000000 -41.000000 -26.000000 
v -2.000000 -61.000000 -16.000000 
v 17.000000 -61.000000 -10.000000 
v 17.000000 -61.000000 10.000000 
v 2.000000 -70.000000 0.000000 
v 32.000000 -41.000000 0.000000 
v 27.000000 -37.000000 17.000000 
v 17.000000 -61.000000 10.000000 
v 17.000000 -61.000000 -10.000000 
v 32.000000 -41.000000 0.000000 
v 17.000000 -61.000000 10.000000 
v 27.000000 -37.000000 -17.000000 
v 32.000000 -41.000000 0.000000 
v 17.000000 -61.000000 -10.000000 
vn 0.207031 0.760010 0.615479 
vn 0.669189 0.742920 0.000000 
vn 0.000000 1.000000 0.000000 
vn 0.693115 0.512695 0.506348 
vn 0.869385 0.493896 0.000000 
vn 0.669189 0.742920 0.000000 
vn 0.207031 0.760010 0.615479 
vn 0.693115 0.512695 0.506348 
vn 0.669189 0.742920 0.000000 
vn 0.264648 0.497070 0.826172 
vn 0.693115 0.512695 0.506348 
vn 0.207031 0.760010 0.615479 
vn -0.497803 0.785645 0.366699 
vn 0.207031 0.760010 0.615479 
vn 0.000000 1.000000 0.000000 
vn -0.266357 0.526367 0.807129 
vn 0.264648 0.497070 0.826172 
vn 0.207031 0.760010 0.615479 
vn -0.497803 0.785645 0.366699 
vn -0.266357 0.526367 0.807129 
vn 0.207031 0.760010 0.615479 
vn -0.702881 0.498291 0.507324 
vn -0.266357 0.526367 0.807129 
vn -0.497803 0.785645 0.366699 
vn -0.497803 0.785645 -0.366699 
vn -0.497803 0.785645 0.366699 
vn 0.000000 1.000000 0.000000 
vn -0.846680 0.531982 0.000000 
vn -0.702881 0.498291 0.507324 
vn -0.497803 0.785645 0.366699 
vn -0.497803 0.785645 -0.366699 
vn -0.846680 0.531982 0.000000 
vn -0.497803 0.785645 0.366699 
vn -0.702881 0.498291 -0.507324 
vn -0.846680 0.531982 0.000000 
vn -0.497803 0.785645 -0.366699 
vn 0.207031 0.760010 -0.615479 
vn -0.497803 0.785645 -0.366699 
vn 0.000000 1.000000 0.000000 
vn -0.266357 0.526367 -0.807129 
vn -0.702881 0.498291 -0.507324 
vn -0.497803 0.785645 -0.366699 
vn 0.207031 0.760010 -0.615479 
vn -0.266357 0.526367 -0.807129 
vn -0.497803 0.785645 -0.366699 
vn 0.264648 0.497070 -0.826172 
vn -0.266357 0.526367 -0.807129 
vn 0.207031 0.760010 -0.615479 
vn 0.669189 0.742920 0.000000 
vn 0.207031 0.760010 -0.615479 
vn 0.000000 1.000000 0.000000 
vn 0.693115 0.512695 -0.506348 
vn 0.264648 0.497070 -0.826172 
vn 0.207031 0.760010 -0.615479 
vn 0.669189 0.742920 0.000000 
vn 0.693115 0.512695 -0.506348 
vn 0.207031 0.760010 -0.615479 
vn 0.869385 0.493896 0.000000 
vn 0.693115 0.512695 -0.506348 
vn 0.669189 0.742920 0.000000 
vn 0.930176 0.223633 0.290771 
vn 0.930176 0.223633 -0.290771 
vn 0.869385 0.493896 0.000000 
vn 0.897705 -0.440186 0.000000 
vn 0.757324 -0.356689 -0.546631 
vn 0.930176 0.223633 -0.290771 
vn 0.930176 0.223633 0.290771 
vn 0.897705 -0.440186 0.000000 
vn 0.930176 0.223633 -0.290771 
vn 0.757324 -0.356689 0.546631 
vn 0.897705 -0.440186 0.000000 
vn 0.930176 0.223633 0.290771 
vn 0.002686 0.147949 0.988770 
vn 0.564209 0.194824 0.802002 
vn 0.264648 0.497070 0.826172 
vn 0.271240 -0.480469 0.833740 
vn 0.757324 -0.356689 0.546631 
vn 0.564209 0.194824 0.802002 
vn 0.002686 0.147949 0.988770 
vn 0.271240 -0.480469 0.833740 
vn 0.564209 0.194824 0.802002 
vn -0.272217 -0.437500 0.856689 
vn 0.271240 -0.480469 0.833740 
vn 0.002686 0.147949 0.988770 
vn -0.948242 0.066650 0.309570 
vn -0.591797 0.098389 0.799805 
vn -0.702881 0.498291 0.507324 
vn -0.678467 -0.543701 0.493652 
vn -0.272217 -0.437500 0.856689 
vn -0.591797 0.098389 0.799805 
vn -0.948242 0.066650 0.309570 
vn -0.678467 -0.543701 0.493652 
vn -0.591797 0.098389 0.799805 
vn -0.873291 -0.486816 0.000000 
vn -0.678467 -0.543701 0.493652 
vn -0.948242 0.066650 0.309570 
vn -0.591797 0.098389 -0.799805 
vn -0.948242 0.066650 -0.309570 
vn -0.702881 0.498291 -0.507324 
vn -0.678467 -0.543701 -0.493652 
vn -0.873291 -0.486816 0.000000 
vn -0.948242 0.066650 -0.309570 
vn -0.591797 0.098389 -0.799805 
vn -0.678467 -0.543701 -0.493652 
vn -0.948242 0.066650 -0.309570 
vn -0.272217 -0.437500 -0.856689 
vn -0.678467 -0.543701 -0.493652 
vn -0.591797 0.098389 -0.799805 
vn 0.564209 0.194824 -0.802002 
vn 0.002686 0.147949 -0.988770 
vn 0.264648 0.497070 -0.826172 
vn 0.271240 -0.480469 -0.833740 
vn -0.272217 -0.437500 -0.856689 
vn 0.002686 0.147949 -0.988770 
vn 0.564209 0.194824 -0.802002 
vn 0.271240 -0.480469 -0.833740 
vn 0.002686 0.147949 -0.988770 
vn 0.757324 -0.356689 -0.546631 
vn 0.271240 -0.480469 -0.833740 
vn 0.564209 0.194824 -0.802002 
vn 0.930176 0.223633 0.290771 
vn 0.564209 0.194824 0.802002 
vn 0.757324 -0.356689 0.546631 
vn 0.693115 0.512695 0.506348 
vn 0.264648 0.497070 0.826172 
vn 0.564209 0.194824 0.802002 
vn 0.930176 0.223633 0.290771 
vn 0.693115 0.512695 0.506348 
vn 0.564209 0.194824 0.802002 
vn 0.869385 0.493896 0.000000 
vn 0.693115 0.512695 0.506348 
vn 0.930176 0.223633 0.290771 
vn 0.002686 0.147949 0.988770 
vn -0.591797 0.098389 0.799805 
vn -0.272217 -0.437500 0.856689 
vn -0.266357 0.526367 0.807129 
vn -0.702881 0.498291 0.507324 
vn -0.591797 0.098389 0.799805 
vn 0.002686 0.147949 0.988770 
vn -0.266357 0.526367 0.807129 
vn -0.591797 0.098389 0.799805 
vn 0.264648 0.497070 0.826172 
vn -0.266357 0.526367 0.807129 
vn 0.002686 0.147949 0.988770 
vn -0.948242 0.066650 0.309570 
vn -0.948242 0.066650 -0.309570 
vn -0.873291 -0.486816 0.000000 
vn -0.846680 0.531982 0.000000 
vn -0.702881 0.498291 -0.507324 
vn -0.948242 0.066650 -0.309570 
vn -0.948242 0.066650 0.309570 
vn -0.846680 0.531982 0.000000 
vn -0.948242 0.066650 -0.309570 
vn -0.702881 0.498291 0.507324 
vn -0.846680 0.531982 0.000000 
vn -0.948242 0.066650 0.309570 
vn -0.591797 0.098389 -0.799805 
vn 0.002686 0.147949 -0.988770 
vn -0.272217 -0.437500 -0.856689 
vn -0.266357 0.526367 -0.807129 
vn 0.264648 0.497070 -0.826172 
vn 0.002686 0.147949 -0.988770 
vn -0.591797 0.098389 -0.799805 
vn -0.266357 0.526367 -0.807129 
vn 0.002686 0.147949 -0.988770 
vn -0.702881 0.498291 -0.507324 
vn -0.266357 0.526367 -0.807129 
vn -0.591797 0.098389 -0.799805 
vn 0.564209 0.194824 -0.802002 
vn 0.930176 0.223633 -0.290771 
vn 0.757324 -0.356689 -0.546631 
vn 0.693115 0.512695 -0.506348 
vn 0.869385 0.493896 0.000000 
vn 0.930176 0.223633 -0.290771 
vn 0.564209 0.194824 -0.802002 
vn 0.693115 0.512695 -0.506348 
vn 0.930176 0.223633 -0.290771 
vn 0.264648 0.497070 -0.826172 
vn 0.693115 0.512695 -0.506348 
vn 0.564209 0.194824 -0.802002 
vn 0.425293 -0.850586 0.308838 
vn -0.162354 -0.850586 0.500000 
vn 0.000000 -1.000000 0.000000 
vn 0.271240 -0.480469 0.833740 
vn -0.272217 -0.437500 0.856689 
vn -0.162354 -0.850586 0.500000 
vn 0.425293 -0.850586 0.308838 
vn 0.271240 -0.480469 0.833740 
vn -0.162354 -0.850586 0.500000 
vn 0.757324 -0.356689 0.546631 
vn 0.271240 -0.480469 0.833740 
vn 0.425293 -0.850586 0.308838 
vn -0.162354 -0.850586 0.500000 
vn -0.525635 -0.850586 0.000000 
vn 0.000000 -1.000000 0.000000 
vn -0.678467 -0.543701 0.493652 
vn -0.873291 -0.486816 0.000000 
vn -0.525635 -0.850586 0.000000 
vn -0.162354 -0.850586 0.500000 
vn -0.678467 -0.543701 0.493652 
vn -0.525635 -0.850586 0.000000 
vn -0.272217 -0.437500 0.856689 
vn -0.678467 -0.543701 0.493652 
vn -0.162354 -0.850586 0.500000 
vn -0.525635 -0.850586 0.000000 
vn -0.162354 -0.850586 -0.499756 
vn 0.000000 -1.000000 0.000000 
vn -0.678467 -0.543701 -0.493652 
vn -0.272217 -0.437500 -0.856689 
vn -0.162354 -0.850586 -0.499756 
vn -0.525635 -0.850586 0.000000 
vn -0.678467 -0.543701 -0.493652 
vn -0.162354 -0.850586 -0.499756 
vn -0.873291 -0.486816 0.000000 
vn -0.678467 -0.543701 -0.493652 
vn -0.525635 -0.850586 0.000000 
vn -0.162354 -0.850586 -0.499756 
vn 0.425293 -0.850586 -0.308838 
vn 0.000000 -1.000000 0.000000 
vn 0.271240 -0.480469 -0.833740 
vn 0.757324 -0.356689 -0.546631 
vn 0.425293 -0.850586 -0.308838 
vn -0.162354 -0.850586 -0.499756 
vn 0.271240 -0.480469 -0.833740 
vn 0.425293 -0.850586 -0.308838 
vn -0.272217 -0.437500 -0.856689 
vn 0.271240 -0.480469 -0.833740 
vn -0.162354 -0.850586 -0.499756 
vn 0.425293 -0.850586 -0.308838 
vn 0.425293 -0.850586 0.308838 
vn 0.000000 -1.000000 0.000000 
vn 0.897705 -0.440186 0.000000 
vn 0.757324 -0.356689 0.546631 
vn 0.425293 -0.850586 0.308838 
vn 0.425293 -0.850586 -0.308838 
vn 0.897705 -0.440186 0.000000 
vn 0.425293 -0.850586 0.308838 
vn 0.757324 -0.356689 -0.546631 
vn 0.897705 -0.440186 0.000000 
vn 0.425293 -0.850586 -0.308838 
vt 0.936508 0.952381 
vt 0.746032 0.952381 
vt 0.746032 1.000000 
vt 0.841270 0.777778 
vt 0.746032 0.746032 
vt 0.746032 0.952381 
vt 0.936508 0.952381 
vt 0.841270 0.777778 
vt 0.746032 0.952381 
vt 0.952381 0.746032 
vt 0.841270 0.777778 
vt 0.936508 0.952381 
vt 0.126984 0.952381 
vt 0.936508 0.952381 
vt 0.746032 1.000000 
vt 0.031746 0.777778 
vt 0.952381 0.746032 
vt 0.936508 0.952381 
vt 0.126984 0.952381 
vt 0.031746 0.777778 
vt 0.936508 0.952381 
vt 0.142857 0.746032 
vt 0.031746 0.777778 
vt 0.126984 0.952381 
vt 0.349206 0.952381 
vt 0.126984 0.952381 
vt 0.746032 1.000000 
vt 0.238095 0.777778 
vt 0.142857 0.746032 
vt 0.126984 0.952381 
vt 0.349206 0.952381 
vt 0.238095 0.777778 
vt 0.126984 0.952381 
vt 0.333333 0.746032 
vt 0.238095 0.777778 
vt 0.349206 0.952381 
vt 0.555556 0.952381 
vt 0.349206 0.952381 
vt 0.746032 1.000000 
vt 0.444444 0.777778 
vt 0.333333 0.746032 
vt 0.349206 0.952381 
vt 0.555556 0.952381 
vt 0.444444 0.777778 
vt 0.349206 0.952381 
vt 0.539683 0.746032 
vt 0.444444 0.777778 
vt 0.555556 0.952381 
vt 0.746032 0.952381 
vt 0.555556 0.952381 
vt 0.746032 1.000000 
vt 0.650794 0.777778 
vt 0.539683 0.746032 
vt 0.555556 0.952381 
vt 0.746032 0.952381 
vt 0.650794 0.777778 
vt 0.555556 0.952381 
vt 0.746032 0.746032 
vt 0.650794 0.777778 
vt 0.746032 0.952381 
vt 0.793651 0.523810 
vt 0.698413 0.523810 
vt 0.746032 0.746032 
vt 0.746032 0.174603 
vt 0.650794 0.222222 
vt 0.698413 0.523810 
vt 0.793651 0.523810 
vt 0.746032 0.174603 
vt 0.698413 0.523810 
vt 0.841270 0.222222 
vt 0.746032 0.174603 
vt 0.793651 0.523810 
vt 0.984127 0.492063 
vt 0.888889 0.507937 
vt 0.952381 0.746032 
vt 0.936508 0.174603 
vt 0.841270 0.222222 
vt 0.888889 0.507937 
vt 0.984127 0.492063 
vt 0.936508 0.174603 
vt 0.888889 0.507937 
vt 0.015873 0.222222 
vt 0.936508 0.174603 
vt 0.000000 0.492063 
vt 0.190476 0.476190 
vt 0.095238 0.476190 
vt 0.142857 0.746032 
vt 0.126984 0.174603 
vt 0.015873 0.222222 
vt 0.095238 0.476190 
vt 0.190476 0.476190 
vt 0.126984 0.174603 
vt 0.095238 0.476190 
vt 0.238095 0.222222 
vt 0.126984 0.174603 
vt 0.190476 0.476190 
vt 0.380952 0.476190 
vt 0.285714 0.476190 
vt 0.333333 0.746032 
vt 0.349206 0.174603 
vt 0.238095 0.222222 
vt 0.285714 0.476190 
vt 0.380952 0.476190 
vt 0.349206 0.174603 
vt 0.285714 0.476190 
vt 0.460317 0.222222 
vt 0.349206 0.174603 
vt 0.380952 0.476190 
vt 0.603175 0.507937 
vt 0.492063 0.492063 
vt 0.539683 0.746032 
vt 0.555556 0.174603 
vt 0.460317 0.222222 
vt 0.492063 0.492063 
vt 0.603175 0.507937 
vt 0.555556 0.174603 
vt 0.492063 0.492063 
vt 0.650794 0.222222 
vt 0.555556 0.174603 
vt 0.603175 0.507937 
vt 0.793651 0.523810 
vt 0.888889 0.507937 
vt 0.841270 0.222222 
vt 0.841270 0.777778 
vt 0.952381 0.746032 
vt 0.888889 0.507937 
vt 0.793651 0.523810 
vt 0.841270 0.777778 
vt 0.888889 0.507937 
vt 0.746032 0.746032 
vt 0.841270 0.777778 
vt 0.793651 0.523810 
vt 0.000000 0.492063 
vt 0.095238 0.476190 
vt 0.015873 0.222222 
vt 0.031746 0.777778 
vt 0.142857 0.746032 
vt 0.095238 0.476190 
vt 0.000000 0.492063 
vt 0.031746 0.777778 
vt 0.095238 0.476190 
vt 0.952381 0.746032 
vt 0.031746 0.777778 
vt 0.000000 0.492063 
vt 0.190476 0.476190 
vt 0.285714 0.476190 
vt 0.238095 0.222222 
vt 0.238095 0.777778 
vt 0.333333 0.746032 
vt 0.285714 0.476190 
vt 0.190476 0.476190 
vt 0.238095 0.777778 
vt 0.285714 0.476190 
vt 0.142857 0.746032 
vt 0.238095 0.777778 
vt 0.190476 0.476190 
vt 0.380952 0.476190 
vt 0.492063 0.492063 
vt 0.460317 0.222222 
vt 0.444444 0.777778 
vt 0.539683 0.746032 
vt 0.492063 0.492063 
vt 0.380952 0.476190 
vt 0.444444 0.777778 
vt 0.492063 0.492063 
vt 0.333333 0.746032 
vt 0.444444 0.777778 
vt 0.380952 0.476190 
vt 0.603175 0.507937 
vt 0.698413 0.523810 
vt 0.650794 0.222222 
vt 0.650794 0.777778 
vt 0.746032 0.746032 
vt 0.698413 0.523810 
vt 0.603175 0.507937 
vt 0.650794 0.777778 
vt 0.698413 0.523810 
vt 0.539683 0.746032 
vt 0.650794 0.777778 
vt 0.603175 0.507937 
vt 0.968254 0.047619 
vt 0.015873 0.031746 
vt 0.746032 -0.031746 
vt 0.936508 0.174603 
vt 0.015873 0.222222 
vt 0.015873 0.031746 
vt 0.968254 0.047619 
vt 0.936508 0.174603 
vt 0.015873 0.031746 
vt 0.841270 0.222222 
vt 0.936508 0.174603 
vt 0.825397 0.031746 
vt 0.015873 0.031746 
vt 0.238095 0.031746 
vt 0.746032 -0.031746 
vt 0.126984 0.174603 
vt 0.238095 0.222222 
vt 0.238095 0.031746 
vt 0.015873 0.031746 
vt 0.126984 0.174603 
vt 0.238095 0.031746 
vt 0.015873 0.222222 
vt 0.126984 0.174603 
vt 0.015873 0.031746 
vt 0.238095 0.031746 
vt 0.460317 0.031746 
vt 0.746032 -0.031746 
vt 0.349206 0.174603 
vt 0.460317 0.222222 
vt 0.460317 0.031746 
vt 0.238095 0.031746 
vt 0.349206 0.174603 
vt 0.460317 0.031746 
vt 0.238095 0.222222 
vt 0.349206 0.174603 
vt 0.238095 0.031746 
vt 0.460317 0.031746 
vt 0.666667 0.031746 
vt 0.746032 -0.031746 
vt 0.555556 0.174603 
vt 0.650794 0.222222 
vt 0.666667 0.031746 
vt 0.460317 0.031746 
vt 0.555556 0.174603 
vt 0.666667 0.031746 
vt 0.460317 0.222222 
vt 0.555556 0.174603 
vt 0.460317 0.031746 
vt 0.666667 0.031746 
vt 0.825397 0.031746 
vt 0.746032 -0.031746 
vt 0.746032 0.174603 
vt 0.841270 0.222222 
vt 0.825397 0.031746 
vt 0.666667 0.031746 
vt 0.746032 0.174603 
vt 0.825397 0.031746 
vt 0.650794 0.222222 
vt 0.746032 0.174603 
vt 0.666667 0.031746 
f 1/1/1 2/2/2 3/3/3
f 4/4/4 5/5/5 6/6/6
f 7/7/7 8/8/8 9/9/9
f 10/10/10 11/11/11 12/12/12
f 13/13/13 14/14/14 15/15/15
f 16/16/16 17/17/17 18/18/18
f 19/19/19 20/20/20 21/21/21
f 22/22/22 23/23/23 24/24/24
f 25/25/25 26/26/26 27/27/27
f 28/28/28 29/29/29 30/30/30
f 31/31/31 32/32/32 33/33/33
f 34/34/34 35/35/35 36/36/36
f 37/37/37 38/38/38 39/39/39
f 40/40/40 41/41/41 42/42/42
f 43/43/43 44/44/44 45/45/45
f 46/46/46 47/47/47 48/48/48
f 49/49/49 50/50/50 51/51/51
f 52/52/52 53/53/53 54/54/54
f 55/55/55 56/56/56 57/57/57
f 58/58/58 59/59/59 60/60/60
f 61/61/61 62/62/62 63/63/63
f 64/64/64 65/65/65 66/66/66
f 67/67/67 68/68/68 69/69/69
f 70/70/70 71/71/71 72/72/72
f 73/73/73 74/74/74 75/75/75
f 76/76/76 77/77/77 78/78/78
f 79/79/79 80/80/80 81/81/81
f 82/82/82 83/83/83 84/84/84
f 85/85/85 86/86/86 87/87/87
f 88/88/88 89/89/89 90/90/90
f 91/91/91 92/92/92 93/93/93
f 94/94/94 95/95/95 96/96/96
f 97/97/97 98/98/98 99/99/99
f 100/100/100 101/101/101 102/102/102
f 103/103/103 104/104/104 105/105/105
f 106/106/106 107/107/107 108/108/108
f 109/109/109 110/110/110 111/111/111
f 112/112/112 113/113/113 114/114/114
f 115/115/115 116/116/116 117/117/117
f 118/118/118 119/119/119 120/120/120
f 121/121/121 122/122/122 123/123/123
f 124/124/124 125/125/125 126/126/126
f 127/127/127 128/128/128 129/129/129
f 130/130/130 131/131/131 132/132/132
f 133/133/133 134/134/134 135/135/135
f 136/136/136 137/137/137 138/138/138
f 139/139/139 140/140/140 141/141/141
f 142/142/142 143/143/143 144/144/144
f 145/145/145 146/146/146 147/147/147
f 148/148/148 149/149/149 150/150/150
f 151/151/151 152/152/152 153/153/153
f 154/154/154 155/155/155 156/156/156
f 157/157/157 158/158/158 159/159/159
f 160/160/160 161/161/161 162/162/162
f 163/163/163 164/164/164 165/165/165
f 166/166/166 167/167/167 168/168/168
f 169/169/169 170/170/170 171/171/171
f 172/172/172 173/173/173 174/174/174
f 175/175/175 176/176/176 177/177/177
f 178/178/178 179/179/179 180/180/180
f 181/181/181 182/182/182 183/183/183
f 184/184/184 185/185/185 186/186/186
f 187/187/187 188/188/188 189/189/189
f 190/190/190 191/191/191 192/192/192
f 193/193/193 194/194/194 195/195/195
f 196/196/196 197/197/197 198/198/198
f 199/199/199 200/200/200 201/201/201
f 202/202/202 203/203/203 204/204/204
f 205/205/205 206/206/206 207/207/207
f 208/208/208 209/209/209 210/210/210
f 211/211/211 212/212/212 213/213/213
f 214/214/214 215/215/215 216/216/216
f 217/217/217 218/218/218 219/219/219
f 220/220/220 221/221/221 222/222/222
f 223/223/223 224/224/224 225/225/225
f 226/226/226 227/227/227 228/228/228
f 229/229/229 230/230/230 231/231/231
f 232/232/232 233/233/233 234/234/234
f 235/235/235 236/236/236 237/237/237
f 238/238/238 239/239/239 240/240/240
