v -17.000000 19.000000 23.000000 
v 0.000000 14.000000 32.000000 
v 0.000000 82.000000 35.000000 
v -17.000000 28.000000 5.000000 
v -17.000000 19.000000 23.000000 
v 0.000000 82.000000 35.000000 
v 0.000000 32.000000 -3.000000 
v -17.000000 28.000000 5.000000 
v 0.000000 82.000000 35.000000 
v 17.000000 28.000000 5.000000 
v 0.000000 32.000000 -3.000000 
v 0.000000 82.000000 35.000000 
v 17.000000 19.000000 23.000000 
v 17.000000 28.000000 5.000000 
v 0.000000 82.000000 35.000000 
v 0.000000 14.000000 32.000000 
v 17.000000 19.000000 23.000000 
v 0.000000 82.000000 35.000000 
v -14.000000 -23.000000 -17.000000 
v 0.000000 -30.000000 -13.000000 
v 0.000000 14.000000 32.000000 
v -17.000000 19.000000 23.000000 
v -14.000000 -23.000000 -17.000000 
v 0.000000 14.000000 32.000000 
v -14.000000 -8.000000 -25.000000 
v -14.000000 -23.000000 -17.000000 
v -17.000000 19.000000 23.000000 
v -17.000000 28.000000 5.000000 
v -14.000000 -8.000000 -25.000000 
v -17.000000 19.000000 23.000000 
v 0.000000 -1.000000 -29.000000 
v -14.000000 -8.000000 -25.000000 
v -17.000000 28.000000 5.000000 
v 0.000000 32.000000 -3.000000 
v 0.000000 -1.000000 -29.000000 
v -17.000000 28.000000 5.000000 
v 14.000000 -8.000000 -25.000000 
v 0.000000 -1.000000 -29.000000 
v 0.000000 32.000000 -3.000000 
v 17.000000 28.000000 5.000000 
v 14.000000 -8.000000 -25.000000 
v 0.000000 32.000000 -3.000000 
v 14.000000 -23.000000 -17.000000 
v 14.000000 -8.000000 -25.000000 
v 17.000000 28.000000 5.000000 
v 17.000000 19.000000 23.000000 
v 14.000000 -23.000000 -17.000000 
v 17.000000 28.000000 5.000000 
v 0.000000 -30.000000 -13.000000 
v 14.000000 -23.000000 -17.000000 
v 17.000000 19.000000 23.000000 
v 0.000000 14.000000 32.000000 
v 0.000000 -30.000000 -13.000000 
v 17.000000 19.000000 23.000000 
v 0.000000 -30.000000 -13.000000 
v -14.000000 -23.000000 -17.000000 
v 0.000000 -22.000000 -69.000000 
v -14.000000 -23.000000 -17.000000 
v -14.000000 -8.000000 -25.000000 
v 0.000000 -22.000000 -69.000000 
v -14.000000 -8.000000 -25.000000 
v 0.000000 -1.000000 -29.000000 
v 0.000000 -22.000000 -69.000000 
v 0.000000 -1.000000 -29.000000 
v 14.000000 -8.000000 -25.000000 
v 0.000000 -22.000000 -69.000000 
v 14.000000 -8.000000 -25.000000 
v 14.000000 -23.000000 -17.000000 
v 0.000000 -22.000000 -69.000000 
v 14.000000 -23.000000 -17.000000 
v 0.000000 -30.000000 -13.000000 
v 0.000000 -22.000000 -69.000000 
vn -0.923340 -0.123535 0.362793 
vn -0.117432 -0.478027 0.870117 
vn 0.000000 0.917236 0.397949 
vn -0.787842 0.413818 -0.455811 
vn -0.923340 -0.123535 0.362793 
vn 0.000000 0.917236 0.397949 
vn 0.106201 0.610840 -0.784424 
vn -0.787842 0.413818 -0.455811 
vn 0.000000 0.917236 0.397949 
vn 0.908203 0.283447 -0.307373 
vn 0.106201 0.610840 -0.784424 
vn 0.000000 0.917236 0.397949 
vn 0.809326 -0.265137 0.523682 
vn 0.908203 0.283447 -0.307373 
vn 0.000000 0.917236 0.397949 
vn -0.117432 -0.478027 0.870117 
vn 0.809326 -0.265137 0.523682 
vn 0.000000 0.917236 0.397949 
vn -0.805176 -0.562500 0.187256 
vn 0.118652 -0.913574 0.388428 
vn -0.117432 -0.478027 0.870117 
vn -0.923340 -0.123535 0.362793 
vn -0.805176 -0.562500 0.187256 
vn -0.117432 -0.478027 0.870117 
vn -0.909180 0.251465 -0.331787 
vn -0.805176 -0.562500 0.187256 
vn -0.923340 -0.123535 0.362793 
vn -0.787842 0.413818 -0.455811 
vn -0.909180 0.251465 -0.331787 
vn -0.923340 -0.123535 0.362793 
vn -0.114990 0.734375 -0.668701 
vn -0.909180 0.251465 -0.331787 
vn -0.787842 0.413818 -0.455811 
vn 0.106201 0.610840 -0.784424 
vn -0.114990 0.734375 -0.668701 
vn -0.787842 0.413818 -0.455811 
vn 0.785645 0.383789 -0.484863 
vn -0.114990 0.734375 -0.668701 
vn 0.106201 0.610840 -0.784424 
vn 0.908203 0.283447 -0.307373 
vn 0.785645 0.383789 -0.484863 
vn 0.106201 0.610840 -0.784424 
vn 0.909424 -0.414551 0.029541 
vn 0.785645 0.383789 -0.484863 
vn 0.908203 0.283447 -0.307373 
vn 0.809326 -0.265137 0.523682 
vn 0.909424 -0.414551 0.029541 
vn 0.908203 0.283447 -0.307373 
vn 0.118652 -0.913574 0.388428 
vn 0.909424 -0.414551 0.029541 
vn 0.809326 -0.265137 0.523682 
vn -0.117432 -0.478027 0.870117 
vn 0.118652 -0.913574 0.388428 
vn 0.809326 -0.265137 0.523682 
vn 0.118652 -0.913574 0.388428 
vn -0.805176 -0.562500 0.187256 
vn 0.000000 -0.328125 -0.944580 
vn -0.805176 -0.562500 0.187256 
vn -0.909180 0.251465 -0.331787 
vn 0.000000 -0.328125 -0.944580 
vn -0.909180 0.251465 -0.331787 
vn -0.114990 0.734375 -0.668701 
vn 0.000000 -0.328125 -0.944580 
vn -0.114990 0.734375 -0.668701 
vn 0.785645 0.383789 -0.484863 
vn 0.000000 -0.328125 -0.944580 
vn 0.785645 0.383789 -0.484863 
vn 0.909424 -0.414551 0.029541 
vn 0.000000 -0.328125 -0.944580 
vn 0.909424 -0.414551 0.029541 
vn 0.118652 -0.913574 0.388428 
vn 0.000000 -0.328125 -0.944580 
vt 0.548387 0.645161 
vt 0.774194 0.612903 
vt 0.774194 1.000000 
vt 0.548387 0.741935 
vt 0.548387 0.645161 
vt 0.774194 1.000000 
vt 0.774194 0.774194 
vt 0.548387 0.741935 
vt 0.774194 1.000000 
vt 0.967742 0.741935 
vt 0.774194 0.774194 
vt 0.774194 1.000000 
vt 0.967742 0.645161 
vt 0.967742 0.741935 
vt 0.774194 1.000000 
vt 0.774194 0.612903 
vt 0.967742 0.645161 
vt 0.774194 1.000000 
vt 0.580645 0.064516 
vt 0.741935 0.000000 
vt 0.774194 0.612903 
vt 0.548387 0.645161 
vt 0.580645 0.064516 
vt 0.774194 0.612903 
vt 0.580645 0.193548 
vt 0.580645 0.064516 
vt 0.548387 0.645161 
vt 0.548387 0.741935 
vt 0.580645 0.193548 
vt 0.548387 0.645161 
vt 0.741935 0.258065 
vt 0.580645 0.193548 
vt 0.548387 0.741935 
vt 0.774194 0.774194 
vt 0.741935 0.258065 
vt 0.548387 0.741935 
vt 0.935484 0.193548 
vt 0.741935 0.258065 
vt 0.774194 0.774194 
vt 0.967742 0.741935 
vt 0.935484 0.193548 
vt 0.774194 0.774194 
vt 0.935484 0.064516 
vt 0.935484 0.193548 
vt 0.967742 0.741935 
vt 0.967742 0.645161 
vt 0.935484 0.064516 
vt 0.967742 0.741935 
vt 0.741935 0.000000 
vt 0.935484 0.064516 
vt 0.967742 0.645161 
vt 0.774194 0.612903 
vt 0.741935 0.000000 
vt 0.967742 0.645161 
vt 0.741935 0.000000 
vt 0.580645 0.064516 
vt 0.741935 0.064516 
vt 0.580645 0.064516 
vt 0.580645 0.193548 
vt 0.741935 0.064516 
vt 0.580645 0.193548 
vt 0.741935 0.258065 
vt 0.741935 0.064516 
vt 0.741935 0.258065 
vt 0.935484 0.193548 
vt 0.741935 0.064516 
vt 0.935484 0.193548 
vt 0.935484 0.064516 
vt 0.741935 0.064516 
vt 0.935484 0.064516 
vt 0.741935 0.000000 
vt 0.741935 0.064516 
f 1/1/1 2/2/2 3/3/3
f 4/4/4 5/5/5 6/6/6
f 7/7/7 8/8/8 9/9/9
f 10/10/10 11/11/11 12/12/12
f 13/13/13 14/14/14 15/15/15
f 16/16/16 17/17/17 18/18/18
f 19/19/19 20/20/20 21/21/21
f 22/22/22 23/23/23 24/24/24
f 25/25/25 26/26/26 27/27/27
f 28/28/28 29/29/29 30/30/30
f 31/31/31 32/32/32 33/33/33
f 34/34/34 35/35/35 36/36/36
f 37/37/37 38/38/38 39/39/39
f 40/40/40 41/41/41 42/42/42
f 43/43/43 44/44/44 45/45/45
f 46/46/46 47/47/47 48/48/48
f 49/49/49 50/50/50 51/51/51
f 52/52/52 53/53/53 54/54/54
f 55/55/55 56/56/56 57/57/57
f 58/58/58 59/59/59 60/60/60
f 61/61/61 62/62/62 63/63/63
f 64/64/64 65/65/65 66/66/66
f 67/67/67 68/68/68 69/69/69
f 70/70/70 71/71/71 72/72/72
