v 17.000000 -5.000000 -35.000000 
v 8.000000 -16.000000 -37.000000 
v 7.000000 -12.000000 -63.000000 
v -11.000000 -13.000000 -63.000000 
v 7.000000 -12.000000 -63.000000 
v 8.000000 -16.000000 -37.000000 
v 8.000000 -16.000000 -37.000000 
v -10.000000 -17.000000 -37.000000 
v -11.000000 -13.000000 -63.000000 
v -10.000000 -17.000000 -37.000000 
v 8.000000 -16.000000 -37.000000 
v 9.000000 -18.000000 -9.000000 
vn 0.921387 -0.370850 -0.115234 
vn 0.344971 -0.926270 -0.150146 
vn 0.400635 -0.915039 -0.043701 
vn -0.380371 -0.923096 -0.053955 
vn 0.400635 -0.915039 -0.043701 
vn 0.344971 -0.926270 -0.150146 
vn 0.344971 -0.926270 -0.150146 
vn -0.410889 -0.905518 -0.104248 
vn -0.380371 -0.923096 -0.053955 
vn -0.410889 -0.905518 -0.104248 
vn 0.344971 -0.926270 -0.150146 
vn 0.087646 -0.842041 -0.531738 
vt 0.576471 0.666667 
vt 0.545098 0.670588 
vt 0.635294 0.725490 
vt 0.572549 0.725490 
vt 0.635294 0.725490 
vt 0.545098 0.670588 
vt 0.545098 0.670588 
vt 0.486275 0.670588 
vt 0.572549 0.725490 
vt 0.486275 0.670588 
vt 0.545098 0.670588 
vt 0.541176 0.584314 
f 1/1/1 2/2/2 3/3/3
f 4/4/4 5/5/5 6/6/6
f 7/7/7 8/8/8 9/9/9
f 10/10/10 11/11/11 12/12/12
