v 338.000000 -117.000000 -112.000000 
v 310.000000 -25.000000 -141.000000 
v 598.000000 -7.000000 -123.000000 
v 598.000000 -7.000000 -123.000000 
v 565.000000 -97.000000 -79.000000 
v 338.000000 -117.000000 -112.000000 
v 342.000000 -140.000000 -9.000000 
v 338.000000 -117.000000 -112.000000 
v 565.000000 -97.000000 -79.000000 
v 598.000000 96.000000 -34.000000 
v 545.000000 95.000000 -27.000000 
v 554.000000 76.000000 28.000000 
v 554.000000 76.000000 28.000000 
v 615.000000 80.000000 21.000000 
v 598.000000 96.000000 -34.000000 
v 598.000000 96.000000 -34.000000 
v 671.000000 101.000000 -31.000000 
v 672.000000 74.000000 -86.000000 
v 672.000000 74.000000 -86.000000 
v 612.000000 71.000000 -87.000000 
v 598.000000 96.000000 -34.000000 
v 598.000000 96.000000 -34.000000 
v 612.000000 71.000000 -87.000000 
v 564.000000 67.000000 -91.000000 
v 564.000000 67.000000 -91.000000 
v 545.000000 95.000000 -27.000000 
v 598.000000 96.000000 -34.000000 
v 674.000000 82.000000 26.000000 
v 671.000000 101.000000 -31.000000 
v 598.000000 96.000000 -34.000000 
v 598.000000 96.000000 -34.000000 
v 615.000000 80.000000 21.000000 
v 674.000000 82.000000 26.000000 
v 342.000000 -140.000000 -9.000000 
v 547.000000 -113.000000 -27.000000 
v 567.000000 -99.000000 42.000000 
v 567.000000 -99.000000 42.000000 
v 335.000000 -118.000000 60.000000 
v 342.000000 -140.000000 -9.000000 
v 565.000000 -97.000000 -79.000000 
v 547.000000 -113.000000 -27.000000 
v 342.000000 -140.000000 -9.000000 
v 567.000000 -99.000000 42.000000 
v 583.000000 -49.000000 72.000000 
v 428.000000 -56.000000 63.000000 
v 428.000000 -56.000000 63.000000 
v 335.000000 -118.000000 60.000000 
v 567.000000 -99.000000 42.000000 
v 583.000000 -49.000000 72.000000 
v 567.000000 -99.000000 42.000000 
v 625.000000 -43.000000 68.000000 
v 619.000000 -56.000000 -113.000000 
v 565.000000 -97.000000 -79.000000 
v 598.000000 -7.000000 -123.000000 
v 583.000000 -49.000000 72.000000 
v 594.000000 -11.000000 80.000000 
v 428.000000 -56.000000 63.000000 
v 594.000000 -11.000000 80.000000 
v 583.000000 -49.000000 72.000000 
v 625.000000 -43.000000 68.000000 
v 325.000000 -61.000000 92.000000 
v 428.000000 -56.000000 63.000000 
v 594.000000 -11.000000 80.000000 
v 594.000000 -11.000000 80.000000 
v 310.000000 -14.000000 99.000000 
v 325.000000 -61.000000 92.000000 
v 594.000000 -11.000000 80.000000 
v 625.000000 -43.000000 68.000000 
v 666.000000 -3.000000 74.000000 
v 594.000000 -11.000000 80.000000 
v 575.000000 27.000000 78.000000 
v 304.000000 37.000000 84.000000 
v 304.000000 37.000000 84.000000 
v 310.000000 -14.000000 99.000000 
v 594.000000 -11.000000 80.000000 
v 666.000000 -3.000000 74.000000 
v 575.000000 27.000000 78.000000 
v 594.000000 -11.000000 80.000000 
v 656.000000 -4.000000 -126.000000 
v 619.000000 -56.000000 -113.000000 
v 598.000000 -7.000000 -123.000000 
v 564.000000 67.000000 -91.000000 
v 598.000000 -7.000000 -123.000000 
v 310.000000 -25.000000 -141.000000 
v 656.000000 -4.000000 -126.000000 
v 598.000000 -7.000000 -123.000000 
v 564.000000 67.000000 -91.000000 
v 564.000000 67.000000 -91.000000 
v 612.000000 71.000000 -87.000000 
v 656.000000 -4.000000 -126.000000 
v 656.000000 -4.000000 -126.000000 
v 612.000000 71.000000 -87.000000 
v 672.000000 74.000000 -86.000000 
v 615.000000 80.000000 21.000000 
v 666.000000 -3.000000 74.000000 
v 674.000000 82.000000 26.000000 
v 666.000000 -3.000000 74.000000 
v 554.000000 76.000000 28.000000 
v 575.000000 27.000000 78.000000 
v 554.000000 76.000000 28.000000 
v 666.000000 -3.000000 74.000000 
v 615.000000 80.000000 21.000000 
v 294.000000 90.000000 44.000000 
v 304.000000 37.000000 84.000000 
v 575.000000 27.000000 78.000000 
v 575.000000 27.000000 78.000000 
v 554.000000 76.000000 28.000000 
v 294.000000 90.000000 44.000000 
v 545.000000 95.000000 -27.000000 
v 289.000000 110.000000 -16.000000 
v 294.000000 90.000000 44.000000 
v 294.000000 90.000000 44.000000 
v 554.000000 76.000000 28.000000 
v 545.000000 95.000000 -27.000000 
v 564.000000 67.000000 -91.000000 
v 293.000000 81.000000 -102.000000 
v 289.000000 110.000000 -16.000000 
v 289.000000 110.000000 -16.000000 
v 545.000000 95.000000 -27.000000 
v 564.000000 67.000000 -91.000000 
v 310.000000 -25.000000 -141.000000 
v 293.000000 81.000000 -102.000000 
v 564.000000 67.000000 -91.000000 
v 428.000000 -56.000000 63.000000 
v 325.000000 -61.000000 92.000000 
v 335.000000 -118.000000 60.000000 
vn 0.135254 -0.642090 -0.754395 
vn 0.058350 0.164307 -0.984619 
vn -0.025391 -0.096191 -0.994873 
vn -0.025391 -0.096191 -0.994873 
vn 0.015869 -0.813965 -0.580566 
vn 0.135254 -0.642090 -0.754395 
vn 0.117920 -0.992920 -0.007080 
vn 0.135254 -0.642090 -0.754395 
vn 0.015869 -0.813965 -0.580566 
vn -0.048340 0.996094 -0.072021 
vn 0.025879 0.999268 0.017822 
vn 0.083984 0.847656 0.523438 
vn 0.083984 0.847656 0.523438 
vn -0.029297 0.795898 0.604492 
vn -0.048340 0.996094 -0.072021 
vn -0.048340 0.996094 -0.072021 
vn -0.067627 0.995850 -0.059326 
vn -0.039795 0.756348 -0.652588 
vn -0.039795 0.756348 -0.652588 
vn -0.019043 0.714600 -0.698975 
vn -0.048340 0.996094 -0.072021 
vn -0.048340 0.996094 -0.072021 
vn -0.019043 0.714600 -0.698975 
vn 0.006348 0.708496 -0.705566 
vn 0.006348 0.708496 -0.705566 
vn 0.025879 0.999268 0.017822 
vn -0.048340 0.996094 -0.072021 
vn -0.083252 0.820801 0.564941 
vn -0.067627 0.995850 -0.059326 
vn -0.048340 0.996094 -0.072021 
vn -0.048340 0.996094 -0.072021 
vn -0.029297 0.795898 0.604492 
vn -0.083252 0.820801 0.564941 
vn 0.117920 -0.992920 -0.007080 
vn 0.068604 -0.995850 -0.056396 
vn 0.077637 -0.761230 0.643555 
vn 0.077637 -0.761230 0.643555 
vn 0.167236 -0.581543 0.795898 
vn 0.117920 -0.992920 -0.007080 
vn 0.015869 -0.813965 -0.580566 
vn 0.068604 -0.995850 -0.056396 
vn 0.117920 -0.992920 -0.007080 
vn 0.077637 -0.761230 0.643555 
vn 0.052490 -0.374268 0.925781 
vn 0.096191 -0.456055 0.884521 
vn 0.096191 -0.456055 0.884521 
vn 0.167236 -0.581543 0.795898 
vn 0.077637 -0.761230 0.643555 
vn 0.052490 -0.374268 0.925781 
vn 0.077637 -0.761230 0.643555 
vn 0.065674 -0.329590 0.941650 
vn -0.081787 -0.350342 -0.932861 
vn 0.015869 -0.813965 -0.580566 
vn -0.025391 -0.096191 -0.994873 
vn 0.052490 -0.374268 0.925781 
vn 0.079346 -0.163574 0.983154 
vn 0.096191 -0.456055 0.884521 
vn 0.079346 -0.163574 0.983154 
vn 0.052490 -0.374268 0.925781 
vn 0.065674 -0.329590 0.941650 
vn 0.182373 -0.509033 0.841064 
vn 0.096191 -0.456055 0.884521 
vn 0.079346 -0.163574 0.983154 
vn 0.079346 -0.163574 0.983154 
vn 0.066895 0.078613 0.994629 
vn 0.182373 -0.509033 0.841064 
vn 0.079346 -0.163574 0.983154 
vn 0.065674 -0.329590 0.941650 
vn 0.021484 0.342529 0.939209 
vn 0.079346 -0.163574 0.983154 
vn 0.103516 0.475586 0.873291 
vn 0.044434 0.332764 0.941895 
vn 0.044434 0.332764 0.941895 
vn 0.066895 0.078613 0.994629 
vn 0.079346 -0.163574 0.983154 
vn 0.021484 0.342529 0.939209 
vn 0.103516 0.475586 0.873291 
vn 0.079346 -0.163574 0.983154 
vn -0.031494 0.265137 -0.963623 
vn -0.081787 -0.350342 -0.932861 
vn -0.025391 -0.096191 -0.994873 
vn 0.006348 0.708496 -0.705566 
vn -0.025391 -0.096191 -0.994873 
vn 0.058350 0.164307 -0.984619 
vn -0.031494 0.265137 -0.963623 
vn -0.025391 -0.096191 -0.994873 
vn 0.006348 0.708496 -0.705566 
vn 0.006348 0.708496 -0.705566 
vn -0.019043 0.714600 -0.698975 
vn -0.031494 0.265137 -0.963623 
vn -0.031494 0.265137 -0.963623 
vn -0.019043 0.714600 -0.698975 
vn -0.039795 0.756348 -0.652588 
vn -0.029297 0.795898 0.604492 
vn 0.021484 0.342529 0.939209 
vn -0.083252 0.820801 0.564941 
vn 0.021484 0.342529 0.939209 
vn 0.083984 0.847656 0.523438 
vn 0.103516 0.475586 0.873291 
vn 0.083984 0.847656 0.523438 
vn 0.021484 0.342529 0.939209 
vn -0.029297 0.795898 0.604492 
vn 0.067871 0.838867 0.539795 
vn 0.044434 0.332764 0.941895 
vn 0.103516 0.475586 0.873291 
vn 0.103516 0.475586 0.873291 
vn 0.083984 0.847656 0.523438 
vn 0.067871 0.838867 0.539795 
vn 0.025879 0.999268 0.017822 
vn 0.059570 0.987549 -0.145264 
vn 0.067871 0.838867 0.539795 
vn 0.067871 0.838867 0.539795 
vn 0.083984 0.847656 0.523438 
vn 0.025879 0.999268 0.017822 
vn 0.006348 0.708496 -0.705566 
vn 0.066162 0.716553 -0.694092 
vn 0.059570 0.987549 -0.145264 
vn 0.059570 0.987549 -0.145264 
vn 0.025879 0.999268 0.017822 
vn 0.006348 0.708496 -0.705566 
vn 0.058350 0.164307 -0.984619 
vn 0.066162 0.716553 -0.694092 
vn 0.006348 0.708496 -0.705566 
vn 0.096191 -0.456055 0.884521 
vn 0.182373 -0.509033 0.841064 
vn 0.167236 -0.581543 0.795898 
vt 0.901961 0.094118 
vt 0.533333 0.054902 
vt 0.458824 0.415686 
vt 0.458824 0.415686 
vt 0.819608 0.372549 
vt 0.901961 0.094118 
vt 0.988235 0.098039 
vt 0.901961 0.094118 
vt 0.819608 0.372549 
vt 0.047059 0.407843 
vt 0.050980 0.341176 
vt 0.125490 0.349020 
vt 0.125490 0.349020 
vt 0.109804 0.427451 
vt 0.047059 0.407843 
vt 0.047059 0.407843 
vt 0.023529 0.498039 
vt 0.133333 0.501961 
vt 0.133333 0.501961 
vt 0.145098 0.427451 
vt 0.047059 0.407843 
vt 0.047059 0.407843 
vt 0.145098 0.427451 
vt 0.164706 0.364706 
vt 0.164706 0.364706 
vt 0.050980 0.341176 
vt 0.047059 0.407843 
vt 0.101961 0.498039 
vt 0.023529 0.498039 
vt 0.047059 0.407843 
vt 0.047059 0.407843 
vt 0.109804 0.427451 
vt 0.101961 0.498039 
vt 0.988235 0.098039 
vt 0.882353 0.352941 
vt 0.827451 0.372549 
vt 0.827451 0.372549 
vt 0.905882 0.082353 
vt 0.988235 0.098039 
vt 0.819608 0.372549 
vt 0.882353 0.352941 
vt 0.988235 0.098039 
vt 0.827451 0.372549 
vt 0.627451 0.388235 
vt 0.654902 0.196078 
vt 0.654902 0.196078 
vt 0.905882 0.082353 
vt 0.827451 0.372549 
vt 0.627451 0.388235 
vt 0.827451 0.372549 
vt 0.603922 0.443137 
vt 0.654902 0.443137 
vt 0.819608 0.372549 
vt 0.458824 0.415686 
vt 0.627451 0.388235 
vt 0.474510 0.400000 
vt 0.654902 0.196078 
vt 0.474510 0.400000 
vt 0.627451 0.388235 
vt 0.603922 0.443137 
vt 0.678431 0.066667 
vt 0.654902 0.196078 
vt 0.474510 0.400000 
vt 0.474510 0.400000 
vt 0.490196 0.047059 
vt 0.678431 0.066667 
vt 0.474510 0.400000 
vt 0.603922 0.443137 
vt 0.443137 0.490196 
vt 0.474510 0.400000 
vt 0.321569 0.376471 
vt 0.282353 0.039216 
vt 0.282353 0.039216 
vt 0.490196 0.047059 
vt 0.474510 0.400000 
vt 0.443137 0.490196 
vt 0.321569 0.376471 
vt 0.474510 0.400000 
vt 0.447059 0.486274 
vt 0.654902 0.443137 
vt 0.458824 0.415686 
vt 0.164706 0.364706 
vt 0.458824 0.415686 
vt 0.533333 0.054902 
vt 0.447059 0.486274 
vt 0.458824 0.415686 
vt 0.164706 0.364706 
vt 0.164706 0.364706 
vt 0.145098 0.427451 
vt 0.447059 0.486274 
vt 0.447059 0.486274 
vt 0.145098 0.427451 
vt 0.133333 0.501961 
vt 0.109804 0.427451 
vt 0.443137 0.490196 
vt 0.101961 0.498039 
vt 0.443137 0.490196 
vt 0.125490 0.349020 
vt 0.321569 0.376471 
vt 0.125490 0.349020 
vt 0.443137 0.490196 
vt 0.109804 0.427451 
vt 0.070588 0.023529 
vt 0.282353 0.039216 
vt 0.321569 0.376471 
vt 0.321569 0.376471 
vt 0.125490 0.349020 
vt 0.070588 0.023529 
vt 0.050980 0.341176 
vt 0.000000 0.019608 
vt 0.070588 0.023529 
vt 0.070588 0.023529 
vt 0.125490 0.349020 
vt 0.050980 0.341176 
vt 0.164706 0.364706 
vt 0.109804 0.027451 
vt 0.000000 0.019608 
vt 0.000000 0.019608 
vt 0.050980 0.341176 
vt 0.164706 0.364706 
vt 0.533333 0.054902 
vt 0.109804 0.027451 
vt 0.164706 0.364706 
vt 0.654902 0.196078 
vt 0.678431 0.066667 
vt 0.905882 0.082353 
f 1/1/1 2/2/2 3/3/3
f 4/4/4 5/5/5 6/6/6
f 7/7/7 8/8/8 9/9/9
f 10/10/10 11/11/11 12/12/12
f 13/13/13 14/14/14 15/15/15
f 16/16/16 17/17/17 18/18/18
f 19/19/19 20/20/20 21/21/21
f 22/22/22 23/23/23 24/24/24
f 25/25/25 26/26/26 27/27/27
f 28/28/28 29/29/29 30/30/30
f 31/31/31 32/32/32 33/33/33
f 34/34/34 35/35/35 36/36/36
f 37/37/37 38/38/38 39/39/39
f 40/40/40 41/41/41 42/42/42
f 43/43/43 44/44/44 45/45/45
f 46/46/46 47/47/47 48/48/48
f 49/49/49 50/50/50 51/51/51
f 52/52/52 53/53/53 54/54/54
f 55/55/55 56/56/56 57/57/57
f 58/58/58 59/59/59 60/60/60
f 61/61/61 62/62/62 63/63/63
f 64/64/64 65/65/65 66/66/66
f 67/67/67 68/68/68 69/69/69
f 70/70/70 71/71/71 72/72/72
f 73/73/73 74/74/74 75/75/75
f 76/76/76 77/77/77 78/78/78
f 79/79/79 80/80/80 81/81/81
f 82/82/82 83/83/83 84/84/84
f 85/85/85 86/86/86 87/87/87
f 88/88/88 89/89/89 90/90/90
f 91/91/91 92/92/92 93/93/93
f 94/94/94 95/95/95 96/96/96
f 97/97/97 98/98/98 99/99/99
f 100/100/100 101/101/101 102/102/102
f 103/103/103 104/104/104 105/105/105
f 106/106/106 107/107/107 108/108/108
f 109/109/109 110/110/110 111/111/111
f 112/112/112 113/113/113 114/114/114
f 115/115/115 116/116/116 117/117/117
f 118/118/118 119/119/119 120/120/120
f 121/121/121 122/122/122 123/123/123
f 124/124/124 125/125/125 126/126/126
