v 10.000000 3.000000 23.000000 
v 12.000000 13.000000 19.000000 
v -22.000000 -3.000000 -5.000000 
v 12.000000 13.000000 19.000000 
v -19.000000 6.000000 -8.000000 
v -22.000000 -3.000000 -5.000000 
v 12.000000 13.000000 19.000000 
v 16.000000 17.000000 10.000000 
v -19.000000 6.000000 -8.000000 
v 16.000000 17.000000 10.000000 
v -11.000000 11.000000 -14.000000 
v -19.000000 6.000000 -8.000000 
v 16.000000 17.000000 10.000000 
v 21.000000 13.000000 1.000000 
v -11.000000 11.000000 -14.000000 
v 21.000000 13.000000 1.000000 
v -4.000000 6.000000 -20.000000 
v -11.000000 11.000000 -14.000000 
v 21.000000 13.000000 1.000000 
v 22.000000 3.000000 -2.000000 
v -4.000000 6.000000 -20.000000 
v 22.000000 3.000000 -2.000000 
v 0.000000 -3.000000 -23.000000 
v -4.000000 6.000000 -20.000000 
v 22.000000 3.000000 -2.000000 
v 21.000000 -6.000000 1.000000 
v 0.000000 -3.000000 -23.000000 
v 21.000000 -6.000000 1.000000 
v -4.000000 -13.000000 -20.000000 
v 0.000000 -3.000000 -23.000000 
v 12.000000 -6.000000 19.000000 
v 10.000000 3.000000 23.000000 
v -19.000000 -13.000000 -8.000000 
v 10.000000 3.000000 23.000000 
v -22.000000 -3.000000 -5.000000 
v -19.000000 -13.000000 -8.000000 
v -11.000000 11.000000 -14.000000 
v -4.000000 6.000000 -20.000000 
v -19.000000 6.000000 -8.000000 
v -4.000000 6.000000 -20.000000 
v 0.000000 -3.000000 -23.000000 
v -22.000000 -3.000000 -5.000000 
v -19.000000 6.000000 -8.000000 
v -4.000000 6.000000 -20.000000 
v -22.000000 -3.000000 -5.000000 
v 12.000000 13.000000 19.000000 
v 21.000000 13.000000 1.000000 
v 16.000000 17.000000 10.000000 
v 10.000000 3.000000 23.000000 
v 22.000000 3.000000 -2.000000 
v 21.000000 13.000000 1.000000 
v 12.000000 13.000000 19.000000 
v 10.000000 3.000000 23.000000 
v 21.000000 13.000000 1.000000 
vn -0.633545 -0.136230 0.761475 
vn -0.592773 0.583740 0.554443 
vn -0.663574 0.132812 0.736084 
vn -0.592773 0.583740 0.554443 
vn -0.489990 0.784424 0.379639 
vn -0.663574 0.132812 0.736084 
vn -0.592773 0.583740 0.554443 
vn -0.215332 0.976318 0.013428 
vn -0.489990 0.784424 0.379639 
vn -0.215332 0.976318 0.013428 
vn -0.029785 0.975830 -0.216309 
vn -0.489990 0.784424 0.379639 
vn -0.215332 0.976318 0.013428 
vn 0.296143 0.785889 -0.542480 
vn -0.029785 0.975830 -0.216309 
vn 0.296143 0.785889 -0.542480 
vn 0.451660 0.586182 -0.672363 
vn -0.029785 0.975830 -0.216309 
vn 0.296143 0.785889 -0.542480 
vn 0.639893 0.137695 -0.755859 
vn 0.451660 0.586182 -0.672363 
vn 0.639893 0.137695 -0.755859 
vn 0.677734 -0.132080 -0.723145 
vn 0.451660 0.586182 -0.672363 
vn 0.639893 0.137695 -0.755859 
vn 0.668457 -0.371338 -0.644043 
vn 0.677734 -0.132080 -0.723145 
vn 0.668457 -0.371338 -0.644043 
vn 0.664795 -0.381104 -0.642334 
vn 0.677734 -0.132080 -0.723145 
vn -0.565186 -0.375488 0.734375 
vn -0.633545 -0.136230 0.761475 
vn -0.565918 -0.374268 0.734375 
vn -0.633545 -0.136230 0.761475 
vn -0.663574 0.132812 0.736084 
vn -0.565918 -0.374268 0.734375 
vn -0.623291 0.000000 -0.781738 
vn -0.623291 0.000000 -0.781738 
vn -0.623291 0.000000 -0.781738 
vn -0.623291 0.000000 -0.781738 
vn -0.623291 0.000000 -0.781738 
vn -0.623291 0.000000 -0.781738 
vn -0.623291 0.000000 -0.781738 
vn -0.623291 0.000000 -0.781738 
vn -0.623291 0.000000 -0.781738 
vn 0.900879 0.000000 0.433838 
vn 0.900879 0.000000 0.433838 
vn 0.900879 0.000000 0.433838 
vn 0.900879 0.000000 0.433838 
vn 0.900879 0.000000 0.433838 
vn 0.900879 0.000000 0.433838 
vn 0.900879 0.000000 0.433838 
vn 0.900879 0.000000 0.433838 
vn 0.900879 0.000000 0.433838 
vt 0.000000 1.000000 
vt 1.000000 1.000000 
vt 0.000000 -0.007874 
vt 1.000000 1.000000 
vt 1.000000 -0.007874 
vt 0.000000 -0.007874 
vt 0.000000 1.000000 
vt 1.000000 1.000000 
vt 0.000000 -0.007874 
vt 1.000000 1.000000 
vt 1.000000 -0.007874 
vt 0.000000 -0.007874 
vt 0.000000 1.000000 
vt 1.000000 1.000000 
vt 0.000000 -0.007874 
vt 1.000000 1.000000 
vt 1.000000 -0.007874 
vt 0.000000 -0.007874 
vt 0.000000 1.000000 
vt 1.000000 1.000000 
vt 0.000000 -0.007874 
vt 1.000000 1.000000 
vt 1.000000 -0.007874 
vt 0.000000 -0.007874 
vt 0.000000 1.000000 
vt 1.000000 1.000000 
vt 0.000000 -0.007874 
vt 1.000000 1.000000 
vt 1.000000 -0.007874 
vt 0.000000 -0.007874 
vt 0.000000 1.000000 
vt 1.000000 1.000000 
vt 0.000000 -0.007874 
vt 1.000000 1.000000 
vt 1.000000 -0.007874 
vt 0.000000 -0.007874 
vt 1.000000 -0.007874 
vt 1.000000 -0.007874 
vt 1.000000 -0.007874 
vt 1.000000 -0.007874 
vt 1.000000 -0.007874 
vt 0.000000 -0.007874 
vt 1.000000 -0.007874 
vt 1.000000 -0.007874 
vt 0.000000 -0.007874 
vt 1.000000 1.000000 
vt 1.000000 1.000000 
vt 1.000000 1.000000 
vt 0.000000 1.000000 
vt 1.000000 1.000000 
vt 1.000000 1.000000 
vt 1.000000 1.000000 
vt 0.000000 1.000000 
vt 1.000000 1.000000 
f 1/1/1 2/2/2 3/3/3
f 4/4/4 5/5/5 6/6/6
f 7/7/7 8/8/8 9/9/9
f 10/10/10 11/11/11 12/12/12
f 13/13/13 14/14/14 15/15/15
f 16/16/16 17/17/17 18/18/18
f 19/19/19 20/20/20 21/21/21
f 22/22/22 23/23/23 24/24/24
f 25/25/25 26/26/26 27/27/27
f 28/28/28 29/29/29 30/30/30
f 31/31/31 32/32/32 33/33/33
f 34/34/34 35/35/35 36/36/36
f 37/37/37 38/38/38 39/39/39
f 40/40/40 41/41/41 42/42/42
f 43/43/43 44/44/44 45/45/45
f 46/46/46 47/47/47 48/48/48
f 49/49/49 50/50/50 51/51/51
f 52/52/52 53/53/53 54/54/54
