v -69.000000 0.000000 6.000000 
v -72.000000 -5.000000 13.000000 
v -70.000000 -6.000000 27.000000 
v -70.000000 -6.000000 27.000000 
v -67.000000 0.000000 20.000000 
v -69.000000 0.000000 6.000000 
v 0.000000 2.000000 -8.000000 
v 0.000000 1.000000 2.000000 
v 1.000000 -1.000000 7.000000 
v 1.000000 -1.000000 7.000000 
v 0.000000 0.000000 -6.000000 
v 0.000000 2.000000 -8.000000 
v -43.000000 5.000000 10.000000 
v -67.000000 0.000000 20.000000 
v -70.000000 -6.000000 27.000000 
v -70.000000 -6.000000 27.000000 
v -44.000000 0.000000 12.000000 
v -43.000000 5.000000 10.000000 
v -20.000000 5.000000 3.000000 
v -43.000000 5.000000 10.000000 
v -44.000000 0.000000 12.000000 
v -44.000000 0.000000 12.000000 
v -20.000000 2.000000 5.000000 
v -20.000000 5.000000 3.000000 
v 0.000000 1.000000 2.000000 
v -20.000000 5.000000 3.000000 
v -20.000000 2.000000 5.000000 
v -20.000000 2.000000 5.000000 
v 1.000000 -1.000000 7.000000 
v 0.000000 1.000000 2.000000 
v -45.000000 5.000000 0.000000 
v -69.000000 0.000000 6.000000 
v -67.000000 0.000000 20.000000 
v -67.000000 0.000000 20.000000 
v -43.000000 5.000000 10.000000 
v -45.000000 5.000000 0.000000 
v -21.000000 6.000000 -3.000000 
v -45.000000 5.000000 0.000000 
v -43.000000 5.000000 10.000000 
v -43.000000 5.000000 10.000000 
v -20.000000 5.000000 3.000000 
v -21.000000 6.000000 -3.000000 
v 0.000000 2.000000 -8.000000 
v -21.000000 6.000000 -3.000000 
v -20.000000 5.000000 3.000000 
v -20.000000 5.000000 3.000000 
v 0.000000 1.000000 2.000000 
v 0.000000 2.000000 -8.000000 
v -45.000000 2.000000 5.000000 
v -72.000000 -5.000000 13.000000 
v -69.000000 0.000000 6.000000 
v -69.000000 0.000000 6.000000 
v -45.000000 5.000000 0.000000 
v -45.000000 2.000000 5.000000 
v -21.000000 1.000000 0.000000 
v -45.000000 2.000000 5.000000 
v -45.000000 5.000000 0.000000 
v -45.000000 5.000000 0.000000 
v -21.000000 6.000000 -3.000000 
v -21.000000 1.000000 0.000000 
v 0.000000 0.000000 -6.000000 
v -21.000000 1.000000 0.000000 
v -21.000000 6.000000 -3.000000 
v -21.000000 6.000000 -3.000000 
v 0.000000 2.000000 -8.000000 
v 0.000000 0.000000 -6.000000 
v -44.000000 0.000000 12.000000 
v -70.000000 -6.000000 27.000000 
v -72.000000 -5.000000 13.000000 
v -72.000000 -5.000000 13.000000 
v -45.000000 2.000000 5.000000 
v -44.000000 0.000000 12.000000 
v -20.000000 2.000000 5.000000 
v -44.000000 0.000000 12.000000 
v -45.000000 2.000000 5.000000 
v -45.000000 2.000000 5.000000 
v -21.000000 1.000000 0.000000 
v -20.000000 2.000000 5.000000 
v 1.000000 -1.000000 7.000000 
v -20.000000 2.000000 5.000000 
v -21.000000 1.000000 0.000000 
v -21.000000 1.000000 0.000000 
v 0.000000 0.000000 -6.000000 
v 1.000000 -1.000000 7.000000 
vn -0.839355 0.521484 0.152588 
vn -0.805420 0.567383 0.170166 
vn -0.839355 0.521484 0.152588 
vn -0.839355 0.521484 0.152588 
vn -0.870361 0.473633 0.134277 
vn -0.839355 0.521484 0.152588 
vn 0.987549 -0.004883 -0.156738 
vn 0.987549 -0.003906 -0.156494 
vn 0.987549 -0.004883 -0.156738 
vn 0.987549 -0.004883 -0.156738 
vn 0.987549 -0.005859 -0.156982 
vn 0.987549 -0.004883 -0.156738 
vn 0.329834 0.355469 0.874268 
vn 0.155273 0.657715 0.736816 
vn 0.347168 0.423584 0.836426 
vn 0.347168 0.423584 0.836426 
vn 0.330566 0.307129 0.892090 
vn 0.329834 0.355469 0.874268 
vn 0.208252 0.435059 0.875732 
vn 0.329834 0.355469 0.874268 
vn 0.330566 0.307129 0.892090 
vn 0.330566 0.307129 0.892090 
vn 0.155273 0.623291 0.766113 
vn 0.208252 0.435059 0.875732 
vn 0.145508 0.666260 0.730957 
vn 0.208252 0.435059 0.875732 
vn 0.155273 0.623291 0.766113 
vn 0.155273 0.623291 0.766113 
vn 0.134766 0.780029 0.610596 
vn 0.145508 0.666260 0.730957 
vn -0.187744 0.981934 0.020752 
vn -0.219482 0.973877 0.053955 
vn -0.236084 0.970947 0.035645 
vn -0.236084 0.970947 0.035645 
vn -0.110596 0.992432 0.050781 
vn -0.187744 0.981934 0.020752 
vn 0.073975 0.994141 0.076660 
vn -0.187744 0.981934 0.020752 
vn -0.110596 0.992432 0.050781 
vn -0.110596 0.992432 0.050781 
vn 0.181641 0.980225 0.076172 
vn 0.073975 0.994141 0.076660 
vn 0.264160 0.963379 0.041748 
vn 0.073975 0.994141 0.076660 
vn 0.181641 0.980225 0.076172 
vn 0.181641 0.980225 0.076172 
vn 0.231934 0.972656 -0.009033 
vn 0.264160 0.963379 0.041748 
vn -0.040283 -0.761475 -0.646484 
vn 0.025146 -0.717773 -0.695557 
vn 0.029785 -0.751465 -0.658936 
vn 0.029785 -0.751465 -0.658936 
vn -0.095215 -0.675293 -0.731201 
vn -0.040283 -0.761475 -0.646484 
vn -0.216553 -0.543701 -0.810547 
vn -0.040283 -0.761475 -0.646484 
vn -0.095215 -0.675293 -0.731201 
vn -0.095215 -0.675293 -0.731201 
vn -0.275146 -0.463867 -0.841797 
vn -0.216553 -0.543701 -0.810547 
vn -0.344238 -0.483643 -0.804688 
vn -0.216553 -0.543701 -0.810547 
vn -0.275146 -0.463867 -0.841797 
vn -0.275146 -0.463867 -0.841797 
vn -0.364502 -0.559570 -0.743896 
vn -0.344238 -0.483643 -0.804688 
vn 0.186035 -0.967041 -0.172852 
vn 0.261230 -0.960449 -0.094971 
vn 0.256836 -0.953857 -0.154297 
vn 0.256836 -0.953857 -0.154297 
vn 0.110840 -0.991699 -0.063721 
vn 0.186035 -0.967041 -0.172852 
vn -0.058105 -0.993164 0.100098 
vn 0.186035 -0.967041 -0.172852 
vn 0.110840 -0.991699 -0.063721 
vn 0.110840 -0.991699 -0.063721 
vn -0.112305 -0.983398 0.142090 
vn -0.058105 -0.993164 0.100098 
vn -0.183594 -0.978271 0.093506 
vn -0.058105 -0.993164 0.100098 
vn -0.112305 -0.983398 0.142090 
vn -0.112305 -0.983398 0.142090 
vn -0.120361 -0.989258 -0.079590 
vn -0.183594 -0.978271 0.093506 
vt 0.142857 0.365079 
vt 0.000000 0.492063 
vt 0.000000 0.333333 
vt 0.000000 0.333333 
vt 0.031746 0.333333 
vt 0.142857 0.365079 
vt 0.095238 0.968254 
vt 0.031746 0.984127 
vt 0.000000 0.984127 
vt 0.000000 0.984127 
vt 0.063492 0.968254 
vt 0.095238 0.968254 
vt 0.047619 0.539683 
vt 0.031746 0.333333 
vt 0.000000 0.333333 
vt 0.000000 0.333333 
vt 0.000000 0.539683 
vt 0.047619 0.539683 
vt 0.047619 0.777778 
vt 0.047619 0.539683 
vt 0.000000 0.539683 
vt 0.000000 0.539683 
vt 0.000000 0.777778 
vt 0.047619 0.777778 
vt 0.031746 0.984127 
vt 0.047619 0.777778 
vt 0.000000 0.777778 
vt 0.000000 0.777778 
vt 0.000000 0.984127 
vt 0.031746 0.984127 
vt 0.111111 0.555556 
vt 0.142857 0.365079 
vt 0.031746 0.333333 
vt 0.031746 0.333333 
vt 0.047619 0.539683 
vt 0.111111 0.555556 
vt 0.111111 0.809524 
vt 0.111111 0.555556 
vt 0.047619 0.539683 
vt 0.047619 0.539683 
vt 0.047619 0.777778 
vt 0.111111 0.809524 
vt 0.095238 0.968254 
vt 0.111111 0.809524 
vt 0.047619 0.777778 
vt 0.047619 0.777778 
vt 0.031746 0.984127 
vt 0.095238 0.968254 
vt 0.063492 0.539683 
vt 0.000000 0.492063 
vt 0.142857 0.365079 
vt 0.142857 0.365079 
vt 0.111111 0.555556 
vt 0.063492 0.539683 
vt 0.063492 0.777778 
vt 0.063492 0.539683 
vt 0.111111 0.555556 
vt 0.111111 0.555556 
vt 0.111111 0.809524 
vt 0.063492 0.777778 
vt 0.063492 0.968254 
vt 0.063492 0.777778 
vt 0.111111 0.809524 
vt 0.111111 0.809524 
vt 0.095238 0.968254 
vt 0.063492 0.968254 
vt 0.000000 0.539683 
vt 0.000000 0.333333 
vt 0.000000 0.492063 
vt 0.000000 0.492063 
vt 0.063492 0.539683 
vt 0.000000 0.539683 
vt 0.000000 0.777778 
vt 0.000000 0.539683 
vt 0.063492 0.539683 
vt 0.063492 0.539683 
vt 0.063492 0.777778 
vt 0.000000 0.777778 
vt 0.000000 0.984127 
vt 0.000000 0.777778 
vt 0.063492 0.777778 
vt 0.063492 0.777778 
vt 0.063492 0.968254 
vt 0.000000 0.984127 
f 1/1/1 2/2/2 3/3/3
f 4/4/4 5/5/5 6/6/6
f 7/7/7 8/8/8 9/9/9
f 10/10/10 11/11/11 12/12/12
f 13/13/13 14/14/14 15/15/15
f 16/16/16 17/17/17 18/18/18
f 19/19/19 20/20/20 21/21/21
f 22/22/22 23/23/23 24/24/24
f 25/25/25 26/26/26 27/27/27
f 28/28/28 29/29/29 30/30/30
f 31/31/31 32/32/32 33/33/33
f 34/34/34 35/35/35 36/36/36
f 37/37/37 38/38/38 39/39/39
f 40/40/40 41/41/41 42/42/42
f 43/43/43 44/44/44 45/45/45
f 46/46/46 47/47/47 48/48/48
f 49/49/49 50/50/50 51/51/51
f 52/52/52 53/53/53 54/54/54
f 55/55/55 56/56/56 57/57/57
f 58/58/58 59/59/59 60/60/60
f 61/61/61 62/62/62 63/63/63
f 64/64/64 65/65/65 66/66/66
f 67/67/67 68/68/68 69/69/69
f 70/70/70 71/71/71 72/72/72
f 73/73/73 74/74/74 75/75/75
f 76/76/76 77/77/77 78/78/78
f 79/79/79 80/80/80 81/81/81
f 82/82/82 83/83/83 84/84/84
