v 0.000000 28.000000 10.000000 
v 0.000000 24.000000 18.000000 
v 7.000000 26.000000 14.000000 
v 0.000000 28.000000 10.000000 
v 7.000000 26.000000 14.000000 
v 9.000000 23.000000 2.000000 
v 0.000000 28.000000 10.000000 
v 9.000000 23.000000 2.000000 
v 0.000000 24.000000 0.000000 
v 0.000000 28.000000 10.000000 
v 0.000000 24.000000 0.000000 
v -9.000000 23.000000 2.000000 
v 0.000000 28.000000 10.000000 
v -9.000000 23.000000 2.000000 
v -7.000000 26.000000 14.000000 
v 0.000000 28.000000 10.000000 
v -7.000000 26.000000 14.000000 
v 0.000000 24.000000 18.000000 
v 0.000000 24.000000 18.000000 
v 0.000000 -13.000000 9.000000 
v 9.000000 -7.000000 4.000000 
v 0.000000 24.000000 18.000000 
v 9.000000 -7.000000 4.000000 
v 7.000000 26.000000 14.000000 
v 7.000000 26.000000 14.000000 
v 9.000000 -7.000000 4.000000 
v 12.000000 3.000000 -2.000000 
v 7.000000 26.000000 14.000000 
v 12.000000 3.000000 -2.000000 
v 9.000000 23.000000 2.000000 
v 9.000000 23.000000 2.000000 
v 12.000000 3.000000 -2.000000 
v 0.000000 4.000000 -5.000000 
v 9.000000 23.000000 2.000000 
v 0.000000 4.000000 -5.000000 
v 0.000000 24.000000 0.000000 
v 0.000000 24.000000 0.000000 
v 0.000000 4.000000 -5.000000 
v -12.000000 3.000000 -2.000000 
v 0.000000 24.000000 0.000000 
v -12.000000 3.000000 -2.000000 
v -9.000000 23.000000 2.000000 
v -9.000000 23.000000 2.000000 
v -12.000000 3.000000 -2.000000 
v -9.000000 -7.000000 4.000000 
v -9.000000 23.000000 2.000000 
v -9.000000 -7.000000 4.000000 
v -7.000000 26.000000 14.000000 
v -7.000000 26.000000 14.000000 
v -9.000000 -7.000000 4.000000 
v 0.000000 -13.000000 9.000000 
v -7.000000 26.000000 14.000000 
v 0.000000 -13.000000 9.000000 
v 0.000000 24.000000 18.000000 
v 0.000000 -9.000000 -4.000000 
v 9.000000 -7.000000 4.000000 
v 0.000000 -13.000000 9.000000 
v 0.000000 -9.000000 -4.000000 
v 12.000000 3.000000 -2.000000 
v 9.000000 -7.000000 4.000000 
v 0.000000 -9.000000 -4.000000 
v 0.000000 4.000000 -5.000000 
v 12.000000 3.000000 -2.000000 
v 0.000000 -9.000000 -4.000000 
v -12.000000 3.000000 -2.000000 
v 0.000000 4.000000 -5.000000 
v 0.000000 -9.000000 -4.000000 
v -9.000000 -7.000000 4.000000 
v -12.000000 3.000000 -2.000000 
v 0.000000 -9.000000 -4.000000 
v 0.000000 -13.000000 9.000000 
v -9.000000 -7.000000 4.000000 
vn 0.000000 0.999756 0.012695 
vn 0.147949 0.309082 0.939209 
vn 0.768799 0.443848 0.459961 
vn 0.000000 0.999756 0.012695 
vn 0.768799 0.443848 0.459961 
vn 0.530518 0.640137 -0.555420 
vn 0.000000 0.999756 0.012695 
vn 0.530518 0.640137 -0.555420 
vn -0.063721 0.607910 -0.791260 
vn 0.000000 0.999756 0.012695 
vn -0.063721 0.607910 -0.791260 
vn -0.762939 0.605225 -0.227051 
vn 0.000000 0.999756 0.012695 
vn -0.762939 0.605225 -0.227051 
vn -0.677734 0.393311 0.621094 
vn 0.000000 0.999756 0.012695 
vn -0.677734 0.393311 0.621094 
vn 0.147949 0.309082 0.939209 
vn 0.147949 0.309082 0.939209 
vn -0.163086 -0.759521 0.629395 
vn 0.818848 -0.487061 0.302979 
vn 0.147949 0.309082 0.939209 
vn 0.818848 -0.487061 0.302979 
vn 0.768799 0.443848 0.459961 
vn 0.768799 0.443848 0.459961 
vn 0.818848 -0.487061 0.302979 
vn 0.842773 -0.083252 -0.531250 
vn 0.768799 0.443848 0.459961 
vn 0.842773 -0.083252 -0.531250 
vn 0.530518 0.640137 -0.555420 
vn 0.530518 0.640137 -0.555420 
vn 0.842773 -0.083252 -0.531250 
vn 0.051270 0.138184 -0.989014 
vn 0.530518 0.640137 -0.555420 
vn 0.051270 0.138184 -0.989014 
vn -0.063721 0.607910 -0.791260 
vn -0.063721 0.607910 -0.791260 
vn 0.051270 0.138184 -0.989014 
vn -0.617432 -0.015869 -0.786133 
vn -0.063721 0.607910 -0.791260 
vn -0.617432 -0.015869 -0.786133 
vn -0.762939 0.605225 -0.227051 
vn -0.762939 0.605225 -0.227051 
vn -0.617432 -0.015869 -0.786133 
vn -0.905273 -0.399902 0.141846 
vn -0.762939 0.605225 -0.227051 
vn -0.905273 -0.399902 0.141846 
vn -0.677734 0.393311 0.621094 
vn -0.677734 0.393311 0.621094 
vn -0.905273 -0.399902 0.141846 
vn -0.163086 -0.759521 0.629395 
vn -0.677734 0.393311 0.621094 
vn -0.163086 -0.759521 0.629395 
vn 0.147949 0.309082 0.939209 
vn 0.000000 -0.621094 -0.783447 
vn 0.818848 -0.487061 0.302979 
vn -0.163086 -0.759521 0.629395 
vn 0.000000 -0.621094 -0.783447 
vn 0.842773 -0.083252 -0.531250 
vn 0.818848 -0.487061 0.302979 
vn 0.000000 -0.621094 -0.783447 
vn 0.051270 0.138184 -0.989014 
vn 0.842773 -0.083252 -0.531250 
vn 0.000000 -0.621094 -0.783447 
vn -0.617432 -0.015869 -0.786133 
vn 0.051270 0.138184 -0.989014 
vn 0.000000 -0.621094 -0.783447 
vn -0.905273 -0.399902 0.141846 
vn -0.617432 -0.015869 -0.786133 
vn 0.000000 -0.621094 -0.783447 
vn -0.163086 -0.759521 0.629395 
vn -0.905273 -0.399902 0.141846 
vt 0.193548 0.806452 
vt 0.193548 0.806452 
vt 0.064516 0.806452 
vt 0.193548 0.806452 
vt 0.064516 0.806452 
vt 0.032258 0.709677 
vt 0.193548 0.806452 
vt 0.032258 0.709677 
vt 0.193548 0.709677 
vt 0.193548 0.806452 
vt 0.193548 0.709677 
vt 0.322581 0.709677 
vt 0.193548 0.806452 
vt 0.322581 0.709677 
vt 0.290323 0.806452 
vt 0.193548 0.806452 
vt 0.290323 0.806452 
vt 0.193548 0.806452 
vt 0.193548 0.806452 
vt 0.193548 0.258065 
vt 0.032258 0.290323 
vt 0.193548 0.806452 
vt 0.032258 0.290323 
vt 0.064516 0.806452 
vt 0.064516 0.806452 
vt 0.032258 0.290323 
vt 0.000000 0.387097 
vt 0.064516 0.806452 
vt 0.000000 0.387097 
vt 0.032258 0.709677 
vt 0.032258 0.709677 
vt 0.000000 0.387097 
vt 0.193548 0.387097 
vt 0.032258 0.709677 
vt 0.193548 0.387097 
vt 0.193548 0.709677 
vt 0.193548 0.709677 
vt 0.193548 0.387097 
vt 0.354839 0.387097 
vt 0.193548 0.709677 
vt 0.354839 0.387097 
vt 0.322581 0.709677 
vt 0.322581 0.709677 
vt 0.354839 0.387097 
vt 0.322581 0.290323 
vt 0.322581 0.709677 
vt 0.322581 0.290323 
vt 0.290323 0.806452 
vt 0.290323 0.806452 
vt 0.322581 0.290323 
vt 0.193548 0.258065 
vt 0.290323 0.806452 
vt 0.193548 0.258065 
vt 0.193548 0.806452 
vt 0.193548 0.225806 
vt 0.032258 0.290323 
vt 0.193548 0.258065 
vt 0.193548 0.225806 
vt 0.000000 0.387097 
vt 0.032258 0.290323 
vt 0.193548 0.225806 
vt 0.193548 0.387097 
vt 0.000000 0.387097 
vt 0.193548 0.225806 
vt 0.354839 0.387097 
vt 0.193548 0.387097 
vt 0.193548 0.225806 
vt 0.322581 0.290323 
vt 0.354839 0.387097 
vt 0.193548 0.225806 
vt 0.193548 0.258065 
vt 0.322581 0.290323 
f 1/1/1 2/2/2 3/3/3
f 4/4/4 5/5/5 6/6/6
f 7/7/7 8/8/8 9/9/9
f 10/10/10 11/11/11 12/12/12
f 13/13/13 14/14/14 15/15/15
f 16/16/16 17/17/17 18/18/18
f 19/19/19 20/20/20 21/21/21
f 22/22/22 23/23/23 24/24/24
f 25/25/25 26/26/26 27/27/27
f 28/28/28 29/29/29 30/30/30
f 31/31/31 32/32/32 33/33/33
f 34/34/34 35/35/35 36/36/36
f 37/37/37 38/38/38 39/39/39
f 40/40/40 41/41/41 42/42/42
f 43/43/43 44/44/44 45/45/45
f 46/46/46 47/47/47 48/48/48
f 49/49/49 50/50/50 51/51/51
f 52/52/52 53/53/53 54/54/54
f 55/55/55 56/56/56 57/57/57
f 58/58/58 59/59/59 60/60/60
f 61/61/61 62/62/62 63/63/63
f 64/64/64 65/65/65 66/66/66
f 67/67/67 68/68/68 69/69/69
f 70/70/70 71/71/71 72/72/72
