v 36.000000 4.000000 -2.000000 
v 35.000000 1.000000 -7.000000 
v 11.000000 5.000000 -1.000000 
v 35.000000 1.000000 -7.000000 
v 12.000000 2.000000 -8.000000 
v 11.000000 5.000000 -1.000000 
v 36.000000 4.000000 -2.000000 
v 11.000000 5.000000 -1.000000 
v 8.000000 2.000000 4.000000 
v 35.000000 1.000000 -7.000000 
v 35.000000 -3.000000 -7.000000 
v 12.000000 2.000000 -8.000000 
v 35.000000 -3.000000 -7.000000 
v 12.000000 -4.000000 -8.000000 
v 12.000000 2.000000 -8.000000 
v 35.000000 -3.000000 -7.000000 
v 36.000000 -6.000000 -2.000000 
v 12.000000 -4.000000 -8.000000 
v 36.000000 -6.000000 -2.000000 
v 11.000000 -8.000000 -1.000000 
v 12.000000 -4.000000 -8.000000 
v 36.000000 -6.000000 -2.000000 
v 36.000000 -3.000000 2.000000 
v 11.000000 -8.000000 -1.000000 
v 36.000000 -3.000000 2.000000 
v 8.000000 -4.000000 4.000000 
v 11.000000 -8.000000 -1.000000 
v 36.000000 -3.000000 2.000000 
v 36.000000 1.000000 2.000000 
v 8.000000 -4.000000 4.000000 
v 36.000000 1.000000 2.000000 
v 8.000000 2.000000 4.000000 
v 8.000000 -4.000000 4.000000 
v 36.000000 1.000000 2.000000 
v 36.000000 4.000000 -2.000000 
v 8.000000 2.000000 4.000000 
v 58.000000 4.000000 -1.000000 
v 64.000000 1.000000 -4.000000 
v 36.000000 4.000000 -2.000000 
v 64.000000 1.000000 -4.000000 
v 35.000000 1.000000 -7.000000 
v 36.000000 4.000000 -2.000000 
v 58.000000 4.000000 -1.000000 
v 36.000000 4.000000 -2.000000 
v 36.000000 1.000000 2.000000 
v 64.000000 1.000000 -4.000000 
v 64.000000 -3.000000 -4.000000 
v 35.000000 1.000000 -7.000000 
v 64.000000 -3.000000 -4.000000 
v 35.000000 -3.000000 -7.000000 
v 35.000000 1.000000 -7.000000 
v 64.000000 -3.000000 -4.000000 
v 58.000000 -6.000000 -1.000000 
v 35.000000 -3.000000 -7.000000 
v 58.000000 -6.000000 -1.000000 
v 36.000000 -6.000000 -2.000000 
v 35.000000 -3.000000 -7.000000 
v 58.000000 -6.000000 -1.000000 
v 50.000000 -3.000000 4.000000 
v 36.000000 -6.000000 -2.000000 
v 50.000000 -3.000000 4.000000 
v 36.000000 -3.000000 2.000000 
v 36.000000 -6.000000 -2.000000 
v 50.000000 -3.000000 4.000000 
v 50.000000 1.000000 4.000000 
v 36.000000 -3.000000 2.000000 
v 50.000000 1.000000 4.000000 
v 36.000000 1.000000 2.000000 
v 36.000000 -3.000000 2.000000 
v 50.000000 1.000000 4.000000 
v 58.000000 4.000000 -1.000000 
v 36.000000 1.000000 2.000000 
vn 0.054199 0.997070 -0.049561 
vn -0.185303 0.399658 -0.897461 
vn 0.011230 0.961182 -0.275635 
vn -0.185303 0.399658 -0.897461 
vn -0.218018 0.262207 -0.939941 
vn 0.011230 0.961182 -0.275635 
vn 0.054199 0.997070 -0.049561 
vn 0.011230 0.961182 -0.275635 
vn 0.328613 0.538330 0.775879 
vn -0.185303 0.399658 -0.897461 
vn -0.199707 -0.381104 -0.902344 
vn -0.218018 0.262207 -0.939941 
vn -0.199707 -0.381104 -0.902344 
vn -0.177246 -0.541260 -0.821777 
vn -0.218018 0.262207 -0.939941 
vn -0.199707 -0.381104 -0.902344 
vn 0.018311 -0.999268 -0.028320 
vn -0.177246 -0.541260 -0.821777 
vn 0.018311 -0.999268 -0.028320 
vn 0.169678 -0.958008 0.230713 
vn -0.177246 -0.541260 -0.821777 
vn 0.018311 -0.999268 -0.028320 
vn 0.229736 -0.399902 0.886963 
vn 0.169678 -0.958008 0.230713 
vn 0.229736 -0.399902 0.886963 
vn 0.362061 -0.256836 0.895752 
vn 0.169678 -0.958008 0.230713 
vn 0.229736 -0.399902 0.886963 
vn 0.256104 0.422852 0.869141 
vn 0.362061 -0.256836 0.895752 
vn 0.256104 0.422852 0.869141 
vn 0.328613 0.538330 0.775879 
vn 0.362061 -0.256836 0.895752 
vn 0.256104 0.422852 0.869141 
vn 0.054199 0.997070 -0.049561 
vn 0.328613 0.538330 0.775879 
vn 0.014893 0.987793 0.153809 
vn -0.178955 0.494385 -0.850342 
vn 0.054199 0.997070 -0.049561 
vn -0.178955 0.494385 -0.850342 
vn -0.185303 0.399658 -0.897461 
vn 0.054199 0.997070 -0.049561 
vn 0.014893 0.987793 0.153809 
vn 0.054199 0.997070 -0.049561 
vn 0.256104 0.422852 0.869141 
vn -0.178955 0.494385 -0.850342 
vn -0.189209 -0.228760 -0.954834 
vn -0.185303 0.399658 -0.897461 
vn -0.189209 -0.228760 -0.954834 
vn -0.199707 -0.381104 -0.902344 
vn -0.185303 0.399658 -0.897461 
vn -0.189209 -0.228760 -0.954834 
vn -0.070068 -0.936035 -0.344482 
vn -0.199707 -0.381104 -0.902344 
vn -0.070068 -0.936035 -0.344482 
vn 0.018311 -0.999268 -0.028320 
vn -0.199707 -0.381104 -0.902344 
vn -0.070068 -0.936035 -0.344482 
vn 0.127197 -0.566895 0.813721 
vn 0.018311 -0.999268 -0.028320 
vn 0.127197 -0.566895 0.813721 
vn 0.229736 -0.399902 0.886963 
vn 0.018311 -0.999268 -0.028320 
vn 0.127197 -0.566895 0.813721 
vn 0.125244 0.296143 0.946777 
vn 0.229736 -0.399902 0.886963 
vn 0.125244 0.296143 0.946777 
vn 0.256104 0.422852 0.869141 
vn 0.229736 -0.399902 0.886963 
vn 0.125244 0.296143 0.946777 
vn 0.014893 0.987793 0.153809 
vn 0.256104 0.422852 0.869141 
vt 0.283465 0.330709 
vt 0.220472 0.330709 
vt 0.283465 0.094488 
vt 0.220472 0.330709 
vt 0.220472 0.110236 
vt 0.283465 0.094488 
vt 0.283465 0.330709 
vt 0.283465 0.094488 
vt 0.220472 0.062992 
vt 0.220472 0.330709 
vt 0.102362 0.330709 
vt 0.220472 0.110236 
vt 0.102362 0.330709 
vt 0.102362 0.110236 
vt 0.220472 0.110236 
vt 0.102362 0.330709 
vt 0.039370 0.330709 
vt 0.102362 0.110236 
vt 0.039370 0.330709 
vt 0.039370 0.094488 
vt 0.102362 0.110236 
vt 0.039370 0.330709 
vt 0.102362 0.330709 
vt 0.039370 0.094488 
vt 0.102362 0.330709 
vt 0.102362 0.062992 
vt 0.039370 0.094488 
vt 0.102362 0.330709 
vt 0.220472 0.330709 
vt 0.102362 0.062992 
vt 0.220472 0.330709 
vt 0.220472 0.062992 
vt 0.102362 0.062992 
vt 0.220472 0.330709 
vt 0.283465 0.330709 
vt 0.220472 0.062992 
vt 0.283465 0.527559 
vt 0.220472 0.582677 
vt 0.283465 0.330709 
vt 0.220472 0.582677 
vt 0.220472 0.330709 
vt 0.283465 0.330709 
vt 0.283465 0.527559 
vt 0.283465 0.330709 
vt 0.220472 0.330709 
vt 0.220472 0.582677 
vt 0.102362 0.582677 
vt 0.220472 0.330709 
vt 0.102362 0.582677 
vt 0.102362 0.330709 
vt 0.220472 0.330709 
vt 0.102362 0.582677 
vt 0.039370 0.527559 
vt 0.102362 0.330709 
vt 0.039370 0.527559 
vt 0.039370 0.330709 
vt 0.102362 0.330709 
vt 0.039370 0.527559 
vt 0.102362 0.456693 
vt 0.039370 0.330709 
vt 0.102362 0.456693 
vt 0.102362 0.330709 
vt 0.039370 0.330709 
vt 0.102362 0.456693 
vt 0.220472 0.456693 
vt 0.102362 0.330709 
vt 0.220472 0.456693 
vt 0.220472 0.330709 
vt 0.102362 0.330709 
vt 0.220472 0.456693 
vt 0.283465 0.527559 
vt 0.220472 0.330709 
f 1/1/1 2/2/2 3/3/3
f 4/4/4 5/5/5 6/6/6
f 7/7/7 8/8/8 9/9/9
f 10/10/10 11/11/11 12/12/12
f 13/13/13 14/14/14 15/15/15
f 16/16/16 17/17/17 18/18/18
f 19/19/19 20/20/20 21/21/21
f 22/22/22 23/23/23 24/24/24
f 25/25/25 26/26/26 27/27/27
f 28/28/28 29/29/29 30/30/30
f 31/31/31 32/32/32 33/33/33
f 34/34/34 35/35/35 36/36/36
f 37/37/37 38/38/38 39/39/39
f 40/40/40 41/41/41 42/42/42
f 43/43/43 44/44/44 45/45/45
f 46/46/46 47/47/47 48/48/48
f 49/49/49 50/50/50 51/51/51
f 52/52/52 53/53/53 54/54/54
f 55/55/55 56/56/56 57/57/57
f 58/58/58 59/59/59 60/60/60
f 61/61/61 62/62/62 63/63/63
f 64/64/64 65/65/65 66/66/66
f 67/67/67 68/68/68 69/69/69
f 70/70/70 71/71/71 72/72/72
