v -12.000000 -3.000000 -25.000000 
v -6.000000 -13.000000 -30.000000 
v -8.000000 -9.000000 -3.000000 
v -8.000000 -9.000000 -3.000000 
v -6.000000 -13.000000 -30.000000 
v 4.000000 -16.000000 -33.000000 
v 4.000000 -16.000000 -33.000000 
v 4.000000 -13.000000 -11.000000 
v -8.000000 -9.000000 -3.000000 
v -14.000000 -4.000000 -48.000000 
v -7.000000 -13.000000 -46.000000 
v -6.000000 -13.000000 -30.000000 
v 4.000000 -16.000000 -33.000000 
v -6.000000 -13.000000 -30.000000 
v -7.000000 -13.000000 -46.000000 
v -6.000000 -13.000000 -30.000000 
v -12.000000 -3.000000 -25.000000 
v -14.000000 -4.000000 -48.000000 
v -10.000000 4.000000 -49.000000 
v -14.000000 -4.000000 -48.000000 
v -12.000000 -3.000000 -25.000000 
v -12.000000 -3.000000 -25.000000 
v -9.000000 7.000000 -26.000000 
v -10.000000 4.000000 -49.000000 
vn -0.994873 -0.093994 0.033203 
vn -0.630127 -0.773193 0.069824 
vn -0.645508 -0.759521 -0.079102 
vn -0.645508 -0.759521 -0.079102 
vn -0.630127 -0.773193 0.069824 
vn 0.064209 -0.996582 0.047363 
vn 0.064209 -0.996582 0.047363 
vn 0.083008 -0.994629 -0.058350 
vn -0.645508 -0.759521 -0.079102 
vn -0.992432 -0.111572 0.047119 
vn -0.566650 -0.819336 0.084473 
vn -0.630127 -0.773193 0.069824 
vn 0.064209 -0.996582 0.047363 
vn -0.630127 -0.773193 0.069824 
vn -0.566650 -0.819336 0.084473 
vn -0.630127 -0.773193 0.069824 
vn -0.994873 -0.093994 0.033203 
vn -0.992432 -0.111572 0.047119 
vn -0.769531 0.635010 -0.065674 
vn -0.992432 -0.111572 0.047119 
vn -0.994873 -0.093994 0.033203 
vn -0.994873 -0.093994 0.033203 
vn -0.770508 0.633301 -0.071045 
vn -0.769531 0.635010 -0.065674 
vt 0.188235 0.513725 
vt 0.196078 0.529412 
vt 0.211765 0.498039 
vt 0.211765 0.498039 
vt 0.196078 0.529412 
vt 0.215686 0.549020 
vt 0.215686 0.549020 
vt 0.235294 0.525490 
vt 0.211765 0.498039 
vt 0.149020 0.568627 
vt 0.168627 0.568627 
vt 0.196078 0.529412 
vt 0.215686 0.549020 
vt 0.196078 0.529412 
vt 0.211765 0.603922 
vt 0.196078 0.529412 
vt 0.188235 0.513725 
vt 0.149020 0.568627 
vt 0.152941 0.584314 
vt 0.149020 0.568627 
vt 0.188235 0.513725 
vt 0.188235 0.513725 
vt 0.192157 0.525490 
vt 0.152941 0.584314 
f 1/1/1 2/2/2 3/3/3
f 4/4/4 5/5/5 6/6/6
f 7/7/7 8/8/8 9/9/9
f 10/10/10 11/11/11 12/12/12
f 13/13/13 14/14/14 15/15/15
f 16/16/16 17/17/17 18/18/18
f 19/19/19 20/20/20 21/21/21
f 22/22/22 23/23/23 24/24/24
