v 0.000000 21.000000 -13.000000 
v 0.000000 21.000000 -5.000000 
v 6.000000 19.000000 -8.000000 
v 0.000000 21.000000 -13.000000 
v 6.000000 19.000000 -8.000000 
v 8.000000 14.000000 -16.000000 
v 0.000000 21.000000 -13.000000 
v 8.000000 14.000000 -16.000000 
v 0.000000 13.000000 -17.000000 
v 0.000000 21.000000 -13.000000 
v 0.000000 13.000000 -17.000000 
v -8.000000 14.000000 -16.000000 
v 0.000000 21.000000 -13.000000 
v -8.000000 14.000000 -16.000000 
v -6.000000 19.000000 -8.000000 
v 0.000000 21.000000 -13.000000 
v -6.000000 19.000000 -8.000000 
v 0.000000 21.000000 -5.000000 
v 0.000000 21.000000 -5.000000 
v 0.000000 2.000000 9.000000 
v 8.000000 0.000000 6.000000 
v 0.000000 21.000000 -5.000000 
v 8.000000 0.000000 6.000000 
v 6.000000 19.000000 -8.000000 
v 6.000000 19.000000 -8.000000 
v 8.000000 0.000000 6.000000 
v 10.000000 -3.000000 -2.000000 
v 6.000000 19.000000 -8.000000 
v 10.000000 -3.000000 -2.000000 
v 8.000000 14.000000 -16.000000 
v 8.000000 14.000000 -16.000000 
v 10.000000 -3.000000 -2.000000 
v 0.000000 -4.000000 -5.000000 
v 8.000000 14.000000 -16.000000 
v 0.000000 -4.000000 -5.000000 
v 0.000000 13.000000 -17.000000 
v 0.000000 13.000000 -17.000000 
v 0.000000 -4.000000 -5.000000 
v -10.000000 -3.000000 -2.000000 
v 0.000000 13.000000 -17.000000 
v -10.000000 -3.000000 -2.000000 
v -8.000000 14.000000 -16.000000 
v -8.000000 14.000000 -16.000000 
v -10.000000 -3.000000 -2.000000 
v -8.000000 0.000000 6.000000 
v -8.000000 14.000000 -16.000000 
v -8.000000 0.000000 6.000000 
v -6.000000 19.000000 -8.000000 
v -6.000000 19.000000 -8.000000 
v -8.000000 0.000000 6.000000 
v 0.000000 2.000000 9.000000 
v -6.000000 19.000000 -8.000000 
v 0.000000 2.000000 9.000000 
v 0.000000 21.000000 -5.000000 
v 0.000000 -7.000000 5.000000 
v 8.000000 0.000000 6.000000 
v 0.000000 2.000000 9.000000 
v 0.000000 -7.000000 5.000000 
v 10.000000 -3.000000 -2.000000 
v 8.000000 0.000000 6.000000 
v 0.000000 -7.000000 5.000000 
v 0.000000 -4.000000 -5.000000 
v 10.000000 -3.000000 -2.000000 
v 0.000000 -7.000000 5.000000 
v -10.000000 -3.000000 -2.000000 
v 0.000000 -4.000000 -5.000000 
v 0.000000 -7.000000 5.000000 
v -8.000000 0.000000 6.000000 
v -10.000000 -3.000000 -2.000000 
v 0.000000 -7.000000 5.000000 
v 0.000000 2.000000 9.000000 
v -8.000000 0.000000 6.000000 
vn 0.000000 0.857178 -0.514648 
vn 0.123535 0.863525 0.488770 
vn 0.763428 0.631104 0.136475 
vn 0.000000 0.857178 -0.514648 
vn 0.763428 0.631104 0.136475 
vn 0.614014 0.091553 -0.783691 
vn 0.000000 0.857178 -0.514648 
vn 0.614014 0.091553 -0.783691 
vn -0.066162 -0.176514 -0.981934 
vn 0.000000 0.857178 -0.514648 
vn -0.066162 -0.176514 -0.981934 
vn -0.809570 0.309326 -0.498535 
vn 0.000000 0.857178 -0.514648 
vn -0.809570 0.309326 -0.498535 
vn -0.660156 0.704346 0.260254 
vn 0.000000 0.857178 -0.514648 
vn -0.660156 0.704346 0.260254 
vn 0.123535 0.863525 0.488770 
vn 0.123535 0.863525 0.488770 
vn -0.128418 0.178955 0.975342 
vn 0.710205 0.023926 0.703369 
vn 0.123535 0.863525 0.488770 
vn 0.710205 0.023926 0.703369 
vn 0.763428 0.631104 0.136475 
vn 0.763428 0.631104 0.136475 
vn 0.710205 0.023926 0.703369 
vn 0.852295 -0.511719 -0.107422 
vn 0.763428 0.631104 0.136475 
vn 0.852295 -0.511719 -0.107422 
vn 0.614014 0.091553 -0.783691 
vn 0.614014 0.091553 -0.783691 
vn 0.852295 -0.511719 -0.107422 
vn 0.054199 -0.769043 -0.636475 
vn 0.614014 0.091553 -0.783691 
vn 0.054199 -0.769043 -0.636475 
vn -0.066162 -0.176514 -0.981934 
vn -0.066162 -0.176514 -0.981934 
vn 0.054199 -0.769043 -0.636475 
vn -0.627197 -0.691650 -0.357910 
vn -0.066162 -0.176514 -0.981934 
vn -0.627197 -0.691650 -0.357910 
vn -0.809570 0.309326 -0.498535 
vn -0.809570 0.309326 -0.498535 
vn -0.627197 -0.691650 -0.357910 
vn -0.827148 -0.056885 0.558838 
vn -0.809570 0.309326 -0.498535 
vn -0.827148 -0.056885 0.558838 
vn -0.660156 0.704346 0.260254 
vn -0.660156 0.704346 0.260254 
vn -0.827148 -0.056885 0.558838 
vn -0.128418 0.178955 0.975342 
vn -0.660156 0.704346 0.260254 
vn -0.128418 0.178955 0.975342 
vn 0.123535 0.863525 0.488770 
vn 0.000000 -0.911133 0.411621 
vn 0.710205 0.023926 0.703369 
vn -0.128418 0.178955 0.975342 
vn 0.000000 -0.911133 0.411621 
vn 0.852295 -0.511719 -0.107422 
vn 0.710205 0.023926 0.703369 
vn 0.000000 -0.911133 0.411621 
vn 0.054199 -0.769043 -0.636475 
vn 0.852295 -0.511719 -0.107422 
vn 0.000000 -0.911133 0.411621 
vn -0.627197 -0.691650 -0.357910 
vn 0.054199 -0.769043 -0.636475 
vn 0.000000 -0.911133 0.411621 
vn -0.827148 -0.056885 0.558838 
vn -0.627197 -0.691650 -0.357910 
vn 0.000000 -0.911133 0.411621 
vn -0.128418 0.178955 0.975342 
vn -0.827148 -0.056885 0.558838 
vt 0.161290 0.967742 
vt 0.161290 0.935484 
vt 0.064516 0.935484 
vt 0.161290 0.967742 
vt 0.064516 0.935484 
vt 0.032258 0.935484 
vt 0.161290 0.967742 
vt 0.032258 0.935484 
vt 0.161290 0.935484 
vt 0.161290 0.967742 
vt 0.161290 0.935484 
vt 0.322581 0.935484 
vt 0.161290 0.967742 
vt 0.322581 0.935484 
vt 0.290323 0.935484 
vt 0.161290 0.967742 
vt 0.290323 0.935484 
vt 0.161290 0.935484 
vt 0.161290 0.935484 
vt 0.161290 0.709677 
vt 0.032258 0.709677 
vt 0.161290 0.935484 
vt 0.032258 0.709677 
vt 0.064516 0.935484 
vt 0.064516 0.935484 
vt 0.032258 0.709677 
vt 0.000000 0.741935 
vt 0.064516 0.935484 
vt 0.000000 0.741935 
vt 0.032258 0.935484 
vt 0.032258 0.935484 
vt 0.000000 0.741935 
vt 0.161290 0.741935 
vt 0.032258 0.935484 
vt 0.161290 0.741935 
vt 0.161290 0.935484 
vt 0.161290 0.935484 
vt 0.161290 0.741935 
vt 0.354839 0.741935 
vt 0.161290 0.935484 
vt 0.354839 0.741935 
vt 0.322581 0.935484 
vt 0.322581 0.935484 
vt 0.354839 0.741935 
vt 0.290323 0.709677 
vt 0.322581 0.935484 
vt 0.290323 0.709677 
vt 0.290323 0.935484 
vt 0.290323 0.935484 
vt 0.290323 0.709677 
vt 0.161290 0.709677 
vt 0.290323 0.935484 
vt 0.161290 0.709677 
vt 0.161290 0.935484 
vt 0.161290 0.677419 
vt 0.032258 0.709677 
vt 0.161290 0.709677 
vt 0.161290 0.677419 
vt 0.000000 0.741935 
vt 0.032258 0.709677 
vt 0.161290 0.677419 
vt 0.161290 0.741935 
vt 0.000000 0.741935 
vt 0.161290 0.677419 
vt 0.354839 0.741935 
vt 0.161290 0.741935 
vt 0.161290 0.677419 
vt 0.290323 0.709677 
vt 0.354839 0.741935 
vt 0.161290 0.677419 
vt 0.161290 0.709677 
vt 0.290323 0.709677 
f 1/1/1 2/2/2 3/3/3
f 4/4/4 5/5/5 6/6/6
f 7/7/7 8/8/8 9/9/9
f 10/10/10 11/11/11 12/12/12
f 13/13/13 14/14/14 15/15/15
f 16/16/16 17/17/17 18/18/18
f 19/19/19 20/20/20 21/21/21
f 22/22/22 23/23/23 24/24/24
f 25/25/25 26/26/26 27/27/27
f 28/28/28 29/29/29 30/30/30
f 31/31/31 32/32/32 33/33/33
f 34/34/34 35/35/35 36/36/36
f 37/37/37 38/38/38 39/39/39
f 40/40/40 41/41/41 42/42/42
f 43/43/43 44/44/44 45/45/45
f 46/46/46 47/47/47 48/48/48
f 49/49/49 50/50/50 51/51/51
f 52/52/52 53/53/53 54/54/54
f 55/55/55 56/56/56 57/57/57
f 58/58/58 59/59/59 60/60/60
f 61/61/61 62/62/62 63/63/63
f 64/64/64 65/65/65 66/66/66
f 67/67/67 68/68/68 69/69/69
f 70/70/70 71/71/71 72/72/72
