v 0.000000 -4.000000 0.000000 
v 0.000000 0.000000 10.000000 
v -10.000000 0.000000 0.000000 
v 0.000000 -4.000000 0.000000 
v 10.000000 0.000000 0.000000 
v 0.000000 0.000000 10.000000 
v 0.000000 -4.000000 0.000000 
v 0.000000 0.000000 -10.000000 
v 10.000000 0.000000 0.000000 
v 0.000000 -4.000000 0.000000 
v -10.000000 0.000000 0.000000 
v 0.000000 0.000000 -10.000000 
v -10.000000 0.000000 0.000000 
v 0.000000 35.000000 14.000000 
v -12.000000 35.000000 0.000000 
v -10.000000 0.000000 0.000000 
v 0.000000 0.000000 10.000000 
v 0.000000 35.000000 14.000000 
v 0.000000 0.000000 10.000000 
v 16.000000 35.000000 0.000000 
v 0.000000 35.000000 14.000000 
v 0.000000 0.000000 10.000000 
v 10.000000 0.000000 0.000000 
v 16.000000 35.000000 0.000000 
v 10.000000 0.000000 0.000000 
v 0.000000 35.000000 -14.000000 
v 16.000000 35.000000 0.000000 
v 10.000000 0.000000 0.000000 
v 0.000000 0.000000 -10.000000 
v 0.000000 35.000000 -14.000000 
v 0.000000 0.000000 -10.000000 
v -12.000000 35.000000 0.000000 
v 0.000000 35.000000 -14.000000 
v 0.000000 0.000000 -10.000000 
v -10.000000 0.000000 0.000000 
v -12.000000 35.000000 0.000000 
vn 0.000000 -1.000000 0.000000 
vn 0.000000 -0.789795 0.613281 
vn -0.613281 -0.789795 0.000000 
vn 0.000000 -1.000000 0.000000 
vn 0.613281 -0.789795 0.000000 
vn 0.000000 -0.789795 0.613281 
vn 0.000000 -1.000000 0.000000 
vn 0.000000 -0.789795 -0.613281 
vn 0.613281 -0.789795 0.000000 
vn 0.000000 -1.000000 0.000000 
vn -0.613281 -0.789795 0.000000 
vn 0.000000 -0.789795 -0.613281 
vn -0.953857 -0.036621 0.297363 
vn -0.348389 -0.042969 0.936279 
vn -0.950928 -0.035156 -0.307129 
vn -0.953857 -0.036621 0.297363 
vn 0.286865 -0.058594 0.956055 
vn -0.348389 -0.042969 0.936279 
vn 0.286865 -0.058594 0.956055 
vn 0.940918 -0.070801 0.330566 
vn -0.348389 -0.042969 0.936279 
vn 0.286865 -0.058594 0.956055 
vn 0.936523 -0.067383 -0.343506 
vn 0.940918 -0.070801 0.330566 
vn 0.936523 -0.067383 -0.343506 
vn 0.277588 -0.055664 -0.958984 
vn 0.940918 -0.070801 0.330566 
vn 0.936523 -0.067383 -0.343506 
vn -0.334229 -0.041748 -0.941406 
vn 0.277588 -0.055664 -0.958984 
vn -0.334229 -0.041748 -0.941406 
vn -0.950928 -0.035156 -0.307129 
vn 0.277588 -0.055664 -0.958984 
vn -0.334229 -0.041748 -0.941406 
vn -0.953857 -0.036621 0.297363 
vn -0.950928 -0.035156 -0.307129 
vt 0.714286 0.380952 
vt 0.952381 0.619048 
vt 0.714286 0.619048 
vt 0.714286 0.380952 
vt 0.952381 0.619048 
vt 0.714286 0.619048 
vt 0.714286 0.380952 
vt 0.952381 0.619048 
vt 0.714286 0.619048 
vt 0.714286 0.380952 
vt 0.952381 0.619048 
vt 0.714286 0.619048 
vt 0.714286 0.380952 
vt 0.952381 0.619048 
vt 0.714286 0.619048 
vt 0.714286 0.380952 
vt 0.952381 0.380952 
vt 0.952381 0.619048 
vt 0.714286 0.380952 
vt 0.952381 0.619048 
vt 0.714286 0.619048 
vt 0.714286 0.380952 
vt 0.952381 0.380952 
vt 0.952381 0.619048 
vt 0.714286 0.380952 
vt 0.952381 0.619048 
vt 0.714286 0.619048 
vt 0.714286 0.380952 
vt 0.952381 0.380952 
vt 0.952381 0.619048 
vt 0.714286 0.380952 
vt 0.952381 0.619048 
vt 0.714286 0.619048 
vt 0.714286 0.380952 
vt 0.952381 0.380952 
vt 0.952381 0.619048 
f 1/1/1 2/2/2 3/3/3
f 4/4/4 5/5/5 6/6/6
f 7/7/7 8/8/8 9/9/9
f 10/10/10 11/11/11 12/12/12
f 13/13/13 14/14/14 15/15/15
f 16/16/16 17/17/17 18/18/18
f 19/19/19 20/20/20 21/21/21
f 22/22/22 23/23/23 24/24/24
f 25/25/25 26/26/26 27/27/27
f 28/28/28 29/29/29 30/30/30
f 31/31/31 32/32/32 33/33/33
f 34/34/34 35/35/35 36/36/36
