v 37.000000 0.000000 -5.000000 
v -37.000000 0.000000 -12.000000 
v -37.000000 0.000000 -15.000000 
v -37.000000 0.000000 -15.000000 
v 37.000000 0.000000 -8.000000 
v 37.000000 0.000000 -5.000000 
v 37.000000 95.000000 1.000000 
v 37.000000 95.000000 -1.000000 
v -37.000000 95.000000 -1.000000 
v -37.000000 95.000000 -1.000000 
v -37.000000 95.000000 1.000000 
v 37.000000 95.000000 1.000000 
v 37.000000 31.000000 -1.000000 
v 37.000000 0.000000 -8.000000 
v -37.000000 0.000000 -15.000000 
v -37.000000 0.000000 -15.000000 
v -37.000000 41.000000 -1.000000 
v 37.000000 31.000000 -1.000000 
v 37.000000 95.000000 -1.000000 
v 37.000000 31.000000 -1.000000 
v -37.000000 41.000000 -1.000000 
v -37.000000 41.000000 -1.000000 
v -37.000000 95.000000 -1.000000 
v 37.000000 95.000000 -1.000000 
v 37.000000 31.000000 1.000000 
v 37.000000 0.000000 -5.000000 
v 37.000000 0.000000 -8.000000 
v 37.000000 0.000000 -8.000000 
v 37.000000 31.000000 -1.000000 
v 37.000000 31.000000 1.000000 
v 37.000000 95.000000 1.000000 
v 37.000000 31.000000 1.000000 
v 37.000000 31.000000 -1.000000 
v 37.000000 31.000000 -1.000000 
v 37.000000 95.000000 -1.000000 
v 37.000000 95.000000 1.000000 
v -37.000000 41.000000 1.000000 
v -37.000000 0.000000 -12.000000 
v 37.000000 0.000000 -5.000000 
v 37.000000 0.000000 -5.000000 
v 37.000000 31.000000 1.000000 
v -37.000000 41.000000 1.000000 
v -37.000000 95.000000 1.000000 
v -37.000000 41.000000 1.000000 
v 37.000000 31.000000 1.000000 
v 37.000000 31.000000 1.000000 
v 37.000000 95.000000 1.000000 
v -37.000000 95.000000 1.000000 
v -37.000000 41.000000 -1.000000 
v -37.000000 0.000000 -15.000000 
v -37.000000 0.000000 -12.000000 
v -37.000000 0.000000 -12.000000 
v -37.000000 41.000000 1.000000 
v -37.000000 41.000000 -1.000000 
v -37.000000 95.000000 -1.000000 
v -37.000000 41.000000 -1.000000 
v -37.000000 41.000000 1.000000 
v -37.000000 41.000000 1.000000 
v -37.000000 95.000000 1.000000 
v -37.000000 95.000000 -1.000000 
vn 0.000000 -1.000000 0.000000 
vn 0.000000 -1.000000 0.000000 
vn 0.000000 -1.000000 0.000000 
vn 0.000000 -1.000000 0.000000 
vn 0.000000 -1.000000 0.000000 
vn 0.000000 -1.000000 0.000000 
vn 0.000000 1.000000 0.000000 
vn 0.000000 1.000000 0.000000 
vn 0.000000 1.000000 0.000000 
vn 0.000000 1.000000 0.000000 
vn 0.000000 1.000000 0.000000 
vn 0.000000 1.000000 0.000000 
vn 0.098389 0.488037 -0.866943 
vn 0.189941 0.614746 -0.765137 
vn 0.137939 0.685303 -0.714844 
vn 0.137939 0.685303 -0.714844 
vn 0.030518 0.270996 -0.961914 
vn 0.098389 0.488037 -0.866943 
vn 0.000000 0.000000 -1.000000 
vn 0.098389 0.488037 -0.866943 
vn 0.030518 0.270996 -0.961914 
vn 0.030518 0.270996 -0.961914 
vn 0.000000 0.000000 -1.000000 
vn 0.000000 0.000000 -1.000000 
vn 1.000000 0.000000 0.000000 
vn 1.000000 0.000000 0.000000 
vn 1.000000 0.000000 0.000000 
vn 1.000000 0.000000 0.000000 
vn 1.000000 0.000000 0.000000 
vn 1.000000 0.000000 0.000000 
vn 1.000000 0.000000 0.000000 
vn 1.000000 0.000000 0.000000 
vn 1.000000 0.000000 0.000000 
vn 1.000000 0.000000 0.000000 
vn 1.000000 0.000000 0.000000 
vn 1.000000 0.000000 0.000000 
vn -0.083008 -0.488525 0.868408 
vn -0.161377 -0.741455 0.650879 
vn -0.116699 -0.686279 0.717529 
vn -0.116699 -0.686279 0.717529 
vn -0.024658 -0.219238 0.975098 
vn -0.083008 -0.488525 0.868408 
vn 0.000000 0.000000 1.000000 
vn -0.083008 -0.488525 0.868408 
vn -0.024658 -0.219238 0.975098 
vn -0.024658 -0.219238 0.975098 
vn 0.000000 0.000000 1.000000 
vn 0.000000 0.000000 1.000000 
vn -1.000000 0.000000 0.000000 
vn -1.000000 0.000000 0.000000 
vn -1.000000 0.000000 0.000000 
vn -1.000000 0.000000 0.000000 
vn -1.000000 0.000000 0.000000 
vn -1.000000 0.000000 0.000000 
vn -1.000000 0.000000 0.000000 
vn -1.000000 0.000000 0.000000 
vn -1.000000 0.000000 0.000000 
vn -1.000000 0.000000 0.000000 
vn -1.000000 0.000000 0.000000 
vn -1.000000 0.000000 0.000000 
vt 1.000000 -0.015873 
vt 0.000000 -0.015873 
vt 0.000000 -0.015873 
vt 0.000000 -0.015873 
vt 1.000000 -0.015873 
vt 1.000000 -0.015873 
vt 1.000000 1.000000 
vt 1.000000 1.000000 
vt 0.000000 1.000000 
vt 0.000000 1.000000 
vt 0.000000 1.000000 
vt 1.000000 1.000000 
vt 1.000000 0.317460 
vt 1.000000 -0.015873 
vt 0.000000 -0.015873 
vt 0.000000 -0.015873 
vt 0.000000 0.428571 
vt 1.000000 0.317460 
vt 1.000000 1.000000 
vt 1.000000 0.317460 
vt 0.000000 0.428571 
vt 0.000000 0.428571 
vt 0.000000 1.000000 
vt 1.000000 1.000000 
vt 1.000000 0.317460 
vt 1.000000 -0.015873 
vt 1.000000 -0.015873 
vt 1.000000 -0.015873 
vt 1.000000 0.317460 
vt 1.000000 0.317460 
vt 1.000000 1.000000 
vt 1.000000 0.317460 
vt 1.000000 0.317460 
vt 1.000000 0.317460 
vt 1.000000 1.000000 
vt 1.000000 1.000000 
vt 0.000000 0.428571 
vt 0.000000 -0.015873 
vt 1.000000 -0.015873 
vt 1.000000 -0.015873 
vt 1.000000 0.317460 
vt 0.000000 0.428571 
vt 0.000000 1.000000 
vt 0.000000 0.428571 
vt 1.000000 0.317460 
vt 1.000000 0.317460 
vt 1.000000 1.000000 
vt 0.000000 1.000000 
vt 0.000000 0.428571 
vt 0.000000 -0.015873 
vt 0.000000 -0.015873 
vt 0.000000 -0.015873 
vt 0.000000 0.428571 
vt 0.000000 0.428571 
vt 0.000000 1.000000 
vt 0.000000 0.428571 
vt 0.000000 0.428571 
vt 0.000000 0.428571 
vt 0.000000 1.000000 
vt 0.000000 1.000000 
f 1/1/1 2/2/2 3/3/3
f 4/4/4 5/5/5 6/6/6
f 7/7/7 8/8/8 9/9/9
f 10/10/10 11/11/11 12/12/12
f 13/13/13 14/14/14 15/15/15
f 16/16/16 17/17/17 18/18/18
f 19/19/19 20/20/20 21/21/21
f 22/22/22 23/23/23 24/24/24
f 25/25/25 26/26/26 27/27/27
f 28/28/28 29/29/29 30/30/30
f 31/31/31 32/32/32 33/33/33
f 34/34/34 35/35/35 36/36/36
f 37/37/37 38/38/38 39/39/39
f 40/40/40 41/41/41 42/42/42
f 43/43/43 44/44/44 45/45/45
f 46/46/46 47/47/47 48/48/48
f 49/49/49 50/50/50 51/51/51
f 52/52/52 53/53/53 54/54/54
f 55/55/55 56/56/56 57/57/57
f 58/58/58 59/59/59 60/60/60
