v 16.000000 0.000000 20.000000 
v 1.000000 0.000000 -20.000000 
v 0.000000 0.000000 21.000000 
v 1.000000 0.000000 -20.000000 
v 16.000000 0.000000 20.000000 
v 18.000000 0.000000 -21.000000 
v 34.000000 0.000000 19.000000 
v 18.000000 0.000000 -21.000000 
v 16.000000 0.000000 20.000000 
v 18.000000 0.000000 -21.000000 
v 34.000000 0.000000 19.000000 
v 36.000000 0.000000 -22.000000 
v 16.000000 0.000000 20.000000 
v 0.000000 0.000000 21.000000 
v 1.000000 0.000000 -20.000000 
v 1.000000 0.000000 -20.000000 
v 18.000000 0.000000 -21.000000 
v 16.000000 0.000000 20.000000 
v 34.000000 0.000000 19.000000 
v 16.000000 0.000000 20.000000 
v 18.000000 0.000000 -21.000000 
v 18.000000 0.000000 -21.000000 
v 36.000000 -1.000000 -22.000000 
v 34.000000 0.000000 19.000000 
vn -0.000732 0.999756 0.000488 
vn -0.000732 0.999756 0.000488 
vn -0.000732 0.999756 0.000488 
vn -0.000732 0.999756 0.000488 
vn -0.000732 0.999756 0.000488 
vn -0.000732 0.999756 0.000488 
vn -0.000732 0.999756 0.000488 
vn -0.000732 0.999756 0.000488 
vn -0.000732 0.999756 0.000488 
vn -0.000732 0.999756 0.000488 
vn -0.000732 0.999756 0.000488 
vn -0.000732 0.999756 0.000488 
vn 0.000732 -0.999756 -0.000488 
vn 0.000732 -0.999756 -0.000488 
vn 0.000732 -0.999756 -0.000488 
vn 0.000732 -0.999756 -0.000488 
vn 0.000732 -0.999756 -0.000488 
vn 0.000732 -0.999756 -0.000488 
vn 0.000732 -0.999756 -0.000488 
vn 0.000732 -0.999756 -0.000488 
vn 0.000732 -0.999756 -0.000488 
vn 0.000732 -0.999756 -0.000488 
vn 0.000732 -0.999756 -0.000488 
vn 0.000732 -0.999756 -0.000488 
vt 0.483871 0.838710 
vt 0.193548 -0.032258 
vt 0.193548 0.838710 
vt 0.193548 -0.032258 
vt 0.483871 0.838710 
vt 0.483871 -0.032258 
vt 0.806452 0.838710 
vt 0.483871 -0.032258 
vt 0.483871 0.838710 
vt 0.483871 -0.032258 
vt 0.806452 0.838710 
vt 0.806452 -0.032258 
vt 0.483871 0.838710 
vt 0.193548 0.838710 
vt 0.193548 -0.032258 
vt 0.193548 -0.032258 
vt 0.483871 -0.032258 
vt 0.483871 0.838710 
vt 0.806452 0.838710 
vt 0.483871 0.838710 
vt 0.483871 -0.032258 
vt 0.483871 -0.032258 
vt 0.806452 -0.032258 
vt 0.806452 0.838710 
f 1/1/1 2/2/2 3/3/3
f 4/4/4 5/5/5 6/6/6
f 7/7/7 8/8/8 9/9/9
f 10/10/10 11/11/11 12/12/12
f 13/13/13 14/14/14 15/15/15
f 16/16/16 17/17/17 18/18/18
f 19/19/19 20/20/20 21/21/21
f 22/22/22 23/23/23 24/24/24
