v 0.000000 60.000000 -20.000000 
v 9.000000 55.000000 -20.000000 
v 0.000000 53.000000 -27.000000 
v -10.000000 55.000000 -20.000000 
v 0.000000 60.000000 -20.000000 
v 0.000000 53.000000 -27.000000 
v -6.000000 47.000000 -23.000000 
v -10.000000 55.000000 -20.000000 
v 0.000000 53.000000 -27.000000 
v 6.000000 47.000000 -23.000000 
v -6.000000 47.000000 -23.000000 
v 0.000000 53.000000 -27.000000 
v 9.000000 55.000000 -20.000000 
v 6.000000 47.000000 -23.000000 
v 0.000000 53.000000 -27.000000 
v 0.000000 41.000000 -24.000000 
v 10.000000 36.000000 -25.000000 
v 0.000000 36.000000 -32.000000 
v -10.000000 36.000000 -25.000000 
v 0.000000 41.000000 -24.000000 
v 0.000000 36.000000 -32.000000 
v -6.000000 28.000000 -28.000000 
v -10.000000 36.000000 -25.000000 
v 0.000000 36.000000 -32.000000 
v 6.000000 28.000000 -28.000000 
v -6.000000 28.000000 -28.000000 
v 0.000000 36.000000 -32.000000 
v 10.000000 36.000000 -25.000000 
v 6.000000 28.000000 -28.000000 
v 0.000000 36.000000 -32.000000 
v 0.000000 23.000000 -29.000000 
v 10.000000 18.000000 -30.000000 
v 0.000000 17.000000 -37.000000 
v -10.000000 18.000000 -30.000000 
v 0.000000 23.000000 -29.000000 
v 0.000000 17.000000 -37.000000 
v -6.000000 10.000000 -35.000000 
v -10.000000 18.000000 -30.000000 
v 0.000000 17.000000 -37.000000 
v 6.000000 10.000000 -35.000000 
v -6.000000 10.000000 -35.000000 
v 0.000000 17.000000 -37.000000 
v 10.000000 18.000000 -30.000000 
v 6.000000 10.000000 -35.000000 
v 0.000000 17.000000 -37.000000 
vn 0.000000 0.580078 -0.814453 
vn 0.478760 0.286621 -0.829590 
vn 0.000000 0.175293 -0.984375 
vn -0.478760 0.286621 -0.829590 
vn 0.000000 0.580078 -0.814453 
vn 0.000000 0.175293 -0.984375 
vn -0.285400 -0.187012 -0.939697 
vn -0.478760 0.286621 -0.829590 
vn 0.000000 0.175293 -0.984375 
vn 0.285400 -0.187012 -0.939697 
vn -0.285400 -0.187012 -0.939697 
vn 0.000000 0.175293 -0.984375 
vn 0.478760 0.286621 -0.829590 
vn 0.285400 -0.187012 -0.939697 
vn 0.000000 0.175293 -0.984375 
vn 0.000000 0.724854 -0.688721 
vn 0.500977 0.361816 -0.785889 
vn 0.000000 0.253906 -0.967041 
vn -0.501221 0.361816 -0.785889 
vn 0.000000 0.724854 -0.688721 
vn 0.000000 0.253906 -0.967041 
vn -0.293701 -0.173340 -0.939941 
vn -0.501221 0.361816 -0.785889 
vn 0.000000 0.253906 -0.967041 
vn 0.293701 -0.173096 -0.939941 
vn -0.293701 -0.173340 -0.939941 
vn 0.000000 0.253906 -0.967041 
vn 0.500977 0.361816 -0.785889 
vn 0.293701 -0.173096 -0.939941 
vn 0.000000 0.253906 -0.967041 
vn 0.000000 0.675049 -0.737549 
vn 0.478760 0.385498 -0.788574 
vn 0.000000 0.293945 -0.955566 
vn -0.478760 0.385498 -0.788574 
vn 0.000000 0.675049 -0.737549 
vn 0.000000 0.293945 -0.955566 
vn -0.285400 -0.071045 -0.955566 
vn -0.478760 0.385498 -0.788574 
vn 0.000000 0.293945 -0.955566 
vn 0.285400 -0.071045 -0.955566 
vn -0.285400 -0.071045 -0.955566 
vn 0.000000 0.293945 -0.955566 
vn 0.478760 0.385498 -0.788574 
vn 0.285400 -0.071045 -0.955566 
vn 0.000000 0.293945 -0.955566 
vt 0.533333 -0.066667 
vt 0.200000 -0.066667 
vt 0.400000 0.066667 
vt 0.533333 -0.066667 
vt 0.200000 -0.066667 
vt 0.400000 0.066667 
vt 0.533333 -0.066667 
vt 0.200000 -0.066667 
vt 0.400000 0.066667 
vt 0.533333 -0.066667 
vt 0.200000 -0.066667 
vt 0.400000 0.066667 
vt 0.533333 -0.066667 
vt 0.200000 -0.066667 
vt 0.400000 0.066667 
vt 0.666667 -0.066667 
vt 0.266667 -0.066667 
vt 0.466667 0.133333 
vt 0.666667 -0.066667 
vt 0.266667 -0.066667 
vt 0.466667 0.133333 
vt 0.666667 -0.066667 
vt 0.266667 -0.066667 
vt 0.466667 0.133333 
vt 0.666667 -0.066667 
vt 0.266667 -0.066667 
vt 0.466667 0.133333 
vt 0.666667 -0.066667 
vt 0.266667 -0.066667 
vt 0.466667 0.133333 
vt 0.733333 -0.066667 
vt 0.200000 -0.066667 
vt 0.466667 0.133333 
vt 0.733333 -0.066667 
vt 0.200000 -0.066667 
vt 0.466667 0.133333 
vt 0.733333 -0.066667 
vt 0.200000 -0.066667 
vt 0.466667 0.133333 
vt 0.733333 -0.066667 
vt 0.200000 -0.066667 
vt 0.466667 0.133333 
vt 0.733333 -0.066667 
vt 0.200000 -0.066667 
vt 0.466667 0.133333 
f 1/1/1 2/2/2 3/3/3
f 4/4/4 5/5/5 6/6/6
f 7/7/7 8/8/8 9/9/9
f 10/10/10 11/11/11 12/12/12
f 13/13/13 14/14/14 15/15/15
f 16/16/16 17/17/17 18/18/18
f 19/19/19 20/20/20 21/21/21
f 22/22/22 23/23/23 24/24/24
f 25/25/25 26/26/26 27/27/27
f 28/28/28 29/29/29 30/30/30
f 31/31/31 32/32/32 33/33/33
f 34/34/34 35/35/35 36/36/36
f 37/37/37 38/38/38 39/39/39
f 40/40/40 41/41/41 42/42/42
f 43/43/43 44/44/44 45/45/45
