v -2.000000 -1.000000 4.000000 
v 5.000000 -1.000000 0.000000 
v 0.000000 5.000000 0.000000 
v -2.000000 -1.000000 -4.000000 
v -2.000000 -1.000000 4.000000 
v 0.000000 5.000000 0.000000 
v 5.000000 -1.000000 0.000000 
v -2.000000 -1.000000 -4.000000 
v 0.000000 5.000000 0.000000 
v -2.000000 -1.000000 4.000000 
v -2.000000 -1.000000 -4.000000 
v 5.000000 -1.000000 0.000000 
vn -0.471191 -0.333252 0.816406 
vn 0.942627 -0.333252 0.000000 
vn 0.000000 1.000000 0.000000 
vn -0.471191 -0.333252 -0.816406 
vn -0.471191 -0.333252 0.816406 
vn 0.000000 1.000000 0.000000 
vn 0.942627 -0.333252 0.000000 
vn -0.471191 -0.333252 -0.816406 
vn 0.000000 1.000000 0.000000 
vn -0.471191 -0.333252 0.816406 
vn -0.471191 -0.333252 -0.816406 
vn 0.942627 -0.333252 0.000000 
vt 1.000000 -0.032258 
vt 0.258065 -0.032258 
vt 0.612903 1.000000 
vt 1.000000 -0.032258 
vt 0.258065 -0.032258 
vt 0.612903 1.000000 
vt 1.000000 -0.032258 
vt 0.258065 -0.032258 
vt 0.612903 1.000000 
vt 0.258065 -0.032258 
vt 0.612903 1.000000 
vt 1.000000 -0.032258 
f 1/1/1 2/2/2 3/3/3
f 4/4/4 5/5/5 6/6/6
f 7/7/7 8/8/8 9/9/9
f 10/10/10 11/11/11 12/12/12
