v -46.000000 226.000000 -206.000000 
v -49.000000 62.000000 -277.000000 
v -42.000000 287.000000 -277.000000 
v -34.000000 62.000000 -136.000000 
v -49.000000 62.000000 -277.000000 
v -46.000000 226.000000 -206.000000 
v -46.000000 226.000000 -206.000000 
v -46.000000 226.000000 -136.000000 
v -34.000000 62.000000 -136.000000 
v -41.000000 226.000000 -61.000000 
v -45.000000 287.000000 4.000000 
v -28.000000 62.000000 4.000000 
v -41.000000 226.000000 -61.000000 
v -34.000000 62.000000 -136.000000 
v -46.000000 226.000000 -136.000000 
v -34.000000 62.000000 -136.000000 
v -41.000000 226.000000 -61.000000 
v -28.000000 62.000000 4.000000 
v -37.000000 287.000000 -61.000000 
v -45.000000 287.000000 4.000000 
v -41.000000 226.000000 -61.000000 
v -46.000000 226.000000 -206.000000 
v -42.000000 287.000000 -277.000000 
v -48.000000 287.000000 -206.000000 
v -39.000000 405.000000 -103.000000 
v -39.000000 374.000000 -136.000000 
v -40.000000 420.000000 -136.000000 
v -40.000000 420.000000 -103.000000 
v -39.000000 405.000000 -103.000000 
v -40.000000 420.000000 -136.000000 
v -35.000000 282.000000 4.000000 
v -36.000000 282.000000 -64.000000 
v -38.000000 374.000000 -61.000000 
v -39.000000 405.000000 -12.000000 
v -35.000000 282.000000 4.000000 
v -38.000000 374.000000 -61.000000 
v -38.000000 374.000000 -61.000000 
v -39.000000 374.000000 -136.000000 
v -39.000000 405.000000 -103.000000 
v -39.000000 405.000000 -12.000000 
v -38.000000 374.000000 -61.000000 
v -39.000000 405.000000 -103.000000 
v -40.000000 420.000000 4.000000 
v -35.000000 282.000000 4.000000 
v -39.000000 405.000000 -12.000000 
v -40.000000 420.000000 -12.000000 
v -40.000000 420.000000 4.000000 
v -39.000000 405.000000 -12.000000 
v -38.000000 374.000000 95.000000 
v -35.000000 282.000000 4.000000 
v -40.000000 420.000000 4.000000 
v -38.000000 374.000000 95.000000 
v -40.000000 420.000000 144.000000 
v -38.000000 374.000000 144.000000 
v -40.000000 420.000000 144.000000 
v -38.000000 374.000000 95.000000 
v -40.000000 420.000000 4.000000 
v -35.000000 282.000000 95.000000 
v -35.000000 282.000000 4.000000 
v -38.000000 374.000000 95.000000 
v -45.000000 425.000000 -219.000000 
v -40.000000 287.000000 -277.000000 
v -46.000000 425.000000 -277.000000 
v -39.000000 287.000000 -219.000000 
v -40.000000 287.000000 -277.000000 
v -45.000000 425.000000 -219.000000 
v -41.000000 378.000000 -206.000000 
v -38.000000 287.000000 -219.000000 
v -43.000000 425.000000 -219.000000 
v -41.000000 378.000000 -206.000000 
v -40.000000 425.000000 -136.000000 
v -39.000000 378.000000 -136.000000 
v -40.000000 425.000000 -136.000000 
v -41.000000 378.000000 -206.000000 
v -43.000000 425.000000 -219.000000 
v -38.000000 287.000000 -206.000000 
v -38.000000 287.000000 -219.000000 
v -41.000000 378.000000 -206.000000 
v -42.000000 226.000000 95.000000 
v -28.000000 62.000000 4.000000 
v -45.000000 287.000000 4.000000 
v -34.000000 62.000000 144.000000 
v -28.000000 62.000000 4.000000 
v -42.000000 226.000000 95.000000 
v -42.000000 226.000000 95.000000 
v -45.000000 226.000000 144.000000 
v -34.000000 62.000000 144.000000 
v -42.000000 226.000000 240.000000 
v -46.000000 287.000000 285.000000 
v -35.000000 62.000000 285.000000 
v -42.000000 226.000000 240.000000 
v -34.000000 62.000000 144.000000 
v -45.000000 226.000000 144.000000 
v -34.000000 62.000000 144.000000 
v -42.000000 226.000000 240.000000 
v -35.000000 62.000000 285.000000 
v -48.000000 374.000000 240.000000 
v -40.000000 420.000000 144.000000 
v -40.000000 420.000000 285.000000 
v -48.000000 374.000000 240.000000 
v -37.000000 282.000000 285.000000 
v -45.000000 282.000000 238.000000 
v -37.000000 282.000000 285.000000 
v -48.000000 374.000000 240.000000 
v -40.000000 420.000000 285.000000 
v -45.000000 287.000000 240.000000 
v -46.000000 287.000000 285.000000 
v -42.000000 226.000000 240.000000 
v -38.000000 374.000000 144.000000 
v -40.000000 420.000000 144.000000 
v -48.000000 374.000000 240.000000 
v -42.000000 226.000000 95.000000 
v -45.000000 287.000000 4.000000 
v -50.000000 287.000000 95.000000 
v -53.000000 302.000000 237.000000 
v -53.000000 225.000000 94.000000 
v -53.000000 302.000000 94.000000 
v -53.000000 225.000000 94.000000 
v -53.000000 302.000000 237.000000 
v -53.000000 225.000000 237.000000 
v -53.000000 379.000000 237.000000 
v -53.000000 302.000000 94.000000 
v -53.000000 379.000000 94.000000 
v -53.000000 302.000000 94.000000 
v -53.000000 379.000000 237.000000 
v -53.000000 302.000000 237.000000 
v -53.000000 302.000000 -63.000000 
v -53.000000 225.000000 -206.000000 
v -53.000000 302.000000 -206.000000 
v -53.000000 225.000000 -206.000000 
v -53.000000 302.000000 -63.000000 
v -53.000000 225.000000 -63.000000 
v -53.000000 379.000000 -63.000000 
v -53.000000 302.000000 -206.000000 
v -53.000000 379.000000 -206.000000 
v -53.000000 302.000000 -206.000000 
v -53.000000 379.000000 -63.000000 
v -53.000000 302.000000 -63.000000 
vn 0.999756 0.012451 0.004395 
vn 0.999023 -0.001709 -0.041992 
vn 0.998047 0.003418 0.059082 
vn 0.998291 0.021484 -0.050049 
vn 0.999023 -0.001709 -0.041992 
vn 0.999756 0.012451 0.004395 
vn 0.999756 0.012451 0.004395 
vn 0.999268 0.032471 0.007812 
vn 0.998291 0.021484 -0.050049 
vn 0.999756 0.015869 -0.004395 
vn 0.998779 0.000488 0.048096 
vn 0.998779 0.031738 -0.036133 
vn 0.999756 0.015869 -0.004395 
vn 0.997803 0.031006 -0.056641 
vn 0.997314 0.032471 -0.063965 
vn 0.997803 0.031006 -0.056641 
vn 0.999756 0.015869 -0.004395 
vn 0.998779 0.031738 -0.036133 
vn 0.992188 -0.032959 0.118652 
vn 0.998779 0.000488 0.048096 
vn 0.999756 0.015869 -0.004395 
vn 0.999756 0.012451 0.004395 
vn 0.998047 0.003418 0.059082 
vn 0.995117 0.021484 0.094238 
vn 0.999756 0.011475 0.002441 
vn 0.999756 0.011475 0.002441 
vn 0.999756 0.011475 0.002441 
vn 0.999756 0.009033 0.000000 
vn 0.999756 0.009033 0.000000 
vn 0.999756 0.009033 0.000000 
vn 0.999756 0.013184 -0.007080 
vn 0.999756 0.013184 -0.007080 
vn 0.999756 0.013184 -0.007080 
vn 0.999756 0.013916 -0.004883 
vn 0.999756 0.013916 -0.004883 
vn 0.999756 0.013916 -0.004883 
vn 0.999756 0.013916 -0.002441 
vn 0.999756 0.013916 -0.002441 
vn 0.999756 0.013916 -0.002441 
vn 0.999756 0.013184 -0.003662 
vn 0.999756 0.013184 -0.003662 
vn 0.999756 0.013184 -0.003662 
vn 0.999756 0.014893 0.008545 
vn 0.999756 0.014893 0.008545 
vn 0.999756 0.014893 0.008545 
vn 0.999756 0.019043 0.000000 
vn 0.999756 0.019043 0.000000 
vn 0.999756 0.019043 0.000000 
vn 0.999756 0.016846 -0.003174 
vn 0.999756 0.015869 -0.005127 
vn 0.999756 0.016113 -0.001221 
vn 0.999756 0.016846 -0.003174 
vn 0.999756 0.017822 -0.000977 
vn 0.999756 0.018311 -0.001953 
vn 0.999756 0.017822 -0.000977 
vn 0.999756 0.016846 -0.003174 
vn 0.999756 0.016113 -0.001221 
vn 0.999756 0.017090 -0.007812 
vn 0.999756 0.015869 -0.005127 
vn 0.999756 0.016846 -0.003174 
vn 0.999512 0.019531 -0.022461 
vn 0.999512 0.019531 -0.022461 
vn 0.999268 0.020752 -0.028809 
vn 0.999512 0.018311 -0.016357 
vn 0.999512 0.019531 -0.022461 
vn 0.999512 0.019531 -0.022461 
vn 0.999268 0.014404 -0.032227 
vn 0.999512 0.015625 -0.026367 
vn 0.999023 0.015625 -0.037842 
vn 0.999268 0.014404 -0.032227 
vn 0.999023 0.013428 -0.038086 
vn 0.999268 0.011475 -0.035156 
vn 0.999023 0.013428 -0.038086 
vn 0.999268 0.014404 -0.032227 
vn 0.999023 0.015625 -0.037842 
vn 0.999512 0.015137 -0.018066 
vn 0.999512 0.015625 -0.026367 
vn 0.999268 0.014404 -0.032227 
vn 0.998047 0.037842 0.045410 
vn 0.998779 0.031494 0.033936 
vn 0.998047 0.046143 0.041504 
vn 0.998291 0.029541 0.049316 
vn 0.998779 0.031494 0.033936 
vn 0.998047 0.037842 0.045410 
vn 0.998047 0.037842 0.045410 
vn 0.998047 0.030029 0.053955 
vn 0.998291 0.029541 0.049316 
vn 0.999512 0.023926 0.005371 
vn 0.999512 0.021484 0.019531 
vn 0.999512 0.022949 0.010254 
vn 0.999512 0.023926 0.005371 
vn 0.999512 0.026367 -0.008301 
vn 0.999023 0.030273 -0.023438 
vn 0.999512 0.026367 -0.008301 
vn 0.999512 0.023926 0.005371 
vn 0.999512 0.022949 0.010254 
vn 0.997314 -0.009521 -0.069824 
vn 0.997803 -0.030762 0.054443 
vn 0.993896 -0.035400 -0.102051 
vn 0.997314 -0.009521 -0.069824 
vn 0.980957 0.011475 -0.192871 
vn 0.982910 0.013916 -0.182861 
vn 0.980957 0.011475 -0.192871 
vn 0.997314 -0.009521 -0.069824 
vn 0.993896 -0.035400 -0.102051 
vn 0.999268 0.019775 0.024902 
vn 0.999512 0.021484 0.019531 
vn 0.999512 0.023926 0.005371 
vn 0.993652 0.018311 0.108643 
vn 0.997803 -0.030762 0.054443 
vn 0.997314 -0.009521 -0.069824 
vn 0.998047 0.037842 0.045410 
vn 0.998047 0.046143 0.041504 
vn 0.996338 0.058350 0.059814 
vn 1.000000 0.000000 0.000000 
vn 1.000000 0.000000 0.000000 
vn 1.000000 0.000000 0.000000 
vn 1.000000 0.000000 0.000000 
vn 1.000000 0.000000 0.000000 
vn 1.000000 0.000000 0.000000 
vn 1.000000 0.000000 0.000000 
vn 1.000000 0.000000 0.000000 
vn 1.000000 0.000000 0.000000 
vn 1.000000 0.000000 0.000000 
vn 1.000000 0.000000 0.000000 
vn 1.000000 0.000000 0.000000 
vn 1.000000 0.000000 0.000000 
vn 1.000000 0.000000 0.000000 
vn 1.000000 0.000000 0.000000 
vn 1.000000 0.000000 0.000000 
vn 1.000000 0.000000 0.000000 
vn 1.000000 0.000000 0.000000 
vn 1.000000 0.000000 0.000000 
vn 1.000000 0.000000 0.000000 
vn 1.000000 0.000000 0.000000 
vn 1.000000 0.000000 0.000000 
vn 1.000000 0.000000 0.000000 
vn 1.000000 0.000000 0.000000 
vt 0.173228 0.535433 
vt 0.000000 -0.007874 
vt 0.000000 0.992126 
vt 0.346457 -0.007874 
vt 0.000000 -0.007874 
vt 0.173228 0.535433 
vt 0.173228 0.535433 
vt 0.354331 0.527559 
vt 0.346457 -0.007874 
vt 0.299213 0.519685 
vt 0.480315 0.992126 
vt 0.480315 -0.007874 
vt 0.299213 0.519685 
vt 0.102362 -0.007874 
vt 0.102362 0.519685 
vt 0.102362 -0.007874 
vt 0.299213 0.519685 
vt 0.480315 -0.007874 
vt 0.299213 0.992126 
vt 0.480315 0.992126 
vt 0.299213 0.519685 
vt 0.173228 0.535433 
vt 0.000000 0.992126 
vt 0.173228 1.000000 
vt 0.299213 0.425197 
vt 0.236220 0.314961 
vt 0.236220 0.480315 
vt 0.299213 0.480315 
vt 0.299213 0.425197 
vt 0.236220 0.480315 
vt 0.488189 -0.007874 
vt 0.370079 -0.007874 
vt 0.370079 0.314961 
vt 0.456693 0.425197 
vt 0.488189 -0.007874 
vt 0.370079 0.314961 
vt 0.370079 0.314961 
vt 0.236220 0.314961 
vt 0.299213 0.425197 
vt 0.456693 0.425197 
vt 0.370079 0.314961 
vt 0.299213 0.425197 
vt 0.488189 0.480315 
vt 0.488189 -0.007874 
vt 0.456693 0.425197 
vt 0.456693 0.480315 
vt 0.488189 0.480315 
vt 0.456693 0.425197 
vt 0.307087 0.661417 
vt 0.031496 -0.007874 
vt 0.031496 0.992126 
vt 0.307087 0.661417 
vt 0.456693 0.992126 
vt 0.456693 0.661417 
vt 0.456693 0.992126 
vt 0.307087 0.661417 
vt 0.031496 0.992126 
vt 0.307087 -0.007874 
vt 0.031496 -0.007874 
vt 0.307087 0.661417 
vt 0.283465 0.488189 
vt 0.488189 -0.007874 
vt 0.488189 0.488189 
vt 0.283465 -0.007874 
vt 0.488189 -0.007874 
vt 0.283465 0.488189 
vt 0.204724 0.322835 
vt 0.236220 -0.007874 
vt 0.236220 0.488189 
vt 0.204724 0.322835 
vt 0.000000 0.488189 
vt 0.000000 0.322835 
vt 0.000000 0.488189 
vt 0.204724 0.322835 
vt 0.236220 0.488189 
vt 0.204724 -0.007874 
vt 0.236220 -0.007874 
vt 0.204724 0.322835 
vt 0.133858 0.511811 
vt 0.000000 -0.007874 
vt 0.000000 0.992126 
vt 0.244094 -0.007874 
vt 0.000000 -0.007874 
vt 0.133858 0.511811 
vt 0.133858 0.511811 
vt 0.244094 0.511811 
vt 0.244094 -0.007874 
vt 0.385827 0.511811 
vt 0.480315 0.992126 
vt 0.488189 -0.007874 
vt 0.385827 0.511811 
vt 0.251969 -0.007874 
vt 0.251969 0.511811 
vt 0.251969 -0.007874 
vt 0.385827 0.511811 
vt 0.488189 -0.007874 
vt 0.236220 0.661417 
vt 0.000000 0.992126 
vt 0.385827 0.992126 
vt 0.236220 0.661417 
vt 0.385827 -0.007874 
vt 0.236220 0.000000 
vt 0.385827 -0.007874 
vt 0.236220 0.661417 
vt 0.385827 0.992126 
vt 0.385827 0.992126 
vt 0.480315 0.992126 
vt 0.385827 0.511811 
vt 0.000000 0.669291 
vt 0.000000 0.992126 
vt 0.236220 0.661417 
vt 0.133858 0.511811 
vt 0.000000 0.992126 
vt 0.133858 0.992126 
vt 0.503937 1.000000 
vt 1.000000 -0.007874 
vt 0.503937 -0.007874 
vt 1.000000 -0.007874 
vt 0.503937 1.000000 
vt 1.000000 1.000000 
vt 1.000000 1.000000 
vt 0.503937 -0.007874 
vt 1.000000 -0.007874 
vt 0.503937 -0.007874 
vt 1.000000 1.000000 
vt 0.503937 1.000000 
vt 0.503937 1.000000 
vt 1.000000 -0.007874 
vt 0.503937 -0.007874 
vt 1.000000 -0.007874 
vt 0.503937 1.000000 
vt 1.000000 1.000000 
vt 1.000000 1.000000 
vt 0.503937 -0.007874 
vt 1.000000 -0.007874 
vt 0.503937 -0.007874 
vt 1.000000 1.000000 
vt 0.503937 1.000000 
f 1/1/1 2/2/2 3/3/3
f 4/4/4 5/5/5 6/6/6
f 7/7/7 8/8/8 9/9/9
f 10/10/10 11/11/11 12/12/12
f 13/13/13 14/14/14 15/15/15
f 16/16/16 17/17/17 18/18/18
f 19/19/19 20/20/20 21/21/21
f 22/22/22 23/23/23 24/24/24
f 25/25/25 26/26/26 27/27/27
f 28/28/28 29/29/29 30/30/30
f 31/31/31 32/32/32 33/33/33
f 34/34/34 35/35/35 36/36/36
f 37/37/37 38/38/38 39/39/39
f 40/40/40 41/41/41 42/42/42
f 43/43/43 44/44/44 45/45/45
f 46/46/46 47/47/47 48/48/48
f 49/49/49 50/50/50 51/51/51
f 52/52/52 53/53/53 54/54/54
f 55/55/55 56/56/56 57/57/57
f 58/58/58 59/59/59 60/60/60
f 61/61/61 62/62/62 63/63/63
f 64/64/64 65/65/65 66/66/66
f 67/67/67 68/68/68 69/69/69
f 70/70/70 71/71/71 72/72/72
f 73/73/73 74/74/74 75/75/75
f 76/76/76 77/77/77 78/78/78
f 79/79/79 80/80/80 81/81/81
f 82/82/82 83/83/83 84/84/84
f 85/85/85 86/86/86 87/87/87
f 88/88/88 89/89/89 90/90/90
f 91/91/91 92/92/92 93/93/93
f 94/94/94 95/95/95 96/96/96
f 97/97/97 98/98/98 99/99/99
f 100/100/100 101/101/101 102/102/102
f 103/103/103 104/104/104 105/105/105
f 106/106/106 107/107/107 108/108/108
f 109/109/109 110/110/110 111/111/111
f 112/112/112 113/113/113 114/114/114
f 115/115/115 116/116/116 117/117/117
f 118/118/118 119/119/119 120/120/120
f 121/121/121 122/122/122 123/123/123
f 124/124/124 125/125/125 126/126/126
f 127/127/127 128/128/128 129/129/129
f 130/130/130 131/131/131 132/132/132
f 133/133/133 134/134/134 135/135/135
f 136/136/136 137/137/137 138/138/138
