v 32.000000 17.000000 0.000000 
v -32.000000 -212.000000 0.000000 
v -32.000000 17.000000 0.000000 
v 32.000000 -212.000000 0.000000 
v -32.000000 -212.000000 0.000000 
v 32.000000 17.000000 0.000000 
vn 0.000000 0.000000 -0.999756 
vn 0.000000 0.000000 -0.999756 
vn 0.000000 0.000000 -0.999756 
vn 0.000000 0.000000 -0.999756 
vn 0.000000 0.000000 -0.999756 
vn 0.000000 0.000000 -0.999756 
vt 0.225806 1.000000 
vt 0.000000 -0.032258 
vt 0.000000 1.000000 
vt 0.225806 -0.032258 
vt 0.000000 -0.032258 
vt 0.225806 1.000000 
f 1/1/1 2/2/2 3/3/3
f 4/4/4 5/5/5 6/6/6
