v 282.000000 13.000000 268.000000 
v 282.000000 13.000000 -291.000000 
v -902.000000 13.000000 -283.000000 
v -902.000000 13.000000 -283.000000 
v -902.000000 13.000000 268.000000 
v 282.000000 13.000000 268.000000 
v 282.000000 13.000000 -291.000000 
v 282.000000 0.000000 -291.000000 
v -902.000000 0.000000 -283.000000 
v -902.000000 0.000000 -283.000000 
v -902.000000 13.000000 -283.000000 
v 282.000000 13.000000 -291.000000 
v 282.000000 13.000000 268.000000 
v 282.000000 0.000000 268.000000 
v 282.000000 0.000000 -291.000000 
v 282.000000 0.000000 -291.000000 
v 282.000000 13.000000 -291.000000 
v 282.000000 13.000000 268.000000 
v 45.000000 31.000000 -147.000000 
v 29.000000 40.000000 -183.000000 
v -96.000000 22.000000 -183.000000 
v -96.000000 22.000000 -183.000000 
v -96.000000 22.000000 -147.000000 
v 45.000000 31.000000 -147.000000 
v 122.000000 24.000000 -147.000000 
v 155.000000 12.000000 -183.000000 
v 29.000000 40.000000 -183.000000 
v 29.000000 40.000000 -183.000000 
v 45.000000 31.000000 -147.000000 
v 122.000000 24.000000 -147.000000 
v 281.000000 40.000000 -147.000000 
v 281.000000 40.000000 -183.000000 
v 155.000000 12.000000 -183.000000 
v 155.000000 12.000000 -183.000000 
v 122.000000 24.000000 -147.000000 
v 281.000000 40.000000 -147.000000 
v 29.000000 40.000000 -183.000000 
v 29.000000 0.000000 -183.000000 
v -96.000000 0.000000 -183.000000 
v -96.000000 0.000000 -183.000000 
v -96.000000 22.000000 -183.000000 
v 29.000000 40.000000 -183.000000 
v 155.000000 12.000000 -183.000000 
v 155.000000 0.000000 -183.000000 
v 29.000000 0.000000 -183.000000 
v 29.000000 0.000000 -183.000000 
v 29.000000 40.000000 -183.000000 
v 155.000000 12.000000 -183.000000 
v 281.000000 40.000000 -183.000000 
v 281.000000 0.000000 -183.000000 
v 155.000000 0.000000 -183.000000 
v 155.000000 0.000000 -183.000000 
v 155.000000 12.000000 -183.000000 
v 281.000000 40.000000 -183.000000 
v 281.000000 40.000000 -147.000000 
v 281.000000 0.000000 -147.000000 
v 281.000000 0.000000 -183.000000 
v 281.000000 0.000000 -183.000000 
v 281.000000 40.000000 -183.000000 
v 281.000000 40.000000 -147.000000 
v 285.000000 14.000000 -90.000000 
v 281.000000 40.000000 -147.000000 
v 236.000000 36.000000 -147.000000 
v 236.000000 36.000000 -147.000000 
v 236.000000 32.000000 -88.000000 
v 285.000000 14.000000 -90.000000 
v 285.000000 40.000000 -72.000000 
v 285.000000 14.000000 -90.000000 
v 236.000000 32.000000 -88.000000 
v 236.000000 32.000000 -88.000000 
v 236.000000 29.000000 -43.000000 
v 285.000000 40.000000 -72.000000 
v 285.000000 30.000000 67.000000 
v 285.000000 40.000000 -72.000000 
v 236.000000 29.000000 -43.000000 
v 236.000000 29.000000 -43.000000 
v 236.000000 40.000000 131.000000 
v 285.000000 30.000000 67.000000 
v 285.000000 17.000000 177.000000 
v 285.000000 30.000000 67.000000 
v 236.000000 40.000000 131.000000 
v 236.000000 40.000000 131.000000 
v 236.000000 16.000000 177.000000 
v 285.000000 17.000000 177.000000 
v 286.000000 40.000000 291.000000 
v 285.000000 17.000000 177.000000 
v 236.000000 16.000000 177.000000 
v 236.000000 16.000000 177.000000 
v 237.000000 40.000000 291.000000 
v 286.000000 40.000000 291.000000 
v 285.000000 14.000000 -90.000000 
v 285.000000 0.000000 -90.000000 
v 281.000000 0.000000 -147.000000 
v 281.000000 0.000000 -147.000000 
v 281.000000 40.000000 -147.000000 
v 285.000000 14.000000 -90.000000 
v 285.000000 40.000000 -72.000000 
v 285.000000 0.000000 -43.000000 
v 285.000000 0.000000 -90.000000 
v 285.000000 0.000000 -90.000000 
v 285.000000 14.000000 -90.000000 
v 285.000000 40.000000 -72.000000 
v 285.000000 30.000000 67.000000 
v 285.000000 0.000000 67.000000 
v 285.000000 0.000000 -43.000000 
v 285.000000 0.000000 -43.000000 
v 285.000000 40.000000 -72.000000 
v 285.000000 30.000000 67.000000 
v 285.000000 17.000000 177.000000 
v 285.000000 0.000000 177.000000 
v 285.000000 0.000000 67.000000 
v 285.000000 0.000000 67.000000 
v 285.000000 30.000000 67.000000 
v 285.000000 17.000000 177.000000 
v 286.000000 40.000000 291.000000 
v 286.000000 0.000000 291.000000 
v 285.000000 0.000000 177.000000 
v 285.000000 0.000000 177.000000 
v 285.000000 17.000000 177.000000 
v 286.000000 40.000000 291.000000 
v 236.000000 16.000000 177.000000 
v 236.000000 0.000000 177.000000 
v 237.000000 0.000000 291.000000 
v 237.000000 0.000000 291.000000 
v 237.000000 40.000000 291.000000 
v 236.000000 16.000000 177.000000 
v 236.000000 40.000000 131.000000 
v 236.000000 0.000000 67.000000 
v 236.000000 0.000000 177.000000 
v 236.000000 0.000000 177.000000 
v 236.000000 16.000000 177.000000 
v 236.000000 40.000000 131.000000 
v 236.000000 29.000000 -43.000000 
v 236.000000 0.000000 -43.000000 
v 236.000000 0.000000 67.000000 
v 236.000000 0.000000 67.000000 
v 236.000000 40.000000 131.000000 
v 236.000000 29.000000 -43.000000 
v 236.000000 32.000000 -88.000000 
v 236.000000 0.000000 -90.000000 
v 236.000000 0.000000 -43.000000 
v 236.000000 0.000000 -43.000000 
v 236.000000 29.000000 -43.000000 
v 236.000000 32.000000 -88.000000 
v 236.000000 36.000000 -147.000000 
v 236.000000 0.000000 -147.000000 
v 236.000000 0.000000 -90.000000 
v 236.000000 0.000000 -90.000000 
v 236.000000 32.000000 -88.000000 
v 236.000000 36.000000 -147.000000 
v 14.000000 17.000000 291.000000 
v -43.000000 15.000000 240.000000 
v -96.000000 41.000000 240.000000 
v -96.000000 41.000000 240.000000 
v -96.000000 41.000000 291.000000 
v 14.000000 17.000000 291.000000 
v 126.000000 28.000000 291.000000 
v 126.000000 13.000000 240.000000 
v -43.000000 15.000000 240.000000 
v -43.000000 15.000000 240.000000 
v 14.000000 17.000000 291.000000 
v 126.000000 28.000000 291.000000 
v 237.000000 41.000000 291.000000 
v 237.000000 30.000000 243.000000 
v 126.000000 13.000000 240.000000 
v 126.000000 13.000000 240.000000 
v 126.000000 28.000000 291.000000 
v 237.000000 41.000000 291.000000 
v -43.000000 15.000000 240.000000 
v 14.000000 0.000000 240.000000 
v -96.000000 0.000000 240.000000 
v -96.000000 0.000000 240.000000 
v -96.000000 41.000000 240.000000 
v -43.000000 15.000000 240.000000 
v 126.000000 13.000000 240.000000 
v 126.000000 0.000000 240.000000 
v 14.000000 0.000000 240.000000 
v 14.000000 0.000000 240.000000 
v -43.000000 15.000000 240.000000 
v 126.000000 13.000000 240.000000 
v 237.000000 30.000000 243.000000 
v 237.000000 0.000000 240.000000 
v 126.000000 0.000000 240.000000 
v 126.000000 0.000000 240.000000 
v 126.000000 13.000000 240.000000 
v 237.000000 30.000000 243.000000 
vn 0.000000 1.000000 0.000000 
vn 0.000000 1.000000 0.000000 
vn 0.000000 1.000000 0.000000 
vn 0.000000 1.000000 0.000000 
vn 0.000000 1.000000 0.000000 
vn 0.000000 1.000000 0.000000 
vn -0.005859 0.000000 -0.999756 
vn -0.005859 0.000000 -0.999756 
vn -0.005859 0.000000 -0.999756 
vn -0.005859 0.000000 -0.999756 
vn -0.005859 0.000000 -0.999756 
vn -0.005859 0.000000 -0.999756 
vn 1.000000 0.000000 0.000000 
vn 1.000000 0.000000 0.000000 
vn 1.000000 0.000000 0.000000 
vn 1.000000 0.000000 0.000000 
vn 1.000000 0.000000 0.000000 
vn 1.000000 0.000000 0.000000 
vn -0.075684 0.935303 0.345459 
vn 0.121094 0.953613 0.275146 
vn -0.198242 0.935547 0.292236 
vn -0.198242 0.935547 0.292236 
vn -0.135498 0.990723 0.000000 
vn -0.075684 0.935303 0.345459 
vn 0.162842 0.967285 -0.193604 
vn -0.060547 0.936035 -0.346436 
vn 0.121094 0.953613 0.275146 
vn 0.121094 0.953613 0.275146 
vn -0.075684 0.935303 0.345459 
vn 0.162842 0.967285 -0.193604 
vn -0.307129 0.877930 -0.366943 
vn -0.419678 0.907471 0.000000 
vn -0.060547 0.936035 -0.346436 
vn -0.060547 0.936035 -0.346436 
vn 0.162842 0.967285 -0.193604 
vn -0.307129 0.877930 -0.366943 
vn 0.000000 0.000000 -1.000000 
vn 0.000000 0.000000 -1.000000 
vn 0.000000 0.000000 -1.000000 
vn 0.000000 0.000000 -1.000000 
vn 0.000000 0.000000 -1.000000 
vn 0.000000 0.000000 -1.000000 
vn 0.000000 0.000000 -1.000000 
vn 0.000000 0.000000 -1.000000 
vn 0.000000 0.000000 -1.000000 
vn 0.000000 0.000000 -1.000000 
vn 0.000000 0.000000 -1.000000 
vn 0.000000 0.000000 -1.000000 
vn 0.000000 0.000000 -1.000000 
vn 0.000000 0.000000 -1.000000 
vn 0.000000 0.000000 -1.000000 
vn 0.000000 0.000000 -1.000000 
vn 0.000000 0.000000 -1.000000 
vn 0.000000 0.000000 -1.000000 
vn 1.000000 0.000000 0.000000 
vn 1.000000 0.000000 0.000000 
vn 1.000000 0.000000 0.000000 
vn 1.000000 0.000000 0.000000 
vn 1.000000 0.000000 0.000000 
vn 1.000000 0.000000 0.000000 
vn 0.341553 0.937500 -0.062500 
vn -0.144287 0.694580 0.704590 
vn 0.262451 0.846191 0.463623 
vn 0.262451 0.846191 0.463623 
vn 0.196289 0.928955 -0.313232 
vn 0.341553 0.937500 -0.062500 
vn -0.237793 0.931152 -0.275879 
vn 0.341553 0.937500 -0.062500 
vn 0.196289 0.928955 -0.313232 
vn 0.196289 0.928955 -0.313232 
vn -0.169189 0.983887 0.056152 
vn -0.237793 0.931152 -0.275879 
vn 0.178711 0.980957 0.075684 
vn -0.237793 0.931152 -0.275879 
vn -0.169189 0.983887 0.056152 
vn -0.169189 0.983887 0.056152 
vn 0.305176 0.901855 0.304932 
vn 0.178711 0.980957 0.075684 
vn 0.199707 0.954590 0.220703 
vn 0.178711 0.980957 0.075684 
vn 0.305176 0.901855 0.304932 
vn 0.305176 0.901855 0.304932 
vn -0.041016 0.998535 -0.030029 
vn 0.199707 0.954590 0.220703 
vn -0.029541 0.908936 -0.415527 
vn 0.199707 0.954590 0.220703 
vn -0.041016 0.998535 -0.030029 
vn -0.041016 0.998535 -0.030029 
vn 0.000000 0.904053 -0.427002 
vn -0.029541 0.908936 -0.415527 
vn 0.999023 0.000000 -0.040039 
vn 0.999756 0.000000 -0.020020 
vn 0.998047 0.000000 -0.060059 
vn 0.998047 0.000000 -0.060059 
vn 0.998047 0.000000 -0.060059 
vn 0.999023 0.000000 -0.040039 
vn 1.000000 0.000000 0.000000 
vn 1.000000 0.000000 0.000000 
vn 0.999756 0.000000 -0.020020 
vn 0.999756 0.000000 -0.020020 
vn 0.999023 0.000000 -0.040039 
vn 1.000000 0.000000 0.000000 
vn 1.000000 0.000000 0.000000 
vn 1.000000 0.000000 0.000000 
vn 1.000000 0.000000 0.000000 
vn 1.000000 0.000000 0.000000 
vn 1.000000 0.000000 0.000000 
vn 1.000000 0.000000 0.000000 
vn 0.999756 0.000000 -0.003418 
vn 0.999756 0.000000 -0.007080 
vn 1.000000 0.000000 0.000000 
vn 1.000000 0.000000 0.000000 
vn 1.000000 0.000000 0.000000 
vn 0.999756 0.000000 -0.003418 
vn 0.999756 0.000000 -0.010742 
vn 0.999756 0.000000 -0.010742 
vn 0.999756 0.000000 -0.007080 
vn 0.999756 0.000000 -0.007080 
vn 0.999756 0.000000 -0.003418 
vn 0.999756 0.000000 -0.010742 
vn -0.999756 0.000000 0.007080 
vn -0.999756 0.000000 0.003418 
vn -0.999756 0.000000 0.010742 
vn -0.999756 0.000000 0.010742 
vn -0.999756 0.000000 0.010742 
vn -0.999756 0.000000 0.007080 
vn -1.000000 0.000000 0.000000 
vn -1.000000 0.000000 0.000000 
vn -0.999756 0.000000 0.003418 
vn -0.999756 0.000000 0.003418 
vn -0.999756 0.000000 0.007080 
vn -1.000000 0.000000 0.000000 
vn -1.000000 0.000000 0.000000 
vn -1.000000 0.000000 0.000000 
vn -1.000000 0.000000 0.000000 
vn -1.000000 0.000000 0.000000 
vn -1.000000 0.000000 0.000000 
vn -1.000000 0.000000 0.000000 
vn -0.999756 0.000000 -0.000732 
vn -0.999756 0.000488 -0.000732 
vn -1.000000 0.000000 0.000000 
vn -1.000000 0.000000 0.000000 
vn -1.000000 0.000000 0.000000 
vn -0.999756 0.000000 -0.000732 
vn -0.999756 0.000732 -0.000977 
vn -0.999756 0.001709 0.000000 
vn -0.999756 0.000488 -0.000732 
vn -0.999756 0.000488 -0.000732 
vn -0.999756 0.000000 -0.000732 
vn -0.999756 0.000732 -0.000977 
vn 0.282227 0.938477 -0.198486 
vn 0.129883 0.904053 -0.406738 
vn 0.504150 0.781738 -0.366455 
vn 0.504150 0.781738 -0.366455 
vn 0.404297 0.914307 0.000000 
vn 0.282227 0.938477 -0.198486 
vn -0.134521 0.937012 -0.322021 
vn -0.146729 0.853271 -0.499756 
vn 0.129883 0.904053 -0.406738 
vn 0.129883 0.904053 -0.406738 
vn 0.282227 0.938477 -0.198486 
vn -0.134521 0.937012 -0.322021 
vn -0.226807 0.850342 -0.474609 
vn -0.261963 0.870117 -0.416748 
vn -0.146729 0.853271 -0.499756 
vn -0.146729 0.853271 -0.499756 
vn -0.134521 0.937012 -0.322021 
vn -0.226807 0.850342 -0.474609 
vn 0.000000 0.000000 -1.000000 
vn 0.000000 0.000000 -1.000000 
vn 0.000000 0.000000 -1.000000 
vn 0.000000 0.000000 -1.000000 
vn 0.000000 0.000000 -1.000000 
vn 0.000000 0.000000 -1.000000 
vn 0.008057 0.000000 -0.999756 
vn 0.008057 0.014160 -0.999756 
vn 0.000000 0.000000 -1.000000 
vn 0.000000 0.000000 -1.000000 
vn 0.000000 0.000000 -1.000000 
vn 0.008057 0.000000 -0.999756 
vn 0.011963 0.021240 -0.999512 
vn 0.000000 0.042725 -0.999023 
vn 0.008057 0.014160 -0.999756 
vn 0.008057 0.014160 -0.999756 
vn 0.008057 0.000000 -0.999756 
vn 0.011963 0.021240 -0.999512 
vt 0.007874 0.000000 
vt 1.000000 0.000000 
vt 1.000000 1.000000 
vt 1.000000 1.000000 
vt 0.007874 1.000000 
vt 0.007874 0.000000 
vt 1.000000 0.505882 
vt 1.000000 0.525490 
vt 0.000000 0.525490 
vt 0.000000 0.525490 
vt 0.000000 0.505882 
vt 1.000000 0.505882 
vt 1.000000 0.505882 
vt 0.503937 0.505882 
vt 0.503937 1.000000 
vt 0.503937 1.000000 
vt 1.000000 1.000000 
vt 1.000000 0.505882 
vt 0.307087 0.407843 
vt 0.283465 0.486274 
vt 0.000000 0.486274 
vt 0.000000 0.486274 
vt 0.000000 0.407843 
vt 0.307087 0.407843 
vt 0.488189 0.407843 
vt 0.574803 0.486274 
vt 0.283465 0.486274 
vt 0.283465 0.486274 
vt 0.307087 0.407843 
vt 0.488189 0.407843 
vt 0.858268 0.407843 
vt 0.858268 0.486274 
vt 0.574803 0.486274 
vt 0.574803 0.486274 
vt 0.488189 0.407843 
vt 0.858268 0.407843 
vt 0.283465 0.364706 
vt 0.283465 0.250980 
vt 0.000000 0.250980 
vt 0.000000 0.250980 
vt 0.000000 0.313725 
vt 0.283465 0.364706 
vt 0.566929 0.286274 
vt 0.566929 0.250980 
vt 0.283465 0.250980 
vt 0.283465 0.250980 
vt 0.283465 0.364706 
vt 0.566929 0.286274 
vt 0.850394 0.364706 
vt 0.850394 0.250980 
vt 0.566929 0.250980 
vt 0.566929 0.250980 
vt 0.566929 0.286274 
vt 0.850394 0.364706 
vt 0.771654 0.827451 
vt 0.771654 0.752941 
vt 0.937008 0.752941 
vt 0.937008 0.752941 
vt 0.937008 0.827451 
vt 0.771654 0.827451 
vt 0.488189 0.749020 
vt 0.000000 0.749020 
vt 0.000000 0.882353 
vt 0.000000 0.882353 
vt 0.307087 0.882353 
vt 0.488189 0.749020 
vt 0.850394 0.749020 
vt 0.488189 0.749020 
vt 0.307087 0.882353 
vt 0.307087 0.882353 
vt 0.992126 0.882353 
vt 0.850394 0.749020 
vt 0.385827 0.749020 
vt 0.000000 0.749020 
vt 0.078740 0.882353 
vt 0.078740 0.882353 
vt 0.559055 0.882353 
vt 0.385827 0.749020 
vt 0.685039 0.749020 
vt 0.385827 0.749020 
vt 0.559055 0.882353 
vt 0.559055 0.882353 
vt 0.685039 0.882353 
vt 0.685039 0.749020 
vt 0.992126 0.749020 
vt 0.685039 0.749020 
vt 0.685039 0.882353 
vt 0.685039 0.882353 
vt 0.992126 0.882353 
vt 0.992126 0.749020 
vt 0.370079 0.780392 
vt 0.370079 0.752941 
vt 0.771654 0.752941 
vt 0.771654 0.752941 
vt 0.771654 0.827451 
vt 0.370079 0.780392 
vt 0.086614 0.827451 
vt 1.000000 0.752941 
vt 0.370079 0.752941 
vt 0.370079 0.752941 
vt 0.370079 0.780392 
vt 0.086614 0.827451 
vt 0.574803 0.807843 
vt 0.574803 0.752941 
vt 0.866142 0.752941 
vt 0.866142 0.752941 
vt 0.937008 0.827451 
vt 0.574803 0.807843 
vt 0.275591 0.788235 
vt 0.275591 0.752941 
vt 0.574803 0.752941 
vt 0.574803 0.752941 
vt 0.574803 0.807843 
vt 0.275591 0.788235 
vt 1.000000 0.827451 
vt 1.000000 0.752941 
vt 0.275591 0.752941 
vt 0.275591 0.752941 
vt 0.275591 0.788235 
vt 1.000000 0.827451 
vt 0.141732 0.164706 
vt 0.141732 0.164706 
vt 0.377953 0.839216 
vt 0.377953 0.839216 
vt 0.377953 0.839216 
vt 0.141732 0.164706 
vt 0.141732 0.917647 
vt 0.141732 0.050980 
vt 0.141732 0.164706 
vt 0.141732 0.164706 
vt 0.141732 0.164706 
vt 0.141732 0.917647 
vt 0.141732 0.000000 
vt 0.141732 0.000000 
vt 0.141732 0.050980 
vt 0.141732 0.050980 
vt 0.141732 0.917647 
vt 0.141732 0.000000 
vt 0.141732 0.000000 
vt 0.141732 0.000000 
vt 0.141732 0.000000 
vt 0.141732 0.000000 
vt 0.141732 0.000000 
vt 0.141732 0.000000 
vt 0.141732 0.000000 
vt 0.141732 0.000000 
vt 0.141732 0.000000 
vt 0.141732 0.000000 
vt 0.141732 0.000000 
vt 0.141732 0.000000 
vt 0.307087 1.000000 
vt 0.141732 0.901961 
vt 0.000000 0.901961 
vt 0.000000 0.901961 
vt 0.000000 1.000000 
vt 0.307087 1.000000 
vt 0.645669 1.000000 
vt 0.645669 0.901961 
vt 0.141732 0.901961 
vt 0.141732 0.901961 
vt 0.307087 1.000000 
vt 0.645669 1.000000 
vt 0.984252 1.000000 
vt 0.984252 0.901961 
vt 0.645669 0.901961 
vt 0.645669 0.901961 
vt 0.645669 1.000000 
vt 0.984252 1.000000 
vt 0.834646 0.780392 
vt 0.669291 0.745098 
vt 0.992126 0.745098 
vt 0.992126 0.745098 
vt 0.992126 0.831373 
vt 0.834646 0.780392 
vt 0.338583 0.776471 
vt 0.338583 0.745098 
vt 0.669291 0.745098 
vt 0.669291 0.745098 
vt 0.834646 0.780392 
vt 0.338583 0.776471 
vt 0.007874 0.811765 
vt 0.007874 0.745098 
vt 0.338583 0.745098 
vt 0.338583 0.745098 
vt 0.338583 0.776471 
vt 0.007874 0.811765 
f 1/1/1 2/2/2 3/3/3
f 4/4/4 5/5/5 6/6/6
f 7/7/7 8/8/8 9/9/9
f 10/10/10 11/11/11 12/12/12
f 13/13/13 14/14/14 15/15/15
f 16/16/16 17/17/17 18/18/18
f 19/19/19 20/20/20 21/21/21
f 22/22/22 23/23/23 24/24/24
f 25/25/25 26/26/26 27/27/27
f 28/28/28 29/29/29 30/30/30
f 31/31/31 32/32/32 33/33/33
f 34/34/34 35/35/35 36/36/36
f 37/37/37 38/38/38 39/39/39
f 40/40/40 41/41/41 42/42/42
f 43/43/43 44/44/44 45/45/45
f 46/46/46 47/47/47 48/48/48
f 49/49/49 50/50/50 51/51/51
f 52/52/52 53/53/53 54/54/54
f 55/55/55 56/56/56 57/57/57
f 58/58/58 59/59/59 60/60/60
f 61/61/61 62/62/62 63/63/63
f 64/64/64 65/65/65 66/66/66
f 67/67/67 68/68/68 69/69/69
f 70/70/70 71/71/71 72/72/72
f 73/73/73 74/74/74 75/75/75
f 76/76/76 77/77/77 78/78/78
f 79/79/79 80/80/80 81/81/81
f 82/82/82 83/83/83 84/84/84
f 85/85/85 86/86/86 87/87/87
f 88/88/88 89/89/89 90/90/90
f 91/91/91 92/92/92 93/93/93
f 94/94/94 95/95/95 96/96/96
f 97/97/97 98/98/98 99/99/99
f 100/100/100 101/101/101 102/102/102
f 103/103/103 104/104/104 105/105/105
f 106/106/106 107/107/107 108/108/108
f 109/109/109 110/110/110 111/111/111
f 112/112/112 113/113/113 114/114/114
f 115/115/115 116/116/116 117/117/117
f 118/118/118 119/119/119 120/120/120
f 121/121/121 122/122/122 123/123/123
f 124/124/124 125/125/125 126/126/126
f 127/127/127 128/128/128 129/129/129
f 130/130/130 131/131/131 132/132/132
f 133/133/133 134/134/134 135/135/135
f 136/136/136 137/137/137 138/138/138
f 139/139/139 140/140/140 141/141/141
f 142/142/142 143/143/143 144/144/144
f 145/145/145 146/146/146 147/147/147
f 148/148/148 149/149/149 150/150/150
f 151/151/151 152/152/152 153/153/153
f 154/154/154 155/155/155 156/156/156
f 157/157/157 158/158/158 159/159/159
f 160/160/160 161/161/161 162/162/162
f 163/163/163 164/164/164 165/165/165
f 166/166/166 167/167/167 168/168/168
f 169/169/169 170/170/170 171/171/171
f 172/172/172 173/173/173 174/174/174
f 175/175/175 176/176/176 177/177/177
f 178/178/178 179/179/179 180/180/180
f 181/181/181 182/182/182 183/183/183
f 184/184/184 185/185/185 186/186/186
