v 4.000000 18.000000 75.000000 
v 14.000000 39.000000 77.000000 
v 22.000000 -37.000000 301.000000 
v 9.000000 -54.000000 291.000000 
v 4.000000 18.000000 75.000000 
v 22.000000 -37.000000 301.000000 
v -11.000000 61.000000 78.000000 
v -22.000000 40.000000 77.000000 
v -14.000000 -31.000000 301.000000 
v -1.000000 -14.000000 311.000000 
v -11.000000 61.000000 78.000000 
v -14.000000 -31.000000 301.000000 
v 6.000000 61.000000 78.000000 
v -11.000000 61.000000 78.000000 
v -1.000000 -14.000000 311.000000 
v 16.000000 -17.000000 311.000000 
v 6.000000 61.000000 78.000000 
v -1.000000 -14.000000 311.000000 
v 14.000000 39.000000 77.000000 
v 6.000000 61.000000 78.000000 
v 16.000000 -17.000000 311.000000 
v 22.000000 -37.000000 301.000000 
v 14.000000 39.000000 77.000000 
v 16.000000 -17.000000 311.000000 
v 10.000000 17.000000 -124.000000 
v 19.000000 38.000000 -130.000000 
v 14.000000 39.000000 77.000000 
v 4.000000 18.000000 75.000000 
v 10.000000 17.000000 -124.000000 
v 14.000000 39.000000 77.000000 
v -8.000000 58.000000 -136.000000 
v -17.000000 37.000000 -130.000000 
v -22.000000 40.000000 77.000000 
v -11.000000 61.000000 78.000000 
v -8.000000 58.000000 -136.000000 
v -22.000000 40.000000 77.000000 
v 10.000000 59.000000 -136.000000 
v -8.000000 58.000000 -136.000000 
v -11.000000 61.000000 78.000000 
v 6.000000 61.000000 78.000000 
v 10.000000 59.000000 -136.000000 
v -11.000000 61.000000 78.000000 
v 19.000000 38.000000 -130.000000 
v 10.000000 59.000000 -136.000000 
v 6.000000 61.000000 78.000000 
v 14.000000 39.000000 77.000000 
v 19.000000 38.000000 -130.000000 
v 6.000000 61.000000 78.000000 
v 9.000000 -38.000000 -273.000000 
v 18.000000 -18.000000 -285.000000 
v 19.000000 38.000000 -130.000000 
v 10.000000 17.000000 -124.000000 
v 9.000000 -38.000000 -273.000000 
v 19.000000 38.000000 -130.000000 
v -9.000000 0.000000 -297.000000 
v -18.000000 -19.000000 -285.000000 
v -17.000000 37.000000 -130.000000 
v -8.000000 58.000000 -136.000000 
v -9.000000 0.000000 -297.000000 
v -17.000000 37.000000 -130.000000 
v 8.000000 0.000000 -297.000000 
v -9.000000 0.000000 -297.000000 
v -8.000000 58.000000 -136.000000 
v 10.000000 59.000000 -136.000000 
v 8.000000 0.000000 -297.000000 
v -8.000000 58.000000 -136.000000 
v 18.000000 -18.000000 -285.000000 
v 8.000000 0.000000 -297.000000 
v 10.000000 59.000000 -136.000000 
v 19.000000 38.000000 -130.000000 
v 18.000000 -18.000000 -285.000000 
v 10.000000 59.000000 -136.000000 
v 9.000000 -43.000000 -281.000000 
v 18.000000 -34.000000 -296.000000 
v 18.000000 -18.000000 -285.000000 
v 9.000000 -38.000000 -273.000000 
v 9.000000 -43.000000 -281.000000 
v 18.000000 -18.000000 -285.000000 
v -10.000000 -25.000000 -310.000000 
v -19.000000 -35.000000 -295.000000 
v -18.000000 -19.000000 -285.000000 
v -9.000000 0.000000 -297.000000 
v -10.000000 -25.000000 -310.000000 
v -18.000000 -19.000000 -285.000000 
v 8.000000 -25.000000 -311.000000 
v -10.000000 -25.000000 -310.000000 
v -9.000000 0.000000 -297.000000 
v 8.000000 0.000000 -297.000000 
v 8.000000 -25.000000 -311.000000 
v -9.000000 0.000000 -297.000000 
v 18.000000 -34.000000 -296.000000 
v 8.000000 -25.000000 -311.000000 
v 8.000000 0.000000 -297.000000 
v 18.000000 -18.000000 -285.000000 
v 18.000000 -34.000000 -296.000000 
v 8.000000 0.000000 -297.000000 
v 9.000000 -54.000000 -281.000000 
v 17.000000 -58.000000 -295.000000 
v 18.000000 -34.000000 -296.000000 
v 9.000000 -43.000000 -281.000000 
v 9.000000 -54.000000 -281.000000 
v 18.000000 -34.000000 -296.000000 
v -10.000000 -61.000000 -307.000000 
v -19.000000 -58.000000 -295.000000 
v -19.000000 -35.000000 -295.000000 
v -10.000000 -25.000000 -310.000000 
v -10.000000 -61.000000 -307.000000 
v -19.000000 -35.000000 -295.000000 
v 8.000000 -61.000000 -308.000000 
v -10.000000 -61.000000 -307.000000 
v -10.000000 -25.000000 -310.000000 
v 8.000000 -25.000000 -311.000000 
v 8.000000 -61.000000 -308.000000 
v -10.000000 -25.000000 -310.000000 
v 17.000000 -58.000000 -295.000000 
v 8.000000 -61.000000 -308.000000 
v 8.000000 -25.000000 -311.000000 
v 18.000000 -34.000000 -296.000000 
v 17.000000 -58.000000 -295.000000 
v 8.000000 -25.000000 -311.000000 
vn 0.961426 -0.242188 -0.129883 
vn 0.999512 -0.029053 0.004395 
vn 0.984131 -0.126465 -0.123291 
vn 0.935547 -0.272949 -0.223145 
vn 0.961426 -0.242188 -0.129883 
vn 0.984131 -0.126465 -0.123291 
vn -0.604736 0.770264 0.201660 
vn -0.974854 0.217529 0.045410 
vn -0.946289 0.244629 0.210938 
vn -0.249023 0.780273 0.573486 
vn -0.604736 0.770264 0.201660 
vn -0.946289 0.244629 0.210938 
vn 0.701416 0.663574 0.259033 
vn -0.604736 0.770264 0.201660 
vn -0.249023 0.780273 0.573486 
vn 0.867432 0.416260 0.271729 
vn 0.701416 0.663574 0.259033 
vn -0.249023 0.780273 0.573486 
vn 0.999512 -0.029053 0.004395 
vn 0.701416 0.663574 0.259033 
vn 0.867432 0.416260 0.271729 
vn 0.984131 -0.126465 -0.123291 
vn 0.999512 -0.029053 0.004395 
vn 0.867432 0.416260 0.271729 
vn 0.976318 -0.205078 0.065430 
vn 0.999512 0.005371 0.028320 
vn 0.999512 -0.029053 0.004395 
vn 0.961426 -0.242188 -0.129883 
vn 0.976318 -0.205078 0.065430 
vn 0.999512 -0.029053 0.004395 
vn -0.657227 0.683838 -0.316162 
vn -0.976807 0.188477 -0.100830 
vn -0.974854 0.217529 0.045410 
vn -0.604736 0.770264 0.201660 
vn -0.657227 0.683838 -0.316162 
vn -0.974854 0.217529 0.045410 
vn 0.634766 0.741211 -0.217285 
vn -0.657227 0.683838 -0.316162 
vn -0.604736 0.770264 0.201660 
vn 0.701416 0.663574 0.259033 
vn 0.634766 0.741211 -0.217285 
vn -0.604736 0.770264 0.201660 
vn 0.999512 0.005371 0.028320 
vn 0.634766 0.741211 -0.217285 
vn 0.701416 0.663574 0.259033 
vn 0.999512 -0.029053 0.004395 
vn 0.999512 0.005371 0.028320 
vn 0.701416 0.663574 0.259033 
vn 0.970703 -0.172119 0.166992 
vn 0.999756 0.007568 0.007812 
vn 0.999512 0.005371 0.028320 
vn 0.976318 -0.205078 0.065430 
vn 0.970703 -0.172119 0.166992 
vn 0.999512 0.005371 0.028320 
vn -0.630127 0.366943 -0.683838 
vn -0.942627 0.135010 -0.304688 
vn -0.976807 0.188477 -0.100830 
vn -0.657227 0.683838 -0.316162 
vn -0.630127 0.366943 -0.683838 
vn -0.976807 0.188477 -0.100830 
vn 0.561035 0.469238 -0.681641 
vn -0.630127 0.366943 -0.683838 
vn -0.657227 0.683838 -0.316162 
vn 0.634766 0.741211 -0.217285 
vn 0.561035 0.469238 -0.681641 
vn -0.657227 0.683838 -0.316162 
vn 0.999756 0.007568 0.007812 
vn 0.561035 0.469238 -0.681641 
vn 0.634766 0.741211 -0.217285 
vn 0.999512 0.005371 0.028320 
vn 0.999756 0.007568 0.007812 
vn 0.634766 0.741211 -0.217285 
vn 0.916504 -0.095215 0.387939 
vn 0.999756 0.017578 0.010254 
vn 0.999756 0.007568 0.007812 
vn 0.970703 -0.172119 0.166992 
vn 0.916504 -0.095215 0.387939 
vn 0.999756 0.007568 0.007812 
vn -0.538086 0.070068 -0.839844 
vn -0.857178 0.032959 -0.513428 
vn -0.942627 0.135010 -0.304688 
vn -0.630127 0.366943 -0.683838 
vn -0.538086 0.070068 -0.839844 
vn -0.942627 0.135010 -0.304688 
vn 0.460693 0.099121 -0.881836 
vn -0.538086 0.070068 -0.839844 
vn -0.630127 0.366943 -0.683838 
vn 0.561035 0.469238 -0.681641 
vn 0.460693 0.099121 -0.881836 
vn -0.630127 0.366943 -0.683838 
vn 0.999756 0.017578 0.010254 
vn 0.460693 0.099121 -0.881836 
vn 0.561035 0.469238 -0.681641 
vn 0.999756 0.007568 0.007812 
vn 0.999756 0.017578 0.010254 
vn 0.561035 0.469238 -0.681641 
vn 0.847412 0.000000 0.530762 
vn 0.964844 -0.011719 -0.262451 
vn 0.999756 0.017578 0.010254 
vn 0.916504 -0.095215 0.387939 
vn 0.847412 0.000000 0.530762 
vn 0.999756 0.017578 0.010254 
vn -0.613525 -0.024658 -0.789062 
vn -0.801025 -0.003418 -0.598389 
vn -0.857178 0.032959 -0.513428 
vn -0.538086 0.070068 -0.839844 
vn -0.613525 -0.024658 -0.789062 
vn -0.857178 0.032959 -0.513428 
vn 0.267090 -0.041016 -0.962646 
vn -0.613525 -0.024658 -0.789062 
vn -0.538086 0.070068 -0.839844 
vn 0.460693 0.099121 -0.881836 
vn 0.267090 -0.041016 -0.962646 
vn -0.538086 0.070068 -0.839844 
vn 0.964844 -0.011719 -0.262451 
vn 0.267090 -0.041016 -0.962646 
vn 0.460693 0.099121 -0.881836 
vn 0.999756 0.017578 0.010254 
vn 0.964844 -0.011719 -0.262451 
vn 0.460693 0.099121 -0.881836 
vt 0.000000 1.000000 
vt 0.238095 1.000000 
vt 0.238095 0.204724 
vt 0.000000 0.204724 
vt 0.000000 1.000000 
vt 0.238095 0.204724 
vt 0.746032 1.000000 
vt 1.000000 1.000000 
vt 1.000000 0.204724 
vt 0.746032 0.204724 
vt 0.746032 1.000000 
vt 1.000000 0.204724 
vt 0.476190 1.000000 
vt 0.746032 1.000000 
vt 0.746032 0.204724 
vt 0.476190 0.204724 
vt 0.476190 1.000000 
vt 0.746032 0.204724 
vt 0.238095 1.000000 
vt 0.476190 1.000000 
vt 0.476190 0.204724 
vt 0.238095 0.204724 
vt 0.238095 1.000000 
vt 0.476190 0.204724 
vt 0.000000 1.000000 
vt 0.238095 1.000000 
vt 0.238095 0.204724 
vt 0.000000 0.204724 
vt 0.000000 1.000000 
vt 0.238095 0.204724 
vt 0.746032 1.000000 
vt 1.000000 1.000000 
vt 1.000000 0.204724 
vt 0.746032 0.204724 
vt 0.746032 1.000000 
vt 1.000000 0.204724 
vt 0.476190 1.000000 
vt 0.746032 1.000000 
vt 0.746032 0.204724 
vt 0.476190 0.204724 
vt 0.476190 1.000000 
vt 0.746032 0.204724 
vt 0.238095 1.000000 
vt 0.476190 1.000000 
vt 0.476190 0.204724 
vt 0.238095 0.204724 
vt 0.238095 1.000000 
vt 0.476190 0.204724 
vt 0.000000 0.984252 
vt 0.238095 0.984252 
vt 0.238095 0.204724 
vt 0.000000 0.204724 
vt 0.000000 0.984252 
vt 0.238095 0.204724 
vt 0.746032 0.992126 
vt 1.000000 0.984252 
vt 1.000000 0.204724 
vt 0.746032 0.204724 
vt 0.746032 0.992126 
vt 1.000000 0.204724 
vt 0.476190 0.992126 
vt 0.746032 0.992126 
vt 0.746032 0.204724 
vt 0.476190 0.204724 
vt 0.476190 0.992126 
vt 0.746032 0.204724 
vt 0.238095 0.984252 
vt 0.476190 0.992126 
vt 0.476190 0.204724 
vt 0.238095 0.204724 
vt 0.238095 0.984252 
vt 0.476190 0.204724 
vt 0.000000 0.866142 
vt 0.238095 0.771654 
vt 0.238095 1.000000 
vt 0.000000 1.000000 
vt 0.000000 0.866142 
vt 0.238095 1.000000 
vt 0.746032 0.748031 
vt 1.000000 0.724409 
vt 1.000000 1.000000 
vt 0.746032 0.976378 
vt 0.746032 0.748031 
vt 1.000000 1.000000 
vt 0.476190 0.740157 
vt 0.746032 0.748031 
vt 0.746032 0.976378 
vt 0.476190 0.976378 
vt 0.476190 0.740157 
vt 0.746032 0.976378 
vt 0.238095 0.771654 
vt 0.476190 0.740157 
vt 0.476190 0.976378 
vt 0.238095 1.000000 
vt 0.238095 0.771654 
vt 0.476190 0.976378 
vt 1.000000 0.716535 
vt 0.746032 0.716535 
vt 0.746032 0.519685 
vt 1.000000 0.566929 
vt 1.000000 0.716535 
vt 0.746032 0.519685 
vt 0.222222 0.716535 
vt 0.000000 0.716535 
vt 0.000000 0.551181 
vt 0.222222 0.480315 
vt 0.222222 0.716535 
vt 0.000000 0.551181 
vt 0.476190 0.716535 
vt 0.222222 0.716535 
vt 0.222222 0.480315 
vt 0.476190 0.472441 
vt 0.476190 0.716535 
vt 0.222222 0.480315 
vt 0.746032 0.716535 
vt 0.476190 0.716535 
vt 0.476190 0.472441 
vt 0.746032 0.519685 
vt 0.746032 0.716535 
vt 0.476190 0.472441 
f 1/1/1 2/2/2 3/3/3
f 4/4/4 5/5/5 6/6/6
f 7/7/7 8/8/8 9/9/9
f 10/10/10 11/11/11 12/12/12
f 13/13/13 14/14/14 15/15/15
f 16/16/16 17/17/17 18/18/18
f 19/19/19 20/20/20 21/21/21
f 22/22/22 23/23/23 24/24/24
f 25/25/25 26/26/26 27/27/27
f 28/28/28 29/29/29 30/30/30
f 31/31/31 32/32/32 33/33/33
f 34/34/34 35/35/35 36/36/36
f 37/37/37 38/38/38 39/39/39
f 40/40/40 41/41/41 42/42/42
f 43/43/43 44/44/44 45/45/45
f 46/46/46 47/47/47 48/48/48
f 49/49/49 50/50/50 51/51/51
f 52/52/52 53/53/53 54/54/54
f 55/55/55 56/56/56 57/57/57
f 58/58/58 59/59/59 60/60/60
f 61/61/61 62/62/62 63/63/63
f 64/64/64 65/65/65 66/66/66
f 67/67/67 68/68/68 69/69/69
f 70/70/70 71/71/71 72/72/72
f 73/73/73 74/74/74 75/75/75
f 76/76/76 77/77/77 78/78/78
f 79/79/79 80/80/80 81/81/81
f 82/82/82 83/83/83 84/84/84
f 85/85/85 86/86/86 87/87/87
f 88/88/88 89/89/89 90/90/90
f 91/91/91 92/92/92 93/93/93
f 94/94/94 95/95/95 96/96/96
f 97/97/97 98/98/98 99/99/99
f 100/100/100 101/101/101 102/102/102
f 103/103/103 104/104/104 105/105/105
f 106/106/106 107/107/107 108/108/108
f 109/109/109 110/110/110 111/111/111
f 112/112/112 113/113/113 114/114/114
f 115/115/115 116/116/116 117/117/117
f 118/118/118 119/119/119 120/120/120
