v 0.000000 -39.000000 -28.000000 
v 0.000000 122.000000 -20.000000 
v 223.000000 122.000000 -34.000000 
v 0.000000 -39.000000 -28.000000 
v 223.000000 -38.000000 19.000000 
v -27.000000 -122.000000 52.000000 
v 223.000000 122.000000 -34.000000 
v 223.000000 -38.000000 19.000000 
v 0.000000 -39.000000 -28.000000 
v 0.000000 -39.000000 -28.000000 
v -223.000000 -39.000000 -28.000000 
v -223.000000 122.000000 -52.000000 
v 0.000000 122.000000 -20.000000 
v 0.000000 -39.000000 -28.000000 
v -223.000000 122.000000 -52.000000 
v 0.000000 -39.000000 -28.000000 
v -27.000000 -122.000000 52.000000 
v -223.000000 -39.000000 -28.000000 
v 0.000000 -39.000000 -28.000000 
v 223.000000 122.000000 -34.000000 
v 0.000000 122.000000 -20.000000 
v 0.000000 -39.000000 -28.000000 
v -27.000000 -122.000000 52.000000 
v 223.000000 -38.000000 19.000000 
v 223.000000 122.000000 -34.000000 
v 0.000000 -39.000000 -28.000000 
v 223.000000 -38.000000 19.000000 
v 0.000000 -39.000000 -28.000000 
v -223.000000 122.000000 -52.000000 
v -223.000000 -39.000000 -28.000000 
v 0.000000 122.000000 -20.000000 
v -223.000000 122.000000 -52.000000 
v 0.000000 -39.000000 -28.000000 
v 0.000000 -39.000000 -28.000000 
v -223.000000 -39.000000 -28.000000 
v -27.000000 -122.000000 52.000000 
vn 0.076904 -0.170654 -0.982178 
vn 0.038574 0.022217 -0.998779 
vn 0.069336 -0.062988 -0.995361 
vn 0.076904 -0.170654 -0.982178 
vn 0.189209 -0.288086 -0.938477 
vn 0.089844 -0.416260 -0.904541 
vn 0.069336 -0.062988 -0.995361 
vn 0.189209 -0.288086 -0.938477 
vn 0.076904 -0.170654 -0.982178 
vn 0.076904 -0.170654 -0.982178 
vn 0.000000 -0.241211 -0.970459 
vn 0.067627 -0.023438 -0.997314 
vn 0.038574 0.022217 -0.998779 
vn 0.076904 -0.170654 -0.982178 
vn 0.067627 -0.023438 -0.997314 
vn 0.076904 -0.170654 -0.982178 
vn 0.089844 -0.416260 -0.904541 
vn 0.000000 -0.241211 -0.970459 
vn -0.076904 0.170654 0.982178 
vn -0.069336 0.062988 0.995361 
vn -0.038574 -0.022217 0.998779 
vn -0.076904 0.170654 0.982178 
vn -0.089844 0.416260 0.904541 
vn -0.189209 0.288086 0.938477 
vn -0.069336 0.062988 0.995361 
vn -0.076904 0.170654 0.982178 
vn -0.189209 0.288086 0.938477 
vn -0.076904 0.170654 0.982178 
vn -0.067627 0.023438 0.997314 
vn 0.000000 0.241211 0.970459 
vn -0.038574 -0.022217 0.998779 
vn -0.067627 0.023438 0.997314 
vn -0.076904 0.170654 0.982178 
vn -0.076904 0.170654 0.982178 
vn 0.000000 0.241211 0.970459 
vn -0.089844 0.416260 0.904541 
vt 0.708661 0.299213 
vt 0.708661 0.700787 
vt 0.456693 0.700787 
vt 0.496063 0.700787 
vt 0.748031 0.716535 
vt 0.464567 0.614173 
vt 0.456693 0.700787 
vt 0.456693 0.299213 
vt 0.708661 0.299213 
vt 0.708661 0.299213 
vt 0.960630 0.299213 
vt 0.960630 0.700787 
vt 0.708661 0.700787 
vt 0.708661 0.299213 
vt 0.960630 0.700787 
vt 0.496063 0.700787 
vt 0.464567 0.614173 
vt 0.244094 0.708661 
vt 0.708661 0.299213 
vt 0.456693 0.700787 
vt 0.708661 0.700787 
vt 0.496063 0.700787 
vt 0.464567 0.614173 
vt 0.748031 0.716535 
vt 0.456693 0.700787 
vt 0.708661 0.299213 
vt 0.456693 0.299213 
vt 0.708661 0.299213 
vt 0.960630 0.700787 
vt 0.960630 0.299213 
vt 0.708661 0.700787 
vt 0.960630 0.700787 
vt 0.708661 0.299213 
vt 0.496063 0.700787 
vt 0.244094 0.708661 
vt 0.464567 0.614173 
f 1/1/1 2/2/2 3/3/3
f 4/4/4 5/5/5 6/6/6
f 7/7/7 8/8/8 9/9/9
f 10/10/10 11/11/11 12/12/12
f 13/13/13 14/14/14 15/15/15
f 16/16/16 17/17/17 18/18/18
f 19/19/19 20/20/20 21/21/21
f 22/22/22 23/23/23 24/24/24
f 25/25/25 26/26/26 27/27/27
f 28/28/28 29/29/29 30/30/30
f 31/31/31 32/32/32 33/33/33
f 34/34/34 35/35/35 36/36/36
