v 127.000000 23.000000 -189.000000 
v 173.000000 20.000000 -238.000000 
v 11.000000 39.000000 -238.000000 
v 11.000000 39.000000 -238.000000 
v 11.000000 39.000000 -189.000000 
v 127.000000 23.000000 -189.000000 
v 285.000000 59.000000 -189.000000 
v 243.000000 41.000000 -238.000000 
v 173.000000 20.000000 -238.000000 
v 173.000000 20.000000 -238.000000 
v 127.000000 23.000000 -189.000000 
v 285.000000 59.000000 -189.000000 
v 359.000000 33.000000 -176.000000 
v 359.000000 24.000000 -236.000000 
v 243.000000 41.000000 -238.000000 
v 243.000000 41.000000 -238.000000 
v 285.000000 59.000000 -189.000000 
v 359.000000 33.000000 -176.000000 
v 173.000000 20.000000 -238.000000 
v 127.000000 0.000000 -238.000000 
v 11.000000 0.000000 -238.000000 
v 11.000000 0.000000 -238.000000 
v 11.000000 39.000000 -238.000000 
v 173.000000 20.000000 -238.000000 
v 243.000000 41.000000 -238.000000 
v 243.000000 0.000000 -238.000000 
v 127.000000 0.000000 -238.000000 
v 127.000000 0.000000 -238.000000 
v 173.000000 20.000000 -238.000000 
v 243.000000 41.000000 -238.000000 
v 359.000000 24.000000 -236.000000 
v 359.000000 0.000000 -238.000000 
v 243.000000 0.000000 -238.000000 
v 243.000000 0.000000 -238.000000 
v 243.000000 41.000000 -238.000000 
v 359.000000 24.000000 -236.000000 
v 403.000000 24.000000 71.000000 
v 403.000000 41.000000 -27.000000 
v 355.000000 11.000000 -27.000000 
v 355.000000 11.000000 -27.000000 
v 355.000000 11.000000 71.000000 
v 403.000000 24.000000 71.000000 
v 403.000000 41.000000 170.000000 
v 403.000000 24.000000 71.000000 
v 355.000000 11.000000 71.000000 
v 355.000000 11.000000 71.000000 
v 355.000000 41.000000 170.000000 
v 403.000000 41.000000 170.000000 
v 403.000000 31.000000 268.000000 
v 403.000000 41.000000 170.000000 
v 355.000000 41.000000 170.000000 
v 355.000000 41.000000 170.000000 
v 355.000000 14.000000 268.000000 
v 403.000000 31.000000 268.000000 
v 403.000000 41.000000 367.000000 
v 403.000000 31.000000 268.000000 
v 355.000000 14.000000 268.000000 
v 355.000000 14.000000 268.000000 
v 355.000000 28.000000 367.000000 
v 403.000000 41.000000 367.000000 
v 403.000000 41.000000 -27.000000 
v 403.000000 0.000000 -27.000000 
v 355.000000 0.000000 -27.000000 
v 355.000000 0.000000 -27.000000 
v 355.000000 11.000000 -27.000000 
v 403.000000 41.000000 -27.000000 
v 403.000000 24.000000 71.000000 
v 403.000000 0.000000 71.000000 
v 403.000000 0.000000 -27.000000 
v 403.000000 0.000000 -27.000000 
v 403.000000 41.000000 -27.000000 
v 403.000000 24.000000 71.000000 
v 403.000000 41.000000 170.000000 
v 403.000000 0.000000 170.000000 
v 403.000000 0.000000 71.000000 
v 403.000000 0.000000 71.000000 
v 403.000000 24.000000 71.000000 
v 403.000000 41.000000 170.000000 
v 403.000000 31.000000 268.000000 
v 403.000000 0.000000 268.000000 
v 403.000000 0.000000 170.000000 
v 403.000000 0.000000 170.000000 
v 403.000000 41.000000 170.000000 
v 403.000000 31.000000 268.000000 
v 403.000000 41.000000 367.000000 
v 403.000000 0.000000 367.000000 
v 403.000000 0.000000 268.000000 
v 403.000000 0.000000 268.000000 
v 403.000000 31.000000 268.000000 
v 403.000000 41.000000 367.000000 
v 308.000000 78.000000 369.000000 
v 308.000000 17.000000 316.000000 
v 229.000000 40.000000 316.000000 
v 229.000000 40.000000 316.000000 
v 229.000000 17.000000 369.000000 
v 308.000000 78.000000 369.000000 
v 308.000000 17.000000 316.000000 
v 308.000000 0.000000 316.000000 
v 229.000000 0.000000 316.000000 
v 229.000000 0.000000 316.000000 
v 229.000000 40.000000 316.000000 
v 308.000000 17.000000 316.000000 
v 308.000000 78.000000 369.000000 
v 308.000000 0.000000 369.000000 
v 308.000000 0.000000 316.000000 
v 308.000000 0.000000 316.000000 
v 308.000000 17.000000 316.000000 
v 308.000000 78.000000 369.000000 
v 98.000000 25.000000 369.000000 
v 81.000000 30.000000 319.000000 
v 11.000000 40.000000 319.000000 
v 11.000000 40.000000 319.000000 
v 11.000000 40.000000 369.000000 
v 98.000000 25.000000 369.000000 
v 185.000000 40.000000 369.000000 
v 185.000000 31.000000 319.000000 
v 81.000000 30.000000 319.000000 
v 81.000000 30.000000 319.000000 
v 98.000000 25.000000 369.000000 
v 185.000000 40.000000 369.000000 
v 81.000000 30.000000 319.000000 
v 98.000000 0.000000 319.000000 
v 11.000000 0.000000 319.000000 
v 11.000000 0.000000 319.000000 
v 11.000000 40.000000 319.000000 
v 81.000000 30.000000 319.000000 
v 185.000000 31.000000 319.000000 
v 185.000000 0.000000 319.000000 
v 98.000000 0.000000 319.000000 
v 98.000000 0.000000 319.000000 
v 81.000000 30.000000 319.000000 
v 185.000000 31.000000 319.000000 
v 185.000000 40.000000 369.000000 
v 185.000000 0.000000 369.000000 
v 185.000000 0.000000 319.000000 
v 185.000000 0.000000 319.000000 
v 185.000000 31.000000 319.000000 
v 185.000000 40.000000 369.000000 
v 354.000000 29.000000 367.000000 
v 355.000000 20.000000 316.000000 
v 333.000000 39.000000 316.000000 
v 333.000000 39.000000 316.000000 
v 333.000000 30.000000 367.000000 
v 354.000000 29.000000 367.000000 
v 355.000000 20.000000 316.000000 
v 355.000000 0.000000 316.000000 
v 333.000000 0.000000 316.000000 
v 333.000000 0.000000 316.000000 
v 333.000000 39.000000 316.000000 
v 355.000000 20.000000 316.000000 
v -780.000000 13.000000 -221.000000 
v 401.000000 13.000000 370.000000 
v 401.000000 13.000000 -221.000000 
v 401.000000 13.000000 370.000000 
v -780.000000 13.000000 -221.000000 
v -780.000000 13.000000 370.000000 
v 401.000000 13.000000 -221.000000 
v 401.000000 0.000000 370.000000 
v 401.000000 0.000000 -221.000000 
v 401.000000 0.000000 370.000000 
v 401.000000 13.000000 -221.000000 
v 401.000000 13.000000 370.000000 
vn 0.051025 0.988281 -0.142822 
vn -0.235352 0.946045 -0.221680 
vn 0.256592 0.965332 0.044922 
vn 0.256592 0.965332 0.044922 
vn 0.273682 0.961670 0.000000 
vn 0.051025 0.988281 -0.142822 
vn -0.166504 0.805908 -0.567871 
vn 0.089355 0.858887 -0.503906 
vn -0.235352 0.946045 -0.221680 
vn -0.235352 0.946045 -0.221680 
vn 0.051025 0.988281 -0.142822 
vn -0.166504 0.805908 -0.567871 
vn 0.392822 0.722168 -0.568848 
vn 0.285645 0.908203 -0.305420 
vn 0.089355 0.858887 -0.503906 
vn 0.089355 0.858887 -0.503906 
vn -0.166504 0.805908 -0.567871 
vn 0.392822 0.722168 -0.568848 
vn 0.000000 0.000000 -1.000000 
vn 0.000000 0.000000 -1.000000 
vn 0.000000 0.000000 -1.000000 
vn 0.000000 0.000000 -1.000000 
vn 0.000000 0.000000 -1.000000 
vn 0.000000 0.000000 -1.000000 
vn 0.006104 0.000000 -0.999756 
vn 0.006104 0.014404 -0.999756 
vn 0.000000 0.000000 -1.000000 
vn 0.000000 0.000000 -1.000000 
vn 0.000000 0.000000 -1.000000 
vn 0.006104 0.000000 -0.999756 
vn 0.009277 0.021484 -0.999512 
vn 0.000000 0.043213 -0.999023 
vn 0.006104 0.014404 -0.999756 
vn 0.006104 0.014404 -0.999756 
vn 0.006104 0.000000 -0.999756 
vn 0.009277 0.021484 -0.999512 
vn -0.591797 0.805420 -0.030029 
vn -0.765137 0.602539 0.226074 
vn -0.639160 0.760010 0.115967 
vn -0.639160 0.760010 0.115967 
vn -0.328125 0.894531 -0.302979 
vn -0.591797 0.805420 -0.030029 
vn -0.164551 0.957031 -0.237793 
vn -0.591797 0.805420 -0.030029 
vn -0.328125 0.894531 -0.302979 
vn -0.328125 0.894531 -0.302979 
vn -0.203613 0.978271 0.031494 
vn -0.164551 0.957031 -0.237793 
vn -0.398193 0.901611 0.166992 
vn -0.164551 0.957031 -0.237793 
vn -0.203613 0.978271 0.031494 
vn -0.203613 0.978271 0.031494 
vn -0.548096 0.836182 -0.000488 
vn -0.398193 0.901611 0.166992 
vn -0.517334 0.827881 -0.215332 
vn -0.398193 0.901611 0.166992 
vn -0.548096 0.836182 -0.000488 
vn -0.548096 0.836182 -0.000488 
vn -0.453125 0.851807 -0.262695 
vn -0.517334 0.827881 -0.215332 
vn 0.000000 0.000000 -1.000000 
vn 0.000000 0.000000 -1.000000 
vn 0.000000 0.000000 -1.000000 
vn 0.000000 0.000000 -1.000000 
vn 0.000000 0.000000 -1.000000 
vn 0.000000 0.000000 -1.000000 
vn 1.000000 0.000000 0.000000 
vn 1.000000 0.000000 0.000000 
vn 1.000000 0.000000 0.000000 
vn 1.000000 0.000000 0.000000 
vn 1.000000 0.000000 0.000000 
vn 1.000000 0.000000 0.000000 
vn 1.000000 0.000000 0.000000 
vn 1.000000 0.000000 0.000000 
vn 1.000000 0.000000 0.000000 
vn 1.000000 0.000000 0.000000 
vn 1.000000 0.000000 0.000000 
vn 1.000000 0.000000 0.000000 
vn 1.000000 0.000000 0.000000 
vn 1.000000 0.000000 0.000000 
vn 1.000000 0.000000 0.000000 
vn 1.000000 0.000000 0.000000 
vn 1.000000 0.000000 0.000000 
vn 1.000000 0.000000 0.000000 
vn 1.000000 0.000000 0.000000 
vn 1.000000 0.000000 0.000000 
vn 1.000000 0.000000 0.000000 
vn 1.000000 0.000000 0.000000 
vn 1.000000 0.000000 0.000000 
vn 1.000000 0.000000 0.000000 
vn -0.489502 0.765625 -0.416748 
vn 0.213379 0.365234 -0.906006 
vn -0.489502 0.765625 -0.416748 
vn -0.489502 0.765625 -0.416748 
vn -0.754883 0.481445 0.444824 
vn -0.489502 0.765625 -0.416748 
vn 0.000000 0.000000 -1.000000 
vn 0.000000 0.000000 -1.000000 
vn 0.000000 0.000000 -1.000000 
vn 0.000000 0.000000 -1.000000 
vn 0.000000 0.000000 -1.000000 
vn 0.000000 0.000000 -1.000000 
vn 1.000000 0.000000 0.000000 
vn 1.000000 0.000000 0.000000 
vn 1.000000 0.000000 0.000000 
vn 1.000000 0.000000 0.000000 
vn 1.000000 0.000000 0.000000 
vn 1.000000 0.000000 0.000000 
vn 0.100098 0.982178 0.158691 
vn -0.024414 0.998779 0.039062 
vn 0.301514 0.951172 0.064941 
vn 0.301514 0.951172 0.064941 
vn 0.334229 0.942383 0.000000 
vn 0.100098 0.982178 0.158691 
vn -0.180176 0.983398 -0.010986 
vn -0.018799 0.939453 -0.341797 
vn -0.024414 0.998779 0.039062 
vn -0.024414 0.998779 0.039062 
vn 0.100098 0.982178 0.158691 
vn -0.180176 0.983398 -0.010986 
vn 0.000000 0.000000 -1.000000 
vn 0.000000 0.000000 -1.000000 
vn 0.000000 0.000000 -1.000000 
vn 0.000000 0.000000 -1.000000 
vn 0.000000 0.000000 -1.000000 
vn 0.000000 0.000000 -1.000000 
vn 0.000000 0.000000 -1.000000 
vn 0.000000 0.000000 -1.000000 
vn 0.000000 0.000000 -1.000000 
vn 0.000000 0.000000 -1.000000 
vn 0.000000 0.000000 -1.000000 
vn 0.000000 0.000000 -1.000000 
vn 1.000000 0.000000 0.000000 
vn 1.000000 0.000000 0.000000 
vn 1.000000 0.000000 0.000000 
vn 1.000000 0.000000 0.000000 
vn 1.000000 0.000000 0.000000 
vn 1.000000 0.000000 0.000000 
vn 0.559326 0.822754 0.098389 
vn 0.853760 0.488525 -0.178711 
vn 0.559326 0.822754 0.098389 
vn 0.559326 0.822754 0.098389 
vn 0.110840 0.930420 0.348877 
vn 0.559326 0.822754 0.098389 
vn 0.000000 0.000000 -1.000000 
vn 0.000000 0.000000 -1.000000 
vn 0.000000 0.000000 -1.000000 
vn 0.000000 0.000000 -1.000000 
vn 0.000000 0.000000 -1.000000 
vn 0.000000 0.000000 -1.000000 
vn 0.000000 1.000000 0.000000 
vn 0.000000 1.000000 0.000000 
vn 0.000000 1.000000 0.000000 
vn 0.000000 1.000000 0.000000 
vn 0.000000 1.000000 0.000000 
vn 0.000000 1.000000 0.000000 
vn 1.000000 0.000000 0.000000 
vn 1.000000 0.000000 0.000000 
vn 1.000000 0.000000 0.000000 
vn 1.000000 0.000000 0.000000 
vn 1.000000 0.000000 0.000000 
vn 1.000000 0.000000 0.000000 
vt 0.307087 1.000000 
vt 0.433071 0.901961 
vt 0.000000 0.901961 
vt 0.000000 0.901961 
vt 0.000000 1.000000 
vt 0.307087 1.000000 
vt 0.771654 1.000000 
vt 0.645669 0.901961 
vt 0.433071 0.901961 
vt 0.433071 0.901961 
vt 0.307087 1.000000 
vt 0.771654 1.000000 
vt 0.984252 1.000000 
vt 0.984252 0.901961 
vt 0.645669 0.901961 
vt 0.645669 0.901961 
vt 0.771654 1.000000 
vt 0.984252 1.000000 
vt 0.543307 0.788235 
vt 0.669291 0.745098 
vt 0.992126 0.745098 
vt 0.992126 0.745098 
vt 0.992126 0.827451 
vt 0.543307 0.788235 
vt 0.338583 0.831373 
vt 0.338583 0.745098 
vt 0.669291 0.745098 
vt 0.669291 0.745098 
vt 0.543307 0.788235 
vt 0.338583 0.831373 
vt 0.007874 0.796078 
vt 0.007874 0.745098 
vt 0.338583 0.745098 
vt 0.338583 0.745098 
vt 0.338583 0.831373 
vt 0.007874 0.796078 
vt 0.748031 0.372549 
vt 0.748031 0.247059 
vt 0.244094 0.247059 
vt 0.244094 0.247059 
vt 0.244094 0.372549 
vt 0.748031 0.372549 
vt 0.748031 0.498039 
vt 0.748031 0.372549 
vt 0.244094 0.372549 
vt 0.244094 0.372549 
vt 0.244094 0.498039 
vt 0.748031 0.498039 
vt 0.748031 0.623529 
vt 0.748031 0.498039 
vt 0.244094 0.498039 
vt 0.244094 0.498039 
vt 0.244094 0.623529 
vt 0.748031 0.623529 
vt 0.748031 0.749020 
vt 0.748031 0.623529 
vt 0.244094 0.623529 
vt 0.244094 0.623529 
vt 0.244094 0.749020 
vt 0.748031 0.749020 
vt 0.141732 0.886275 
vt 0.141732 0.768627 
vt 0.023622 0.768627 
vt 0.023622 0.768627 
vt 0.023622 0.800000 
vt 0.141732 0.886275 
vt 0.456693 0.796078 
vt 0.456693 0.752941 
vt 0.937008 0.752941 
vt 0.937008 0.752941 
vt 0.937008 0.827451 
vt 0.456693 0.796078 
vt 1.000000 0.827451 
vt 1.000000 0.752941 
vt 0.456693 0.752941 
vt 0.456693 0.752941 
vt 0.456693 0.796078 
vt 1.000000 0.827451 
vt 0.456693 0.811765 
vt 0.456693 0.752941 
vt 0.937008 0.752941 
vt 0.937008 0.752941 
vt 0.937008 0.827451 
vt 0.456693 0.811765 
vt 1.000000 0.827451 
vt 1.000000 0.752941 
vt 0.456693 0.752941 
vt 0.456693 0.752941 
vt 0.456693 0.811765 
vt 1.000000 0.827451 
vt 0.858268 1.000000 
vt 0.858268 0.901961 
vt 0.622047 0.901961 
vt 0.622047 0.901961 
vt 0.622047 1.000000 
vt 0.858268 1.000000 
vt 0.133858 0.784314 
vt 0.133858 0.745098 
vt 0.362205 0.745098 
vt 0.362205 0.745098 
vt 0.362205 0.831373 
vt 0.133858 0.784314 
vt 0.141732 0.886275 
vt 0.141732 0.768627 
vt 0.023622 0.768627 
vt 0.023622 0.768627 
vt 0.023622 0.796078 
vt 0.141732 0.886275 
vt 0.236220 1.000000 
vt 0.181102 0.901961 
vt 0.000000 0.901961 
vt 0.000000 0.901961 
vt 0.000000 1.000000 
vt 0.236220 1.000000 
vt 0.488189 1.000000 
vt 0.488189 0.901961 
vt 0.181102 0.901961 
vt 0.181102 0.901961 
vt 0.236220 1.000000 
vt 0.488189 1.000000 
vt 0.787402 0.811765 
vt 0.748031 0.745098 
vt 0.992126 0.745098 
vt 0.992126 0.745098 
vt 0.992126 0.831373 
vt 0.787402 0.811765 
vt 0.488189 0.815686 
vt 0.488189 0.745098 
vt 0.748031 0.745098 
vt 0.748031 0.745098 
vt 0.787402 0.811765 
vt 0.488189 0.815686 
vt 0.141732 0.886275 
vt 0.141732 0.768627 
vt 0.023622 0.768627 
vt 0.023622 0.768627 
vt 0.023622 0.862745 
vt 0.141732 0.886275 
vt 0.984252 1.000000 
vt 0.984252 0.901961 
vt 0.913386 0.901961 
vt 0.913386 0.901961 
vt 0.913386 1.000000 
vt 0.984252 1.000000 
vt 0.007874 0.792157 
vt 0.007874 0.745098 
vt 0.070866 0.745098 
vt 0.070866 0.745098 
vt 0.070866 0.831373 
vt 0.007874 0.792157 
vt 1.000000 1.000000 
vt 0.000000 0.000000 
vt 1.000000 0.000000 
vt 0.000000 0.000000 
vt 1.000000 1.000000 
vt 0.000000 1.000000 
vt 0.968504 0.482353 
vt 1.000000 0.996078 
vt 1.000000 0.482353 
vt 1.000000 0.996078 
vt 0.968504 0.482353 
vt 0.968504 0.996078 
f 1/1/1 2/2/2 3/3/3
f 4/4/4 5/5/5 6/6/6
f 7/7/7 8/8/8 9/9/9
f 10/10/10 11/11/11 12/12/12
f 13/13/13 14/14/14 15/15/15
f 16/16/16 17/17/17 18/18/18
f 19/19/19 20/20/20 21/21/21
f 22/22/22 23/23/23 24/24/24
f 25/25/25 26/26/26 27/27/27
f 28/28/28 29/29/29 30/30/30
f 31/31/31 32/32/32 33/33/33
f 34/34/34 35/35/35 36/36/36
f 37/37/37 38/38/38 39/39/39
f 40/40/40 41/41/41 42/42/42
f 43/43/43 44/44/44 45/45/45
f 46/46/46 47/47/47 48/48/48
f 49/49/49 50/50/50 51/51/51
f 52/52/52 53/53/53 54/54/54
f 55/55/55 56/56/56 57/57/57
f 58/58/58 59/59/59 60/60/60
f 61/61/61 62/62/62 63/63/63
f 64/64/64 65/65/65 66/66/66
f 67/67/67 68/68/68 69/69/69
f 70/70/70 71/71/71 72/72/72
f 73/73/73 74/74/74 75/75/75
f 76/76/76 77/77/77 78/78/78
f 79/79/79 80/80/80 81/81/81
f 82/82/82 83/83/83 84/84/84
f 85/85/85 86/86/86 87/87/87
f 88/88/88 89/89/89 90/90/90
f 91/91/91 92/92/92 93/93/93
f 94/94/94 95/95/95 96/96/96
f 97/97/97 98/98/98 99/99/99
f 100/100/100 101/101/101 102/102/102
f 103/103/103 104/104/104 105/105/105
f 106/106/106 107/107/107 108/108/108
f 109/109/109 110/110/110 111/111/111
f 112/112/112 113/113/113 114/114/114
f 115/115/115 116/116/116 117/117/117
f 118/118/118 119/119/119 120/120/120
f 121/121/121 122/122/122 123/123/123
f 124/124/124 125/125/125 126/126/126
f 127/127/127 128/128/128 129/129/129
f 130/130/130 131/131/131 132/132/132
f 133/133/133 134/134/134 135/135/135
f 136/136/136 137/137/137 138/138/138
f 139/139/139 140/140/140 141/141/141
f 142/142/142 143/143/143 144/144/144
f 145/145/145 146/146/146 147/147/147
f 148/148/148 149/149/149 150/150/150
f 151/151/151 152/152/152 153/153/153
f 154/154/154 155/155/155 156/156/156
f 157/157/157 158/158/158 159/159/159
f 160/160/160 161/161/161 162/162/162
