v -13.000000 179.000000 13.000000 
v -6.000000 179.000000 -9.000000 
v -7.000000 -17.000000 -18.000000 
v -14.000000 -17.000000 4.000000 
v -13.000000 179.000000 13.000000 
v -7.000000 -17.000000 -18.000000 
v 28.000000 179.000000 -8.000000 
v 21.000000 179.000000 14.000000 
v 20.000000 -17.000000 5.000000 
v 27.000000 -16.000000 -17.000000 
v 28.000000 179.000000 -8.000000 
v 20.000000 -17.000000 5.000000 
v 13.000000 179.000000 -20.000000 
v 28.000000 179.000000 -8.000000 
v 27.000000 -16.000000 -17.000000 
v 12.000000 -16.000000 -29.000000 
v 13.000000 179.000000 -20.000000 
v 27.000000 -16.000000 -17.000000 
v -6.000000 179.000000 -9.000000 
v 13.000000 179.000000 -20.000000 
v 12.000000 -16.000000 -29.000000 
v -7.000000 -17.000000 -18.000000 
v -6.000000 179.000000 -9.000000 
v 12.000000 -16.000000 -29.000000 
v -8.000000 380.000000 -2.000000 
v -2.000000 380.000000 -25.000000 
v -6.000000 179.000000 -9.000000 
v -13.000000 179.000000 13.000000 
v -8.000000 380.000000 -2.000000 
v -6.000000 179.000000 -9.000000 
v 32.000000 381.000000 -24.000000 
v 26.000000 380.000000 -1.000000 
v 21.000000 179.000000 14.000000 
v 28.000000 179.000000 -8.000000 
v 32.000000 381.000000 -24.000000 
v 21.000000 179.000000 14.000000 
v 18.000000 381.000000 -36.000000 
v 32.000000 381.000000 -24.000000 
v 28.000000 179.000000 -8.000000 
v 13.000000 179.000000 -20.000000 
v 18.000000 381.000000 -36.000000 
v 28.000000 179.000000 -8.000000 
v -2.000000 380.000000 -25.000000 
v 18.000000 381.000000 -36.000000 
v 13.000000 179.000000 -20.000000 
v -6.000000 179.000000 -9.000000 
v -2.000000 380.000000 -25.000000 
v 13.000000 179.000000 -20.000000 
v -17.000000 539.000000 8.000000 
v -10.000000 545.000000 -14.000000 
v -2.000000 380.000000 -25.000000 
v -8.000000 380.000000 -2.000000 
v -17.000000 539.000000 8.000000 
v -2.000000 380.000000 -25.000000 
v 24.000000 551.000000 -13.000000 
v 17.000000 545.000000 9.000000 
v 26.000000 380.000000 -1.000000 
v 32.000000 381.000000 -24.000000 
v 24.000000 551.000000 -13.000000 
v 26.000000 380.000000 -1.000000 
v 9.000000 552.000000 -25.000000 
v 24.000000 551.000000 -13.000000 
v 32.000000 381.000000 -24.000000 
v 18.000000 381.000000 -36.000000 
v 9.000000 552.000000 -25.000000 
v 32.000000 381.000000 -24.000000 
v -10.000000 545.000000 -14.000000 
v 9.000000 552.000000 -25.000000 
v 18.000000 381.000000 -36.000000 
v -2.000000 380.000000 -25.000000 
v -10.000000 545.000000 -14.000000 
v 18.000000 381.000000 -36.000000 
v -19.000000 548.000000 10.000000 
v -18.000000 560.000000 -4.000000 
v -10.000000 545.000000 -14.000000 
v -17.000000 539.000000 8.000000 
v -19.000000 548.000000 10.000000 
v -10.000000 545.000000 -14.000000 
v 11.000000 572.000000 2.000000 
v 10.000000 559.000000 18.000000 
v 17.000000 545.000000 9.000000 
v 24.000000 551.000000 -13.000000 
v 11.000000 572.000000 2.000000 
v 17.000000 545.000000 9.000000 
v -3.000000 572.000000 -8.000000 
v 11.000000 572.000000 2.000000 
v 24.000000 551.000000 -13.000000 
v 9.000000 552.000000 -25.000000 
v -3.000000 572.000000 -8.000000 
v 24.000000 551.000000 -13.000000 
v -18.000000 560.000000 -4.000000 
v -3.000000 572.000000 -8.000000 
v 9.000000 552.000000 -25.000000 
v -10.000000 545.000000 -14.000000 
v -18.000000 560.000000 -4.000000 
v 9.000000 552.000000 -25.000000 
v -25.000000 551.000000 18.000000 
v -32.000000 566.000000 13.000000 
v -18.000000 560.000000 -4.000000 
v -19.000000 548.000000 10.000000 
v -25.000000 551.000000 18.000000 
v -18.000000 560.000000 -4.000000 
v -10.000000 578.000000 30.000000 
v -3.000000 565.000000 36.000000 
v 10.000000 559.000000 18.000000 
v 11.000000 572.000000 2.000000 
v -10.000000 578.000000 30.000000 
v 10.000000 559.000000 18.000000 
v -25.000000 578.000000 19.000000 
v -10.000000 578.000000 30.000000 
v 11.000000 572.000000 2.000000 
v -3.000000 572.000000 -8.000000 
v -25.000000 578.000000 19.000000 
v 11.000000 572.000000 2.000000 
v -32.000000 566.000000 13.000000 
v -25.000000 578.000000 19.000000 
v -3.000000 572.000000 -8.000000 
v -18.000000 560.000000 -4.000000 
v -32.000000 566.000000 13.000000 
v -3.000000 572.000000 -8.000000 
vn -0.959473 0.005371 -0.280762 
vn -0.767578 0.003662 -0.640625 
vn -0.851807 0.012451 -0.523438 
vn -0.959473 0.007812 -0.280762 
vn -0.959473 0.005371 -0.280762 
vn -0.851807 0.012451 -0.523438 
vn 0.951416 -0.014404 -0.307129 
vn 0.959473 -0.002930 0.280762 
vn 0.959473 -0.007812 0.280762 
vn 0.859863 0.008545 -0.510010 
vn 0.951416 -0.014404 -0.307129 
vn 0.959473 -0.007812 0.280762 
vn 0.097900 -0.007812 -0.995117 
vn 0.951416 -0.014404 -0.307129 
vn 0.859863 0.008545 -0.510010 
vn -0.108887 0.020508 -0.993652 
vn 0.097900 -0.007812 -0.995117 
vn 0.859863 0.008545 -0.510010 
vn -0.767578 0.003662 -0.640625 
vn 0.097900 -0.007812 -0.995117 
vn -0.108887 0.020508 -0.993652 
vn -0.851807 0.012451 -0.523438 
vn -0.767578 0.003662 -0.640625 
vn -0.108887 0.020508 -0.993652 
vn -0.959473 -0.004883 -0.281006 
vn -0.766602 -0.012451 -0.641846 
vn -0.767578 0.003662 -0.640625 
vn -0.959473 0.005371 -0.280762 
vn -0.959473 -0.004883 -0.281006 
vn -0.767578 0.003662 -0.640625 
vn 0.951416 0.010986 -0.306885 
vn 0.958740 0.009766 0.283936 
vn 0.959473 -0.002930 0.280762 
vn 0.951416 -0.014404 -0.307129 
vn 0.951416 0.010986 -0.306885 
vn 0.959473 -0.002930 0.280762 
vn 0.096436 -0.005615 -0.995117 
vn 0.951416 0.010986 -0.306885 
vn 0.951416 -0.014404 -0.307129 
vn 0.097900 -0.007812 -0.995117 
vn 0.096436 -0.005615 -0.995117 
vn 0.951416 -0.014404 -0.307129 
vn -0.766602 -0.012451 -0.641846 
vn 0.096436 -0.005615 -0.995117 
vn 0.097900 -0.007812 -0.995117 
vn -0.767578 0.003662 -0.640625 
vn -0.766602 -0.012451 -0.641846 
vn 0.097900 -0.007812 -0.995117 
vn -0.954834 -0.030518 -0.295166 
vn -0.769775 -0.010986 -0.637939 
vn -0.766602 -0.012451 -0.641846 
vn -0.959473 -0.004883 -0.281006 
vn -0.954834 -0.030518 -0.295166 
vn -0.766602 -0.012451 -0.641846 
vn 0.938721 0.224121 -0.261475 
vn 0.941650 0.103271 0.319580 
vn 0.958740 0.009766 0.283936 
vn 0.951416 0.010986 -0.306885 
vn 0.938721 0.224121 -0.261475 
vn 0.958740 0.009766 0.283936 
vn 0.065674 0.167480 -0.983643 
vn 0.938721 0.224121 -0.261475 
vn 0.951416 0.010986 -0.306885 
vn 0.096436 -0.005615 -0.995117 
vn 0.065674 0.167480 -0.983643 
vn 0.951416 0.010986 -0.306885 
vn -0.769775 -0.010986 -0.637939 
vn 0.065674 0.167480 -0.983643 
vn 0.096436 -0.005615 -0.995117 
vn -0.766602 -0.012451 -0.641846 
vn -0.769775 -0.010986 -0.637939 
vn 0.096436 -0.005615 -0.995117 
vn -0.916748 -0.158203 -0.366455 
vn -0.754883 -0.017822 -0.655518 
vn -0.769775 -0.010986 -0.637939 
vn -0.954834 -0.030518 -0.295166 
vn -0.916748 -0.158203 -0.366455 
vn -0.769775 -0.010986 -0.637939 
vn 0.788818 0.614258 -0.012695 
vn 0.866211 0.247559 0.433350 
vn 0.941650 0.103271 0.319580 
vn 0.938721 0.224121 -0.261475 
vn 0.788818 0.614258 -0.012695 
vn 0.941650 0.103271 0.319580 
vn -0.088379 0.545654 -0.833008 
vn 0.788818 0.614258 -0.012695 
vn 0.938721 0.224121 -0.261475 
vn 0.065674 0.167480 -0.983643 
vn -0.088379 0.545654 -0.833008 
vn 0.938721 0.224121 -0.261475 
vn -0.754883 -0.017822 -0.655518 
vn -0.088379 0.545654 -0.833008 
vn 0.065674 0.167480 -0.983643 
vn -0.769775 -0.010986 -0.637939 
vn -0.754883 -0.017822 -0.655518 
vn 0.065674 0.167480 -0.983643 
vn -0.832520 -0.265869 -0.485596 
vn -0.736572 0.118164 -0.665771 
vn -0.754883 -0.017822 -0.655518 
vn -0.916748 -0.158203 -0.366455 
vn -0.832520 -0.265869 -0.485596 
vn -0.754883 -0.017822 -0.655518 
vn 0.743896 0.605713 0.281738 
vn 0.831055 0.312012 0.459717 
vn 0.866211 0.247559 0.433350 
vn 0.788818 0.614258 -0.012695 
vn 0.743896 0.605713 0.281738 
vn 0.866211 0.247559 0.433350 
vn -0.066406 0.869873 -0.488525 
vn 0.743896 0.605713 0.281738 
vn 0.788818 0.614258 -0.012695 
vn -0.088379 0.545654 -0.833008 
vn -0.066406 0.869873 -0.488525 
vn 0.788818 0.614258 -0.012695 
vn -0.736572 0.118164 -0.665771 
vn -0.066406 0.869873 -0.488525 
vn -0.088379 0.545654 -0.833008 
vn -0.754883 -0.017822 -0.655518 
vn -0.736572 0.118164 -0.665771 
vn -0.088379 0.545654 -0.833008 
vt 0.000000 0.590551 
vt 0.238095 0.590551 
vt 0.238095 -0.007874 
vt 0.000000 -0.007874 
vt 0.000000 0.590551 
vt 0.238095 -0.007874 
vt 0.746032 0.590551 
vt 1.000000 0.590551 
vt 1.000000 -0.007874 
vt 0.746032 -0.007874 
vt 0.746032 0.590551 
vt 1.000000 -0.007874 
vt 0.476190 0.590551 
vt 0.746032 0.590551 
vt 0.746032 -0.007874 
vt 0.476190 -0.007874 
vt 0.476190 0.590551 
vt 0.746032 -0.007874 
vt 0.238095 0.590551 
vt 0.476190 0.590551 
vt 0.476190 -0.007874 
vt 0.238095 -0.007874 
vt 0.238095 0.590551 
vt 0.476190 -0.007874 
vt 0.000000 0.590551 
vt 0.238095 0.590551 
vt 0.238095 -0.007874 
vt 0.000000 -0.007874 
vt 0.000000 0.590551 
vt 0.238095 -0.007874 
vt 0.746032 0.590551 
vt 1.000000 0.590551 
vt 1.000000 -0.007874 
vt 0.746032 -0.007874 
vt 0.746032 0.590551 
vt 1.000000 -0.007874 
vt 0.476190 0.590551 
vt 0.746032 0.590551 
vt 0.746032 -0.007874 
vt 0.476190 -0.007874 
vt 0.476190 0.590551 
vt 0.746032 -0.007874 
vt 0.238095 0.590551 
vt 0.476190 0.590551 
vt 0.476190 -0.007874 
vt 0.238095 -0.007874 
vt 0.238095 0.590551 
vt 0.476190 -0.007874 
vt 0.000000 0.582677 
vt 0.238095 0.582677 
vt 0.238095 -0.007874 
vt 0.000000 -0.007874 
vt 0.000000 0.582677 
vt 0.238095 -0.007874 
vt 0.746032 0.590551 
vt 1.000000 0.582677 
vt 1.000000 -0.007874 
vt 0.746032 -0.007874 
vt 0.746032 0.590551 
vt 1.000000 -0.007874 
vt 0.476190 0.590551 
vt 0.746032 0.590551 
vt 0.746032 -0.007874 
vt 0.476190 -0.007874 
vt 0.476190 0.590551 
vt 0.746032 -0.007874 
vt 0.238095 0.582677 
vt 0.476190 0.590551 
vt 0.476190 -0.007874 
vt 0.238095 -0.007874 
vt 0.238095 0.582677 
vt 0.476190 -0.007874 
vt 0.000000 0.866142 
vt 0.238095 0.771654 
vt 0.238095 1.000000 
vt 0.000000 1.000000 
vt 0.000000 0.866142 
vt 0.238095 1.000000 
vt 0.746032 0.748031 
vt 1.000000 0.724409 
vt 1.000000 1.000000 
vt 0.746032 0.976378 
vt 0.746032 0.748031 
vt 1.000000 1.000000 
vt 0.476190 0.740157 
vt 0.746032 0.748031 
vt 0.746032 0.976378 
vt 0.476190 0.976378 
vt 0.476190 0.740157 
vt 0.746032 0.976378 
vt 0.238095 0.771654 
vt 0.476190 0.740157 
vt 0.476190 0.976378 
vt 0.238095 1.000000 
vt 0.238095 0.771654 
vt 0.476190 0.976378 
vt 1.000000 0.716535 
vt 0.746032 0.716535 
vt 0.746032 0.519685 
vt 1.000000 0.566929 
vt 1.000000 0.716535 
vt 0.746032 0.519685 
vt 0.222222 0.716535 
vt 0.000000 0.716535 
vt 0.000000 0.551181 
vt 0.222222 0.480315 
vt 0.222222 0.716535 
vt 0.000000 0.551181 
vt 0.476190 0.716535 
vt 0.222222 0.716535 
vt 0.222222 0.480315 
vt 0.476190 0.472441 
vt 0.476190 0.716535 
vt 0.222222 0.480315 
vt 0.746032 0.716535 
vt 0.476190 0.716535 
vt 0.476190 0.472441 
vt 0.746032 0.519685 
vt 0.746032 0.716535 
vt 0.476190 0.472441 
f 1/1/1 2/2/2 3/3/3
f 4/4/4 5/5/5 6/6/6
f 7/7/7 8/8/8 9/9/9
f 10/10/10 11/11/11 12/12/12
f 13/13/13 14/14/14 15/15/15
f 16/16/16 17/17/17 18/18/18
f 19/19/19 20/20/20 21/21/21
f 22/22/22 23/23/23 24/24/24
f 25/25/25 26/26/26 27/27/27
f 28/28/28 29/29/29 30/30/30
f 31/31/31 32/32/32 33/33/33
f 34/34/34 35/35/35 36/36/36
f 37/37/37 38/38/38 39/39/39
f 40/40/40 41/41/41 42/42/42
f 43/43/43 44/44/44 45/45/45
f 46/46/46 47/47/47 48/48/48
f 49/49/49 50/50/50 51/51/51
f 52/52/52 53/53/53 54/54/54
f 55/55/55 56/56/56 57/57/57
f 58/58/58 59/59/59 60/60/60
f 61/61/61 62/62/62 63/63/63
f 64/64/64 65/65/65 66/66/66
f 67/67/67 68/68/68 69/69/69
f 70/70/70 71/71/71 72/72/72
f 73/73/73 74/74/74 75/75/75
f 76/76/76 77/77/77 78/78/78
f 79/79/79 80/80/80 81/81/81
f 82/82/82 83/83/83 84/84/84
f 85/85/85 86/86/86 87/87/87
f 88/88/88 89/89/89 90/90/90
f 91/91/91 92/92/92 93/93/93
f 94/94/94 95/95/95 96/96/96
f 97/97/97 98/98/98 99/99/99
f 100/100/100 101/101/101 102/102/102
f 103/103/103 104/104/104 105/105/105
f 106/106/106 107/107/107 108/108/108
f 109/109/109 110/110/110 111/111/111
f 112/112/112 113/113/113 114/114/114
f 115/115/115 116/116/116 117/117/117
f 118/118/118 119/119/119 120/120/120
