v 394.000000 448.000000 605.000000 
v 394.000000 448.000000 514.000000 
v 362.000000 459.000000 514.000000 
v 362.000000 459.000000 514.000000 
v 362.000000 459.000000 605.000000 
v 394.000000 448.000000 605.000000 
v 394.000000 448.000000 514.000000 
v 394.000000 359.000000 514.000000 
v 362.000000 359.000000 514.000000 
v 362.000000 359.000000 514.000000 
v 362.000000 459.000000 514.000000 
v 394.000000 448.000000 514.000000 
v 394.000000 448.000000 605.000000 
v 394.000000 359.000000 605.000000 
v 394.000000 359.000000 514.000000 
v 394.000000 359.000000 514.000000 
v 394.000000 448.000000 514.000000 
v 394.000000 448.000000 605.000000 
vn 0.570068 0.821289 0.000000 
vn 0.570068 0.821289 0.000000 
vn 0.570068 0.821289 0.000000 
vn 0.570068 0.821289 0.000000 
vn 0.570068 0.821289 0.000000 
vn 0.570068 0.821289 0.000000 
vn 0.000000 0.000000 -1.000000 
vn 0.000000 0.000000 -1.000000 
vn 0.000000 0.000000 -1.000000 
vn 0.000000 0.000000 -1.000000 
vn 0.000000 0.000000 -1.000000 
vn 0.000000 0.000000 -1.000000 
vn 1.000000 0.000000 0.000000 
vn 1.000000 0.000000 0.000000 
vn 1.000000 0.000000 0.000000 
vn 1.000000 0.000000 0.000000 
vn 1.000000 0.000000 0.000000 
vn 1.000000 0.000000 0.000000 
vt 0.555556 0.000000 
vt 0.555556 0.984127 
vt 0.682540 0.984127 
vt 0.682540 0.984127 
vt 0.682540 0.000000 
vt 0.555556 0.000000 
vt 0.714286 0.873016 
vt 0.714286 -0.015873 
vt 0.523810 -0.015873 
vt 0.523810 -0.015873 
vt 0.523810 0.968254 
vt 0.714286 0.873016 
vt 0.523810 1.000000 
vt 0.523810 -0.015873 
vt 0.000000 -0.015873 
vt 0.000000 -0.015873 
vt 0.000000 1.000000 
vt 0.523810 1.000000 
f 1/1/1 2/2/2 3/3/3
f 4/4/4 5/5/5 6/6/6
f 7/7/7 8/8/8 9/9/9
f 10/10/10 11/11/11 12/12/12
f 13/13/13 14/14/14 15/15/15
f 16/16/16 17/17/17 18/18/18
