v 106.000000 13.000000 756.000000 
v 106.000000 13.000000 -558.000000 
v -701.000000 13.000000 -558.000000 
v -701.000000 13.000000 -558.000000 
v -701.000000 13.000000 756.000000 
v 106.000000 13.000000 756.000000 
v 106.000000 13.000000 -558.000000 
v 106.000000 0.000000 -558.000000 
v -701.000000 0.000000 -558.000000 
v -701.000000 0.000000 -558.000000 
v -701.000000 13.000000 -558.000000 
v 106.000000 13.000000 -558.000000 
vn 0.000000 1.000000 0.000000 
vn 0.000000 1.000000 0.000000 
vn 0.000000 1.000000 0.000000 
vn 0.000000 1.000000 0.000000 
vn 0.000000 1.000000 0.000000 
vn 0.000000 1.000000 0.000000 
vn 0.000000 0.000000 -1.000000 
vn 0.000000 0.000000 -1.000000 
vn 0.000000 0.000000 -1.000000 
vn 0.000000 0.000000 -1.000000 
vn 0.000000 0.000000 -1.000000 
vn 0.000000 0.000000 -1.000000 
vt 1.000000 0.992126 
vt 1.000000 0.000000 
vt 0.000000 0.000000 
vt 0.000000 0.000000 
vt 0.000000 0.992126 
vt 1.000000 0.992126 
vt 1.000000 0.000000 
vt 1.000000 0.015748 
vt 0.000000 0.015748 
vt 0.000000 0.015748 
vt 0.000000 0.000000 
vt 1.000000 0.000000 
f 1/1/1 2/2/2 3/3/3
f 4/4/4 5/5/5 6/6/6
f 7/7/7 8/8/8 9/9/9
f 10/10/10 11/11/11 12/12/12
