v -19.000000 -42.000000 -4.000000 
v -13.000000 -1.000000 1.000000 
v 11.000000 -2.000000 1.000000 
v 11.000000 -2.000000 1.000000 
v 21.000000 -61.000000 -10.000000 
v 2.000000 -54.000000 -15.000000 
v -19.000000 -42.000000 -4.000000 
v 11.000000 -2.000000 1.000000 
v 2.000000 -54.000000 -15.000000 
v 11.000000 -2.000000 1.000000 
v -13.000000 -1.000000 1.000000 
v -19.000000 -42.000000 -4.000000 
v 2.000000 -54.000000 -15.000000 
v 21.000000 -61.000000 -10.000000 
v 11.000000 -2.000000 1.000000 
v 2.000000 -54.000000 -15.000000 
v 11.000000 -2.000000 1.000000 
v -19.000000 -42.000000 -4.000000 
vn -0.286377 0.644287 -0.708740 
vn 0.014893 0.501953 -0.864502 
vn 0.067627 0.684082 -0.726074 
vn 0.067627 0.684082 -0.726074 
vn 0.703613 0.509766 -0.494629 
vn 0.099609 0.781738 -0.615234 
vn -0.286377 0.644287 -0.708740 
vn 0.067627 0.684082 -0.726074 
vn 0.099609 0.781738 -0.615234 
vn -0.067627 -0.684082 0.726074 
vn -0.014893 -0.501953 0.864502 
vn 0.286377 -0.644287 0.708740 
vn -0.099609 -0.781738 0.615234 
vn -0.703613 -0.509766 0.494629 
vn -0.067627 -0.684082 0.726074 
vn -0.099609 -0.781738 0.615234 
vn -0.067627 -0.684082 0.726074 
vn 0.286377 -0.644287 0.708740 
vt 1.000000 -0.032258 
vt 1.000000 1.000000 
vt 0.000000 1.000000 
vt 0.000000 1.000000 
vt 0.000000 -0.032258 
vt 0.516129 -0.032258 
vt 1.000000 -0.032258 
vt 0.000000 1.000000 
vt 0.516129 -0.032258 
vt 0.000000 1.000000 
vt 1.000000 1.000000 
vt 1.000000 -0.032258 
vt 0.516129 -0.032258 
vt 0.000000 -0.032258 
vt 0.000000 1.000000 
vt 0.516129 -0.032258 
vt 0.000000 1.000000 
vt 1.000000 -0.032258 
f 1/1/1 2/2/2 3/3/3
f 4/4/4 5/5/5 6/6/6
f 7/7/7 8/8/8 9/9/9
f 10/10/10 11/11/11 12/12/12
f 13/13/13 14/14/14 15/15/15
f 16/16/16 17/17/17 18/18/18
