v -5.000000 -58.000000 92.000000 
v -30.000000 -58.000000 73.000000 
v -5.000000 -59.000000 65.000000 
v -30.000000 -58.000000 73.000000 
v -21.000000 -59.000000 44.000000 
v -5.000000 -59.000000 65.000000 
v 19.000000 -59.000000 73.000000 
v -5.000000 -58.000000 92.000000 
v -5.000000 -59.000000 65.000000 
v -21.000000 -59.000000 44.000000 
v 10.000000 -59.000000 44.000000 
v -5.000000 -59.000000 65.000000 
v 10.000000 -59.000000 44.000000 
v 19.000000 -59.000000 73.000000 
v -5.000000 -59.000000 65.000000 
v -5.000000 47.000000 84.000000 
v -30.000000 -58.000000 73.000000 
v -5.000000 -58.000000 92.000000 
v -30.000000 -58.000000 73.000000 
v -5.000000 47.000000 84.000000 
v -30.000000 26.000000 69.000000 
v -30.000000 26.000000 69.000000 
v -21.000000 -59.000000 44.000000 
v -30.000000 -58.000000 73.000000 
v -21.000000 -59.000000 44.000000 
v -30.000000 26.000000 69.000000 
v -21.000000 11.000000 42.000000 
v -21.000000 11.000000 42.000000 
v 10.000000 -59.000000 44.000000 
v -21.000000 -59.000000 44.000000 
v 10.000000 -59.000000 44.000000 
v -21.000000 11.000000 42.000000 
v 10.000000 11.000000 42.000000 
v 19.000000 26.000000 69.000000 
v 19.000000 -59.000000 73.000000 
v 10.000000 -59.000000 44.000000 
v 10.000000 -59.000000 44.000000 
v 10.000000 11.000000 42.000000 
v 19.000000 26.000000 69.000000 
v -5.000000 47.000000 84.000000 
v -5.000000 -58.000000 92.000000 
v 19.000000 -59.000000 73.000000 
v 19.000000 -59.000000 73.000000 
v 19.000000 26.000000 69.000000 
v -5.000000 47.000000 84.000000 
v -5.000000 49.000000 -43.000000 
v -30.000000 30.000000 -43.000000 
v -5.000000 64.000000 37.000000 
v -30.000000 30.000000 -43.000000 
v -30.000000 45.000000 37.000000 
v -5.000000 64.000000 37.000000 
v -30.000000 30.000000 -43.000000 
v -21.000000 1.000000 -43.000000 
v -30.000000 45.000000 37.000000 
v -21.000000 1.000000 -43.000000 
v -21.000000 15.000000 37.000000 
v -30.000000 45.000000 37.000000 
v -21.000000 1.000000 -43.000000 
v 10.000000 1.000000 -43.000000 
v -21.000000 15.000000 37.000000 
v 10.000000 1.000000 -43.000000 
v 10.000000 15.000000 37.000000 
v -21.000000 15.000000 37.000000 
v 10.000000 1.000000 -43.000000 
v 19.000000 30.000000 -43.000000 
v 10.000000 15.000000 37.000000 
v 19.000000 30.000000 -43.000000 
v 19.000000 45.000000 37.000000 
v 10.000000 15.000000 37.000000 
v 19.000000 30.000000 -43.000000 
v -5.000000 49.000000 -43.000000 
v 19.000000 45.000000 37.000000 
v -5.000000 49.000000 -43.000000 
v -5.000000 64.000000 37.000000 
v 19.000000 45.000000 37.000000 
v -30.000000 30.000000 -43.000000 
v -5.000000 49.000000 -43.000000 
v -5.000000 22.000000 -43.000000 
v -5.000000 49.000000 -43.000000 
v 19.000000 30.000000 -43.000000 
v -5.000000 22.000000 -43.000000 
v -21.000000 1.000000 -43.000000 
v -30.000000 30.000000 -43.000000 
v -5.000000 22.000000 -43.000000 
v 10.000000 1.000000 -43.000000 
v -21.000000 1.000000 -43.000000 
v -5.000000 22.000000 -43.000000 
v 19.000000 30.000000 -43.000000 
v 10.000000 1.000000 -43.000000 
v -5.000000 22.000000 -43.000000 
v -5.000000 64.000000 37.000000 
v -30.000000 45.000000 37.000000 
v -30.000000 26.000000 69.000000 
v -30.000000 26.000000 69.000000 
v -5.000000 47.000000 84.000000 
v -5.000000 64.000000 37.000000 
v -30.000000 45.000000 37.000000 
v -21.000000 15.000000 37.000000 
v -21.000000 11.000000 42.000000 
v -21.000000 11.000000 42.000000 
v -30.000000 26.000000 69.000000 
v -30.000000 45.000000 37.000000 
v -21.000000 11.000000 42.000000 
v 10.000000 15.000000 37.000000 
v 10.000000 11.000000 42.000000 
v 10.000000 15.000000 37.000000 
v -21.000000 11.000000 42.000000 
v -21.000000 15.000000 37.000000 
v 10.000000 11.000000 42.000000 
v 19.000000 45.000000 37.000000 
v 19.000000 26.000000 69.000000 
v 19.000000 45.000000 37.000000 
v 10.000000 11.000000 42.000000 
v 10.000000 15.000000 37.000000 
v 19.000000 26.000000 69.000000 
v -5.000000 64.000000 37.000000 
v -5.000000 47.000000 84.000000 
v -5.000000 64.000000 37.000000 
v 19.000000 26.000000 69.000000 
v 19.000000 45.000000 37.000000 
vn -0.000244 -0.999756 0.012451 
vn -0.000244 -0.999756 0.012451 
vn -0.000244 -0.999756 0.012451 
vn -0.000244 -0.999756 0.012451 
vn -0.000244 -0.999756 0.012451 
vn -0.000244 -0.999756 0.012451 
vn -0.000244 -0.999756 0.012451 
vn -0.000244 -0.999756 0.012451 
vn -0.000244 -0.999756 0.012451 
vn -0.000244 -0.999756 0.012451 
vn -0.000244 -0.999756 0.012451 
vn -0.000244 -0.999756 0.012451 
vn -0.000244 -0.999756 0.012451 
vn -0.000244 -0.999756 0.012451 
vn -0.000244 -0.999756 0.012451 
vn 0.000000 0.558105 0.829590 
vn -0.935791 0.047852 0.348877 
vn 0.000000 0.151123 0.988281 
vn -0.935791 0.047852 0.348877 
vn 0.000000 0.558105 0.829590 
vn -0.966309 0.236084 0.100342 
vn -0.966309 0.236084 0.100342 
vn -0.830322 -0.026855 -0.556152 
vn -0.935791 0.047852 0.348877 
vn -0.830322 -0.026855 -0.556152 
vn -0.966309 0.236084 0.100342 
vn -0.582031 -0.514648 -0.629150 
vn -0.582031 -0.514648 -0.629150 
vn 0.647217 -0.034668 -0.761230 
vn -0.830322 -0.026855 -0.556152 
vn 0.647217 -0.034668 -0.761230 
vn -0.582031 -0.514648 -0.629150 
vn 0.773926 -0.424561 -0.469238 
vn 0.966553 0.235352 0.100342 
vn 0.935791 0.047363 0.348877 
vn 0.647217 -0.034668 -0.761230 
vn 0.647217 -0.034668 -0.761230 
vn 0.773926 -0.424561 -0.469238 
vn 0.966553 0.235352 0.100342 
vn 0.000000 0.558105 0.829590 
vn 0.000000 0.151123 0.988281 
vn 0.935791 0.047363 0.348877 
vn 0.935791 0.047363 0.348877 
vn 0.966553 0.235352 0.100342 
vn 0.000000 0.558105 0.829590 
vn 0.234863 0.968262 -0.083740 
vn -0.850830 0.523193 -0.045166 
vn -0.107666 0.990234 0.087402 
vn -0.850830 0.523193 -0.045166 
vn -0.997070 0.075439 0.000488 
vn -0.107666 0.990234 0.087402 
vn -0.850830 0.523193 -0.045166 
vn -0.761230 -0.645752 0.055664 
vn -0.997070 0.075439 0.000488 
vn -0.761230 -0.645752 0.055664 
vn -0.471191 -0.878906 -0.072754 
vn -0.997070 0.075439 0.000488 
vn -0.761230 -0.645752 0.055664 
vn 0.380127 -0.921387 0.079590 
vn -0.471191 -0.878906 -0.072754 
vn 0.380127 -0.921387 0.079590 
vn 0.594238 -0.789795 -0.150879 
vn -0.471191 -0.878906 -0.072754 
vn 0.380127 -0.921387 0.079590 
vn 0.997070 0.075439 -0.006348 
vn 0.594238 -0.789795 -0.150879 
vn 0.997070 0.075439 -0.006348 
vn 0.950928 0.308350 -0.019287 
vn 0.594238 -0.789795 -0.150879 
vn 0.997070 0.075439 -0.006348 
vn 0.234863 0.968262 -0.083740 
vn 0.950928 0.308350 -0.019287 
vn 0.234863 0.968262 -0.083740 
vn -0.107666 0.990234 0.087402 
vn 0.950928 0.308350 -0.019287 
vn 0.000000 0.000000 -1.000000 
vn 0.000000 0.000000 -1.000000 
vn 0.000000 0.000000 -1.000000 
vn 0.000000 0.000000 -1.000000 
vn 0.000000 0.000000 -1.000000 
vn 0.000000 0.000000 -1.000000 
vn 0.000000 0.000000 -1.000000 
vn 0.000000 0.000000 -1.000000 
vn 0.000000 0.000000 -1.000000 
vn 0.000000 0.000000 -1.000000 
vn 0.000000 0.000000 -1.000000 
vn 0.000000 0.000000 -1.000000 
vn 0.000000 0.000000 -1.000000 
vn 0.000000 0.000000 -1.000000 
vn 0.000000 0.000000 -1.000000 
vn -0.107666 0.990234 0.087402 
vn -0.997070 0.075439 0.000488 
vn -0.966309 0.236084 0.100342 
vn -0.966309 0.236084 0.100342 
vn 0.000000 0.558105 0.829590 
vn -0.107666 0.990234 0.087402 
vn -0.997070 0.075439 0.000488 
vn -0.471191 -0.878906 -0.072754 
vn -0.582031 -0.514648 -0.629150 
vn -0.582031 -0.514648 -0.629150 
vn -0.966309 0.236084 0.100342 
vn -0.997070 0.075439 0.000488 
vn -0.582031 -0.514648 -0.629150 
vn 0.594238 -0.789795 -0.150879 
vn 0.773926 -0.424561 -0.469238 
vn 0.594238 -0.789795 -0.150879 
vn -0.582031 -0.514648 -0.629150 
vn -0.471191 -0.878906 -0.072754 
vn 0.773926 -0.424561 -0.469238 
vn 0.950928 0.308350 -0.019287 
vn 0.966553 0.235352 0.100342 
vn 0.950928 0.308350 -0.019287 
vn 0.773926 -0.424561 -0.469238 
vn 0.594238 -0.789795 -0.150879 
vn 0.966553 0.235352 0.100342 
vn -0.107666 0.990234 0.087402 
vn 0.000000 0.558105 0.829590 
vn -0.107666 0.990234 0.087402 
vn 0.966553 0.235352 0.100342 
vn 0.950928 0.308350 -0.019287 
vt 0.064516 0.387097 
vt 0.000000 0.451613 
vt 0.064516 0.483871 
vt 0.000000 0.451613 
vt 0.000000 0.548387 
vt 0.064516 0.483871 
vt 0.129032 0.451613 
vt 0.064516 0.387097 
vt 0.064516 0.483871 
vt 0.000000 0.548387 
vt 0.096774 0.548387 
vt 0.064516 0.483871 
vt 0.096774 0.548387 
vt 0.129032 0.451613 
vt 0.064516 0.483871 
vt 0.000000 0.548387 
vt 0.354839 -0.032258 
vt 0.000000 -0.032258 
vt 0.354839 -0.032258 
vt 0.000000 0.548387 
vt 0.354839 0.548387 
vt 0.000000 0.548387 
vt 0.354839 -0.032258 
vt 0.000000 -0.032258 
vt 0.354839 -0.032258 
vt 0.000000 0.548387 
vt 0.354839 0.612903 
vt 0.000000 0.612903 
vt 0.354839 -0.032258 
vt 0.000000 -0.032258 
vt 0.354839 -0.032258 
vt 0.000000 0.612903 
vt 0.354839 0.612903 
vt 0.354839 0.548387 
vt 0.354839 -0.032258 
vt 0.000000 -0.032258 
vt 0.000000 -0.032258 
vt 0.000000 0.612903 
vt 0.354839 0.548387 
vt 0.354839 0.548387 
vt 0.354839 -0.032258 
vt 0.000000 -0.032258 
vt 0.000000 -0.032258 
vt 0.000000 0.548387 
vt 0.354839 0.548387 
vt 0.000000 1.000000 
vt 0.354839 1.000000 
vt 0.000000 -0.032258 
vt 0.354839 1.000000 
vt 0.354839 -0.032258 
vt 0.000000 -0.032258 
vt 0.000000 1.000000 
vt 0.354839 1.000000 
vt 0.000000 -0.032258 
vt 0.354839 1.000000 
vt 0.354839 -0.032258 
vt 0.000000 -0.032258 
vt 0.000000 1.000000 
vt 0.354839 1.000000 
vt 0.000000 -0.032258 
vt 0.354839 1.000000 
vt 0.354839 -0.032258 
vt 0.000000 -0.032258 
vt 0.000000 1.000000 
vt 0.354839 1.000000 
vt 0.000000 -0.032258 
vt 0.354839 1.000000 
vt 0.354839 -0.032258 
vt 0.000000 -0.032258 
vt 0.000000 1.000000 
vt 0.354839 1.000000 
vt 0.000000 -0.032258 
vt 0.354839 1.000000 
vt 0.354839 -0.032258 
vt 0.000000 -0.032258 
vt 0.064516 0.548387 
vt 0.129032 0.451613 
vt 0.064516 0.451613 
vt 0.129032 0.451613 
vt 0.064516 0.387097 
vt 0.064516 0.451613 
vt 0.000000 0.516129 
vt 0.064516 0.548387 
vt 0.064516 0.451613 
vt 0.000000 0.419355 
vt 0.000000 0.516129 
vt 0.064516 0.451613 
vt 0.064516 0.387097 
vt 0.000000 0.419355 
vt 0.064516 0.451613 
vt 0.000000 1.000000 
vt 0.354839 1.000000 
vt 0.354839 0.548387 
vt 0.354839 0.548387 
vt 0.000000 0.548387 
vt 0.000000 1.000000 
vt 0.000000 1.000000 
vt 0.354839 1.000000 
vt 0.354839 0.612903 
vt 0.354839 0.612903 
vt 0.000000 0.548387 
vt 0.000000 1.000000 
vt 0.000000 0.612903 
vt 0.354839 1.000000 
vt 0.354839 0.612903 
vt 0.354839 1.000000 
vt 0.000000 0.612903 
vt 0.000000 1.000000 
vt 0.000000 0.612903 
vt 0.354839 1.000000 
vt 0.354839 0.548387 
vt 0.354839 1.000000 
vt 0.000000 0.612903 
vt 0.000000 1.000000 
vt 0.000000 0.548387 
vt 0.354839 1.000000 
vt 0.354839 0.548387 
vt 0.354839 1.000000 
vt 0.000000 0.548387 
vt 0.000000 1.000000 
f 1/1/1 2/2/2 3/3/3
f 4/4/4 5/5/5 6/6/6
f 7/7/7 8/8/8 9/9/9
f 10/10/10 11/11/11 12/12/12
f 13/13/13 14/14/14 15/15/15
f 16/16/16 17/17/17 18/18/18
f 19/19/19 20/20/20 21/21/21
f 22/22/22 23/23/23 24/24/24
f 25/25/25 26/26/26 27/27/27
f 28/28/28 29/29/29 30/30/30
f 31/31/31 32/32/32 33/33/33
f 34/34/34 35/35/35 36/36/36
f 37/37/37 38/38/38 39/39/39
f 40/40/40 41/41/41 42/42/42
f 43/43/43 44/44/44 45/45/45
f 46/46/46 47/47/47 48/48/48
f 49/49/49 50/50/50 51/51/51
f 52/52/52 53/53/53 54/54/54
f 55/55/55 56/56/56 57/57/57
f 58/58/58 59/59/59 60/60/60
f 61/61/61 62/62/62 63/63/63
f 64/64/64 65/65/65 66/66/66
f 67/67/67 68/68/68 69/69/69
f 70/70/70 71/71/71 72/72/72
f 73/73/73 74/74/74 75/75/75
f 76/76/76 77/77/77 78/78/78
f 79/79/79 80/80/80 81/81/81
f 82/82/82 83/83/83 84/84/84
f 85/85/85 86/86/86 87/87/87
f 88/88/88 89/89/89 90/90/90
f 91/91/91 92/92/92 93/93/93
f 94/94/94 95/95/95 96/96/96
f 97/97/97 98/98/98 99/99/99
f 100/100/100 101/101/101 102/102/102
f 103/103/103 104/104/104 105/105/105
f 106/106/106 107/107/107 108/108/108
f 109/109/109 110/110/110 111/111/111
f 112/112/112 113/113/113 114/114/114
f 115/115/115 116/116/116 117/117/117
f 118/118/118 119/119/119 120/120/120
