v -27.000000 115.000000 43.000000 
v 126.000000 70.000000 -54.000000 
v -27.000000 115.000000 -54.000000 
v 126.000000 70.000000 -54.000000 
v -27.000000 115.000000 43.000000 
v 126.000000 70.000000 43.000000 
v -167.000000 5.000000 -173.000000 
v -124.000000 5.000000 41.000000 
v -49.000000 5.000000 -118.000000 
v -124.000000 5.000000 41.000000 
v -167.000000 5.000000 -173.000000 
v -241.000000 5.000000 -13.000000 
vn 0.283203 0.958984 0.000000 
vn 0.283203 0.958984 0.000000 
vn 0.283203 0.958984 0.000000 
vn 0.283203 0.958984 0.000000 
vn 0.283203 0.958984 0.000000 
vn 0.283203 0.958984 0.000000 
vn 0.000000 1.000000 0.000000 
vn 0.000000 1.000000 0.000000 
vn 0.000000 1.000000 0.000000 
vn 0.000000 1.000000 0.000000 
vn 0.000000 1.000000 0.000000 
vn 0.000000 1.000000 0.000000 
vt 0.440945 0.472441 
vt 0.000000 0.000000 
vt 0.000000 0.472441 
vt 0.000000 0.000000 
vt 0.440945 0.472441 
vt 0.440945 0.000000 
vt 0.440945 0.472441 
vt 0.000000 0.000000 
vt 0.000000 0.472441 
vt 0.000000 0.000000 
vt 0.440945 0.472441 
vt 0.440945 0.000000 
f 1/1/1 2/2/2 3/3/3
f 4/4/4 5/5/5 6/6/6
f 7/7/7 8/8/8 9/9/9
f 10/10/10 11/11/11 12/12/12
