v 118.000000 70.000000 22.000000 
v 89.000000 12.000000 7.000000 
v 25.000000 7.000000 0.000000 
v 118.000000 70.000000 22.000000 
v 25.000000 7.000000 0.000000 
v 33.000000 75.000000 11.000000 
vn -0.010254 0.141357 -0.989746 
vn 0.001221 0.254883 -0.966797 
vn 0.036865 0.196289 -0.979736 
vn -0.010254 0.141357 -0.989746 
vn 0.036865 0.196289 -0.979736 
vn 0.071289 0.033203 -0.996826 
vt 1.000000 1.000000 
vt 0.698413 1.000000 
vt 0.698413 0.809524 
vt 1.000000 1.000000 
vt 0.698413 0.809524 
vt 1.000000 0.793651 
f 1/1/1 2/2/2 3/3/3
f 4/4/4 5/5/5 6/6/6
