v 42.000000 193.000000 10.000000 
v -37.000000 -179.000000 12.000000 
v -11.000000 -194.000000 -4.000000 
v -37.000000 -179.000000 12.000000 
v 42.000000 193.000000 10.000000 
v 25.000000 194.000000 22.000000 
v 29.000000 187.000000 -11.000000 
v -11.000000 -194.000000 -4.000000 
v -22.000000 -191.000000 -22.000000 
v -11.000000 -194.000000 -4.000000 
v 29.000000 187.000000 -11.000000 
v 42.000000 193.000000 10.000000 
v 11.000000 193.000000 -2.000000 
v -42.000000 -194.000000 -17.000000 
v -37.000000 -179.000000 12.000000 
v -37.000000 -179.000000 12.000000 
v 25.000000 194.000000 22.000000 
v 11.000000 193.000000 -2.000000 
v 29.000000 187.000000 -11.000000 
v -22.000000 -191.000000 -22.000000 
v -42.000000 -194.000000 -17.000000 
v -42.000000 -194.000000 -17.000000 
v 11.000000 193.000000 -2.000000 
v 29.000000 187.000000 -11.000000 
v 11.000000 193.000000 -2.000000 
v -42.000000 -194.000000 -17.000000 
v -37.000000 -179.000000 12.000000 
v -37.000000 -179.000000 12.000000 
v 25.000000 194.000000 22.000000 
v 11.000000 193.000000 -2.000000 
v 29.000000 187.000000 -11.000000 
v -22.000000 -191.000000 -22.000000 
v -42.000000 -194.000000 -17.000000 
v -42.000000 -194.000000 -17.000000 
v 11.000000 193.000000 -2.000000 
v 29.000000 187.000000 -11.000000 
v 11.000000 193.000000 -2.000000 
v 25.000000 194.000000 22.000000 
v 42.000000 193.000000 10.000000 
v 29.000000 187.000000 -11.000000 
v 11.000000 193.000000 -2.000000 
v 42.000000 193.000000 10.000000 
v -11.000000 -194.000000 -4.000000 
v -37.000000 -179.000000 12.000000 
v -42.000000 -194.000000 -17.000000 
v -22.000000 -191.000000 -22.000000 
v -11.000000 -194.000000 -4.000000 
v -42.000000 -194.000000 -17.000000 
vn 0.548828 -0.113281 0.828125 
vn -0.680420 0.081787 0.728027 
vn 0.523682 -0.107666 0.844727 
vn -0.680420 0.081787 0.728027 
vn 0.548828 -0.113281 0.828125 
vn -0.549561 0.071533 0.832031 
vn 0.068604 0.024902 -0.997314 
vn 0.851074 -0.100586 -0.515137 
vn 0.139648 0.009766 -0.989990 
vn 0.851074 -0.100586 -0.515137 
vn 0.068604 0.024902 -0.997314 
vn 0.863525 -0.101562 -0.493408 
vn -0.946533 0.137939 0.290771 
vn -0.986328 0.135010 0.093994 
vn -0.680420 0.081787 0.728027 
vn -0.680420 0.081787 0.728027 
vn -0.549561 0.071533 0.832031 
vn -0.946533 0.137939 0.290771 
vn 0.068604 0.024902 -0.997314 
vn 0.139648 0.009766 -0.989990 
vn -0.345459 0.080566 -0.934814 
vn -0.345459 0.080566 -0.934814 
vn -0.442383 0.098145 -0.891113 
vn 0.068604 0.024902 -0.997314 
vn -0.946533 0.137939 0.290771 
vn -0.986328 0.135010 0.093994 
vn -0.680420 0.081787 0.728027 
vn -0.680420 0.081787 0.728027 
vn -0.549561 0.071533 0.832031 
vn -0.946533 0.137939 0.290771 
vn 0.068604 0.024902 -0.997314 
vn 0.139648 0.009766 -0.989990 
vn -0.345459 0.080566 -0.934814 
vn -0.345459 0.080566 -0.934814 
vn -0.442383 0.098145 -0.891113 
vn 0.068604 0.024902 -0.997314 
vn 0.035889 0.995605 -0.085693 
vn 0.035889 0.995605 -0.085693 
vn 0.035889 0.995605 -0.085693 
vn 0.142822 0.929199 -0.340576 
vn 0.142822 0.929199 -0.340576 
vn 0.142822 0.929199 -0.340576 
vn -0.195068 -0.863281 0.465088 
vn -0.195068 -0.863281 0.465088 
vn -0.195068 -0.863281 0.465088 
vn 0.095947 -0.968506 -0.229004 
vn 0.095947 -0.968506 -0.229004 
vn 0.095947 -0.968506 -0.229004 
vt 0.000000 -0.032258 
vt 1.000000 1.000000 
vt 1.000000 -0.032258 
vt 1.000000 1.000000 
vt 0.000000 -0.032258 
vt 0.000000 1.000000 
vt 0.000000 1.000000 
vt 1.000000 -0.032258 
vt 1.000000 1.000000 
vt 1.000000 -0.032258 
vt 0.000000 1.000000 
vt 0.000000 -0.032258 
vt 0.000000 -0.032258 
vt 1.000000 -0.032258 
vt 1.000000 1.000000 
vt 1.000000 1.000000 
vt 0.000000 1.000000 
vt 0.000000 -0.032258 
vt 0.000000 1.000000 
vt 1.000000 1.000000 
vt 1.000000 -0.032258 
vt 1.000000 -0.032258 
vt 0.000000 -0.032258 
vt 0.000000 1.000000 
vt 0.000000 -0.032258 
vt 1.000000 -0.032258 
vt 1.000000 1.000000 
vt 1.000000 1.000000 
vt 0.000000 1.000000 
vt 0.000000 -0.032258 
vt 0.000000 1.000000 
vt 1.000000 1.000000 
vt 1.000000 -0.032258 
vt 1.000000 -0.032258 
vt 0.000000 -0.032258 
vt 0.000000 1.000000 
vt 0.000000 -0.032258 
vt 0.000000 1.000000 
vt 0.000000 -0.032258 
vt 0.000000 1.000000 
vt 0.000000 -0.032258 
vt 0.000000 -0.032258 
vt 1.000000 1.000000 
vt 0.000000 1.000000 
vt 0.000000 -0.032258 
vt 1.000000 -0.032258 
vt 1.000000 1.000000 
vt 0.000000 -0.032258 
f 1/1/1 2/2/2 3/3/3
f 4/4/4 5/5/5 6/6/6
f 7/7/7 8/8/8 9/9/9
f 10/10/10 11/11/11 12/12/12
f 13/13/13 14/14/14 15/15/15
f 16/16/16 17/17/17 18/18/18
f 19/19/19 20/20/20 21/21/21
f 22/22/22 23/23/23 24/24/24
f 25/25/25 26/26/26 27/27/27
f 28/28/28 29/29/29 30/30/30
f 31/31/31 32/32/32 33/33/33
f 34/34/34 35/35/35 36/36/36
f 37/37/37 38/38/38 39/39/39
f 40/40/40 41/41/41 42/42/42
f 43/43/43 44/44/44 45/45/45
f 46/46/46 47/47/47 48/48/48
