v 160.000000 15.000000 16.000000 
v 71.000000 95.000000 20.000000 
v 78.000000 8.000000 19.000000 
v 160.000000 15.000000 16.000000 
v 155.000000 102.000000 17.000000 
v 71.000000 95.000000 20.000000 
vn 0.032471 -0.005859 0.999268 
vn 0.000732 0.344971 0.938477 
vn 0.032715 -0.004395 0.999268 
vn 0.032471 -0.005859 0.999268 
vn 0.000977 0.344971 0.938477 
vn 0.000732 0.344971 0.938477 
vt 0.000000 0.777778 
vt 0.365079 0.555556 
vt 0.000000 0.555556 
vt 0.000000 0.777778 
vt 0.365079 0.777778 
vt 0.365079 0.555556 
f 1/1/1 2/2/2 3/3/3
f 4/4/4 5/5/5 6/6/6
