v 111.000000 -39.000000 -28.000000 
v -111.000000 -39.000000 -28.000000 
v -111.000000 122.000000 -52.000000 
v 111.000000 122.000000 -20.000000 
v 111.000000 -39.000000 -28.000000 
v -111.000000 122.000000 -52.000000 
v 111.000000 -39.000000 -28.000000 
v 84.000000 -122.000000 52.000000 
v -111.000000 -39.000000 -28.000000 
vn 0.045898 -0.153809 -0.986816 
vn 0.000000 -0.241211 -0.970459 
vn 0.067627 -0.023438 -0.997314 
vn 0.135254 0.022217 -0.990479 
vn 0.045898 -0.153809 -0.986816 
vn 0.067627 -0.023438 -0.997314 
vn 0.045898 -0.153809 -0.986816 
vn 0.000000 -0.406006 -0.913818 
vn 0.000000 -0.241211 -0.970459 
vt 0.708661 0.299213 
vt 0.960630 0.299213 
vt 0.960630 0.700787 
vt 0.708661 0.700787 
vt 0.708661 0.299213 
vt 0.960630 0.700787 
vt 0.496063 0.700787 
vt 0.464567 0.614173 
vt 0.244094 0.708661 
f 1/1/1 2/2/2 3/3/3
f 4/4/4 5/5/5 6/6/6
f 7/7/7 8/8/8 9/9/9
