v -19.000000 27.000000 19.000000 
v 0.000000 27.000000 27.000000 
v 0.000000 38.000000 0.000000 
v -27.000000 27.000000 0.000000 
v -19.000000 27.000000 19.000000 
v 0.000000 38.000000 0.000000 
v -27.000000 0.000000 27.000000 
v 0.000000 0.000000 38.000000 
v 0.000000 27.000000 27.000000 
v -19.000000 27.000000 19.000000 
v -27.000000 0.000000 27.000000 
v 0.000000 27.000000 27.000000 
v -38.000000 0.000000 0.000000 
v -27.000000 0.000000 27.000000 
v -19.000000 27.000000 19.000000 
v -27.000000 27.000000 0.000000 
v -38.000000 0.000000 0.000000 
v -19.000000 27.000000 19.000000 
v -19.000000 -27.000000 19.000000 
v 0.000000 -27.000000 27.000000 
v 0.000000 0.000000 38.000000 
v -27.000000 0.000000 27.000000 
v -19.000000 -27.000000 19.000000 
v 0.000000 0.000000 38.000000 
v -27.000000 -27.000000 0.000000 
v -19.000000 -27.000000 19.000000 
v -27.000000 0.000000 27.000000 
v -38.000000 0.000000 0.000000 
v -27.000000 -27.000000 0.000000 
v -27.000000 0.000000 27.000000 
v 0.000000 -27.000000 27.000000 
v -19.000000 -27.000000 19.000000 
v 0.000000 -38.000000 0.000000 
v -19.000000 -27.000000 19.000000 
v -27.000000 -27.000000 0.000000 
v 0.000000 -38.000000 0.000000 
vn -0.589600 0.652588 0.475586 
vn -0.080322 0.652588 0.753174 
vn 0.000000 0.959473 0.281006 
vn -0.671143 0.687012 0.277832 
vn -0.589600 0.652588 0.475586 
vn 0.000000 0.959473 0.281006 
vn -0.707031 0.000000 0.707031 
vn 0.000000 0.000000 1.000000 
vn -0.080322 0.652588 0.753174 
vn -0.589600 0.652588 0.475586 
vn -0.707031 0.000000 0.707031 
vn -0.080322 0.652588 0.753174 
vn -0.916260 0.126465 0.379395 
vn -0.707031 0.000000 0.707031 
vn -0.589600 0.652588 0.475586 
vn -0.671143 0.687012 0.277832 
vn -0.916260 0.126465 0.379395 
vn -0.589600 0.652588 0.475586 
vn -0.475586 -0.652588 0.589600 
vn 0.080322 -0.652588 0.753174 
vn 0.000000 0.000000 1.000000 
vn -0.707031 0.000000 0.707031 
vn -0.475586 -0.652588 0.589600 
vn 0.000000 0.000000 1.000000 
vn -0.751465 -0.581299 0.311279 
vn -0.475586 -0.652588 0.589600 
vn -0.707031 0.000000 0.707031 
vn -0.916260 0.126465 0.379395 
vn -0.751465 -0.581299 0.311279 
vn -0.707031 0.000000 0.707031 
vn 0.080322 -0.652588 0.753174 
vn -0.475586 -0.652588 0.589600 
vn 0.000000 -0.959473 0.281006 
vn -0.475586 -0.652588 0.589600 
vn -0.751465 -0.581299 0.311279 
vn 0.000000 -0.959473 0.281006 
vt 0.129032 0.322581 
vt 0.129032 0.129032 
vt 0.000000 0.451613 
vt 0.129032 0.645161 
vt 0.129032 0.322581 
vt 0.000000 0.451613 
vt 0.451613 0.258065 
vt 0.451613 -0.032258 
vt 0.129032 0.129032 
vt 0.129032 0.322581 
vt 0.451613 0.258065 
vt 0.129032 0.129032 
vt 0.451613 0.709677 
vt 0.451613 0.258065 
vt 0.129032 0.322581 
vt 0.129032 0.645161 
vt 0.451613 0.709677 
vt 0.129032 0.322581 
vt 0.838710 0.322581 
vt 0.838710 0.129032 
vt 0.451613 -0.032258 
vt 0.451613 0.258065 
vt 0.838710 0.322581 
vt 0.451613 -0.032258 
vt 0.838710 0.645161 
vt 0.838710 0.322581 
vt 0.451613 0.258065 
vt 0.451613 0.709677 
vt 0.838710 0.645161 
vt 0.451613 0.258065 
vt 0.838710 0.129032 
vt 0.838710 0.322581 
vt 1.000000 0.516129 
vt 0.838710 0.322581 
vt 0.838710 0.645161 
vt 1.000000 0.516129 
f 1/1/1 2/2/2 3/3/3
f 4/4/4 5/5/5 6/6/6
f 7/7/7 8/8/8 9/9/9
f 10/10/10 11/11/11 12/12/12
f 13/13/13 14/14/14 15/15/15
f 16/16/16 17/17/17 18/18/18
f 19/19/19 20/20/20 21/21/21
f 22/22/22 23/23/23 24/24/24
f 25/25/25 26/26/26 27/27/27
f 28/28/28 29/29/29 30/30/30
f 31/31/31 32/32/32 33/33/33
f 34/34/34 35/35/35 36/36/36
