v 18.000000 -20.000000 -84.000000 
v 18.000000 -52.000000 -62.000000 
v -18.000000 -51.000000 -62.000000 
v -18.000000 -51.000000 -62.000000 
v -18.000000 -20.000000 -84.000000 
v 18.000000 -20.000000 -84.000000 
v -51.000000 2.000000 -14.000000 
v -18.000000 -20.000000 -84.000000 
v -18.000000 -51.000000 -62.000000 
v -18.000000 -51.000000 -62.000000 
v -51.000000 -35.000000 -14.000000 
v -51.000000 2.000000 -14.000000 
v -16.000000 3.000000 47.000000 
v -51.000000 2.000000 -14.000000 
v -51.000000 -35.000000 -14.000000 
v -51.000000 -35.000000 -14.000000 
v -16.000000 -34.000000 48.000000 
v -16.000000 3.000000 47.000000 
v -13.000000 2.000000 -14.000000 
v 18.000000 -20.000000 -84.000000 
v -18.000000 -20.000000 -84.000000 
v -18.000000 -20.000000 -84.000000 
v -51.000000 2.000000 -14.000000 
v -13.000000 2.000000 -14.000000 
v 16.000000 3.000000 47.000000 
v -13.000000 2.000000 -14.000000 
v -51.000000 2.000000 -14.000000 
v -51.000000 2.000000 -14.000000 
v -16.000000 3.000000 47.000000 
v 16.000000 3.000000 47.000000 
v -13.000000 -35.000000 -14.000000 
v 18.000000 -52.000000 -62.000000 
v 18.000000 -20.000000 -84.000000 
v 18.000000 -20.000000 -84.000000 
v -13.000000 2.000000 -14.000000 
v -13.000000 -35.000000 -14.000000 
v 16.000000 -34.000000 48.000000 
v -13.000000 -35.000000 -14.000000 
v -13.000000 2.000000 -14.000000 
v -13.000000 2.000000 -14.000000 
v 16.000000 3.000000 47.000000 
v 16.000000 -34.000000 48.000000 
v -51.000000 -35.000000 -14.000000 
v -18.000000 -51.000000 -62.000000 
v 18.000000 -52.000000 -62.000000 
v 18.000000 -52.000000 -62.000000 
v -13.000000 -35.000000 -14.000000 
v -51.000000 -35.000000 -14.000000 
v -16.000000 -34.000000 48.000000 
v -51.000000 -35.000000 -14.000000 
v -13.000000 -35.000000 -14.000000 
v -13.000000 -35.000000 -14.000000 
v 16.000000 -34.000000 48.000000 
v -16.000000 -34.000000 48.000000 
v 18.000000 62.000000 84.000000 
v 18.000000 61.000000 45.000000 
v -18.000000 61.000000 45.000000 
v -18.000000 61.000000 45.000000 
v -18.000000 62.000000 84.000000 
v 18.000000 62.000000 84.000000 
v 18.000000 -59.000000 86.000000 
v -18.000000 -59.000000 86.000000 
v -18.000000 -60.000000 47.000000 
v -18.000000 -60.000000 47.000000 
v 18.000000 -60.000000 47.000000 
v 18.000000 -59.000000 86.000000 
v -18.000000 -59.000000 86.000000 
v -18.000000 62.000000 84.000000 
v -18.000000 61.000000 45.000000 
v -18.000000 61.000000 45.000000 
v -18.000000 -60.000000 47.000000 
v -18.000000 -59.000000 86.000000 
v 18.000000 -59.000000 86.000000 
v 18.000000 62.000000 84.000000 
v -18.000000 62.000000 84.000000 
v -18.000000 62.000000 84.000000 
v -18.000000 -59.000000 86.000000 
v 18.000000 -59.000000 86.000000 
v 18.000000 -60.000000 47.000000 
v 18.000000 61.000000 45.000000 
v 18.000000 62.000000 84.000000 
v 18.000000 62.000000 84.000000 
v 18.000000 -59.000000 86.000000 
v 18.000000 -60.000000 47.000000 
v -18.000000 -60.000000 47.000000 
v -18.000000 61.000000 45.000000 
v 18.000000 61.000000 45.000000 
v 18.000000 61.000000 45.000000 
v 18.000000 -60.000000 47.000000 
v -18.000000 -60.000000 47.000000 
vn 0.000000 -0.654785 -0.755615 
vn 0.000000 -0.654785 -0.755615 
vn 0.000000 -0.654785 -0.755615 
vn 0.000000 -0.654785 -0.755615 
vn 0.000000 -0.654785 -0.755615 
vn 0.000000 -0.654785 -0.755615 
vn -0.972168 -0.137939 -0.188232 
vn -0.848877 -0.345703 -0.399170 
vn -0.826904 -0.182373 -0.531494 
vn -0.826904 -0.182373 -0.531494 
vn -0.979736 0.003662 0.199951 
vn -0.972168 -0.137939 -0.188232 
vn -0.823730 0.010010 0.566650 
vn -0.972168 -0.137939 -0.188232 
vn -0.979736 0.003662 0.199951 
vn -0.979736 0.003662 0.199951 
vn -0.823730 0.010010 0.566650 
vn -0.823730 0.010010 0.566650 
vn 0.000244 0.983154 -0.181885 
vn 0.000244 0.964844 -0.262207 
vn 0.000244 0.964844 -0.262207 
vn 0.000244 0.964844 -0.262207 
vn 0.000244 0.994873 -0.099609 
vn 0.000244 0.983154 -0.181885 
vn 0.000244 0.999756 -0.017334 
vn 0.000244 0.983154 -0.181885 
vn 0.000244 0.994873 -0.099609 
vn 0.000244 0.994873 -0.099609 
vn 0.000244 0.999756 -0.017334 
vn 0.000244 0.999756 -0.017334 
vn 0.966553 0.170654 0.190186 
vn 0.745117 0.436279 0.503906 
vn 0.825928 0.228027 0.515137 
vn 0.825928 0.228027 0.515137 
vn 0.978760 -0.003906 -0.204346 
vn 0.966553 0.170654 0.190186 
vn 0.854492 -0.009277 -0.519287 
vn 0.966553 0.170654 0.190186 
vn 0.978760 -0.003906 -0.204346 
vn 0.978760 -0.003906 -0.204346 
vn 0.854492 -0.009277 -0.519287 
vn 0.854492 -0.009277 -0.519287 
vn -0.000244 -0.982910 0.183594 
vn -0.000244 -0.964111 0.264893 
vn -0.000244 -0.964111 0.264893 
vn -0.000244 -0.964111 0.264893 
vn -0.000244 -0.994873 0.100586 
vn -0.000244 -0.982910 0.183594 
vn -0.000244 -0.999756 0.017334 
vn -0.000244 -0.982910 0.183594 
vn -0.000244 -0.994873 0.100586 
vn -0.000244 -0.994873 0.100586 
vn -0.000244 -0.999756 0.017334 
vn -0.000244 -0.999756 0.017334 
vn 0.000244 0.999756 -0.017334 
vn 0.000244 0.999756 -0.017334 
vn 0.000244 0.999756 -0.017334 
vn 0.000244 0.999756 -0.017334 
vn 0.000244 0.999756 -0.017334 
vn 0.000244 0.999756 -0.017334 
vn -0.000244 -0.999756 0.017334 
vn -0.000244 -0.999756 0.017334 
vn -0.000244 -0.999756 0.017334 
vn -0.000244 -0.999756 0.017334 
vn -0.000244 -0.999756 0.017334 
vn -0.000244 -0.999756 0.017334 
vn -0.999756 0.000244 0.000000 
vn -0.999756 0.000244 0.000000 
vn -0.999756 0.000244 0.000000 
vn -0.999756 0.000244 0.000000 
vn -0.999756 0.000244 0.000000 
vn -0.999756 0.000244 0.000000 
vn 0.000000 0.017334 0.999756 
vn 0.000000 0.017334 0.999756 
vn 0.000000 0.017334 0.999756 
vn 0.000000 0.017334 0.999756 
vn 0.000000 0.017334 0.999756 
vn 0.000000 0.017334 0.999756 
vn 0.999756 -0.000244 0.000000 
vn 0.999756 -0.000244 0.000000 
vn 0.999756 -0.000244 0.000000 
vn 0.999756 -0.000244 0.000000 
vn 0.999756 -0.000244 0.000000 
vn 0.999756 -0.000244 0.000000 
vn 0.000000 -0.017334 -0.999756 
vn 0.000000 -0.017334 -0.999756 
vn 0.000000 -0.017334 -0.999756 
vn 0.000000 -0.017334 -0.999756 
vn 0.000000 -0.017334 -0.999756 
vn 0.000000 -0.017334 -0.999756 
vt 0.225806 0.225806 
vt 0.225806 0.741935 
vt 0.741935 0.741935 
vt 0.741935 0.741935 
vt 0.741935 0.225806 
vt 0.225806 0.225806 
vt 0.483871 1.000000 
vt 1.000000 1.000000 
vt 1.000000 -0.032258 
vt 1.000000 -0.032258 
vt 0.483871 -0.032258 
vt 0.483871 1.000000 
vt 0.000000 1.000000 
vt 0.483871 1.000000 
vt 0.483871 -0.032258 
vt 0.483871 -0.032258 
vt 0.000000 -0.032258 
vt 0.000000 1.000000 
vt 0.483871 1.000000 
vt 1.000000 1.000000 
vt 1.000000 -0.032258 
vt 1.000000 -0.032258 
vt 0.483871 -0.032258 
vt 0.483871 1.000000 
vt 0.000000 1.000000 
vt 0.483871 1.000000 
vt 0.483871 -0.032258 
vt 0.483871 -0.032258 
vt 0.000000 -0.032258 
vt 0.000000 1.000000 
vt 0.483871 1.000000 
vt 1.000000 1.000000 
vt 1.000000 -0.032258 
vt 1.000000 -0.032258 
vt 0.483871 -0.032258 
vt 0.483871 1.000000 
vt 0.000000 1.000000 
vt 0.483871 1.000000 
vt 0.483871 -0.032258 
vt 0.483871 -0.032258 
vt 0.000000 -0.032258 
vt 0.000000 1.000000 
vt 0.483871 1.000000 
vt 1.000000 1.000000 
vt 1.000000 -0.032258 
vt 1.000000 -0.032258 
vt 0.483871 -0.032258 
vt 0.483871 1.000000 
vt 0.000000 1.000000 
vt 0.483871 1.000000 
vt 0.483871 -0.032258 
vt 0.483871 -0.032258 
vt 0.000000 -0.032258 
vt 0.000000 1.000000 
vt 0.741935 0.741935 
vt 0.225806 0.741935 
vt 0.225806 0.225806 
vt 0.225806 0.225806 
vt 0.741935 0.225806 
vt 0.741935 0.741935 
vt 0.741935 0.741935 
vt 0.741935 0.225806 
vt 0.225806 0.225806 
vt 0.225806 0.225806 
vt 0.225806 0.741935 
vt 0.741935 0.741935 
vt 0.000000 1.000000 
vt 1.000000 1.000000 
vt 1.000000 -0.032258 
vt 1.000000 -0.032258 
vt 0.000000 -0.032258 
vt 0.000000 1.000000 
vt 0.000000 1.000000 
vt 1.000000 1.000000 
vt 1.000000 -0.032258 
vt 1.000000 -0.032258 
vt 0.000000 -0.032258 
vt 0.000000 1.000000 
vt 0.000000 1.000000 
vt 1.000000 1.000000 
vt 1.000000 -0.032258 
vt 1.000000 -0.032258 
vt 0.000000 -0.032258 
vt 0.000000 1.000000 
vt 0.000000 1.000000 
vt 1.000000 1.000000 
vt 1.000000 -0.032258 
vt 1.000000 -0.032258 
vt 0.000000 -0.032258 
vt 0.000000 1.000000 
f 1/1/1 2/2/2 3/3/3
f 4/4/4 5/5/5 6/6/6
f 7/7/7 8/8/8 9/9/9
f 10/10/10 11/11/11 12/12/12
f 13/13/13 14/14/14 15/15/15
f 16/16/16 17/17/17 18/18/18
f 19/19/19 20/20/20 21/21/21
f 22/22/22 23/23/23 24/24/24
f 25/25/25 26/26/26 27/27/27
f 28/28/28 29/29/29 30/30/30
f 31/31/31 32/32/32 33/33/33
f 34/34/34 35/35/35 36/36/36
f 37/37/37 38/38/38 39/39/39
f 40/40/40 41/41/41 42/42/42
f 43/43/43 44/44/44 45/45/45
f 46/46/46 47/47/47 48/48/48
f 49/49/49 50/50/50 51/51/51
f 52/52/52 53/53/53 54/54/54
f 55/55/55 56/56/56 57/57/57
f 58/58/58 59/59/59 60/60/60
f 61/61/61 62/62/62 63/63/63
f 64/64/64 65/65/65 66/66/66
f 67/67/67 68/68/68 69/69/69
f 70/70/70 71/71/71 72/72/72
f 73/73/73 74/74/74 75/75/75
f 76/76/76 77/77/77 78/78/78
f 79/79/79 80/80/80 81/81/81
f 82/82/82 83/83/83 84/84/84
f 85/85/85 86/86/86 87/87/87
f 88/88/88 89/89/89 90/90/90
