v 178.000000 199.000000 133.000000 
v 291.000000 -33.000000 -129.000000 
v 196.000000 202.000000 -140.000000 
v 291.000000 -33.000000 -129.000000 
v 178.000000 199.000000 133.000000 
v 274.000000 -37.000000 140.000000 
v -231.000000 242.000000 116.000000 
v -238.000000 19.000000 -178.000000 
v -269.000000 270.000000 -154.000000 
v -238.000000 19.000000 -178.000000 
v -231.000000 242.000000 116.000000 
v -201.000000 -10.000000 88.000000 
v -109.000000 193.000000 188.000000 
v 175.000000 -39.000000 211.000000 
v 155.000000 196.000000 118.000000 
v 175.000000 -39.000000 211.000000 
v -109.000000 193.000000 188.000000 
v -86.000000 -44.000000 280.000000 
v -255.000000 242.000000 -236.000000 
v 36.000000 19.000000 -274.000000 
v 9.000000 270.000000 -302.000000 
v 36.000000 19.000000 -274.000000 
v -255.000000 242.000000 -236.000000 
v -225.000000 -10.000000 -210.000000 
vn 0.925049 0.374023 0.064697 
vn 0.925049 0.374023 0.064697 
vn 0.924561 0.375244 0.063477 
vn 0.925049 0.374023 0.064697 
vn 0.925049 0.374023 0.064697 
vn 0.925293 0.372803 0.065918 
vn 0.983887 0.128174 -0.122559 
vn 0.983887 0.128174 -0.122559 
vn 0.983643 0.129639 -0.123779 
vn 0.983887 0.128174 -0.122559 
vn 0.983887 0.128174 -0.122559 
vn 0.984375 0.126953 -0.121582 
vn 0.231934 0.374023 0.897705 
vn 0.231934 0.374023 0.897705 
vn 0.233154 0.375244 0.896973 
vn 0.231934 0.374023 0.897705 
vn 0.231934 0.374023 0.897705 
vn 0.230957 0.372803 0.898438 
vn 0.224854 0.128174 0.965820 
vn 0.224854 0.128174 0.965820 
vn 0.225830 0.129639 0.965332 
vn 0.224854 0.128174 0.965820 
vn 0.224854 0.128174 0.965820 
vn 0.223877 0.126953 0.966064 
vt 1.000000 1.000000 
vt 0.000000 -0.007874 
vt 0.000000 1.000000 
vt 0.000000 -0.007874 
vt 1.000000 1.000000 
vt 1.000000 -0.007874 
vt 1.000000 1.000000 
vt 0.000000 -0.007874 
vt 0.000000 1.000000 
vt 0.000000 -0.007874 
vt 1.000000 1.000000 
vt 1.000000 -0.007874 
vt 1.000000 1.000000 
vt 0.000000 -0.007874 
vt 0.000000 1.000000 
vt 0.000000 -0.007874 
vt 1.000000 1.000000 
vt 1.000000 -0.007874 
vt 1.000000 1.000000 
vt 0.000000 -0.007874 
vt 0.000000 1.000000 
vt 0.000000 -0.007874 
vt 1.000000 1.000000 
vt 1.000000 -0.007874 
f 1/1/1 2/2/2 3/3/3
f 4/4/4 5/5/5 6/6/6
f 7/7/7 8/8/8 9/9/9
f 10/10/10 11/11/11 12/12/12
f 13/13/13 14/14/14 15/15/15
f 16/16/16 17/17/17 18/18/18
f 19/19/19 20/20/20 21/21/21
f 22/22/22 23/23/23 24/24/24
