v -99.000000 345.000000 0.000000 
v 99.000000 345.000000 0.000000 
v 99.000000 1.000000 0.000000 
v 99.000000 1.000000 0.000000 
v -99.000000 1.000000 0.000000 
v -99.000000 345.000000 0.000000 
v -99.000000 345.000000 20.000000 
v -99.000000 1.000000 20.000000 
v 99.000000 1.000000 20.000000 
v 99.000000 1.000000 20.000000 
v 99.000000 345.000000 20.000000 
v -99.000000 345.000000 20.000000 
v -99.000000 345.000000 20.000000 
v -99.000000 345.000000 0.000000 
v -99.000000 1.000000 0.000000 
v -99.000000 1.000000 0.000000 
v -99.000000 1.000000 20.000000 
v -99.000000 345.000000 20.000000 
v 99.000000 345.000000 20.000000 
v 99.000000 345.000000 0.000000 
v -99.000000 345.000000 0.000000 
v -99.000000 345.000000 0.000000 
v -99.000000 345.000000 20.000000 
v 99.000000 345.000000 20.000000 
v 99.000000 1.000000 20.000000 
v 99.000000 1.000000 0.000000 
v 99.000000 345.000000 0.000000 
v 99.000000 345.000000 0.000000 
v 99.000000 345.000000 20.000000 
v 99.000000 1.000000 20.000000 
v 81.000000 92.000000 34.000000 
v 77.000000 100.000000 29.000000 
v 81.000000 78.000000 20.000000 
v 77.000000 100.000000 29.000000 
v 77.000000 86.000000 20.000000 
v 81.000000 78.000000 20.000000 
v 77.000000 100.000000 29.000000 
v 86.000000 100.000000 29.000000 
v 77.000000 86.000000 20.000000 
v 86.000000 100.000000 29.000000 
v 86.000000 86.000000 20.000000 
v 77.000000 86.000000 20.000000 
v 86.000000 100.000000 29.000000 
v 81.000000 92.000000 34.000000 
v 86.000000 86.000000 20.000000 
v 81.000000 92.000000 34.000000 
v 81.000000 78.000000 20.000000 
v 86.000000 86.000000 20.000000 
v 81.000000 226.000000 34.000000 
v 77.000000 221.000000 29.000000 
v 81.000000 92.000000 34.000000 
v 77.000000 221.000000 29.000000 
v 77.000000 100.000000 29.000000 
v 81.000000 92.000000 34.000000 
v 86.000000 221.000000 29.000000 
v 81.000000 226.000000 34.000000 
v 86.000000 100.000000 29.000000 
v 81.000000 226.000000 34.000000 
v 81.000000 92.000000 34.000000 
v 86.000000 100.000000 29.000000 
v 81.000000 246.000000 20.000000 
v 77.000000 238.000000 20.000000 
v 81.000000 226.000000 34.000000 
v 77.000000 238.000000 20.000000 
v 77.000000 221.000000 29.000000 
v 81.000000 226.000000 34.000000 
v 86.000000 238.000000 20.000000 
v 81.000000 246.000000 20.000000 
v 86.000000 221.000000 29.000000 
v 81.000000 246.000000 20.000000 
v 81.000000 226.000000 34.000000 
v 86.000000 221.000000 29.000000 
vn 0.000000 0.000000 -1.000000 
vn 0.000000 0.000000 -1.000000 
vn 0.000000 0.000000 -1.000000 
vn 0.000000 0.000000 -1.000000 
vn 0.000000 0.000000 -1.000000 
vn 0.000000 0.000000 -1.000000 
vn 0.000000 0.000000 1.000000 
vn 0.000000 0.000000 1.000000 
vn 0.000000 0.000000 1.000000 
vn 0.000000 0.000000 1.000000 
vn 0.000000 0.000000 1.000000 
vn 0.000000 0.000000 1.000000 
vn -1.000000 0.000000 0.000000 
vn -1.000000 0.000000 0.000000 
vn -1.000000 0.000000 0.000000 
vn -1.000000 0.000000 0.000000 
vn -1.000000 0.000000 0.000000 
vn -1.000000 0.000000 0.000000 
vn 0.000000 1.000000 0.000000 
vn 0.000000 1.000000 0.000000 
vn 0.000000 1.000000 0.000000 
vn 0.000000 1.000000 0.000000 
vn 0.000000 1.000000 0.000000 
vn 0.000000 1.000000 0.000000 
vn 1.000000 0.000000 0.000000 
vn 1.000000 0.000000 0.000000 
vn 1.000000 0.000000 0.000000 
vn 1.000000 0.000000 0.000000 
vn 1.000000 0.000000 0.000000 
vn 1.000000 0.000000 0.000000 
vn -0.078613 -0.663330 0.743896 
vn -0.989014 -0.052490 0.136475 
vn -0.445068 -0.838135 0.314453 
vn -0.989014 -0.052490 0.136475 
vn -0.477783 0.789795 -0.383789 
vn -0.445068 -0.838135 0.314453 
vn -0.989014 -0.052490 0.136475 
vn 0.889893 0.455078 0.019775 
vn -0.477783 0.789795 -0.383789 
vn 0.889893 0.455078 0.019775 
vn 0.997070 -0.066650 -0.033203 
vn -0.477783 0.789795 -0.383789 
vn 0.889893 0.455078 0.019775 
vn -0.078613 -0.663330 0.743896 
vn 0.997070 -0.066650 -0.033203 
vn -0.078613 -0.663330 0.743896 
vn -0.445068 -0.838135 0.314453 
vn 0.997070 -0.066650 -0.033203 
vn 0.050537 0.610840 0.790039 
vn -0.937988 0.126465 0.322510 
vn -0.078613 -0.663330 0.743896 
vn -0.937988 0.126465 0.322510 
vn -0.989014 -0.052490 0.136475 
vn -0.078613 -0.663330 0.743896 
vn 0.879150 0.352783 0.319824 
vn 0.050537 0.610840 0.790039 
vn 0.889893 0.455078 0.019775 
vn 0.050537 0.610840 0.790039 
vn -0.078613 -0.663330 0.743896 
vn 0.889893 0.455078 0.019775 
vn 0.424805 0.807861 0.407959 
vn -0.844727 0.476074 0.243164 
vn 0.050537 0.610840 0.790039 
vn -0.844727 0.476074 0.243164 
vn -0.937988 0.126465 0.322510 
vn 0.050537 0.610840 0.790039 
vn 0.743164 0.573486 0.344238 
vn 0.424805 0.807861 0.407959 
vn 0.879150 0.352783 0.319824 
vn 0.424805 0.807861 0.407959 
vn 0.050537 0.610840 0.790039 
vn 0.879150 0.352783 0.319824 
vt 0.811024 0.000000 
vt 0.094488 0.000000 
vt 0.094488 1.000000 
vt 0.094488 1.000000 
vt 0.811024 1.000000 
vt 0.811024 0.000000 
vt 0.811024 1.000000 
vt 0.811024 0.000000 
vt 0.000000 0.000000 
vt 0.000000 0.000000 
vt 0.000000 1.000000 
vt 0.811024 1.000000 
vt 0.771654 1.000000 
vt 0.818898 1.000000 
vt 0.818898 -0.007874 
vt 0.818898 -0.007874 
vt 0.771654 -0.007874 
vt 0.771654 1.000000 
vt 0.811024 1.000000 
vt 0.811024 0.929134 
vt 0.000000 0.929134 
vt 0.000000 0.929134 
vt 0.000000 1.000000 
vt 0.811024 1.000000 
vt 0.000000 1.000000 
vt 0.070866 1.000000 
vt 0.070866 0.000000 
vt 0.070866 0.000000 
vt 0.000000 0.000000 
vt 0.000000 1.000000 
vt 0.913386 0.141732 
vt 1.000000 0.181102 
vt 0.913386 0.000000 
vt 1.000000 0.181102 
vt 1.000000 0.078740 
vt 0.913386 0.000000 
vt 0.874016 0.236220 
vt 0.944882 0.236220 
vt 0.874016 0.165354 
vt 0.944882 0.236220 
vt 0.944882 0.165354 
vt 0.874016 0.165354 
vt 0.818898 0.181102 
vt 0.913386 0.141732 
vt 0.818898 0.078740 
vt 0.913386 0.141732 
vt 0.913386 0.000000 
vt 0.818898 0.078740 
vt 0.913386 0.834646 
vt 1.000000 0.803150 
vt 0.913386 0.141732 
vt 1.000000 0.803150 
vt 1.000000 0.181102 
vt 0.913386 0.141732 
vt 0.818898 0.803150 
vt 0.913386 0.834646 
vt 0.818898 0.181102 
vt 0.913386 0.834646 
vt 0.913386 0.141732 
vt 0.818898 0.181102 
vt 0.913386 1.000000 
vt 1.000000 0.921260 
vt 0.913386 0.834646 
vt 1.000000 0.921260 
vt 1.000000 0.803150 
vt 0.913386 0.834646 
vt 0.818898 0.921260 
vt 0.913386 1.000000 
vt 0.818898 0.803150 
vt 0.913386 1.000000 
vt 0.913386 0.834646 
vt 0.818898 0.803150 
f 1/1/1 2/2/2 3/3/3
f 4/4/4 5/5/5 6/6/6
f 7/7/7 8/8/8 9/9/9
f 10/10/10 11/11/11 12/12/12
f 13/13/13 14/14/14 15/15/15
f 16/16/16 17/17/17 18/18/18
f 19/19/19 20/20/20 21/21/21
f 22/22/22 23/23/23 24/24/24
f 25/25/25 26/26/26 27/27/27
f 28/28/28 29/29/29 30/30/30
f 31/31/31 32/32/32 33/33/33
f 34/34/34 35/35/35 36/36/36
f 37/37/37 38/38/38 39/39/39
f 40/40/40 41/41/41 42/42/42
f 43/43/43 44/44/44 45/45/45
f 46/46/46 47/47/47 48/48/48
f 49/49/49 50/50/50 51/51/51
f 52/52/52 53/53/53 54/54/54
f 55/55/55 56/56/56 57/57/57
f 58/58/58 59/59/59 60/60/60
f 61/61/61 62/62/62 63/63/63
f 64/64/64 65/65/65 66/66/66
f 67/67/67 68/68/68 69/69/69
f 70/70/70 71/71/71 72/72/72
