v 299.000000 56.000000 -376.000000 
v 299.000000 133.000000 -376.000000 
v 299.000000 56.000000 -664.000000 
v 299.000000 133.000000 -376.000000 
v 299.000000 133.000000 -664.000000 
v 299.000000 56.000000 -664.000000 
v 299.000000 133.000000 -376.000000 
v 353.000000 187.000000 -376.000000 
v 299.000000 133.000000 -664.000000 
v 353.000000 187.000000 -376.000000 
v 353.000000 187.000000 -664.000000 
v 299.000000 133.000000 -664.000000 
v 353.000000 187.000000 -376.000000 
v 430.000000 187.000000 -376.000000 
v 353.000000 187.000000 -664.000000 
v 430.000000 187.000000 -376.000000 
v 430.000000 187.000000 -664.000000 
v 353.000000 187.000000 -664.000000 
v 430.000000 187.000000 -376.000000 
v 485.000000 133.000000 -376.000000 
v 430.000000 187.000000 -664.000000 
v 485.000000 133.000000 -376.000000 
v 485.000000 133.000000 -664.000000 
v 430.000000 187.000000 -664.000000 
v 338.000000 2.000000 -661.000000 
v 311.000000 61.000000 -661.000000 
v 338.000000 1.000000 -376.000000 
v 311.000000 61.000000 -661.000000 
v 299.000000 56.000000 -376.000000 
v 338.000000 1.000000 -376.000000 
v 425.000000 175.000000 -661.000000 
v 473.000000 128.000000 -661.000000 
v 430.000000 187.000000 -376.000000 
v 473.000000 128.000000 -661.000000 
v 485.000000 133.000000 -376.000000 
v 430.000000 187.000000 -376.000000 
v 473.000000 128.000000 -661.000000 
v 473.000000 61.000000 -661.000000 
v 485.000000 133.000000 -376.000000 
v 473.000000 61.000000 -661.000000 
v 485.000000 56.000000 -376.000000 
v 485.000000 133.000000 -376.000000 
v 473.000000 61.000000 -661.000000 
v 446.000000 2.000000 -661.000000 
v 485.000000 56.000000 -376.000000 
v 446.000000 2.000000 -661.000000 
v 446.000000 1.000000 -376.000000 
v 485.000000 56.000000 -376.000000 
v 446.000000 2.000000 -661.000000 
v 338.000000 2.000000 -661.000000 
v 446.000000 1.000000 -376.000000 
v 338.000000 2.000000 -661.000000 
v 338.000000 1.000000 -376.000000 
v 446.000000 1.000000 -376.000000 
v -94.000000 52.000000 -288.000000 
v 6.000000 167.000000 -396.000000 
v -18.000000 96.000000 -411.000000 
v 6.000000 167.000000 -396.000000 
v -94.000000 52.000000 -288.000000 
v -69.000000 92.000000 -272.000000 
v -144.000000 167.000000 -151.000000 
v -83.000000 197.000000 -114.000000 
v -69.000000 92.000000 -272.000000 
v -69.000000 92.000000 -272.000000 
v -83.000000 197.000000 -114.000000 
v -9.000000 109.000000 -235.000000 
v -9.000000 109.000000 -235.000000 
v 127.000000 167.000000 -321.000000 
v 66.000000 197.000000 -359.000000 
v 127.000000 167.000000 -321.000000 
v -9.000000 109.000000 -235.000000 
v 51.000000 92.000000 -197.000000 
v 51.000000 92.000000 -197.000000 
v -22.000000 167.000000 -76.000000 
v 76.000000 52.000000 -181.000000 
v -22.000000 167.000000 -76.000000 
v 2.000000 96.000000 -61.000000 
v 76.000000 52.000000 -181.000000 
v 70.000000 52.000000 -185.000000 
v 118.000000 34.000000 -324.000000 
v 47.000000 14.000000 -199.000000 
v 118.000000 34.000000 -324.000000 
v 70.000000 52.000000 -185.000000 
v 139.000000 96.000000 -311.000000 
v 47.000000 14.000000 -199.000000 
v 65.000000 9.000000 -356.000000 
v -9.000000 -1.000000 -235.000000 
v 65.000000 9.000000 -356.000000 
v 47.000000 14.000000 -199.000000 
v 118.000000 34.000000 -324.000000 
v -9.000000 -1.000000 -235.000000 
v 12.000000 34.000000 -388.000000 
v -65.000000 14.000000 -270.000000 
v 12.000000 34.000000 -388.000000 
v -9.000000 -1.000000 -235.000000 
v 65.000000 9.000000 -356.000000 
v 12.000000 34.000000 -388.000000 
v -9.000000 96.000000 -402.000000 
v -65.000000 14.000000 -270.000000 
v -65.000000 14.000000 -270.000000 
v -9.000000 96.000000 -402.000000 
v -88.000000 52.000000 -284.000000 
v 70.000000 52.000000 -185.000000 
v 2.000000 96.000000 -61.000000 
v -22.000000 167.000000 -76.000000 
v 70.000000 52.000000 -185.000000 
v -22.000000 167.000000 -76.000000 
v 47.000000 89.000000 -199.000000 
v 76.000000 52.000000 -181.000000 
v -22.000000 25.000000 -76.000000 
v 51.000000 11.000000 -197.000000 
v -22.000000 25.000000 -76.000000 
v 76.000000 52.000000 -181.000000 
v 2.000000 96.000000 -61.000000 
v -9.000000 109.000000 -235.000000 
v 6.000000 167.000000 -396.000000 
v -69.000000 92.000000 -272.000000 
v 6.000000 167.000000 -396.000000 
v -9.000000 109.000000 -235.000000 
v 66.000000 197.000000 -359.000000 
v -94.000000 52.000000 -288.000000 
v -144.000000 167.000000 -151.000000 
v -69.000000 92.000000 -272.000000 
v -144.000000 167.000000 -151.000000 
v -94.000000 52.000000 -288.000000 
v -169.000000 96.000000 -166.000000 
v 76.000000 52.000000 -181.000000 
v 152.000000 96.000000 -306.000000 
v 127.000000 167.000000 -321.000000 
v 127.000000 167.000000 -321.000000 
v 51.000000 92.000000 -197.000000 
v 76.000000 52.000000 -181.000000 
v -9.000000 109.000000 -235.000000 
v -22.000000 167.000000 -76.000000 
v 51.000000 92.000000 -197.000000 
v -22.000000 167.000000 -76.000000 
v -9.000000 109.000000 -235.000000 
v -83.000000 197.000000 -114.000000 
v -83.000000 -4.000000 -114.000000 
v -22.000000 25.000000 -76.000000 
v 47.000000 14.000000 -199.000000 
v -9.000000 -1.000000 -235.000000 
v -83.000000 -4.000000 -114.000000 
v 47.000000 14.000000 -199.000000 
v 47.000000 14.000000 -199.000000 
v 2.000000 96.000000 -61.000000 
v 70.000000 52.000000 -185.000000 
v 2.000000 96.000000 -61.000000 
v 47.000000 14.000000 -199.000000 
v -22.000000 25.000000 -76.000000 
v -144.000000 25.000000 -151.000000 
v -83.000000 -4.000000 -114.000000 
v -9.000000 -1.000000 -235.000000 
v -65.000000 14.000000 -270.000000 
v -144.000000 25.000000 -151.000000 
v -9.000000 -1.000000 -235.000000 
v -88.000000 52.000000 -284.000000 
v -144.000000 25.000000 -151.000000 
v -65.000000 14.000000 -270.000000 
v -144.000000 25.000000 -151.000000 
v -88.000000 52.000000 -284.000000 
v -169.000000 96.000000 -166.000000 
v -65.000000 89.000000 -270.000000 
v -169.000000 96.000000 -166.000000 
v -88.000000 52.000000 -284.000000 
v -169.000000 96.000000 -166.000000 
v -65.000000 89.000000 -270.000000 
v -144.000000 167.000000 -151.000000 
v -7.000000 275.000000 391.000000 
v -36.000000 275.000000 462.000000 
v -7.000000 -11.000000 391.000000 
v -36.000000 275.000000 462.000000 
v -36.000000 -11.000000 462.000000 
v -7.000000 -11.000000 391.000000 
v -36.000000 275.000000 462.000000 
v -108.000000 275.000000 491.000000 
v -36.000000 -11.000000 462.000000 
v -108.000000 275.000000 491.000000 
v -108.000000 -11.000000 491.000000 
v -36.000000 -11.000000 462.000000 
v -108.000000 275.000000 491.000000 
v -179.000000 275.000000 462.000000 
v -108.000000 -11.000000 491.000000 
v -179.000000 275.000000 462.000000 
v -179.000000 -11.000000 462.000000 
v -108.000000 -11.000000 491.000000 
v -179.000000 275.000000 462.000000 
v -208.000000 275.000000 391.000000 
v -179.000000 -11.000000 462.000000 
v -208.000000 275.000000 391.000000 
v -208.000000 -11.000000 391.000000 
v -179.000000 -11.000000 462.000000 
v -208.000000 275.000000 391.000000 
v -179.000000 275.000000 319.000000 
v -208.000000 -11.000000 391.000000 
v -179.000000 275.000000 319.000000 
v -179.000000 -11.000000 319.000000 
v -208.000000 -11.000000 391.000000 
v -179.000000 275.000000 319.000000 
v -108.000000 275.000000 290.000000 
v -179.000000 -11.000000 319.000000 
v -108.000000 275.000000 290.000000 
v -108.000000 -11.000000 290.000000 
v -179.000000 -11.000000 319.000000 
v -20.000000 -9.000000 391.000000 
v -46.000000 -9.000000 452.000000 
v -7.000000 275.000000 391.000000 
v -46.000000 -9.000000 452.000000 
v -36.000000 275.000000 462.000000 
v -7.000000 275.000000 391.000000 
v -46.000000 -9.000000 452.000000 
v -108.000000 -9.000000 478.000000 
v -36.000000 275.000000 462.000000 
v -108.000000 -9.000000 478.000000 
v -108.000000 275.000000 491.000000 
v -36.000000 275.000000 462.000000 
v -195.000000 -9.000000 391.000000 
v -169.000000 -9.000000 329.000000 
v -208.000000 275.000000 391.000000 
v -169.000000 -9.000000 329.000000 
v -179.000000 275.000000 319.000000 
v -208.000000 275.000000 391.000000 
v -169.000000 -9.000000 329.000000 
v -108.000000 -9.000000 303.000000 
v -179.000000 275.000000 319.000000 
v -108.000000 -9.000000 303.000000 
v -108.000000 275.000000 290.000000 
v -179.000000 275.000000 319.000000 
v -108.000000 -9.000000 303.000000 
v -46.000000 -9.000000 329.000000 
v -108.000000 275.000000 290.000000 
v -46.000000 -9.000000 329.000000 
v -36.000000 275.000000 319.000000 
v -108.000000 275.000000 290.000000 
v -46.000000 -9.000000 329.000000 
v -20.000000 -9.000000 391.000000 
v -36.000000 275.000000 319.000000 
v -20.000000 -9.000000 391.000000 
v -7.000000 275.000000 391.000000 
v -36.000000 275.000000 319.000000 
vn -0.304443 0.949463 0.074951 
vn -0.967529 0.252686 0.000000 
vn -1.000000 0.000000 0.000000 
vn -0.967529 0.252686 0.000000 
vn -0.862793 0.505371 0.000000 
vn -1.000000 0.000000 0.000000 
vn -0.967529 0.252686 0.000000 
vn -0.505371 0.862793 0.000000 
vn -0.862793 0.505371 0.000000 
vn -0.505371 0.862793 0.000000 
vn -0.252686 0.967529 0.000000 
vn -0.862793 0.505371 0.000000 
vn -0.505371 0.862793 0.000000 
vn -0.477783 0.876221 0.058594 
vn -0.252686 0.967529 0.000000 
vn -0.477783 0.876221 0.058594 
vn 0.505371 0.862793 0.000000 
vn -0.252686 0.967529 0.000000 
vn -0.477783 0.876221 0.058594 
vn -0.873291 0.479004 0.087891 
vn 0.505371 0.862793 0.000000 
vn -0.873291 0.479004 0.087891 
vn 0.707031 0.707031 0.000000 
vn 0.505371 0.862793 0.000000 
vn 0.354736 0.934814 0.000732 
vn 0.868408 0.495117 0.023193 
vn 0.656250 0.754150 0.017822 
vn 0.868408 0.495117 0.023193 
vn -0.304443 0.949463 0.074951 
vn 0.656250 0.754150 0.017822 
vn -0.706299 -0.706299 0.043213 
vn -0.861816 -0.504883 0.046387 
vn -0.477783 0.876221 0.058594 
vn -0.861816 -0.504883 0.046387 
vn -0.873291 0.479004 0.087891 
vn -0.477783 0.876221 0.058594 
vn -0.861816 -0.504883 0.046387 
vn -0.989258 0.138184 0.045410 
vn -0.873291 0.479004 0.087891 
vn -0.989258 0.138184 0.045410 
vn -0.939941 0.339600 0.031250 
vn -0.873291 0.479004 0.087891 
vn -0.989258 0.138184 0.045410 
vn -0.656250 0.754150 0.018311 
vn -0.939941 0.339600 0.031250 
vn -0.656250 0.754150 0.018311 
vn -0.301270 0.953369 0.000488 
vn -0.939941 0.339600 0.031250 
vn -0.656250 0.754150 0.018311 
vn 0.354736 0.934814 0.000732 
vn -0.301270 0.953369 0.000488 
vn 0.354736 0.934814 0.000732 
vn 0.656250 0.754150 0.017822 
vn -0.301270 0.953369 0.000488 
vn -0.743408 0.487305 -0.457764 
vn -0.705566 0.708496 -0.005615 
vn -0.843018 0.379883 -0.380127 
vn -0.705566 0.708496 -0.005615 
vn -0.743408 0.487305 -0.457764 
vn -0.387451 0.841797 -0.375000 
vn -0.337158 0.735352 -0.587646 
vn 0.203369 0.859863 -0.468018 
vn -0.387451 0.841797 -0.375000 
vn -0.387451 0.841797 -0.375000 
vn 0.203369 0.859863 -0.468018 
vn 0.013916 0.995850 0.087891 
vn 0.013916 0.995850 0.087891 
vn 0.324463 0.710449 0.624023 
vn -0.269775 0.856201 0.440186 
vn 0.324463 0.710449 0.624023 
vn 0.013916 0.995850 0.087891 
vn 0.483643 0.825684 0.289551 
vn 0.483643 0.825684 0.289551 
vn 0.472900 0.849121 -0.234131 
vn 0.822266 0.176758 0.540771 
vn 0.472900 0.849121 -0.234131 
vn -0.695312 0.592529 -0.406250 
vn 0.822266 0.176758 0.540771 
vn -0.909912 0.143311 -0.388916 
vn -0.703613 0.660400 -0.261230 
vn -0.500977 0.818115 -0.281738 
vn -0.703613 0.660400 -0.261230 
vn -0.909912 0.143311 -0.388916 
vn -0.860840 0.377686 -0.340576 
vn -0.500977 0.818115 -0.281738 
vn -0.119629 0.991699 0.042725 
vn 0.089111 0.990234 0.106445 
vn -0.119629 0.991699 0.042725 
vn -0.500977 0.818115 -0.281738 
vn -0.703613 0.660400 -0.261230 
vn 0.089111 0.990234 0.106445 
vn 0.417236 0.824219 0.382568 
vn 0.510498 0.758057 0.405518 
vn 0.417236 0.824219 0.382568 
vn 0.089111 0.990234 0.106445 
vn -0.119629 0.991699 0.042725 
vn 0.417236 0.824219 0.382568 
vn 0.655518 0.482910 0.580322 
vn 0.510498 0.758057 0.405518 
vn 0.510498 0.758057 0.405518 
vn 0.655518 0.482910 0.580322 
vn 0.762939 0.280029 0.582275 
vn -0.909912 0.143311 -0.388916 
vn -0.695312 0.592529 -0.406250 
vn 0.472900 0.849121 -0.234131 
vn -0.909912 0.143311 -0.388916 
vn 0.472900 0.849121 -0.234131 
vn -0.823730 -0.554688 -0.116943 
vn 0.822266 0.176758 0.540771 
vn 0.535400 0.612305 0.581299 
vn 0.657959 -0.588379 0.469482 
vn 0.535400 0.612305 0.581299 
vn 0.822266 0.176758 0.540771 
vn -0.695312 0.592529 -0.406250 
vn 0.013916 0.995850 0.087891 
vn -0.705566 0.708496 -0.005615 
vn -0.387451 0.841797 -0.375000 
vn -0.705566 0.708496 -0.005615 
vn 0.013916 0.995850 0.087891 
vn -0.269775 0.856201 0.440186 
vn -0.743408 0.487305 -0.457764 
vn -0.337158 0.735352 -0.587646 
vn -0.387451 0.841797 -0.375000 
vn -0.337158 0.735352 -0.587646 
vn -0.743408 0.487305 -0.457764 
vn 0.760254 -0.108398 0.640137 
vn 0.822266 0.176758 0.540771 
vn 0.722412 0.380127 0.577393 
vn 0.324463 0.710449 0.624023 
vn 0.324463 0.710449 0.624023 
vn 0.483643 0.825684 0.289551 
vn 0.822266 0.176758 0.540771 
vn 0.013916 0.995850 0.087891 
vn 0.472900 0.849121 -0.234131 
vn 0.483643 0.825684 0.289551 
vn 0.472900 0.849121 -0.234131 
vn 0.013916 0.995850 0.087891 
vn 0.203369 0.859863 -0.468018 
vn -0.065186 0.996582 -0.047852 
vn 0.535400 0.612305 0.581299 
vn -0.500977 0.818115 -0.281738 
vn 0.089111 0.990234 0.106445 
vn -0.065186 0.996582 -0.047852 
vn -0.500977 0.818115 -0.281738 
vn -0.500977 0.818115 -0.281738 
vn -0.695312 0.592529 -0.406250 
vn -0.909912 0.143311 -0.388916 
vn -0.695312 0.592529 -0.406250 
vn -0.500977 0.818115 -0.281738 
vn 0.535400 0.612305 0.581299 
vn 0.558838 0.773682 0.297852 
vn -0.065186 0.996582 -0.047852 
vn 0.089111 0.990234 0.106445 
vn 0.510498 0.758057 0.405518 
vn 0.558838 0.773682 0.297852 
vn 0.089111 0.990234 0.106445 
vn 0.762939 0.280029 0.582275 
vn 0.558838 0.773682 0.297852 
vn 0.510498 0.758057 0.405518 
vn 0.558838 0.773682 0.297852 
vn 0.762939 0.280029 0.582275 
vn 0.760254 -0.108398 0.640137 
vn 0.605957 -0.477051 0.636230 
vn 0.760254 -0.108398 0.640137 
vn 0.762939 0.280029 0.582275 
vn 0.760254 -0.108398 0.640137 
vn 0.605957 -0.477051 0.636230 
vn -0.337158 0.735352 -0.587646 
vn -0.997314 0.070312 0.000000 
vn 0.699463 0.167480 -0.694580 
vn 0.923828 0.000000 0.382568 
vn 0.699463 0.167480 -0.694580 
vn 0.603516 0.000000 0.797119 
vn 0.923828 0.000000 0.382568 
vn 0.699463 0.167480 -0.694580 
vn 0.000000 0.023438 0.999512 
vn 0.603516 0.000000 0.797119 
vn 0.000000 0.023438 0.999512 
vn -0.136719 0.000000 0.990479 
vn 0.603516 0.000000 0.797119 
vn 0.000000 0.023438 0.999512 
vn -0.603516 0.000000 0.797119 
vn -0.136719 0.000000 0.990479 
vn -0.603516 0.000000 0.797119 
vn -0.797119 0.000000 0.603516 
vn -0.136719 0.000000 0.990479 
vn -0.603516 0.000000 0.797119 
vn -0.626709 0.058594 0.776855 
vn -0.797119 0.000000 0.603516 
vn -0.626709 0.058594 0.776855 
vn -0.990479 0.000000 -0.136719 
vn -0.797119 0.000000 0.603516 
vn -0.626709 0.058594 0.776855 
vn -0.699463 0.167480 0.694580 
vn -0.990479 0.000000 -0.136719 
vn -0.699463 0.167480 0.694580 
vn -0.603516 0.000000 -0.797119 
vn -0.990479 0.000000 -0.136719 
vn -0.699463 0.167480 0.694580 
vn -0.776611 0.087891 0.623535 
vn -0.603516 0.000000 -0.797119 
vn -0.776611 0.087891 0.623535 
vn -0.382568 0.000000 -0.923828 
vn -0.603516 0.000000 -0.797119 
vn -0.989502 0.046387 0.136475 
vn -0.796143 0.046387 -0.603027 
vn -0.997314 0.070312 0.000000 
vn -0.796143 0.046387 -0.603027 
vn 0.699463 0.167480 -0.694580 
vn -0.997314 0.070312 0.000000 
vn -0.796143 0.046387 -0.603027 
vn -0.382080 0.043213 -0.922852 
vn 0.699463 0.167480 -0.694580 
vn -0.382080 0.043213 -0.922852 
vn 0.000000 0.023438 0.999512 
vn 0.699463 0.167480 -0.694580 
vn 0.922852 0.043213 0.382080 
vn 0.796143 0.046387 0.603027 
vn -0.626709 0.058594 0.776855 
vn 0.796143 0.046387 0.603027 
vn -0.699463 0.167480 0.694580 
vn -0.626709 0.058594 0.776855 
vn 0.796143 0.046387 0.603027 
vn 0.136475 0.046387 0.989502 
vn -0.699463 0.167480 0.694580 
vn 0.136475 0.046387 0.989502 
vn -0.776611 0.087891 0.623535 
vn -0.699463 0.167480 0.694580 
vn 0.136475 0.046387 0.989502 
vn -0.603027 0.046387 0.796143 
vn -0.776611 0.087891 0.623535 
vn -0.603027 0.046387 0.796143 
vn -0.796143 0.046387 0.603027 
vn -0.776611 0.087891 0.623535 
vn -0.603027 0.046387 0.796143 
vn -0.989502 0.046387 0.136475 
vn -0.796143 0.046387 0.603027 
vn -0.989502 0.046387 0.136475 
vn -0.997314 0.070312 0.000000 
vn -0.796143 0.046387 0.603027 
vt 0.238095 1.000000 
vt 0.507937 1.000000 
vt 0.238095 -0.007874 
vt 0.507937 1.000000 
vt 0.507937 -0.007874 
vt 0.238095 -0.007874 
vt 0.507937 1.000000 
vt 0.761905 1.000000 
vt 0.507937 -0.007874 
vt 0.761905 1.000000 
vt 0.761905 -0.007874 
vt 0.507937 -0.007874 
vt 0.761905 1.000000 
vt 1.000000 1.000000 
vt 0.761905 -0.007874 
vt 1.000000 1.000000 
vt 1.000000 -0.007874 
vt 0.761905 -0.007874 
vt 1.000000 1.000000 
vt 0.761905 1.000000 
vt 1.000000 -0.007874 
vt 0.761905 1.000000 
vt 0.761905 -0.007874 
vt 1.000000 -0.007874 
vt 0.000000 -0.007874 
vt 0.238095 -0.007874 
vt 0.000000 1.000000 
vt 0.238095 -0.007874 
vt 0.238095 1.000000 
vt 0.000000 1.000000 
vt 1.000000 -0.007874 
vt 0.761905 -0.007874 
vt 1.000000 1.000000 
vt 0.761905 -0.007874 
vt 0.761905 1.000000 
vt 1.000000 1.000000 
vt 0.761905 -0.007874 
vt 0.507937 -0.007874 
vt 0.761905 1.000000 
vt 0.507937 -0.007874 
vt 0.507937 1.000000 
vt 0.761905 1.000000 
vt 0.507937 -0.007874 
vt 0.238095 -0.007874 
vt 0.507937 1.000000 
vt 0.238095 -0.007874 
vt 0.238095 1.000000 
vt 0.507937 1.000000 
vt 0.238095 -0.007874 
vt 0.000000 -0.007874 
vt 0.238095 1.000000 
vt 0.000000 -0.007874 
vt 0.000000 1.000000 
vt 0.238095 1.000000 
vt 1.000000 0.488189 
vt 0.761905 -0.007874 
vt 1.000000 -0.007874 
vt 0.761905 -0.007874 
vt 1.000000 0.488189 
vt 0.761905 0.488189 
vt 0.761905 1.000000 
vt 0.507937 1.000000 
vt 0.761905 0.488189 
vt 0.761905 0.488189 
vt 0.507937 1.000000 
vt 0.507937 0.488189 
vt 0.507937 0.488189 
vt 0.238095 -0.007874 
vt 0.507937 -0.007874 
vt 0.238095 -0.007874 
vt 0.507937 0.488189 
vt 0.238095 0.488189 
vt 0.238095 0.488189 
vt 0.238095 1.000000 
vt 0.000000 0.488189 
vt 0.238095 1.000000 
vt 0.000000 1.000000 
vt 0.000000 0.488189 
vt 0.000000 0.606299 
vt 0.238095 -0.007874 
vt 0.238095 0.606299 
vt 0.238095 -0.007874 
vt 0.000000 0.606299 
vt 0.000000 -0.007874 
vt 0.238095 0.606299 
vt 0.507937 -0.007874 
vt 0.507937 0.606299 
vt 0.507937 -0.007874 
vt 0.238095 0.606299 
vt 0.238095 -0.007874 
vt 0.507937 0.606299 
vt 0.761905 -0.007874 
vt 0.761905 0.606299 
vt 0.761905 -0.007874 
vt 0.507937 0.606299 
vt 0.507937 -0.007874 
vt 0.761905 -0.007874 
vt 1.000000 -0.007874 
vt 0.761905 0.606299 
vt 0.761905 0.606299 
vt 1.000000 -0.007874 
vt 1.000000 0.606299 
vt 0.000000 0.606299 
vt 0.000000 1.000000 
vt 0.238095 1.000000 
vt 0.000000 0.606299 
vt 0.238095 1.000000 
vt 0.238095 0.606299 
vt 0.000000 0.488189 
vt 0.238095 1.000000 
vt 0.238095 0.488189 
vt 0.238095 1.000000 
vt 0.000000 0.488189 
vt 0.000000 1.000000 
vt 0.507937 0.488189 
vt 0.761905 -0.007874 
vt 0.761905 0.488189 
vt 0.761905 -0.007874 
vt 0.507937 0.488189 
vt 0.507937 -0.007874 
vt 1.000000 0.488189 
vt 0.761905 1.000000 
vt 0.761905 0.488189 
vt 0.761905 1.000000 
vt 1.000000 0.488189 
vt 1.000000 1.000000 
vt 0.000000 0.488189 
vt 0.000000 -0.007874 
vt 0.238095 -0.007874 
vt 0.238095 -0.007874 
vt 0.238095 0.488189 
vt 0.000000 0.488189 
vt 0.507937 0.488189 
vt 0.238095 1.000000 
vt 0.238095 0.488189 
vt 0.238095 1.000000 
vt 0.507937 0.488189 
vt 0.507937 1.000000 
vt 0.507937 1.000000 
vt 0.238095 1.000000 
vt 0.238095 0.606299 
vt 0.507937 0.606299 
vt 0.507937 1.000000 
vt 0.238095 0.606299 
vt 0.238095 0.606299 
vt 0.000000 1.000000 
vt 0.000000 0.606299 
vt 0.000000 1.000000 
vt 0.238095 0.606299 
vt 0.238095 1.000000 
vt 0.761905 1.000000 
vt 0.507937 1.000000 
vt 0.507937 0.606299 
vt 0.761905 0.606299 
vt 0.761905 1.000000 
vt 0.507937 0.606299 
vt 1.000000 0.606299 
vt 0.761905 1.000000 
vt 0.761905 0.606299 
vt 0.761905 1.000000 
vt 1.000000 0.606299 
vt 1.000000 1.000000 
vt 0.761905 0.606299 
vt 1.000000 1.000000 
vt 1.000000 0.606299 
vt 1.000000 1.000000 
vt 0.761905 0.606299 
vt 0.761905 1.000000 
vt 0.000000 1.000000 
vt 0.238095 1.000000 
vt 0.000000 -0.007874 
vt 0.238095 1.000000 
vt 0.238095 -0.007874 
vt 0.000000 -0.007874 
vt 0.238095 1.000000 
vt 0.507937 1.000000 
vt 0.238095 -0.007874 
vt 0.507937 1.000000 
vt 0.507937 -0.007874 
vt 0.238095 -0.007874 
vt 0.507937 1.000000 
vt 0.761905 1.000000 
vt 0.507937 -0.007874 
vt 0.761905 1.000000 
vt 0.761905 -0.007874 
vt 0.507937 -0.007874 
vt 0.761905 1.000000 
vt 1.000000 1.000000 
vt 0.761905 -0.007874 
vt 1.000000 1.000000 
vt 1.000000 -0.007874 
vt 0.761905 -0.007874 
vt 1.000000 1.000000 
vt 0.761905 1.000000 
vt 1.000000 -0.007874 
vt 0.761905 1.000000 
vt 0.761905 -0.007874 
vt 1.000000 -0.007874 
vt 0.761905 1.000000 
vt 0.507937 1.000000 
vt 0.761905 -0.007874 
vt 0.507937 1.000000 
vt 0.507937 -0.007874 
vt 0.761905 -0.007874 
vt 0.000000 -0.007874 
vt 0.238095 -0.007874 
vt 0.000000 1.000000 
vt 0.238095 -0.007874 
vt 0.238095 1.000000 
vt 0.000000 1.000000 
vt 0.238095 -0.007874 
vt 0.507937 -0.007874 
vt 0.238095 1.000000 
vt 0.507937 -0.007874 
vt 0.507937 1.000000 
vt 0.238095 1.000000 
vt 1.000000 -0.007874 
vt 0.761905 -0.007874 
vt 1.000000 1.000000 
vt 0.761905 -0.007874 
vt 0.761905 1.000000 
vt 1.000000 1.000000 
vt 0.761905 -0.007874 
vt 0.507937 -0.007874 
vt 0.761905 1.000000 
vt 0.507937 -0.007874 
vt 0.507937 1.000000 
vt 0.761905 1.000000 
vt 0.507937 -0.007874 
vt 0.238095 -0.007874 
vt 0.507937 1.000000 
vt 0.238095 -0.007874 
vt 0.238095 1.000000 
vt 0.507937 1.000000 
vt 0.238095 -0.007874 
vt 0.000000 -0.007874 
vt 0.238095 1.000000 
vt 0.000000 -0.007874 
vt 0.000000 1.000000 
vt 0.238095 1.000000 
f 1/1/1 2/2/2 3/3/3
f 4/4/4 5/5/5 6/6/6
f 7/7/7 8/8/8 9/9/9
f 10/10/10 11/11/11 12/12/12
f 13/13/13 14/14/14 15/15/15
f 16/16/16 17/17/17 18/18/18
f 19/19/19 20/20/20 21/21/21
f 22/22/22 23/23/23 24/24/24
f 25/25/25 26/26/26 27/27/27
f 28/28/28 29/29/29 30/30/30
f 31/31/31 32/32/32 33/33/33
f 34/34/34 35/35/35 36/36/36
f 37/37/37 38/38/38 39/39/39
f 40/40/40 41/41/41 42/42/42
f 43/43/43 44/44/44 45/45/45
f 46/46/46 47/47/47 48/48/48
f 49/49/49 50/50/50 51/51/51
f 52/52/52 53/53/53 54/54/54
f 55/55/55 56/56/56 57/57/57
f 58/58/58 59/59/59 60/60/60
f 61/61/61 62/62/62 63/63/63
f 64/64/64 65/65/65 66/66/66
f 67/67/67 68/68/68 69/69/69
f 70/70/70 71/71/71 72/72/72
f 73/73/73 74/74/74 75/75/75
f 76/76/76 77/77/77 78/78/78
f 79/79/79 80/80/80 81/81/81
f 82/82/82 83/83/83 84/84/84
f 85/85/85 86/86/86 87/87/87
f 88/88/88 89/89/89 90/90/90
f 91/91/91 92/92/92 93/93/93
f 94/94/94 95/95/95 96/96/96
f 97/97/97 98/98/98 99/99/99
f 100/100/100 101/101/101 102/102/102
f 103/103/103 104/104/104 105/105/105
f 106/106/106 107/107/107 108/108/108
f 109/109/109 110/110/110 111/111/111
f 112/112/112 113/113/113 114/114/114
f 115/115/115 116/116/116 117/117/117
f 118/118/118 119/119/119 120/120/120
f 121/121/121 122/122/122 123/123/123
f 124/124/124 125/125/125 126/126/126
f 127/127/127 128/128/128 129/129/129
f 130/130/130 131/131/131 132/132/132
f 133/133/133 134/134/134 135/135/135
f 136/136/136 137/137/137 138/138/138
f 139/139/139 140/140/140 141/141/141
f 142/142/142 143/143/143 144/144/144
f 145/145/145 146/146/146 147/147/147
f 148/148/148 149/149/149 150/150/150
f 151/151/151 152/152/152 153/153/153
f 154/154/154 155/155/155 156/156/156
f 157/157/157 158/158/158 159/159/159
f 160/160/160 161/161/161 162/162/162
f 163/163/163 164/164/164 165/165/165
f 166/166/166 167/167/167 168/168/168
f 169/169/169 170/170/170 171/171/171
f 172/172/172 173/173/173 174/174/174
f 175/175/175 176/176/176 177/177/177
f 178/178/178 179/179/179 180/180/180
f 181/181/181 182/182/182 183/183/183
f 184/184/184 185/185/185 186/186/186
f 187/187/187 188/188/188 189/189/189
f 190/190/190 191/191/191 192/192/192
f 193/193/193 194/194/194 195/195/195
f 196/196/196 197/197/197 198/198/198
f 199/199/199 200/200/200 201/201/201
f 202/202/202 203/203/203 204/204/204
f 205/205/205 206/206/206 207/207/207
f 208/208/208 209/209/209 210/210/210
f 211/211/211 212/212/212 213/213/213
f 214/214/214 215/215/215 216/216/216
f 217/217/217 218/218/218 219/219/219
f 220/220/220 221/221/221 222/222/222
f 223/223/223 224/224/224 225/225/225
f 226/226/226 227/227/227 228/228/228
f 229/229/229 230/230/230 231/231/231
f 232/232/232 233/233/233 234/234/234
f 235/235/235 236/236/236 237/237/237
f 238/238/238 239/239/239 240/240/240
