v 206.000000 98.000000 -78.000000 
v 206.000000 197.000000 49.000000 
v 206.000000 99.000000 49.000000 
v 206.000000 197.000000 49.000000 
v 206.000000 98.000000 -78.000000 
v 206.000000 197.000000 -78.000000 
vn 1.000000 0.000000 0.000000 
vn 1.000000 0.000000 0.000000 
vn 1.000000 0.000000 0.000000 
vn 1.000000 0.000000 0.000000 
vn 1.000000 0.000000 0.000000 
vn 1.000000 0.000000 0.000000 
vt 0.322581 0.548387 
vt 0.000000 1.000000 
vt 0.000000 0.548387 
vt 0.000000 1.000000 
vt 0.322581 0.548387 
vt 0.322581 1.000000 
f 1/1/1 2/2/2 3/3/3
f 4/4/4 5/5/5 6/6/6
