v 300.000000 -11.000000 387.000000 
v -102.000000 0.000000 -17.000000 
v -102.000000 -11.000000 387.000000 
v -102.000000 0.000000 -387.000000 
v 300.000000 0.000000 -17.000000 
v 300.000000 0.000000 -387.000000 
v -102.000000 -11.000000 387.000000 
v -668.000000 0.000000 -17.000000 
v -386.000000 0.000000 387.000000 
v -668.000000 0.000000 -387.000000 
v -102.000000 0.000000 -17.000000 
v -102.000000 0.000000 -387.000000 
v -1053.000000 0.000000 -387.000000 
v -668.000000 0.000000 -17.000000 
v -668.000000 0.000000 -387.000000 
v -668.000000 0.000000 387.000000 
v -1053.000000 0.000000 -17.000000 
v -1053.000000 0.000000 387.000000 
v -668.000000 0.000000 387.000000 
v -668.000000 0.000000 -17.000000 
v -1053.000000 0.000000 -17.000000 
v -668.000000 0.000000 -17.000000 
v -1053.000000 0.000000 -387.000000 
v -1053.000000 0.000000 -17.000000 
v -102.000000 -11.000000 387.000000 
v -102.000000 0.000000 -17.000000 
v -668.000000 0.000000 -17.000000 
v -102.000000 0.000000 -17.000000 
v -668.000000 0.000000 -387.000000 
v -668.000000 0.000000 -17.000000 
v 300.000000 -11.000000 387.000000 
v 300.000000 0.000000 -17.000000 
v -102.000000 0.000000 -17.000000 
v 300.000000 0.000000 -17.000000 
v -102.000000 0.000000 -387.000000 
v -102.000000 0.000000 -17.000000 
v -386.000000 0.000000 387.000000 
v -668.000000 0.000000 -17.000000 
v -668.000000 0.000000 387.000000 
vn 0.000000 0.999512 0.028564 
vn 0.000000 0.999756 0.014160 
vn 0.013428 0.999756 0.009521 
vn 0.000000 1.000000 0.000000 
vn 0.000000 0.999756 0.009521 
vn 0.000000 1.000000 0.000000 
vn 0.013428 0.999756 0.009521 
vn 0.005615 0.999756 0.000000 
vn 0.020264 0.999512 -0.013916 
vn 0.000000 1.000000 0.000000 
vn 0.000000 0.999756 0.014160 
vn 0.000000 1.000000 0.000000 
vn 0.000000 1.000000 0.000000 
vn 0.005615 0.999756 0.000000 
vn 0.000000 1.000000 0.000000 
vn 0.000000 1.000000 0.000000 
vn 0.000000 1.000000 0.000000 
vn 0.000000 1.000000 0.000000 
vn 0.000000 1.000000 0.000000 
vn 0.005615 0.999756 0.000000 
vn 0.000000 1.000000 0.000000 
vn 0.005615 0.999756 0.000000 
vn 0.000000 1.000000 0.000000 
vn 0.000000 1.000000 0.000000 
vn 0.013428 0.999756 0.009521 
vn 0.000000 0.999756 0.014160 
vn 0.005615 0.999756 0.000000 
vn 0.000000 0.999756 0.014160 
vn 0.000000 1.000000 0.000000 
vn 0.005615 0.999756 0.000000 
vn 0.000000 0.999512 0.028564 
vn 0.000000 0.999756 0.009521 
vn 0.000000 0.999756 0.014160 
vn 0.000000 0.999756 0.009521 
vn 0.000000 1.000000 0.000000 
vn 0.000000 0.999756 0.014160 
vn 0.020264 0.999512 -0.013916 
vn 0.005615 0.999756 0.000000 
vn 0.000000 1.000000 0.000000 
vt 1.000000 0.000000 
vt 0.411765 0.509804 
vt 1.000000 0.509804 
vt 1.000000 0.000000 
vt 0.411765 0.509804 
vt 1.000000 0.509804 
vt 1.000000 0.000000 
vt 0.411765 1.000000 
vt 1.000000 0.498039 
vt 1.000000 0.000000 
vt 0.411765 1.000000 
vt 1.000000 1.000000 
vt 1.000000 0.000000 
vt 0.411765 1.000000 
vt 1.000000 1.000000 
vt 1.000000 0.000000 
vt 0.411765 1.000000 
vt 1.000000 1.000000 
vt 1.000000 0.000000 
vt 0.411765 0.000000 
vt 0.411765 1.000000 
vt 0.411765 1.000000 
vt 1.000000 0.000000 
vt 0.411765 0.000000 
vt 1.000000 0.000000 
vt 0.411765 0.000000 
vt 0.411765 1.000000 
vt 0.411765 1.000000 
vt 1.000000 0.000000 
vt 0.411765 0.000000 
vt 1.000000 0.000000 
vt 0.411765 0.000000 
vt 0.411765 0.509804 
vt 0.411765 0.509804 
vt 1.000000 0.000000 
vt 0.411765 0.000000 
vt 1.000000 0.498039 
vt 0.411765 1.000000 
vt 1.000000 1.000000 
f 1/1/1 2/2/2 3/3/3
f 4/4/4 5/5/5 6/6/6
f 7/7/7 8/8/8 9/9/9
f 10/10/10 11/11/11 12/12/12
f 13/13/13 14/14/14 15/15/15
f 16/16/16 17/17/17 18/18/18
f 19/19/19 20/20/20 21/21/21
f 22/22/22 23/23/23 24/24/24
f 25/25/25 26/26/26 27/27/27
f 28/28/28 29/29/29 30/30/30
f 31/31/31 32/32/32 33/33/33
f 34/34/34 35/35/35 36/36/36
f 37/37/37 38/38/38 39/39/39
