v 139.000000 306.000000 241.000000 
v -144.000000 306.000000 -19.000000 
v -144.000000 306.000000 241.000000 
v -144.000000 306.000000 241.000000 
v 139.000000 306.000000 358.000000 
v 139.000000 306.000000 241.000000 
v 139.000000 306.000000 358.000000 
v -144.000000 306.000000 241.000000 
v -144.000000 306.000000 358.000000 
v -144.000000 306.000000 -19.000000 
v 139.000000 306.000000 241.000000 
v 139.000000 306.000000 -19.000000 
vn 0.000000 1.000000 0.000000 
vn 0.000000 1.000000 0.000000 
vn 0.000000 1.000000 0.000000 
vn 0.000000 1.000000 0.000000 
vn 0.000000 1.000000 0.000000 
vn 0.000000 1.000000 0.000000 
vn 0.000000 1.000000 0.000000 
vn 0.000000 1.000000 0.000000 
vn 0.000000 1.000000 0.000000 
vn 0.000000 1.000000 0.000000 
vn 0.000000 1.000000 0.000000 
vn 0.000000 1.000000 0.000000 
vt 0.193548 0.903226 
vt 0.000000 -0.032258 
vt 0.000000 0.903226 
vt 0.000000 0.903226 
vt 0.193548 0.967742 
vt 0.193548 0.903226 
vt 0.193548 0.967742 
vt 0.000000 0.903226 
vt 0.000000 0.967742 
vt 0.000000 -0.032258 
vt 0.193548 0.903226 
vt 0.193548 -0.032258 
f 1/1/1 2/2/2 3/3/3
f 4/4/4 5/5/5 6/6/6
f 7/7/7 8/8/8 9/9/9
f 10/10/10 11/11/11 12/12/12
