v 8.000000 15.000000 -1.000000 
v 35.000000 7.000000 -2.000000 
v 6.000000 7.000000 -18.000000 
v 12.000000 4.000000 14.000000 
v 35.000000 3.000000 9.000000 
v 8.000000 15.000000 -1.000000 
v 35.000000 7.000000 -2.000000 
v 8.000000 15.000000 -1.000000 
v 35.000000 3.000000 9.000000 
v 34.000000 1.000000 -12.000000 
v 6.000000 7.000000 -18.000000 
v 35.000000 7.000000 -2.000000 
v 6.000000 7.000000 -18.000000 
v 34.000000 1.000000 -12.000000 
v 7.000000 -7.000000 -18.000000 
v 34.000000 -1.000000 -12.000000 
v 7.000000 -7.000000 -18.000000 
v 34.000000 1.000000 -12.000000 
v 7.000000 -7.000000 -18.000000 
v 34.000000 -1.000000 -12.000000 
v 8.000000 -15.000000 -1.000000 
v 35.000000 -7.000000 -2.000000 
v 8.000000 -15.000000 -1.000000 
v 34.000000 -1.000000 -12.000000 
v 8.000000 -15.000000 -1.000000 
v 35.000000 -7.000000 -2.000000 
v 12.000000 -5.000000 14.000000 
v 35.000000 -3.000000 9.000000 
v 12.000000 -5.000000 14.000000 
v 35.000000 -7.000000 -2.000000 
v 12.000000 -5.000000 14.000000 
v 35.000000 -3.000000 9.000000 
v 12.000000 4.000000 14.000000 
v 35.000000 3.000000 9.000000 
v 12.000000 4.000000 14.000000 
v 35.000000 -3.000000 9.000000 
v 35.000000 7.000000 -2.000000 
v 48.000000 7.000000 -4.000000 
v 34.000000 1.000000 -12.000000 
v 48.000000 1.000000 -13.000000 
v 34.000000 1.000000 -12.000000 
v 48.000000 7.000000 -4.000000 
v 34.000000 1.000000 -12.000000 
v 48.000000 1.000000 -13.000000 
v 34.000000 -1.000000 -12.000000 
v 48.000000 -5.000000 -12.000000 
v 34.000000 -1.000000 -12.000000 
v 48.000000 1.000000 -13.000000 
v 34.000000 -1.000000 -12.000000 
v 48.000000 -5.000000 -12.000000 
v 35.000000 -7.000000 -2.000000 
v 48.000000 -9.000000 -4.000000 
v 35.000000 -7.000000 -2.000000 
v 48.000000 -5.000000 -12.000000 
v 35.000000 -7.000000 -2.000000 
v 48.000000 -9.000000 -4.000000 
v 35.000000 -3.000000 9.000000 
vn 0.020996 0.996094 -0.083496 
vn -0.076172 0.985107 -0.153564 
vn -0.760010 0.623779 -0.181641 
vn 0.914795 0.401611 0.038818 
vn 0.831787 0.544678 0.105469 
vn 0.020996 0.996094 -0.083496 
vn -0.076172 0.985107 -0.153564 
vn 0.020996 0.996094 -0.083496 
vn 0.831787 0.544678 0.105469 
vn -0.829346 0.494141 -0.260498 
vn -0.760010 0.623779 -0.181641 
vn -0.076172 0.985107 -0.153564 
vn -0.760010 0.623779 -0.181641 
vn -0.829346 0.494141 -0.260498 
vn -0.927002 -0.358398 -0.109863 
vn -0.816162 -0.524658 -0.240967 
vn -0.927002 -0.358398 -0.109863 
vn -0.829346 0.494141 -0.260498 
vn -0.927002 -0.358398 -0.109863 
vn -0.816162 -0.524658 -0.240967 
vn -0.136719 -0.980713 -0.137939 
vn -0.049805 -0.998291 -0.029297 
vn -0.136719 -0.980713 -0.137939 
vn -0.816162 -0.524658 -0.240967 
vn -0.136719 -0.980713 -0.137939 
vn -0.049805 -0.998291 -0.029297 
vn 0.746338 -0.665283 -0.001465 
vn 0.804688 -0.581787 0.115967 
vn 0.746338 -0.665283 -0.001465 
vn -0.049805 -0.998291 -0.029297 
vn 0.746338 -0.665283 -0.001465 
vn 0.804688 -0.581787 0.115967 
vn 0.914795 0.401611 0.038818 
vn 0.831787 0.544678 0.105469 
vn 0.914795 0.401611 0.038818 
vn 0.804688 -0.581787 0.115967 
vn -0.076172 0.985107 -0.153564 
vn -0.194336 0.947510 -0.253174 
vn -0.829346 0.494141 -0.260498 
vn -0.843262 0.315918 -0.434326 
vn -0.829346 0.494141 -0.260498 
vn -0.194336 0.947510 -0.253174 
vn -0.829346 0.494141 -0.260498 
vn -0.843262 0.315918 -0.434326 
vn -0.816162 -0.524658 -0.240967 
vn -0.673584 -0.652344 -0.346924 
vn -0.816162 -0.524658 -0.240967 
vn -0.843262 0.315918 -0.434326 
vn -0.816162 -0.524658 -0.240967 
vn -0.673584 -0.652344 -0.346924 
vn -0.049805 -0.998291 -0.029297 
vn 0.076660 -0.978027 -0.193359 
vn -0.049805 -0.998291 -0.029297 
vn -0.673584 -0.652344 -0.346924 
vn -0.049805 -0.998291 -0.029297 
vn 0.076660 -0.978027 -0.193359 
vn 0.804688 -0.581787 0.115967 
vt 0.857143 0.333333 
vt 0.777778 0.095238 
vt 0.777778 0.333333 
vt 0.619048 0.380952 
vt 0.619048 0.079365 
vt 0.444444 0.349206 
vt 0.571429 0.079365 
vt 0.444444 0.349206 
vt 0.619048 0.079365 
vt 0.714286 0.111111 
vt 0.777778 0.333333 
vt 0.777778 0.095238 
vt 0.777778 0.333333 
vt 0.714286 0.111111 
vt 0.619048 0.333333 
vt 0.682540 0.111111 
vt 0.619048 0.333333 
vt 0.714286 0.111111 
vt 0.619048 0.333333 
vt 0.682540 0.111111 
vt 0.539683 0.333333 
vt 0.619048 0.095238 
vt 0.539683 0.333333 
vt 0.682540 0.111111 
vt 0.904762 0.349206 
vt 0.793651 0.079365 
vt 0.746032 0.380952 
vt 0.730159 0.079365 
vt 0.746032 0.380952 
vt 0.793651 0.079365 
vt 0.746032 0.380952 
vt 0.730159 0.079365 
vt 0.619048 0.380952 
vt 0.619048 0.079365 
vt 0.619048 0.380952 
vt 0.730159 0.079365 
vt 0.761905 0.063492 
vt 0.698413 0.063492 
vt 0.682540 0.301587 
vt 0.682540 0.301587 
vt 0.682540 0.301587 
vt 0.698413 0.063492 
vt 0.904762 0.317460 
vt 0.682540 0.301587 
vt 0.682540 0.396825 
vt 0.682540 0.396825 
vt 0.682540 0.396825 
vt 0.682540 0.301587 
vt 0.841270 0.412698 
vt 0.682540 0.396825 
vt 0.698413 0.587302 
vt 0.698413 0.587302 
vt 0.698413 0.587302 
vt 0.682540 0.396825 
vt 0.888889 0.158730 
vt 0.873016 0.158730 
vt 0.857143 0.238095 
f 1/1/1 2/2/2 3/3/3
f 4/4/4 5/5/5 6/6/6
f 7/7/7 8/8/8 9/9/9
f 10/10/10 11/11/11 12/12/12
f 13/13/13 14/14/14 15/15/15
f 16/16/16 17/17/17 18/18/18
f 19/19/19 20/20/20 21/21/21
f 22/22/22 23/23/23 24/24/24
f 25/25/25 26/26/26 27/27/27
f 28/28/28 29/29/29 30/30/30
f 31/31/31 32/32/32 33/33/33
f 34/34/34 35/35/35 36/36/36
f 37/37/37 38/38/38 39/39/39
f 40/40/40 41/41/41 42/42/42
f 43/43/43 44/44/44 45/45/45
f 46/46/46 47/47/47 48/48/48
f 49/49/49 50/50/50 51/51/51
f 52/52/52 53/53/53 54/54/54
f 55/55/55 56/56/56 57/57/57
