v 1177.000000 -12.000000 -237.000000 
v 1177.000000 -588.000000 -237.000000 
v 1177.000000 -588.000000 293.000000 
v 1177.000000 -588.000000 293.000000 
v 1177.000000 -12.000000 293.000000 
v 1177.000000 -12.000000 -237.000000 
v 1177.000000 -588.000000 293.000000 
v 486.000000 -588.000000 293.000000 
v 486.000000 0.000000 293.000000 
v 486.000000 0.000000 293.000000 
v 1177.000000 -12.000000 293.000000 
v 1177.000000 -588.000000 293.000000 
v 93.000000 -588.000000 293.000000 
v 93.000000 0.000000 293.000000 
v 486.000000 -588.000000 293.000000 
v 486.000000 0.000000 293.000000 
v 486.000000 -588.000000 293.000000 
v 93.000000 0.000000 293.000000 
vn -1.000000 0.000000 0.000000 
vn -1.000000 0.000000 0.000000 
vn -1.000000 0.000000 0.000000 
vn -1.000000 0.000000 0.000000 
vn -1.000000 0.000000 0.000000 
vn -1.000000 0.000000 0.000000 
vn 0.000000 0.000000 -1.000000 
vn 0.000000 0.000000 -1.000000 
vn 0.000000 0.000000 -1.000000 
vn 0.000000 0.000000 -1.000000 
vn 0.000000 0.000000 -1.000000 
vn 0.000000 0.000000 -1.000000 
vn 0.000000 0.000000 -1.000000 
vn 0.000000 0.000000 -1.000000 
vn 0.000000 0.000000 -1.000000 
vn 0.000000 0.000000 -1.000000 
vn 0.000000 0.000000 -1.000000 
vn 0.000000 0.000000 -1.000000 
vt 1.000000 1.000000 
vt 1.000000 -0.015873 
vt 0.000000 -0.015873 
vt 0.000000 -0.015873 
vt 0.000000 1.000000 
vt 1.000000 1.000000 
vt 1.000000 -0.015873 
vt 0.000000 -0.015873 
vt 0.000000 1.000000 
vt 0.000000 1.000000 
vt 1.000000 1.000000 
vt 1.000000 -0.015873 
vt 0.365079 -0.015873 
vt 0.365079 1.000000 
vt 1.000000 -0.015873 
vt 1.000000 1.000000 
vt 1.000000 -0.015873 
vt 0.365079 1.000000 
f 1/1/1 2/2/2 3/3/3
f 4/4/4 5/5/5 6/6/6
f 7/7/7 8/8/8 9/9/9
f 10/10/10 11/11/11 12/12/12
f 13/13/13 14/14/14 15/15/15
f 16/16/16 17/17/17 18/18/18
