v -322.000000 -403.000000 8.000000 
v -58.000000 -440.000000 17.000000 
v -325.000000 -440.000000 17.000000 
v -58.000000 -440.000000 17.000000 
v -322.000000 -403.000000 8.000000 
v -58.000000 -403.000000 8.000000 
v -57.000000 479.000000 17.000000 
v -57.000000 442.000000 8.000000 
v -321.000000 442.000000 8.000000 
v -321.000000 442.000000 8.000000 
v -324.000000 479.000000 17.000000 
v -57.000000 479.000000 17.000000 
v -58.000000 191.000000 8.000000 
v -20.000000 442.000000 17.000000 
v -21.000000 188.000000 17.000000 
v -20.000000 442.000000 17.000000 
v -58.000000 191.000000 8.000000 
v -57.000000 442.000000 8.000000 
v -705.000000 -191.000000 8.000000 
v -322.000000 191.000000 8.000000 
v -322.000000 -191.000000 8.000000 
v -322.000000 191.000000 8.000000 
v -705.000000 -191.000000 8.000000 
v -705.000000 191.000000 8.000000 
v -702.000000 -440.000000 17.000000 
v -968.000000 -403.000000 8.000000 
v -705.000000 -403.000000 8.000000 
v -968.000000 -403.000000 8.000000 
v -702.000000 -440.000000 17.000000 
v -968.000000 -440.000000 17.000000 
v -325.000000 -440.000000 17.000000 
v -705.000000 -403.000000 8.000000 
v -322.000000 -403.000000 8.000000 
v -705.000000 -403.000000 8.000000 
v -325.000000 -440.000000 17.000000 
v -702.000000 -440.000000 17.000000 
v -968.000000 -191.000000 8.000000 
v -1005.000000 -403.000000 17.000000 
v -1005.000000 -188.000000 17.000000 
v -1005.000000 -403.000000 17.000000 
v -968.000000 -191.000000 8.000000 
v -968.000000 -403.000000 8.000000 
v -21.000000 -188.000000 17.000000 
v -58.000000 -403.000000 8.000000 
v -58.000000 -191.000000 8.000000 
v -58.000000 -403.000000 8.000000 
v -21.000000 -188.000000 17.000000 
v -21.000000 -403.000000 17.000000 
v -968.000000 191.000000 8.000000 
v -1005.000000 -188.000000 17.000000 
v -1005.000000 188.000000 17.000000 
v -1005.000000 -188.000000 17.000000 
v -968.000000 191.000000 8.000000 
v -968.000000 -191.000000 8.000000 
v -704.000000 442.000000 8.000000 
v -967.000000 479.000000 17.000000 
v -701.000000 479.000000 17.000000 
v -967.000000 479.000000 17.000000 
v -704.000000 442.000000 8.000000 
v -967.000000 442.000000 8.000000 
v -21.000000 188.000000 17.000000 
v -58.000000 -191.000000 8.000000 
v -58.000000 191.000000 8.000000 
v -58.000000 -191.000000 8.000000 
v -21.000000 188.000000 17.000000 
v -21.000000 -188.000000 17.000000 
v -321.000000 442.000000 8.000000 
v -701.000000 479.000000 17.000000 
v -324.000000 479.000000 17.000000 
v -701.000000 479.000000 17.000000 
v -321.000000 442.000000 8.000000 
v -704.000000 442.000000 8.000000 
v -1005.000000 188.000000 17.000000 
v -1004.000000 442.000000 17.000000 
v -967.000000 442.000000 8.000000 
v -968.000000 191.000000 8.000000 
v -1005.000000 188.000000 17.000000 
v -967.000000 442.000000 8.000000 
v -58.000000 191.000000 8.000000 
v -322.000000 191.000000 8.000000 
v -321.000000 442.000000 8.000000 
v -57.000000 442.000000 8.000000 
v -58.000000 191.000000 8.000000 
v -321.000000 442.000000 8.000000 
v -322.000000 -191.000000 8.000000 
v -322.000000 191.000000 8.000000 
v -58.000000 191.000000 8.000000 
v -58.000000 -191.000000 8.000000 
v -322.000000 -191.000000 8.000000 
v -58.000000 191.000000 8.000000 
v -322.000000 -403.000000 8.000000 
v -322.000000 -191.000000 8.000000 
v -58.000000 -191.000000 8.000000 
v -58.000000 -403.000000 8.000000 
v -322.000000 -403.000000 8.000000 
v -58.000000 -191.000000 8.000000 
v -705.000000 191.000000 8.000000 
v -704.000000 442.000000 8.000000 
v -321.000000 442.000000 8.000000 
v -322.000000 191.000000 8.000000 
v -705.000000 191.000000 8.000000 
v -321.000000 442.000000 8.000000 
v -968.000000 191.000000 8.000000 
v -967.000000 442.000000 8.000000 
v -704.000000 442.000000 8.000000 
v -705.000000 191.000000 8.000000 
v -968.000000 191.000000 8.000000 
v -704.000000 442.000000 8.000000 
v -968.000000 -191.000000 8.000000 
v -968.000000 191.000000 8.000000 
v -705.000000 191.000000 8.000000 
v -705.000000 -191.000000 8.000000 
v -968.000000 -191.000000 8.000000 
v -705.000000 191.000000 8.000000 
v -968.000000 -403.000000 8.000000 
v -968.000000 -191.000000 8.000000 
v -705.000000 -191.000000 8.000000 
v -705.000000 -403.000000 8.000000 
v -968.000000 -403.000000 8.000000 
v -705.000000 -191.000000 8.000000 
v -705.000000 -403.000000 8.000000 
v -705.000000 -191.000000 8.000000 
v -322.000000 -191.000000 8.000000 
v -322.000000 -403.000000 8.000000 
v -705.000000 -403.000000 8.000000 
v -322.000000 -191.000000 8.000000 
v -378.000000 -135.000000 175.000000 
v -649.000000 135.000000 175.000000 
v -649.000000 -135.000000 175.000000 
v -649.000000 135.000000 175.000000 
v -378.000000 -135.000000 175.000000 
v -378.000000 135.000000 175.000000 
v -140.000000 135.000000 175.000000 
v -140.000000 359.000000 175.000000 
v -376.000000 359.000000 175.000000 
v -378.000000 135.000000 175.000000 
v -140.000000 135.000000 175.000000 
v -376.000000 359.000000 175.000000 
v -140.000000 -135.000000 175.000000 
v -140.000000 135.000000 175.000000 
v -378.000000 135.000000 175.000000 
v -378.000000 -135.000000 175.000000 
v -140.000000 -135.000000 175.000000 
v -378.000000 135.000000 175.000000 
v -140.000000 -359.000000 175.000000 
v -140.000000 -135.000000 175.000000 
v -378.000000 -135.000000 175.000000 
v -378.000000 -359.000000 175.000000 
v -140.000000 -359.000000 175.000000 
v -378.000000 -135.000000 175.000000 
v -378.000000 -359.000000 175.000000 
v -378.000000 -135.000000 175.000000 
v -649.000000 -135.000000 175.000000 
v -649.000000 -359.000000 175.000000 
v -378.000000 -359.000000 175.000000 
v -649.000000 -135.000000 175.000000 
v -649.000000 -359.000000 175.000000 
v -649.000000 -135.000000 175.000000 
v -884.000000 -135.000000 175.000000 
v -884.000000 -359.000000 175.000000 
v -649.000000 -359.000000 175.000000 
v -884.000000 -135.000000 175.000000 
v -649.000000 -135.000000 175.000000 
v -649.000000 135.000000 175.000000 
v -884.000000 135.000000 175.000000 
v -884.000000 -135.000000 175.000000 
v -649.000000 -135.000000 175.000000 
v -884.000000 135.000000 175.000000 
v -649.000000 135.000000 175.000000 
v -648.000000 359.000000 175.000000 
v -883.000000 359.000000 175.000000 
v -884.000000 135.000000 175.000000 
v -649.000000 135.000000 175.000000 
v -883.000000 359.000000 175.000000 
v -378.000000 135.000000 175.000000 
v -376.000000 359.000000 175.000000 
v -648.000000 359.000000 175.000000 
v -649.000000 135.000000 175.000000 
v -378.000000 135.000000 175.000000 
v -648.000000 359.000000 175.000000 
v -710.000000 -33.000000 -16.000000 
v -1014.000000 -305.000000 -16.000000 
v -1014.000000 -33.000000 -16.000000 
v -1014.000000 -305.000000 -16.000000 
v -710.000000 -33.000000 -16.000000 
v -710.000000 -305.000000 -16.000000 
v -627.000000 -101.000000 -16.000000 
v -614.000000 -169.000000 -16.000000 
v -710.000000 -169.000000 -16.000000 
v -662.000000 -52.000000 -16.000000 
v -627.000000 -101.000000 -16.000000 
v -710.000000 -169.000000 -16.000000 
v -710.000000 -33.000000 -16.000000 
v -662.000000 -52.000000 -16.000000 
v -710.000000 -169.000000 -16.000000 
v -662.000000 -287.000000 -16.000000 
v -710.000000 -305.000000 -16.000000 
v -710.000000 -169.000000 -16.000000 
v -627.000000 -237.000000 -16.000000 
v -662.000000 -287.000000 -16.000000 
v -710.000000 -169.000000 -16.000000 
v -614.000000 -169.000000 -16.000000 
v -627.000000 -237.000000 -16.000000 
v -710.000000 -169.000000 -16.000000 
vn 0.000000 -0.120605 -0.992676 
vn 0.000000 -0.239258 -0.970703 
vn 0.000000 -0.239258 -0.970703 
vn 0.000000 -0.239258 -0.970703 
vn 0.000000 -0.120605 -0.992676 
vn 0.121094 -0.060547 -0.990723 
vn 0.000000 0.239258 -0.970703 
vn 0.080811 0.080322 -0.993408 
vn 0.000000 0.120605 -0.992676 
vn 0.000000 0.120605 -0.992676 
vn 0.000000 0.239258 -0.970703 
vn 0.000000 0.239258 -0.970703 
vn 0.103271 -0.000244 -0.994629 
vn 0.239258 -0.000977 -0.970703 
vn 0.239258 -0.000244 -0.970703 
vn 0.239258 -0.000977 -0.970703 
vn 0.103271 -0.000244 -0.994629 
vn 0.080811 0.080322 -0.993408 
vn 0.000000 0.000000 -1.000000 
vn 0.000000 0.000000 -1.000000 
vn 0.000000 0.000000 -1.000000 
vn 0.000000 0.000000 -1.000000 
vn 0.000000 0.000000 -1.000000 
vn 0.000000 0.000000 -1.000000 
vn 0.000000 -0.239258 -0.970703 
vn -0.048340 -0.096680 -0.993896 
vn 0.000000 -0.120605 -0.992676 
vn -0.048340 -0.096680 -0.993896 
vn 0.000000 -0.239258 -0.970703 
vn 0.000000 -0.239258 -0.970703 
vn 0.000000 -0.239258 -0.970703 
vn 0.000000 -0.120605 -0.992676 
vn 0.000000 -0.120605 -0.992676 
vn 0.000000 -0.120605 -0.992676 
vn 0.000000 -0.239258 -0.970703 
vn 0.000000 -0.239258 -0.970703 
vn -0.120605 0.000000 -0.992676 
vn -0.239258 0.000000 -0.970703 
vn -0.239258 0.000000 -0.970703 
vn -0.239258 0.000000 -0.970703 
vn -0.120605 0.000000 -0.992676 
vn -0.048340 -0.096680 -0.993896 
vn 0.239258 0.000000 -0.970703 
vn 0.121094 -0.060547 -0.990723 
vn 0.120605 0.000000 -0.992676 
vn 0.121094 -0.060547 -0.990723 
vn 0.239258 0.000000 -0.970703 
vn 0.239258 0.000000 -0.970703 
vn -0.120605 0.000000 -0.992676 
vn -0.239258 0.000000 -0.970703 
vn -0.239258 0.000732 -0.970703 
vn -0.239258 0.000000 -0.970703 
vn -0.120605 0.000000 -0.992676 
vn -0.120605 0.000000 -0.992676 
vn 0.000000 0.120605 -0.992676 
vn 0.000000 0.239258 -0.970703 
vn 0.000000 0.239258 -0.970703 
vn 0.000000 0.239258 -0.970703 
vn 0.000000 0.120605 -0.992676 
vn -0.121094 0.061035 -0.990723 
vn 0.239258 -0.000244 -0.970703 
vn 0.120605 0.000000 -0.992676 
vn 0.103271 -0.000244 -0.994629 
vn 0.120605 0.000000 -0.992676 
vn 0.239258 -0.000244 -0.970703 
vn 0.239258 0.000000 -0.970703 
vn 0.000000 0.120605 -0.992676 
vn 0.000000 0.239258 -0.970703 
vn 0.000000 0.239258 -0.970703 
vn 0.000000 0.239258 -0.970703 
vn 0.000000 0.120605 -0.992676 
vn 0.000000 0.120605 -0.992676 
vn -0.239258 0.000732 -0.970703 
vn -0.239258 0.000977 -0.970703 
vn -0.121094 0.061035 -0.990723 
vn -0.120605 0.000000 -0.992676 
vn -0.239258 0.000732 -0.970703 
vn -0.121094 0.061035 -0.990723 
vn 0.103271 -0.000244 -0.994629 
vn 0.000000 0.000000 -1.000000 
vn 0.000000 0.120605 -0.992676 
vn 0.080811 0.080322 -0.993408 
vn 0.103271 -0.000244 -0.994629 
vn 0.000000 0.120605 -0.992676 
vn 0.000000 0.000000 -1.000000 
vn 0.000000 0.000000 -1.000000 
vn 0.103271 -0.000244 -0.994629 
vn 0.120605 0.000000 -0.992676 
vn 0.000000 0.000000 -1.000000 
vn 0.103271 -0.000244 -0.994629 
vn 0.000000 -0.120605 -0.992676 
vn 0.000000 0.000000 -1.000000 
vn 0.120605 0.000000 -0.992676 
vn 0.121094 -0.060547 -0.990723 
vn 0.000000 -0.120605 -0.992676 
vn 0.120605 0.000000 -0.992676 
vn 0.000000 0.000000 -1.000000 
vn 0.000000 0.120605 -0.992676 
vn 0.000000 0.120605 -0.992676 
vn 0.000000 0.000000 -1.000000 
vn 0.000000 0.000000 -1.000000 
vn 0.000000 0.120605 -0.992676 
vn -0.120605 0.000000 -0.992676 
vn -0.121094 0.061035 -0.990723 
vn 0.000000 0.120605 -0.992676 
vn 0.000000 0.000000 -1.000000 
vn -0.120605 0.000000 -0.992676 
vn 0.000000 0.120605 -0.992676 
vn -0.120605 0.000000 -0.992676 
vn -0.120605 0.000000 -0.992676 
vn 0.000000 0.000000 -1.000000 
vn 0.000000 0.000000 -1.000000 
vn -0.120605 0.000000 -0.992676 
vn 0.000000 0.000000 -1.000000 
vn -0.048340 -0.096680 -0.993896 
vn -0.120605 0.000000 -0.992676 
vn 0.000000 0.000000 -1.000000 
vn 0.000000 -0.120605 -0.992676 
vn -0.048340 -0.096680 -0.993896 
vn 0.000000 0.000000 -1.000000 
vn 0.000000 -0.120605 -0.992676 
vn 0.000000 0.000000 -1.000000 
vn 0.000000 0.000000 -1.000000 
vn 0.000000 -0.120605 -0.992676 
vn 0.000000 -0.120605 -0.992676 
vn 0.000000 0.000000 -1.000000 
vn 0.000000 0.000000 1.000000 
vn 0.000000 0.000000 1.000000 
vn 0.000000 0.000000 1.000000 
vn 0.000000 0.000000 1.000000 
vn 0.000000 0.000000 1.000000 
vn 0.000000 0.000000 1.000000 
vn 0.000000 0.000000 1.000000 
vn 0.000000 0.000000 1.000000 
vn 0.000000 0.000000 1.000000 
vn 0.000000 0.000000 1.000000 
vn 0.000000 0.000000 1.000000 
vn 0.000000 0.000000 1.000000 
vn 0.000000 0.000000 1.000000 
vn 0.000000 0.000000 1.000000 
vn 0.000000 0.000000 1.000000 
vn 0.000000 0.000000 1.000000 
vn 0.000000 0.000000 1.000000 
vn 0.000000 0.000000 1.000000 
vn 0.000000 0.000000 1.000000 
vn 0.000000 0.000000 1.000000 
vn 0.000000 0.000000 1.000000 
vn 0.000000 0.000000 1.000000 
vn 0.000000 0.000000 1.000000 
vn 0.000000 0.000000 1.000000 
vn 0.000000 0.000000 1.000000 
vn 0.000000 0.000000 1.000000 
vn 0.000000 0.000000 1.000000 
vn 0.000000 0.000000 1.000000 
vn 0.000000 0.000000 1.000000 
vn 0.000000 0.000000 1.000000 
vn 0.000000 0.000000 1.000000 
vn 0.000000 0.000000 1.000000 
vn 0.000000 0.000000 1.000000 
vn 0.000000 0.000000 1.000000 
vn 0.000000 0.000000 1.000000 
vn 0.000000 0.000000 1.000000 
vn 0.000000 0.000000 1.000000 
vn 0.000000 0.000000 1.000000 
vn 0.000000 0.000000 1.000000 
vn 0.000000 0.000000 1.000000 
vn 0.000000 0.000000 1.000000 
vn 0.000000 0.000000 1.000000 
vn 0.000000 0.000000 1.000000 
vn 0.000000 0.000000 1.000000 
vn 0.000000 0.000000 1.000000 
vn 0.000000 0.000000 1.000000 
vn 0.000000 0.000000 1.000000 
vn 0.000000 0.000000 1.000000 
vn 0.000000 0.000000 1.000000 
vn 0.000000 0.000000 1.000000 
vn 0.000000 0.000000 1.000000 
vn 0.000000 0.000000 1.000000 
vn 0.000000 0.000000 1.000000 
vn 0.000000 0.000000 1.000000 
vn 0.000000 0.000000 -1.000000 
vn 0.000000 0.000000 -1.000000 
vn 0.000000 0.000000 -1.000000 
vn 0.000000 0.000000 -1.000000 
vn 0.000000 0.000000 -1.000000 
vn 0.000000 0.000000 -1.000000 
vn 0.000000 0.000000 -1.000000 
vn 0.000000 0.000000 -1.000000 
vn 0.000000 0.000000 -1.000000 
vn 0.000000 0.000000 -1.000000 
vn 0.000000 0.000000 -1.000000 
vn 0.000000 0.000000 -1.000000 
vn 0.000000 0.000000 -1.000000 
vn 0.000000 0.000000 -1.000000 
vn 0.000000 0.000000 -1.000000 
vn 0.000000 0.000000 -1.000000 
vn 0.000000 0.000000 -1.000000 
vn 0.000000 0.000000 -1.000000 
vn 0.000000 0.000000 -1.000000 
vn 0.000000 0.000000 -1.000000 
vn 0.000000 0.000000 -1.000000 
vn 0.000000 0.000000 -1.000000 
vn 0.000000 0.000000 -1.000000 
vn 0.000000 0.000000 -1.000000 
vt 0.874510 0.121569 
vt 0.113725 0.000000 
vt 0.874510 0.000000 
vt 0.113725 0.000000 
vt 0.874510 0.121569 
vt 0.113725 0.121569 
vt 0.113725 1.000000 
vt 0.113725 0.882353 
vt 0.874510 0.882353 
vt 0.874510 0.882353 
vt 0.874510 1.000000 
vt 0.113725 1.000000 
vt 0.113725 0.121569 
vt 0.000000 0.882353 
vt 0.000000 0.121569 
vt 0.000000 0.882353 
vt 0.113725 0.121569 
vt 0.113725 0.882353 
vt 0.874510 0.121569 
vt 0.121569 0.874510 
vt 0.121569 0.121569 
vt 0.121569 0.874510 
vt 0.874510 0.121569 
vt 0.874510 0.874510 
vt 0.121569 0.000000 
vt 0.882353 0.121569 
vt 0.121569 0.121569 
vt 0.882353 0.121569 
vt 0.121569 0.000000 
vt 0.882353 0.000000 
vt 0.121569 0.000000 
vt 0.874510 0.121569 
vt 0.121569 0.121569 
vt 0.874510 0.121569 
vt 0.121569 0.000000 
vt 0.874510 0.000000 
vt 0.882353 0.874510 
vt 1.000000 0.121569 
vt 1.000000 0.874510 
vt 1.000000 0.121569 
vt 0.882353 0.874510 
vt 0.882353 0.121569 
vt 0.000000 0.874510 
vt 0.113725 0.121569 
vt 0.113725 0.874510 
vt 0.113725 0.121569 
vt 0.000000 0.874510 
vt 0.000000 0.121569 
vt 0.882353 0.874510 
vt 1.000000 0.121569 
vt 1.000000 0.874510 
vt 1.000000 0.121569 
vt 0.882353 0.874510 
vt 0.882353 0.121569 
vt 0.121569 0.882353 
vt 0.882353 1.000000 
vt 0.121569 1.000000 
vt 0.882353 1.000000 
vt 0.121569 0.882353 
vt 0.882353 0.882353 
vt 0.000000 0.874510 
vt 0.113725 0.121569 
vt 0.113725 0.874510 
vt 0.113725 0.121569 
vt 0.000000 0.874510 
vt 0.000000 0.121569 
vt 0.121569 0.878431 
vt 0.874510 1.000000 
vt 0.121569 1.000000 
vt 0.874510 1.000000 
vt 0.121569 0.878431 
vt 0.874510 0.878431 
vt 1.000000 0.121569 
vt 1.000000 0.882353 
vt 0.882353 0.882353 
vt 0.882353 0.121569 
vt 1.000000 0.121569 
vt 0.882353 0.882353 
vt 0.113725 0.121569 
vt 0.874510 0.121569 
vt 0.874510 0.882353 
vt 0.113725 0.882353 
vt 0.113725 0.121569 
vt 0.874510 0.882353 
vt 0.874510 0.121569 
vt 0.874510 0.874510 
vt 0.113725 0.874510 
vt 0.113725 0.121569 
vt 0.874510 0.121569 
vt 0.113725 0.874510 
vt 0.874510 0.121569 
vt 0.874510 0.874510 
vt 0.113725 0.874510 
vt 0.113725 0.121569 
vt 0.874510 0.121569 
vt 0.113725 0.874510 
vt 0.874510 0.121569 
vt 0.874510 0.878431 
vt 0.121569 0.878431 
vt 0.121569 0.121569 
vt 0.874510 0.121569 
vt 0.121569 0.878431 
vt 0.882353 0.121569 
vt 0.882353 0.882353 
vt 0.121569 0.882353 
vt 0.121569 0.121569 
vt 0.882353 0.121569 
vt 0.121569 0.882353 
vt 0.882353 0.121569 
vt 0.882353 0.874510 
vt 0.121569 0.874510 
vt 0.121569 0.121569 
vt 0.882353 0.121569 
vt 0.121569 0.874510 
vt 0.882353 0.121569 
vt 0.882353 0.874510 
vt 0.121569 0.874510 
vt 0.121569 0.121569 
vt 0.882353 0.121569 
vt 0.121569 0.874510 
vt 0.874510 0.121569 
vt 0.874510 0.874510 
vt 0.121569 0.874510 
vt 0.121569 0.121569 
vt 0.874510 0.121569 
vt 0.121569 0.874510 
vt 0.121569 0.121569 
vt 0.874510 0.874510 
vt 0.874510 0.121569 
vt 0.874510 0.874510 
vt 0.121569 0.121569 
vt 0.121569 0.874510 
vt 0.000000 0.121569 
vt 0.000000 1.000000 
vt 0.874510 1.000000 
vt 0.874510 0.121569 
vt 0.000000 0.121569 
vt 0.874510 1.000000 
vt 0.000000 0.121569 
vt 0.000000 0.874510 
vt 0.874510 0.874510 
vt 0.874510 0.121569 
vt 0.000000 0.121569 
vt 0.874510 0.874510 
vt 0.000000 0.000000 
vt 0.000000 0.874510 
vt 0.874510 0.874510 
vt 0.874510 0.000000 
vt 0.000000 0.000000 
vt 0.874510 0.874510 
vt 0.121569 0.000000 
vt 0.121569 0.874510 
vt 0.874510 0.874510 
vt 0.874510 0.000000 
vt 0.121569 0.000000 
vt 0.874510 0.874510 
vt 0.121569 0.000000 
vt 0.121569 0.874510 
vt 1.000000 0.874510 
vt 1.000000 0.000000 
vt 0.121569 0.000000 
vt 1.000000 0.874510 
vt 0.121569 0.121569 
vt 0.121569 0.874510 
vt 1.000000 0.874510 
vt 1.000000 0.121569 
vt 0.121569 0.121569 
vt 1.000000 0.874510 
vt 0.121569 0.121569 
vt 0.121569 1.000000 
vt 1.000000 1.000000 
vt 1.000000 0.121569 
vt 0.121569 0.121569 
vt 1.000000 1.000000 
vt 0.121569 0.121569 
vt 0.121569 1.000000 
vt 0.874510 1.000000 
vt 0.874510 0.121569 
vt 0.121569 0.121569 
vt 0.874510 1.000000 
vt 0.239216 0.996078 
vt 1.000000 0.000000 
vt 1.000000 0.996078 
vt 1.000000 0.000000 
vt 0.239216 0.996078 
vt 0.239216 0.000000 
vt 0.035294 0.749020 
vt 0.003922 0.494118 
vt 0.239216 0.494118 
vt 0.121569 0.929412 
vt 0.035294 0.749020 
vt 0.239216 0.494118 
vt 0.239216 0.996078 
vt 0.121569 0.929412 
vt 0.239216 0.494118 
vt 0.121569 0.066667 
vt 0.239216 0.000000 
vt 0.239216 0.494118 
vt 0.035294 0.247059 
vt 0.121569 0.066667 
vt 0.239216 0.494118 
vt 0.003922 0.494118 
vt 0.035294 0.247059 
vt 0.239216 0.494118 
f 1/1/1 2/2/2 3/3/3
f 4/4/4 5/5/5 6/6/6
f 7/7/7 8/8/8 9/9/9
f 10/10/10 11/11/11 12/12/12
f 13/13/13 14/14/14 15/15/15
f 16/16/16 17/17/17 18/18/18
f 19/19/19 20/20/20 21/21/21
f 22/22/22 23/23/23 24/24/24
f 25/25/25 26/26/26 27/27/27
f 28/28/28 29/29/29 30/30/30
f 31/31/31 32/32/32 33/33/33
f 34/34/34 35/35/35 36/36/36
f 37/37/37 38/38/38 39/39/39
f 40/40/40 41/41/41 42/42/42
f 43/43/43 44/44/44 45/45/45
f 46/46/46 47/47/47 48/48/48
f 49/49/49 50/50/50 51/51/51
f 52/52/52 53/53/53 54/54/54
f 55/55/55 56/56/56 57/57/57
f 58/58/58 59/59/59 60/60/60
f 61/61/61 62/62/62 63/63/63
f 64/64/64 65/65/65 66/66/66
f 67/67/67 68/68/68 69/69/69
f 70/70/70 71/71/71 72/72/72
f 73/73/73 74/74/74 75/75/75
f 76/76/76 77/77/77 78/78/78
f 79/79/79 80/80/80 81/81/81
f 82/82/82 83/83/83 84/84/84
f 85/85/85 86/86/86 87/87/87
f 88/88/88 89/89/89 90/90/90
f 91/91/91 92/92/92 93/93/93
f 94/94/94 95/95/95 96/96/96
f 97/97/97 98/98/98 99/99/99
f 100/100/100 101/101/101 102/102/102
f 103/103/103 104/104/104 105/105/105
f 106/106/106 107/107/107 108/108/108
f 109/109/109 110/110/110 111/111/111
f 112/112/112 113/113/113 114/114/114
f 115/115/115 116/116/116 117/117/117
f 118/118/118 119/119/119 120/120/120
f 121/121/121 122/122/122 123/123/123
f 124/124/124 125/125/125 126/126/126
f 127/127/127 128/128/128 129/129/129
f 130/130/130 131/131/131 132/132/132
f 133/133/133 134/134/134 135/135/135
f 136/136/136 137/137/137 138/138/138
f 139/139/139 140/140/140 141/141/141
f 142/142/142 143/143/143 144/144/144
f 145/145/145 146/146/146 147/147/147
f 148/148/148 149/149/149 150/150/150
f 151/151/151 152/152/152 153/153/153
f 154/154/154 155/155/155 156/156/156
f 157/157/157 158/158/158 159/159/159
f 160/160/160 161/161/161 162/162/162
f 163/163/163 164/164/164 165/165/165
f 166/166/166 167/167/167 168/168/168
f 169/169/169 170/170/170 171/171/171
f 172/172/172 173/173/173 174/174/174
f 175/175/175 176/176/176 177/177/177
f 178/178/178 179/179/179 180/180/180
f 181/181/181 182/182/182 183/183/183
f 184/184/184 185/185/185 186/186/186
f 187/187/187 188/188/188 189/189/189
f 190/190/190 191/191/191 192/192/192
f 193/193/193 194/194/194 195/195/195
f 196/196/196 197/197/197 198/198/198
f 199/199/199 200/200/200 201/201/201
f 202/202/202 203/203/203 204/204/204
