v 62.000000 0.000000 2.000000 
v 60.000000 -24.000000 3.000000 
v 58.000000 -24.000000 -11.000000 
v 59.000000 0.000000 -10.000000 
v 62.000000 0.000000 2.000000 
v 58.000000 -24.000000 -11.000000 
v 49.000000 0.000000 19.000000 
v 60.000000 -24.000000 3.000000 
v 62.000000 0.000000 2.000000 
v 60.000000 24.000000 3.000000 
v 62.000000 0.000000 2.000000 
v 58.000000 24.000000 -11.000000 
v 62.000000 0.000000 2.000000 
v 59.000000 0.000000 -10.000000 
v 58.000000 24.000000 -11.000000 
v 60.000000 24.000000 3.000000 
v 49.000000 0.000000 19.000000 
v 62.000000 0.000000 2.000000 
v 60.000000 -24.000000 3.000000 
v 49.000000 0.000000 19.000000 
v 47.000000 -22.000000 22.000000 
v 47.000000 -22.000000 22.000000 
v 49.000000 0.000000 19.000000 
v 42.000000 -13.000000 25.000000 
v 49.000000 0.000000 19.000000 
v 60.000000 24.000000 3.000000 
v 47.000000 22.000000 22.000000 
v 49.000000 0.000000 19.000000 
v 47.000000 22.000000 22.000000 
v 42.000000 13.000000 25.000000 
v 60.000000 -24.000000 3.000000 
v 47.000000 -22.000000 22.000000 
v 42.000000 -39.000000 12.000000 
v 47.000000 22.000000 22.000000 
v 60.000000 24.000000 3.000000 
v 42.000000 39.000000 12.000000 
vn 0.996582 -0.001465 0.080078 
vn 0.871582 -0.399902 0.282959 
vn 0.848389 -0.430908 -0.306396 
vn 0.901611 -0.001221 -0.431885 
vn 0.996582 -0.001465 0.080078 
vn 0.848389 -0.430908 -0.306396 
vn 0.774658 -0.000732 0.632324 
vn 0.871582 -0.399902 0.282959 
vn 0.996582 -0.001465 0.080078 
vn 0.871582 0.397949 0.285645 
vn 0.996582 -0.001465 0.080078 
vn 0.850098 0.429688 -0.303711 
vn 0.996582 -0.001465 0.080078 
vn 0.901611 -0.001221 -0.431885 
vn 0.850098 0.429688 -0.303711 
vn 0.871582 0.397949 0.285645 
vn 0.774658 -0.000732 0.632324 
vn 0.996582 -0.001465 0.080078 
vn 0.871582 -0.399902 0.282959 
vn 0.774658 -0.000732 0.632324 
vn 0.964844 -0.074951 0.251465 
vn 0.964844 -0.074951 0.251465 
vn 0.774658 -0.000732 0.632324 
vn 0.885986 0.280518 0.368896 
vn 0.774658 -0.000732 0.632324 
vn 0.871582 0.397949 0.285645 
vn 0.964600 0.073730 0.252441 
vn 0.774658 -0.000732 0.632324 
vn 0.964600 0.073730 0.252441 
vn 0.885254 -0.281494 0.369629 
vn 0.871582 -0.399902 0.282959 
vn 0.964844 -0.074951 0.251465 
vn 0.691895 -0.708984 0.134521 
vn 0.964600 0.073730 0.252441 
vn 0.871582 0.397949 0.285645 
vn 0.692871 0.707764 0.136475 
vt 0.476190 0.047619 
vt 0.682540 0.079365 
vt 0.650794 0.269841 
vt 0.460317 0.222222 
vt 0.476190 0.047619 
vt 0.650794 0.269841 
vt 0.507937 0.317460 
vt 0.619048 0.476190 
vt 0.428571 0.444444 
vt 0.682540 0.079365 
vt 0.476190 0.047619 
vt 0.650794 0.269841 
vt 0.476190 0.047619 
vt 0.460317 0.222222 
vt 0.650794 0.269841 
vt 0.619048 0.476190 
vt 0.507937 0.317460 
vt 0.428571 0.444444 
vt 0.619048 0.476190 
vt 0.507937 0.317460 
vt 0.666667 0.317460 
vt 0.666667 0.317460 
vt 0.507937 0.317460 
vt 0.619048 0.206349 
vt 0.507937 0.317460 
vt 0.619048 0.476190 
vt 0.666667 0.317460 
vt 0.507937 0.317460 
vt 0.666667 0.317460 
vt 0.619048 0.206349 
vt 0.619048 0.476190 
vt 0.666667 0.317460 
vt 0.777778 0.412698 
vt 0.666667 0.317460 
vt 0.619048 0.476190 
vt 0.777778 0.412698 
f 1/1/1 2/2/2 3/3/3
f 4/4/4 5/5/5 6/6/6
f 7/7/7 8/8/8 9/9/9
f 10/10/10 11/11/11 12/12/12
f 13/13/13 14/14/14 15/15/15
f 16/16/16 17/17/17 18/18/18
f 19/19/19 20/20/20 21/21/21
f 22/22/22 23/23/23 24/24/24
f 25/25/25 26/26/26 27/27/27
f 28/28/28 29/29/29 30/30/30
f 31/31/31 32/32/32 33/33/33
f 34/34/34 35/35/35 36/36/36
