v 30.000000 -4.000000 -23.000000 
v 29.000000 9.000000 -25.000000 
v 46.000000 7.000000 -17.000000 
v 29.000000 9.000000 -25.000000 
v 33.000000 14.000000 -16.000000 
v 46.000000 7.000000 -17.000000 
v 25.000000 -21.000000 -9.000000 
v 30.000000 -4.000000 -23.000000 
v 46.000000 -7.000000 -17.000000 
v 46.000000 7.000000 -17.000000 
v 46.000000 -7.000000 -17.000000 
v 30.000000 -4.000000 -23.000000 
v 32.000000 -20.000000 2.000000 
v 25.000000 -21.000000 -9.000000 
v 46.000000 -7.000000 -17.000000 
v 46.000000 7.000000 -17.000000 
v 48.000000 15.000000 -2.000000 
v 56.000000 15.000000 -1.000000 
v 57.000000 4.000000 15.000000 
v 56.000000 15.000000 -1.000000 
v 48.000000 15.000000 -2.000000 
v 48.000000 15.000000 -2.000000 
v 50.000000 4.000000 15.000000 
v 57.000000 4.000000 15.000000 
v 33.000000 14.000000 -16.000000 
v 48.000000 15.000000 -2.000000 
v 46.000000 7.000000 -17.000000 
v 56.000000 15.000000 -1.000000 
v 54.000000 7.000000 -13.000000 
v 46.000000 7.000000 -17.000000 
v 55.000000 -7.000000 -13.000000 
v 46.000000 7.000000 -17.000000 
v 54.000000 7.000000 -13.000000 
v 46.000000 7.000000 -17.000000 
v 55.000000 -7.000000 -13.000000 
v 46.000000 -7.000000 -17.000000 
v 48.000000 -14.000000 -2.000000 
v 32.000000 -20.000000 2.000000 
v 46.000000 -7.000000 -17.000000 
v 46.000000 -7.000000 -17.000000 
v 56.000000 -15.000000 -1.000000 
v 48.000000 -14.000000 -2.000000 
v 56.000000 -15.000000 -1.000000 
v 46.000000 -7.000000 -17.000000 
v 55.000000 -7.000000 -13.000000 
v 48.000000 -14.000000 -2.000000 
v 57.000000 -4.000000 15.000000 
v 50.000000 -4.000000 15.000000 
v 57.000000 -4.000000 15.000000 
v 48.000000 -14.000000 -2.000000 
v 56.000000 -15.000000 -1.000000 
v 50.000000 -4.000000 15.000000 
v 31.000000 -9.000000 23.000000 
v 48.000000 -14.000000 -2.000000 
v 31.000000 -9.000000 23.000000 
v 32.000000 -20.000000 2.000000 
v 48.000000 -14.000000 -2.000000 
v 50.000000 -4.000000 15.000000 
v 57.000000 4.000000 15.000000 
v 50.000000 4.000000 15.000000 
v 57.000000 4.000000 15.000000 
v 50.000000 -4.000000 15.000000 
v 57.000000 -4.000000 15.000000 
vn 0.921143 -0.351562 -0.165771 
vn 0.958496 0.280518 0.048584 
vn 0.837646 0.451416 -0.306885 
vn 0.958496 0.280518 0.048584 
vn 0.814453 0.580078 0.000000 
vn 0.837646 0.451416 -0.306885 
vn 0.507812 -0.860352 -0.037842 
vn 0.921143 -0.351562 -0.165771 
vn 0.689941 -0.666748 -0.281006 
vn 0.837646 0.451416 -0.306885 
vn 0.689941 -0.666748 -0.281006 
vn 0.921143 -0.351562 -0.165771 
vn 0.216309 -0.934082 0.283691 
vn 0.507812 -0.860352 -0.037842 
vn 0.689941 -0.666748 -0.281006 
vn 0.837646 0.451416 -0.306885 
vn 0.290527 0.878418 0.378906 
vn 0.013672 0.999023 0.035645 
vn -0.630371 0.485596 0.605225 
vn 0.013672 0.999023 0.035645 
vn 0.290527 0.878418 0.378906 
vn 0.290527 0.878418 0.378906 
vn -0.366211 0.470215 0.802734 
vn -0.630371 0.485596 0.605225 
vn 0.814453 0.580078 0.000000 
vn 0.290527 0.878418 0.378906 
vn 0.837646 0.451416 -0.306885 
vn 0.013672 0.999023 0.035645 
vn 0.576660 0.501465 -0.644775 
vn 0.837646 0.451416 -0.306885 
vn 0.676025 -0.506104 -0.535400 
vn 0.837646 0.451416 -0.306885 
vn 0.576660 0.501465 -0.644775 
vn 0.837646 0.451416 -0.306885 
vn 0.676025 -0.506104 -0.535400 
vn 0.689941 -0.666748 -0.281006 
vn -0.031006 -0.971924 0.232666 
vn 0.216309 -0.934082 0.283691 
vn 0.689941 -0.666748 -0.281006 
vn 0.689941 -0.666748 -0.281006 
vn 0.020508 -0.999512 0.021240 
vn -0.031006 -0.971924 0.232666 
vn 0.020508 -0.999512 0.021240 
vn 0.689941 -0.666748 -0.281006 
vn 0.676025 -0.506104 -0.535400 
vn -0.031006 -0.971924 0.232666 
vn -0.603271 -0.499756 0.621094 
vn -0.494873 -0.369873 0.786133 
vn -0.603271 -0.499756 0.621094 
vn -0.031006 -0.971924 0.232666 
vn 0.020508 -0.999512 0.021240 
vn -0.494873 -0.369873 0.786133 
vn -0.131592 -0.665527 0.734619 
vn -0.031006 -0.971924 0.232666 
vn -0.131592 -0.665527 0.734619 
vn 0.216309 -0.934082 0.283691 
vn -0.031006 -0.971924 0.232666 
vn -0.494873 -0.369873 0.786133 
vn -0.630371 0.485596 0.605225 
vn -0.366211 0.470215 0.802734 
vn -0.630371 0.485596 0.605225 
vn -0.494873 -0.369873 0.786133 
vn -0.603271 -0.499756 0.621094 
vt 0.809524 0.365079 
vt 0.888889 0.349206 
vt 0.841270 0.158730 
vt 0.730159 0.126984 
vt 0.587302 0.285714 
vt 0.777778 0.428571 
vt 0.714286 0.380952 
vt 0.809524 0.365079 
vt 0.777778 0.174603 
vt 0.841270 0.158730 
vt 0.777778 0.174603 
vt 0.809524 0.365079 
vt 0.587302 0.333333 
vt 0.714286 0.380952 
vt 0.777778 0.174603 
vt 0.777778 0.428571 
vt 0.857143 0.412698 
vt 0.857143 0.365079 
vt 0.619048 0.428571 
vt 0.444444 0.396825 
vt 0.444444 0.460317 
vt 0.444444 0.460317 
vt 0.619048 0.507937 
vt 0.619048 0.428571 
vt 0.587302 0.285714 
vt 0.857143 0.412698 
vt 0.777778 0.428571 
vt 0.857143 0.365079 
vt 0.777778 0.380952 
vt 0.777778 0.428571 
vt 0.619048 0.380952 
vt 0.777778 0.428571 
vt 0.777778 0.380952 
vt 0.777778 0.428571 
vt 0.619048 0.380952 
vt 0.619048 0.428571 
vt 0.666667 0.158730 
vt 0.587302 0.333333 
vt 0.777778 0.174603 
vt 0.619048 0.428571 
vt 0.539683 0.365079 
vt 0.539683 0.412698 
vt 0.539683 0.365079 
vt 0.619048 0.428571 
vt 0.619048 0.380952 
vt 0.888889 0.460317 
vt 0.746032 0.428571 
vt 0.746032 0.507937 
vt 0.746032 0.428571 
vt 0.888889 0.460317 
vt 0.904762 0.396825 
vt 0.746032 0.126984 
vt 0.777778 0.285714 
vt 0.857143 0.079365 
vt 0.777778 0.285714 
vt 0.888889 0.301587 
vt 0.857143 0.079365 
vt 0.746032 0.507937 
vt 0.619048 0.428571 
vt 0.619048 0.507937 
vt 0.619048 0.428571 
vt 0.746032 0.507937 
vt 0.746032 0.428571 
f 1/1/1 2/2/2 3/3/3
f 4/4/4 5/5/5 6/6/6
f 7/7/7 8/8/8 9/9/9
f 10/10/10 11/11/11 12/12/12
f 13/13/13 14/14/14 15/15/15
f 16/16/16 17/17/17 18/18/18
f 19/19/19 20/20/20 21/21/21
f 22/22/22 23/23/23 24/24/24
f 25/25/25 26/26/26 27/27/27
f 28/28/28 29/29/29 30/30/30
f 31/31/31 32/32/32 33/33/33
f 34/34/34 35/35/35 36/36/36
f 37/37/37 38/38/38 39/39/39
f 40/40/40 41/41/41 42/42/42
f 43/43/43 44/44/44 45/45/45
f 46/46/46 47/47/47 48/48/48
f 49/49/49 50/50/50 51/51/51
f 52/52/52 53/53/53 54/54/54
f 55/55/55 56/56/56 57/57/57
f 58/58/58 59/59/59 60/60/60
f 61/61/61 62/62/62 63/63/63
