v 166.000000 309.000000 357.000000 
v -159.000000 309.000000 355.000000 
v -159.000000 309.000000 357.000000 
v -159.000000 309.000000 355.000000 
v 166.000000 309.000000 357.000000 
v 166.000000 309.000000 355.000000 
vn 0.000000 1.000000 0.000000 
vn 0.000000 1.000000 0.000000 
vn 0.000000 1.000000 0.000000 
vn 0.000000 1.000000 0.000000 
vn 0.000000 1.000000 0.000000 
vn 0.000000 1.000000 0.000000 
vt 1.000000 0.612903 
vt 0.774194 0.580645 
vt 0.774194 0.612903 
vt 0.774194 0.580645 
vt 1.000000 0.612903 
vt 1.000000 0.580645 
f 1/1/1 2/2/2 3/3/3
f 4/4/4 5/5/5 6/6/6
