v 2.000000 0.000000 0.000000 
v 0.000000 -10.000000 0.000000 
v 0.000000 0.000000 -10.000000 
v 2.000000 0.000000 0.000000 
v 0.000000 0.000000 10.000000 
v 0.000000 -10.000000 0.000000 
v 0.000000 10.000000 0.000000 
v -53.000000 0.000000 -16.000000 
v -54.000000 15.000000 0.000000 
v 0.000000 0.000000 -10.000000 
v -53.000000 -16.000000 0.000000 
v -53.000000 0.000000 -16.000000 
v 0.000000 0.000000 -10.000000 
v 0.000000 -10.000000 0.000000 
v -53.000000 -16.000000 0.000000 
v 0.000000 0.000000 10.000000 
v -54.000000 0.000000 15.000000 
v -53.000000 -16.000000 0.000000 
v 0.000000 -10.000000 0.000000 
v 0.000000 0.000000 10.000000 
v -53.000000 -16.000000 0.000000 
v 0.000000 10.000000 0.000000 
v -54.000000 15.000000 0.000000 
v -54.000000 0.000000 15.000000 
v 0.000000 0.000000 10.000000 
v 0.000000 10.000000 0.000000 
v -54.000000 0.000000 15.000000 
v -51.000000 0.000000 0.000000 
v -54.000000 15.000000 0.000000 
v -53.000000 0.000000 -16.000000 
v -51.000000 0.000000 0.000000 
v -53.000000 0.000000 -16.000000 
v -53.000000 -16.000000 0.000000 
v -51.000000 0.000000 0.000000 
v -53.000000 -16.000000 0.000000 
v -54.000000 0.000000 15.000000 
v -51.000000 0.000000 0.000000 
v -54.000000 0.000000 15.000000 
v -54.000000 15.000000 0.000000 
v 2.000000 0.000000 0.000000 
v 0.000000 0.000000 -10.000000 
v 0.000000 10.000000 0.000000 
v 2.000000 0.000000 0.000000 
v 0.000000 10.000000 0.000000 
v 0.000000 0.000000 10.000000 
v 0.000000 10.000000 0.000000 
v 0.000000 0.000000 -10.000000 
v -53.000000 0.000000 -16.000000 
vn 0.999756 0.005859 0.007324 
vn 0.966797 -0.254639 0.007812 
vn 0.967285 0.004395 -0.252686 
vn 0.999756 0.005859 0.007324 
vn 0.963379 0.007080 0.267090 
vn 0.966797 -0.254639 0.007812 
vn 0.065674 0.997803 -0.003418 
vn 0.072754 0.315674 -0.945801 
vn 0.067383 0.997559 -0.000244 
vn 0.075439 -0.315430 -0.945801 
vn 0.074219 -0.997070 0.001465 
vn 0.072754 0.315674 -0.945801 
vn 0.075439 -0.315430 -0.945801 
vn 0.074219 -0.997070 0.001465 
vn 0.074219 -0.997070 0.001465 
vn 0.059814 -0.311279 0.948242 
vn 0.057861 0.322266 0.944824 
vn 0.074219 -0.997070 0.001465 
vn 0.074219 -0.997070 0.001465 
vn 0.059814 -0.311279 0.948242 
vn 0.074219 -0.997070 0.001465 
vn 0.065674 0.997803 -0.003418 
vn 0.067383 0.997559 -0.000244 
vn 0.057861 0.322266 0.944824 
vn 0.059814 -0.311279 0.948242 
vn 0.065674 0.997803 -0.003418 
vn 0.057861 0.322266 0.944824 
vn -0.999756 -0.004883 -0.007812 
vn -0.975830 -0.217773 -0.007568 
vn -0.978516 -0.004639 0.205078 
vn -0.999756 -0.004883 -0.007812 
vn -0.978516 -0.004639 0.205078 
vn -0.978027 0.208008 -0.007812 
vn -0.999756 -0.004883 -0.007812 
vn -0.978027 0.208008 -0.007812 
vn -0.975098 -0.004883 -0.220703 
vn -0.999756 -0.004883 -0.007812 
vn -0.975098 -0.004883 -0.220703 
vn -0.975830 -0.217773 -0.007568 
vn 0.999756 0.005859 0.007324 
vn 0.967285 0.004395 -0.252686 
vn 0.963623 0.266357 0.006104 
vn 0.999756 0.005859 0.007324 
vn 0.963623 0.266357 0.006104 
vn 0.963379 0.007080 0.267090 
vn 0.065674 0.997803 -0.003418 
vn 0.075439 -0.315430 -0.945801 
vn 0.072754 0.315674 -0.945801 
vt 0.746032 0.634921 
vt 0.984127 0.428571 
vt 0.761905 0.428571 
vt 0.746032 0.634921 
vt 0.984127 0.428571 
vt 0.746032 0.428571 
vt 0.746032 0.634921 
vt 0.984127 0.428571 
vt 0.746032 0.428571 
vt 0.746032 0.634921 
vt 0.984127 0.428571 
vt 0.746032 0.428571 
vt 0.761905 0.634921 
vt 0.984127 0.634921 
vt 0.984127 0.428571 
vt 0.984127 0.634921 
vt 0.984127 0.428571 
vt 0.746032 0.428571 
vt 0.746032 0.634921 
vt 0.984127 0.634921 
vt 0.746032 0.428571 
vt 0.984127 0.634921 
vt 0.984127 0.428571 
vt 0.746032 0.428571 
vt 0.746032 0.634921 
vt 0.984127 0.634921 
vt 0.746032 0.428571 
vt 0.634921 0.952381 
vt 0.650794 0.904762 
vt 0.603175 0.904762 
vt 0.952381 0.952381 
vt 0.968254 0.904762 
vt 0.936508 0.920635 
vt 0.634921 0.936508 
vt 0.619048 0.920635 
vt 0.650794 0.920635 
vt 0.634921 0.952381 
vt 0.619048 0.904762 
vt 0.650794 0.904762 
vt 0.746032 0.634921 
vt 0.984127 0.428571 
vt 0.746032 0.444444 
vt 0.746032 0.634921 
vt 0.968254 0.444444 
vt 0.746032 0.428571 
vt 0.761905 0.634921 
vt 0.984127 0.634921 
vt 0.984127 0.428571 
f 1/1/1 2/2/2 3/3/3
f 4/4/4 5/5/5 6/6/6
f 7/7/7 8/8/8 9/9/9
f 10/10/10 11/11/11 12/12/12
f 13/13/13 14/14/14 15/15/15
f 16/16/16 17/17/17 18/18/18
f 19/19/19 20/20/20 21/21/21
f 22/22/22 23/23/23 24/24/24
f 25/25/25 26/26/26 27/27/27
f 28/28/28 29/29/29 30/30/30
f 31/31/31 32/32/32 33/33/33
f 34/34/34 35/35/35 36/36/36
f 37/37/37 38/38/38 39/39/39
f 40/40/40 41/41/41 42/42/42
f 43/43/43 44/44/44 45/45/45
f 46/46/46 47/47/47 48/48/48
