v -12.000000 -16.000000 19.000000 
v -12.000000 -31.000000 10.000000 
v -6.000000 0.000000 4.000000 
v -13.000000 0.000000 22.000000 
v -12.000000 -16.000000 19.000000 
v -6.000000 0.000000 4.000000 
v -12.000000 15.000000 19.000000 
v -13.000000 0.000000 22.000000 
v -6.000000 0.000000 4.000000 
v -12.000000 30.000000 10.000000 
v -12.000000 15.000000 19.000000 
v -6.000000 0.000000 4.000000 
vn 0.629883 -0.224121 0.743408 
vn 0.689209 -0.585938 0.425781 
vn 0.998779 0.000000 0.044678 
vn 0.605469 0.039062 0.794678 
vn 0.629883 -0.224121 0.743408 
vn 0.998779 0.000000 0.044678 
vn 0.595459 0.359131 0.718262 
vn 0.605469 0.039062 0.794678 
vn 0.998779 0.000000 0.044678 
vn 0.698486 0.675293 0.235596 
vn 0.595459 0.359131 0.718262 
vn 0.998779 0.000000 0.044678 
vt 0.396825 0.888889 
vt 0.269841 0.920635 
vt 0.492063 0.952381 
vt 0.492063 0.857143 
vt 0.396825 0.888889 
vt 0.492063 0.952381 
vt 0.587302 0.888889 
vt 0.492063 0.857143 
vt 0.492063 0.952381 
vt 0.714286 0.936508 
vt 0.587302 0.888889 
vt 0.492063 0.952381 
f 1/1/1 2/2/2 3/3/3
f 4/4/4 5/5/5 6/6/6
f 7/7/7 8/8/8 9/9/9
f 10/10/10 11/11/11 12/12/12
