v 17.000000 5.000000 -14.000000 
v 0.000000 8.000000 -21.000000 
v 0.000000 3.000000 0.000000 
v 26.000000 0.000000 0.000000 
v 17.000000 5.000000 -14.000000 
v 0.000000 3.000000 0.000000 
v 27.000000 0.000000 -19.000000 
v 13.000000 4.000000 -28.000000 
v 0.000000 8.000000 -21.000000 
v 17.000000 5.000000 -14.000000 
v 27.000000 0.000000 -19.000000 
v 0.000000 8.000000 -21.000000 
v 27.000000 -2.000000 0.000000 
v 27.000000 0.000000 -19.000000 
v 17.000000 5.000000 -14.000000 
v 26.000000 0.000000 0.000000 
v 27.000000 -2.000000 0.000000 
v 17.000000 5.000000 -14.000000 
v 9.000000 -7.000000 -26.000000 
v 0.000000 -4.000000 -27.000000 
v 0.000000 6.000000 -29.000000 
v 27.000000 0.000000 -19.000000 
v 19.000000 -6.000000 -25.000000 
v 13.000000 4.000000 -28.000000 
v 20.000000 -4.000000 0.000000 
v 19.000000 -6.000000 -25.000000 
v 27.000000 0.000000 -19.000000 
v 27.000000 -2.000000 0.000000 
v 20.000000 -4.000000 0.000000 
v 27.000000 0.000000 -19.000000 
v 9.000000 -7.000000 -26.000000 
v 19.000000 -6.000000 -25.000000 
v 0.000000 -5.000000 0.000000 
v 19.000000 -6.000000 -25.000000 
v 20.000000 -4.000000 0.000000 
v 0.000000 -5.000000 0.000000 
v 13.000000 4.000000 -28.000000 
v 19.000000 -6.000000 -25.000000 
v 9.000000 -7.000000 -26.000000 
v 13.000000 4.000000 -28.000000 
v 0.000000 6.000000 -29.000000 
v 0.000000 8.000000 -21.000000 
v 13.000000 4.000000 -28.000000 
v 9.000000 -7.000000 -26.000000 
v 0.000000 6.000000 -29.000000 
v 0.000000 -4.000000 -27.000000 
v 9.000000 -7.000000 -26.000000 
v 0.000000 -5.000000 0.000000 
v 0.000000 8.000000 -21.000000 
v -17.000000 5.000000 -14.000000 
v 0.000000 3.000000 0.000000 
v -17.000000 5.000000 -14.000000 
v -26.000000 0.000000 0.000000 
v 0.000000 3.000000 0.000000 
v -13.000000 4.000000 -28.000000 
v -27.000000 0.000000 -19.000000 
v 0.000000 8.000000 -21.000000 
v -27.000000 0.000000 -19.000000 
v -17.000000 5.000000 -14.000000 
v 0.000000 8.000000 -21.000000 
v -27.000000 0.000000 -19.000000 
v -27.000000 -2.000000 0.000000 
v -17.000000 5.000000 -14.000000 
v -27.000000 -2.000000 0.000000 
v -26.000000 0.000000 0.000000 
v -17.000000 5.000000 -14.000000 
v 0.000000 -4.000000 -27.000000 
v -9.000000 -7.000000 -26.000000 
v 0.000000 6.000000 -29.000000 
v -19.000000 -4.000000 -25.000000 
v -27.000000 0.000000 -19.000000 
v -13.000000 4.000000 -28.000000 
v -19.000000 -4.000000 -25.000000 
v -20.000000 -4.000000 0.000000 
v -27.000000 0.000000 -19.000000 
v -20.000000 -4.000000 0.000000 
v -27.000000 -2.000000 0.000000 
v -27.000000 0.000000 -19.000000 
v -19.000000 -4.000000 -25.000000 
v -9.000000 -7.000000 -26.000000 
v 0.000000 -5.000000 0.000000 
v -20.000000 -4.000000 0.000000 
v -19.000000 -4.000000 -25.000000 
v 0.000000 -5.000000 0.000000 
v -19.000000 -4.000000 -25.000000 
v -13.000000 4.000000 -28.000000 
v -9.000000 -7.000000 -26.000000 
v 0.000000 6.000000 -29.000000 
v -13.000000 4.000000 -28.000000 
v 0.000000 8.000000 -21.000000 
v -9.000000 -7.000000 -26.000000 
v -13.000000 4.000000 -28.000000 
v 0.000000 6.000000 -29.000000 
v -9.000000 -7.000000 -26.000000 
v 0.000000 -4.000000 -27.000000 
v 0.000000 -5.000000 0.000000 
vn 0.725342 0.686035 0.052734 
vn 0.000000 0.985840 -0.166748 
vn 0.000000 0.850586 0.525391 
vn 0.778564 0.594971 0.198975 
vn 0.725342 0.686035 0.052734 
vn 0.000000 0.850586 0.525391 
vn 0.949219 0.133789 -0.283936 
vn 0.514404 0.359375 -0.778320 
vn 0.000000 0.985840 -0.166748 
vn 0.725342 0.686035 0.052734 
vn 0.949219 0.133789 -0.283936 
vn 0.000000 0.985840 -0.166748 
vn 0.991455 -0.001953 -0.128662 
vn 0.949219 0.133789 -0.283936 
vn 0.725342 0.686035 0.052734 
vn 0.778564 0.594971 0.198975 
vn 0.991455 -0.001953 -0.128662 
vn 0.725342 0.686035 0.052734 
vn -0.002930 -0.575928 -0.817139 
vn 0.005859 -0.639404 -0.768555 
vn 0.000000 0.266602 -0.963623 
vn 0.949219 0.133789 -0.283936 
vn 0.634277 -0.677979 -0.371094 
vn 0.514404 0.359375 -0.778320 
vn 0.659912 -0.750977 0.002686 
vn 0.634277 -0.677979 -0.371094 
vn 0.949219 0.133789 -0.283936 
vn 0.991455 -0.001953 -0.128662 
vn 0.659912 -0.750977 0.002686 
vn 0.949219 0.133789 -0.283936 
vn -0.002930 -0.575928 -0.817139 
vn 0.634277 -0.677979 -0.371094 
vn -0.058350 -0.989990 0.127930 
vn 0.634277 -0.677979 -0.371094 
vn 0.659912 -0.750977 0.002686 
vn -0.058350 -0.989990 0.127930 
vn 0.514404 0.359375 -0.778320 
vn 0.634277 -0.677979 -0.371094 
vn -0.002930 -0.575928 -0.817139 
vn 0.514404 0.359375 -0.778320 
vn 0.000000 0.266602 -0.963623 
vn 0.000000 0.985840 -0.166748 
vn 0.514404 0.359375 -0.778320 
vn -0.002930 -0.575928 -0.817139 
vn 0.000000 0.266602 -0.963623 
vn 0.005859 -0.639404 -0.768555 
vn -0.002930 -0.575928 -0.817139 
vn -0.058350 -0.989990 0.127930 
vn 0.000000 0.985840 -0.166748 
vn -0.725342 0.686035 0.052734 
vn 0.000000 0.850586 0.525391 
vn -0.725342 0.686035 0.052734 
vn -0.778564 0.594971 0.198975 
vn 0.000000 0.850586 0.525391 
vn -0.523193 0.358154 -0.772949 
vn -0.947510 0.118896 -0.296143 
vn 0.000000 0.985840 -0.166748 
vn -0.947510 0.118896 -0.296143 
vn -0.725342 0.686035 0.052734 
vn 0.000000 0.985840 -0.166748 
vn -0.947510 0.118896 -0.296143 
vn -0.991455 -0.001953 -0.128662 
vn -0.725342 0.686035 0.052734 
vn -0.991455 -0.001953 -0.128662 
vn -0.778564 0.594971 0.198975 
vn -0.725342 0.686035 0.052734 
vn 0.005859 -0.639404 -0.768555 
vn -0.103760 -0.543213 -0.833008 
vn 0.000000 0.266602 -0.963623 
vn -0.687500 -0.615479 -0.384766 
vn -0.947510 0.118896 -0.296143 
vn -0.523193 0.358154 -0.772949 
vn -0.687500 -0.615479 -0.384766 
vn -0.635986 -0.768311 -0.070312 
vn -0.947510 0.118896 -0.296143 
vn -0.635986 -0.768311 -0.070312 
vn -0.991455 -0.001953 -0.128662 
vn -0.947510 0.118896 -0.296143 
vn -0.687500 -0.615479 -0.384766 
vn -0.103760 -0.543213 -0.833008 
vn -0.058350 -0.989990 0.127930 
vn -0.635986 -0.768311 -0.070312 
vn -0.687500 -0.615479 -0.384766 
vn -0.058350 -0.989990 0.127930 
vn -0.687500 -0.615479 -0.384766 
vn -0.523193 0.358154 -0.772949 
vn -0.103760 -0.543213 -0.833008 
vn 0.000000 0.266602 -0.963623 
vn -0.523193 0.358154 -0.772949 
vn 0.000000 0.985840 -0.166748 
vn -0.103760 -0.543213 -0.833008 
vn -0.523193 0.358154 -0.772949 
vn 0.000000 0.266602 -0.963623 
vn -0.103760 -0.543213 -0.833008 
vn 0.005859 -0.639404 -0.768555 
vn -0.058350 -0.989990 0.127930 
vt 0.666667 0.158730 
vt 0.634921 0.158730 
vt 0.634921 0.190476 
vt 0.682540 0.174603 
vt 0.666667 0.158730 
vt 0.634921 0.190476 
vt 0.761905 0.111111 
vt 0.619048 0.095238 
vt 0.492063 0.158730 
vt 0.666667 0.142857 
vt 0.761905 0.111111 
vt 0.492063 0.158730 
vt 0.761905 0.142857 
vt 0.761905 0.111111 
vt 0.666667 0.142857 
vt 0.761905 0.174603 
vt 0.761905 0.142857 
vt 0.666667 0.142857 
vt 0.587302 0.000000 
vt 0.507937 0.000000 
vt 0.507937 0.126984 
vt 0.761905 0.111111 
vt 0.682540 -0.015873 
vt 0.619048 0.111111 
vt 0.714286 0.000000 
vt 0.682540 -0.015873 
vt 0.761905 0.111111 
vt 0.777778 0.000000 
vt 0.714286 0.000000 
vt 0.761905 0.111111 
vt 0.603175 0.158730 
vt 0.666667 0.142857 
vt 0.492063 0.174603 
vt 0.666667 0.142857 
vt 0.634921 0.190476 
vt 0.492063 0.174603 
vt 0.619048 0.111111 
vt 0.682540 -0.015873 
vt 0.587302 0.000000 
vt 0.619048 0.095238 
vt 0.492063 0.095238 
vt 0.492063 0.158730 
vt 0.619048 0.111111 
vt 0.587302 0.000000 
vt 0.507937 0.126984 
vt 0.492063 0.158730 
vt 0.603175 0.158730 
vt 0.492063 0.174603 
vt 0.634921 0.158730 
vt 0.634921 0.158730 
vt 0.634921 0.190476 
vt 0.634921 0.158730 
vt 0.603175 0.174603 
vt 0.634921 0.190476 
vt 0.349206 0.095238 
vt 0.222222 0.095238 
vt 0.492063 0.158730 
vt 0.222222 0.095238 
vt 0.317460 0.158730 
vt 0.492063 0.158730 
vt 0.222222 0.095238 
vt 0.206349 0.142857 
vt 0.317460 0.158730 
vt 0.206349 0.142857 
vt 0.238095 0.174603 
vt 0.317460 0.158730 
vt 0.507937 0.000000 
vt 0.396825 0.000000 
vt 0.507937 0.126984 
vt 0.317460 0.000000 
vt 0.333333 0.111111 
vt 0.365079 0.111111 
vt 0.317460 0.000000 
vt 0.285714 -0.015873 
vt 0.333333 0.111111 
vt 0.285714 -0.015873 
vt 0.269841 0.095238 
vt 0.333333 0.111111 
vt 0.301587 0.158730 
vt 0.396825 0.158730 
vt 0.492063 0.174603 
vt 0.301587 0.174603 
vt 0.301587 0.158730 
vt 0.492063 0.174603 
vt 0.317460 0.000000 
vt 0.365079 0.111111 
vt 0.396825 0.000000 
vt 0.492063 0.095238 
vt 0.349206 0.095238 
vt 0.492063 0.158730 
vt 0.396825 0.000000 
vt 0.365079 0.111111 
vt 0.507937 0.126984 
vt 0.396825 0.158730 
vt 0.492063 0.158730 
vt 0.492063 0.174603 
f 1/1/1 2/2/2 3/3/3
f 4/4/4 5/5/5 6/6/6
f 7/7/7 8/8/8 9/9/9
f 10/10/10 11/11/11 12/12/12
f 13/13/13 14/14/14 15/15/15
f 16/16/16 17/17/17 18/18/18
f 19/19/19 20/20/20 21/21/21
f 22/22/22 23/23/23 24/24/24
f 25/25/25 26/26/26 27/27/27
f 28/28/28 29/29/29 30/30/30
f 31/31/31 32/32/32 33/33/33
f 34/34/34 35/35/35 36/36/36
f 37/37/37 38/38/38 39/39/39
f 40/40/40 41/41/41 42/42/42
f 43/43/43 44/44/44 45/45/45
f 46/46/46 47/47/47 48/48/48
f 49/49/49 50/50/50 51/51/51
f 52/52/52 53/53/53 54/54/54
f 55/55/55 56/56/56 57/57/57
f 58/58/58 59/59/59 60/60/60
f 61/61/61 62/62/62 63/63/63
f 64/64/64 65/65/65 66/66/66
f 67/67/67 68/68/68 69/69/69
f 70/70/70 71/71/71 72/72/72
f 73/73/73 74/74/74 75/75/75
f 76/76/76 77/77/77 78/78/78
f 79/79/79 80/80/80 81/81/81
f 82/82/82 83/83/83 84/84/84
f 85/85/85 86/86/86 87/87/87
f 88/88/88 89/89/89 90/90/90
f 91/91/91 92/92/92 93/93/93
f 94/94/94 95/95/95 96/96/96
