v 82.000000 -10.000000 41.000000 
v 46.000000 -31.000000 11.000000 
v 106.000000 -26.000000 42.000000 
v 105.000000 -7.000000 -4.000000 
v 106.000000 -26.000000 42.000000 
v 46.000000 -31.000000 11.000000 
v 82.000000 -10.000000 41.000000 
v 109.000000 16.000000 57.000000 
v 68.000000 28.000000 58.000000 
vn -0.214111 -0.522217 0.825195 
vn 0.015137 -0.869141 0.493896 
vn -0.177979 -0.974365 0.136963 
vn 0.291992 -0.955566 -0.037109 
vn -0.177979 -0.974365 0.136963 
vn 0.015137 -0.869141 0.493896 
vn -0.214111 -0.522217 0.825195 
vn -0.723389 0.091064 0.684326 
vn 0.189697 -0.064697 0.979492 
vt 0.721569 0.313725 
vt 0.701961 0.231373 
vt 0.756863 0.286274 
vt 0.768627 0.352941 
vt 0.756863 0.286274 
vt 0.701961 0.231373 
vt 0.721569 0.313725 
vt 0.737255 0.407843 
vt 0.686275 0.411765 
f 1/1/1 2/2/2 3/3/3
f 4/4/4 5/5/5 6/6/6
f 7/7/7 8/8/8 9/9/9
