v -24.000000 -4.000000 7.000000 
v -9.000000 -16.000000 0.000000 
v -9.000000 -4.000000 15.000000 
v -24.000000 -4.000000 -7.000000 
v -9.000000 -16.000000 0.000000 
v -24.000000 -4.000000 7.000000 
v -9.000000 -4.000000 -15.000000 
v -9.000000 -16.000000 0.000000 
v -24.000000 -4.000000 -7.000000 
v 5.000000 -4.000000 -7.000000 
v -9.000000 -16.000000 0.000000 
v -9.000000 -4.000000 -15.000000 
v 5.000000 -4.000000 7.000000 
v -9.000000 -16.000000 0.000000 
v 5.000000 -4.000000 -7.000000 
v -9.000000 -4.000000 15.000000 
v -9.000000 -16.000000 0.000000 
v 5.000000 -4.000000 7.000000 
v -14.000000 28.000000 8.000000 
v 1.000000 30.000000 16.000000 
v 4.000000 35.000000 0.000000 
v -14.000000 28.000000 -8.000000 
v -14.000000 28.000000 8.000000 
v 4.000000 35.000000 0.000000 
v 1.000000 30.000000 -16.000000 
v -14.000000 28.000000 -8.000000 
v 4.000000 35.000000 0.000000 
v 13.000000 28.000000 -8.000000 
v 1.000000 30.000000 -16.000000 
v 4.000000 35.000000 0.000000 
v 13.000000 28.000000 8.000000 
v 13.000000 28.000000 -8.000000 
v 4.000000 35.000000 0.000000 
v 1.000000 30.000000 16.000000 
v 13.000000 28.000000 8.000000 
v 4.000000 35.000000 0.000000 
v -24.000000 -4.000000 7.000000 
v -9.000000 -4.000000 15.000000 
v 1.000000 30.000000 16.000000 
v -14.000000 28.000000 8.000000 
v -24.000000 -4.000000 7.000000 
v 1.000000 30.000000 16.000000 
v -24.000000 -4.000000 -7.000000 
v -24.000000 -4.000000 7.000000 
v -14.000000 28.000000 8.000000 
v -14.000000 28.000000 -8.000000 
v -24.000000 -4.000000 -7.000000 
v -14.000000 28.000000 8.000000 
v -9.000000 -4.000000 -15.000000 
v -24.000000 -4.000000 -7.000000 
v -14.000000 28.000000 -8.000000 
v 1.000000 30.000000 -16.000000 
v -9.000000 -4.000000 -15.000000 
v -14.000000 28.000000 -8.000000 
v 5.000000 -4.000000 -7.000000 
v -9.000000 -4.000000 -15.000000 
v 1.000000 30.000000 -16.000000 
v 13.000000 28.000000 -8.000000 
v 5.000000 -4.000000 -7.000000 
v 1.000000 30.000000 -16.000000 
v 5.000000 -4.000000 7.000000 
v 5.000000 -4.000000 -7.000000 
v 13.000000 28.000000 -8.000000 
v 13.000000 28.000000 8.000000 
v 5.000000 -4.000000 7.000000 
v 13.000000 28.000000 -8.000000 
v -9.000000 -4.000000 15.000000 
v 5.000000 -4.000000 7.000000 
v 13.000000 28.000000 8.000000 
v 1.000000 30.000000 16.000000 
v -9.000000 -4.000000 15.000000 
v 13.000000 28.000000 8.000000 
vn -0.795166 -0.251465 0.551514 
vn 0.006592 -0.999756 0.000000 
vn 0.169189 -0.419922 0.891602 
vn -0.907715 -0.224854 -0.353516 
vn 0.006592 -0.999756 0.000000 
vn -0.795166 -0.251465 0.551514 
vn -0.141846 -0.362793 -0.920898 
vn 0.006592 -0.999756 0.000000 
vn -0.907715 -0.224854 -0.353516 
vn 0.760742 -0.430176 -0.485840 
vn 0.006592 -0.999756 0.000000 
vn -0.141846 -0.362793 -0.920898 
vn 0.842285 -0.432617 0.321289 
vn 0.006592 -0.999756 0.000000 
vn 0.760742 -0.430176 -0.485840 
vn 0.169189 -0.419922 0.891602 
vn 0.006592 -0.999756 0.000000 
vn 0.842285 -0.432617 0.321289 
vn -0.785889 0.568604 0.241943 
vn -0.089355 0.528320 0.843994 
vn 0.116943 0.992920 0.000000 
vn -0.699951 0.552246 -0.452637 
vn -0.785889 0.568604 0.241943 
vn 0.116943 0.992920 0.000000 
vn 0.245361 0.468750 -0.848389 
vn -0.699951 0.552246 -0.452637 
vn 0.116943 0.992920 0.000000 
vn 0.933594 0.261963 -0.243164 
vn 0.245361 0.468750 -0.848389 
vn 0.116943 0.992920 0.000000 
vn 0.847656 0.270752 0.455811 
vn 0.933594 0.261963 -0.243164 
vn 0.116943 0.992920 0.000000 
vn -0.089355 0.528320 0.843994 
vn 0.847656 0.270752 0.455811 
vn 0.116943 0.992920 0.000000 
vn -0.795166 -0.251465 0.551514 
vn 0.169189 -0.419922 0.891602 
vn -0.089355 0.528320 0.843994 
vn -0.785889 0.568604 0.241943 
vn -0.795166 -0.251465 0.551514 
vn -0.089355 0.528320 0.843994 
vn -0.907715 -0.224854 -0.353516 
vn -0.795166 -0.251465 0.551514 
vn -0.785889 0.568604 0.241943 
vn -0.699951 0.552246 -0.452637 
vn -0.907715 -0.224854 -0.353516 
vn -0.785889 0.568604 0.241943 
vn -0.141846 -0.362793 -0.920898 
vn -0.907715 -0.224854 -0.353516 
vn -0.699951 0.552246 -0.452637 
vn 0.245361 0.468750 -0.848389 
vn -0.141846 -0.362793 -0.920898 
vn -0.699951 0.552246 -0.452637 
vn 0.760742 -0.430176 -0.485840 
vn -0.141846 -0.362793 -0.920898 
vn 0.245361 0.468750 -0.848389 
vn 0.933594 0.261963 -0.243164 
vn 0.760742 -0.430176 -0.485840 
vn 0.245361 0.468750 -0.848389 
vn 0.842285 -0.432617 0.321289 
vn 0.760742 -0.430176 -0.485840 
vn 0.933594 0.261963 -0.243164 
vn 0.847656 0.270752 0.455811 
vn 0.842285 -0.432617 0.321289 
vn 0.933594 0.261963 -0.243164 
vn 0.169189 -0.419922 0.891602 
vn 0.842285 -0.432617 0.321289 
vn 0.847656 0.270752 0.455811 
vn -0.089355 0.528320 0.843994 
vn 0.169189 -0.419922 0.891602 
vn 0.847656 0.270752 0.455811 
vt 0.047619 0.290323 
vt 0.158730 0.032258 
vt 0.095238 0.290323 
vt 0.000000 0.258065 
vt 0.158730 0.032258 
vt 0.047619 0.290323 
vt 0.142857 0.290323 
vt 0.158730 0.032258 
vt 0.000000 0.258065 
vt 0.222222 0.258065 
vt 0.158730 0.032258 
vt 0.142857 0.290323 
vt 0.269841 0.258065 
vt 0.158730 0.032258 
vt 0.222222 0.258065 
vt 0.095238 0.290323 
vt 0.158730 0.032258 
vt 0.269841 0.258065 
vt 0.000000 0.903226 
vt 0.095238 0.838710 
vt 0.190476 0.967742 
vt 0.047619 0.838710 
vt 0.000000 0.903226 
vt 0.190476 0.967742 
vt 0.174603 0.806452 
vt 0.047619 0.838710 
vt 0.190476 0.967742 
vt 0.238095 0.774194 
vt 0.174603 0.806452 
vt 0.190476 0.967742 
vt 0.285714 0.774194 
vt 0.238095 0.774194 
vt 0.190476 0.967742 
vt 0.095238 0.838710 
vt 0.285714 0.774194 
vt 0.190476 0.967742 
vt 0.047619 0.290323 
vt 0.095238 0.290323 
vt 0.095238 0.838710 
vt 0.000000 0.903226 
vt 0.047619 0.290323 
vt 0.095238 0.838710 
vt 0.000000 0.258065 
vt 0.047619 0.290323 
vt 0.000000 0.903226 
vt 0.047619 0.838710 
vt 0.000000 0.258065 
vt 0.000000 0.903226 
vt 0.142857 0.290323 
vt 0.000000 0.258065 
vt 0.047619 0.838710 
vt 0.174603 0.806452 
vt 0.142857 0.290323 
vt 0.047619 0.838710 
vt 0.222222 0.258065 
vt 0.142857 0.290323 
vt 0.174603 0.806452 
vt 0.238095 0.774194 
vt 0.222222 0.258065 
vt 0.174603 0.806452 
vt 0.269841 0.258065 
vt 0.222222 0.258065 
vt 0.238095 0.774194 
vt 0.285714 0.774194 
vt 0.269841 0.258065 
vt 0.238095 0.774194 
vt 0.095238 0.290323 
vt 0.269841 0.258065 
vt 0.285714 0.774194 
vt 0.095238 0.838710 
vt 0.095238 0.290323 
vt 0.285714 0.774194 
f 1/1/1 2/2/2 3/3/3
f 4/4/4 5/5/5 6/6/6
f 7/7/7 8/8/8 9/9/9
f 10/10/10 11/11/11 12/12/12
f 13/13/13 14/14/14 15/15/15
f 16/16/16 17/17/17 18/18/18
f 19/19/19 20/20/20 21/21/21
f 22/22/22 23/23/23 24/24/24
f 25/25/25 26/26/26 27/27/27
f 28/28/28 29/29/29 30/30/30
f 31/31/31 32/32/32 33/33/33
f 34/34/34 35/35/35 36/36/36
f 37/37/37 38/38/38 39/39/39
f 40/40/40 41/41/41 42/42/42
f 43/43/43 44/44/44 45/45/45
f 46/46/46 47/47/47 48/48/48
f 49/49/49 50/50/50 51/51/51
f 52/52/52 53/53/53 54/54/54
f 55/55/55 56/56/56 57/57/57
f 58/58/58 59/59/59 60/60/60
f 61/61/61 62/62/62 63/63/63
f 64/64/64 65/65/65 66/66/66
f 67/67/67 68/68/68 69/69/69
f 70/70/70 71/71/71 72/72/72
