v -112.000000 68.000000 309.000000 
v -58.000000 0.000000 321.000000 
v -23.000000 0.000000 375.000000 
v -58.000000 0.000000 321.000000 
v -112.000000 -69.000000 309.000000 
v -23.000000 0.000000 375.000000 
vn -0.860107 -0.013428 0.509521 
vn -0.896484 0.000000 0.442871 
vn -0.510742 0.000000 0.859619 
vn -0.896484 0.000000 0.442871 
vn -0.860107 0.013428 0.509521 
vn -0.510742 0.000000 0.859619 
vt 0.956863 0.352941 
vt 0.952941 0.529412 
vt 0.815686 0.592157 
vt 0.952941 0.529412 
vt 0.956863 0.352941 
vt 0.815686 0.592157 
f 1/1/1 2/2/2 3/3/3
f 4/4/4 5/5/5 6/6/6
