v 0.000000 19.000000 12.000000 
v 13.000000 19.000000 19.000000 
v 5.000000 24.000000 0.000000 
v -7.000000 19.000000 -8.000000 
v 0.000000 19.000000 12.000000 
v 5.000000 24.000000 0.000000 
v 4.000000 19.000000 -20.000000 
v -7.000000 19.000000 -8.000000 
v 5.000000 24.000000 0.000000 
v 14.000000 14.000000 -14.000000 
v 4.000000 19.000000 -20.000000 
v 5.000000 24.000000 0.000000 
v 17.000000 14.000000 7.000000 
v 14.000000 14.000000 -14.000000 
v 5.000000 24.000000 0.000000 
v 13.000000 19.000000 19.000000 
v 17.000000 14.000000 7.000000 
v 5.000000 24.000000 0.000000 
v 0.000000 -19.000000 12.000000 
v 13.000000 -19.000000 19.000000 
v 13.000000 19.000000 19.000000 
v 0.000000 19.000000 12.000000 
v 0.000000 -19.000000 12.000000 
v 13.000000 19.000000 19.000000 
v -7.000000 -19.000000 -8.000000 
v 0.000000 -19.000000 12.000000 
v 0.000000 19.000000 12.000000 
v -7.000000 19.000000 -8.000000 
v -7.000000 -19.000000 -8.000000 
v 0.000000 19.000000 12.000000 
v 4.000000 -19.000000 -20.000000 
v -7.000000 -19.000000 -8.000000 
v -7.000000 19.000000 -8.000000 
v 4.000000 19.000000 -20.000000 
v 4.000000 -19.000000 -20.000000 
v -7.000000 19.000000 -8.000000 
v 14.000000 -15.000000 -14.000000 
v 4.000000 -19.000000 -20.000000 
v 4.000000 19.000000 -20.000000 
v 14.000000 14.000000 -14.000000 
v 14.000000 -15.000000 -14.000000 
v 4.000000 19.000000 -20.000000 
v 13.000000 -19.000000 19.000000 
v 17.000000 -15.000000 7.000000 
v 17.000000 14.000000 7.000000 
v 13.000000 19.000000 19.000000 
v 13.000000 -19.000000 19.000000 
v 17.000000 14.000000 7.000000 
v 13.000000 -19.000000 19.000000 
v 0.000000 -19.000000 12.000000 
v 5.000000 -24.000000 0.000000 
v 0.000000 -19.000000 12.000000 
v -7.000000 -19.000000 -8.000000 
v 5.000000 -24.000000 0.000000 
v -7.000000 -19.000000 -8.000000 
v 4.000000 -19.000000 -20.000000 
v 5.000000 -24.000000 0.000000 
v 4.000000 -19.000000 -20.000000 
v 14.000000 -15.000000 -14.000000 
v 5.000000 -24.000000 0.000000 
v 14.000000 -15.000000 -14.000000 
v 17.000000 -15.000000 7.000000 
v 5.000000 -24.000000 0.000000 
v 17.000000 -15.000000 7.000000 
v 13.000000 -19.000000 19.000000 
v 5.000000 -24.000000 0.000000 
vn -0.726074 0.462891 0.508057 
vn 0.219727 0.562012 0.797363 
vn 0.211914 0.976807 -0.029297 
vn -0.807373 0.497803 -0.316162 
vn -0.726074 0.462891 0.508057 
vn 0.211914 0.976807 -0.029297 
vn 0.182617 0.513672 -0.838135 
vn -0.807373 0.497803 -0.316162 
vn 0.211914 0.976807 -0.029297 
vn 0.661621 0.596191 -0.454102 
vn 0.182617 0.513672 -0.838135 
vn 0.211914 0.976807 -0.029297 
vn 0.904785 0.403809 0.133545 
vn 0.661621 0.596191 -0.454102 
vn 0.211914 0.976807 -0.029297 
vn 0.219727 0.562012 0.797363 
vn 0.904785 0.403809 0.133545 
vn 0.211914 0.976807 -0.029297 
vn -0.594238 -0.463867 0.656982 
vn 0.627930 -0.534912 0.564941 
vn 0.219727 0.562012 0.797363 
vn -0.726074 0.462891 0.508057 
vn -0.594238 -0.463867 0.656982 
vn 0.219727 0.562012 0.797363 
vn -0.868164 -0.494873 -0.035889 
vn -0.594238 -0.463867 0.656982 
vn -0.726074 0.462891 0.508057 
vn -0.807373 0.497803 -0.316162 
vn -0.868164 -0.494873 -0.035889 
vn -0.726074 0.462891 0.508057 
vn -0.186523 -0.536865 -0.822510 
vn -0.868164 -0.494873 -0.035889 
vn -0.807373 0.497803 -0.316162 
vn 0.182617 0.513672 -0.838135 
vn -0.186523 -0.536865 -0.822510 
vn -0.807373 0.497803 -0.316162 
vn 0.643555 -0.470703 -0.603027 
vn -0.186523 -0.536865 -0.822510 
vn 0.182617 0.513672 -0.838135 
vn 0.661621 0.596191 -0.454102 
vn 0.643555 -0.470703 -0.603027 
vn 0.182617 0.513672 -0.838135 
vn 0.627930 -0.534912 0.564941 
vn 0.830811 -0.552002 0.069336 
vn 0.904785 0.403809 0.133545 
vn 0.219727 0.562012 0.797363 
vn 0.627930 -0.534912 0.564941 
vn 0.904785 0.403809 0.133545 
vn 0.627930 -0.534912 0.564941 
vn -0.594238 -0.463867 0.656982 
vn 0.193115 -0.980713 -0.025635 
vn -0.594238 -0.463867 0.656982 
vn -0.868164 -0.494873 -0.035889 
vn 0.193115 -0.980713 -0.025635 
vn -0.868164 -0.494873 -0.035889 
vn -0.186523 -0.536865 -0.822510 
vn 0.193115 -0.980713 -0.025635 
vn -0.186523 -0.536865 -0.822510 
vn 0.643555 -0.470703 -0.603027 
vn 0.193115 -0.980713 -0.025635 
vn 0.643555 -0.470703 -0.603027 
vn 0.830811 -0.552002 0.069336 
vn 0.193115 -0.980713 -0.025635 
vn 0.830811 -0.552002 0.069336 
vn 0.627930 -0.534912 0.564941 
vn 0.193115 -0.980713 -0.025635 
vt 0.238095 0.412698 
vt 0.238095 0.603175 
vt 0.095238 0.507937 
vt 0.603175 0.396825 
vt 0.603175 0.603175 
vt 0.666667 0.507937 
vt 0.206349 0.412698 
vt 0.206349 0.587302 
vt 0.095238 0.507937 
vt 0.206349 0.587302 
vt 0.206349 0.412698 
vt 0.095238 0.507937 
vt 0.206349 0.412698 
vt 0.206349 0.587302 
vt 0.095238 0.507937 
vt 0.238095 0.603175 
vt 0.206349 0.412698 
vt 0.095238 0.507937 
vt 0.476190 0.412698 
vt 0.603175 0.603175 
vt 0.238095 0.603175 
vt 0.238095 0.412698 
vt 0.476190 0.412698 
vt 0.238095 0.603175 
vt 0.333333 0.396825 
vt 0.333333 0.603175 
vt 0.603175 0.603175 
vt 0.603175 0.396825 
vt 0.333333 0.396825 
vt 0.603175 0.603175 
vt 0.666667 0.412698 
vt 0.666667 0.587302 
vt 0.206349 0.587302 
vt 0.206349 0.412698 
vt 0.666667 0.412698 
vt 0.206349 0.587302 
vt 0.666667 0.587302 
vt 0.666667 0.412698 
vt 0.206349 0.412698 
vt 0.206349 0.587302 
vt 0.666667 0.587302 
vt 0.206349 0.412698 
vt 0.603175 0.603175 
vt 0.666667 0.412698 
vt 0.206349 0.412698 
vt 0.238095 0.603175 
vt 0.603175 0.603175 
vt 0.206349 0.412698 
vt 0.603175 0.603175 
vt 0.476190 0.412698 
vt 0.587302 0.507937 
vt 0.333333 0.603175 
vt 0.333333 0.396825 
vt 0.269841 0.507937 
vt 0.666667 0.587302 
vt 0.666667 0.412698 
vt 0.587302 0.507937 
vt 0.666667 0.412698 
vt 0.666667 0.587302 
vt 0.587302 0.507937 
vt 0.666667 0.587302 
vt 0.666667 0.412698 
vt 0.587302 0.507937 
vt 0.666667 0.412698 
vt 0.603175 0.603175 
vt 0.587302 0.507937 
f 1/1/1 2/2/2 3/3/3
f 4/4/4 5/5/5 6/6/6
f 7/7/7 8/8/8 9/9/9
f 10/10/10 11/11/11 12/12/12
f 13/13/13 14/14/14 15/15/15
f 16/16/16 17/17/17 18/18/18
f 19/19/19 20/20/20 21/21/21
f 22/22/22 23/23/23 24/24/24
f 25/25/25 26/26/26 27/27/27
f 28/28/28 29/29/29 30/30/30
f 31/31/31 32/32/32 33/33/33
f 34/34/34 35/35/35 36/36/36
f 37/37/37 38/38/38 39/39/39
f 40/40/40 41/41/41 42/42/42
f 43/43/43 44/44/44 45/45/45
f 46/46/46 47/47/47 48/48/48
f 49/49/49 50/50/50 51/51/51
f 52/52/52 53/53/53 54/54/54
f 55/55/55 56/56/56 57/57/57
f 58/58/58 59/59/59 60/60/60
f 61/61/61 62/62/62 63/63/63
f 64/64/64 65/65/65 66/66/66
