v -17.000000 -5.000000 -18.000000 
v -22.000000 5.000000 -19.000000 
v 0.000000 4.000000 -37.000000 
v 0.000000 -10.000000 -24.000000 
v -17.000000 -5.000000 -18.000000 
v 0.000000 4.000000 -37.000000 
v -17.000000 -9.000000 1.000000 
v -28.000000 5.000000 1.000000 
v -22.000000 5.000000 -19.000000 
v -22.000000 5.000000 -19.000000 
v -17.000000 -5.000000 -18.000000 
v -17.000000 -9.000000 1.000000 
v 0.000000 -18.000000 1.000000 
v -17.000000 -9.000000 1.000000 
v -17.000000 -5.000000 -18.000000 
v -17.000000 -5.000000 -18.000000 
v 0.000000 -10.000000 -24.000000 
v 0.000000 -18.000000 1.000000 
v 17.000000 -5.000000 -18.000000 
v 0.000000 -10.000000 -24.000000 
v 0.000000 4.000000 -37.000000 
v 18.000000 -9.000000 1.000000 
v 0.000000 -18.000000 1.000000 
v 0.000000 -10.000000 -24.000000 
v 0.000000 -10.000000 -24.000000 
v 17.000000 -5.000000 -18.000000 
v 18.000000 -9.000000 1.000000 
v 22.000000 4.000000 -19.000000 
v 17.000000 -5.000000 -18.000000 
v 0.000000 4.000000 -37.000000 
v 28.000000 5.000000 1.000000 
v 18.000000 -9.000000 1.000000 
v 17.000000 -5.000000 -18.000000 
v 17.000000 -5.000000 -18.000000 
v 22.000000 4.000000 -19.000000 
v 28.000000 5.000000 1.000000 
v 0.000000 4.000000 -37.000000 
v -22.000000 5.000000 -19.000000 
v -28.000000 5.000000 1.000000 
v 22.000000 4.000000 -19.000000 
v 0.000000 4.000000 -37.000000 
v -28.000000 5.000000 1.000000 
v 28.000000 5.000000 1.000000 
v 22.000000 4.000000 -19.000000 
v -28.000000 5.000000 1.000000 
vn -0.584229 -0.683594 -0.436768 
vn -0.800537 -0.462646 -0.380127 
vn -0.001221 -0.556641 -0.830566 
vn 0.090088 -0.875000 -0.475342 
vn -0.584229 -0.683594 -0.436768 
vn -0.001221 -0.556641 -0.830566 
vn -0.732178 -0.649658 -0.203857 
vn -0.797852 -0.554443 -0.235840 
vn -0.800537 -0.462646 -0.380127 
vn -0.800537 -0.462646 -0.380127 
vn -0.584229 -0.683594 -0.436768 
vn -0.732178 -0.649658 -0.203857 
vn -0.136719 -0.952881 -0.269775 
vn -0.732178 -0.649658 -0.203857 
vn -0.584229 -0.683594 -0.436768 
vn -0.584229 -0.683594 -0.436768 
vn 0.090088 -0.875000 -0.475342 
vn -0.136719 -0.952881 -0.269775 
vn 0.657471 -0.609863 -0.442139 
vn 0.090088 -0.875000 -0.475342 
vn -0.001221 -0.556641 -0.830566 
vn 0.547852 -0.806396 -0.222168 
vn -0.136719 -0.952881 -0.269775 
vn 0.090088 -0.875000 -0.475342 
vn 0.090088 -0.875000 -0.475342 
vn 0.657471 -0.609863 -0.442139 
vn 0.547852 -0.806396 -0.222168 
vn 0.766602 -0.389648 -0.510254 
vn 0.657471 -0.609863 -0.442139 
vn -0.001221 -0.556641 -0.830566 
vn 0.843750 -0.493652 -0.210205 
vn 0.547852 -0.806396 -0.222168 
vn 0.657471 -0.609863 -0.442139 
vn 0.657471 -0.609863 -0.442139 
vn 0.766602 -0.389648 -0.510254 
vn 0.843750 -0.493652 -0.210205 
vn 0.011963 0.999756 -0.013672 
vn 0.014160 0.999756 -0.011963 
vn 0.010498 0.999756 -0.015381 
vn 0.008789 0.999756 -0.017090 
vn 0.011963 0.999756 -0.013672 
vn 0.010498 0.999756 -0.015381 
vn 0.008057 0.999756 -0.018799 
vn 0.008789 0.999756 -0.017090 
vn 0.010498 0.999756 -0.015381 
vt 0.258065 0.161290 
vt 0.258065 0.225806 
vt 0.322581 0.225806 
vt 0.258065 0.096774 
vt 0.258065 0.161290 
vt 0.322581 0.225806 
vt 0.129032 0.129032 
vt 0.129032 0.225806 
vt 0.258065 0.225806 
vt 0.258065 0.225806 
vt 0.258065 0.161290 
vt 0.129032 0.129032 
vt 0.129032 0.032258 
vt 0.129032 0.129032 
vt 0.258065 0.161290 
vt 0.258065 0.161290 
vt 0.258065 0.096774 
vt 0.129032 0.032258 
vt 0.258065 0.161290 
vt 0.258065 0.096774 
vt 0.322581 0.225806 
vt 0.129032 0.129032 
vt 0.129032 0.032258 
vt 0.258065 0.096774 
vt 0.258065 0.096774 
vt 0.258065 0.161290 
vt 0.129032 0.129032 
vt 0.258065 0.225806 
vt 0.258065 0.161290 
vt 0.322581 0.225806 
vt 0.129032 0.225806 
vt 0.129032 0.129032 
vt 0.258065 0.161290 
vt 0.258065 0.161290 
vt 0.258065 0.225806 
vt 0.129032 0.225806 
vt 0.322581 0.225806 
vt 0.258065 0.225806 
vt 0.129032 0.225806 
vt 0.258065 0.225806 
vt 0.322581 0.225806 
vt 0.129032 0.225806 
vt 0.129032 0.225806 
vt 0.258065 0.225806 
vt 0.129032 0.225806 
f 1/1/1 2/2/2 3/3/3
f 4/4/4 5/5/5 6/6/6
f 7/7/7 8/8/8 9/9/9
f 10/10/10 11/11/11 12/12/12
f 13/13/13 14/14/14 15/15/15
f 16/16/16 17/17/17 18/18/18
f 19/19/19 20/20/20 21/21/21
f 22/22/22 23/23/23 24/24/24
f 25/25/25 26/26/26 27/27/27
f 28/28/28 29/29/29 30/30/30
f 31/31/31 32/32/32 33/33/33
f 34/34/34 35/35/35 36/36/36
f 37/37/37 38/38/38 39/39/39
f 40/40/40 41/41/41 42/42/42
f 43/43/43 44/44/44 45/45/45
