v -15.000000 -13.000000 41.000000 
v 0.000000 -20.000000 52.000000 
v 0.000000 0.000000 89.000000 
v -24.000000 1.000000 24.000000 
v -15.000000 -13.000000 41.000000 
v 0.000000 0.000000 89.000000 
v 0.000000 -20.000000 52.000000 
v -15.000000 -13.000000 41.000000 
v -19.000000 -15.000000 -28.000000 
v -19.000000 -15.000000 -28.000000 
v 0.000000 -27.000000 -27.000000 
v 0.000000 -20.000000 52.000000 
v -15.000000 -13.000000 41.000000 
v -24.000000 1.000000 24.000000 
v -30.000000 3.000000 -30.000000 
v -30.000000 3.000000 -30.000000 
v -19.000000 -15.000000 -28.000000 
v -15.000000 -13.000000 41.000000 
v 30.000000 2.000000 -30.000000 
v 24.000000 0.000000 24.000000 
v 15.000000 -13.000000 41.000000 
v 15.000000 -13.000000 41.000000 
v 19.000000 -15.000000 -28.000000 
v 30.000000 2.000000 -30.000000 
v 0.000000 0.000000 89.000000 
v 15.000000 -13.000000 41.000000 
v 24.000000 0.000000 24.000000 
v 19.000000 -15.000000 -28.000000 
v 15.000000 -13.000000 41.000000 
v 0.000000 -20.000000 52.000000 
v 0.000000 -20.000000 52.000000 
v 0.000000 -27.000000 -27.000000 
v 19.000000 -15.000000 -28.000000 
v 0.000000 0.000000 89.000000 
v 0.000000 -20.000000 52.000000 
v 15.000000 -13.000000 41.000000 
v -30.000000 3.000000 -30.000000 
v -24.000000 1.000000 24.000000 
v 0.000000 0.000000 89.000000 
v -30.000000 3.000000 -30.000000 
v 0.000000 0.000000 89.000000 
v 24.000000 0.000000 24.000000 
v -30.000000 3.000000 -30.000000 
v 24.000000 0.000000 24.000000 
v 30.000000 2.000000 -30.000000 
vn -0.788086 -0.584473 0.191895 
vn -0.003418 -0.979004 0.202637 
vn -0.000244 -0.776123 0.630371 
vn -0.918701 -0.333008 0.211426 
vn -0.788086 -0.584473 0.191895 
vn -0.000244 -0.776123 0.630371 
vn -0.003418 -0.979004 0.202637 
vn -0.788086 -0.584473 0.191895 
vn -0.636963 -0.767822 0.066406 
vn -0.636963 -0.767822 0.066406 
vn -0.002686 -0.995850 0.088867 
vn -0.003418 -0.979004 0.202637 
vn -0.788086 -0.584473 0.191895 
vn -0.918701 -0.333008 0.211426 
vn -0.868896 -0.489502 0.069824 
vn -0.868896 -0.489502 0.069824 
vn -0.636963 -0.767822 0.066406 
vn -0.788086 -0.584473 0.191895 
vn 0.870850 -0.486084 0.069580 
vn 0.921387 -0.323975 0.213379 
vn 0.789062 -0.582275 0.195068 
vn 0.789062 -0.582275 0.195068 
vn 0.633789 -0.770508 0.066895 
vn 0.870850 -0.486084 0.069580 
vn -0.000244 -0.776123 0.630371 
vn 0.789062 -0.582275 0.195068 
vn 0.921387 -0.323975 0.213379 
vn 0.633789 -0.770508 0.066895 
vn 0.789062 -0.582275 0.195068 
vn -0.003418 -0.979004 0.202637 
vn -0.003418 -0.979004 0.202637 
vn -0.002686 -0.995850 0.088867 
vn 0.633789 -0.770508 0.066895 
vn -0.000244 -0.776123 0.630371 
vn -0.003418 -0.979004 0.202637 
vn 0.789062 -0.582275 0.195068 
vn -0.011719 0.998779 0.045410 
vn -0.078857 0.995117 0.057129 
vn -0.023193 0.998779 0.043213 
vn -0.011719 0.998779 0.045410 
vn -0.023193 0.998779 0.043213 
vn 0.021729 0.998779 0.039551 
vn -0.011719 0.998779 0.045410 
vn 0.021729 0.998779 0.039551 
vn 0.011475 0.998535 0.049805 
vt 0.516129 0.516129 
vt 0.419355 1.000000 
vt 0.000000 1.000000 
vt 0.483871 0.064516 
vt 0.516129 0.516129 
vt 0.000000 1.000000 
vt 0.419355 1.000000 
vt 0.516129 0.516129 
vt 1.000000 0.612903 
vt 1.000000 0.612903 
vt 1.000000 1.000000 
vt 0.419355 1.000000 
vt 0.516129 0.516129 
vt 0.483871 0.064516 
vt 1.000000 0.064516 
vt 1.000000 0.064516 
vt 1.000000 0.612903 
vt 0.516129 0.516129 
vt 1.000000 0.064516 
vt 0.483871 0.096774 
vt 0.516129 0.548387 
vt 0.516129 0.548387 
vt 1.000000 0.612903 
vt 1.000000 0.064516 
vt 0.000000 1.000000 
vt 0.516129 0.548387 
vt 0.483871 0.096774 
vt 1.000000 0.612903 
vt 0.516129 0.548387 
vt 0.419355 1.000000 
vt 0.419355 1.000000 
vt 1.000000 1.000000 
vt 1.000000 0.612903 
vt 0.000000 1.000000 
vt 0.419355 1.000000 
vt 0.516129 0.548387 
vt 1.000000 0.064516 
vt 0.483871 0.064516 
vt 0.000000 1.000000 
vt 1.000000 0.064516 
vt 0.000000 1.000000 
vt 0.483871 0.096774 
vt 1.000000 0.064516 
vt 0.483871 0.096774 
vt 1.000000 0.064516 
f 1/1/1 2/2/2 3/3/3
f 4/4/4 5/5/5 6/6/6
f 7/7/7 8/8/8 9/9/9
f 10/10/10 11/11/11 12/12/12
f 13/13/13 14/14/14 15/15/15
f 16/16/16 17/17/17 18/18/18
f 19/19/19 20/20/20 21/21/21
f 22/22/22 23/23/23 24/24/24
f 25/25/25 26/26/26 27/27/27
f 28/28/28 29/29/29 30/30/30
f 31/31/31 32/32/32 33/33/33
f 34/34/34 35/35/35 36/36/36
f 37/37/37 38/38/38 39/39/39
f 40/40/40 41/41/41 42/42/42
f 43/43/43 44/44/44 45/45/45
