v 120.000000 0.000000 -199.000000 
v -9.000000 0.000000 -180.000000 
v 122.000000 147.000000 -167.000000 
v -9.000000 0.000000 -180.000000 
v 120.000000 0.000000 -199.000000 
v 122.000000 -149.000000 -167.000000 
v 145.000000 211.000000 -100.000000 
v 40.000000 247.000000 -53.000000 
v 169.000000 248.000000 36.000000 
v 146.000000 262.000000 44.000000 
v 169.000000 248.000000 36.000000 
v 40.000000 247.000000 -53.000000 
v 5.000000 147.000000 -146.000000 
v 40.000000 247.000000 -53.000000 
v 145.000000 211.000000 -100.000000 
v 122.000000 147.000000 -167.000000 
v 5.000000 147.000000 -146.000000 
v 145.000000 211.000000 -100.000000 
v -9.000000 0.000000 -180.000000 
v 5.000000 147.000000 -146.000000 
v 122.000000 147.000000 -167.000000 
v -9.000000 0.000000 -180.000000 
v -150.000000 0.000000 -125.000000 
v 5.000000 147.000000 -146.000000 
v 5.000000 -148.000000 -146.000000 
v -9.000000 0.000000 -180.000000 
v 122.000000 -149.000000 -167.000000 
v -150.000000 0.000000 -125.000000 
v -9.000000 0.000000 -180.000000 
v 5.000000 -148.000000 -146.000000 
v -166.000000 109.000000 -85.000000 
v -119.000000 241.000000 -5.000000 
v 40.000000 247.000000 -53.000000 
v 5.000000 147.000000 -146.000000 
v -166.000000 109.000000 -85.000000 
v 40.000000 247.000000 -53.000000 
v 48.000000 292.000000 -23.000000 
v 40.000000 247.000000 -53.000000 
v -119.000000 241.000000 -5.000000 
v 48.000000 292.000000 -23.000000 
v 146.000000 262.000000 44.000000 
v 40.000000 247.000000 -53.000000 
v -150.000000 0.000000 -125.000000 
v -166.000000 109.000000 -85.000000 
v 5.000000 147.000000 -146.000000 
v -166.000000 -110.000000 -85.000000 
v -150.000000 0.000000 -125.000000 
v 5.000000 -148.000000 -146.000000 
v -204.000000 87.000000 34.000000 
v -199.000000 158.000000 71.000000 
v -119.000000 241.000000 -5.000000 
v -166.000000 109.000000 -85.000000 
v -204.000000 87.000000 34.000000 
v -119.000000 241.000000 -5.000000 
v -119.000000 241.000000 -5.000000 
v -199.000000 158.000000 71.000000 
v -182.000000 186.000000 125.000000 
v -220.000000 33.000000 4.000000 
v -204.000000 87.000000 34.000000 
v -166.000000 109.000000 -85.000000 
v -182.000000 186.000000 125.000000 
v -199.000000 158.000000 71.000000 
v -223.000000 0.000000 159.000000 
v -199.000000 158.000000 71.000000 
v -216.000000 43.000000 91.000000 
v -223.000000 0.000000 159.000000 
v -204.000000 87.000000 34.000000 
v -216.000000 43.000000 91.000000 
v -199.000000 158.000000 71.000000 
v -216.000000 43.000000 91.000000 
v -204.000000 87.000000 34.000000 
v -220.000000 33.000000 4.000000 
v -223.000000 0.000000 159.000000 
v -216.000000 43.000000 91.000000 
v -228.000000 17.000000 72.000000 
v -199.000000 -159.000000 71.000000 
v -182.000000 -188.000000 125.000000 
v -223.000000 0.000000 159.000000 
v -216.000000 -44.000000 91.000000 
v -199.000000 -159.000000 71.000000 
v -223.000000 0.000000 159.000000 
v -216.000000 -44.000000 91.000000 
v -223.000000 0.000000 159.000000 
v -228.000000 -19.000000 72.000000 
v -223.000000 0.000000 159.000000 
v -228.000000 17.000000 72.000000 
v -228.000000 -1.000000 75.000000 
v -228.000000 -19.000000 72.000000 
v -223.000000 0.000000 159.000000 
v -228.000000 -1.000000 75.000000 
v -228.000000 17.000000 72.000000 
v -216.000000 43.000000 91.000000 
v -220.000000 33.000000 4.000000 
v -228.000000 -1.000000 75.000000 
v -228.000000 17.000000 72.000000 
v -220.000000 33.000000 4.000000 
v -220.000000 -35.000000 4.000000 
v -228.000000 -19.000000 72.000000 
v -228.000000 -1.000000 75.000000 
v -204.000000 -89.000000 34.000000 
v -220.000000 -35.000000 4.000000 
v -166.000000 -110.000000 -85.000000 
v -204.000000 -89.000000 34.000000 
v -216.000000 -44.000000 91.000000 
v -220.000000 -35.000000 4.000000 
v -216.000000 -44.000000 91.000000 
v -228.000000 -19.000000 72.000000 
v -220.000000 -35.000000 4.000000 
v 40.000000 -248.000000 -53.000000 
v 145.000000 -213.000000 -100.000000 
v 169.000000 -250.000000 36.000000 
v 169.000000 -250.000000 36.000000 
v 146.000000 -264.000000 44.000000 
v 40.000000 -248.000000 -53.000000 
v 40.000000 -248.000000 -53.000000 
v 5.000000 -148.000000 -146.000000 
v 145.000000 -213.000000 -100.000000 
v 5.000000 -148.000000 -146.000000 
v 122.000000 -149.000000 -167.000000 
v 145.000000 -213.000000 -100.000000 
v -80.000000 -243.000000 -27.000000 
v -166.000000 -110.000000 -85.000000 
v 40.000000 -248.000000 -53.000000 
v -166.000000 -110.000000 -85.000000 
v 5.000000 -148.000000 -146.000000 
v 40.000000 -248.000000 -53.000000 
v 40.000000 -248.000000 -53.000000 
v 48.000000 -293.000000 -23.000000 
v -80.000000 -243.000000 -27.000000 
v 146.000000 -264.000000 44.000000 
v 48.000000 -293.000000 -23.000000 
v 40.000000 -248.000000 -53.000000 
v -199.000000 -159.000000 71.000000 
v -204.000000 -89.000000 34.000000 
v -80.000000 -243.000000 -27.000000 
v -204.000000 -89.000000 34.000000 
v -166.000000 -110.000000 -85.000000 
v -80.000000 -243.000000 -27.000000 
v -199.000000 -159.000000 71.000000 
v -80.000000 -243.000000 -27.000000 
v -182.000000 -188.000000 125.000000 
v -216.000000 -44.000000 91.000000 
v -204.000000 -89.000000 34.000000 
v -199.000000 -159.000000 71.000000 
vn 0.193604 0.000000 -0.980957 
vn -0.223389 0.000000 -0.974609 
vn 0.083008 0.501221 -0.861084 
vn -0.223389 0.000000 -0.974609 
vn 0.193604 0.000000 -0.980957 
vn 0.083008 -0.501465 -0.861084 
vn 0.089600 0.881348 -0.463379 
vn 0.025635 0.778564 -0.626953 
vn 0.239990 0.960693 -0.138916 
vn 0.476807 0.842285 -0.250488 
vn 0.239990 0.960693 -0.138916 
vn 0.025635 0.778564 -0.626953 
vn -0.242188 0.563721 -0.789307 
vn 0.025635 0.778564 -0.626953 
vn 0.089600 0.881348 -0.463379 
vn 0.083008 0.501221 -0.861084 
vn -0.242188 0.563721 -0.789307 
vn 0.089600 0.881348 -0.463379 
vn -0.223389 0.000000 -0.974609 
vn -0.242188 0.563721 -0.789307 
vn 0.083008 0.501221 -0.861084 
vn -0.223389 0.000000 -0.974609 
vn -0.562988 0.000000 -0.826416 
vn -0.242188 0.563721 -0.789307 
vn -0.242188 -0.563965 -0.789307 
vn -0.223389 0.000000 -0.974609 
vn 0.083008 -0.501465 -0.861084 
vn -0.562988 0.000000 -0.826416 
vn -0.223389 0.000000 -0.974609 
vn -0.242188 -0.563965 -0.789307 
vn -0.695801 0.473389 -0.539795 
vn -0.589844 0.696045 -0.408691 
vn 0.025635 0.778564 -0.626953 
vn -0.242188 0.563721 -0.789307 
vn -0.695801 0.473389 -0.539795 
vn 0.025635 0.778564 -0.626953 
vn 0.114746 0.866211 -0.485840 
vn 0.025635 0.778564 -0.626953 
vn -0.589844 0.696045 -0.408691 
vn 0.114746 0.866211 -0.485840 
vn 0.476807 0.842285 -0.250488 
vn 0.025635 0.778564 -0.626953 
vn -0.562988 0.000000 -0.826416 
vn -0.695801 0.473389 -0.539795 
vn -0.242188 0.563721 -0.789307 
vn -0.678711 -0.491455 -0.545166 
vn -0.562988 0.000000 -0.826416 
vn -0.242188 -0.563965 -0.789307 
vn -0.910400 0.363525 -0.197021 
vn -0.929443 0.354004 -0.102295 
vn -0.589844 0.696045 -0.408691 
vn -0.695801 0.473389 -0.539795 
vn -0.910400 0.363525 -0.197021 
vn -0.589844 0.696045 -0.408691 
vn -0.589844 0.696045 -0.408691 
vn -0.929443 0.354004 -0.102295 
vn -0.838135 0.541992 0.060303 
vn -0.612061 0.684326 -0.395752 
vn -0.910400 0.363525 -0.197021 
vn -0.695801 0.473389 -0.539795 
vn -0.838135 0.541992 0.060303 
vn -0.929443 0.354004 -0.102295 
vn -0.938965 0.000000 0.343262 
vn -0.929443 0.354004 -0.102295 
vn -0.953369 0.301514 0.007324 
vn -0.938965 0.000000 0.343262 
vn -0.910400 0.363525 -0.197021 
vn -0.953369 0.301514 0.007324 
vn -0.929443 0.354004 -0.102295 
vn -0.953369 0.301514 0.007324 
vn -0.910400 0.363525 -0.197021 
vn -0.612061 0.684326 -0.395752 
vn -0.938965 0.000000 0.343262 
vn -0.953369 0.301514 0.007324 
vn -0.971436 0.235596 0.024658 
vn -0.909912 -0.390625 -0.137695 
vn -0.857178 -0.514404 -0.016357 
vn -0.938965 0.000000 0.343262 
vn -0.953369 -0.301514 0.007324 
vn -0.909912 -0.390625 -0.137695 
vn -0.938965 0.000000 0.343262 
vn -0.953369 -0.301514 0.007324 
vn -0.938965 0.000000 0.343262 
vn -0.971191 -0.236328 0.024658 
vn -0.938965 0.000000 0.343262 
vn -0.971436 0.235596 0.024658 
vn -0.928711 -0.000977 0.370117 
vn -0.971191 -0.236328 0.024658 
vn -0.938965 0.000000 0.343262 
vn -0.928711 -0.000977 0.370117 
vn -0.971436 0.235596 0.024658 
vn -0.953369 0.301514 0.007324 
vn -0.612061 0.684326 -0.395752 
vn -0.928711 -0.000977 0.370117 
vn -0.971436 0.235596 0.024658 
vn -0.612061 0.684326 -0.395752 
vn -0.611084 -0.684570 -0.396729 
vn -0.971191 -0.236328 0.024658 
vn -0.928711 -0.000977 0.370117 
vn -0.887939 -0.411377 -0.205322 
vn -0.611084 -0.684570 -0.396729 
vn -0.678711 -0.491455 -0.545166 
vn -0.887939 -0.411377 -0.205322 
vn -0.953369 -0.301514 0.007324 
vn -0.611084 -0.684570 -0.396729 
vn -0.953369 -0.301514 0.007324 
vn -0.971191 -0.236328 0.024658 
vn -0.611084 -0.684570 -0.396729 
vn 0.041992 -0.768066 -0.638672 
vn 0.089600 -0.881348 -0.463379 
vn 0.239990 -0.960693 -0.138916 
vn 0.239990 -0.960693 -0.138916 
vn 0.476807 -0.842285 -0.250488 
vn 0.041992 -0.768066 -0.638672 
vn 0.041992 -0.768066 -0.638672 
vn -0.242188 -0.563965 -0.789307 
vn 0.089600 -0.881348 -0.463379 
vn -0.242188 -0.563965 -0.789307 
vn 0.083008 -0.501465 -0.861084 
vn 0.089600 -0.881348 -0.463379 
vn -0.546875 -0.673584 -0.496826 
vn -0.678711 -0.491455 -0.545166 
vn 0.041992 -0.768066 -0.638672 
vn -0.678711 -0.491455 -0.545166 
vn -0.242188 -0.563965 -0.789307 
vn 0.041992 -0.768066 -0.638672 
vn 0.041992 -0.768066 -0.638672 
vn 0.127441 -0.864258 -0.486328 
vn -0.546875 -0.673584 -0.496826 
vn 0.476807 -0.842285 -0.250488 
vn 0.127441 -0.864258 -0.486328 
vn 0.041992 -0.768066 -0.638672 
vn -0.909912 -0.390625 -0.137695 
vn -0.887939 -0.411377 -0.205322 
vn -0.546875 -0.673584 -0.496826 
vn -0.887939 -0.411377 -0.205322 
vn -0.678711 -0.491455 -0.545166 
vn -0.546875 -0.673584 -0.496826 
vn -0.909912 -0.390625 -0.137695 
vn -0.546875 -0.673584 -0.496826 
vn -0.857178 -0.514404 -0.016357 
vn -0.953369 -0.301514 0.007324 
vn -0.887939 -0.411377 -0.205322 
vn -0.909912 -0.390625 -0.137695 
vt 0.400000 0.992157 
vt 0.552941 0.992157 
vt 0.458824 0.843137 
vt 0.552941 0.992157 
vt 0.400000 0.992157 
vt 0.458824 0.843137 
vt 0.494118 0.733333 
vt 0.588235 0.756863 
vt 0.494118 0.541176 
vt 0.549020 0.454902 
vt 0.494118 0.541176 
vt 0.588235 0.756863 
vt 0.541176 0.843137 
vt 0.588235 0.756863 
vt 0.494118 0.733333 
vt 0.458824 0.843137 
vt 0.541176 0.843137 
vt 0.494118 0.733333 
vt 0.552941 0.992157 
vt 0.541176 0.843137 
vt 0.458824 0.843137 
vt 0.552941 0.992157 
vt 0.686275 0.992157 
vt 0.541176 0.843137 
vt 0.541176 0.843137 
vt 0.552941 0.992157 
vt 0.458824 0.843137 
vt 0.686275 0.992157 
vt 0.552941 0.992157 
vt 0.541176 0.843137 
vt 0.698039 0.847059 
vt 0.698039 0.800000 
vt 0.588235 0.756863 
vt 0.541176 0.843137 
vt 0.698039 0.847059 
vt 0.588235 0.756863 
vt 0.607843 0.596078 
vt 0.588235 0.756863 
vt 0.698039 0.800000 
vt 0.607843 0.596078 
vt 0.549020 0.454902 
vt 0.588235 0.756863 
vt 0.686275 0.992157 
vt 0.698039 0.847059 
vt 0.541176 0.843137 
vt 0.698039 0.847059 
vt 0.686275 0.992157 
vt 0.541176 0.843137 
vt 0.854902 0.854902 
vt 0.811765 0.745098 
vt 0.698039 0.800000 
vt 0.698039 0.847059 
vt 0.854902 0.854902 
vt 0.698039 0.800000 
vt 0.698039 0.800000 
vt 0.811765 0.745098 
vt 0.807843 0.568627 
vt 0.847059 0.921569 
vt 0.854902 0.854902 
vt 0.698039 0.847059 
vt 0.807843 0.568627 
vt 0.811765 0.745098 
vt 0.988235 0.768627 
vt 0.811765 0.745098 
vt 0.921569 0.811765 
vt 0.988235 0.768627 
vt 0.854902 0.854902 
vt 0.921569 0.811765 
vt 0.811765 0.745098 
vt 0.921569 0.811765 
vt 0.854902 0.854902 
vt 0.847059 0.921569 
vt 0.988235 0.768627 
vt 0.921569 0.811765 
vt 0.921569 0.866667 
vt 0.811765 0.745098 
vt 0.807843 0.568627 
vt 0.988235 0.768627 
vt 0.921569 0.811765 
vt 0.811765 0.745098 
vt 0.988235 0.768627 
vt 0.921569 0.811765 
vt 0.988235 0.768627 
vt 0.921569 0.866667 
vt 0.988235 0.768627 
vt 0.921569 0.866667 
vt 0.909804 0.756863 
vt 0.921569 0.866667 
vt 0.988235 0.768627 
vt 0.909804 0.756863 
vt 0.894118 0.870588 
vt 0.921569 0.811765 
vt 0.847059 0.921569 
vt 0.909804 0.756863 
vt 0.894118 0.870588 
vt 0.847059 0.921569 
vt 0.631373 0.725490 
vt 0.921569 0.866667 
vt 0.909804 0.756863 
vt 0.854902 0.854902 
vt 0.847059 0.921569 
vt 0.698039 0.847059 
vt 0.854902 0.854902 
vt 0.921569 0.811765 
vt 0.847059 0.921569 
vt 0.921569 0.811765 
vt 0.921569 0.866667 
vt 0.847059 0.921569 
vt 0.588235 0.756863 
vt 0.494118 0.733333 
vt 0.494118 0.541176 
vt 0.494118 0.541176 
vt 0.549020 0.454902 
vt 0.588235 0.756863 
vt 0.588235 0.756863 
vt 0.541176 0.843137 
vt 0.494118 0.733333 
vt 0.541176 0.843137 
vt 0.458824 0.843137 
vt 0.494118 0.733333 
vt 0.698039 0.800000 
vt 0.698039 0.847059 
vt 0.588235 0.756863 
vt 0.698039 0.847059 
vt 0.541176 0.843137 
vt 0.588235 0.756863 
vt 0.588235 0.756863 
vt 0.607843 0.596078 
vt 0.698039 0.800000 
vt 0.549020 0.454902 
vt 0.607843 0.596078 
vt 0.588235 0.756863 
vt 0.811765 0.745098 
vt 0.854902 0.854902 
vt 0.698039 0.800000 
vt 0.854902 0.854902 
vt 0.698039 0.847059 
vt 0.698039 0.800000 
vt 0.811765 0.745098 
vt 0.698039 0.800000 
vt 0.807843 0.568627 
vt 0.921569 0.811765 
vt 0.854902 0.854902 
vt 0.811765 0.745098 
f 1/1/1 2/2/2 3/3/3
f 4/4/4 5/5/5 6/6/6
f 7/7/7 8/8/8 9/9/9
f 10/10/10 11/11/11 12/12/12
f 13/13/13 14/14/14 15/15/15
f 16/16/16 17/17/17 18/18/18
f 19/19/19 20/20/20 21/21/21
f 22/22/22 23/23/23 24/24/24
f 25/25/25 26/26/26 27/27/27
f 28/28/28 29/29/29 30/30/30
f 31/31/31 32/32/32 33/33/33
f 34/34/34 35/35/35 36/36/36
f 37/37/37 38/38/38 39/39/39
f 40/40/40 41/41/41 42/42/42
f 43/43/43 44/44/44 45/45/45
f 46/46/46 47/47/47 48/48/48
f 49/49/49 50/50/50 51/51/51
f 52/52/52 53/53/53 54/54/54
f 55/55/55 56/56/56 57/57/57
f 58/58/58 59/59/59 60/60/60
f 61/61/61 62/62/62 63/63/63
f 64/64/64 65/65/65 66/66/66
f 67/67/67 68/68/68 69/69/69
f 70/70/70 71/71/71 72/72/72
f 73/73/73 74/74/74 75/75/75
f 76/76/76 77/77/77 78/78/78
f 79/79/79 80/80/80 81/81/81
f 82/82/82 83/83/83 84/84/84
f 85/85/85 86/86/86 87/87/87
f 88/88/88 89/89/89 90/90/90
f 91/91/91 92/92/92 93/93/93
f 94/94/94 95/95/95 96/96/96
f 97/97/97 98/98/98 99/99/99
f 100/100/100 101/101/101 102/102/102
f 103/103/103 104/104/104 105/105/105
f 106/106/106 107/107/107 108/108/108
f 109/109/109 110/110/110 111/111/111
f 112/112/112 113/113/113 114/114/114
f 115/115/115 116/116/116 117/117/117
f 118/118/118 119/119/119 120/120/120
f 121/121/121 122/122/122 123/123/123
f 124/124/124 125/125/125 126/126/126
f 127/127/127 128/128/128 129/129/129
f 130/130/130 131/131/131 132/132/132
f 133/133/133 134/134/134 135/135/135
f 136/136/136 137/137/137 138/138/138
f 139/139/139 140/140/140 141/141/141
f 142/142/142 143/143/143 144/144/144
