v 1.000000 8.000000 0.000000 
v 1.000000 3.000000 15.000000 
v 9.000000 4.000000 20.000000 
v 1.000000 8.000000 0.000000 
v -8.000000 0.000000 -7.000000 
v 1.000000 3.000000 15.000000 
v 1.000000 8.000000 0.000000 
v 0.000000 -2.000000 -21.000000 
v -8.000000 0.000000 -7.000000 
v 9.000000 4.000000 20.000000 
v 0.000000 -13.000000 25.000000 
v 12.000000 -11.000000 31.000000 
v 9.000000 4.000000 20.000000 
v 1.000000 3.000000 15.000000 
v 0.000000 -13.000000 25.000000 
v 1.000000 3.000000 15.000000 
v -12.000000 -17.000000 -1.000000 
v 0.000000 -13.000000 25.000000 
v 1.000000 3.000000 15.000000 
v -8.000000 0.000000 -7.000000 
v -12.000000 -17.000000 -1.000000 
v -8.000000 0.000000 -7.000000 
v -4.000000 -27.000000 -21.000000 
v -12.000000 -17.000000 -1.000000 
v -8.000000 0.000000 -7.000000 
v 0.000000 -2.000000 -21.000000 
v -4.000000 -27.000000 -21.000000 
v 12.000000 -11.000000 31.000000 
v 7.000000 -45.000000 25.000000 
v 18.000000 -44.000000 27.000000 
v 12.000000 -11.000000 31.000000 
v 0.000000 -13.000000 25.000000 
v 7.000000 -45.000000 25.000000 
v 0.000000 -13.000000 25.000000 
v 1.000000 -48.000000 12.000000 
v 7.000000 -45.000000 25.000000 
v 0.000000 -13.000000 25.000000 
v -12.000000 -17.000000 -1.000000 
v 1.000000 -48.000000 12.000000 
v -12.000000 -17.000000 -1.000000 
v 0.000000 -55.000000 -3.000000 
v 1.000000 -48.000000 12.000000 
v -12.000000 -17.000000 -1.000000 
v -4.000000 -27.000000 -21.000000 
v 0.000000 -55.000000 -3.000000 
v 11.000000 -63.000000 17.000000 
v 18.000000 -44.000000 27.000000 
v 7.000000 -45.000000 25.000000 
v 11.000000 -63.000000 17.000000 
v 7.000000 -45.000000 25.000000 
v 1.000000 -48.000000 12.000000 
v 11.000000 -63.000000 17.000000 
v 1.000000 -48.000000 12.000000 
v 0.000000 -55.000000 -3.000000 
v 1.000000 1.000000 15.000000 
v 1.000000 5.000000 0.000000 
v 8.000000 2.000000 19.000000 
v -7.000000 -1.000000 -5.000000 
v 1.000000 5.000000 0.000000 
v 1.000000 1.000000 15.000000 
v 0.000000 -4.000000 -18.000000 
v 1.000000 5.000000 0.000000 
v -7.000000 -1.000000 -5.000000 
v 0.000000 -13.000000 24.000000 
v 8.000000 2.000000 19.000000 
v 10.000000 -12.000000 28.000000 
v 1.000000 1.000000 15.000000 
v 8.000000 2.000000 19.000000 
v 0.000000 -13.000000 24.000000 
v -11.000000 -17.000000 0.000000 
v 1.000000 1.000000 15.000000 
v 0.000000 -13.000000 24.000000 
v -7.000000 -1.000000 -5.000000 
v 1.000000 1.000000 15.000000 
v -11.000000 -17.000000 0.000000 
v -4.000000 -26.000000 -18.000000 
v -7.000000 -1.000000 -5.000000 
v -11.000000 -17.000000 0.000000 
v 0.000000 -4.000000 -18.000000 
v -7.000000 -1.000000 -5.000000 
v -4.000000 -26.000000 -18.000000 
v 7.000000 -42.000000 23.000000 
v 10.000000 -12.000000 28.000000 
v 17.000000 -41.000000 25.000000 
v 0.000000 -13.000000 24.000000 
v 10.000000 -12.000000 28.000000 
v 7.000000 -42.000000 23.000000 
v 1.000000 -45.000000 12.000000 
v 0.000000 -13.000000 24.000000 
v 7.000000 -42.000000 23.000000 
v -11.000000 -17.000000 0.000000 
v 0.000000 -13.000000 24.000000 
v 1.000000 -45.000000 12.000000 
v 0.000000 -51.000000 -2.000000 
v -11.000000 -17.000000 0.000000 
v 1.000000 -45.000000 12.000000 
v -4.000000 -26.000000 -18.000000 
v -11.000000 -17.000000 0.000000 
v 0.000000 -51.000000 -2.000000 
v 17.000000 -41.000000 25.000000 
v 10.000000 -59.000000 16.000000 
v 7.000000 -42.000000 23.000000 
v 7.000000 -42.000000 23.000000 
v 10.000000 -59.000000 16.000000 
v 1.000000 -45.000000 12.000000 
v 1.000000 -45.000000 12.000000 
v 10.000000 -59.000000 16.000000 
v 0.000000 -51.000000 -2.000000 
vn -0.470947 0.881836 0.018066 
vn -0.701172 0.574951 0.421143 
vn -0.426514 0.644775 0.633789 
vn -0.470947 0.881836 0.018066 
vn -0.850342 0.487061 -0.198486 
vn -0.701172 0.574951 0.421143 
vn -0.470947 0.881836 0.018066 
vn -0.636963 0.549805 -0.539795 
vn -0.850342 0.487061 -0.198486 
vn -0.426514 0.644775 0.633789 
vn -0.718994 0.123779 0.683838 
vn -0.350830 0.071289 0.933594 
vn -0.426514 0.644775 0.633789 
vn -0.701172 0.574951 0.421143 
vn -0.718994 0.123779 0.683838 
vn -0.701172 0.574951 0.421143 
vn -0.988770 -0.030273 0.145264 
vn -0.718994 0.123779 0.683838 
vn -0.701172 0.574951 0.421143 
vn -0.850342 0.487061 -0.198486 
vn -0.988770 -0.030273 0.145264 
vn -0.850342 0.487061 -0.198486 
vn -0.910645 -0.022949 -0.412354 
vn -0.988770 -0.030273 0.145264 
vn -0.850342 0.487061 -0.198486 
vn -0.636963 0.549805 -0.539795 
vn -0.910645 -0.022949 -0.412354 
vn -0.350830 0.071289 0.933594 
vn -0.520996 -0.258057 0.813232 
vn -0.153809 -0.271973 0.949707 
vn -0.350830 0.071289 0.933594 
vn -0.718994 0.123779 0.683838 
vn -0.520996 -0.258057 0.813232 
vn -0.718994 0.123779 0.683838 
vn -0.871582 -0.303223 0.384766 
vn -0.520996 -0.258057 0.813232 
vn -0.718994 0.123779 0.683838 
vn -0.988770 -0.030273 0.145264 
vn -0.871582 -0.303223 0.384766 
vn -0.988770 -0.030273 0.145264 
vn -0.925293 -0.365723 0.098389 
vn -0.871582 -0.303223 0.384766 
vn -0.988770 -0.030273 0.145264 
vn -0.910645 -0.022949 -0.412354 
vn -0.925293 -0.365723 0.098389 
vn -0.659424 -0.439941 0.609375 
vn -0.153809 -0.271973 0.949707 
vn -0.520996 -0.258057 0.813232 
vn -0.659424 -0.439941 0.609375 
vn -0.520996 -0.258057 0.813232 
vn -0.871582 -0.303223 0.384766 
vn -0.659424 -0.439941 0.609375 
vn -0.871582 -0.303223 0.384766 
vn -0.925293 -0.365723 0.098389 
vn 0.701172 -0.574951 -0.421143 
vn 0.470947 -0.881836 -0.018066 
vn 0.426514 -0.644775 -0.633789 
vn 0.850342 -0.487061 0.198486 
vn 0.470947 -0.881836 -0.018066 
vn 0.701172 -0.574951 -0.421143 
vn 0.636963 -0.549805 0.539795 
vn 0.470947 -0.881836 -0.018066 
vn 0.850342 -0.487061 0.198486 
vn 0.718994 -0.123779 -0.683838 
vn 0.426514 -0.644775 -0.633789 
vn 0.350830 -0.071289 -0.933594 
vn 0.701172 -0.574951 -0.421143 
vn 0.426514 -0.644775 -0.633789 
vn 0.718994 -0.123779 -0.683838 
vn 0.988770 0.030273 -0.145264 
vn 0.701172 -0.574951 -0.421143 
vn 0.718994 -0.123779 -0.683838 
vn 0.850342 -0.487061 0.198486 
vn 0.701172 -0.574951 -0.421143 
vn 0.988770 0.030273 -0.145264 
vn 0.910645 0.022949 0.412354 
vn 0.850342 -0.487061 0.198486 
vn 0.988770 0.030273 -0.145264 
vn 0.636963 -0.549805 0.539795 
vn 0.850342 -0.487061 0.198486 
vn 0.910645 0.022949 0.412354 
vn 0.520996 0.258057 -0.813232 
vn 0.350830 -0.071289 -0.933594 
vn 0.153809 0.271973 -0.949707 
vn 0.718994 -0.123779 -0.683838 
vn 0.350830 -0.071289 -0.933594 
vn 0.520996 0.258057 -0.813232 
vn 0.871582 0.303223 -0.384766 
vn 0.718994 -0.123779 -0.683838 
vn 0.520996 0.258057 -0.813232 
vn 0.988770 0.030273 -0.145264 
vn 0.718994 -0.123779 -0.683838 
vn 0.871582 0.303223 -0.384766 
vn 0.925293 0.365723 -0.098389 
vn 0.988770 0.030273 -0.145264 
vn 0.871582 0.303223 -0.384766 
vn 0.910645 0.022949 0.412354 
vn 0.988770 0.030273 -0.145264 
vn 0.925293 0.365723 -0.098389 
vn 0.153809 0.271973 -0.949707 
vn 0.659424 0.439941 -0.609375 
vn 0.520996 0.258057 -0.813232 
vn 0.520996 0.258057 -0.813232 
vn 0.659424 0.439941 -0.609375 
vn 0.871582 0.303223 -0.384766 
vn 0.871582 0.303223 -0.384766 
vn 0.659424 0.439941 -0.609375 
vn 0.925293 0.365723 -0.098389 
vt 0.456693 0.456693 
vt 0.629921 0.488189 
vt 0.574803 0.692913 
vt 0.456693 0.456693 
vt 0.582677 0.251969 
vt 0.629921 0.488189 
vt 0.456693 0.456693 
vt 0.582677 0.031496 
vt 0.582677 0.251969 
vt 0.574803 0.692913 
vt 0.826772 0.503937 
vt 0.771654 0.708661 
vt 0.574803 0.692913 
vt 0.629921 0.488189 
vt 0.826772 0.503937 
vt 0.629921 0.488189 
vt 0.866142 0.291339 
vt 0.826772 0.503937 
vt 0.629921 0.488189 
vt 0.582677 0.251969 
vt 0.866142 0.291339 
vt 0.582677 0.251969 
vt 0.889764 0.015748 
vt 0.866142 0.291339 
vt 0.582677 0.251969 
vt 0.582677 0.031496 
vt 0.889764 0.015748 
vt 0.771654 0.708661 
vt 0.952756 0.535433 
vt 0.960630 0.708661 
vt 0.771654 0.708661 
vt 0.826772 0.503937 
vt 0.952756 0.535433 
vt 0.826772 0.503937 
vt 0.952756 0.314961 
vt 0.952756 0.535433 
vt 0.826772 0.503937 
vt 0.866142 0.291339 
vt 0.952756 0.314961 
vt 0.866142 0.291339 
vt 0.952756 0.031496 
vt 0.952756 0.314961 
vt 0.866142 0.291339 
vt 0.889764 0.015748 
vt 0.952756 0.031496 
vt 0.984252 0.503937 
vt 0.960630 0.708661 
vt 0.952756 0.535433 
vt 0.984252 0.503937 
vt 0.952756 0.535433 
vt 0.952756 0.314961 
vt 0.984252 0.503937 
vt 0.952756 0.314961 
vt 0.952756 0.031496 
vt 0.629921 0.488189 
vt 0.456693 0.456693 
vt 0.574803 0.692913 
vt 0.582677 0.251969 
vt 0.456693 0.456693 
vt 0.629921 0.488189 
vt 0.582677 0.031496 
vt 0.456693 0.456693 
vt 0.582677 0.251969 
vt 0.826772 0.503937 
vt 0.574803 0.692913 
vt 0.771654 0.708661 
vt 0.629921 0.488189 
vt 0.574803 0.692913 
vt 0.826772 0.503937 
vt 0.866142 0.291339 
vt 0.629921 0.488189 
vt 0.826772 0.503937 
vt 0.582677 0.251969 
vt 0.629921 0.488189 
vt 0.866142 0.291339 
vt 0.889764 0.015748 
vt 0.582677 0.251969 
vt 0.866142 0.291339 
vt 0.582677 0.031496 
vt 0.582677 0.251969 
vt 0.889764 0.015748 
vt 0.952756 0.535433 
vt 0.771654 0.708661 
vt 0.960630 0.708661 
vt 0.826772 0.503937 
vt 0.771654 0.708661 
vt 0.952756 0.535433 
vt 0.952756 0.314961 
vt 0.826772 0.503937 
vt 0.952756 0.535433 
vt 0.866142 0.291339 
vt 0.826772 0.503937 
vt 0.952756 0.314961 
vt 0.952756 0.031496 
vt 0.866142 0.291339 
vt 0.952756 0.314961 
vt 0.889764 0.015748 
vt 0.866142 0.291339 
vt 0.952756 0.031496 
vt 0.960630 0.708661 
vt 0.984252 0.503937 
vt 0.952756 0.535433 
vt 0.952756 0.535433 
vt 0.984252 0.503937 
vt 0.952756 0.314961 
vt 0.952756 0.314961 
vt 0.984252 0.503937 
vt 0.952756 0.031496 
f 1/1/1 2/2/2 3/3/3
f 4/4/4 5/5/5 6/6/6
f 7/7/7 8/8/8 9/9/9
f 10/10/10 11/11/11 12/12/12
f 13/13/13 14/14/14 15/15/15
f 16/16/16 17/17/17 18/18/18
f 19/19/19 20/20/20 21/21/21
f 22/22/22 23/23/23 24/24/24
f 25/25/25 26/26/26 27/27/27
f 28/28/28 29/29/29 30/30/30
f 31/31/31 32/32/32 33/33/33
f 34/34/34 35/35/35 36/36/36
f 37/37/37 38/38/38 39/39/39
f 40/40/40 41/41/41 42/42/42
f 43/43/43 44/44/44 45/45/45
f 46/46/46 47/47/47 48/48/48
f 49/49/49 50/50/50 51/51/51
f 52/52/52 53/53/53 54/54/54
f 55/55/55 56/56/56 57/57/57
f 58/58/58 59/59/59 60/60/60
f 61/61/61 62/62/62 63/63/63
f 64/64/64 65/65/65 66/66/66
f 67/67/67 68/68/68 69/69/69
f 70/70/70 71/71/71 72/72/72
f 73/73/73 74/74/74 75/75/75
f 76/76/76 77/77/77 78/78/78
f 79/79/79 80/80/80 81/81/81
f 82/82/82 83/83/83 84/84/84
f 85/85/85 86/86/86 87/87/87
f 88/88/88 89/89/89 90/90/90
f 91/91/91 92/92/92 93/93/93
f 94/94/94 95/95/95 96/96/96
f 97/97/97 98/98/98 99/99/99
f 100/100/100 101/101/101 102/102/102
f 103/103/103 104/104/104 105/105/105
f 106/106/106 107/107/107 108/108/108
