v 0.000000 -33.000000 110.000000 
v 48.000000 116.000000 69.000000 
v 0.000000 116.000000 84.000000 
v 0.000000 -33.000000 110.000000 
v 63.000000 -33.000000 89.000000 
v 48.000000 116.000000 69.000000 
v 63.000000 -33.000000 89.000000 
v 78.000000 116.000000 27.000000 
v 48.000000 116.000000 69.000000 
v 63.000000 -33.000000 89.000000 
v 102.000000 -33.000000 35.000000 
v 78.000000 116.000000 27.000000 
v 102.000000 -33.000000 35.000000 
v 78.000000 116.000000 -23.000000 
v 78.000000 116.000000 27.000000 
v 102.000000 -33.000000 35.000000 
v 102.000000 -33.000000 -31.000000 
v 78.000000 116.000000 -23.000000 
v 102.000000 -33.000000 -31.000000 
v 48.000000 107.000000 -64.000000 
v 78.000000 116.000000 -23.000000 
v 102.000000 -33.000000 -31.000000 
v 63.000000 -33.000000 -84.000000 
v 48.000000 107.000000 -64.000000 
v 63.000000 -33.000000 -84.000000 
v 0.000000 95.000000 -80.000000 
v 48.000000 107.000000 -64.000000 
v 63.000000 -33.000000 -84.000000 
v 0.000000 -33.000000 -105.000000 
v 0.000000 95.000000 -80.000000 
v 0.000000 -33.000000 -105.000000 
v -48.000000 107.000000 -64.000000 
v 0.000000 95.000000 -80.000000 
v 0.000000 -33.000000 -105.000000 
v -63.000000 -33.000000 -84.000000 
v -48.000000 107.000000 -64.000000 
v -63.000000 -33.000000 -84.000000 
v -78.000000 116.000000 -23.000000 
v -48.000000 107.000000 -64.000000 
v -63.000000 -33.000000 -84.000000 
v -102.000000 -33.000000 -31.000000 
v -78.000000 116.000000 -23.000000 
v -102.000000 -33.000000 -31.000000 
v -78.000000 116.000000 27.000000 
v -78.000000 116.000000 -23.000000 
v -102.000000 -33.000000 -31.000000 
v -102.000000 -33.000000 35.000000 
v -78.000000 116.000000 27.000000 
v -102.000000 -33.000000 35.000000 
v -48.000000 116.000000 69.000000 
v -78.000000 116.000000 27.000000 
v -102.000000 -33.000000 35.000000 
v -63.000000 -33.000000 89.000000 
v -48.000000 116.000000 69.000000 
v -63.000000 -33.000000 89.000000 
v 0.000000 116.000000 84.000000 
v -48.000000 116.000000 69.000000 
v -63.000000 -33.000000 89.000000 
v 0.000000 -33.000000 110.000000 
v 0.000000 116.000000 84.000000 
v 0.000000 107.000000 89.000000 
v 48.000000 124.000000 69.000000 
v 0.000000 124.000000 84.000000 
v 0.000000 107.000000 89.000000 
v 52.000000 107.000000 72.000000 
v 48.000000 124.000000 69.000000 
v 52.000000 107.000000 72.000000 
v 78.000000 124.000000 27.000000 
v 48.000000 124.000000 69.000000 
v 52.000000 107.000000 72.000000 
v 84.000000 107.000000 29.000000 
v 78.000000 124.000000 27.000000 
v 84.000000 107.000000 29.000000 
v 78.000000 119.000000 -23.000000 
v 78.000000 124.000000 27.000000 
v 84.000000 107.000000 29.000000 
v 91.000000 97.000000 -36.000000 
v 78.000000 119.000000 -23.000000 
v 91.000000 97.000000 -36.000000 
v 48.000000 107.000000 -65.000000 
v 78.000000 119.000000 -23.000000 
v 91.000000 97.000000 -36.000000 
v 63.000000 82.000000 -72.000000 
v 48.000000 107.000000 -65.000000 
v 63.000000 82.000000 -72.000000 
v 0.000000 95.000000 -80.000000 
v 48.000000 107.000000 -65.000000 
v 63.000000 82.000000 -72.000000 
v 0.000000 77.000000 -84.000000 
v 0.000000 95.000000 -80.000000 
v 0.000000 77.000000 -84.000000 
v -48.000000 107.000000 -65.000000 
v 0.000000 95.000000 -80.000000 
v 0.000000 77.000000 -84.000000 
v -63.000000 82.000000 -72.000000 
v -48.000000 107.000000 -65.000000 
v -63.000000 82.000000 -72.000000 
v -78.000000 119.000000 -23.000000 
v -48.000000 107.000000 -65.000000 
v -63.000000 82.000000 -72.000000 
v -91.000000 97.000000 -36.000000 
v -78.000000 119.000000 -23.000000 
v -91.000000 97.000000 -36.000000 
v -78.000000 124.000000 27.000000 
v -78.000000 119.000000 -23.000000 
v -91.000000 97.000000 -36.000000 
v -84.000000 107.000000 29.000000 
v -78.000000 124.000000 27.000000 
v -84.000000 107.000000 29.000000 
v -48.000000 124.000000 69.000000 
v -78.000000 124.000000 27.000000 
v -84.000000 107.000000 29.000000 
v -52.000000 107.000000 72.000000 
v -48.000000 124.000000 69.000000 
v -52.000000 107.000000 72.000000 
v 0.000000 124.000000 84.000000 
v -48.000000 124.000000 69.000000 
v -52.000000 107.000000 72.000000 
v 0.000000 107.000000 89.000000 
v 0.000000 124.000000 84.000000 
v 15.000000 72.000000 -85.000000 
v 20.000000 68.000000 -71.000000 
v -20.000000 68.000000 -71.000000 
v -20.000000 68.000000 -71.000000 
v -15.000000 72.000000 -85.000000 
v 15.000000 72.000000 -85.000000 
v 15.000000 95.000000 -85.000000 
v -15.000000 95.000000 -85.000000 
v -20.000000 101.000000 -72.000000 
v -20.000000 101.000000 -72.000000 
v 20.000000 101.000000 -72.000000 
v 15.000000 95.000000 -85.000000 
v 15.000000 72.000000 -85.000000 
v -15.000000 72.000000 -85.000000 
v -15.000000 95.000000 -85.000000 
v -15.000000 95.000000 -85.000000 
v 15.000000 95.000000 -85.000000 
v 15.000000 72.000000 -85.000000 
v -15.000000 72.000000 -85.000000 
v -20.000000 68.000000 -71.000000 
v -20.000000 101.000000 -72.000000 
v -20.000000 101.000000 -72.000000 
v -15.000000 95.000000 -85.000000 
v -15.000000 72.000000 -85.000000 
v 20.000000 68.000000 -71.000000 
v 15.000000 72.000000 -85.000000 
v 15.000000 95.000000 -85.000000 
v 15.000000 95.000000 -85.000000 
v 20.000000 101.000000 -72.000000 
v 20.000000 68.000000 -71.000000 
vn 0.105957 0.164795 0.980469 
vn 0.490234 0.164795 0.855469 
vn -0.105957 0.164795 0.980469 
vn 0.105957 0.164795 0.980469 
vn 0.662109 0.164795 0.730713 
vn 0.490234 0.164795 0.855469 
vn 0.662109 0.164795 0.730713 
vn 0.899658 0.164795 0.403809 
vn 0.490234 0.164795 0.855469 
vn 0.662109 0.164795 0.730713 
vn 0.965332 0.164795 0.201904 
vn 0.899658 0.164795 0.403809 
vn 0.965332 0.164795 0.201904 
vn 0.963379 0.165039 -0.210449 
vn 0.899658 0.164795 0.403809 
vn 0.965332 0.164795 0.201904 
vn 0.895264 0.168213 -0.412109 
vn 0.963379 0.165039 -0.210449 
vn 0.895264 0.168213 -0.412109 
vn 0.645996 0.171143 -0.743652 
vn 0.963379 0.165039 -0.210449 
vn 0.895264 0.168213 -0.412109 
vn 0.478516 0.179932 -0.859131 
vn 0.645996 0.171143 -0.743652 
vn 0.478516 0.179932 -0.859131 
vn 0.106445 0.183594 -0.977051 
vn 0.645996 0.171143 -0.743652 
vn 0.478516 0.179932 -0.859131 
vn -0.092285 0.185059 -0.978271 
vn 0.106445 0.183594 -0.977051 
vn -0.092285 0.185059 -0.978271 
vn -0.468994 0.181152 -0.864258 
vn 0.106445 0.183594 -0.977051 
vn -0.092285 0.185059 -0.978271 
vn -0.653809 0.171875 -0.736572 
vn -0.468994 0.181152 -0.864258 
vn -0.653809 0.171875 -0.736572 
vn -0.894775 0.169189 -0.412842 
vn -0.468994 0.181152 -0.864258 
vn -0.653809 0.171875 -0.736572 
vn -0.965332 0.164795 -0.201904 
vn -0.894775 0.169189 -0.412842 
vn -0.965332 0.164795 -0.201904 
vn -0.965332 0.164795 0.201904 
vn -0.894775 0.169189 -0.412842 
vn -0.965332 0.164795 -0.201904 
vn -0.899658 0.164795 0.403809 
vn -0.965332 0.164795 0.201904 
vn -0.899658 0.164795 0.403809 
vn -0.662109 0.164795 0.730713 
vn -0.965332 0.164795 0.201904 
vn -0.899658 0.164795 0.403809 
vn -0.490234 0.164795 0.855469 
vn -0.662109 0.164795 0.730713 
vn -0.490234 0.164795 0.855469 
vn -0.105957 0.164795 0.980469 
vn -0.662109 0.164795 0.730713 
vn -0.490234 0.164795 0.855469 
vn 0.105957 0.164795 0.980469 
vn -0.105957 0.164795 0.980469 
vn 0.103516 0.250732 0.962402 
vn 0.474121 0.273438 0.836670 
vn -0.100830 0.251465 0.962402 
vn 0.103516 0.250732 0.962402 
vn 0.631836 0.308105 0.711182 
vn 0.474121 0.273438 0.836670 
vn 0.631836 0.308105 0.711182 
vn 0.858154 0.343506 0.381104 
vn 0.474121 0.273438 0.836670 
vn 0.631836 0.308105 0.711182 
vn 0.888184 0.418213 0.189453 
vn 0.858154 0.343506 0.381104 
vn 0.888184 0.418213 0.189453 
vn 0.816650 0.539307 -0.204346 
vn 0.858154 0.343506 0.381104 
vn 0.888184 0.418213 0.189453 
vn 0.681396 0.593750 -0.427734 
vn 0.816650 0.539307 -0.204346 
vn 0.681396 0.593750 -0.427734 
vn 0.431152 0.527100 -0.732178 
vn 0.816650 0.539307 -0.204346 
vn 0.681396 0.593750 -0.427734 
vn 0.311035 0.374756 -0.873291 
vn 0.431152 0.527100 -0.732178 
vn 0.311035 0.374756 -0.873291 
vn 0.038574 0.268311 -0.962402 
vn 0.431152 0.527100 -0.732178 
vn 0.311035 0.374756 -0.873291 
vn -0.074951 0.259521 -0.962646 
vn 0.038574 0.268311 -0.962402 
vn -0.074951 0.259521 -0.962646 
vn -0.347412 0.375732 -0.858887 
vn 0.038574 0.268311 -0.962402 
vn -0.074951 0.259521 -0.962646 
vn -0.411621 0.527100 -0.743164 
vn -0.347412 0.375732 -0.858887 
vn -0.411621 0.527100 -0.743164 
vn -0.662598 0.601807 -0.445312 
vn -0.347412 0.375732 -0.858887 
vn -0.411621 0.527100 -0.743164 
vn -0.796143 0.559570 -0.229248 
vn -0.662598 0.601807 -0.445312 
vn -0.796143 0.559570 -0.229248 
vn -0.882568 0.429443 0.190430 
vn -0.662598 0.601807 -0.445312 
vn -0.796143 0.559570 -0.229248 
vn -0.848389 0.342529 0.402832 
vn -0.882568 0.429443 0.190430 
vn -0.848389 0.342529 0.402832 
vn -0.633301 0.308838 0.709229 
vn -0.882568 0.429443 0.190430 
vn -0.848389 0.342529 0.402832 
vn -0.470459 0.273682 0.838623 
vn -0.633301 0.308838 0.709229 
vn -0.470459 0.273682 0.838623 
vn -0.100830 0.251465 0.962402 
vn -0.633301 0.308838 0.709229 
vn -0.470459 0.273682 0.838623 
vn 0.103516 0.250732 0.962402 
vn -0.100830 0.251465 0.962402 
vn 0.259033 -0.523926 -0.811035 
vn 0.803711 -0.413086 -0.427490 
vn -0.402344 -0.819824 -0.406738 
vn -0.402344 -0.819824 -0.406738 
vn -0.643799 -0.331299 -0.689453 
vn 0.259033 -0.523926 -0.811035 
vn 0.517334 0.498291 -0.695557 
vn -0.303955 0.296631 -0.905273 
vn -0.620117 0.598633 -0.506836 
vn -0.620117 0.598633 -0.506836 
vn 0.619385 0.595215 -0.511475 
vn 0.517334 0.498291 -0.695557 
vn 0.259033 -0.523926 -0.811035 
vn -0.643799 -0.331299 -0.689453 
vn -0.303955 0.296631 -0.905273 
vn -0.303955 0.296631 -0.905273 
vn 0.517334 0.498291 -0.695557 
vn 0.259033 -0.523926 -0.811035 
vn -0.643799 -0.331299 -0.689453 
vn -0.402344 -0.819824 -0.406738 
vn -0.620117 0.598633 -0.506836 
vn -0.620117 0.598633 -0.506836 
vn -0.303955 0.296631 -0.905273 
vn -0.643799 -0.331299 -0.689453 
vn 0.803711 -0.413086 -0.427490 
vn 0.259033 -0.523926 -0.811035 
vn 0.517334 0.498291 -0.695557 
vn 0.517334 0.498291 -0.695557 
vn 0.619385 0.595215 -0.511475 
vn 0.803711 -0.413086 -0.427490 
vt 0.000000 -0.015873 
vt 0.174603 0.492063 
vt 0.000000 0.492063 
vt 0.000000 -0.015873 
vt 0.174603 -0.015873 
vt 0.174603 0.492063 
vt 0.174603 -0.015873 
vt 0.412698 0.492063 
vt 0.174603 0.492063 
vt 0.174603 -0.015873 
vt 0.412698 -0.015873 
vt 0.412698 0.492063 
vt 0.412698 -0.015873 
vt 0.619048 0.492063 
vt 0.412698 0.492063 
vt 0.412698 -0.015873 
vt 0.619048 -0.015873 
vt 0.619048 0.492063 
vt 0.619048 -0.015873 
vt 0.825397 0.428571 
vt 0.619048 0.492063 
vt 0.619048 -0.015873 
vt 0.825397 -0.015873 
vt 0.825397 0.428571 
vt 0.825397 -0.015873 
vt 1.000000 0.349206 
vt 0.825397 0.428571 
vt 0.825397 -0.015873 
vt 1.000000 -0.015873 
vt 1.000000 0.349206 
vt 1.000000 -0.015873 
vt 0.825397 0.428571 
vt 1.000000 0.349206 
vt 1.000000 -0.015873 
vt 0.825397 -0.015873 
vt 0.825397 0.428571 
vt 0.825397 -0.015873 
vt 0.619048 0.492063 
vt 0.825397 0.428571 
vt 0.825397 -0.015873 
vt 0.619048 -0.015873 
vt 0.619048 0.492063 
vt 0.619048 -0.015873 
vt 0.412698 0.492063 
vt 0.619048 0.492063 
vt 0.619048 -0.015873 
vt 0.412698 -0.015873 
vt 0.412698 0.492063 
vt 0.412698 -0.015873 
vt 0.174603 0.492063 
vt 0.412698 0.492063 
vt 0.412698 -0.015873 
vt 0.174603 -0.015873 
vt 0.174603 0.492063 
vt 0.174603 -0.015873 
vt 0.000000 0.492063 
vt 0.174603 0.492063 
vt 0.174603 -0.015873 
vt 0.000000 -0.015873 
vt 0.000000 0.492063 
vt 0.952381 0.603175 
vt 0.730159 0.920635 
vt 0.952381 0.888889 
vt 0.952381 0.603175 
vt 0.714286 0.603175 
vt 0.730159 0.920635 
vt 0.714286 0.603175 
vt 0.523810 0.936508 
vt 0.730159 0.920635 
vt 0.714286 0.603175 
vt 0.539683 0.650794 
vt 0.523810 0.936508 
vt 0.539683 0.650794 
vt 0.634921 0.920635 
vt 0.523810 0.936508 
vt 0.539683 0.650794 
vt 0.650794 0.603175 
vt 0.634921 0.920635 
vt 0.650794 0.603175 
vt 0.777778 0.920635 
vt 0.634921 0.920635 
vt 0.650794 0.603175 
vt 0.809524 0.571429 
vt 0.777778 0.920635 
vt 0.809524 0.571429 
vt 0.936508 0.920635 
vt 0.777778 0.920635 
vt 0.809524 0.571429 
vt 0.968254 0.603175 
vt 0.936508 0.920635 
vt 0.968254 0.603175 
vt 0.777778 0.920635 
vt 0.936508 0.920635 
vt 0.968254 0.603175 
vt 0.809524 0.571429 
vt 0.777778 0.920635 
vt 0.809524 0.571429 
vt 0.634921 0.920635 
vt 0.777778 0.920635 
vt 0.809524 0.571429 
vt 0.650794 0.603175 
vt 0.634921 0.920635 
vt 0.650794 0.603175 
vt 0.523810 0.936508 
vt 0.634921 0.920635 
vt 0.650794 0.603175 
vt 0.539683 0.650794 
vt 0.523810 0.936508 
vt 0.539683 0.650794 
vt 0.730159 0.920635 
vt 0.523810 0.936508 
vt 0.539683 0.650794 
vt 0.714286 0.603175 
vt 0.730159 0.920635 
vt 0.714286 0.603175 
vt 0.952381 0.888889 
vt 0.730159 0.920635 
vt 0.714286 0.603175 
vt 0.952381 0.603175 
vt 0.952381 0.888889 
vt 0.571429 0.587302 
vt 0.507937 0.507937 
vt 0.984127 0.507937 
vt 0.984127 0.507937 
vt 0.936508 0.587302 
vt 0.571429 0.587302 
vt 0.571429 0.904762 
vt 0.936508 0.904762 
vt 0.984127 0.984127 
vt 0.984127 0.984127 
vt 0.507937 0.984127 
vt 0.571429 0.904762 
vt 0.571429 0.587302 
vt 0.936508 0.587302 
vt 0.936508 0.904762 
vt 0.936508 0.904762 
vt 0.571429 0.904762 
vt 0.571429 0.587302 
vt 0.936508 0.587302 
vt 0.984127 0.507937 
vt 0.984127 0.984127 
vt 0.984127 0.984127 
vt 0.936508 0.904762 
vt 0.936508 0.587302 
vt 0.507937 0.507937 
vt 0.571429 0.587302 
vt 0.571429 0.904762 
vt 0.571429 0.904762 
vt 0.507937 0.984127 
vt 0.507937 0.507937 
f 1/1/1 2/2/2 3/3/3
f 4/4/4 5/5/5 6/6/6
f 7/7/7 8/8/8 9/9/9
f 10/10/10 11/11/11 12/12/12
f 13/13/13 14/14/14 15/15/15
f 16/16/16 17/17/17 18/18/18
f 19/19/19 20/20/20 21/21/21
f 22/22/22 23/23/23 24/24/24
f 25/25/25 26/26/26 27/27/27
f 28/28/28 29/29/29 30/30/30
f 31/31/31 32/32/32 33/33/33
f 34/34/34 35/35/35 36/36/36
f 37/37/37 38/38/38 39/39/39
f 40/40/40 41/41/41 42/42/42
f 43/43/43 44/44/44 45/45/45
f 46/46/46 47/47/47 48/48/48
f 49/49/49 50/50/50 51/51/51
f 52/52/52 53/53/53 54/54/54
f 55/55/55 56/56/56 57/57/57
f 58/58/58 59/59/59 60/60/60
f 61/61/61 62/62/62 63/63/63
f 64/64/64 65/65/65 66/66/66
f 67/67/67 68/68/68 69/69/69
f 70/70/70 71/71/71 72/72/72
f 73/73/73 74/74/74 75/75/75
f 76/76/76 77/77/77 78/78/78
f 79/79/79 80/80/80 81/81/81
f 82/82/82 83/83/83 84/84/84
f 85/85/85 86/86/86 87/87/87
f 88/88/88 89/89/89 90/90/90
f 91/91/91 92/92/92 93/93/93
f 94/94/94 95/95/95 96/96/96
f 97/97/97 98/98/98 99/99/99
f 100/100/100 101/101/101 102/102/102
f 103/103/103 104/104/104 105/105/105
f 106/106/106 107/107/107 108/108/108
f 109/109/109 110/110/110 111/111/111
f 112/112/112 113/113/113 114/114/114
f 115/115/115 116/116/116 117/117/117
f 118/118/118 119/119/119 120/120/120
f 121/121/121 122/122/122 123/123/123
f 124/124/124 125/125/125 126/126/126
f 127/127/127 128/128/128 129/129/129
f 130/130/130 131/131/131 132/132/132
f 133/133/133 134/134/134 135/135/135
f 136/136/136 137/137/137 138/138/138
f 139/139/139 140/140/140 141/141/141
f 142/142/142 143/143/143 144/144/144
f 145/145/145 146/146/146 147/147/147
f 148/148/148 149/149/149 150/150/150
