v 41.000000 62.000000 53.000000 
v 57.000000 17.000000 66.000000 
v 85.000000 16.000000 21.000000 
v 39.000000 81.000000 30.000000 
v 41.000000 62.000000 53.000000 
v 85.000000 16.000000 21.000000 
v 41.000000 67.000000 5.000000 
v 39.000000 81.000000 30.000000 
v 85.000000 16.000000 21.000000 
v 58.000000 -45.000000 4.000000 
v 41.000000 67.000000 5.000000 
v 85.000000 16.000000 21.000000 
v 59.000000 -60.000000 27.000000 
v 58.000000 -45.000000 4.000000 
v 85.000000 16.000000 21.000000 
v 57.000000 -41.000000 51.000000 
v 59.000000 -60.000000 27.000000 
v 85.000000 16.000000 21.000000 
v 57.000000 17.000000 66.000000 
v 57.000000 -41.000000 51.000000 
v 85.000000 16.000000 21.000000 
vn 0.366699 0.645508 0.669678 
vn 0.235107 0.043213 0.970947 
vn 0.996582 0.062256 0.051758 
vn 0.508789 0.857910 0.068359 
vn 0.366699 0.645508 0.669678 
vn 0.996582 0.062256 0.051758 
vn 0.323975 0.592041 -0.737793 
vn 0.508789 0.857910 0.068359 
vn 0.996582 0.062256 0.051758 
vn 0.290771 -0.350586 -0.890137 
vn 0.323975 0.592041 -0.737793 
vn 0.996582 0.062256 0.051758 
vn 0.447021 -0.886475 -0.117188 
vn 0.290771 -0.350586 -0.890137 
vn 0.996582 0.062256 0.051758 
vn 0.392578 -0.607910 0.689697 
vn 0.447021 -0.886475 -0.117188 
vn 0.996582 0.062256 0.051758 
vn 0.235107 0.043213 0.970947 
vn 0.392578 -0.607910 0.689697 
vn 0.996582 0.062256 0.051758 
vt 0.537255 0.058824 
vt 0.627451 0.058824 
vt 0.627451 0.011765 
vt 0.509804 0.011765 
vt 0.537255 0.058824 
vt 0.627451 0.011765 
vt 0.525490 0.000000 
vt 0.509804 0.011765 
vt 0.627451 0.011765 
vt 0.733333 0.007843 
vt 0.525490 0.000000 
vt 0.627451 0.011765 
vt 0.725490 0.023529 
vt 0.733333 0.007843 
vt 0.627451 0.011765 
vt 0.705882 0.066667 
vt 0.725490 0.023529 
vt 0.627451 0.011765 
vt 0.627451 0.058824 
vt 0.705882 0.066667 
vt 0.627451 0.011765 
f 1/1/1 2/2/2 3/3/3
f 4/4/4 5/5/5 6/6/6
f 7/7/7 8/8/8 9/9/9
f 10/10/10 11/11/11 12/12/12
f 13/13/13 14/14/14 15/15/15
f 16/16/16 17/17/17 18/18/18
f 19/19/19 20/20/20 21/21/21
