v 14.000000 -1.000000 -42.000000 
v -17.000000 -1.000000 -42.000000 
v -3.000000 15.000000 -63.000000 
v 14.000000 2.000000 -9.000000 
v -16.000000 2.000000 -9.000000 
v -17.000000 -1.000000 -42.000000 
v -17.000000 -1.000000 -42.000000 
v 14.000000 -1.000000 -42.000000 
v 14.000000 2.000000 -9.000000 
v 8.000000 -3.000000 11.000000 
v -11.000000 -3.000000 11.000000 
v -13.000000 -3.000000 -6.000000 
v -13.000000 -3.000000 -6.000000 
v 10.000000 -3.000000 -6.000000 
v 8.000000 -3.000000 11.000000 
v -3.000000 15.000000 -63.000000 
v -11.000000 13.000000 -37.000000 
v 8.000000 13.000000 -37.000000 
v 6.000000 20.000000 -18.000000 
v 8.000000 13.000000 -37.000000 
v -11.000000 13.000000 -37.000000 
v -11.000000 13.000000 -37.000000 
v -9.000000 20.000000 -18.000000 
v 6.000000 20.000000 -18.000000 
v 8.000000 21.000000 2.000000 
v 6.000000 20.000000 -18.000000 
v -9.000000 20.000000 -18.000000 
v -9.000000 20.000000 -18.000000 
v -10.000000 21.000000 2.000000 
v 8.000000 21.000000 2.000000 
v 12.000000 9.000000 -40.000000 
v 14.000000 -1.000000 -42.000000 
v -3.000000 15.000000 -63.000000 
v 14.000000 14.000000 -13.000000 
v 14.000000 2.000000 -9.000000 
v 14.000000 -1.000000 -42.000000 
v 14.000000 -1.000000 -42.000000 
v 12.000000 9.000000 -40.000000 
v 14.000000 14.000000 -13.000000 
v 11.000000 16.000000 14.000000 
v 11.000000 3.000000 16.000000 
v 14.000000 2.000000 -9.000000 
v 14.000000 2.000000 -9.000000 
v 14.000000 14.000000 -13.000000 
v 11.000000 16.000000 14.000000 
v 8.000000 13.000000 -37.000000 
v 12.000000 9.000000 -40.000000 
v -3.000000 15.000000 -63.000000 
v 6.000000 20.000000 -18.000000 
v 14.000000 14.000000 -13.000000 
v 12.000000 9.000000 -40.000000 
v 12.000000 9.000000 -40.000000 
v 8.000000 13.000000 -37.000000 
v 6.000000 20.000000 -18.000000 
v 8.000000 21.000000 2.000000 
v 11.000000 16.000000 14.000000 
v 14.000000 14.000000 -13.000000 
v 14.000000 14.000000 -13.000000 
v 6.000000 20.000000 -18.000000 
v 8.000000 21.000000 2.000000 
v -14.000000 16.000000 14.000000 
v -14.000000 3.000000 16.000000 
v 11.000000 3.000000 16.000000 
v 11.000000 3.000000 16.000000 
v 11.000000 16.000000 14.000000 
v -14.000000 16.000000 14.000000 
v -10.000000 21.000000 2.000000 
v -14.000000 16.000000 14.000000 
v 11.000000 16.000000 14.000000 
v 11.000000 16.000000 14.000000 
v 8.000000 21.000000 2.000000 
v -10.000000 21.000000 2.000000 
v -16.000000 14.000000 -13.000000 
v -16.000000 2.000000 -9.000000 
v -14.000000 3.000000 16.000000 
v -14.000000 3.000000 16.000000 
v -14.000000 16.000000 14.000000 
v -16.000000 14.000000 -13.000000 
v -14.000000 9.000000 -39.000000 
v -17.000000 -1.000000 -42.000000 
v -16.000000 2.000000 -9.000000 
v -16.000000 2.000000 -9.000000 
v -16.000000 14.000000 -13.000000 
v -14.000000 9.000000 -39.000000 
v -17.000000 -1.000000 -42.000000 
v -14.000000 9.000000 -39.000000 
v -3.000000 15.000000 -63.000000 
v -9.000000 20.000000 -18.000000 
v -16.000000 14.000000 -13.000000 
v -14.000000 16.000000 14.000000 
v -14.000000 16.000000 14.000000 
v -10.000000 21.000000 2.000000 
v -9.000000 20.000000 -18.000000 
v -11.000000 13.000000 -37.000000 
v -14.000000 9.000000 -39.000000 
v -16.000000 14.000000 -13.000000 
v -16.000000 14.000000 -13.000000 
v -9.000000 20.000000 -18.000000 
v -11.000000 13.000000 -37.000000 
v -14.000000 9.000000 -39.000000 
v -11.000000 13.000000 -37.000000 
v -3.000000 15.000000 -63.000000 
v -13.000000 -3.000000 -6.000000 
v -16.000000 2.000000 -9.000000 
v 14.000000 2.000000 -9.000000 
v 14.000000 2.000000 -9.000000 
v 10.000000 -3.000000 -6.000000 
v -13.000000 -3.000000 -6.000000 
v -11.000000 -3.000000 11.000000 
v -14.000000 3.000000 16.000000 
v -16.000000 2.000000 -9.000000 
v -16.000000 2.000000 -9.000000 
v -13.000000 -3.000000 -6.000000 
v -11.000000 -3.000000 11.000000 
v 8.000000 -3.000000 11.000000 
v 11.000000 3.000000 16.000000 
v -14.000000 3.000000 16.000000 
v -14.000000 3.000000 16.000000 
v -11.000000 -3.000000 11.000000 
v 8.000000 -3.000000 11.000000 
v 10.000000 -3.000000 -6.000000 
v 14.000000 2.000000 -9.000000 
v 11.000000 3.000000 16.000000 
v 11.000000 3.000000 16.000000 
v 8.000000 -3.000000 11.000000 
v 10.000000 -3.000000 -6.000000 
vn -0.007080 -0.948730 -0.315674 
vn -0.007324 -0.989258 -0.145508 
vn -0.005127 -0.689941 -0.723633 
vn -0.007324 -0.986084 0.165771 
vn -0.007568 -0.986084 0.165771 
vn -0.007324 -0.989258 -0.145508 
vn -0.007324 -0.989258 -0.145508 
vn -0.007080 -0.948730 -0.315674 
vn -0.007324 -0.986084 0.165771 
vn -0.010742 -0.999756 -0.009766 
vn -0.011475 -0.999756 -0.008789 
vn -0.010742 -0.999756 -0.009766 
vn -0.010742 -0.999756 -0.009766 
vn -0.009766 -0.999756 -0.010986 
vn -0.010742 -0.999756 -0.009766 
vn 0.011963 0.996826 0.076416 
vn 0.012451 0.967529 -0.252197 
vn 0.011719 0.985352 -0.169434 
vn 0.013184 0.956055 -0.292236 
vn 0.011719 0.985352 -0.169434 
vn 0.012451 0.967529 -0.252197 
vn 0.012451 0.967529 -0.252197 
vn 0.013672 0.984863 -0.171875 
vn 0.013184 0.956055 -0.292236 
vn 0.013428 0.998535 -0.050049 
vn 0.013184 0.956055 -0.292236 
vn 0.013672 0.984863 -0.171875 
vn 0.013672 0.984863 -0.171875 
vn 0.012451 0.998535 -0.049316 
vn 0.013428 0.998535 -0.050049 
vn 0.823975 0.497070 -0.271484 
vn 0.972900 0.112061 -0.201416 
vn 0.787109 0.468506 -0.400879 
vn 0.936279 0.348877 -0.038574 
vn 0.997803 0.010986 0.061768 
vn 0.972900 0.112061 -0.201416 
vn 0.972900 0.112061 -0.201416 
vn 0.823975 0.497070 -0.271484 
vn 0.936279 0.348877 -0.038574 
vn 0.979004 0.190918 0.070312 
vn 0.995850 0.008057 0.090576 
vn 0.997803 0.010986 0.061768 
vn 0.997803 0.010986 0.061768 
vn 0.936279 0.348877 -0.038574 
vn 0.979004 0.190918 0.070312 
vn 0.665039 0.702881 -0.251709 
vn 0.823975 0.497070 -0.271484 
vn 0.787109 0.468506 -0.400879 
vn 0.718994 0.671875 -0.177002 
vn 0.936279 0.348877 -0.038574 
vn 0.823975 0.497070 -0.271484 
vn 0.823975 0.497070 -0.271484 
vn 0.665039 0.702881 -0.251709 
vn 0.718994 0.671875 -0.177002 
vn 0.796631 0.603760 -0.026123 
vn 0.979004 0.190918 0.070312 
vn 0.936279 0.348877 -0.038574 
vn 0.936279 0.348877 -0.038574 
vn 0.718994 0.671875 -0.177002 
vn 0.796631 0.603760 -0.026123 
vn 0.003418 0.394043 0.918945 
vn 0.000732 0.090820 0.995605 
vn 0.000732 0.090820 0.995605 
vn 0.000732 0.090820 0.995605 
vn 0.007324 0.687744 0.725586 
vn 0.003418 0.394043 0.918945 
vn 0.009521 0.878662 0.477051 
vn 0.003418 0.394043 0.918945 
vn 0.007324 0.687744 0.725586 
vn 0.007324 0.687744 0.725586 
vn 0.010986 0.879883 0.474854 
vn 0.009521 0.878662 0.477051 
vn -0.938965 0.340332 -0.048828 
vn -0.998291 0.055664 0.002930 
vn -0.996094 0.015381 0.085938 
vn -0.996094 0.015381 0.085938 
vn -0.925781 0.377686 0.005371 
vn -0.938965 0.340332 -0.048828 
vn -0.933594 0.314453 -0.171143 
vn -0.963623 0.191162 -0.186279 
vn -0.998291 0.055664 0.002930 
vn -0.998291 0.055664 0.002930 
vn -0.938965 0.340332 -0.048828 
vn -0.933594 0.314453 -0.171143 
vn -0.963623 0.191162 -0.186279 
vn -0.933594 0.314453 -0.171143 
vn -0.870850 0.404053 -0.279053 
vn -0.815430 0.572021 -0.087402 
vn -0.938965 0.340332 -0.048828 
vn -0.925781 0.377686 0.005371 
vn -0.925781 0.377686 0.005371 
vn -0.926758 0.367432 -0.075439 
vn -0.815430 0.572021 -0.087402 
vn -0.784180 0.589355 -0.192871 
vn -0.933594 0.314453 -0.171143 
vn -0.938965 0.340332 -0.048828 
vn -0.938965 0.340332 -0.048828 
vn -0.815430 0.572021 -0.087402 
vn -0.784180 0.589355 -0.192871 
vn -0.933594 0.314453 -0.171143 
vn -0.784180 0.589355 -0.192871 
vn -0.870850 0.404053 -0.279053 
vn -0.002930 -0.408691 -0.912598 
vn -0.002930 -0.408691 -0.912598 
vn -0.002930 -0.408691 -0.912598 
vn -0.003906 -0.406006 -0.913574 
vn -0.003906 -0.406006 -0.913574 
vn -0.003906 -0.406006 -0.913574 
vn -0.944092 -0.311523 0.105469 
vn -0.944092 -0.311523 0.105469 
vn -0.944092 -0.311523 0.105469 
vn -0.933838 -0.345947 0.090088 
vn -0.933838 -0.345947 0.090088 
vn -0.933838 -0.345947 0.090088 
vn -0.003662 -0.408203 0.912842 
vn -0.003662 -0.408203 0.912842 
vn -0.003662 -0.408203 0.912842 
vn -0.004639 -0.410156 0.911865 
vn -0.004639 -0.410156 0.911865 
vn -0.004639 -0.410156 0.911865 
vn 0.927490 -0.357666 0.106689 
vn 0.927490 -0.357666 0.106689 
vn 0.927490 -0.357666 0.106689 
vn 0.941895 -0.322754 0.091064 
vn 0.941895 -0.322754 0.091064 
vn 0.941895 -0.322754 0.091064 
vt 0.516129 0.225806 
vt 0.000000 0.225806 
vt 0.258065 0.032258 
vt 0.516129 0.645161 
vt 0.000000 0.645161 
vt 0.000000 0.225806 
vt 0.000000 0.225806 
vt 0.516129 0.225806 
vt 0.516129 0.645161 
vt 0.322581 0.935484 
vt 0.161290 0.935484 
vt 0.096774 0.677419 
vt 0.096774 0.677419 
vt 0.387097 0.677419 
vt 0.322581 0.935484 
vt 0.258065 0.032258 
vt 0.161290 0.290323 
vt 0.322581 0.290323 
vt 0.258065 0.516129 
vt 0.322581 0.290323 
vt 0.161290 0.290323 
vt 0.161290 0.290323 
vt 0.225806 0.516129 
vt 0.258065 0.516129 
vt 0.322581 0.806452 
vt 0.258065 0.516129 
vt 0.225806 0.516129 
vt 0.225806 0.516129 
vt 0.193548 0.806452 
vt 0.322581 0.806452 
vt 0.451613 0.258065 
vt 0.516129 0.225806 
vt 0.258065 0.032258 
vt 0.516129 0.580645 
vt 0.516129 0.645161 
vt 0.516129 0.225806 
vt 0.516129 0.225806 
vt 0.451613 0.258065 
vt 0.516129 0.580645 
vt 0.419355 0.967742 
vt 0.419355 0.967742 
vt 0.516129 0.645161 
vt 0.516129 0.645161 
vt 0.516129 0.580645 
vt 0.419355 0.967742 
vt 0.322581 0.290323 
vt 0.451613 0.258065 
vt 0.258065 0.032258 
vt 0.258065 0.516129 
vt 0.516129 0.580645 
vt 0.451613 0.258065 
vt 0.451613 0.258065 
vt 0.322581 0.290323 
vt 0.258065 0.516129 
vt 0.322581 0.806452 
vt 0.419355 0.967742 
vt 0.516129 0.580645 
vt 0.516129 0.580645 
vt 0.258065 0.516129 
vt 0.322581 0.806452 
vt 0.064516 0.967742 
vt 0.064516 0.967742 
vt 0.419355 0.967742 
vt 0.419355 0.967742 
vt 0.419355 0.967742 
vt 0.064516 0.967742 
vt 0.193548 0.806452 
vt 0.064516 0.967742 
vt 0.419355 0.967742 
vt 0.419355 0.967742 
vt 0.322581 0.806452 
vt 0.193548 0.806452 
vt 0.000000 0.580645 
vt 0.000000 0.645161 
vt 0.064516 0.967742 
vt 0.064516 0.967742 
vt 0.064516 0.967742 
vt 0.000000 0.580645 
vt 0.064516 0.258065 
vt 0.000000 0.225806 
vt 0.000000 0.645161 
vt 0.000000 0.645161 
vt 0.000000 0.580645 
vt 0.064516 0.258065 
vt 0.000000 0.225806 
vt 0.064516 0.258065 
vt 0.258065 0.032258 
vt 0.225806 0.516129 
vt 0.000000 0.580645 
vt 0.064516 0.967742 
vt 0.064516 0.967742 
vt 0.193548 0.806452 
vt 0.225806 0.516129 
vt 0.161290 0.290323 
vt 0.064516 0.258065 
vt 0.000000 0.580645 
vt 0.000000 0.580645 
vt 0.225806 0.516129 
vt 0.161290 0.290323 
vt 0.064516 0.258065 
vt 0.161290 0.290323 
vt 0.258065 0.032258 
vt 0.096774 0.677419 
vt 0.000000 0.645161 
vt 0.516129 0.645161 
vt 0.516129 0.645161 
vt 0.387097 0.677419 
vt 0.096774 0.677419 
vt 0.161290 0.935484 
vt 0.064516 0.967742 
vt 0.000000 0.645161 
vt 0.000000 0.645161 
vt 0.096774 0.677419 
vt 0.161290 0.935484 
vt 0.322581 0.935484 
vt 0.419355 0.967742 
vt 0.064516 0.967742 
vt 0.064516 0.967742 
vt 0.161290 0.935484 
vt 0.322581 0.935484 
vt 0.387097 0.677419 
vt 0.516129 0.645161 
vt 0.419355 0.967742 
vt 0.419355 0.967742 
vt 0.322581 0.935484 
vt 0.387097 0.677419 
f 1/1/1 2/2/2 3/3/3
f 4/4/4 5/5/5 6/6/6
f 7/7/7 8/8/8 9/9/9
f 10/10/10 11/11/11 12/12/12
f 13/13/13 14/14/14 15/15/15
f 16/16/16 17/17/17 18/18/18
f 19/19/19 20/20/20 21/21/21
f 22/22/22 23/23/23 24/24/24
f 25/25/25 26/26/26 27/27/27
f 28/28/28 29/29/29 30/30/30
f 31/31/31 32/32/32 33/33/33
f 34/34/34 35/35/35 36/36/36
f 37/37/37 38/38/38 39/39/39
f 40/40/40 41/41/41 42/42/42
f 43/43/43 44/44/44 45/45/45
f 46/46/46 47/47/47 48/48/48
f 49/49/49 50/50/50 51/51/51
f 52/52/52 53/53/53 54/54/54
f 55/55/55 56/56/56 57/57/57
f 58/58/58 59/59/59 60/60/60
f 61/61/61 62/62/62 63/63/63
f 64/64/64 65/65/65 66/66/66
f 67/67/67 68/68/68 69/69/69
f 70/70/70 71/71/71 72/72/72
f 73/73/73 74/74/74 75/75/75
f 76/76/76 77/77/77 78/78/78
f 79/79/79 80/80/80 81/81/81
f 82/82/82 83/83/83 84/84/84
f 85/85/85 86/86/86 87/87/87
f 88/88/88 89/89/89 90/90/90
f 91/91/91 92/92/92 93/93/93
f 94/94/94 95/95/95 96/96/96
f 97/97/97 98/98/98 99/99/99
f 100/100/100 101/101/101 102/102/102
f 103/103/103 104/104/104 105/105/105
f 106/106/106 107/107/107 108/108/108
f 109/109/109 110/110/110 111/111/111
f 112/112/112 113/113/113 114/114/114
f 115/115/115 116/116/116 117/117/117
f 118/118/118 119/119/119 120/120/120
f 121/121/121 122/122/122 123/123/123
f 124/124/124 125/125/125 126/126/126
