v 82.000000 425.000000 338.000000 
v 105.000000 408.000000 346.000000 
v 105.000000 420.000000 328.000000 
v 79.000000 434.000000 324.000000 
v 82.000000 425.000000 338.000000 
v 105.000000 420.000000 328.000000 
v 93.000000 435.000000 311.000000 
v 79.000000 434.000000 324.000000 
v 105.000000 420.000000 328.000000 
v 116.000000 419.000000 309.000000 
v 93.000000 435.000000 311.000000 
v 105.000000 420.000000 328.000000 
v 130.000000 401.000000 323.000000 
v 116.000000 419.000000 309.000000 
v 105.000000 420.000000 328.000000 
v 131.000000 388.000000 336.000000 
v 130.000000 401.000000 323.000000 
v 105.000000 420.000000 328.000000 
v 105.000000 408.000000 346.000000 
v 131.000000 388.000000 336.000000 
v 105.000000 420.000000 328.000000 
v 49.000000 422.000000 342.000000 
v 97.000000 397.000000 360.000000 
v 105.000000 408.000000 346.000000 
v 82.000000 425.000000 338.000000 
v 49.000000 422.000000 342.000000 
v 105.000000 408.000000 346.000000 
v 36.000000 440.000000 313.000000 
v 49.000000 422.000000 342.000000 
v 82.000000 425.000000 338.000000 
v 79.000000 434.000000 324.000000 
v 36.000000 440.000000 313.000000 
v 82.000000 425.000000 338.000000 
v 91.000000 439.000000 293.000000 
v 36.000000 440.000000 313.000000 
v 79.000000 434.000000 324.000000 
v 93.000000 435.000000 311.000000 
v 91.000000 439.000000 293.000000 
v 79.000000 434.000000 324.000000 
v 122.000000 421.000000 293.000000 
v 91.000000 439.000000 293.000000 
v 93.000000 435.000000 311.000000 
v 116.000000 419.000000 309.000000 
v 122.000000 421.000000 293.000000 
v 93.000000 435.000000 311.000000 
v 145.000000 385.000000 314.000000 
v 122.000000 421.000000 293.000000 
v 116.000000 419.000000 309.000000 
v 130.000000 401.000000 323.000000 
v 145.000000 385.000000 314.000000 
v 116.000000 419.000000 309.000000 
v 139.000000 360.000000 336.000000 
v 145.000000 385.000000 314.000000 
v 130.000000 401.000000 323.000000 
v 131.000000 388.000000 336.000000 
v 139.000000 360.000000 336.000000 
v 130.000000 401.000000 323.000000 
v 97.000000 397.000000 360.000000 
v 139.000000 360.000000 336.000000 
v 131.000000 388.000000 336.000000 
v 105.000000 408.000000 346.000000 
v 97.000000 397.000000 360.000000 
v 131.000000 388.000000 336.000000 
v -105.000000 408.000000 346.000000 
v -82.000000 425.000000 338.000000 
v -105.000000 420.000000 328.000000 
v -82.000000 425.000000 338.000000 
v -79.000000 434.000000 324.000000 
v -105.000000 420.000000 328.000000 
v -79.000000 434.000000 324.000000 
v -93.000000 435.000000 311.000000 
v -105.000000 420.000000 328.000000 
v -93.000000 435.000000 311.000000 
v -116.000000 419.000000 309.000000 
v -105.000000 420.000000 328.000000 
v -116.000000 419.000000 309.000000 
v -130.000000 401.000000 323.000000 
v -105.000000 420.000000 328.000000 
v -130.000000 401.000000 323.000000 
v -131.000000 388.000000 336.000000 
v -105.000000 420.000000 328.000000 
v -131.000000 388.000000 336.000000 
v -105.000000 408.000000 346.000000 
v -105.000000 420.000000 328.000000 
v -97.000000 397.000000 360.000000 
v -49.000000 422.000000 342.000000 
v -105.000000 408.000000 346.000000 
v -49.000000 422.000000 342.000000 
v -82.000000 425.000000 338.000000 
v -105.000000 408.000000 346.000000 
v -49.000000 422.000000 342.000000 
v -36.000000 440.000000 313.000000 
v -82.000000 425.000000 338.000000 
v -36.000000 440.000000 313.000000 
v -79.000000 434.000000 324.000000 
v -82.000000 425.000000 338.000000 
v -36.000000 440.000000 313.000000 
v -91.000000 439.000000 293.000000 
v -79.000000 434.000000 324.000000 
v -91.000000 439.000000 293.000000 
v -93.000000 435.000000 311.000000 
v -79.000000 434.000000 324.000000 
v -91.000000 439.000000 293.000000 
v -122.000000 421.000000 293.000000 
v -93.000000 435.000000 311.000000 
v -122.000000 421.000000 293.000000 
v -116.000000 419.000000 309.000000 
v -93.000000 435.000000 311.000000 
v -122.000000 421.000000 293.000000 
v -145.000000 385.000000 314.000000 
v -116.000000 419.000000 309.000000 
v -145.000000 385.000000 314.000000 
v -130.000000 401.000000 323.000000 
v -116.000000 419.000000 309.000000 
v -145.000000 385.000000 314.000000 
v -139.000000 360.000000 336.000000 
v -130.000000 401.000000 323.000000 
v -139.000000 360.000000 336.000000 
v -131.000000 388.000000 336.000000 
v -130.000000 401.000000 323.000000 
v -139.000000 360.000000 336.000000 
v -97.000000 397.000000 360.000000 
v -131.000000 388.000000 336.000000 
v -97.000000 397.000000 360.000000 
v -105.000000 408.000000 346.000000 
v -131.000000 388.000000 336.000000 
vn 0.182861 0.779053 0.599365 
vn 0.407715 0.633057 0.657715 
vn 0.538818 0.729248 0.421387 
vn 0.216309 0.906494 0.361816 
vn 0.182861 0.779053 0.599365 
vn 0.538818 0.729248 0.421387 
vn 0.461426 0.843262 0.274658 
vn 0.216309 0.906494 0.361816 
vn 0.538818 0.729248 0.421387 
vn 0.660645 0.703613 0.260742 
vn 0.461426 0.843262 0.274658 
vn 0.538818 0.729248 0.421387 
vn 0.771729 0.531250 0.349121 
vn 0.660645 0.703613 0.260742 
vn 0.538818 0.729248 0.421387 
vn 0.722412 0.439209 0.533691 
vn 0.771729 0.531250 0.349121 
vn 0.538818 0.729248 0.421387 
vn 0.407715 0.633057 0.657715 
vn 0.722412 0.439209 0.533691 
vn 0.538818 0.729248 0.421387 
vn 0.074219 0.706299 0.703857 
vn 0.491943 0.481689 0.724854 
vn 0.407715 0.633057 0.657715 
vn 0.182861 0.779053 0.599365 
vn 0.074219 0.706299 0.703857 
vn 0.407715 0.633057 0.657715 
vn 0.019043 0.908691 0.416504 
vn 0.074219 0.706299 0.703857 
vn 0.182861 0.779053 0.599365 
vn 0.216309 0.906494 0.361816 
vn 0.019043 0.908691 0.416504 
vn 0.182861 0.779053 0.599365 
vn 0.265625 0.947021 0.179199 
vn 0.019043 0.908691 0.416504 
vn 0.216309 0.906494 0.361816 
vn 0.461426 0.843262 0.274658 
vn 0.265625 0.947021 0.179199 
vn 0.216309 0.906494 0.361816 
vn 0.609863 0.749756 0.255859 
vn 0.265625 0.947021 0.179199 
vn 0.461426 0.843262 0.274658 
vn 0.660645 0.703613 0.260742 
vn 0.609863 0.749756 0.255859 
vn 0.461426 0.843262 0.274658 
vn 0.758789 0.554199 0.341553 
vn 0.609863 0.749756 0.255859 
vn 0.660645 0.703613 0.260742 
vn 0.771729 0.531250 0.349121 
vn 0.758789 0.554199 0.341553 
vn 0.660645 0.703613 0.260742 
vn 0.807373 0.275879 0.520996 
vn 0.758789 0.554199 0.341553 
vn 0.771729 0.531250 0.349121 
vn 0.722412 0.439209 0.533691 
vn 0.807373 0.275879 0.520996 
vn 0.771729 0.531250 0.349121 
vn 0.491943 0.481689 0.724854 
vn 0.807373 0.275879 0.520996 
vn 0.722412 0.439209 0.533691 
vn 0.407715 0.633057 0.657715 
vn 0.491943 0.481689 0.724854 
vn 0.722412 0.439209 0.533691 
vn -0.407715 0.633057 0.657715 
vn -0.182861 0.779053 0.599365 
vn -0.538818 0.729248 0.421387 
vn -0.182861 0.779053 0.599365 
vn -0.216309 0.906494 0.361816 
vn -0.538818 0.729248 0.421387 
vn -0.216309 0.906494 0.361816 
vn -0.461426 0.843262 0.274658 
vn -0.538818 0.729248 0.421387 
vn -0.461426 0.843262 0.274658 
vn -0.660645 0.703613 0.260742 
vn -0.538818 0.729248 0.421387 
vn -0.660645 0.703613 0.260742 
vn -0.771729 0.531250 0.349121 
vn -0.538818 0.729248 0.421387 
vn -0.771729 0.531250 0.349121 
vn -0.722412 0.439209 0.533691 
vn -0.538818 0.729248 0.421387 
vn -0.722412 0.439209 0.533691 
vn -0.407715 0.633057 0.657715 
vn -0.538818 0.729248 0.421387 
vn -0.491943 0.481689 0.724854 
vn -0.074219 0.706299 0.703857 
vn -0.407715 0.633057 0.657715 
vn -0.074219 0.706299 0.703857 
vn -0.182861 0.779053 0.599365 
vn -0.407715 0.633057 0.657715 
vn -0.074219 0.706299 0.703857 
vn -0.019043 0.908691 0.416504 
vn -0.182861 0.779053 0.599365 
vn -0.019043 0.908691 0.416504 
vn -0.216309 0.906494 0.361816 
vn -0.182861 0.779053 0.599365 
vn -0.019043 0.908691 0.416504 
vn -0.265625 0.947021 0.179199 
vn -0.216309 0.906494 0.361816 
vn -0.265625 0.947021 0.179199 
vn -0.461426 0.843262 0.274658 
vn -0.216309 0.906494 0.361816 
vn -0.265625 0.947021 0.179199 
vn -0.609863 0.749756 0.255859 
vn -0.461426 0.843262 0.274658 
vn -0.609863 0.749756 0.255859 
vn -0.660645 0.703613 0.260742 
vn -0.461426 0.843262 0.274658 
vn -0.609863 0.749756 0.255859 
vn -0.758789 0.554199 0.341553 
vn -0.660645 0.703613 0.260742 
vn -0.758789 0.554199 0.341553 
vn -0.771729 0.531250 0.349121 
vn -0.660645 0.703613 0.260742 
vn -0.758789 0.554199 0.341553 
vn -0.807373 0.275879 0.520996 
vn -0.771729 0.531250 0.349121 
vn -0.807373 0.275879 0.520996 
vn -0.722412 0.439209 0.533691 
vn -0.771729 0.531250 0.349121 
vn -0.807373 0.275879 0.520996 
vn -0.491943 0.481689 0.724854 
vn -0.722412 0.439209 0.533691 
vn -0.491943 0.481689 0.724854 
vn -0.407715 0.633057 0.657715 
vn -0.722412 0.439209 0.533691 
vt 0.285714 0.682540 
vt 0.539683 0.809524 
vt 0.555556 0.571429 
vt 0.253968 0.444444 
vt 0.285714 0.682540 
vt 0.555556 0.571429 
vt 0.412698 0.317460 
vt 0.253968 0.444444 
vt 0.555556 0.571429 
vt 0.650794 0.349206 
vt 0.412698 0.317460 
vt 0.555556 0.571429 
vt 0.857143 0.507937 
vt 0.650794 0.349206 
vt 0.555556 0.571429 
vt 0.761905 0.841270 
vt 0.857143 0.507937 
vt 0.555556 0.571429 
vt 0.539683 0.809524 
vt 0.761905 0.841270 
vt 0.555556 0.571429 
vt 0.111111 0.888889 
vt 0.507937 0.984127 
vt 0.539683 0.809524 
vt 0.285714 0.682540 
vt 0.111111 0.888889 
vt 0.539683 0.809524 
vt 0.000000 0.396825 
vt 0.111111 0.888889 
vt 0.285714 0.682540 
vt 0.253968 0.444444 
vt 0.000000 0.396825 
vt 0.285714 0.682540 
vt 0.333333 0.047619 
vt 0.000000 0.396825 
vt 0.253968 0.444444 
vt 0.412698 0.317460 
vt 0.333333 0.047619 
vt 0.253968 0.444444 
vt 0.666667 0.063492 
vt 0.333333 0.047619 
vt 0.412698 0.317460 
vt 0.650794 0.349206 
vt 0.666667 0.063492 
vt 0.412698 0.317460 
vt 0.984127 0.507937 
vt 0.666667 0.063492 
vt 0.650794 0.349206 
vt 0.857143 0.507937 
vt 0.984127 0.507937 
vt 0.650794 0.349206 
vt 0.952381 0.952381 
vt 0.984127 0.507937 
vt 0.857143 0.507937 
vt 0.761905 0.841270 
vt 0.952381 0.952381 
vt 0.857143 0.507937 
vt 0.507937 0.984127 
vt 0.952381 0.952381 
vt 0.761905 0.841270 
vt 0.539683 0.809524 
vt 0.507937 0.984127 
vt 0.761905 0.841270 
vt 0.539683 0.809524 
vt 0.285714 0.682540 
vt 0.555556 0.571429 
vt 0.285714 0.682540 
vt 0.253968 0.444444 
vt 0.555556 0.571429 
vt 0.253968 0.444444 
vt 0.412698 0.317460 
vt 0.555556 0.571429 
vt 0.412698 0.317460 
vt 0.650794 0.349206 
vt 0.555556 0.571429 
vt 0.650794 0.349206 
vt 0.857143 0.507937 
vt 0.555556 0.571429 
vt 0.857143 0.507937 
vt 0.761905 0.841270 
vt 0.555556 0.571429 
vt 0.761905 0.841270 
vt 0.539683 0.809524 
vt 0.555556 0.571429 
vt 0.507937 0.984127 
vt 0.111111 0.888889 
vt 0.539683 0.809524 
vt 0.111111 0.888889 
vt 0.285714 0.682540 
vt 0.539683 0.809524 
vt 0.111111 0.888889 
vt 0.000000 0.396825 
vt 0.285714 0.682540 
vt 0.000000 0.396825 
vt 0.253968 0.444444 
vt 0.285714 0.682540 
vt 0.000000 0.396825 
vt 0.333333 0.047619 
vt 0.253968 0.444444 
vt 0.333333 0.047619 
vt 0.412698 0.317460 
vt 0.253968 0.444444 
vt 0.333333 0.047619 
vt 0.666667 0.063492 
vt 0.412698 0.317460 
vt 0.666667 0.063492 
vt 0.650794 0.349206 
vt 0.412698 0.317460 
vt 0.666667 0.063492 
vt 0.984127 0.507937 
vt 0.650794 0.349206 
vt 0.984127 0.507937 
vt 0.857143 0.507937 
vt 0.650794 0.349206 
vt 0.984127 0.507937 
vt 0.952381 0.952381 
vt 0.857143 0.507937 
vt 0.952381 0.952381 
vt 0.761905 0.841270 
vt 0.857143 0.507937 
vt 0.952381 0.952381 
vt 0.507937 0.984127 
vt 0.761905 0.841270 
vt 0.507937 0.984127 
vt 0.539683 0.809524 
vt 0.761905 0.841270 
f 1/1/1 2/2/2 3/3/3
f 4/4/4 5/5/5 6/6/6
f 7/7/7 8/8/8 9/9/9
f 10/10/10 11/11/11 12/12/12
f 13/13/13 14/14/14 15/15/15
f 16/16/16 17/17/17 18/18/18
f 19/19/19 20/20/20 21/21/21
f 22/22/22 23/23/23 24/24/24
f 25/25/25 26/26/26 27/27/27
f 28/28/28 29/29/29 30/30/30
f 31/31/31 32/32/32 33/33/33
f 34/34/34 35/35/35 36/36/36
f 37/37/37 38/38/38 39/39/39
f 40/40/40 41/41/41 42/42/42
f 43/43/43 44/44/44 45/45/45
f 46/46/46 47/47/47 48/48/48
f 49/49/49 50/50/50 51/51/51
f 52/52/52 53/53/53 54/54/54
f 55/55/55 56/56/56 57/57/57
f 58/58/58 59/59/59 60/60/60
f 61/61/61 62/62/62 63/63/63
f 64/64/64 65/65/65 66/66/66
f 67/67/67 68/68/68 69/69/69
f 70/70/70 71/71/71 72/72/72
f 73/73/73 74/74/74 75/75/75
f 76/76/76 77/77/77 78/78/78
f 79/79/79 80/80/80 81/81/81
f 82/82/82 83/83/83 84/84/84
f 85/85/85 86/86/86 87/87/87
f 88/88/88 89/89/89 90/90/90
f 91/91/91 92/92/92 93/93/93
f 94/94/94 95/95/95 96/96/96
f 97/97/97 98/98/98 99/99/99
f 100/100/100 101/101/101 102/102/102
f 103/103/103 104/104/104 105/105/105
f 106/106/106 107/107/107 108/108/108
f 109/109/109 110/110/110 111/111/111
f 112/112/112 113/113/113 114/114/114
f 115/115/115 116/116/116 117/117/117
f 118/118/118 119/119/119 120/120/120
f 121/121/121 122/122/122 123/123/123
f 124/124/124 125/125/125 126/126/126
