v 9.000000 -4.000000 15.000000 
v 9.000000 -12.000000 0.000000 
v 24.000000 -4.000000 7.000000 
v 24.000000 -4.000000 7.000000 
v 9.000000 -12.000000 0.000000 
v 24.000000 -4.000000 -7.000000 
v 24.000000 -4.000000 -7.000000 
v 9.000000 -12.000000 0.000000 
v 9.000000 -4.000000 -15.000000 
v 9.000000 -4.000000 -15.000000 
v 9.000000 -12.000000 0.000000 
v -5.000000 -4.000000 -7.000000 
v -5.000000 -4.000000 -7.000000 
v 9.000000 -12.000000 0.000000 
v -5.000000 -4.000000 7.000000 
v -5.000000 -4.000000 7.000000 
v 9.000000 -12.000000 0.000000 
v 9.000000 -4.000000 15.000000 
v 0.000000 39.000000 0.000000 
v 0.000000 28.000000 16.000000 
v 14.000000 28.000000 8.000000 
v 0.000000 39.000000 0.000000 
v 14.000000 28.000000 8.000000 
v 14.000000 28.000000 -8.000000 
v 0.000000 39.000000 0.000000 
v 14.000000 28.000000 -8.000000 
v 0.000000 28.000000 -16.000000 
v 0.000000 39.000000 0.000000 
v 0.000000 28.000000 -16.000000 
v -13.000000 28.000000 -8.000000 
v 0.000000 39.000000 0.000000 
v -13.000000 28.000000 -8.000000 
v -13.000000 28.000000 8.000000 
v 0.000000 39.000000 0.000000 
v -13.000000 28.000000 8.000000 
v 0.000000 28.000000 16.000000 
v 0.000000 28.000000 16.000000 
v 9.000000 -4.000000 15.000000 
v 24.000000 -4.000000 7.000000 
v 0.000000 28.000000 16.000000 
v 24.000000 -4.000000 7.000000 
v 14.000000 28.000000 8.000000 
v 14.000000 28.000000 8.000000 
v 24.000000 -4.000000 7.000000 
v 24.000000 -4.000000 -7.000000 
v 14.000000 28.000000 8.000000 
v 24.000000 -4.000000 -7.000000 
v 14.000000 28.000000 -8.000000 
v 14.000000 28.000000 -8.000000 
v 24.000000 -4.000000 -7.000000 
v 9.000000 -4.000000 -15.000000 
v 14.000000 28.000000 -8.000000 
v 9.000000 -4.000000 -15.000000 
v 0.000000 28.000000 -16.000000 
v 0.000000 28.000000 -16.000000 
v 9.000000 -4.000000 -15.000000 
v -5.000000 -4.000000 -7.000000 
v 0.000000 28.000000 -16.000000 
v -5.000000 -4.000000 -7.000000 
v -13.000000 28.000000 -8.000000 
v -13.000000 28.000000 -8.000000 
v -5.000000 -4.000000 -7.000000 
v -5.000000 -4.000000 7.000000 
v -13.000000 28.000000 -8.000000 
v -5.000000 -4.000000 7.000000 
v -13.000000 28.000000 8.000000 
v -13.000000 28.000000 8.000000 
v -5.000000 -4.000000 7.000000 
v 9.000000 -4.000000 15.000000 
v -13.000000 28.000000 8.000000 
v 9.000000 -4.000000 15.000000 
v 0.000000 28.000000 16.000000 
vn -0.166016 -0.491699 0.854492 
vn -0.005127 -0.999756 0.000000 
vn 0.777100 -0.329346 0.535889 
vn 0.777100 -0.329346 0.535889 
vn -0.005127 -0.999756 0.000000 
vn 0.891357 -0.302246 -0.337402 
vn 0.891357 -0.302246 -0.337402 
vn -0.005127 -0.999756 0.000000 
vn 0.157227 -0.440430 -0.883789 
vn 0.157227 -0.440430 -0.883789 
vn -0.005127 -0.999756 0.000000 
vn -0.721191 -0.499756 -0.479248 
vn -0.721191 -0.499756 -0.479248 
vn -0.005127 -0.999756 0.000000 
vn -0.809570 -0.504395 0.299805 
vn -0.809570 -0.504395 0.299805 
vn -0.005127 -0.999756 0.000000 
vn -0.166016 -0.491699 0.854492 
vn -0.015381 0.999756 0.000000 
vn 0.134033 0.406738 0.903564 
vn 0.838867 0.455566 0.297852 
vn -0.015381 0.999756 0.000000 
vn 0.838867 0.455566 0.297852 
vn 0.753906 0.430420 -0.495850 
vn -0.015381 0.999756 0.000000 
vn 0.753906 0.430420 -0.495850 
vn -0.162354 0.356445 -0.919922 
vn -0.015381 0.999756 0.000000 
vn -0.162354 0.356445 -0.919922 
vn -0.920898 0.231445 -0.312988 
vn -0.015381 0.999756 0.000000 
vn -0.920898 0.231445 -0.312988 
vn -0.821777 0.238525 0.516846 
vn -0.015381 0.999756 0.000000 
vn -0.821777 0.238525 0.516846 
vn 0.134033 0.406738 0.903564 
vn 0.134033 0.406738 0.903564 
vn -0.166016 -0.491699 0.854492 
vn 0.777100 -0.329346 0.535889 
vn 0.134033 0.406738 0.903564 
vn 0.777100 -0.329346 0.535889 
vn 0.838867 0.455566 0.297852 
vn 0.838867 0.455566 0.297852 
vn 0.777100 -0.329346 0.535889 
vn 0.891357 -0.302246 -0.337402 
vn 0.838867 0.455566 0.297852 
vn 0.891357 -0.302246 -0.337402 
vn 0.753906 0.430420 -0.495850 
vn 0.753906 0.430420 -0.495850 
vn 0.891357 -0.302246 -0.337402 
vn 0.157227 -0.440430 -0.883789 
vn 0.753906 0.430420 -0.495850 
vn 0.157227 -0.440430 -0.883789 
vn -0.162354 0.356445 -0.919922 
vn -0.162354 0.356445 -0.919922 
vn 0.157227 -0.440430 -0.883789 
vn -0.721191 -0.499756 -0.479248 
vn -0.162354 0.356445 -0.919922 
vn -0.721191 -0.499756 -0.479248 
vn -0.920898 0.231445 -0.312988 
vn -0.920898 0.231445 -0.312988 
vn -0.721191 -0.499756 -0.479248 
vn -0.809570 -0.504395 0.299805 
vn -0.920898 0.231445 -0.312988 
vn -0.809570 -0.504395 0.299805 
vn -0.821777 0.238525 0.516846 
vn -0.821777 0.238525 0.516846 
vn -0.809570 -0.504395 0.299805 
vn -0.166016 -0.491699 0.854492 
vn -0.821777 0.238525 0.516846 
vn -0.166016 -0.491699 0.854492 
vn 0.134033 0.406738 0.903564 
vt 0.142857 0.225806 
vt 0.158730 0.129032 
vt 0.000000 0.225806 
vt 0.000000 0.225806 
vt 0.158730 0.129032 
vt 0.063492 0.225806 
vt 0.063492 0.225806 
vt 0.158730 0.129032 
vt 0.126984 0.225806 
vt 0.126984 0.225806 
vt 0.158730 0.129032 
vt 0.190476 0.258065 
vt 0.190476 0.258065 
vt 0.158730 0.129032 
vt 0.253968 0.193548 
vt 0.253968 0.193548 
vt 0.158730 0.129032 
vt 0.142857 0.225806 
vt 0.158730 0.967742 
vt 0.158730 0.870968 
vt 0.000000 0.870968 
vt 0.158730 0.967742 
vt 0.000000 0.870968 
vt 0.079365 0.903226 
vt 0.158730 0.967742 
vt 0.079365 0.903226 
vt 0.158730 0.870968 
vt 0.158730 0.967742 
vt 0.158730 0.870968 
vt 0.222222 0.870968 
vt 0.158730 0.967742 
vt 0.222222 0.870968 
vt 0.269841 0.838710 
vt 0.158730 0.967742 
vt 0.269841 0.838710 
vt 0.158730 0.870968 
vt 0.158730 0.870968 
vt 0.142857 0.225806 
vt 0.000000 0.225806 
vt 0.158730 0.870968 
vt 0.000000 0.225806 
vt 0.000000 0.870968 
vt 0.000000 0.870968 
vt 0.000000 0.225806 
vt 0.063492 0.225806 
vt 0.000000 0.870968 
vt 0.063492 0.225806 
vt 0.079365 0.903226 
vt 0.079365 0.903226 
vt 0.063492 0.225806 
vt 0.126984 0.225806 
vt 0.079365 0.903226 
vt 0.126984 0.225806 
vt 0.158730 0.870968 
vt 0.158730 0.870968 
vt 0.126984 0.225806 
vt 0.190476 0.258065 
vt 0.158730 0.870968 
vt 0.190476 0.258065 
vt 0.222222 0.870968 
vt 0.222222 0.870968 
vt 0.190476 0.258065 
vt 0.253968 0.193548 
vt 0.222222 0.870968 
vt 0.253968 0.193548 
vt 0.269841 0.838710 
vt 0.269841 0.838710 
vt 0.253968 0.193548 
vt 0.142857 0.225806 
vt 0.269841 0.838710 
vt 0.142857 0.225806 
vt 0.158730 0.870968 
f 1/1/1 2/2/2 3/3/3
f 4/4/4 5/5/5 6/6/6
f 7/7/7 8/8/8 9/9/9
f 10/10/10 11/11/11 12/12/12
f 13/13/13 14/14/14 15/15/15
f 16/16/16 17/17/17 18/18/18
f 19/19/19 20/20/20 21/21/21
f 22/22/22 23/23/23 24/24/24
f 25/25/25 26/26/26 27/27/27
f 28/28/28 29/29/29 30/30/30
f 31/31/31 32/32/32 33/33/33
f 34/34/34 35/35/35 36/36/36
f 37/37/37 38/38/38 39/39/39
f 40/40/40 41/41/41 42/42/42
f 43/43/43 44/44/44 45/45/45
f 46/46/46 47/47/47 48/48/48
f 49/49/49 50/50/50 51/51/51
f 52/52/52 53/53/53 54/54/54
f 55/55/55 56/56/56 57/57/57
f 58/58/58 59/59/59 60/60/60
f 61/61/61 62/62/62 63/63/63
f 64/64/64 65/65/65 66/66/66
f 67/67/67 68/68/68 69/69/69
f 70/70/70 71/71/71 72/72/72
