v 69.000000 58.000000 -20.000000 
v 25.000000 51.000000 -23.000000 
v 24.000000 53.000000 1.000000 
v 24.000000 53.000000 1.000000 
v 68.000000 66.000000 5.000000 
v 69.000000 58.000000 -20.000000 
v 68.000000 66.000000 5.000000 
v 24.000000 53.000000 1.000000 
v 23.000000 23.000000 14.000000 
v 69.000000 25.000000 -39.000000 
v 26.000000 20.000000 -38.000000 
v 25.000000 51.000000 -23.000000 
v 25.000000 51.000000 -23.000000 
v 69.000000 58.000000 -20.000000 
v 69.000000 25.000000 -39.000000 
v 67.000000 -30.000000 -37.000000 
v 25.000000 -23.000000 -37.000000 
v 26.000000 20.000000 -38.000000 
v 26.000000 20.000000 -38.000000 
v 69.000000 25.000000 -39.000000 
v 67.000000 -30.000000 -37.000000 
v 66.000000 -61.000000 -14.000000 
v 23.000000 -52.000000 -19.000000 
v 25.000000 -23.000000 -37.000000 
v 25.000000 -23.000000 -37.000000 
v 67.000000 -30.000000 -37.000000 
v 66.000000 -61.000000 -14.000000 
v 65.000000 -66.000000 10.000000 
v 22.000000 -51.000000 6.000000 
v 23.000000 -52.000000 -19.000000 
v 23.000000 -52.000000 -19.000000 
v 66.000000 -61.000000 -14.000000 
v 65.000000 -66.000000 10.000000 
v 65.000000 -27.000000 14.000000 
v 22.000000 -20.000000 16.000000 
v 22.000000 -51.000000 6.000000 
v 22.000000 -51.000000 6.000000 
v 65.000000 -66.000000 10.000000 
v 65.000000 -27.000000 14.000000 
v 67.000000 26.000000 12.000000 
v 23.000000 23.000000 14.000000 
v 22.000000 -20.000000 16.000000 
v 22.000000 -20.000000 16.000000 
v 65.000000 -27.000000 14.000000 
v 67.000000 26.000000 12.000000 
v 23.000000 23.000000 14.000000 
v 67.000000 26.000000 12.000000 
v 68.000000 66.000000 5.000000 
vn -0.031494 0.822754 -0.567383 
vn -0.010986 0.852783 -0.521973 
vn -0.052734 0.918213 0.391846 
vn -0.052734 0.918213 0.391846 
vn -0.131104 0.898438 0.418457 
vn -0.031494 0.822754 -0.567383 
vn -0.131104 0.898438 0.418457 
vn -0.052734 0.918213 0.391846 
vn 0.067871 0.237305 0.968994 
vn 0.136719 0.046875 -0.989258 
vn -0.034180 0.198975 -0.979248 
vn -0.010986 0.852783 -0.521973 
vn -0.010986 0.852783 -0.521973 
vn -0.031494 0.822754 -0.567383 
vn 0.136719 0.046875 -0.989258 
vn 0.071045 -0.531738 -0.843750 
vn -0.061279 -0.371826 -0.926025 
vn -0.034180 0.198975 -0.979248 
vn -0.034180 0.198975 -0.979248 
vn 0.136719 0.046875 -0.989258 
vn 0.071045 -0.531738 -0.843750 
vn -0.087646 -0.880371 -0.465576 
vn -0.107422 -0.892578 -0.437256 
vn -0.061279 -0.371826 -0.926025 
vn -0.061279 -0.371826 -0.926025 
vn 0.071045 -0.531738 -0.843750 
vn -0.087646 -0.880371 -0.465576 
vn -0.252441 -0.742676 0.619873 
vn -0.080322 -0.778076 0.622559 
vn -0.107422 -0.892578 -0.437256 
vn -0.107422 -0.892578 -0.437256 
vn -0.087646 -0.880371 -0.465576 
vn -0.252441 -0.742676 0.619873 
vn -0.042969 0.137207 0.989502 
vn 0.071533 -0.170898 0.982422 
vn -0.080322 -0.778076 0.622559 
vn -0.080322 -0.778076 0.622559 
vn -0.252441 -0.742676 0.619873 
vn -0.042969 0.137207 0.989502 
vn -0.004639 0.306152 0.951660 
vn 0.067871 0.237305 0.968994 
vn 0.071533 -0.170898 0.982422 
vn 0.071533 -0.170898 0.982422 
vn -0.042969 0.137207 0.989502 
vn -0.004639 0.306152 0.951660 
vn 0.067871 0.237305 0.968994 
vn -0.004639 0.306152 0.951660 
vn -0.131104 0.898438 0.418457 
vt 0.384314 0.188235 
vt 0.439216 0.278431 
vt 0.439216 0.278431 
vt 0.439216 0.278431 
vt 0.384314 0.188235 
vt 0.384314 0.188235 
vt 0.384314 0.188235 
vt 0.439216 0.278431 
vt 0.427451 0.247059 
vt 0.384314 0.309804 
vt 0.427451 0.250980 
vt 0.439216 0.278431 
vt 0.439216 0.278431 
vt 0.384314 0.188235 
vt 0.384314 0.309804 
vt 0.372549 0.352941 
vt 0.431373 0.333333 
vt 0.427451 0.250980 
vt 0.427451 0.250980 
vt 0.384314 0.309804 
vt 0.372549 0.352941 
vt 0.372549 0.470588 
vt 0.431373 0.427451 
vt 0.431373 0.333333 
vt 0.431373 0.333333 
vt 0.372549 0.352941 
vt 0.372549 0.470588 
vt 0.372549 0.470588 
vt 0.431373 0.427451 
vt 0.431373 0.427451 
vt 0.431373 0.427451 
vt 0.372549 0.470588 
vt 0.372549 0.470588 
vt 0.372549 0.352941 
vt 0.431373 0.333333 
vt 0.431373 0.427451 
vt 0.431373 0.427451 
vt 0.372549 0.470588 
vt 0.372549 0.352941 
vt 0.384314 0.309804 
vt 0.427451 0.247059 
vt 0.431373 0.333333 
vt 0.431373 0.333333 
vt 0.372549 0.352941 
vt 0.384314 0.309804 
vt 0.427451 0.247059 
vt 0.384314 0.309804 
vt 0.384314 0.188235 
f 1/1/1 2/2/2 3/3/3
f 4/4/4 5/5/5 6/6/6
f 7/7/7 8/8/8 9/9/9
f 10/10/10 11/11/11 12/12/12
f 13/13/13 14/14/14 15/15/15
f 16/16/16 17/17/17 18/18/18
f 19/19/19 20/20/20 21/21/21
f 22/22/22 23/23/23 24/24/24
f 25/25/25 26/26/26 27/27/27
f 28/28/28 29/29/29 30/30/30
f 31/31/31 32/32/32 33/33/33
f 34/34/34 35/35/35 36/36/36
f 37/37/37 38/38/38 39/39/39
f 40/40/40 41/41/41 42/42/42
f 43/43/43 44/44/44 45/45/45
f 46/46/46 47/47/47 48/48/48
