v 69.000000 21.000000 10.000000 
v 65.000000 25.000000 -1.000000 
v 60.000000 30.000000 5.000000 
v 62.000000 10.000000 5.000000 
v 66.000000 15.000000 -1.000000 
v 69.000000 21.000000 10.000000 
v 56.000000 25.000000 13.000000 
v 57.000000 15.000000 13.000000 
v 69.000000 21.000000 10.000000 
v 69.000000 21.000000 10.000000 
v 60.000000 30.000000 5.000000 
v 56.000000 25.000000 13.000000 
v 57.000000 15.000000 13.000000 
v 62.000000 10.000000 5.000000 
v 69.000000 21.000000 10.000000 
v 65.000000 25.000000 -1.000000 
v 69.000000 21.000000 10.000000 
v 66.000000 15.000000 -1.000000 
v 43.000000 14.000000 -11.000000 
v 66.000000 15.000000 -1.000000 
v 62.000000 10.000000 5.000000 
v 66.000000 15.000000 -1.000000 
v 43.000000 14.000000 -11.000000 
v 42.000000 24.000000 -11.000000 
v 42.000000 24.000000 -11.000000 
v 65.000000 25.000000 -1.000000 
v 66.000000 15.000000 -1.000000 
v 62.000000 10.000000 5.000000 
v 41.000000 8.000000 -2.000000 
v 43.000000 14.000000 -11.000000 
v 41.000000 8.000000 -2.000000 
v 62.000000 10.000000 5.000000 
v 57.000000 15.000000 13.000000 
v 65.000000 25.000000 -1.000000 
v 42.000000 24.000000 -11.000000 
v 40.000000 29.000000 -2.000000 
v 40.000000 29.000000 -2.000000 
v 60.000000 30.000000 5.000000 
v 65.000000 25.000000 -1.000000 
v 60.000000 30.000000 5.000000 
v 40.000000 29.000000 -2.000000 
v 38.000000 23.000000 5.000000 
v 38.000000 23.000000 5.000000 
v 56.000000 25.000000 13.000000 
v 60.000000 30.000000 5.000000 
v 56.000000 25.000000 13.000000 
v 38.000000 23.000000 5.000000 
v 39.000000 13.000000 5.000000 
v 39.000000 13.000000 5.000000 
v 57.000000 15.000000 13.000000 
v 56.000000 25.000000 13.000000 
v 57.000000 15.000000 13.000000 
v 39.000000 13.000000 5.000000 
v 41.000000 8.000000 -2.000000 
v 16.000000 25.000000 2.000000 
v 40.000000 29.000000 -2.000000 
v 42.000000 24.000000 -11.000000 
v 40.000000 29.000000 -2.000000 
v 16.000000 25.000000 2.000000 
v 20.000000 21.000000 8.000000 
v 20.000000 21.000000 8.000000 
v 38.000000 23.000000 5.000000 
v 40.000000 29.000000 -2.000000 
v 42.000000 24.000000 -11.000000 
v 13.000000 20.000000 -3.000000 
v 16.000000 25.000000 2.000000 
v 13.000000 20.000000 -3.000000 
v 42.000000 24.000000 -11.000000 
v 43.000000 14.000000 -11.000000 
v 14.000000 12.000000 -3.000000 
v 43.000000 14.000000 -11.000000 
v 41.000000 8.000000 -2.000000 
v 43.000000 14.000000 -11.000000 
v 14.000000 12.000000 -3.000000 
v 13.000000 20.000000 -3.000000 
v 41.000000 8.000000 -2.000000 
v 17.000000 8.000000 2.000000 
v 14.000000 12.000000 -3.000000 
v 17.000000 8.000000 2.000000 
v 41.000000 8.000000 -2.000000 
v 39.000000 13.000000 5.000000 
v 20.000000 13.000000 8.000000 
v 39.000000 13.000000 5.000000 
v 38.000000 23.000000 5.000000 
v 39.000000 13.000000 5.000000 
v 20.000000 13.000000 8.000000 
v 17.000000 8.000000 2.000000 
v 38.000000 23.000000 5.000000 
v 20.000000 21.000000 8.000000 
v 20.000000 13.000000 8.000000 
v 65.000000 -26.000000 -1.000000 
v 69.000000 -21.000000 10.000000 
v 60.000000 -30.000000 5.000000 
v 66.000000 -16.000000 -1.000000 
v 62.000000 -10.000000 5.000000 
v 69.000000 -21.000000 10.000000 
v 57.000000 -15.000000 13.000000 
v 56.000000 -25.000000 13.000000 
v 69.000000 -21.000000 10.000000 
v 60.000000 -30.000000 5.000000 
v 69.000000 -21.000000 10.000000 
v 56.000000 -25.000000 13.000000 
v 62.000000 -10.000000 5.000000 
v 57.000000 -15.000000 13.000000 
v 69.000000 -21.000000 10.000000 
v 69.000000 -21.000000 10.000000 
v 65.000000 -26.000000 -1.000000 
v 66.000000 -16.000000 -1.000000 
v 66.000000 -16.000000 -1.000000 
v 43.000000 -14.000000 -11.000000 
v 62.000000 -10.000000 5.000000 
v 43.000000 -14.000000 -11.000000 
v 66.000000 -16.000000 -1.000000 
v 42.000000 -24.000000 -11.000000 
v 65.000000 -26.000000 -1.000000 
v 42.000000 -24.000000 -11.000000 
v 66.000000 -16.000000 -1.000000 
v 41.000000 -9.000000 -2.000000 
v 62.000000 -10.000000 5.000000 
v 43.000000 -14.000000 -11.000000 
v 62.000000 -10.000000 5.000000 
v 41.000000 -9.000000 -2.000000 
v 57.000000 -15.000000 13.000000 
v 42.000000 -24.000000 -11.000000 
v 65.000000 -26.000000 -1.000000 
v 40.000000 -29.000000 -2.000000 
v 60.000000 -30.000000 5.000000 
v 40.000000 -29.000000 -2.000000 
v 65.000000 -26.000000 -1.000000 
v 40.000000 -29.000000 -2.000000 
v 60.000000 -30.000000 5.000000 
v 38.000000 -24.000000 5.000000 
v 56.000000 -25.000000 13.000000 
v 38.000000 -24.000000 5.000000 
v 60.000000 -30.000000 5.000000 
v 38.000000 -24.000000 5.000000 
v 56.000000 -25.000000 13.000000 
v 39.000000 -14.000000 5.000000 
v 57.000000 -15.000000 13.000000 
v 39.000000 -14.000000 5.000000 
v 56.000000 -25.000000 13.000000 
v 39.000000 -14.000000 5.000000 
v 57.000000 -15.000000 13.000000 
v 41.000000 -9.000000 -2.000000 
v 40.000000 -29.000000 -2.000000 
v 16.000000 -25.000000 2.000000 
v 42.000000 -24.000000 -11.000000 
v 16.000000 -25.000000 2.000000 
v 40.000000 -29.000000 -2.000000 
v 20.000000 -21.000000 8.000000 
v 38.000000 -24.000000 5.000000 
v 20.000000 -21.000000 8.000000 
v 40.000000 -29.000000 -2.000000 
v 13.000000 -21.000000 -3.000000 
v 42.000000 -24.000000 -11.000000 
v 16.000000 -25.000000 2.000000 
v 42.000000 -24.000000 -11.000000 
v 13.000000 -21.000000 -3.000000 
v 43.000000 -14.000000 -11.000000 
v 43.000000 -14.000000 -11.000000 
v 14.000000 -13.000000 -3.000000 
v 41.000000 -9.000000 -2.000000 
v 14.000000 -13.000000 -3.000000 
v 43.000000 -14.000000 -11.000000 
v 13.000000 -21.000000 -3.000000 
v 17.000000 -9.000000 2.000000 
v 41.000000 -9.000000 -2.000000 
v 14.000000 -13.000000 -3.000000 
v 41.000000 -9.000000 -2.000000 
v 17.000000 -9.000000 2.000000 
v 39.000000 -14.000000 5.000000 
v 39.000000 -14.000000 5.000000 
v 20.000000 -13.000000 8.000000 
v 38.000000 -24.000000 5.000000 
v 20.000000 -13.000000 8.000000 
v 39.000000 -14.000000 5.000000 
v 17.000000 -9.000000 2.000000 
v 20.000000 -21.000000 8.000000 
v 38.000000 -24.000000 5.000000 
v 20.000000 -13.000000 8.000000 
vn 0.135254 0.064697 0.988525 
vn 0.751465 0.656006 0.068604 
vn -0.120117 0.946533 0.298584 
vn 0.205078 -0.926025 0.316406 
vn 0.939697 -0.333008 0.076416 
vn 0.135254 0.064697 0.988525 
vn -0.774902 0.341797 0.531250 
vn -0.619141 -0.571289 0.538330 
vn 0.135254 0.064697 0.988525 
vn 0.135254 0.064697 0.988525 
vn -0.120117 0.946533 0.298584 
vn -0.774902 0.341797 0.531250 
vn -0.619141 -0.571289 0.538330 
vn 0.205078 -0.926025 0.316406 
vn 0.135254 0.064697 0.988525 
vn 0.751465 0.656006 0.068604 
vn 0.135254 0.064697 0.988525 
vn 0.939697 -0.333008 0.076416 
vn 0.674072 -0.507080 -0.536865 
vn 0.939697 -0.333008 0.076416 
vn 0.205078 -0.926025 0.316406 
vn 0.939697 -0.333008 0.076416 
vn 0.674072 -0.507080 -0.536865 
vn 0.651123 0.525146 -0.547607 
vn 0.651123 0.525146 -0.547607 
vn 0.751465 0.656006 0.068604 
vn 0.939697 -0.333008 0.076416 
vn 0.205078 -0.926025 0.316406 
vn -0.004883 -0.999756 -0.019531 
vn 0.674072 -0.507080 -0.536865 
vn -0.004883 -0.999756 -0.019531 
vn 0.205078 -0.926025 0.316406 
vn -0.619141 -0.571289 0.538330 
vn 0.751465 0.656006 0.068604 
vn 0.651123 0.525146 -0.547607 
vn -0.048828 0.998047 -0.032715 
vn -0.048828 0.998047 -0.032715 
vn -0.120117 0.946533 0.298584 
vn 0.751465 0.656006 0.068604 
vn -0.120117 0.946533 0.298584 
vn -0.048828 0.998047 -0.032715 
vn -0.714355 0.501709 0.487549 
vn -0.714355 0.501709 0.487549 
vn -0.774902 0.341797 0.531250 
vn -0.120117 0.946533 0.298584 
vn -0.774902 0.341797 0.531250 
vn -0.714355 0.501709 0.487549 
vn -0.693604 -0.524414 0.493164 
vn -0.693604 -0.524414 0.493164 
vn -0.619141 -0.571289 0.538330 
vn -0.774902 0.341797 0.531250 
vn -0.619141 -0.571289 0.538330 
vn -0.693604 -0.524414 0.493164 
vn -0.004883 -0.999756 -0.019531 
vn -0.080811 0.994141 -0.069092 
vn -0.048828 0.998047 -0.032715 
vn 0.651123 0.525146 -0.547607 
vn -0.048828 0.998047 -0.032715 
vn -0.080811 0.994141 -0.069092 
vn -0.427490 0.526611 0.734619 
vn -0.427490 0.526611 0.734619 
vn -0.714355 0.501709 0.487549 
vn -0.048828 0.998047 -0.032715 
vn 0.651123 0.525146 -0.547607 
vn 0.277832 0.487305 -0.827637 
vn -0.080811 0.994141 -0.069092 
vn 0.277832 0.487305 -0.827637 
vn 0.651123 0.525146 -0.547607 
vn 0.674072 -0.507080 -0.536865 
vn 0.291016 -0.533203 -0.793945 
vn 0.674072 -0.507080 -0.536865 
vn -0.004883 -0.999756 -0.019531 
vn 0.674072 -0.507080 -0.536865 
vn 0.291016 -0.533203 -0.793945 
vn 0.277832 0.487305 -0.827637 
vn -0.004883 -0.999756 -0.019531 
vn -0.060791 -0.998047 0.008545 
vn 0.291016 -0.533203 -0.793945 
vn -0.060791 -0.998047 0.008545 
vn -0.004883 -0.999756 -0.019531 
vn -0.693604 -0.524414 0.493164 
vn -0.409668 -0.488770 0.770020 
vn -0.693604 -0.524414 0.493164 
vn -0.714355 0.501709 0.487549 
vn -0.693604 -0.524414 0.493164 
vn -0.409668 -0.488770 0.770020 
vn -0.060791 -0.998047 0.008545 
vn -0.714355 0.501709 0.487549 
vn -0.427490 0.526611 0.734619 
vn -0.409668 -0.488770 0.770020 
vn 0.751465 -0.656006 0.068604 
vn 0.135254 -0.064697 0.988525 
vn -0.119873 -0.946533 0.298584 
vn 0.939697 0.333008 0.076416 
vn 0.205078 0.926025 0.316406 
vn 0.135254 -0.064697 0.988525 
vn -0.619141 0.571289 0.538330 
vn -0.774902 -0.342041 0.531250 
vn 0.135254 -0.064697 0.988525 
vn -0.119873 -0.946533 0.298584 
vn 0.135254 -0.064697 0.988525 
vn -0.774902 -0.342041 0.531250 
vn 0.205078 0.926025 0.316406 
vn -0.619141 0.571289 0.538330 
vn 0.135254 -0.064697 0.988525 
vn 0.135254 -0.064697 0.988525 
vn 0.751465 -0.656006 0.068604 
vn 0.939697 0.333008 0.076416 
vn 0.939697 0.333008 0.076416 
vn 0.674072 0.507080 -0.536865 
vn 0.205078 0.926025 0.316406 
vn 0.674072 0.507080 -0.536865 
vn 0.939697 0.333008 0.076416 
vn 0.651123 -0.525146 -0.547607 
vn 0.751465 -0.656006 0.068604 
vn 0.651123 -0.525146 -0.547607 
vn 0.939697 0.333008 0.076416 
vn -0.004883 0.999756 -0.019531 
vn 0.205078 0.926025 0.316406 
vn 0.674072 0.507080 -0.536865 
vn 0.205078 0.926025 0.316406 
vn -0.004883 0.999756 -0.019531 
vn -0.619141 0.571289 0.538330 
vn 0.651123 -0.525146 -0.547607 
vn 0.751465 -0.656006 0.068604 
vn -0.048828 -0.998047 -0.032715 
vn -0.119873 -0.946533 0.298584 
vn -0.048828 -0.998047 -0.032715 
vn 0.751465 -0.656006 0.068604 
vn -0.048828 -0.998047 -0.032715 
vn -0.119873 -0.946533 0.298584 
vn -0.714111 -0.501709 0.487549 
vn -0.774902 -0.342041 0.531250 
vn -0.714111 -0.501709 0.487549 
vn -0.119873 -0.946533 0.298584 
vn -0.714111 -0.501709 0.487549 
vn -0.774902 -0.342041 0.531250 
vn -0.693604 0.524414 0.493408 
vn -0.619141 0.571289 0.538330 
vn -0.693604 0.524414 0.493408 
vn -0.774902 -0.342041 0.531250 
vn -0.693604 0.524414 0.493408 
vn -0.619141 0.571289 0.538330 
vn -0.004883 0.999756 -0.019531 
vn -0.048828 -0.998047 -0.032715 
vn -0.080811 -0.994141 -0.069092 
vn 0.651123 -0.525146 -0.547607 
vn -0.080811 -0.994141 -0.069092 
vn -0.048828 -0.998047 -0.032715 
vn -0.427490 -0.526611 0.734619 
vn -0.714111 -0.501709 0.487549 
vn -0.427490 -0.526611 0.734619 
vn -0.048828 -0.998047 -0.032715 
vn 0.277832 -0.487061 -0.827637 
vn 0.651123 -0.525146 -0.547607 
vn -0.080811 -0.994141 -0.069092 
vn 0.651123 -0.525146 -0.547607 
vn 0.277832 -0.487061 -0.827637 
vn 0.674072 0.507080 -0.536865 
vn 0.674072 0.507080 -0.536865 
vn 0.291016 0.533447 -0.793945 
vn -0.004883 0.999756 -0.019531 
vn 0.291016 0.533447 -0.793945 
vn 0.674072 0.507080 -0.536865 
vn 0.277832 -0.487061 -0.827637 
vn -0.060791 0.998047 0.008545 
vn -0.004883 0.999756 -0.019531 
vn 0.291016 0.533447 -0.793945 
vn -0.004883 0.999756 -0.019531 
vn -0.060791 0.998047 0.008545 
vn -0.693604 0.524414 0.493408 
vn -0.693604 0.524414 0.493408 
vn -0.409668 0.488770 0.770020 
vn -0.714111 -0.501709 0.487549 
vn -0.409668 0.488770 0.770020 
vn -0.693604 0.524414 0.493408 
vn -0.060791 0.998047 0.008545 
vn -0.427490 -0.526611 0.734619 
vn -0.714111 -0.501709 0.487549 
vn -0.409668 0.488770 0.770020 
vt 0.193548 0.225806 
vt 0.193548 0.225806 
vt 0.225806 0.225806 
vt 0.193548 0.225806 
vt 0.193548 0.225806 
vt 0.193548 0.225806 
vt 0.193548 0.225806 
vt 0.193548 0.225806 
vt 0.193548 0.225806 
vt 0.193548 0.225806 
vt 0.225806 0.225806 
vt 0.193548 0.225806 
vt 0.193548 0.225806 
vt 0.193548 0.225806 
vt 0.193548 0.225806 
vt 0.193548 0.225806 
vt 0.193548 0.225806 
vt 0.193548 0.225806 
vt 0.193548 0.225806 
vt 0.193548 0.225806 
vt 0.193548 0.225806 
vt 0.193548 0.225806 
vt 0.193548 0.225806 
vt 0.193548 0.225806 
vt 0.193548 0.225806 
vt 0.193548 0.225806 
vt 0.193548 0.225806 
vt 0.193548 0.225806 
vt 0.193548 0.225806 
vt 0.193548 0.225806 
vt 0.193548 0.225806 
vt 0.193548 0.225806 
vt 0.193548 0.225806 
vt 0.193548 0.225806 
vt 0.193548 0.225806 
vt 0.225806 0.225806 
vt 0.225806 0.225806 
vt 0.225806 0.225806 
vt 0.193548 0.225806 
vt 0.225806 0.225806 
vt 0.225806 0.225806 
vt 0.193548 0.225806 
vt 0.193548 0.225806 
vt 0.193548 0.225806 
vt 0.225806 0.225806 
vt 0.193548 0.225806 
vt 0.193548 0.225806 
vt 0.193548 0.225806 
vt 0.193548 0.225806 
vt 0.193548 0.225806 
vt 0.193548 0.225806 
vt 0.193548 0.225806 
vt 0.193548 0.225806 
vt 0.193548 0.225806 
vt 0.193548 0.225806 
vt 0.225806 0.225806 
vt 0.193548 0.225806 
vt 0.225806 0.225806 
vt 0.193548 0.225806 
vt 0.193548 0.225806 
vt 0.193548 0.225806 
vt 0.193548 0.225806 
vt 0.225806 0.225806 
vt 0.193548 0.225806 
vt 0.193548 0.225806 
vt 0.193548 0.225806 
vt 0.193548 0.225806 
vt 0.193548 0.225806 
vt 0.193548 0.225806 
vt 0.193548 0.225806 
vt 0.193548 0.225806 
vt 0.193548 0.225806 
vt 0.193548 0.225806 
vt 0.193548 0.225806 
vt 0.193548 0.225806 
vt 0.193548 0.225806 
vt 0.193548 0.225806 
vt 0.193548 0.225806 
vt 0.193548 0.225806 
vt 0.193548 0.225806 
vt 0.193548 0.225806 
vt 0.193548 0.225806 
vt 0.193548 0.225806 
vt 0.193548 0.225806 
vt 0.193548 0.225806 
vt 0.193548 0.225806 
vt 0.193548 0.225806 
vt 0.193548 0.225806 
vt 0.193548 0.225806 
vt 0.193548 0.225806 
vt 0.161290 0.225806 
vt 0.161290 0.225806 
vt 0.129032 0.225806 
vt 0.161290 0.225806 
vt 0.161290 0.225806 
vt 0.161290 0.225806 
vt 0.161290 0.225806 
vt 0.161290 0.225806 
vt 0.161290 0.225806 
vt 0.129032 0.225806 
vt 0.161290 0.225806 
vt 0.161290 0.225806 
vt 0.161290 0.225806 
vt 0.161290 0.225806 
vt 0.161290 0.225806 
vt 0.161290 0.225806 
vt 0.161290 0.225806 
vt 0.161290 0.225806 
vt 0.161290 0.225806 
vt 0.161290 0.225806 
vt 0.161290 0.225806 
vt 0.161290 0.225806 
vt 0.161290 0.225806 
vt 0.161290 0.225806 
vt 0.161290 0.225806 
vt 0.161290 0.225806 
vt 0.161290 0.225806 
vt 0.161290 0.225806 
vt 0.161290 0.225806 
vt 0.161290 0.225806 
vt 0.161290 0.225806 
vt 0.161290 0.225806 
vt 0.161290 0.225806 
vt 0.161290 0.225806 
vt 0.161290 0.225806 
vt 0.129032 0.225806 
vt 0.129032 0.225806 
vt 0.129032 0.225806 
vt 0.161290 0.225806 
vt 0.129032 0.225806 
vt 0.129032 0.225806 
vt 0.161290 0.225806 
vt 0.161290 0.225806 
vt 0.161290 0.225806 
vt 0.129032 0.225806 
vt 0.161290 0.225806 
vt 0.161290 0.225806 
vt 0.161290 0.225806 
vt 0.161290 0.225806 
vt 0.161290 0.225806 
vt 0.161290 0.225806 
vt 0.161290 0.225806 
vt 0.161290 0.225806 
vt 0.161290 0.225806 
vt 0.129032 0.225806 
vt 0.161290 0.225806 
vt 0.161290 0.225806 
vt 0.161290 0.225806 
vt 0.129032 0.225806 
vt 0.161290 0.225806 
vt 0.161290 0.225806 
vt 0.161290 0.225806 
vt 0.129032 0.225806 
vt 0.161290 0.225806 
vt 0.161290 0.225806 
vt 0.161290 0.225806 
vt 0.161290 0.225806 
vt 0.161290 0.225806 
vt 0.161290 0.225806 
vt 0.161290 0.225806 
vt 0.161290 0.225806 
vt 0.161290 0.225806 
vt 0.161290 0.225806 
vt 0.161290 0.225806 
vt 0.161290 0.225806 
vt 0.161290 0.225806 
vt 0.161290 0.225806 
vt 0.161290 0.225806 
vt 0.161290 0.225806 
vt 0.161290 0.225806 
vt 0.161290 0.225806 
vt 0.161290 0.225806 
vt 0.161290 0.225806 
vt 0.161290 0.225806 
vt 0.161290 0.225806 
vt 0.161290 0.225806 
vt 0.161290 0.225806 
vt 0.161290 0.225806 
vt 0.161290 0.225806 
vt 0.161290 0.225806 
f 1/1/1 2/2/2 3/3/3
f 4/4/4 5/5/5 6/6/6
f 7/7/7 8/8/8 9/9/9
f 10/10/10 11/11/11 12/12/12
f 13/13/13 14/14/14 15/15/15
f 16/16/16 17/17/17 18/18/18
f 19/19/19 20/20/20 21/21/21
f 22/22/22 23/23/23 24/24/24
f 25/25/25 26/26/26 27/27/27
f 28/28/28 29/29/29 30/30/30
f 31/31/31 32/32/32 33/33/33
f 34/34/34 35/35/35 36/36/36
f 37/37/37 38/38/38 39/39/39
f 40/40/40 41/41/41 42/42/42
f 43/43/43 44/44/44 45/45/45
f 46/46/46 47/47/47 48/48/48
f 49/49/49 50/50/50 51/51/51
f 52/52/52 53/53/53 54/54/54
f 55/55/55 56/56/56 57/57/57
f 58/58/58 59/59/59 60/60/60
f 61/61/61 62/62/62 63/63/63
f 64/64/64 65/65/65 66/66/66
f 67/67/67 68/68/68 69/69/69
f 70/70/70 71/71/71 72/72/72
f 73/73/73 74/74/74 75/75/75
f 76/76/76 77/77/77 78/78/78
f 79/79/79 80/80/80 81/81/81
f 82/82/82 83/83/83 84/84/84
f 85/85/85 86/86/86 87/87/87
f 88/88/88 89/89/89 90/90/90
f 91/91/91 92/92/92 93/93/93
f 94/94/94 95/95/95 96/96/96
f 97/97/97 98/98/98 99/99/99
f 100/100/100 101/101/101 102/102/102
f 103/103/103 104/104/104 105/105/105
f 106/106/106 107/107/107 108/108/108
f 109/109/109 110/110/110 111/111/111
f 112/112/112 113/113/113 114/114/114
f 115/115/115 116/116/116 117/117/117
f 118/118/118 119/119/119 120/120/120
f 121/121/121 122/122/122 123/123/123
f 124/124/124 125/125/125 126/126/126
f 127/127/127 128/128/128 129/129/129
f 130/130/130 131/131/131 132/132/132
f 133/133/133 134/134/134 135/135/135
f 136/136/136 137/137/137 138/138/138
f 139/139/139 140/140/140 141/141/141
f 142/142/142 143/143/143 144/144/144
f 145/145/145 146/146/146 147/147/147
f 148/148/148 149/149/149 150/150/150
f 151/151/151 152/152/152 153/153/153
f 154/154/154 155/155/155 156/156/156
f 157/157/157 158/158/158 159/159/159
f 160/160/160 161/161/161 162/162/162
f 163/163/163 164/164/164 165/165/165
f 166/166/166 167/167/167 168/168/168
f 169/169/169 170/170/170 171/171/171
f 172/172/172 173/173/173 174/174/174
f 175/175/175 176/176/176 177/177/177
f 178/178/178 179/179/179 180/180/180
