v 36.000000 67.000000 -37.000000 
v 97.000000 81.000000 -35.000000 
v 96.000000 69.000000 -54.000000 
v 96.000000 69.000000 -54.000000 
v 35.000000 58.000000 -54.000000 
v 36.000000 67.000000 -37.000000 
v 35.000000 58.000000 -54.000000 
v 96.000000 69.000000 -54.000000 
v 96.000000 60.000000 -42.000000 
v 38.000000 75.000000 -8.000000 
v 98.000000 87.000000 -1.000000 
v 97.000000 81.000000 -35.000000 
v 97.000000 81.000000 -35.000000 
v 36.000000 67.000000 -37.000000 
v 38.000000 75.000000 -8.000000 
v 40.000000 67.000000 16.000000 
v 99.000000 80.000000 32.000000 
v 98.000000 87.000000 -1.000000 
v 98.000000 87.000000 -1.000000 
v 38.000000 75.000000 -8.000000 
v 40.000000 67.000000 16.000000 
v 55.000000 42.000000 44.000000 
v 101.000000 46.000000 61.000000 
v 99.000000 80.000000 32.000000 
v 99.000000 80.000000 32.000000 
v 40.000000 67.000000 16.000000 
v 55.000000 42.000000 44.000000 
v 56.000000 0.000000 51.000000 
v 101.000000 0.000000 65.000000 
v 101.000000 46.000000 61.000000 
v 101.000000 46.000000 61.000000 
v 55.000000 42.000000 44.000000 
v 56.000000 0.000000 51.000000 
v 101.000000 0.000000 65.000000 
v 56.000000 0.000000 51.000000 
v 101.000000 -46.000000 61.000000 
v 96.000000 60.000000 -42.000000 
v 37.000000 50.000000 -43.000000 
v 35.000000 58.000000 -54.000000 
v 37.000000 50.000000 -43.000000 
v 96.000000 60.000000 -42.000000 
v 96.000000 74.000000 -30.000000 
v 96.000000 74.000000 -30.000000 
v 36.000000 61.000000 -34.000000 
v 37.000000 50.000000 -43.000000 
v 36.000000 61.000000 -34.000000 
v 96.000000 74.000000 -30.000000 
v 97.000000 80.000000 -1.000000 
v 97.000000 80.000000 -1.000000 
v 38.000000 69.000000 -7.000000 
v 36.000000 61.000000 -34.000000 
v 38.000000 69.000000 -7.000000 
v 97.000000 80.000000 -1.000000 
v 98.000000 73.000000 29.000000 
v 98.000000 73.000000 29.000000 
v 39.000000 61.000000 14.000000 
v 38.000000 69.000000 -7.000000 
v 39.000000 61.000000 14.000000 
v 98.000000 73.000000 29.000000 
v 100.000000 42.000000 56.000000 
v 100.000000 42.000000 56.000000 
v 54.000000 38.000000 40.000000 
v 39.000000 61.000000 14.000000 
v 54.000000 38.000000 40.000000 
v 100.000000 42.000000 56.000000 
v 100.000000 0.000000 59.000000 
v 100.000000 0.000000 59.000000 
v 54.000000 0.000000 46.000000 
v 54.000000 38.000000 40.000000 
v 100.000000 -43.000000 56.000000 
v 54.000000 -39.000000 40.000000 
v 100.000000 0.000000 59.000000 
v 54.000000 0.000000 46.000000 
v 100.000000 0.000000 59.000000 
v 54.000000 -39.000000 40.000000 
v 55.000000 -42.000000 44.000000 
v 101.000000 -46.000000 61.000000 
v 56.000000 0.000000 51.000000 
v 97.000000 -81.000000 -35.000000 
v 36.000000 -67.000000 -37.000000 
v 96.000000 -70.000000 -54.000000 
v 35.000000 -58.000000 -54.000000 
v 96.000000 -70.000000 -54.000000 
v 36.000000 -67.000000 -37.000000 
v 96.000000 -70.000000 -54.000000 
v 35.000000 -58.000000 -54.000000 
v 96.000000 -60.000000 -42.000000 
v 98.000000 -87.000000 -1.000000 
v 38.000000 -75.000000 -8.000000 
v 97.000000 -81.000000 -35.000000 
v 36.000000 -67.000000 -37.000000 
v 97.000000 -81.000000 -35.000000 
v 38.000000 -75.000000 -8.000000 
v 99.000000 -80.000000 32.000000 
v 40.000000 -67.000000 16.000000 
v 98.000000 -87.000000 -1.000000 
v 38.000000 -75.000000 -8.000000 
v 98.000000 -87.000000 -1.000000 
v 40.000000 -67.000000 16.000000 
v 101.000000 -46.000000 61.000000 
v 55.000000 -42.000000 44.000000 
v 99.000000 -80.000000 32.000000 
v 40.000000 -67.000000 16.000000 
v 99.000000 -80.000000 32.000000 
v 55.000000 -42.000000 44.000000 
v 37.000000 -51.000000 -43.000000 
v 96.000000 -60.000000 -42.000000 
v 35.000000 -58.000000 -54.000000 
v 96.000000 -60.000000 -42.000000 
v 37.000000 -51.000000 -43.000000 
v 96.000000 -75.000000 -30.000000 
v 36.000000 -62.000000 -34.000000 
v 96.000000 -75.000000 -30.000000 
v 37.000000 -51.000000 -43.000000 
v 96.000000 -75.000000 -30.000000 
v 36.000000 -62.000000 -34.000000 
v 97.000000 -80.000000 -1.000000 
v 38.000000 -69.000000 -7.000000 
v 97.000000 -80.000000 -1.000000 
v 36.000000 -62.000000 -34.000000 
v 97.000000 -80.000000 -1.000000 
v 38.000000 -69.000000 -7.000000 
v 98.000000 -74.000000 29.000000 
v 39.000000 -62.000000 14.000000 
v 98.000000 -74.000000 29.000000 
v 38.000000 -69.000000 -7.000000 
v 98.000000 -74.000000 29.000000 
v 39.000000 -62.000000 14.000000 
v 100.000000 -43.000000 56.000000 
v 54.000000 -39.000000 40.000000 
v 100.000000 -43.000000 56.000000 
v 39.000000 -62.000000 14.000000 
vn -0.171387 0.928467 -0.329102 
vn -0.190430 0.939697 -0.283447 
vn -0.124268 0.532959 -0.836670 
vn -0.124268 0.532959 -0.836670 
vn -0.036133 0.057129 -0.997559 
vn -0.171387 0.928467 -0.329102 
vn -0.036133 0.057129 -0.997559 
vn -0.124268 0.532959 -0.836670 
vn 0.161621 -0.975830 -0.146240 
vn -0.170898 0.984619 0.031006 
vn -0.218018 0.968750 0.117676 
vn -0.190430 0.939697 -0.283447 
vn -0.190430 0.939697 -0.283447 
vn -0.171387 0.928467 -0.329102 
vn -0.170898 0.984619 0.031006 
vn -0.162354 0.854980 0.492188 
vn -0.312988 0.769287 0.556641 
vn -0.218018 0.968750 0.117676 
vn -0.218018 0.968750 0.117676 
vn -0.170898 0.984619 0.031006 
vn -0.162354 0.854980 0.492188 
vn -0.184570 0.451416 0.872803 
vn -0.340820 0.294922 0.892578 
vn -0.312988 0.769287 0.556641 
vn -0.312988 0.769287 0.556641 
vn -0.162354 0.854980 0.492188 
vn -0.184570 0.451416 0.872803 
vn -0.211426 0.000000 0.977295 
vn -0.300293 0.000000 0.953613 
vn -0.340820 0.294922 0.892578 
vn -0.340820 0.294922 0.892578 
vn -0.184570 0.451416 0.872803 
vn -0.211426 0.000000 0.977295 
vn -0.300293 0.000000 0.953613 
vn -0.211426 0.000000 0.977295 
vn -0.340820 -0.294922 0.892578 
vn 0.161621 -0.975830 -0.146240 
vn 0.122314 -0.981689 0.144531 
vn -0.036133 0.057129 -0.997559 
vn 0.122314 -0.981689 0.144531 
vn 0.161621 -0.975830 -0.146240 
vn 0.141113 -0.798584 0.584961 
vn 0.141113 -0.798584 0.584961 
vn 0.142334 -0.855957 0.496582 
vn 0.122314 -0.981689 0.144531 
vn 0.142334 -0.855957 0.496582 
vn 0.141113 -0.798584 0.584961 
vn 0.188477 -0.979736 0.066650 
vn 0.188477 -0.979736 0.066650 
vn 0.176758 -0.983643 -0.032471 
vn 0.142334 -0.855957 0.496582 
vn 0.176758 -0.983643 -0.032471 
vn 0.188477 -0.979736 0.066650 
vn 0.266602 -0.868652 -0.417236 
vn 0.266602 -0.868652 -0.417236 
vn 0.188965 -0.850098 -0.490967 
vn 0.176758 -0.983643 -0.032471 
vn 0.188965 -0.850098 -0.490967 
vn 0.266602 -0.868652 -0.417236 
vn 0.329590 -0.473389 -0.816650 
vn 0.329590 -0.473389 -0.816650 
vn 0.173340 -0.448242 -0.876709 
vn 0.188965 -0.850098 -0.490967 
vn 0.173340 -0.448242 -0.876709 
vn 0.329590 -0.473389 -0.816650 
vn 0.307861 0.000000 -0.951172 
vn 0.307861 0.000000 -0.951172 
vn 0.082031 0.000000 -0.996582 
vn 0.173340 -0.448242 -0.876709 
vn 0.329590 0.473389 -0.816650 
vn 0.173340 0.448242 -0.876709 
vn 0.307861 0.000000 -0.951172 
vn 0.082031 0.000000 -0.996582 
vn 0.307861 0.000000 -0.951172 
vn 0.173340 0.448242 -0.876709 
vn -0.184570 -0.451416 0.872803 
vn -0.340820 -0.294922 0.892578 
vn -0.211426 0.000000 0.977295 
vn -0.190430 -0.939697 -0.283447 
vn -0.171387 -0.928467 -0.329102 
vn -0.124268 -0.532959 -0.836670 
vn -0.036133 -0.057129 -0.997559 
vn -0.124268 -0.532959 -0.836670 
vn -0.171387 -0.928467 -0.329102 
vn -0.124268 -0.532959 -0.836670 
vn -0.036133 -0.057129 -0.997559 
vn 0.161621 0.975830 -0.146240 
vn -0.218018 -0.968750 0.117676 
vn -0.170898 -0.984619 0.031006 
vn -0.190430 -0.939697 -0.283447 
vn -0.171387 -0.928467 -0.329102 
vn -0.190430 -0.939697 -0.283447 
vn -0.170898 -0.984619 0.031006 
vn -0.312988 -0.769287 0.556641 
vn -0.162354 -0.854980 0.492188 
vn -0.218018 -0.968750 0.117676 
vn -0.170898 -0.984619 0.031006 
vn -0.218018 -0.968750 0.117676 
vn -0.162354 -0.854980 0.492188 
vn -0.340820 -0.294922 0.892578 
vn -0.184570 -0.451416 0.872803 
vn -0.312988 -0.769287 0.556641 
vn -0.162354 -0.854980 0.492188 
vn -0.312988 -0.769287 0.556641 
vn -0.184570 -0.451416 0.872803 
vn 0.122314 0.981689 0.144531 
vn 0.161621 0.975830 -0.146240 
vn -0.036133 -0.057129 -0.997559 
vn 0.161621 0.975830 -0.146240 
vn 0.122314 0.981689 0.144531 
vn 0.141113 0.798584 0.584961 
vn 0.142334 0.855957 0.496582 
vn 0.141113 0.798584 0.584961 
vn 0.122314 0.981689 0.144531 
vn 0.141113 0.798584 0.584961 
vn 0.142334 0.855957 0.496582 
vn 0.188477 0.979736 0.066650 
vn 0.176758 0.983643 -0.032471 
vn 0.188477 0.979736 0.066650 
vn 0.142334 0.855957 0.496582 
vn 0.188477 0.979736 0.066650 
vn 0.176758 0.983643 -0.032471 
vn 0.266602 0.868652 -0.417236 
vn 0.188965 0.850098 -0.490967 
vn 0.266602 0.868652 -0.417236 
vn 0.176758 0.983643 -0.032471 
vn 0.266602 0.868652 -0.417236 
vn 0.188965 0.850098 -0.490967 
vn 0.329590 0.473389 -0.816650 
vn 0.173340 0.448242 -0.876709 
vn 0.329590 0.473389 -0.816650 
vn 0.188965 0.850098 -0.490967 
vt 1.000000 1.000000 
vt 1.000000 0.548387 
vt 0.612903 0.548387 
vt 0.612903 0.548387 
vt 0.612903 1.000000 
vt 1.000000 1.000000 
vt 1.000000 1.000000 
vt 0.806452 0.548387 
vt 0.806452 0.548387 
vt 1.000000 1.000000 
vt 1.000000 0.548387 
vt 0.612903 0.548387 
vt 0.612903 0.548387 
vt 0.612903 1.000000 
vt 1.000000 1.000000 
vt 1.000000 1.000000 
vt 1.000000 0.548387 
vt 0.612903 0.548387 
vt 0.612903 0.548387 
vt 0.612903 1.000000 
vt 1.000000 1.000000 
vt 1.000000 1.000000 
vt 1.000000 0.548387 
vt 0.612903 0.548387 
vt 0.612903 0.548387 
vt 0.612903 1.000000 
vt 1.000000 1.000000 
vt 1.000000 1.000000 
vt 1.000000 0.548387 
vt 0.612903 0.548387 
vt 0.612903 0.548387 
vt 0.612903 1.000000 
vt 1.000000 1.000000 
vt 1.000000 0.548387 
vt 1.000000 1.000000 
vt 0.612903 0.548387 
vt 0.806452 0.548387 
vt 0.806452 1.000000 
vt 1.000000 1.000000 
vt 0.806452 1.000000 
vt 0.806452 0.548387 
vt 0.612903 0.548387 
vt 0.612903 0.548387 
vt 0.612903 1.000000 
vt 0.806452 1.000000 
vt 1.000000 1.000000 
vt 1.000000 0.548387 
vt 0.612903 0.548387 
vt 0.612903 0.548387 
vt 0.612903 1.000000 
vt 1.000000 1.000000 
vt 1.000000 1.000000 
vt 1.000000 0.548387 
vt 0.612903 0.548387 
vt 0.612903 0.548387 
vt 0.612903 1.000000 
vt 1.000000 1.000000 
vt 1.000000 1.000000 
vt 1.000000 0.548387 
vt 0.612903 0.548387 
vt 0.612903 0.548387 
vt 0.612903 1.000000 
vt 1.000000 1.000000 
vt 1.000000 1.000000 
vt 1.000000 0.548387 
vt 0.612903 0.548387 
vt 0.612903 0.548387 
vt 0.612903 1.000000 
vt 1.000000 1.000000 
vt 1.000000 0.548387 
vt 1.000000 1.000000 
vt 0.612903 0.548387 
vt 0.612903 1.000000 
vt 0.612903 0.548387 
vt 1.000000 1.000000 
vt 0.612903 1.000000 
vt 0.612903 0.548387 
vt 1.000000 1.000000 
vt 1.000000 0.548387 
vt 1.000000 1.000000 
vt 0.612903 0.548387 
vt 0.612903 1.000000 
vt 0.612903 0.548387 
vt 1.000000 1.000000 
vt 0.806452 0.548387 
vt 1.000000 1.000000 
vt 0.806452 0.548387 
vt 1.000000 0.548387 
vt 1.000000 1.000000 
vt 0.612903 0.548387 
vt 0.612903 1.000000 
vt 0.612903 0.548387 
vt 1.000000 1.000000 
vt 1.000000 0.548387 
vt 1.000000 1.000000 
vt 0.612903 0.548387 
vt 0.612903 1.000000 
vt 0.612903 0.548387 
vt 1.000000 1.000000 
vt 1.000000 0.548387 
vt 1.000000 1.000000 
vt 0.612903 0.548387 
vt 0.612903 1.000000 
vt 0.612903 0.548387 
vt 1.000000 1.000000 
vt 0.806452 1.000000 
vt 0.806452 0.548387 
vt 1.000000 1.000000 
vt 0.806452 0.548387 
vt 0.806452 1.000000 
vt 0.612903 0.548387 
vt 0.612903 1.000000 
vt 0.612903 0.548387 
vt 0.806452 1.000000 
vt 1.000000 0.548387 
vt 1.000000 1.000000 
vt 0.612903 0.548387 
vt 0.612903 1.000000 
vt 0.612903 0.548387 
vt 1.000000 1.000000 
vt 1.000000 0.548387 
vt 1.000000 1.000000 
vt 0.612903 0.548387 
vt 0.612903 1.000000 
vt 0.612903 0.548387 
vt 1.000000 1.000000 
vt 1.000000 0.548387 
vt 1.000000 1.000000 
vt 0.612903 0.548387 
vt 0.612903 1.000000 
vt 0.612903 0.548387 
vt 1.000000 1.000000 
f 1/1/1 2/2/2 3/3/3
f 4/4/4 5/5/5 6/6/6
f 7/7/7 8/8/8 9/9/9
f 10/10/10 11/11/11 12/12/12
f 13/13/13 14/14/14 15/15/15
f 16/16/16 17/17/17 18/18/18
f 19/19/19 20/20/20 21/21/21
f 22/22/22 23/23/23 24/24/24
f 25/25/25 26/26/26 27/27/27
f 28/28/28 29/29/29 30/30/30
f 31/31/31 32/32/32 33/33/33
f 34/34/34 35/35/35 36/36/36
f 37/37/37 38/38/38 39/39/39
f 40/40/40 41/41/41 42/42/42
f 43/43/43 44/44/44 45/45/45
f 46/46/46 47/47/47 48/48/48
f 49/49/49 50/50/50 51/51/51
f 52/52/52 53/53/53 54/54/54
f 55/55/55 56/56/56 57/57/57
f 58/58/58 59/59/59 60/60/60
f 61/61/61 62/62/62 63/63/63
f 64/64/64 65/65/65 66/66/66
f 67/67/67 68/68/68 69/69/69
f 70/70/70 71/71/71 72/72/72
f 73/73/73 74/74/74 75/75/75
f 76/76/76 77/77/77 78/78/78
f 79/79/79 80/80/80 81/81/81
f 82/82/82 83/83/83 84/84/84
f 85/85/85 86/86/86 87/87/87
f 88/88/88 89/89/89 90/90/90
f 91/91/91 92/92/92 93/93/93
f 94/94/94 95/95/95 96/96/96
f 97/97/97 98/98/98 99/99/99
f 100/100/100 101/101/101 102/102/102
f 103/103/103 104/104/104 105/105/105
f 106/106/106 107/107/107 108/108/108
f 109/109/109 110/110/110 111/111/111
f 112/112/112 113/113/113 114/114/114
f 115/115/115 116/116/116 117/117/117
f 118/118/118 119/119/119 120/120/120
f 121/121/121 122/122/122 123/123/123
f 124/124/124 125/125/125 126/126/126
f 127/127/127 128/128/128 129/129/129
f 130/130/130 131/131/131 132/132/132
