v -5.000000 89.000000 0.000000 
v -1.000000 45.000000 -5.000000 
v -4.000000 45.000000 0.000000 
v -5.000000 89.000000 0.000000 
v -1.000000 89.000000 -6.000000 
v -1.000000 45.000000 -5.000000 
v -1.000000 89.000000 -6.000000 
v 3.000000 45.000000 -3.000000 
v -1.000000 45.000000 -5.000000 
v -1.000000 89.000000 -6.000000 
v 4.000000 89.000000 -4.000000 
v 3.000000 45.000000 -3.000000 
v 4.000000 89.000000 -4.000000 
v 3.000000 45.000000 3.000000 
v 3.000000 45.000000 -3.000000 
v 4.000000 89.000000 -4.000000 
v 4.000000 89.000000 4.000000 
v 3.000000 45.000000 3.000000 
v 4.000000 89.000000 4.000000 
v -1.000000 45.000000 5.000000 
v 3.000000 45.000000 3.000000 
v 4.000000 89.000000 4.000000 
v -1.000000 89.000000 6.000000 
v -1.000000 45.000000 5.000000 
v -1.000000 89.000000 6.000000 
v -4.000000 45.000000 0.000000 
v -1.000000 45.000000 5.000000 
v -1.000000 89.000000 6.000000 
v -5.000000 89.000000 0.000000 
v -4.000000 45.000000 0.000000 
v -4.000000 45.000000 0.000000 
v -1.000000 45.000000 -5.000000 
v 0.000000 43.000000 1.000000 
v -1.000000 45.000000 -5.000000 
v 3.000000 45.000000 -3.000000 
v 0.000000 43.000000 1.000000 
v 3.000000 45.000000 -3.000000 
v 3.000000 45.000000 3.000000 
v 0.000000 43.000000 1.000000 
v 3.000000 45.000000 3.000000 
v -1.000000 45.000000 5.000000 
v 0.000000 43.000000 1.000000 
v -1.000000 45.000000 5.000000 
v -4.000000 45.000000 0.000000 
v 0.000000 43.000000 1.000000 
vn -0.971191 -0.032715 -0.235107 
vn -0.424805 -0.491211 -0.760010 
vn -0.883545 -0.432617 0.179199 
vn -0.971191 -0.032715 -0.235107 
vn -0.076416 -0.032715 -0.996338 
vn -0.424805 -0.491211 -0.760010 
vn -0.076416 -0.032715 -0.996338 
vn 0.607178 -0.494141 -0.621826 
vn -0.424805 -0.491211 -0.760010 
vn -0.076416 -0.032715 -0.996338 
vn 0.924072 -0.032715 -0.380615 
vn 0.607178 -0.494141 -0.621826 
vn 0.924072 -0.032715 -0.380615 
vn 0.794678 -0.437988 0.419922 
vn 0.607178 -0.494141 -0.621826 
vn 0.924072 -0.032715 -0.380615 
vn 0.647461 -0.032715 0.761230 
vn 0.794678 -0.437988 0.419922 
vn 0.647461 -0.032715 0.761230 
vn -0.137451 -0.393799 0.908691 
vn 0.794678 -0.437988 0.419922 
vn 0.647461 -0.032715 0.761230 
vn -0.523682 -0.032715 0.851074 
vn -0.137451 -0.393799 0.908691 
vn -0.523682 -0.032715 0.851074 
vn -0.883545 -0.432617 0.179199 
vn -0.137451 -0.393799 0.908691 
vn -0.523682 -0.032715 0.851074 
vn -0.971191 -0.032715 -0.235107 
vn -0.883545 -0.432617 0.179199 
vn -0.883545 -0.432617 0.179199 
vn -0.424805 -0.491211 -0.760010 
vn -0.028320 -0.996094 0.082520 
vn -0.424805 -0.491211 -0.760010 
vn 0.607178 -0.494141 -0.621826 
vn -0.028320 -0.996094 0.082520 
vn 0.607178 -0.494141 -0.621826 
vn 0.794678 -0.437988 0.419922 
vn -0.028320 -0.996094 0.082520 
vn 0.794678 -0.437988 0.419922 
vn -0.137451 -0.393799 0.908691 
vn -0.028320 -0.996094 0.082520 
vn -0.137451 -0.393799 0.908691 
vn -0.883545 -0.432617 0.179199 
vn -0.028320 -0.996094 0.082520 
vt 0.984252 0.102362 
vt 0.559055 0.149606 
vt 0.559055 0.102362 
vt 0.984252 0.102362 
vt 0.984252 0.157480 
vt 0.559055 0.149606 
vt 0.984252 0.157480 
vt 0.559055 0.291339 
vt 0.559055 0.149606 
vt 0.984252 0.157480 
vt 0.984252 0.291339 
vt 0.559055 0.291339 
vt 0.984252 0.047244 
vt 0.551181 0.181102 
vt 0.551181 0.039370 
vt 0.984252 0.047244 
vt 0.984252 0.181102 
vt 0.551181 0.181102 
vt 0.984252 0.181102 
vt 0.551181 0.314961 
vt 0.551181 0.181102 
vt 0.984252 0.181102 
vt 0.984252 0.314961 
vt 0.551181 0.314961 
vt 0.984252 0.015748 
vt 0.559055 0.102362 
vt 0.559055 0.023622 
vt 0.984252 0.015748 
vt 0.984252 0.102362 
vt 0.559055 0.102362 
vt 0.818898 0.236220 
vt 0.488189 0.244094 
vt 0.472441 0.251969 
vt 0.488189 0.244094 
vt 0.496063 0.102362 
vt 0.472441 0.251969 
vt 0.496063 0.102362 
vt 0.826772 0.118110 
vt 0.472441 0.251969 
vt 0.826772 0.118110 
vt 0.818898 0.157480 
vt 0.472441 0.251969 
vt 0.818898 0.157480 
vt 0.818898 0.236220 
vt 0.472441 0.251969 
f 1/1/1 2/2/2 3/3/3
f 4/4/4 5/5/5 6/6/6
f 7/7/7 8/8/8 9/9/9
f 10/10/10 11/11/11 12/12/12
f 13/13/13 14/14/14 15/15/15
f 16/16/16 17/17/17 18/18/18
f 19/19/19 20/20/20 21/21/21
f 22/22/22 23/23/23 24/24/24
f 25/25/25 26/26/26 27/27/27
f 28/28/28 29/29/29 30/30/30
f 31/31/31 32/32/32 33/33/33
f 34/34/34 35/35/35 36/36/36
f 37/37/37 38/38/38 39/39/39
f 40/40/40 41/41/41 42/42/42
f 43/43/43 44/44/44 45/45/45
