v -9.000000 0.000000 -6.000000 
v -41.000000 34.000000 32.000000 
v -9.000000 0.000000 6.000000 
v -41.000000 34.000000 32.000000 
v -9.000000 0.000000 -6.000000 
v -41.000000 34.000000 -32.000000 
v -41.000000 34.000000 -32.000000 
v -53.000000 41.000000 22.000000 
v -41.000000 34.000000 32.000000 
v -53.000000 41.000000 22.000000 
v -41.000000 34.000000 -32.000000 
v -53.000000 41.000000 -22.000000 
v 3.000000 20.000000 36.000000 
v 6.000000 0.000000 1.000000 
v 0.000000 0.000000 8.000000 
v 6.000000 0.000000 1.000000 
v 3.000000 20.000000 36.000000 
v 33.000000 20.000000 6.000000 
v 20.000000 27.000000 44.000000 
v 33.000000 20.000000 6.000000 
v 3.000000 20.000000 36.000000 
v 33.000000 20.000000 6.000000 
v 20.000000 27.000000 44.000000 
v 41.000000 27.000000 23.000000 
v 7.000000 0.000000 1.000000 
v 6.000000 20.000000 -33.000000 
v 0.000000 0.000000 -5.000000 
v 6.000000 20.000000 -33.000000 
v 7.000000 0.000000 1.000000 
v 36.000000 20.000000 -3.000000 
v 36.000000 20.000000 -3.000000 
v 23.000000 27.000000 -40.000000 
v 6.000000 20.000000 -33.000000 
v 23.000000 27.000000 -40.000000 
v 36.000000 20.000000 -3.000000 
v 43.000000 27.000000 -20.000000 
v 0.000000 0.000000 -5.000000 
v -35.000000 20.000000 -4.000000 
v -6.000000 0.000000 0.000000 
v -35.000000 20.000000 -4.000000 
v 0.000000 0.000000 -5.000000 
v -5.000000 20.000000 -34.000000 
v -5.000000 20.000000 -34.000000 
v -42.000000 27.000000 -21.000000 
v -35.000000 20.000000 -4.000000 
v -42.000000 27.000000 -21.000000 
v -5.000000 20.000000 -34.000000 
v -22.000000 27.000000 -42.000000 
v -35.000000 20.000000 6.000000 
v 0.000000 0.000000 8.000000 
v -6.000000 0.000000 1.000000 
v 0.000000 0.000000 8.000000 
v -35.000000 20.000000 6.000000 
v -5.000000 20.000000 36.000000 
v -42.000000 27.000000 23.000000 
v -5.000000 20.000000 36.000000 
v -35.000000 20.000000 6.000000 
v -5.000000 20.000000 36.000000 
v -42.000000 27.000000 23.000000 
v -22.000000 27.000000 44.000000 
v 39.000000 35.000000 32.000000 
v 7.000000 0.000000 -6.000000 
v 7.000000 0.000000 6.000000 
v 7.000000 0.000000 -6.000000 
v 39.000000 35.000000 32.000000 
v 39.000000 35.000000 -32.000000 
v 50.000000 42.000000 22.000000 
v 39.000000 35.000000 -32.000000 
v 39.000000 35.000000 32.000000 
v 39.000000 35.000000 -32.000000 
v 50.000000 42.000000 22.000000 
v 50.000000 42.000000 -22.000000 
v 6.000000 0.000000 -8.000000 
v -33.000000 36.000000 -39.000000 
v -7.000000 0.000000 -8.000000 
v -33.000000 36.000000 -39.000000 
v 6.000000 0.000000 -8.000000 
v 32.000000 36.000000 -39.000000 
v 32.000000 36.000000 -39.000000 
v -23.000000 43.000000 -58.000000 
v -33.000000 36.000000 -39.000000 
v -23.000000 43.000000 -58.000000 
v 32.000000 36.000000 -39.000000 
v 21.000000 43.000000 -58.000000 
v -33.000000 36.000000 41.000000 
v 6.000000 0.000000 8.000000 
v -7.000000 0.000000 8.000000 
v 6.000000 0.000000 8.000000 
v -33.000000 36.000000 41.000000 
v 32.000000 36.000000 41.000000 
v -23.000000 43.000000 62.000000 
v 32.000000 36.000000 41.000000 
v -33.000000 36.000000 41.000000 
v 32.000000 36.000000 41.000000 
v -23.000000 43.000000 62.000000 
v 21.000000 43.000000 62.000000 
vn 0.727051 0.686279 0.000000 
vn 0.655029 0.755371 0.000000 
vn 0.727051 0.686279 0.000000 
vn 0.655029 0.755371 0.000000 
vn 0.727051 0.686279 0.000000 
vn 0.575684 0.817383 0.000000 
vn 0.575684 0.817383 0.000000 
vn 0.491455 0.870605 0.000000 
vn 0.655029 0.755371 0.000000 
vn 0.491455 0.870605 0.000000 
vn 0.575684 0.817383 0.000000 
vn 0.491455 0.870605 0.000000 
vn -0.399170 0.817871 -0.413818 
vn -0.457031 0.749268 -0.479004 
vn -0.438965 0.757568 -0.482666 
vn -0.457031 0.749268 -0.479004 
vn -0.399170 0.817871 -0.413818 
vn -0.341797 0.875244 -0.341797 
vn -0.268311 0.925049 -0.268311 
vn -0.341797 0.875244 -0.341797 
vn -0.399170 0.817871 -0.413818 
vn -0.341797 0.875244 -0.341797 
vn -0.268311 0.925049 -0.268311 
vn -0.268311 0.925049 -0.268311 
vn -0.450439 0.757324 0.472412 
vn -0.394287 0.822754 0.409180 
vn -0.432617 0.764893 0.476807 
vn -0.394287 0.822754 0.409180 
vn -0.450439 0.757324 0.472412 
vn -0.339111 0.877197 0.339111 
vn -0.339111 0.877197 0.339111 
vn -0.268311 0.925049 0.268311 
vn -0.394287 0.822754 0.409180 
vn -0.268311 0.925049 0.268311 
vn -0.339111 0.877197 0.339111 
vn -0.268311 0.925049 0.268311 
vn 0.466797 0.763428 0.445801 
vn 0.405029 0.826416 0.390869 
vn 0.470703 0.770996 0.428467 
vn 0.405029 0.826416 0.390869 
vn 0.466797 0.763428 0.445801 
vn 0.337158 0.878906 0.337158 
vn 0.337158 0.878906 0.337158 
vn 0.268311 0.925049 0.268311 
vn 0.405029 0.826416 0.390869 
vn 0.268311 0.925049 0.268311 
vn 0.337158 0.878906 0.337158 
vn 0.268311 0.925049 0.268311 
vn 0.406738 0.824707 -0.392578 
vn 0.469238 0.760498 -0.448242 
vn 0.473145 0.768066 -0.430908 
vn 0.469238 0.760498 -0.448242 
vn 0.406738 0.824707 -0.392578 
vn 0.338135 0.878174 -0.338135 
vn 0.268311 0.925049 -0.268311 
vn 0.338135 0.878174 -0.338135 
vn 0.406738 0.824707 -0.392578 
vn 0.338135 0.878174 -0.338135 
vn 0.268311 0.925049 -0.268311 
vn 0.268311 0.925049 -0.268311 
vn -0.684082 0.729004 0.000000 
vn -0.741943 0.670166 0.000000 
vn -0.741943 0.670166 0.000000 
vn -0.741943 0.670166 0.000000 
vn -0.684082 0.729004 0.000000 
vn -0.621094 0.783447 0.000000 
vn -0.554443 0.832031 0.000000 
vn -0.621094 0.783447 0.000000 
vn -0.684082 0.729004 0.000000 
vn -0.621094 0.783447 0.000000 
vn -0.554443 0.832031 0.000000 
vn -0.554443 0.832031 0.000000 
vn 0.021484 0.655029 0.755127 
vn 0.014893 0.771484 0.635742 
vn 0.043213 0.667969 0.742676 
vn 0.014893 0.771484 0.635742 
vn 0.021484 0.655029 0.755127 
vn 0.000000 0.865967 0.499756 
vn 0.000000 0.865967 0.499756 
vn 0.000000 0.938965 0.343750 
vn 0.014893 0.771484 0.635742 
vn 0.000000 0.938965 0.343750 
vn 0.000000 0.865967 0.499756 
vn 0.000000 0.938965 0.343750 
vn 0.015381 0.789551 -0.613281 
vn 0.022217 0.678223 -0.734375 
vn 0.044678 0.690674 -0.721436 
vn 0.022217 0.678223 -0.734375 
vn 0.015381 0.789551 -0.613281 
vn 0.000000 0.878906 -0.476562 
vn 0.000000 0.947266 -0.320312 
vn 0.000000 0.878906 -0.476562 
vn 0.015381 0.789551 -0.613281 
vn 0.000000 0.878906 -0.476562 
vn 0.000000 0.947266 -0.320312 
vn 0.000000 0.947266 -0.320312 
vt 0.935484 0.000000 
vt 0.000000 0.269841 
vt 0.032258 0.000000 
vt 0.000000 0.269841 
vt 0.935484 0.000000 
vt 1.000000 0.269841 
vt 1.000000 0.269841 
vt 0.129032 0.507937 
vt 0.000000 0.269841 
vt 0.129032 0.507937 
vt 1.000000 0.269841 
vt 0.806452 0.507937 
vt 0.000000 0.269841 
vt 0.935484 0.000000 
vt 0.032258 0.000000 
vt 0.935484 0.000000 
vt 0.000000 0.269841 
vt 1.000000 0.269841 
vt 0.129032 0.507937 
vt 1.000000 0.269841 
vt 0.000000 0.269841 
vt 1.000000 0.269841 
vt 0.129032 0.507937 
vt 0.806452 0.507937 
vt 0.935484 0.000000 
vt 0.000000 0.269841 
vt 0.032258 0.000000 
vt 0.000000 0.269841 
vt 0.935484 0.000000 
vt 1.000000 0.269841 
vt 1.000000 0.269841 
vt 0.129032 0.507937 
vt 0.000000 0.269841 
vt 0.129032 0.507937 
vt 1.000000 0.269841 
vt 0.806452 0.507937 
vt 0.935484 0.000000 
vt 0.000000 0.269841 
vt 0.032258 0.000000 
vt 0.000000 0.269841 
vt 0.935484 0.000000 
vt 1.000000 0.269841 
vt 1.000000 0.269841 
vt 0.129032 0.507937 
vt 0.000000 0.269841 
vt 0.129032 0.507937 
vt 1.000000 0.269841 
vt 0.806452 0.507937 
vt 0.000000 0.269841 
vt 0.935484 0.000000 
vt 0.032258 0.000000 
vt 0.935484 0.000000 
vt 0.000000 0.269841 
vt 1.000000 0.269841 
vt 0.129032 0.507937 
vt 1.000000 0.269841 
vt 0.000000 0.269841 
vt 1.000000 0.269841 
vt 0.129032 0.507937 
vt 0.806452 0.507937 
vt 0.000000 0.269841 
vt 0.935484 0.000000 
vt 0.032258 0.000000 
vt 0.935484 0.000000 
vt 0.000000 0.269841 
vt 1.000000 0.269841 
vt 0.129032 0.507937 
vt 1.000000 0.269841 
vt 0.000000 0.269841 
vt 1.000000 0.269841 
vt 0.129032 0.507937 
vt 0.806452 0.507937 
vt 0.935484 0.000000 
vt 0.000000 0.269841 
vt 0.032258 0.000000 
vt 0.000000 0.269841 
vt 0.935484 0.000000 
vt 1.000000 0.269841 
vt 1.000000 0.269841 
vt 0.129032 0.507937 
vt 0.000000 0.269841 
vt 0.129032 0.507937 
vt 1.000000 0.269841 
vt 0.806452 0.507937 
vt 0.000000 0.269841 
vt 0.935484 0.000000 
vt 0.032258 0.000000 
vt 0.935484 0.000000 
vt 0.000000 0.269841 
vt 1.000000 0.269841 
vt 0.129032 0.507937 
vt 1.000000 0.269841 
vt 0.000000 0.269841 
vt 1.000000 0.269841 
vt 0.129032 0.507937 
vt 0.806452 0.507937 
f 1/1/1 2/2/2 3/3/3
f 4/4/4 5/5/5 6/6/6
f 7/7/7 8/8/8 9/9/9
f 10/10/10 11/11/11 12/12/12
f 13/13/13 14/14/14 15/15/15
f 16/16/16 17/17/17 18/18/18
f 19/19/19 20/20/20 21/21/21
f 22/22/22 23/23/23 24/24/24
f 25/25/25 26/26/26 27/27/27
f 28/28/28 29/29/29 30/30/30
f 31/31/31 32/32/32 33/33/33
f 34/34/34 35/35/35 36/36/36
f 37/37/37 38/38/38 39/39/39
f 40/40/40 41/41/41 42/42/42
f 43/43/43 44/44/44 45/45/45
f 46/46/46 47/47/47 48/48/48
f 49/49/49 50/50/50 51/51/51
f 52/52/52 53/53/53 54/54/54
f 55/55/55 56/56/56 57/57/57
f 58/58/58 59/59/59 60/60/60
f 61/61/61 62/62/62 63/63/63
f 64/64/64 65/65/65 66/66/66
f 67/67/67 68/68/68 69/69/69
f 70/70/70 71/71/71 72/72/72
f 73/73/73 74/74/74 75/75/75
f 76/76/76 77/77/77 78/78/78
f 79/79/79 80/80/80 81/81/81
f 82/82/82 83/83/83 84/84/84
f 85/85/85 86/86/86 87/87/87
f 88/88/88 89/89/89 90/90/90
f 91/91/91 92/92/92 93/93/93
f 94/94/94 95/95/95 96/96/96
