v 242.000000 269.000000 0.000000 
v 242.000000 269.000000 -90.000000 
v -191.000000 269.000000 -90.000000 
v -191.000000 269.000000 -90.000000 
v -191.000000 269.000000 0.000000 
v 242.000000 269.000000 0.000000 
v 242.000000 269.000000 0.000000 
v 242.000000 200.000000 0.000000 
v 242.000000 200.000000 -99.000000 
v 242.000000 200.000000 -99.000000 
v 242.000000 269.000000 -90.000000 
v 242.000000 269.000000 0.000000 
v 242.000000 343.000000 92.000000 
v 242.000000 343.000000 7.000000 
v -191.000000 343.000000 7.000000 
v -191.000000 343.000000 7.000000 
v -191.000000 343.000000 92.000000 
v 242.000000 343.000000 92.000000 
v 242.000000 343.000000 92.000000 
v 242.000000 271.000000 92.000000 
v 242.000000 271.000000 0.000000 
v 242.000000 271.000000 0.000000 
v 242.000000 343.000000 7.000000 
v 242.000000 343.000000 92.000000 
v 242.000000 418.000000 184.000000 
v 242.000000 418.000000 97.000000 
v -191.000000 418.000000 97.000000 
v -191.000000 418.000000 97.000000 
v -191.000000 418.000000 184.000000 
v 242.000000 418.000000 184.000000 
v 242.000000 418.000000 184.000000 
v 242.000000 343.000000 184.000000 
v 242.000000 343.000000 88.000000 
v 242.000000 343.000000 88.000000 
v 242.000000 418.000000 97.000000 
v 242.000000 418.000000 184.000000 
v 242.000000 496.000000 287.000000 
v 242.000000 496.000000 191.000000 
v -191.000000 496.000000 191.000000 
v -191.000000 496.000000 191.000000 
v -191.000000 496.000000 287.000000 
v 242.000000 496.000000 287.000000 
v 242.000000 496.000000 287.000000 
v 242.000000 418.000000 287.000000 
v 242.000000 418.000000 185.000000 
v 242.000000 418.000000 185.000000 
v 242.000000 496.000000 191.000000 
v 242.000000 496.000000 287.000000 
vn 0.707031 0.707031 0.000000 
vn 0.707031 0.707031 0.000000 
vn 0.000000 1.000000 0.000000 
vn 0.000000 1.000000 0.000000 
vn 0.000000 1.000000 0.000000 
vn 0.707031 0.707031 0.000000 
vn 0.707031 0.707031 0.000000 
vn 1.000000 0.000000 0.000000 
vn 1.000000 0.000000 0.000000 
vn 1.000000 0.000000 0.000000 
vn 0.707031 0.707031 0.000000 
vn 0.707031 0.707031 0.000000 
vn 0.707031 0.707031 0.000000 
vn 0.707031 0.707031 0.000000 
vn 0.000000 1.000000 0.000000 
vn 0.000000 1.000000 0.000000 
vn 0.000000 1.000000 0.000000 
vn 0.707031 0.707031 0.000000 
vn 0.707031 0.707031 0.000000 
vn 1.000000 0.000000 0.000000 
vn 1.000000 0.000000 0.000000 
vn 1.000000 0.000000 0.000000 
vn 0.707031 0.707031 0.000000 
vn 0.707031 0.707031 0.000000 
vn 0.707031 0.707031 0.000000 
vn 0.707031 0.707031 0.000000 
vn 0.000000 1.000000 0.000000 
vn 0.000000 1.000000 0.000000 
vn 0.000000 1.000000 0.000000 
vn 0.707031 0.707031 0.000000 
vn 0.707031 0.707031 0.000000 
vn 1.000000 0.000000 0.000000 
vn 1.000000 0.000000 0.000000 
vn 1.000000 0.000000 0.000000 
vn 0.707031 0.707031 0.000000 
vn 0.707031 0.707031 0.000000 
vn 0.707031 0.707031 0.000000 
vn 0.707031 0.707031 0.000000 
vn 0.000000 1.000000 0.000000 
vn 0.000000 1.000000 0.000000 
vn 0.000000 1.000000 0.000000 
vn 0.707031 0.707031 0.000000 
vn 0.707031 0.707031 0.000000 
vn 1.000000 0.000000 0.000000 
vn 1.000000 0.000000 0.000000 
vn 1.000000 0.000000 0.000000 
vn 0.707031 0.707031 0.000000 
vn 0.707031 0.707031 0.000000 
vt 1.000000 0.000000 
vt 1.000000 0.967742 
vt 0.000000 0.967742 
vt 0.000000 0.967742 
vt 0.000000 0.000000 
vt 1.000000 0.000000 
vt 0.968254 0.967742 
vt 0.968254 0.000000 
vt 0.015873 0.000000 
vt 0.015873 0.000000 
vt 0.079365 0.967742 
vt 0.968254 0.967742 
vt 1.000000 0.000000 
vt 1.000000 0.967742 
vt 0.000000 0.967742 
vt 0.000000 0.967742 
vt 0.000000 0.000000 
vt 1.000000 0.000000 
vt 0.968254 0.967742 
vt 0.968254 0.000000 
vt 0.000000 0.000000 
vt 0.000000 0.000000 
vt 0.079365 0.967742 
vt 0.968254 0.967742 
vt 0.000000 -0.032258 
vt 0.000000 0.967742 
vt 1.000000 0.967742 
vt 1.000000 0.967742 
vt 1.000000 -0.032258 
vt 0.000000 -0.032258 
vt 0.936508 0.935484 
vt 0.936508 0.032258 
vt 0.015873 0.032258 
vt 0.015873 0.032258 
vt 0.111111 0.935484 
vt 0.936508 0.935484 
vt 0.000000 0.000000 
vt 0.000000 1.000000 
vt 1.000000 1.000000 
vt 1.000000 1.000000 
vt 1.000000 0.000000 
vt 0.000000 0.000000 
vt 0.984127 1.000000 
vt 0.984127 0.000000 
vt 0.000000 0.000000 
vt 0.000000 0.000000 
vt 0.000000 1.000000 
vt 0.984127 1.000000 
f 1/1/1 2/2/2 3/3/3
f 4/4/4 5/5/5 6/6/6
f 7/7/7 8/8/8 9/9/9
f 10/10/10 11/11/11 12/12/12
f 13/13/13 14/14/14 15/15/15
f 16/16/16 17/17/17 18/18/18
f 19/19/19 20/20/20 21/21/21
f 22/22/22 23/23/23 24/24/24
f 25/25/25 26/26/26 27/27/27
f 28/28/28 29/29/29 30/30/30
f 31/31/31 32/32/32 33/33/33
f 34/34/34 35/35/35 36/36/36
f 37/37/37 38/38/38 39/39/39
f 40/40/40 41/41/41 42/42/42
f 43/43/43 44/44/44 45/45/45
f 46/46/46 47/47/47 48/48/48
