v -10.000000 -19.000000 -7.000000 
v -12.000000 -32.000000 -35.000000 
v 12.000000 -32.000000 -35.000000 
v 12.000000 -32.000000 -35.000000 
v 12.000000 -19.000000 -7.000000 
v -10.000000 -19.000000 -7.000000 
v 32.000000 -35.000000 -9.000000 
v 42.000000 -14.000000 -1.000000 
v 45.000000 2.000000 5.000000 
vn 0.000000 -0.910400 0.413574 
vn 0.000000 -0.910400 0.413574 
vn 0.000000 -0.910400 0.413574 
vn 0.000000 -0.910400 0.413574 
vn 0.000000 -0.910400 0.413574 
vn 0.000000 -0.910400 0.413574 
vn 0.326416 -0.429199 0.841797 
vn 0.326416 -0.429199 0.841797 
vn 0.326416 -0.429199 0.841797 
vt 0.000000 1.000000 
vt 0.000000 1.000000 
vt 0.000000 1.000000 
vt 0.000000 1.000000 
vt 0.000000 1.000000 
vt 0.000000 1.000000 
vt 0.000000 1.000000 
vt 0.000000 1.000000 
vt 0.000000 1.000000 
f 1/1/1 2/2/2 3/3/3
f 4/4/4 5/5/5 6/6/6
f 7/7/7 8/8/8 9/9/9
