v 3.000000 -12.000000 9.000000 
v -14.000000 -29.000000 8.000000 
v -7.000000 -24.000000 -14.000000 
v -7.000000 -24.000000 -14.000000 
v 14.000000 -12.000000 -7.000000 
v 3.000000 -12.000000 9.000000 
v 6.000000 16.000000 14.000000 
v 2.000000 29.000000 -8.000000 
v -5.000000 27.000000 -6.000000 
v -5.000000 27.000000 -6.000000 
v -7.000000 0.000000 14.000000 
v 6.000000 16.000000 14.000000 
v 2.000000 29.000000 -8.000000 
v 14.000000 -12.000000 -7.000000 
v -7.000000 -24.000000 -14.000000 
v -7.000000 -24.000000 -14.000000 
v -5.000000 27.000000 -6.000000 
v 2.000000 29.000000 -8.000000 
v 6.000000 16.000000 14.000000 
v 3.000000 -12.000000 9.000000 
v 14.000000 -12.000000 -7.000000 
v 14.000000 -12.000000 -7.000000 
v 2.000000 29.000000 -8.000000 
v 6.000000 16.000000 14.000000 
v -7.000000 0.000000 14.000000 
v -14.000000 -29.000000 8.000000 
v 3.000000 -12.000000 9.000000 
v 3.000000 -12.000000 9.000000 
v 6.000000 16.000000 14.000000 
v -7.000000 0.000000 14.000000 
v -5.000000 27.000000 -6.000000 
v -7.000000 -24.000000 -14.000000 
v -14.000000 -29.000000 8.000000 
v -14.000000 -29.000000 8.000000 
v -7.000000 0.000000 14.000000 
v -5.000000 27.000000 -6.000000 
vn 0.351807 -0.930420 0.100586 
vn 0.444580 -0.894287 0.048340 
vn 0.351807 -0.930420 0.100586 
vn 0.351807 -0.930420 0.100586 
vn 0.254883 -0.954834 0.151611 
vn 0.351807 -0.930420 0.100586 
vn -0.264648 0.873291 0.408691 
vn -0.026611 0.955566 0.293213 
vn -0.264648 0.873291 0.408691 
vn -0.264648 0.873291 0.408691 
vn -0.482422 0.723877 0.492920 
vn -0.264648 0.873291 0.408691 
vn -0.008057 0.202393 -0.979004 
vn 0.266846 0.110840 -0.957031 
vn -0.008057 0.202393 -0.979004 
vn -0.008057 0.202393 -0.979004 
vn -0.282715 0.276855 -0.918213 
vn -0.008057 0.202393 -0.979004 
vn 0.958984 0.101562 0.263672 
vn 0.829346 -0.261230 0.493652 
vn 0.958984 0.101562 0.263672 
vn 0.958984 0.101562 0.263672 
vn 0.895508 0.444336 -0.019287 
vn 0.958984 0.101562 0.263672 
vn 0.154297 -0.338379 0.927979 
vn 0.115234 -0.385742 0.915283 
vn 0.154297 -0.338379 0.927979 
vn 0.154297 -0.338379 0.927979 
vn 0.192871 -0.289551 0.937256 
vn 0.154297 -0.338379 0.927979 
vn -0.969238 0.238281 -0.059814 
vn -0.948730 0.131592 -0.286621 
vn -0.969238 0.238281 -0.059814 
vn -0.969238 0.238281 -0.059814 
vn -0.928223 0.329834 0.170898 
vn -0.969238 0.238281 -0.059814 
vt 0.818898 0.627451 
vt 0.921260 0.580392 
vt 0.850394 0.607843 
vt 0.850394 0.607843 
vt 0.732283 0.639216 
vt 0.818898 0.627451 
vt 0.811024 0.713725 
vt 0.803150 0.768627 
vt 0.850394 0.764706 
vt 0.850394 0.764706 
vt 0.889764 0.666667 
vt 0.811024 0.713725 
vt 0.803150 0.768627 
vt 0.732283 0.639216 
vt 0.850394 0.607843 
vt 0.850394 0.607843 
vt 0.850394 0.764706 
vt 0.803150 0.768627 
vt 0.811024 0.713725 
vt 0.818898 0.627451 
vt 0.732283 0.639216 
vt 0.732283 0.639216 
vt 0.803150 0.768627 
vt 0.811024 0.713725 
vt 0.889764 0.666667 
vt 0.921260 0.580392 
vt 0.818898 0.627451 
vt 0.818898 0.627451 
vt 0.811024 0.713725 
vt 0.889764 0.666667 
vt 0.850394 0.764706 
vt 0.850394 0.607843 
vt 0.921260 0.580392 
vt 0.921260 0.580392 
vt 0.889764 0.666667 
vt 0.850394 0.764706 
f 1/1/1 2/2/2 3/3/3
f 4/4/4 5/5/5 6/6/6
f 7/7/7 8/8/8 9/9/9
f 10/10/10 11/11/11 12/12/12
f 13/13/13 14/14/14 15/15/15
f 16/16/16 17/17/17 18/18/18
f 19/19/19 20/20/20 21/21/21
f 22/22/22 23/23/23 24/24/24
f 25/25/25 26/26/26 27/27/27
f 28/28/28 29/29/29 30/30/30
f 31/31/31 32/32/32 33/33/33
f 34/34/34 35/35/35 36/36/36
