v 14.000000 -21.000000 27.000000 
v -36.000000 -21.000000 25.000000 
v -32.000000 -3.000000 -36.000000 
v -32.000000 -3.000000 -36.000000 
v 36.000000 -21.000000 -8.000000 
v 14.000000 -21.000000 27.000000 
v 19.000000 8.000000 36.000000 
v 11.000000 21.000000 4.000000 
v -17.000000 15.000000 11.000000 
v -17.000000 15.000000 11.000000 
v -23.000000 -7.000000 36.000000 
v 19.000000 8.000000 36.000000 
v 11.000000 21.000000 4.000000 
v 36.000000 -21.000000 -8.000000 
v -32.000000 -3.000000 -36.000000 
v -32.000000 -3.000000 -36.000000 
v -17.000000 15.000000 11.000000 
v 11.000000 21.000000 4.000000 
v 19.000000 8.000000 36.000000 
v 14.000000 -21.000000 27.000000 
v 36.000000 -21.000000 -8.000000 
v 36.000000 -21.000000 -8.000000 
v 11.000000 21.000000 4.000000 
v 19.000000 8.000000 36.000000 
v -23.000000 -7.000000 36.000000 
v -36.000000 -21.000000 25.000000 
v 14.000000 -21.000000 27.000000 
v 14.000000 -21.000000 27.000000 
v 19.000000 8.000000 36.000000 
v -23.000000 -7.000000 36.000000 
v -17.000000 15.000000 11.000000 
v -32.000000 -3.000000 -36.000000 
v -36.000000 -21.000000 25.000000 
v -36.000000 -21.000000 25.000000 
v -23.000000 -7.000000 36.000000 
v -17.000000 15.000000 11.000000 
vn -0.094727 -0.974609 -0.201660 
vn 0.014893 -0.959961 -0.279297 
vn -0.094727 -0.974609 -0.201660 
vn -0.094727 -0.974609 -0.201660 
vn -0.202881 -0.971680 -0.120361 
vn -0.094727 -0.974609 -0.201660 
vn -0.187500 0.843506 0.503174 
vn -0.093506 0.920166 0.379883 
vn -0.187500 0.843506 0.503174 
vn -0.187500 0.843506 0.503174 
vn -0.275879 0.741455 0.611328 
vn -0.187500 0.843506 0.503174 
vn 0.098145 0.806885 -0.582275 
vn 0.427979 0.496826 -0.754639 
vn 0.098145 0.806885 -0.582275 
vn 0.098145 0.806885 -0.582275 
vn -0.254639 0.927490 -0.273193 
vn 0.098145 0.806885 -0.582275 
vn 0.952148 0.145264 0.268311 
vn 0.830078 -0.260986 0.492432 
vn 0.952148 0.145264 0.268311 
vn 0.952148 0.145264 0.268311 
vn 0.854980 0.518066 -0.017334 
vn 0.952148 0.145264 0.268311 
vn 0.031250 -0.447998 0.893311 
vn -0.042969 -0.598389 0.799805 
vn 0.031250 -0.447998 0.893311 
vn 0.031250 -0.447998 0.893311 
vn 0.104492 -0.281006 0.953857 
vn 0.031250 -0.447998 0.893311 
vn -0.843750 0.503418 0.184570 
vn -0.871094 0.482666 0.089355 
vn -0.843750 0.503418 0.184570 
vn -0.843750 0.503418 0.184570 
vn -0.808105 0.519287 0.277832 
vn -0.843750 0.503418 0.184570 
vt 0.811024 0.917647 
vt 0.645669 0.909804 
vt 0.661417 0.709804 
vt 0.661417 0.709804 
vt 0.881890 0.800000 
vt 0.811024 0.917647 
vt 0.826772 0.945098 
vt 0.803150 0.843137 
vt 0.708661 0.866667 
vt 0.708661 0.866667 
vt 0.692913 0.945098 
vt 0.826772 0.945098 
vt 0.803150 0.843137 
vt 0.881890 0.800000 
vt 0.661417 0.709804 
vt 0.661417 0.709804 
vt 0.708661 0.866667 
vt 0.803150 0.843137 
vt 0.826772 0.945098 
vt 0.811024 0.917647 
vt 0.881890 0.800000 
vt 0.881890 0.800000 
vt 0.803150 0.843137 
vt 0.826772 0.945098 
vt 0.692913 0.945098 
vt 0.645669 0.909804 
vt 0.811024 0.917647 
vt 0.811024 0.917647 
vt 0.826772 0.945098 
vt 0.692913 0.945098 
vt 0.708661 0.866667 
vt 0.661417 0.709804 
vt 0.645669 0.909804 
vt 0.645669 0.909804 
vt 0.692913 0.945098 
vt 0.708661 0.866667 
f 1/1/1 2/2/2 3/3/3
f 4/4/4 5/5/5 6/6/6
f 7/7/7 8/8/8 9/9/9
f 10/10/10 11/11/11 12/12/12
f 13/13/13 14/14/14 15/15/15
f 16/16/16 17/17/17 18/18/18
f 19/19/19 20/20/20 21/21/21
f 22/22/22 23/23/23 24/24/24
f 25/25/25 26/26/26 27/27/27
f 28/28/28 29/29/29 30/30/30
f 31/31/31 32/32/32 33/33/33
f 34/34/34 35/35/35 36/36/36
