v 13.000000 0.000000 24.000000 
v 13.000000 -9.000000 20.000000 
v 30.000000 -7.000000 16.000000 
v 27.000000 0.000000 20.000000 
v 13.000000 0.000000 24.000000 
v 30.000000 -7.000000 16.000000 
v 13.000000 10.000000 20.000000 
v 13.000000 0.000000 24.000000 
v 27.000000 0.000000 20.000000 
v 30.000000 7.000000 16.000000 
v 13.000000 10.000000 20.000000 
v 27.000000 0.000000 20.000000 
v 13.000000 16.000000 10.000000 
v 13.000000 10.000000 20.000000 
v 30.000000 7.000000 16.000000 
vn -0.057129 0.004395 0.998291 
vn -0.022949 -0.610840 0.791260 
vn 0.009521 -0.482178 0.875977 
vn -0.007812 0.124756 0.991943 
vn -0.057129 0.004395 0.998291 
vn 0.009521 -0.482178 0.875977 
vn 0.001465 0.614014 0.789062 
vn -0.057129 0.004395 0.998291 
vn -0.007812 0.124756 0.991943 
vn 0.013916 0.674316 0.738037 
vn 0.001465 0.614014 0.789062 
vn -0.007812 0.124756 0.991943 
vn 0.111328 0.938721 0.325684 
vn 0.001465 0.614014 0.789062 
vn 0.013916 0.674316 0.738037 
vt 0.188976 0.677165 
vt 0.110236 0.677165 
vt 0.110236 0.842520 
vt 0.188976 0.842520 
vt 0.188976 0.677165 
vt 0.110236 0.842520 
vt 0.283465 0.677165 
vt 0.188976 0.677165 
vt 0.188976 0.842520 
vt 0.283465 0.842520 
vt 0.283465 0.677165 
vt 0.188976 0.842520 
vt 0.346457 0.677165 
vt 0.283465 0.677165 
vt 0.283465 0.842520 
f 1/1/1 2/2/2 3/3/3
f 4/4/4 5/5/5 6/6/6
f 7/7/7 8/8/8 9/9/9
f 10/10/10 11/11/11 12/12/12
f 13/13/13 14/14/14 15/15/15
