v 8.000000 -12.000000 17.000000 
v -24.000000 -29.000000 14.000000 
v -11.000000 -24.000000 -25.000000 
v -11.000000 -24.000000 -25.000000 
v 26.000000 -12.000000 -13.000000 
v 8.000000 -12.000000 17.000000 
v 12.000000 16.000000 25.000000 
v 5.000000 29.000000 -14.000000 
v -26.000000 27.000000 -7.000000 
v -26.000000 27.000000 -7.000000 
v -11.000000 0.000000 25.000000 
v 12.000000 16.000000 25.000000 
v 5.000000 29.000000 -14.000000 
v 26.000000 -12.000000 -13.000000 
v -11.000000 -24.000000 -25.000000 
v -11.000000 -24.000000 -25.000000 
v -26.000000 27.000000 -7.000000 
v 5.000000 29.000000 -14.000000 
v 12.000000 16.000000 25.000000 
v 8.000000 -12.000000 17.000000 
v 26.000000 -12.000000 -13.000000 
v 26.000000 -12.000000 -13.000000 
v 5.000000 29.000000 -14.000000 
v 12.000000 16.000000 25.000000 
v -11.000000 0.000000 25.000000 
v -24.000000 -29.000000 14.000000 
v 8.000000 -12.000000 17.000000 
v 8.000000 -12.000000 17.000000 
v 12.000000 16.000000 25.000000 
v -11.000000 0.000000 25.000000 
v -26.000000 27.000000 -7.000000 
v -11.000000 -24.000000 -25.000000 
v -24.000000 -29.000000 14.000000 
v -24.000000 -29.000000 14.000000 
v -11.000000 0.000000 25.000000 
v -26.000000 27.000000 -7.000000 
vn 0.351807 -0.930420 0.100586 
vn 0.444580 -0.894287 0.048340 
vn 0.351807 -0.930420 0.100586 
vn 0.351807 -0.930420 0.100586 
vn 0.254883 -0.954834 0.151611 
vn 0.351807 -0.930420 0.100586 
vn -0.205811 0.832764 0.513428 
vn 0.018555 0.957764 0.286133 
vn -0.205811 0.832764 0.513428 
vn -0.205811 0.832764 0.513428 
vn -0.406250 0.609863 0.680176 
vn -0.205811 0.832764 0.513428 
vn 0.018555 0.194336 -0.980713 
vn 0.266846 0.110840 -0.957031 
vn 0.018555 0.194336 -0.980713 
vn 0.018555 0.194336 -0.980713 
vn -0.230957 0.264160 -0.936279 
vn 0.018555 0.194336 -0.980713 
vn 0.958984 0.101562 0.263672 
vn 0.829346 -0.261230 0.493652 
vn 0.958984 0.101562 0.263672 
vn 0.958984 0.101562 0.263672 
vn 0.895508 0.444336 -0.019287 
vn 0.958984 0.101562 0.263672 
vn 0.154297 -0.338379 0.927979 
vn 0.115234 -0.385742 0.915283 
vn 0.154297 -0.338379 0.927979 
vn 0.154297 -0.338379 0.927979 
vn 0.192871 -0.289551 0.937256 
vn 0.154297 -0.338379 0.927979 
vn -0.993164 0.003906 0.114502 
vn -0.936523 -0.157227 -0.312744 
vn -0.993164 0.003906 0.114502 
vn -0.993164 0.003906 0.114502 
vn -0.839355 0.164551 0.517578 
vn -0.993164 0.003906 0.114502 
vt 0.181102 0.854902 
vt 0.291339 0.784314 
vt 0.196850 0.772549 
vt 0.196850 0.772549 
vt 0.070866 0.835294 
vt 0.181102 0.854902 
vt 0.188976 0.941176 
vt 0.149606 0.992157 
vt 0.275591 0.984314 
vt 0.275591 0.984314 
vt 0.259843 0.909804 
vt 0.188976 0.941176 
vt 0.149606 0.992157 
vt 0.070866 0.835294 
vt 0.196850 0.772549 
vt 0.196850 0.772549 
vt 0.275591 0.984314 
vt 0.149606 0.992157 
vt 0.188976 0.941176 
vt 0.181102 0.854902 
vt 0.070866 0.835294 
vt 0.070866 0.835294 
vt 0.149606 0.992157 
vt 0.188976 0.941176 
vt 0.259843 0.909804 
vt 0.291339 0.784314 
vt 0.181102 0.854902 
vt 0.181102 0.854902 
vt 0.188976 0.941176 
vt 0.259843 0.909804 
vt 0.275591 0.984314 
vt 0.196850 0.772549 
vt 0.291339 0.784314 
vt 0.291339 0.784314 
vt 0.259843 0.909804 
vt 0.275591 0.984314 
f 1/1/1 2/2/2 3/3/3
f 4/4/4 5/5/5 6/6/6
f 7/7/7 8/8/8 9/9/9
f 10/10/10 11/11/11 12/12/12
f 13/13/13 14/14/14 15/15/15
f 16/16/16 17/17/17 18/18/18
f 19/19/19 20/20/20 21/21/21
f 22/22/22 23/23/23 24/24/24
f 25/25/25 26/26/26 27/27/27
f 28/28/28 29/29/29 30/30/30
f 31/31/31 32/32/32 33/33/33
f 34/34/34 35/35/35 36/36/36
