v 19.000000 -22.000000 -15.000000 
v 0.000000 -22.000000 -19.000000 
v 0.000000 0.000000 0.000000 
v 31.000000 -22.000000 -5.000000 
v 19.000000 -22.000000 -15.000000 
v 0.000000 0.000000 0.000000 
v 29.000000 -22.000000 7.000000 
v 31.000000 -22.000000 -5.000000 
v 0.000000 0.000000 0.000000 
v 18.000000 -22.000000 23.000000 
v 29.000000 -22.000000 7.000000 
v 0.000000 0.000000 0.000000 
v 0.000000 -22.000000 29.000000 
v 18.000000 -22.000000 23.000000 
v 0.000000 0.000000 0.000000 
v -18.000000 -22.000000 23.000000 
v 0.000000 -22.000000 29.000000 
v 0.000000 0.000000 0.000000 
v -29.000000 -22.000000 7.000000 
v -18.000000 -22.000000 23.000000 
v 0.000000 0.000000 0.000000 
v -31.000000 -22.000000 -5.000000 
v -29.000000 -22.000000 7.000000 
v 0.000000 0.000000 0.000000 
v -19.000000 -22.000000 -15.000000 
v -31.000000 -22.000000 -5.000000 
v 0.000000 0.000000 0.000000 
v 0.000000 -22.000000 -19.000000 
v -19.000000 -22.000000 -15.000000 
v 0.000000 0.000000 0.000000 
v 32.000000 -56.000000 -24.000000 
v 0.000000 -56.000000 -30.000000 
v 0.000000 -22.000000 -19.000000 
v 19.000000 -22.000000 -15.000000 
v 32.000000 -56.000000 -24.000000 
v 0.000000 -22.000000 -19.000000 
v 53.000000 -56.000000 -9.000000 
v 32.000000 -56.000000 -24.000000 
v 19.000000 -22.000000 -15.000000 
v 31.000000 -22.000000 -5.000000 
v 53.000000 -56.000000 -9.000000 
v 19.000000 -22.000000 -15.000000 
v 48.000000 -56.000000 13.000000 
v 53.000000 -56.000000 -9.000000 
v 31.000000 -22.000000 -5.000000 
v 29.000000 -22.000000 7.000000 
v 48.000000 -56.000000 13.000000 
v 31.000000 -22.000000 -5.000000 
v 29.000000 -56.000000 38.000000 
v 48.000000 -56.000000 13.000000 
v 29.000000 -22.000000 7.000000 
v 18.000000 -22.000000 23.000000 
v 29.000000 -56.000000 38.000000 
v 29.000000 -22.000000 7.000000 
v 0.000000 -56.000000 48.000000 
v 29.000000 -56.000000 38.000000 
v 18.000000 -22.000000 23.000000 
v 0.000000 -22.000000 29.000000 
v 0.000000 -56.000000 48.000000 
v 18.000000 -22.000000 23.000000 
v -29.000000 -56.000000 38.000000 
v 0.000000 -56.000000 48.000000 
v 0.000000 -22.000000 29.000000 
v -18.000000 -22.000000 23.000000 
v -29.000000 -56.000000 38.000000 
v 0.000000 -22.000000 29.000000 
v -48.000000 -56.000000 13.000000 
v -29.000000 -56.000000 38.000000 
v -18.000000 -22.000000 23.000000 
v -29.000000 -22.000000 7.000000 
v -48.000000 -56.000000 13.000000 
v -18.000000 -22.000000 23.000000 
v -53.000000 -56.000000 -9.000000 
v -48.000000 -56.000000 13.000000 
v -29.000000 -22.000000 7.000000 
v -31.000000 -22.000000 -5.000000 
v -53.000000 -56.000000 -9.000000 
v -29.000000 -22.000000 7.000000 
v -32.000000 -56.000000 -24.000000 
v -53.000000 -56.000000 -9.000000 
v -31.000000 -22.000000 -5.000000 
v -19.000000 -22.000000 -15.000000 
v -32.000000 -56.000000 -24.000000 
v -31.000000 -22.000000 -5.000000 
v 0.000000 -56.000000 -30.000000 
v -32.000000 -56.000000 -24.000000 
v -19.000000 -22.000000 -15.000000 
v 0.000000 -22.000000 -19.000000 
v 0.000000 -56.000000 -30.000000 
v -19.000000 -22.000000 -15.000000 
v 32.000000 -92.000000 -24.000000 
v 0.000000 -92.000000 -30.000000 
v 0.000000 -56.000000 -30.000000 
v 32.000000 -56.000000 -24.000000 
v 32.000000 -92.000000 -24.000000 
v 0.000000 -56.000000 -30.000000 
v 53.000000 -92.000000 -9.000000 
v 32.000000 -92.000000 -24.000000 
v 32.000000 -56.000000 -24.000000 
v 53.000000 -56.000000 -9.000000 
v 53.000000 -92.000000 -9.000000 
v 32.000000 -56.000000 -24.000000 
v 48.000000 -92.000000 13.000000 
v 53.000000 -92.000000 -9.000000 
v 53.000000 -56.000000 -9.000000 
v 48.000000 -56.000000 13.000000 
v 48.000000 -92.000000 13.000000 
v 53.000000 -56.000000 -9.000000 
v 29.000000 -92.000000 38.000000 
v 48.000000 -92.000000 13.000000 
v 48.000000 -56.000000 13.000000 
v 29.000000 -56.000000 38.000000 
v 29.000000 -92.000000 38.000000 
v 48.000000 -56.000000 13.000000 
v 0.000000 -92.000000 48.000000 
v 29.000000 -92.000000 38.000000 
v 29.000000 -56.000000 38.000000 
v 0.000000 -56.000000 48.000000 
v 0.000000 -92.000000 48.000000 
v 29.000000 -56.000000 38.000000 
v -29.000000 -92.000000 38.000000 
v 0.000000 -92.000000 48.000000 
v 0.000000 -56.000000 48.000000 
v -29.000000 -56.000000 38.000000 
v -29.000000 -92.000000 38.000000 
v 0.000000 -56.000000 48.000000 
v -48.000000 -92.000000 13.000000 
v -29.000000 -92.000000 38.000000 
v -29.000000 -56.000000 38.000000 
v -48.000000 -56.000000 13.000000 
v -48.000000 -92.000000 13.000000 
v -29.000000 -56.000000 38.000000 
v -53.000000 -92.000000 -9.000000 
v -48.000000 -92.000000 13.000000 
v -48.000000 -56.000000 13.000000 
v -53.000000 -56.000000 -9.000000 
v -53.000000 -92.000000 -9.000000 
v -48.000000 -56.000000 13.000000 
v -32.000000 -92.000000 -24.000000 
v -53.000000 -92.000000 -9.000000 
v -53.000000 -56.000000 -9.000000 
v -32.000000 -56.000000 -24.000000 
v -32.000000 -92.000000 -24.000000 
v -53.000000 -56.000000 -9.000000 
v 0.000000 -92.000000 -30.000000 
v -32.000000 -92.000000 -24.000000 
v -32.000000 -56.000000 -24.000000 
v 0.000000 -56.000000 -30.000000 
v 0.000000 -92.000000 -30.000000 
v -32.000000 -56.000000 -24.000000 
v 19.000000 -118.000000 -15.000000 
v 0.000000 -118.000000 -19.000000 
v 0.000000 -92.000000 -30.000000 
v 32.000000 -92.000000 -24.000000 
v 19.000000 -118.000000 -15.000000 
v 0.000000 -92.000000 -30.000000 
v 32.000000 -118.000000 -5.000000 
v 19.000000 -118.000000 -15.000000 
v 32.000000 -92.000000 -24.000000 
v 53.000000 -92.000000 -9.000000 
v 32.000000 -118.000000 -5.000000 
v 32.000000 -92.000000 -24.000000 
v 29.000000 -118.000000 9.000000 
v 32.000000 -118.000000 -5.000000 
v 53.000000 -92.000000 -9.000000 
v 48.000000 -92.000000 13.000000 
v 29.000000 -118.000000 9.000000 
v 53.000000 -92.000000 -9.000000 
v 18.000000 -118.000000 23.000000 
v 29.000000 -118.000000 9.000000 
v 48.000000 -92.000000 13.000000 
v 29.000000 -92.000000 38.000000 
v 18.000000 -118.000000 23.000000 
v 48.000000 -92.000000 13.000000 
v 0.000000 -118.000000 28.000000 
v 18.000000 -118.000000 23.000000 
v 29.000000 -92.000000 38.000000 
v 0.000000 -92.000000 48.000000 
v 0.000000 -118.000000 28.000000 
v 29.000000 -92.000000 38.000000 
v -18.000000 -118.000000 23.000000 
v 0.000000 -118.000000 28.000000 
v 0.000000 -92.000000 48.000000 
v -29.000000 -92.000000 38.000000 
v -18.000000 -118.000000 23.000000 
v 0.000000 -92.000000 48.000000 
v -29.000000 -118.000000 9.000000 
v -18.000000 -118.000000 23.000000 
v -29.000000 -92.000000 38.000000 
v -48.000000 -92.000000 13.000000 
v -29.000000 -118.000000 9.000000 
v -29.000000 -92.000000 38.000000 
v -32.000000 -118.000000 -5.000000 
v -29.000000 -118.000000 9.000000 
v -48.000000 -92.000000 13.000000 
v -53.000000 -92.000000 -9.000000 
v -32.000000 -118.000000 -5.000000 
v -48.000000 -92.000000 13.000000 
v -19.000000 -118.000000 -15.000000 
v -32.000000 -118.000000 -5.000000 
v -53.000000 -92.000000 -9.000000 
v -32.000000 -92.000000 -24.000000 
v -19.000000 -118.000000 -15.000000 
v -53.000000 -92.000000 -9.000000 
v 0.000000 -118.000000 -19.000000 
v -19.000000 -118.000000 -15.000000 
v -32.000000 -92.000000 -24.000000 
v 0.000000 -92.000000 -30.000000 
v 0.000000 -118.000000 -19.000000 
v -32.000000 -92.000000 -24.000000 
v 0.000000 -118.000000 -19.000000 
v 19.000000 -118.000000 -15.000000 
v 0.000000 -128.000000 0.000000 
v 19.000000 -118.000000 -15.000000 
v 32.000000 -118.000000 -5.000000 
v 0.000000 -128.000000 0.000000 
v 32.000000 -118.000000 -5.000000 
v 29.000000 -118.000000 9.000000 
v 0.000000 -128.000000 0.000000 
v 29.000000 -118.000000 9.000000 
v 18.000000 -118.000000 23.000000 
v 0.000000 -128.000000 0.000000 
v 18.000000 -118.000000 23.000000 
v 0.000000 -118.000000 28.000000 
v 0.000000 -128.000000 0.000000 
v 0.000000 -118.000000 28.000000 
v -18.000000 -118.000000 23.000000 
v 0.000000 -128.000000 0.000000 
v -18.000000 -118.000000 23.000000 
v -29.000000 -118.000000 9.000000 
v 0.000000 -128.000000 0.000000 
v -29.000000 -118.000000 9.000000 
v -32.000000 -118.000000 -5.000000 
v 0.000000 -128.000000 0.000000 
v -32.000000 -118.000000 -5.000000 
v -19.000000 -118.000000 -15.000000 
v 0.000000 -128.000000 0.000000 
v -19.000000 -118.000000 -15.000000 
v 0.000000 -118.000000 -19.000000 
v 0.000000 -128.000000 0.000000 
vn 0.396973 0.581787 -0.709473 
vn 0.037354 0.523926 -0.850830 
vn 0.000000 0.997559 -0.067139 
vn 0.708740 0.682373 -0.178711 
vn 0.396973 0.581787 -0.709473 
vn 0.000000 0.997559 -0.067139 
vn 0.692383 0.659424 0.292236 
vn 0.708740 0.682373 -0.178711 
vn 0.000000 0.997559 -0.067139 
vn 0.413818 0.678711 0.606445 
vn 0.692383 0.659424 0.292236 
vn 0.000000 0.997559 -0.067139 
vn -0.060303 0.688965 0.721924 
vn 0.413818 0.678711 0.606445 
vn 0.000000 0.997559 -0.067139 
vn -0.504395 0.674072 0.539062 
vn -0.060303 0.688965 0.721924 
vn 0.000000 0.997559 -0.067139 
vn -0.710938 0.665283 0.226562 
vn -0.504395 0.674072 0.539062 
vn 0.000000 0.997559 -0.067139 
vn -0.647949 0.671387 -0.358887 
vn -0.710938 0.665283 0.226562 
vn 0.000000 0.997559 -0.067139 
vn -0.318115 0.562988 -0.762451 
vn -0.647949 0.671387 -0.358887 
vn 0.000000 0.997559 -0.067139 
vn 0.037354 0.523926 -0.850830 
vn -0.318115 0.562988 -0.762451 
vn 0.000000 0.997559 -0.067139 
vn 0.428467 0.216553 -0.876953 
vn 0.001221 0.197510 -0.980225 
vn 0.037354 0.523926 -0.850830 
vn 0.396973 0.581787 -0.709473 
vn 0.428467 0.216553 -0.876953 
vn 0.037354 0.523926 -0.850830 
vn 0.904053 0.293213 -0.310547 
vn 0.428467 0.216553 -0.876953 
vn 0.396973 0.581787 -0.709473 
vn 0.708740 0.682373 -0.178711 
vn 0.904053 0.293213 -0.310547 
vn 0.396973 0.581787 -0.709473 
vn 0.893799 0.279053 0.350830 
vn 0.904053 0.293213 -0.310547 
vn 0.708740 0.682373 -0.178711 
vn 0.692383 0.659424 0.292236 
vn 0.893799 0.279053 0.350830 
vn 0.708740 0.682373 -0.178711 
vn 0.590332 0.287354 0.753906 
vn 0.893799 0.279053 0.350830 
vn 0.692383 0.659424 0.292236 
vn 0.413818 0.678711 0.606445 
vn 0.590332 0.287354 0.753906 
vn 0.692383 0.659424 0.292236 
vn -0.010010 0.299561 0.953857 
vn 0.590332 0.287354 0.753906 
vn 0.413818 0.678711 0.606445 
vn -0.060303 0.688965 0.721924 
vn -0.010010 0.299561 0.953857 
vn 0.413818 0.678711 0.606445 
vn -0.603271 0.292236 0.741699 
vn -0.010010 0.299561 0.953857 
vn -0.060303 0.688965 0.721924 
vn -0.504395 0.674072 0.539062 
vn -0.603271 0.292236 0.741699 
vn -0.060303 0.688965 0.721924 
vn -0.895020 0.274658 0.350586 
vn -0.603271 0.292236 0.741699 
vn -0.504395 0.674072 0.539062 
vn -0.710938 0.665283 0.226562 
vn -0.895020 0.274658 0.350586 
vn -0.504395 0.674072 0.539062 
vn -0.887207 0.304199 -0.346191 
vn -0.895020 0.274658 0.350586 
vn -0.710938 0.665283 0.226562 
vn -0.647949 0.671387 -0.358887 
vn -0.887207 0.304199 -0.346191 
vn -0.710938 0.665283 0.226562 
vn -0.420410 0.234375 -0.876465 
vn -0.887207 0.304199 -0.346191 
vn -0.647949 0.671387 -0.358887 
vn -0.318115 0.562988 -0.762451 
vn -0.420410 0.234375 -0.876465 
vn -0.647949 0.671387 -0.358887 
vn 0.001221 0.197510 -0.980225 
vn -0.420410 0.234375 -0.876465 
vn -0.318115 0.562988 -0.762451 
vn 0.037354 0.523926 -0.850830 
vn 0.001221 0.197510 -0.980225 
vn -0.318115 0.562988 -0.762451 
vn 0.409668 -0.288330 -0.865234 
vn -0.003418 -0.249023 -0.968262 
vn 0.001221 0.197510 -0.980225 
vn 0.428467 0.216553 -0.876953 
vn 0.409668 -0.288330 -0.865234 
vn 0.001221 0.197510 -0.980225 
vn 0.865479 -0.364502 -0.343506 
vn 0.409668 -0.288330 -0.865234 
vn 0.428467 0.216553 -0.876953 
vn 0.904053 0.293213 -0.310547 
vn 0.865479 -0.364502 -0.343506 
vn 0.428467 0.216553 -0.876953 
vn 0.877441 -0.327393 0.349854 
vn 0.865479 -0.364502 -0.343506 
vn 0.904053 0.293213 -0.310547 
vn 0.893799 0.279053 0.350830 
vn 0.877441 -0.327393 0.349854 
vn 0.904053 0.293213 -0.310547 
vn 0.590332 -0.354492 0.724854 
vn 0.877441 -0.327393 0.349854 
vn 0.893799 0.279053 0.350830 
vn 0.590332 0.287354 0.753906 
vn 0.590332 -0.354492 0.724854 
vn 0.893799 0.279053 0.350830 
vn 0.019531 -0.364990 0.930664 
vn 0.590332 -0.354492 0.724854 
vn 0.590332 0.287354 0.753906 
vn -0.010010 0.299561 0.953857 
vn 0.019531 -0.364990 0.930664 
vn 0.590332 0.287354 0.753906 
vn -0.570312 -0.343750 0.745850 
vn 0.019531 -0.364990 0.930664 
vn -0.010010 0.299561 0.953857 
vn -0.603271 0.292236 0.741699 
vn -0.570312 -0.343750 0.745850 
vn -0.010010 0.299561 0.953857 
vn -0.875488 -0.332275 0.350098 
vn -0.570312 -0.343750 0.745850 
vn -0.603271 0.292236 0.741699 
vn -0.895020 0.274658 0.350586 
vn -0.875488 -0.332275 0.350098 
vn -0.603271 0.292236 0.741699 
vn -0.885742 -0.353271 -0.300537 
vn -0.875488 -0.332275 0.350098 
vn -0.895020 0.274658 0.350586 
vn -0.887207 0.304199 -0.346191 
vn -0.885742 -0.353271 -0.300537 
vn -0.895020 0.274658 0.350586 
vn -0.423340 -0.269775 -0.864746 
vn -0.885742 -0.353271 -0.300537 
vn -0.887207 0.304199 -0.346191 
vn -0.420410 0.234375 -0.876465 
vn -0.423340 -0.269775 -0.864746 
vn -0.887207 0.304199 -0.346191 
vn -0.003418 -0.249023 -0.968262 
vn -0.423340 -0.269775 -0.864746 
vn -0.420410 0.234375 -0.876465 
vn 0.001221 0.197510 -0.980225 
vn -0.003418 -0.249023 -0.968262 
vn -0.420410 0.234375 -0.876465 
vn 0.254639 -0.723389 -0.641602 
vn -0.036865 -0.693604 -0.719238 
vn -0.003418 -0.249023 -0.968262 
vn 0.409668 -0.288330 -0.865234 
vn 0.254639 -0.723389 -0.641602 
vn -0.003418 -0.249023 -0.968262 
vn 0.510742 -0.806152 -0.297852 
vn 0.254639 -0.723389 -0.641602 
vn 0.409668 -0.288330 -0.865234 
vn 0.865479 -0.364502 -0.343506 
vn 0.510742 -0.806152 -0.297852 
vn 0.409668 -0.288330 -0.865234 
vn 0.571045 -0.797119 0.195557 
vn 0.510742 -0.806152 -0.297852 
vn 0.865479 -0.364502 -0.343506 
vn 0.877441 -0.327393 0.349854 
vn 0.571045 -0.797119 0.195557 
vn 0.865479 -0.364502 -0.343506 
vn 0.399170 -0.802979 0.442383 
vn 0.571045 -0.797119 0.195557 
vn 0.877441 -0.327393 0.349854 
vn 0.590332 -0.354492 0.724854 
vn 0.399170 -0.802979 0.442383 
vn 0.877441 -0.327393 0.349854 
vn 0.055908 -0.818604 0.571289 
vn 0.399170 -0.802979 0.442383 
vn 0.590332 -0.354492 0.724854 
vn 0.019531 -0.364990 0.930664 
vn 0.055908 -0.818604 0.571289 
vn 0.590332 -0.354492 0.724854 
vn -0.305908 -0.813477 0.494141 
vn 0.055908 -0.818604 0.571289 
vn 0.019531 -0.364990 0.930664 
vn -0.570312 -0.343750 0.745850 
vn -0.305908 -0.813477 0.494141 
vn 0.019531 -0.364990 0.930664 
vn -0.549561 -0.795410 0.255127 
vn -0.305908 -0.813477 0.494141 
vn -0.570312 -0.343750 0.745850 
vn -0.875488 -0.332275 0.350098 
vn -0.549561 -0.795410 0.255127 
vn -0.570312 -0.343750 0.745850 
vn -0.563477 -0.815674 -0.128906 
vn -0.549561 -0.795410 0.255127 
vn -0.875488 -0.332275 0.350098 
vn -0.885742 -0.353271 -0.300537 
vn -0.563477 -0.815674 -0.128906 
vn -0.875488 -0.332275 0.350098 
vn -0.329346 -0.739746 -0.586426 
vn -0.563477 -0.815674 -0.128906 
vn -0.885742 -0.353271 -0.300537 
vn -0.423340 -0.269775 -0.864746 
vn -0.329346 -0.739746 -0.586426 
vn -0.885742 -0.353271 -0.300537 
vn -0.036865 -0.693604 -0.719238 
vn -0.329346 -0.739746 -0.586426 
vn -0.423340 -0.269775 -0.864746 
vn -0.003418 -0.249023 -0.968262 
vn -0.036865 -0.693604 -0.719238 
vn -0.423340 -0.269775 -0.864746 
vn -0.036865 -0.693604 -0.719238 
vn 0.254639 -0.723389 -0.641602 
vn 0.000000 -0.999268 -0.035889 
vn 0.254639 -0.723389 -0.641602 
vn 0.510742 -0.806152 -0.297852 
vn 0.000000 -0.999268 -0.035889 
vn 0.510742 -0.806152 -0.297852 
vn 0.571045 -0.797119 0.195557 
vn 0.000000 -0.999268 -0.035889 
vn 0.571045 -0.797119 0.195557 
vn 0.399170 -0.802979 0.442383 
vn 0.000000 -0.999268 -0.035889 
vn 0.399170 -0.802979 0.442383 
vn 0.055908 -0.818604 0.571289 
vn 0.000000 -0.999268 -0.035889 
vn 0.055908 -0.818604 0.571289 
vn -0.305908 -0.813477 0.494141 
vn 0.000000 -0.999268 -0.035889 
vn -0.305908 -0.813477 0.494141 
vn -0.549561 -0.795410 0.255127 
vn 0.000000 -0.999268 -0.035889 
vn -0.549561 -0.795410 0.255127 
vn -0.563477 -0.815674 -0.128906 
vn 0.000000 -0.999268 -0.035889 
vn -0.563477 -0.815674 -0.128906 
vn -0.329346 -0.739746 -0.586426 
vn 0.000000 -0.999268 -0.035889 
vn -0.329346 -0.739746 -0.586426 
vn -0.036865 -0.693604 -0.719238 
vn 0.000000 -0.999268 -0.035889 
vt 0.746032 0.842520 
vt 0.714286 0.842520 
vt 0.714286 0.881890 
vt 0.777778 0.834646 
vt 0.746032 0.842520 
vt 0.714286 0.881890 
vt 0.555556 0.826772 
vt 0.587302 0.905512 
vt 0.000000 0.992126 
vt 0.333333 0.826772 
vt 0.555556 0.826772 
vt 0.000000 0.992126 
vt 0.000000 0.826772 
vt 0.333333 0.826772 
vt 0.000000 0.992126 
vt 0.333333 0.826772 
vt 0.000000 0.826772 
vt 0.000000 0.992126 
vt 0.555556 0.826772 
vt 0.333333 0.826772 
vt 0.000000 0.992126 
vt 0.587302 0.905512 
vt 0.555556 0.826772 
vt 0.000000 0.992126 
vt 0.666667 0.842520 
vt 0.634921 0.834646 
vt 0.714286 0.881890 
vt 0.714286 0.842520 
vt 0.666667 0.842520 
vt 0.714286 0.881890 
vt 0.777778 0.779528 
vt 0.714286 0.779528 
vt 0.714286 0.842520 
vt 0.746032 0.842520 
vt 0.777778 0.779528 
vt 0.714286 0.842520 
vt 0.825397 0.779528 
vt 0.777778 0.779528 
vt 0.746032 0.842520 
vt 0.777778 0.834646 
vt 0.825397 0.779528 
vt 0.746032 0.842520 
vt 0.904762 0.551181 
vt 1.000000 0.551181 
vt 0.587302 0.905512 
vt 0.555556 0.826772 
vt 0.904762 0.551181 
vt 0.587302 0.905512 
vt 0.555556 0.551181 
vt 0.904762 0.551181 
vt 0.555556 0.826772 
vt 0.333333 0.826772 
vt 0.555556 0.551181 
vt 0.555556 0.826772 
vt 0.000000 0.551181 
vt 0.555556 0.551181 
vt 0.333333 0.826772 
vt 0.000000 0.826772 
vt 0.000000 0.551181 
vt 0.333333 0.826772 
vt 0.555556 0.551181 
vt 0.000000 0.551181 
vt 0.000000 0.826772 
vt 0.333333 0.826772 
vt 0.555556 0.551181 
vt 0.000000 0.826772 
vt 0.904762 0.551181 
vt 0.555556 0.551181 
vt 0.333333 0.826772 
vt 0.555556 0.826772 
vt 0.904762 0.551181 
vt 0.333333 0.826772 
vt 1.000000 0.551181 
vt 0.904762 0.551181 
vt 0.555556 0.826772 
vt 0.587302 0.905512 
vt 1.000000 0.551181 
vt 0.555556 0.826772 
vt 0.634921 0.779528 
vt 0.587302 0.779528 
vt 0.634921 0.834646 
vt 0.666667 0.842520 
vt 0.634921 0.779528 
vt 0.634921 0.834646 
vt 0.714286 0.779528 
vt 0.634921 0.779528 
vt 0.666667 0.842520 
vt 0.714286 0.842520 
vt 0.714286 0.779528 
vt 0.666667 0.842520 
vt 0.777778 0.716535 
vt 0.714286 0.716535 
vt 0.714286 0.779528 
vt 0.777778 0.779528 
vt 0.777778 0.716535 
vt 0.714286 0.779528 
vt 0.825397 0.708661 
vt 0.777778 0.716535 
vt 0.777778 0.779528 
vt 0.825397 0.779528 
vt 0.825397 0.708661 
vt 0.777778 0.779528 
vt 0.904762 0.267717 
vt 1.000000 0.267717 
vt 1.000000 0.551181 
vt 0.904762 0.551181 
vt 0.904762 0.267717 
vt 1.000000 0.551181 
vt 0.555556 0.267717 
vt 0.904762 0.267717 
vt 0.904762 0.551181 
vt 0.555556 0.551181 
vt 0.555556 0.267717 
vt 0.904762 0.551181 
vt 0.000000 0.267717 
vt 0.555556 0.267717 
vt 0.555556 0.551181 
vt 0.000000 0.551181 
vt 0.000000 0.267717 
vt 0.555556 0.551181 
vt 0.555556 0.267717 
vt 0.000000 0.267717 
vt 0.000000 0.551181 
vt 0.555556 0.551181 
vt 0.555556 0.267717 
vt 0.000000 0.551181 
vt 0.904762 0.267717 
vt 0.555556 0.267717 
vt 0.555556 0.551181 
vt 0.904762 0.551181 
vt 0.904762 0.267717 
vt 0.555556 0.551181 
vt 1.000000 0.267717 
vt 0.904762 0.267717 
vt 0.904762 0.551181 
vt 1.000000 0.551181 
vt 1.000000 0.267717 
vt 0.904762 0.551181 
vt 0.634921 0.716535 
vt 0.587302 0.708661 
vt 0.587302 0.779528 
vt 0.634921 0.779528 
vt 0.634921 0.716535 
vt 0.587302 0.779528 
vt 0.714286 0.716535 
vt 0.634921 0.716535 
vt 0.634921 0.779528 
vt 0.714286 0.779528 
vt 0.714286 0.716535 
vt 0.634921 0.779528 
vt 0.746032 0.669291 
vt 0.714286 0.669291 
vt 0.714286 0.716535 
vt 0.777778 0.716535 
vt 0.746032 0.669291 
vt 0.714286 0.716535 
vt 0.777778 0.669291 
vt 0.746032 0.669291 
vt 0.777778 0.716535 
vt 0.825397 0.708661 
vt 0.777778 0.669291 
vt 0.777778 0.716535 
vt 0.555556 0.070866 
vt 0.777778 0.070866 
vt 1.000000 0.267717 
vt 0.904762 0.267717 
vt 0.555556 0.070866 
vt 1.000000 0.267717 
vt 0.333333 0.070866 
vt 0.555556 0.070866 
vt 0.904762 0.267717 
vt 0.555556 0.267717 
vt 0.333333 0.070866 
vt 0.904762 0.267717 
vt 0.000000 0.070866 
vt 0.333333 0.070866 
vt 0.555556 0.267717 
vt 0.000000 0.267717 
vt 0.000000 0.070866 
vt 0.555556 0.267717 
vt 0.333333 0.070866 
vt 0.000000 0.070866 
vt 0.000000 0.267717 
vt 0.555556 0.267717 
vt 0.333333 0.070866 
vt 0.000000 0.267717 
vt 0.555556 0.070866 
vt 0.333333 0.070866 
vt 0.555556 0.267717 
vt 0.904762 0.267717 
vt 0.555556 0.070866 
vt 0.555556 0.267717 
vt 0.777778 0.070866 
vt 0.555556 0.070866 
vt 0.904762 0.267717 
vt 1.000000 0.267717 
vt 0.777778 0.070866 
vt 0.904762 0.267717 
vt 0.666667 0.669291 
vt 0.634921 0.669291 
vt 0.587302 0.708661 
vt 0.634921 0.716535 
vt 0.666667 0.669291 
vt 0.587302 0.708661 
vt 0.714286 0.669291 
vt 0.666667 0.669291 
vt 0.634921 0.716535 
vt 0.714286 0.716535 
vt 0.714286 0.669291 
vt 0.634921 0.716535 
vt 0.714286 0.669291 
vt 0.746032 0.669291 
vt 0.714286 0.645669 
vt 0.746032 0.669291 
vt 0.777778 0.669291 
vt 0.714286 0.645669 
vt 0.777778 0.070866 
vt 0.555556 0.070866 
vt 0.000000 -0.007874 
vt 0.555556 0.070866 
vt 0.333333 0.070866 
vt 0.000000 -0.007874 
vt 0.333333 0.070866 
vt 0.000000 0.070866 
vt 0.000000 -0.007874 
vt 0.000000 0.070866 
vt 0.333333 0.070866 
vt 0.000000 -0.007874 
vt 0.333333 0.070866 
vt 0.555556 0.070866 
vt 0.000000 -0.007874 
vt 0.555556 0.070866 
vt 0.777778 0.070866 
vt 0.000000 -0.007874 
vt 0.634921 0.669291 
vt 0.666667 0.669291 
vt 0.714286 0.645669 
vt 0.666667 0.669291 
vt 0.714286 0.669291 
vt 0.714286 0.645669 
f 1/1/1 2/2/2 3/3/3
f 4/4/4 5/5/5 6/6/6
f 7/7/7 8/8/8 9/9/9
f 10/10/10 11/11/11 12/12/12
f 13/13/13 14/14/14 15/15/15
f 16/16/16 17/17/17 18/18/18
f 19/19/19 20/20/20 21/21/21
f 22/22/22 23/23/23 24/24/24
f 25/25/25 26/26/26 27/27/27
f 28/28/28 29/29/29 30/30/30
f 31/31/31 32/32/32 33/33/33
f 34/34/34 35/35/35 36/36/36
f 37/37/37 38/38/38 39/39/39
f 40/40/40 41/41/41 42/42/42
f 43/43/43 44/44/44 45/45/45
f 46/46/46 47/47/47 48/48/48
f 49/49/49 50/50/50 51/51/51
f 52/52/52 53/53/53 54/54/54
f 55/55/55 56/56/56 57/57/57
f 58/58/58 59/59/59 60/60/60
f 61/61/61 62/62/62 63/63/63
f 64/64/64 65/65/65 66/66/66
f 67/67/67 68/68/68 69/69/69
f 70/70/70 71/71/71 72/72/72
f 73/73/73 74/74/74 75/75/75
f 76/76/76 77/77/77 78/78/78
f 79/79/79 80/80/80 81/81/81
f 82/82/82 83/83/83 84/84/84
f 85/85/85 86/86/86 87/87/87
f 88/88/88 89/89/89 90/90/90
f 91/91/91 92/92/92 93/93/93
f 94/94/94 95/95/95 96/96/96
f 97/97/97 98/98/98 99/99/99
f 100/100/100 101/101/101 102/102/102
f 103/103/103 104/104/104 105/105/105
f 106/106/106 107/107/107 108/108/108
f 109/109/109 110/110/110 111/111/111
f 112/112/112 113/113/113 114/114/114
f 115/115/115 116/116/116 117/117/117
f 118/118/118 119/119/119 120/120/120
f 121/121/121 122/122/122 123/123/123
f 124/124/124 125/125/125 126/126/126
f 127/127/127 128/128/128 129/129/129
f 130/130/130 131/131/131 132/132/132
f 133/133/133 134/134/134 135/135/135
f 136/136/136 137/137/137 138/138/138
f 139/139/139 140/140/140 141/141/141
f 142/142/142 143/143/143 144/144/144
f 145/145/145 146/146/146 147/147/147
f 148/148/148 149/149/149 150/150/150
f 151/151/151 152/152/152 153/153/153
f 154/154/154 155/155/155 156/156/156
f 157/157/157 158/158/158 159/159/159
f 160/160/160 161/161/161 162/162/162
f 163/163/163 164/164/164 165/165/165
f 166/166/166 167/167/167 168/168/168
f 169/169/169 170/170/170 171/171/171
f 172/172/172 173/173/173 174/174/174
f 175/175/175 176/176/176 177/177/177
f 178/178/178 179/179/179 180/180/180
f 181/181/181 182/182/182 183/183/183
f 184/184/184 185/185/185 186/186/186
f 187/187/187 188/188/188 189/189/189
f 190/190/190 191/191/191 192/192/192
f 193/193/193 194/194/194 195/195/195
f 196/196/196 197/197/197 198/198/198
f 199/199/199 200/200/200 201/201/201
f 202/202/202 203/203/203 204/204/204
f 205/205/205 206/206/206 207/207/207
f 208/208/208 209/209/209 210/210/210
f 211/211/211 212/212/212 213/213/213
f 214/214/214 215/215/215 216/216/216
f 217/217/217 218/218/218 219/219/219
f 220/220/220 221/221/221 222/222/222
f 223/223/223 224/224/224 225/225/225
f 226/226/226 227/227/227 228/228/228
f 229/229/229 230/230/230 231/231/231
f 232/232/232 233/233/233 234/234/234
f 235/235/235 236/236/236 237/237/237
f 238/238/238 239/239/239 240/240/240
