v 26.000000 4.000000 -2.000000 
v 29.000000 0.000000 -4.000000 
v 27.000000 1.000000 -6.000000 
v 29.000000 0.000000 -4.000000 
v 27.000000 -4.000000 -4.000000 
v 27.000000 1.000000 -6.000000 
v 27.000000 1.000000 -6.000000 
v 8.000000 1.000000 -5.000000 
v 6.000000 5.000000 -1.000000 
v 6.000000 5.000000 -1.000000 
v 26.000000 4.000000 -2.000000 
v 27.000000 1.000000 -6.000000 
v 8.000000 1.000000 -5.000000 
v 27.000000 1.000000 -6.000000 
v 27.000000 -4.000000 -4.000000 
v 26.000000 4.000000 -2.000000 
v 25.000000 1.000000 2.000000 
v 29.000000 0.000000 -4.000000 
v 26.000000 4.000000 -2.000000 
v 6.000000 5.000000 -1.000000 
v 5.000000 2.000000 3.000000 
v 5.000000 2.000000 3.000000 
v 25.000000 1.000000 2.000000 
v 26.000000 4.000000 -2.000000 
v 25.000000 1.000000 2.000000 
v 26.000000 -4.000000 1.000000 
v 29.000000 0.000000 -4.000000 
v 25.000000 1.000000 2.000000 
v 5.000000 2.000000 3.000000 
v 6.000000 -3.000000 2.000000 
v 6.000000 -3.000000 2.000000 
v 26.000000 -4.000000 1.000000 
v 25.000000 1.000000 2.000000 
v 26.000000 -4.000000 1.000000 
v 27.000000 -4.000000 -4.000000 
v 29.000000 0.000000 -4.000000 
v 26.000000 -4.000000 1.000000 
v 6.000000 -3.000000 2.000000 
v 8.000000 -3.000000 -3.000000 
v 8.000000 -3.000000 -3.000000 
v 27.000000 -4.000000 -4.000000 
v 26.000000 -4.000000 1.000000 
v 27.000000 -4.000000 -4.000000 
v 8.000000 -3.000000 -3.000000 
v 8.000000 1.000000 -5.000000 
vn 0.408447 0.899902 0.151123 
vn 0.982422 0.154053 0.102783 
vn 0.376221 0.448975 -0.810059 
vn 0.982422 0.154053 0.102783 
vn 0.463623 -0.664795 -0.585449 
vn 0.376221 0.448975 -0.810059 
vn 0.376221 0.448975 -0.810059 
vn 0.144287 0.270264 -0.951660 
vn -0.044922 0.996582 -0.068115 
vn -0.044922 0.996582 -0.068115 
vn 0.408447 0.899902 0.151123 
vn 0.376221 0.448975 -0.810059 
vn 0.144287 0.270264 -0.951660 
vn 0.376221 0.448975 -0.810059 
vn 0.463623 -0.664795 -0.585449 
vn 0.408447 0.899902 0.151123 
vn 0.475342 0.207764 0.854736 
vn 0.982422 0.154053 0.102783 
vn 0.408447 0.899902 0.151123 
vn -0.044922 0.996582 -0.068115 
vn -0.188721 0.373047 0.908203 
vn -0.188721 0.373047 0.908203 
vn 0.475342 0.207764 0.854736 
vn 0.408447 0.899902 0.151123 
vn 0.475342 0.207764 0.854736 
vn 0.506836 -0.697266 0.506348 
vn 0.982422 0.154053 0.102783 
vn 0.475342 0.207764 0.854736 
vn -0.188721 0.373047 0.908203 
vn -0.089355 -0.791016 0.604980 
vn -0.089355 -0.791016 0.604980 
vn 0.506836 -0.697266 0.506348 
vn 0.475342 0.207764 0.854736 
vn 0.506836 -0.697266 0.506348 
vn 0.463623 -0.664795 -0.585449 
vn 0.982422 0.154053 0.102783 
vn 0.506836 -0.697266 0.506348 
vn -0.089355 -0.791016 0.604980 
vn 0.116455 -0.851807 -0.510254 
vn 0.116455 -0.851807 -0.510254 
vn 0.463623 -0.664795 -0.585449 
vn 0.506836 -0.697266 0.506348 
vn 0.463623 -0.664795 -0.585449 
vn 0.116455 -0.851807 -0.510254 
vn 0.144287 0.270264 -0.951660 
vt 0.096774 0.161290 
vt 0.096774 0.161290 
vt 0.096774 0.161290 
vt 0.096774 0.161290 
vt 0.096774 0.129032 
vt 0.096774 0.161290 
vt 0.096774 0.161290 
vt 0.096774 0.161290 
vt 0.096774 0.161290 
vt 0.096774 0.161290 
vt 0.096774 0.161290 
vt 0.096774 0.161290 
vt 0.096774 0.161290 
vt 0.096774 0.161290 
vt 0.096774 0.129032 
vt 0.096774 0.161290 
vt 0.096774 0.129032 
vt 0.096774 0.161290 
vt 0.096774 0.161290 
vt 0.096774 0.161290 
vt 0.096774 0.129032 
vt 0.096774 0.129032 
vt 0.096774 0.129032 
vt 0.096774 0.161290 
vt 0.096774 0.129032 
vt 0.096774 0.129032 
vt 0.096774 0.161290 
vt 0.096774 0.129032 
vt 0.096774 0.129032 
vt 0.096774 0.129032 
vt 0.096774 0.129032 
vt 0.096774 0.129032 
vt 0.096774 0.129032 
vt 0.096774 0.129032 
vt 0.096774 0.129032 
vt 0.096774 0.161290 
vt 0.096774 0.129032 
vt 0.096774 0.129032 
vt 0.096774 0.129032 
vt 0.096774 0.129032 
vt 0.096774 0.129032 
vt 0.096774 0.129032 
vt 0.096774 0.129032 
vt 0.096774 0.129032 
vt 0.096774 0.161290 
f 1/1/1 2/2/2 3/3/3
f 4/4/4 5/5/5 6/6/6
f 7/7/7 8/8/8 9/9/9
f 10/10/10 11/11/11 12/12/12
f 13/13/13 14/14/14 15/15/15
f 16/16/16 17/17/17 18/18/18
f 19/19/19 20/20/20 21/21/21
f 22/22/22 23/23/23 24/24/24
f 25/25/25 26/26/26 27/27/27
f 28/28/28 29/29/29 30/30/30
f 31/31/31 32/32/32 33/33/33
f 34/34/34 35/35/35 36/36/36
f 37/37/37 38/38/38 39/39/39
f 40/40/40 41/41/41 42/42/42
f 43/43/43 44/44/44 45/45/45
