v -133.000000 32.000000 -18.000000 
v 155.000000 32.000000 -18.000000 
v 155.000000 -32.000000 -18.000000 
v 155.000000 -32.000000 -18.000000 
v -133.000000 -32.000000 -18.000000 
v -133.000000 32.000000 -18.000000 
v -133.000000 32.000000 0.000000 
v 155.000000 32.000000 0.000000 
v 155.000000 32.000000 -18.000000 
v 155.000000 32.000000 -18.000000 
v -133.000000 32.000000 -18.000000 
v -133.000000 32.000000 0.000000 
v -155.000000 200.000000 0.000000 
v 128.000000 200.000000 0.000000 
v 128.000000 -200.000000 0.000000 
v 128.000000 -200.000000 0.000000 
v -155.000000 -200.000000 0.000000 
v -155.000000 200.000000 0.000000 
v -155.000000 200.000000 18.000000 
v 128.000000 200.000000 18.000000 
v 128.000000 200.000000 0.000000 
v 128.000000 200.000000 0.000000 
v -155.000000 200.000000 0.000000 
v -155.000000 200.000000 18.000000 
v 128.000000 200.000000 0.000000 
v 128.000000 200.000000 18.000000 
v 128.000000 -200.000000 18.000000 
v 128.000000 -200.000000 0.000000 
v 128.000000 200.000000 0.000000 
v 128.000000 -200.000000 18.000000 
v 155.000000 32.000000 -18.000000 
v 155.000000 32.000000 0.000000 
v 155.000000 -32.000000 0.000000 
v 155.000000 -32.000000 -18.000000 
v 155.000000 32.000000 -18.000000 
v 155.000000 -32.000000 0.000000 
vn -0.898926 0.000000 -0.437988 
vn -0.898926 0.000000 -0.437988 
vn -0.898926 0.000000 -0.437988 
vn -0.898926 0.000000 -0.437988 
vn -0.898926 0.000000 -0.437988 
vn -0.898926 0.000000 -0.437988 
vn 0.000000 1.000000 0.000000 
vn 0.000000 1.000000 0.000000 
vn 0.000000 1.000000 0.000000 
vn 0.000000 1.000000 0.000000 
vn 0.000000 1.000000 0.000000 
vn 0.000000 1.000000 0.000000 
vn -0.898926 0.000000 -0.437988 
vn -0.898926 0.000000 -0.437988 
vn -0.898926 0.000000 -0.437988 
vn -0.898926 0.000000 -0.437988 
vn -0.898926 0.000000 -0.437988 
vn -0.898926 0.000000 -0.437988 
vn 0.000000 1.000000 0.000000 
vn 0.000000 1.000000 0.000000 
vn 0.000000 1.000000 0.000000 
vn 0.000000 1.000000 0.000000 
vn 0.000000 1.000000 0.000000 
vn 0.000000 1.000000 0.000000 
vn 0.996338 0.000000 0.083496 
vn 0.996338 0.000000 0.083496 
vn 0.996338 0.000000 0.083496 
vn 0.996338 0.000000 0.083496 
vn 0.996338 0.000000 0.083496 
vn 0.996338 0.000000 0.083496 
vn 0.996338 0.000000 0.083496 
vn 0.996338 0.000000 0.083496 
vn 0.996338 0.000000 0.083496 
vn 0.996338 0.000000 0.083496 
vn 0.996338 0.000000 0.083496 
vn 0.996338 0.000000 0.083496 
vt 0.000000 0.842520 
vt 0.503937 0.842520 
vt 0.503937 1.000000 
vt 0.503937 1.000000 
vt 0.000000 1.000000 
vt 0.000000 0.842520 
vt 0.000000 0.669291 
vt 0.503937 0.669291 
vt 0.503937 0.842520 
vt 0.503937 0.842520 
vt 0.000000 0.842520 
vt 0.000000 0.669291 
vt 1.000000 0.000000 
vt 0.456693 0.000000 
vt 0.456693 0.661417 
vt 0.456693 0.661417 
vt 1.000000 0.661417 
vt 1.000000 0.000000 
vt 0.007874 0.866142 
vt 0.992126 0.866142 
vt 0.992126 0.984252 
vt 0.992126 0.984252 
vt 0.007874 0.984252 
vt 0.007874 0.866142 
vt 0.000000 0.000000 
vt 0.055118 0.000000 
vt 0.055118 0.645669 
vt 0.000000 0.645669 
vt 0.000000 0.000000 
vt 0.055118 0.645669 
vt 0.535433 0.826772 
vt 0.527559 0.724409 
vt 0.362205 0.724409 
vt 0.362205 0.826772 
vt 0.535433 0.826772 
vt 0.362205 0.724409 
f 1/1/1 2/2/2 3/3/3
f 4/4/4 5/5/5 6/6/6
f 7/7/7 8/8/8 9/9/9
f 10/10/10 11/11/11 12/12/12
f 13/13/13 14/14/14 15/15/15
f 16/16/16 17/17/17 18/18/18
f 19/19/19 20/20/20 21/21/21
f 22/22/22 23/23/23 24/24/24
f 25/25/25 26/26/26 27/27/27
f 28/28/28 29/29/29 30/30/30
f 31/31/31 32/32/32 33/33/33
f 34/34/34 35/35/35 36/36/36
