v -12.000000 0.000000 0.000000 
v -3.000000 -38.000000 -11.000000 
v -12.000000 -38.000000 0.000000 
v -12.000000 0.000000 0.000000 
v -3.000000 0.000000 -11.000000 
v -3.000000 -38.000000 -11.000000 
v -3.000000 0.000000 -11.000000 
v 9.000000 -38.000000 -7.000000 
v -3.000000 -38.000000 -11.000000 
v -3.000000 0.000000 -11.000000 
v 9.000000 0.000000 -7.000000 
v 9.000000 -38.000000 -7.000000 
v 9.000000 0.000000 -7.000000 
v 9.000000 -38.000000 7.000000 
v 9.000000 -38.000000 -7.000000 
v 9.000000 0.000000 -7.000000 
v 9.000000 0.000000 7.000000 
v 9.000000 -38.000000 7.000000 
v 9.000000 0.000000 7.000000 
v -3.000000 -38.000000 11.000000 
v 9.000000 -38.000000 7.000000 
v 9.000000 0.000000 7.000000 
v -3.000000 0.000000 11.000000 
v -3.000000 -38.000000 11.000000 
v -3.000000 0.000000 11.000000 
v -12.000000 -38.000000 0.000000 
v -3.000000 -38.000000 11.000000 
v -3.000000 0.000000 11.000000 
v -12.000000 0.000000 0.000000 
v -12.000000 -38.000000 0.000000 
vn -0.971680 0.000000 -0.235352 
vn -0.524170 0.000000 -0.851562 
vn -0.971680 0.000000 0.235352 
vn -0.971680 0.000000 -0.235352 
vn -0.076416 0.000000 -0.997070 
vn -0.524170 0.000000 -0.851562 
vn -0.076416 0.000000 -0.997070 
vn 0.647705 0.000000 -0.761475 
vn -0.524170 0.000000 -0.851562 
vn -0.076416 0.000000 -0.997070 
vn 0.924561 0.000000 -0.380615 
vn 0.647705 0.000000 -0.761475 
vn 0.924561 0.000000 -0.380615 
vn 0.924561 0.000000 0.380615 
vn 0.647705 0.000000 -0.761475 
vn 0.924561 0.000000 -0.380615 
vn 0.647705 0.000000 0.761475 
vn 0.924561 0.000000 0.380615 
vn 0.647705 0.000000 0.761475 
vn -0.076416 0.000000 0.997070 
vn 0.924561 0.000000 0.380615 
vn 0.647705 0.000000 0.761475 
vn -0.524170 0.000000 0.851562 
vn -0.076416 0.000000 0.997070 
vn -0.524170 0.000000 0.851562 
vn -0.971680 0.000000 0.235352 
vn -0.076416 0.000000 0.997070 
vn -0.524170 0.000000 0.851562 
vn -0.971680 0.000000 -0.235352 
vn -0.971680 0.000000 0.235352 
vt 1.000000 0.015748 
vt 0.826772 0.314961 
vt 1.000000 0.314961 
vt 1.000000 0.015748 
vt 0.826772 0.015748 
vt 0.826772 0.314961 
vt 0.826772 0.015748 
vt 0.685039 0.314961 
vt 0.826772 0.314961 
vt 0.826772 0.015748 
vt 0.685039 0.015748 
vt 0.685039 0.314961 
vt 0.685039 0.015748 
vt 0.685039 0.314961 
vt 0.685039 0.314961 
vt 0.685039 0.015748 
vt 0.685039 0.015748 
vt 0.685039 0.314961 
vt 0.685039 0.015748 
vt 0.826772 0.314961 
vt 0.685039 0.314961 
vt 0.685039 0.015748 
vt 0.826772 0.015748 
vt 0.826772 0.314961 
vt 0.826772 0.015748 
vt 1.000000 0.314961 
vt 0.826772 0.314961 
vt 0.826772 0.015748 
vt 1.000000 0.015748 
vt 1.000000 0.314961 
f 1/1/1 2/2/2 3/3/3
f 4/4/4 5/5/5 6/6/6
f 7/7/7 8/8/8 9/9/9
f 10/10/10 11/11/11 12/12/12
f 13/13/13 14/14/14 15/15/15
f 16/16/16 17/17/17 18/18/18
f 19/19/19 20/20/20 21/21/21
f 22/22/22 23/23/23 24/24/24
f 25/25/25 26/26/26 27/27/27
f 28/28/28 29/29/29 30/30/30
