v 9.000000 -7.000000 9.000000 
v 15.000000 -7.000000 4.000000 
v 12.000000 -1.000000 12.000000 
v 15.000000 -7.000000 4.000000 
v 9.000000 -7.000000 9.000000 
v 19.000000 0.000000 -11.000000 
v 23.000000 0.000000 10.000000 
v 43.000000 -1.000000 4.000000 
v 22.000000 5.000000 6.000000 
v 6.000000 13.000000 -5.000000 
v 20.000000 9.000000 -5.000000 
v 19.000000 0.000000 -11.000000 
v 20.000000 9.000000 -5.000000 
v 6.000000 13.000000 -5.000000 
v 22.000000 5.000000 6.000000 
v 22.000000 5.000000 6.000000 
v 8.000000 8.000000 8.000000 
v 23.000000 0.000000 10.000000 
v 8.000000 8.000000 8.000000 
v 22.000000 5.000000 6.000000 
v 6.000000 13.000000 -5.000000 
v 23.000000 0.000000 10.000000 
v 12.000000 -1.000000 12.000000 
v 15.000000 -7.000000 4.000000 
v 12.000000 -1.000000 12.000000 
v 23.000000 0.000000 10.000000 
v 8.000000 8.000000 8.000000 
vn 0.809326 0.016357 0.586914 
vn 0.141357 -0.970459 0.194336 
vn 0.307861 -0.061279 0.949219 
vn 0.141357 -0.970459 0.194336 
vn 0.809326 0.016357 0.586914 
vn 0.182617 -0.341797 -0.921631 
vn 0.262451 -0.242432 0.933838 
vn 0.390381 -0.320557 0.862793 
vn 0.239990 0.813477 0.529541 
vn 0.060059 0.950684 -0.303467 
vn 0.239258 0.927734 -0.286133 
vn 0.182617 -0.341797 -0.921631 
vn 0.239258 0.927734 -0.286133 
vn 0.060059 0.950684 -0.303467 
vn 0.239990 0.813477 0.529541 
vn 0.239990 0.813477 0.529541 
vn 0.073242 0.793701 0.603516 
vn 0.262451 -0.242432 0.933838 
vn 0.073242 0.793701 0.603516 
vn 0.239990 0.813477 0.529541 
vn 0.060059 0.950684 -0.303467 
vn 0.262451 -0.242432 0.933838 
vn 0.307861 -0.061279 0.949219 
vn 0.141357 -0.970459 0.194336 
vn 0.307861 -0.061279 0.949219 
vn 0.262451 -0.242432 0.933838 
vn 0.073242 0.793701 0.603516 
vt 0.096774 0.032258 
vt 0.096774 0.032258 
vt 0.096774 0.032258 
vt 0.096774 0.032258 
vt 0.096774 0.032258 
vt 0.096774 0.032258 
vt 0.096774 0.032258 
vt 0.096774 0.032258 
vt 0.161290 0.032258 
vt 0.161290 0.032258 
vt 0.161290 0.032258 
vt 0.096774 0.032258 
vt 0.161290 0.032258 
vt 0.161290 0.032258 
vt 0.161290 0.032258 
vt 0.161290 0.032258 
vt 0.161290 0.032258 
vt 0.096774 0.032258 
vt 0.161290 0.032258 
vt 0.161290 0.032258 
vt 0.161290 0.032258 
vt 0.096774 0.032258 
vt 0.096774 0.032258 
vt 0.096774 0.032258 
vt 0.096774 0.032258 
vt 0.096774 0.032258 
vt 0.161290 0.032258 
f 1/1/1 2/2/2 3/3/3
f 4/4/4 5/5/5 6/6/6
f 7/7/7 8/8/8 9/9/9
f 10/10/10 11/11/11 12/12/12
f 13/13/13 14/14/14 15/15/15
f 16/16/16 17/17/17 18/18/18
f 19/19/19 20/20/20 21/21/21
f 22/22/22 23/23/23 24/24/24
f 25/25/25 26/26/26 27/27/27
