v -17.000000 0.000000 64.000000 
v -19.000000 0.000000 55.000000 
v -19.000000 -36.000000 48.000000 
v -19.000000 -36.000000 48.000000 
v -17.000000 -35.000000 57.000000 
v -17.000000 0.000000 64.000000 
v -19.000000 0.000000 55.000000 
v -17.000000 0.000000 64.000000 
v -18.000000 33.000000 52.000000 
v 5.000000 18.000000 55.000000 
v 7.000000 22.000000 54.000000 
v 0.000000 22.000000 58.000000 
v 0.000000 15.000000 55.000000 
v 5.000000 18.000000 55.000000 
v 0.000000 22.000000 58.000000 
v -5.000000 18.000000 56.000000 
v 0.000000 15.000000 55.000000 
v 0.000000 22.000000 58.000000 
v -7.000000 22.000000 56.000000 
v -5.000000 18.000000 56.000000 
v 0.000000 22.000000 58.000000 
v -5.000000 27.000000 56.000000 
v -7.000000 22.000000 56.000000 
v 0.000000 22.000000 58.000000 
v 0.000000 29.000000 55.000000 
v -5.000000 27.000000 56.000000 
v 0.000000 22.000000 58.000000 
v 5.000000 27.000000 55.000000 
v 0.000000 29.000000 55.000000 
v 0.000000 22.000000 58.000000 
v 7.000000 22.000000 54.000000 
v 5.000000 27.000000 55.000000 
v 0.000000 22.000000 58.000000 
v 6.000000 -24.000000 57.000000 
v 7.000000 -19.000000 57.000000 
v 0.000000 -19.000000 60.000000 
v 0.000000 -26.000000 58.000000 
v 6.000000 -24.000000 57.000000 
v 0.000000 -19.000000 60.000000 
v -5.000000 -24.000000 58.000000 
v 0.000000 -26.000000 58.000000 
v 0.000000 -19.000000 60.000000 
v -7.000000 -19.000000 58.000000 
v -5.000000 -24.000000 58.000000 
v 0.000000 -19.000000 60.000000 
v -5.000000 -15.000000 58.000000 
v -7.000000 -19.000000 58.000000 
v 0.000000 -19.000000 60.000000 
v 0.000000 -12.000000 58.000000 
v -5.000000 -15.000000 58.000000 
v 0.000000 -19.000000 60.000000 
v 6.000000 -15.000000 57.000000 
v 0.000000 -12.000000 58.000000 
v 0.000000 -19.000000 60.000000 
v 7.000000 -19.000000 57.000000 
v 6.000000 -15.000000 57.000000 
v 0.000000 -19.000000 60.000000 
v -7.000000 0.000000 -52.000000 
v -7.000000 -37.000000 -37.000000 
v -15.000000 0.000000 1.000000 
v -7.000000 37.000000 -37.000000 
v -7.000000 0.000000 -52.000000 
v -15.000000 0.000000 1.000000 
v -7.000000 -37.000000 -37.000000 
v -7.000000 -53.000000 0.000000 
v -15.000000 0.000000 1.000000 
v -7.000000 -53.000000 0.000000 
v -10.000000 -37.000000 44.000000 
v -15.000000 0.000000 1.000000 
v -10.000000 -37.000000 44.000000 
v -10.000000 0.000000 59.000000 
v -15.000000 0.000000 1.000000 
v -10.000000 0.000000 59.000000 
v -10.000000 37.000000 44.000000 
v -15.000000 0.000000 1.000000 
v -10.000000 37.000000 44.000000 
v -7.000000 53.000000 0.000000 
v -15.000000 0.000000 1.000000 
v -7.000000 53.000000 0.000000 
v -7.000000 37.000000 -37.000000 
v -15.000000 0.000000 1.000000 
vn -0.982910 -0.036377 0.179688 
vn -0.982910 -0.036377 0.179688 
vn -0.982910 -0.036377 0.179688 
vn -0.982910 -0.036377 0.179688 
vn -0.982910 -0.036377 0.179688 
vn -0.982910 -0.036377 0.179688 
vn -0.983154 0.039795 0.177002 
vn -0.983154 0.039795 0.177002 
vn -0.983154 0.039795 0.177002 
vn 0.565186 -0.196533 0.801025 
vn 0.674805 0.000000 0.737793 
vn 0.221436 0.000000 0.975098 
vn 0.203857 -0.318115 0.925537 
vn 0.565186 -0.196533 0.801025 
vn 0.221436 0.000000 0.975098 
vn -0.195312 -0.233154 0.952393 
vn 0.203857 -0.318115 0.925537 
vn 0.221436 0.000000 0.975098 
vn -0.334717 0.000000 0.942139 
vn -0.195312 -0.233154 0.952393 
vn 0.221436 0.000000 0.975098 
vn -0.195312 0.233154 0.952393 
vn -0.334717 0.000000 0.942139 
vn 0.221436 0.000000 0.975098 
vn 0.203857 0.318115 0.925537 
vn -0.195312 0.233154 0.952393 
vn 0.221436 0.000000 0.975098 
vn 0.565186 0.196533 0.801025 
vn 0.203857 0.318115 0.925537 
vn 0.221436 0.000000 0.975098 
vn 0.674805 0.000000 0.737793 
vn 0.565186 0.196533 0.801025 
vn 0.221436 0.000000 0.975098 
vn 0.579834 -0.186279 0.792969 
vn 0.674805 0.000000 0.737793 
vn 0.233643 0.000000 0.972168 
vn 0.228271 -0.316895 0.920410 
vn 0.579834 -0.186279 0.792969 
vn 0.233643 0.000000 0.972168 
vn -0.191162 -0.209717 0.958740 
vn 0.228271 -0.316895 0.920410 
vn 0.233643 0.000000 0.972168 
vn -0.334717 0.000000 0.942139 
vn -0.191162 -0.209717 0.958740 
vn 0.233643 0.000000 0.972168 
vn -0.191162 0.209717 0.958740 
vn -0.334717 0.000000 0.942139 
vn 0.233643 0.000000 0.972168 
vn 0.228271 0.316895 0.920410 
vn -0.191162 0.209717 0.958740 
vn 0.233643 0.000000 0.972168 
vn 0.579834 0.186279 0.792969 
vn 0.228271 0.316895 0.920410 
vn 0.233643 0.000000 0.972168 
vn 0.674805 0.000000 0.737793 
vn 0.579834 0.186279 0.792969 
vn 0.233643 0.000000 0.972168 
vn -0.996582 0.000000 -0.081543 
vn -0.996582 -0.058350 -0.057861 
vn -0.999756 0.000000 -0.017578 
vn -0.996582 0.058350 -0.057861 
vn -0.996582 0.000000 -0.081543 
vn -0.999756 0.000000 -0.017578 
vn -0.996582 -0.058350 -0.057861 
vn -0.996094 -0.083496 -0.020020 
vn -0.999756 0.000000 -0.017578 
vn -0.996094 -0.083496 -0.020020 
vn -0.998291 -0.052490 0.022461 
vn -0.999756 0.000000 -0.017578 
vn -0.998291 -0.052490 0.022461 
vn -0.998535 0.000000 0.050781 
vn -0.999756 0.000000 -0.017578 
vn -0.998535 0.000000 0.050781 
vn -0.998291 0.052490 0.022461 
vn -0.999756 0.000000 -0.017578 
vn -0.998291 0.052490 0.022461 
vn -0.996094 0.083496 -0.020020 
vn -0.999756 0.000000 -0.017578 
vn -0.996094 0.083496 -0.020020 
vn -0.996582 0.058350 -0.057861 
vn -0.999756 0.000000 -0.017578 
vt 0.111111 0.285714 
vt 0.492063 0.111111 
vt 0.238095 0.285714 
vt 0.238095 0.285714 
vt 0.000000 0.285714 
vt 0.111111 0.285714 
vt 0.492063 0.111111 
vt 0.111111 0.285714 
vt 0.238095 0.285714 
vt 0.730159 0.206349 
vt 0.777778 0.206349 
vt 0.841270 0.158730 
vt 0.777778 0.206349 
vt 0.730159 0.206349 
vt 0.841270 0.158730 
vt 0.841270 0.206349 
vt 0.809524 0.206349 
vt 0.841270 0.158730 
vt 0.904762 0.206349 
vt 0.841270 0.206349 
vt 0.841270 0.158730 
vt 0.952381 0.206349 
vt 0.904762 0.206349 
vt 0.841270 0.158730 
vt 0.904762 0.206349 
vt 0.952381 0.206349 
vt 0.841270 0.158730 
vt 0.809524 0.206349 
vt 0.841270 0.206349 
vt 0.841270 0.158730 
vt 0.777778 0.206349 
vt 0.809524 0.206349 
vt 0.841270 0.158730 
vt 0.730159 0.206349 
vt 0.777778 0.206349 
vt 0.841270 0.158730 
vt 0.777778 0.206349 
vt 0.730159 0.206349 
vt 0.841270 0.158730 
vt 0.841270 0.206349 
vt 0.809524 0.206349 
vt 0.841270 0.158730 
vt 0.904762 0.206349 
vt 0.841270 0.206349 
vt 0.841270 0.158730 
vt 0.952381 0.206349 
vt 0.904762 0.206349 
vt 0.841270 0.158730 
vt 0.904762 0.206349 
vt 0.952381 0.206349 
vt 0.841270 0.158730 
vt 0.809524 0.206349 
vt 0.841270 0.206349 
vt 0.841270 0.158730 
vt 0.777778 0.206349 
vt 0.809524 0.206349 
vt 0.841270 0.158730 
vt 0.476190 0.063492 
vt 0.380952 0.111111 
vt 0.476190 0.222222 
vt 0.571429 0.111111 
vt 0.476190 0.063492 
vt 0.476190 0.222222 
vt 0.380952 0.111111 
vt 0.333333 0.222222 
vt 0.476190 0.222222 
vt 0.333333 0.222222 
vt 0.380952 0.111111 
vt 0.476190 0.222222 
vt 0.380952 0.111111 
vt 0.476190 0.063492 
vt 0.476190 0.222222 
vt 0.476190 0.063492 
vt 0.571429 0.111111 
vt 0.476190 0.222222 
vt 0.571429 0.111111 
vt 0.619048 0.222222 
vt 0.476190 0.222222 
vt 0.619048 0.222222 
vt 0.571429 0.111111 
vt 0.476190 0.222222 
f 1/1/1 2/2/2 3/3/3
f 4/4/4 5/5/5 6/6/6
f 7/7/7 8/8/8 9/9/9
f 10/10/10 11/11/11 12/12/12
f 13/13/13 14/14/14 15/15/15
f 16/16/16 17/17/17 18/18/18
f 19/19/19 20/20/20 21/21/21
f 22/22/22 23/23/23 24/24/24
f 25/25/25 26/26/26 27/27/27
f 28/28/28 29/29/29 30/30/30
f 31/31/31 32/32/32 33/33/33
f 34/34/34 35/35/35 36/36/36
f 37/37/37 38/38/38 39/39/39
f 40/40/40 41/41/41 42/42/42
f 43/43/43 44/44/44 45/45/45
f 46/46/46 47/47/47 48/48/48
f 49/49/49 50/50/50 51/51/51
f 52/52/52 53/53/53 54/54/54
f 55/55/55 56/56/56 57/57/57
f 58/58/58 59/59/59 60/60/60
f 61/61/61 62/62/62 63/63/63
f 64/64/64 65/65/65 66/66/66
f 67/67/67 68/68/68 69/69/69
f 70/70/70 71/71/71 72/72/72
f 73/73/73 74/74/74 75/75/75
f 76/76/76 77/77/77 78/78/78
f 79/79/79 80/80/80 81/81/81
