v -10.000000 22.000000 82.000000 
v -10.000000 22.000000 82.000000 
v -10.000000 22.000000 82.000000 
v -10.000000 22.000000 82.000000 
v -8.000000 22.000000 -299.000000 
v -10.000000 22.000000 82.000000 
v -10.000000 22.000000 82.000000 
v -8.000000 22.000000 460.000000 
v -10.000000 22.000000 82.000000 
v -357.000000 453.000000 -244.000000 
v 24.000000 453.000000 -244.000000 
v 24.000000 0.000000 -244.000000 
v -357.000000 0.000000 -244.000000 
v -357.000000 453.000000 -244.000000 
v 24.000000 0.000000 -244.000000 
v 24.000000 453.000000 -244.000000 
v 406.000000 453.000000 -244.000000 
v 406.000000 0.000000 -244.000000 
v 24.000000 0.000000 -244.000000 
v 24.000000 453.000000 -244.000000 
v 406.000000 0.000000 -244.000000 
vn 1.000000 0.000000 0.000000 
vn 0.000000 1.000000 0.000000 
vn 1.000000 0.000000 0.000000 
vn 0.000000 1.000000 0.000000 
vn 0.000000 1.000000 0.000000 
vn 1.000000 0.000000 0.000000 
vn 1.000000 0.000000 0.000000 
vn 1.000000 0.000000 0.000000 
vn 1.000000 0.000000 0.000000 
vn 0.000000 0.000000 -1.000000 
vn 0.000000 0.000000 -1.000000 
vn 0.000000 0.000000 -1.000000 
vn 0.000000 0.000000 -1.000000 
vn 0.000000 0.000000 -1.000000 
vn 0.000000 0.000000 -1.000000 
vn 0.000000 0.000000 -1.000000 
vn 0.000000 0.000000 -1.000000 
vn 0.000000 0.000000 -1.000000 
vn 0.000000 0.000000 -1.000000 
vn 0.000000 0.000000 -1.000000 
vn 0.000000 0.000000 -1.000000 
vt 0.496063 0.488189 
vt 0.496063 0.488189 
vt 0.496063 0.488189 
vt 0.496063 0.488189 
vt 0.496063 0.031496 
vt 0.496063 0.488189 
vt 0.496063 0.488189 
vt 0.496063 0.952756 
vt 0.496063 0.488189 
vt 0.889764 0.968504 
vt 0.889764 0.000000 
vt 0.102362 0.000000 
vt 0.102362 0.968504 
vt 0.889764 0.968504 
vt 0.102362 0.000000 
vt 0.889764 0.000000 
vt 0.889764 0.968504 
vt 0.102362 0.968504 
vt 0.102362 0.000000 
vt 0.889764 0.000000 
vt 0.102362 0.968504 
f 1/1/1 2/2/2 3/3/3
f 4/4/4 5/5/5 6/6/6
f 7/7/7 8/8/8 9/9/9
f 10/10/10 11/11/11 12/12/12
f 13/13/13 14/14/14 15/15/15
f 16/16/16 17/17/17 18/18/18
f 19/19/19 20/20/20 21/21/21
