v -8.000000 -10.000000 -18.000000 
v 0.000000 0.000000 -19.000000 
v 0.000000 -11.000000 -22.000000 
v -8.000000 -16.000000 -15.000000 
v -8.000000 -10.000000 -18.000000 
v 0.000000 -11.000000 -22.000000 
v 0.000000 -17.000000 -15.000000 
v -8.000000 -16.000000 -15.000000 
v 0.000000 -11.000000 -22.000000 
v 8.000000 -16.000000 -15.000000 
v 0.000000 -17.000000 -15.000000 
v 0.000000 -11.000000 -22.000000 
v 8.000000 -10.000000 -18.000000 
v 8.000000 -16.000000 -15.000000 
v 0.000000 -11.000000 -22.000000 
v 0.000000 0.000000 -19.000000 
v 8.000000 -10.000000 -18.000000 
v 0.000000 -11.000000 -22.000000 
v -14.000000 0.000000 9.000000 
v 0.000000 12.000000 6.000000 
v 0.000000 0.000000 -19.000000 
v -8.000000 -10.000000 -18.000000 
v -14.000000 0.000000 9.000000 
v 0.000000 0.000000 -19.000000 
v -14.000000 -14.000000 11.000000 
v -14.000000 0.000000 9.000000 
v -8.000000 -10.000000 -18.000000 
v -8.000000 -16.000000 -15.000000 
v -14.000000 -14.000000 11.000000 
v -8.000000 -10.000000 -18.000000 
v 0.000000 -14.000000 11.000000 
v -14.000000 -14.000000 11.000000 
v -8.000000 -16.000000 -15.000000 
v 0.000000 -17.000000 -15.000000 
v 0.000000 -14.000000 11.000000 
v -8.000000 -16.000000 -15.000000 
v 14.000000 -14.000000 11.000000 
v 0.000000 -14.000000 11.000000 
v 0.000000 -17.000000 -15.000000 
v 8.000000 -16.000000 -15.000000 
v 14.000000 -14.000000 11.000000 
v 0.000000 -17.000000 -15.000000 
v 14.000000 0.000000 9.000000 
v 14.000000 -14.000000 11.000000 
v 8.000000 -16.000000 -15.000000 
v 8.000000 -10.000000 -18.000000 
v 14.000000 0.000000 9.000000 
v 8.000000 -16.000000 -15.000000 
v 0.000000 12.000000 6.000000 
v 14.000000 0.000000 9.000000 
v 8.000000 -10.000000 -18.000000 
v 0.000000 0.000000 -19.000000 
v 0.000000 12.000000 6.000000 
v 8.000000 -10.000000 -18.000000 
vn -0.883301 0.046631 -0.466309 
vn -0.186035 0.727051 -0.660400 
vn 0.000000 -0.491455 -0.870605 
vn -0.438477 -0.853027 -0.282227 
vn -0.883301 0.046631 -0.466309 
vn 0.000000 -0.491455 -0.870605 
vn 0.007568 -0.985840 -0.167236 
vn -0.438477 -0.853027 -0.282227 
vn 0.000000 -0.491455 -0.870605 
vn 0.694336 -0.633057 -0.341309 
vn 0.007568 -0.985840 -0.167236 
vn 0.000000 -0.491455 -0.870605 
vn 0.838379 0.233154 -0.492432 
vn 0.694336 -0.633057 -0.341309 
vn 0.000000 -0.491455 -0.870605 
vn -0.186035 0.727051 -0.660400 
vn 0.838379 0.233154 -0.492432 
vn 0.000000 -0.491455 -0.870605 
vn -0.865479 0.450439 -0.218750 
vn 0.352051 0.886475 -0.299805 
vn -0.186035 0.727051 -0.660400 
vn -0.883301 0.046631 -0.466309 
vn -0.865479 0.450439 -0.218750 
vn -0.186035 0.727051 -0.660400 
vn -0.865967 -0.489746 -0.098389 
vn -0.865479 0.450439 -0.218750 
vn -0.883301 0.046631 -0.466309 
vn -0.438477 -0.853027 -0.282227 
vn -0.865967 -0.489746 -0.098389 
vn -0.883301 0.046631 -0.466309 
vn -0.046387 -0.997070 0.056885 
vn -0.865967 -0.489746 -0.098389 
vn -0.438477 -0.853027 -0.282227 
vn 0.007568 -0.985840 -0.167236 
vn -0.046387 -0.997070 0.056885 
vn -0.438477 -0.853027 -0.282227 
vn 0.500732 -0.864990 -0.022705 
vn -0.046387 -0.997070 0.056885 
vn 0.007568 -0.985840 -0.167236 
vn 0.694336 -0.633057 -0.341309 
vn 0.500732 -0.864990 -0.022705 
vn 0.007568 -0.985840 -0.167236 
vn 0.957275 0.211914 -0.196045 
vn 0.500732 -0.864990 -0.022705 
vn 0.694336 -0.633057 -0.341309 
vn 0.838379 0.233154 -0.492432 
vn 0.957275 0.211914 -0.196045 
vn 0.694336 -0.633057 -0.341309 
vn 0.352051 0.886475 -0.299805 
vn 0.957275 0.211914 -0.196045 
vn 0.838379 0.233154 -0.492432 
vn -0.186035 0.727051 -0.660400 
vn 0.352051 0.886475 -0.299805 
vn 0.838379 0.233154 -0.492432 
vt 0.682540 0.451613 
vt 0.761905 0.387097 
vt 0.761905 0.645161 
vt 0.682540 0.677419 
vt 0.682540 0.451613 
vt 0.761905 0.645161 
vt 0.761905 0.709677 
vt 0.682540 0.677419 
vt 0.761905 0.645161 
vt 0.825397 0.677419 
vt 0.761905 0.709677 
vt 0.761905 0.645161 
vt 0.825397 0.483871 
vt 0.825397 0.677419 
vt 0.761905 0.645161 
vt 0.761905 0.387097 
vt 0.825397 0.483871 
vt 0.761905 0.645161 
vt 0.492063 0.000000 
vt 0.761905 0.000000 
vt 0.761905 0.387097 
vt 0.682540 0.451613 
vt 0.492063 0.000000 
vt 0.761905 0.387097 
vt 0.492063 1.000000 
vt 0.492063 0.000000 
vt 0.682540 0.451613 
vt 0.682540 0.677419 
vt 0.492063 1.000000 
vt 0.682540 0.451613 
vt 0.761905 1.000000 
vt 0.492063 1.000000 
vt 0.682540 0.677419 
vt 0.761905 0.709677 
vt 0.761905 1.000000 
vt 0.682540 0.677419 
vt 1.000000 1.000000 
vt 0.761905 1.000000 
vt 0.761905 0.709677 
vt 0.825397 0.677419 
vt 1.000000 1.000000 
vt 0.761905 0.709677 
vt 1.000000 0.000000 
vt 1.000000 1.000000 
vt 0.825397 0.677419 
vt 0.825397 0.483871 
vt 1.000000 0.000000 
vt 0.825397 0.677419 
vt 0.761905 0.000000 
vt 1.000000 0.000000 
vt 0.825397 0.483871 
vt 0.761905 0.387097 
vt 0.761905 0.000000 
vt 0.825397 0.483871 
f 1/1/1 2/2/2 3/3/3
f 4/4/4 5/5/5 6/6/6
f 7/7/7 8/8/8 9/9/9
f 10/10/10 11/11/11 12/12/12
f 13/13/13 14/14/14 15/15/15
f 16/16/16 17/17/17 18/18/18
f 19/19/19 20/20/20 21/21/21
f 22/22/22 23/23/23 24/24/24
f 25/25/25 26/26/26 27/27/27
f 28/28/28 29/29/29 30/30/30
f 31/31/31 32/32/32 33/33/33
f 34/34/34 35/35/35 36/36/36
f 37/37/37 38/38/38 39/39/39
f 40/40/40 41/41/41 42/42/42
f 43/43/43 44/44/44 45/45/45
f 46/46/46 47/47/47 48/48/48
f 49/49/49 50/50/50 51/51/51
f 52/52/52 53/53/53 54/54/54
