v -214.000000 -160.000000 89.000000 
v -214.000000 5.000000 -89.000000 
v -214.000000 -160.000000 -89.000000 
v -214.000000 5.000000 -89.000000 
v -214.000000 -160.000000 89.000000 
v -214.000000 5.000000 89.000000 
vn -0.999756 0.002930 0.000000 
vn -0.999756 0.002930 0.000000 
vn -0.999756 0.002930 0.000000 
vn -0.999756 0.002930 0.000000 
vn -0.999756 0.002930 0.000000 
vn -0.999756 0.002930 0.000000 
vt 0.307087 0.222222 
vt 0.244094 0.539683 
vt 0.244094 0.206349 
vt 0.244094 0.539683 
vt 0.307087 0.222222 
vt 0.307087 0.539683 
f 1/1/1 2/2/2 3/3/3
f 4/4/4 5/5/5 6/6/6
