v 119.000000 192.000000 -12.000000 
v 156.000000 157.000000 -95.000000 
v 50.000000 154.000000 -15.000000 
v 94.000000 197.000000 41.000000 
v 119.000000 192.000000 -12.000000 
v 50.000000 154.000000 -15.000000 
v 34.000000 160.000000 15.000000 
v 94.000000 197.000000 41.000000 
v 50.000000 154.000000 -15.000000 
v 265.000000 59.000000 -58.000000 
v 271.000000 0.000000 -80.000000 
v 196.000000 0.000000 -145.000000 
v 171.000000 70.000000 -135.000000 
v 265.000000 59.000000 -58.000000 
v 196.000000 0.000000 -145.000000 
v 250.000000 119.000000 -21.000000 
v 265.000000 59.000000 -58.000000 
v 171.000000 70.000000 -135.000000 
v 156.000000 157.000000 -95.000000 
v 250.000000 119.000000 -21.000000 
v 171.000000 70.000000 -135.000000 
v 220.000000 158.000000 38.000000 
v 250.000000 119.000000 -21.000000 
v 156.000000 157.000000 -95.000000 
v 119.000000 192.000000 -12.000000 
v 220.000000 158.000000 38.000000 
v 156.000000 157.000000 -95.000000 
v 198.000000 171.000000 88.000000 
v 220.000000 158.000000 38.000000 
v 119.000000 192.000000 -12.000000 
v 94.000000 197.000000 41.000000 
v 198.000000 171.000000 88.000000 
v 119.000000 192.000000 -12.000000 
v 284.000000 73.000000 19.000000 
v 294.000000 0.000000 19.000000 
v 271.000000 0.000000 -80.000000 
v 265.000000 59.000000 -58.000000 
v 284.000000 73.000000 19.000000 
v 271.000000 0.000000 -80.000000 
v 250.000000 119.000000 -21.000000 
v 284.000000 73.000000 19.000000 
v 265.000000 59.000000 -58.000000 
v 252.000000 85.000000 112.000000 
v 284.000000 73.000000 19.000000 
v 250.000000 119.000000 -21.000000 
v 220.000000 158.000000 38.000000 
v 252.000000 85.000000 112.000000 
v 250.000000 119.000000 -21.000000 
v 198.000000 171.000000 88.000000 
v 252.000000 85.000000 112.000000 
v 220.000000 158.000000 38.000000 
v 294.000000 0.000000 19.000000 
v 284.000000 73.000000 19.000000 
v 261.000000 0.000000 116.000000 
v 284.000000 73.000000 19.000000 
v 252.000000 85.000000 112.000000 
v 261.000000 0.000000 116.000000 
v -3.000000 187.000000 -1.000000 
v 34.000000 160.000000 15.000000 
v 50.000000 154.000000 -15.000000 
v 70.000000 192.000000 97.000000 
v 94.000000 197.000000 41.000000 
v 22.000000 154.000000 48.000000 
v 94.000000 197.000000 41.000000 
v 34.000000 160.000000 15.000000 
v 22.000000 154.000000 48.000000 
v 176.000000 158.000000 137.000000 
v 198.000000 171.000000 88.000000 
v 70.000000 192.000000 97.000000 
v 198.000000 171.000000 88.000000 
v 94.000000 197.000000 41.000000 
v 70.000000 192.000000 97.000000 
v 252.000000 85.000000 112.000000 
v 176.000000 158.000000 137.000000 
v 204.000000 73.000000 198.000000 
v 252.000000 85.000000 112.000000 
v 198.000000 171.000000 88.000000 
v 176.000000 158.000000 137.000000 
v 204.000000 73.000000 198.000000 
v 211.000000 0.000000 206.000000 
v 261.000000 0.000000 116.000000 
v 252.000000 85.000000 112.000000 
v 204.000000 73.000000 198.000000 
v 261.000000 0.000000 116.000000 
v 34.000000 160.000000 15.000000 
v -3.000000 187.000000 -1.000000 
v 22.000000 154.000000 48.000000 
v 70.000000 192.000000 97.000000 
v 60.000000 80.000000 108.000000 
v 204.000000 73.000000 198.000000 
v 176.000000 158.000000 137.000000 
v 70.000000 192.000000 97.000000 
v 204.000000 73.000000 198.000000 
v 57.000000 -4.000000 133.000000 
v 211.000000 0.000000 206.000000 
v 204.000000 73.000000 198.000000 
v 60.000000 80.000000 108.000000 
v 57.000000 -4.000000 133.000000 
v 204.000000 73.000000 198.000000 
v 70.000000 192.000000 97.000000 
v 22.000000 154.000000 48.000000 
v 60.000000 80.000000 108.000000 
v 22.000000 154.000000 48.000000 
v -20.000000 107.000000 -9.000000 
v 60.000000 80.000000 108.000000 
v 22.000000 154.000000 48.000000 
v -3.000000 187.000000 -1.000000 
v -20.000000 107.000000 -9.000000 
v 60.000000 80.000000 108.000000 
v -20.000000 107.000000 -9.000000 
v -72.000000 -7.000000 -35.000000 
v 57.000000 -4.000000 133.000000 
v 60.000000 80.000000 108.000000 
v -72.000000 -7.000000 -35.000000 
v -3.000000 187.000000 -1.000000 
v 50.000000 154.000000 -15.000000 
v -20.000000 107.000000 -9.000000 
v 156.000000 157.000000 -95.000000 
v 171.000000 70.000000 -135.000000 
v -20.000000 107.000000 -9.000000 
v 50.000000 154.000000 -15.000000 
v 156.000000 157.000000 -95.000000 
v -20.000000 107.000000 -9.000000 
v 171.000000 70.000000 -135.000000 
v 196.000000 0.000000 -145.000000 
v -72.000000 -7.000000 -35.000000 
v -20.000000 107.000000 -9.000000 
v 171.000000 70.000000 -135.000000 
v -72.000000 -7.000000 -35.000000 
vn 0.032715 0.971191 -0.235596 
vn 0.332764 0.813232 -0.476807 
vn -0.177490 0.941650 -0.285645 
vn -0.244873 0.963379 -0.108887 
vn 0.032715 0.971191 -0.235596 
vn -0.177490 0.941650 -0.285645 
vn 0.030273 0.999268 0.013428 
vn -0.244873 0.963379 -0.108887 
vn -0.177490 0.941650 -0.285645 
vn 0.737061 0.357666 -0.572998 
vn 0.858398 0.226807 -0.459717 
vn 0.600830 0.311035 -0.736328 
vn 0.602539 0.408447 -0.685547 
vn 0.737061 0.357666 -0.572998 
vn 0.600830 0.311035 -0.736328 
vn 0.742432 0.595703 -0.305908 
vn 0.737061 0.357666 -0.572998 
vn 0.602539 0.408447 -0.685547 
vn 0.332764 0.813232 -0.476807 
vn 0.742432 0.595703 -0.305908 
vn 0.602539 0.408447 -0.685547 
vn 0.609375 0.789551 -0.069336 
vn 0.742432 0.595703 -0.305908 
vn 0.332764 0.813232 -0.476807 
vn 0.032715 0.971191 -0.235596 
vn 0.609375 0.789551 -0.069336 
vn 0.332764 0.813232 -0.476807 
vn 0.415283 0.890625 0.184814 
vn 0.609375 0.789551 -0.069336 
vn 0.032715 0.971191 -0.235596 
vn -0.244873 0.963379 -0.108887 
vn 0.415283 0.890625 0.184814 
vn 0.032715 0.971191 -0.235596 
vn 0.952637 0.302246 -0.030762 
vn 0.988037 0.153076 0.016846 
vn 0.858398 0.226807 -0.459717 
vn 0.737061 0.357666 -0.572998 
vn 0.952637 0.302246 -0.030762 
vn 0.858398 0.226807 -0.459717 
vn 0.742432 0.595703 -0.305908 
vn 0.952637 0.302246 -0.030762 
vn 0.737061 0.357666 -0.572998 
vn 0.817627 0.479004 0.319092 
vn 0.952637 0.302246 -0.030762 
vn 0.742432 0.595703 -0.305908 
vn 0.609375 0.789551 -0.069336 
vn 0.817627 0.479004 0.319092 
vn 0.742432 0.595703 -0.305908 
vn 0.415283 0.890625 0.184814 
vn 0.817627 0.479004 0.319092 
vn 0.609375 0.789551 -0.069336 
vn 0.988037 0.153076 0.016846 
vn 0.952637 0.302246 -0.030762 
vn 0.905029 0.134521 0.402832 
vn 0.952637 0.302246 -0.030762 
vn 0.817627 0.479004 0.319092 
vn 0.905029 0.134521 0.402832 
vn 0.471680 0.856201 0.209961 
vn 0.030273 0.999268 0.013428 
vn -0.177490 0.941650 -0.285645 
vn -0.060791 0.991211 0.115967 
vn -0.244873 0.963379 -0.108887 
vn -0.208984 0.976318 0.054199 
vn -0.244873 0.963379 -0.108887 
vn 0.030273 0.999268 0.013428 
vn -0.208984 0.976318 0.054199 
vn 0.520752 0.735596 0.433105 
vn 0.415283 0.890625 0.184814 
vn -0.060791 0.991211 0.115967 
vn 0.415283 0.890625 0.184814 
vn -0.244873 0.963379 -0.108887 
vn -0.060791 0.991211 0.115967 
vn 0.817627 0.479004 0.319092 
vn 0.520752 0.735596 0.433105 
vn 0.814453 0.290771 0.501709 
vn 0.817627 0.479004 0.319092 
vn 0.415283 0.890625 0.184814 
vn 0.520752 0.735596 0.433105 
vn 0.814453 0.290771 0.501709 
vn 0.859863 0.145752 0.489014 
vn 0.905029 0.134521 0.402832 
vn 0.817627 0.479004 0.319092 
vn 0.814453 0.290771 0.501709 
vn 0.905029 0.134521 0.402832 
vn 0.030273 0.999268 0.013428 
vn 0.471680 0.856201 0.209961 
vn -0.208984 0.976318 0.054199 
vn -0.493652 0.272461 0.825684 
vn -0.679932 0.163086 0.714600 
vn -0.407959 0.244629 0.879395 
vn -0.168701 0.521484 0.836182 
vn -0.493652 0.272461 0.825684 
vn -0.407959 0.244629 0.879395 
vn -0.566650 0.169189 0.806152 
vn -0.426514 0.058594 0.902344 
vn -0.407959 0.244629 0.879395 
vn -0.679932 0.163086 0.714600 
vn -0.566650 0.169189 0.806152 
vn -0.407959 0.244629 0.879395 
vn -0.493652 0.272461 0.825684 
vn -0.778076 0.103760 0.619385 
vn -0.679932 0.163086 0.714600 
vn -0.778076 0.103760 0.619385 
vn -0.784912 0.131592 0.605225 
vn -0.679932 0.163086 0.714600 
vn -0.778076 0.103760 0.619385 
vn -0.808594 0.124756 0.574707 
vn -0.784912 0.131592 0.605225 
vn -0.679932 0.163086 0.714600 
vn -0.784912 0.131592 0.605225 
vn -0.751465 0.202393 0.627686 
vn -0.566650 0.169189 0.806152 
vn -0.679932 0.163086 0.714600 
vn -0.751465 0.202393 0.627686 
vn -0.113770 0.124756 -0.985596 
vn -0.295166 0.420654 -0.857666 
vn -0.362305 0.385254 -0.848389 
vn -0.447021 0.493164 -0.746094 
vn -0.396973 0.235352 -0.886963 
vn -0.362305 0.385254 -0.848389 
vn -0.295166 0.420654 -0.857666 
vn -0.447021 0.493164 -0.746094 
vn -0.362305 0.385254 -0.848389 
vn -0.396973 0.235352 -0.886963 
vn -0.325195 -0.005615 -0.945557 
vn -0.375000 0.198975 -0.905273 
vn -0.362305 0.385254 -0.848389 
vn -0.396973 0.235352 -0.886963 
vn -0.375000 0.198975 -0.905273 
vt 0.181102 0.705882 
vt 0.629921 0.705882 
vt 0.149606 0.584314 
vt 0.000000 0.705882 
vt 0.181102 0.705882 
vt 0.149606 0.584314 
vt 0.000000 0.572549 
vt 0.000000 0.705882 
vt 0.149606 0.584314 
vt 0.779528 0.811765 
vt 0.881890 0.854902 
vt 0.960630 0.717647 
vt 0.834646 0.682353 
vt 0.779528 0.811765 
vt 0.960630 0.717647 
vt 0.582677 0.831373 
vt 0.779528 0.811765 
vt 0.834646 0.682353 
vt 0.629921 0.705882 
vt 0.582677 0.831373 
vt 0.834646 0.682353 
vt 0.236220 0.831373 
vt 0.582677 0.831373 
vt 0.629921 0.705882 
vt 0.181102 0.705882 
vt 0.236220 0.831373 
vt 0.629921 0.705882 
vt 0.000000 0.843137 
vt 0.236220 0.831373 
vt 0.181102 0.705882 
vt 0.000000 0.705882 
vt 0.000000 0.843137 
vt 0.181102 0.705882 
vt 0.440945 0.941176 
vt 0.456693 0.988235 
vt 0.881890 0.854902 
vt 0.779528 0.811765 
vt 0.440945 0.941176 
vt 0.881890 0.854902 
vt 0.582677 0.831373 
vt 0.440945 0.941176 
vt 0.779528 0.811765 
vt 0.000000 0.952941 
vt 0.440945 0.941176 
vt 0.582677 0.831373 
vt 0.236220 0.831373 
vt 0.000000 0.952941 
vt 0.582677 0.831373 
vt 0.000000 0.843137 
vt 0.000000 0.952941 
vt 0.236220 0.831373 
vt 0.456693 0.988235 
vt 0.440945 0.941176 
vt 0.000000 1.000000 
vt 0.440945 0.941176 
vt 0.000000 0.952941 
vt 0.000000 1.000000 
vt 0.000000 0.478431 
vt 0.000000 0.572549 
vt 0.149606 0.584314 
vt 0.181102 0.705882 
vt 0.000000 0.705882 
vt 0.149606 0.584314 
vt 0.000000 0.705882 
vt 0.000000 0.572549 
vt 0.149606 0.584314 
vt 0.236220 0.831373 
vt 0.000000 0.843137 
vt 0.181102 0.705882 
vt 0.000000 0.843137 
vt 0.000000 0.705882 
vt 0.181102 0.705882 
vt 0.000000 0.952941 
vt 0.236220 0.831373 
vt 0.440945 0.941176 
vt 0.000000 0.952941 
vt 0.000000 0.843137 
vt 0.236220 0.831373 
vt 0.440945 0.941176 
vt 0.456693 0.988235 
vt 0.000000 1.000000 
vt 0.000000 0.952941 
vt 0.440945 0.941176 
vt 0.000000 1.000000 
vt 0.000000 0.572549 
vt 0.000000 0.478431 
vt 0.149606 0.584314 
vt 0.220472 0.407843 
vt 0.472441 0.396078 
vt 0.566929 0.215686 
vt 0.346457 0.270588 
vt 0.220472 0.407843 
vt 0.566929 0.215686 
vt 0.755906 0.411765 
vt 0.771654 0.188235 
vt 0.566929 0.215686 
vt 0.472441 0.396078 
vt 0.755906 0.411765 
vt 0.566929 0.215686 
vt 0.220472 0.407843 
vt 0.236220 0.498039 
vt 0.472441 0.396078 
vt 0.236220 0.498039 
vt 0.393701 0.564706 
vt 0.472441 0.396078 
vt 0.236220 0.498039 
vt 0.141732 0.564706 
vt 0.393701 0.564706 
vt 0.472441 0.396078 
vt 0.393701 0.564706 
vt 0.661417 0.647059 
vt 0.755906 0.411765 
vt 0.472441 0.396078 
vt 0.661417 0.647059 
vt 0.275591 0.549020 
vt 0.393701 0.541176 
vt 0.322835 0.400000 
vt 0.606299 0.615686 
vt 0.787402 0.509804 
vt 0.322835 0.400000 
vt 0.393701 0.541176 
vt 0.606299 0.615686 
vt 0.322835 0.400000 
vt 0.787402 0.509804 
vt 0.850394 0.360784 
vt 0.330709 0.152941 
vt 0.322835 0.400000 
vt 0.787402 0.509804 
vt 0.330709 0.152941 
f 1/1/1 2/2/2 3/3/3
f 4/4/4 5/5/5 6/6/6
f 7/7/7 8/8/8 9/9/9
f 10/10/10 11/11/11 12/12/12
f 13/13/13 14/14/14 15/15/15
f 16/16/16 17/17/17 18/18/18
f 19/19/19 20/20/20 21/21/21
f 22/22/22 23/23/23 24/24/24
f 25/25/25 26/26/26 27/27/27
f 28/28/28 29/29/29 30/30/30
f 31/31/31 32/32/32 33/33/33
f 34/34/34 35/35/35 36/36/36
f 37/37/37 38/38/38 39/39/39
f 40/40/40 41/41/41 42/42/42
f 43/43/43 44/44/44 45/45/45
f 46/46/46 47/47/47 48/48/48
f 49/49/49 50/50/50 51/51/51
f 52/52/52 53/53/53 54/54/54
f 55/55/55 56/56/56 57/57/57
f 58/58/58 59/59/59 60/60/60
f 61/61/61 62/62/62 63/63/63
f 64/64/64 65/65/65 66/66/66
f 67/67/67 68/68/68 69/69/69
f 70/70/70 71/71/71 72/72/72
f 73/73/73 74/74/74 75/75/75
f 76/76/76 77/77/77 78/78/78
f 79/79/79 80/80/80 81/81/81
f 82/82/82 83/83/83 84/84/84
f 85/85/85 86/86/86 87/87/87
f 88/88/88 89/89/89 90/90/90
f 91/91/91 92/92/92 93/93/93
f 94/94/94 95/95/95 96/96/96
f 97/97/97 98/98/98 99/99/99
f 100/100/100 101/101/101 102/102/102
f 103/103/103 104/104/104 105/105/105
f 106/106/106 107/107/107 108/108/108
f 109/109/109 110/110/110 111/111/111
f 112/112/112 113/113/113 114/114/114
f 115/115/115 116/116/116 117/117/117
f 118/118/118 119/119/119 120/120/120
f 121/121/121 122/122/122 123/123/123
f 124/124/124 125/125/125 126/126/126
f 127/127/127 128/128/128 129/129/129
