v 0.000000 -14.000000 22.000000 
v -5.000000 -10.000000 -11.000000 
v -3.000000 7.000000 34.000000 
v -5.000000 10.000000 -11.000000 
v 0.000000 14.000000 22.000000 
v -5.000000 -10.000000 -11.000000 
v -3.000000 -7.000000 34.000000 
v -3.000000 7.000000 34.000000 
v -19.000000 7.000000 34.000000 
v -19.000000 7.000000 34.000000 
v -19.000000 -7.000000 34.000000 
v -3.000000 -7.000000 34.000000 
v 0.000000 14.000000 22.000000 
v -5.000000 10.000000 -11.000000 
v -17.000000 10.000000 -3.000000 
v -17.000000 10.000000 -3.000000 
v -24.000000 14.000000 22.000000 
v 0.000000 14.000000 22.000000 
v -10.000000 8.000000 -38.000000 
v -10.000000 -8.000000 -38.000000 
v -27.000000 -8.000000 -36.000000 
v -34.000000 -8.000000 -36.000000 
v -27.000000 8.000000 -36.000000 
v -27.000000 -8.000000 -36.000000 
v -5.000000 -12.000000 -34.000000 
v -5.000000 -10.000000 -11.000000 
v -21.000000 -12.000000 -33.000000 
v -22.000000 -11.000000 -9.000000 
v -21.000000 -12.000000 -33.000000 
v -5.000000 -10.000000 -11.000000 
v 0.000000 -10.000000 -11.000000 
v 0.000000 -12.000000 -34.000000 
v 0.000000 10.000000 -11.000000 
v 0.000000 12.000000 -34.000000 
v 0.000000 10.000000 -11.000000 
v 0.000000 -12.000000 -34.000000 
v -27.000000 6.000000 -2.000000 
v -36.000000 7.000000 -11.000000 
v -27.000000 -6.000000 -2.000000 
v -34.000000 -8.000000 -36.000000 
v -36.000000 -7.000000 -11.000000 
v -34.000000 8.000000 -36.000000 
v -5.000000 10.000000 -11.000000 
v -5.000000 12.000000 -34.000000 
v -21.000000 12.000000 -33.000000 
v -21.000000 12.000000 -33.000000 
v -22.000000 11.000000 -9.000000 
v -5.000000 10.000000 -11.000000 
v -17.000000 -10.000000 -3.000000 
v 0.000000 -14.000000 22.000000 
v -24.000000 -14.000000 22.000000 
v 0.000000 -14.000000 22.000000 
v -17.000000 -10.000000 -3.000000 
v -5.000000 -10.000000 -11.000000 
v -34.000000 -8.000000 -36.000000 
v -34.000000 8.000000 -36.000000 
v -27.000000 8.000000 -36.000000 
v -31.000000 -2.000000 22.000000 
v -19.000000 -7.000000 34.000000 
v -31.000000 2.000000 22.000000 
v -19.000000 7.000000 34.000000 
v -31.000000 2.000000 22.000000 
v -19.000000 -7.000000 34.000000 
v -24.000000 -14.000000 22.000000 
v -30.000000 -8.000000 8.000000 
v -17.000000 -10.000000 -3.000000 
v -27.000000 -6.000000 -2.000000 
v -17.000000 -10.000000 -3.000000 
v -30.000000 -8.000000 8.000000 
v -30.000000 8.000000 8.000000 
v -24.000000 14.000000 22.000000 
v -17.000000 10.000000 -3.000000 
v -17.000000 10.000000 -3.000000 
v -27.000000 6.000000 -2.000000 
v -30.000000 8.000000 8.000000 
v -10.000000 8.000000 -38.000000 
v -27.000000 -8.000000 -36.000000 
v -27.000000 8.000000 -36.000000 
v -34.000000 -8.000000 -36.000000 
v -21.000000 -12.000000 -33.000000 
v -36.000000 -7.000000 -11.000000 
v -22.000000 -11.000000 -9.000000 
v -36.000000 -7.000000 -11.000000 
v -21.000000 -12.000000 -33.000000 
v -27.000000 8.000000 -36.000000 
v -34.000000 8.000000 -36.000000 
v -21.000000 12.000000 -33.000000 
v -36.000000 7.000000 -11.000000 
v -22.000000 11.000000 -9.000000 
v -21.000000 12.000000 -33.000000 
v -3.000000 -7.000000 34.000000 
v 0.000000 -14.000000 22.000000 
v -3.000000 7.000000 34.000000 
v -5.000000 -10.000000 -11.000000 
v 0.000000 14.000000 22.000000 
v -3.000000 7.000000 34.000000 
v -3.000000 7.000000 34.000000 
v 0.000000 14.000000 22.000000 
v -24.000000 14.000000 22.000000 
v -24.000000 14.000000 22.000000 
v -19.000000 7.000000 34.000000 
v -3.000000 7.000000 34.000000 
v 0.000000 -14.000000 22.000000 
v -3.000000 -7.000000 34.000000 
v -24.000000 -14.000000 22.000000 
v -19.000000 -7.000000 34.000000 
v -24.000000 -14.000000 22.000000 
v -3.000000 -7.000000 34.000000 
v -31.000000 -2.000000 22.000000 
v -30.000000 -8.000000 8.000000 
v -24.000000 -14.000000 22.000000 
v -24.000000 -14.000000 22.000000 
v -19.000000 -7.000000 34.000000 
v -31.000000 -2.000000 22.000000 
v -19.000000 7.000000 34.000000 
v -24.000000 14.000000 22.000000 
v -31.000000 2.000000 22.000000 
v -30.000000 8.000000 8.000000 
v -31.000000 2.000000 22.000000 
v -24.000000 14.000000 22.000000 
v -21.000000 12.000000 -33.000000 
v -34.000000 8.000000 -36.000000 
v -36.000000 7.000000 -11.000000 
v -5.000000 -12.000000 -34.000000 
v -10.000000 -8.000000 -38.000000 
v -5.000000 12.000000 -34.000000 
v -10.000000 8.000000 -38.000000 
v -5.000000 12.000000 -34.000000 
v -10.000000 -8.000000 -38.000000 
v -10.000000 -8.000000 -38.000000 
v -5.000000 -12.000000 -34.000000 
v -21.000000 -12.000000 -33.000000 
v -21.000000 -12.000000 -33.000000 
v -27.000000 -8.000000 -36.000000 
v -10.000000 -8.000000 -38.000000 
v -5.000000 12.000000 -34.000000 
v -10.000000 8.000000 -38.000000 
v -21.000000 12.000000 -33.000000 
v -27.000000 8.000000 -36.000000 
v -21.000000 12.000000 -33.000000 
v -10.000000 8.000000 -38.000000 
v -34.000000 -8.000000 -36.000000 
v -27.000000 -8.000000 -36.000000 
v -21.000000 -12.000000 -33.000000 
v -30.000000 8.000000 8.000000 
v -27.000000 -6.000000 -2.000000 
v -30.000000 -8.000000 8.000000 
v -27.000000 6.000000 -2.000000 
v -27.000000 -6.000000 -2.000000 
v -30.000000 8.000000 8.000000 
v -31.000000 2.000000 22.000000 
v -30.000000 -8.000000 8.000000 
v -31.000000 -2.000000 22.000000 
v -30.000000 8.000000 8.000000 
v -30.000000 -8.000000 8.000000 
v -31.000000 2.000000 22.000000 
v -17.000000 -10.000000 -3.000000 
v -27.000000 -6.000000 -2.000000 
v -22.000000 -11.000000 -9.000000 
v -17.000000 -10.000000 -3.000000 
v -22.000000 -11.000000 -9.000000 
v -5.000000 -10.000000 -11.000000 
v -36.000000 -7.000000 -11.000000 
v -22.000000 -11.000000 -9.000000 
v -27.000000 -6.000000 -2.000000 
v -36.000000 -7.000000 -11.000000 
v -36.000000 7.000000 -11.000000 
v -34.000000 8.000000 -36.000000 
v -36.000000 -7.000000 -11.000000 
v -27.000000 -6.000000 -2.000000 
v -36.000000 7.000000 -11.000000 
v -27.000000 6.000000 -2.000000 
v -17.000000 10.000000 -3.000000 
v -22.000000 11.000000 -9.000000 
v -22.000000 11.000000 -9.000000 
v -36.000000 7.000000 -11.000000 
v -27.000000 6.000000 -2.000000 
v -22.000000 11.000000 -9.000000 
v -17.000000 10.000000 -3.000000 
v -5.000000 10.000000 -11.000000 
v -5.000000 10.000000 -11.000000 
v -5.000000 -10.000000 -11.000000 
v 0.000000 -10.000000 -11.000000 
v 0.000000 -10.000000 -11.000000 
v 0.000000 10.000000 -11.000000 
v -5.000000 10.000000 -11.000000 
v -5.000000 -10.000000 -11.000000 
v -5.000000 -12.000000 -34.000000 
v 0.000000 -12.000000 -34.000000 
v 0.000000 -12.000000 -34.000000 
v 0.000000 -10.000000 -11.000000 
v -5.000000 -10.000000 -11.000000 
v -5.000000 12.000000 -34.000000 
v -5.000000 10.000000 -11.000000 
v 0.000000 10.000000 -11.000000 
v 0.000000 10.000000 -11.000000 
v 0.000000 12.000000 -34.000000 
v -5.000000 12.000000 -34.000000 
v -5.000000 -12.000000 -34.000000 
v -5.000000 12.000000 -34.000000 
v 0.000000 12.000000 -34.000000 
v 0.000000 12.000000 -34.000000 
v 0.000000 -12.000000 -34.000000 
v -5.000000 -12.000000 -34.000000 
vn 0.570068 -0.813965 0.109863 
vn 0.599121 -0.800293 -0.007568 
vn 0.734131 0.424561 0.529541 
vn 0.263672 0.964355 -0.000244 
vn 0.582764 0.809814 0.064453 
vn 0.599121 -0.800293 -0.007568 
vn 0.261963 -0.471680 0.841797 
vn 0.734131 0.424561 0.529541 
vn -0.410645 0.309570 0.857422 
vn -0.410645 0.309570 0.857422 
vn -0.604004 -0.303955 0.736572 
vn 0.261963 -0.471680 0.841797 
vn 0.582764 0.809814 0.064453 
vn 0.263672 0.964355 -0.000244 
vn -0.274414 0.960449 -0.042725 
vn -0.274414 0.960449 -0.042725 
vn -0.438965 0.866699 0.236084 
vn 0.582764 0.809814 0.064453 
vn 0.045654 0.339600 -0.939209 
vn 0.238770 -0.348633 -0.906250 
vn -0.120605 -0.328613 -0.936523 
vn -0.458740 -0.463623 -0.757568 
vn -0.094482 0.328857 -0.939453 
vn -0.120605 -0.328613 -0.936523 
vn 0.256348 -0.763428 -0.592529 
vn 0.599121 -0.800293 -0.007568 
vn -0.172607 -0.942383 -0.285889 
vn -0.235596 -0.952148 0.193359 
vn -0.172607 -0.942383 -0.285889 
vn 0.599121 -0.800293 -0.007568 
vn 0.999756 0.000000 -0.001465 
vn 0.999756 0.000000 -0.001465 
vn 0.999756 0.000000 -0.001465 
vn 0.999756 0.000000 -0.001465 
vn 0.999756 0.000000 -0.001465 
vn 0.999756 0.000000 -0.001465 
vn -0.716797 0.693848 0.066650 
vn -0.788818 0.000000 0.614258 
vn -0.864258 -0.486816 0.125000 
vn -0.458740 -0.463623 -0.757568 
vn -0.774902 -0.628418 0.062988 
vn -0.731201 0.463135 -0.500488 
vn 0.263672 0.964355 -0.000244 
vn 0.418701 0.579590 -0.698730 
vn -0.172607 0.942383 -0.285889 
vn -0.172607 0.942383 -0.285889 
vn -0.235596 0.952148 0.193359 
vn 0.263672 0.964355 -0.000244 
vn -0.274414 -0.960449 -0.042725 
vn 0.570068 -0.813965 0.109863 
vn -0.438965 -0.866699 0.236084 
vn 0.570068 -0.813965 0.109863 
vn -0.274414 -0.960449 -0.042725 
vn 0.599121 -0.800293 -0.007568 
vn -0.458740 -0.463623 -0.757568 
vn -0.731201 0.463135 -0.500488 
vn -0.094482 0.328857 -0.939453 
vn -0.936768 -0.201416 0.285400 
vn -0.604004 -0.303955 0.736572 
vn -0.949219 0.134766 0.283447 
vn -0.410645 0.309570 0.857422 
vn -0.949219 0.134766 0.283447 
vn -0.604004 -0.303955 0.736572 
vn -0.438965 -0.866699 0.236084 
vn -0.919678 -0.372314 -0.123047 
vn -0.274414 -0.960449 -0.042725 
vn -0.864258 -0.486816 0.125000 
vn -0.274414 -0.960449 -0.042725 
vn -0.919678 -0.372314 -0.123047 
vn -0.914307 0.372314 -0.157959 
vn -0.438965 0.866699 0.236084 
vn -0.274414 0.960449 -0.042725 
vn -0.274414 0.960449 -0.042725 
vn -0.716797 0.693848 0.066650 
vn -0.914307 0.372314 -0.157959 
vn 0.045654 0.339600 -0.939209 
vn -0.120605 -0.328613 -0.936523 
vn -0.094482 0.328857 -0.939453 
vn -0.458740 -0.463623 -0.757568 
vn -0.172607 -0.942383 -0.285889 
vn -0.774902 -0.628418 0.062988 
vn -0.235596 -0.952148 0.193359 
vn -0.774902 -0.628418 0.062988 
vn -0.172607 -0.942383 -0.285889 
vn -0.094482 0.328857 -0.939453 
vn -0.731201 0.463135 -0.500488 
vn -0.172607 0.942383 -0.285889 
vn -0.646240 0.756348 0.099365 
vn -0.235596 0.952148 0.193359 
vn -0.172607 0.942383 -0.285889 
vn 0.261963 -0.471680 0.841797 
vn 0.570068 -0.813965 0.109863 
vn 0.734131 0.424561 0.529541 
vn 0.599121 -0.800293 -0.007568 
vn 0.582764 0.809814 0.064453 
vn 0.734131 0.424561 0.529541 
vn 0.734131 0.424561 0.529541 
vn 0.582764 0.809814 0.064453 
vn -0.438965 0.866699 0.236084 
vn -0.438965 0.866699 0.236084 
vn -0.410645 0.309570 0.857422 
vn 0.734131 0.424561 0.529541 
vn 0.570068 -0.813965 0.109863 
vn 0.261963 -0.471680 0.841797 
vn -0.438965 -0.866699 0.236084 
vn -0.604004 -0.303955 0.736572 
vn -0.438965 -0.866699 0.236084 
vn 0.261963 -0.471680 0.841797 
vn -0.936768 -0.201416 0.285400 
vn -0.919678 -0.372314 -0.123047 
vn -0.438965 -0.866699 0.236084 
vn -0.438965 -0.866699 0.236084 
vn -0.604004 -0.303955 0.736572 
vn -0.936768 -0.201416 0.285400 
vn -0.410645 0.309570 0.857422 
vn -0.438965 0.866699 0.236084 
vn -0.949219 0.134766 0.283447 
vn -0.914307 0.372314 -0.157959 
vn -0.949219 0.134766 0.283447 
vn -0.438965 0.866699 0.236084 
vn -0.172607 0.942383 -0.285889 
vn -0.731201 0.463135 -0.500488 
vn -0.646240 0.756348 0.099365 
vn 0.256348 -0.763428 -0.592529 
vn 0.238770 -0.348633 -0.906250 
vn 0.418701 0.579590 -0.698730 
vn 0.045654 0.339600 -0.939209 
vn 0.418701 0.579590 -0.698730 
vn 0.238770 -0.348633 -0.906250 
vn 0.238770 -0.348633 -0.906250 
vn 0.256348 -0.763428 -0.592529 
vn -0.172607 -0.942383 -0.285889 
vn -0.172607 -0.942383 -0.285889 
vn -0.120605 -0.328613 -0.936523 
vn 0.238770 -0.348633 -0.906250 
vn 0.418701 0.579590 -0.698730 
vn 0.045654 0.339600 -0.939209 
vn -0.172607 0.942383 -0.285889 
vn -0.094482 0.328857 -0.939453 
vn -0.172607 0.942383 -0.285889 
vn 0.045654 0.339600 -0.939209 
vn -0.458740 -0.463623 -0.757568 
vn -0.120605 -0.328613 -0.936523 
vn -0.172607 -0.942383 -0.285889 
vn -0.914307 0.372314 -0.157959 
vn -0.864258 -0.486816 0.125000 
vn -0.919678 -0.372314 -0.123047 
vn -0.716797 0.693848 0.066650 
vn -0.864258 -0.486816 0.125000 
vn -0.914307 0.372314 -0.157959 
vn -0.949219 0.134766 0.283447 
vn -0.919678 -0.372314 -0.123047 
vn -0.936768 -0.201416 0.285400 
vn -0.914307 0.372314 -0.157959 
vn -0.919678 -0.372314 -0.123047 
vn -0.949219 0.134766 0.283447 
vn -0.274414 -0.960449 -0.042725 
vn -0.864258 -0.486816 0.125000 
vn -0.235596 -0.952148 0.193359 
vn -0.274414 -0.960449 -0.042725 
vn -0.235596 -0.952148 0.193359 
vn 0.599121 -0.800293 -0.007568 
vn -0.774902 -0.628418 0.062988 
vn -0.235596 -0.952148 0.193359 
vn -0.864258 -0.486816 0.125000 
vn -0.774902 -0.628418 0.062988 
vn -0.646240 0.756348 0.099365 
vn -0.731201 0.463135 -0.500488 
vn -0.788818 0.000000 0.614258 
vn -0.864258 -0.486816 0.125000 
vn -0.788818 0.000000 0.614258 
vn -0.716797 0.693848 0.066650 
vn -0.274414 0.960449 -0.042725 
vn -0.235596 0.952148 0.193359 
vn -0.235596 0.952148 0.193359 
vn -0.646240 0.756348 0.099365 
vn -0.716797 0.693848 0.066650 
vn -0.235596 0.952148 0.193359 
vn -0.274414 0.960449 -0.042725 
vn 0.263672 0.964355 -0.000244 
vn 0.001465 0.000000 0.999756 
vn 0.001465 0.000000 0.999756 
vn 0.001465 0.000000 0.999756 
vn 0.001465 0.000000 0.999756 
vn 0.001465 0.000000 0.999756 
vn 0.001465 0.000000 0.999756 
vn 0.000000 -0.997314 0.071777 
vn 0.000000 -0.997314 0.071777 
vn 0.000000 -0.997314 0.071777 
vn 0.000000 -0.997314 0.071777 
vn 0.000000 -0.997314 0.071777 
vn 0.000000 -0.997314 0.071777 
vn 0.000000 0.997314 0.071777 
vn 0.000000 0.997314 0.071777 
vn 0.000000 0.997314 0.071777 
vn 0.000000 0.997314 0.071777 
vn 0.000000 0.997314 0.071777 
vn 0.000000 0.997314 0.071777 
vn -0.001465 0.000000 -0.999756 
vn -0.001465 0.000000 -0.999756 
vn -0.001465 0.000000 -0.999756 
vn -0.001465 0.000000 -0.999756 
vn -0.001465 0.000000 -0.999756 
vn -0.001465 0.000000 -0.999756 
vt 0.079365 0.000000 
vt 0.761905 0.064516 
vt 0.015873 0.000000 
vt 0.761905 0.064516 
vt 0.079365 0.000000 
vt 0.761905 0.064516 
vt 0.015873 0.000000 
vt 0.015873 0.000000 
vt 0.015873 0.516129 
vt 0.015873 0.516129 
vt 0.015873 0.516129 
vt 0.015873 0.000000 
vt 0.079365 0.000000 
vt 0.761905 0.064516 
vt 0.730159 0.516129 
vt 0.730159 0.516129 
vt 0.158730 0.580645 
vt 0.079365 0.000000 
vt 0.984127 0.290323 
vt 0.984127 0.290323 
vt 0.952381 0.709677 
vt 0.952381 0.903226 
vt 0.952381 0.709677 
vt 0.952381 0.709677 
vt 0.936508 0.000000 
vt 0.761905 0.064516 
vt 0.920635 0.580645 
vt 0.825397 0.645161 
vt 0.920635 0.580645 
vt 0.761905 0.064516 
vt 0.761905 0.064516 
vt 0.936508 0.000000 
vt 0.761905 0.064516 
vt 0.936508 0.000000 
vt 0.761905 0.064516 
vt 0.936508 0.000000 
vt 0.730159 0.774194 
vt 0.841270 1.000000 
vt 0.730159 0.774194 
vt 0.952381 0.903226 
vt 0.841270 1.000000 
vt 0.952381 0.903226 
vt 0.761905 0.064516 
vt 0.936508 0.000000 
vt 0.920635 0.580645 
vt 0.920635 0.580645 
vt 0.825397 0.645161 
vt 0.761905 0.064516 
vt 0.730159 0.516129 
vt 0.079365 0.000000 
vt 0.158730 0.580645 
vt 0.079365 0.000000 
vt 0.730159 0.516129 
vt 0.761905 0.064516 
vt 0.952381 0.903226 
vt 0.952381 0.903226 
vt 0.952381 0.709677 
vt 0.158730 0.774194 
vt 0.015873 0.516129 
vt 0.158730 0.774194 
vt 0.015873 0.516129 
vt 0.158730 0.774194 
vt 0.015873 0.516129 
vt 0.158730 0.580645 
vt 0.666667 0.806452 
vt 0.730159 0.516129 
vt 0.730159 0.774194 
vt 0.730159 0.516129 
vt 0.666667 0.806452 
vt 0.682540 0.806452 
vt 0.158730 0.580645 
vt 0.730159 0.516129 
vt 0.730159 0.516129 
vt 0.730159 0.774194 
vt 0.682540 0.806452 
vt 0.984127 0.290323 
vt 0.952381 0.709677 
vt 0.952381 0.709677 
vt 0.952381 0.903226 
vt 0.920635 0.580645 
vt 0.841270 1.000000 
vt 0.825397 0.645161 
vt 0.841270 1.000000 
vt 0.920635 0.580645 
vt 0.952381 0.709677 
vt 0.952381 0.903226 
vt 0.920635 0.580645 
vt 0.841270 1.000000 
vt 0.825397 0.645161 
vt 0.920635 0.580645 
vt 0.015873 0.000000 
vt 0.079365 0.000000 
vt 0.015873 0.000000 
vt 0.761905 0.064516 
vt 0.079365 0.000000 
vt 0.015873 0.000000 
vt 0.015873 0.000000 
vt 0.079365 0.000000 
vt 0.158730 0.580645 
vt 0.158730 0.580645 
vt 0.015873 0.516129 
vt 0.015873 0.000000 
vt 0.079365 0.000000 
vt 0.015873 0.000000 
vt 0.158730 0.580645 
vt 0.015873 0.516129 
vt 0.158730 0.580645 
vt 0.015873 0.000000 
vt 0.158730 0.774194 
vt 0.666667 0.806452 
vt 0.158730 0.580645 
vt 0.158730 0.580645 
vt 0.015873 0.516129 
vt 0.158730 0.774194 
vt 0.015873 0.516129 
vt 0.158730 0.580645 
vt 0.158730 0.774194 
vt 0.682540 0.806452 
vt 0.158730 0.774194 
vt 0.158730 0.580645 
vt 0.920635 0.580645 
vt 0.952381 0.903226 
vt 0.841270 1.000000 
vt 0.936508 0.000000 
vt 0.984127 0.290323 
vt 0.936508 0.000000 
vt 0.984127 0.290323 
vt 0.936508 0.000000 
vt 0.984127 0.290323 
vt 0.984127 0.290323 
vt 0.936508 0.000000 
vt 0.920635 0.580645 
vt 0.920635 0.580645 
vt 0.952381 0.709677 
vt 0.984127 0.290323 
vt 0.936508 0.000000 
vt 0.984127 0.290323 
vt 0.920635 0.580645 
vt 0.952381 0.709677 
vt 0.920635 0.580645 
vt 0.984127 0.290323 
vt 0.952381 0.903226 
vt 0.952381 0.709677 
vt 0.920635 0.580645 
vt 0.682540 0.806452 
vt 0.730159 0.774194 
vt 0.666667 0.806452 
vt 0.730159 0.774194 
vt 0.730159 0.774194 
vt 0.682540 0.806452 
vt 0.158730 0.774194 
vt 0.666667 0.806452 
vt 0.158730 0.774194 
vt 0.682540 0.806452 
vt 0.666667 0.806452 
vt 0.158730 0.774194 
vt 0.730159 0.516129 
vt 0.730159 0.774194 
vt 0.825397 0.645161 
vt 0.730159 0.516129 
vt 0.825397 0.645161 
vt 0.761905 0.064516 
vt 0.841270 1.000000 
vt 0.825397 0.645161 
vt 0.730159 0.774194 
vt 0.841270 1.000000 
vt 0.841270 1.000000 
vt 0.952381 0.903226 
vt 0.841270 1.000000 
vt 0.730159 0.774194 
vt 0.841270 1.000000 
vt 0.730159 0.774194 
vt 0.730159 0.516129 
vt 0.825397 0.645161 
vt 0.825397 0.645161 
vt 0.841270 1.000000 
vt 0.730159 0.774194 
vt 0.825397 0.645161 
vt 0.730159 0.516129 
vt 0.761905 0.064516 
vt 0.761905 0.064516 
vt 0.761905 0.064516 
vt 0.761905 0.064516 
vt 0.761905 0.064516 
vt 0.761905 0.064516 
vt 0.761905 0.064516 
vt 0.761905 0.064516 
vt 0.936508 0.000000 
vt 0.936508 0.000000 
vt 0.936508 0.000000 
vt 0.761905 0.064516 
vt 0.761905 0.064516 
vt 0.936508 0.000000 
vt 0.761905 0.064516 
vt 0.761905 0.064516 
vt 0.761905 0.064516 
vt 0.936508 0.000000 
vt 0.936508 0.000000 
vt 0.936508 0.000000 
vt 0.936508 0.000000 
vt 0.936508 0.000000 
vt 0.936508 0.000000 
vt 0.936508 0.000000 
vt 0.936508 0.000000 
f 1/1/1 2/2/2 3/3/3
f 4/4/4 5/5/5 6/6/6
f 7/7/7 8/8/8 9/9/9
f 10/10/10 11/11/11 12/12/12
f 13/13/13 14/14/14 15/15/15
f 16/16/16 17/17/17 18/18/18
f 19/19/19 20/20/20 21/21/21
f 22/22/22 23/23/23 24/24/24
f 25/25/25 26/26/26 27/27/27
f 28/28/28 29/29/29 30/30/30
f 31/31/31 32/32/32 33/33/33
f 34/34/34 35/35/35 36/36/36
f 37/37/37 38/38/38 39/39/39
f 40/40/40 41/41/41 42/42/42
f 43/43/43 44/44/44 45/45/45
f 46/46/46 47/47/47 48/48/48
f 49/49/49 50/50/50 51/51/51
f 52/52/52 53/53/53 54/54/54
f 55/55/55 56/56/56 57/57/57
f 58/58/58 59/59/59 60/60/60
f 61/61/61 62/62/62 63/63/63
f 64/64/64 65/65/65 66/66/66
f 67/67/67 68/68/68 69/69/69
f 70/70/70 71/71/71 72/72/72
f 73/73/73 74/74/74 75/75/75
f 76/76/76 77/77/77 78/78/78
f 79/79/79 80/80/80 81/81/81
f 82/82/82 83/83/83 84/84/84
f 85/85/85 86/86/86 87/87/87
f 88/88/88 89/89/89 90/90/90
f 91/91/91 92/92/92 93/93/93
f 94/94/94 95/95/95 96/96/96
f 97/97/97 98/98/98 99/99/99
f 100/100/100 101/101/101 102/102/102
f 103/103/103 104/104/104 105/105/105
f 106/106/106 107/107/107 108/108/108
f 109/109/109 110/110/110 111/111/111
f 112/112/112 113/113/113 114/114/114
f 115/115/115 116/116/116 117/117/117
f 118/118/118 119/119/119 120/120/120
f 121/121/121 122/122/122 123/123/123
f 124/124/124 125/125/125 126/126/126
f 127/127/127 128/128/128 129/129/129
f 130/130/130 131/131/131 132/132/132
f 133/133/133 134/134/134 135/135/135
f 136/136/136 137/137/137 138/138/138
f 139/139/139 140/140/140 141/141/141
f 142/142/142 143/143/143 144/144/144
f 145/145/145 146/146/146 147/147/147
f 148/148/148 149/149/149 150/150/150
f 151/151/151 152/152/152 153/153/153
f 154/154/154 155/155/155 156/156/156
f 157/157/157 158/158/158 159/159/159
f 160/160/160 161/161/161 162/162/162
f 163/163/163 164/164/164 165/165/165
f 166/166/166 167/167/167 168/168/168
f 169/169/169 170/170/170 171/171/171
f 172/172/172 173/173/173 174/174/174
f 175/175/175 176/176/176 177/177/177
f 178/178/178 179/179/179 180/180/180
f 181/181/181 182/182/182 183/183/183
f 184/184/184 185/185/185 186/186/186
f 187/187/187 188/188/188 189/189/189
f 190/190/190 191/191/191 192/192/192
f 193/193/193 194/194/194 195/195/195
f 196/196/196 197/197/197 198/198/198
f 199/199/199 200/200/200 201/201/201
f 202/202/202 203/203/203 204/204/204
