v 23.000000 0.000000 -9.000000 
v 8.000000 0.000000 -12.000000 
v 7.000000 13.000000 -10.000000 
v 8.000000 0.000000 -12.000000 
v 23.000000 0.000000 -9.000000 
v 7.000000 -13.000000 -10.000000 
v 9.000000 9.000000 21.000000 
v 15.000000 7.000000 17.000000 
v 10.000000 19.000000 10.000000 
v 10.000000 19.000000 10.000000 
v 7.000000 15.000000 18.000000 
v 9.000000 9.000000 21.000000 
v 7.000000 2.000000 19.000000 
v 8.000000 0.000000 16.000000 
v 15.000000 7.000000 17.000000 
v 8.000000 0.000000 16.000000 
v 7.000000 2.000000 19.000000 
v 1.000000 2.000000 20.000000 
v 8.000000 0.000000 16.000000 
v 7.000000 -3.000000 19.000000 
v 15.000000 -8.000000 17.000000 
v 7.000000 -3.000000 19.000000 
v 8.000000 0.000000 16.000000 
v 1.000000 -2.000000 20.000000 
v 15.000000 7.000000 17.000000 
v 9.000000 9.000000 21.000000 
v 7.000000 2.000000 19.000000 
v 7.000000 15.000000 18.000000 
v 1.000000 14.000000 18.000000 
v 0.000000 9.000000 22.000000 
v 9.000000 9.000000 21.000000 
v 0.000000 9.000000 22.000000 
v 1.000000 2.000000 20.000000 
v 1.000000 2.000000 20.000000 
v 7.000000 2.000000 19.000000 
v 9.000000 9.000000 21.000000 
v 0.000000 9.000000 22.000000 
v 9.000000 9.000000 21.000000 
v 7.000000 15.000000 18.000000 
v 15.000000 -8.000000 17.000000 
v 9.000000 -9.000000 21.000000 
v 10.000000 -19.000000 10.000000 
v 7.000000 -15.000000 18.000000 
v 10.000000 -19.000000 10.000000 
v 9.000000 -9.000000 21.000000 
v 9.000000 -9.000000 21.000000 
v 15.000000 -8.000000 17.000000 
v 7.000000 -3.000000 19.000000 
v 1.000000 -14.000000 18.000000 
v 7.000000 -15.000000 18.000000 
v 0.000000 -9.000000 22.000000 
v 0.000000 -9.000000 22.000000 
v 9.000000 -9.000000 21.000000 
v 1.000000 -2.000000 20.000000 
v 7.000000 -3.000000 19.000000 
v 1.000000 -2.000000 20.000000 
v 9.000000 -9.000000 21.000000 
v 9.000000 -9.000000 21.000000 
v 0.000000 -9.000000 22.000000 
v 7.000000 -15.000000 18.000000 
vn 0.421143 0.000000 -0.906738 
vn -0.133545 0.000000 -0.990967 
vn -0.088135 0.450195 -0.888428 
vn -0.133545 0.000000 -0.990967 
vn 0.421143 0.000000 -0.906738 
vn -0.088135 -0.450195 -0.888428 
vn 0.464355 0.167236 0.869385 
vn 0.693604 0.088623 0.714600 
vn 0.343018 0.856934 0.384033 
vn 0.343018 0.856934 0.384033 
vn 0.124756 0.790039 0.600098 
vn 0.464355 0.167236 0.869385 
vn 0.390137 -0.506104 0.768799 
vn 0.378418 0.000000 0.925537 
vn 0.693604 0.088623 0.714600 
vn 0.378418 0.000000 0.925537 
vn 0.390137 -0.506104 0.768799 
vn -0.073730 -0.586914 0.805908 
vn 0.378418 0.000000 0.925537 
vn 0.390137 0.506104 0.768799 
vn 0.693604 -0.088623 0.714600 
vn 0.390137 0.506104 0.768799 
vn 0.378418 0.000000 0.925537 
vn -0.073730 0.586914 0.805908 
vn 0.693604 0.088623 0.714600 
vn 0.464355 0.167236 0.869385 
vn 0.390137 -0.506104 0.768799 
vn 0.124756 0.790039 0.600098 
vn -0.400879 0.743408 0.534912 
vn -0.384277 0.156494 0.909668 
vn 0.464355 0.167236 0.869385 
vn -0.384277 0.156494 0.909668 
vn -0.073730 -0.586914 0.805908 
vn -0.073730 -0.586914 0.805908 
vn 0.390137 -0.506104 0.768799 
vn 0.464355 0.167236 0.869385 
vn -0.384277 0.156494 0.909668 
vn 0.464355 0.167236 0.869385 
vn 0.124756 0.790039 0.600098 
vn 0.693604 -0.088623 0.714600 
vn 0.464355 -0.167236 0.869385 
vn 0.343018 -0.856934 0.384033 
vn 0.124756 -0.790039 0.600098 
vn 0.343018 -0.856934 0.384033 
vn 0.464355 -0.167236 0.869385 
vn 0.464355 -0.167236 0.869385 
vn 0.693604 -0.088623 0.714600 
vn 0.390137 0.506104 0.768799 
vn -0.400879 -0.743408 0.534912 
vn 0.124756 -0.790039 0.600098 
vn -0.384277 -0.156494 0.909668 
vn -0.384277 -0.156494 0.909668 
vn 0.464355 -0.167236 0.869385 
vn -0.073730 0.586914 0.805908 
vn 0.390137 0.506104 0.768799 
vn -0.073730 0.586914 0.805908 
vn 0.464355 -0.167236 0.869385 
vn 0.464355 -0.167236 0.869385 
vn -0.384277 -0.156494 0.909668 
vn 0.124756 -0.790039 0.600098 
vt 0.096774 0.032258 
vt 0.096774 0.032258 
vt 0.129032 0.032258 
vt 0.096774 0.032258 
vt 0.096774 0.032258 
vt 0.129032 0.032258 
vt 0.096774 0.032258 
vt 0.096774 0.032258 
vt 0.161290 0.032258 
vt 0.161290 0.032258 
vt 0.161290 0.032258 
vt 0.096774 0.032258 
vt 0.096774 0.032258 
vt 0.096774 0.032258 
vt 0.096774 0.032258 
vt 0.096774 0.032258 
vt 0.096774 0.032258 
vt 0.096774 0.032258 
vt 0.096774 0.032258 
vt 0.096774 0.032258 
vt 0.096774 0.032258 
vt 0.096774 0.032258 
vt 0.096774 0.032258 
vt 0.096774 0.032258 
vt 0.096774 0.032258 
vt 0.096774 0.032258 
vt 0.096774 0.032258 
vt 0.161290 0.032258 
vt 0.161290 0.032258 
vt 0.096774 0.032258 
vt 0.096774 0.032258 
vt 0.096774 0.032258 
vt 0.096774 0.032258 
vt 0.096774 0.032258 
vt 0.096774 0.032258 
vt 0.096774 0.032258 
vt 0.096774 0.032258 
vt 0.096774 0.032258 
vt 0.161290 0.032258 
vt 0.096774 0.032258 
vt 0.096774 0.032258 
vt 0.161290 0.032258 
vt 0.161290 0.032258 
vt 0.161290 0.032258 
vt 0.096774 0.032258 
vt 0.096774 0.032258 
vt 0.096774 0.032258 
vt 0.096774 0.032258 
vt 0.161290 0.032258 
vt 0.161290 0.032258 
vt 0.096774 0.032258 
vt 0.096774 0.032258 
vt 0.096774 0.032258 
vt 0.096774 0.032258 
vt 0.096774 0.032258 
vt 0.096774 0.032258 
vt 0.096774 0.032258 
vt 0.096774 0.032258 
vt 0.096774 0.032258 
vt 0.161290 0.032258 
f 1/1/1 2/2/2 3/3/3
f 4/4/4 5/5/5 6/6/6
f 7/7/7 8/8/8 9/9/9
f 10/10/10 11/11/11 12/12/12
f 13/13/13 14/14/14 15/15/15
f 16/16/16 17/17/17 18/18/18
f 19/19/19 20/20/20 21/21/21
f 22/22/22 23/23/23 24/24/24
f 25/25/25 26/26/26 27/27/27
f 28/28/28 29/29/29 30/30/30
f 31/31/31 32/32/32 33/33/33
f 34/34/34 35/35/35 36/36/36
f 37/37/37 38/38/38 39/39/39
f 40/40/40 41/41/41 42/42/42
f 43/43/43 44/44/44 45/45/45
f 46/46/46 47/47/47 48/48/48
f 49/49/49 50/50/50 51/51/51
f 52/52/52 53/53/53 54/54/54
f 55/55/55 56/56/56 57/57/57
f 58/58/58 59/59/59 60/60/60
