v -86.000000 153.000000 -38.000000 
v -56.000000 144.000000 -74.000000 
v -161.000000 179.000000 -71.000000 
v -65.000000 200.000000 -29.000000 
v -3.000000 187.000000 -1.000000 
v -48.000000 183.000000 -71.000000 
v -48.000000 183.000000 -71.000000 
v -56.000000 144.000000 -74.000000 
v -86.000000 153.000000 -38.000000 
v -86.000000 153.000000 -38.000000 
v -65.000000 200.000000 -29.000000 
v -48.000000 183.000000 -71.000000 
v -241.000000 0.000000 81.000000 
v -235.000000 54.000000 67.000000 
v -279.000000 0.000000 -9.000000 
v -235.000000 54.000000 67.000000 
v -276.000000 39.000000 -14.000000 
v -279.000000 0.000000 -9.000000 
v -235.000000 54.000000 67.000000 
v -207.000000 106.000000 40.000000 
v -276.000000 39.000000 -14.000000 
v -207.000000 106.000000 40.000000 
v -252.000000 83.000000 -51.000000 
v -276.000000 39.000000 -14.000000 
v -207.000000 106.000000 40.000000 
v -178.000000 166.000000 -20.000000 
v -252.000000 83.000000 -51.000000 
v -178.000000 166.000000 -20.000000 
v -161.000000 179.000000 -71.000000 
v -252.000000 83.000000 -51.000000 
v -120.000000 0.000000 179.000000 
v -108.000000 59.000000 165.000000 
v -241.000000 0.000000 81.000000 
v -108.000000 59.000000 165.000000 
v -235.000000 54.000000 67.000000 
v -241.000000 0.000000 81.000000 
v -108.000000 59.000000 165.000000 
v -87.000000 133.000000 117.000000 
v -235.000000 54.000000 67.000000 
v -87.000000 133.000000 117.000000 
v -207.000000 106.000000 40.000000 
v -235.000000 54.000000 67.000000 
v -87.000000 133.000000 117.000000 
v -93.000000 144.000000 7.000000 
v -207.000000 106.000000 40.000000 
v -93.000000 144.000000 7.000000 
v -178.000000 166.000000 -20.000000 
v -207.000000 106.000000 40.000000 
v -93.000000 144.000000 7.000000 
v -86.000000 153.000000 -38.000000 
v -178.000000 166.000000 -20.000000 
v -86.000000 153.000000 -38.000000 
v -161.000000 179.000000 -71.000000 
v -178.000000 166.000000 -20.000000 
v 22.000000 154.000000 48.000000 
v -93.000000 144.000000 7.000000 
v -87.000000 133.000000 117.000000 
v -9.000000 172.000000 11.000000 
v -3.000000 187.000000 -1.000000 
v -85.000000 183.000000 11.000000 
v -3.000000 187.000000 -1.000000 
v -65.000000 200.000000 -29.000000 
v -85.000000 183.000000 11.000000 
v -93.000000 144.000000 7.000000 
v -85.000000 183.000000 11.000000 
v -86.000000 153.000000 -38.000000 
v -65.000000 200.000000 -29.000000 
v -86.000000 153.000000 -38.000000 
v -85.000000 183.000000 11.000000 
v 22.000000 154.000000 48.000000 
v -9.000000 172.000000 11.000000 
v -93.000000 144.000000 7.000000 
v -85.000000 183.000000 11.000000 
v -93.000000 144.000000 7.000000 
v -9.000000 172.000000 11.000000 
v -9.000000 172.000000 11.000000 
v 22.000000 154.000000 48.000000 
v -3.000000 187.000000 -1.000000 
v -56.000000 144.000000 -74.000000 
v -19.000000 -4.000000 -68.000000 
v -147.000000 -4.000000 -74.000000 
v -161.000000 179.000000 -71.000000 
v -56.000000 144.000000 -74.000000 
v -147.000000 -4.000000 -74.000000 
v -276.000000 39.000000 -14.000000 
v -147.000000 -4.000000 -74.000000 
v -279.000000 0.000000 -9.000000 
v -252.000000 83.000000 -51.000000 
v -147.000000 -4.000000 -74.000000 
v -276.000000 39.000000 -14.000000 
v -161.000000 179.000000 -71.000000 
v -147.000000 -4.000000 -74.000000 
v -252.000000 83.000000 -51.000000 
v -3.000000 187.000000 -1.000000 
v 22.000000 154.000000 48.000000 
v -56.000000 144.000000 -74.000000 
v -48.000000 183.000000 -71.000000 
v -3.000000 187.000000 -1.000000 
v -56.000000 144.000000 -74.000000 
v 22.000000 154.000000 48.000000 
v 12.000000 61.000000 28.000000 
v -56.000000 144.000000 -74.000000 
v -56.000000 144.000000 -74.000000 
v 12.000000 61.000000 28.000000 
v -19.000000 -4.000000 -68.000000 
v 12.000000 61.000000 28.000000 
v 26.000000 -2.000000 31.000000 
v -19.000000 -4.000000 -68.000000 
v -87.000000 133.000000 117.000000 
v -108.000000 59.000000 165.000000 
v 12.000000 61.000000 28.000000 
v 22.000000 154.000000 48.000000 
v -87.000000 133.000000 117.000000 
v 12.000000 61.000000 28.000000 
v -120.000000 0.000000 179.000000 
v 26.000000 -2.000000 31.000000 
v 12.000000 61.000000 28.000000 
v -108.000000 59.000000 165.000000 
v -120.000000 0.000000 179.000000 
v 12.000000 61.000000 28.000000 
vn -0.519287 0.834229 -0.184570 
vn -0.281006 0.830566 -0.480225 
vn -0.090576 0.991455 0.092041 
vn -0.416260 0.890137 -0.185303 
vn 0.003418 0.895264 0.445068 
vn -0.468262 0.656982 -0.590576 
vn -0.468262 0.656982 -0.590576 
vn -0.281006 0.830566 -0.480225 
vn -0.519287 0.834229 -0.184570 
vn -0.519287 0.834229 -0.184570 
vn -0.416260 0.890137 -0.185303 
vn -0.468262 0.656982 -0.590576 
vn -0.696533 0.257812 0.669189 
vn -0.714844 0.395264 0.576416 
vn -0.876709 0.160156 0.453125 
vn -0.714844 0.395264 0.576416 
vn -0.815674 0.445312 0.368896 
vn -0.876709 0.160156 0.453125 
vn -0.714844 0.395264 0.576416 
vn -0.556396 0.718994 0.416260 
vn -0.815674 0.445312 0.368896 
vn -0.556396 0.718994 0.416260 
vn -0.746582 0.645752 0.159180 
vn -0.815674 0.445312 0.368896 
vn -0.556396 0.718994 0.416260 
vn -0.275391 0.904053 0.326416 
vn -0.746582 0.645752 0.159180 
vn -0.275391 0.904053 0.326416 
vn -0.090576 0.991455 0.092041 
vn -0.746582 0.645752 0.159180 
vn -0.581543 0.296387 0.757324 
vn -0.560547 0.369629 0.740723 
vn -0.696533 0.257812 0.669189 
vn -0.560547 0.369629 0.740723 
vn -0.714844 0.395264 0.576416 
vn -0.696533 0.257812 0.669189 
vn -0.560547 0.369629 0.740723 
vn -0.383301 0.824463 0.416016 
vn -0.714844 0.395264 0.576416 
vn -0.383301 0.824463 0.416016 
vn -0.556396 0.718994 0.416260 
vn -0.714844 0.395264 0.576416 
vn -0.383301 0.824463 0.416016 
vn -0.296387 0.815186 0.497314 
vn -0.556396 0.718994 0.416260 
vn -0.296387 0.815186 0.497314 
vn -0.275391 0.904053 0.326416 
vn -0.556396 0.718994 0.416260 
vn -0.296387 0.815186 0.497314 
vn -0.519287 0.834229 -0.184570 
vn -0.275391 0.904053 0.326416 
vn -0.519287 0.834229 -0.184570 
vn -0.090576 0.991455 0.092041 
vn -0.275391 0.904053 0.326416 
vn -0.261719 0.832520 0.487793 
vn -0.296387 0.815186 0.497314 
vn -0.383301 0.824463 0.416016 
vn -0.170410 0.530518 0.830322 
vn 0.003418 0.895264 0.445068 
vn -0.539795 0.632568 0.555176 
vn 0.003418 0.895264 0.445068 
vn -0.416260 0.890137 -0.185303 
vn -0.539795 0.632568 0.555176 
vn -0.296387 0.815186 0.497314 
vn -0.539795 0.632568 0.555176 
vn -0.519287 0.834229 -0.184570 
vn -0.416260 0.890137 -0.185303 
vn -0.519287 0.834229 -0.184570 
vn -0.539795 0.632568 0.555176 
vn -0.261719 0.832520 0.487793 
vn -0.170410 0.530518 0.830322 
vn -0.296387 0.815186 0.497314 
vn -0.539795 0.632568 0.555176 
vn -0.296387 0.815186 0.497314 
vn -0.170410 0.530518 0.830322 
vn -0.170410 0.530518 0.830322 
vn -0.261719 0.832520 0.487793 
vn 0.003418 0.895264 0.445068 
vn 0.048096 -0.008057 -0.998779 
vn 0.076904 -0.026611 -0.996582 
vn -0.186035 -0.107178 -0.976562 
vn -0.069580 0.003662 -0.997559 
vn 0.048096 -0.008057 -0.998779 
vn -0.186035 -0.107178 -0.976562 
vn -0.422363 -0.251709 -0.870605 
vn -0.186035 -0.107178 -0.976562 
vn -0.391357 -0.103516 -0.914307 
vn -0.310791 -0.205078 -0.927979 
vn -0.186035 -0.107178 -0.976562 
vn -0.422363 -0.251709 -0.870605 
vn -0.069580 0.003662 -0.997559 
vn -0.186035 -0.107178 -0.976562 
vn -0.310791 -0.205078 -0.927979 
vn 0.808838 -0.119629 -0.575195 
vn 0.811523 -0.052734 -0.581543 
vn 0.830078 -0.003906 -0.557373 
vn 0.808350 -0.116455 -0.576660 
vn 0.808838 -0.119629 -0.575195 
vn 0.830078 -0.003906 -0.557373 
vn 0.811523 -0.052734 -0.581543 
vn 0.850586 0.135742 -0.507812 
vn 0.830078 -0.003906 -0.557373 
vn 0.830078 -0.003906 -0.557373 
vn 0.850586 0.135742 -0.507812 
vn 0.864014 0.193848 -0.464355 
vn 0.850586 0.135742 -0.507812 
vn 0.869629 0.181885 -0.458496 
vn 0.864014 0.193848 -0.464355 
vn 0.629883 -0.008789 0.776367 
vn 0.719971 0.114746 0.684082 
vn 0.667725 0.048828 0.742432 
vn 0.510254 -0.234863 0.827148 
vn 0.629883 -0.008789 0.776367 
vn 0.667725 0.048828 0.742432 
vn 0.700928 0.104736 0.705322 
vn 0.669434 0.197998 0.715820 
vn 0.667725 0.048828 0.742432 
vn 0.719971 0.114746 0.684082 
vn 0.700928 0.104736 0.705322 
vn 0.667725 0.048828 0.742432 
vt 0.000000 0.309804 
vt 0.196850 0.333333 
vt 0.000000 0.160784 
vt 0.000000 0.352941 
vt 0.000000 0.478431 
vt 0.196850 0.349020 
vt 0.196850 0.349020 
vt 0.196850 0.333333 
vt 0.000000 0.309804 
vt 0.000000 0.309804 
vt 0.000000 0.352941 
vt 0.196850 0.349020 
vt 0.874016 0.082353 
vt 0.677165 0.133333 
vt 0.606299 0.000000 
vt 0.677165 0.133333 
vt 0.480315 0.039216 
vt 0.606299 0.000000 
vt 0.677165 0.133333 
vt 0.488189 0.168627 
vt 0.480315 0.039216 
vt 0.488189 0.168627 
vt 0.244094 0.054902 
vt 0.480315 0.039216 
vt 0.488189 0.168627 
vt 0.236220 0.168627 
vt 0.244094 0.054902 
vt 0.236220 0.168627 
vt 0.000000 0.160784 
vt 0.244094 0.054902 
vt 0.984252 0.415686 
vt 0.850394 0.427451 
vt 0.874016 0.082353 
vt 0.850394 0.427451 
vt 0.677165 0.133333 
vt 0.874016 0.082353 
vt 0.850394 0.427451 
vt 0.645669 0.427451 
vt 0.677165 0.133333 
vt 0.645669 0.427451 
vt 0.488189 0.168627 
vt 0.677165 0.133333 
vt 0.645669 0.427451 
vt 0.196850 0.333333 
vt 0.488189 0.168627 
vt 0.196850 0.333333 
vt 0.236220 0.168627 
vt 0.488189 0.168627 
vt 0.196850 0.333333 
vt 0.000000 0.309804 
vt 0.236220 0.168627 
vt 0.000000 0.309804 
vt 0.000000 0.160784 
vt 0.236220 0.168627 
vt 0.149606 0.584314 
vt 0.196850 0.333333 
vt 0.645669 0.427451 
vt 0.055118 0.478431 
vt 0.000000 0.478431 
vt 0.196850 0.349020 
vt 0.000000 0.478431 
vt 0.000000 0.352941 
vt 0.196850 0.349020 
vt 0.196850 0.333333 
vt 0.196850 0.349020 
vt 0.000000 0.309804 
vt 0.000000 0.352941 
vt 0.000000 0.309804 
vt 0.196850 0.349020 
vt 0.149606 0.584314 
vt 0.055118 0.478431 
vt 0.196850 0.333333 
vt 0.196850 0.349020 
vt 0.196850 0.333333 
vt 0.055118 0.478431 
vt 0.055118 0.478431 
vt 0.149606 0.584314 
vt 0.000000 0.478431 
vt 0.574803 0.600000 
vt 0.204724 0.490196 
vt 0.448819 0.250980 
vt 0.811024 0.509804 
vt 0.574803 0.600000 
vt 0.448819 0.250980 
vt 0.724409 0.094118 
vt 0.448819 0.250980 
vt 0.543307 0.039216 
vt 0.826772 0.235294 
vt 0.448819 0.250980 
vt 0.724409 0.094118 
vt 0.811024 0.509804 
vt 0.448819 0.250980 
vt 0.826772 0.235294 
vt 0.590551 0.588235 
vt 0.795276 0.537255 
vt 0.220472 0.400000 
vt 0.291339 0.537255 
vt 0.590551 0.588235 
vt 0.220472 0.400000 
vt 0.795276 0.537255 
vt 0.858268 0.325490 
vt 0.220472 0.400000 
vt 0.220472 0.400000 
vt 0.858268 0.325490 
vt 0.527559 0.074510 
vt 0.858268 0.325490 
vt 0.889764 0.196078 
vt 0.527559 0.074510 
vt 0.850394 0.337255 
vt 0.700787 0.125490 
vt 0.456693 0.568627 
vt 0.740157 0.635294 
vt 0.850394 0.337255 
vt 0.456693 0.568627 
vt 0.503937 0.066667 
vt 0.228346 0.498039 
vt 0.456693 0.568627 
vt 0.700787 0.125490 
vt 0.503937 0.066667 
vt 0.456693 0.568627 
f 1/1/1 2/2/2 3/3/3
f 4/4/4 5/5/5 6/6/6
f 7/7/7 8/8/8 9/9/9
f 10/10/10 11/11/11 12/12/12
f 13/13/13 14/14/14 15/15/15
f 16/16/16 17/17/17 18/18/18
f 19/19/19 20/20/20 21/21/21
f 22/22/22 23/23/23 24/24/24
f 25/25/25 26/26/26 27/27/27
f 28/28/28 29/29/29 30/30/30
f 31/31/31 32/32/32 33/33/33
f 34/34/34 35/35/35 36/36/36
f 37/37/37 38/38/38 39/39/39
f 40/40/40 41/41/41 42/42/42
f 43/43/43 44/44/44 45/45/45
f 46/46/46 47/47/47 48/48/48
f 49/49/49 50/50/50 51/51/51
f 52/52/52 53/53/53 54/54/54
f 55/55/55 56/56/56 57/57/57
f 58/58/58 59/59/59 60/60/60
f 61/61/61 62/62/62 63/63/63
f 64/64/64 65/65/65 66/66/66
f 67/67/67 68/68/68 69/69/69
f 70/70/70 71/71/71 72/72/72
f 73/73/73 74/74/74 75/75/75
f 76/76/76 77/77/77 78/78/78
f 79/79/79 80/80/80 81/81/81
f 82/82/82 83/83/83 84/84/84
f 85/85/85 86/86/86 87/87/87
f 88/88/88 89/89/89 90/90/90
f 91/91/91 92/92/92 93/93/93
f 94/94/94 95/95/95 96/96/96
f 97/97/97 98/98/98 99/99/99
f 100/100/100 101/101/101 102/102/102
f 103/103/103 104/104/104 105/105/105
f 106/106/106 107/107/107 108/108/108
f 109/109/109 110/110/110 111/111/111
f 112/112/112 113/113/113 114/114/114
f 115/115/115 116/116/116 117/117/117
f 118/118/118 119/119/119 120/120/120
