v -448.000000 497.000000 -325.000000 
v -1.000000 497.000000 -387.000000 
v -495.000000 444.000000 -373.000000 
v -1.000000 497.000000 -387.000000 
v -1.000000 444.000000 -440.000000 
v -495.000000 444.000000 -373.000000 
v -1.000000 497.000000 -387.000000 
v 445.000000 497.000000 -325.000000 
v -1.000000 444.000000 -440.000000 
v 445.000000 497.000000 -325.000000 
v 492.000000 444.000000 -373.000000 
v -1.000000 444.000000 -440.000000 
v -336.000000 615.000000 -214.000000 
v -1.000000 615.000000 -260.000000 
v -448.000000 497.000000 -325.000000 
v -1.000000 615.000000 -260.000000 
v -1.000000 497.000000 -387.000000 
v -448.000000 497.000000 -325.000000 
v -1.000000 615.000000 -260.000000 
v 334.000000 615.000000 -214.000000 
v -1.000000 497.000000 -387.000000 
v 334.000000 615.000000 -214.000000 
v 445.000000 497.000000 -325.000000 
v -1.000000 497.000000 -387.000000 
v -221.000000 728.000000 -99.000000 
v -1.000000 728.000000 -99.000000 
v -336.000000 615.000000 -214.000000 
v -1.000000 728.000000 -99.000000 
v -1.000000 615.000000 -260.000000 
v -336.000000 615.000000 -214.000000 
v -1.000000 728.000000 -99.000000 
v 219.000000 728.000000 -99.000000 
v -1.000000 615.000000 -260.000000 
v 219.000000 728.000000 -99.000000 
v 334.000000 615.000000 -214.000000 
v -1.000000 615.000000 -260.000000 
v 219.000000 728.000000 341.000000 
v 219.000000 728.000000 121.000000 
v -1.000000 752.000000 121.000000 
v 0.000000 728.000000 341.000000 
v 219.000000 728.000000 341.000000 
v -1.000000 752.000000 121.000000 
v -221.000000 728.000000 341.000000 
v 0.000000 728.000000 341.000000 
v -1.000000 752.000000 121.000000 
v -221.000000 728.000000 121.000000 
v -221.000000 728.000000 341.000000 
v -1.000000 752.000000 121.000000 
v -221.000000 728.000000 -99.000000 
v -221.000000 728.000000 121.000000 
v -1.000000 752.000000 121.000000 
v -1.000000 728.000000 -99.000000 
v -221.000000 728.000000 -99.000000 
v -1.000000 752.000000 121.000000 
v 219.000000 728.000000 -99.000000 
v -1.000000 728.000000 -99.000000 
v -1.000000 752.000000 121.000000 
v 219.000000 728.000000 121.000000 
v 219.000000 728.000000 -99.000000 
v -1.000000 752.000000 121.000000 
v 262.000000 711.000000 346.000000 
v 262.000000 711.000000 -102.000000 
v 9.000000 957.000000 -76.000000 
v 9.000000 957.000000 -76.000000 
v 9.000000 957.000000 320.000000 
v 262.000000 711.000000 346.000000 
v 262.000000 711.000000 -102.000000 
v 255.000000 701.000000 -104.000000 
v 2.000000 949.000000 -77.000000 
v 2.000000 949.000000 -77.000000 
v 9.000000 957.000000 -76.000000 
v 262.000000 711.000000 -102.000000 
v 262.000000 711.000000 346.000000 
v 255.000000 701.000000 345.000000 
v 255.000000 701.000000 -104.000000 
v 255.000000 701.000000 -104.000000 
v 262.000000 711.000000 -102.000000 
v 262.000000 711.000000 346.000000 
v -249.000000 701.000000 346.000000 
v -249.000000 701.000000 -102.000000 
v 3.000000 949.000000 -76.000000 
v 3.000000 949.000000 -76.000000 
v 3.000000 949.000000 320.000000 
v -249.000000 701.000000 346.000000 
v -256.000000 711.000000 -102.000000 
v -256.000000 711.000000 346.000000 
v -3.000000 957.000000 -76.000000 
v -3.000000 957.000000 320.000000 
v -3.000000 957.000000 -76.000000 
v -256.000000 711.000000 346.000000 
v -256.000000 711.000000 -102.000000 
v -3.000000 957.000000 -76.000000 
v 3.000000 949.000000 -76.000000 
v -249.000000 701.000000 -102.000000 
v -256.000000 711.000000 -102.000000 
v 3.000000 949.000000 -76.000000 
v -3.000000 957.000000 320.000000 
v 3.000000 949.000000 320.000000 
v 3.000000 949.000000 -76.000000 
v -3.000000 957.000000 -76.000000 
v -3.000000 957.000000 320.000000 
v 3.000000 949.000000 -76.000000 
v 507.000000 497.000000 121.000000 
v 445.000000 497.000000 567.000000 
v 560.000000 444.000000 121.000000 
v 445.000000 497.000000 567.000000 
v 492.000000 444.000000 615.000000 
v 560.000000 444.000000 121.000000 
v 445.000000 497.000000 -325.000000 
v 507.000000 497.000000 121.000000 
v 492.000000 444.000000 -373.000000 
v 507.000000 497.000000 121.000000 
v 560.000000 444.000000 121.000000 
v 492.000000 444.000000 -373.000000 
v 380.000000 615.000000 121.000000 
v 334.000000 615.000000 456.000000 
v 507.000000 497.000000 121.000000 
v 334.000000 615.000000 456.000000 
v 445.000000 497.000000 567.000000 
v 507.000000 497.000000 121.000000 
v 334.000000 615.000000 -214.000000 
v 380.000000 615.000000 121.000000 
v 445.000000 497.000000 -325.000000 
v 380.000000 615.000000 121.000000 
v 507.000000 497.000000 121.000000 
v 445.000000 497.000000 -325.000000 
v 219.000000 728.000000 121.000000 
v 219.000000 728.000000 341.000000 
v 380.000000 615.000000 121.000000 
v 219.000000 728.000000 341.000000 
v 334.000000 615.000000 456.000000 
v 380.000000 615.000000 121.000000 
v 219.000000 728.000000 -99.000000 
v 219.000000 728.000000 121.000000 
v 334.000000 615.000000 -214.000000 
v 219.000000 728.000000 121.000000 
v 380.000000 615.000000 121.000000 
v 334.000000 615.000000 -214.000000 
v -445.000000 497.000000 567.000000 
v -507.000000 497.000000 121.000000 
v -560.000000 444.000000 121.000000 
v -492.000000 444.000000 615.000000 
v -445.000000 497.000000 567.000000 
v -560.000000 444.000000 121.000000 
v -507.000000 497.000000 121.000000 
v -445.000000 497.000000 -325.000000 
v -492.000000 444.000000 -373.000000 
v -560.000000 444.000000 121.000000 
v -507.000000 497.000000 121.000000 
v -492.000000 444.000000 -373.000000 
v -334.000000 615.000000 456.000000 
v -380.000000 615.000000 121.000000 
v -507.000000 497.000000 121.000000 
v -445.000000 497.000000 567.000000 
v -334.000000 615.000000 456.000000 
v -507.000000 497.000000 121.000000 
v -380.000000 615.000000 121.000000 
v -334.000000 615.000000 -214.000000 
v -445.000000 497.000000 -325.000000 
v -507.000000 497.000000 121.000000 
v -380.000000 615.000000 121.000000 
v -445.000000 497.000000 -325.000000 
v -219.000000 728.000000 341.000000 
v -219.000000 728.000000 121.000000 
v -380.000000 615.000000 121.000000 
v -334.000000 615.000000 456.000000 
v -219.000000 728.000000 341.000000 
v -380.000000 615.000000 121.000000 
v -219.000000 728.000000 121.000000 
v -219.000000 728.000000 -99.000000 
v -334.000000 615.000000 -214.000000 
v -380.000000 615.000000 121.000000 
v -219.000000 728.000000 121.000000 
v -334.000000 615.000000 -214.000000 
v 0.000000 728.000000 341.000000 
v 0.000000 728.000000 341.000000 
v 0.000000 728.000000 341.000000 
v 0.000000 728.000000 341.000000 
v -219.000000 728.000000 341.000000 
v 0.000000 728.000000 341.000000 
v 219.000000 728.000000 341.000000 
v 0.000000 728.000000 341.000000 
v 0.000000 728.000000 341.000000 
v -445.000000 497.000000 567.000000 
v -492.000000 444.000000 615.000000 
v 0.000000 444.000000 688.000000 
v 0.000000 497.000000 647.000000 
v -445.000000 497.000000 567.000000 
v 0.000000 444.000000 688.000000 
v 445.000000 497.000000 567.000000 
v 0.000000 497.000000 647.000000 
v 0.000000 444.000000 688.000000 
v 492.000000 444.000000 615.000000 
v 445.000000 497.000000 567.000000 
v 0.000000 444.000000 688.000000 
v -334.000000 615.000000 456.000000 
v -445.000000 497.000000 567.000000 
v 0.000000 497.000000 647.000000 
v 0.000000 615.000000 505.000000 
v -334.000000 615.000000 456.000000 
v 0.000000 497.000000 647.000000 
v 334.000000 615.000000 456.000000 
v 0.000000 615.000000 505.000000 
v 0.000000 497.000000 647.000000 
v 445.000000 497.000000 567.000000 
v 334.000000 615.000000 456.000000 
v 0.000000 497.000000 647.000000 
v 219.000000 728.000000 341.000000 
v 0.000000 728.000000 341.000000 
v 0.000000 615.000000 505.000000 
v 334.000000 615.000000 456.000000 
v 219.000000 728.000000 341.000000 
v 0.000000 615.000000 505.000000 
v 0.000000 728.000000 341.000000 
v -219.000000 728.000000 341.000000 
v -334.000000 615.000000 456.000000 
v 0.000000 615.000000 505.000000 
v 0.000000 728.000000 341.000000 
v -334.000000 615.000000 456.000000 
vn -0.177734 0.854736 -0.487061 
vn -0.007812 0.866455 -0.498779 
vn -0.183594 0.843994 -0.503418 
vn -0.007812 0.866455 -0.498779 
vn 0.052979 0.857910 -0.510498 
vn -0.183594 0.843994 -0.503418 
vn -0.007812 0.866455 -0.498779 
vn 0.167725 0.852295 -0.495117 
vn 0.052979 0.857910 -0.510498 
vn 0.167725 0.852295 -0.495117 
vn 0.170410 0.846924 -0.503418 
vn 0.052979 0.857910 -0.510498 
vn -0.107910 0.881348 -0.459473 
vn -0.030029 0.892578 -0.449463 
vn -0.177734 0.854736 -0.487061 
vn -0.030029 0.892578 -0.449463 
vn -0.007812 0.866455 -0.498779 
vn -0.177734 0.854736 -0.487061 
vn -0.030029 0.892578 -0.449463 
vn 0.159424 0.867676 -0.470703 
vn -0.007812 0.866455 -0.498779 
vn 0.159424 0.867676 -0.470703 
vn 0.167725 0.852295 -0.495117 
vn -0.007812 0.866455 -0.498779 
vn -0.060547 0.978271 -0.197998 
vn -0.031494 0.956787 -0.288574 
vn -0.107910 0.881348 -0.459473 
vn -0.031494 0.956787 -0.288574 
vn -0.030029 0.892578 -0.449463 
vn -0.107910 0.881348 -0.459473 
vn -0.031494 0.956787 -0.288574 
vn 0.080811 0.968994 -0.232666 
vn -0.030029 0.892578 -0.449463 
vn 0.080811 0.968994 -0.232666 
vn 0.159424 0.867676 -0.470703 
vn -0.030029 0.892578 -0.449463 
vn 0.084717 0.995605 0.033691 
vn 0.167969 0.985596 0.000732 
vn 0.000000 1.000000 0.000000 
vn 0.003906 0.955078 0.295410 
vn 0.084717 0.995605 0.033691 
vn 0.000000 1.000000 0.000000 
vn -0.083984 0.995850 0.032715 
vn 0.003906 0.955078 0.295410 
vn 0.000000 1.000000 0.000000 
vn -0.167969 0.985596 -0.000732 
vn -0.083984 0.995850 0.032715 
vn 0.000000 1.000000 0.000000 
vn -0.060547 0.978271 -0.197998 
vn -0.167969 0.985596 -0.000732 
vn 0.000000 1.000000 0.000000 
vn -0.031494 0.956787 -0.288574 
vn -0.060547 0.978271 -0.197998 
vn 0.000000 1.000000 0.000000 
vn 0.080811 0.968994 -0.232666 
vn -0.031494 0.956787 -0.288574 
vn 0.000000 1.000000 0.000000 
vn 0.167969 0.985596 0.000732 
vn 0.080811 0.968994 -0.232666 
vn 0.000000 1.000000 0.000000 
vn 0.830078 0.557129 0.004395 
vn 0.830078 0.557129 0.004395 
vn 0.830078 0.557129 0.004395 
vn 0.830078 0.557129 0.004395 
vn 0.830078 0.557129 0.004395 
vn 0.830078 0.557129 0.004395 
vn 0.005615 0.188965 -0.981934 
vn -0.011963 0.176758 -0.984131 
vn 0.005615 0.188965 -0.981934 
vn 0.005615 0.188965 -0.981934 
vn 0.023438 0.201172 -0.979004 
vn 0.005615 0.188965 -0.981934 
vn 0.903564 -0.427734 0.004639 
vn 0.904053 -0.427002 0.004639 
vn 0.903564 -0.427734 0.004639 
vn 0.903564 -0.427734 0.004639 
vn 0.903320 -0.428467 0.004639 
vn 0.903564 -0.427734 0.004639 
vn 0.832275 -0.554199 0.004395 
vn 0.832275 -0.554199 0.004395 
vn 0.832275 -0.554199 0.004395 
vn 0.832275 -0.554199 0.004395 
vn 0.832275 -0.554199 0.004395 
vn 0.832275 -0.554199 0.004395 
vn -0.830078 0.557373 -0.004395 
vn -0.830078 0.557373 -0.004395 
vn -0.830078 0.557373 -0.004395 
vn -0.830078 0.557373 -0.004395 
vn -0.830078 0.557373 -0.004395 
vn -0.830078 0.557373 -0.004395 
vn 0.127930 0.083008 -0.988037 
vn 0.127930 0.083008 -0.988037 
vn 0.127930 0.083008 -0.988037 
vn 0.141602 0.073242 -0.987061 
vn 0.141602 0.073242 -0.987061 
vn 0.141602 0.073242 -0.987061 
vn 0.861816 0.506592 0.004395 
vn 0.861816 0.506592 0.004395 
vn 0.861816 0.506592 0.004395 
vn 0.861816 0.506592 0.004395 
vn 0.861816 0.506592 0.004395 
vn 0.861816 0.506592 0.004395 
vn 0.826904 0.562012 0.004150 
vn 0.579346 0.753662 0.309814 
vn 0.835693 0.548340 0.019287 
vn 0.579346 0.753662 0.309814 
vn 0.567383 0.765869 0.301514 
vn 0.835693 0.548340 0.019287 
vn 0.822998 0.566162 -0.039795 
vn 0.826904 0.562012 0.004150 
vn 0.834961 0.548584 -0.040283 
vn 0.826904 0.562012 0.004150 
vn 0.835693 0.548340 0.019287 
vn 0.834961 0.548584 -0.040283 
vn 0.787842 0.615479 -0.002441 
vn 0.543945 0.793457 0.271973 
vn 0.826904 0.562012 0.004150 
vn 0.543945 0.793457 0.271973 
vn 0.579346 0.753662 0.309814 
vn 0.826904 0.562012 0.004150 
vn 0.796631 0.603760 -0.023438 
vn 0.787842 0.615479 -0.002441 
vn 0.822998 0.566162 -0.039795 
vn 0.787842 0.615479 -0.002441 
vn 0.826904 0.562012 0.004150 
vn 0.822998 0.566162 -0.039795 
vn 0.768799 0.639160 -0.009033 
vn 0.380127 0.871826 0.308594 
vn 0.787842 0.615479 -0.002441 
vn 0.380127 0.871826 0.308594 
vn 0.543945 0.793457 0.271973 
vn 0.787842 0.615479 -0.002441 
vn 0.833740 0.551758 0.004395 
vn 0.768799 0.639160 -0.009033 
vn 0.796631 0.603760 -0.023438 
vn 0.768799 0.639160 -0.009033 
vn 0.787842 0.615479 -0.002441 
vn 0.796631 0.603760 -0.023438 
vn -0.574219 0.759033 0.306152 
vn -0.826904 0.562012 -0.004395 
vn -0.835693 0.548828 0.010498 
vn -0.562500 0.770996 0.297852 
vn -0.574219 0.759033 0.306152 
vn -0.835693 0.548828 0.010498 
vn -0.826904 0.562012 -0.004395 
vn -0.823242 0.565430 -0.048584 
vn -0.834961 0.547852 -0.049072 
vn -0.835693 0.548828 0.010498 
vn -0.826904 0.562012 -0.004395 
vn -0.834961 0.547852 -0.049072 
vn -0.462402 0.833740 0.301270 
vn -0.787842 0.615479 -0.010742 
vn -0.826904 0.562012 -0.004395 
vn -0.574219 0.759033 0.306152 
vn -0.462402 0.833740 0.301270 
vn -0.826904 0.562012 -0.004395 
vn -0.787842 0.615479 -0.010742 
vn -0.796631 0.603271 -0.031982 
vn -0.823242 0.565430 -0.048584 
vn -0.826904 0.562012 -0.004395 
vn -0.787842 0.615479 -0.010742 
vn -0.823242 0.565430 -0.048584 
vn -0.430420 0.851807 0.298340 
vn -0.769043 0.638916 -0.017090 
vn -0.787842 0.615479 -0.010742 
vn -0.462402 0.833740 0.301270 
vn -0.430420 0.851807 0.298340 
vn -0.787842 0.615479 -0.010742 
vn -0.769043 0.638916 -0.017090 
vn -0.833740 0.551758 -0.004395 
vn -0.796631 0.603271 -0.031982 
vn -0.787842 0.615479 -0.010742 
vn -0.769043 0.638916 -0.017090 
vn -0.796631 0.603271 -0.031982 
vn 0.003906 0.955078 0.295410 
vn 0.006104 0.883789 0.467773 
vn -0.021729 0.874512 0.484131 
vn 0.006104 0.883789 0.467773 
vn -0.430420 0.851807 0.298340 
vn -0.021729 0.874512 0.484131 
vn 0.380127 0.871826 0.308594 
vn 0.003906 0.955078 0.295410 
vn -0.021729 0.874512 0.484131 
vn -0.574219 0.759033 0.306152 
vn -0.562500 0.770996 0.297852 
vn 0.006836 0.827393 0.561279 
vn 0.006348 0.859131 0.511475 
vn -0.574219 0.759033 0.306152 
vn 0.006836 0.827393 0.561279 
vn 0.579346 0.753662 0.309814 
vn 0.006348 0.859131 0.511475 
vn 0.006836 0.827393 0.561279 
vn 0.567383 0.765869 0.301514 
vn 0.579346 0.753662 0.309814 
vn 0.006836 0.827393 0.561279 
vn -0.462402 0.833740 0.301270 
vn -0.574219 0.759033 0.306152 
vn 0.006348 0.859131 0.511475 
vn 0.010986 0.906006 0.422852 
vn -0.462402 0.833740 0.301270 
vn 0.006348 0.859131 0.511475 
vn 0.543945 0.793457 0.271973 
vn 0.010986 0.906006 0.422852 
vn 0.006348 0.859131 0.511475 
vn 0.579346 0.753662 0.309814 
vn 0.543945 0.793457 0.271973 
vn 0.006348 0.859131 0.511475 
vn 0.380127 0.871826 0.308594 
vn 0.006104 0.883789 0.467773 
vn 0.010986 0.906006 0.422852 
vn 0.543945 0.793457 0.271973 
vn 0.380127 0.871826 0.308594 
vn 0.010986 0.906006 0.422852 
vn -0.021729 0.874512 0.484131 
vn -0.430420 0.851807 0.298340 
vn -0.462402 0.833740 0.301270 
vn 0.010986 0.906006 0.422852 
vn -0.021729 0.874512 0.484131 
vn -0.462402 0.833740 0.301270 
vt 0.000000 0.244094 
vt 1.000000 0.244094 
vt 0.000000 -0.007874 
vt 1.000000 0.244094 
vt 1.000000 -0.007874 
vt 0.000000 -0.007874 
vt 0.000000 0.244094 
vt 1.000000 0.244094 
vt 0.000000 -0.007874 
vt 1.000000 0.244094 
vt 1.000000 -0.007874 
vt 0.000000 -0.007874 
vt 0.000000 1.000000 
vt 1.000000 1.000000 
vt 0.000000 0.244094 
vt 1.000000 1.000000 
vt 1.000000 0.244094 
vt 0.000000 0.244094 
vt 0.000000 1.000000 
vt 1.000000 1.000000 
vt 0.000000 0.244094 
vt 1.000000 1.000000 
vt 1.000000 0.244094 
vt 0.000000 0.244094 
vt 0.000000 1.000000 
vt 1.000000 1.000000 
vt 0.000000 0.244094 
vt 1.000000 1.000000 
vt 1.000000 0.244094 
vt 0.000000 0.244094 
vt 0.000000 1.000000 
vt 1.000000 1.000000 
vt 0.000000 0.244094 
vt 1.000000 1.000000 
vt 1.000000 0.244094 
vt 0.000000 0.244094 
vt 0.881890 0.110236 
vt 0.496063 0.110236 
vt 0.496063 0.496063 
vt 0.881890 0.496063 
vt 0.881890 0.110236 
vt 0.496063 0.496063 
vt 0.881890 0.881890 
vt 0.881890 0.496063 
vt 0.496063 0.496063 
vt 0.496063 0.881890 
vt 0.881890 0.881890 
vt 0.496063 0.496063 
vt 0.110236 0.881890 
vt 0.496063 0.881890 
vt 0.496063 0.496063 
vt 0.110236 0.496063 
vt 0.110236 0.881890 
vt 0.496063 0.496063 
vt 0.110236 0.110236 
vt 0.110236 0.496063 
vt 0.496063 0.496063 
vt 0.496063 0.110236 
vt 0.110236 0.110236 
vt 0.496063 0.496063 
vt 0.992126 0.000000 
vt 0.000000 0.000000 
vt 0.000000 0.992126 
vt 0.000000 0.992126 
vt 0.992126 0.992126 
vt 0.992126 0.000000 
vt 0.984252 0.118110 
vt 0.984252 0.078740 
vt 0.000000 0.078740 
vt 0.000000 0.078740 
vt 0.000000 0.118110 
vt 0.984252 0.118110 
vt 0.000000 0.267717 
vt 0.000000 0.716535 
vt 0.976378 0.724409 
vt 0.976378 0.724409 
vt 0.976378 0.267717 
vt 0.000000 0.267717 
vt 0.992126 0.000000 
vt 0.000000 0.000000 
vt 0.000000 0.992126 
vt 0.000000 0.992126 
vt 0.992126 0.992126 
vt 0.992126 0.000000 
vt 0.000000 0.000000 
vt 0.992126 0.000000 
vt 0.000000 0.992126 
vt 0.992126 0.992126 
vt 0.000000 0.992126 
vt 0.992126 0.000000 
vt 0.283465 0.960630 
vt 0.283465 0.015748 
vt 0.244094 0.015748 
vt 0.244094 0.960630 
vt 0.283465 0.960630 
vt 0.244094 0.015748 
vt 0.055118 0.015748 
vt 0.055118 0.055118 
vt 0.937008 0.055118 
vt 0.937008 0.023622 
vt 0.055118 0.015748 
vt 0.937008 0.055118 
vt 1.000000 0.244094 
vt 0.000000 0.244094 
vt 1.000000 -0.007874 
vt 0.000000 0.244094 
vt 0.000000 -0.007874 
vt 1.000000 -0.007874 
vt 1.000000 0.244094 
vt 0.000000 0.244094 
vt 1.000000 -0.007874 
vt 0.000000 0.244094 
vt 0.000000 -0.007874 
vt 1.000000 -0.007874 
vt 0.000000 1.000000 
vt 1.000000 1.000000 
vt 0.000000 0.244094 
vt 1.000000 1.000000 
vt 1.000000 0.244094 
vt 0.000000 0.244094 
vt 0.000000 1.000000 
vt 1.000000 1.000000 
vt 0.000000 0.244094 
vt 1.000000 1.000000 
vt 1.000000 0.244094 
vt 0.000000 0.244094 
vt 1.000000 1.000000 
vt 0.000000 1.000000 
vt 1.000000 0.244094 
vt 0.000000 1.000000 
vt 0.000000 0.244094 
vt 1.000000 0.244094 
vt 1.000000 1.000000 
vt 0.000000 1.000000 
vt 1.000000 0.244094 
vt 0.000000 1.000000 
vt 0.000000 0.244094 
vt 1.000000 0.244094 
vt 0.000000 0.244094 
vt 1.000000 0.244094 
vt 1.000000 -0.007874 
vt 0.000000 -0.007874 
vt 0.000000 0.244094 
vt 1.000000 -0.007874 
vt 0.000000 0.244094 
vt 1.000000 0.244094 
vt 1.000000 -0.007874 
vt 0.000000 -0.007874 
vt 0.000000 0.244094 
vt 1.000000 -0.007874 
vt 0.000000 1.000000 
vt 1.000000 1.000000 
vt 1.000000 0.244094 
vt 0.000000 0.244094 
vt 0.000000 1.000000 
vt 1.000000 0.244094 
vt 0.000000 1.000000 
vt 1.000000 1.000000 
vt 1.000000 0.244094 
vt 0.000000 0.244094 
vt 0.000000 1.000000 
vt 1.000000 0.244094 
vt 0.748031 0.188976 
vt 0.228346 0.125984 
vt 0.125984 0.921260 
vt 0.937008 0.921260 
vt 0.748031 0.188976 
vt 0.125984 0.921260 
vt 0.000000 0.708661 
vt 0.614173 0.708661 
vt 0.787402 0.259843 
vt 0.000000 0.204724 
vt 0.000000 0.708661 
vt 0.787402 0.259843 
vt 0.496063 0.952756 
vt 0.496063 0.952756 
vt 0.496063 0.952756 
vt 0.496063 0.952756 
vt 0.803150 0.937008 
vt 0.496063 0.952756 
vt 0.188976 0.968504 
vt 0.496063 0.952756 
vt 0.496063 0.952756 
vt 1.000000 0.244094 
vt 1.000000 -0.007874 
vt 0.000000 -0.007874 
vt 0.000000 0.244094 
vt 1.000000 0.244094 
vt 0.000000 -0.007874 
vt 0.000000 0.244094 
vt 1.000000 0.244094 
vt 1.000000 -0.007874 
vt 0.000000 -0.007874 
vt 0.000000 0.244094 
vt 1.000000 -0.007874 
vt 0.992126 0.244094 
vt 0.992126 0.992126 
vt 0.000000 0.992126 
vt 0.000000 0.244094 
vt 0.992126 0.244094 
vt 0.000000 0.992126 
vt 1.000000 1.000000 
vt 0.000000 1.000000 
vt 0.000000 0.244094 
vt 1.000000 0.244094 
vt 1.000000 1.000000 
vt 0.000000 0.244094 
vt 1.000000 0.244094 
vt 0.000000 0.244094 
vt 0.000000 1.000000 
vt 1.000000 1.000000 
vt 1.000000 0.244094 
vt 0.000000 1.000000 
vt 0.000000 0.992126 
vt 0.992126 0.984252 
vt 0.992126 0.244094 
vt 0.000000 0.244094 
vt 0.000000 0.992126 
vt 0.992126 0.244094 
f 1/1/1 2/2/2 3/3/3
f 4/4/4 5/5/5 6/6/6
f 7/7/7 8/8/8 9/9/9
f 10/10/10 11/11/11 12/12/12
f 13/13/13 14/14/14 15/15/15
f 16/16/16 17/17/17 18/18/18
f 19/19/19 20/20/20 21/21/21
f 22/22/22 23/23/23 24/24/24
f 25/25/25 26/26/26 27/27/27
f 28/28/28 29/29/29 30/30/30
f 31/31/31 32/32/32 33/33/33
f 34/34/34 35/35/35 36/36/36
f 37/37/37 38/38/38 39/39/39
f 40/40/40 41/41/41 42/42/42
f 43/43/43 44/44/44 45/45/45
f 46/46/46 47/47/47 48/48/48
f 49/49/49 50/50/50 51/51/51
f 52/52/52 53/53/53 54/54/54
f 55/55/55 56/56/56 57/57/57
f 58/58/58 59/59/59 60/60/60
f 61/61/61 62/62/62 63/63/63
f 64/64/64 65/65/65 66/66/66
f 67/67/67 68/68/68 69/69/69
f 70/70/70 71/71/71 72/72/72
f 73/73/73 74/74/74 75/75/75
f 76/76/76 77/77/77 78/78/78
f 79/79/79 80/80/80 81/81/81
f 82/82/82 83/83/83 84/84/84
f 85/85/85 86/86/86 87/87/87
f 88/88/88 89/89/89 90/90/90
f 91/91/91 92/92/92 93/93/93
f 94/94/94 95/95/95 96/96/96
f 97/97/97 98/98/98 99/99/99
f 100/100/100 101/101/101 102/102/102
f 103/103/103 104/104/104 105/105/105
f 106/106/106 107/107/107 108/108/108
f 109/109/109 110/110/110 111/111/111
f 112/112/112 113/113/113 114/114/114
f 115/115/115 116/116/116 117/117/117
f 118/118/118 119/119/119 120/120/120
f 121/121/121 122/122/122 123/123/123
f 124/124/124 125/125/125 126/126/126
f 127/127/127 128/128/128 129/129/129
f 130/130/130 131/131/131 132/132/132
f 133/133/133 134/134/134 135/135/135
f 136/136/136 137/137/137 138/138/138
f 139/139/139 140/140/140 141/141/141
f 142/142/142 143/143/143 144/144/144
f 145/145/145 146/146/146 147/147/147
f 148/148/148 149/149/149 150/150/150
f 151/151/151 152/152/152 153/153/153
f 154/154/154 155/155/155 156/156/156
f 157/157/157 158/158/158 159/159/159
f 160/160/160 161/161/161 162/162/162
f 163/163/163 164/164/164 165/165/165
f 166/166/166 167/167/167 168/168/168
f 169/169/169 170/170/170 171/171/171
f 172/172/172 173/173/173 174/174/174
f 175/175/175 176/176/176 177/177/177
f 178/178/178 179/179/179 180/180/180
f 181/181/181 182/182/182 183/183/183
f 184/184/184 185/185/185 186/186/186
f 187/187/187 188/188/188 189/189/189
f 190/190/190 191/191/191 192/192/192
f 193/193/193 194/194/194 195/195/195
f 196/196/196 197/197/197 198/198/198
f 199/199/199 200/200/200 201/201/201
f 202/202/202 203/203/203 204/204/204
f 205/205/205 206/206/206 207/207/207
f 208/208/208 209/209/209 210/210/210
f 211/211/211 212/212/212 213/213/213
f 214/214/214 215/215/215 216/216/216
f 217/217/217 218/218/218 219/219/219
