v 398.000000 1245.000000 4.000000 
v 735.000000 1567.000000 232.000000 
v 744.000000 866.000000 140.000000 
v 396.000000 544.000000 -103.000000 
v 398.000000 1245.000000 4.000000 
v 744.000000 866.000000 140.000000 
v 398.000000 1245.000000 4.000000 
v 396.000000 544.000000 -103.000000 
v -321.000000 32.000000 -232.000000 
v -268.000000 732.000000 -77.000000 
v 398.000000 1245.000000 4.000000 
v -321.000000 32.000000 -232.000000 
v -645.000000 718.000000 -105.000000 
v -268.000000 732.000000 -77.000000 
v -321.000000 32.000000 -232.000000 
v -703.000000 18.000000 -208.000000 
v -645.000000 718.000000 -105.000000 
v -321.000000 32.000000 -232.000000 
vn 0.251465 0.161865 -0.954102 
vn 0.473389 0.121338 -0.872314 
vn 0.478516 0.127197 -0.868652 
vn 0.282715 0.145996 -0.947754 
vn 0.251465 0.161865 -0.954102 
vn 0.478516 0.127197 -0.868652 
vn 0.251465 0.161865 -0.954102 
vn 0.282715 0.145996 -0.947754 
vn 0.003906 0.184082 -0.982666 
vn 0.007812 0.216553 -0.976074 
vn 0.251465 0.161865 -0.954102 
vn 0.003906 0.184082 -0.982666 
vn -0.001221 0.181641 -0.983154 
vn 0.007812 0.216553 -0.976074 
vn 0.003906 0.184082 -0.982666 
vn -0.068848 0.150146 -0.986084 
vn -0.001221 0.181641 -0.983154 
vn 0.003906 0.184082 -0.982666 
vt 0.000000 0.755906 
vt 0.968504 0.755906 
vt 0.968504 0.007874 
vt 0.023622 0.000000 
vt 0.000000 0.755906 
vt 0.968504 0.007874 
vt 0.992126 0.755906 
vt 0.984252 0.007874 
vt 0.007874 0.015748 
vt 0.094488 0.755906 
vt 0.992126 0.755906 
vt 0.007874 0.015748 
vt 0.015748 0.755906 
vt 0.976378 0.755906 
vt 0.960630 0.007874 
vt 0.000000 0.007874 
vt 0.015748 0.755906 
vt 0.960630 0.007874 
f 1/1/1 2/2/2 3/3/3
f 4/4/4 5/5/5 6/6/6
f 7/7/7 8/8/8 9/9/9
f 10/10/10 11/11/11 12/12/12
f 13/13/13 14/14/14 15/15/15
f 16/16/16 17/17/17 18/18/18
