v 7.000000 -9.000000 -9.000000 
v 3.000000 -9.000000 -9.000000 
v 5.000000 -9.000000 -16.000000 
v 5.000000 -9.000000 -16.000000 
v 9.000000 -9.000000 -18.000000 
v 7.000000 -9.000000 -9.000000 
v 17.000000 -9.000000 -8.000000 
v 7.000000 -9.000000 -9.000000 
v 9.000000 -9.000000 -18.000000 
v 9.000000 -9.000000 -18.000000 
v 17.000000 -9.000000 -18.000000 
v 17.000000 -9.000000 -8.000000 
v 21.000000 -9.000000 -8.000000 
v 17.000000 -9.000000 -8.000000 
v 17.000000 -9.000000 -18.000000 
v 17.000000 -9.000000 -18.000000 
v 20.000000 -9.000000 -14.000000 
v 21.000000 -9.000000 -8.000000 
v 6.000000 -9.000000 1.000000 
v 3.000000 -9.000000 1.000000 
v 3.000000 -9.000000 -9.000000 
v 3.000000 -9.000000 -9.000000 
v 7.000000 -9.000000 -9.000000 
v 6.000000 -9.000000 1.000000 
v 16.000000 -9.000000 2.000000 
v 6.000000 -9.000000 1.000000 
v 7.000000 -9.000000 -9.000000 
v 7.000000 -9.000000 -9.000000 
v 17.000000 -9.000000 -8.000000 
v 16.000000 -9.000000 2.000000 
v 20.000000 -9.000000 2.000000 
v 16.000000 -9.000000 2.000000 
v 17.000000 -9.000000 -8.000000 
v 17.000000 -9.000000 -8.000000 
v 21.000000 -9.000000 -8.000000 
v 20.000000 -9.000000 2.000000 
v 5.000000 -9.000000 19.000000 
v 3.000000 -9.000000 16.000000 
v 3.000000 -9.000000 1.000000 
v 3.000000 -9.000000 1.000000 
v 6.000000 -9.000000 1.000000 
v 5.000000 -9.000000 19.000000 
v 15.000000 -9.000000 20.000000 
v 5.000000 -9.000000 19.000000 
v 6.000000 -9.000000 1.000000 
v 6.000000 -9.000000 1.000000 
v 16.000000 -9.000000 2.000000 
v 15.000000 -9.000000 20.000000 
v 17.000000 -9.000000 17.000000 
v 15.000000 -9.000000 20.000000 
v 16.000000 -9.000000 2.000000 
v 16.000000 -9.000000 2.000000 
v 20.000000 -9.000000 2.000000 
v 17.000000 -9.000000 17.000000 
v 7.000000 3.000000 -9.000000 
v 8.000000 3.000000 -18.000000 
v 4.000000 3.000000 -16.000000 
v 4.000000 3.000000 -16.000000 
v 2.000000 3.000000 -10.000000 
v 7.000000 3.000000 -9.000000 
v 17.000000 3.000000 -8.000000 
v 18.000000 3.000000 -17.000000 
v 8.000000 3.000000 -18.000000 
v 8.000000 3.000000 -18.000000 
v 7.000000 3.000000 -9.000000 
v 17.000000 3.000000 -8.000000 
v 22.000000 3.000000 -8.000000 
v 21.000000 3.000000 -14.000000 
v 18.000000 3.000000 -17.000000 
v 18.000000 3.000000 -17.000000 
v 17.000000 3.000000 -8.000000 
v 22.000000 3.000000 -8.000000 
v 6.000000 9.000000 1.000000 
v 7.000000 3.000000 -9.000000 
v 2.000000 3.000000 -10.000000 
v 2.000000 3.000000 -10.000000 
v 3.000000 4.000000 1.000000 
v 6.000000 9.000000 1.000000 
v 16.000000 9.000000 2.000000 
v 17.000000 3.000000 -8.000000 
v 7.000000 3.000000 -9.000000 
v 7.000000 3.000000 -9.000000 
v 6.000000 9.000000 1.000000 
v 16.000000 9.000000 2.000000 
v 19.000000 4.000000 2.000000 
v 22.000000 3.000000 -8.000000 
v 17.000000 3.000000 -8.000000 
v 17.000000 3.000000 -8.000000 
v 16.000000 9.000000 2.000000 
v 19.000000 4.000000 2.000000 
v 6.000000 7.000000 18.000000 
v 6.000000 9.000000 1.000000 
v 3.000000 4.000000 1.000000 
v 3.000000 4.000000 1.000000 
v 3.000000 4.000000 14.000000 
v 6.000000 7.000000 18.000000 
v 14.000000 7.000000 18.000000 
v 16.000000 9.000000 2.000000 
v 6.000000 9.000000 1.000000 
v 6.000000 9.000000 1.000000 
v 6.000000 7.000000 18.000000 
v 14.000000 7.000000 18.000000 
v 17.000000 4.000000 16.000000 
v 19.000000 4.000000 2.000000 
v 16.000000 9.000000 2.000000 
v 16.000000 9.000000 2.000000 
v 14.000000 7.000000 18.000000 
v 17.000000 4.000000 16.000000 
v 8.000000 -2.000000 -20.000000 
v 9.000000 -9.000000 -18.000000 
v 5.000000 -9.000000 -16.000000 
v 5.000000 -9.000000 -16.000000 
v 4.000000 -2.000000 -16.000000 
v 8.000000 -2.000000 -20.000000 
v 18.000000 -2.000000 -19.000000 
v 17.000000 -9.000000 -18.000000 
v 9.000000 -9.000000 -18.000000 
v 9.000000 -9.000000 -18.000000 
v 8.000000 -2.000000 -20.000000 
v 18.000000 -2.000000 -19.000000 
v 21.000000 -2.000000 -14.000000 
v 20.000000 -9.000000 -14.000000 
v 17.000000 -9.000000 -18.000000 
v 17.000000 -9.000000 -18.000000 
v 18.000000 -2.000000 -19.000000 
v 21.000000 -2.000000 -14.000000 
v 8.000000 3.000000 -18.000000 
v 8.000000 -2.000000 -20.000000 
v 4.000000 -2.000000 -16.000000 
v 4.000000 -2.000000 -16.000000 
v 4.000000 3.000000 -16.000000 
v 8.000000 3.000000 -18.000000 
v 18.000000 3.000000 -17.000000 
v 18.000000 -2.000000 -19.000000 
v 8.000000 -2.000000 -20.000000 
v 8.000000 -2.000000 -20.000000 
v 8.000000 3.000000 -18.000000 
v 18.000000 3.000000 -17.000000 
v 21.000000 3.000000 -14.000000 
v 21.000000 -2.000000 -14.000000 
v 18.000000 -2.000000 -19.000000 
v 18.000000 -2.000000 -19.000000 
v 18.000000 3.000000 -17.000000 
v 21.000000 3.000000 -14.000000 
v 22.000000 -2.000000 -8.000000 
v 21.000000 -9.000000 -8.000000 
v 20.000000 -9.000000 -14.000000 
v 20.000000 -9.000000 -14.000000 
v 21.000000 -2.000000 -14.000000 
v 22.000000 -2.000000 -8.000000 
v 20.000000 -2.000000 2.000000 
v 20.000000 -9.000000 2.000000 
v 21.000000 -9.000000 -8.000000 
v 21.000000 -9.000000 -8.000000 
v 22.000000 -2.000000 -8.000000 
v 20.000000 -2.000000 2.000000 
v 18.000000 -2.000000 17.000000 
v 17.000000 -9.000000 17.000000 
v 20.000000 -9.000000 2.000000 
v 20.000000 -9.000000 2.000000 
v 20.000000 -2.000000 2.000000 
v 18.000000 -2.000000 17.000000 
v 22.000000 3.000000 -8.000000 
v 22.000000 -2.000000 -8.000000 
v 21.000000 -2.000000 -14.000000 
v 21.000000 -2.000000 -14.000000 
v 21.000000 3.000000 -14.000000 
v 22.000000 3.000000 -8.000000 
v 19.000000 4.000000 2.000000 
v 20.000000 -2.000000 2.000000 
v 22.000000 -2.000000 -8.000000 
v 22.000000 -2.000000 -8.000000 
v 22.000000 3.000000 -8.000000 
v 19.000000 4.000000 2.000000 
v 17.000000 4.000000 16.000000 
v 18.000000 -2.000000 17.000000 
v 20.000000 -2.000000 2.000000 
v 20.000000 -2.000000 2.000000 
v 19.000000 4.000000 2.000000 
v 17.000000 4.000000 16.000000 
v 15.000000 -2.000000 20.000000 
v 15.000000 -9.000000 20.000000 
v 17.000000 -9.000000 17.000000 
v 17.000000 -9.000000 17.000000 
v 18.000000 -2.000000 17.000000 
v 15.000000 -2.000000 20.000000 
v 5.000000 -2.000000 19.000000 
v 5.000000 -9.000000 19.000000 
v 15.000000 -9.000000 20.000000 
v 15.000000 -9.000000 20.000000 
v 15.000000 -2.000000 20.000000 
v 5.000000 -2.000000 19.000000 
v 2.000000 -2.000000 16.000000 
v 3.000000 -9.000000 16.000000 
v 5.000000 -9.000000 19.000000 
v 5.000000 -9.000000 19.000000 
v 5.000000 -2.000000 19.000000 
v 2.000000 -2.000000 16.000000 
v 14.000000 7.000000 18.000000 
v 15.000000 -2.000000 20.000000 
v 18.000000 -2.000000 17.000000 
v 18.000000 -2.000000 17.000000 
v 17.000000 4.000000 16.000000 
v 14.000000 7.000000 18.000000 
v 6.000000 7.000000 18.000000 
v 5.000000 -2.000000 19.000000 
v 15.000000 -2.000000 20.000000 
v 15.000000 -2.000000 20.000000 
v 14.000000 7.000000 18.000000 
v 6.000000 7.000000 18.000000 
v 3.000000 4.000000 14.000000 
v 2.000000 -2.000000 16.000000 
v 5.000000 -2.000000 19.000000 
v 5.000000 -2.000000 19.000000 
v 6.000000 7.000000 18.000000 
v 3.000000 4.000000 14.000000 
v 2.000000 -2.000000 1.000000 
v 3.000000 -9.000000 1.000000 
v 3.000000 -9.000000 16.000000 
v 3.000000 -9.000000 16.000000 
v 2.000000 -2.000000 16.000000 
v 2.000000 -2.000000 1.000000 
v 2.000000 -2.000000 -10.000000 
v 3.000000 -9.000000 -9.000000 
v 3.000000 -9.000000 1.000000 
v 3.000000 -9.000000 1.000000 
v 2.000000 -2.000000 1.000000 
v 2.000000 -2.000000 -10.000000 
v 4.000000 -2.000000 -16.000000 
v 5.000000 -9.000000 -16.000000 
v 3.000000 -9.000000 -9.000000 
v 3.000000 -9.000000 -9.000000 
v 2.000000 -2.000000 -10.000000 
v 4.000000 -2.000000 -16.000000 
v 3.000000 4.000000 1.000000 
v 2.000000 -2.000000 1.000000 
v 2.000000 -2.000000 16.000000 
v 2.000000 -2.000000 16.000000 
v 3.000000 4.000000 14.000000 
v 3.000000 4.000000 1.000000 
v 2.000000 3.000000 -10.000000 
v 2.000000 -2.000000 -10.000000 
v 2.000000 -2.000000 1.000000 
v 2.000000 -2.000000 1.000000 
v 3.000000 4.000000 1.000000 
v 2.000000 3.000000 -10.000000 
v 4.000000 3.000000 -16.000000 
v 4.000000 -2.000000 -16.000000 
v 2.000000 -2.000000 -10.000000 
v 2.000000 -2.000000 -10.000000 
v 2.000000 3.000000 -10.000000 
v 4.000000 3.000000 -16.000000 
vn 0.000000 -1.000000 0.000000 
vn 0.000000 -1.000000 0.000000 
vn 0.000000 -1.000000 0.000000 
vn 0.000000 -1.000000 0.000000 
vn 0.000000 -1.000000 0.000000 
vn 0.000000 -1.000000 0.000000 
vn 0.000000 -1.000000 0.000000 
vn 0.000000 -1.000000 0.000000 
vn 0.000000 -1.000000 0.000000 
vn 0.000000 -1.000000 0.000000 
vn 0.000000 -1.000000 0.000000 
vn 0.000000 -1.000000 0.000000 
vn 0.000000 -1.000000 0.000000 
vn 0.000000 -1.000000 0.000000 
vn 0.000000 -1.000000 0.000000 
vn 0.000000 -1.000000 0.000000 
vn 0.000000 -1.000000 0.000000 
vn 0.000000 -1.000000 0.000000 
vn 0.000000 -1.000000 0.000000 
vn 0.000000 -1.000000 0.000000 
vn 0.000000 -1.000000 0.000000 
vn 0.000000 -1.000000 0.000000 
vn 0.000000 -1.000000 0.000000 
vn 0.000000 -1.000000 0.000000 
vn 0.000000 -1.000000 0.000000 
vn 0.000000 -1.000000 0.000000 
vn 0.000000 -1.000000 0.000000 
vn 0.000000 -1.000000 0.000000 
vn 0.000000 -1.000000 0.000000 
vn 0.000000 -1.000000 0.000000 
vn 0.000000 -1.000000 0.000000 
vn 0.000000 -1.000000 0.000000 
vn 0.000000 -1.000000 0.000000 
vn 0.000000 -1.000000 0.000000 
vn 0.000000 -1.000000 0.000000 
vn 0.000000 -1.000000 0.000000 
vn 0.000000 -1.000000 0.000000 
vn 0.000000 -1.000000 0.000000 
vn 0.000000 -1.000000 0.000000 
vn 0.000000 -1.000000 0.000000 
vn 0.000000 -1.000000 0.000000 
vn 0.000000 -1.000000 0.000000 
vn 0.000000 -1.000000 0.000000 
vn 0.000000 -1.000000 0.000000 
vn 0.000000 -1.000000 0.000000 
vn 0.000000 -1.000000 0.000000 
vn 0.000000 -1.000000 0.000000 
vn 0.000000 -1.000000 0.000000 
vn 0.000000 -1.000000 0.000000 
vn 0.000000 -1.000000 0.000000 
vn 0.000000 -1.000000 0.000000 
vn 0.000000 -1.000000 0.000000 
vn 0.000000 -1.000000 0.000000 
vn 0.000000 -1.000000 0.000000 
vn 0.018066 0.967041 -0.253662 
vn -0.230957 0.795898 -0.559082 
vn -0.674561 0.573486 -0.464600 
vn -0.674561 0.573486 -0.464600 
vn -0.806396 0.568115 -0.163330 
vn 0.018066 0.967041 -0.253662 
vn 0.152344 0.976807 -0.149170 
vn 0.148682 0.830566 -0.536377 
vn -0.230957 0.795898 -0.559082 
vn -0.230957 0.795898 -0.559082 
vn 0.018066 0.967041 -0.253662 
vn 0.152344 0.976807 -0.149170 
vn 0.706543 0.705566 -0.049316 
vn 0.764893 0.431885 -0.477295 
vn 0.148682 0.830566 -0.536377 
vn 0.148682 0.830566 -0.536377 
vn 0.152344 0.976807 -0.149170 
vn 0.706543 0.705566 -0.049316 
vn -0.310059 0.942871 -0.120117 
vn 0.018066 0.967041 -0.253662 
vn -0.806396 0.568115 -0.163330 
vn -0.806396 0.568115 -0.163330 
vn -0.925537 0.376709 0.033691 
vn -0.310059 0.942871 -0.120117 
vn 0.475586 0.870850 -0.122559 
vn 0.152344 0.976807 -0.149170 
vn 0.018066 0.967041 -0.253662 
vn 0.018066 0.967041 -0.253662 
vn -0.310059 0.942871 -0.120117 
vn 0.475586 0.870850 -0.122559 
vn 0.867920 0.486328 0.099365 
vn 0.706543 0.705566 -0.049316 
vn 0.152344 0.976807 -0.149170 
vn 0.152344 0.976807 -0.149170 
vn 0.475586 0.870850 -0.122559 
vn 0.867920 0.486328 0.099365 
vn -0.606934 0.553467 0.570068 
vn -0.310059 0.942871 -0.120117 
vn -0.925537 0.376709 0.033691 
vn -0.925537 0.376709 0.033691 
vn -0.899658 0.324951 0.290527 
vn -0.606934 0.553467 0.570068 
vn 0.465088 0.680908 0.565186 
vn 0.475586 0.870850 -0.122559 
vn -0.310059 0.942871 -0.120117 
vn -0.310059 0.942871 -0.120117 
vn -0.606934 0.553467 0.570068 
vn 0.465088 0.680908 0.565186 
vn 0.890869 0.379395 0.249268 
vn 0.867920 0.486328 0.099365 
vn 0.475586 0.870850 -0.122559 
vn 0.475586 0.870850 -0.122559 
vn 0.465088 0.680908 0.565186 
vn 0.890869 0.379395 0.249268 
vn -0.332031 0.113525 -0.936279 
vn -0.139404 -0.206787 -0.968262 
vn -0.776855 -0.149414 -0.611328 
vn -0.776855 -0.149414 -0.611328 
vn -0.830078 -0.013184 -0.557129 
vn -0.332031 0.113525 -0.936279 
vn 0.460938 0.036865 -0.886475 
vn 0.580566 -0.170654 -0.795898 
vn -0.139404 -0.206787 -0.968262 
vn -0.139404 -0.206787 -0.968262 
vn -0.332031 0.113525 -0.936279 
vn 0.460938 0.036865 -0.886475 
vn 0.921143 -0.070312 -0.382324 
vn 0.935059 -0.115479 -0.334717 
vn 0.580566 -0.170654 -0.795898 
vn 0.580566 -0.170654 -0.795898 
vn 0.460938 0.036865 -0.886475 
vn 0.921143 -0.070312 -0.382324 
vn -0.230957 0.795898 -0.559082 
vn -0.332031 0.113525 -0.936279 
vn -0.830078 -0.013184 -0.557129 
vn -0.830078 -0.013184 -0.557129 
vn -0.674561 0.573486 -0.464600 
vn -0.230957 0.795898 -0.559082 
vn 0.148682 0.830566 -0.536377 
vn 0.460938 0.036865 -0.886475 
vn -0.332031 0.113525 -0.936279 
vn -0.332031 0.113525 -0.936279 
vn -0.230957 0.795898 -0.559082 
vn 0.148682 0.830566 -0.536377 
vn 0.764893 0.431885 -0.477295 
vn 0.921143 -0.070312 -0.382324 
vn 0.460938 0.036865 -0.886475 
vn 0.460938 0.036865 -0.886475 
vn 0.148682 0.830566 -0.536377 
vn 0.764893 0.431885 -0.477295 
vn 0.999023 -0.036621 0.024414 
vn 0.988770 -0.136475 0.058838 
vn 0.935059 -0.115479 -0.334717 
vn 0.935059 -0.115479 -0.334717 
vn 0.921143 -0.070312 -0.382324 
vn 0.999023 -0.036621 0.024414 
vn 0.984619 0.030273 0.170898 
vn 0.978027 -0.122314 0.167236 
vn 0.988770 -0.136475 0.058838 
vn 0.988770 -0.136475 0.058838 
vn 0.999023 -0.036621 0.024414 
vn 0.984619 0.030273 0.170898 
vn 0.889404 0.068115 0.451660 
vn 0.830322 -0.064697 0.553223 
vn 0.978027 -0.122314 0.167236 
vn 0.978027 -0.122314 0.167236 
vn 0.984619 0.030273 0.170898 
vn 0.889404 0.068115 0.451660 
vn 0.706543 0.705566 -0.049316 
vn 0.999023 -0.036621 0.024414 
vn 0.921143 -0.070312 -0.382324 
vn 0.921143 -0.070312 -0.382324 
vn 0.764893 0.431885 -0.477295 
vn 0.706543 0.705566 -0.049316 
vn 0.867920 0.486328 0.099365 
vn 0.984619 0.030273 0.170898 
vn 0.999023 -0.036621 0.024414 
vn 0.999023 -0.036621 0.024414 
vn 0.706543 0.705566 -0.049316 
vn 0.867920 0.486328 0.099365 
vn 0.890869 0.379395 0.249268 
vn 0.889404 0.068115 0.451660 
vn 0.984619 0.030273 0.170898 
vn 0.984619 0.030273 0.170898 
vn 0.867920 0.486328 0.099365 
vn 0.890869 0.379395 0.249268 
vn 0.325928 0.069824 0.942627 
vn 0.216797 0.000000 0.976074 
vn 0.830322 -0.064697 0.553223 
vn 0.830322 -0.064697 0.553223 
vn 0.889404 0.068115 0.451660 
vn 0.325928 0.069824 0.942627 
vn -0.489746 0.115234 0.864014 
vn -0.623779 -0.032227 0.780762 
vn 0.216797 0.000000 0.976074 
vn 0.216797 0.000000 0.976074 
vn 0.325928 0.069824 0.942627 
vn -0.489746 0.115234 0.864014 
vn -0.941895 0.094971 0.322021 
vn -0.977539 -0.112305 0.177734 
vn -0.623779 -0.032227 0.780762 
vn -0.623779 -0.032227 0.780762 
vn -0.489746 0.115234 0.864014 
vn -0.941895 0.094971 0.322021 
vn 0.465088 0.680908 0.565186 
vn 0.325928 0.069824 0.942627 
vn 0.889404 0.068115 0.451660 
vn 0.889404 0.068115 0.451660 
vn 0.890869 0.379395 0.249268 
vn 0.465088 0.680908 0.565186 
vn -0.606934 0.553467 0.570068 
vn -0.489746 0.115234 0.864014 
vn 0.325928 0.069824 0.942627 
vn 0.325928 0.069824 0.942627 
vn 0.465088 0.680908 0.565186 
vn -0.606934 0.553467 0.570068 
vn -0.899658 0.324951 0.290527 
vn -0.941895 0.094971 0.322021 
vn -0.489746 0.115234 0.864014 
vn -0.489746 0.115234 0.864014 
vn -0.606934 0.553467 0.570068 
vn -0.899658 0.324951 0.290527 
vn -0.999756 -0.002441 0.007324 
vn -0.990967 -0.132812 -0.015869 
vn -0.977539 -0.112305 0.177734 
vn -0.977539 -0.112305 0.177734 
vn -0.941895 0.094971 0.322021 
vn -0.999756 -0.002441 0.007324 
vn -0.982910 -0.068359 -0.169922 
vn -0.968506 -0.131836 -0.210693 
vn -0.990967 -0.132812 -0.015869 
vn -0.990967 -0.132812 -0.015869 
vn -0.999756 -0.002441 0.007324 
vn -0.982910 -0.068359 -0.169922 
vn -0.830078 -0.013184 -0.557129 
vn -0.776855 -0.149414 -0.611328 
vn -0.968506 -0.131836 -0.210693 
vn -0.968506 -0.131836 -0.210693 
vn -0.982910 -0.068359 -0.169922 
vn -0.830078 -0.013184 -0.557129 
vn -0.925537 0.376709 0.033691 
vn -0.999756 -0.002441 0.007324 
vn -0.941895 0.094971 0.322021 
vn -0.941895 0.094971 0.322021 
vn -0.899658 0.324951 0.290527 
vn -0.925537 0.376709 0.033691 
vn -0.806396 0.568115 -0.163330 
vn -0.982910 -0.068359 -0.169922 
vn -0.999756 -0.002441 0.007324 
vn -0.999756 -0.002441 0.007324 
vn -0.925537 0.376709 0.033691 
vn -0.806396 0.568115 -0.163330 
vn -0.674561 0.573486 -0.464600 
vn -0.830078 -0.013184 -0.557129 
vn -0.982910 -0.068359 -0.169922 
vn -0.982910 -0.068359 -0.169922 
vn -0.806396 0.568115 -0.163330 
vn -0.674561 0.573486 -0.464600 
vt 0.603175 0.206349 
vt 0.539683 0.095238 
vt 0.603175 0.095238 
vt 0.603175 0.095238 
vt 0.460317 -0.015873 
vt 0.603175 0.206349 
vt 0.666667 0.142857 
vt 0.603175 0.206349 
vt 0.460317 -0.015873 
vt 0.460317 -0.015873 
vt 0.523810 -0.015873 
vt 0.666667 0.142857 
vt 0.619048 -0.015873 
vt 0.666667 0.142857 
vt 0.523810 -0.015873 
vt 0.523810 -0.015873 
vt 0.571429 -0.015873 
vt 0.619048 -0.015873 
vt 0.666667 0.253968 
vt 0.603175 0.047619 
vt 0.539683 0.095238 
vt 0.539683 0.095238 
vt 0.603175 0.206349 
vt 0.666667 0.253968 
vt 0.666667 0.206349 
vt 0.666667 0.253968 
vt 0.603175 0.206349 
vt 0.603175 0.206349 
vt 0.666667 0.142857 
vt 0.666667 0.206349 
vt 0.793651 -0.015873 
vt 0.666667 0.206349 
vt 0.666667 0.142857 
vt 0.666667 0.142857 
vt 0.619048 -0.015873 
vt 0.793651 -0.015873 
vt 0.555556 0.126984 
vt 0.634921 0.174603 
vt 0.603175 0.047619 
vt 0.603175 0.047619 
vt 0.666667 0.253968 
vt 0.555556 0.126984 
vt 0.746032 0.158730 
vt 0.555556 0.126984 
vt 0.666667 0.253968 
vt 0.666667 0.253968 
vt 0.666667 0.206349 
vt 0.746032 0.158730 
vt 0.714286 0.158730 
vt 0.746032 0.158730 
vt 0.666667 0.206349 
vt 0.666667 0.206349 
vt 0.793651 -0.015873 
vt 0.714286 0.158730 
vt 0.158730 0.412698 
vt 0.174603 0.142857 
vt 0.095238 0.253968 
vt 0.095238 0.253968 
vt 0.841270 0.428571 
vt 0.158730 0.412698 
vt 0.349206 0.412698 
vt 0.333333 0.142857 
vt 0.174603 0.142857 
vt 0.174603 0.142857 
vt 0.158730 0.412698 
vt 0.349206 0.412698 
vt 0.428571 0.412698 
vt 0.412698 0.238095 
vt 0.333333 0.142857 
vt 0.333333 0.142857 
vt 0.349206 0.412698 
vt 0.428571 0.412698 
vt 0.619048 0.746032 
vt 0.746032 0.460317 
vt 0.841270 0.428571 
vt 0.841270 0.428571 
vt 0.793651 0.746032 
vt 0.619048 0.746032 
vt 0.333333 0.746032 
vt 0.349206 0.412698 
vt 0.158730 0.412698 
vt 0.158730 0.412698 
vt 0.158730 0.746032 
vt 0.333333 0.746032 
vt 0.793651 0.746032 
vt 0.841270 0.428571 
vt 0.746032 0.460317 
vt 0.746032 0.460317 
vt 0.619048 0.746032 
vt 0.793651 0.746032 
vt 0.682540 1.000000 
vt 0.619048 0.746032 
vt 0.793651 0.746032 
vt 0.793651 0.746032 
vt 0.730159 0.952381 
vt 0.682540 1.000000 
vt 0.301587 0.984127 
vt 0.333333 0.746032 
vt 0.158730 0.746032 
vt 0.158730 0.746032 
vt 0.174603 0.984127 
vt 0.301587 0.984127 
vt 0.730159 0.952381 
vt 0.793651 0.746032 
vt 0.619048 0.746032 
vt 0.619048 0.746032 
vt 0.682540 1.000000 
vt 0.730159 0.952381 
vt 0.857143 0.111111 
vt 0.920635 0.063492 
vt 0.968254 0.222222 
vt 0.968254 0.222222 
vt 0.904762 0.222222 
vt 0.857143 0.111111 
vt 0.333333 0.063492 
vt 0.333333 0.000000 
vt 0.174603 0.000000 
vt 0.174603 0.000000 
vt 0.174603 0.047619 
vt 0.333333 0.063492 
vt 0.904762 0.222222 
vt 0.968254 0.222222 
vt 0.920635 0.063492 
vt 0.920635 0.063492 
vt 0.857143 0.111111 
vt 0.904762 0.222222 
vt 0.174603 0.142857 
vt 0.174603 0.047619 
vt 0.095238 0.174603 
vt 0.095238 0.174603 
vt 0.095238 0.253968 
vt 0.174603 0.142857 
vt 0.333333 0.142857 
vt 0.333333 0.047619 
vt 0.174603 0.047619 
vt 0.174603 0.047619 
vt 0.174603 0.142857 
vt 0.333333 0.142857 
vt 0.412698 0.238095 
vt 0.412698 0.158730 
vt 0.333333 0.079365 
vt 0.333333 0.079365 
vt 0.333333 0.142857 
vt 0.412698 0.238095 
vt 0.952381 0.396825 
vt 1.000000 0.396825 
vt 0.968254 0.222222 
vt 0.968254 0.222222 
vt 0.904762 0.222222 
vt 0.952381 0.396825 
vt 0.920635 0.730159 
vt 1.000000 0.730159 
vt 1.000000 0.396825 
vt 1.000000 0.396825 
vt 0.952381 0.396825 
vt 0.920635 0.730159 
vt 0.936508 0.952381 
vt 1.000000 0.968254 
vt 1.000000 0.730159 
vt 1.000000 0.730159 
vt 0.920635 0.730159 
vt 0.936508 0.952381 
vt 0.841270 0.428571 
vt 0.952381 0.396825 
vt 0.904762 0.222222 
vt 0.904762 0.222222 
vt 0.841270 0.253968 
vt 0.841270 0.428571 
vt 0.793651 0.746032 
vt 0.920635 0.730159 
vt 0.952381 0.396825 
vt 0.952381 0.396825 
vt 0.841270 0.428571 
vt 0.793651 0.746032 
vt 0.730159 0.952381 
vt 0.936508 0.952381 
vt 0.920635 0.730159 
vt 0.920635 0.730159 
vt 0.793651 0.746032 
vt 0.730159 0.952381 
vt 1.000000 0.142857 
vt 1.000000 -0.015873 
vt 0.984127 -0.015873 
vt 0.984127 -0.015873 
vt 0.968254 0.142857 
vt 1.000000 0.142857 
vt 0.920635 0.904762 
vt 1.000000 0.904762 
vt 1.000000 1.000000 
vt 1.000000 1.000000 
vt 0.904762 1.000000 
vt 0.920635 0.904762 
vt 0.936508 0.952381 
vt 1.000000 0.968254 
vt 1.000000 1.000000 
vt 1.000000 1.000000 
vt 0.920635 1.000000 
vt 0.936508 0.952381 
vt 0.682540 1.000000 
vt 0.936508 1.000000 
vt 0.936508 0.952381 
vt 0.936508 0.952381 
vt 0.730159 0.952381 
vt 0.682540 1.000000 
vt 0.746032 0.936508 
vt 0.920635 0.904762 
vt 0.904762 1.000000 
vt 0.904762 1.000000 
vt 0.746032 1.000000 
vt 0.746032 0.936508 
vt 0.730159 0.952381 
vt 0.936508 0.952381 
vt 0.920635 1.000000 
vt 0.920635 1.000000 
vt 0.682540 1.000000 
vt 0.730159 0.952381 
vt 0.920635 0.730159 
vt 1.000000 0.730159 
vt 1.000000 0.968254 
vt 1.000000 0.968254 
vt 0.936508 0.952381 
vt 0.920635 0.730159 
vt 0.952381 0.396825 
vt 1.000000 0.396825 
vt 1.000000 0.730159 
vt 1.000000 0.730159 
vt 0.920635 0.730159 
vt 0.952381 0.396825 
vt 0.904762 0.222222 
vt 0.968254 0.222222 
vt 1.000000 0.396825 
vt 1.000000 0.396825 
vt 0.952381 0.396825 
vt 0.904762 0.222222 
vt 0.793651 0.746032 
vt 0.920635 0.730159 
vt 0.936508 0.952381 
vt 0.936508 0.952381 
vt 0.730159 0.952381 
vt 0.793651 0.746032 
vt 0.841270 0.428571 
vt 0.952381 0.396825 
vt 0.920635 0.730159 
vt 0.920635 0.730159 
vt 0.793651 0.746032 
vt 0.841270 0.428571 
vt 0.841270 0.253968 
vt 0.904762 0.222222 
vt 0.952381 0.396825 
vt 0.952381 0.396825 
vt 0.841270 0.428571 
vt 0.841270 0.253968 
f 1/1/1 2/2/2 3/3/3
f 4/4/4 5/5/5 6/6/6
f 7/7/7 8/8/8 9/9/9
f 10/10/10 11/11/11 12/12/12
f 13/13/13 14/14/14 15/15/15
f 16/16/16 17/17/17 18/18/18
f 19/19/19 20/20/20 21/21/21
f 22/22/22 23/23/23 24/24/24
f 25/25/25 26/26/26 27/27/27
f 28/28/28 29/29/29 30/30/30
f 31/31/31 32/32/32 33/33/33
f 34/34/34 35/35/35 36/36/36
f 37/37/37 38/38/38 39/39/39
f 40/40/40 41/41/41 42/42/42
f 43/43/43 44/44/44 45/45/45
f 46/46/46 47/47/47 48/48/48
f 49/49/49 50/50/50 51/51/51
f 52/52/52 53/53/53 54/54/54
f 55/55/55 56/56/56 57/57/57
f 58/58/58 59/59/59 60/60/60
f 61/61/61 62/62/62 63/63/63
f 64/64/64 65/65/65 66/66/66
f 67/67/67 68/68/68 69/69/69
f 70/70/70 71/71/71 72/72/72
f 73/73/73 74/74/74 75/75/75
f 76/76/76 77/77/77 78/78/78
f 79/79/79 80/80/80 81/81/81
f 82/82/82 83/83/83 84/84/84
f 85/85/85 86/86/86 87/87/87
f 88/88/88 89/89/89 90/90/90
f 91/91/91 92/92/92 93/93/93
f 94/94/94 95/95/95 96/96/96
f 97/97/97 98/98/98 99/99/99
f 100/100/100 101/101/101 102/102/102
f 103/103/103 104/104/104 105/105/105
f 106/106/106 107/107/107 108/108/108
f 109/109/109 110/110/110 111/111/111
f 112/112/112 113/113/113 114/114/114
f 115/115/115 116/116/116 117/117/117
f 118/118/118 119/119/119 120/120/120
f 121/121/121 122/122/122 123/123/123
f 124/124/124 125/125/125 126/126/126
f 127/127/127 128/128/128 129/129/129
f 130/130/130 131/131/131 132/132/132
f 133/133/133 134/134/134 135/135/135
f 136/136/136 137/137/137 138/138/138
f 139/139/139 140/140/140 141/141/141
f 142/142/142 143/143/143 144/144/144
f 145/145/145 146/146/146 147/147/147
f 148/148/148 149/149/149 150/150/150
f 151/151/151 152/152/152 153/153/153
f 154/154/154 155/155/155 156/156/156
f 157/157/157 158/158/158 159/159/159
f 160/160/160 161/161/161 162/162/162
f 163/163/163 164/164/164 165/165/165
f 166/166/166 167/167/167 168/168/168
f 169/169/169 170/170/170 171/171/171
f 172/172/172 173/173/173 174/174/174
f 175/175/175 176/176/176 177/177/177
f 178/178/178 179/179/179 180/180/180
f 181/181/181 182/182/182 183/183/183
f 184/184/184 185/185/185 186/186/186
f 187/187/187 188/188/188 189/189/189
f 190/190/190 191/191/191 192/192/192
f 193/193/193 194/194/194 195/195/195
f 196/196/196 197/197/197 198/198/198
f 199/199/199 200/200/200 201/201/201
f 202/202/202 203/203/203 204/204/204
f 205/205/205 206/206/206 207/207/207
f 208/208/208 209/209/209 210/210/210
f 211/211/211 212/212/212 213/213/213
f 214/214/214 215/215/215 216/216/216
f 217/217/217 218/218/218 219/219/219
f 220/220/220 221/221/221 222/222/222
f 223/223/223 224/224/224 225/225/225
f 226/226/226 227/227/227 228/228/228
f 229/229/229 230/230/230 231/231/231
f 232/232/232 233/233/233 234/234/234
f 235/235/235 236/236/236 237/237/237
f 238/238/238 239/239/239 240/240/240
f 241/241/241 242/242/242 243/243/243
f 244/244/244 245/245/245 246/246/246
f 247/247/247 248/248/248 249/249/249
f 250/250/250 251/251/251 252/252/252
