v 48.000000 60.000000 -15.000000 
v 48.000000 60.000000 15.000000 
v 33.000000 30.000000 -13.000000 
v 48.000000 60.000000 15.000000 
v 30.000000 30.000000 13.000000 
v 33.000000 30.000000 -13.000000 
v 48.000000 60.000000 15.000000 
v 30.000000 60.000000 41.000000 
v 30.000000 30.000000 13.000000 
v 30.000000 60.000000 41.000000 
v 19.000000 30.000000 22.000000 
v 30.000000 30.000000 13.000000 
v 30.000000 60.000000 41.000000 
v 0.000000 60.000000 51.000000 
v 19.000000 30.000000 22.000000 
v 0.000000 60.000000 51.000000 
v 0.000000 30.000000 28.000000 
v 19.000000 30.000000 22.000000 
v 0.000000 60.000000 51.000000 
v -30.000000 60.000000 41.000000 
v 0.000000 30.000000 28.000000 
v -30.000000 60.000000 41.000000 
v -19.000000 30.000000 22.000000 
v 0.000000 30.000000 28.000000 
v -30.000000 60.000000 41.000000 
v -48.000000 60.000000 15.000000 
v -19.000000 30.000000 22.000000 
v -48.000000 60.000000 15.000000 
v -30.000000 30.000000 13.000000 
v -19.000000 30.000000 22.000000 
v -48.000000 60.000000 15.000000 
v -48.000000 60.000000 -15.000000 
v -30.000000 30.000000 13.000000 
v -48.000000 60.000000 -15.000000 
v -33.000000 30.000000 -13.000000 
v -30.000000 30.000000 13.000000 
v -48.000000 60.000000 -15.000000 
v -30.000000 60.000000 -41.000000 
v -33.000000 30.000000 -13.000000 
v -30.000000 60.000000 -41.000000 
v -23.000000 25.000000 -22.000000 
v -33.000000 30.000000 -13.000000 
v -30.000000 60.000000 -41.000000 
v 0.000000 60.000000 -51.000000 
v -23.000000 25.000000 -22.000000 
v 0.000000 60.000000 -51.000000 
v 0.000000 25.000000 -30.000000 
v -23.000000 25.000000 -22.000000 
v 0.000000 60.000000 -51.000000 
v 30.000000 60.000000 -41.000000 
v 0.000000 25.000000 -30.000000 
v 30.000000 60.000000 -41.000000 
v 23.000000 25.000000 -22.000000 
v 0.000000 25.000000 -30.000000 
v 30.000000 60.000000 -41.000000 
v 48.000000 60.000000 -15.000000 
v 23.000000 25.000000 -22.000000 
v 48.000000 60.000000 -15.000000 
v 33.000000 30.000000 -13.000000 
v 23.000000 25.000000 -22.000000 
vn 0.897461 -0.334961 -0.286133 
vn 0.871826 -0.369873 0.320801 
vn 0.640625 -0.755371 -0.136719 
vn 0.871826 -0.369873 0.320801 
vn 0.504883 -0.808594 0.301025 
vn 0.640625 -0.755371 -0.136719 
vn 0.871826 -0.369873 0.320801 
vn 0.496338 -0.409180 0.765381 
vn 0.504883 -0.808594 0.301025 
vn 0.496338 -0.409180 0.765381 
vn 0.229492 -0.839600 0.491943 
vn 0.504883 -0.808594 0.301025 
vn 0.496338 -0.409180 0.765381 
vn -0.028320 -0.433594 0.900391 
vn 0.229492 -0.839600 0.491943 
vn -0.028320 -0.433594 0.900391 
vn -0.057373 -0.846436 0.529053 
vn 0.229492 -0.839600 0.491943 
vn -0.028320 -0.433594 0.900391 
vn -0.554688 -0.427490 0.713623 
vn -0.057373 -0.846436 0.529053 
vn -0.554688 -0.427490 0.713623 
vn -0.371338 -0.793213 0.482422 
vn -0.057373 -0.846436 0.529053 
vn -0.554688 -0.427490 0.713623 
vn -0.873291 -0.384033 0.298828 
vn -0.371338 -0.793213 0.482422 
vn -0.873291 -0.384033 0.298828 
vn -0.611816 -0.758545 0.222900 
vn -0.371338 -0.793213 0.482422 
vn -0.873291 -0.384033 0.298828 
vn -0.886230 -0.355469 -0.296631 
vn -0.611816 -0.758545 0.222900 
vn -0.886230 -0.355469 -0.296631 
vn -0.626465 -0.732422 -0.265869 
vn -0.611816 -0.758545 0.222900 
vn -0.886230 -0.355469 -0.296631 
vn -0.534424 -0.352295 -0.768066 
vn -0.626465 -0.732422 -0.265869 
vn -0.534424 -0.352295 -0.768066 
vn -0.318848 -0.768555 -0.554199 
vn -0.626465 -0.732422 -0.265869 
vn -0.534424 -0.352295 -0.768066 
vn 0.019775 -0.383545 -0.923096 
vn -0.318848 -0.768555 -0.554199 
vn 0.019775 -0.383545 -0.923096 
vn 0.065430 -0.787354 -0.612793 
vn -0.318848 -0.768555 -0.554199 
vn 0.019775 -0.383545 -0.923096 
vn 0.568848 -0.368652 -0.734863 
vn 0.065430 -0.787354 -0.612793 
vn 0.568848 -0.368652 -0.734863 
vn 0.454102 -0.735352 -0.502686 
vn 0.065430 -0.787354 -0.612793 
vn 0.568848 -0.368652 -0.734863 
vn 0.897461 -0.334961 -0.286133 
vn 0.454102 -0.735352 -0.502686 
vn 0.897461 -0.334961 -0.286133 
vn 0.640625 -0.755371 -0.136719 
vn 0.454102 -0.735352 -0.502686 
vt 0.476190 1.000000 
vt 0.714286 1.000000 
vt 0.476190 0.571429 
vt 0.714286 1.000000 
vt 0.714286 0.571429 
vt 0.476190 0.571429 
vt 0.714286 1.000000 
vt 0.888889 1.000000 
vt 0.714286 0.571429 
vt 0.888889 1.000000 
vt 0.888889 0.571429 
vt 0.714286 0.571429 
vt 0.888889 1.000000 
vt 1.000000 1.000000 
vt 0.888889 0.571429 
vt 1.000000 1.000000 
vt 1.000000 0.571429 
vt 0.888889 0.571429 
vt 1.000000 1.000000 
vt 0.888889 1.000000 
vt 1.000000 0.571429 
vt 0.888889 1.000000 
vt 0.888889 0.571429 
vt 1.000000 0.571429 
vt 0.888889 1.000000 
vt 0.714286 1.000000 
vt 0.888889 0.571429 
vt 0.714286 1.000000 
vt 0.714286 0.571429 
vt 0.888889 0.571429 
vt 0.714286 1.000000 
vt 0.476190 1.000000 
vt 0.714286 0.571429 
vt 0.476190 1.000000 
vt 0.476190 0.571429 
vt 0.714286 0.571429 
vt 0.476190 1.000000 
vt 0.269841 1.000000 
vt 0.476190 0.571429 
vt 0.269841 1.000000 
vt 0.269841 0.571429 
vt 0.476190 0.571429 
vt 0.269841 1.000000 
vt 0.000000 1.000000 
vt 0.269841 0.571429 
vt 0.000000 1.000000 
vt 0.000000 0.571429 
vt 0.269841 0.571429 
vt 0.000000 1.000000 
vt 0.269841 1.000000 
vt 0.000000 0.571429 
vt 0.269841 1.000000 
vt 0.269841 0.571429 
vt 0.000000 0.571429 
vt 0.269841 1.000000 
vt 0.476190 1.000000 
vt 0.269841 0.571429 
vt 0.476190 1.000000 
vt 0.476190 0.571429 
vt 0.269841 0.571429 
f 1/1/1 2/2/2 3/3/3
f 4/4/4 5/5/5 6/6/6
f 7/7/7 8/8/8 9/9/9
f 10/10/10 11/11/11 12/12/12
f 13/13/13 14/14/14 15/15/15
f 16/16/16 17/17/17 18/18/18
f 19/19/19 20/20/20 21/21/21
f 22/22/22 23/23/23 24/24/24
f 25/25/25 26/26/26 27/27/27
f 28/28/28 29/29/29 30/30/30
f 31/31/31 32/32/32 33/33/33
f 34/34/34 35/35/35 36/36/36
f 37/37/37 38/38/38 39/39/39
f 40/40/40 41/41/41 42/42/42
f 43/43/43 44/44/44 45/45/45
f 46/46/46 47/47/47 48/48/48
f 49/49/49 50/50/50 51/51/51
f 52/52/52 53/53/53 54/54/54
f 55/55/55 56/56/56 57/57/57
f 58/58/58 59/59/59 60/60/60
