v 25.000000 12.000000 9.000000 
v 12.000000 15.000000 -4.000000 
v 0.000000 15.000000 0.000000 
v 9.000000 15.000000 10.000000 
v 25.000000 12.000000 9.000000 
v 0.000000 15.000000 0.000000 
v 0.000000 12.000000 27.000000 
v 9.000000 15.000000 10.000000 
v 0.000000 15.000000 0.000000 
v -8.000000 15.000000 10.000000 
v 0.000000 12.000000 27.000000 
v 0.000000 15.000000 0.000000 
v -25.000000 12.000000 9.000000 
v -8.000000 15.000000 10.000000 
v 0.000000 15.000000 0.000000 
v -12.000000 15.000000 -5.000000 
v -25.000000 12.000000 9.000000 
v 0.000000 15.000000 0.000000 
v -15.000000 12.000000 -22.000000 
v -12.000000 15.000000 -5.000000 
v 0.000000 15.000000 0.000000 
v 0.000000 15.000000 -11.000000 
v -15.000000 12.000000 -22.000000 
v 0.000000 15.000000 0.000000 
v 16.000000 12.000000 -21.000000 
v 0.000000 15.000000 -11.000000 
v 0.000000 15.000000 0.000000 
v 12.000000 15.000000 -4.000000 
v 16.000000 12.000000 -21.000000 
v 0.000000 15.000000 0.000000 
v 25.000000 2.000000 9.000000 
v 12.000000 0.000000 -4.000000 
v 12.000000 15.000000 -4.000000 
v 25.000000 12.000000 9.000000 
v 25.000000 2.000000 9.000000 
v 12.000000 15.000000 -4.000000 
v 9.000000 0.000000 10.000000 
v 25.000000 2.000000 9.000000 
v 25.000000 12.000000 9.000000 
v 9.000000 15.000000 10.000000 
v 9.000000 0.000000 10.000000 
v 25.000000 12.000000 9.000000 
v 0.000000 2.000000 27.000000 
v 9.000000 0.000000 10.000000 
v 9.000000 15.000000 10.000000 
v 0.000000 12.000000 27.000000 
v 0.000000 2.000000 27.000000 
v 9.000000 15.000000 10.000000 
v -8.000000 0.000000 10.000000 
v 0.000000 2.000000 27.000000 
v 0.000000 12.000000 27.000000 
v -8.000000 15.000000 10.000000 
v -8.000000 0.000000 10.000000 
v 0.000000 12.000000 27.000000 
v -25.000000 2.000000 9.000000 
v -8.000000 0.000000 10.000000 
v -8.000000 15.000000 10.000000 
v -25.000000 12.000000 9.000000 
v -25.000000 2.000000 9.000000 
v -8.000000 15.000000 10.000000 
v -12.000000 0.000000 -5.000000 
v -25.000000 2.000000 9.000000 
v -25.000000 12.000000 9.000000 
v -12.000000 15.000000 -5.000000 
v -12.000000 0.000000 -5.000000 
v -25.000000 12.000000 9.000000 
v -15.000000 2.000000 -22.000000 
v -12.000000 0.000000 -5.000000 
v -12.000000 15.000000 -5.000000 
v -15.000000 12.000000 -22.000000 
v -15.000000 2.000000 -22.000000 
v -12.000000 15.000000 -5.000000 
v 0.000000 0.000000 -11.000000 
v -15.000000 2.000000 -22.000000 
v -15.000000 12.000000 -22.000000 
v 0.000000 15.000000 -11.000000 
v 0.000000 0.000000 -11.000000 
v -15.000000 12.000000 -22.000000 
v 16.000000 2.000000 -21.000000 
v 0.000000 0.000000 -11.000000 
v 0.000000 15.000000 -11.000000 
v 16.000000 12.000000 -21.000000 
v 16.000000 2.000000 -21.000000 
v 0.000000 15.000000 -11.000000 
v 12.000000 0.000000 -4.000000 
v 16.000000 2.000000 -21.000000 
v 16.000000 12.000000 -21.000000 
v 12.000000 15.000000 -4.000000 
v 12.000000 0.000000 -4.000000 
v 16.000000 12.000000 -21.000000 
v 25.000000 2.000000 9.000000 
v 0.000000 0.000000 0.000000 
v 12.000000 0.000000 -4.000000 
v 9.000000 0.000000 10.000000 
v 0.000000 0.000000 0.000000 
v 25.000000 2.000000 9.000000 
v 0.000000 2.000000 27.000000 
v 0.000000 0.000000 0.000000 
v 9.000000 0.000000 10.000000 
v -8.000000 0.000000 10.000000 
v 0.000000 0.000000 0.000000 
v 0.000000 2.000000 27.000000 
v -25.000000 2.000000 9.000000 
v 0.000000 0.000000 0.000000 
v -8.000000 0.000000 10.000000 
v -12.000000 0.000000 -5.000000 
v 0.000000 0.000000 0.000000 
v -25.000000 2.000000 9.000000 
v -15.000000 2.000000 -22.000000 
v 0.000000 0.000000 0.000000 
v -12.000000 0.000000 -5.000000 
v 0.000000 0.000000 -11.000000 
v 0.000000 0.000000 0.000000 
v -15.000000 2.000000 -22.000000 
v 16.000000 2.000000 -21.000000 
v 0.000000 0.000000 0.000000 
v 0.000000 0.000000 -11.000000 
v 12.000000 0.000000 -4.000000 
v 0.000000 0.000000 0.000000 
v 16.000000 2.000000 -21.000000 
vn 0.393066 0.766113 0.508057 
vn 0.724121 0.590332 -0.355957 
vn 0.001953 0.999756 -0.008545 
vn 0.547607 0.593018 0.589844 
vn 0.393066 0.766113 0.508057 
vn 0.001953 0.999756 -0.008545 
vn -0.342285 0.742676 0.574951 
vn 0.547607 0.593018 0.589844 
vn 0.001953 0.999756 -0.008545 
vn -0.310791 0.601074 0.736084 
vn -0.342285 0.742676 0.574951 
vn 0.001953 0.999756 -0.008545 
vn -0.643799 0.754883 -0.124023 
vn -0.310791 0.601074 0.736084 
vn 0.001953 0.999756 -0.008545 
vn -0.801514 0.589844 -0.095459 
vn -0.643799 0.754883 -0.124023 
vn 0.001953 0.999756 -0.008545 
vn 0.010742 0.774170 -0.632812 
vn -0.801514 0.589844 -0.095459 
vn 0.001953 0.999756 -0.008545 
vn -0.163818 0.609131 -0.775635 
vn 0.010742 0.774170 -0.632812 
vn 0.001953 0.999756 -0.008545 
vn 0.588867 0.774170 -0.231445 
vn -0.163818 0.609131 -0.775635 
vn 0.001953 0.999756 -0.008545 
vn 0.724121 0.590332 -0.355957 
vn 0.588867 0.774170 -0.231445 
vn 0.001953 0.999756 -0.008545 
vn 0.640137 -0.755127 -0.140137 
vn 0.800537 -0.591064 -0.096924 
vn 0.724121 0.590332 -0.355957 
vn 0.393066 0.766113 0.508057 
vn 0.640137 -0.755127 -0.140137 
vn 0.724121 0.590332 -0.355957 
vn 0.310059 -0.595215 0.741211 
vn 0.640137 -0.755127 -0.140137 
vn 0.393066 0.766113 0.508057 
vn 0.547607 0.593018 0.589844 
vn 0.310059 -0.595215 0.741211 
vn 0.393066 0.766113 0.508057 
vn 0.314453 -0.739746 0.594482 
vn 0.310059 -0.595215 0.741211 
vn 0.547607 0.593018 0.589844 
vn -0.342285 0.742676 0.574951 
vn 0.314453 -0.739746 0.594482 
vn 0.547607 0.593018 0.589844 
vn -0.564209 -0.599854 0.566895 
vn 0.314453 -0.739746 0.594482 
vn -0.342285 0.742676 0.574951 
vn -0.310791 0.601074 0.736084 
vn -0.564209 -0.599854 0.566895 
vn -0.342285 0.742676 0.574951 
vn -0.387207 -0.763428 0.516357 
vn -0.564209 -0.599854 0.566895 
vn -0.310791 0.601074 0.736084 
vn -0.643799 0.754883 -0.124023 
vn -0.387207 -0.763428 0.516357 
vn -0.310791 0.601074 0.736084 
vn -0.728760 -0.588623 -0.349609 
vn -0.387207 -0.763428 0.516357 
vn -0.643799 0.754883 -0.124023 
vn -0.801514 0.589844 -0.095459 
vn -0.728760 -0.588623 -0.349609 
vn -0.643799 0.754883 -0.124023 
vn -0.586182 -0.775879 -0.232178 
vn -0.728760 -0.588623 -0.349609 
vn -0.801514 0.589844 -0.095459 
vn 0.010742 0.774170 -0.632812 
vn -0.586182 -0.775879 -0.232178 
vn -0.801514 0.589844 -0.095459 
vn 0.167480 -0.609131 -0.774902 
vn -0.586182 -0.775879 -0.232178 
vn 0.010742 0.774170 -0.632812 
vn -0.163818 0.609131 -0.775635 
vn 0.167480 -0.609131 -0.774902 
vn 0.010742 0.774170 -0.632812 
vn -0.004150 -0.773682 -0.633301 
vn 0.167480 -0.609131 -0.774902 
vn -0.163818 0.609131 -0.775635 
vn 0.588867 0.774170 -0.231445 
vn -0.004150 -0.773682 -0.633301 
vn -0.163818 0.609131 -0.775635 
vn 0.800537 -0.591064 -0.096924 
vn -0.004150 -0.773682 -0.633301 
vn 0.588867 0.774170 -0.231445 
vn 0.724121 0.590332 -0.355957 
vn 0.800537 -0.591064 -0.096924 
vn 0.588867 0.774170 -0.231445 
vn 0.640137 -0.755127 -0.140137 
vn 0.001953 -0.999756 -0.008545 
vn 0.800537 -0.591064 -0.096924 
vn 0.310059 -0.595215 0.741211 
vn 0.001953 -0.999756 -0.008545 
vn 0.640137 -0.755127 -0.140137 
vn 0.314453 -0.739746 0.594482 
vn 0.001953 -0.999756 -0.008545 
vn 0.310059 -0.595215 0.741211 
vn -0.564209 -0.599854 0.566895 
vn 0.001953 -0.999756 -0.008545 
vn 0.314453 -0.739746 0.594482 
vn -0.387207 -0.763428 0.516357 
vn 0.001953 -0.999756 -0.008545 
vn -0.564209 -0.599854 0.566895 
vn -0.728760 -0.588623 -0.349609 
vn 0.001953 -0.999756 -0.008545 
vn -0.387207 -0.763428 0.516357 
vn -0.586182 -0.775879 -0.232178 
vn 0.001953 -0.999756 -0.008545 
vn -0.728760 -0.588623 -0.349609 
vn 0.167480 -0.609131 -0.774902 
vn 0.001953 -0.999756 -0.008545 
vn -0.586182 -0.775879 -0.232178 
vn -0.004150 -0.773682 -0.633301 
vn 0.001953 -0.999756 -0.008545 
vn 0.167480 -0.609131 -0.774902 
vn 0.800537 -0.591064 -0.096924 
vn 0.001953 -0.999756 -0.008545 
vn -0.004150 -0.773682 -0.633301 
vt 1.000000 1.000000 
vt 1.000000 -0.015873 
vt 0.000000 -0.015873 
vt 1.000000 1.000000 
vt 1.000000 -0.015873 
vt 0.000000 -0.015873 
vt 1.000000 1.000000 
vt 1.000000 -0.015873 
vt 0.000000 -0.015873 
vt 1.000000 1.000000 
vt 1.000000 -0.015873 
vt 0.000000 -0.015873 
vt 1.000000 1.000000 
vt 1.000000 -0.015873 
vt 0.000000 -0.015873 
vt 1.000000 1.000000 
vt 1.000000 -0.015873 
vt 0.000000 -0.015873 
vt 1.000000 1.000000 
vt 1.000000 -0.015873 
vt 0.000000 -0.015873 
vt 1.000000 1.000000 
vt 1.000000 -0.015873 
vt 0.000000 -0.015873 
vt 1.000000 1.000000 
vt 1.000000 -0.015873 
vt 0.000000 -0.015873 
vt 0.000000 -0.015873 
vt 0.000000 1.000000 
vt 1.000000 1.000000 
vt 1.000000 1.000000 
vt 1.000000 -0.015873 
vt 0.000000 -0.015873 
vt 0.000000 1.000000 
vt 1.000000 1.000000 
vt 0.000000 -0.015873 
vt 1.000000 1.000000 
vt 1.000000 -0.015873 
vt 0.000000 -0.015873 
vt 0.000000 1.000000 
vt 1.000000 1.000000 
vt 0.000000 -0.015873 
vt 1.000000 1.000000 
vt 1.000000 -0.015873 
vt 0.000000 -0.015873 
vt 0.000000 1.000000 
vt 1.000000 1.000000 
vt 0.000000 -0.015873 
vt 1.000000 1.000000 
vt 1.000000 -0.015873 
vt 0.000000 -0.015873 
vt 0.000000 1.000000 
vt 1.000000 1.000000 
vt 0.000000 -0.015873 
vt 1.000000 1.000000 
vt 1.000000 -0.015873 
vt 0.000000 -0.015873 
vt 0.000000 1.000000 
vt 1.000000 1.000000 
vt 0.000000 -0.015873 
vt 1.000000 1.000000 
vt 1.000000 -0.015873 
vt 0.000000 -0.015873 
vt 0.000000 1.000000 
vt 1.000000 1.000000 
vt 0.000000 -0.015873 
vt 1.000000 1.000000 
vt 1.000000 -0.015873 
vt 0.000000 -0.015873 
vt 0.000000 1.000000 
vt 1.000000 1.000000 
vt 0.000000 -0.015873 
vt 1.000000 1.000000 
vt 1.000000 -0.015873 
vt 0.000000 -0.015873 
vt 0.000000 1.000000 
vt 1.000000 1.000000 
vt 0.000000 -0.015873 
vt 1.000000 1.000000 
vt 1.000000 -0.015873 
vt 0.000000 -0.015873 
vt 0.000000 1.000000 
vt 1.000000 1.000000 
vt 0.000000 -0.015873 
vt 0.000000 -0.015873 
vt 0.000000 1.000000 
vt 1.000000 1.000000 
vt 1.000000 -0.015873 
vt 0.000000 -0.015873 
vt 1.000000 1.000000 
vt 0.000000 1.000000 
vt 1.000000 1.000000 
vt 0.000000 -0.015873 
vt 0.000000 1.000000 
vt 1.000000 1.000000 
vt 0.000000 -0.015873 
vt 0.000000 1.000000 
vt 1.000000 1.000000 
vt 0.000000 -0.015873 
vt 0.000000 1.000000 
vt 1.000000 1.000000 
vt 0.000000 -0.015873 
vt 0.000000 1.000000 
vt 1.000000 1.000000 
vt 0.000000 -0.015873 
vt 0.000000 1.000000 
vt 1.000000 1.000000 
vt 0.000000 -0.015873 
vt 0.000000 1.000000 
vt 1.000000 1.000000 
vt 0.000000 -0.015873 
vt 0.000000 1.000000 
vt 1.000000 1.000000 
vt 0.000000 -0.015873 
vt 0.000000 1.000000 
vt 1.000000 1.000000 
vt 0.000000 -0.015873 
vt 1.000000 -0.015873 
vt 0.000000 -0.015873 
vt 1.000000 1.000000 
f 1/1/1 2/2/2 3/3/3
f 4/4/4 5/5/5 6/6/6
f 7/7/7 8/8/8 9/9/9
f 10/10/10 11/11/11 12/12/12
f 13/13/13 14/14/14 15/15/15
f 16/16/16 17/17/17 18/18/18
f 19/19/19 20/20/20 21/21/21
f 22/22/22 23/23/23 24/24/24
f 25/25/25 26/26/26 27/27/27
f 28/28/28 29/29/29 30/30/30
f 31/31/31 32/32/32 33/33/33
f 34/34/34 35/35/35 36/36/36
f 37/37/37 38/38/38 39/39/39
f 40/40/40 41/41/41 42/42/42
f 43/43/43 44/44/44 45/45/45
f 46/46/46 47/47/47 48/48/48
f 49/49/49 50/50/50 51/51/51
f 52/52/52 53/53/53 54/54/54
f 55/55/55 56/56/56 57/57/57
f 58/58/58 59/59/59 60/60/60
f 61/61/61 62/62/62 63/63/63
f 64/64/64 65/65/65 66/66/66
f 67/67/67 68/68/68 69/69/69
f 70/70/70 71/71/71 72/72/72
f 73/73/73 74/74/74 75/75/75
f 76/76/76 77/77/77 78/78/78
f 79/79/79 80/80/80 81/81/81
f 82/82/82 83/83/83 84/84/84
f 85/85/85 86/86/86 87/87/87
f 88/88/88 89/89/89 90/90/90
f 91/91/91 92/92/92 93/93/93
f 94/94/94 95/95/95 96/96/96
f 97/97/97 98/98/98 99/99/99
f 100/100/100 101/101/101 102/102/102
f 103/103/103 104/104/104 105/105/105
f 106/106/106 107/107/107 108/108/108
f 109/109/109 110/110/110 111/111/111
f 112/112/112 113/113/113 114/114/114
f 115/115/115 116/116/116 117/117/117
f 118/118/118 119/119/119 120/120/120
