v -49.000000 18.000000 -350.000000 
v -113.000000 0.000000 -351.000000 
v -79.000000 0.000000 -202.000000 
v -79.000000 0.000000 -202.000000 
v -24.000000 18.000000 -222.000000 
v -49.000000 18.000000 -350.000000 
v -77.000000 0.000000 25.000000 
v -24.000000 18.000000 -222.000000 
v -79.000000 0.000000 -202.000000 
v -24.000000 18.000000 -222.000000 
v -77.000000 0.000000 25.000000 
v -23.000000 18.000000 25.000000 
v -50.000000 18.000000 354.000000 
v -17.000000 18.000000 234.000000 
v -81.000000 0.000000 234.000000 
v -81.000000 0.000000 234.000000 
v -113.000000 0.000000 354.000000 
v -50.000000 18.000000 354.000000 
v 117.000000 118.000000 25.000000 
v 36.000000 160.000000 234.000000 
v 129.000000 130.000000 234.000000 
v 36.000000 160.000000 234.000000 
v 117.000000 118.000000 25.000000 
v 38.000000 160.000000 25.000000 
v 129.000000 130.000000 -349.000000 
v 130.000000 130.000000 -393.000000 
v 40.000000 160.000000 -393.000000 
v 40.000000 160.000000 -393.000000 
v 4.000000 160.000000 -326.000000 
v 129.000000 130.000000 -349.000000 
v 38.000000 160.000000 25.000000 
v 118.000000 130.000000 -201.000000 
v 36.000000 160.000000 -202.000000 
v 118.000000 130.000000 -201.000000 
v 38.000000 160.000000 25.000000 
v 117.000000 118.000000 25.000000 
v 3.000000 160.000000 355.000000 
v 129.000000 130.000000 234.000000 
v 36.000000 160.000000 234.000000 
v 129.000000 130.000000 234.000000 
v 3.000000 160.000000 355.000000 
v 129.000000 130.000000 355.000000 
v 38.000000 160.000000 25.000000 
v -6.000000 136.000000 234.000000 
v 36.000000 160.000000 234.000000 
v -6.000000 136.000000 234.000000 
v 38.000000 160.000000 25.000000 
v -3.000000 136.000000 25.000000 
v -8.000000 136.000000 395.000000 
v 33.000000 84.000000 395.000000 
v 3.000000 160.000000 355.000000 
v 3.000000 160.000000 355.000000 
v -29.000000 136.000000 355.000000 
v -8.000000 136.000000 395.000000 
v 3.000000 160.000000 355.000000 
v 129.000000 130.000000 395.000000 
v 129.000000 130.000000 355.000000 
v 129.000000 130.000000 395.000000 
v 3.000000 160.000000 355.000000 
v 33.000000 84.000000 395.000000 
v -49.000000 18.000000 -350.000000 
v -76.000000 0.000000 -393.000000 
v -113.000000 0.000000 -351.000000 
v -76.000000 0.000000 -393.000000 
v -49.000000 18.000000 -350.000000 
v -22.000000 18.000000 -393.000000 
v 4.000000 160.000000 -326.000000 
v 118.000000 130.000000 -201.000000 
v 129.000000 130.000000 -349.000000 
v 118.000000 130.000000 -201.000000 
v 4.000000 160.000000 -326.000000 
v 36.000000 160.000000 -202.000000 
v -24.000000 18.000000 -222.000000 
v -28.000000 136.000000 -349.000000 
v -49.000000 18.000000 -350.000000 
v -28.000000 136.000000 -349.000000 
v -24.000000 18.000000 -222.000000 
v -5.000000 136.000000 -202.000000 
v -23.000000 18.000000 25.000000 
v -5.000000 136.000000 -202.000000 
v -24.000000 18.000000 -222.000000 
v -5.000000 136.000000 -202.000000 
v -23.000000 18.000000 25.000000 
v -3.000000 136.000000 25.000000 
v -29.000000 136.000000 355.000000 
v -6.000000 136.000000 234.000000 
v -17.000000 18.000000 234.000000 
v -17.000000 18.000000 234.000000 
v -50.000000 18.000000 354.000000 
v -29.000000 136.000000 355.000000 
v -23.000000 18.000000 25.000000 
v -81.000000 0.000000 234.000000 
v -17.000000 18.000000 234.000000 
v -81.000000 0.000000 234.000000 
v -23.000000 18.000000 25.000000 
v -77.000000 0.000000 25.000000 
v -50.000000 18.000000 354.000000 
v -83.000000 0.000000 397.000000 
v -19.000000 18.000000 396.000000 
v -83.000000 0.000000 397.000000 
v -50.000000 18.000000 354.000000 
v -113.000000 0.000000 354.000000 
v -28.000000 136.000000 -349.000000 
v -1.000000 136.000000 -393.000000 
v -22.000000 18.000000 -393.000000 
v -22.000000 18.000000 -393.000000 
v -49.000000 18.000000 -350.000000 
v -28.000000 136.000000 -349.000000 
v -3.000000 136.000000 25.000000 
v -17.000000 18.000000 234.000000 
v -6.000000 136.000000 234.000000 
v -17.000000 18.000000 234.000000 
v -3.000000 136.000000 25.000000 
v -23.000000 18.000000 25.000000 
v -29.000000 136.000000 355.000000 
v -19.000000 18.000000 396.000000 
v -8.000000 136.000000 395.000000 
v -19.000000 18.000000 396.000000 
v -29.000000 136.000000 355.000000 
v -50.000000 18.000000 354.000000 
v -5.000000 136.000000 -202.000000 
v 4.000000 160.000000 -326.000000 
v -28.000000 136.000000 -349.000000 
v 4.000000 160.000000 -326.000000 
v -5.000000 136.000000 -202.000000 
v 36.000000 160.000000 -202.000000 
v -3.000000 136.000000 25.000000 
v 36.000000 160.000000 -202.000000 
v -5.000000 136.000000 -202.000000 
v 36.000000 160.000000 -202.000000 
v -3.000000 136.000000 25.000000 
v 38.000000 160.000000 25.000000 
v 3.000000 160.000000 355.000000 
v 36.000000 160.000000 234.000000 
v -6.000000 136.000000 234.000000 
v -6.000000 136.000000 234.000000 
v -29.000000 136.000000 355.000000 
v 3.000000 160.000000 355.000000 
v 4.000000 160.000000 -326.000000 
v 40.000000 160.000000 -393.000000 
v -1.000000 136.000000 -393.000000 
v -1.000000 136.000000 -393.000000 
v -28.000000 136.000000 -349.000000 
v 4.000000 160.000000 -326.000000 
vn -0.594727 0.796875 -0.103027 
vn -0.283691 0.956299 -0.067383 
vn -0.309082 0.950439 0.032227 
vn -0.309082 0.950439 0.032227 
vn -0.762451 0.643799 0.061523 
vn -0.594727 0.796875 -0.103027 
vn -0.330322 0.943848 -0.000488 
vn -0.762451 0.643799 0.061523 
vn -0.309082 0.950439 0.032227 
vn -0.762451 0.643799 0.061523 
vn -0.330322 0.943848 -0.000488 
vn -0.759521 0.650146 0.006836 
vn -0.579346 0.809570 0.093506 
vn -0.876709 0.474854 -0.075928 
vn -0.294922 0.954834 -0.029297 
vn -0.294922 0.954834 -0.029297 
vn -0.283203 0.957520 0.048584 
vn -0.579346 0.809570 0.093506 
vn 0.407715 0.912842 -0.004883 
vn 0.018555 0.999512 -0.020752 
vn 0.277588 0.960449 0.003906 
vn 0.018555 0.999512 -0.020752 
vn 0.407715 0.912842 -0.004883 
vn -0.040527 0.999023 0.005859 
vn 0.265869 0.962891 0.041504 
vn 0.313477 0.949463 0.004395 
vn 0.031250 0.998779 -0.032959 
vn 0.031250 0.998779 -0.032959 
vn -0.191895 0.980957 -0.028809 
vn 0.265869 0.962891 0.041504 
vn -0.040527 0.999023 0.005859 
vn 0.343994 0.938721 -0.005371 
vn -0.174561 0.984375 0.007324 
vn 0.343994 0.938721 -0.005371 
vn -0.040527 0.999023 0.005859 
vn 0.407715 0.912842 -0.004883 
vn -0.062500 0.976074 0.208008 
vn 0.277588 0.960449 0.003906 
vn 0.018555 0.999512 -0.020752 
vn 0.277588 0.960449 0.003906 
vn -0.062500 0.976074 0.208008 
vn 0.230713 0.972900 -0.002197 
vn -0.040527 0.999023 0.005859 
vn -0.744141 0.664551 -0.065186 
vn 0.018555 0.999512 -0.020752 
vn -0.744141 0.664551 -0.065186 
vn -0.040527 0.999023 0.005859 
vn -0.825928 0.563477 0.003174 
vn -0.409424 0.744629 0.526611 
vn 0.275391 0.614014 0.739258 
vn -0.062500 0.976074 0.208008 
vn -0.062500 0.976074 0.208008 
vn -0.912842 0.389404 0.120850 
vn -0.409424 0.744629 0.526611 
vn -0.062500 0.976074 0.208008 
vn 0.000000 0.866211 0.499023 
vn 0.230713 0.972900 -0.002197 
vn 0.000000 0.866211 0.499023 
vn -0.062500 0.976074 0.208008 
vn 0.275391 0.614014 0.739258 
vn -0.594727 0.796875 -0.103027 
vn -0.302246 0.937744 -0.170410 
vn -0.283691 0.956299 -0.067383 
vn -0.302246 0.937744 -0.170410 
vn -0.594727 0.796875 -0.103027 
vn -0.795166 0.471680 -0.380615 
vn -0.191895 0.980957 -0.028809 
vn 0.343994 0.938721 -0.005371 
vn 0.265869 0.962891 0.041504 
vn 0.343994 0.938721 -0.005371 
vn -0.191895 0.980957 -0.028809 
vn -0.174561 0.984375 0.007324 
vn -0.762451 0.643799 0.061523 
vn -0.896484 0.421875 -0.133789 
vn -0.594727 0.796875 -0.103027 
vn -0.896484 0.421875 -0.133789 
vn -0.762451 0.643799 0.061523 
vn -0.836670 0.544678 0.057129 
vn -0.759521 0.650146 0.006836 
vn -0.836670 0.544678 0.057129 
vn -0.762451 0.643799 0.061523 
vn -0.836670 0.544678 0.057129 
vn -0.759521 0.650146 0.006836 
vn -0.825928 0.563477 0.003174 
vn -0.912842 0.389404 0.120850 
vn -0.744141 0.664551 -0.065186 
vn -0.876709 0.474854 -0.075928 
vn -0.876709 0.474854 -0.075928 
vn -0.579346 0.809570 0.093506 
vn -0.912842 0.389404 0.120850 
vn -0.759521 0.650146 0.006836 
vn -0.294922 0.954834 -0.029297 
vn -0.876709 0.474854 -0.075928 
vn -0.294922 0.954834 -0.029297 
vn -0.759521 0.650146 0.006836 
vn -0.330322 0.943848 -0.000488 
vn -0.579346 0.809570 0.093506 
vn -0.279785 0.947021 0.156982 
vn -0.798096 0.457031 0.392090 
vn -0.279785 0.947021 0.156982 
vn -0.579346 0.809570 0.093506 
vn -0.283203 0.957520 0.048584 
vn -0.896484 0.421875 -0.133789 
vn -0.660156 0.686279 -0.304688 
vn -0.795166 0.471680 -0.380615 
vn -0.795166 0.471680 -0.380615 
vn -0.594727 0.796875 -0.103027 
vn -0.896484 0.421875 -0.133789 
vn -0.825928 0.563477 0.003174 
vn -0.876709 0.474854 -0.075928 
vn -0.744141 0.664551 -0.065186 
vn -0.876709 0.474854 -0.075928 
vn -0.825928 0.563477 0.003174 
vn -0.759521 0.650146 0.006836 
vn -0.912842 0.389404 0.120850 
vn -0.798096 0.457031 0.392090 
vn -0.409424 0.744629 0.526611 
vn -0.798096 0.457031 0.392090 
vn -0.912842 0.389404 0.120850 
vn -0.579346 0.809570 0.093506 
vn -0.836670 0.544678 0.057129 
vn -0.191895 0.980957 -0.028809 
vn -0.896484 0.421875 -0.133789 
vn -0.191895 0.980957 -0.028809 
vn -0.836670 0.544678 0.057129 
vn -0.174561 0.984375 0.007324 
vn -0.825928 0.563477 0.003174 
vn -0.174561 0.984375 0.007324 
vn -0.836670 0.544678 0.057129 
vn -0.174561 0.984375 0.007324 
vn -0.825928 0.563477 0.003174 
vn -0.040527 0.999023 0.005859 
vn -0.062500 0.976074 0.208008 
vn 0.018555 0.999512 -0.020752 
vn -0.744141 0.664551 -0.065186 
vn -0.744141 0.664551 -0.065186 
vn -0.912842 0.389404 0.120850 
vn -0.062500 0.976074 0.208008 
vn -0.191895 0.980957 -0.028809 
vn 0.031250 0.998779 -0.032959 
vn -0.660156 0.686279 -0.304688 
vn -0.660156 0.686279 -0.304688 
vn -0.896484 0.421875 -0.133789 
vn -0.191895 0.980957 -0.028809 
vt 0.488189 0.000000 
vt 0.488189 0.444444 
vt 0.992126 0.444444 
vt 0.992126 0.444444 
vt 0.992126 0.000000 
vt 0.488189 0.000000 
vt 0.007874 0.444444 
vt 0.992126 0.000000 
vt 0.992126 0.444444 
vt 0.992126 0.000000 
vt 0.007874 0.444444 
vt 0.007874 0.000000 
vt 0.409449 0.015873 
vt 0.992126 0.015873 
vt 0.992126 0.285714 
vt 0.992126 0.285714 
vt 0.409449 0.285714 
vt 0.409449 0.015873 
vt 0.007874 0.587302 
vt 0.992126 1.000000 
vt 0.992126 0.587302 
vt 0.992126 1.000000 
vt 0.007874 0.587302 
vt 0.007874 1.000000 
vt 0.488189 0.587302 
vt 0.047244 0.587302 
vt 0.047244 1.000000 
vt 0.047244 1.000000 
vt 0.488189 1.000000 
vt 0.488189 0.587302 
vt 0.007874 1.000000 
vt 0.992126 0.587302 
vt 0.992126 1.000000 
vt 0.992126 0.587302 
vt 0.007874 1.000000 
vt 0.007874 0.587302 
vt 0.409449 1.000000 
vt 0.984252 0.587302 
vt 0.992126 1.000000 
vt 0.984252 0.587302 
vt 0.409449 1.000000 
vt 0.409449 0.587302 
vt 0.007874 1.000000 
vt 0.992126 0.587302 
vt 0.992126 1.000000 
vt 0.992126 0.587302 
vt 0.007874 1.000000 
vt 0.007874 0.587302 
vt 0.023622 0.587302 
vt 0.023622 1.000000 
vt 0.409449 1.000000 
vt 0.409449 1.000000 
vt 0.409449 0.587302 
vt 0.023622 0.587302 
vt 0.409449 1.000000 
vt 0.023622 0.587302 
vt 0.409449 0.587302 
vt 0.023622 0.587302 
vt 0.409449 1.000000 
vt 0.023622 1.000000 
vt 0.488189 0.000000 
vt 0.047244 0.444444 
vt 0.488189 0.444444 
vt 0.047244 0.444444 
vt 0.488189 0.000000 
vt 0.047244 0.000000 
vt 0.488189 1.000000 
vt 0.992126 0.587302 
vt 0.488189 0.587302 
vt 0.992126 0.587302 
vt 0.488189 1.000000 
vt 0.992126 1.000000 
vt 0.992126 0.000000 
vt 0.488189 0.587302 
vt 0.488189 0.000000 
vt 0.488189 0.587302 
vt 0.992126 0.000000 
vt 0.992126 0.587302 
vt 0.007874 0.000000 
vt 0.992126 0.682540 
vt 0.992126 0.000000 
vt 0.992126 0.682540 
vt 0.007874 0.000000 
vt 0.007874 0.698413 
vt 0.409449 0.587302 
vt 0.992126 0.587302 
vt 0.992126 0.015873 
vt 0.992126 0.015873 
vt 0.409449 0.015873 
vt 0.409449 0.587302 
vt 0.007874 0.000000 
vt 0.992126 0.444444 
vt 0.992126 0.000000 
vt 0.992126 0.444444 
vt 0.007874 0.000000 
vt 0.007874 0.444444 
vt 0.409449 0.015873 
vt 0.023622 0.285714 
vt 0.023622 0.015873 
vt 0.023622 0.285714 
vt 0.409449 0.015873 
vt 0.409449 0.285714 
vt 0.488189 0.587302 
vt 0.047244 0.587302 
vt 0.047244 0.000000 
vt 0.047244 0.000000 
vt 0.488189 0.000000 
vt 0.488189 0.587302 
vt 0.007874 0.587302 
vt 0.992126 0.000000 
vt 0.992126 0.587302 
vt 0.992126 0.000000 
vt 0.007874 0.587302 
vt 0.007874 0.000000 
vt 0.409449 0.587302 
vt 0.023622 0.015873 
vt 0.023622 0.587302 
vt 0.023622 0.015873 
vt 0.409449 0.587302 
vt 0.409449 0.015873 
vt 0.992126 0.587302 
vt 0.488189 1.000000 
vt 0.488189 0.587302 
vt 0.488189 1.000000 
vt 0.992126 0.587302 
vt 0.992126 1.000000 
vt 0.007874 0.698413 
vt 0.992126 1.000000 
vt 0.992126 0.682540 
vt 0.992126 1.000000 
vt 0.007874 0.698413 
vt 0.007874 1.000000 
vt 0.409449 1.000000 
vt 0.992126 1.000000 
vt 0.992126 0.587302 
vt 0.992126 0.587302 
vt 0.409449 0.587302 
vt 0.409449 1.000000 
vt 0.488189 1.000000 
vt 0.047244 1.000000 
vt 0.047244 0.587302 
vt 0.047244 0.587302 
vt 0.488189 0.587302 
vt 0.488189 1.000000 
f 1/1/1 2/2/2 3/3/3
f 4/4/4 5/5/5 6/6/6
f 7/7/7 8/8/8 9/9/9
f 10/10/10 11/11/11 12/12/12
f 13/13/13 14/14/14 15/15/15
f 16/16/16 17/17/17 18/18/18
f 19/19/19 20/20/20 21/21/21
f 22/22/22 23/23/23 24/24/24
f 25/25/25 26/26/26 27/27/27
f 28/28/28 29/29/29 30/30/30
f 31/31/31 32/32/32 33/33/33
f 34/34/34 35/35/35 36/36/36
f 37/37/37 38/38/38 39/39/39
f 40/40/40 41/41/41 42/42/42
f 43/43/43 44/44/44 45/45/45
f 46/46/46 47/47/47 48/48/48
f 49/49/49 50/50/50 51/51/51
f 52/52/52 53/53/53 54/54/54
f 55/55/55 56/56/56 57/57/57
f 58/58/58 59/59/59 60/60/60
f 61/61/61 62/62/62 63/63/63
f 64/64/64 65/65/65 66/66/66
f 67/67/67 68/68/68 69/69/69
f 70/70/70 71/71/71 72/72/72
f 73/73/73 74/74/74 75/75/75
f 76/76/76 77/77/77 78/78/78
f 79/79/79 80/80/80 81/81/81
f 82/82/82 83/83/83 84/84/84
f 85/85/85 86/86/86 87/87/87
f 88/88/88 89/89/89 90/90/90
f 91/91/91 92/92/92 93/93/93
f 94/94/94 95/95/95 96/96/96
f 97/97/97 98/98/98 99/99/99
f 100/100/100 101/101/101 102/102/102
f 103/103/103 104/104/104 105/105/105
f 106/106/106 107/107/107 108/108/108
f 109/109/109 110/110/110 111/111/111
f 112/112/112 113/113/113 114/114/114
f 115/115/115 116/116/116 117/117/117
f 118/118/118 119/119/119 120/120/120
f 121/121/121 122/122/122 123/123/123
f 124/124/124 125/125/125 126/126/126
f 127/127/127 128/128/128 129/129/129
f 130/130/130 131/131/131 132/132/132
f 133/133/133 134/134/134 135/135/135
f 136/136/136 137/137/137 138/138/138
f 139/139/139 140/140/140 141/141/141
f 142/142/142 143/143/143 144/144/144
