v -38.000000 24.000000 29.000000 
v -42.000000 7.000000 29.000000 
v -32.000000 7.000000 45.000000 
v -14.000000 7.000000 55.000000 
v -38.000000 24.000000 29.000000 
v -32.000000 7.000000 45.000000 
v -17.000000 32.000000 45.000000 
v -38.000000 24.000000 29.000000 
v -14.000000 7.000000 55.000000 
v -8.000000 7.000000 56.000000 
v -17.000000 32.000000 45.000000 
v -14.000000 7.000000 55.000000 
v 0.000000 36.000000 45.000000 
v -17.000000 32.000000 45.000000 
v -8.000000 7.000000 56.000000 
v 0.000000 8.000000 56.000000 
v 0.000000 36.000000 45.000000 
v -8.000000 7.000000 56.000000 
v 17.000000 32.000000 45.000000 
v 0.000000 36.000000 45.000000 
v 0.000000 8.000000 56.000000 
v 7.000000 8.000000 56.000000 
v 17.000000 32.000000 45.000000 
v 0.000000 8.000000 56.000000 
v 38.000000 24.000000 29.000000 
v 17.000000 32.000000 45.000000 
v 7.000000 8.000000 56.000000 
v 14.000000 7.000000 55.000000 
v 38.000000 24.000000 29.000000 
v 7.000000 8.000000 56.000000 
v 42.000000 7.000000 29.000000 
v 38.000000 24.000000 29.000000 
v 14.000000 7.000000 55.000000 
v 32.000000 7.000000 45.000000 
v 42.000000 7.000000 29.000000 
v 14.000000 7.000000 55.000000 
v -43.000000 27.000000 0.000000 
v -45.000000 8.000000 0.000000 
v -42.000000 7.000000 29.000000 
v -38.000000 24.000000 29.000000 
v -43.000000 27.000000 0.000000 
v -42.000000 7.000000 29.000000 
v -18.000000 44.000000 0.000000 
v -43.000000 27.000000 0.000000 
v -38.000000 24.000000 29.000000 
v -18.000000 36.000000 37.000000 
v -17.000000 40.000000 26.000000 
v -38.000000 24.000000 29.000000 
v 0.000000 45.000000 26.000000 
v -17.000000 40.000000 26.000000 
v -18.000000 36.000000 37.000000 
v 0.000000 41.000000 37.000000 
v 0.000000 45.000000 26.000000 
v -18.000000 36.000000 37.000000 
v 17.000000 40.000000 26.000000 
v 0.000000 45.000000 26.000000 
v 0.000000 41.000000 37.000000 
v 16.000000 36.000000 37.000000 
v 17.000000 40.000000 26.000000 
v 0.000000 41.000000 37.000000 
v 42.000000 27.000000 0.000000 
v 17.000000 44.000000 14.000000 
v 17.000000 40.000000 26.000000 
v 38.000000 24.000000 29.000000 
v 42.000000 27.000000 0.000000 
v 17.000000 40.000000 26.000000 
v 45.000000 7.000000 0.000000 
v 42.000000 27.000000 0.000000 
v 38.000000 24.000000 29.000000 
v 42.000000 7.000000 29.000000 
v 45.000000 7.000000 0.000000 
v 38.000000 24.000000 29.000000 
v -33.000000 24.000000 -31.000000 
v -37.000000 8.000000 -33.000000 
v -45.000000 8.000000 0.000000 
v -43.000000 27.000000 0.000000 
v -33.000000 24.000000 -31.000000 
v -45.000000 8.000000 0.000000 
v -19.000000 43.000000 -34.000000 
v -33.000000 24.000000 -31.000000 
v -43.000000 27.000000 0.000000 
v -18.000000 44.000000 0.000000 
v -19.000000 43.000000 -34.000000 
v -43.000000 27.000000 0.000000 
v 0.000000 47.000000 -35.000000 
v -16.000000 43.000000 -35.000000 
v -16.000000 44.000000 -4.000000 
v 0.000000 48.000000 -4.000000 
v 0.000000 47.000000 -35.000000 
v -16.000000 44.000000 -4.000000 
v 15.000000 43.000000 -35.000000 
v 0.000000 47.000000 -35.000000 
v 0.000000 48.000000 -4.000000 
v 15.000000 44.000000 -4.000000 
v 15.000000 43.000000 -35.000000 
v 0.000000 48.000000 -4.000000 
v 32.000000 24.000000 -31.000000 
v 18.000000 43.000000 -34.000000 
v 18.000000 44.000000 0.000000 
v 42.000000 27.000000 0.000000 
v 32.000000 24.000000 -31.000000 
v 18.000000 44.000000 0.000000 
v 38.000000 7.000000 -33.000000 
v 32.000000 24.000000 -31.000000 
v 42.000000 27.000000 0.000000 
v 45.000000 7.000000 0.000000 
v 38.000000 7.000000 -33.000000 
v 42.000000 27.000000 0.000000 
v -23.000000 23.000000 -53.000000 
v -25.000000 8.000000 -52.000000 
v -37.000000 8.000000 -33.000000 
v -33.000000 24.000000 -31.000000 
v -23.000000 23.000000 -53.000000 
v -37.000000 8.000000 -33.000000 
v -17.000000 34.000000 -53.000000 
v -23.000000 23.000000 -53.000000 
v -33.000000 24.000000 -31.000000 
v -19.000000 43.000000 -34.000000 
v -17.000000 34.000000 -53.000000 
v -33.000000 24.000000 -31.000000 
v 23.000000 23.000000 -53.000000 
v 17.000000 34.000000 -53.000000 
v 18.000000 43.000000 -34.000000 
v 32.000000 24.000000 -31.000000 
v 23.000000 23.000000 -53.000000 
v 18.000000 43.000000 -34.000000 
v 24.000000 8.000000 -52.000000 
v 23.000000 23.000000 -53.000000 
v 32.000000 24.000000 -31.000000 
v 38.000000 7.000000 -33.000000 
v 24.000000 8.000000 -52.000000 
v 32.000000 24.000000 -31.000000 
v -25.000000 8.000000 -52.000000 
v -23.000000 23.000000 -53.000000 
v -14.000000 8.000000 -62.000000 
v -23.000000 23.000000 -53.000000 
v -17.000000 34.000000 -53.000000 
v -14.000000 8.000000 -62.000000 
v 17.000000 34.000000 -53.000000 
v 23.000000 23.000000 -53.000000 
v 16.000000 7.000000 -62.000000 
v 23.000000 23.000000 -53.000000 
v 24.000000 8.000000 -52.000000 
v 16.000000 7.000000 -62.000000 
v -17.000000 28.000000 -49.000000 
v -17.000000 34.000000 -53.000000 
v -19.000000 43.000000 -34.000000 
v -19.000000 43.000000 -34.000000 
v -18.000000 34.000000 -33.000000 
v -17.000000 28.000000 -49.000000 
v 17.000000 34.000000 -33.000000 
v 18.000000 43.000000 -34.000000 
v 17.000000 34.000000 -53.000000 
v 17.000000 34.000000 -53.000000 
v 17.000000 28.000000 -49.000000 
v 17.000000 34.000000 -33.000000 
v -17.000000 34.000000 -53.000000 
v -17.000000 28.000000 -49.000000 
v -14.000000 8.000000 -62.000000 
v 17.000000 28.000000 -49.000000 
v 17.000000 34.000000 -53.000000 
v 16.000000 7.000000 -62.000000 
v 0.000000 46.000000 14.000000 
v -18.000000 44.000000 0.000000 
v -17.000000 44.000000 14.000000 
v -17.000000 44.000000 14.000000 
v -18.000000 44.000000 0.000000 
v -38.000000 24.000000 29.000000 
v 0.000000 46.000000 11.000000 
v 0.000000 48.000000 -4.000000 
v -16.000000 44.000000 -4.000000 
v 15.000000 44.000000 -4.000000 
v 0.000000 48.000000 -4.000000 
v 0.000000 46.000000 11.000000 
v 17.000000 44.000000 14.000000 
v 18.000000 44.000000 0.000000 
v 0.000000 46.000000 14.000000 
v 42.000000 27.000000 0.000000 
v 18.000000 44.000000 0.000000 
v 17.000000 44.000000 14.000000 
v -16.000000 43.000000 -35.000000 
v -19.000000 43.000000 -34.000000 
v -18.000000 44.000000 0.000000 
v -18.000000 44.000000 0.000000 
v -16.000000 44.000000 -4.000000 
v -16.000000 43.000000 -35.000000 
v 15.000000 44.000000 -4.000000 
v 18.000000 44.000000 0.000000 
v 18.000000 43.000000 -34.000000 
v 18.000000 43.000000 -34.000000 
v 15.000000 43.000000 -35.000000 
v 15.000000 44.000000 -4.000000 
v -16.000000 44.000000 -4.000000 
v -18.000000 44.000000 0.000000 
v 0.000000 46.000000 14.000000 
v 0.000000 46.000000 14.000000 
v 0.000000 46.000000 11.000000 
v -16.000000 44.000000 -4.000000 
v 0.000000 46.000000 11.000000 
v 0.000000 46.000000 14.000000 
v 18.000000 44.000000 0.000000 
v 18.000000 44.000000 0.000000 
v 15.000000 44.000000 -4.000000 
v 0.000000 46.000000 11.000000 
v 0.000000 41.000000 37.000000 
v -18.000000 36.000000 37.000000 
v -17.000000 32.000000 45.000000 
v -17.000000 32.000000 45.000000 
v -18.000000 36.000000 37.000000 
v -38.000000 24.000000 29.000000 
v 0.000000 36.000000 45.000000 
v 0.000000 41.000000 37.000000 
v -17.000000 32.000000 45.000000 
v 16.000000 36.000000 37.000000 
v 0.000000 41.000000 37.000000 
v 0.000000 36.000000 45.000000 
v 17.000000 32.000000 45.000000 
v 16.000000 36.000000 37.000000 
v 0.000000 36.000000 45.000000 
v 38.000000 24.000000 29.000000 
v 16.000000 36.000000 37.000000 
v 17.000000 32.000000 45.000000 
v 38.000000 24.000000 29.000000 
v 17.000000 40.000000 26.000000 
v 16.000000 36.000000 37.000000 
v 17.000000 44.000000 14.000000 
v 0.000000 46.000000 14.000000 
v 0.000000 45.000000 26.000000 
v 0.000000 45.000000 26.000000 
v 0.000000 46.000000 14.000000 
v -17.000000 40.000000 26.000000 
v 17.000000 40.000000 26.000000 
v 17.000000 44.000000 14.000000 
v 0.000000 45.000000 26.000000 
v 0.000000 46.000000 14.000000 
v -17.000000 44.000000 14.000000 
v -17.000000 40.000000 26.000000 
v -17.000000 40.000000 26.000000 
v -17.000000 44.000000 14.000000 
v -38.000000 24.000000 29.000000 
vn -0.691895 0.601562 0.398682 
vn -0.943115 0.191650 0.270508 
vn -0.635010 0.399414 0.660889 
vn -0.434082 0.380859 0.816162 
vn -0.691895 0.601562 0.398682 
vn -0.635010 0.399414 0.660889 
vn -0.358643 0.596680 0.717529 
vn -0.691895 0.601562 0.398682 
vn -0.434082 0.380859 0.816162 
vn -0.120361 0.369141 0.921387 
vn -0.358643 0.596680 0.717529 
vn -0.434082 0.380859 0.816162 
vn 0.048584 0.643555 0.763672 
vn -0.358643 0.596680 0.717529 
vn -0.120361 0.369141 0.921387 
vn 0.020508 0.398682 0.916748 
vn 0.048584 0.643555 0.763672 
vn -0.120361 0.369141 0.921387 
vn 0.323486 0.574463 0.751709 
vn 0.048584 0.643555 0.763672 
vn 0.020508 0.398682 0.916748 
vn 0.312744 0.439941 0.841553 
vn 0.323486 0.574463 0.751709 
vn 0.020508 0.398682 0.916748 
vn 0.721191 0.511475 0.466797 
vn 0.323486 0.574463 0.751709 
vn 0.312744 0.439941 0.841553 
vn 0.369629 0.731934 0.572266 
vn 0.721191 0.511475 0.466797 
vn 0.312744 0.439941 0.841553 
vn 0.703613 0.606689 0.369629 
vn 0.721191 0.511475 0.466797 
vn 0.369629 0.731934 0.572266 
vn -0.002686 0.999756 0.006592 
vn 0.703613 0.606689 0.369629 
vn 0.369629 0.731934 0.572266 
vn -0.876709 0.479004 -0.036377 
vn -0.972900 0.175537 -0.149170 
vn -0.943115 0.191650 0.270508 
vn -0.691895 0.601562 0.398682 
vn -0.876709 0.479004 -0.036377 
vn -0.943115 0.191650 0.270508 
vn -0.507324 0.860596 0.038818 
vn -0.876709 0.479004 -0.036377 
vn -0.691895 0.601562 0.398682 
vn -0.391846 0.843018 0.367676 
vn -0.357178 0.893311 0.271729 
vn -0.691895 0.601562 0.398682 
vn -0.027588 0.965088 0.260254 
vn -0.357178 0.893311 0.271729 
vn -0.391846 0.843018 0.367676 
vn 0.013916 0.895996 0.443359 
vn -0.027588 0.965088 0.260254 
vn -0.391846 0.843018 0.367676 
vn 0.438477 0.846924 0.299805 
vn -0.027588 0.965088 0.260254 
vn 0.013916 0.895996 0.443359 
vn 0.375977 0.824463 0.422607 
vn 0.438477 0.846924 0.299805 
vn 0.013916 0.895996 0.443359 
vn 0.813232 0.581055 -0.028809 
vn 0.361084 0.921875 0.139648 
vn 0.438477 0.846924 0.299805 
vn 0.721191 0.511475 0.466797 
vn 0.813232 0.581055 -0.028809 
vn 0.438477 0.846924 0.299805 
vn 0.982910 0.182129 0.019287 
vn 0.813232 0.581055 -0.028809 
vn 0.721191 0.511475 0.466797 
vn 0.703613 0.606689 0.369629 
vn 0.982910 0.182129 0.019287 
vn 0.721191 0.511475 0.466797 
vn -0.864502 0.379883 -0.328613 
vn -0.893311 0.218994 -0.392334 
vn -0.972900 0.175537 -0.149170 
vn -0.876709 0.479004 -0.036377 
vn -0.864502 0.379883 -0.328613 
vn -0.972900 0.175537 -0.149170 
vn -0.732178 0.643555 -0.221924 
vn -0.864502 0.379883 -0.328613 
vn -0.876709 0.479004 -0.036377 
vn -0.507324 0.860596 0.038818 
vn -0.732178 0.643555 -0.221924 
vn -0.876709 0.479004 -0.036377 
vn -0.075928 0.995850 -0.045654 
vn -0.218262 0.974854 -0.041748 
vn -0.223389 0.974365 0.012695 
vn 0.047119 0.998535 0.024414 
vn -0.075928 0.995850 -0.045654 
vn -0.223389 0.974365 0.012695 
vn 0.225830 0.973145 -0.043457 
vn -0.075928 0.995850 -0.045654 
vn 0.047119 0.998535 0.024414 
vn 0.229736 0.972168 0.042725 
vn 0.225830 0.973145 -0.043457 
vn 0.047119 0.998535 0.024414 
vn 0.822754 0.463867 -0.327881 
vn 0.797363 0.556641 -0.232666 
vn 0.538086 0.840088 -0.066650 
vn 0.813232 0.581055 -0.028809 
vn 0.822754 0.463867 -0.327881 
vn 0.538086 0.840088 -0.066650 
vn 0.893311 0.262451 -0.364502 
vn 0.822754 0.463867 -0.327881 
vn 0.813232 0.581055 -0.028809 
vn 0.982910 0.182129 0.019287 
vn 0.893311 0.262451 -0.364502 
vn 0.813232 0.581055 -0.028809 
vn -0.752441 0.243652 -0.611816 
vn -0.758057 0.061768 -0.648926 
vn -0.893311 0.218994 -0.392334 
vn -0.864502 0.379883 -0.328613 
vn -0.752441 0.243652 -0.611816 
vn -0.893311 0.218994 -0.392334 
vn -0.700439 0.447998 -0.555176 
vn -0.752441 0.243652 -0.611816 
vn -0.864502 0.379883 -0.328613 
vn -0.732178 0.643555 -0.221924 
vn -0.700439 0.447998 -0.555176 
vn -0.864502 0.379883 -0.328613 
vn 0.779541 0.308594 -0.544922 
vn 0.675049 0.415771 -0.609131 
vn 0.797363 0.556641 -0.232666 
vn 0.822754 0.463867 -0.327881 
vn 0.779541 0.308594 -0.544922 
vn 0.797363 0.556641 -0.232666 
vn 0.825195 0.152588 -0.543701 
vn 0.779541 0.308594 -0.544922 
vn 0.822754 0.463867 -0.327881 
vn 0.893311 0.262451 -0.364502 
vn 0.825195 0.152588 -0.543701 
vn 0.822754 0.463867 -0.327881 
vn -0.758057 0.061768 -0.648926 
vn -0.752441 0.243652 -0.611816 
vn -0.554199 0.158203 -0.816895 
vn -0.752441 0.243652 -0.611816 
vn -0.700439 0.447998 -0.555176 
vn -0.554199 0.158203 -0.816895 
vn 0.675049 0.415771 -0.609131 
vn 0.779541 0.308594 -0.544922 
vn 0.616943 0.175293 -0.766846 
vn 0.779541 0.308594 -0.544922 
vn 0.825195 0.152588 -0.543701 
vn 0.616943 0.175293 -0.766846 
vn 0.996094 0.050537 0.072021 
vn 0.996094 0.050537 0.072021 
vn 0.996094 0.050537 0.072021 
vn 0.995850 0.043945 0.078613 
vn 0.995850 0.043945 0.078613 
vn 0.995850 0.043945 0.078613 
vn -0.990479 0.136719 -0.001221 
vn -0.990479 0.136719 -0.001221 
vn -0.990479 0.136719 -0.001221 
vn -0.999756 0.000732 0.001221 
vn -0.999756 0.000732 0.001221 
vn -0.999756 0.000732 0.001221 
vn 0.992920 0.067139 0.095459 
vn 0.992920 0.067139 0.095459 
vn 0.992920 0.067139 0.095459 
vn -0.999512 0.017334 0.024902 
vn -0.999512 0.017334 0.024902 
vn -0.999512 0.017334 0.024902 
vn -0.050537 0.993408 0.102051 
vn -0.507324 0.860596 0.038818 
vn -0.394531 0.905518 0.154785 
vn -0.394531 0.905518 0.154785 
vn -0.507324 0.860596 0.038818 
vn -0.691895 0.601562 0.398682 
vn 0.001953 0.991455 0.129639 
vn 0.047119 0.998535 0.024414 
vn -0.223389 0.974365 0.012695 
vn 0.229736 0.972168 0.042725 
vn 0.047119 0.998535 0.024414 
vn 0.001953 0.991455 0.129639 
vn 0.361084 0.921875 0.139648 
vn 0.538086 0.840088 -0.066650 
vn -0.050537 0.993408 0.102051 
vn 0.813232 0.581055 -0.028809 
vn 0.538086 0.840088 -0.066650 
vn 0.361084 0.921875 0.139648 
vn 0.032715 0.999023 -0.020264 
vn 0.032715 0.999023 -0.020264 
vn 0.032715 0.999023 -0.020264 
vn -0.256836 0.965332 -0.041504 
vn -0.256836 0.965332 -0.041504 
vn -0.256836 0.965332 -0.041504 
vn 0.205322 0.978271 -0.020752 
vn 0.205322 0.978271 -0.020752 
vn 0.205322 0.978271 -0.020752 
vn -0.032959 0.998535 -0.042480 
vn -0.032959 0.998535 -0.042480 
vn -0.032959 0.998535 -0.042480 
vn -0.161133 0.986572 0.024658 
vn -0.161133 0.986572 0.024658 
vn -0.161133 0.986572 0.024658 
vn 0.122070 0.969482 -0.211914 
vn 0.122070 0.969482 -0.211914 
vn 0.122070 0.969482 -0.211914 
vn -0.035645 0.976074 -0.213379 
vn -0.035645 0.976074 -0.213379 
vn -0.035645 0.976074 -0.213379 
vn 0.133545 0.990234 0.033691 
vn 0.133545 0.990234 0.033691 
vn 0.133545 0.990234 0.033691 
vn 0.013916 0.895996 0.443359 
vn -0.391846 0.843018 0.367676 
vn -0.358643 0.596680 0.717529 
vn -0.358643 0.596680 0.717529 
vn -0.391846 0.843018 0.367676 
vn -0.691895 0.601562 0.398682 
vn 0.048584 0.643555 0.763672 
vn 0.013916 0.895996 0.443359 
vn -0.358643 0.596680 0.717529 
vn 0.375977 0.824463 0.422607 
vn 0.013916 0.895996 0.443359 
vn 0.048584 0.643555 0.763672 
vn 0.323486 0.574463 0.751709 
vn 0.375977 0.824463 0.422607 
vn 0.048584 0.643555 0.763672 
vn 0.721191 0.511475 0.466797 
vn 0.375977 0.824463 0.422607 
vn 0.323486 0.574463 0.751709 
vn 0.721191 0.511475 0.466797 
vn 0.438477 0.846924 0.299805 
vn 0.375977 0.824463 0.422607 
vn 0.361084 0.921875 0.139648 
vn -0.050537 0.993408 0.102051 
vn -0.027588 0.965088 0.260254 
vn -0.027588 0.965088 0.260254 
vn -0.050537 0.993408 0.102051 
vn -0.357178 0.893311 0.271729 
vn 0.438477 0.846924 0.299805 
vn 0.361084 0.921875 0.139648 
vn -0.027588 0.965088 0.260254 
vn -0.050537 0.993408 0.102051 
vn -0.394531 0.905518 0.154785 
vn -0.357178 0.893311 0.271729 
vn -0.357178 0.893311 0.271729 
vn -0.394531 0.905518 0.154785 
vn -0.691895 0.601562 0.398682 
vt 0.158730 0.809524 
vt 0.000000 0.809524 
vt 0.000000 1.000000 
vt 0.222222 0.984127 
vt 0.158730 0.809524 
vt 0.000000 1.000000 
vt 0.365079 0.857143 
vt 0.158730 0.809524 
vt 0.222222 0.984127 
vt 0.365079 1.000000 
vt 0.365079 0.857143 
vt 0.222222 0.984127 
vt 0.492063 0.857143 
vt 0.365079 0.857143 
vt 0.365079 1.000000 
vt 0.492063 1.000000 
vt 0.492063 0.857143 
vt 0.365079 1.000000 
vt 0.619048 0.857143 
vt 0.492063 0.857143 
vt 0.492063 1.000000 
vt 0.619048 1.000000 
vt 0.619048 0.857143 
vt 0.492063 1.000000 
vt 0.825397 0.825397 
vt 0.619048 0.857143 
vt 0.619048 1.000000 
vt 0.793651 1.000000 
vt 0.825397 0.825397 
vt 0.619048 1.000000 
vt 1.000000 0.809524 
vt 0.825397 0.825397 
vt 0.793651 1.000000 
vt 1.000000 1.000000 
vt 1.000000 0.809524 
vt 0.793651 1.000000 
vt 0.079365 0.492063 
vt 0.000000 0.492063 
vt 0.000000 0.809524 
vt 0.158730 0.809524 
vt 0.079365 0.492063 
vt 0.000000 0.809524 
vt 0.349206 0.476190 
vt 0.079365 0.492063 
vt 0.158730 0.809524 
vt 0.317460 0.841270 
vt 0.365079 0.809524 
vt 0.158730 0.809524 
vt 0.492063 0.793651 
vt 0.365079 0.809524 
vt 0.317460 0.841270 
vt 0.492063 0.825397 
vt 0.492063 0.793651 
vt 0.317460 0.841270 
vt 0.619048 0.793651 
vt 0.492063 0.793651 
vt 0.492063 0.825397 
vt 0.650794 0.841270 
vt 0.619048 0.793651 
vt 0.492063 0.825397 
vt 0.873016 0.444444 
vt 0.634921 0.619048 
vt 0.619048 0.793651 
vt 0.825397 0.825397 
vt 0.873016 0.444444 
vt 0.619048 0.793651 
vt 1.000000 0.492063 
vt 0.873016 0.444444 
vt 0.825397 0.825397 
vt 1.000000 0.809524 
vt 1.000000 0.492063 
vt 0.825397 0.825397 
vt 0.079365 0.222222 
vt 0.000000 0.222222 
vt 0.000000 0.492063 
vt 0.079365 0.492063 
vt 0.079365 0.222222 
vt 0.000000 0.492063 
vt 0.317460 0.206349 
vt 0.079365 0.222222 
vt 0.079365 0.492063 
vt 0.349206 0.476190 
vt 0.317460 0.206349 
vt 0.079365 0.492063 
vt 0.492063 0.111111 
vt 0.317460 0.111111 
vt 0.349206 0.380952 
vt 0.492063 0.412698 
vt 0.492063 0.111111 
vt 0.349206 0.380952 
vt 0.650794 0.111111 
vt 0.492063 0.111111 
vt 0.492063 0.412698 
vt 0.619048 0.380952 
vt 0.650794 0.111111 
vt 0.492063 0.412698 
vt 0.888889 0.301587 
vt 0.698413 0.222222 
vt 0.634921 0.476190 
vt 0.873016 0.444444 
vt 0.888889 0.301587 
vt 0.634921 0.476190 
vt 1.000000 0.222222 
vt 0.888889 0.301587 
vt 0.873016 0.444444 
vt 1.000000 0.492063 
vt 1.000000 0.222222 
vt 0.873016 0.444444 
vt 0.126984 0.111111 
vt 0.015873 0.063492 
vt 0.000000 0.222222 
vt 0.079365 0.222222 
vt 0.126984 0.111111 
vt 0.000000 0.222222 
vt 0.285714 0.031746 
vt 0.126984 0.111111 
vt 0.079365 0.222222 
vt 0.317460 0.206349 
vt 0.285714 0.031746 
vt 0.079365 0.222222 
vt 0.857143 0.095238 
vt 0.682540 0.015873 
vt 0.698413 0.222222 
vt 0.888889 0.301587 
vt 0.857143 0.095238 
vt 0.698413 0.222222 
vt 0.952381 0.063492 
vt 0.857143 0.095238 
vt 0.888889 0.301587 
vt 1.000000 0.222222 
vt 0.952381 0.063492 
vt 0.888889 0.301587 
vt 0.015873 0.063492 
vt 0.126984 0.111111 
vt 0.269841 -0.015873 
vt 0.126984 0.111111 
vt 0.285714 0.031746 
vt 0.269841 -0.015873 
vt 0.682540 0.015873 
vt 0.857143 0.095238 
vt 0.730159 -0.015873 
vt 0.857143 0.095238 
vt 0.952381 0.063492 
vt 0.730159 -0.015873 
vt 0.301587 0.000000 
vt 0.285714 0.031746 
vt 0.317460 0.206349 
vt 0.317460 0.206349 
vt 0.317460 0.095238 
vt 0.301587 0.000000 
vt 0.650794 0.111111 
vt 0.698413 0.222222 
vt 0.682540 0.015873 
vt 0.682540 0.015873 
vt 0.666667 0.000000 
vt 0.650794 0.111111 
vt 0.285714 0.031746 
vt 0.301587 0.000000 
vt 0.269841 -0.015873 
vt 0.666667 0.000000 
vt 0.682540 0.015873 
vt 0.730159 -0.015873 
vt 0.492063 0.619048 
vt 0.349206 0.476190 
vt 0.333333 0.619048 
vt 0.333333 0.619048 
vt 0.349206 0.476190 
vt 0.158730 0.809524 
vt 0.492063 0.603175 
vt 0.492063 0.412698 
vt 0.349206 0.380952 
vt 0.619048 0.380952 
vt 0.492063 0.412698 
vt 0.492063 0.603175 
vt 0.634921 0.619048 
vt 0.634921 0.476190 
vt 0.492063 0.619048 
vt 0.873016 0.444444 
vt 0.634921 0.476190 
vt 0.634921 0.619048 
vt 0.317460 0.111111 
vt 0.317460 0.206349 
vt 0.349206 0.476190 
vt 0.349206 0.476190 
vt 0.349206 0.380952 
vt 0.317460 0.111111 
vt 0.619048 0.380952 
vt 0.634921 0.476190 
vt 0.698413 0.222222 
vt 0.698413 0.222222 
vt 0.650794 0.111111 
vt 0.619048 0.380952 
vt 0.349206 0.380952 
vt 0.349206 0.476190 
vt 0.492063 0.619048 
vt 0.492063 0.619048 
vt 0.492063 0.603175 
vt 0.349206 0.380952 
vt 0.492063 0.603175 
vt 0.492063 0.619048 
vt 0.634921 0.476190 
vt 0.634921 0.476190 
vt 0.619048 0.380952 
vt 0.492063 0.603175 
vt 0.492063 0.825397 
vt 0.317460 0.841270 
vt 0.365079 0.857143 
vt 0.365079 0.857143 
vt 0.317460 0.841270 
vt 0.158730 0.809524 
vt 0.492063 0.857143 
vt 0.492063 0.825397 
vt 0.365079 0.857143 
vt 0.650794 0.841270 
vt 0.492063 0.825397 
vt 0.492063 0.857143 
vt 0.619048 0.857143 
vt 0.650794 0.841270 
vt 0.492063 0.857143 
vt 0.825397 0.825397 
vt 0.650794 0.841270 
vt 0.619048 0.857143 
vt 0.825397 0.825397 
vt 0.619048 0.793651 
vt 0.650794 0.841270 
vt 0.634921 0.619048 
vt 0.492063 0.619048 
vt 0.492063 0.793651 
vt 0.492063 0.793651 
vt 0.492063 0.619048 
vt 0.365079 0.809524 
vt 0.619048 0.793651 
vt 0.634921 0.619048 
vt 0.492063 0.793651 
vt 0.492063 0.619048 
vt 0.333333 0.619048 
vt 0.365079 0.809524 
vt 0.365079 0.809524 
vt 0.333333 0.619048 
vt 0.158730 0.809524 
f 1/1/1 2/2/2 3/3/3
f 4/4/4 5/5/5 6/6/6
f 7/7/7 8/8/8 9/9/9
f 10/10/10 11/11/11 12/12/12
f 13/13/13 14/14/14 15/15/15
f 16/16/16 17/17/17 18/18/18
f 19/19/19 20/20/20 21/21/21
f 22/22/22 23/23/23 24/24/24
f 25/25/25 26/26/26 27/27/27
f 28/28/28 29/29/29 30/30/30
f 31/31/31 32/32/32 33/33/33
f 34/34/34 35/35/35 36/36/36
f 37/37/37 38/38/38 39/39/39
f 40/40/40 41/41/41 42/42/42
f 43/43/43 44/44/44 45/45/45
f 46/46/46 47/47/47 48/48/48
f 49/49/49 50/50/50 51/51/51
f 52/52/52 53/53/53 54/54/54
f 55/55/55 56/56/56 57/57/57
f 58/58/58 59/59/59 60/60/60
f 61/61/61 62/62/62 63/63/63
f 64/64/64 65/65/65 66/66/66
f 67/67/67 68/68/68 69/69/69
f 70/70/70 71/71/71 72/72/72
f 73/73/73 74/74/74 75/75/75
f 76/76/76 77/77/77 78/78/78
f 79/79/79 80/80/80 81/81/81
f 82/82/82 83/83/83 84/84/84
f 85/85/85 86/86/86 87/87/87
f 88/88/88 89/89/89 90/90/90
f 91/91/91 92/92/92 93/93/93
f 94/94/94 95/95/95 96/96/96
f 97/97/97 98/98/98 99/99/99
f 100/100/100 101/101/101 102/102/102
f 103/103/103 104/104/104 105/105/105
f 106/106/106 107/107/107 108/108/108
f 109/109/109 110/110/110 111/111/111
f 112/112/112 113/113/113 114/114/114
f 115/115/115 116/116/116 117/117/117
f 118/118/118 119/119/119 120/120/120
f 121/121/121 122/122/122 123/123/123
f 124/124/124 125/125/125 126/126/126
f 127/127/127 128/128/128 129/129/129
f 130/130/130 131/131/131 132/132/132
f 133/133/133 134/134/134 135/135/135
f 136/136/136 137/137/137 138/138/138
f 139/139/139 140/140/140 141/141/141
f 142/142/142 143/143/143 144/144/144
f 145/145/145 146/146/146 147/147/147
f 148/148/148 149/149/149 150/150/150
f 151/151/151 152/152/152 153/153/153
f 154/154/154 155/155/155 156/156/156
f 157/157/157 158/158/158 159/159/159
f 160/160/160 161/161/161 162/162/162
f 163/163/163 164/164/164 165/165/165
f 166/166/166 167/167/167 168/168/168
f 169/169/169 170/170/170 171/171/171
f 172/172/172 173/173/173 174/174/174
f 175/175/175 176/176/176 177/177/177
f 178/178/178 179/179/179 180/180/180
f 181/181/181 182/182/182 183/183/183
f 184/184/184 185/185/185 186/186/186
f 187/187/187 188/188/188 189/189/189
f 190/190/190 191/191/191 192/192/192
f 193/193/193 194/194/194 195/195/195
f 196/196/196 197/197/197 198/198/198
f 199/199/199 200/200/200 201/201/201
f 202/202/202 203/203/203 204/204/204
f 205/205/205 206/206/206 207/207/207
f 208/208/208 209/209/209 210/210/210
f 211/211/211 212/212/212 213/213/213
f 214/214/214 215/215/215 216/216/216
f 217/217/217 218/218/218 219/219/219
f 220/220/220 221/221/221 222/222/222
f 223/223/223 224/224/224 225/225/225
f 226/226/226 227/227/227 228/228/228
f 229/229/229 230/230/230 231/231/231
f 232/232/232 233/233/233 234/234/234
f 235/235/235 236/236/236 237/237/237
f 238/238/238 239/239/239 240/240/240
