v -196.000000 39.000000 -195.000000 
v -193.000000 0.000000 -201.000000 
v -254.000000 0.000000 -113.000000 
v -207.000000 83.000000 -153.000000 
v -196.000000 39.000000 -195.000000 
v -254.000000 0.000000 -113.000000 
v -230.000000 100.000000 -102.000000 
v -207.000000 83.000000 -153.000000 
v -254.000000 0.000000 -113.000000 
v -107.000000 54.000000 -219.000000 
v -100.000000 0.000000 -234.000000 
v -193.000000 0.000000 -201.000000 
v -196.000000 39.000000 -195.000000 
v -107.000000 54.000000 -219.000000 
v -193.000000 0.000000 -201.000000 
v -108.000000 106.000000 -181.000000 
v -107.000000 54.000000 -219.000000 
v -196.000000 39.000000 -195.000000 
v -207.000000 83.000000 -153.000000 
v -108.000000 106.000000 -181.000000 
v -196.000000 39.000000 -195.000000 
v -135.000000 166.000000 -119.000000 
v -108.000000 106.000000 -181.000000 
v -207.000000 83.000000 -153.000000 
v -230.000000 100.000000 -102.000000 
v -135.000000 166.000000 -119.000000 
v -207.000000 83.000000 -153.000000 
v -161.000000 179.000000 -71.000000 
v -135.000000 166.000000 -119.000000 
v -230.000000 100.000000 -102.000000 
v -135.000000 166.000000 -119.000000 
v -56.000000 144.000000 -74.000000 
v -108.000000 106.000000 -181.000000 
v -161.000000 179.000000 -71.000000 
v -56.000000 144.000000 -74.000000 
v -135.000000 166.000000 -119.000000 
v -279.000000 0.000000 -9.000000 
v -276.000000 39.000000 -14.000000 
v -254.000000 0.000000 -113.000000 
v -276.000000 39.000000 -14.000000 
v -252.000000 83.000000 -51.000000 
v -254.000000 0.000000 -113.000000 
v -252.000000 83.000000 -51.000000 
v -230.000000 100.000000 -102.000000 
v -254.000000 0.000000 -113.000000 
v -161.000000 179.000000 -71.000000 
v -230.000000 100.000000 -102.000000 
v -252.000000 83.000000 -51.000000 
v -45.000000 54.000000 -76.000000 
v -36.000000 -7.000000 -68.000000 
v -100.000000 0.000000 -234.000000 
v -107.000000 54.000000 -219.000000 
v -45.000000 54.000000 -76.000000 
v -100.000000 0.000000 -234.000000 
v -56.000000 144.000000 -74.000000 
v -45.000000 54.000000 -76.000000 
v -107.000000 54.000000 -219.000000 
v -108.000000 106.000000 -181.000000 
v -56.000000 144.000000 -74.000000 
v -107.000000 54.000000 -219.000000 
v -252.000000 83.000000 -51.000000 
v -45.000000 54.000000 -76.000000 
v -56.000000 144.000000 -74.000000 
v -161.000000 179.000000 -71.000000 
v -252.000000 83.000000 -51.000000 
v -56.000000 144.000000 -74.000000 
v -252.000000 83.000000 -51.000000 
v -162.000000 -7.000000 -33.000000 
v -36.000000 -7.000000 -68.000000 
v -45.000000 54.000000 -76.000000 
v -252.000000 83.000000 -51.000000 
v -36.000000 -7.000000 -68.000000 
v -276.000000 39.000000 -14.000000 
v -279.000000 0.000000 -9.000000 
v -162.000000 -7.000000 -33.000000 
v -252.000000 83.000000 -51.000000 
v -276.000000 39.000000 -14.000000 
v -162.000000 -7.000000 -33.000000 
vn -0.529541 0.345947 -0.774170 
vn -0.460693 0.123047 -0.878662 
vn -0.896240 0.192871 -0.398926 
vn -0.593750 0.518799 -0.614502 
vn -0.529541 0.345947 -0.774170 
vn -0.896240 0.192871 -0.398926 
vn -0.738770 0.555176 -0.381836 
vn -0.593750 0.518799 -0.614502 
vn -0.896240 0.192871 -0.398926 
vn -0.259277 0.302246 -0.916992 
vn -0.272461 0.201172 -0.940674 
vn -0.460693 0.123047 -0.878662 
vn -0.529541 0.345947 -0.774170 
vn -0.259277 0.302246 -0.916992 
vn -0.460693 0.123047 -0.878662 
vn -0.103516 0.664062 -0.740234 
vn -0.259277 0.302246 -0.916992 
vn -0.529541 0.345947 -0.774170 
vn -0.593750 0.518799 -0.614502 
vn -0.103516 0.664062 -0.740234 
vn -0.529541 0.345947 -0.774170 
vn -0.133057 0.837891 -0.529053 
vn -0.103516 0.664062 -0.740234 
vn -0.593750 0.518799 -0.614502 
vn -0.738770 0.555176 -0.381836 
vn -0.133057 0.837891 -0.529053 
vn -0.593750 0.518799 -0.614502 
vn -0.359863 0.898682 -0.250244 
vn -0.133057 0.837891 -0.529053 
vn -0.738770 0.555176 -0.381836 
vn -0.133057 0.837891 -0.529053 
vn 0.403564 0.858887 -0.314697 
vn -0.103516 0.664062 -0.740234 
vn -0.359863 0.898682 -0.250244 
vn 0.403564 0.858887 -0.314697 
vn -0.133057 0.837891 -0.529053 
vn -0.977539 0.029785 -0.208252 
vn -0.956055 0.147949 -0.252686 
vn -0.896240 0.192871 -0.398926 
vn -0.956055 0.147949 -0.252686 
vn -0.874023 0.425293 -0.234131 
vn -0.896240 0.192871 -0.398926 
vn -0.874023 0.425293 -0.234131 
vn -0.738770 0.555176 -0.381836 
vn -0.896240 0.192871 -0.398926 
vn -0.359863 0.898682 -0.250244 
vn -0.738770 0.555176 -0.381836 
vn -0.874023 0.425293 -0.234131 
vn 0.893066 0.138916 -0.427490 
vn 0.909912 0.086914 -0.405029 
vn 0.894775 0.149414 -0.420654 
vn 0.842773 0.242920 -0.479736 
vn 0.893066 0.138916 -0.427490 
vn 0.894775 0.149414 -0.420654 
vn 0.824951 0.258545 -0.502197 
vn 0.893066 0.138916 -0.427490 
vn 0.842773 0.242920 -0.479736 
vn 0.737793 0.391846 -0.549316 
vn 0.824951 0.258545 -0.502197 
vn 0.842773 0.242920 -0.479736 
vn 0.135986 0.242188 0.960449 
vn 0.078369 0.068359 0.994385 
vn 0.047852 0.064453 0.996582 
vn 0.026855 0.134033 0.990479 
vn 0.135986 0.242188 0.960449 
vn 0.047852 0.064453 0.996582 
vn 0.135986 0.242188 0.960449 
vn 0.215332 0.351318 0.910889 
vn 0.143799 0.283203 0.947998 
vn 0.078369 0.068359 0.994385 
vn 0.135986 0.242188 0.960449 
vn 0.143799 0.283203 0.947998 
vn 0.224609 0.316650 0.921387 
vn 0.155762 0.126709 0.979492 
vn 0.215332 0.351318 0.910889 
vn 0.135986 0.242188 0.960449 
vn 0.224609 0.316650 0.921387 
vn 0.215332 0.351318 0.910889 
vt 0.480315 0.039216 
vt 0.606299 0.000000 
vt 0.000000 0.000000 
vt 0.244094 0.054902 
vt 0.480315 0.039216 
vt 0.000000 0.000000 
vt 0.000000 0.054902 
vt 0.244094 0.054902 
vt 0.000000 0.000000 
vt 0.677165 0.133333 
vt 0.874016 0.082353 
vt 0.606299 0.000000 
vt 0.480315 0.039216 
vt 0.677165 0.133333 
vt 0.606299 0.000000 
vt 0.488189 0.168627 
vt 0.677165 0.133333 
vt 0.480315 0.039216 
vt 0.244094 0.054902 
vt 0.488189 0.168627 
vt 0.480315 0.039216 
vt 0.236220 0.168627 
vt 0.488189 0.168627 
vt 0.244094 0.054902 
vt 0.000000 0.054902 
vt 0.236220 0.168627 
vt 0.244094 0.054902 
vt 0.000000 0.160784 
vt 0.236220 0.168627 
vt 0.000000 0.054902 
vt 0.236220 0.168627 
vt 0.196850 0.333333 
vt 0.488189 0.168627 
vt 0.000000 0.160784 
vt 0.196850 0.333333 
vt 0.236220 0.168627 
vt 0.606299 0.000000 
vt 0.480315 0.039216 
vt 0.000000 0.000000 
vt 0.480315 0.039216 
vt 0.244094 0.054902 
vt 0.000000 0.000000 
vt 0.244094 0.054902 
vt 0.000000 0.054902 
vt 0.000000 0.000000 
vt 0.000000 0.160784 
vt 0.000000 0.054902 
vt 0.244094 0.054902 
vt 0.433071 0.556863 
vt 0.204724 0.509804 
vt 0.551181 0.047059 
vt 0.716535 0.109804 
vt 0.433071 0.556863 
vt 0.551181 0.047059 
vt 0.716535 0.631373 
vt 0.433071 0.556863 
vt 0.716535 0.109804 
vt 0.850394 0.278431 
vt 0.716535 0.631373 
vt 0.716535 0.109804 
vt 0.755906 0.152941 
vt 0.409449 0.572549 
vt 0.692913 0.623529 
vt 0.850394 0.419608 
vt 0.755906 0.152941 
vt 0.692913 0.623529 
vt 0.755906 0.152941 
vt 0.385827 0.247059 
vt 0.220472 0.498039 
vt 0.409449 0.572549 
vt 0.755906 0.152941 
vt 0.220472 0.498039 
vt 0.653543 0.058824 
vt 0.559055 0.023529 
vt 0.385827 0.247059 
vt 0.755906 0.152941 
vt 0.653543 0.058824 
vt 0.385827 0.247059 
f 1/1/1 2/2/2 3/3/3
f 4/4/4 5/5/5 6/6/6
f 7/7/7 8/8/8 9/9/9
f 10/10/10 11/11/11 12/12/12
f 13/13/13 14/14/14 15/15/15
f 16/16/16 17/17/17 18/18/18
f 19/19/19 20/20/20 21/21/21
f 22/22/22 23/23/23 24/24/24
f 25/25/25 26/26/26 27/27/27
f 28/28/28 29/29/29 30/30/30
f 31/31/31 32/32/32 33/33/33
f 34/34/34 35/35/35 36/36/36
f 37/37/37 38/38/38 39/39/39
f 40/40/40 41/41/41 42/42/42
f 43/43/43 44/44/44 45/45/45
f 46/46/46 47/47/47 48/48/48
f 49/49/49 50/50/50 51/51/51
f 52/52/52 53/53/53 54/54/54
f 55/55/55 56/56/56 57/57/57
f 58/58/58 59/59/59 60/60/60
f 61/61/61 62/62/62 63/63/63
f 64/64/64 65/65/65 66/66/66
f 67/67/67 68/68/68 69/69/69
f 70/70/70 71/71/71 72/72/72
f 73/73/73 74/74/74 75/75/75
f 76/76/76 77/77/77 78/78/78
