v 84.000000 0.000000 0.000000 
v 91.000000 -4.000000 -11.000000 
v 91.000000 -3.000000 10.000000 
v 101.000000 0.000000 12.000000 
v 91.000000 -3.000000 10.000000 
v 91.000000 -4.000000 -11.000000 
v 91.000000 -4.000000 -11.000000 
v 101.000000 -1.000000 -10.000000 
v 101.000000 0.000000 12.000000 
v 115.000000 -2.000000 10.000000 
v 101.000000 0.000000 12.000000 
v 101.000000 -1.000000 -10.000000 
v 101.000000 -1.000000 -10.000000 
v 115.000000 -1.000000 -8.000000 
v 115.000000 -2.000000 10.000000 
v 91.000000 3.000000 10.000000 
v 91.000000 7.000000 -11.000000 
v 84.000000 0.000000 0.000000 
v 101.000000 5.000000 12.000000 
v 101.000000 6.000000 -10.000000 
v 91.000000 7.000000 -11.000000 
v 91.000000 7.000000 -11.000000 
v 91.000000 3.000000 10.000000 
v 101.000000 5.000000 12.000000 
v 115.000000 4.000000 10.000000 
v 115.000000 5.000000 -8.000000 
v 101.000000 6.000000 -10.000000 
v 101.000000 6.000000 -10.000000 
v 101.000000 5.000000 12.000000 
v 115.000000 4.000000 10.000000 
v 91.000000 7.000000 -11.000000 
v 91.000000 -4.000000 -11.000000 
v 84.000000 0.000000 0.000000 
v 109.000000 -3.000000 -19.000000 
v 109.000000 -9.000000 -19.000000 
v 105.000000 -9.000000 -24.000000 
v 105.000000 -9.000000 -24.000000 
v 105.000000 -3.000000 -24.000000 
v 109.000000 -3.000000 -19.000000 
v 115.000000 5.000000 -8.000000 
v 115.000000 -1.000000 -8.000000 
v 101.000000 -1.000000 -10.000000 
v 101.000000 -1.000000 -10.000000 
v 101.000000 6.000000 -10.000000 
v 115.000000 5.000000 -8.000000 
v 125.000000 -5.000000 8.000000 
v 120.000000 -6.000000 8.000000 
v 121.000000 -5.000000 -8.000000 
v 121.000000 -5.000000 -8.000000 
v 126.000000 -4.000000 -8.000000 
v 125.000000 -5.000000 8.000000 
v 101.000000 5.000000 12.000000 
v 101.000000 0.000000 12.000000 
v 115.000000 -2.000000 10.000000 
v 115.000000 -2.000000 10.000000 
v 115.000000 4.000000 10.000000 
v 101.000000 5.000000 12.000000 
v 91.000000 3.000000 10.000000 
v 91.000000 -3.000000 10.000000 
v 101.000000 0.000000 12.000000 
v 101.000000 0.000000 12.000000 
v 101.000000 5.000000 12.000000 
v 91.000000 3.000000 10.000000 
v 91.000000 -3.000000 10.000000 
v 91.000000 3.000000 10.000000 
v 84.000000 0.000000 0.000000 
v 120.000000 -6.000000 8.000000 
v 115.000000 -2.000000 10.000000 
v 115.000000 -1.000000 -8.000000 
v 115.000000 -1.000000 -8.000000 
v 121.000000 -5.000000 -8.000000 
v 120.000000 -6.000000 8.000000 
v 126.000000 -4.000000 -8.000000 
v 115.000000 5.000000 -8.000000 
v 115.000000 4.000000 10.000000 
v 115.000000 4.000000 10.000000 
v 125.000000 -5.000000 8.000000 
v 126.000000 -4.000000 -8.000000 
v 121.000000 -5.000000 -8.000000 
v 115.000000 -1.000000 -8.000000 
v 115.000000 5.000000 -8.000000 
v 115.000000 5.000000 -8.000000 
v 126.000000 -4.000000 -8.000000 
v 121.000000 -5.000000 -8.000000 
v 125.000000 -5.000000 8.000000 
v 115.000000 4.000000 10.000000 
v 115.000000 -2.000000 10.000000 
v 115.000000 -2.000000 10.000000 
v 120.000000 -6.000000 8.000000 
v 125.000000 -5.000000 8.000000 
v 103.000000 -6.000000 -15.000000 
v 101.000000 -1.000000 -10.000000 
v 91.000000 -4.000000 -11.000000 
v 91.000000 -4.000000 -11.000000 
v 100.000000 -6.000000 -19.000000 
v 103.000000 -6.000000 -15.000000 
v 100.000000 0.000000 -19.000000 
v 91.000000 7.000000 -11.000000 
v 101.000000 6.000000 -10.000000 
v 101.000000 6.000000 -10.000000 
v 103.000000 0.000000 -15.000000 
v 100.000000 0.000000 -19.000000 
v 100.000000 -6.000000 -19.000000 
v 91.000000 -4.000000 -11.000000 
v 91.000000 7.000000 -11.000000 
v 91.000000 7.000000 -11.000000 
v 100.000000 0.000000 -19.000000 
v 100.000000 -6.000000 -19.000000 
v 103.000000 0.000000 -15.000000 
v 101.000000 6.000000 -10.000000 
v 101.000000 -1.000000 -10.000000 
v 101.000000 -1.000000 -10.000000 
v 103.000000 -6.000000 -15.000000 
v 103.000000 0.000000 -15.000000 
v 109.000000 -9.000000 -19.000000 
v 103.000000 -6.000000 -15.000000 
v 100.000000 -6.000000 -19.000000 
v 100.000000 -6.000000 -19.000000 
v 105.000000 -9.000000 -24.000000 
v 109.000000 -9.000000 -19.000000 
v 109.000000 -3.000000 -19.000000 
v 103.000000 0.000000 -15.000000 
v 103.000000 -6.000000 -15.000000 
v 103.000000 -6.000000 -15.000000 
v 109.000000 -9.000000 -19.000000 
v 109.000000 -3.000000 -19.000000 
v 105.000000 -3.000000 -24.000000 
v 100.000000 0.000000 -19.000000 
v 103.000000 0.000000 -15.000000 
v 103.000000 0.000000 -15.000000 
v 109.000000 -3.000000 -19.000000 
v 105.000000 -3.000000 -24.000000 
v 105.000000 -9.000000 -24.000000 
v 100.000000 -6.000000 -19.000000 
v 100.000000 0.000000 -19.000000 
v 100.000000 0.000000 -19.000000 
v 105.000000 -3.000000 -24.000000 
v 105.000000 -9.000000 -24.000000 
vn -0.995605 -0.022949 0.090332 
vn -0.307129 -0.947266 -0.089111 
vn -0.434814 -0.665039 0.606689 
vn 0.048584 -0.685059 0.726562 
vn -0.434814 -0.665039 0.606689 
vn -0.307129 -0.947266 -0.089111 
vn -0.307129 -0.947266 -0.089111 
vn 0.541260 -0.833008 -0.113525 
vn 0.048584 -0.685059 0.726562 
vn -0.030762 -0.612061 0.790039 
vn 0.048584 -0.685059 0.726562 
vn 0.541260 -0.833008 -0.113525 
vn 0.541260 -0.833008 -0.113525 
vn -0.292969 -0.739746 -0.605469 
vn -0.030762 -0.612061 0.790039 
vn -0.503906 0.454834 0.733887 
vn -0.543213 0.714355 -0.440430 
vn -0.995605 -0.022949 0.090332 
vn 0.001221 0.674805 0.737793 
vn 0.386475 0.870117 -0.305176 
vn -0.543213 0.714355 -0.440430 
vn -0.543213 0.714355 -0.440430 
vn -0.503906 0.454834 0.733887 
vn 0.001221 0.674805 0.737793 
vn 0.390381 0.778320 0.491211 
vn 0.209961 0.395996 -0.893799 
vn 0.386475 0.870117 -0.305176 
vn 0.386475 0.870117 -0.305176 
vn 0.001221 0.674805 0.737793 
vn 0.390381 0.778320 0.491211 
vn -0.543213 0.714355 -0.440430 
vn -0.307129 -0.947266 -0.089111 
vn -0.995605 -0.022949 0.090332 
vn 0.962158 0.270020 0.031494 
vn 0.346436 -0.880615 0.322510 
vn 0.005859 -0.336670 -0.941406 
vn 0.005859 -0.336670 -0.941406 
vn 0.304443 0.648193 -0.697754 
vn 0.962158 0.270020 0.031494 
vn 0.209961 0.395996 -0.893799 
vn -0.292969 -0.739746 -0.605469 
vn 0.541260 -0.833008 -0.113525 
vn 0.541260 -0.833008 -0.113525 
vn 0.386475 0.870117 -0.305176 
vn 0.209961 0.395996 -0.893799 
vn 0.529541 -0.497314 0.687012 
vn -0.264160 -0.922607 0.280518 
vn 0.008789 -0.790283 -0.612305 
vn 0.008789 -0.790283 -0.612305 
vn 0.844971 0.249756 -0.472168 
vn 0.529541 -0.497314 0.687012 
vn 0.001221 0.674805 0.737793 
vn 0.048584 -0.685059 0.726562 
vn -0.030762 -0.612061 0.790039 
vn -0.030762 -0.612061 0.790039 
vn 0.390381 0.778320 0.491211 
vn 0.001221 0.674805 0.737793 
vn -0.503906 0.454834 0.733887 
vn -0.434814 -0.665039 0.606689 
vn 0.048584 -0.685059 0.726562 
vn 0.048584 -0.685059 0.726562 
vn 0.001221 0.674805 0.737793 
vn -0.503906 0.454834 0.733887 
vn -0.434814 -0.665039 0.606689 
vn -0.503906 0.454834 0.733887 
vn -0.995605 -0.022949 0.090332 
vn -0.264160 -0.922607 0.280518 
vn -0.030762 -0.612061 0.790039 
vn -0.292969 -0.739746 -0.605469 
vn -0.292969 -0.739746 -0.605469 
vn 0.008789 -0.790283 -0.612305 
vn -0.264160 -0.922607 0.280518 
vn 0.844971 0.249756 -0.472168 
vn 0.209961 0.395996 -0.893799 
vn 0.390381 0.778320 0.491211 
vn 0.390381 0.778320 0.491211 
vn 0.529541 -0.497314 0.687012 
vn 0.844971 0.249756 -0.472168 
vn 0.008789 -0.790283 -0.612305 
vn -0.292969 -0.739746 -0.605469 
vn 0.209961 0.395996 -0.893799 
vn 0.209961 0.395996 -0.893799 
vn 0.844971 0.249756 -0.472168 
vn 0.008789 -0.790283 -0.612305 
vn 0.529541 -0.497314 0.687012 
vn 0.390381 0.778320 0.491211 
vn -0.030762 -0.612061 0.790039 
vn -0.030762 -0.612061 0.790039 
vn -0.264160 -0.922607 0.280518 
vn 0.529541 -0.497314 0.687012 
vn 0.416748 -0.611328 0.672607 
vn 0.541260 -0.833008 -0.113525 
vn -0.307129 -0.947266 -0.089111 
vn -0.307129 -0.947266 -0.089111 
vn -0.648438 -0.645752 -0.402344 
vn 0.416748 -0.611328 0.672607 
vn -0.187988 0.523682 -0.830566 
vn -0.543213 0.714355 -0.440430 
vn 0.386475 0.870117 -0.305176 
vn 0.386475 0.870117 -0.305176 
vn 0.835938 0.538086 0.105469 
vn -0.187988 0.523682 -0.830566 
vn -0.648438 -0.645752 -0.402344 
vn -0.307129 -0.947266 -0.089111 
vn -0.543213 0.714355 -0.440430 
vn -0.543213 0.714355 -0.440430 
vn -0.187988 0.523682 -0.830566 
vn -0.648438 -0.645752 -0.402344 
vn 0.835938 0.538086 0.105469 
vn 0.386475 0.870117 -0.305176 
vn 0.541260 -0.833008 -0.113525 
vn 0.541260 -0.833008 -0.113525 
vn 0.416748 -0.611328 0.672607 
vn 0.835938 0.538086 0.105469 
vn 0.346436 -0.880615 0.322510 
vn 0.416748 -0.611328 0.672607 
vn -0.648438 -0.645752 -0.402344 
vn -0.648438 -0.645752 -0.402344 
vn 0.005859 -0.336670 -0.941406 
vn 0.346436 -0.880615 0.322510 
vn 0.962158 0.270020 0.031494 
vn 0.835938 0.538086 0.105469 
vn 0.416748 -0.611328 0.672607 
vn 0.416748 -0.611328 0.672607 
vn 0.346436 -0.880615 0.322510 
vn 0.962158 0.270020 0.031494 
vn 0.304443 0.648193 -0.697754 
vn -0.187988 0.523682 -0.830566 
vn 0.835938 0.538086 0.105469 
vn 0.835938 0.538086 0.105469 
vn 0.962158 0.270020 0.031494 
vn 0.304443 0.648193 -0.697754 
vn 0.005859 -0.336670 -0.941406 
vn -0.648438 -0.645752 -0.402344 
vn -0.187988 0.523682 -0.830566 
vn -0.187988 0.523682 -0.830566 
vn 0.304443 0.648193 -0.697754 
vn 0.005859 -0.336670 -0.941406 
vt 0.496063 0.126984 
vt 0.456693 0.142857 
vt 0.527559 0.142857 
vt 0.527559 0.190476 
vt 0.527559 0.142857 
vt 0.456693 0.142857 
vt 0.456693 0.142857 
vt 0.456693 0.174603 
vt 0.527559 0.190476 
vt 0.519685 0.222222 
vt 0.527559 0.190476 
vt 0.456693 0.174603 
vt 0.456693 0.174603 
vt 0.456693 0.222222 
vt 0.519685 0.222222 
vt 0.527559 0.158730 
vt 0.456693 0.158730 
vt 0.496063 0.126984 
vt 0.527559 0.190476 
vt 0.456693 0.190476 
vt 0.456693 0.158730 
vt 0.456693 0.158730 
vt 0.527559 0.158730 
vt 0.527559 0.190476 
vt 0.519685 0.238095 
vt 0.456693 0.238095 
vt 0.456693 0.190476 
vt 0.456693 0.190476 
vt 0.527559 0.190476 
vt 0.519685 0.238095 
vt 0.456693 0.158730 
vt 0.456693 0.142857 
vt 0.496063 0.126984 
vt 0.425197 0.190476 
vt 0.425197 0.174603 
vt 0.409449 0.174603 
vt 0.409449 0.174603 
vt 0.409449 0.174603 
vt 0.425197 0.190476 
vt 0.456693 0.238095 
vt 0.456693 0.222222 
vt 0.456693 0.174603 
vt 0.456693 0.174603 
vt 0.456693 0.190476 
vt 0.456693 0.238095 
vt 0.511811 0.253968 
vt 0.511811 0.238095 
vt 0.456693 0.222222 
vt 0.456693 0.222222 
vt 0.456693 0.253968 
vt 0.511811 0.253968 
vt 0.527559 0.190476 
vt 0.527559 0.190476 
vt 0.519685 0.222222 
vt 0.519685 0.222222 
vt 0.519685 0.238095 
vt 0.527559 0.190476 
vt 0.527559 0.158730 
vt 0.527559 0.142857 
vt 0.527559 0.190476 
vt 0.527559 0.190476 
vt 0.527559 0.190476 
vt 0.527559 0.158730 
vt 0.527559 0.142857 
vt 0.527559 0.158730 
vt 0.496063 0.126984 
vt 0.511811 0.238095 
vt 0.519685 0.222222 
vt 0.456693 0.222222 
vt 0.456693 0.222222 
vt 0.456693 0.222222 
vt 0.511811 0.238095 
vt 0.456693 0.253968 
vt 0.456693 0.238095 
vt 0.519685 0.238095 
vt 0.519685 0.238095 
vt 0.511811 0.253968 
vt 0.456693 0.253968 
vt 0.456693 0.222222 
vt 0.456693 0.222222 
vt 0.456693 0.238095 
vt 0.456693 0.238095 
vt 0.456693 0.253968 
vt 0.456693 0.222222 
vt 0.511811 0.253968 
vt 0.519685 0.238095 
vt 0.519685 0.222222 
vt 0.519685 0.222222 
vt 0.511811 0.238095 
vt 0.511811 0.253968 
vt 0.440945 0.174603 
vt 0.456693 0.174603 
vt 0.456693 0.142857 
vt 0.456693 0.142857 
vt 0.425197 0.158730 
vt 0.440945 0.174603 
vt 0.425197 0.174603 
vt 0.456693 0.158730 
vt 0.456693 0.190476 
vt 0.456693 0.190476 
vt 0.440945 0.190476 
vt 0.425197 0.174603 
vt 0.425197 0.158730 
vt 0.456693 0.142857 
vt 0.456693 0.158730 
vt 0.456693 0.158730 
vt 0.425197 0.174603 
vt 0.425197 0.158730 
vt 0.440945 0.190476 
vt 0.456693 0.190476 
vt 0.456693 0.174603 
vt 0.456693 0.174603 
vt 0.440945 0.174603 
vt 0.440945 0.190476 
vt 0.425197 0.174603 
vt 0.440945 0.174603 
vt 0.425197 0.158730 
vt 0.425197 0.158730 
vt 0.409449 0.174603 
vt 0.425197 0.174603 
vt 0.425197 0.190476 
vt 0.440945 0.190476 
vt 0.440945 0.174603 
vt 0.440945 0.174603 
vt 0.425197 0.174603 
vt 0.425197 0.190476 
vt 0.409449 0.174603 
vt 0.425197 0.174603 
vt 0.440945 0.190476 
vt 0.440945 0.190476 
vt 0.425197 0.190476 
vt 0.409449 0.174603 
vt 0.409449 0.174603 
vt 0.425197 0.158730 
vt 0.425197 0.174603 
vt 0.425197 0.174603 
vt 0.409449 0.174603 
vt 0.409449 0.174603 
f 1/1/1 2/2/2 3/3/3
f 4/4/4 5/5/5 6/6/6
f 7/7/7 8/8/8 9/9/9
f 10/10/10 11/11/11 12/12/12
f 13/13/13 14/14/14 15/15/15
f 16/16/16 17/17/17 18/18/18
f 19/19/19 20/20/20 21/21/21
f 22/22/22 23/23/23 24/24/24
f 25/25/25 26/26/26 27/27/27
f 28/28/28 29/29/29 30/30/30
f 31/31/31 32/32/32 33/33/33
f 34/34/34 35/35/35 36/36/36
f 37/37/37 38/38/38 39/39/39
f 40/40/40 41/41/41 42/42/42
f 43/43/43 44/44/44 45/45/45
f 46/46/46 47/47/47 48/48/48
f 49/49/49 50/50/50 51/51/51
f 52/52/52 53/53/53 54/54/54
f 55/55/55 56/56/56 57/57/57
f 58/58/58 59/59/59 60/60/60
f 61/61/61 62/62/62 63/63/63
f 64/64/64 65/65/65 66/66/66
f 67/67/67 68/68/68 69/69/69
f 70/70/70 71/71/71 72/72/72
f 73/73/73 74/74/74 75/75/75
f 76/76/76 77/77/77 78/78/78
f 79/79/79 80/80/80 81/81/81
f 82/82/82 83/83/83 84/84/84
f 85/85/85 86/86/86 87/87/87
f 88/88/88 89/89/89 90/90/90
f 91/91/91 92/92/92 93/93/93
f 94/94/94 95/95/95 96/96/96
f 97/97/97 98/98/98 99/99/99
f 100/100/100 101/101/101 102/102/102
f 103/103/103 104/104/104 105/105/105
f 106/106/106 107/107/107 108/108/108
f 109/109/109 110/110/110 111/111/111
f 112/112/112 113/113/113 114/114/114
f 115/115/115 116/116/116 117/117/117
f 118/118/118 119/119/119 120/120/120
f 121/121/121 122/122/122 123/123/123
f 124/124/124 125/125/125 126/126/126
f 127/127/127 128/128/128 129/129/129
f 130/130/130 131/131/131 132/132/132
f 133/133/133 134/134/134 135/135/135
f 136/136/136 137/137/137 138/138/138
