v 49.000000 59.000000 -191.000000 
v 52.000000 0.000000 -210.000000 
v -100.000000 0.000000 -234.000000 
v -107.000000 54.000000 -219.000000 
v 49.000000 59.000000 -191.000000 
v -100.000000 0.000000 -234.000000 
v 29.000000 133.000000 -144.000000 
v 49.000000 59.000000 -191.000000 
v -107.000000 54.000000 -219.000000 
v -108.000000 106.000000 -181.000000 
v 29.000000 133.000000 -144.000000 
v -107.000000 54.000000 -219.000000 
v -56.000000 144.000000 -74.000000 
v 29.000000 133.000000 -144.000000 
v -108.000000 106.000000 -181.000000 
v 110.000000 69.000000 -174.000000 
v 125.000000 0.000000 -182.000000 
v 52.000000 0.000000 -210.000000 
v 49.000000 59.000000 -191.000000 
v 110.000000 69.000000 -174.000000 
v 52.000000 0.000000 -210.000000 
v 93.000000 128.000000 -110.000000 
v 110.000000 69.000000 -174.000000 
v 49.000000 59.000000 -191.000000 
v 29.000000 133.000000 -144.000000 
v 93.000000 128.000000 -110.000000 
v 49.000000 59.000000 -191.000000 
v 50.000000 154.000000 -15.000000 
v 93.000000 128.000000 -110.000000 
v 29.000000 133.000000 -144.000000 
v -56.000000 144.000000 -74.000000 
v 50.000000 154.000000 -15.000000 
v 29.000000 133.000000 -144.000000 
v -3.000000 187.000000 -1.000000 
v 1.000000 172.000000 -15.000000 
v -48.000000 183.000000 -71.000000 
v 171.000000 70.000000 -135.000000 
v 196.000000 0.000000 -145.000000 
v 125.000000 0.000000 -182.000000 
v 110.000000 69.000000 -174.000000 
v 171.000000 70.000000 -135.000000 
v 125.000000 0.000000 -182.000000 
v 156.000000 157.000000 -95.000000 
v 171.000000 70.000000 -135.000000 
v 110.000000 69.000000 -174.000000 
v 93.000000 128.000000 -110.000000 
v 156.000000 157.000000 -95.000000 
v 110.000000 69.000000 -174.000000 
v 50.000000 154.000000 -15.000000 
v 156.000000 157.000000 -95.000000 
v 93.000000 128.000000 -110.000000 
v 1.000000 172.000000 -15.000000 
v 50.000000 154.000000 -15.000000 
v -56.000000 144.000000 -74.000000 
v -56.000000 144.000000 -74.000000 
v -48.000000 183.000000 -71.000000 
v 1.000000 172.000000 -15.000000 
v 50.000000 154.000000 -15.000000 
v 1.000000 172.000000 -15.000000 
v -3.000000 187.000000 -1.000000 
v -107.000000 54.000000 -219.000000 
v -100.000000 0.000000 -234.000000 
v -105.000000 -2.000000 -80.000000 
v -108.000000 106.000000 -181.000000 
v -107.000000 54.000000 -219.000000 
v -105.000000 -2.000000 -80.000000 
v -56.000000 144.000000 -74.000000 
v -108.000000 106.000000 -181.000000 
v -105.000000 -2.000000 -80.000000 
v -48.000000 183.000000 -71.000000 
v -56.000000 144.000000 -74.000000 
v -18.000000 62.000000 30.000000 
v -3.000000 187.000000 -1.000000 
v -48.000000 183.000000 -71.000000 
v -18.000000 62.000000 30.000000 
v -56.000000 144.000000 -74.000000 
v -105.000000 -2.000000 -80.000000 
v -44.000000 -2.000000 52.000000 
v -18.000000 62.000000 30.000000 
v -56.000000 144.000000 -74.000000 
v -44.000000 -2.000000 52.000000 
v -3.000000 187.000000 -1.000000 
v -18.000000 62.000000 30.000000 
v 50.000000 154.000000 -15.000000 
v -18.000000 62.000000 30.000000 
v -44.000000 -2.000000 52.000000 
v 104.000000 -2.000000 -8.000000 
v 50.000000 154.000000 -15.000000 
v -18.000000 62.000000 30.000000 
v 104.000000 -2.000000 -8.000000 
v 50.000000 154.000000 -15.000000 
v 104.000000 -2.000000 -8.000000 
v 171.000000 70.000000 -135.000000 
v 156.000000 157.000000 -95.000000 
v 50.000000 154.000000 -15.000000 
v 171.000000 70.000000 -135.000000 
v 171.000000 70.000000 -135.000000 
v 104.000000 -2.000000 -8.000000 
v 196.000000 0.000000 -145.000000 
vn 0.209717 0.458496 -0.863281 
vn 0.250488 0.254883 -0.933838 
vn 0.182129 0.277100 -0.943359 
vn 0.159912 0.466797 -0.869629 
vn 0.209717 0.458496 -0.863281 
vn 0.182129 0.277100 -0.943359 
vn 0.140137 0.825928 -0.545654 
vn 0.209717 0.458496 -0.863281 
vn 0.159912 0.466797 -0.869629 
vn 0.019043 0.812988 -0.581543 
vn 0.140137 0.825928 -0.545654 
vn 0.159912 0.466797 -0.869629 
vn 0.271484 0.788574 -0.551270 
vn 0.140137 0.825928 -0.545654 
vn 0.019043 0.812988 -0.581543 
vn 0.267090 0.445068 -0.854492 
vn 0.437988 0.210938 -0.873535 
vn 0.250488 0.254883 -0.933838 
vn 0.209717 0.458496 -0.863281 
vn 0.267090 0.445068 -0.854492 
vn 0.250488 0.254883 -0.933838 
vn 0.052490 0.816406 -0.574707 
vn 0.267090 0.445068 -0.854492 
vn 0.209717 0.458496 -0.863281 
vn 0.140137 0.825928 -0.545654 
vn 0.052490 0.816406 -0.574707 
vn 0.209717 0.458496 -0.863281 
vn 0.089844 0.893066 -0.440674 
vn 0.052490 0.816406 -0.574707 
vn 0.140137 0.825928 -0.545654 
vn 0.271484 0.788574 -0.551270 
vn 0.089844 0.893066 -0.440674 
vn 0.140137 0.825928 -0.545654 
vn 0.445068 0.667725 -0.596436 
vn 0.502930 0.530518 -0.682129 
vn 0.708740 0.296143 -0.639893 
vn 0.478271 0.295410 -0.826660 
vn 0.440918 0.264160 -0.857422 
vn 0.437988 0.210938 -0.873535 
vn 0.267090 0.445068 -0.854492 
vn 0.478271 0.295410 -0.826660 
vn 0.437988 0.210938 -0.873535 
vn 0.021973 0.732178 -0.680420 
vn 0.478271 0.295410 -0.826660 
vn 0.267090 0.445068 -0.854492 
vn 0.052490 0.816406 -0.574707 
vn 0.021973 0.732178 -0.680420 
vn 0.267090 0.445068 -0.854492 
vn 0.089844 0.893066 -0.440674 
vn 0.021973 0.732178 -0.680420 
vn 0.052490 0.816406 -0.574707 
vn 0.502930 0.530518 -0.682129 
vn 0.089844 0.893066 -0.440674 
vn 0.271484 0.788574 -0.551270 
vn 0.271484 0.788574 -0.551270 
vn 0.708740 0.296143 -0.639893 
vn 0.502930 0.530518 -0.682129 
vn 0.089844 0.893066 -0.440674 
vn 0.502930 0.530518 -0.682129 
vn 0.445068 0.667725 -0.596436 
vn -0.997070 -0.072021 0.024902 
vn -0.992920 -0.118408 0.004883 
vn -0.967041 0.108643 0.229492 
vn -0.966064 0.135254 0.219971 
vn -0.997070 -0.072021 0.024902 
vn -0.967041 0.108643 0.229492 
vn -0.820801 0.291260 0.490967 
vn -0.966064 0.135254 0.219971 
vn -0.967041 0.108643 0.229492 
vn -0.833496 0.183594 0.520752 
vn -0.820801 0.291260 0.490967 
vn -0.779053 0.275391 0.562744 
vn -0.795654 0.228027 0.560791 
vn -0.833496 0.183594 0.520752 
vn -0.779053 0.275391 0.562744 
vn -0.820801 0.291260 0.490967 
vn -0.967041 0.108643 0.229492 
vn -0.754639 0.365723 0.544434 
vn -0.779053 0.275391 0.562744 
vn -0.820801 0.291260 0.490967 
vn -0.754639 0.365723 0.544434 
vn 0.291992 0.200684 0.935059 
vn 0.312744 0.176758 0.933105 
vn 0.506836 0.109375 0.854736 
vn 0.312744 0.176758 0.933105 
vn 0.320068 0.157715 0.934082 
vn 0.574707 0.224854 0.786621 
vn 0.506836 0.109375 0.854736 
vn 0.312744 0.176758 0.933105 
vn 0.574707 0.224854 0.786621 
vn 0.506836 0.109375 0.854736 
vn 0.574707 0.224854 0.786621 
vn 0.732178 0.093018 0.674561 
vn 0.550781 -0.262695 0.791992 
vn 0.506836 0.109375 0.854736 
vn 0.732178 0.093018 0.674561 
vn 0.732178 0.093018 0.674561 
vn 0.574707 0.224854 0.786621 
vn 0.797607 0.225098 0.559326 
vt 0.850394 0.427451 
vt 0.984252 0.415686 
vt 0.874016 0.082353 
vt 0.677165 0.133333 
vt 0.850394 0.427451 
vt 0.874016 0.082353 
vt 0.645669 0.427451 
vt 0.850394 0.427451 
vt 0.677165 0.133333 
vt 0.488189 0.168627 
vt 0.645669 0.427451 
vt 0.677165 0.133333 
vt 0.196850 0.333333 
vt 0.645669 0.427451 
vt 0.488189 0.168627 
vt 0.858268 0.564706 
vt 0.960630 0.564706 
vt 0.984252 0.415686 
vt 0.850394 0.427451 
vt 0.858268 0.564706 
vt 0.984252 0.415686 
vt 0.629921 0.576471 
vt 0.858268 0.564706 
vt 0.850394 0.427451 
vt 0.645669 0.427451 
vt 0.629921 0.576471 
vt 0.850394 0.427451 
vt 0.149606 0.584314 
vt 0.629921 0.576471 
vt 0.645669 0.427451 
vt 0.196850 0.333333 
vt 0.149606 0.584314 
vt 0.645669 0.427451 
vt 0.000000 0.478431 
vt 0.055118 0.478431 
vt 0.196850 0.349020 
vt 0.834646 0.682353 
vt 0.960630 0.717647 
vt 0.960630 0.564706 
vt 0.858268 0.564706 
vt 0.834646 0.682353 
vt 0.960630 0.564706 
vt 0.629921 0.705882 
vt 0.834646 0.682353 
vt 0.858268 0.564706 
vt 0.629921 0.576471 
vt 0.629921 0.705882 
vt 0.858268 0.564706 
vt 0.149606 0.584314 
vt 0.629921 0.705882 
vt 0.629921 0.576471 
vt 0.055118 0.478431 
vt 0.149606 0.584314 
vt 0.196850 0.333333 
vt 0.196850 0.333333 
vt 0.196850 0.349020 
vt 0.055118 0.478431 
vt 0.149606 0.584314 
vt 0.055118 0.478431 
vt 0.000000 0.478431 
vt 0.551181 0.094118 
vt 0.669291 0.062745 
vt 0.763780 0.298039 
vt 0.448819 0.168627 
vt 0.551181 0.094118 
vt 0.763780 0.298039 
vt 0.377953 0.301961 
vt 0.448819 0.168627 
vt 0.763780 0.298039 
vt 0.259843 0.360784 
vt 0.377953 0.301961 
vt 0.653543 0.596078 
vt 0.244094 0.529412 
vt 0.259843 0.360784 
vt 0.653543 0.596078 
vt 0.377953 0.301961 
vt 0.763780 0.298039 
vt 0.818898 0.556863 
vt 0.653543 0.596078 
vt 0.377953 0.301961 
vt 0.818898 0.556863 
vt 0.220472 0.509804 
vt 0.559055 0.580392 
vt 0.307087 0.368627 
vt 0.559055 0.580392 
vt 0.818898 0.647059 
vt 0.842520 0.376471 
vt 0.307087 0.368627 
vt 0.559055 0.580392 
vt 0.842520 0.376471 
vt 0.307087 0.368627 
vt 0.842520 0.376471 
vt 0.645669 0.125490 
vt 0.440945 0.121569 
vt 0.307087 0.368627 
vt 0.645669 0.125490 
vt 0.645669 0.125490 
vt 0.842520 0.376471 
vt 0.811024 0.113725 
f 1/1/1 2/2/2 3/3/3
f 4/4/4 5/5/5 6/6/6
f 7/7/7 8/8/8 9/9/9
f 10/10/10 11/11/11 12/12/12
f 13/13/13 14/14/14 15/15/15
f 16/16/16 17/17/17 18/18/18
f 19/19/19 20/20/20 21/21/21
f 22/22/22 23/23/23 24/24/24
f 25/25/25 26/26/26 27/27/27
f 28/28/28 29/29/29 30/30/30
f 31/31/31 32/32/32 33/33/33
f 34/34/34 35/35/35 36/36/36
f 37/37/37 38/38/38 39/39/39
f 40/40/40 41/41/41 42/42/42
f 43/43/43 44/44/44 45/45/45
f 46/46/46 47/47/47 48/48/48
f 49/49/49 50/50/50 51/51/51
f 52/52/52 53/53/53 54/54/54
f 55/55/55 56/56/56 57/57/57
f 58/58/58 59/59/59 60/60/60
f 61/61/61 62/62/62 63/63/63
f 64/64/64 65/65/65 66/66/66
f 67/67/67 68/68/68 69/69/69
f 70/70/70 71/71/71 72/72/72
f 73/73/73 74/74/74 75/75/75
f 76/76/76 77/77/77 78/78/78
f 79/79/79 80/80/80 81/81/81
f 82/82/82 83/83/83 84/84/84
f 85/85/85 86/86/86 87/87/87
f 88/88/88 89/89/89 90/90/90
f 91/91/91 92/92/92 93/93/93
f 94/94/94 95/95/95 96/96/96
f 97/97/97 98/98/98 99/99/99
