v 26.000000 167.000000 -9.000000 
v 24.000000 174.000000 -9.000000 
v 26.000000 167.000000 88.000000 
v 24.000000 174.000000 88.000000 
v 26.000000 167.000000 88.000000 
v 24.000000 174.000000 -9.000000 
v 26.000000 167.000000 -9.000000 
v 26.000000 161.000000 -35.000000 
v 24.000000 174.000000 -9.000000 
v 24.000000 168.000000 -39.000000 
v 24.000000 174.000000 -9.000000 
v 26.000000 161.000000 -35.000000 
v 26.000000 161.000000 -35.000000 
v 26.000000 143.000000 -58.000000 
v 24.000000 168.000000 -39.000000 
v 24.000000 148.000000 -63.000000 
v 24.000000 168.000000 -39.000000 
v 26.000000 143.000000 -58.000000 
v 26.000000 143.000000 -58.000000 
v 26.000000 119.000000 -69.000000 
v 24.000000 148.000000 -63.000000 
v 24.000000 120.000000 -76.000000 
v 24.000000 148.000000 -63.000000 
v 26.000000 119.000000 -69.000000 
v 4.000000 143.000000 -58.000000 
v 4.000000 119.000000 -69.000000 
v 26.000000 143.000000 -58.000000 
v 26.000000 119.000000 -69.000000 
v 26.000000 143.000000 -58.000000 
v 4.000000 119.000000 -69.000000 
v 26.000000 119.000000 -69.000000 
v 26.000000 92.000000 -69.000000 
v 24.000000 120.000000 -76.000000 
v 24.000000 90.000000 -76.000000 
v 24.000000 120.000000 -76.000000 
v 26.000000 92.000000 -69.000000 
v 4.000000 119.000000 -69.000000 
v 4.000000 92.000000 -69.000000 
v 26.000000 119.000000 -69.000000 
v 26.000000 92.000000 -69.000000 
v 26.000000 119.000000 -69.000000 
v 4.000000 92.000000 -69.000000 
v 26.000000 92.000000 -69.000000 
v 26.000000 67.000000 -57.000000 
v 24.000000 90.000000 -76.000000 
v 24.000000 62.000000 -63.000000 
v 24.000000 90.000000 -76.000000 
v 26.000000 67.000000 -57.000000 
v 4.000000 92.000000 -69.000000 
v 4.000000 67.000000 -57.000000 
v 26.000000 92.000000 -69.000000 
v 26.000000 67.000000 -57.000000 
v 26.000000 92.000000 -69.000000 
v 4.000000 67.000000 -57.000000 
v 26.000000 67.000000 -57.000000 
v 26.000000 50.000000 -36.000000 
v 24.000000 62.000000 -63.000000 
v 24.000000 43.000000 -39.000000 
v 24.000000 62.000000 -63.000000 
v 26.000000 50.000000 -36.000000 
v 4.000000 67.000000 -57.000000 
v 4.000000 50.000000 -36.000000 
v 26.000000 67.000000 -57.000000 
v 26.000000 50.000000 -36.000000 
v 26.000000 67.000000 -57.000000 
v 4.000000 50.000000 -36.000000 
v 26.000000 50.000000 -36.000000 
v 26.000000 44.000000 -8.000000 
v 24.000000 43.000000 -39.000000 
v 24.000000 36.000000 -9.000000 
v 24.000000 43.000000 -39.000000 
v 26.000000 44.000000 -8.000000 
v 4.000000 50.000000 -36.000000 
v 4.000000 44.000000 -8.000000 
v 26.000000 50.000000 -36.000000 
v 26.000000 44.000000 -8.000000 
v 26.000000 50.000000 -36.000000 
v 4.000000 44.000000 -8.000000 
v 4.000000 143.000000 -58.000000 
v 26.000000 143.000000 -58.000000 
v 4.000000 161.000000 -35.000000 
v 26.000000 143.000000 -58.000000 
v 26.000000 161.000000 -35.000000 
v 4.000000 161.000000 -35.000000 
v 5.000000 35.000000 -9.000000 
v 5.000000 106.000000 -9.000000 
v 5.000000 35.000000 88.000000 
v 5.000000 105.000000 88.000000 
v 5.000000 35.000000 88.000000 
v 5.000000 106.000000 -9.000000 
v 5.000000 42.000000 -39.000000 
v 5.000000 106.000000 -9.000000 
v 5.000000 35.000000 -9.000000 
v 5.000000 106.000000 -9.000000 
v 5.000000 42.000000 -39.000000 
v 5.000000 61.000000 -63.000000 
v 5.000000 106.000000 -9.000000 
v 5.000000 177.000000 -9.000000 
v 5.000000 105.000000 88.000000 
v 5.000000 177.000000 88.000000 
v 5.000000 105.000000 88.000000 
v 5.000000 177.000000 -9.000000 
v 5.000000 150.000000 -63.000000 
v 5.000000 169.000000 -39.000000 
v 5.000000 106.000000 -9.000000 
v 5.000000 177.000000 -9.000000 
v 5.000000 106.000000 -9.000000 
v 5.000000 169.000000 -39.000000 
v 5.000000 61.000000 -63.000000 
v 5.000000 90.000000 -76.000000 
v 5.000000 106.000000 -9.000000 
v 5.000000 90.000000 -76.000000 
v 5.000000 121.000000 -76.000000 
v 5.000000 106.000000 -9.000000 
v 5.000000 121.000000 -76.000000 
v 5.000000 150.000000 -63.000000 
v 5.000000 106.000000 -9.000000 
v 30.000000 0.000000 -9.000000 
v 30.000000 46.000000 -9.000000 
v 30.000000 0.000000 88.000000 
v 30.000000 46.000000 88.000000 
v 30.000000 0.000000 88.000000 
v 30.000000 46.000000 -9.000000 
v 4.000000 46.000000 88.000000 
v 30.000000 46.000000 88.000000 
v 4.000000 46.000000 -9.000000 
v 30.000000 46.000000 -9.000000 
v 4.000000 46.000000 -9.000000 
v 30.000000 46.000000 88.000000 
v 30.000000 0.000000 -9.000000 
v -30.000000 0.000000 -9.000000 
v -30.000000 46.000000 -9.000000 
v 30.000000 46.000000 -9.000000 
v 30.000000 0.000000 -9.000000 
v -30.000000 46.000000 -9.000000 
v -24.000000 187.000000 88.000000 
v 24.000000 187.000000 88.000000 
v 24.000000 187.000000 -9.000000 
v 24.000000 187.000000 -9.000000 
v -24.000000 187.000000 -9.000000 
v -24.000000 187.000000 88.000000 
v -24.000000 179.000000 -44.000000 
v -24.000000 187.000000 -9.000000 
v 24.000000 187.000000 -9.000000 
v 24.000000 187.000000 -9.000000 
v 24.000000 179.000000 -44.000000 
v -24.000000 179.000000 -44.000000 
v -24.000000 156.000000 -73.000000 
v -24.000000 179.000000 -44.000000 
v 24.000000 179.000000 -44.000000 
v 24.000000 179.000000 -44.000000 
v 24.000000 156.000000 -73.000000 
v -24.000000 156.000000 -73.000000 
v -24.000000 123.000000 -88.000000 
v -24.000000 156.000000 -73.000000 
v 24.000000 156.000000 -73.000000 
v 24.000000 156.000000 -73.000000 
v 24.000000 123.000000 -88.000000 
v -24.000000 123.000000 -88.000000 
v -24.000000 87.000000 -88.000000 
v -24.000000 123.000000 -88.000000 
v 24.000000 123.000000 -88.000000 
v 24.000000 123.000000 -88.000000 
v 24.000000 87.000000 -88.000000 
v -24.000000 87.000000 -88.000000 
v -24.000000 54.000000 -73.000000 
v -24.000000 87.000000 -88.000000 
v 24.000000 87.000000 -88.000000 
v 24.000000 87.000000 -88.000000 
v 24.000000 54.000000 -73.000000 
v -24.000000 54.000000 -73.000000 
v 24.000000 174.000000 -9.000000 
v 24.000000 187.000000 -9.000000 
v 24.000000 174.000000 88.000000 
v 24.000000 187.000000 88.000000 
v 24.000000 174.000000 88.000000 
v 24.000000 187.000000 -9.000000 
v 24.000000 174.000000 -9.000000 
v 24.000000 168.000000 -39.000000 
v 24.000000 187.000000 -9.000000 
v 24.000000 179.000000 -44.000000 
v 24.000000 187.000000 -9.000000 
v 24.000000 168.000000 -39.000000 
v 24.000000 168.000000 -39.000000 
v 24.000000 148.000000 -63.000000 
v 24.000000 179.000000 -44.000000 
v 24.000000 156.000000 -73.000000 
v 24.000000 179.000000 -44.000000 
v 24.000000 148.000000 -63.000000 
v 24.000000 148.000000 -63.000000 
v 24.000000 120.000000 -76.000000 
v 24.000000 156.000000 -73.000000 
v 24.000000 123.000000 -88.000000 
v 24.000000 156.000000 -73.000000 
v 24.000000 120.000000 -76.000000 
v 24.000000 120.000000 -76.000000 
v 24.000000 90.000000 -76.000000 
v 24.000000 123.000000 -88.000000 
v 24.000000 87.000000 -88.000000 
v 24.000000 123.000000 -88.000000 
v 24.000000 90.000000 -76.000000 
v 24.000000 90.000000 -76.000000 
v 24.000000 62.000000 -63.000000 
v 24.000000 87.000000 -88.000000 
v 24.000000 54.000000 -73.000000 
v 24.000000 87.000000 -88.000000 
v 24.000000 62.000000 -63.000000 
v 24.000000 62.000000 -63.000000 
v 24.000000 43.000000 -39.000000 
v 24.000000 54.000000 -73.000000 
v 24.000000 32.000000 -44.000000 
v 24.000000 54.000000 -73.000000 
v 24.000000 43.000000 -39.000000 
v 24.000000 43.000000 -39.000000 
v 24.000000 36.000000 -9.000000 
v 24.000000 32.000000 -44.000000 
v 24.000000 23.000000 -9.000000 
v 24.000000 32.000000 -44.000000 
v 24.000000 36.000000 -9.000000 
v 24.000000 32.000000 -44.000000 
v -24.000000 32.000000 -44.000000 
v -24.000000 54.000000 -73.000000 
v 24.000000 54.000000 -73.000000 
v 24.000000 32.000000 -44.000000 
v -24.000000 54.000000 -73.000000 
vn 0.964111 0.263672 -0.029297 
vn 0.983643 0.177979 -0.020020 
vn 0.964600 0.263184 0.000000 
vn 0.995850 0.088379 0.000000 
vn 0.964600 0.263184 0.000000 
vn 0.983643 0.177979 -0.020020 
vn 0.964111 0.263672 -0.029297 
vn 0.963623 0.248291 -0.097168 
vn 0.983643 0.177979 -0.020020 
vn 0.990723 0.115967 -0.067627 
vn 0.983643 0.177979 -0.020020 
vn 0.963623 0.248291 -0.097168 
vn 0.963623 0.248291 -0.097168 
vn 0.963135 0.179932 -0.198975 
vn 0.990723 0.115967 -0.067627 
vn 0.990723 0.074463 -0.111816 
vn 0.990723 0.115967 -0.067627 
vn 0.963135 0.179932 -0.198975 
vn 0.963135 0.179932 -0.198975 
vn 0.963867 0.077637 -0.254395 
vn 0.990723 0.074463 -0.111816 
vn 0.991211 0.019287 -0.130127 
vn 0.990723 0.074463 -0.111816 
vn 0.963867 0.077637 -0.254395 
vn -0.000488 -0.614746 0.788574 
vn -0.000244 -0.286133 0.958008 
vn 0.000000 -0.614502 0.788818 
vn -0.000244 -0.142822 0.989502 
vn 0.000000 -0.614502 0.788818 
vn -0.000244 -0.286133 0.958008 
vn 0.963867 0.077637 -0.254395 
vn 0.965576 -0.038086 -0.257080 
vn 0.991211 0.019287 -0.130127 
vn 0.991455 -0.038086 -0.124268 
vn 0.991211 0.019287 -0.130127 
vn 0.965576 -0.038086 -0.257080 
vn -0.000244 -0.286133 0.958008 
vn 0.000000 0.147949 0.988770 
vn -0.000244 -0.142822 0.989502 
vn 0.000000 0.295898 0.955078 
vn -0.000244 -0.142822 0.989502 
vn 0.000000 0.147949 0.988770 
vn 0.965576 -0.038086 -0.257080 
vn 0.966797 -0.142822 -0.211670 
vn 0.991455 -0.038086 -0.124268 
vn 0.991699 -0.086426 -0.093506 
vn 0.991455 -0.038086 -0.124268 
vn 0.966797 -0.142822 -0.211670 
vn 0.000000 0.147949 0.988770 
vn 0.000244 0.562012 0.826904 
vn 0.000000 0.295898 0.955078 
vn 0.000488 0.680420 0.732666 
vn 0.000000 0.295898 0.955078 
vn 0.000244 0.562012 0.826904 
vn 0.966797 -0.142822 -0.211670 
vn 0.968018 -0.217041 -0.124756 
vn 0.991699 -0.086426 -0.093506 
vn 0.992188 -0.115479 -0.044922 
vn 0.991699 -0.086426 -0.093506 
vn 0.968018 -0.217041 -0.124756 
vn 0.000244 0.562012 0.826904 
vn 0.000488 0.866943 0.498047 
vn 0.000488 0.680420 0.732666 
vn 0.000732 0.934082 0.356689 
vn 0.000488 0.680420 0.732666 
vn 0.000488 0.866943 0.498047 
vn 0.968018 -0.217041 -0.124756 
vn 0.968262 -0.243652 -0.053711 
vn 0.992188 -0.115479 -0.044922 
vn 0.996582 -0.079834 -0.018066 
vn 0.992188 -0.115479 -0.044922 
vn 0.968262 -0.243652 -0.053711 
vn 0.000488 0.866943 0.498047 
vn 0.000732 0.977539 0.210205 
vn 0.000732 0.934082 0.356689 
vn 0.000732 0.977539 0.210205 
vn 0.000732 0.934082 0.356689 
vn 0.000732 0.977539 0.210205 
vn -0.000488 -0.614746 0.788574 
vn 0.000000 -0.614502 0.788818 
vn 0.000000 -0.776855 0.629395 
vn 0.000000 -0.614502 0.788818 
vn 0.000977 -0.776367 0.630127 
vn 0.000000 -0.776855 0.629395 
vn 0.999756 0.000000 -0.000244 
vn 1.000000 0.000000 0.000000 
vn 0.999756 0.000244 -0.000488 
vn 0.999756 0.000000 -0.000488 
vn 0.999756 0.000244 -0.000488 
vn 1.000000 0.000000 0.000000 
vn 1.000000 0.000000 0.000000 
vn 1.000000 0.000000 0.000000 
vn 0.999756 0.000000 -0.000244 
vn 1.000000 0.000000 0.000000 
vn 1.000000 0.000000 0.000000 
vn 1.000000 0.000000 0.000000 
vn 1.000000 0.000000 0.000000 
vn 0.999756 0.000000 -0.000244 
vn 0.999756 0.000000 -0.000488 
vn 0.999756 -0.000488 -0.000732 
vn 0.999756 0.000000 -0.000488 
vn 0.999756 0.000000 -0.000244 
vn 1.000000 0.000000 0.000000 
vn 1.000000 0.000000 0.000000 
vn 1.000000 0.000000 0.000000 
vn 0.999756 0.000000 -0.000244 
vn 1.000000 0.000000 0.000000 
vn 1.000000 0.000000 0.000000 
vn 1.000000 0.000000 0.000000 
vn 1.000000 0.000000 0.000000 
vn 1.000000 0.000000 0.000000 
vn 1.000000 0.000000 0.000000 
vn 1.000000 0.000000 0.000000 
vn 1.000000 0.000000 0.000000 
vn 1.000000 0.000000 0.000000 
vn 1.000000 0.000000 0.000000 
vn 1.000000 0.000000 0.000000 
vn 1.000000 0.000000 0.000000 
vn 1.000000 0.000000 0.000000 
vn 1.000000 0.000000 0.000000 
vn 1.000000 0.000000 0.000000 
vn 1.000000 0.000000 0.000000 
vn 1.000000 0.000000 0.000000 
vn 0.000000 0.999756 0.000000 
vn 0.000000 0.999756 0.000000 
vn 0.000000 0.999756 0.000000 
vn 0.000000 0.999756 0.000000 
vn 0.000000 0.999756 0.000000 
vn 0.000000 0.999756 0.000000 
vn 0.000000 0.000000 -0.999756 
vn 0.000000 0.000000 -0.999756 
vn 0.000000 0.000000 -0.999756 
vn 0.000000 0.000000 -0.999756 
vn 0.000000 0.000000 -0.999756 
vn 0.000000 0.000000 -0.999756 
vn 0.000000 0.999756 0.000000 
vn 0.000000 0.999756 0.000000 
vn 0.000000 0.993652 -0.111572 
vn 0.000000 0.993652 -0.111572 
vn 0.000000 0.993652 -0.111572 
vn 0.000000 0.999756 0.000000 
vn 0.000000 0.930664 -0.365723 
vn 0.000000 0.993652 -0.111572 
vn 0.000000 0.993652 -0.111572 
vn 0.000000 0.993652 -0.111572 
vn 0.000000 0.863281 -0.504395 
vn 0.000000 0.930664 -0.365723 
vn 0.000000 0.677246 -0.735596 
vn 0.000000 0.930664 -0.365723 
vn 0.000000 0.863281 -0.504395 
vn 0.000000 0.863281 -0.504395 
vn 0.000000 0.559326 -0.828857 
vn 0.000000 0.677246 -0.735596 
vn 0.000000 0.294434 -0.955566 
vn 0.000000 0.677246 -0.735596 
vn 0.000000 0.559326 -0.828857 
vn 0.000000 0.559326 -0.828857 
vn 0.000000 0.147461 -0.989014 
vn 0.000000 0.294434 -0.955566 
vn 0.000000 -0.146729 -0.989014 
vn 0.000000 0.294434 -0.955566 
vn 0.000000 0.147461 -0.989014 
vn 0.000000 0.147461 -0.989014 
vn 0.000000 -0.294678 -0.955566 
vn 0.000000 -0.146729 -0.989014 
vn 0.000000 -0.622314 -0.782471 
vn 0.000000 -0.146729 -0.989014 
vn 0.000000 -0.294678 -0.955566 
vn 0.000000 -0.294678 -0.955566 
vn 0.000000 -0.622314 -0.782471 
vn 0.000000 -0.622314 -0.782471 
vn 0.983643 0.177979 -0.020020 
vn 1.000000 0.000000 0.000000 
vn 0.995850 0.088379 0.000000 
vn 1.000000 0.000000 0.000000 
vn 0.995850 0.088379 0.000000 
vn 1.000000 0.000000 0.000000 
vn 0.983643 0.177979 -0.020020 
vn 0.990723 0.115967 -0.067627 
vn 1.000000 0.000000 0.000000 
vn 1.000000 0.000000 0.000000 
vn 1.000000 0.000000 0.000000 
vn 0.990723 0.115967 -0.067627 
vn 0.990723 0.115967 -0.067627 
vn 0.990723 0.074463 -0.111816 
vn 1.000000 0.000000 0.000000 
vn 1.000000 0.000000 0.000000 
vn 1.000000 0.000000 0.000000 
vn 0.990723 0.074463 -0.111816 
vn 0.990723 0.074463 -0.111816 
vn 0.991211 0.019287 -0.130127 
vn 1.000000 0.000000 0.000000 
vn 1.000000 0.000000 0.000000 
vn 1.000000 0.000000 0.000000 
vn 0.991211 0.019287 -0.130127 
vn 0.991211 0.019287 -0.130127 
vn 0.991455 -0.038086 -0.124268 
vn 1.000000 0.000000 0.000000 
vn 1.000000 0.000000 0.000000 
vn 1.000000 0.000000 0.000000 
vn 0.991455 -0.038086 -0.124268 
vn 0.991455 -0.038086 -0.124268 
vn 0.991699 -0.086426 -0.093506 
vn 1.000000 0.000000 0.000000 
vn 1.000000 0.000000 0.000000 
vn 1.000000 0.000000 0.000000 
vn 0.991699 -0.086426 -0.093506 
vn 0.991699 -0.086426 -0.093506 
vn 0.992188 -0.115479 -0.044922 
vn 1.000000 0.000000 0.000000 
vn 1.000000 0.000000 0.000000 
vn 1.000000 0.000000 0.000000 
vn 0.992188 -0.115479 -0.044922 
vn 0.992188 -0.115479 -0.044922 
vn 0.996582 -0.079834 -0.018066 
vn 1.000000 0.000000 0.000000 
vn 1.000000 0.000000 0.000000 
vn 1.000000 0.000000 0.000000 
vn 0.996582 -0.079834 -0.018066 
vn 0.000000 -0.781006 -0.624268 
vn 0.000000 -0.781006 -0.624268 
vn 0.000000 -0.622314 -0.782471 
vn 0.000000 -0.622314 -0.782471 
vn 0.000000 -0.781006 -0.624268 
vn 0.000000 -0.622314 -0.782471 
vt 0.539683 0.354839 
vt 0.539683 0.483871 
vt 0.730159 0.354839 
vt 0.730159 0.483871 
vt 0.730159 0.354839 
vt 0.539683 0.483871 
vt 0.539683 0.354839 
vt 0.476190 0.354839 
vt 0.539683 0.483871 
vt 0.476190 0.483871 
vt 0.539683 0.483871 
vt 0.476190 0.354839 
vt 0.476190 0.354839 
vt 0.396825 0.354839 
vt 0.476190 0.483871 
vt 0.396825 0.483871 
vt 0.476190 0.483871 
vt 0.396825 0.354839 
vt 0.396825 0.354839 
vt 0.301587 0.354839 
vt 0.396825 0.483871 
vt 0.301587 0.483871 
vt 0.396825 0.483871 
vt 0.301587 0.354839 
vt 0.396825 0.645161 
vt 0.301587 0.645161 
vt 0.396825 0.354839 
vt 0.301587 0.354839 
vt 0.396825 0.354839 
vt 0.301587 0.645161 
vt 0.301587 0.354839 
vt 0.222222 0.354839 
vt 0.301587 0.483871 
vt 0.222222 0.483871 
vt 0.301587 0.483871 
vt 0.222222 0.354839 
vt 0.301587 0.645161 
vt 0.222222 0.645161 
vt 0.301587 0.354839 
vt 0.222222 0.354839 
vt 0.301587 0.354839 
vt 0.222222 0.645161 
vt 0.222222 0.354839 
vt 0.158730 0.354839 
vt 0.222222 0.483871 
vt 0.158730 0.483871 
vt 0.222222 0.483871 
vt 0.158730 0.354839 
vt 0.222222 0.645161 
vt 0.158730 0.645161 
vt 0.222222 0.354839 
vt 0.158730 0.354839 
vt 0.222222 0.354839 
vt 0.158730 0.645161 
vt 0.158730 0.354839 
vt 0.063492 0.354839 
vt 0.158730 0.483871 
vt 0.063492 0.483871 
vt 0.158730 0.483871 
vt 0.063492 0.354839 
vt 0.158730 0.645161 
vt 0.063492 0.645161 
vt 0.158730 0.354839 
vt 0.063492 0.354839 
vt 0.158730 0.354839 
vt 0.063492 0.645161 
vt 0.063492 0.354839 
vt 0.000000 0.354839 
vt 0.063492 0.483871 
vt 0.000000 0.483871 
vt 0.063492 0.483871 
vt 0.000000 0.354839 
vt 0.063492 0.645161 
vt 0.000000 0.645161 
vt 0.063492 0.354839 
vt 0.000000 0.354839 
vt 0.063492 0.354839 
vt 0.000000 0.645161 
vt 0.396825 0.645161 
vt 0.396825 0.354839 
vt 0.476190 0.645161 
vt 0.396825 0.354839 
vt 0.476190 0.354839 
vt 0.476190 0.645161 
vt 0.301587 -0.032258 
vt 0.301587 0.483871 
vt 0.000000 -0.032258 
vt 0.000000 0.483871 
vt 0.000000 -0.032258 
vt 0.301587 0.483871 
vt 0.428571 0.032258 
vt 0.301587 0.483871 
vt 0.301587 -0.032258 
vt 0.301587 0.483871 
vt 0.428571 0.032258 
vt 0.539683 0.161290 
vt 0.301587 0.483871 
vt 0.301587 1.000000 
vt 0.000000 0.483871 
vt 0.000000 1.000000 
vt 0.000000 0.483871 
vt 0.301587 1.000000 
vt 0.539683 0.806452 
vt 0.428571 0.935484 
vt 0.301587 0.483871 
vt 0.301587 1.000000 
vt 0.301587 0.483871 
vt 0.428571 0.935484 
vt 0.539683 0.161290 
vt 0.603175 0.387097 
vt 0.301587 0.483871 
vt 0.603175 0.387097 
vt 0.603175 0.612903 
vt 0.301587 0.483871 
vt 0.603175 0.612903 
vt 0.539683 0.806452 
vt 0.301587 0.483871 
vt 0.476190 0.741935 
vt 0.476190 1.000000 
vt 0.349206 0.741935 
vt 0.349206 1.000000 
vt 0.349206 0.741935 
vt 0.476190 1.000000 
vt 0.000000 1.000000 
vt 0.000000 0.741935 
vt 0.476190 1.000000 
vt 0.476190 0.741935 
vt 0.476190 1.000000 
vt 0.000000 0.741935 
vt 0.730159 0.193548 
vt 0.587302 0.193548 
vt 0.587302 0.483871 
vt 0.730159 0.483871 
vt 0.730159 0.193548 
vt 0.587302 0.483871 
vt 0.936508 -0.032258 
vt 0.809524 -0.032258 
vt 0.809524 0.677419 
vt 0.809524 0.677419 
vt 0.936508 0.677419 
vt 0.936508 -0.032258 
vt 0.936508 1.000000 
vt 0.936508 0.677419 
vt 0.809524 0.677419 
vt 0.809524 0.677419 
vt 0.809524 1.000000 
vt 0.936508 1.000000 
vt 0.809524 0.290323 
vt 0.809524 -0.032258 
vt 0.936508 -0.032258 
vt 0.936508 -0.032258 
vt 0.936508 0.290323 
vt 0.809524 0.290323 
vt 0.809524 0.677419 
vt 0.809524 0.290323 
vt 0.936508 0.290323 
vt 0.936508 0.290323 
vt 0.936508 0.677419 
vt 0.809524 0.677419 
vt 0.809524 1.000000 
vt 0.809524 0.677419 
vt 0.936508 0.677419 
vt 0.936508 0.677419 
vt 0.936508 1.000000 
vt 0.809524 1.000000 
vt 0.936508 0.677419 
vt 0.936508 1.000000 
vt 0.809524 1.000000 
vt 0.809524 1.000000 
vt 0.809524 0.677419 
vt 0.936508 0.677419 
vt 0.746032 0.677419 
vt 0.809524 0.677419 
vt 0.746032 -0.032258 
vt 0.809524 -0.032258 
vt 0.746032 -0.032258 
vt 0.809524 0.677419 
vt 0.746032 0.677419 
vt 0.746032 1.000000 
vt 0.809524 0.677419 
vt 0.809524 1.000000 
vt 0.809524 0.677419 
vt 0.746032 1.000000 
vt 1.000000 -0.032258 
vt 1.000000 0.290323 
vt 0.936508 -0.032258 
vt 0.936508 0.290323 
vt 0.936508 -0.032258 
vt 1.000000 0.290323 
vt 1.000000 0.290323 
vt 1.000000 0.677419 
vt 0.936508 0.290323 
vt 0.936508 0.677419 
vt 0.936508 0.290323 
vt 1.000000 0.677419 
vt 1.000000 0.677419 
vt 1.000000 1.000000 
vt 0.936508 0.677419 
vt 0.936508 1.000000 
vt 0.936508 0.677419 
vt 1.000000 1.000000 
vt 0.746032 1.000000 
vt 0.746032 0.677419 
vt 0.809524 1.000000 
vt 0.809524 0.677419 
vt 0.809524 1.000000 
vt 0.746032 0.677419 
vt 0.746032 0.677419 
vt 0.746032 0.290323 
vt 0.809524 0.677419 
vt 0.809524 0.290323 
vt 0.809524 0.677419 
vt 0.746032 0.290323 
vt 0.746032 0.290323 
vt 0.746032 -0.032258 
vt 0.809524 0.290323 
vt 0.809524 -0.032258 
vt 0.809524 0.290323 
vt 0.746032 -0.032258 
vt 0.809524 0.290323 
vt 0.936508 0.290323 
vt 0.936508 0.677419 
vt 0.809524 0.677419 
vt 0.809524 0.290323 
vt 0.936508 0.677419 
f 1/1/1 2/2/2 3/3/3
f 4/4/4 5/5/5 6/6/6
f 7/7/7 8/8/8 9/9/9
f 10/10/10 11/11/11 12/12/12
f 13/13/13 14/14/14 15/15/15
f 16/16/16 17/17/17 18/18/18
f 19/19/19 20/20/20 21/21/21
f 22/22/22 23/23/23 24/24/24
f 25/25/25 26/26/26 27/27/27
f 28/28/28 29/29/29 30/30/30
f 31/31/31 32/32/32 33/33/33
f 34/34/34 35/35/35 36/36/36
f 37/37/37 38/38/38 39/39/39
f 40/40/40 41/41/41 42/42/42
f 43/43/43 44/44/44 45/45/45
f 46/46/46 47/47/47 48/48/48
f 49/49/49 50/50/50 51/51/51
f 52/52/52 53/53/53 54/54/54
f 55/55/55 56/56/56 57/57/57
f 58/58/58 59/59/59 60/60/60
f 61/61/61 62/62/62 63/63/63
f 64/64/64 65/65/65 66/66/66
f 67/67/67 68/68/68 69/69/69
f 70/70/70 71/71/71 72/72/72
f 73/73/73 74/74/74 75/75/75
f 76/76/76 77/77/77 78/78/78
f 79/79/79 80/80/80 81/81/81
f 82/82/82 83/83/83 84/84/84
f 85/85/85 86/86/86 87/87/87
f 88/88/88 89/89/89 90/90/90
f 91/91/91 92/92/92 93/93/93
f 94/94/94 95/95/95 96/96/96
f 97/97/97 98/98/98 99/99/99
f 100/100/100 101/101/101 102/102/102
f 103/103/103 104/104/104 105/105/105
f 106/106/106 107/107/107 108/108/108
f 109/109/109 110/110/110 111/111/111
f 112/112/112 113/113/113 114/114/114
f 115/115/115 116/116/116 117/117/117
f 118/118/118 119/119/119 120/120/120
f 121/121/121 122/122/122 123/123/123
f 124/124/124 125/125/125 126/126/126
f 127/127/127 128/128/128 129/129/129
f 130/130/130 131/131/131 132/132/132
f 133/133/133 134/134/134 135/135/135
f 136/136/136 137/137/137 138/138/138
f 139/139/139 140/140/140 141/141/141
f 142/142/142 143/143/143 144/144/144
f 145/145/145 146/146/146 147/147/147
f 148/148/148 149/149/149 150/150/150
f 151/151/151 152/152/152 153/153/153
f 154/154/154 155/155/155 156/156/156
f 157/157/157 158/158/158 159/159/159
f 160/160/160 161/161/161 162/162/162
f 163/163/163 164/164/164 165/165/165
f 166/166/166 167/167/167 168/168/168
f 169/169/169 170/170/170 171/171/171
f 172/172/172 173/173/173 174/174/174
f 175/175/175 176/176/176 177/177/177
f 178/178/178 179/179/179 180/180/180
f 181/181/181 182/182/182 183/183/183
f 184/184/184 185/185/185 186/186/186
f 187/187/187 188/188/188 189/189/189
f 190/190/190 191/191/191 192/192/192
f 193/193/193 194/194/194 195/195/195
f 196/196/196 197/197/197 198/198/198
f 199/199/199 200/200/200 201/201/201
f 202/202/202 203/203/203 204/204/204
f 205/205/205 206/206/206 207/207/207
f 208/208/208 209/209/209 210/210/210
f 211/211/211 212/212/212 213/213/213
f 214/214/214 215/215/215 216/216/216
f 217/217/217 218/218/218 219/219/219
f 220/220/220 221/221/221 222/222/222
f 223/223/223 224/224/224 225/225/225
