v 9.000000 48.000000 1.000000 
v -3.000000 47.000000 13.000000 
v 16.000000 0.000000 -1.000000 
v -3.000000 47.000000 13.000000 
v 0.000000 -1.000000 13.000000 
v 16.000000 0.000000 -1.000000 
v -3.000000 47.000000 13.000000 
v -16.000000 48.000000 1.000000 
v 0.000000 -1.000000 13.000000 
v -16.000000 48.000000 1.000000 
v -15.000000 0.000000 -1.000000 
v 0.000000 -1.000000 13.000000 
v -16.000000 48.000000 1.000000 
v -3.000000 49.000000 -11.000000 
v -15.000000 0.000000 -1.000000 
v -3.000000 49.000000 -11.000000 
v 0.000000 2.000000 -17.000000 
v -15.000000 0.000000 -1.000000 
v -3.000000 49.000000 -11.000000 
v 9.000000 48.000000 1.000000 
v 0.000000 2.000000 -17.000000 
v 9.000000 48.000000 1.000000 
v 16.000000 0.000000 -1.000000 
v 0.000000 2.000000 -17.000000 
v -3.000000 47.000000 13.000000 
v 9.000000 48.000000 1.000000 
v -3.000000 56.000000 1.000000 
v -16.000000 48.000000 1.000000 
v -3.000000 47.000000 13.000000 
v -3.000000 56.000000 1.000000 
v -3.000000 49.000000 -11.000000 
v -16.000000 48.000000 1.000000 
v -3.000000 56.000000 1.000000 
v 9.000000 48.000000 1.000000 
v -3.000000 49.000000 -11.000000 
v -3.000000 56.000000 1.000000 
vn 0.878906 0.450928 -0.154297 
vn 0.191162 0.358643 0.913330 
vn 0.940918 0.089600 0.325928 
vn 0.191162 0.358643 0.913330 
vn -0.316895 -0.016357 0.948242 
vn 0.940918 0.089600 0.325928 
vn 0.191162 0.358643 0.913330 
vn -0.898193 0.368652 0.238770 
vn -0.316895 -0.016357 0.948242 
vn -0.898193 0.368652 0.238770 
vn -0.947998 0.009521 -0.317871 
vn -0.316895 -0.016357 0.948242 
vn -0.898193 0.368652 0.238770 
vn -0.200928 0.460449 -0.864502 
vn -0.947998 0.009521 -0.317871 
vn -0.200928 0.460449 -0.864502 
vn 0.316406 0.116211 -0.941162 
vn -0.947998 0.009521 -0.317871 
vn -0.200928 0.460449 -0.864502 
vn 0.878906 0.450928 -0.154297 
vn 0.316406 0.116211 -0.941162 
vn 0.878906 0.450928 -0.154297 
vn 0.940918 0.089600 0.325928 
vn 0.316406 0.116211 -0.941162 
vn 0.191162 0.358643 0.913330 
vn 0.878906 0.450928 -0.154297 
vn 0.000000 0.995117 0.097168 
vn -0.898193 0.368652 0.238770 
vn 0.191162 0.358643 0.913330 
vn 0.000000 0.995117 0.097168 
vn -0.200928 0.460449 -0.864502 
vn -0.898193 0.368652 0.238770 
vn 0.000000 0.995117 0.097168 
vn 0.878906 0.450928 -0.154297 
vn -0.200928 0.460449 -0.864502 
vn 0.000000 0.995117 0.097168 
vt 0.682540 0.634921 
vt 0.952381 0.634921 
vt 0.682540 -0.015873 
vt 0.952381 0.634921 
vt 0.952381 -0.015873 
vt 0.682540 -0.015873 
vt 0.682540 0.634921 
vt 0.952381 0.634921 
vt 0.682540 -0.015873 
vt 0.952381 0.634921 
vt 0.952381 -0.015873 
vt 0.682540 -0.015873 
vt 0.650794 0.603175 
vt 0.809524 0.603175 
vt 0.650794 -0.015873 
vt 0.809524 0.603175 
vt 0.809524 -0.015873 
vt 0.650794 -0.015873 
vt 0.809524 0.603175 
vt 0.968254 0.603175 
vt 0.809524 -0.015873 
vt 0.968254 0.603175 
vt 0.968254 -0.015873 
vt 0.809524 -0.015873 
vt 0.952381 -0.015873 
vt 0.682540 -0.015873 
vt 0.952381 0.634921 
vt 0.952381 -0.015873 
vt 0.682540 -0.015873 
vt 0.952381 0.634921 
vt 0.952381 -0.015873 
vt 0.682540 -0.015873 
vt 0.952381 0.634921 
vt 0.952381 -0.015873 
vt 0.682540 -0.015873 
vt 0.952381 0.634921 
f 1/1/1 2/2/2 3/3/3
f 4/4/4 5/5/5 6/6/6
f 7/7/7 8/8/8 9/9/9
f 10/10/10 11/11/11 12/12/12
f 13/13/13 14/14/14 15/15/15
f 16/16/16 17/17/17 18/18/18
f 19/19/19 20/20/20 21/21/21
f 22/22/22 23/23/23 24/24/24
f 25/25/25 26/26/26 27/27/27
f 28/28/28 29/29/29 30/30/30
f 31/31/31 32/32/32 33/33/33
f 34/34/34 35/35/35 36/36/36
