v 20.000000 11.000000 1.000000 
v 22.000000 17.000000 2.000000 
v 7.000000 4.000000 11.000000 
v 1.000000 -4.000000 -15.000000 
v 20.000000 -3.000000 -3.000000 
v 2.000000 -9.000000 0.000000 
v 27.000000 3.000000 -5.000000 
v 20.000000 -3.000000 -3.000000 
v 1.000000 -4.000000 -15.000000 
v 14.000000 7.000000 -17.000000 
v 27.000000 3.000000 -5.000000 
v 1.000000 -4.000000 -15.000000 
v 20.000000 -3.000000 -3.000000 
v 18.000000 -8.000000 2.000000 
v 2.000000 -9.000000 0.000000 
v 2.000000 -9.000000 0.000000 
v 18.000000 -8.000000 2.000000 
v 6.000000 -4.000000 7.000000 
v 20.000000 11.000000 1.000000 
v 7.000000 4.000000 11.000000 
v 6.000000 -4.000000 7.000000 
v 6.000000 -4.000000 7.000000 
v 23.000000 -2.000000 7.000000 
v 20.000000 11.000000 1.000000 
v 18.000000 -8.000000 2.000000 
v 23.000000 -2.000000 7.000000 
v 6.000000 -4.000000 7.000000 
v 31.000000 6.000000 0.000000 
v 27.000000 3.000000 -5.000000 
v 14.000000 7.000000 -17.000000 
v 19.000000 10.000000 -7.000000 
v 31.000000 6.000000 0.000000 
v 14.000000 7.000000 -17.000000 
v 30.000000 3.000000 6.000000 
v 31.000000 6.000000 0.000000 
v 19.000000 10.000000 -7.000000 
v 20.000000 11.000000 1.000000 
v 30.000000 3.000000 6.000000 
v 19.000000 10.000000 -7.000000 
v 23.000000 -2.000000 7.000000 
v 30.000000 3.000000 6.000000 
v 20.000000 11.000000 1.000000 
v 58.000000 -3.000000 -6.000000 
v 59.000000 -6.000000 -1.000000 
v 18.000000 -8.000000 2.000000 
v 20.000000 -3.000000 -3.000000 
v 58.000000 -3.000000 -6.000000 
v 18.000000 -8.000000 2.000000 
v 18.000000 -8.000000 2.000000 
v 59.000000 -6.000000 -1.000000 
v 23.000000 -2.000000 7.000000 
v 58.000000 1.000000 -6.000000 
v 58.000000 -3.000000 -6.000000 
v 20.000000 -3.000000 -3.000000 
v 27.000000 3.000000 -5.000000 
v 58.000000 1.000000 -6.000000 
v 20.000000 -3.000000 -3.000000 
v 59.000000 4.000000 -1.000000 
v 58.000000 1.000000 -6.000000 
v 27.000000 3.000000 -5.000000 
v 31.000000 6.000000 0.000000 
v 59.000000 4.000000 -1.000000 
v 27.000000 3.000000 -5.000000 
v 60.000000 1.000000 4.000000 
v 59.000000 4.000000 -1.000000 
v 31.000000 6.000000 0.000000 
v 30.000000 3.000000 6.000000 
v 60.000000 1.000000 4.000000 
v 31.000000 6.000000 0.000000 
v 60.000000 -3.000000 4.000000 
v 60.000000 1.000000 4.000000 
v 30.000000 3.000000 6.000000 
v 23.000000 -2.000000 7.000000 
v 60.000000 -3.000000 4.000000 
v 30.000000 3.000000 6.000000 
v 59.000000 -6.000000 -1.000000 
v 60.000000 -3.000000 4.000000 
v 23.000000 -2.000000 7.000000 
vn 0.972900 0.052734 0.224121 
vn 0.986816 0.075928 0.142090 
vn 0.512939 -0.378906 0.770020 
vn 0.606934 -0.574219 -0.549072 
vn 0.552734 -0.514648 -0.655029 
vn 0.175537 -0.981445 -0.075439 
vn 0.764160 0.186523 -0.616943 
vn 0.552734 -0.514648 -0.655029 
vn 0.606934 -0.574219 -0.549072 
vn 0.868408 -0.168945 -0.466064 
vn 0.764160 0.186523 -0.616943 
vn 0.606934 -0.574219 -0.549072 
vn 0.552734 -0.514648 -0.655029 
vn -0.004150 -0.997803 0.062500 
vn 0.175537 -0.981445 -0.075439 
vn 0.175537 -0.981445 -0.075439 
vn -0.004150 -0.997803 0.062500 
vn -0.238037 -0.659668 0.712402 
vn 0.972900 0.052734 0.224121 
vn 0.512939 -0.378906 0.770020 
vn -0.238037 -0.659668 0.712402 
vn -0.238037 -0.659668 0.712402 
vn -0.490967 -0.328613 0.806641 
vn 0.972900 0.052734 0.224121 
vn -0.004150 -0.997803 0.062500 
vn -0.490967 -0.328613 0.806641 
vn -0.238037 -0.659668 0.712402 
vn 0.552246 0.814209 -0.177246 
vn 0.764160 0.186523 -0.616943 
vn 0.868408 -0.168945 -0.466064 
vn 0.925293 0.255859 -0.279785 
vn 0.552246 0.814209 -0.177246 
vn 0.868408 -0.168945 -0.466064 
vn -0.065918 0.745117 0.663574 
vn 0.552246 0.814209 -0.177246 
vn 0.925293 0.255859 -0.279785 
vn 0.972900 0.052734 0.224121 
vn -0.065918 0.745117 0.663574 
vn 0.925293 0.255859 -0.279785 
vn -0.490967 -0.328613 0.806641 
vn -0.065918 0.745117 0.663574 
vn 0.972900 0.052734 0.224121 
vn 0.213379 -0.562012 -0.798828 
vn -0.038330 -0.996826 0.066650 
vn -0.004150 -0.997803 0.062500 
vn 0.552734 -0.514648 -0.655029 
vn 0.213379 -0.562012 -0.798828 
vn -0.004150 -0.997803 0.062500 
vn -0.004150 -0.997803 0.062500 
vn -0.038330 -0.996826 0.066650 
vn -0.490967 -0.328613 0.806641 
vn 0.287354 0.564697 -0.773438 
vn 0.213379 -0.562012 -0.798828 
vn 0.552734 -0.514648 -0.655029 
vn 0.764160 0.186523 -0.616943 
vn 0.287354 0.564697 -0.773438 
vn 0.552734 -0.514648 -0.655029 
vn 0.126221 0.990479 -0.054199 
vn 0.287354 0.564697 -0.773438 
vn 0.764160 0.186523 -0.616943 
vn 0.552246 0.814209 -0.177246 
vn 0.126221 0.990479 -0.054199 
vn 0.764160 0.186523 -0.616943 
vn -0.141846 0.628418 0.764404 
vn 0.126221 0.990479 -0.054199 
vn 0.552246 0.814209 -0.177246 
vn -0.065918 0.745117 0.663574 
vn -0.141846 0.628418 0.764404 
vn 0.552246 0.814209 -0.177246 
vn -0.264893 -0.577393 0.771973 
vn -0.141846 0.628418 0.764404 
vn -0.065918 0.745117 0.663574 
vn -0.490967 -0.328613 0.806641 
vn -0.264893 -0.577393 0.771973 
vn -0.065918 0.745117 0.663574 
vn -0.038330 -0.996826 0.066650 
vn -0.264893 -0.577393 0.771973 
vn -0.490967 -0.328613 0.806641 
vt 0.866142 0.779528 
vt 0.866142 1.000000 
vt 0.968504 0.779528 
vt 0.692913 0.661417 
vt 0.511811 0.559055 
vt 0.692913 0.425197 
vt 0.511811 0.669291 
vt 0.511811 0.559055 
vt 0.645669 0.511811 
vt 0.645669 0.692913 
vt 0.511811 0.669291 
vt 0.645669 0.511811 
vt 0.511811 0.559055 
vt 0.535433 0.559055 
vt 0.692913 0.425197 
vt 0.685039 0.409449 
vt 0.535433 0.559055 
vt 0.685039 0.622047 
vt 1.000000 0.850394 
vt 0.866142 0.779528 
vt 1.000000 0.551181 
vt 0.677165 0.606299 
vt 0.519685 0.488189 
vt 0.519685 0.629921 
vt 0.535433 0.559055 
vt 0.519685 0.488189 
vt 0.685039 0.622047 
vt 0.559055 0.559055 
vt 0.511811 0.669291 
vt 0.637795 0.716535 
vt 0.511811 0.708661 
vt 0.559055 0.559055 
vt 0.637795 0.716535 
vt 0.488189 0.488189 
vt 0.559055 0.559055 
vt 0.511811 0.708661 
vt 0.606299 0.606299 
vt 0.488189 0.488189 
vt 0.511811 0.708661 
vt 0.519685 0.488189 
vt 0.488189 0.488189 
vt 0.519685 0.629921 
vt 0.330709 0.566929 
vt 0.330709 0.496063 
vt 0.535433 0.559055 
vt 0.511811 0.559055 
vt 0.330709 0.566929 
vt 0.535433 0.559055 
vt 0.535433 0.559055 
vt 0.330709 0.496063 
vt 0.519685 0.488189 
vt 0.330709 0.566929 
vt 0.330709 0.566929 
vt 0.511811 0.559055 
vt 0.511811 0.669291 
vt 0.330709 0.566929 
vt 0.511811 0.559055 
vt 0.322835 0.496063 
vt 0.330709 0.566929 
vt 0.511811 0.669291 
vt 0.559055 0.559055 
vt 0.322835 0.496063 
vt 0.511811 0.669291 
vt 0.330709 0.417323 
vt 0.322835 0.496063 
vt 0.559055 0.559055 
vt 0.488189 0.488189 
vt 0.330709 0.417323 
vt 0.559055 0.559055 
vt 0.330709 0.417323 
vt 0.330709 0.417323 
vt 0.488189 0.488189 
vt 0.519685 0.488189 
vt 0.330709 0.417323 
vt 0.488189 0.488189 
vt 0.330709 0.496063 
vt 0.330709 0.417323 
vt 0.519685 0.488189 
f 1/1/1 2/2/2 3/3/3
f 4/4/4 5/5/5 6/6/6
f 7/7/7 8/8/8 9/9/9
f 10/10/10 11/11/11 12/12/12
f 13/13/13 14/14/14 15/15/15
f 16/16/16 17/17/17 18/18/18
f 19/19/19 20/20/20 21/21/21
f 22/22/22 23/23/23 24/24/24
f 25/25/25 26/26/26 27/27/27
f 28/28/28 29/29/29 30/30/30
f 31/31/31 32/32/32 33/33/33
f 34/34/34 35/35/35 36/36/36
f 37/37/37 38/38/38 39/39/39
f 40/40/40 41/41/41 42/42/42
f 43/43/43 44/44/44 45/45/45
f 46/46/46 47/47/47 48/48/48
f 49/49/49 50/50/50 51/51/51
f 52/52/52 53/53/53 54/54/54
f 55/55/55 56/56/56 57/57/57
f 58/58/58 59/59/59 60/60/60
f 61/61/61 62/62/62 63/63/63
f 64/64/64 65/65/65 66/66/66
f 67/67/67 68/68/68 69/69/69
f 70/70/70 71/71/71 72/72/72
f 73/73/73 74/74/74 75/75/75
f 76/76/76 77/77/77 78/78/78
