v 14.000000 7.000000 3.000000 
v 14.000000 6.000000 -2.000000 
v 5.000000 8.000000 2.000000 
v 36.000000 0.000000 -5.000000 
v 36.000000 -6.000000 -1.000000 
v 12.000000 0.000000 -5.000000 
v 36.000000 -6.000000 -1.000000 
v 11.000000 -6.000000 0.000000 
v 12.000000 0.000000 -5.000000 
v 36.000000 0.000000 -5.000000 
v 12.000000 0.000000 -5.000000 
v 14.000000 6.000000 -2.000000 
v 36.000000 -6.000000 -1.000000 
v 36.000000 -5.000000 5.000000 
v 11.000000 -6.000000 0.000000 
v 36.000000 -5.000000 5.000000 
v 11.000000 -5.000000 5.000000 
v 11.000000 -6.000000 0.000000 
v 36.000000 -5.000000 5.000000 
v 36.000000 -1.000000 6.000000 
v 11.000000 -5.000000 5.000000 
v 36.000000 -1.000000 6.000000 
v 13.000000 1.000000 7.000000 
v 11.000000 -5.000000 5.000000 
v 36.000000 -1.000000 6.000000 
v 39.000000 7.000000 3.000000 
v 13.000000 1.000000 7.000000 
v 39.000000 7.000000 3.000000 
v 14.000000 7.000000 3.000000 
v 13.000000 1.000000 7.000000 
v 39.000000 7.000000 3.000000 
v 38.000000 6.000000 -3.000000 
v 14.000000 7.000000 3.000000 
v 38.000000 6.000000 -3.000000 
v 14.000000 6.000000 -2.000000 
v 14.000000 7.000000 3.000000 
v 38.000000 6.000000 -3.000000 
v 36.000000 0.000000 -5.000000 
v 14.000000 6.000000 -2.000000 
v 40.000000 -5.000000 -2.000000 
v 36.000000 -6.000000 -1.000000 
v 36.000000 0.000000 -5.000000 
v 40.000000 -5.000000 -2.000000 
v 42.000000 -5.000000 3.000000 
v 36.000000 -6.000000 -1.000000 
v 42.000000 -5.000000 3.000000 
v 36.000000 -5.000000 5.000000 
v 36.000000 -6.000000 -1.000000 
v 42.000000 7.000000 3.000000 
v 39.000000 7.000000 3.000000 
v 36.000000 -1.000000 6.000000 
v 42.000000 7.000000 3.000000 
v 41.000000 6.000000 -3.000000 
v 39.000000 7.000000 3.000000 
v 41.000000 6.000000 -3.000000 
v 38.000000 6.000000 -3.000000 
v 39.000000 7.000000 3.000000 
vn -0.522705 0.633301 0.570557 
vn 0.165039 0.504883 -0.846924 
vn 0.102783 0.798584 0.592773 
vn 0.307129 0.081543 -0.947998 
vn 0.492188 -0.593262 -0.636719 
vn 0.370361 0.099854 -0.923340 
vn 0.492188 -0.593262 -0.636719 
vn 0.488770 -0.629639 -0.603516 
vn 0.370361 0.099854 -0.923340 
vn 0.307129 0.081543 -0.947998 
vn 0.370361 0.099854 -0.923340 
vn 0.165039 0.504883 -0.846924 
vn 0.492188 -0.593262 -0.636719 
vn -0.085449 -0.530762 0.843018 
vn 0.488770 -0.629639 -0.603516 
vn -0.085449 -0.530762 0.843018 
vn -0.027344 -0.567627 0.822754 
vn 0.488770 -0.629639 -0.603516 
vn -0.085449 -0.530762 0.843018 
vn -0.316895 -0.109375 0.941895 
vn -0.027344 -0.567627 0.822754 
vn -0.316895 -0.109375 0.941895 
vn -0.313232 -0.098877 0.944336 
vn -0.027344 -0.567627 0.822754 
vn -0.316895 -0.109375 0.941895 
vn -0.438721 0.592529 0.675293 
vn -0.313232 -0.098877 0.944336 
vn -0.438721 0.592529 0.675293 
vn -0.522705 0.633301 0.570557 
vn -0.313232 -0.098877 0.944336 
vn -0.438721 0.592529 0.675293 
vn 0.103760 0.541260 -0.834229 
vn -0.522705 0.633301 0.570557 
vn 0.103760 0.541260 -0.834229 
vn 0.165039 0.504883 -0.846924 
vn -0.522705 0.633301 0.570557 
vn 0.103760 0.541260 -0.834229 
vn 0.307129 0.081543 -0.947998 
vn 0.165039 0.504883 -0.846924 
vn 0.423584 -0.540771 -0.726562 
vn 0.492188 -0.593262 -0.636719 
vn 0.307129 0.081543 -0.947998 
vn 0.423584 -0.540771 -0.726562 
vn 0.043457 -0.576660 0.815674 
vn 0.492188 -0.593262 -0.636719 
vn 0.043457 -0.576660 0.815674 
vn -0.085449 -0.530762 0.843018 
vn 0.492188 -0.593262 -0.636719 
vn -0.417236 0.595459 0.686279 
vn -0.438721 0.592529 0.675293 
vn -0.316895 -0.109375 0.941895 
vn -0.417236 0.595459 0.686279 
vn 0.049316 0.554688 -0.830322 
vn -0.438721 0.592529 0.675293 
vn 0.049316 0.554688 -0.830322 
vn 0.103760 0.541260 -0.834229 
vn -0.438721 0.592529 0.675293 
vt 0.551181 0.409449 
vt 0.566929 0.409449 
vt 0.559055 0.448819 
vt 0.559055 0.370079 
vt 0.559055 0.448819 
vt 0.574803 0.503937 
vt 0.559055 0.448819 
vt 0.559055 0.582677 
vt 0.574803 0.503937 
vt 0.559055 0.370079 
vt 0.574803 0.503937 
vt 0.566929 0.409449 
vt 0.559055 0.448819 
vt 0.527559 0.448819 
vt 0.559055 0.582677 
vt 0.527559 0.448819 
vt 0.551181 0.582677 
vt 0.559055 0.582677 
vt 0.527559 0.448819 
vt 0.519685 0.362205 
vt 0.551181 0.582677 
vt 0.519685 0.362205 
vt 0.535433 0.503937 
vt 0.551181 0.582677 
vt 0.519685 0.362205 
vt 0.535433 0.283465 
vt 0.535433 0.503937 
vt 0.535433 0.283465 
vt 0.551181 0.409449 
vt 0.535433 0.503937 
vt 0.535433 0.283465 
vt 0.559055 0.283465 
vt 0.551181 0.409449 
vt 0.559055 0.283465 
vt 0.566929 0.409449 
vt 0.551181 0.409449 
vt 0.559055 0.283465 
vt 0.559055 0.370079 
vt 0.566929 0.409449 
vt 0.559055 0.417323 
vt 0.559055 0.448819 
vt 0.559055 0.370079 
vt 0.559055 0.417323 
vt 0.527559 0.417323 
vt 0.559055 0.448819 
vt 0.527559 0.417323 
vt 0.527559 0.448819 
vt 0.559055 0.448819 
vt 0.527559 0.267717 
vt 0.535433 0.283465 
vt 0.519685 0.362205 
vt 0.527559 0.267717 
vt 0.559055 0.275591 
vt 0.535433 0.283465 
vt 0.559055 0.275591 
vt 0.559055 0.283465 
vt 0.535433 0.283465 
f 1/1/1 2/2/2 3/3/3
f 4/4/4 5/5/5 6/6/6
f 7/7/7 8/8/8 9/9/9
f 10/10/10 11/11/11 12/12/12
f 13/13/13 14/14/14 15/15/15
f 16/16/16 17/17/17 18/18/18
f 19/19/19 20/20/20 21/21/21
f 22/22/22 23/23/23 24/24/24
f 25/25/25 26/26/26 27/27/27
f 28/28/28 29/29/29 30/30/30
f 31/31/31 32/32/32 33/33/33
f 34/34/34 35/35/35 36/36/36
f 37/37/37 38/38/38 39/39/39
f 40/40/40 41/41/41 42/42/42
f 43/43/43 44/44/44 45/45/45
f 46/46/46 47/47/47 48/48/48
f 49/49/49 50/50/50 51/51/51
f 52/52/52 53/53/53 54/54/54
f 55/55/55 56/56/56 57/57/57
