v 150.000000 0.000000 0.000000 
v 150.000000 0.000000 -354.000000 
v -150.000000 0.000000 -354.000000 
v -150.000000 0.000000 -354.000000 
v -150.000000 0.000000 0.000000 
v 150.000000 0.000000 0.000000 
v 150.000000 0.000000 354.000000 
v 150.000000 0.000000 0.000000 
v -150.000000 0.000000 0.000000 
v -150.000000 0.000000 0.000000 
v -150.000000 0.000000 354.000000 
v 150.000000 0.000000 354.000000 
v 150.000000 0.000000 708.000000 
v 150.000000 0.000000 354.000000 
v -150.000000 0.000000 354.000000 
v -150.000000 0.000000 354.000000 
v -150.000000 0.000000 708.000000 
v 150.000000 0.000000 708.000000 
vn 0.000000 1.000000 0.000000 
vn 0.000000 1.000000 0.000000 
vn 0.000000 1.000000 0.000000 
vn 0.000000 1.000000 0.000000 
vn 0.000000 1.000000 0.000000 
vn 0.000000 1.000000 0.000000 
vn 0.000000 1.000000 0.000000 
vn 0.000000 1.000000 0.000000 
vn 0.000000 1.000000 0.000000 
vn 0.000000 1.000000 0.000000 
vn 0.000000 1.000000 0.000000 
vn 0.000000 1.000000 0.000000 
vn 0.000000 1.000000 0.000000 
vn 0.000000 1.000000 0.000000 
vn 0.000000 1.000000 0.000000 
vn 0.000000 1.000000 0.000000 
vn 0.000000 1.000000 0.000000 
vn 0.000000 1.000000 0.000000 
vt 1.000000 0.841270 
vt 1.000000 0.095238 
vt 0.000000 0.095238 
vt 0.000000 0.095238 
vt 0.000000 0.841270 
vt 1.000000 0.841270 
vt 1.000000 0.841270 
vt 1.000000 0.095238 
vt 0.000000 0.095238 
vt 0.000000 0.095238 
vt 0.000000 0.841270 
vt 1.000000 0.841270 
vt 1.000000 0.841270 
vt 1.000000 0.095238 
vt 0.000000 0.095238 
vt 0.000000 0.095238 
vt 0.000000 0.841270 
vt 1.000000 0.841270 
f 1/1/1 2/2/2 3/3/3
f 4/4/4 5/5/5 6/6/6
f 7/7/7 8/8/8 9/9/9
f 10/10/10 11/11/11 12/12/12
f 13/13/13 14/14/14 15/15/15
f 16/16/16 17/17/17 18/18/18
