v 19.000000 4.000000 13.000000 
v 19.000000 0.000000 13.000000 
v 32.000000 -2.000000 15.000000 
v 32.000000 -2.000000 15.000000 
v 33.000000 2.000000 15.000000 
v 19.000000 4.000000 13.000000 
v 30.000000 3.000000 -13.000000 
v 33.000000 2.000000 15.000000 
v 32.000000 -2.000000 15.000000 
v 32.000000 -2.000000 15.000000 
v 30.000000 -1.000000 -13.000000 
v 30.000000 3.000000 -13.000000 
v 22.000000 4.000000 -14.000000 
v 19.000000 4.000000 13.000000 
v 33.000000 2.000000 15.000000 
v 33.000000 2.000000 15.000000 
v 30.000000 3.000000 -13.000000 
v 22.000000 4.000000 -14.000000 
v 22.000000 0.000000 -14.000000 
v 19.000000 0.000000 13.000000 
v 19.000000 4.000000 13.000000 
v 19.000000 4.000000 13.000000 
v 22.000000 4.000000 -14.000000 
v 22.000000 0.000000 -14.000000 
v 30.000000 -1.000000 -13.000000 
v 32.000000 -2.000000 15.000000 
v 19.000000 0.000000 13.000000 
v 19.000000 0.000000 13.000000 
v 22.000000 0.000000 -14.000000 
v 30.000000 -1.000000 -13.000000 
v 45.000000 20.000000 -25.000000 
v 46.000000 10.000000 -43.000000 
v 32.000000 17.000000 -26.000000 
v 46.000000 10.000000 -43.000000 
v 32.000000 9.000000 -40.000000 
v 32.000000 17.000000 -26.000000 
v 46.000000 10.000000 -43.000000 
v 44.000000 -10.000000 -43.000000 
v 32.000000 9.000000 -40.000000 
v 44.000000 -10.000000 -43.000000 
v 31.000000 -6.000000 -40.000000 
v 32.000000 9.000000 -40.000000 
v 44.000000 -10.000000 -43.000000 
v 41.000000 -21.000000 -25.000000 
v 31.000000 -6.000000 -40.000000 
v 41.000000 -21.000000 -25.000000 
v 29.000000 -14.000000 -27.000000 
v 31.000000 -6.000000 -40.000000 
v 41.000000 -21.000000 -25.000000 
v 40.000000 -10.000000 -7.000000 
v 29.000000 -14.000000 -27.000000 
v 40.000000 -10.000000 -7.000000 
v 28.000000 -6.000000 -13.000000 
v 29.000000 -14.000000 -27.000000 
v 40.000000 -10.000000 -7.000000 
v 42.000000 10.000000 -7.000000 
v 28.000000 -6.000000 -13.000000 
v 42.000000 10.000000 -7.000000 
v 30.000000 9.000000 -13.000000 
v 28.000000 -6.000000 -13.000000 
v 42.000000 10.000000 -7.000000 
v 45.000000 20.000000 -25.000000 
v 30.000000 9.000000 -13.000000 
v 45.000000 20.000000 -25.000000 
v 32.000000 17.000000 -26.000000 
v 30.000000 9.000000 -13.000000 
v 57.000000 33.000000 -24.000000 
v 58.000000 15.000000 -54.000000 
v 45.000000 20.000000 -25.000000 
v 58.000000 15.000000 -54.000000 
v 46.000000 10.000000 -43.000000 
v 45.000000 20.000000 -25.000000 
v 58.000000 15.000000 -54.000000 
v 55.000000 -19.000000 -54.000000 
v 46.000000 10.000000 -43.000000 
v 55.000000 -19.000000 -54.000000 
v 44.000000 -10.000000 -43.000000 
v 46.000000 10.000000 -43.000000 
v 55.000000 -19.000000 -54.000000 
v 51.000000 -36.000000 -24.000000 
v 44.000000 -10.000000 -43.000000 
v 51.000000 -36.000000 -24.000000 
v 41.000000 -21.000000 -25.000000 
v 44.000000 -10.000000 -43.000000 
v 51.000000 -36.000000 -24.000000 
v 50.000000 -19.000000 5.000000 
v 41.000000 -21.000000 -25.000000 
v 50.000000 -19.000000 5.000000 
v 40.000000 -10.000000 -7.000000 
v 41.000000 -21.000000 -25.000000 
v 50.000000 -19.000000 5.000000 
v 53.000000 15.000000 6.000000 
v 40.000000 -10.000000 -7.000000 
v 53.000000 15.000000 6.000000 
v 42.000000 10.000000 -7.000000 
v 40.000000 -10.000000 -7.000000 
v 53.000000 15.000000 6.000000 
v 57.000000 33.000000 -24.000000 
v 42.000000 10.000000 -7.000000 
v 57.000000 33.000000 -24.000000 
v 45.000000 20.000000 -25.000000 
v 42.000000 10.000000 -7.000000 
v 58.000000 15.000000 -54.000000 
v 57.000000 33.000000 -24.000000 
v 31.000000 1.000000 -27.000000 
v 55.000000 -19.000000 -54.000000 
v 58.000000 15.000000 -54.000000 
v 31.000000 1.000000 -27.000000 
v 51.000000 -36.000000 -24.000000 
v 55.000000 -19.000000 -54.000000 
v 31.000000 1.000000 -27.000000 
v 50.000000 -19.000000 5.000000 
v 51.000000 -36.000000 -24.000000 
v 31.000000 1.000000 -27.000000 
v 53.000000 15.000000 6.000000 
v 50.000000 -19.000000 5.000000 
v 31.000000 1.000000 -27.000000 
v 57.000000 33.000000 -24.000000 
v 53.000000 15.000000 6.000000 
v 31.000000 1.000000 -27.000000 
v -4.000000 21.000000 -31.000000 
v -3.000000 13.000000 -44.000000 
v -5.000000 6.000000 -31.000000 
v -3.000000 13.000000 -44.000000 
v -4.000000 0.000000 -44.000000 
v -5.000000 6.000000 -31.000000 
v -4.000000 0.000000 -44.000000 
v -6.000000 -8.000000 -31.000000 
v -5.000000 6.000000 -31.000000 
v -6.000000 -8.000000 -31.000000 
v -7.000000 0.000000 -18.000000 
v -5.000000 6.000000 -31.000000 
v -7.000000 0.000000 -18.000000 
v -5.000000 14.000000 -18.000000 
v -5.000000 6.000000 -31.000000 
v -5.000000 14.000000 -18.000000 
v -4.000000 21.000000 -31.000000 
v -5.000000 6.000000 -31.000000 
v 33.000000 20.000000 -26.000000 
v 33.000000 10.000000 -43.000000 
v -4.000000 21.000000 -31.000000 
v 33.000000 10.000000 -43.000000 
v -3.000000 13.000000 -44.000000 
v -4.000000 21.000000 -31.000000 
v 33.000000 10.000000 -43.000000 
v 31.000000 -8.000000 -43.000000 
v -3.000000 13.000000 -44.000000 
v 31.000000 -8.000000 -43.000000 
v -4.000000 0.000000 -44.000000 
v -3.000000 13.000000 -44.000000 
v 31.000000 -8.000000 -43.000000 
v 29.000000 -17.000000 -27.000000 
v -4.000000 0.000000 -44.000000 
v 29.000000 -17.000000 -27.000000 
v -6.000000 -8.000000 -31.000000 
v -4.000000 0.000000 -44.000000 
v 29.000000 -17.000000 -27.000000 
v 29.000000 -7.000000 -10.000000 
v -6.000000 -8.000000 -31.000000 
v 29.000000 -7.000000 -10.000000 
v -7.000000 0.000000 -18.000000 
v -6.000000 -8.000000 -31.000000 
v 29.000000 -7.000000 -10.000000 
v 30.000000 11.000000 -10.000000 
v -7.000000 0.000000 -18.000000 
v 30.000000 11.000000 -10.000000 
v -5.000000 14.000000 -18.000000 
v -7.000000 0.000000 -18.000000 
v 30.000000 11.000000 -10.000000 
v 33.000000 20.000000 -26.000000 
v -5.000000 14.000000 -18.000000 
v 33.000000 20.000000 -26.000000 
v -4.000000 21.000000 -31.000000 
v -5.000000 14.000000 -18.000000 
v 33.000000 10.000000 -43.000000 
v 33.000000 20.000000 -26.000000 
v 31.000000 1.000000 -27.000000 
v 31.000000 -8.000000 -43.000000 
v 33.000000 10.000000 -43.000000 
v 31.000000 1.000000 -27.000000 
v 29.000000 -17.000000 -27.000000 
v 31.000000 -8.000000 -43.000000 
v 31.000000 1.000000 -27.000000 
v 29.000000 -7.000000 -10.000000 
v 29.000000 -17.000000 -27.000000 
v 31.000000 1.000000 -27.000000 
v 30.000000 11.000000 -10.000000 
v 29.000000 -7.000000 -10.000000 
v 31.000000 1.000000 -27.000000 
v 33.000000 20.000000 -26.000000 
v 30.000000 11.000000 -10.000000 
v 31.000000 1.000000 -27.000000 
v 58.000000 4.000000 -24.000000 
v 57.000000 -2.000000 -17.000000 
v 57.000000 -8.000000 -24.000000 
v 57.000000 -8.000000 -24.000000 
v 58.000000 -2.000000 -30.000000 
v 58.000000 4.000000 -24.000000 
v 57.000000 -2.000000 -17.000000 
v 30.000000 1.000000 -14.000000 
v 30.000000 -11.000000 -27.000000 
v 30.000000 -11.000000 -27.000000 
v 57.000000 -8.000000 -24.000000 
v 57.000000 -2.000000 -17.000000 
v 58.000000 4.000000 -24.000000 
v 32.000000 14.000000 -27.000000 
v 30.000000 1.000000 -14.000000 
v 30.000000 1.000000 -14.000000 
v 57.000000 -2.000000 -17.000000 
v 58.000000 4.000000 -24.000000 
v 58.000000 -2.000000 -30.000000 
v 32.000000 1.000000 -39.000000 
v 32.000000 14.000000 -27.000000 
v 32.000000 14.000000 -27.000000 
v 58.000000 4.000000 -24.000000 
v 58.000000 -2.000000 -30.000000 
v 57.000000 -8.000000 -24.000000 
v 30.000000 -11.000000 -27.000000 
v 32.000000 1.000000 -39.000000 
v 32.000000 1.000000 -39.000000 
v 58.000000 -2.000000 -30.000000 
v 57.000000 -8.000000 -24.000000 
vn -0.691406 0.409424 0.594971 
vn -0.538818 -0.763184 0.356201 
vn 0.607666 -0.444092 0.658203 
vn 0.607666 -0.444092 0.658203 
vn 0.468750 0.793945 0.386475 
vn -0.691406 0.409424 0.594971 
vn 0.935303 0.344238 -0.081299 
vn 0.468750 0.793945 0.386475 
vn 0.607666 -0.444092 0.658203 
vn 0.607666 -0.444092 0.658203 
vn 0.341064 -0.938477 -0.049316 
vn 0.935303 0.344238 -0.081299 
vn -0.340576 0.939209 -0.040283 
vn -0.691406 0.409424 0.594971 
vn 0.468750 0.793945 0.386475 
vn 0.468750 0.793945 0.386475 
vn 0.935303 0.344238 -0.081299 
vn -0.340576 0.939209 -0.040283 
vn -0.934082 -0.342773 -0.097900 
vn -0.538818 -0.763184 0.356201 
vn -0.691406 0.409424 0.594971 
vn -0.691406 0.409424 0.594971 
vn -0.340576 0.939209 -0.040283 
vn -0.934082 -0.342773 -0.097900 
vn 0.341064 -0.938477 -0.049316 
vn 0.607666 -0.444092 0.658203 
vn -0.538818 -0.763184 0.356201 
vn -0.538818 -0.763184 0.356201 
vn -0.934082 -0.342773 -0.097900 
vn 0.341064 -0.938477 -0.049316 
vn -0.499756 0.865723 -0.023193 
vn -0.472656 0.483154 -0.736816 
vn -0.205078 0.957275 -0.202637 
vn -0.472656 0.483154 -0.736816 
vn -0.219727 0.339844 -0.914307 
vn -0.205078 0.957275 -0.202637 
vn -0.472656 0.483154 -0.736816 
vn -0.572510 -0.313477 -0.757324 
vn -0.219727 0.339844 -0.914307 
vn -0.572510 -0.313477 -0.757324 
vn -0.367920 -0.566895 -0.736816 
vn -0.219727 0.339844 -0.914307 
vn -0.572510 -0.313477 -0.757324 
vn -0.693115 -0.715332 -0.087402 
vn -0.367920 -0.566895 -0.736816 
vn -0.693115 -0.715332 -0.087402 
vn -0.497559 -0.857178 0.131104 
vn -0.367920 -0.566895 -0.736816 
vn -0.693115 -0.715332 -0.087402 
vn -0.718750 -0.347900 0.601562 
vn -0.497559 -0.857178 0.131104 
vn -0.718750 -0.347900 0.601562 
vn -0.485596 -0.260742 0.834229 
vn -0.497559 -0.857178 0.131104 
vn -0.718750 -0.347900 0.601562 
vn -0.625732 0.435547 0.646729 
vn -0.485596 -0.260742 0.834229 
vn -0.625732 0.435547 0.646729 
vn -0.341064 0.649658 0.679199 
vn -0.485596 -0.260742 0.834229 
vn -0.625732 0.435547 0.646729 
vn -0.499756 0.865723 -0.023193 
vn -0.341064 0.649658 0.679199 
vn -0.499756 0.865723 -0.023193 
vn -0.205078 0.957275 -0.202637 
vn -0.341064 0.649658 0.679199 
vn -0.719971 0.692139 0.050293 
vn -0.678955 0.489746 -0.546387 
vn -0.499756 0.865723 -0.023193 
vn -0.678955 0.489746 -0.546387 
vn -0.472656 0.483154 -0.736816 
vn -0.499756 0.865723 -0.023193 
vn -0.678955 0.489746 -0.546387 
vn -0.736572 -0.128174 -0.663818 
vn -0.472656 0.483154 -0.736816 
vn -0.736572 -0.128174 -0.663818 
vn -0.572510 -0.313477 -0.757324 
vn -0.472656 0.483154 -0.736816 
vn -0.736572 -0.128174 -0.663818 
vn -0.830078 -0.523682 -0.190674 
vn -0.572510 -0.313477 -0.757324 
vn -0.830078 -0.523682 -0.190674 
vn -0.693115 -0.715332 -0.087402 
vn -0.572510 -0.313477 -0.757324 
vn -0.830078 -0.523682 -0.190674 
vn -0.866699 -0.317627 0.384277 
vn -0.693115 -0.715332 -0.087402 
vn -0.866699 -0.317627 0.384277 
vn -0.718750 -0.347900 0.601562 
vn -0.693115 -0.715332 -0.087402 
vn -0.866699 -0.317627 0.384277 
vn -0.814209 0.279541 0.508545 
vn -0.718750 -0.347900 0.601562 
vn -0.814209 0.279541 0.508545 
vn -0.625732 0.435547 0.646729 
vn -0.718750 -0.347900 0.601562 
vn -0.814209 0.279541 0.508545 
vn -0.719971 0.692139 0.050293 
vn -0.625732 0.435547 0.646729 
vn -0.719971 0.692139 0.050293 
vn -0.499756 0.865723 -0.023193 
vn -0.625732 0.435547 0.646729 
vn 0.746826 -0.360840 0.558105 
vn 0.763672 -0.641357 0.072266 
vn 0.990234 -0.103271 0.093018 
vn 0.809326 0.193359 0.554199 
vn 0.746826 -0.360840 0.558105 
vn 0.990234 -0.103271 0.093018 
vn 0.884521 0.459473 0.078613 
vn 0.809326 0.193359 0.554199 
vn 0.990234 -0.103271 0.093018 
vn 0.900146 0.187744 -0.392822 
vn 0.884521 0.459473 0.078613 
vn 0.990234 -0.103271 0.093018 
vn 0.841553 -0.358643 -0.403320 
vn 0.900146 0.187744 -0.392822 
vn 0.990234 -0.103271 0.093018 
vn 0.763672 -0.641357 0.072266 
vn 0.841553 -0.358643 -0.403320 
vn 0.990234 -0.103271 0.093018 
vn -0.991455 0.094727 -0.088379 
vn -0.991455 0.094727 -0.088379 
vn -0.991455 0.094727 -0.088379 
vn -0.991455 0.094727 -0.088379 
vn -0.991455 0.094727 -0.088379 
vn -0.991455 0.094727 -0.088379 
vn -0.991455 0.094727 -0.088379 
vn -0.991455 0.094727 -0.088379 
vn -0.991455 0.094727 -0.088379 
vn -0.991455 0.094727 -0.088379 
vn -0.991455 0.094727 -0.088379 
vn -0.991455 0.094727 -0.088379 
vn -0.991455 0.094727 -0.088379 
vn -0.991455 0.094727 -0.088379 
vn -0.991455 0.094727 -0.088379 
vn -0.991455 0.094727 -0.088379 
vn -0.991455 0.094727 -0.088379 
vn -0.991455 0.094727 -0.088379 
vn 0.000244 0.982666 0.185303 
vn 0.075684 0.654053 -0.752441 
vn 0.048096 0.980713 -0.188721 
vn 0.075684 0.654053 -0.752441 
vn 0.055420 0.329834 -0.942383 
vn 0.048096 0.980713 -0.188721 
vn 0.075684 0.654053 -0.752441 
vn -0.032715 -0.316650 -0.947754 
vn 0.055420 0.329834 -0.942383 
vn -0.032715 -0.316650 -0.947754 
vn -0.100830 -0.638916 -0.762451 
vn 0.055420 0.329834 -0.942383 
vn -0.032715 -0.316650 -0.947754 
vn -0.215088 -0.954590 -0.204834 
vn -0.100830 -0.638916 -0.762451 
vn -0.215088 -0.954590 -0.204834 
vn -0.261963 -0.950439 0.166016 
vn -0.100830 -0.638916 -0.762451 
vn -0.215088 -0.954590 -0.204834 
vn -0.288574 -0.625244 0.724854 
vn -0.261963 -0.950439 0.166016 
vn -0.288574 -0.625244 0.724854 
vn -0.268799 -0.304932 0.913330 
vn -0.261963 -0.950439 0.166016 
vn -0.288574 -0.625244 0.724854 
vn -0.182373 0.337891 0.923096 
vn -0.268799 -0.304932 0.913330 
vn -0.182373 0.337891 0.923096 
vn -0.114746 0.661133 0.741211 
vn -0.268799 -0.304932 0.913330 
vn -0.182373 0.337891 0.923096 
vn 0.000244 0.982666 0.185303 
vn -0.114746 0.661133 0.741211 
vn 0.000244 0.982666 0.185303 
vn 0.048096 0.980713 -0.188721 
vn -0.114746 0.661133 0.741211 
vn 0.990723 -0.097168 0.092773 
vn 0.990967 -0.099609 0.088379 
vn 0.991455 -0.094727 0.088379 
vn 0.991211 -0.092041 0.092773 
vn 0.990723 -0.097168 0.092773 
vn 0.991455 -0.094727 0.088379 
vn 0.991943 -0.089600 0.088379 
vn 0.991211 -0.092041 0.092773 
vn 0.991455 -0.094727 0.088379 
vn 0.991943 -0.092041 0.083984 
vn 0.991943 -0.089600 0.088379 
vn 0.991455 -0.094727 0.088379 
vn 0.991699 -0.097168 0.083984 
vn 0.991943 -0.092041 0.083984 
vn 0.991455 -0.094727 0.088379 
vn 0.990967 -0.099609 0.088379 
vn 0.991699 -0.097168 0.083984 
vn 0.991455 -0.094727 0.088379 
vn 0.791992 0.543457 0.277588 
vn 0.430908 -0.317871 0.844238 
vn 0.687744 -0.709717 -0.150391 
vn 0.687744 -0.709717 -0.150391 
vn 0.669922 0.195312 -0.716064 
vn 0.791992 0.543457 0.277588 
vn 0.430908 -0.317871 0.844238 
vn 0.148193 0.287598 0.946045 
vn 0.046143 -0.945801 0.321289 
vn 0.046143 -0.945801 0.321289 
vn 0.687744 -0.709717 -0.150391 
vn 0.430908 -0.317871 0.844238 
vn 0.791992 0.543457 0.277588 
vn 0.373535 0.886475 -0.272461 
vn 0.148193 0.287598 0.946045 
vn 0.148193 0.287598 0.946045 
vn 0.430908 -0.317871 0.844238 
vn 0.791992 0.543457 0.277588 
vn 0.669922 0.195312 -0.716064 
vn 0.274658 -0.334473 -0.901367 
vn 0.373535 0.886475 -0.272461 
vn 0.373535 0.886475 -0.272461 
vn 0.791992 0.543457 0.277588 
vn 0.669922 0.195312 -0.716064 
vn 0.687744 -0.709717 -0.150391 
vn 0.046143 -0.945801 0.321289 
vn 0.274658 -0.334473 -0.901367 
vn 0.274658 -0.334473 -0.901367 
vn 0.669922 0.195312 -0.716064 
vn 0.687744 -0.709717 -0.150391 
vt 0.516129 -0.096774 
vt 0.451613 -0.096774 
vt 0.451613 -0.096774 
vt 0.451613 -0.096774 
vt 0.516129 -0.096774 
vt 0.516129 -0.096774 
vt 0.354839 0.516129 
vt 0.129032 -0.032258 
vt 0.129032 -0.032258 
vt 0.129032 -0.032258 
vt 0.354839 0.516129 
vt 0.354839 0.516129 
vt 0.774194 0.516129 
vt 0.774194 -0.032258 
vt 0.129032 -0.032258 
vt 0.129032 -0.032258 
vt 0.354839 0.516129 
vt 0.774194 0.516129 
vt 0.774194 0.516129 
vt 0.774194 -0.032258 
vt 0.774194 -0.032258 
vt 0.774194 -0.032258 
vt 0.774194 0.516129 
vt 0.774194 0.516129 
vt 0.354839 0.516129 
vt 0.129032 -0.032258 
vt 0.774194 -0.032258 
vt 0.774194 -0.032258 
vt 0.774194 0.516129 
vt 0.354839 0.516129 
vt 0.322581 0.225806 
vt 0.000000 0.225806 
vt 0.322581 0.516129 
vt 0.000000 0.225806 
vt 0.000000 0.516129 
vt 0.322581 0.516129 
vt 1.000000 0.225806 
vt 0.677419 0.225806 
vt 1.000000 0.516129 
vt 0.677419 0.225806 
vt 0.677419 0.516129 
vt 1.000000 0.516129 
vt 0.677419 0.225806 
vt 0.322581 0.225806 
vt 0.677419 0.516129 
vt 0.322581 0.225806 
vt 0.322581 0.516129 
vt 0.677419 0.516129 
vt 0.322581 0.225806 
vt 0.000000 0.225806 
vt 0.322581 0.516129 
vt 0.000000 0.225806 
vt 0.000000 0.516129 
vt 0.322581 0.516129 
vt 1.000000 0.225806 
vt 0.677419 0.225806 
vt 1.000000 0.516129 
vt 0.677419 0.225806 
vt 0.677419 0.516129 
vt 1.000000 0.516129 
vt 0.677419 0.225806 
vt 0.322581 0.225806 
vt 0.677419 0.516129 
vt 0.322581 0.225806 
vt 0.322581 0.516129 
vt 0.677419 0.516129 
vt 0.322581 0.096774 
vt 0.000000 0.096774 
vt 0.322581 0.225806 
vt 0.000000 0.096774 
vt 0.000000 0.225806 
vt 0.322581 0.225806 
vt 1.000000 0.096774 
vt 0.677419 0.096774 
vt 1.000000 0.225806 
vt 0.677419 0.096774 
vt 0.677419 0.225806 
vt 1.000000 0.225806 
vt 0.677419 0.096774 
vt 0.322581 0.096774 
vt 0.677419 0.225806 
vt 0.322581 0.096774 
vt 0.322581 0.225806 
vt 0.677419 0.225806 
vt 0.322581 0.096774 
vt 0.000000 0.096774 
vt 0.322581 0.225806 
vt 0.000000 0.096774 
vt 0.000000 0.225806 
vt 0.322581 0.225806 
vt 1.000000 0.096774 
vt 0.677419 0.096774 
vt 1.000000 0.225806 
vt 0.677419 0.096774 
vt 0.677419 0.225806 
vt 1.000000 0.225806 
vt 0.677419 0.096774 
vt 0.322581 0.096774 
vt 0.677419 0.225806 
vt 0.322581 0.096774 
vt 0.322581 0.225806 
vt 0.677419 0.225806 
vt 0.258065 0.096774 
vt 0.774194 0.096774 
vt 0.548387 0.516129 
vt 0.774194 0.096774 
vt 0.258065 0.096774 
vt 0.548387 0.516129 
vt 0.258065 0.096774 
vt 0.774194 0.096774 
vt 0.548387 0.516129 
vt 0.774194 0.096774 
vt 0.258065 0.096774 
vt 0.548387 0.516129 
vt 0.258065 0.096774 
vt 0.774194 0.096774 
vt 0.548387 0.516129 
vt 0.774194 0.096774 
vt 0.258065 0.096774 
vt 0.548387 0.516129 
vt 0.354839 0.774194 
vt 0.258065 0.580645 
vt 0.161290 0.774194 
vt 0.258065 0.580645 
vt 0.064516 0.580645 
vt 0.161290 0.774194 
vt 0.064516 0.580645 
vt 0.000000 0.774194 
vt 0.161290 0.774194 
vt 0.000000 0.774194 
vt 0.064516 0.967742 
vt 0.161290 0.774194 
vt 0.064516 0.967742 
vt 0.258065 0.967742 
vt 0.161290 0.774194 
vt 0.258065 0.967742 
vt 0.354839 0.774194 
vt 0.161290 0.774194 
vt 0.645161 1.000000 
vt 1.000000 1.000000 
vt 0.645161 0.516129 
vt 1.000000 1.000000 
vt 1.000000 0.516129 
vt 0.645161 0.516129 
vt 0.000000 1.000000 
vt 0.290323 1.000000 
vt 0.000000 0.516129 
vt 0.290323 1.000000 
vt 0.290323 0.516129 
vt 0.000000 0.516129 
vt 0.290323 1.000000 
vt 0.645161 1.000000 
vt 0.290323 0.516129 
vt 0.645161 1.000000 
vt 0.645161 0.516129 
vt 0.290323 0.516129 
vt 0.645161 1.000000 
vt 1.000000 1.000000 
vt 0.645161 0.516129 
vt 1.000000 1.000000 
vt 1.000000 0.516129 
vt 0.645161 0.516129 
vt 0.000000 1.000000 
vt 0.290323 1.000000 
vt 0.000000 0.516129 
vt 0.290323 1.000000 
vt 0.290323 0.516129 
vt 0.000000 0.516129 
vt 0.290323 1.000000 
vt 0.645161 1.000000 
vt 0.290323 0.516129 
vt 0.645161 1.000000 
vt 0.645161 0.516129 
vt 0.290323 0.516129 
vt 0.612903 0.741935 
vt 0.774194 0.483871 
vt 0.483871 0.483871 
vt 0.354839 0.741935 
vt 0.612903 0.741935 
vt 0.483871 0.483871 
vt 0.193548 0.483871 
vt 0.354839 0.741935 
vt 0.483871 0.483871 
vt 0.354839 0.225806 
vt 0.193548 0.483871 
vt 0.483871 0.483871 
vt 0.612903 0.225806 
vt 0.354839 0.225806 
vt 0.483871 0.483871 
vt 0.774194 0.483871 
vt 0.612903 0.225806 
vt 0.483871 0.483871 
vt 0.548387 0.806452 
vt 0.483871 0.741935 
vt 0.419355 0.806452 
vt 0.419355 0.806452 
vt 0.483871 0.870968 
vt 0.548387 0.806452 
vt 0.354839 0.354839 
vt 0.225806 -0.032258 
vt 0.516129 -0.032258 
vt 0.516129 -0.032258 
vt 0.516129 0.354839 
vt 0.354839 0.354839 
vt 0.516129 0.354839 
vt 0.516129 -0.032258 
vt 0.225806 -0.032258 
vt 0.225806 -0.032258 
vt 0.354839 0.354839 
vt 0.516129 0.354839 
vt 0.645161 0.354839 
vt 0.774194 -0.032258 
vt 0.516129 -0.032258 
vt 0.516129 -0.032258 
vt 0.516129 0.354839 
vt 0.645161 0.354839 
vt 0.516129 0.354839 
vt 0.516129 -0.032258 
vt 0.774194 -0.032258 
vt 0.774194 -0.032258 
vt 0.645161 0.354839 
vt 0.516129 0.354839 
f 1/1/1 2/2/2 3/3/3
f 4/4/4 5/5/5 6/6/6
f 7/7/7 8/8/8 9/9/9
f 10/10/10 11/11/11 12/12/12
f 13/13/13 14/14/14 15/15/15
f 16/16/16 17/17/17 18/18/18
f 19/19/19 20/20/20 21/21/21
f 22/22/22 23/23/23 24/24/24
f 25/25/25 26/26/26 27/27/27
f 28/28/28 29/29/29 30/30/30
f 31/31/31 32/32/32 33/33/33
f 34/34/34 35/35/35 36/36/36
f 37/37/37 38/38/38 39/39/39
f 40/40/40 41/41/41 42/42/42
f 43/43/43 44/44/44 45/45/45
f 46/46/46 47/47/47 48/48/48
f 49/49/49 50/50/50 51/51/51
f 52/52/52 53/53/53 54/54/54
f 55/55/55 56/56/56 57/57/57
f 58/58/58 59/59/59 60/60/60
f 61/61/61 62/62/62 63/63/63
f 64/64/64 65/65/65 66/66/66
f 67/67/67 68/68/68 69/69/69
f 70/70/70 71/71/71 72/72/72
f 73/73/73 74/74/74 75/75/75
f 76/76/76 77/77/77 78/78/78
f 79/79/79 80/80/80 81/81/81
f 82/82/82 83/83/83 84/84/84
f 85/85/85 86/86/86 87/87/87
f 88/88/88 89/89/89 90/90/90
f 91/91/91 92/92/92 93/93/93
f 94/94/94 95/95/95 96/96/96
f 97/97/97 98/98/98 99/99/99
f 100/100/100 101/101/101 102/102/102
f 103/103/103 104/104/104 105/105/105
f 106/106/106 107/107/107 108/108/108
f 109/109/109 110/110/110 111/111/111
f 112/112/112 113/113/113 114/114/114
f 115/115/115 116/116/116 117/117/117
f 118/118/118 119/119/119 120/120/120
f 121/121/121 122/122/122 123/123/123
f 124/124/124 125/125/125 126/126/126
f 127/127/127 128/128/128 129/129/129
f 130/130/130 131/131/131 132/132/132
f 133/133/133 134/134/134 135/135/135
f 136/136/136 137/137/137 138/138/138
f 139/139/139 140/140/140 141/141/141
f 142/142/142 143/143/143 144/144/144
f 145/145/145 146/146/146 147/147/147
f 148/148/148 149/149/149 150/150/150
f 151/151/151 152/152/152 153/153/153
f 154/154/154 155/155/155 156/156/156
f 157/157/157 158/158/158 159/159/159
f 160/160/160 161/161/161 162/162/162
f 163/163/163 164/164/164 165/165/165
f 166/166/166 167/167/167 168/168/168
f 169/169/169 170/170/170 171/171/171
f 172/172/172 173/173/173 174/174/174
f 175/175/175 176/176/176 177/177/177
f 178/178/178 179/179/179 180/180/180
f 181/181/181 182/182/182 183/183/183
f 184/184/184 185/185/185 186/186/186
f 187/187/187 188/188/188 189/189/189
f 190/190/190 191/191/191 192/192/192
f 193/193/193 194/194/194 195/195/195
f 196/196/196 197/197/197 198/198/198
f 199/199/199 200/200/200 201/201/201
f 202/202/202 203/203/203 204/204/204
f 205/205/205 206/206/206 207/207/207
f 208/208/208 209/209/209 210/210/210
f 211/211/211 212/212/212 213/213/213
f 214/214/214 215/215/215 216/216/216
f 217/217/217 218/218/218 219/219/219
f 220/220/220 221/221/221 222/222/222
