v 3.000000 -8.000000 0.000000 
v 0.000000 -5.000000 3.000000 
v 0.000000 -7.000000 0.000000 
v 0.000000 -5.000000 3.000000 
v -1.000000 -3.000000 0.000000 
v 0.000000 -7.000000 0.000000 
v -1.000000 -3.000000 0.000000 
v 0.000000 -5.000000 -3.000000 
v 0.000000 -7.000000 0.000000 
v 0.000000 -5.000000 -3.000000 
v 3.000000 -8.000000 0.000000 
v 0.000000 -7.000000 0.000000 
v 6.000000 -5.000000 0.000000 
v 4.000000 0.000000 5.000000 
v 3.000000 -8.000000 0.000000 
v 4.000000 0.000000 5.000000 
v 0.000000 -5.000000 3.000000 
v 3.000000 -8.000000 0.000000 
v 4.000000 0.000000 5.000000 
v 1.000000 3.000000 0.000000 
v 0.000000 -5.000000 3.000000 
v 1.000000 3.000000 0.000000 
v -1.000000 -3.000000 0.000000 
v 0.000000 -5.000000 3.000000 
v 1.000000 3.000000 0.000000 
v 4.000000 0.000000 -5.000000 
v -1.000000 -3.000000 0.000000 
v 4.000000 0.000000 -5.000000 
v 0.000000 -5.000000 -3.000000 
v -1.000000 -3.000000 0.000000 
v 4.000000 0.000000 -5.000000 
v 6.000000 -5.000000 0.000000 
v 0.000000 -5.000000 -3.000000 
v 6.000000 -5.000000 0.000000 
v 3.000000 -8.000000 0.000000 
v 0.000000 -5.000000 -3.000000 
v 9.000000 -5.000000 0.000000 
v 9.000000 0.000000 5.000000 
v 6.000000 -5.000000 0.000000 
v 9.000000 0.000000 5.000000 
v 4.000000 0.000000 5.000000 
v 6.000000 -5.000000 0.000000 
v 9.000000 0.000000 5.000000 
v 9.000000 5.000000 0.000000 
v 4.000000 0.000000 5.000000 
v 9.000000 5.000000 0.000000 
v 1.000000 3.000000 0.000000 
v 4.000000 0.000000 5.000000 
v 9.000000 5.000000 0.000000 
v 9.000000 0.000000 -5.000000 
v 1.000000 3.000000 0.000000 
v 9.000000 0.000000 -5.000000 
v 4.000000 0.000000 -5.000000 
v 1.000000 3.000000 0.000000 
v 9.000000 0.000000 -5.000000 
v 9.000000 -5.000000 0.000000 
v 4.000000 0.000000 -5.000000 
v 9.000000 -5.000000 0.000000 
v 6.000000 -5.000000 0.000000 
v 4.000000 0.000000 -5.000000 
v 28.000000 -5.000000 0.000000 
v 28.000000 0.000000 5.000000 
v 9.000000 -5.000000 0.000000 
v 28.000000 0.000000 5.000000 
v 9.000000 0.000000 5.000000 
v 9.000000 -5.000000 0.000000 
v 28.000000 0.000000 5.000000 
v 28.000000 5.000000 0.000000 
v 9.000000 0.000000 5.000000 
v 28.000000 5.000000 0.000000 
v 9.000000 5.000000 0.000000 
v 9.000000 0.000000 5.000000 
v 28.000000 5.000000 0.000000 
v 28.000000 0.000000 -5.000000 
v 9.000000 5.000000 0.000000 
v 28.000000 0.000000 -5.000000 
v 9.000000 0.000000 -5.000000 
v 9.000000 5.000000 0.000000 
v 28.000000 0.000000 -5.000000 
v 28.000000 -5.000000 0.000000 
v 9.000000 0.000000 -5.000000 
v 28.000000 -5.000000 0.000000 
v 9.000000 -5.000000 0.000000 
v 9.000000 0.000000 -5.000000 
v 28.000000 0.000000 5.000000 
v 28.000000 -5.000000 0.000000 
v 31.000000 0.000000 0.000000 
v 28.000000 5.000000 0.000000 
v 28.000000 0.000000 5.000000 
v 31.000000 0.000000 0.000000 
v 28.000000 0.000000 -5.000000 
v 28.000000 5.000000 0.000000 
v 31.000000 0.000000 0.000000 
v 28.000000 -5.000000 0.000000 
v 28.000000 0.000000 -5.000000 
v 31.000000 0.000000 0.000000 
vn 0.359863 -0.912842 0.191895 
vn -0.483887 -0.256348 0.836670 
vn -0.642578 -0.765869 0.000000 
vn -0.483887 -0.256348 0.836670 
vn -0.973145 0.154053 -0.170654 
vn -0.642578 -0.765869 0.000000 
vn -0.973145 0.154053 -0.170654 
vn -0.167236 -0.505371 -0.846436 
vn -0.642578 -0.765869 0.000000 
vn -0.167236 -0.505371 -0.846436 
vn 0.359863 -0.912842 0.191895 
vn -0.642578 -0.765869 0.000000 
vn 0.404053 -0.914551 0.003174 
vn 0.026855 -0.010254 0.999512 
vn 0.359863 -0.912842 0.191895 
vn 0.026855 -0.010254 0.999512 
vn -0.483887 -0.256348 0.836670 
vn 0.359863 -0.912842 0.191895 
vn 0.026855 -0.010254 0.999512 
vn -0.600342 0.799561 -0.003906 
vn -0.483887 -0.256348 0.836670 
vn -0.600342 0.799561 -0.003906 
vn -0.973145 0.154053 -0.170654 
vn -0.483887 -0.256348 0.836670 
vn -0.600342 0.799561 -0.003906 
vn -0.190918 -0.143799 -0.970947 
vn -0.973145 0.154053 -0.170654 
vn -0.190918 -0.143799 -0.970947 
vn -0.167236 -0.505371 -0.846436 
vn -0.973145 0.154053 -0.170654 
vn -0.190918 -0.143799 -0.970947 
vn 0.404053 -0.914551 0.003174 
vn -0.167236 -0.505371 -0.846436 
vn 0.404053 -0.914551 0.003174 
vn 0.359863 -0.912842 0.191895 
vn -0.167236 -0.505371 -0.846436 
vn 0.035156 -0.999268 0.008789 
vn -0.003418 -0.003662 0.999756 
vn 0.404053 -0.914551 0.003174 
vn -0.003418 -0.003662 0.999756 
vn 0.026855 -0.010254 0.999512 
vn 0.404053 -0.914551 0.003174 
vn -0.003418 -0.003662 0.999756 
vn -0.106689 0.994141 -0.003662 
vn 0.026855 -0.010254 0.999512 
vn -0.106689 0.994141 -0.003662 
vn -0.600342 0.799561 -0.003906 
vn 0.026855 -0.010254 0.999512 
vn -0.106689 0.994141 -0.003662 
vn -0.049316 0.002441 -0.998535 
vn -0.600342 0.799561 -0.003906 
vn -0.049316 0.002441 -0.998535 
vn -0.190918 -0.143799 -0.970947 
vn -0.600342 0.799561 -0.003906 
vn -0.049316 0.002441 -0.998535 
vn 0.035156 -0.999268 0.008789 
vn -0.190918 -0.143799 -0.970947 
vn 0.035156 -0.999268 0.008789 
vn 0.404053 -0.914551 0.003174 
vn -0.190918 -0.143799 -0.970947 
vn 0.404541 -0.885254 -0.228516 
vn 0.442383 -0.206543 0.872559 
vn 0.035156 -0.999268 0.008789 
vn 0.442383 -0.206543 0.872559 
vn -0.003418 -0.003662 0.999756 
vn 0.035156 -0.999268 0.008789 
vn 0.442383 -0.206543 0.872559 
vn 0.408691 0.894531 0.180908 
vn -0.003418 -0.003662 0.999756 
vn 0.408691 0.894531 0.180908 
vn -0.106689 0.994141 -0.003662 
vn -0.003418 -0.003662 0.999756 
vn 0.408691 0.894531 0.180908 
vn 0.370850 0.202881 -0.906006 
vn -0.106689 0.994141 -0.003662 
vn 0.370850 0.202881 -0.906006 
vn -0.049316 0.002441 -0.998535 
vn -0.106689 0.994141 -0.003662 
vn 0.370850 0.202881 -0.906006 
vn 0.404541 -0.885254 -0.228516 
vn -0.049316 0.002441 -0.998535 
vn 0.404541 -0.885254 -0.228516 
vn 0.035156 -0.999268 0.008789 
vn -0.049316 0.002441 -0.998535 
vn 0.442383 -0.206543 0.872559 
vn 0.404541 -0.885254 -0.228516 
vn 0.998291 0.000000 -0.058105 
vn 0.408691 0.894531 0.180908 
vn 0.442383 -0.206543 0.872559 
vn 0.998291 0.000000 -0.058105 
vn 0.370850 0.202881 -0.906006 
vn 0.408691 0.894531 0.180908 
vn 0.998291 0.000000 -0.058105 
vn 0.404541 -0.885254 -0.228516 
vn 0.370850 0.202881 -0.906006 
vn 0.998291 0.000000 -0.058105 
vt 0.992126 0.763780 
vt 1.000000 0.771654 
vt 1.000000 0.779528 
vt 1.000000 0.771654 
vt 0.944882 0.984252 
vt 1.000000 0.779528 
vt 0.944882 0.984252 
vt 0.968504 0.866142 
vt 1.000000 0.779528 
vt 0.968504 0.866142 
vt 0.992126 0.763780 
vt 1.000000 0.779528 
vt 0.984252 0.732283 
vt 0.952756 0.763780 
vt 0.992126 0.763780 
vt 0.952756 0.763780 
vt 1.000000 0.771654 
vt 0.992126 0.763780 
vt 0.952756 0.771654 
vt 0.913386 0.858268 
vt 0.992126 0.755906 
vt 0.913386 0.858268 
vt 0.944882 0.858268 
vt 0.992126 0.755906 
vt 0.913386 0.858268 
vt 0.960630 0.771654 
vt 0.944882 0.858268 
vt 0.960630 0.771654 
vt 0.992126 0.763780 
vt 0.944882 0.858268 
vt 0.960630 0.748031 
vt 0.984252 0.708661 
vt 0.976378 0.787402 
vt 0.984252 0.708661 
vt 1.000000 0.748031 
vt 0.976378 0.787402 
vt 1.000000 0.685039 
vt 0.944882 0.692913 
vt 0.992126 0.732283 
vt 0.944882 0.692913 
vt 0.952756 0.763780 
vt 0.992126 0.732283 
vt 0.952756 0.692913 
vt 0.897638 0.700787 
vt 0.960630 0.771654 
vt 0.897638 0.700787 
vt 0.929134 0.834646 
vt 0.960630 0.771654 
vt 0.897638 0.700787 
vt 0.952756 0.692913 
vt 0.929134 0.834646 
vt 0.952756 0.692913 
vt 0.960630 0.771654 
vt 0.929134 0.834646 
vt 0.944882 0.692913 
vt 1.000000 0.685039 
vt 0.952756 0.763780 
vt 1.000000 0.685039 
vt 1.000000 0.732283 
vt 0.952756 0.763780 
vt 1.000000 0.874016 
vt 0.944882 0.874016 
vt 1.000000 0.685039 
vt 0.944882 0.874016 
vt 0.944882 0.692913 
vt 1.000000 0.685039 
vt 0.944882 0.874016 
vt 0.889764 0.874016 
vt 0.944882 0.692913 
vt 0.889764 0.874016 
vt 0.889764 0.692913 
vt 0.944882 0.692913 
vt 0.889764 0.874016 
vt 0.944882 0.874016 
vt 0.889764 0.692913 
vt 0.944882 0.874016 
vt 0.944882 0.692913 
vt 0.889764 0.692913 
vt 0.944882 0.874016 
vt 1.000000 0.874016 
vt 0.944882 0.692913 
vt 1.000000 0.874016 
vt 1.000000 0.685039 
vt 0.944882 0.692913 
vt 0.944882 0.874016 
vt 1.000000 0.874016 
vt 0.944882 1.000000 
vt 0.889764 0.874016 
vt 0.944882 0.874016 
vt 0.944882 1.000000 
vt 0.944882 0.874016 
vt 0.889764 0.874016 
vt 0.944882 1.000000 
vt 1.000000 0.874016 
vt 0.944882 0.874016 
vt 0.944882 1.000000 
f 1/1/1 2/2/2 3/3/3
f 4/4/4 5/5/5 6/6/6
f 7/7/7 8/8/8 9/9/9
f 10/10/10 11/11/11 12/12/12
f 13/13/13 14/14/14 15/15/15
f 16/16/16 17/17/17 18/18/18
f 19/19/19 20/20/20 21/21/21
f 22/22/22 23/23/23 24/24/24
f 25/25/25 26/26/26 27/27/27
f 28/28/28 29/29/29 30/30/30
f 31/31/31 32/32/32 33/33/33
f 34/34/34 35/35/35 36/36/36
f 37/37/37 38/38/38 39/39/39
f 40/40/40 41/41/41 42/42/42
f 43/43/43 44/44/44 45/45/45
f 46/46/46 47/47/47 48/48/48
f 49/49/49 50/50/50 51/51/51
f 52/52/52 53/53/53 54/54/54
f 55/55/55 56/56/56 57/57/57
f 58/58/58 59/59/59 60/60/60
f 61/61/61 62/62/62 63/63/63
f 64/64/64 65/65/65 66/66/66
f 67/67/67 68/68/68 69/69/69
f 70/70/70 71/71/71 72/72/72
f 73/73/73 74/74/74 75/75/75
f 76/76/76 77/77/77 78/78/78
f 79/79/79 80/80/80 81/81/81
f 82/82/82 83/83/83 84/84/84
f 85/85/85 86/86/86 87/87/87
f 88/88/88 89/89/89 90/90/90
f 91/91/91 92/92/92 93/93/93
f 94/94/94 95/95/95 96/96/96
