v 10.000000 -13.000000 0.000000 
v 19.000000 -13.000000 -1.000000 
v 21.000000 -7.000000 11.000000 
v 10.000000 -13.000000 0.000000 
v 18.000000 -7.000000 -11.000000 
v 19.000000 -13.000000 -1.000000 
v 18.000000 -7.000000 -11.000000 
v 10.000000 -13.000000 0.000000 
v 9.000000 -8.000000 -12.000000 
v 18.000000 1.000000 -18.000000 
v 18.000000 -7.000000 -11.000000 
v 9.000000 -8.000000 -12.000000 
v 8.000000 1.000000 -19.000000 
v 18.000000 9.000000 -18.000000 
v 18.000000 1.000000 -18.000000 
v 12.000000 10.000000 16.000000 
v 21.000000 1.000000 16.000000 
v 21.000000 10.000000 14.000000 
v 11.000000 -7.000000 14.000000 
v 21.000000 -7.000000 11.000000 
v 21.000000 1.000000 16.000000 
v 21.000000 -7.000000 11.000000 
v 11.000000 -7.000000 14.000000 
v 10.000000 -13.000000 0.000000 
v 10.000000 -6.000000 13.000000 
v -1.000000 -11.000000 0.000000 
v 8.000000 -11.000000 0.000000 
v 7.000000 -6.000000 -10.000000 
v 8.000000 -11.000000 0.000000 
v -1.000000 -11.000000 0.000000 
v 21.000000 1.000000 16.000000 
v 12.000000 10.000000 16.000000 
v 12.000000 1.000000 19.000000 
v 21.000000 1.000000 16.000000 
v 12.000000 1.000000 19.000000 
v 11.000000 -7.000000 14.000000 
v 9.000000 -8.000000 -12.000000 
v 8.000000 1.000000 -19.000000 
v 18.000000 1.000000 -18.000000 
v 10.000000 9.000000 14.000000 
v 10.000000 1.000000 17.000000 
v 12.000000 1.000000 19.000000 
v 10.000000 -6.000000 13.000000 
v 12.000000 1.000000 19.000000 
v 10.000000 1.000000 17.000000 
v 12.000000 1.000000 19.000000 
v 12.000000 10.000000 16.000000 
v 10.000000 9.000000 14.000000 
v 12.000000 1.000000 19.000000 
v 10.000000 -6.000000 13.000000 
v 11.000000 -7.000000 14.000000 
v 8.000000 -11.000000 0.000000 
v 11.000000 -7.000000 14.000000 
v 10.000000 -6.000000 13.000000 
v 11.000000 -7.000000 14.000000 
v 8.000000 -11.000000 0.000000 
v 10.000000 -13.000000 0.000000 
v 8.000000 -11.000000 0.000000 
v 7.000000 -6.000000 -10.000000 
v 9.000000 -8.000000 -12.000000 
v 9.000000 -8.000000 -12.000000 
v 10.000000 -13.000000 0.000000 
v 8.000000 -11.000000 0.000000 
v 7.000000 -6.000000 -10.000000 
v 7.000000 2.000000 -17.000000 
v 8.000000 1.000000 -19.000000 
v 8.000000 1.000000 -19.000000 
v 9.000000 -8.000000 -12.000000 
v 7.000000 -6.000000 -10.000000 
vn 0.075684 -0.996338 0.034424 
vn 0.020264 -0.999512 -0.020996 
vn 0.026367 -0.848633 0.528076 
vn 0.075684 -0.996338 0.034424 
vn 0.229004 -0.904541 -0.359375 
vn 0.020264 -0.999512 -0.020996 
vn 0.229004 -0.904541 -0.359375 
vn 0.075684 -0.996338 0.034424 
vn 0.315430 -0.840088 -0.441162 
vn 0.461670 -0.543701 -0.700439 
vn 0.229004 -0.904541 -0.359375 
vn 0.315430 -0.840088 -0.441162 
vn 0.544678 -0.291016 -0.786377 
vn 0.528320 0.601318 -0.599121 
vn 0.461670 -0.543701 -0.700439 
vn -0.009033 0.643066 0.765625 
vn 0.031250 -0.104004 0.993896 
vn -0.043945 0.877441 0.477295 
vn 0.063965 -0.696045 0.714844 
vn 0.026367 -0.848633 0.528076 
vn 0.031250 -0.104004 0.993896 
vn 0.026367 -0.848633 0.528076 
vn 0.063965 -0.696045 0.714844 
vn 0.075684 -0.996338 0.034424 
vn 0.062012 -0.856934 0.511475 
vn 0.131836 -0.989258 0.061035 
vn 0.021240 -0.999512 -0.010742 
vn 0.238525 -0.927002 -0.289062 
vn 0.021240 -0.999512 -0.010742 
vn 0.131836 -0.989258 0.061035 
vn 0.031250 -0.104004 0.993896 
vn -0.009033 0.643066 0.765625 
vn 0.050537 -0.072266 0.996094 
vn 0.031250 -0.104004 0.993896 
vn 0.050537 -0.072266 0.996094 
vn 0.063965 -0.696045 0.714844 
vn 0.315430 -0.840088 -0.441162 
vn 0.544678 -0.291016 -0.786377 
vn 0.461670 -0.543701 -0.700439 
vn -0.820557 0.392334 -0.415039 
vn -0.929932 -0.021484 -0.366943 
vn -0.926270 -0.041260 -0.374268 
vn -0.817627 -0.415527 -0.397949 
vn -0.926270 -0.041260 -0.374268 
vn -0.929932 -0.021484 -0.366943 
vn -0.926270 -0.041260 -0.374268 
vn -0.721191 0.514648 -0.463135 
vn -0.820557 0.392334 -0.415039 
vn -0.926270 -0.041260 -0.374268 
vn -0.817627 -0.415527 -0.397949 
vn -0.751953 -0.482910 -0.448486 
vn -0.602051 -0.526367 -0.600098 
vn -0.751953 -0.482910 -0.448486 
vn -0.817627 -0.415527 -0.397949 
vn -0.751953 -0.482910 -0.448486 
vn -0.602051 -0.526367 -0.600098 
vn -0.617676 -0.489502 -0.614990 
vn -0.602051 -0.526367 -0.600098 
vn -0.467773 -0.389160 -0.793213 
vn -0.495361 -0.443604 -0.746582 
vn -0.495361 -0.443604 -0.746582 
vn -0.617676 -0.489502 -0.614990 
vn -0.602051 -0.526367 -0.600098 
vn -0.467773 -0.389160 -0.793213 
vn -0.459229 -0.119873 -0.879883 
vn -0.456543 -0.217285 -0.862549 
vn -0.456543 -0.217285 -0.862549 
vn -0.495361 -0.443604 -0.746582 
vn -0.467773 -0.389160 -0.793213 
vt 0.622047 0.094488 
vt 0.614173 -0.007874 
vt 0.685039 -0.007874 
vt 0.622047 0.094488 
vt 0.685039 -0.007874 
vt 0.614173 -0.007874 
vt 0.685039 -0.007874 
vt 0.622047 0.094488 
vt 0.700787 0.094488 
vt 0.787402 -0.007874 
vt 0.685039 -0.007874 
vt 0.700787 0.094488 
vt 0.795276 0.094488 
vt 0.889764 -0.007874 
vt 0.787402 -0.007874 
vt 0.889764 0.094488 
vt 0.779528 -0.007874 
vt 0.889764 -0.007874 
vt 0.700787 0.094488 
vt 0.685039 -0.007874 
vt 0.779528 -0.007874 
vt 0.685039 -0.007874 
vt 0.700787 0.094488 
vt 0.622047 0.094488 
vt 0.078740 0.015748 
vt 0.015748 0.110236 
vt 0.015748 0.015748 
vt 0.078740 0.015748 
vt 0.015748 0.015748 
vt 0.015748 0.110236 
vt 0.779528 -0.007874 
vt 0.889764 0.094488 
vt 0.779528 0.094488 
vt 0.779528 -0.007874 
vt 0.779528 0.094488 
vt 0.700787 0.094488 
vt 0.700787 0.094488 
vt 0.795276 0.094488 
vt 0.787402 -0.007874 
vt 0.874016 0.110236 
vt 0.779528 0.110236 
vt 0.779528 0.094488 
vt 0.700787 0.110236 
vt 0.779528 0.094488 
vt 0.779528 0.110236 
vt 0.779528 0.094488 
vt 0.889764 0.094488 
vt 0.874016 0.110236 
vt 0.779528 0.094488 
vt 0.700787 0.110236 
vt 0.700787 0.094488 
vt 0.622047 0.110236 
vt 0.700787 0.094488 
vt 0.700787 0.110236 
vt 0.700787 0.094488 
vt 0.622047 0.110236 
vt 0.622047 0.094488 
vt 0.622047 0.110236 
vt 0.692913 0.110236 
vt 0.700787 0.094488 
vt 0.700787 0.094488 
vt 0.622047 0.094488 
vt 0.622047 0.110236 
vt 0.692913 0.110236 
vt 0.795276 0.110236 
vt 0.795276 0.094488 
vt 0.795276 0.094488 
vt 0.700787 0.094488 
vt 0.692913 0.110236 
f 1/1/1 2/2/2 3/3/3
f 4/4/4 5/5/5 6/6/6
f 7/7/7 8/8/8 9/9/9
f 10/10/10 11/11/11 12/12/12
f 13/13/13 14/14/14 15/15/15
f 16/16/16 17/17/17 18/18/18
f 19/19/19 20/20/20 21/21/21
f 22/22/22 23/23/23 24/24/24
f 25/25/25 26/26/26 27/27/27
f 28/28/28 29/29/29 30/30/30
f 31/31/31 32/32/32 33/33/33
f 34/34/34 35/35/35 36/36/36
f 37/37/37 38/38/38 39/39/39
f 40/40/40 41/41/41 42/42/42
f 43/43/43 44/44/44 45/45/45
f 46/46/46 47/47/47 48/48/48
f 49/49/49 50/50/50 51/51/51
f 52/52/52 53/53/53 54/54/54
f 55/55/55 56/56/56 57/57/57
f 58/58/58 59/59/59 60/60/60
f 61/61/61 62/62/62 63/63/63
f 64/64/64 65/65/65 66/66/66
f 67/67/67 68/68/68 69/69/69
