v 1.000000 22.000000 -14.000000 
v -8.000000 0.000000 -22.000000 
v -7.000000 14.000000 -21.000000 
v -8.000000 0.000000 -22.000000 
v -13.000000 4.000000 -19.000000 
v -7.000000 14.000000 -21.000000 
v 1.000000 22.000000 -14.000000 
v 9.000000 0.000000 -21.000000 
v -8.000000 0.000000 -22.000000 
v -8.000000 0.000000 -22.000000 
v -12.000000 0.000000 -14.000000 
v -13.000000 4.000000 -19.000000 
v -8.000000 0.000000 -22.000000 
v 1.000000 -22.000000 -14.000000 
v -7.000000 -14.000000 -21.000000 
v -13.000000 -4.000000 -19.000000 
v -8.000000 0.000000 -22.000000 
v -7.000000 -14.000000 -21.000000 
v 9.000000 0.000000 -21.000000 
v 1.000000 -22.000000 -14.000000 
v -8.000000 0.000000 -22.000000 
v -12.000000 0.000000 -14.000000 
v -8.000000 0.000000 -22.000000 
v -13.000000 -4.000000 -19.000000 
v -6.000000 0.000000 25.000000 
v 1.000000 20.000000 22.000000 
v -7.000000 13.000000 21.000000 
v 1.000000 20.000000 22.000000 
v -6.000000 0.000000 25.000000 
v 9.000000 20.000000 22.000000 
v 9.000000 0.000000 27.000000 
v 9.000000 20.000000 22.000000 
v -6.000000 0.000000 25.000000 
v -6.000000 0.000000 25.000000 
v -7.000000 13.000000 21.000000 
v -13.000000 5.000000 20.000000 
v -13.000000 5.000000 20.000000 
v -11.000000 0.000000 20.000000 
v -6.000000 0.000000 25.000000 
v 1.000000 -20.000000 22.000000 
v -6.000000 0.000000 25.000000 
v -7.000000 -13.000000 21.000000 
v -6.000000 0.000000 25.000000 
v 9.000000 -20.000000 22.000000 
v 9.000000 0.000000 27.000000 
v 9.000000 -20.000000 22.000000 
v -6.000000 0.000000 25.000000 
v 1.000000 -20.000000 22.000000 
v -7.000000 -13.000000 21.000000 
v -6.000000 0.000000 25.000000 
v -13.000000 -5.000000 20.000000 
v -11.000000 0.000000 20.000000 
v -13.000000 -5.000000 20.000000 
v -6.000000 0.000000 25.000000 
v 1.000000 20.000000 22.000000 
v -7.000000 21.000000 17.000000 
v -7.000000 13.000000 21.000000 
v 1.000000 20.000000 22.000000 
v 3.000000 28.000000 0.000000 
v -7.000000 21.000000 17.000000 
v 3.000000 28.000000 0.000000 
v 1.000000 20.000000 22.000000 
v 9.000000 20.000000 22.000000 
v 9.000000 20.000000 22.000000 
v 9.000000 29.000000 0.000000 
v 3.000000 28.000000 0.000000 
v 9.000000 22.000000 -15.000000 
v 3.000000 28.000000 0.000000 
v 9.000000 29.000000 0.000000 
v 3.000000 28.000000 0.000000 
v 9.000000 22.000000 -15.000000 
v 1.000000 22.000000 -14.000000 
v 9.000000 0.000000 -21.000000 
v 1.000000 22.000000 -14.000000 
v 9.000000 22.000000 -15.000000 
v 1.000000 22.000000 -14.000000 
v -7.000000 14.000000 -21.000000 
v -7.000000 22.000000 -12.000000 
v -12.000000 0.000000 -14.000000 
v -13.000000 1.000000 -14.000000 
v -13.000000 4.000000 -19.000000 
v -17.000000 5.000000 -16.000000 
v -13.000000 4.000000 -19.000000 
v -13.000000 1.000000 -14.000000 
v -7.000000 14.000000 -21.000000 
v -13.000000 4.000000 -19.000000 
v -17.000000 5.000000 -16.000000 
v -12.000000 0.000000 0.000000 
v -13.000000 2.000000 0.000000 
v -13.000000 1.000000 -14.000000 
v -13.000000 2.000000 0.000000 
v -12.000000 0.000000 0.000000 
v -11.000000 0.000000 20.000000 
v -13.000000 5.000000 20.000000 
v -13.000000 2.000000 0.000000 
v -11.000000 0.000000 20.000000 
v -17.000000 2.000000 -11.000000 
v -13.000000 2.000000 0.000000 
v -17.000000 2.000000 0.000000 
v -13.000000 2.000000 0.000000 
v -17.000000 2.000000 -11.000000 
v -13.000000 1.000000 -14.000000 
v -12.000000 0.000000 -14.000000 
v -12.000000 0.000000 0.000000 
v -13.000000 1.000000 -14.000000 
v -12.000000 0.000000 0.000000 
v -12.000000 0.000000 -14.000000 
v -13.000000 -1.000000 -13.000000 
v -13.000000 -2.000000 0.000000 
v -12.000000 0.000000 0.000000 
v -13.000000 -1.000000 -13.000000 
v -12.000000 0.000000 0.000000 
v -13.000000 -2.000000 0.000000 
v -11.000000 0.000000 20.000000 
v 1.000000 -22.000000 -14.000000 
v 9.000000 0.000000 -21.000000 
v 9.000000 -22.000000 -15.000000 
v -13.000000 -2.000000 0.000000 
v -13.000000 -5.000000 20.000000 
v -11.000000 0.000000 20.000000 
v -13.000000 -1.000000 -13.000000 
v -12.000000 0.000000 -14.000000 
v -13.000000 -4.000000 -19.000000 
v -13.000000 1.000000 -14.000000 
v -17.000000 2.000000 -11.000000 
v -17.000000 5.000000 -16.000000 
v -18.000000 1.000000 -13.000000 
v -17.000000 2.000000 0.000000 
v -18.000000 1.000000 0.000000 
v -17.000000 2.000000 0.000000 
v -18.000000 1.000000 -13.000000 
v -17.000000 2.000000 -11.000000 
v -17.000000 2.000000 -11.000000 
v -18.000000 4.000000 -18.000000 
v -17.000000 5.000000 -16.000000 
v -18.000000 4.000000 -18.000000 
v -17.000000 2.000000 -11.000000 
v -18.000000 1.000000 -13.000000 
v -7.000000 -21.000000 17.000000 
v 1.000000 -20.000000 22.000000 
v -7.000000 -13.000000 21.000000 
v 3.000000 -28.000000 0.000000 
v 1.000000 -20.000000 22.000000 
v -7.000000 -21.000000 17.000000 
v 1.000000 -20.000000 22.000000 
v 3.000000 -28.000000 0.000000 
v 9.000000 -20.000000 22.000000 
v 9.000000 -29.000000 0.000000 
v 9.000000 -20.000000 22.000000 
v 3.000000 -28.000000 0.000000 
v 3.000000 -28.000000 0.000000 
v 9.000000 -22.000000 -15.000000 
v 9.000000 -29.000000 0.000000 
v 9.000000 -22.000000 -15.000000 
v 3.000000 -28.000000 0.000000 
v 1.000000 -22.000000 -14.000000 
v -7.000000 -14.000000 -21.000000 
v 1.000000 -22.000000 -14.000000 
v -7.000000 -22.000000 -12.000000 
v -13.000000 -4.000000 -19.000000 
v -17.000000 -5.000000 -16.000000 
v -13.000000 -1.000000 -13.000000 
v -13.000000 -4.000000 -19.000000 
v -7.000000 -14.000000 -21.000000 
v -17.000000 -5.000000 -16.000000 
v -13.000000 -2.000000 0.000000 
v -17.000000 -2.000000 -11.000000 
v -17.000000 -2.000000 0.000000 
v -17.000000 -2.000000 -11.000000 
v -13.000000 -2.000000 0.000000 
v -13.000000 -1.000000 -13.000000 
v -17.000000 -2.000000 -11.000000 
v -13.000000 -1.000000 -13.000000 
v -17.000000 -5.000000 -16.000000 
v -17.000000 -2.000000 0.000000 
v -18.000000 0.000000 -13.000000 
v -18.000000 -1.000000 0.000000 
v -18.000000 0.000000 -13.000000 
v -17.000000 -2.000000 0.000000 
v -17.000000 -2.000000 -11.000000 
v -18.000000 -4.000000 -18.000000 
v -17.000000 -2.000000 -11.000000 
v -17.000000 -5.000000 -16.000000 
v -17.000000 -2.000000 -11.000000 
v -18.000000 -4.000000 -18.000000 
v -18.000000 0.000000 -13.000000 
vn 0.064697 0.783203 -0.618164 
vn -0.258057 0.001953 -0.966064 
vn -0.487549 0.497070 -0.717529 
vn -0.258057 0.001953 -0.966064 
vn -0.920654 -0.365967 -0.134277 
vn -0.487549 0.497070 -0.717529 
vn 0.064697 0.783203 -0.618164 
vn 0.108643 0.001465 -0.993896 
vn -0.258057 0.001953 -0.966064 
vn -0.258057 0.001953 -0.966064 
vn -0.967041 0.010498 0.253906 
vn -0.920654 -0.365967 -0.134277 
vn -0.258057 0.001953 -0.966064 
vn 0.060791 -0.783447 -0.618164 
vn -0.494141 -0.496338 -0.713623 
vn -0.916992 0.374756 -0.135010 
vn -0.258057 0.001953 -0.966064 
vn -0.494141 -0.496338 -0.713623 
vn 0.108643 0.001465 -0.993896 
vn 0.060791 -0.783447 -0.618164 
vn -0.258057 0.001953 -0.966064 
vn -0.967041 0.010498 0.253906 
vn -0.258057 0.001953 -0.966064 
vn -0.916992 0.374756 -0.135010 
vn -0.459229 -0.001709 0.888184 
vn -0.300049 0.626465 0.719238 
vn -0.499512 0.264160 0.824951 
vn -0.300049 0.626465 0.719238 
vn -0.459229 -0.001709 0.888184 
vn -0.090576 0.721436 0.686279 
vn -0.161621 -0.001953 0.986816 
vn -0.090576 0.721436 0.686279 
vn -0.459229 -0.001709 0.888184 
vn -0.459229 -0.001709 0.888184 
vn -0.499512 0.264160 0.824951 
vn -0.698975 -0.239990 0.673340 
vn -0.698975 -0.239990 0.673340 
vn -0.858154 -0.002686 0.513184 
vn -0.459229 -0.001709 0.888184 
vn -0.296387 -0.627930 0.719482 
vn -0.459229 -0.001709 0.888184 
vn -0.497070 -0.265625 0.825684 
vn -0.459229 -0.001709 0.888184 
vn -0.090332 -0.722412 0.685303 
vn -0.161621 -0.001953 0.986816 
vn -0.090332 -0.722412 0.685303 
vn -0.459229 -0.001709 0.888184 
vn -0.296387 -0.627930 0.719482 
vn -0.497070 -0.265625 0.825684 
vn -0.459229 -0.001709 0.888184 
vn -0.698242 0.236572 0.675293 
vn -0.858154 -0.002686 0.513184 
vn -0.698242 0.236572 0.675293 
vn -0.459229 -0.001709 0.888184 
vn -0.300049 0.626465 0.719238 
vn -0.357910 0.734375 0.576416 
vn -0.499512 0.264160 0.824951 
vn -0.300049 0.626465 0.719238 
vn -0.144043 0.986328 0.077393 
vn -0.357910 0.734375 0.576416 
vn -0.144043 0.986328 0.077393 
vn -0.300049 0.626465 0.719238 
vn -0.090576 0.721436 0.686279 
vn -0.090576 0.721436 0.686279 
vn -0.016113 0.997070 -0.072998 
vn -0.144043 0.986328 0.077393 
vn 0.045410 0.745117 -0.665039 
vn -0.144043 0.986328 0.077393 
vn -0.016113 0.997070 -0.072998 
vn -0.144043 0.986328 0.077393 
vn 0.045410 0.745117 -0.665039 
vn 0.064697 0.783203 -0.618164 
vn 0.108643 0.001465 -0.993896 
vn 0.064697 0.783203 -0.618164 
vn 0.045410 0.745117 -0.665039 
vn 0.064697 0.783203 -0.618164 
vn -0.487549 0.497070 -0.717529 
vn -0.259766 0.907471 -0.329346 
vn -0.967041 0.010498 0.253906 
vn -0.734375 -0.648682 0.198730 
vn -0.920654 -0.365967 -0.134277 
vn -0.856689 -0.411865 -0.310059 
vn -0.920654 -0.365967 -0.134277 
vn -0.734375 -0.648682 0.198730 
vn -0.487549 0.497070 -0.717529 
vn -0.920654 -0.365967 -0.134277 
vn -0.856689 -0.411865 -0.310059 
vn -0.911377 0.004395 0.411133 
vn -0.581543 -0.748535 0.317871 
vn -0.734375 -0.648682 0.198730 
vn -0.581543 -0.748535 0.317871 
vn -0.911377 0.004395 0.411133 
vn -0.858154 -0.002686 0.513184 
vn -0.698975 -0.239990 0.673340 
vn -0.581543 -0.748535 0.317871 
vn -0.858154 -0.002686 0.513184 
vn -0.319580 -0.945312 0.060791 
vn -0.581543 -0.748535 0.317871 
vn -0.009766 -0.996094 0.086914 
vn -0.581543 -0.748535 0.317871 
vn -0.319580 -0.945312 0.060791 
vn -0.734375 -0.648682 0.198730 
vn -0.967041 0.010498 0.253906 
vn -0.911377 0.004395 0.411133 
vn -0.734375 -0.648682 0.198730 
vn -0.911377 0.004395 0.411133 
vn -0.967041 0.010498 0.253906 
vn -0.727051 0.657715 0.196289 
vn -0.581543 0.748047 0.319336 
vn -0.911377 0.004395 0.411133 
vn -0.727051 0.657715 0.196289 
vn -0.911377 0.004395 0.411133 
vn -0.581543 0.748047 0.319336 
vn -0.858154 -0.002686 0.513184 
vn 0.060791 -0.783447 -0.618164 
vn 0.108643 0.001465 -0.993896 
vn 0.045166 -0.744141 -0.666016 
vn -0.581543 0.748047 0.319336 
vn -0.698242 0.236572 0.675293 
vn -0.858154 -0.002686 0.513184 
vn -0.727051 0.657715 0.196289 
vn -0.967041 0.010498 0.253906 
vn -0.916992 0.374756 -0.135010 
vn -0.734375 -0.648682 0.198730 
vn -0.319580 -0.945312 0.060791 
vn -0.856689 -0.411865 -0.310059 
vn 0.718018 -0.589844 -0.368896 
vn 0.716797 -0.647461 -0.258301 
vn 0.737305 -0.618652 -0.270752 
vn 0.716797 -0.647461 -0.258301 
vn 0.718018 -0.589844 -0.368896 
vn 0.717773 -0.540527 -0.438721 
vn 0.717773 -0.540527 -0.438721 
vn 0.760010 -0.218994 -0.611572 
vn 0.755615 -0.221680 -0.615967 
vn 0.760010 -0.218994 -0.611572 
vn 0.717773 -0.540527 -0.438721 
vn 0.718018 -0.589844 -0.368896 
vn -0.356689 -0.734619 0.576904 
vn -0.296387 -0.627930 0.719482 
vn -0.497070 -0.265625 0.825684 
vn -0.144043 -0.986328 0.076904 
vn -0.296387 -0.627930 0.719482 
vn -0.356689 -0.734619 0.576904 
vn -0.296387 -0.627930 0.719482 
vn -0.144043 -0.986328 0.076904 
vn -0.090332 -0.722412 0.685303 
vn -0.015625 -0.997070 -0.073486 
vn -0.090332 -0.722412 0.685303 
vn -0.144043 -0.986328 0.076904 
vn -0.144043 -0.986328 0.076904 
vn 0.045166 -0.744141 -0.666016 
vn -0.015625 -0.997070 -0.073486 
vn 0.045166 -0.744141 -0.666016 
vn -0.144043 -0.986328 0.076904 
vn 0.060791 -0.783447 -0.618164 
vn -0.494141 -0.496338 -0.713623 
vn 0.060791 -0.783447 -0.618164 
vn -0.261475 -0.907471 -0.328369 
vn -0.916992 0.374756 -0.135010 
vn -0.857422 0.414062 -0.304688 
vn -0.727051 0.657715 0.196289 
vn -0.916992 0.374756 -0.135010 
vn -0.494141 -0.496338 -0.713623 
vn -0.857422 0.414062 -0.304688 
vn -0.581543 0.748047 0.319336 
vn -0.318604 0.945801 0.062256 
vn -0.009277 0.996094 0.087158 
vn -0.318604 0.945801 0.062256 
vn -0.581543 0.748047 0.319336 
vn -0.727051 0.657715 0.196289 
vn -0.318604 0.945801 0.062256 
vn -0.727051 0.657715 0.196289 
vn -0.857422 0.414062 -0.304688 
vn 0.718750 0.644531 -0.259521 
vn 0.726562 0.577393 -0.371826 
vn 0.735596 0.621094 -0.269531 
vn 0.726562 0.577393 -0.371826 
vn 0.718750 0.644531 -0.259521 
vn 0.725098 0.528809 -0.440918 
vn 0.761230 0.218018 -0.610596 
vn 0.725098 0.528809 -0.440918 
vn 0.754639 0.227783 -0.615234 
vn 0.725098 0.528809 -0.440918 
vn 0.761230 0.218018 -0.610596 
vn 0.726562 0.577393 -0.371826 
vt 0.062992 0.188976 
vt 0.362205 0.188976 
vt 0.204724 0.110236 
vt 0.362205 0.188976 
vt 0.314961 0.110236 
vt 0.204724 0.110236 
vt 0.669291 0.188976 
vt 0.362205 0.251969 
vt 0.362205 0.188976 
vt 0.362205 0.188976 
vt 0.362205 0.141732 
vt 0.314961 0.110236 
vt 0.362205 0.188976 
vt 0.062992 0.188976 
vt 0.204724 0.110236 
vt 0.314961 0.110236 
vt 0.362205 0.188976 
vt 0.204724 0.110236 
vt 0.362205 0.251969 
vt 0.062992 0.188976 
vt 0.362205 0.188976 
vt 0.362205 0.141732 
vt 0.362205 0.188976 
vt 0.314961 0.110236 
vt 0.362205 0.173228 
vt 0.094488 0.188976 
vt 0.188976 0.110236 
vt 0.637795 0.188976 
vt 0.362205 0.173228 
vt 0.645669 0.251969 
vt 0.362205 0.251969 
vt 0.645669 0.251969 
vt 0.362205 0.173228 
vt 0.362205 0.173228 
vt 0.188976 0.110236 
vt 0.291339 0.110236 
vt 0.291339 0.110236 
vt 0.362205 0.125984 
vt 0.362205 0.173228 
vt 0.094488 0.188976 
vt 0.362205 0.173228 
vt 0.188976 0.110236 
vt 0.362205 0.173228 
vt 0.086614 0.251969 
vt 0.362205 0.251969 
vt 0.086614 0.251969 
vt 0.362205 0.173228 
vt 0.094488 0.188976 
vt 0.188976 0.110236 
vt 0.362205 0.173228 
vt 0.291339 0.110236 
vt 0.362205 0.125984 
vt 0.291339 0.110236 
vt 0.362205 0.173228 
vt 0.094488 0.188976 
vt 0.078740 0.110236 
vt 0.188976 0.110236 
vt 0.094488 0.188976 
vt 0.000000 0.212598 
vt 0.078740 0.110236 
vt 0.748031 0.212598 
vt 0.637795 0.188976 
vt 0.645669 0.251969 
vt 0.645669 0.251969 
vt 0.755906 0.251969 
vt 0.748031 0.212598 
vt 0.661417 0.251969 
vt 0.748031 0.212598 
vt 0.755906 0.251969 
vt 0.748031 0.212598 
vt 0.661417 0.251969 
vt 0.669291 0.188976 
vt 0.362205 0.251969 
vt 0.669291 0.188976 
vt 0.661417 0.251969 
vt 0.062992 0.188976 
vt 0.204724 0.110236 
vt 0.062992 0.110236 
vt 0.362205 0.141732 
vt 0.377953 0.110236 
vt 0.314961 0.110236 
vt 0.299213 0.015748 
vt 0.314961 0.110236 
vt 0.377953 0.110236 
vt 0.204724 0.110236 
vt 0.314961 0.110236 
vt 0.299213 0.015748 
vt 0.362205 0.118110 
vt 0.330709 0.110236 
vt 0.377953 0.110236 
vt 0.330709 0.110236 
vt 0.362205 0.118110 
vt 0.362205 0.125984 
vt 0.291339 0.110236 
vt 0.330709 0.110236 
vt 0.362205 0.125984 
vt 0.330709 0.015748 
vt 0.330709 0.110236 
vt 0.330709 0.015748 
vt 0.330709 0.110236 
vt 0.330709 0.015748 
vt 0.377953 0.110236 
vt 0.362205 0.141732 
vt 0.362205 0.118110 
vt 0.377953 0.110236 
vt 0.362205 0.118110 
vt 0.362205 0.141732 
vt 0.354331 0.110236 
vt 0.330709 0.110236 
vt 0.362205 0.118110 
vt 0.354331 0.110236 
vt 0.362205 0.118110 
vt 0.330709 0.110236 
vt 0.362205 0.125984 
vt 0.062992 0.188976 
vt 0.362205 0.251969 
vt 0.070866 0.251969 
vt 0.330709 0.110236 
vt 0.291339 0.110236 
vt 0.362205 0.125984 
vt 0.354331 0.110236 
vt 0.362205 0.141732 
vt 0.314961 0.110236 
vt 0.377953 0.110236 
vt 0.330709 0.015748 
vt 0.299213 0.015748 
vt 1.000000 0.094488 
vt 0.976378 0.110236 
vt 0.992126 0.094488 
vt 0.976378 0.110236 
vt 1.000000 0.094488 
vt 0.984252 0.110236 
vt 0.984252 0.110236 
vt 0.897638 0.094488 
vt 0.889764 0.110236 
vt 0.897638 0.094488 
vt 0.984252 0.110236 
vt 1.000000 0.094488 
vt 0.078740 0.110236 
vt 0.094488 0.188976 
vt 0.188976 0.110236 
vt 0.000000 0.212598 
vt 0.094488 0.188976 
vt 0.078740 0.110236 
vt 0.094488 0.188976 
vt 0.000000 0.212598 
vt 0.086614 0.251969 
vt 0.000000 0.251969 
vt 0.086614 0.251969 
vt 0.000000 0.212598 
vt 0.000000 0.212598 
vt 0.070866 0.251969 
vt 0.000000 0.251969 
vt 0.070866 0.251969 
vt 0.000000 0.212598 
vt 0.062992 0.188976 
vt 0.204724 0.110236 
vt 0.062992 0.188976 
vt 0.070866 0.110236 
vt 0.314961 0.110236 
vt 0.299213 0.015748 
vt 0.354331 0.110236 
vt 0.314961 0.110236 
vt 0.204724 0.110236 
vt 0.299213 0.015748 
vt 0.330709 0.110236 
vt 0.338583 0.015748 
vt 0.330709 0.015748 
vt 0.338583 0.015748 
vt 0.330709 0.110236 
vt 0.354331 0.110236 
vt 0.338583 0.015748 
vt 0.354331 0.110236 
vt 0.299213 0.015748 
vt 0.968504 0.110236 
vt 0.992126 0.094488 
vt 0.992126 0.094488 
vt 0.992126 0.094488 
vt 0.968504 0.110236 
vt 0.976378 0.110236 
vt 0.897638 0.094488 
vt 0.976378 0.110236 
vt 0.881890 0.110236 
vt 0.976378 0.110236 
vt 0.897638 0.094488 
vt 0.992126 0.094488 
f 1/1/1 2/2/2 3/3/3
f 4/4/4 5/5/5 6/6/6
f 7/7/7 8/8/8 9/9/9
f 10/10/10 11/11/11 12/12/12
f 13/13/13 14/14/14 15/15/15
f 16/16/16 17/17/17 18/18/18
f 19/19/19 20/20/20 21/21/21
f 22/22/22 23/23/23 24/24/24
f 25/25/25 26/26/26 27/27/27
f 28/28/28 29/29/29 30/30/30
f 31/31/31 32/32/32 33/33/33
f 34/34/34 35/35/35 36/36/36
f 37/37/37 38/38/38 39/39/39
f 40/40/40 41/41/41 42/42/42
f 43/43/43 44/44/44 45/45/45
f 46/46/46 47/47/47 48/48/48
f 49/49/49 50/50/50 51/51/51
f 52/52/52 53/53/53 54/54/54
f 55/55/55 56/56/56 57/57/57
f 58/58/58 59/59/59 60/60/60
f 61/61/61 62/62/62 63/63/63
f 64/64/64 65/65/65 66/66/66
f 67/67/67 68/68/68 69/69/69
f 70/70/70 71/71/71 72/72/72
f 73/73/73 74/74/74 75/75/75
f 76/76/76 77/77/77 78/78/78
f 79/79/79 80/80/80 81/81/81
f 82/82/82 83/83/83 84/84/84
f 85/85/85 86/86/86 87/87/87
f 88/88/88 89/89/89 90/90/90
f 91/91/91 92/92/92 93/93/93
f 94/94/94 95/95/95 96/96/96
f 97/97/97 98/98/98 99/99/99
f 100/100/100 101/101/101 102/102/102
f 103/103/103 104/104/104 105/105/105
f 106/106/106 107/107/107 108/108/108
f 109/109/109 110/110/110 111/111/111
f 112/112/112 113/113/113 114/114/114
f 115/115/115 116/116/116 117/117/117
f 118/118/118 119/119/119 120/120/120
f 121/121/121 122/122/122 123/123/123
f 124/124/124 125/125/125 126/126/126
f 127/127/127 128/128/128 129/129/129
f 130/130/130 131/131/131 132/132/132
f 133/133/133 134/134/134 135/135/135
f 136/136/136 137/137/137 138/138/138
f 139/139/139 140/140/140 141/141/141
f 142/142/142 143/143/143 144/144/144
f 145/145/145 146/146/146 147/147/147
f 148/148/148 149/149/149 150/150/150
f 151/151/151 152/152/152 153/153/153
f 154/154/154 155/155/155 156/156/156
f 157/157/157 158/158/158 159/159/159
f 160/160/160 161/161/161 162/162/162
f 163/163/163 164/164/164 165/165/165
f 166/166/166 167/167/167 168/168/168
f 169/169/169 170/170/170 171/171/171
f 172/172/172 173/173/173 174/174/174
f 175/175/175 176/176/176 177/177/177
f 178/178/178 179/179/179 180/180/180
f 181/181/181 182/182/182 183/183/183
f 184/184/184 185/185/185 186/186/186
