v -32.000000 3.000000 -3.000000 
v -46.000000 8.000000 17.000000 
v -44.000000 17.000000 17.000000 
v -27.000000 13.000000 0.000000 
v -32.000000 3.000000 -3.000000 
v -44.000000 17.000000 17.000000 
v 1.000000 1.000000 -15.000000 
v -32.000000 3.000000 -3.000000 
v -27.000000 13.000000 0.000000 
v 2.000000 14.000000 -5.000000 
v 1.000000 1.000000 -15.000000 
v -27.000000 13.000000 0.000000 
v 30.000000 2.000000 -4.000000 
v 1.000000 1.000000 -15.000000 
v 2.000000 14.000000 -5.000000 
v 30.000000 7.000000 -1.000000 
v 30.000000 2.000000 -4.000000 
v 2.000000 14.000000 -5.000000 
v 45.000000 8.000000 15.000000 
v 30.000000 2.000000 -4.000000 
v 30.000000 7.000000 -1.000000 
v 45.000000 13.000000 15.000000 
v 45.000000 8.000000 15.000000 
v 30.000000 7.000000 -1.000000 
v -27.000000 -5.000000 11.000000 
v -40.000000 3.000000 22.000000 
v -46.000000 8.000000 17.000000 
v -32.000000 3.000000 -3.000000 
v -27.000000 -5.000000 11.000000 
v -46.000000 8.000000 17.000000 
v 0.000000 -7.000000 0.000000 
v -27.000000 -5.000000 11.000000 
v -32.000000 3.000000 -3.000000 
v 1.000000 1.000000 -15.000000 
v 0.000000 -7.000000 0.000000 
v -32.000000 3.000000 -3.000000 
v 25.000000 -6.000000 9.000000 
v 0.000000 -7.000000 0.000000 
v 1.000000 1.000000 -15.000000 
v 30.000000 2.000000 -4.000000 
v 25.000000 -6.000000 9.000000 
v 1.000000 1.000000 -15.000000 
v 40.000000 -1.000000 22.000000 
v 25.000000 -6.000000 9.000000 
v 30.000000 2.000000 -4.000000 
v 45.000000 8.000000 15.000000 
v 40.000000 -1.000000 22.000000 
v 30.000000 2.000000 -4.000000 
vn -0.462891 -0.247559 -0.850830 
vn -0.726318 -0.472900 -0.498291 
vn -0.557129 0.253662 -0.790527 
vn -0.251465 0.337402 -0.906982 
vn -0.462891 -0.247559 -0.850830 
vn -0.557129 0.253662 -0.790527 
vn 0.018066 -0.210449 -0.977295 
vn -0.462891 -0.247559 -0.850830 
vn -0.251465 0.337402 -0.906982 
vn 0.088867 0.359375 -0.928711 
vn 0.018066 -0.210449 -0.977295 
vn -0.251465 0.337402 -0.906982 
vn 0.465088 -0.202881 -0.861328 
vn 0.018066 -0.210449 -0.977295 
vn 0.088867 0.359375 -0.928711 
vn 0.436279 0.219482 -0.872314 
vn 0.465088 -0.202881 -0.861328 
vn 0.088867 0.359375 -0.928711 
vn 0.646240 -0.065186 -0.760254 
vn 0.465088 -0.202881 -0.861328 
vn 0.436279 0.219482 -0.872314 
vn 0.569092 0.050781 -0.820557 
vn 0.646240 -0.065186 -0.760254 
vn 0.436279 0.219482 -0.872314 
vn -0.523926 -0.731689 -0.435547 
vn -0.647705 -0.743652 -0.165039 
vn -0.726318 -0.472900 -0.498291 
vn -0.462891 -0.247559 -0.850830 
vn -0.523926 -0.731689 -0.435547 
vn -0.726318 -0.472900 -0.498291 
vn -0.078613 -0.696533 -0.713135 
vn -0.523926 -0.731689 -0.435547 
vn -0.462891 -0.247559 -0.850830 
vn 0.018066 -0.210449 -0.977295 
vn -0.078613 -0.696533 -0.713135 
vn -0.462891 -0.247559 -0.850830 
vn 0.307129 -0.725342 -0.615479 
vn -0.078613 -0.696533 -0.713135 
vn 0.018066 -0.210449 -0.977295 
vn 0.465088 -0.202881 -0.861328 
vn 0.307129 -0.725342 -0.615479 
vn 0.018066 -0.210449 -0.977295 
vn 0.610107 -0.630127 -0.479736 
vn 0.307129 -0.725342 -0.615479 
vn 0.465088 -0.202881 -0.861328 
vn 0.646240 -0.065186 -0.760254 
vn 0.610107 -0.630127 -0.479736 
vn 0.465088 -0.202881 -0.861328 
vt 0.571429 0.238095 
vt 0.571429 0.174603 
vt 0.301587 0.174603 
vt 0.301587 0.238095 
vt 0.571429 0.238095 
vt 0.301587 0.174603 
vt 0.571429 0.238095 
vt 0.571429 0.174603 
vt 0.301587 0.174603 
vt 0.301587 0.238095 
vt 0.571429 0.238095 
vt 0.301587 0.174603 
vt 0.571429 0.238095 
vt 0.571429 0.174603 
vt 0.301587 0.174603 
vt 0.301587 0.238095 
vt 0.571429 0.238095 
vt 0.301587 0.174603 
vt 0.571429 0.238095 
vt 0.571429 0.174603 
vt 0.301587 0.174603 
vt 0.301587 0.238095 
vt 0.571429 0.238095 
vt 0.301587 0.174603 
vt 0.571429 0.238095 
vt 0.571429 0.174603 
vt 0.301587 0.174603 
vt 0.301587 0.238095 
vt 0.571429 0.238095 
vt 0.301587 0.174603 
vt 0.571429 0.238095 
vt 0.571429 0.174603 
vt 0.301587 0.174603 
vt 0.301587 0.238095 
vt 0.571429 0.238095 
vt 0.301587 0.174603 
vt 0.571429 0.238095 
vt 0.571429 0.174603 
vt 0.301587 0.174603 
vt 0.301587 0.238095 
vt 0.571429 0.238095 
vt 0.301587 0.174603 
vt 0.571429 0.238095 
vt 0.571429 0.174603 
vt 0.301587 0.174603 
vt 0.301587 0.238095 
vt 0.571429 0.238095 
vt 0.301587 0.174603 
f 1/1/1 2/2/2 3/3/3
f 4/4/4 5/5/5 6/6/6
f 7/7/7 8/8/8 9/9/9
f 10/10/10 11/11/11 12/12/12
f 13/13/13 14/14/14 15/15/15
f 16/16/16 17/17/17 18/18/18
f 19/19/19 20/20/20 21/21/21
f 22/22/22 23/23/23 24/24/24
f 25/25/25 26/26/26 27/27/27
f 28/28/28 29/29/29 30/30/30
f 31/31/31 32/32/32 33/33/33
f 34/34/34 35/35/35 36/36/36
f 37/37/37 38/38/38 39/39/39
f 40/40/40 41/41/41 42/42/42
f 43/43/43 44/44/44 45/45/45
f 46/46/46 47/47/47 48/48/48
