v 23.000000 -13.000000 -32.000000 
v 0.000000 -13.000000 -39.000000 
v 0.000000 13.000000 -31.000000 
v 19.000000 13.000000 -24.000000 
v 23.000000 -13.000000 -32.000000 
v 0.000000 13.000000 -31.000000 
v 0.000000 -13.000000 -39.000000 
v -23.000000 -13.000000 -32.000000 
v 0.000000 13.000000 -31.000000 
v -23.000000 -13.000000 -32.000000 
v -19.000000 13.000000 -24.000000 
v 0.000000 13.000000 -31.000000 
vn 0.484619 0.059326 -0.872559 
vn 0.000000 0.080078 -0.996582 
vn 0.000000 0.400146 -0.916260 
vn 0.519287 0.420166 -0.743896 
vn 0.484619 0.059326 -0.872559 
vn 0.000000 0.400146 -0.916260 
vn 0.000000 0.080078 -0.996582 
vn -0.484619 0.059326 -0.872559 
vn 0.000000 0.400146 -0.916260 
vn -0.484619 0.059326 -0.872559 
vn -0.519287 0.420166 -0.743896 
vn 0.000000 0.400146 -0.916260 
vt 0.920635 0.000000 
vt 0.492063 0.000000 
vt 0.492063 1.000000 
vt 0.888889 1.000000 
vt 0.920635 0.000000 
vt 0.492063 1.000000 
vt 0.492063 0.000000 
vt 0.031746 0.000000 
vt 0.492063 1.000000 
vt 0.031746 0.000000 
vt 0.063492 1.000000 
vt 0.492063 1.000000 
f 1/1/1 2/2/2 3/3/3
f 4/4/4 5/5/5 6/6/6
f 7/7/7 8/8/8 9/9/9
f 10/10/10 11/11/11 12/12/12
