v 36.000000 -1.000000 -6.000000 
v 35.000000 -3.000000 0.000000 
v 3.000000 -5.000000 -1.000000 
v 5.000000 -3.000000 -7.000000 
v 36.000000 -1.000000 -6.000000 
v 3.000000 -5.000000 -1.000000 
v 3.000000 -5.000000 -1.000000 
v 35.000000 -3.000000 0.000000 
v 2.000000 -2.000000 4.000000 
v 37.000000 3.000000 -6.000000 
v 36.000000 -1.000000 -6.000000 
v 5.000000 -3.000000 -7.000000 
v 5.000000 2.000000 -7.000000 
v 37.000000 3.000000 -6.000000 
v 5.000000 -3.000000 -7.000000 
v 36.000000 6.000000 0.000000 
v 37.000000 3.000000 -6.000000 
v 5.000000 2.000000 -7.000000 
v 4.000000 4.000000 -1.000000 
v 36.000000 6.000000 0.000000 
v 5.000000 2.000000 -7.000000 
v 34.000000 3.000000 5.000000 
v 36.000000 6.000000 0.000000 
v 4.000000 4.000000 -1.000000 
v 3.000000 2.000000 4.000000 
v 34.000000 3.000000 5.000000 
v 4.000000 4.000000 -1.000000 
v 34.000000 -1.000000 5.000000 
v 34.000000 3.000000 5.000000 
v 3.000000 2.000000 4.000000 
v 2.000000 -2.000000 4.000000 
v 34.000000 -1.000000 5.000000 
v 3.000000 2.000000 4.000000 
v 35.000000 -3.000000 0.000000 
v 34.000000 -1.000000 5.000000 
v 2.000000 -2.000000 4.000000 
vn -0.483887 -0.604248 -0.632568 
vn -0.190186 -0.981445 0.014404 
vn 0.000000 -0.999756 0.015381 
vn 0.202393 -0.657471 -0.725586 
vn -0.483887 -0.604248 -0.632568 
vn 0.000000 -0.999756 0.015381 
vn 0.000000 -0.999756 0.015381 
vn -0.190186 -0.981445 0.014404 
vn -0.228516 -0.655518 0.719482 
vn -0.488281 0.549072 -0.677979 
vn -0.483887 -0.604248 -0.632568 
vn 0.202393 -0.657471 -0.725586 
vn 0.228516 0.655518 -0.719482 
vn -0.488281 0.549072 -0.677979 
vn 0.202393 -0.657471 -0.725586 
vn -0.175293 0.984375 0.003174 
vn -0.488281 0.549072 -0.677979 
vn 0.228516 0.655518 -0.719482 
vn 0.000000 0.999756 -0.015381 
vn -0.175293 0.984375 0.003174 
vn 0.228516 0.655518 -0.719482 
vn -0.236816 0.658691 0.713867 
vn -0.175293 0.984375 0.003174 
vn 0.000000 0.999756 -0.015381 
vn -0.202393 0.657471 0.725586 
vn -0.236816 0.658691 0.713867 
vn 0.000000 0.999756 -0.015381 
vn -0.390137 -0.656982 0.645020 
vn -0.236816 0.658691 0.713867 
vn -0.202393 0.657471 0.725586 
vn -0.228516 -0.655518 0.719482 
vn -0.390137 -0.656982 0.645020 
vn -0.202393 0.657471 0.725586 
vn -0.190186 -0.981445 0.014404 
vn -0.390137 -0.656982 0.645020 
vn -0.228516 -0.655518 0.719482 
vt 0.291339 0.574803 
vt 0.291339 0.551181 
vt 0.291339 0.496063 
vt 0.291339 0.566929 
vt 0.291339 0.574803 
vt 0.291339 0.496063 
vt 0.291339 0.496063 
vt 0.291339 0.551181 
vt 0.291339 0.417323 
vt 0.291339 0.574803 
vt 0.291339 0.574803 
vt 0.291339 0.566929 
vt 0.283465 0.566929 
vt 0.291339 0.574803 
vt 0.291339 0.566929 
vt 0.283465 0.551181 
vt 0.291339 0.574803 
vt 0.283465 0.566929 
vt 0.283465 0.496063 
vt 0.283465 0.551181 
vt 0.283465 0.566929 
vt 0.291339 0.519685 
vt 0.283465 0.551181 
vt 0.283465 0.496063 
vt 0.283465 0.417323 
vt 0.291339 0.519685 
vt 0.283465 0.496063 
vt 0.291339 0.519685 
vt 0.291339 0.519685 
vt 0.283465 0.417323 
vt 0.291339 0.417323 
vt 0.291339 0.519685 
vt 0.283465 0.417323 
vt 0.291339 0.551181 
vt 0.291339 0.519685 
vt 0.291339 0.417323 
f 1/1/1 2/2/2 3/3/3
f 4/4/4 5/5/5 6/6/6
f 7/7/7 8/8/8 9/9/9
f 10/10/10 11/11/11 12/12/12
f 13/13/13 14/14/14 15/15/15
f 16/16/16 17/17/17 18/18/18
f 19/19/19 20/20/20 21/21/21
f 22/22/22 23/23/23 24/24/24
f 25/25/25 26/26/26 27/27/27
f 28/28/28 29/29/29 30/30/30
f 31/31/31 32/32/32 33/33/33
f 34/34/34 35/35/35 36/36/36
