v 0.000000 1.000000 3.000000 
v 0.000000 7.000000 10.000000 
v -6.000000 3.000000 3.000000 
v 0.000000 7.000000 10.000000 
v 1.000000 13.000000 3.000000 
v -6.000000 3.000000 3.000000 
v 1.000000 13.000000 3.000000 
v 0.000000 7.000000 -3.000000 
v -6.000000 3.000000 3.000000 
v 0.000000 7.000000 -3.000000 
v 0.000000 1.000000 3.000000 
v -6.000000 3.000000 3.000000 
v 47.000000 -2.000000 1.000000 
v 47.000000 5.000000 9.000000 
v 0.000000 1.000000 3.000000 
v 47.000000 5.000000 9.000000 
v 0.000000 7.000000 10.000000 
v 0.000000 1.000000 3.000000 
v 47.000000 5.000000 9.000000 
v 47.000000 12.000000 1.000000 
v 0.000000 7.000000 10.000000 
v 47.000000 12.000000 1.000000 
v 1.000000 13.000000 3.000000 
v 0.000000 7.000000 10.000000 
v 47.000000 12.000000 1.000000 
v 47.000000 5.000000 -6.000000 
v 1.000000 13.000000 3.000000 
v 47.000000 5.000000 -6.000000 
v 0.000000 7.000000 -3.000000 
v 1.000000 13.000000 3.000000 
v 47.000000 5.000000 -6.000000 
v 47.000000 -2.000000 1.000000 
v 0.000000 7.000000 -3.000000 
v 47.000000 -2.000000 1.000000 
v 0.000000 1.000000 3.000000 
v 0.000000 7.000000 -3.000000 
v 47.000000 5.000000 9.000000 
v 47.000000 -2.000000 1.000000 
v 52.000000 5.000000 1.000000 
v 47.000000 12.000000 1.000000 
v 47.000000 5.000000 9.000000 
v 52.000000 5.000000 1.000000 
v 47.000000 5.000000 -6.000000 
v 47.000000 12.000000 1.000000 
v 52.000000 5.000000 1.000000 
v 47.000000 -2.000000 1.000000 
v 47.000000 5.000000 -6.000000 
v 52.000000 5.000000 1.000000 
vn -0.170654 -0.967773 0.184570 
vn -0.282471 0.189209 0.940186 
vn -0.990723 -0.134277 -0.006592 
vn -0.282471 0.189209 0.940186 
vn -0.381592 0.903076 -0.196045 
vn -0.990723 -0.134277 -0.006592 
vn -0.381592 0.903076 -0.196045 
vn -0.347900 -0.245850 -0.904541 
vn -0.990723 -0.134277 -0.006592 
vn -0.347900 -0.245850 -0.904541 
vn -0.170654 -0.967773 0.184570 
vn -0.990723 -0.134277 -0.006592 
vn 0.392578 -0.898438 -0.195801 
vn 0.444336 -0.217773 0.868652 
vn -0.170654 -0.967773 0.184570 
vn 0.444336 -0.217773 0.868652 
vn -0.282471 0.189209 0.940186 
vn -0.170654 -0.967773 0.184570 
vn 0.444336 -0.217773 0.868652 
vn 0.447021 0.876465 0.178223 
vn -0.282471 0.189209 0.940186 
vn 0.447021 0.876465 0.178223 
vn -0.381592 0.903076 -0.196045 
vn -0.282471 0.189209 0.940186 
vn 0.447021 0.876465 0.178223 
vn 0.420410 0.222656 -0.879395 
vn -0.381592 0.903076 -0.196045 
vn 0.420410 0.222656 -0.879395 
vn -0.347900 -0.245850 -0.904541 
vn -0.381592 0.903076 -0.196045 
vn 0.420410 0.222656 -0.879395 
vn 0.392578 -0.898438 -0.195801 
vn -0.347900 -0.245850 -0.904541 
vn 0.392578 -0.898438 -0.195801 
vn -0.170654 -0.967773 0.184570 
vn -0.347900 -0.245850 -0.904541 
vn 0.444336 -0.217773 0.868652 
vn 0.392578 -0.898438 -0.195801 
vn 0.999756 0.000244 0.000000 
vn 0.447021 0.876465 0.178223 
vn 0.444336 -0.217773 0.868652 
vn 0.999756 0.000244 0.000000 
vn 0.420410 0.222656 -0.879395 
vn 0.447021 0.876465 0.178223 
vn 0.999756 0.000244 0.000000 
vn 0.392578 -0.898438 -0.195801 
vn 0.420410 0.222656 -0.879395 
vn 0.999756 0.000244 0.000000 
vt 0.708661 0.937008 
vt 0.937008 0.937008 
vt 0.708661 0.488189 
vt 0.708661 0.937008 
vt 0.937008 0.937008 
vt 0.708661 0.488189 
vt 0.708661 0.937008 
vt 0.937008 0.937008 
vt 0.708661 0.488189 
vt 0.708661 0.937008 
vt 0.937008 0.937008 
vt 0.708661 0.488189 
vt 0.708661 0.937008 
vt 0.937008 0.937008 
vt 0.708661 0.488189 
vt 0.937008 0.937008 
vt 0.937008 0.488189 
vt 0.708661 0.488189 
vt 0.708661 0.937008 
vt 0.937008 0.937008 
vt 0.708661 0.488189 
vt 0.937008 0.937008 
vt 0.937008 0.488189 
vt 0.708661 0.488189 
vt 0.708661 0.937008 
vt 0.937008 0.937008 
vt 0.708661 0.488189 
vt 0.937008 0.937008 
vt 0.937008 0.488189 
vt 0.708661 0.488189 
vt 0.708661 0.937008 
vt 0.937008 0.937008 
vt 0.708661 0.488189 
vt 0.937008 0.937008 
vt 0.937008 0.488189 
vt 0.708661 0.488189 
vt 0.937008 0.488189 
vt 0.708661 0.488189 
vt 0.937008 0.937008 
vt 0.937008 0.488189 
vt 0.708661 0.488189 
vt 0.937008 0.937008 
vt 0.937008 0.488189 
vt 0.708661 0.488189 
vt 0.937008 0.937008 
vt 0.937008 0.488189 
vt 0.708661 0.488189 
vt 0.937008 0.937008 
f 1/1/1 2/2/2 3/3/3
f 4/4/4 5/5/5 6/6/6
f 7/7/7 8/8/8 9/9/9
f 10/10/10 11/11/11 12/12/12
f 13/13/13 14/14/14 15/15/15
f 16/16/16 17/17/17 18/18/18
f 19/19/19 20/20/20 21/21/21
f 22/22/22 23/23/23 24/24/24
f 25/25/25 26/26/26 27/27/27
f 28/28/28 29/29/29 30/30/30
f 31/31/31 32/32/32 33/33/33
f 34/34/34 35/35/35 36/36/36
f 37/37/37 38/38/38 39/39/39
f 40/40/40 41/41/41 42/42/42
f 43/43/43 44/44/44 45/45/45
f 46/46/46 47/47/47 48/48/48
