v 12.000000 0.000000 5.000000 
v 0.000000 1.000000 17.000000 
v 0.000000 -4.000000 6.000000 
v 0.000000 1.000000 17.000000 
v -12.000000 0.000000 5.000000 
v 0.000000 -4.000000 6.000000 
v -12.000000 0.000000 5.000000 
v 0.000000 -1.000000 -7.000000 
v 0.000000 -4.000000 6.000000 
v 0.000000 -1.000000 -7.000000 
v 12.000000 0.000000 5.000000 
v 0.000000 -4.000000 6.000000 
v 14.000000 41.000000 3.000000 
v 0.000000 42.000000 15.000000 
v 12.000000 0.000000 5.000000 
v 0.000000 42.000000 15.000000 
v 0.000000 1.000000 17.000000 
v 12.000000 0.000000 5.000000 
v 0.000000 42.000000 15.000000 
v -12.000000 31.000000 4.000000 
v 0.000000 1.000000 17.000000 
v -12.000000 31.000000 4.000000 
v -12.000000 0.000000 5.000000 
v 0.000000 1.000000 17.000000 
v -12.000000 31.000000 4.000000 
v 0.000000 40.000000 -8.000000 
v -12.000000 0.000000 5.000000 
v 0.000000 40.000000 -8.000000 
v 0.000000 -1.000000 -7.000000 
v -12.000000 0.000000 5.000000 
v 0.000000 40.000000 -8.000000 
v 14.000000 41.000000 3.000000 
v 0.000000 -1.000000 -7.000000 
v 14.000000 41.000000 3.000000 
v 12.000000 0.000000 5.000000 
v 0.000000 -1.000000 -7.000000 
vn 0.803711 -0.519043 0.289795 
vn -0.212402 -0.434814 0.875000 
vn -0.039795 -0.990967 0.127197 
vn -0.212402 -0.434814 0.875000 
vn -0.856689 -0.495361 -0.142090 
vn -0.039795 -0.990967 0.127197 
vn -0.856689 -0.495361 -0.142090 
vn 0.177246 -0.572021 -0.800537 
vn -0.039795 -0.990967 0.127197 
vn 0.177246 -0.572021 -0.800537 
vn 0.803711 -0.519043 0.289795 
vn -0.039795 -0.990967 0.127197 
vn 0.943604 -0.033447 -0.328613 
vn 0.296875 0.030762 0.954346 
vn 0.803711 -0.519043 0.289795 
vn 0.296875 0.030762 0.954346 
vn -0.212402 -0.434814 0.875000 
vn 0.803711 -0.519043 0.289795 
vn 0.296875 0.030762 0.954346 
vn -0.942871 0.021973 0.332031 
vn -0.212402 -0.434814 0.875000 
vn -0.942871 0.021973 0.332031 
vn -0.856689 -0.495361 -0.142090 
vn -0.212402 -0.434814 0.875000 
vn -0.942871 0.021973 0.332031 
vn -0.333496 -0.018311 -0.942383 
vn -0.856689 -0.495361 -0.142090 
vn -0.333496 -0.018311 -0.942383 
vn 0.177246 -0.572021 -0.800537 
vn -0.856689 -0.495361 -0.142090 
vn -0.333496 -0.018311 -0.942383 
vn 0.943604 -0.033447 -0.328613 
vn 0.177246 -0.572021 -0.800537 
vn 0.943604 -0.033447 -0.328613 
vn 0.803711 -0.519043 0.289795 
vn 0.177246 -0.572021 -0.800537 
vt 0.698413 0.968254 
vt 0.920635 0.968254 
vt 0.698413 0.587302 
vt 0.698413 0.968254 
vt 0.920635 0.968254 
vt 0.698413 0.587302 
vt 0.698413 0.968254 
vt 0.920635 0.968254 
vt 0.698413 0.587302 
vt 0.698413 0.968254 
vt 0.920635 0.968254 
vt 0.698413 0.587302 
vt 0.698413 0.968254 
vt 0.920635 0.968254 
vt 0.698413 0.587302 
vt 0.920635 0.968254 
vt 0.920635 0.587302 
vt 0.698413 0.587302 
vt 0.698413 0.968254 
vt 0.920635 0.968254 
vt 0.698413 0.587302 
vt 0.920635 0.968254 
vt 0.920635 0.587302 
vt 0.698413 0.587302 
vt 0.650794 0.904762 
vt 0.809524 0.968254 
vt 0.650794 0.587302 
vt 0.809524 0.968254 
vt 0.809524 0.587302 
vt 0.650794 0.587302 
vt 0.809524 0.968254 
vt 0.984127 0.968254 
vt 0.809524 0.587302 
vt 0.984127 0.968254 
vt 0.984127 0.587302 
vt 0.809524 0.587302 
f 1/1/1 2/2/2 3/3/3
f 4/4/4 5/5/5 6/6/6
f 7/7/7 8/8/8 9/9/9
f 10/10/10 11/11/11 12/12/12
f 13/13/13 14/14/14 15/15/15
f 16/16/16 17/17/17 18/18/18
f 19/19/19 20/20/20 21/21/21
f 22/22/22 23/23/23 24/24/24
f 25/25/25 26/26/26 27/27/27
f 28/28/28 29/29/29 30/30/30
f 31/31/31 32/32/32 33/33/33
f 34/34/34 35/35/35 36/36/36
