v 4.000000 23.000000 0.000000 
v 0.000000 23.000000 4.000000 
v 6.000000 0.000000 0.000000 
v 0.000000 23.000000 4.000000 
v 0.000000 0.000000 6.000000 
v 6.000000 0.000000 0.000000 
v 0.000000 23.000000 4.000000 
v -6.000000 0.000000 0.000000 
v 0.000000 0.000000 6.000000 
v -4.000000 23.000000 0.000000 
v -6.000000 0.000000 0.000000 
v 0.000000 23.000000 4.000000 
v -4.000000 23.000000 0.000000 
v 0.000000 23.000000 -4.000000 
v -6.000000 0.000000 0.000000 
v 0.000000 23.000000 -4.000000 
v 0.000000 0.000000 -6.000000 
v -6.000000 0.000000 0.000000 
v 0.000000 23.000000 -4.000000 
v 6.000000 0.000000 0.000000 
v 0.000000 0.000000 -6.000000 
v 4.000000 23.000000 0.000000 
v 6.000000 0.000000 0.000000 
v 0.000000 23.000000 -4.000000 
vn 0.996338 0.085449 0.000000 
vn 0.000000 0.085449 0.996338 
vn 0.996338 0.085449 0.000000 
vn 0.000000 0.085449 0.996338 
vn 0.000000 0.085449 0.996338 
vn 0.996338 0.085449 0.000000 
vn 0.000000 0.085449 0.996338 
vn -0.996338 0.085449 0.000000 
vn 0.000000 0.085449 0.996338 
vn -0.996338 0.085449 0.000000 
vn -0.996338 0.085449 0.000000 
vn 0.000000 0.085449 0.996338 
vn -0.996338 0.085449 0.000000 
vn 0.000000 0.085449 -0.996338 
vn -0.996338 0.085449 0.000000 
vn 0.000000 0.085449 -0.996338 
vn 0.000000 0.085449 -0.996338 
vn -0.996338 0.085449 0.000000 
vn 0.000000 0.085449 -0.996338 
vn 0.996338 0.085449 0.000000 
vn 0.000000 0.085449 -0.996338 
vn 0.996338 0.085449 0.000000 
vn 0.996338 0.085449 0.000000 
vn 0.000000 0.085449 -0.996338 
vt 0.253968 0.258065 
vt 0.333333 0.258065 
vt 0.253968 0.032258 
vt 0.333333 0.258065 
vt 0.333333 0.032258 
vt 0.253968 0.032258 
vt 0.031746 0.258065 
vt 0.111111 0.032258 
vt 0.031746 0.032258 
vt 0.111111 0.258065 
vt 0.111111 0.032258 
vt 0.031746 0.258065 
vt 0.111111 0.258065 
vt 0.174603 0.258065 
vt 0.111111 0.032258 
vt 0.174603 0.258065 
vt 0.174603 0.032258 
vt 0.111111 0.032258 
vt 0.174603 0.258065 
vt 0.253968 0.032258 
vt 0.174603 0.032258 
vt 0.253968 0.258065 
vt 0.253968 0.032258 
vt 0.174603 0.258065 
f 1/1/1 2/2/2 3/3/3
f 4/4/4 5/5/5 6/6/6
f 7/7/7 8/8/8 9/9/9
f 10/10/10 11/11/11 12/12/12
f 13/13/13 14/14/14 15/15/15
f 16/16/16 17/17/17 18/18/18
f 19/19/19 20/20/20 21/21/21
f 22/22/22 23/23/23 24/24/24
