v 6.000000 32.000000 -21.000000 
v 6.000000 0.000000 -21.000000 
v -6.000000 0.000000 -21.000000 
v -6.000000 0.000000 -21.000000 
v -6.000000 35.000000 -21.000000 
v 6.000000 32.000000 -21.000000 
v 6.000000 32.000000 21.000000 
v 6.000000 0.000000 21.000000 
v 6.000000 0.000000 -21.000000 
v 6.000000 0.000000 -21.000000 
v 6.000000 32.000000 -21.000000 
v 6.000000 32.000000 21.000000 
v -6.000000 35.000000 21.000000 
v -6.000000 0.000000 21.000000 
v 6.000000 0.000000 21.000000 
v 6.000000 0.000000 21.000000 
v 6.000000 32.000000 21.000000 
v -6.000000 35.000000 21.000000 
v -6.000000 35.000000 -21.000000 
v -6.000000 0.000000 -21.000000 
v -6.000000 0.000000 21.000000 
v -6.000000 0.000000 21.000000 
v -6.000000 35.000000 21.000000 
v -6.000000 35.000000 -21.000000 
vn 0.447021 0.000000 -0.894287 
vn 0.816406 -0.408203 -0.408203 
vn 0.000000 -0.707031 -0.707031 
vn 0.000000 -0.707031 -0.707031 
vn 0.000000 0.000000 -1.000000 
vn 0.447021 0.000000 -0.894287 
vn 0.894287 0.000000 0.447021 
vn 0.333252 -0.666504 0.666504 
vn 0.816406 -0.408203 -0.408203 
vn 0.816406 -0.408203 -0.408203 
vn 0.447021 0.000000 -0.894287 
vn 0.894287 0.000000 0.447021 
vn 0.000000 0.000000 1.000000 
vn 0.000000 -0.707031 0.707031 
vn 0.333252 -0.666504 0.666504 
vn 0.333252 -0.666504 0.666504 
vn 0.894287 0.000000 0.447021 
vn 0.000000 0.000000 1.000000 
vn -1.000000 0.000000 0.000000 
vn -1.000000 0.000000 0.000000 
vn -1.000000 0.000000 0.000000 
vn -1.000000 0.000000 0.000000 
vn -1.000000 0.000000 0.000000 
vn -1.000000 0.000000 0.000000 
vt 0.806452 0.806452 
vt 0.806452 0.000000 
vt 0.096774 0.000000 
vt 0.096774 0.000000 
vt 0.096774 0.806452 
vt 0.806452 0.806452 
vt 0.806452 0.806452 
vt 0.806452 0.000000 
vt 0.096774 0.000000 
vt 0.096774 0.000000 
vt 0.096774 0.806452 
vt 0.806452 0.806452 
vt 0.806452 0.806452 
vt 0.806452 0.000000 
vt 0.096774 0.000000 
vt 0.096774 0.000000 
vt 0.096774 0.806452 
vt 0.806452 0.806452 
vt 0.806452 0.806452 
vt 0.806452 0.000000 
vt 0.096774 0.000000 
vt 0.096774 0.000000 
vt 0.096774 0.806452 
vt 0.806452 0.806452 
f 1/1/1 2/2/2 3/3/3
f 4/4/4 5/5/5 6/6/6
f 7/7/7 8/8/8 9/9/9
f 10/10/10 11/11/11 12/12/12
f 13/13/13 14/14/14 15/15/15
f 16/16/16 17/17/17 18/18/18
f 19/19/19 20/20/20 21/21/21
f 22/22/22 23/23/23 24/24/24
