v 12.000000 -9.000000 9.000000 
v 12.000000 -6.000000 9.000000 
v 12.000000 -8.000000 14.000000 
v 12.000000 -6.000000 15.000000 
v 12.000000 -8.000000 14.000000 
v 12.000000 -6.000000 9.000000 
v 12.000000 -6.000000 15.000000 
v 7.000000 -6.000000 16.000000 
v 12.000000 -8.000000 14.000000 
v 7.000000 -8.000000 14.000000 
v 12.000000 -8.000000 14.000000 
v 7.000000 -6.000000 16.000000 
v 12.000000 -8.000000 14.000000 
v 7.000000 -8.000000 14.000000 
v 12.000000 -9.000000 9.000000 
v 12.000000 -6.000000 9.000000 
v 12.000000 4.000000 9.000000 
v 12.000000 -6.000000 15.000000 
v 12.000000 3.000000 15.000000 
v 12.000000 -6.000000 15.000000 
v 12.000000 4.000000 9.000000 
v 12.000000 3.000000 15.000000 
v 7.000000 4.000000 16.000000 
v 12.000000 -6.000000 15.000000 
v 7.000000 -6.000000 16.000000 
v 12.000000 -6.000000 15.000000 
v 7.000000 4.000000 16.000000 
v 12.000000 4.000000 9.000000 
v 12.000000 7.000000 9.000000 
v 12.000000 3.000000 15.000000 
v 12.000000 6.000000 14.000000 
v 12.000000 3.000000 15.000000 
v 12.000000 7.000000 9.000000 
v 12.000000 6.000000 14.000000 
v 7.000000 6.000000 14.000000 
v 12.000000 3.000000 15.000000 
v 7.000000 4.000000 16.000000 
v 12.000000 3.000000 15.000000 
v 7.000000 6.000000 14.000000 
v 12.000000 7.000000 9.000000 
v 8.000000 8.000000 9.000000 
v 12.000000 6.000000 14.000000 
v 7.000000 6.000000 14.000000 
v 12.000000 6.000000 14.000000 
v 8.000000 8.000000 9.000000 
v 12.000000 -8.000000 1.000000 
v 12.000000 -6.000000 1.000000 
v 12.000000 -9.000000 9.000000 
v 12.000000 -6.000000 9.000000 
v 12.000000 -9.000000 9.000000 
v 12.000000 -6.000000 1.000000 
v 12.000000 -9.000000 9.000000 
v 8.000000 -9.000000 9.000000 
v 12.000000 -8.000000 1.000000 
v 8.000000 -9.000000 9.000000 
v 12.000000 -9.000000 9.000000 
v 7.000000 -8.000000 14.000000 
v 12.000000 -6.000000 1.000000 
v 12.000000 3.000000 1.000000 
v 12.000000 -6.000000 9.000000 
v 12.000000 4.000000 9.000000 
v 12.000000 -6.000000 9.000000 
v 12.000000 3.000000 1.000000 
v 12.000000 3.000000 1.000000 
v 12.000000 6.000000 1.000000 
v 12.000000 4.000000 9.000000 
v 12.000000 7.000000 9.000000 
v 12.000000 4.000000 9.000000 
v 12.000000 6.000000 1.000000 
v 12.000000 6.000000 1.000000 
v 7.000000 7.000000 1.000000 
v 12.000000 7.000000 9.000000 
v 8.000000 8.000000 9.000000 
v 12.000000 7.000000 9.000000 
v 7.000000 7.000000 1.000000 
v 12.000000 -7.000000 -5.000000 
v 12.000000 -6.000000 -6.000000 
v 12.000000 -8.000000 1.000000 
v 12.000000 -6.000000 1.000000 
v 12.000000 -8.000000 1.000000 
v 12.000000 -6.000000 -6.000000 
v 12.000000 -8.000000 1.000000 
v 7.000000 -9.000000 1.000000 
v 12.000000 -7.000000 -5.000000 
v 7.000000 -9.000000 1.000000 
v 12.000000 -8.000000 1.000000 
v 8.000000 -9.000000 9.000000 
v 12.000000 -6.000000 -6.000000 
v 12.000000 4.000000 -6.000000 
v 12.000000 -6.000000 1.000000 
v 12.000000 3.000000 1.000000 
v 12.000000 -6.000000 1.000000 
v 12.000000 4.000000 -6.000000 
v 12.000000 4.000000 -6.000000 
v 12.000000 5.000000 -5.000000 
v 12.000000 3.000000 1.000000 
v 12.000000 6.000000 1.000000 
v 12.000000 3.000000 1.000000 
v 12.000000 5.000000 -5.000000 
v 12.000000 5.000000 -5.000000 
v 4.000000 6.000000 -5.000000 
v 12.000000 6.000000 1.000000 
v 7.000000 7.000000 1.000000 
v 12.000000 6.000000 1.000000 
v 4.000000 6.000000 -5.000000 
v 12.000000 -7.000000 -5.000000 
v 4.000000 -7.000000 -5.000000 
v 12.000000 -6.000000 -6.000000 
v 4.000000 -7.000000 -5.000000 
v 12.000000 -7.000000 -5.000000 
v 7.000000 -9.000000 1.000000 
v 12.000000 -6.000000 -6.000000 
v 3.000000 -5.000000 -6.000000 
v 12.000000 4.000000 -6.000000 
v 3.000000 -5.000000 -6.000000 
v 12.000000 -6.000000 -6.000000 
v 4.000000 -7.000000 -5.000000 
v 12.000000 4.000000 -6.000000 
v 3.000000 4.000000 -6.000000 
v 12.000000 5.000000 -5.000000 
v 3.000000 4.000000 -6.000000 
v 12.000000 4.000000 -6.000000 
v 3.000000 -5.000000 -6.000000 
v 4.000000 6.000000 -5.000000 
v 12.000000 5.000000 -5.000000 
v 3.000000 4.000000 -6.000000 
v 4.000000 -6.000000 15.000000 
v 1.000000 -4.000000 12.000000 
v 4.000000 -8.000000 14.000000 
v 4.000000 -9.000000 9.000000 
v 4.000000 -8.000000 14.000000 
v 1.000000 -4.000000 12.000000 
v 4.000000 -8.000000 14.000000 
v 7.000000 -8.000000 14.000000 
v 4.000000 -6.000000 15.000000 
v 7.000000 -8.000000 14.000000 
v 4.000000 -8.000000 14.000000 
v 8.000000 -9.000000 9.000000 
v 4.000000 -9.000000 9.000000 
v 8.000000 -9.000000 9.000000 
v 4.000000 -8.000000 14.000000 
v 4.000000 4.000000 15.000000 
v 1.000000 4.000000 12.000000 
v 4.000000 -6.000000 15.000000 
v 1.000000 -4.000000 12.000000 
v 4.000000 -6.000000 15.000000 
v 1.000000 4.000000 12.000000 
v 7.000000 -6.000000 16.000000 
v 4.000000 -6.000000 15.000000 
v 7.000000 -8.000000 14.000000 
v 4.000000 -6.000000 15.000000 
v 7.000000 -6.000000 16.000000 
v 4.000000 4.000000 15.000000 
v 7.000000 4.000000 16.000000 
v 4.000000 4.000000 15.000000 
v 7.000000 -6.000000 16.000000 
v 4.000000 4.000000 15.000000 
v 7.000000 4.000000 16.000000 
v 4.000000 6.000000 14.000000 
v 4.000000 8.000000 9.000000 
v 1.000000 4.000000 12.000000 
v 4.000000 4.000000 15.000000 
v 4.000000 6.000000 14.000000 
v 4.000000 8.000000 9.000000 
v 4.000000 4.000000 15.000000 
v 7.000000 6.000000 14.000000 
v 4.000000 6.000000 14.000000 
v 7.000000 4.000000 16.000000 
v 4.000000 6.000000 14.000000 
v 7.000000 6.000000 14.000000 
v 4.000000 8.000000 9.000000 
v 8.000000 -9.000000 9.000000 
v 4.000000 -9.000000 9.000000 
v 7.000000 -9.000000 1.000000 
v 2.000000 -7.000000 1.000000 
v 7.000000 -9.000000 1.000000 
v 4.000000 -9.000000 9.000000 
v 4.000000 8.000000 9.000000 
v 2.000000 7.000000 1.000000 
v 1.000000 4.000000 12.000000 
v 8.000000 8.000000 9.000000 
v 4.000000 8.000000 9.000000 
v 7.000000 6.000000 14.000000 
v 4.000000 8.000000 9.000000 
v 8.000000 8.000000 9.000000 
v 2.000000 7.000000 1.000000 
v 7.000000 -9.000000 1.000000 
v 2.000000 -7.000000 1.000000 
v 4.000000 -7.000000 -5.000000 
v 7.000000 7.000000 1.000000 
v 2.000000 7.000000 1.000000 
v 8.000000 8.000000 9.000000 
vn 0.244385 -0.963867 0.103516 
vn 0.999756 0.000000 0.016602 
vn 0.169189 -0.832031 0.527832 
vn 0.255615 -0.226318 0.939697 
vn 0.169189 -0.832031 0.527832 
vn 0.999756 0.000000 0.016602 
vn 0.255615 -0.226318 0.939697 
vn -0.024414 -0.412354 0.910400 
vn 0.169189 -0.832031 0.527832 
vn -0.012451 -0.893555 0.448242 
vn 0.169189 -0.832031 0.527832 
vn -0.024414 -0.412354 0.910400 
vn 0.169189 -0.832031 0.527832 
vn -0.012451 -0.893555 0.448242 
vn 0.244385 -0.963867 0.103516 
vn 0.999756 0.000000 0.016602 
vn 0.999756 -0.000244 0.016602 
vn 0.255615 -0.226318 0.939697 
vn 0.255859 0.453369 0.853516 
vn 0.255615 -0.226318 0.939697 
vn 0.999756 -0.000244 0.016602 
vn 0.255859 0.453369 0.853516 
vn -0.018555 0.347168 0.937500 
vn 0.255615 -0.226318 0.939697 
vn -0.024414 -0.412354 0.910400 
vn 0.255615 -0.226318 0.939697 
vn -0.018555 0.347168 0.937500 
vn 0.999756 -0.000244 0.016602 
vn 0.250000 0.967773 0.022217 
vn 0.255859 0.453369 0.853516 
vn 0.088379 0.889160 0.448730 
vn 0.255859 0.453369 0.853516 
vn 0.250000 0.967773 0.022217 
vn 0.088379 0.889160 0.448730 
vn -0.003418 0.863770 0.503418 
vn 0.255859 0.453369 0.853516 
vn -0.018555 0.347168 0.937500 
vn 0.255859 0.453369 0.853516 
vn -0.003418 0.863770 0.503418 
vn 0.250000 0.967773 0.022217 
vn 0.003662 0.996826 0.077881 
vn 0.088379 0.889160 0.448730 
vn -0.003418 0.863770 0.503418 
vn 0.088379 0.889160 0.448730 
vn 0.003662 0.996826 0.077881 
vn 0.245117 -0.966797 -0.069824 
vn 0.999756 0.000244 0.017090 
vn 0.244385 -0.963867 0.103516 
vn 0.999756 0.000000 0.016602 
vn 0.244385 -0.963867 0.103516 
vn 0.999756 0.000244 0.017090 
vn 0.244385 -0.963867 0.103516 
vn -0.003662 -0.996826 0.076904 
vn 0.245117 -0.966797 -0.069824 
vn -0.003662 -0.996826 0.076904 
vn 0.244385 -0.963867 0.103516 
vn -0.012451 -0.893555 0.448242 
vn 0.999756 0.000244 0.017090 
vn 0.999756 -0.000488 0.017090 
vn 0.999756 0.000000 0.016602 
vn 0.999756 -0.000244 0.016602 
vn 0.999756 0.000000 0.016602 
vn 0.999756 -0.000488 0.017090 
vn 0.999756 -0.000488 0.017090 
vn 0.247803 0.959229 -0.134277 
vn 0.999756 -0.000244 0.016602 
vn 0.250000 0.967773 0.022217 
vn 0.999756 -0.000244 0.016602 
vn 0.247803 0.959229 -0.134277 
vn 0.247803 0.959229 -0.134277 
vn 0.005127 0.990967 -0.132568 
vn 0.250000 0.967773 0.022217 
vn 0.003662 0.996826 0.077881 
vn 0.250000 0.967773 0.022217 
vn 0.005127 0.990967 -0.132568 
vn 0.088867 -0.948975 -0.302002 
vn 0.275635 -0.518799 -0.809082 
vn 0.245117 -0.966797 -0.069824 
vn 0.999756 0.000244 0.017090 
vn 0.245117 -0.966797 -0.069824 
vn 0.275635 -0.518799 -0.809082 
vn 0.245117 -0.966797 -0.069824 
vn -0.007324 -0.994629 -0.103027 
vn 0.088867 -0.948975 -0.302002 
vn -0.007324 -0.994629 -0.103027 
vn 0.245117 -0.966797 -0.069824 
vn -0.003662 -0.996826 0.076904 
vn 0.275635 -0.518799 -0.809082 
vn 0.285400 0.287109 -0.914062 
vn 0.999756 0.000244 0.017090 
vn 0.999756 -0.000488 0.017090 
vn 0.999756 0.000244 0.017090 
vn 0.285400 0.287109 -0.914062 
vn 0.285400 0.287109 -0.914062 
vn 0.182617 0.838379 -0.513428 
vn 0.999756 -0.000488 0.017090 
vn 0.247803 0.959229 -0.134277 
vn 0.999756 -0.000488 0.017090 
vn 0.182617 0.838379 -0.513428 
vn 0.182617 0.838379 -0.513428 
vn 0.005615 0.934326 -0.355713 
vn 0.247803 0.959229 -0.134277 
vn 0.005127 0.990967 -0.132568 
vn 0.247803 0.959229 -0.134277 
vn 0.005615 0.934326 -0.355713 
vn 0.088867 -0.948975 -0.302002 
vn -0.004150 -0.905518 -0.423584 
vn 0.275635 -0.518799 -0.809082 
vn -0.004150 -0.905518 -0.423584 
vn 0.088867 -0.948975 -0.302002 
vn -0.007324 -0.994629 -0.103027 
vn 0.275635 -0.518799 -0.809082 
vn 0.010254 -0.362061 -0.931885 
vn 0.285400 0.287109 -0.914062 
vn 0.010254 -0.362061 -0.931885 
vn 0.275635 -0.518799 -0.809082 
vn -0.004150 -0.905518 -0.423584 
vn 0.285400 0.287109 -0.914062 
vn 0.013916 0.385254 -0.922607 
vn 0.182617 0.838379 -0.513428 
vn 0.013916 0.385254 -0.922607 
vn 0.285400 0.287109 -0.914062 
vn 0.010254 -0.362061 -0.931885 
vn 0.005615 0.934326 -0.355713 
vn 0.182617 0.838379 -0.513428 
vn 0.013916 0.385254 -0.922607 
vn -0.054688 -0.358887 0.931641 
vn -0.054688 -0.715088 0.696533 
vn -0.043945 -0.874023 0.483398 
vn -0.033691 -0.993896 0.103760 
vn -0.043945 -0.874023 0.483398 
vn -0.054688 -0.715088 0.696533 
vn -0.043945 -0.874023 0.483398 
vn -0.012451 -0.893555 0.448242 
vn -0.054688 -0.358887 0.931641 
vn -0.012451 -0.893555 0.448242 
vn -0.043945 -0.874023 0.483398 
vn -0.003662 -0.996826 0.076904 
vn -0.033691 -0.993896 0.103760 
vn -0.003662 -0.996826 0.076904 
vn -0.043945 -0.874023 0.483398 
vn -0.099609 0.293213 0.950684 
vn -0.043457 0.684814 0.727051 
vn -0.054688 -0.358887 0.931641 
vn -0.054688 -0.715088 0.696533 
vn -0.054688 -0.358887 0.931641 
vn -0.043457 0.684814 0.727051 
vn -0.024414 -0.412354 0.910400 
vn -0.054688 -0.358887 0.931641 
vn -0.012451 -0.893555 0.448242 
vn -0.054688 -0.358887 0.931641 
vn -0.024414 -0.412354 0.910400 
vn -0.099609 0.293213 0.950684 
vn -0.018555 0.347168 0.937500 
vn -0.099609 0.293213 0.950684 
vn -0.024414 -0.412354 0.910400 
vn -0.099609 0.293213 0.950684 
vn -0.018555 0.347168 0.937500 
vn -0.100098 0.745605 0.658691 
vn -0.068604 0.962158 0.263184 
vn -0.043457 0.684814 0.727051 
vn -0.099609 0.293213 0.950684 
vn -0.100098 0.745605 0.658691 
vn -0.068604 0.962158 0.263184 
vn -0.099609 0.293213 0.950684 
vn -0.003418 0.863770 0.503418 
vn -0.100098 0.745605 0.658691 
vn -0.018555 0.347168 0.937500 
vn -0.100098 0.745605 0.658691 
vn -0.003418 0.863770 0.503418 
vn -0.068604 0.962158 0.263184 
vn -0.003662 -0.996826 0.076904 
vn -0.033691 -0.993896 0.103760 
vn -0.007324 -0.994629 -0.103027 
vn -0.018799 -0.995605 -0.090820 
vn -0.007324 -0.994629 -0.103027 
vn -0.033691 -0.993896 0.103760 
vn -0.068604 0.962158 0.263184 
vn -0.011230 0.999512 -0.024170 
vn -0.043457 0.684814 0.727051 
vn 0.003662 0.996826 0.077881 
vn -0.068604 0.962158 0.263184 
vn -0.003418 0.863770 0.503418 
vn -0.068604 0.962158 0.263184 
vn 0.003662 0.996826 0.077881 
vn -0.011230 0.999512 -0.024170 
vn -0.007324 -0.994629 -0.103027 
vn -0.018799 -0.995605 -0.090820 
vn -0.004150 -0.905518 -0.423584 
vn 0.005127 0.990967 -0.132568 
vn -0.011230 0.999512 -0.024170 
vn 0.003662 0.996826 0.077881 
vt 0.809524 0.142857 
vt 0.793651 0.142857 
vt 0.793651 0.174603 
vt 0.777778 0.190476 
vt 0.793651 0.174603 
vt 0.793651 0.142857 
vt 0.777778 0.190476 
vt 0.793651 0.206349 
vt 0.793651 0.174603 
vt 0.809524 0.190476 
vt 0.793651 0.174603 
vt 0.793651 0.206349 
vt 0.793651 0.174603 
vt 0.809524 0.190476 
vt 0.809524 0.142857 
vt 0.793651 0.142857 
vt 0.714286 0.142857 
vt 0.777778 0.190476 
vt 0.714286 0.190476 
vt 0.777778 0.190476 
vt 0.714286 0.142857 
vt 0.714286 0.190476 
vt 0.714286 0.206349 
vt 0.777778 0.190476 
vt 0.793651 0.206349 
vt 0.777778 0.190476 
vt 0.714286 0.206349 
vt 0.714286 0.142857 
vt 0.698413 0.142857 
vt 0.714286 0.190476 
vt 0.698413 0.174603 
vt 0.714286 0.190476 
vt 0.698413 0.142857 
vt 0.698413 0.174603 
vt 0.698413 0.190476 
vt 0.714286 0.190476 
vt 0.714286 0.206349 
vt 0.714286 0.190476 
vt 0.698413 0.190476 
vt 0.698413 0.142857 
vt 0.682540 0.142857 
vt 0.698413 0.174603 
vt 0.698413 0.190476 
vt 0.698413 0.174603 
vt 0.682540 0.142857 
vt 0.809524 0.079365 
vt 0.793651 0.079365 
vt 0.809524 0.142857 
vt 0.793651 0.142857 
vt 0.809524 0.142857 
vt 0.793651 0.079365 
vt 0.809524 0.142857 
vt 0.809524 0.142857 
vt 0.809524 0.079365 
vt 0.809524 0.142857 
vt 0.809524 0.142857 
vt 0.809524 0.190476 
vt 0.793651 0.079365 
vt 0.714286 0.079365 
vt 0.793651 0.142857 
vt 0.714286 0.142857 
vt 0.793651 0.142857 
vt 0.714286 0.079365 
vt 0.714286 0.079365 
vt 0.698413 0.079365 
vt 0.714286 0.142857 
vt 0.698413 0.142857 
vt 0.714286 0.142857 
vt 0.698413 0.079365 
vt 0.698413 0.079365 
vt 0.682540 0.095238 
vt 0.698413 0.142857 
vt 0.682540 0.142857 
vt 0.698413 0.142857 
vt 0.682540 0.095238 
vt 0.793651 0.031746 
vt 0.793651 0.015873 
vt 0.809524 0.079365 
vt 0.793651 0.079365 
vt 0.809524 0.079365 
vt 0.793651 0.015873 
vt 0.809524 0.079365 
vt 0.809524 0.095238 
vt 0.793651 0.031746 
vt 0.809524 0.095238 
vt 0.809524 0.079365 
vt 0.809524 0.142857 
vt 0.793651 0.015873 
vt 0.714286 0.015873 
vt 0.793651 0.079365 
vt 0.714286 0.079365 
vt 0.793651 0.079365 
vt 0.714286 0.015873 
vt 0.714286 0.015873 
vt 0.698413 0.031746 
vt 0.714286 0.079365 
vt 0.698413 0.079365 
vt 0.714286 0.079365 
vt 0.698413 0.031746 
vt 0.698413 0.031746 
vt 0.698413 0.047619 
vt 0.698413 0.079365 
vt 0.682540 0.095238 
vt 0.698413 0.079365 
vt 0.698413 0.047619 
vt 0.793651 0.031746 
vt 0.793651 0.047619 
vt 0.793651 0.015873 
vt 0.793651 0.047619 
vt 0.793651 0.031746 
vt 0.809524 0.095238 
vt 0.793651 0.015873 
vt 0.777778 0.031746 
vt 0.714286 0.015873 
vt 0.777778 0.031746 
vt 0.793651 0.015873 
vt 0.793651 0.047619 
vt 0.714286 0.015873 
vt 0.714286 0.031746 
vt 0.698413 0.031746 
vt 0.714286 0.031746 
vt 0.714286 0.015873 
vt 0.777778 0.031746 
vt 0.698413 0.047619 
vt 0.698413 0.031746 
vt 0.714286 0.031746 
vt 0.793651 0.206349 
vt 0.777778 0.190476 
vt 0.793651 0.190476 
vt 0.809524 0.158730 
vt 0.793651 0.190476 
vt 0.777778 0.190476 
vt 0.793651 0.190476 
vt 0.809524 0.190476 
vt 0.793651 0.206349 
vt 0.809524 0.190476 
vt 0.793651 0.190476 
vt 0.809524 0.142857 
vt 0.809524 0.158730 
vt 0.809524 0.142857 
vt 0.793651 0.190476 
vt 0.714286 0.206349 
vt 0.714286 0.190476 
vt 0.793651 0.206349 
vt 0.777778 0.190476 
vt 0.793651 0.206349 
vt 0.714286 0.190476 
vt 0.793651 0.206349 
vt 0.793651 0.206349 
vt 0.809524 0.190476 
vt 0.793651 0.206349 
vt 0.793651 0.206349 
vt 0.714286 0.206349 
vt 0.714286 0.206349 
vt 0.714286 0.206349 
vt 0.793651 0.206349 
vt 0.714286 0.206349 
vt 0.714286 0.206349 
vt 0.698413 0.190476 
vt 0.682540 0.158730 
vt 0.714286 0.190476 
vt 0.714286 0.206349 
vt 0.698413 0.190476 
vt 0.682540 0.158730 
vt 0.714286 0.206349 
vt 0.698413 0.190476 
vt 0.698413 0.190476 
vt 0.714286 0.206349 
vt 0.698413 0.190476 
vt 0.698413 0.190476 
vt 0.682540 0.158730 
vt 0.809524 0.142857 
vt 0.809524 0.158730 
vt 0.809524 0.095238 
vt 0.793651 0.111111 
vt 0.809524 0.095238 
vt 0.809524 0.158730 
vt 0.682540 0.158730 
vt 0.682540 0.111111 
vt 0.714286 0.190476 
vt 0.682540 0.142857 
vt 0.682540 0.158730 
vt 0.698413 0.190476 
vt 0.682540 0.158730 
vt 0.682540 0.142857 
vt 0.682540 0.111111 
vt 0.809524 0.095238 
vt 0.793651 0.111111 
vt 0.793651 0.047619 
vt 0.682540 0.095238 
vt 0.682540 0.111111 
vt 0.682540 0.142857 
f 1/1/1 2/2/2 3/3/3
f 4/4/4 5/5/5 6/6/6
f 7/7/7 8/8/8 9/9/9
f 10/10/10 11/11/11 12/12/12
f 13/13/13 14/14/14 15/15/15
f 16/16/16 17/17/17 18/18/18
f 19/19/19 20/20/20 21/21/21
f 22/22/22 23/23/23 24/24/24
f 25/25/25 26/26/26 27/27/27
f 28/28/28 29/29/29 30/30/30
f 31/31/31 32/32/32 33/33/33
f 34/34/34 35/35/35 36/36/36
f 37/37/37 38/38/38 39/39/39
f 40/40/40 41/41/41 42/42/42
f 43/43/43 44/44/44 45/45/45
f 46/46/46 47/47/47 48/48/48
f 49/49/49 50/50/50 51/51/51
f 52/52/52 53/53/53 54/54/54
f 55/55/55 56/56/56 57/57/57
f 58/58/58 59/59/59 60/60/60
f 61/61/61 62/62/62 63/63/63
f 64/64/64 65/65/65 66/66/66
f 67/67/67 68/68/68 69/69/69
f 70/70/70 71/71/71 72/72/72
f 73/73/73 74/74/74 75/75/75
f 76/76/76 77/77/77 78/78/78
f 79/79/79 80/80/80 81/81/81
f 82/82/82 83/83/83 84/84/84
f 85/85/85 86/86/86 87/87/87
f 88/88/88 89/89/89 90/90/90
f 91/91/91 92/92/92 93/93/93
f 94/94/94 95/95/95 96/96/96
f 97/97/97 98/98/98 99/99/99
f 100/100/100 101/101/101 102/102/102
f 103/103/103 104/104/104 105/105/105
f 106/106/106 107/107/107 108/108/108
f 109/109/109 110/110/110 111/111/111
f 112/112/112 113/113/113 114/114/114
f 115/115/115 116/116/116 117/117/117
f 118/118/118 119/119/119 120/120/120
f 121/121/121 122/122/122 123/123/123
f 124/124/124 125/125/125 126/126/126
f 127/127/127 128/128/128 129/129/129
f 130/130/130 131/131/131 132/132/132
f 133/133/133 134/134/134 135/135/135
f 136/136/136 137/137/137 138/138/138
f 139/139/139 140/140/140 141/141/141
f 142/142/142 143/143/143 144/144/144
f 145/145/145 146/146/146 147/147/147
f 148/148/148 149/149/149 150/150/150
f 151/151/151 152/152/152 153/153/153
f 154/154/154 155/155/155 156/156/156
f 157/157/157 158/158/158 159/159/159
f 160/160/160 161/161/161 162/162/162
f 163/163/163 164/164/164 165/165/165
f 166/166/166 167/167/167 168/168/168
f 169/169/169 170/170/170 171/171/171
f 172/172/172 173/173/173 174/174/174
f 175/175/175 176/176/176 177/177/177
f 178/178/178 179/179/179 180/180/180
f 181/181/181 182/182/182 183/183/183
f 184/184/184 185/185/185 186/186/186
f 187/187/187 188/188/188 189/189/189
f 190/190/190 191/191/191 192/192/192
