v 0.000000 0.000000 0.000000 
v -3.000000 0.000000 6.000000 
v 0.000000 -6.000000 0.000000 
v 0.000000 0.000000 0.000000 
v 0.000000 6.000000 0.000000 
v -3.000000 0.000000 6.000000 
v 0.000000 0.000000 0.000000 
v 3.000000 0.000000 -6.000000 
v 0.000000 6.000000 0.000000 
v 0.000000 0.000000 0.000000 
v 0.000000 -6.000000 0.000000 
v 3.000000 0.000000 -6.000000 
v 0.000000 -6.000000 0.000000 
v -17.000000 0.000000 -5.000000 
v -15.000000 -3.000000 -8.000000 
v 0.000000 -6.000000 0.000000 
v -3.000000 0.000000 6.000000 
v -17.000000 0.000000 -5.000000 
v -3.000000 0.000000 6.000000 
v -14.000000 4.000000 -9.000000 
v -17.000000 0.000000 -5.000000 
v -3.000000 0.000000 6.000000 
v 0.000000 6.000000 0.000000 
v -14.000000 4.000000 -9.000000 
v 0.000000 6.000000 0.000000 
v -12.000000 0.000000 -12.000000 
v -14.000000 4.000000 -9.000000 
v 0.000000 6.000000 0.000000 
v 3.000000 0.000000 -6.000000 
v -12.000000 0.000000 -12.000000 
v 3.000000 0.000000 -6.000000 
v -15.000000 -3.000000 -8.000000 
v -12.000000 0.000000 -12.000000 
v 3.000000 0.000000 -6.000000 
v 0.000000 -6.000000 0.000000 
v -15.000000 -3.000000 -8.000000 
v -15.000000 -3.000000 -8.000000 
v -31.000000 0.000000 -22.000000 
v -31.000000 0.000000 -22.000000 
v -15.000000 -3.000000 -8.000000 
v -17.000000 0.000000 -5.000000 
v -31.000000 0.000000 -22.000000 
v -17.000000 0.000000 -5.000000 
v -31.000000 0.000000 -22.000000 
v -31.000000 0.000000 -22.000000 
v -17.000000 0.000000 -5.000000 
v -14.000000 4.000000 -9.000000 
v -31.000000 0.000000 -22.000000 
v -14.000000 4.000000 -9.000000 
v -31.000000 0.000000 -22.000000 
v -31.000000 0.000000 -22.000000 
v -14.000000 4.000000 -9.000000 
v -12.000000 0.000000 -12.000000 
v -31.000000 0.000000 -22.000000 
v -12.000000 0.000000 -12.000000 
v -31.000000 0.000000 -22.000000 
v -31.000000 0.000000 -22.000000 
v -12.000000 0.000000 -12.000000 
v -15.000000 -3.000000 -8.000000 
v -31.000000 0.000000 -22.000000 
v -31.000000 0.000000 -22.000000 
v -31.000000 0.000000 -22.000000 
v -31.000000 0.000000 -22.000000 
v -31.000000 0.000000 -22.000000 
v -31.000000 0.000000 -22.000000 
v -31.000000 0.000000 -22.000000 
v -31.000000 0.000000 -22.000000 
v -31.000000 0.000000 -22.000000 
v -31.000000 0.000000 -22.000000 
v -31.000000 0.000000 -22.000000 
v -31.000000 0.000000 -22.000000 
v -31.000000 0.000000 -22.000000 
vn 0.885010 -0.014648 0.464844 
vn 0.885010 -0.014648 0.464844 
vn 0.885010 -0.014648 0.464844 
vn 0.885010 -0.014648 0.464844 
vn 0.885010 -0.014648 0.464844 
vn 0.885010 -0.014648 0.464844 
vn 0.885010 -0.014648 0.464844 
vn 0.885010 -0.014648 0.464844 
vn 0.885010 -0.014648 0.464844 
vn 0.885010 -0.014648 0.464844 
vn 0.885010 -0.014648 0.464844 
vn 0.885010 -0.014648 0.464844 
vn -0.348145 -0.900879 0.258789 
vn -0.703613 -0.088379 0.704834 
vn -0.110840 -0.974854 -0.192139 
vn -0.348145 -0.900879 0.258789 
vn -0.591309 0.402344 0.698730 
vn -0.703613 -0.088379 0.704834 
vn -0.591309 0.402344 0.698730 
vn -0.178711 0.983398 -0.022217 
vn -0.703613 -0.088379 0.704834 
vn -0.591309 0.402344 0.698730 
vn 0.074219 0.901611 -0.425781 
vn -0.178711 0.983398 -0.022217 
vn 0.074219 0.901611 -0.425781 
vn 0.406006 0.089600 -0.909424 
vn -0.178711 0.983398 -0.022217 
vn 0.074219 0.901611 -0.425781 
vn 0.313721 -0.390137 -0.865479 
vn 0.406006 0.089600 -0.909424 
vn 0.313721 -0.390137 -0.865479 
vn -0.110840 -0.974854 -0.192139 
vn 0.406006 0.089600 -0.909424 
vn 0.313721 -0.390137 -0.865479 
vn -0.348145 -0.900879 0.258789 
vn -0.110840 -0.974854 -0.192139 
vn -0.110840 -0.974854 -0.192139 
vn -0.617676 -0.615234 0.489258 
vn 0.283936 -0.774414 -0.565186 
vn -0.110840 -0.974854 -0.192139 
vn -0.703613 -0.088379 0.704834 
vn -0.617676 -0.615234 0.489258 
vn -0.703613 -0.088379 0.704834 
vn -0.518555 0.772705 0.365234 
vn -0.617676 -0.615234 0.489258 
vn -0.703613 -0.088379 0.704834 
vn -0.178711 0.983398 -0.022217 
vn -0.518555 0.772705 0.365234 
vn -0.178711 0.983398 -0.022217 
vn 0.383545 0.613525 -0.689941 
vn -0.518555 0.772705 0.365234 
vn -0.178711 0.983398 -0.022217 
vn 0.406006 0.089600 -0.909424 
vn 0.383545 0.613525 -0.689941 
vn 0.406006 0.089600 -0.909424 
vn 0.283936 -0.774414 -0.565186 
vn 0.383545 0.613525 -0.689941 
vn 0.406006 0.089600 -0.909424 
vn -0.110840 -0.974854 -0.192139 
vn 0.283936 -0.774414 -0.565186 
vn -0.050781 -0.996338 0.065186 
vn -0.050781 -0.996338 0.065186 
vn -0.050781 -0.996338 0.065186 
vn -0.050781 -0.996338 0.065186 
vn -0.050781 -0.996338 0.065186 
vn -0.050781 -0.996338 0.065186 
vn -0.050781 -0.996338 0.065186 
vn -0.050781 -0.996338 0.065186 
vn -0.050781 -0.996338 0.065186 
vn -0.050781 -0.996338 0.065186 
vn -0.050781 -0.996338 0.065186 
vn -0.050781 -0.996338 0.065186 
vt 0.444444 0.936508 
vt 0.269841 0.936508 
vt 0.349206 0.936508 
vt 0.444444 0.936508 
vt 0.523810 0.936508 
vt 0.619048 0.936508 
vt 0.444444 0.936508 
vt 0.444444 0.936508 
vt 0.523810 0.936508 
vt 0.444444 0.936508 
vt 0.349206 0.936508 
vt 0.444444 0.936508 
vt 0.698413 0.936508 
vt 0.619048 0.619048 
vt 0.714286 0.650794 
vt 0.698413 0.936508 
vt 0.619048 0.936508 
vt 0.619048 0.619048 
vt 0.619048 0.936508 
vt 0.507937 0.650794 
vt 0.619048 0.619048 
vt 0.619048 0.936508 
vt 0.523810 0.936508 
vt 0.507937 0.650794 
vt 0.523810 0.936508 
vt 0.444444 0.682540 
vt 0.507937 0.650794 
vt 0.523810 0.936508 
vt 0.444444 0.936508 
vt 0.444444 0.682540 
vt 0.444444 0.936508 
vt 0.365079 0.650794 
vt 0.444444 0.682540 
vt 0.444444 0.936508 
vt 0.349206 0.936508 
vt 0.365079 0.650794 
vt 0.365079 0.650794 
vt 0.539683 0.174603 
vt 0.539683 0.174603 
vt 0.714286 0.650794 
vt 0.619048 0.619048 
vt 0.539683 0.174603 
vt 0.619048 0.619048 
vt 0.539683 0.174603 
vt 0.539683 0.174603 
vt 0.619048 0.619048 
vt 0.507937 0.650794 
vt 0.539683 0.174603 
vt 0.507937 0.650794 
vt 0.539683 0.174603 
vt 0.539683 0.174603 
vt 0.507937 0.650794 
vt 0.444444 0.682540 
vt 0.539683 0.174603 
vt 0.444444 0.682540 
vt 0.539683 0.174603 
vt 0.539683 0.174603 
vt 0.444444 0.682540 
vt 0.365079 0.650794 
vt 0.539683 0.174603 
vt 0.539683 0.174603 
vt 0.539683 0.174603 
vt 0.539683 0.174603 
vt 0.539683 0.174603 
vt 0.539683 0.174603 
vt 0.539683 0.174603 
vt 0.539683 0.174603 
vt 0.539683 0.174603 
vt 0.539683 0.174603 
vt 0.539683 0.174603 
vt 0.539683 0.174603 
vt 0.539683 0.174603 
f 1/1/1 2/2/2 3/3/3
f 4/4/4 5/5/5 6/6/6
f 7/7/7 8/8/8 9/9/9
f 10/10/10 11/11/11 12/12/12
f 13/13/13 14/14/14 15/15/15
f 16/16/16 17/17/17 18/18/18
f 19/19/19 20/20/20 21/21/21
f 22/22/22 23/23/23 24/24/24
f 25/25/25 26/26/26 27/27/27
f 28/28/28 29/29/29 30/30/30
f 31/31/31 32/32/32 33/33/33
f 34/34/34 35/35/35 36/36/36
f 37/37/37 38/38/38 39/39/39
f 40/40/40 41/41/41 42/42/42
f 43/43/43 44/44/44 45/45/45
f 46/46/46 47/47/47 48/48/48
f 49/49/49 50/50/50 51/51/51
f 52/52/52 53/53/53 54/54/54
f 55/55/55 56/56/56 57/57/57
f 58/58/58 59/59/59 60/60/60
f 61/61/61 62/62/62 63/63/63
f 64/64/64 65/65/65 66/66/66
f 67/67/67 68/68/68 69/69/69
f 70/70/70 71/71/71 72/72/72
