v 16.000000 -7.000000 0.000000 
v 19.000000 -5.000000 0.000000 
v 18.000000 -5.000000 2.000000 
v 16.000000 -7.000000 0.000000 
v 18.000000 -5.000000 2.000000 
v 15.000000 -5.000000 1.000000 
v 16.000000 -7.000000 0.000000 
v 15.000000 -5.000000 1.000000 
v 15.000000 -5.000000 -1.000000 
v 16.000000 -7.000000 0.000000 
v 15.000000 -5.000000 -1.000000 
v 18.000000 -5.000000 -2.000000 
v 16.000000 -7.000000 0.000000 
v 18.000000 -5.000000 -2.000000 
v 19.000000 -5.000000 0.000000 
v -16.000000 -2.000000 -4.000000 
v -17.000000 -2.000000 4.000000 
v -18.000000 3.000000 6.000000 
v -16.000000 -2.000000 -4.000000 
v -18.000000 3.000000 6.000000 
v -16.000000 7.000000 0.000000 
v -16.000000 -2.000000 -4.000000 
v -16.000000 7.000000 0.000000 
v -15.000000 3.000000 -6.000000 
v 16.000000 0.000000 -3.000000 
v 13.000000 1.000000 -4.000000 
v 13.000000 4.000000 0.000000 
v 16.000000 0.000000 -3.000000 
v 13.000000 4.000000 0.000000 
v 17.000000 1.000000 0.000000 
v 14.000000 -2.000000 -2.000000 
v 13.000000 -2.000000 -2.000000 
v 13.000000 1.000000 -4.000000 
v 14.000000 -2.000000 -2.000000 
v 13.000000 1.000000 -4.000000 
v 16.000000 0.000000 -3.000000 
v -15.000000 3.000000 -6.000000 
v -16.000000 7.000000 0.000000 
v 13.000000 4.000000 0.000000 
v -15.000000 3.000000 -6.000000 
v 13.000000 4.000000 0.000000 
v 13.000000 1.000000 -4.000000 
v 13.000000 1.000000 4.000000 
v 13.000000 4.000000 0.000000 
v -16.000000 7.000000 0.000000 
v 13.000000 1.000000 4.000000 
v -16.000000 7.000000 0.000000 
v -18.000000 3.000000 6.000000 
v 13.000000 -2.000000 2.000000 
v 13.000000 1.000000 4.000000 
v -18.000000 3.000000 6.000000 
v 13.000000 -2.000000 2.000000 
v -18.000000 3.000000 6.000000 
v -17.000000 -2.000000 4.000000 
v 13.000000 -2.000000 -2.000000 
v 13.000000 -2.000000 2.000000 
v -17.000000 -2.000000 4.000000 
v 13.000000 -2.000000 -2.000000 
v -17.000000 -2.000000 4.000000 
v -16.000000 -2.000000 -4.000000 
v 13.000000 1.000000 -4.000000 
v 13.000000 -2.000000 -2.000000 
v -16.000000 -2.000000 -4.000000 
v 13.000000 1.000000 -4.000000 
v -16.000000 -2.000000 -4.000000 
v -15.000000 3.000000 -6.000000 
v 13.000000 -2.000000 -2.000000 
v 14.000000 -2.000000 -2.000000 
v 14.000000 -2.000000 2.000000 
v 13.000000 -2.000000 -2.000000 
v 14.000000 -2.000000 2.000000 
v 13.000000 -2.000000 2.000000 
v 14.000000 -2.000000 2.000000 
v 16.000000 0.000000 3.000000 
v 13.000000 1.000000 4.000000 
v 14.000000 -2.000000 2.000000 
v 13.000000 1.000000 4.000000 
v 13.000000 -2.000000 2.000000 
v 16.000000 0.000000 3.000000 
v 17.000000 1.000000 0.000000 
v 13.000000 4.000000 0.000000 
v 16.000000 0.000000 3.000000 
v 13.000000 4.000000 0.000000 
v 13.000000 1.000000 4.000000 
v 19.000000 -5.000000 0.000000 
v 17.000000 1.000000 0.000000 
v 16.000000 0.000000 3.000000 
v 19.000000 -5.000000 0.000000 
v 16.000000 0.000000 3.000000 
v 18.000000 -5.000000 2.000000 
v 18.000000 -5.000000 -2.000000 
v 16.000000 0.000000 -3.000000 
v 17.000000 1.000000 0.000000 
v 18.000000 -5.000000 -2.000000 
v 17.000000 1.000000 0.000000 
v 19.000000 -5.000000 0.000000 
v 15.000000 -5.000000 1.000000 
v 14.000000 -2.000000 2.000000 
v 14.000000 -2.000000 -2.000000 
v 15.000000 -5.000000 1.000000 
v 14.000000 -2.000000 -2.000000 
v 15.000000 -5.000000 -1.000000 
v 14.000000 -2.000000 -2.000000 
v 16.000000 0.000000 -3.000000 
v 18.000000 -5.000000 -2.000000 
v 14.000000 -2.000000 -2.000000 
v 18.000000 -5.000000 -2.000000 
v 15.000000 -5.000000 -1.000000 
v 18.000000 -5.000000 2.000000 
v 16.000000 0.000000 3.000000 
v 14.000000 -2.000000 2.000000 
v 18.000000 -5.000000 2.000000 
v 14.000000 -2.000000 2.000000 
v 15.000000 -5.000000 1.000000 
vn -0.041992 -0.999023 0.000000 
vn 0.956787 -0.261719 0.126221 
vn 0.181641 -0.422363 0.887939 
vn -0.041992 -0.999023 0.000000 
vn 0.181641 -0.422363 0.887939 
vn -0.762451 -0.501465 0.408203 
vn -0.041992 -0.999023 0.000000 
vn -0.762451 -0.501465 0.408203 
vn -0.686768 -0.512695 -0.514648 
vn -0.041992 -0.999023 0.000000 
vn -0.686768 -0.512695 -0.514648 
vn 0.343750 -0.333252 -0.877686 
vn -0.041992 -0.999023 0.000000 
vn 0.343750 -0.333252 -0.877686 
vn 0.956787 -0.261719 0.126221 
vn -0.983887 0.073242 -0.162109 
vn -0.983887 0.073242 -0.162109 
vn -0.983887 0.073242 -0.162109 
vn -0.982178 0.083008 -0.167725 
vn -0.982178 0.083008 -0.167725 
vn -0.982178 0.083008 -0.167725 
vn -0.982178 0.082764 -0.167236 
vn -0.982178 0.082764 -0.167236 
vn -0.982178 0.082764 -0.167236 
vn 0.417236 0.221436 -0.881104 
vn 0.243408 0.013428 -0.969727 
vn 0.308838 0.946777 -0.087891 
vn 0.417236 0.221436 -0.881104 
vn 0.308838 0.946777 -0.087891 
vn 0.864014 0.478760 -0.154785 
vn -0.355957 -0.623779 -0.695557 
vn 0.117920 -0.929199 -0.349854 
vn 0.243408 0.013428 -0.969727 
vn -0.355957 -0.623779 -0.695557 
vn 0.243408 0.013428 -0.969727 
vn 0.417236 0.221436 -0.881104 
vn 0.072510 0.558838 -0.825928 
vn 0.041504 0.974609 0.219482 
vn 0.308838 0.946777 -0.087891 
vn 0.072510 0.558838 -0.825928 
vn 0.308838 0.946777 -0.087891 
vn 0.243408 0.013428 -0.969727 
vn 0.240479 0.278564 0.929688 
vn 0.308838 0.946777 -0.087891 
vn 0.041504 0.974609 0.219482 
vn 0.240479 0.278564 0.929688 
vn 0.041504 0.974609 0.219482 
vn 0.087646 0.052490 0.994629 
vn 0.153809 -0.741211 0.653320 
vn 0.240479 0.278564 0.929688 
vn 0.087646 0.052490 0.994629 
vn 0.153809 -0.741211 0.653320 
vn 0.087646 0.052490 0.994629 
vn 0.110352 -0.924072 0.365723 
vn 0.117920 -0.929199 -0.349854 
vn 0.153809 -0.741211 0.653320 
vn 0.110352 -0.924072 0.365723 
vn 0.117920 -0.929199 -0.349854 
vn 0.110352 -0.924072 0.365723 
vn 0.109863 -0.675049 -0.729492 
vn 0.243408 0.013428 -0.969727 
vn 0.117920 -0.929199 -0.349854 
vn 0.109863 -0.675049 -0.729492 
vn 0.243408 0.013428 -0.969727 
vn 0.109863 -0.675049 -0.729492 
vn 0.072510 0.558838 -0.825928 
vn 0.117920 -0.929199 -0.349854 
vn -0.355957 -0.623779 -0.695557 
vn -0.181396 -0.716553 0.673340 
vn 0.117920 -0.929199 -0.349854 
vn -0.181396 -0.716553 0.673340 
vn 0.153809 -0.741211 0.653320 
vn -0.181396 -0.716553 0.673340 
vn 0.498535 0.196777 0.843994 
vn 0.240479 0.278564 0.929688 
vn -0.181396 -0.716553 0.673340 
vn 0.240479 0.278564 0.929688 
vn 0.153809 -0.741211 0.653320 
vn 0.498535 0.196777 0.843994 
vn 0.864014 0.478760 -0.154785 
vn 0.308838 0.946777 -0.087891 
vn 0.498535 0.196777 0.843994 
vn 0.308838 0.946777 -0.087891 
vn 0.240479 0.278564 0.929688 
vn 0.956787 -0.261719 0.126221 
vn 0.864014 0.478760 -0.154785 
vn 0.498535 0.196777 0.843994 
vn 0.956787 -0.261719 0.126221 
vn 0.498535 0.196777 0.843994 
vn 0.181641 -0.422363 0.887939 
vn 0.343750 -0.333252 -0.877686 
vn 0.417236 0.221436 -0.881104 
vn 0.864014 0.478760 -0.154785 
vn 0.343750 -0.333252 -0.877686 
vn 0.864014 0.478760 -0.154785 
vn 0.956787 -0.261719 0.126221 
vn -0.762451 -0.501465 0.408203 
vn -0.181396 -0.716553 0.673340 
vn -0.355957 -0.623779 -0.695557 
vn -0.762451 -0.501465 0.408203 
vn -0.355957 -0.623779 -0.695557 
vn -0.686768 -0.512695 -0.514648 
vn -0.355957 -0.623779 -0.695557 
vn 0.417236 0.221436 -0.881104 
vn 0.343750 -0.333252 -0.877686 
vn -0.355957 -0.623779 -0.695557 
vn 0.343750 -0.333252 -0.877686 
vn -0.686768 -0.512695 -0.514648 
vn 0.181641 -0.422363 0.887939 
vn 0.498535 0.196777 0.843994 
vn -0.181396 -0.716553 0.673340 
vn 0.181641 -0.422363 0.887939 
vn -0.181396 -0.716553 0.673340 
vn -0.762451 -0.501465 0.408203 
vt 0.476190 0.612903 
vt 0.476190 0.645161 
vt 0.460317 0.612903 
vt 0.476190 0.612903 
vt 0.460317 0.612903 
vt 0.476190 0.612903 
vt 0.476190 0.612903 
vt 0.476190 0.612903 
vt 0.492063 0.612903 
vt 0.476190 0.612903 
vt 0.492063 0.612903 
vt 0.507937 0.612903 
vt 0.476190 0.612903 
vt 0.507937 0.612903 
vt 0.476190 0.645161 
vt 0.523810 0.483871 
vt 0.444444 0.483871 
vt 0.428571 0.483871 
vt 0.523810 0.483871 
vt 0.428571 0.483871 
vt 0.492063 0.516129 
vt 0.523810 0.483871 
vt 0.492063 0.516129 
vt 0.555556 0.516129 
vt 0.523810 0.612903 
vt 0.523810 0.612903 
vt 0.492063 0.612903 
vt 0.523810 0.612903 
vt 0.492063 0.612903 
vt 0.492063 0.645161 
vt 0.507937 0.612903 
vt 0.507937 0.612903 
vt 0.523810 0.612903 
vt 0.507937 0.612903 
vt 0.523810 0.612903 
vt 0.523810 0.612903 
vt 0.555556 0.516129 
vt 0.492063 0.516129 
vt 0.492063 0.612903 
vt 0.555556 0.516129 
vt 0.492063 0.612903 
vt 0.523810 0.612903 
vt 0.444444 0.612903 
vt 0.492063 0.612903 
vt 0.492063 0.516129 
vt 0.444444 0.612903 
vt 0.492063 0.516129 
vt 0.428571 0.483871 
vt 0.460317 0.612903 
vt 0.444444 0.612903 
vt 0.428571 0.483871 
vt 0.460317 0.612903 
vt 0.428571 0.483871 
vt 0.444444 0.483871 
vt 0.507937 0.612903 
vt 0.460317 0.612903 
vt 0.444444 0.483871 
vt 0.507937 0.612903 
vt 0.444444 0.483871 
vt 0.523810 0.483871 
vt 0.523810 0.612903 
vt 0.507937 0.612903 
vt 0.523810 0.483871 
vt 0.523810 0.612903 
vt 0.523810 0.483871 
vt 0.555556 0.516129 
vt 0.507937 0.612903 
vt 0.507937 0.612903 
vt 0.460317 0.612903 
vt 0.507937 0.612903 
vt 0.460317 0.612903 
vt 0.460317 0.612903 
vt 0.460317 0.612903 
vt 0.460317 0.612903 
vt 0.444444 0.612903 
vt 0.460317 0.612903 
vt 0.444444 0.612903 
vt 0.460317 0.612903 
vt 0.460317 0.612903 
vt 0.492063 0.645161 
vt 0.492063 0.612903 
vt 0.460317 0.612903 
vt 0.492063 0.612903 
vt 0.444444 0.612903 
vt 0.476190 0.645161 
vt 0.492063 0.645161 
vt 0.460317 0.612903 
vt 0.476190 0.645161 
vt 0.460317 0.612903 
vt 0.460317 0.612903 
vt 0.507937 0.612903 
vt 0.523810 0.612903 
vt 0.492063 0.645161 
vt 0.507937 0.612903 
vt 0.492063 0.645161 
vt 0.476190 0.645161 
vt 0.476190 0.612903 
vt 0.460317 0.612903 
vt 0.507937 0.612903 
vt 0.476190 0.612903 
vt 0.507937 0.612903 
vt 0.492063 0.612903 
vt 0.507937 0.612903 
vt 0.523810 0.612903 
vt 0.507937 0.612903 
vt 0.507937 0.612903 
vt 0.507937 0.612903 
vt 0.492063 0.612903 
vt 0.460317 0.612903 
vt 0.460317 0.612903 
vt 0.460317 0.612903 
vt 0.460317 0.612903 
vt 0.460317 0.612903 
vt 0.476190 0.612903 
f 1/1/1 2/2/2 3/3/3
f 4/4/4 5/5/5 6/6/6
f 7/7/7 8/8/8 9/9/9
f 10/10/10 11/11/11 12/12/12
f 13/13/13 14/14/14 15/15/15
f 16/16/16 17/17/17 18/18/18
f 19/19/19 20/20/20 21/21/21
f 22/22/22 23/23/23 24/24/24
f 25/25/25 26/26/26 27/27/27
f 28/28/28 29/29/29 30/30/30
f 31/31/31 32/32/32 33/33/33
f 34/34/34 35/35/35 36/36/36
f 37/37/37 38/38/38 39/39/39
f 40/40/40 41/41/41 42/42/42
f 43/43/43 44/44/44 45/45/45
f 46/46/46 47/47/47 48/48/48
f 49/49/49 50/50/50 51/51/51
f 52/52/52 53/53/53 54/54/54
f 55/55/55 56/56/56 57/57/57
f 58/58/58 59/59/59 60/60/60
f 61/61/61 62/62/62 63/63/63
f 64/64/64 65/65/65 66/66/66
f 67/67/67 68/68/68 69/69/69
f 70/70/70 71/71/71 72/72/72
f 73/73/73 74/74/74 75/75/75
f 76/76/76 77/77/77 78/78/78
f 79/79/79 80/80/80 81/81/81
f 82/82/82 83/83/83 84/84/84
f 85/85/85 86/86/86 87/87/87
f 88/88/88 89/89/89 90/90/90
f 91/91/91 92/92/92 93/93/93
f 94/94/94 95/95/95 96/96/96
f 97/97/97 98/98/98 99/99/99
f 100/100/100 101/101/101 102/102/102
f 103/103/103 104/104/104 105/105/105
f 106/106/106 107/107/107 108/108/108
f 109/109/109 110/110/110 111/111/111
f 112/112/112 113/113/113 114/114/114
