v 12.000000 1.000000 0.000000 
v 0.000000 1.000000 12.000000 
v 12.000000 -96.000000 0.000000 
v 0.000000 1.000000 12.000000 
v -12.000000 1.000000 0.000000 
v 0.000000 -96.000000 12.000000 
v -12.000000 1.000000 0.000000 
v 0.000000 1.000000 -12.000000 
v -12.000000 -96.000000 0.000000 
v 0.000000 1.000000 -12.000000 
v 12.000000 1.000000 0.000000 
v 0.000000 -96.000000 -12.000000 
v 0.000000 -96.000000 12.000000 
v -12.000000 1.000000 0.000000 
v -12.000000 -96.000000 0.000000 
v -12.000000 -96.000000 0.000000 
v 0.000000 1.000000 -12.000000 
v 0.000000 -96.000000 -12.000000 
v 0.000000 -96.000000 -12.000000 
v 12.000000 1.000000 0.000000 
v 12.000000 -96.000000 0.000000 
v 12.000000 -96.000000 0.000000 
v 0.000000 1.000000 12.000000 
v 0.000000 -96.000000 12.000000 
vn 0.948486 0.000000 -0.316162 
vn 0.316162 0.000000 0.948486 
vn 0.948486 0.000000 0.316162 
vn 0.316162 0.000000 0.948486 
vn -0.948486 0.000000 0.316162 
vn -0.316162 0.000000 0.948486 
vn -0.948486 0.000000 0.316162 
vn -0.316162 0.000000 -0.948486 
vn -0.948486 0.000000 -0.316162 
vn -0.316162 0.000000 -0.948486 
vn 0.948486 0.000000 -0.316162 
vn 0.316162 0.000000 -0.948486 
vn -0.316162 0.000000 0.948486 
vn -0.948486 0.000000 0.316162 
vn -0.948486 0.000000 -0.316162 
vn -0.948486 0.000000 -0.316162 
vn -0.316162 0.000000 -0.948486 
vn 0.316162 0.000000 -0.948486 
vn 0.316162 0.000000 -0.948486 
vn 0.948486 0.000000 -0.316162 
vn 0.948486 0.000000 0.316162 
vn 0.948486 0.000000 0.316162 
vn 0.316162 0.000000 0.948486 
vn -0.316162 0.000000 0.948486 
vt 0.483871 1.000000 
vt 1.000000 1.000000 
vt 0.483871 0.825397 
vt 0.000000 0.984127 
vt 0.483871 0.984127 
vt 0.000000 0.809524 
vt 0.483871 0.984127 
vt 1.000000 0.984127 
vt 0.483871 0.809524 
vt 0.000000 1.000000 
vt 0.483871 1.000000 
vt 0.000000 0.825397 
vt 0.000000 0.809524 
vt 0.483871 0.984127 
vt 0.483871 0.809524 
vt 0.483871 0.809524 
vt 1.000000 0.984127 
vt 1.000000 0.809524 
vt 0.000000 0.825397 
vt 0.483871 1.000000 
vt 0.483871 0.825397 
vt 0.483871 0.825397 
vt 1.000000 1.000000 
vt 1.000000 0.825397 
f 1/1/1 2/2/2 3/3/3
f 4/4/4 5/5/5 6/6/6
f 7/7/7 8/8/8 9/9/9
f 10/10/10 11/11/11 12/12/12
f 13/13/13 14/14/14 15/15/15
f 16/16/16 17/17/17 18/18/18
f 19/19/19 20/20/20 21/21/21
f 22/22/22 23/23/23 24/24/24
