v 0.000000 3.000000 0.000000 
v 0.000000 0.000000 4.000000 
v 7.000000 0.000000 0.000000 
v 0.000000 0.000000 4.000000 
v 0.000000 -3.000000 0.000000 
v 7.000000 0.000000 0.000000 
vn 0.270508 0.943115 0.192871 
vn 0.270508 -0.192871 0.943115 
vn 1.000000 0.000000 0.000000 
vn 0.270508 -0.192871 0.943115 
vn 0.270508 -0.943115 -0.192871 
vn 1.000000 0.000000 0.000000 
vt 0.000000 0.096774 
vt 0.000000 0.096774 
vt 0.483871 -0.032258 
vt 0.000000 0.096774 
vt 0.967742 0.096774 
vt 0.483871 -0.032258 
f 1/1/1 2/2/2 3/3/3
f 4/4/4 5/5/5 6/6/6
