v -7.000000 0.000000 9.000000 
v -5.000000 -5.000000 5.000000 
v 20.000000 0.000000 15.000000 
v -5.000000 -5.000000 5.000000 
v 21.000000 -8.000000 8.000000 
v 20.000000 0.000000 15.000000 
v -5.000000 -5.000000 5.000000 
v -4.000000 -3.000000 0.000000 
v 21.000000 -8.000000 8.000000 
v -4.000000 -3.000000 0.000000 
v 22.000000 -3.000000 -4.000000 
v 21.000000 -8.000000 8.000000 
v -4.000000 -3.000000 0.000000 
v -4.000000 3.000000 0.000000 
v 22.000000 -3.000000 -4.000000 
v -4.000000 3.000000 0.000000 
v 22.000000 5.000000 -5.000000 
v 22.000000 -3.000000 -4.000000 
v -4.000000 3.000000 0.000000 
v -5.000000 5.000000 5.000000 
v 22.000000 5.000000 -5.000000 
v -5.000000 5.000000 5.000000 
v 21.000000 8.000000 8.000000 
v 22.000000 5.000000 -5.000000 
v -5.000000 5.000000 5.000000 
v -7.000000 0.000000 9.000000 
v 21.000000 8.000000 8.000000 
v -7.000000 0.000000 9.000000 
v 20.000000 0.000000 15.000000 
v 21.000000 8.000000 8.000000 
v -26.000000 0.000000 5.000000 
v -22.000000 -7.000000 0.000000 
v -7.000000 0.000000 9.000000 
v -22.000000 -7.000000 0.000000 
v -5.000000 -5.000000 5.000000 
v -7.000000 0.000000 9.000000 
v -22.000000 -7.000000 0.000000 
v -16.000000 -4.000000 -6.000000 
v -5.000000 -5.000000 5.000000 
v -16.000000 -4.000000 -6.000000 
v -4.000000 -3.000000 0.000000 
v -5.000000 -5.000000 5.000000 
v -16.000000 -4.000000 -6.000000 
v -16.000000 4.000000 -6.000000 
v -4.000000 -3.000000 0.000000 
v -16.000000 4.000000 -6.000000 
v -4.000000 3.000000 0.000000 
v -4.000000 -3.000000 0.000000 
v -16.000000 4.000000 -6.000000 
v -22.000000 7.000000 0.000000 
v -4.000000 3.000000 0.000000 
v -22.000000 7.000000 0.000000 
v -5.000000 5.000000 5.000000 
v -4.000000 3.000000 0.000000 
v -22.000000 7.000000 0.000000 
v -26.000000 0.000000 5.000000 
v -5.000000 5.000000 5.000000 
v -26.000000 0.000000 5.000000 
v -7.000000 0.000000 9.000000 
v -5.000000 5.000000 5.000000 
vn -0.226807 0.015137 0.973633 
vn -0.048340 -0.950684 0.305664 
vn -0.212891 -0.235840 0.947998 
vn -0.048340 -0.950684 0.305664 
vn -0.076416 -0.996826 0.005615 
vn -0.212891 -0.235840 0.947998 
vn -0.048340 -0.950684 0.305664 
vn 0.183594 -0.574951 -0.797119 
vn -0.076416 -0.996826 0.005615 
vn 0.183594 -0.574951 -0.797119 
vn -0.020264 -0.411377 -0.911133 
vn -0.076416 -0.996826 0.005615 
vn 0.183594 -0.574951 -0.797119 
vn 0.123779 0.572266 -0.810303 
vn -0.020264 -0.411377 -0.911133 
vn 0.123779 0.572266 -0.810303 
vn -0.066162 0.740723 -0.668457 
vn -0.020264 -0.411377 -0.911133 
vn 0.123779 0.572266 -0.810303 
vn -0.104980 0.942139 0.318115 
vn -0.066162 0.740723 -0.668457 
vn -0.104980 0.942139 0.318115 
vn -0.148682 0.845215 0.513184 
vn -0.066162 0.740723 -0.668457 
vn -0.104980 0.942139 0.318115 
vn -0.226807 0.015137 0.973633 
vn -0.148682 0.845215 0.513184 
vn -0.226807 0.015137 0.973633 
vn -0.212891 -0.235840 0.947998 
vn -0.148682 0.845215 0.513184 
vn -0.232422 0.224365 0.946045 
vn -0.095459 -0.834961 0.541748 
vn -0.226807 0.015137 0.973633 
vn -0.095459 -0.834961 0.541748 
vn -0.048340 -0.950684 0.305664 
vn -0.226807 0.015137 0.973633 
vn -0.095459 -0.834961 0.541748 
vn 0.282471 -0.760742 -0.583984 
vn -0.048340 -0.950684 0.305664 
vn 0.282471 -0.760742 -0.583984 
vn 0.183594 -0.574951 -0.797119 
vn -0.048340 -0.950684 0.305664 
vn 0.282471 -0.760742 -0.583984 
vn 0.370361 0.386475 -0.844482 
vn 0.183594 -0.574951 -0.797119 
vn 0.370361 0.386475 -0.844482 
vn 0.123779 0.572266 -0.810303 
vn 0.183594 -0.574951 -0.797119 
vn 0.370361 0.386475 -0.844482 
vn 0.051025 0.991943 0.115234 
vn 0.123779 0.572266 -0.810303 
vn 0.051025 0.991943 0.115234 
vn -0.104980 0.942139 0.318115 
vn 0.123779 0.572266 -0.810303 
vn 0.051025 0.991943 0.115234 
vn -0.232422 0.224365 0.946045 
vn -0.104980 0.942139 0.318115 
vn -0.232422 0.224365 0.946045 
vn -0.226807 0.015137 0.973633 
vn -0.104980 0.942139 0.318115 
vt 0.761905 0.096774 
vt 0.857143 0.129032 
vt 0.761905 0.096774 
vt 0.857143 0.129032 
vt 0.904762 0.193548 
vt 0.761905 0.096774 
vt 0.857143 0.129032 
vt 0.825397 0.225806 
vt 0.904762 0.193548 
vt 0.825397 0.225806 
vt 0.825397 0.354839 
vt 0.904762 0.193548 
vt 0.825397 0.225806 
vt 0.714286 0.225806 
vt 0.825397 0.354839 
vt 0.714286 0.225806 
vt 0.682540 0.354839 
vt 0.825397 0.354839 
vt 0.714286 0.225806 
vt 0.682540 0.129032 
vt 0.682540 0.354839 
vt 0.682540 0.129032 
vt 0.634921 0.193548 
vt 0.682540 0.354839 
vt 0.682540 0.129032 
vt 0.761905 0.096774 
vt 0.634921 0.193548 
vt 0.761905 0.096774 
vt 0.761905 0.096774 
vt 0.634921 0.193548 
vt 0.761905 0.096774 
vt 0.888889 0.161290 
vt 0.761905 0.096774 
vt 0.888889 0.161290 
vt 0.857143 0.129032 
vt 0.761905 0.096774 
vt 0.888889 0.161290 
vt 0.841270 0.258065 
vt 0.857143 0.129032 
vt 0.841270 0.258065 
vt 0.825397 0.225806 
vt 0.857143 0.129032 
vt 0.841270 0.258065 
vt 0.698413 0.258065 
vt 0.825397 0.225806 
vt 0.698413 0.258065 
vt 0.714286 0.225806 
vt 0.825397 0.225806 
vt 0.698413 0.258065 
vt 0.650794 0.161290 
vt 0.714286 0.225806 
vt 0.650794 0.161290 
vt 0.682540 0.129032 
vt 0.714286 0.225806 
vt 0.650794 0.161290 
vt 0.761905 0.096774 
vt 0.682540 0.129032 
vt 0.761905 0.096774 
vt 0.761905 0.096774 
vt 0.682540 0.129032 
f 1/1/1 2/2/2 3/3/3
f 4/4/4 5/5/5 6/6/6
f 7/7/7 8/8/8 9/9/9
f 10/10/10 11/11/11 12/12/12
f 13/13/13 14/14/14 15/15/15
f 16/16/16 17/17/17 18/18/18
f 19/19/19 20/20/20 21/21/21
f 22/22/22 23/23/23 24/24/24
f 25/25/25 26/26/26 27/27/27
f 28/28/28 29/29/29 30/30/30
f 31/31/31 32/32/32 33/33/33
f 34/34/34 35/35/35 36/36/36
f 37/37/37 38/38/38 39/39/39
f 40/40/40 41/41/41 42/42/42
f 43/43/43 44/44/44 45/45/45
f 46/46/46 47/47/47 48/48/48
f 49/49/49 50/50/50 51/51/51
f 52/52/52 53/53/53 54/54/54
f 55/55/55 56/56/56 57/57/57
f 58/58/58 59/59/59 60/60/60
