v 15.000000 30.000000 39.000000 
v 3.000000 1.000000 51.000000 
v 32.000000 37.000000 43.000000 
v 3.000000 1.000000 51.000000 
v 37.000000 22.000000 45.000000 
v 32.000000 37.000000 43.000000 
v -2.000000 49.000000 13.000000 
v -18.000000 26.000000 43.000000 
v 29.000000 49.000000 5.000000 
v -18.000000 26.000000 43.000000 
v 15.000000 30.000000 39.000000 
v 29.000000 49.000000 5.000000 
v -18.000000 26.000000 43.000000 
v -16.000000 1.000000 47.000000 
v 15.000000 30.000000 39.000000 
v -16.000000 1.000000 47.000000 
v 3.000000 1.000000 51.000000 
v 15.000000 30.000000 39.000000 
v 3.000000 1.000000 51.000000 
v 15.000000 -27.000000 39.000000 
v 32.000000 -33.000000 43.000000 
v 37.000000 -18.000000 45.000000 
v 3.000000 1.000000 51.000000 
v 32.000000 -33.000000 43.000000 
v 3.000000 1.000000 51.000000 
v -16.000000 1.000000 47.000000 
v 15.000000 -27.000000 39.000000 
v -16.000000 1.000000 47.000000 
v -18.000000 -22.000000 43.000000 
v 15.000000 -27.000000 39.000000 
v 15.000000 -27.000000 39.000000 
v -18.000000 -22.000000 43.000000 
v 29.000000 -45.000000 5.000000 
vn 0.061035 0.763672 0.642578 
vn 0.407715 0.000000 0.912842 
vn 0.045166 0.795898 0.603271 
vn 0.407715 0.000000 0.912842 
vn 0.612061 -0.193604 0.766357 
vn 0.045166 0.795898 0.603271 
vn -0.239990 0.956787 0.163574 
vn -0.218506 0.636719 0.739258 
vn 0.096924 0.976807 0.190186 
vn -0.218506 0.636719 0.739258 
vn 0.061035 0.763672 0.642578 
vn 0.096924 0.976807 0.190186 
vn -0.218506 0.636719 0.739258 
vn -0.028809 0.000000 0.999512 
vn 0.061035 0.763672 0.642578 
vn -0.028809 0.000000 0.999512 
vn 0.407715 0.000000 0.912842 
vn 0.061035 0.763672 0.642578 
vn 0.407715 0.000000 0.912842 
vn 0.061035 -0.763672 0.642578 
vn 0.045166 -0.795898 0.603271 
vn 0.612061 0.193848 0.766602 
vn 0.407715 0.000000 0.912842 
vn 0.045166 -0.795898 0.603271 
vn 0.407715 0.000000 0.912842 
vn -0.028809 0.000000 0.999512 
vn 0.061035 -0.763672 0.642578 
vn -0.028809 0.000000 0.999512 
vn -0.218506 -0.636719 0.739258 
vn 0.061035 -0.763672 0.642578 
vn 0.061035 -0.763672 0.642578 
vn -0.218506 -0.636719 0.739258 
vn 0.096924 -0.976807 0.190186 
vt 0.755906 0.322835 
vt 0.881890 0.362205 
vt 0.771654 0.755906 
vt 0.881890 0.362205 
vt 0.881890 0.803150 
vt 0.771654 0.755906 
vt 0.590551 0.897638 
vt 0.755906 0.921260 
vt 0.598425 0.330709 
vt 0.755906 0.921260 
vt 0.755906 0.322835 
vt 0.598425 0.330709 
vt 0.755906 0.921260 
vt 0.881890 0.937008 
vt 0.755906 0.322835 
vt 0.881890 0.937008 
vt 0.881890 0.362205 
vt 0.755906 0.322835 
vt 0.881890 0.362205 
vt 0.755906 0.322835 
vt 0.771654 0.755906 
vt 0.881890 0.803150 
vt 0.881890 0.362205 
vt 0.771654 0.755906 
vt 0.881890 0.362205 
vt 0.881890 0.937008 
vt 0.755906 0.322835 
vt 0.881890 0.937008 
vt 0.755906 0.921260 
vt 0.755906 0.322835 
vt 0.755906 0.322835 
vt 0.755906 0.921260 
vt 0.598425 0.330709 
f 1/1/1 2/2/2 3/3/3
f 4/4/4 5/5/5 6/6/6
f 7/7/7 8/8/8 9/9/9
f 10/10/10 11/11/11 12/12/12
f 13/13/13 14/14/14 15/15/15
f 16/16/16 17/17/17 18/18/18
f 19/19/19 20/20/20 21/21/21
f 22/22/22 23/23/23 24/24/24
f 25/25/25 26/26/26 27/27/27
f 28/28/28 29/29/29 30/30/30
f 31/31/31 32/32/32 33/33/33
