v 0.000000 -2.000000 0.000000 
v 0.000000 0.000000 5.000000 
v -5.000000 0.000000 0.000000 
v 0.000000 -2.000000 0.000000 
v 5.000000 0.000000 0.000000 
v 0.000000 0.000000 5.000000 
v 0.000000 -2.000000 0.000000 
v 0.000000 0.000000 -5.000000 
v 5.000000 0.000000 0.000000 
v 0.000000 -2.000000 0.000000 
v -5.000000 0.000000 0.000000 
v 0.000000 0.000000 -5.000000 
v -5.000000 0.000000 0.000000 
v 0.000000 23.000000 9.000000 
v -5.000000 24.000000 3.000000 
v -5.000000 0.000000 0.000000 
v 0.000000 0.000000 5.000000 
v 0.000000 23.000000 9.000000 
v 0.000000 0.000000 5.000000 
v 5.000000 24.000000 3.000000 
v 0.000000 23.000000 9.000000 
v 0.000000 0.000000 5.000000 
v 5.000000 0.000000 0.000000 
v 5.000000 24.000000 3.000000 
v 5.000000 0.000000 0.000000 
v 0.000000 25.000000 -1.000000 
v 5.000000 24.000000 3.000000 
v 5.000000 0.000000 0.000000 
v 0.000000 0.000000 -5.000000 
v 0.000000 25.000000 -1.000000 
v 0.000000 0.000000 -5.000000 
v -5.000000 24.000000 3.000000 
v 0.000000 25.000000 -1.000000 
v 0.000000 0.000000 -5.000000 
v -5.000000 0.000000 0.000000 
v -5.000000 24.000000 3.000000 
v 0.000000 24.000000 3.000000 
v -5.000000 24.000000 3.000000 
v 0.000000 23.000000 9.000000 
v 0.000000 24.000000 3.000000 
v 0.000000 23.000000 9.000000 
v 5.000000 24.000000 3.000000 
v 0.000000 24.000000 3.000000 
v 5.000000 24.000000 3.000000 
v 0.000000 25.000000 -1.000000 
v 0.000000 24.000000 3.000000 
v 0.000000 25.000000 -1.000000 
v -5.000000 24.000000 3.000000 
vn 0.000000 -0.987549 -0.156250 
vn 0.000000 -0.930908 0.364746 
vn -0.505859 -0.851807 -0.134766 
vn 0.000000 -0.987549 -0.156250 
vn 0.505859 -0.851807 -0.134766 
vn 0.000000 -0.930908 0.364746 
vn 0.000000 -0.987549 -0.156250 
vn 0.000000 -0.772705 -0.634521 
vn 0.505859 -0.851807 -0.134766 
vn 0.000000 -0.987549 -0.156250 
vn -0.505859 -0.851807 -0.134766 
vn 0.000000 -0.772705 -0.634521 
vn -0.948486 -0.049316 0.312256 
vn -0.316162 -0.148193 0.936768 
vn -0.948486 0.049316 -0.312256 
vn -0.948486 -0.049316 0.312256 
vn 0.316162 -0.148193 0.936768 
vn -0.316162 -0.148193 0.936768 
vn 0.316162 -0.148193 0.936768 
vn 0.948486 -0.049316 0.312256 
vn -0.316162 -0.148193 0.936768 
vn 0.316162 -0.148193 0.936768 
vn 0.948486 0.049316 -0.312256 
vn 0.948486 -0.049316 0.312256 
vn 0.948486 0.049316 -0.312256 
vn 0.316162 0.148193 -0.936768 
vn 0.948486 -0.049316 0.312256 
vn 0.948486 0.049316 -0.312256 
vn -0.316162 0.148193 -0.936768 
vn 0.316162 0.148193 -0.936768 
vn -0.316162 0.148193 -0.936768 
vn -0.948486 0.049316 -0.312256 
vn 0.316162 0.148193 -0.936768 
vn -0.316162 0.148193 -0.936768 
vn -0.948486 -0.049316 0.312256 
vn -0.948486 0.049316 -0.312256 
vn 0.000000 0.987549 0.156250 
vn 0.000000 0.987549 0.156250 
vn 0.000000 0.987549 0.156250 
vn 0.000000 0.987549 0.156250 
vn 0.000000 0.987549 0.156250 
vn 0.000000 0.987549 0.156250 
vn 0.000000 0.987549 0.156250 
vn 0.000000 0.987549 0.156250 
vn 0.000000 0.987549 0.156250 
vn 0.000000 0.987549 0.156250 
vn 0.000000 0.987549 0.156250 
vn 0.000000 0.987549 0.156250 
vt 0.492063 0.079365 
vt 1.000000 0.190476 
vt 0.746032 0.190476 
vt 0.492063 0.079365 
vt 0.238095 0.190476 
vt 0.000000 0.190476 
vt 0.492063 0.079365 
vt 0.492063 0.190476 
vt 0.238095 0.190476 
vt 0.492063 0.079365 
vt 0.746032 0.190476 
vt 0.492063 0.190476 
vt 0.746032 0.190476 
vt 1.000000 1.000000 
vt 0.746032 1.000000 
vt 0.746032 0.190476 
vt 1.000000 0.190476 
vt 1.000000 1.000000 
vt 1.000000 0.190476 
vt 0.238095 1.000000 
vt 0.000000 1.000000 
vt 0.000000 0.190476 
vt 0.238095 0.190476 
vt 0.238095 1.000000 
vt 0.238095 0.190476 
vt 0.492063 1.000000 
vt 0.238095 1.000000 
vt 0.238095 0.190476 
vt 0.492063 0.190476 
vt 0.492063 1.000000 
vt 0.492063 0.190476 
vt 0.746032 1.000000 
vt 0.492063 1.000000 
vt 0.492063 0.190476 
vt 0.746032 0.190476 
vt 0.746032 1.000000 
vt 0.492063 1.000000 
vt 0.746032 1.000000 
vt 1.000000 1.000000 
vt 0.492063 1.000000 
vt 0.000000 1.000000 
vt 0.238095 1.000000 
vt 0.492063 1.000000 
vt 0.238095 1.000000 
vt 0.492063 1.000000 
vt 0.492063 1.000000 
vt 0.492063 1.000000 
vt 0.746032 1.000000 
f 1/1/1 2/2/2 3/3/3
f 4/4/4 5/5/5 6/6/6
f 7/7/7 8/8/8 9/9/9
f 10/10/10 11/11/11 12/12/12
f 13/13/13 14/14/14 15/15/15
f 16/16/16 17/17/17 18/18/18
f 19/19/19 20/20/20 21/21/21
f 22/22/22 23/23/23 24/24/24
f 25/25/25 26/26/26 27/27/27
f 28/28/28 29/29/29 30/30/30
f 31/31/31 32/32/32 33/33/33
f 34/34/34 35/35/35 36/36/36
f 37/37/37 38/38/38 39/39/39
f 40/40/40 41/41/41 42/42/42
f 43/43/43 44/44/44 45/45/45
f 46/46/46 47/47/47 48/48/48
