v -5.000000 18.000000 12.000000 
v -9.000000 29.000000 18.000000 
v -12.000000 18.000000 0.000000 
v 72.000000 -20.000000 -22.000000 
v 39.000000 -39.000000 -11.000000 
v 42.000000 -45.000000 -23.000000 
v -9.000000 -25.000000 18.000000 
v -5.000000 -14.000000 12.000000 
v -12.000000 -15.000000 0.000000 
v 15.000000 1.000000 17.000000 
v 19.000000 -28.000000 23.000000 
v -24.000000 -31.000000 40.000000 
v 19.000000 32.000000 23.000000 
v -24.000000 35.000000 40.000000 
v 24.000000 18.000000 44.000000 
v 19.000000 32.000000 23.000000 
v 15.000000 1.000000 17.000000 
v -24.000000 35.000000 40.000000 
vn -0.704834 -0.587158 0.397461 
vn -0.622559 -0.191895 0.758545 
vn -0.843262 -0.476074 0.248779 
vn 0.682617 -0.622803 0.381592 
vn 0.320801 -0.760742 0.563721 
vn 0.263672 -0.956787 0.121094 
vn -0.622559 0.191895 0.758301 
vn -0.705078 0.587158 0.397217 
vn -0.843262 0.476074 0.248779 
vn -0.334717 0.000000 -0.942139 
vn 0.055908 -0.997314 0.046875 
vn -0.289307 -0.924805 -0.246338 
vn -0.086182 0.932129 -0.351074 
vn -0.335938 0.862305 -0.378418 
vn 0.257568 0.729736 0.633057 
vn -0.086182 0.932129 -0.351074 
vn -0.334717 0.000000 -0.942139 
vn -0.335938 0.862305 -0.378418 
vt 0.606299 1.000000 
vt 0.779528 1.000000 
vt 0.582677 0.874016 
vt 0.740157 1.000000 
vt 0.606299 1.000000 
vt 0.590551 0.897638 
vt 0.779528 1.000000 
vt 0.606299 1.000000 
vt 0.582677 0.874016 
vt 0.740157 0.992126 
vt 0.992126 0.992126 
vt 0.976378 0.669291 
vt 0.905512 0.984252 
vt 0.968504 0.716535 
vt 0.685039 0.984252 
vt 0.629921 0.968504 
vt 0.874016 0.968504 
vt 0.653543 0.637795 
f 1/1/1 2/2/2 3/3/3
f 4/4/4 5/5/5 6/6/6
f 7/7/7 8/8/8 9/9/9
f 10/10/10 11/11/11 12/12/12
f 13/13/13 14/14/14 15/15/15
f 16/16/16 17/17/17 18/18/18
