v 0.000000 -7.000000 0.000000 
v 1.000000 0.000000 7.000000 
v -3.000000 0.000000 1.000000 
v 1.000000 0.000000 7.000000 
v 0.000000 7.000000 0.000000 
v -3.000000 0.000000 1.000000 
v 0.000000 7.000000 0.000000 
v -1.000000 0.000000 -7.000000 
v -3.000000 0.000000 1.000000 
v -1.000000 0.000000 -7.000000 
v 0.000000 -7.000000 0.000000 
v -3.000000 0.000000 1.000000 
v 30.000000 -11.000000 -9.000000 
v 32.000000 -2.000000 2.000000 
v 0.000000 -7.000000 0.000000 
v 32.000000 -2.000000 2.000000 
v 1.000000 0.000000 7.000000 
v 0.000000 -7.000000 0.000000 
v 32.000000 -2.000000 2.000000 
v 31.000000 7.000000 -8.000000 
v 1.000000 0.000000 7.000000 
v 31.000000 7.000000 -8.000000 
v 0.000000 7.000000 0.000000 
v 1.000000 0.000000 7.000000 
v 31.000000 7.000000 -8.000000 
v 29.000000 -1.000000 -20.000000 
v 0.000000 7.000000 0.000000 
v 29.000000 -1.000000 -20.000000 
v -1.000000 0.000000 -7.000000 
v 0.000000 7.000000 0.000000 
v 29.000000 -1.000000 -20.000000 
v 30.000000 -11.000000 -9.000000 
v -1.000000 0.000000 -7.000000 
v 30.000000 -11.000000 -9.000000 
v 0.000000 -7.000000 0.000000 
v -1.000000 0.000000 -7.000000 
v 32.000000 -2.000000 2.000000 
v 30.000000 -11.000000 -9.000000 
v 29.000000 -1.000000 -8.000000 
v 31.000000 7.000000 -8.000000 
v 32.000000 -2.000000 2.000000 
v 29.000000 -1.000000 -8.000000 
v 29.000000 -1.000000 -20.000000 
v 31.000000 7.000000 -8.000000 
v 29.000000 -1.000000 -8.000000 
v 30.000000 -11.000000 -9.000000 
v 29.000000 -1.000000 -20.000000 
v 29.000000 -1.000000 -8.000000 
vn -0.769043 -0.625000 0.132568 
vn -0.621338 -0.012451 0.783203 
vn -0.978760 0.019043 0.203857 
vn -0.621338 -0.012451 0.783203 
vn -0.734131 0.654297 0.180664 
vn -0.978760 0.019043 0.203857 
vn -0.734131 0.654297 0.180664 
vn -0.881592 0.041748 -0.469727 
vn -0.978760 0.019043 0.203857 
vn -0.881592 0.041748 -0.469727 
vn -0.769043 -0.625000 0.132568 
vn -0.978760 0.019043 0.203857 
vn -0.128662 -0.937988 -0.321289 
vn 0.126465 -0.370850 0.919922 
vn -0.011963 -0.967773 0.250977 
vn 0.126465 -0.370850 0.919922 
vn 0.145508 0.308838 0.939697 
vn -0.011963 -0.967773 0.250977 
vn 0.126465 -0.370850 0.919922 
vn 0.045166 0.939697 0.338379 
vn 0.145508 0.308838 0.939697 
vn 0.045166 0.939697 0.338379 
vn -0.074951 0.969482 -0.232422 
vn 0.145508 0.308838 0.939697 
vn 0.045166 0.939697 0.338379 
vn -0.237549 0.373535 -0.896484 
vn -0.074951 0.969482 -0.232422 
vn -0.237549 0.373535 -0.896484 
vn -0.253418 -0.306152 -0.917480 
vn -0.074951 0.969482 -0.232422 
vn -0.237549 0.373535 -0.896484 
vn -0.128662 -0.937988 -0.321289 
vn -0.253418 -0.306152 -0.917480 
vn -0.128662 -0.937988 -0.321289 
vn -0.011963 -0.967773 0.250977 
vn -0.253418 -0.306152 -0.917480 
vn 0.912842 -0.028809 -0.406738 
vn 0.958740 0.209473 -0.190918 
vn 0.978027 -0.041016 -0.203369 
vn 0.935547 -0.288818 -0.203125 
vn 0.912842 -0.028809 -0.406738 
vn 0.978027 -0.041016 -0.203369 
vn 0.998535 -0.051025 0.009033 
vn 0.935547 -0.288818 -0.203125 
vn 0.978027 -0.041016 -0.203369 
vn 0.958740 0.209473 -0.190918 
vn 0.998535 -0.051025 0.009033 
vn 0.978027 -0.041016 -0.203369 
vt 0.698413 0.333333 
vt 0.825397 0.333333 
vt 0.698413 0.634921 
vt 0.698413 0.333333 
vt 0.825397 0.333333 
vt 0.698413 0.634921 
vt 0.698413 0.333333 
vt 0.825397 0.333333 
vt 0.698413 0.634921 
vt 0.698413 0.333333 
vt 0.825397 0.333333 
vt 0.698413 0.634921 
vt 0.476190 0.000000 
vt 0.603175 0.000000 
vt 0.476190 0.285714 
vt 0.603175 0.000000 
vt 0.603175 0.285714 
vt 0.476190 0.285714 
vt 0.476190 0.000000 
vt 0.603175 0.000000 
vt 0.476190 0.285714 
vt 0.603175 0.000000 
vt 0.603175 0.285714 
vt 0.476190 0.285714 
vt 0.476190 0.000000 
vt 0.603175 0.000000 
vt 0.476190 0.285714 
vt 0.603175 0.000000 
vt 0.603175 0.285714 
vt 0.476190 0.285714 
vt 0.476190 0.000000 
vt 0.603175 0.000000 
vt 0.476190 0.285714 
vt 0.603175 0.000000 
vt 0.603175 0.285714 
vt 0.476190 0.285714 
vt 0.936508 0.111111 
vt 0.984127 0.111111 
vt 0.968254 0.079365 
vt 0.936508 0.047619 
vt 0.936508 0.111111 
vt 0.968254 0.079365 
vt 0.984127 0.047619 
vt 0.936508 0.047619 
vt 0.968254 0.079365 
vt 0.984127 0.111111 
vt 0.984127 0.047619 
vt 0.968254 0.079365 
f 1/1/1 2/2/2 3/3/3
f 4/4/4 5/5/5 6/6/6
f 7/7/7 8/8/8 9/9/9
f 10/10/10 11/11/11 12/12/12
f 13/13/13 14/14/14 15/15/15
f 16/16/16 17/17/17 18/18/18
f 19/19/19 20/20/20 21/21/21
f 22/22/22 23/23/23 24/24/24
f 25/25/25 26/26/26 27/27/27
f 28/28/28 29/29/29 30/30/30
f 31/31/31 32/32/32 33/33/33
f 34/34/34 35/35/35 36/36/36
f 37/37/37 38/38/38 39/39/39
f 40/40/40 41/41/41 42/42/42
f 43/43/43 44/44/44 45/45/45
f 46/46/46 47/47/47 48/48/48
