v 12.000000 -5.000000 -13.000000 
v 14.000000 -5.000000 8.000000 
v -13.000000 -5.000000 9.000000 
v -13.000000 -5.000000 9.000000 
v -14.000000 -5.000000 -11.000000 
v 12.000000 -5.000000 -13.000000 
v 12.000000 4.000000 -11.000000 
v -14.000000 4.000000 -9.000000 
v -13.000000 5.000000 13.000000 
v -13.000000 5.000000 13.000000 
v 14.000000 5.000000 11.000000 
v 12.000000 4.000000 -11.000000 
v 12.000000 -5.000000 -13.000000 
v -14.000000 -5.000000 -11.000000 
v -14.000000 4.000000 -9.000000 
v -14.000000 4.000000 -9.000000 
v 12.000000 4.000000 -11.000000 
v 12.000000 -5.000000 -13.000000 
v -14.000000 -5.000000 -11.000000 
v -13.000000 -5.000000 9.000000 
v -13.000000 5.000000 13.000000 
v -13.000000 5.000000 13.000000 
v -14.000000 4.000000 -9.000000 
v -14.000000 -5.000000 -11.000000 
v -13.000000 -5.000000 9.000000 
v 14.000000 -5.000000 8.000000 
v 14.000000 5.000000 11.000000 
v 14.000000 5.000000 11.000000 
v -13.000000 5.000000 13.000000 
v -13.000000 -5.000000 9.000000 
v 14.000000 -5.000000 8.000000 
v 12.000000 -5.000000 -13.000000 
v 12.000000 4.000000 -11.000000 
v 12.000000 4.000000 -11.000000 
v 14.000000 5.000000 11.000000 
v 14.000000 -5.000000 8.000000 
vn 0.295410 -0.601807 -0.741699 
vn 0.811035 -0.480713 0.333008 
vn -0.268799 -0.772461 0.574951 
vn -0.268799 -0.772461 0.574951 
vn -0.859619 -0.330322 -0.389404 
vn 0.295410 -0.601807 -0.741699 
vn 0.597168 0.702881 -0.385742 
vn -0.445068 0.496582 -0.745117 
vn -0.714844 0.623047 0.316895 
vn -0.714844 0.623047 0.316895 
vn 0.510986 0.207764 0.833740 
vn 0.597168 0.702881 -0.385742 
vn 0.295410 -0.601807 -0.741699 
vn -0.859619 -0.330322 -0.389404 
vn -0.445068 0.496582 -0.745117 
vn -0.445068 0.496582 -0.745117 
vn 0.597168 0.702881 -0.385742 
vn 0.295410 -0.601807 -0.741699 
vn -0.859619 -0.330322 -0.389404 
vn -0.268799 -0.772461 0.574951 
vn -0.714844 0.623047 0.316895 
vn -0.714844 0.623047 0.316895 
vn -0.445068 0.496582 -0.745117 
vn -0.859619 -0.330322 -0.389404 
vn -0.268799 -0.772461 0.574951 
vn 0.811035 -0.480713 0.333008 
vn 0.510986 0.207764 0.833740 
vn 0.510986 0.207764 0.833740 
vn -0.714844 0.623047 0.316895 
vn -0.268799 -0.772461 0.574951 
vn 0.811035 -0.480713 0.333008 
vn 0.295410 -0.601807 -0.741699 
vn 0.597168 0.702881 -0.385742 
vn 0.597168 0.702881 -0.385742 
vn 0.510986 0.207764 0.833740 
vn 0.811035 -0.480713 0.333008 
vt 0.984127 0.967742 
vt 1.000000 0.000000 
vt 0.539683 0.000000 
vt 0.539683 0.000000 
vt 0.507937 0.645161 
vt 0.984127 0.967742 
vt 0.984127 0.903226 
vt 0.507937 0.612903 
vt 0.507937 0.000000 
vt 0.507937 0.000000 
vt 1.000000 0.000000 
vt 0.984127 0.903226 
vt 0.984127 0.967742 
vt 0.507937 0.645161 
vt 0.507937 0.612903 
vt 0.507937 0.612903 
vt 0.984127 0.903226 
vt 0.984127 0.967742 
vt 0.507937 0.645161 
vt 0.539683 0.000000 
vt 0.507937 0.000000 
vt 0.507937 0.000000 
vt 0.507937 0.612903 
vt 0.507937 0.645161 
vt 0.539683 0.000000 
vt 1.000000 0.000000 
vt 1.000000 0.000000 
vt 1.000000 0.000000 
vt 0.507937 0.000000 
vt 0.539683 0.000000 
vt 1.000000 0.000000 
vt 0.984127 0.967742 
vt 0.984127 0.903226 
vt 0.984127 0.903226 
vt 1.000000 0.000000 
vt 1.000000 0.000000 
f 1/1/1 2/2/2 3/3/3
f 4/4/4 5/5/5 6/6/6
f 7/7/7 8/8/8 9/9/9
f 10/10/10 11/11/11 12/12/12
f 13/13/13 14/14/14 15/15/15
f 16/16/16 17/17/17 18/18/18
f 19/19/19 20/20/20 21/21/21
f 22/22/22 23/23/23 24/24/24
f 25/25/25 26/26/26 27/27/27
f 28/28/28 29/29/29 30/30/30
f 31/31/31 32/32/32 33/33/33
f 34/34/34 35/35/35 36/36/36
