v 0.000000 0.000000 0.000000 
v 0.000000 0.000000 8.000000 
v -7.000000 0.000000 0.000000 
v 0.000000 0.000000 0.000000 
v 7.000000 0.000000 0.000000 
v 0.000000 0.000000 8.000000 
v 0.000000 0.000000 0.000000 
v 0.000000 0.000000 -8.000000 
v 7.000000 0.000000 0.000000 
v 0.000000 0.000000 0.000000 
v -7.000000 0.000000 0.000000 
v 0.000000 0.000000 -8.000000 
v -7.000000 0.000000 0.000000 
v 0.000000 25.000000 3.000000 
v -5.000000 25.000000 -2.000000 
v -7.000000 0.000000 0.000000 
v 0.000000 0.000000 8.000000 
v 0.000000 25.000000 3.000000 
v 0.000000 0.000000 8.000000 
v 5.000000 25.000000 -2.000000 
v 0.000000 25.000000 3.000000 
v 0.000000 0.000000 8.000000 
v 7.000000 0.000000 0.000000 
v 5.000000 25.000000 -2.000000 
v 7.000000 0.000000 0.000000 
v 0.000000 24.000000 -8.000000 
v 5.000000 25.000000 -2.000000 
v 7.000000 0.000000 0.000000 
v 0.000000 0.000000 -8.000000 
v 0.000000 24.000000 -8.000000 
v 0.000000 0.000000 -8.000000 
v -5.000000 25.000000 -2.000000 
v 0.000000 24.000000 -8.000000 
v 0.000000 0.000000 -8.000000 
v -7.000000 0.000000 0.000000 
v -5.000000 25.000000 -2.000000 
v 0.000000 28.000000 -2.000000 
v -5.000000 25.000000 -2.000000 
v 0.000000 25.000000 3.000000 
v 0.000000 28.000000 -2.000000 
v 0.000000 25.000000 3.000000 
v 5.000000 25.000000 -2.000000 
v 0.000000 28.000000 -2.000000 
v 5.000000 25.000000 -2.000000 
v 0.000000 24.000000 -8.000000 
v 0.000000 28.000000 -2.000000 
v 0.000000 24.000000 -8.000000 
v -5.000000 25.000000 -2.000000 
vn 0.000000 -0.994385 0.104492 
vn 0.000000 -0.994385 0.104492 
vn 0.000000 -0.994385 0.104492 
vn 0.000000 -0.994385 0.104492 
vn 0.000000 -0.994385 0.104492 
vn 0.000000 -0.994385 0.104492 
vn 0.000000 -0.994385 0.104492 
vn 0.000000 -0.994385 0.104492 
vn 0.000000 -0.994385 0.104492 
vn 0.000000 -0.994385 0.104492 
vn 0.000000 -0.994385 0.104492 
vn 0.000000 -0.994385 0.104492 
vn -0.949951 0.091309 0.298096 
vn -0.335449 0.167969 0.926758 
vn -0.953369 0.031006 -0.300049 
vn -0.949951 0.091309 0.298096 
vn 0.325928 0.170898 0.929688 
vn -0.335449 0.167969 0.926758 
vn 0.325928 0.170898 0.929688 
vn 0.953369 0.092773 0.287109 
vn -0.335449 0.167969 0.926758 
vn 0.325928 0.170898 0.929688 
vn 0.949951 0.027344 -0.310547 
vn 0.953369 0.092773 0.287109 
vn 0.949951 0.027344 -0.310547 
vn 0.335449 -0.028076 -0.941406 
vn 0.953369 0.092773 0.287109 
vn 0.949951 0.027344 -0.310547 
vn -0.325928 -0.025879 -0.944824 
vn 0.335449 -0.028076 -0.941406 
vn -0.325928 -0.025879 -0.944824 
vn -0.953369 0.031006 -0.300049 
vn 0.335449 -0.028076 -0.941406 
vn -0.325928 -0.025879 -0.944824 
vn -0.949951 0.091309 0.298096 
vn -0.953369 0.031006 -0.300049 
vn 0.000000 0.994385 -0.104492 
vn -0.520508 0.848877 -0.089111 
vn 0.000000 0.903320 0.428467 
vn 0.000000 0.994385 -0.104492 
vn 0.000000 0.903320 0.428467 
vn 0.520508 0.848877 -0.089111 
vn 0.000000 0.994385 -0.104492 
vn 0.520508 0.848877 -0.089111 
vn 0.000000 0.794678 -0.606934 
vn 0.000000 0.994385 -0.104492 
vn 0.000000 0.794678 -0.606934 
vn -0.520508 0.848877 -0.089111 
vt 0.492063 -0.015873 
vt 1.000000 -0.015873 
vt 0.746032 -0.015873 
vt 0.492063 -0.015873 
vt 0.238095 -0.015873 
vt 0.000000 -0.015873 
vt 0.492063 -0.015873 
vt 0.492063 -0.015873 
vt 0.238095 -0.015873 
vt 0.492063 -0.015873 
vt 0.746032 -0.015873 
vt 0.492063 -0.015873 
vt 0.746032 -0.015873 
vt 1.000000 0.714286 
vt 0.746032 0.714286 
vt 0.746032 -0.015873 
vt 1.000000 -0.015873 
vt 1.000000 0.714286 
vt 0.000000 -0.015873 
vt 0.238095 0.714286 
vt 1.000000 0.714286 
vt 0.000000 -0.015873 
vt 0.238095 -0.015873 
vt 0.238095 0.714286 
vt 0.238095 -0.015873 
vt 0.492063 0.714286 
vt 0.238095 0.714286 
vt 0.238095 -0.015873 
vt 0.492063 -0.015873 
vt 0.492063 0.714286 
vt 0.492063 -0.015873 
vt 0.746032 0.714286 
vt 0.492063 0.714286 
vt 0.492063 -0.015873 
vt 0.746032 -0.015873 
vt 0.746032 0.714286 
vt 0.492063 0.825397 
vt 0.746032 0.714286 
vt 1.000000 0.714286 
vt 0.492063 0.825397 
vt 0.000000 0.714286 
vt 0.238095 0.714286 
vt 0.492063 0.825397 
vt 0.238095 0.714286 
vt 0.492063 0.714286 
vt 0.492063 0.825397 
vt 0.492063 0.714286 
vt 0.746032 0.714286 
f 1/1/1 2/2/2 3/3/3
f 4/4/4 5/5/5 6/6/6
f 7/7/7 8/8/8 9/9/9
f 10/10/10 11/11/11 12/12/12
f 13/13/13 14/14/14 15/15/15
f 16/16/16 17/17/17 18/18/18
f 19/19/19 20/20/20 21/21/21
f 22/22/22 23/23/23 24/24/24
f 25/25/25 26/26/26 27/27/27
f 28/28/28 29/29/29 30/30/30
f 31/31/31 32/32/32 33/33/33
f 34/34/34 35/35/35 36/36/36
f 37/37/37 38/38/38 39/39/39
f 40/40/40 41/41/41 42/42/42
f 43/43/43 44/44/44 45/45/45
f 46/46/46 47/47/47 48/48/48
