v -14.000000 -37.000000 10.000000 
v -10.000000 -16.000000 14.000000 
v -18.000000 -16.000000 18.000000 
v -14.000000 -37.000000 10.000000 
v -4.000000 -19.000000 6.000000 
v -10.000000 -16.000000 14.000000 
v -14.000000 -37.000000 10.000000 
v -15.000000 -17.000000 8.000000 
v -4.000000 -19.000000 6.000000 
v -14.000000 -37.000000 10.000000 
v -18.000000 -16.000000 18.000000 
v -15.000000 -17.000000 8.000000 
v -18.000000 -16.000000 18.000000 
v -5.000000 -2.000000 10.000000 
v -15.000000 -1.000000 17.000000 
v -18.000000 -16.000000 18.000000 
v -10.000000 -16.000000 14.000000 
v -5.000000 -2.000000 10.000000 
v -10.000000 -16.000000 14.000000 
v 1.000000 -8.000000 0.000000 
v -5.000000 -2.000000 10.000000 
v -10.000000 -16.000000 14.000000 
v -4.000000 -19.000000 6.000000 
v 1.000000 -8.000000 0.000000 
v -4.000000 -19.000000 6.000000 
v -9.000000 -3.000000 3.000000 
v 1.000000 -8.000000 0.000000 
v -4.000000 -19.000000 6.000000 
v -15.000000 -17.000000 8.000000 
v -9.000000 -3.000000 3.000000 
v -15.000000 -17.000000 8.000000 
v -15.000000 -1.000000 17.000000 
v -9.000000 -3.000000 3.000000 
v -15.000000 -17.000000 8.000000 
v -18.000000 -16.000000 18.000000 
v -15.000000 -1.000000 17.000000 
v -15.000000 -1.000000 17.000000 
v 6.000000 8.000000 -3.000000 
v -7.000000 13.000000 4.000000 
v -15.000000 -1.000000 17.000000 
v -5.000000 -2.000000 10.000000 
v 6.000000 8.000000 -3.000000 
v -5.000000 -2.000000 10.000000 
v 15.000000 0.000000 -15.000000 
v 6.000000 8.000000 -3.000000 
v -5.000000 -2.000000 10.000000 
v 1.000000 -8.000000 0.000000 
v 15.000000 0.000000 -15.000000 
v 1.000000 -8.000000 0.000000 
v 0.000000 6.000000 -9.000000 
v 15.000000 0.000000 -15.000000 
v 1.000000 -8.000000 0.000000 
v -9.000000 -3.000000 3.000000 
v 0.000000 6.000000 -9.000000 
v -9.000000 -3.000000 3.000000 
v -7.000000 13.000000 4.000000 
v 0.000000 6.000000 -9.000000 
v -9.000000 -3.000000 3.000000 
v -15.000000 -1.000000 17.000000 
v -7.000000 13.000000 4.000000 
v -7.000000 13.000000 4.000000 
v 21.000000 15.000000 -12.000000 
v 16.000000 24.000000 -12.000000 
v -7.000000 13.000000 4.000000 
v 6.000000 8.000000 -3.000000 
v 21.000000 15.000000 -12.000000 
v 6.000000 8.000000 -3.000000 
v 26.000000 9.000000 -21.000000 
v 21.000000 15.000000 -12.000000 
v 6.000000 8.000000 -3.000000 
v 15.000000 0.000000 -15.000000 
v 26.000000 9.000000 -21.000000 
v 15.000000 0.000000 -15.000000 
v 17.000000 15.000000 -19.000000 
v 26.000000 9.000000 -21.000000 
v 15.000000 0.000000 -15.000000 
v 0.000000 6.000000 -9.000000 
v 17.000000 15.000000 -19.000000 
v 0.000000 6.000000 -9.000000 
v 16.000000 24.000000 -12.000000 
v 17.000000 15.000000 -19.000000 
v 0.000000 6.000000 -9.000000 
v -7.000000 13.000000 4.000000 
v 16.000000 24.000000 -12.000000 
v 16.000000 24.000000 -12.000000 
v 21.000000 15.000000 -12.000000 
v 25.000000 21.000000 -19.000000 
v 21.000000 15.000000 -12.000000 
v 26.000000 9.000000 -21.000000 
v 25.000000 21.000000 -19.000000 
v 26.000000 9.000000 -21.000000 
v 17.000000 15.000000 -19.000000 
v 25.000000 21.000000 -19.000000 
v 17.000000 15.000000 -19.000000 
v 16.000000 24.000000 -12.000000 
v 25.000000 21.000000 -19.000000 
vn 0.009766 -0.976074 0.216309 
vn 0.674072 -0.140137 0.725098 
vn -0.236084 -0.047119 0.970459 
vn 0.009766 -0.976074 0.216309 
vn 0.370117 -0.527832 -0.764160 
vn 0.674072 -0.140137 0.725098 
vn 0.009766 -0.976074 0.216309 
vn -0.757812 -0.011475 -0.652100 
vn 0.370117 -0.527832 -0.764160 
vn 0.009766 -0.976074 0.216309 
vn -0.236084 -0.047119 0.970459 
vn -0.757812 -0.011475 -0.652100 
vn -0.236084 -0.047119 0.970459 
vn 0.692139 0.042969 0.720215 
vn -0.501709 0.587402 0.634766 
vn -0.236084 -0.047119 0.970459 
vn 0.674072 -0.140137 0.725098 
vn 0.692139 0.042969 0.720215 
vn 0.674072 -0.140137 0.725098 
vn 0.534424 -0.806885 -0.250732 
vn 0.692139 0.042969 0.720215 
vn 0.674072 -0.140137 0.725098 
vn 0.370117 -0.527832 -0.764160 
vn 0.534424 -0.806885 -0.250732 
vn 0.370117 -0.527832 -0.764160 
vn -0.700684 -0.128906 -0.701416 
vn 0.534424 -0.806885 -0.250732 
vn 0.370117 -0.527832 -0.764160 
vn -0.757812 -0.011475 -0.652100 
vn -0.700684 -0.128906 -0.701416 
vn -0.757812 -0.011475 -0.652100 
vn -0.501709 0.587402 0.634766 
vn -0.700684 -0.128906 -0.701416 
vn -0.757812 -0.011475 -0.652100 
vn -0.236084 -0.047119 0.970459 
vn -0.501709 0.587402 0.634766 
vn -0.501709 0.587402 0.634766 
vn 0.659912 0.001709 0.750977 
vn -0.447998 0.757812 0.473633 
vn -0.501709 0.587402 0.634766 
vn 0.692139 0.042969 0.720215 
vn 0.659912 0.001709 0.750977 
vn 0.692139 0.042969 0.720215 
vn 0.555908 -0.769287 -0.313965 
vn 0.659912 0.001709 0.750977 
vn 0.692139 0.042969 0.720215 
vn 0.534424 -0.806885 -0.250732 
vn 0.555908 -0.769287 -0.313965 
vn 0.534424 -0.806885 -0.250732 
vn -0.649414 -0.048828 -0.758789 
vn 0.555908 -0.769287 -0.313965 
vn 0.534424 -0.806885 -0.250732 
vn -0.700684 -0.128906 -0.701416 
vn -0.649414 -0.048828 -0.758789 
vn -0.700684 -0.128906 -0.701416 
vn -0.447998 0.757812 0.473633 
vn -0.649414 -0.048828 -0.758789 
vn -0.700684 -0.128906 -0.701416 
vn -0.501709 0.587402 0.634766 
vn -0.447998 0.757812 0.473633 
vn -0.447998 0.757812 0.473633 
vn 0.652100 0.054688 0.755859 
vn -0.238525 0.948975 -0.205811 
vn -0.447998 0.757812 0.473633 
vn 0.659912 0.001709 0.750977 
vn 0.652100 0.054688 0.755859 
vn 0.659912 0.001709 0.750977 
vn 0.895752 -0.442627 -0.037598 
vn 0.652100 0.054688 0.755859 
vn 0.659912 0.001709 0.750977 
vn 0.555908 -0.769287 -0.313965 
vn 0.895752 -0.442627 -0.037598 
vn 0.555908 -0.769287 -0.313965 
vn -0.379150 0.154541 -0.912109 
vn 0.895752 -0.442627 -0.037598 
vn 0.555908 -0.769287 -0.313965 
vn -0.649414 -0.048828 -0.758789 
vn -0.379150 0.154541 -0.912109 
vn -0.649414 -0.048828 -0.758789 
vn -0.238525 0.948975 -0.205811 
vn -0.379150 0.154541 -0.912109 
vn -0.649414 -0.048828 -0.758789 
vn -0.447998 0.757812 0.473633 
vn -0.238525 0.948975 -0.205811 
vn -0.238525 0.948975 -0.205811 
vn 0.652100 0.054688 0.755859 
vn 0.662598 0.665771 -0.342529 
vn 0.652100 0.054688 0.755859 
vn 0.895752 -0.442627 -0.037598 
vn 0.662598 0.665771 -0.342529 
vn 0.895752 -0.442627 -0.037598 
vn -0.379150 0.154541 -0.912109 
vn 0.662598 0.665771 -0.342529 
vn -0.379150 0.154541 -0.912109 
vn -0.238525 0.948975 -0.205811 
vn 0.662598 0.665771 -0.342529 
vt 0.787402 0.007874 
vt 0.787402 0.330709 
vt 0.866142 0.314961 
vt 0.787402 0.007874 
vt 0.700787 0.307087 
vt 0.787402 0.330709 
vt 0.787402 0.007874 
vt 0.779528 0.314961 
vt 0.700787 0.307087 
vt 0.787402 0.007874 
vt 0.866142 0.314961 
vt 0.779528 0.314961 
vt 0.866142 0.314961 
vt 0.787402 0.716535 
vt 0.913386 0.637795 
vt 0.866142 0.314961 
vt 0.787402 0.330709 
vt 0.787402 0.716535 
vt 0.787402 0.330709 
vt 0.685039 0.700787 
vt 0.787402 0.716535 
vt 0.787402 0.330709 
vt 0.700787 0.307087 
vt 0.685039 0.700787 
vt 0.700787 0.307087 
vt 0.779528 0.708661 
vt 0.685039 0.700787 
vt 0.700787 0.307087 
vt 0.779528 0.314961 
vt 0.779528 0.708661 
vt 0.779528 0.314961 
vt 0.913386 0.637795 
vt 0.779528 0.708661 
vt 0.779528 0.314961 
vt 0.866142 0.314961 
vt 0.913386 0.637795 
vt 0.913386 0.637795 
vt 0.779528 0.228346 
vt 0.921260 0.228346 
vt 0.913386 0.637795 
vt 0.787402 0.716535 
vt 0.779528 0.228346 
vt 0.787402 0.716535 
vt 0.669291 0.181102 
vt 0.779528 0.228346 
vt 0.787402 0.716535 
vt 0.685039 0.700787 
vt 0.669291 0.181102 
vt 0.685039 0.700787 
vt 0.779528 0.220472 
vt 0.669291 0.181102 
vt 0.685039 0.700787 
vt 0.779528 0.708661 
vt 0.779528 0.220472 
vt 0.779528 0.708661 
vt 0.921260 0.228346 
vt 0.779528 0.220472 
vt 0.779528 0.708661 
vt 0.913386 0.637795 
vt 0.921260 0.228346 
vt 0.921260 0.228346 
vt 0.779528 0.779528 
vt 0.913386 0.811024 
vt 0.921260 0.228346 
vt 0.779528 0.228346 
vt 0.779528 0.779528 
vt 0.779528 0.228346 
vt 0.661417 0.771654 
vt 0.779528 0.779528 
vt 0.779528 0.228346 
vt 0.669291 0.181102 
vt 0.661417 0.771654 
vt 0.669291 0.181102 
vt 0.771654 0.779528 
vt 0.661417 0.771654 
vt 0.669291 0.181102 
vt 0.779528 0.220472 
vt 0.771654 0.779528 
vt 0.779528 0.220472 
vt 0.913386 0.811024 
vt 0.771654 0.779528 
vt 0.779528 0.220472 
vt 0.921260 0.228346 
vt 0.913386 0.811024 
vt 0.913386 0.811024 
vt 0.779528 0.779528 
vt 0.771654 0.897638 
vt 0.779528 0.779528 
vt 0.661417 0.771654 
vt 0.771654 0.897638 
vt 0.661417 0.771654 
vt 0.771654 0.779528 
vt 0.771654 0.897638 
vt 0.771654 0.779528 
vt 0.913386 0.811024 
vt 0.771654 0.897638 
f 1/1/1 2/2/2 3/3/3
f 4/4/4 5/5/5 6/6/6
f 7/7/7 8/8/8 9/9/9
f 10/10/10 11/11/11 12/12/12
f 13/13/13 14/14/14 15/15/15
f 16/16/16 17/17/17 18/18/18
f 19/19/19 20/20/20 21/21/21
f 22/22/22 23/23/23 24/24/24
f 25/25/25 26/26/26 27/27/27
f 28/28/28 29/29/29 30/30/30
f 31/31/31 32/32/32 33/33/33
f 34/34/34 35/35/35 36/36/36
f 37/37/37 38/38/38 39/39/39
f 40/40/40 41/41/41 42/42/42
f 43/43/43 44/44/44 45/45/45
f 46/46/46 47/47/47 48/48/48
f 49/49/49 50/50/50 51/51/51
f 52/52/52 53/53/53 54/54/54
f 55/55/55 56/56/56 57/57/57
f 58/58/58 59/59/59 60/60/60
f 61/61/61 62/62/62 63/63/63
f 64/64/64 65/65/65 66/66/66
f 67/67/67 68/68/68 69/69/69
f 70/70/70 71/71/71 72/72/72
f 73/73/73 74/74/74 75/75/75
f 76/76/76 77/77/77 78/78/78
f 79/79/79 80/80/80 81/81/81
f 82/82/82 83/83/83 84/84/84
f 85/85/85 86/86/86 87/87/87
f 88/88/88 89/89/89 90/90/90
f 91/91/91 92/92/92 93/93/93
f 94/94/94 95/95/95 96/96/96
