v 6.000000 -27.000000 -12.000000 
v 0.000000 -27.000000 -14.000000 
v 0.000000 -22.000000 -40.000000 
v 21.000000 -17.000000 -39.000000 
v 6.000000 -27.000000 -12.000000 
v 0.000000 -22.000000 -40.000000 
v 11.000000 -27.000000 -5.000000 
v 6.000000 -27.000000 -12.000000 
v 21.000000 -17.000000 -39.000000 
v 21.000000 -18.000000 -18.000000 
v 11.000000 -27.000000 -5.000000 
v 21.000000 -17.000000 -39.000000 
v 13.000000 -27.000000 3.000000 
v 11.000000 -27.000000 -5.000000 
v 21.000000 -18.000000 -18.000000 
v 24.000000 -18.000000 3.000000 
v 13.000000 -27.000000 3.000000 
v 21.000000 -18.000000 -18.000000 
v 11.000000 -27.000000 11.000000 
v 13.000000 -27.000000 3.000000 
v 24.000000 -18.000000 3.000000 
v 21.000000 -18.000000 24.000000 
v 11.000000 -27.000000 11.000000 
v 24.000000 -18.000000 3.000000 
v 21.000000 -17.000000 -39.000000 
v 0.000000 -22.000000 -40.000000 
v 0.000000 -4.000000 -54.000000 
v 19.000000 -4.000000 -50.000000 
v 21.000000 -17.000000 -39.000000 
v 0.000000 -4.000000 -54.000000 
v 21.000000 -18.000000 -18.000000 
v 21.000000 -17.000000 -39.000000 
v 19.000000 -4.000000 -50.000000 
v 25.000000 -4.000000 -24.000000 
v 21.000000 -18.000000 -18.000000 
v 19.000000 -4.000000 -50.000000 
v 24.000000 -18.000000 3.000000 
v 21.000000 -18.000000 -18.000000 
v 25.000000 -4.000000 -24.000000 
v 32.000000 -4.000000 3.000000 
v 24.000000 -18.000000 3.000000 
v 25.000000 -4.000000 -24.000000 
v 21.000000 -18.000000 24.000000 
v 24.000000 -18.000000 3.000000 
v 32.000000 -4.000000 3.000000 
v 28.000000 -4.000000 30.000000 
v 21.000000 -18.000000 24.000000 
v 32.000000 -4.000000 3.000000 
v 0.000000 -27.000000 -14.000000 
v -6.000000 -27.000000 -12.000000 
v 0.000000 -22.000000 -40.000000 
v -6.000000 -27.000000 -12.000000 
v -21.000000 -17.000000 -39.000000 
v 0.000000 -22.000000 -40.000000 
v -6.000000 -27.000000 -12.000000 
v -11.000000 -27.000000 -5.000000 
v -21.000000 -17.000000 -39.000000 
v -11.000000 -27.000000 -5.000000 
v -21.000000 -18.000000 -18.000000 
v -21.000000 -17.000000 -39.000000 
v -11.000000 -27.000000 -5.000000 
v -13.000000 -27.000000 3.000000 
v -21.000000 -18.000000 -18.000000 
v -13.000000 -27.000000 3.000000 
v -24.000000 -18.000000 3.000000 
v -21.000000 -18.000000 -18.000000 
v -13.000000 -27.000000 3.000000 
v -11.000000 -27.000000 11.000000 
v -24.000000 -18.000000 3.000000 
v -11.000000 -27.000000 11.000000 
v -21.000000 -18.000000 24.000000 
v -24.000000 -18.000000 3.000000 
v 0.000000 -22.000000 -40.000000 
v -21.000000 -17.000000 -39.000000 
v 0.000000 -4.000000 -54.000000 
v -21.000000 -17.000000 -39.000000 
v -19.000000 -4.000000 -50.000000 
v 0.000000 -4.000000 -54.000000 
v -21.000000 -17.000000 -39.000000 
v -21.000000 -18.000000 -18.000000 
v -19.000000 -4.000000 -50.000000 
v -21.000000 -18.000000 -18.000000 
v -25.000000 -4.000000 -24.000000 
v -19.000000 -4.000000 -50.000000 
v -21.000000 -18.000000 -18.000000 
v -24.000000 -18.000000 3.000000 
v -25.000000 -4.000000 -24.000000 
v -24.000000 -18.000000 3.000000 
v -32.000000 -4.000000 3.000000 
v -25.000000 -4.000000 -24.000000 
v -24.000000 -18.000000 3.000000 
v -21.000000 -18.000000 24.000000 
v -32.000000 -4.000000 3.000000 
v -21.000000 -18.000000 24.000000 
v -28.000000 -4.000000 30.000000 
v -32.000000 -4.000000 3.000000 
v 19.000000 -4.000000 -50.000000 
v 0.000000 -4.000000 -54.000000 
v -19.000000 -4.000000 -50.000000 
v 19.000000 -4.000000 -50.000000 
v -19.000000 -4.000000 -50.000000 
v -25.000000 -4.000000 -24.000000 
v 25.000000 -4.000000 -24.000000 
v 19.000000 -4.000000 -50.000000 
v -25.000000 -4.000000 -24.000000 
v 25.000000 -4.000000 -24.000000 
v -25.000000 -4.000000 -24.000000 
v -32.000000 -4.000000 3.000000 
v 32.000000 -4.000000 3.000000 
v 25.000000 -4.000000 -24.000000 
v -32.000000 -4.000000 3.000000 
v 28.000000 -4.000000 30.000000 
v 32.000000 -4.000000 3.000000 
v -32.000000 -4.000000 3.000000 
v -28.000000 -4.000000 30.000000 
v 28.000000 -4.000000 30.000000 
v -32.000000 -4.000000 3.000000 
vn 0.174316 -0.953125 -0.246826 
vn 0.000000 -0.974121 -0.225098 
vn 0.000000 -0.883789 -0.467529 
vn 0.475342 -0.752441 -0.455566 
vn 0.174316 -0.953125 -0.246826 
vn 0.000000 -0.883789 -0.467529 
vn 0.461914 -0.872314 -0.158691 
vn 0.174316 -0.953125 -0.246826 
vn 0.475342 -0.752441 -0.455566 
vn 0.818115 -0.554688 -0.150635 
vn 0.461914 -0.872314 -0.158691 
vn 0.475342 -0.752441 -0.455566 
vn 0.566895 -0.822998 -0.035400 
vn 0.461914 -0.872314 -0.158691 
vn 0.818115 -0.554688 -0.150635 
vn 0.748047 -0.663086 -0.022949 
vn 0.566895 -0.822998 -0.035400 
vn 0.818115 -0.554688 -0.150635 
vn 0.566406 -0.812988 0.132568 
vn 0.566895 -0.822998 -0.035400 
vn 0.748047 -0.663086 -0.022949 
vn 0.764648 -0.625244 0.154053 
vn 0.566406 -0.812988 0.132568 
vn 0.748047 -0.663086 -0.022949 
vn 0.475342 -0.752441 -0.455566 
vn 0.000000 -0.883789 -0.467529 
vn 0.000000 -0.579102 -0.814941 
vn 0.824463 -0.336426 -0.454590 
vn 0.475342 -0.752441 -0.455566 
vn 0.000000 -0.579102 -0.814941 
vn 0.818115 -0.554688 -0.150635 
vn 0.475342 -0.752441 -0.455566 
vn 0.824463 -0.336426 -0.454590 
vn 0.875488 -0.415527 -0.245605 
vn 0.818115 -0.554688 -0.150635 
vn 0.824463 -0.336426 -0.454590 
vn 0.748047 -0.663086 -0.022949 
vn 0.818115 -0.554688 -0.150635 
vn 0.875488 -0.415527 -0.245605 
vn 0.855713 -0.516602 0.024902 
vn 0.748047 -0.663086 -0.022949 
vn 0.875488 -0.415527 -0.245605 
vn 0.764648 -0.625244 0.154053 
vn 0.748047 -0.663086 -0.022949 
vn 0.855713 -0.516602 0.024902 
vn 0.844727 -0.506348 0.172607 
vn 0.764648 -0.625244 0.154053 
vn 0.855713 -0.516602 0.024902 
vn 0.000000 -0.974121 -0.225098 
vn -0.174316 -0.953125 -0.246826 
vn 0.000000 -0.883789 -0.467529 
vn -0.174316 -0.953125 -0.246826 
vn -0.475342 -0.752441 -0.455566 
vn 0.000000 -0.883789 -0.467529 
vn -0.174316 -0.953125 -0.246826 
vn -0.461914 -0.872314 -0.158691 
vn -0.475342 -0.752441 -0.455566 
vn -0.461914 -0.872314 -0.158691 
vn -0.818115 -0.554688 -0.150635 
vn -0.475342 -0.752441 -0.455566 
vn -0.461914 -0.872314 -0.158691 
vn -0.566895 -0.822998 -0.035400 
vn -0.818115 -0.554688 -0.150635 
vn -0.566895 -0.822998 -0.035400 
vn -0.748047 -0.663086 -0.022949 
vn -0.818115 -0.554688 -0.150635 
vn -0.566895 -0.822998 -0.035400 
vn -0.566406 -0.812988 0.132568 
vn -0.748047 -0.663086 -0.022949 
vn -0.566406 -0.812988 0.132568 
vn -0.764648 -0.625244 0.154053 
vn -0.748047 -0.663086 -0.022949 
vn 0.000000 -0.883789 -0.467529 
vn -0.475342 -0.752441 -0.455566 
vn 0.000000 -0.579102 -0.814941 
vn -0.475342 -0.752441 -0.455566 
vn -0.824463 -0.336426 -0.454590 
vn 0.000000 -0.579102 -0.814941 
vn -0.475342 -0.752441 -0.455566 
vn -0.818115 -0.554688 -0.150635 
vn -0.824463 -0.336426 -0.454590 
vn -0.818115 -0.554688 -0.150635 
vn -0.875488 -0.415527 -0.245605 
vn -0.824463 -0.336426 -0.454590 
vn -0.818115 -0.554688 -0.150635 
vn -0.748047 -0.663086 -0.022949 
vn -0.875488 -0.415527 -0.245605 
vn -0.748047 -0.663086 -0.022949 
vn -0.855713 -0.516602 0.024902 
vn -0.875488 -0.415527 -0.245605 
vn -0.748047 -0.663086 -0.022949 
vn -0.764648 -0.625244 0.154053 
vn -0.855713 -0.516602 0.024902 
vn -0.764648 -0.625244 0.154053 
vn -0.844727 -0.506348 0.172607 
vn -0.855713 -0.516602 0.024902 
vn 0.000000 0.999756 -0.012695 
vn 0.000000 0.999756 -0.012695 
vn 0.000000 0.999756 -0.012695 
vn 0.000000 0.999756 0.001953 
vn 0.000000 0.999756 0.001953 
vn 0.000000 0.999756 0.001953 
vn 0.000000 0.999756 0.001953 
vn 0.000000 0.999756 0.001953 
vn 0.000000 0.999756 0.001953 
vn 0.000000 1.000000 0.000000 
vn 0.000000 1.000000 0.000000 
vn 0.000000 1.000000 0.000000 
vn 0.000000 1.000000 0.000000 
vn 0.000000 1.000000 0.000000 
vn 0.000000 1.000000 0.000000 
vn 0.000000 1.000000 0.000000 
vn 0.000000 1.000000 0.000000 
vn 0.000000 1.000000 0.000000 
vn 0.000000 1.000000 0.000000 
vn 0.000000 1.000000 0.000000 
vn 0.000000 1.000000 0.000000 
vt 0.555556 0.047619 
vt 0.523810 0.047619 
vt 0.523810 0.079365 
vt 0.539683 0.111111 
vt 0.555556 0.047619 
vt 0.523810 0.079365 
vt 0.555556 0.047619 
vt 0.555556 0.047619 
vt 0.539683 0.111111 
vt 0.555556 0.095238 
vt 0.555556 0.047619 
vt 0.539683 0.111111 
vt 0.571429 0.047619 
vt 0.555556 0.047619 
vt 0.555556 0.095238 
vt 0.571429 0.095238 
vt 0.571429 0.047619 
vt 0.555556 0.095238 
vt 0.571429 0.047619 
vt 0.571429 0.047619 
vt 0.571429 0.095238 
vt 0.571429 0.095238 
vt 0.571429 0.047619 
vt 0.571429 0.095238 
vt 0.539683 0.111111 
vt 0.523810 0.079365 
vt 0.523810 0.174603 
vt 0.539683 0.174603 
vt 0.539683 0.111111 
vt 0.523810 0.174603 
vt 0.555556 0.095238 
vt 0.539683 0.111111 
vt 0.539683 0.174603 
vt 0.555556 0.174603 
vt 0.555556 0.095238 
vt 0.539683 0.174603 
vt 0.571429 0.095238 
vt 0.555556 0.095238 
vt 0.555556 0.174603 
vt 0.555556 0.174603 
vt 0.571429 0.095238 
vt 0.555556 0.174603 
vt 0.571429 0.095238 
vt 0.571429 0.095238 
vt 0.555556 0.174603 
vt 0.571429 0.174603 
vt 0.571429 0.095238 
vt 0.555556 0.174603 
vt 0.523810 0.047619 
vt 0.492063 0.047619 
vt 0.523810 0.079365 
vt 0.492063 0.047619 
vt 0.507937 0.111111 
vt 0.523810 0.079365 
vt 0.492063 0.047619 
vt 0.492063 0.047619 
vt 0.507937 0.111111 
vt 0.492063 0.047619 
vt 0.492063 0.095238 
vt 0.507937 0.111111 
vt 0.492063 0.047619 
vt 0.476190 0.047619 
vt 0.492063 0.095238 
vt 0.476190 0.047619 
vt 0.492063 0.095238 
vt 0.492063 0.095238 
vt 0.476190 0.047619 
vt 0.476190 0.047619 
vt 0.492063 0.095238 
vt 0.476190 0.047619 
vt 0.476190 0.095238 
vt 0.492063 0.095238 
vt 0.523810 0.079365 
vt 0.507937 0.111111 
vt 0.523810 0.174603 
vt 0.507937 0.111111 
vt 0.507937 0.174603 
vt 0.523810 0.174603 
vt 0.507937 0.111111 
vt 0.492063 0.095238 
vt 0.507937 0.174603 
vt 0.492063 0.095238 
vt 0.507937 0.174603 
vt 0.507937 0.174603 
vt 0.492063 0.095238 
vt 0.492063 0.095238 
vt 0.507937 0.174603 
vt 0.492063 0.095238 
vt 0.492063 0.174603 
vt 0.507937 0.174603 
vt 0.492063 0.095238 
vt 0.476190 0.095238 
vt 0.492063 0.174603 
vt 0.476190 0.095238 
vt 0.476190 0.174603 
vt 0.492063 0.174603 
vt 0.968254 0.936508 
vt 0.968254 0.936508 
vt 0.952381 0.936508 
vt 0.952381 0.920635 
vt 0.936508 0.920635 
vt 0.936508 0.936508 
vt 0.968254 0.936508 
vt 0.952381 0.920635 
vt 0.936508 0.936508 
vt 0.968254 0.936508 
vt 0.936508 0.936508 
vt 0.920635 0.952381 
vt 0.968254 0.952381 
vt 0.968254 0.936508 
vt 0.920635 0.952381 
vt 0.968254 0.968254 
vt 0.968254 0.952381 
vt 0.920635 0.952381 
vt 0.936508 0.968254 
vt 0.968254 0.968254 
vt 0.920635 0.952381 
f 1/1/1 2/2/2 3/3/3
f 4/4/4 5/5/5 6/6/6
f 7/7/7 8/8/8 9/9/9
f 10/10/10 11/11/11 12/12/12
f 13/13/13 14/14/14 15/15/15
f 16/16/16 17/17/17 18/18/18
f 19/19/19 20/20/20 21/21/21
f 22/22/22 23/23/23 24/24/24
f 25/25/25 26/26/26 27/27/27
f 28/28/28 29/29/29 30/30/30
f 31/31/31 32/32/32 33/33/33
f 34/34/34 35/35/35 36/36/36
f 37/37/37 38/38/38 39/39/39
f 40/40/40 41/41/41 42/42/42
f 43/43/43 44/44/44 45/45/45
f 46/46/46 47/47/47 48/48/48
f 49/49/49 50/50/50 51/51/51
f 52/52/52 53/53/53 54/54/54
f 55/55/55 56/56/56 57/57/57
f 58/58/58 59/59/59 60/60/60
f 61/61/61 62/62/62 63/63/63
f 64/64/64 65/65/65 66/66/66
f 67/67/67 68/68/68 69/69/69
f 70/70/70 71/71/71 72/72/72
f 73/73/73 74/74/74 75/75/75
f 76/76/76 77/77/77 78/78/78
f 79/79/79 80/80/80 81/81/81
f 82/82/82 83/83/83 84/84/84
f 85/85/85 86/86/86 87/87/87
f 88/88/88 89/89/89 90/90/90
f 91/91/91 92/92/92 93/93/93
f 94/94/94 95/95/95 96/96/96
f 97/97/97 98/98/98 99/99/99
f 100/100/100 101/101/101 102/102/102
f 103/103/103 104/104/104 105/105/105
f 106/106/106 107/107/107 108/108/108
f 109/109/109 110/110/110 111/111/111
f 112/112/112 113/113/113 114/114/114
f 115/115/115 116/116/116 117/117/117
