v -13.000000 0.000000 16.000000 
v -5.000000 3.000000 25.000000 
v -3.000000 11.000000 10.000000 
v -14.000000 0.000000 -21.000000 
v -13.000000 0.000000 16.000000 
v -3.000000 11.000000 10.000000 
v 7.000000 0.000000 17.000000 
v 14.000000 1.000000 -16.000000 
v -3.000000 11.000000 10.000000 
v -5.000000 3.000000 25.000000 
v 7.000000 0.000000 17.000000 
v -3.000000 11.000000 10.000000 
v -13.000000 -11.000000 16.000000 
v -5.000000 -11.000000 25.000000 
v -5.000000 3.000000 25.000000 
v -13.000000 0.000000 16.000000 
v -13.000000 -11.000000 16.000000 
v -5.000000 3.000000 25.000000 
v -14.000000 -9.000000 -23.000000 
v -13.000000 -11.000000 16.000000 
v -13.000000 0.000000 16.000000 
v -14.000000 0.000000 -21.000000 
v -14.000000 -9.000000 -23.000000 
v -13.000000 0.000000 16.000000 
v 7.000000 -11.000000 17.000000 
v 14.000000 -11.000000 -20.000000 
v 14.000000 1.000000 -16.000000 
v 7.000000 0.000000 17.000000 
v 7.000000 -11.000000 17.000000 
v 14.000000 1.000000 -16.000000 
v -5.000000 -11.000000 25.000000 
v 7.000000 -11.000000 17.000000 
v 7.000000 0.000000 17.000000 
v -5.000000 3.000000 25.000000 
v -5.000000 -11.000000 25.000000 
v 7.000000 0.000000 17.000000 
v -5.000000 -11.000000 25.000000 
v -13.000000 -11.000000 16.000000 
v -1.000000 -11.000000 1.000000 
v -13.000000 -11.000000 16.000000 
v -14.000000 -9.000000 -23.000000 
v -1.000000 -11.000000 1.000000 
v 14.000000 -11.000000 -20.000000 
v 7.000000 -11.000000 17.000000 
v -1.000000 -11.000000 1.000000 
v 7.000000 -11.000000 17.000000 
v -5.000000 -11.000000 25.000000 
v -1.000000 -11.000000 1.000000 
v 14.000000 1.000000 -16.000000 
v -14.000000 0.000000 -21.000000 
v -3.000000 11.000000 10.000000 
v 14.000000 -11.000000 -20.000000 
v -14.000000 -9.000000 -23.000000 
v -14.000000 0.000000 -21.000000 
v 14.000000 1.000000 -16.000000 
v 14.000000 -11.000000 -20.000000 
v -14.000000 0.000000 -21.000000 
v 14.000000 -11.000000 -20.000000 
v -1.000000 -11.000000 1.000000 
v -14.000000 -9.000000 -23.000000 
vn -0.914795 0.269775 0.300293 
vn -0.290039 0.330566 0.897949 
vn -0.073242 0.967773 0.240234 
vn -0.468018 0.550537 -0.690918 
vn -0.914795 0.269775 0.300293 
vn -0.073242 0.967773 0.240234 
vn 0.666992 0.313477 0.675781 
vn 0.828857 0.516846 -0.213379 
vn -0.073242 0.967773 0.240234 
vn -0.290039 0.330566 0.897949 
vn 0.666992 0.313477 0.675781 
vn -0.073242 0.967773 0.240234 
vn -0.681152 -0.586182 0.438232 
vn 0.032959 -0.611328 0.790527 
vn -0.290039 0.330566 0.897949 
vn -0.914795 0.269775 0.300293 
vn -0.681152 -0.586182 0.438232 
vn -0.290039 0.330566 0.897949 
vn -0.689209 -0.638672 -0.341553 
vn -0.681152 -0.586182 0.438232 
vn -0.914795 0.269775 0.300293 
vn -0.468018 0.550537 -0.690918 
vn -0.689209 -0.638672 -0.341553 
vn -0.914795 0.269775 0.300293 
vn 0.681641 -0.606934 0.408203 
vn 0.398926 -0.633057 -0.663086 
vn 0.828857 0.516846 -0.213379 
vn 0.666992 0.313477 0.675781 
vn 0.681641 -0.606934 0.408203 
vn 0.828857 0.516846 -0.213379 
vn 0.032959 -0.611328 0.790527 
vn 0.681641 -0.606934 0.408203 
vn 0.666992 0.313477 0.675781 
vn -0.290039 0.330566 0.897949 
vn 0.032959 -0.611328 0.790527 
vn 0.666992 0.313477 0.675781 
vn 0.032959 -0.611328 0.790527 
vn -0.681152 -0.586182 0.438232 
vn -0.028809 -0.999023 -0.031250 
vn -0.681152 -0.586182 0.438232 
vn -0.689209 -0.638672 -0.341553 
vn -0.028809 -0.999023 -0.031250 
vn 0.398926 -0.633057 -0.663086 
vn 0.681641 -0.606934 0.408203 
vn -0.028809 -0.999023 -0.031250 
vn 0.681641 -0.606934 0.408203 
vn 0.032959 -0.611328 0.790527 
vn -0.028809 -0.999023 -0.031250 
vn 0.828857 0.516846 -0.213379 
vn -0.468018 0.550537 -0.690918 
vn -0.073242 0.967773 0.240234 
vn 0.398926 -0.633057 -0.663086 
vn -0.689209 -0.638672 -0.341553 
vn -0.468018 0.550537 -0.690918 
vn 0.828857 0.516846 -0.213379 
vn 0.398926 -0.633057 -0.663086 
vn -0.468018 0.550537 -0.690918 
vn 0.398926 -0.633057 -0.663086 
vn -0.028809 -0.999023 -0.031250 
vn -0.689209 -0.638672 -0.341553 
vt 0.936508 0.064516 
vt 0.825397 0.032258 
vt 0.809524 0.129032 
vt 0.984127 0.387097 
vt 0.936508 0.064516 
vt 0.809524 0.129032 
vt 0.650794 0.096774 
vt 0.587302 0.387097 
vt 0.809524 0.129032 
vt 0.825397 0.032258 
vt 0.650794 0.096774 
vt 0.809524 0.129032 
vt 0.936508 0.064516 
vt 0.825397 0.032258 
vt 0.825397 0.032258 
vt 0.936508 0.064516 
vt 0.936508 0.064516 
vt 0.825397 0.032258 
vt 0.984127 0.419355 
vt 0.936508 0.064516 
vt 0.936508 0.064516 
vt 0.984127 0.387097 
vt 0.984127 0.419355 
vt 0.936508 0.064516 
vt 0.650794 0.096774 
vt 0.587302 0.419355 
vt 0.587302 0.387097 
vt 0.650794 0.096774 
vt 0.650794 0.096774 
vt 0.587302 0.387097 
vt 0.825397 0.032258 
vt 0.650794 0.096774 
vt 0.650794 0.096774 
vt 0.825397 0.032258 
vt 0.825397 0.032258 
vt 0.650794 0.096774 
vt 0.825397 0.032258 
vt 0.936508 0.064516 
vt 0.793651 0.225806 
vt 0.936508 0.064516 
vt 0.984127 0.419355 
vt 0.793651 0.225806 
vt 0.587302 0.419355 
vt 0.650794 0.096774 
vt 0.793651 0.225806 
vt 0.650794 0.096774 
vt 0.825397 0.032258 
vt 0.793651 0.225806 
vt 0.587302 0.387097 
vt 0.984127 0.387097 
vt 0.809524 0.129032 
vt 0.587302 0.419355 
vt 0.984127 0.419355 
vt 0.984127 0.387097 
vt 0.587302 0.387097 
vt 0.587302 0.419355 
vt 0.984127 0.387097 
vt 0.587302 0.419355 
vt 0.793651 0.225806 
vt 0.984127 0.419355 
f 1/1/1 2/2/2 3/3/3
f 4/4/4 5/5/5 6/6/6
f 7/7/7 8/8/8 9/9/9
f 10/10/10 11/11/11 12/12/12
f 13/13/13 14/14/14 15/15/15
f 16/16/16 17/17/17 18/18/18
f 19/19/19 20/20/20 21/21/21
f 22/22/22 23/23/23 24/24/24
f 25/25/25 26/26/26 27/27/27
f 28/28/28 29/29/29 30/30/30
f 31/31/31 32/32/32 33/33/33
f 34/34/34 35/35/35 36/36/36
f 37/37/37 38/38/38 39/39/39
f 40/40/40 41/41/41 42/42/42
f 43/43/43 44/44/44 45/45/45
f 46/46/46 47/47/47 48/48/48
f 49/49/49 50/50/50 51/51/51
f 52/52/52 53/53/53 54/54/54
f 55/55/55 56/56/56 57/57/57
f 58/58/58 59/59/59 60/60/60
