v -1.000000 -11.000000 0.000000 
v -2.000000 -7.000000 5.000000 
v -5.000000 -7.000000 0.000000 
v -1.000000 -11.000000 0.000000 
v 0.000000 -6.000000 0.000000 
v -2.000000 -7.000000 5.000000 
v -1.000000 -11.000000 0.000000 
v -2.000000 -7.000000 -5.000000 
v 0.000000 -6.000000 0.000000 
v -1.000000 -11.000000 0.000000 
v -5.000000 -7.000000 0.000000 
v -2.000000 -7.000000 -5.000000 
v -5.000000 -7.000000 0.000000 
v -5.000000 -2.000000 4.000000 
v -6.000000 -6.000000 0.000000 
v -5.000000 -7.000000 0.000000 
v -2.000000 -7.000000 5.000000 
v -5.000000 -2.000000 4.000000 
v -2.000000 -7.000000 5.000000 
v -4.000000 1.000000 0.000000 
v -5.000000 -2.000000 4.000000 
v -2.000000 -7.000000 5.000000 
v 0.000000 -6.000000 0.000000 
v -4.000000 1.000000 0.000000 
v 0.000000 -6.000000 0.000000 
v -5.000000 -1.000000 -4.000000 
v -4.000000 1.000000 0.000000 
v 0.000000 -6.000000 0.000000 
v -2.000000 -7.000000 -5.000000 
v -5.000000 -1.000000 -4.000000 
v -2.000000 -7.000000 -5.000000 
v -6.000000 -6.000000 0.000000 
v -5.000000 -1.000000 -4.000000 
v -2.000000 -7.000000 -5.000000 
v -5.000000 -7.000000 0.000000 
v -6.000000 -6.000000 0.000000 
v -6.000000 -6.000000 0.000000 
v -9.000000 -1.000000 5.000000 
v -8.000000 -6.000000 0.000000 
v -6.000000 -6.000000 0.000000 
v -5.000000 -2.000000 4.000000 
v -9.000000 -1.000000 5.000000 
v -5.000000 -2.000000 4.000000 
v -9.000000 4.000000 0.000000 
v -9.000000 -1.000000 5.000000 
v -5.000000 -2.000000 4.000000 
v -4.000000 1.000000 0.000000 
v -9.000000 4.000000 0.000000 
v -4.000000 1.000000 0.000000 
v -9.000000 0.000000 -5.000000 
v -9.000000 4.000000 0.000000 
v -4.000000 1.000000 0.000000 
v -5.000000 -1.000000 -4.000000 
v -9.000000 0.000000 -5.000000 
v -5.000000 -1.000000 -4.000000 
v -8.000000 -6.000000 0.000000 
v -9.000000 0.000000 -5.000000 
v -5.000000 -1.000000 -4.000000 
v -6.000000 -6.000000 0.000000 
v -8.000000 -6.000000 0.000000 
v -8.000000 -6.000000 0.000000 
v -34.000000 -4.000000 9.000000 
v -34.000000 -11.000000 1.000000 
v -8.000000 -6.000000 0.000000 
v -9.000000 -1.000000 5.000000 
v -34.000000 -4.000000 9.000000 
v -9.000000 -1.000000 5.000000 
v -35.000000 3.000000 1.000000 
v -34.000000 -4.000000 9.000000 
v -9.000000 -1.000000 5.000000 
v -9.000000 4.000000 0.000000 
v -35.000000 3.000000 1.000000 
v -9.000000 4.000000 0.000000 
v -35.000000 -3.000000 -7.000000 
v -35.000000 3.000000 1.000000 
v -9.000000 4.000000 0.000000 
v -9.000000 0.000000 -5.000000 
v -35.000000 -3.000000 -7.000000 
v -9.000000 0.000000 -5.000000 
v -34.000000 -11.000000 1.000000 
v -35.000000 -3.000000 -7.000000 
v -9.000000 0.000000 -5.000000 
v -8.000000 -6.000000 0.000000 
v -34.000000 -11.000000 1.000000 
v -37.000000 -4.000000 1.000000 
v -34.000000 -11.000000 1.000000 
v -34.000000 -4.000000 9.000000 
v -37.000000 -4.000000 1.000000 
v -34.000000 -4.000000 9.000000 
v -35.000000 3.000000 1.000000 
v -37.000000 -4.000000 1.000000 
v -35.000000 3.000000 1.000000 
v -35.000000 -3.000000 -7.000000 
v -37.000000 -4.000000 1.000000 
v -35.000000 -3.000000 -7.000000 
v -34.000000 -11.000000 1.000000 
vn 0.248535 -0.968018 -0.031982 
vn 0.203857 -0.720947 0.662109 
vn -0.449951 -0.892822 -0.006836 
vn 0.248535 -0.968018 -0.031982 
vn 0.873047 -0.485840 -0.040771 
vn 0.203857 -0.720947 0.662109 
vn 0.248535 -0.968018 -0.031982 
vn 0.157959 -0.688477 -0.707520 
vn 0.873047 -0.485840 -0.040771 
vn 0.248535 -0.968018 -0.031982 
vn -0.449951 -0.892822 -0.006836 
vn 0.157959 -0.688477 -0.707520 
vn -0.623291 -0.704834 0.337891 
vn -0.014404 0.020752 0.999512 
vn -0.367432 -0.929443 0.027344 
vn -0.623291 -0.704834 0.337891 
vn 0.268555 0.220947 0.937500 
vn -0.014404 0.020752 0.999512 
vn 0.268555 0.220947 0.937500 
vn 0.516113 0.856445 -0.002441 
vn -0.014404 0.020752 0.999512 
vn 0.268555 0.220947 0.937500 
vn 0.713623 0.635498 -0.294189 
vn 0.516113 0.856445 -0.002441 
vn 0.713623 0.635498 -0.294189 
vn 0.140869 -0.020752 -0.989746 
vn 0.516113 0.856445 -0.002441 
vn 0.713623 0.635498 -0.294189 
vn -0.264160 -0.257324 -0.929199 
vn 0.140869 -0.020752 -0.989746 
vn -0.264160 -0.257324 -0.929199 
vn -0.367432 -0.929443 0.027344 
vn 0.140869 -0.020752 -0.989746 
vn -0.264160 -0.257324 -0.929199 
vn -0.623291 -0.704834 0.337891 
vn -0.367432 -0.929443 0.027344 
vn -0.367432 -0.929443 0.027344 
vn 0.081543 -0.020996 0.996338 
vn 0.077148 -0.996582 -0.028809 
vn -0.367432 -0.929443 0.027344 
vn -0.014404 0.020752 0.999512 
vn 0.081543 -0.020996 0.996338 
vn -0.014404 0.020752 0.999512 
vn 0.097656 0.994873 0.022217 
vn 0.081543 -0.020996 0.996338 
vn -0.014404 0.020752 0.999512 
vn 0.516113 0.856445 -0.002441 
vn 0.097656 0.994873 0.022217 
vn 0.516113 0.856445 -0.002441 
vn 0.093262 0.024658 -0.995117 
vn 0.097656 0.994873 0.022217 
vn 0.516113 0.856445 -0.002441 
vn 0.140869 -0.020752 -0.989746 
vn 0.093262 0.024658 -0.995117 
vn 0.140869 -0.020752 -0.989746 
vn 0.077148 -0.996582 -0.028809 
vn 0.093262 0.024658 -0.995117 
vn 0.140869 -0.020752 -0.989746 
vn -0.367432 -0.929443 0.027344 
vn 0.077148 -0.996582 -0.028809 
vn 0.077148 -0.996582 -0.028809 
vn 0.128174 -0.336182 0.932861 
vn 0.144775 -0.928955 -0.340088 
vn 0.077148 -0.996582 -0.028809 
vn 0.081543 -0.020996 0.996338 
vn 0.128174 -0.336182 0.932861 
vn 0.081543 -0.020996 0.996338 
vn -0.025146 0.941162 0.336426 
vn 0.128174 -0.336182 0.932861 
vn 0.081543 -0.020996 0.996338 
vn 0.097656 0.994873 0.022217 
vn -0.025146 0.941162 0.336426 
vn 0.097656 0.994873 0.022217 
vn 0.000244 0.349365 -0.936768 
vn -0.025146 0.941162 0.336426 
vn 0.097656 0.994873 0.022217 
vn 0.093262 0.024658 -0.995117 
vn 0.000244 0.349365 -0.936768 
vn 0.093262 0.024658 -0.995117 
vn 0.144775 -0.928955 -0.340088 
vn 0.000244 0.349365 -0.936768 
vn 0.093262 0.024658 -0.995117 
vn 0.077148 -0.996582 -0.028809 
vn 0.144775 -0.928955 -0.340088 
vn -0.993896 -0.103516 0.030762 
vn -0.788086 -0.614990 0.010986 
vn -0.836426 -0.102539 0.537842 
vn -0.993896 -0.103516 0.030762 
vn -0.836426 -0.102539 0.537842 
vn -0.896973 0.439697 0.041016 
vn -0.993896 -0.103516 0.030762 
vn -0.896973 0.439697 0.041016 
vn -0.871094 -0.075439 -0.485107 
vn -0.993896 -0.103516 0.030762 
vn -0.871094 -0.075439 -0.485107 
vn -0.788086 -0.614990 0.010986 
vt 0.873016 0.460317 
vt 0.968254 0.666667 
vt 0.873016 0.666667 
vt 0.873016 0.460317 
vt 0.968254 0.666667 
vt 0.873016 0.666667 
vt 0.873016 0.460317 
vt 0.968254 0.666667 
vt 0.873016 0.666667 
vt 0.873016 0.460317 
vt 0.968254 0.666667 
vt 0.873016 0.666667 
vt 0.873016 0.460317 
vt 0.968254 0.666667 
vt 0.873016 0.666667 
vt 0.873016 0.460317 
vt 0.968254 0.460317 
vt 0.968254 0.666667 
vt 0.873016 0.460317 
vt 0.968254 0.666667 
vt 0.873016 0.666667 
vt 0.873016 0.460317 
vt 0.968254 0.460317 
vt 0.968254 0.666667 
vt 0.873016 0.460317 
vt 0.968254 0.666667 
vt 0.873016 0.666667 
vt 0.873016 0.460317 
vt 0.968254 0.460317 
vt 0.968254 0.666667 
vt 0.873016 0.460317 
vt 0.968254 0.666667 
vt 0.873016 0.666667 
vt 0.873016 0.460317 
vt 0.968254 0.460317 
vt 0.968254 0.666667 
vt 0.873016 0.460317 
vt 0.968254 0.666667 
vt 0.873016 0.666667 
vt 0.873016 0.460317 
vt 0.968254 0.460317 
vt 0.968254 0.666667 
vt 0.873016 0.460317 
vt 0.968254 0.666667 
vt 0.873016 0.666667 
vt 0.873016 0.460317 
vt 0.968254 0.460317 
vt 0.968254 0.666667 
vt 0.873016 0.460317 
vt 0.968254 0.666667 
vt 0.873016 0.666667 
vt 0.873016 0.460317 
vt 0.968254 0.460317 
vt 0.968254 0.666667 
vt 0.873016 0.460317 
vt 0.968254 0.666667 
vt 0.873016 0.666667 
vt 0.873016 0.460317 
vt 0.968254 0.460317 
vt 0.968254 0.666667 
vt 0.873016 0.460317 
vt 0.968254 0.666667 
vt 0.873016 0.666667 
vt 0.873016 0.460317 
vt 0.968254 0.460317 
vt 0.968254 0.666667 
vt 0.873016 0.460317 
vt 0.968254 0.666667 
vt 0.873016 0.666667 
vt 0.873016 0.460317 
vt 0.968254 0.460317 
vt 0.968254 0.666667 
vt 0.873016 0.460317 
vt 0.968254 0.666667 
vt 0.873016 0.666667 
vt 0.873016 0.460317 
vt 0.968254 0.460317 
vt 0.968254 0.666667 
vt 0.873016 0.460317 
vt 0.968254 0.666667 
vt 0.873016 0.666667 
vt 0.873016 0.460317 
vt 0.968254 0.460317 
vt 0.968254 0.666667 
vt 0.968254 0.666667 
vt 0.873016 0.460317 
vt 0.968254 0.460317 
vt 0.968254 0.666667 
vt 0.873016 0.460317 
vt 0.968254 0.460317 
vt 0.968254 0.666667 
vt 0.873016 0.460317 
vt 0.968254 0.460317 
vt 0.968254 0.666667 
vt 0.873016 0.460317 
vt 0.968254 0.460317 
f 1/1/1 2/2/2 3/3/3
f 4/4/4 5/5/5 6/6/6
f 7/7/7 8/8/8 9/9/9
f 10/10/10 11/11/11 12/12/12
f 13/13/13 14/14/14 15/15/15
f 16/16/16 17/17/17 18/18/18
f 19/19/19 20/20/20 21/21/21
f 22/22/22 23/23/23 24/24/24
f 25/25/25 26/26/26 27/27/27
f 28/28/28 29/29/29 30/30/30
f 31/31/31 32/32/32 33/33/33
f 34/34/34 35/35/35 36/36/36
f 37/37/37 38/38/38 39/39/39
f 40/40/40 41/41/41 42/42/42
f 43/43/43 44/44/44 45/45/45
f 46/46/46 47/47/47 48/48/48
f 49/49/49 50/50/50 51/51/51
f 52/52/52 53/53/53 54/54/54
f 55/55/55 56/56/56 57/57/57
f 58/58/58 59/59/59 60/60/60
f 61/61/61 62/62/62 63/63/63
f 64/64/64 65/65/65 66/66/66
f 67/67/67 68/68/68 69/69/69
f 70/70/70 71/71/71 72/72/72
f 73/73/73 74/74/74 75/75/75
f 76/76/76 77/77/77 78/78/78
f 79/79/79 80/80/80 81/81/81
f 82/82/82 83/83/83 84/84/84
f 85/85/85 86/86/86 87/87/87
f 88/88/88 89/89/89 90/90/90
f 91/91/91 92/92/92 93/93/93
f 94/94/94 95/95/95 96/96/96
