v 0.000000 24.000000 0.000000 
v -4.000000 21.000000 -10.000000 
v -14.000000 25.000000 -2.000000 
v -3.000000 16.000000 8.000000 
v 0.000000 24.000000 0.000000 
v -14.000000 25.000000 -2.000000 
v -14.000000 10.000000 4.000000 
v -3.000000 16.000000 8.000000 
v -14.000000 25.000000 -2.000000 
v -18.000000 7.000000 -7.000000 
v -14.000000 10.000000 4.000000 
v -14.000000 25.000000 -2.000000 
v -14.000000 15.000000 -14.000000 
v -18.000000 7.000000 -7.000000 
v -14.000000 25.000000 -2.000000 
v -4.000000 21.000000 -10.000000 
v -14.000000 15.000000 -14.000000 
v -14.000000 25.000000 -2.000000 
v 18.000000 -6.000000 4.000000 
v 14.000000 -9.000000 -10.000000 
v -4.000000 21.000000 -10.000000 
v 0.000000 24.000000 0.000000 
v 18.000000 -6.000000 4.000000 
v -4.000000 21.000000 -10.000000 
v 10.000000 -11.000000 14.000000 
v 18.000000 -6.000000 4.000000 
v 0.000000 24.000000 0.000000 
v -3.000000 16.000000 8.000000 
v 10.000000 -11.000000 14.000000 
v 0.000000 24.000000 0.000000 
v -3.000000 -19.000000 11.000000 
v 10.000000 -11.000000 14.000000 
v -3.000000 16.000000 8.000000 
v -14.000000 10.000000 4.000000 
v -3.000000 -19.000000 11.000000 
v -3.000000 16.000000 8.000000 
v -7.000000 -22.000000 -4.000000 
v -3.000000 -19.000000 11.000000 
v -14.000000 10.000000 4.000000 
v -18.000000 7.000000 -7.000000 
v -7.000000 -22.000000 -4.000000 
v -14.000000 10.000000 4.000000 
v 0.000000 -17.000000 -14.000000 
v -7.000000 -22.000000 -4.000000 
v -18.000000 7.000000 -7.000000 
v -14.000000 15.000000 -14.000000 
v 0.000000 -17.000000 -14.000000 
v -18.000000 7.000000 -7.000000 
v 14.000000 -9.000000 -10.000000 
v 0.000000 -17.000000 -14.000000 
v -14.000000 15.000000 -14.000000 
v -4.000000 21.000000 -10.000000 
v 14.000000 -9.000000 -10.000000 
v -14.000000 15.000000 -14.000000 
v 14.000000 -9.000000 -10.000000 
v 18.000000 -6.000000 4.000000 
v 13.000000 -25.000000 0.000000 
v 18.000000 -6.000000 4.000000 
v 10.000000 -11.000000 14.000000 
v 13.000000 -25.000000 0.000000 
v 10.000000 -11.000000 14.000000 
v -3.000000 -19.000000 11.000000 
v 13.000000 -25.000000 0.000000 
v -3.000000 -19.000000 11.000000 
v -7.000000 -22.000000 -4.000000 
v 13.000000 -25.000000 0.000000 
v -7.000000 -22.000000 -4.000000 
v 0.000000 -17.000000 -14.000000 
v 13.000000 -25.000000 0.000000 
v 0.000000 -17.000000 -14.000000 
v 14.000000 -9.000000 -10.000000 
v 13.000000 -25.000000 0.000000 
vn 0.590820 0.701172 0.398682 
vn 0.464844 0.558350 -0.687012 
vn -0.688965 0.710205 0.143066 
vn -0.166992 0.290771 0.941895 
vn 0.590820 0.701172 0.398682 
vn -0.688965 0.710205 0.143066 
vn -0.796631 -0.000977 0.604248 
vn -0.166992 0.290771 0.941895 
vn -0.688965 0.710205 0.143066 
vn -0.974121 -0.095703 -0.203857 
vn -0.796631 -0.000977 0.604248 
vn -0.688965 0.710205 0.143066 
vn -0.354980 0.183838 -0.916504 
vn -0.974121 -0.095703 -0.203857 
vn -0.688965 0.710205 0.143066 
vn 0.464844 0.558350 -0.687012 
vn -0.354980 0.183838 -0.916504 
vn -0.688965 0.710205 0.143066 
vn 0.988770 0.139648 0.050049 
vn 0.650391 0.001221 -0.759277 
vn 0.464844 0.558350 -0.687012 
vn 0.590820 0.701172 0.398682 
vn 0.988770 0.139648 0.050049 
vn 0.464844 0.558350 -0.687012 
vn 0.482666 -0.033936 0.875000 
vn 0.988770 0.139648 0.050049 
vn 0.590820 0.701172 0.398682 
vn -0.166992 0.290771 0.941895 
vn 0.482666 -0.033936 0.875000 
vn 0.590820 0.701172 0.398682 
vn -0.395264 -0.403564 0.824951 
vn 0.482666 -0.033936 0.875000 
vn -0.166992 0.290771 0.941895 
vn -0.796631 -0.000977 0.604248 
vn -0.395264 -0.403564 0.824951 
vn -0.166992 0.290771 0.941895 
vn -0.762939 -0.642090 -0.074219 
vn -0.395264 -0.403564 0.824951 
vn -0.796631 -0.000977 0.604248 
vn -0.974121 -0.095703 -0.203857 
vn -0.762939 -0.642090 -0.074219 
vn -0.796631 -0.000977 0.604248 
vn -0.176514 -0.386963 -0.904785 
vn -0.762939 -0.642090 -0.074219 
vn -0.974121 -0.095703 -0.203857 
vn -0.354980 0.183838 -0.916504 
vn -0.176514 -0.386963 -0.904785 
vn -0.974121 -0.095703 -0.203857 
vn 0.650391 0.001221 -0.759277 
vn -0.176514 -0.386963 -0.904785 
vn -0.354980 0.183838 -0.916504 
vn 0.464844 0.558350 -0.687012 
vn 0.650391 0.001221 -0.759277 
vn -0.354980 0.183838 -0.916504 
vn 0.650391 0.001221 -0.759277 
vn 0.988770 0.139648 0.050049 
vn 0.589600 -0.807373 -0.008789 
vn 0.988770 0.139648 0.050049 
vn 0.482666 -0.033936 0.875000 
vn 0.589600 -0.807373 -0.008789 
vn 0.482666 -0.033936 0.875000 
vn -0.395264 -0.403564 0.824951 
vn 0.589600 -0.807373 -0.008789 
vn -0.395264 -0.403564 0.824951 
vn -0.762939 -0.642090 -0.074219 
vn 0.589600 -0.807373 -0.008789 
vn -0.762939 -0.642090 -0.074219 
vn -0.176514 -0.386963 -0.904785 
vn 0.589600 -0.807373 -0.008789 
vn -0.176514 -0.386963 -0.904785 
vn 0.650391 0.001221 -0.759277 
vn 0.589600 -0.807373 -0.008789 
vt 0.299213 0.905512 
vt 0.299213 0.992126 
vt 0.251969 0.897638 
vt 0.299213 0.826772 
vt 0.299213 0.905512 
vt 0.251969 0.897638 
vt 0.299213 0.763780 
vt 0.299213 0.826772 
vt 0.251969 0.897638 
vt 0.299213 0.850394 
vt 0.299213 0.763780 
vt 0.251969 0.897638 
vt 0.299213 0.937008 
vt 0.299213 0.850394 
vt 0.251969 0.897638 
vt 0.299213 0.992126 
vt 0.299213 0.937008 
vt 0.251969 0.897638 
vt 0.456693 0.905512 
vt 0.456693 0.992126 
vt 0.299213 0.992126 
vt 0.299213 0.905512 
vt 0.456693 0.905512 
vt 0.299213 0.992126 
vt 0.456693 0.826772 
vt 0.456693 0.905512 
vt 0.299213 0.905512 
vt 0.299213 0.826772 
vt 0.456693 0.826772 
vt 0.299213 0.905512 
vt 0.456693 0.763780 
vt 0.456693 0.826772 
vt 0.299213 0.826772 
vt 0.299213 0.763780 
vt 0.456693 0.763780 
vt 0.299213 0.826772 
vt 0.456693 0.850394 
vt 0.456693 0.763780 
vt 0.299213 0.763780 
vt 0.299213 0.850394 
vt 0.456693 0.850394 
vt 0.299213 0.763780 
vt 0.456693 0.937008 
vt 0.456693 0.850394 
vt 0.299213 0.850394 
vt 0.299213 0.937008 
vt 0.456693 0.937008 
vt 0.299213 0.850394 
vt 0.456693 0.992126 
vt 0.456693 0.937008 
vt 0.299213 0.937008 
vt 0.299213 0.992126 
vt 0.456693 0.992126 
vt 0.299213 0.937008 
vt 0.456693 0.992126 
vt 0.456693 0.905512 
vt 0.496063 0.897638 
vt 0.456693 0.905512 
vt 0.456693 0.826772 
vt 0.496063 0.897638 
vt 0.456693 0.826772 
vt 0.456693 0.763780 
vt 0.496063 0.897638 
vt 0.456693 0.763780 
vt 0.456693 0.850394 
vt 0.496063 0.897638 
vt 0.456693 0.850394 
vt 0.456693 0.937008 
vt 0.496063 0.897638 
vt 0.456693 0.937008 
vt 0.456693 0.992126 
vt 0.496063 0.897638 
f 1/1/1 2/2/2 3/3/3
f 4/4/4 5/5/5 6/6/6
f 7/7/7 8/8/8 9/9/9
f 10/10/10 11/11/11 12/12/12
f 13/13/13 14/14/14 15/15/15
f 16/16/16 17/17/17 18/18/18
f 19/19/19 20/20/20 21/21/21
f 22/22/22 23/23/23 24/24/24
f 25/25/25 26/26/26 27/27/27
f 28/28/28 29/29/29 30/30/30
f 31/31/31 32/32/32 33/33/33
f 34/34/34 35/35/35 36/36/36
f 37/37/37 38/38/38 39/39/39
f 40/40/40 41/41/41 42/42/42
f 43/43/43 44/44/44 45/45/45
f 46/46/46 47/47/47 48/48/48
f 49/49/49 50/50/50 51/51/51
f 52/52/52 53/53/53 54/54/54
f 55/55/55 56/56/56 57/57/57
f 58/58/58 59/59/59 60/60/60
f 61/61/61 62/62/62 63/63/63
f 64/64/64 65/65/65 66/66/66
f 67/67/67 68/68/68 69/69/69
f 70/70/70 71/71/71 72/72/72
