v -8.000000 76.000000 -17.000000 
v -8.000000 91.000000 10.000000 
v -8.000000 109.000000 -10.000000 
v -8.000000 91.000000 10.000000 
v -8.000000 120.000000 16.000000 
v -8.000000 109.000000 -10.000000 
v -8.000000 120.000000 16.000000 
v -8.000000 133.000000 -7.000000 
v -8.000000 109.000000 -10.000000 
v -8.000000 133.000000 -7.000000 
v -8.000000 121.000000 -29.000000 
v -8.000000 109.000000 -10.000000 
v -8.000000 121.000000 -29.000000 
v -8.000000 96.000000 -30.000000 
v -8.000000 109.000000 -10.000000 
v -8.000000 96.000000 -30.000000 
v -8.000000 76.000000 -17.000000 
v -8.000000 109.000000 -10.000000 
v 0.000000 74.000000 -8.000000 
v 0.000000 86.000000 20.000000 
v -8.000000 76.000000 -17.000000 
v 0.000000 86.000000 20.000000 
v -8.000000 91.000000 10.000000 
v -8.000000 76.000000 -17.000000 
v 0.000000 86.000000 20.000000 
v 0.000000 126.000000 26.000000 
v -8.000000 91.000000 10.000000 
v 0.000000 126.000000 26.000000 
v -8.000000 120.000000 16.000000 
v -8.000000 91.000000 10.000000 
v 0.000000 126.000000 26.000000 
v 0.000000 144.000000 -7.000000 
v -8.000000 120.000000 16.000000 
v 0.000000 144.000000 -7.000000 
v -8.000000 133.000000 -7.000000 
v -8.000000 120.000000 16.000000 
v 0.000000 144.000000 -7.000000 
v 0.000000 126.000000 -39.000000 
v -8.000000 133.000000 -7.000000 
v 0.000000 126.000000 -39.000000 
v -8.000000 121.000000 -29.000000 
v -8.000000 133.000000 -7.000000 
v 0.000000 126.000000 -39.000000 
v 0.000000 90.000000 -40.000000 
v -8.000000 121.000000 -29.000000 
v 0.000000 90.000000 -40.000000 
v -8.000000 96.000000 -30.000000 
v -8.000000 121.000000 -29.000000 
v 0.000000 67.000000 -45.000000 
v 0.000000 53.000000 -21.000000 
v -8.000000 72.000000 -39.000000 
v 0.000000 53.000000 -21.000000 
v -8.000000 62.000000 -22.000000 
v -8.000000 72.000000 -39.000000 
v 8.000000 76.000000 -17.000000 
v 8.000000 91.000000 10.000000 
v 0.000000 74.000000 -8.000000 
v 8.000000 91.000000 10.000000 
v 0.000000 86.000000 20.000000 
v 0.000000 74.000000 -8.000000 
v 8.000000 91.000000 10.000000 
v 8.000000 120.000000 16.000000 
v 0.000000 86.000000 20.000000 
v 8.000000 120.000000 16.000000 
v 0.000000 126.000000 26.000000 
v 0.000000 86.000000 20.000000 
v 8.000000 120.000000 16.000000 
v 8.000000 133.000000 -7.000000 
v 0.000000 126.000000 26.000000 
v 8.000000 133.000000 -7.000000 
v 0.000000 144.000000 -7.000000 
v 0.000000 126.000000 26.000000 
v 8.000000 133.000000 -7.000000 
v 8.000000 121.000000 -29.000000 
v 0.000000 144.000000 -7.000000 
v 8.000000 121.000000 -29.000000 
v 0.000000 126.000000 -39.000000 
v 0.000000 144.000000 -7.000000 
v 8.000000 121.000000 -29.000000 
v 8.000000 96.000000 -30.000000 
v 0.000000 126.000000 -39.000000 
v 8.000000 96.000000 -30.000000 
v 0.000000 90.000000 -40.000000 
v 0.000000 126.000000 -39.000000 
v 8.000000 72.000000 -39.000000 
v 8.000000 62.000000 -22.000000 
v 0.000000 67.000000 -45.000000 
v 8.000000 62.000000 -22.000000 
v 0.000000 53.000000 -21.000000 
v 0.000000 67.000000 -45.000000 
v 8.000000 91.000000 10.000000 
v 8.000000 76.000000 -17.000000 
v 8.000000 109.000000 -10.000000 
v 8.000000 120.000000 16.000000 
v 8.000000 91.000000 10.000000 
v 8.000000 109.000000 -10.000000 
v 8.000000 133.000000 -7.000000 
v 8.000000 120.000000 16.000000 
v 8.000000 109.000000 -10.000000 
v 8.000000 121.000000 -29.000000 
v 8.000000 133.000000 -7.000000 
v 8.000000 109.000000 -10.000000 
v 8.000000 96.000000 -30.000000 
v 8.000000 121.000000 -29.000000 
v 8.000000 109.000000 -10.000000 
v 8.000000 76.000000 -17.000000 
v 8.000000 96.000000 -30.000000 
v 8.000000 109.000000 -10.000000 
v -8.000000 62.000000 -22.000000 
v -8.000000 76.000000 -17.000000 
v -8.000000 96.000000 -30.000000 
v -8.000000 96.000000 -30.000000 
v -8.000000 72.000000 -39.000000 
v -8.000000 62.000000 -22.000000 
v 0.000000 -122.000000 -4.000000 
v 0.000000 -121.000000 4.000000 
v -4.000000 -121.000000 2.000000 
v -4.000000 -121.000000 2.000000 
v -4.000000 -121.000000 -2.000000 
v 0.000000 -122.000000 -4.000000 
v -8.000000 72.000000 -39.000000 
v -8.000000 96.000000 -30.000000 
v 0.000000 90.000000 -40.000000 
v 0.000000 90.000000 -40.000000 
v 0.000000 67.000000 -45.000000 
v -8.000000 72.000000 -39.000000 
v 4.000000 -121.000000 -2.000000 
v 4.000000 -121.000000 2.000000 
v 0.000000 -121.000000 4.000000 
v 0.000000 -121.000000 4.000000 
v 0.000000 -122.000000 -4.000000 
v 4.000000 -121.000000 -2.000000 
v 0.000000 67.000000 -45.000000 
v 0.000000 90.000000 -40.000000 
v 8.000000 96.000000 -30.000000 
v 8.000000 96.000000 -30.000000 
v 8.000000 72.000000 -39.000000 
v 0.000000 67.000000 -45.000000 
v 8.000000 72.000000 -39.000000 
v 8.000000 96.000000 -30.000000 
v 8.000000 76.000000 -17.000000 
v 8.000000 76.000000 -17.000000 
v 8.000000 62.000000 -22.000000 
v 8.000000 72.000000 -39.000000 
v 0.000000 53.000000 11.000000 
v 0.000000 74.000000 -8.000000 
v -8.000000 76.000000 -17.000000 
v -8.000000 76.000000 -17.000000 
v -7.000000 51.000000 6.000000 
v 0.000000 53.000000 11.000000 
v -6.000000 45.000000 -7.000000 
v -8.000000 62.000000 -22.000000 
v 0.000000 53.000000 -21.000000 
v 0.000000 53.000000 -21.000000 
v 0.000000 42.000000 -9.000000 
v -6.000000 45.000000 -7.000000 
v 7.000000 51.000000 6.000000 
v 8.000000 76.000000 -17.000000 
v 0.000000 74.000000 -8.000000 
v 0.000000 74.000000 -8.000000 
v 0.000000 53.000000 11.000000 
v 7.000000 51.000000 6.000000 
v 0.000000 42.000000 -9.000000 
v 0.000000 53.000000 -21.000000 
v 8.000000 62.000000 -22.000000 
v 8.000000 62.000000 -22.000000 
v 6.000000 45.000000 -7.000000 
v 0.000000 42.000000 -9.000000 
v -7.000000 51.000000 6.000000 
v -8.000000 76.000000 -17.000000 
v -8.000000 62.000000 -22.000000 
v -8.000000 62.000000 -22.000000 
v -6.000000 45.000000 -7.000000 
v -7.000000 51.000000 6.000000 
v 6.000000 45.000000 -7.000000 
v 8.000000 62.000000 -22.000000 
v 8.000000 76.000000 -17.000000 
v 8.000000 76.000000 -17.000000 
v 7.000000 51.000000 6.000000 
v 6.000000 45.000000 -7.000000 
v 0.000000 -121.000000 4.000000 
v 0.000000 53.000000 11.000000 
v -7.000000 51.000000 6.000000 
v -7.000000 51.000000 6.000000 
v -4.000000 -121.000000 2.000000 
v 0.000000 -121.000000 4.000000 
v -4.000000 -121.000000 -2.000000 
v -6.000000 45.000000 -7.000000 
v 0.000000 42.000000 -9.000000 
v 0.000000 42.000000 -9.000000 
v 0.000000 -122.000000 -4.000000 
v -4.000000 -121.000000 -2.000000 
v -4.000000 -121.000000 2.000000 
v -7.000000 51.000000 6.000000 
v -6.000000 45.000000 -7.000000 
v -6.000000 45.000000 -7.000000 
v -4.000000 -121.000000 -2.000000 
v -4.000000 -121.000000 2.000000 
v 4.000000 -121.000000 2.000000 
v 7.000000 51.000000 6.000000 
v 0.000000 53.000000 11.000000 
v 0.000000 53.000000 11.000000 
v 0.000000 -121.000000 4.000000 
v 4.000000 -121.000000 2.000000 
v 4.000000 -121.000000 -2.000000 
v 6.000000 45.000000 -7.000000 
v 7.000000 51.000000 6.000000 
v 7.000000 51.000000 6.000000 
v 4.000000 -121.000000 2.000000 
v 4.000000 -121.000000 -2.000000 
v 0.000000 -122.000000 -4.000000 
v 0.000000 42.000000 -9.000000 
v 6.000000 45.000000 -7.000000 
v 6.000000 45.000000 -7.000000 
v 4.000000 -121.000000 -2.000000 
v 0.000000 -122.000000 -4.000000 
vn -0.953369 -0.043945 0.298340 
vn -0.908936 -0.188965 0.370850 
vn -0.999756 -0.000244 0.000000 
vn -0.908936 -0.188965 0.370850 
vn -0.923828 0.233643 0.302734 
vn -0.999756 -0.000244 0.000000 
vn -0.923828 0.233643 0.302734 
vn -0.916504 0.393066 -0.072266 
vn -0.999756 -0.000244 0.000000 
vn -0.916504 0.393066 -0.072266 
vn -0.917725 0.143555 -0.369873 
vn -0.999756 -0.000244 0.000000 
vn -0.917725 0.143555 -0.369873 
vn -0.963867 0.050049 -0.260986 
vn -0.999756 -0.000244 0.000000 
vn -0.963867 0.050049 -0.260986 
vn -0.953369 -0.043945 0.298340 
vn -0.999756 -0.000244 0.000000 
vn 0.407959 -0.144531 0.901367 
vn 0.042480 -0.639404 0.767334 
vn -0.953369 -0.043945 0.298340 
vn 0.042480 -0.639404 0.767334 
vn -0.908936 -0.188965 0.370850 
vn -0.953369 -0.043945 0.298340 
vn 0.042480 -0.639404 0.767334 
vn -0.001709 0.434814 0.900391 
vn -0.908936 -0.188965 0.370850 
vn -0.001709 0.434814 0.900391 
vn -0.923828 0.233643 0.302734 
vn -0.908936 -0.188965 0.370850 
vn -0.001709 0.434814 0.900391 
vn -0.003174 0.999756 -0.007080 
vn -0.923828 0.233643 0.302734 
vn -0.003174 0.999756 -0.007080 
vn -0.916504 0.393066 -0.072266 
vn -0.923828 0.233643 0.302734 
vn -0.003174 0.999756 -0.007080 
vn -0.003906 0.524414 -0.851318 
vn -0.916504 0.393066 -0.072266 
vn -0.003906 0.524414 -0.851318 
vn -0.917725 0.143555 -0.369873 
vn -0.916504 0.393066 -0.072266 
vn -0.003906 0.524414 -0.851318 
vn -0.265381 0.145264 -0.952881 
vn -0.917725 0.143555 -0.369873 
vn -0.265381 0.145264 -0.952881 
vn -0.963867 0.050049 -0.260986 
vn -0.917725 0.143555 -0.369873 
vn 0.312744 -0.338623 -0.887207 
vn -0.240234 -0.776123 -0.582520 
vn -0.805176 -0.208740 -0.554688 
vn -0.240234 -0.776123 -0.582520 
vn -0.953613 -0.255859 -0.157715 
vn -0.805176 -0.208740 -0.554688 
vn 0.986328 -0.039062 0.158691 
vn 0.894775 -0.343506 0.284668 
vn 0.407959 -0.144531 0.901367 
vn 0.894775 -0.343506 0.284668 
vn 0.042480 -0.639404 0.767334 
vn 0.407959 -0.144531 0.901367 
vn 0.894775 -0.343506 0.284668 
vn 0.927246 0.081787 0.365234 
vn 0.042480 -0.639404 0.767334 
vn 0.927246 0.081787 0.365234 
vn -0.001709 0.434814 0.900391 
vn 0.042480 -0.639404 0.767334 
vn 0.927246 0.081787 0.365234 
vn 0.918701 0.388184 0.069824 
vn -0.001709 0.434814 0.900391 
vn 0.918701 0.388184 0.069824 
vn -0.003174 0.999756 -0.007080 
vn -0.001709 0.434814 0.900391 
vn 0.918701 0.388184 0.069824 
vn 0.921631 0.265137 -0.283203 
vn -0.003174 0.999756 -0.007080 
vn 0.921631 0.265137 -0.283203 
vn -0.003906 0.524414 -0.851318 
vn -0.003174 0.999756 -0.007080 
vn 0.921631 0.265137 -0.283203 
vn 0.884277 0.077148 -0.460205 
vn -0.003906 0.524414 -0.851318 
vn 0.884277 0.077148 -0.460205 
vn -0.265381 0.145264 -0.952881 
vn -0.003906 0.524414 -0.851318 
vn 0.923096 -0.123291 -0.363770 
vn 0.813965 -0.477051 -0.330811 
vn 0.312744 -0.338623 -0.887207 
vn 0.813965 -0.477051 -0.330811 
vn -0.240234 -0.776123 -0.582520 
vn 0.312744 -0.338623 -0.887207 
vn 0.894775 -0.343506 0.284668 
vn 0.986328 -0.039062 0.158691 
vn 0.999756 0.000244 0.000000 
vn 0.927246 0.081787 0.365234 
vn 0.894775 -0.343506 0.284668 
vn 0.999756 0.000244 0.000000 
vn 0.918701 0.388184 0.069824 
vn 0.927246 0.081787 0.365234 
vn 0.999756 0.000244 0.000000 
vn 0.921631 0.265137 -0.283203 
vn 0.918701 0.388184 0.069824 
vn 0.999756 0.000244 0.000000 
vn 0.884277 0.077148 -0.460205 
vn 0.921631 0.265137 -0.283203 
vn 0.999756 0.000244 0.000000 
vn 0.986328 -0.039062 0.158691 
vn 0.884277 0.077148 -0.460205 
vn 0.999756 0.000244 0.000000 
vn -0.953613 -0.255859 -0.157715 
vn -0.953369 -0.043945 0.298340 
vn -0.963867 0.050049 -0.260986 
vn -0.963867 0.050049 -0.260986 
vn -0.805176 -0.208740 -0.554688 
vn -0.953613 -0.255859 -0.157715 
vn 0.088379 -0.777588 -0.622314 
vn -0.119873 -0.724854 0.678223 
vn -0.739990 -0.602295 0.298340 
vn -0.739990 -0.602295 0.298340 
vn -0.681885 -0.383545 -0.622559 
vn 0.088379 -0.777588 -0.622314 
vn -0.805176 -0.208740 -0.554688 
vn -0.963867 0.050049 -0.260986 
vn -0.265381 0.145264 -0.952881 
vn -0.265381 0.145264 -0.952881 
vn 0.312744 -0.338623 -0.887207 
vn -0.805176 -0.208740 -0.554688 
vn 0.759277 -0.607178 -0.233154 
vn 0.696289 -0.366211 0.616943 
vn -0.119873 -0.724854 0.678223 
vn -0.119873 -0.724854 0.678223 
vn 0.088379 -0.777588 -0.622314 
vn 0.759277 -0.607178 -0.233154 
vn 0.312744 -0.338623 -0.887207 
vn -0.265381 0.145264 -0.952881 
vn 0.884277 0.077148 -0.460205 
vn 0.884277 0.077148 -0.460205 
vn 0.923096 -0.123291 -0.363770 
vn 0.312744 -0.338623 -0.887207 
vn 0.923096 -0.123291 -0.363770 
vn 0.884277 0.077148 -0.460205 
vn 0.986328 -0.039062 0.158691 
vn 0.986328 -0.039062 0.158691 
vn 0.813965 -0.477051 -0.330811 
vn 0.923096 -0.123291 -0.363770 
vn -0.015869 0.344971 0.938232 
vn 0.407959 -0.144531 0.901367 
vn -0.953369 -0.043945 0.298340 
vn -0.953369 -0.043945 0.298340 
vn -0.883057 0.062988 0.464600 
vn -0.015869 0.344971 0.938232 
vn -0.873779 -0.269775 -0.404053 
vn -0.953613 -0.255859 -0.157715 
vn -0.240234 -0.776123 -0.582520 
vn -0.240234 -0.776123 -0.582520 
vn 0.027588 -0.394287 -0.918457 
vn -0.873779 -0.269775 -0.404053 
vn 0.898438 0.197266 0.391846 
vn 0.986328 -0.039062 0.158691 
vn 0.407959 -0.144531 0.901367 
vn 0.407959 -0.144531 0.901367 
vn -0.015869 0.344971 0.938232 
vn 0.898438 0.197266 0.391846 
vn 0.027588 -0.394287 -0.918457 
vn -0.240234 -0.776123 -0.582520 
vn 0.813965 -0.477051 -0.330811 
vn 0.813965 -0.477051 -0.330811 
vn 0.872559 -0.157959 -0.461914 
vn 0.027588 -0.394287 -0.918457 
vn -0.883057 0.062988 0.464600 
vn -0.953369 -0.043945 0.298340 
vn -0.953613 -0.255859 -0.157715 
vn -0.953613 -0.255859 -0.157715 
vn -0.873779 -0.269775 -0.404053 
vn -0.883057 0.062988 0.464600 
vn 0.872559 -0.157959 -0.461914 
vn 0.813965 -0.477051 -0.330811 
vn 0.986328 -0.039062 0.158691 
vn 0.986328 -0.039062 0.158691 
vn 0.898438 0.197266 0.391846 
vn 0.872559 -0.157959 -0.461914 
vn -0.119873 -0.724854 0.678223 
vn -0.015869 0.344971 0.938232 
vn -0.883057 0.062988 0.464600 
vn -0.883057 0.062988 0.464600 
vn -0.739990 -0.602295 0.298340 
vn -0.119873 -0.724854 0.678223 
vn -0.681885 -0.383545 -0.622559 
vn -0.873779 -0.269775 -0.404053 
vn 0.027588 -0.394287 -0.918457 
vn 0.027588 -0.394287 -0.918457 
vn 0.088379 -0.777588 -0.622314 
vn -0.681885 -0.383545 -0.622559 
vn -0.739990 -0.602295 0.298340 
vn -0.883057 0.062988 0.464600 
vn -0.873779 -0.269775 -0.404053 
vn -0.873779 -0.269775 -0.404053 
vn -0.681885 -0.383545 -0.622559 
vn -0.739990 -0.602295 0.298340 
vn 0.696289 -0.366211 0.616943 
vn 0.898438 0.197266 0.391846 
vn -0.015869 0.344971 0.938232 
vn -0.015869 0.344971 0.938232 
vn -0.119873 -0.724854 0.678223 
vn 0.696289 -0.366211 0.616943 
vn 0.759277 -0.607178 -0.233154 
vn 0.872559 -0.157959 -0.461914 
vn 0.898438 0.197266 0.391846 
vn 0.898438 0.197266 0.391846 
vn 0.696289 -0.366211 0.616943 
vn 0.759277 -0.607178 -0.233154 
vn 0.088379 -0.777588 -0.622314 
vn 0.027588 -0.394287 -0.918457 
vn 0.872559 -0.157959 -0.461914 
vn 0.872559 -0.157959 -0.461914 
vn 0.759277 -0.607178 -0.233154 
vn 0.088379 -0.777588 -0.622314 
vt 0.380952 0.598425 
vt 0.777778 0.692913 
vt 0.492063 0.771654 
vt 0.777778 0.692913 
vt 0.809524 0.866142 
vt 0.492063 0.771654 
vt 0.809524 0.866142 
vt 0.476190 0.921260 
vt 0.492063 0.771654 
vt 0.476190 0.921260 
vt 0.158730 0.834646 
vt 0.492063 0.771654 
vt 0.158730 0.834646 
vt 0.142857 0.685039 
vt 0.492063 0.771654 
vt 0.142857 0.685039 
vt 0.380952 0.598425 
vt 0.492063 0.771654 
vt 0.539683 0.566929 
vt 0.920635 0.653543 
vt 0.380952 0.598425 
vt 0.920635 0.653543 
vt 0.777778 0.692913 
vt 0.380952 0.598425 
vt 0.920635 0.653543 
vt 0.952381 0.897638 
vt 0.777778 0.692913 
vt 0.952381 0.897638 
vt 0.809524 0.866142 
vt 0.777778 0.692913 
vt 0.952381 0.897638 
vt 0.492063 1.000000 
vt 0.809524 0.866142 
vt 0.492063 1.000000 
vt 0.476190 0.921260 
vt 0.809524 0.866142 
vt 0.492063 1.000000 
vt 0.047619 0.858268 
vt 0.476190 0.921260 
vt 0.047619 0.858268 
vt 0.158730 0.834646 
vt 0.476190 0.921260 
vt 0.047619 0.858268 
vt 0.015873 0.653543 
vt 0.158730 0.834646 
vt 0.015873 0.653543 
vt 0.142857 0.685039 
vt 0.158730 0.834646 
vt 0.158730 0.480315 
vt 0.301587 0.377953 
vt 0.253968 0.511811 
vt 0.301587 0.377953 
vt 0.380952 0.496063 
vt 0.253968 0.511811 
vt 0.380952 0.598425 
vt 0.777778 0.692913 
vt 0.539683 0.566929 
vt 0.777778 0.692913 
vt 0.920635 0.653543 
vt 0.539683 0.566929 
vt 0.777778 0.692913 
vt 0.809524 0.866142 
vt 0.920635 0.653543 
vt 0.809524 0.866142 
vt 0.952381 0.897638 
vt 0.920635 0.653543 
vt 0.809524 0.866142 
vt 0.476190 0.921260 
vt 0.952381 0.897638 
vt 0.476190 0.921260 
vt 0.492063 1.000000 
vt 0.952381 0.897638 
vt 0.476190 0.921260 
vt 0.158730 0.834646 
vt 0.492063 1.000000 
vt 0.158730 0.834646 
vt 0.047619 0.858268 
vt 0.492063 1.000000 
vt 0.158730 0.834646 
vt 0.142857 0.685039 
vt 0.047619 0.858268 
vt 0.142857 0.685039 
vt 0.015873 0.653543 
vt 0.047619 0.858268 
vt 0.253968 0.511811 
vt 0.380952 0.496063 
vt 0.158730 0.480315 
vt 0.380952 0.496063 
vt 0.301587 0.377953 
vt 0.158730 0.480315 
vt 0.777778 0.692913 
vt 0.380952 0.598425 
vt 0.492063 0.771654 
vt 0.809524 0.866142 
vt 0.777778 0.692913 
vt 0.492063 0.771654 
vt 0.476190 0.921260 
vt 0.809524 0.866142 
vt 0.492063 0.771654 
vt 0.158730 0.834646 
vt 0.476190 0.921260 
vt 0.492063 0.771654 
vt 0.142857 0.685039 
vt 0.158730 0.834646 
vt 0.492063 0.771654 
vt 0.380952 0.598425 
vt 0.142857 0.685039 
vt 0.492063 0.771654 
vt 0.380952 0.496063 
vt 0.380952 0.598425 
vt 0.142857 0.685039 
vt 0.142857 0.685039 
vt 0.253968 0.511811 
vt 0.380952 0.496063 
vt 0.444444 0.007874 
vt 0.634921 0.007874 
vt 0.555556 0.007874 
vt 0.555556 0.007874 
vt 0.492063 0.015748 
vt 0.444444 0.007874 
vt 0.253968 0.511811 
vt 0.142857 0.685039 
vt 0.015873 0.653543 
vt 0.015873 0.653543 
vt 0.158730 0.480315 
vt 0.253968 0.511811 
vt 0.492063 0.015748 
vt 0.555556 0.007874 
vt 0.634921 0.007874 
vt 0.634921 0.007874 
vt 0.444444 0.007874 
vt 0.492063 0.015748 
vt 0.158730 0.480315 
vt 0.015873 0.653543 
vt 0.142857 0.685039 
vt 0.142857 0.685039 
vt 0.253968 0.511811 
vt 0.158730 0.480315 
vt 0.253968 0.511811 
vt 0.142857 0.685039 
vt 0.380952 0.598425 
vt 0.380952 0.598425 
vt 0.380952 0.496063 
vt 0.253968 0.511811 
vt 0.730159 0.456693 
vt 0.539683 0.566929 
vt 0.380952 0.598425 
vt 0.380952 0.598425 
vt 0.634921 0.417323 
vt 0.730159 0.456693 
vt 0.492063 0.401575 
vt 0.380952 0.496063 
vt 0.301587 0.377953 
vt 0.301587 0.377953 
vt 0.412698 0.338583 
vt 0.492063 0.401575 
vt 0.634921 0.417323 
vt 0.380952 0.598425 
vt 0.539683 0.566929 
vt 0.539683 0.566929 
vt 0.730159 0.456693 
vt 0.634921 0.417323 
vt 0.412698 0.338583 
vt 0.301587 0.377953 
vt 0.380952 0.496063 
vt 0.380952 0.496063 
vt 0.492063 0.401575 
vt 0.412698 0.338583 
vt 0.634921 0.417323 
vt 0.380952 0.598425 
vt 0.380952 0.496063 
vt 0.380952 0.496063 
vt 0.492063 0.401575 
vt 0.634921 0.417323 
vt 0.492063 0.401575 
vt 0.380952 0.496063 
vt 0.380952 0.598425 
vt 0.380952 0.598425 
vt 0.634921 0.417323 
vt 0.492063 0.401575 
vt 0.634921 0.007874 
vt 0.730159 0.456693 
vt 0.634921 0.417323 
vt 0.634921 0.417323 
vt 0.555556 0.007874 
vt 0.634921 0.007874 
vt 0.492063 0.015748 
vt 0.492063 0.401575 
vt 0.412698 0.338583 
vt 0.412698 0.338583 
vt 0.444444 0.007874 
vt 0.492063 0.015748 
vt 0.555556 0.007874 
vt 0.634921 0.417323 
vt 0.492063 0.401575 
vt 0.492063 0.401575 
vt 0.492063 0.015748 
vt 0.555556 0.007874 
vt 0.555556 0.007874 
vt 0.634921 0.417323 
vt 0.730159 0.456693 
vt 0.730159 0.456693 
vt 0.634921 0.007874 
vt 0.555556 0.007874 
vt 0.492063 0.015748 
vt 0.492063 0.401575 
vt 0.634921 0.417323 
vt 0.634921 0.417323 
vt 0.555556 0.007874 
vt 0.492063 0.015748 
vt 0.444444 0.007874 
vt 0.412698 0.338583 
vt 0.492063 0.401575 
vt 0.492063 0.401575 
vt 0.492063 0.015748 
vt 0.444444 0.007874 
f 1/1/1 2/2/2 3/3/3
f 4/4/4 5/5/5 6/6/6
f 7/7/7 8/8/8 9/9/9
f 10/10/10 11/11/11 12/12/12
f 13/13/13 14/14/14 15/15/15
f 16/16/16 17/17/17 18/18/18
f 19/19/19 20/20/20 21/21/21
f 22/22/22 23/23/23 24/24/24
f 25/25/25 26/26/26 27/27/27
f 28/28/28 29/29/29 30/30/30
f 31/31/31 32/32/32 33/33/33
f 34/34/34 35/35/35 36/36/36
f 37/37/37 38/38/38 39/39/39
f 40/40/40 41/41/41 42/42/42
f 43/43/43 44/44/44 45/45/45
f 46/46/46 47/47/47 48/48/48
f 49/49/49 50/50/50 51/51/51
f 52/52/52 53/53/53 54/54/54
f 55/55/55 56/56/56 57/57/57
f 58/58/58 59/59/59 60/60/60
f 61/61/61 62/62/62 63/63/63
f 64/64/64 65/65/65 66/66/66
f 67/67/67 68/68/68 69/69/69
f 70/70/70 71/71/71 72/72/72
f 73/73/73 74/74/74 75/75/75
f 76/76/76 77/77/77 78/78/78
f 79/79/79 80/80/80 81/81/81
f 82/82/82 83/83/83 84/84/84
f 85/85/85 86/86/86 87/87/87
f 88/88/88 89/89/89 90/90/90
f 91/91/91 92/92/92 93/93/93
f 94/94/94 95/95/95 96/96/96
f 97/97/97 98/98/98 99/99/99
f 100/100/100 101/101/101 102/102/102
f 103/103/103 104/104/104 105/105/105
f 106/106/106 107/107/107 108/108/108
f 109/109/109 110/110/110 111/111/111
f 112/112/112 113/113/113 114/114/114
f 115/115/115 116/116/116 117/117/117
f 118/118/118 119/119/119 120/120/120
f 121/121/121 122/122/122 123/123/123
f 124/124/124 125/125/125 126/126/126
f 127/127/127 128/128/128 129/129/129
f 130/130/130 131/131/131 132/132/132
f 133/133/133 134/134/134 135/135/135
f 136/136/136 137/137/137 138/138/138
f 139/139/139 140/140/140 141/141/141
f 142/142/142 143/143/143 144/144/144
f 145/145/145 146/146/146 147/147/147
f 148/148/148 149/149/149 150/150/150
f 151/151/151 152/152/152 153/153/153
f 154/154/154 155/155/155 156/156/156
f 157/157/157 158/158/158 159/159/159
f 160/160/160 161/161/161 162/162/162
f 163/163/163 164/164/164 165/165/165
f 166/166/166 167/167/167 168/168/168
f 169/169/169 170/170/170 171/171/171
f 172/172/172 173/173/173 174/174/174
f 175/175/175 176/176/176 177/177/177
f 178/178/178 179/179/179 180/180/180
f 181/181/181 182/182/182 183/183/183
f 184/184/184 185/185/185 186/186/186
f 187/187/187 188/188/188 189/189/189
f 190/190/190 191/191/191 192/192/192
f 193/193/193 194/194/194 195/195/195
f 196/196/196 197/197/197 198/198/198
f 199/199/199 200/200/200 201/201/201
f 202/202/202 203/203/203 204/204/204
f 205/205/205 206/206/206 207/207/207
f 208/208/208 209/209/209 210/210/210
f 211/211/211 212/212/212 213/213/213
f 214/214/214 215/215/215 216/216/216
