v 34.000000 19.000000 8.000000 
v 30.000000 14.000000 -3.000000 
v 13.000000 27.000000 8.000000 
v 30.000000 14.000000 -3.000000 
v 13.000000 21.000000 -7.000000 
v 13.000000 27.000000 8.000000 
v 34.000000 19.000000 8.000000 
v 13.000000 27.000000 8.000000 
v 13.000000 19.000000 17.000000 
v 30.000000 14.000000 -3.000000 
v 30.000000 0.000000 -9.000000 
v 13.000000 21.000000 -7.000000 
v 30.000000 0.000000 -9.000000 
v 12.000000 0.000000 -13.000000 
v 13.000000 21.000000 -7.000000 
v 30.000000 0.000000 -9.000000 
v 29.000000 -14.000000 -4.000000 
v 12.000000 0.000000 -13.000000 
v 29.000000 -14.000000 -4.000000 
v 13.000000 -21.000000 -7.000000 
v 12.000000 0.000000 -13.000000 
v 29.000000 -14.000000 -4.000000 
v 29.000000 -19.000000 8.000000 
v 13.000000 -21.000000 -7.000000 
v 29.000000 -19.000000 8.000000 
v 13.000000 -27.000000 13.000000 
v 13.000000 -21.000000 -7.000000 
v 29.000000 -19.000000 8.000000 
v 30.000000 -14.000000 12.000000 
v 13.000000 -27.000000 13.000000 
v 30.000000 -14.000000 12.000000 
v 13.000000 -19.000000 17.000000 
v 13.000000 -27.000000 13.000000 
v 30.000000 -14.000000 12.000000 
v 33.000000 0.000000 18.000000 
v 13.000000 -19.000000 17.000000 
v 33.000000 0.000000 18.000000 
v 13.000000 0.000000 24.000000 
v 13.000000 -19.000000 17.000000 
v 33.000000 0.000000 18.000000 
v 34.000000 13.000000 12.000000 
v 13.000000 0.000000 24.000000 
v 34.000000 13.000000 12.000000 
v 13.000000 19.000000 17.000000 
v 13.000000 0.000000 24.000000 
v 34.000000 13.000000 12.000000 
v 34.000000 19.000000 8.000000 
v 13.000000 19.000000 17.000000 
vn 0.077393 0.905762 0.416260 
vn -0.052002 0.808594 -0.585693 
vn 0.041016 0.985107 0.165527 
vn -0.052002 0.808594 -0.585693 
vn -0.066895 0.737061 -0.672363 
vn 0.041016 0.985107 0.165527 
vn 0.077393 0.905762 0.416260 
vn 0.041016 0.985107 0.165527 
vn 0.124756 0.546387 0.827881 
vn -0.052002 0.808594 -0.585693 
vn -0.110596 0.098633 -0.988770 
vn -0.066895 0.737061 -0.672363 
vn -0.110596 0.098633 -0.988770 
vn -0.111816 -0.015381 -0.993408 
vn -0.066895 0.737061 -0.672363 
vn -0.110596 0.098633 -0.988770 
vn -0.080811 -0.585449 -0.806641 
vn -0.111816 -0.015381 -0.993408 
vn -0.080811 -0.585449 -0.806641 
vn -0.066406 -0.720459 -0.689941 
vn -0.111816 -0.015381 -0.993408 
vn -0.080811 -0.585449 -0.806641 
vn 0.041992 -0.997070 0.062988 
vn -0.066406 -0.720459 -0.689941 
vn 0.041992 -0.997070 0.062988 
vn 0.071289 -0.922119 0.379639 
vn -0.066406 -0.720459 -0.689941 
vn 0.041992 -0.997070 0.062988 
vn 0.138916 -0.520752 0.842041 
vn 0.071289 -0.922119 0.379639 
vn 0.138916 -0.520752 0.842041 
vn 0.126953 -0.509521 0.850830 
vn 0.071289 -0.922119 0.379639 
vn 0.138916 -0.520752 0.842041 
vn 0.152100 -0.182373 0.971191 
vn 0.126953 -0.509521 0.850830 
vn 0.152100 -0.182373 0.971191 
vn 0.146484 0.009521 0.989014 
vn 0.126953 -0.509521 0.850830 
vn 0.152100 -0.182373 0.971191 
vn 0.136963 0.449951 0.882324 
vn 0.146484 0.009521 0.989014 
vn 0.136963 0.449951 0.882324 
vn 0.124756 0.546387 0.827881 
vn 0.146484 0.009521 0.989014 
vn 0.136963 0.449951 0.882324 
vn 0.077393 0.905762 0.416260 
vn 0.124756 0.546387 0.827881 
vt 0.047619 0.523810 
vt 0.079365 0.523810 
vt 0.015873 0.428571 
vt 0.079365 0.523810 
vt 0.047619 0.428571 
vt 0.015873 0.428571 
vt 0.698413 0.873016 
vt 0.777778 0.761905 
vt 0.682540 0.761905 
vt 0.079365 0.523810 
vt 0.174603 0.539683 
vt 0.047619 0.428571 
vt 0.174603 0.539683 
vt 0.190476 0.428571 
vt 0.047619 0.428571 
vt 0.015873 0.444444 
vt 0.063492 0.476190 
vt 0.031746 0.365079 
vt 0.063492 0.476190 
vt 0.111111 0.412698 
vt 0.031746 0.365079 
vt 0.063492 0.476190 
vt 0.158730 0.523810 
vt 0.111111 0.412698 
vt 0.158730 0.523810 
vt 0.190476 0.460317 
vt 0.111111 0.412698 
vt 0.285714 0.857143 
vt 0.365079 0.873016 
vt 0.206349 0.730159 
vt 0.365079 0.873016 
vt 0.301587 0.746032 
vt 0.206349 0.730159 
vt 0.365079 0.873016 
vt 0.492063 0.857143 
vt 0.301587 0.746032 
vt 0.492063 0.857143 
vt 0.492063 0.761905 
vt 0.301587 0.746032 
vt 0.492063 0.857143 
vt 0.634921 0.857143 
vt 0.492063 0.761905 
vt 0.634921 0.857143 
vt 0.682540 0.761905 
vt 0.492063 0.761905 
vt 0.634921 0.857143 
vt 0.698413 0.873016 
vt 0.682540 0.761905 
f 1/1/1 2/2/2 3/3/3
f 4/4/4 5/5/5 6/6/6
f 7/7/7 8/8/8 9/9/9
f 10/10/10 11/11/11 12/12/12
f 13/13/13 14/14/14 15/15/15
f 16/16/16 17/17/17 18/18/18
f 19/19/19 20/20/20 21/21/21
f 22/22/22 23/23/23 24/24/24
f 25/25/25 26/26/26 27/27/27
f 28/28/28 29/29/29 30/30/30
f 31/31/31 32/32/32 33/33/33
f 34/34/34 35/35/35 36/36/36
f 37/37/37 38/38/38 39/39/39
f 40/40/40 41/41/41 42/42/42
f 43/43/43 44/44/44 45/45/45
f 46/46/46 47/47/47 48/48/48
