v -5.000000 21.000000 -22.000000 
v -5.000000 0.000000 -28.000000 
v -5.000000 0.000000 -2.000000 
v -5.000000 0.000000 -28.000000 
v -5.000000 -21.000000 -22.000000 
v -5.000000 0.000000 -2.000000 
v -5.000000 -21.000000 -22.000000 
v -5.000000 -29.000000 0.000000 
v -5.000000 0.000000 -2.000000 
v -5.000000 0.000000 -2.000000 
v -5.000000 -29.000000 0.000000 
v -5.000000 -21.000000 20.000000 
v -5.000000 0.000000 29.000000 
v -5.000000 0.000000 -2.000000 
v -5.000000 -21.000000 20.000000 
v -5.000000 21.000000 20.000000 
v -5.000000 0.000000 -2.000000 
v -5.000000 0.000000 29.000000 
v -5.000000 21.000000 20.000000 
v -5.000000 29.000000 0.000000 
v -5.000000 0.000000 -2.000000 
v -5.000000 29.000000 0.000000 
v -5.000000 21.000000 -22.000000 
v -5.000000 0.000000 -2.000000 
vn -0.999756 0.002686 -0.009521 
vn -0.999756 0.002686 -0.009521 
vn -0.999756 0.002686 -0.009521 
vn -0.999756 -0.002686 -0.009521 
vn -0.999756 -0.002686 -0.009521 
vn -0.999756 -0.002686 -0.009521 
vn -0.999756 -0.008301 -0.003174 
vn -0.999756 -0.008301 -0.003174 
vn -0.999756 -0.008301 -0.003174 
vn -0.999756 -0.007812 0.003174 
vn -0.999756 -0.007812 0.003174 
vn -0.999756 -0.007812 0.003174 
vn -0.999756 -0.002930 0.007324 
vn -0.999756 -0.002930 0.007324 
vn -0.999756 -0.002930 0.007324 
vn -0.999756 0.002930 0.007324 
vn -0.999756 0.002930 0.007324 
vn -0.999756 0.002930 0.007324 
vn -0.999756 0.007812 0.003174 
vn -0.999756 0.007812 0.003174 
vn -0.999756 0.007812 0.003174 
vn -0.999756 0.008301 -0.003174 
vn -0.999756 0.008301 -0.003174 
vn -0.999756 0.008301 -0.003174 
vt 0.809524 -0.015873 
vt 0.936508 -0.015873 
vt 0.936508 -0.015873 
vt 0.031746 -0.015873 
vt 0.158730 -0.015873 
vt 0.031746 -0.015873 
vt 0.158730 -0.015873 
vt 0.253968 -0.015873 
vt 0.031746 -0.015873 
vt 0.031746 -0.015873 
vt 0.253968 -0.015873 
vt 0.365079 -0.015873 
vt 0.492063 -0.015873 
vt 0.031746 -0.015873 
vt 0.365079 -0.015873 
vt 0.603175 -0.015873 
vt 0.936508 -0.015873 
vt 0.492063 -0.015873 
vt 0.603175 -0.015873 
vt 0.714286 -0.015873 
vt 0.936508 -0.015873 
vt 0.714286 -0.015873 
vt 0.809524 -0.015873 
vt 0.936508 -0.015873 
f 1/1/1 2/2/2 3/3/3
f 4/4/4 5/5/5 6/6/6
f 7/7/7 8/8/8 9/9/9
f 10/10/10 11/11/11 12/12/12
f 13/13/13 14/14/14 15/15/15
f 16/16/16 17/17/17 18/18/18
f 19/19/19 20/20/20 21/21/21
f 22/22/22 23/23/23 24/24/24
