v 52.000000 33.000000 0.000000 
v 45.000000 23.000000 26.000000 
v 92.000000 0.000000 0.000000 
v 45.000000 23.000000 26.000000 
v 61.000000 0.000000 17.000000 
v 92.000000 0.000000 0.000000 
v 45.000000 23.000000 26.000000 
v 26.000000 13.000000 45.000000 
v 61.000000 0.000000 17.000000 
v 26.000000 13.000000 45.000000 
v 26.000000 0.000000 45.000000 
v 61.000000 0.000000 17.000000 
v 26.000000 13.000000 45.000000 
v 0.000000 23.000000 52.000000 
v 26.000000 0.000000 45.000000 
v 0.000000 23.000000 52.000000 
v -2.000000 0.000000 96.000000 
v 26.000000 0.000000 45.000000 
v 0.000000 23.000000 52.000000 
v -26.000000 12.000000 45.000000 
v -2.000000 0.000000 96.000000 
v -26.000000 12.000000 45.000000 
v -26.000000 0.000000 45.000000 
v -2.000000 0.000000 96.000000 
v -26.000000 12.000000 45.000000 
v -45.000000 17.000000 26.000000 
v -26.000000 0.000000 45.000000 
v -45.000000 17.000000 26.000000 
v -61.000000 0.000000 37.000000 
v -26.000000 0.000000 45.000000 
v -45.000000 17.000000 26.000000 
v -52.000000 14.000000 0.000000 
v -61.000000 0.000000 37.000000 
v -52.000000 14.000000 0.000000 
v -52.000000 0.000000 0.000000 
v -61.000000 0.000000 37.000000 
v -52.000000 14.000000 0.000000 
v -45.000000 17.000000 -26.000000 
v -52.000000 0.000000 0.000000 
v -45.000000 17.000000 -26.000000 
v -76.000000 0.000000 -42.000000 
v -52.000000 0.000000 0.000000 
v -45.000000 17.000000 -26.000000 
v -26.000000 23.000000 -45.000000 
v -76.000000 0.000000 -42.000000 
v -26.000000 23.000000 -45.000000 
v -26.000000 0.000000 -45.000000 
v -76.000000 0.000000 -42.000000 
v -26.000000 23.000000 -45.000000 
v 0.000000 29.000000 -52.000000 
v -26.000000 0.000000 -45.000000 
v 0.000000 29.000000 -52.000000 
v 0.000000 0.000000 -95.000000 
v -26.000000 0.000000 -45.000000 
v 0.000000 29.000000 -52.000000 
v 26.000000 23.000000 -45.000000 
v 0.000000 0.000000 -95.000000 
v 26.000000 23.000000 -45.000000 
v 26.000000 0.000000 -45.000000 
v 0.000000 0.000000 -95.000000 
v 26.000000 23.000000 -45.000000 
v 45.000000 23.000000 -26.000000 
v 26.000000 0.000000 -45.000000 
v 45.000000 23.000000 -26.000000 
v 62.000000 0.000000 -17.000000 
v 26.000000 0.000000 -45.000000 
v 45.000000 23.000000 -26.000000 
v 52.000000 33.000000 0.000000 
v 62.000000 0.000000 -17.000000 
v 52.000000 33.000000 0.000000 
v 92.000000 0.000000 0.000000 
v 62.000000 0.000000 -17.000000 
v 52.000000 47.000000 0.000000 
v 45.000000 47.000000 26.000000 
v 52.000000 33.000000 0.000000 
v 45.000000 47.000000 26.000000 
v 45.000000 23.000000 26.000000 
v 52.000000 33.000000 0.000000 
v 45.000000 47.000000 26.000000 
v 26.000000 47.000000 45.000000 
v 45.000000 23.000000 26.000000 
v 26.000000 47.000000 45.000000 
v 26.000000 13.000000 45.000000 
v 45.000000 23.000000 26.000000 
v 26.000000 47.000000 45.000000 
v 0.000000 47.000000 52.000000 
v 26.000000 13.000000 45.000000 
v 0.000000 47.000000 52.000000 
v 0.000000 23.000000 52.000000 
v 26.000000 13.000000 45.000000 
v 0.000000 47.000000 52.000000 
v -26.000000 47.000000 45.000000 
v 0.000000 23.000000 52.000000 
v -26.000000 47.000000 45.000000 
v -26.000000 12.000000 45.000000 
v 0.000000 23.000000 52.000000 
v -26.000000 47.000000 45.000000 
v -45.000000 47.000000 26.000000 
v -26.000000 12.000000 45.000000 
v -45.000000 47.000000 26.000000 
v -45.000000 17.000000 26.000000 
v -26.000000 12.000000 45.000000 
v -45.000000 47.000000 26.000000 
v -52.000000 47.000000 0.000000 
v -45.000000 17.000000 26.000000 
v -52.000000 47.000000 0.000000 
v -52.000000 14.000000 0.000000 
v -45.000000 17.000000 26.000000 
v -52.000000 47.000000 0.000000 
v -45.000000 47.000000 -26.000000 
v -52.000000 14.000000 0.000000 
v -45.000000 47.000000 -26.000000 
v -45.000000 17.000000 -26.000000 
v -52.000000 14.000000 0.000000 
v -45.000000 47.000000 -26.000000 
v -26.000000 47.000000 -45.000000 
v -45.000000 17.000000 -26.000000 
v -26.000000 47.000000 -45.000000 
v -26.000000 23.000000 -45.000000 
v -45.000000 17.000000 -26.000000 
v -26.000000 47.000000 -45.000000 
v 0.000000 47.000000 -52.000000 
v -26.000000 23.000000 -45.000000 
v 0.000000 47.000000 -52.000000 
v 0.000000 29.000000 -52.000000 
v -26.000000 23.000000 -45.000000 
v 0.000000 47.000000 -52.000000 
v 26.000000 47.000000 -45.000000 
v 0.000000 29.000000 -52.000000 
v 26.000000 47.000000 -45.000000 
v 26.000000 23.000000 -45.000000 
v 0.000000 29.000000 -52.000000 
v 26.000000 47.000000 -45.000000 
v 45.000000 47.000000 -26.000000 
v 26.000000 23.000000 -45.000000 
v 45.000000 47.000000 -26.000000 
v 45.000000 23.000000 -26.000000 
v 26.000000 23.000000 -45.000000 
v 45.000000 47.000000 -26.000000 
v 52.000000 47.000000 0.000000 
v 45.000000 23.000000 -26.000000 
v 52.000000 47.000000 0.000000 
v 52.000000 33.000000 0.000000 
v 45.000000 23.000000 -26.000000 
v 52.000000 70.000000 0.000000 
v 45.000000 70.000000 26.000000 
v 52.000000 47.000000 0.000000 
v 45.000000 70.000000 26.000000 
v 45.000000 47.000000 26.000000 
v 52.000000 47.000000 0.000000 
v 45.000000 70.000000 26.000000 
v 26.000000 70.000000 45.000000 
v 45.000000 47.000000 26.000000 
v 26.000000 70.000000 45.000000 
v 26.000000 47.000000 45.000000 
v 45.000000 47.000000 26.000000 
v 26.000000 70.000000 45.000000 
v 0.000000 70.000000 52.000000 
v 26.000000 47.000000 45.000000 
v 0.000000 70.000000 52.000000 
v 0.000000 47.000000 52.000000 
v 26.000000 47.000000 45.000000 
v -45.000000 70.000000 -26.000000 
v -26.000000 70.000000 -45.000000 
v -45.000000 47.000000 -26.000000 
v -26.000000 70.000000 -45.000000 
v -26.000000 47.000000 -45.000000 
v -45.000000 47.000000 -26.000000 
v -26.000000 70.000000 -45.000000 
v 0.000000 70.000000 -52.000000 
v -26.000000 47.000000 -45.000000 
v 0.000000 70.000000 -52.000000 
v 0.000000 47.000000 -52.000000 
v -26.000000 47.000000 -45.000000 
v 0.000000 70.000000 -52.000000 
v 26.000000 70.000000 -45.000000 
v 0.000000 47.000000 -52.000000 
v 26.000000 70.000000 -45.000000 
v 26.000000 47.000000 -45.000000 
v 0.000000 47.000000 -52.000000 
v 26.000000 70.000000 -45.000000 
v 45.000000 70.000000 -26.000000 
v 26.000000 47.000000 -45.000000 
v 45.000000 70.000000 -26.000000 
v 45.000000 47.000000 -26.000000 
v 26.000000 47.000000 -45.000000 
v 45.000000 70.000000 -26.000000 
v 52.000000 70.000000 0.000000 
v 45.000000 47.000000 -26.000000 
v 52.000000 70.000000 0.000000 
v 52.000000 47.000000 0.000000 
v 45.000000 47.000000 -26.000000 
vn 0.940918 0.326172 -0.087646 
vn 0.734375 0.155518 0.660400 
vn 0.751221 0.601318 0.271729 
vn 0.734375 0.155518 0.660400 
vn 0.593262 0.061279 0.802490 
vn 0.751221 0.601318 0.271729 
vn 0.734375 0.155518 0.660400 
vn 0.472900 0.028320 0.880371 
vn 0.593262 0.061279 0.802490 
vn 0.472900 0.028320 0.880371 
vn 0.573242 0.231201 0.785889 
vn 0.593262 0.061279 0.802490 
vn 0.472900 0.028320 0.880371 
vn 0.044922 0.290771 0.955566 
vn 0.573242 0.231201 0.785889 
vn 0.044922 0.290771 0.955566 
vn -0.343750 0.711670 0.612305 
vn 0.573242 0.231201 0.785889 
vn 0.044922 0.290771 0.955566 
vn -0.682861 0.144043 0.716064 
vn -0.343750 0.711670 0.612305 
vn -0.682861 0.144043 0.716064 
vn -0.667236 0.236816 0.705811 
vn -0.343750 0.711670 0.612305 
vn -0.682861 0.144043 0.716064 
vn -0.806152 0.254883 0.533447 
vn -0.667236 0.236816 0.705811 
vn -0.806152 0.254883 0.533447 
vn -0.781250 0.564209 0.266602 
vn -0.667236 0.236816 0.705811 
vn -0.806152 0.254883 0.533447 
vn -0.985352 0.124756 -0.113770 
vn -0.781250 0.564209 0.266602 
vn -0.985352 0.124756 -0.113770 
vn -0.959229 0.275146 -0.060059 
vn -0.781250 0.564209 0.266602 
vn -0.985352 0.124756 -0.113770 
vn -0.878662 0.323975 -0.350342 
vn -0.959229 0.275146 -0.060059 
vn -0.878662 0.323975 -0.350342 
vn -0.516113 0.764648 -0.385010 
vn -0.959229 0.275146 -0.060059 
vn -0.878662 0.323975 -0.350342 
vn -0.378174 0.169922 -0.909668 
vn -0.516113 0.764648 -0.385010 
vn -0.378174 0.169922 -0.909668 
vn -0.398682 0.209473 -0.892578 
vn -0.516113 0.764648 -0.385010 
vn -0.378174 0.169922 -0.909668 
vn -0.082275 0.265381 -0.960449 
vn -0.398682 0.209473 -0.892578 
vn -0.082275 0.265381 -0.960449 
vn 0.238037 0.667969 -0.704834 
vn -0.398682 0.209473 -0.892578 
vn -0.082275 0.265381 -0.960449 
vn 0.652344 0.140381 -0.744629 
vn 0.238037 0.667969 -0.704834 
vn 0.652344 0.140381 -0.744629 
vn 0.744629 0.050049 -0.665283 
vn 0.238037 0.667969 -0.704834 
vn 0.652344 0.140381 -0.744629 
vn 0.833008 0.102783 -0.543213 
vn 0.744629 0.050049 -0.665283 
vn 0.833008 0.102783 -0.543213 
vn 0.643311 0.382568 -0.662842 
vn 0.744629 0.050049 -0.665283 
vn 0.833008 0.102783 -0.543213 
vn 0.940918 0.326172 -0.087646 
vn 0.643311 0.382568 -0.662842 
vn 0.940918 0.326172 -0.087646 
vn 0.751221 0.601318 0.271729 
vn 0.643311 0.382568 -0.662842 
vn 1.000000 0.000000 0.000000 
vn 0.865967 0.000000 0.499756 
vn 0.940918 0.326172 -0.087646 
vn 0.865967 0.000000 0.499756 
vn 0.734375 0.155518 0.660400 
vn 0.940918 0.326172 -0.087646 
vn 0.865967 0.000000 0.499756 
vn 0.500000 0.000000 0.865967 
vn 0.734375 0.155518 0.660400 
vn 0.500000 0.000000 0.865967 
vn 0.472900 0.028320 0.880371 
vn 0.734375 0.155518 0.660400 
vn 0.500000 0.000000 0.865967 
vn 0.000000 0.000000 1.000000 
vn 0.472900 0.028320 0.880371 
vn 0.000000 0.000000 1.000000 
vn 0.044922 0.290771 0.955566 
vn 0.472900 0.028320 0.880371 
vn 0.000000 0.000000 1.000000 
vn -0.500000 0.000000 0.865967 
vn 0.044922 0.290771 0.955566 
vn -0.500000 0.000000 0.865967 
vn -0.682861 0.144043 0.716064 
vn 0.044922 0.290771 0.955566 
vn -0.500000 0.000000 0.865967 
vn -0.865967 0.000000 0.499756 
vn -0.682861 0.144043 0.716064 
vn -0.865967 0.000000 0.499756 
vn -0.806152 0.254883 0.533447 
vn -0.682861 0.144043 0.716064 
vn -0.865967 0.000000 0.499756 
vn -1.000000 0.000000 0.000000 
vn -0.806152 0.254883 0.533447 
vn -1.000000 0.000000 0.000000 
vn -0.985352 0.124756 -0.113770 
vn -0.806152 0.254883 0.533447 
vn -1.000000 0.000000 0.000000 
vn -0.865967 0.000000 -0.500000 
vn -0.985352 0.124756 -0.113770 
vn -0.865967 0.000000 -0.500000 
vn -0.878662 0.323975 -0.350342 
vn -0.985352 0.124756 -0.113770 
vn -0.865967 0.000000 -0.500000 
vn -0.499756 0.000000 -0.865967 
vn -0.878662 0.323975 -0.350342 
vn -0.499756 0.000000 -0.865967 
vn -0.378174 0.169922 -0.909668 
vn -0.878662 0.323975 -0.350342 
vn -0.499756 0.000000 -0.865967 
vn 0.000000 0.000000 -1.000000 
vn -0.378174 0.169922 -0.909668 
vn 0.000000 0.000000 -1.000000 
vn -0.082275 0.265381 -0.960449 
vn -0.378174 0.169922 -0.909668 
vn 0.000000 0.000000 -1.000000 
vn 0.500000 0.000000 -0.865967 
vn -0.082275 0.265381 -0.960449 
vn 0.500000 0.000000 -0.865967 
vn 0.652344 0.140381 -0.744629 
vn -0.082275 0.265381 -0.960449 
vn 0.500000 0.000000 -0.865967 
vn 0.865967 0.000000 -0.499756 
vn 0.652344 0.140381 -0.744629 
vn 0.865967 0.000000 -0.499756 
vn 0.833008 0.102783 -0.543213 
vn 0.652344 0.140381 -0.744629 
vn 0.865967 0.000000 -0.499756 
vn 1.000000 0.000000 0.000000 
vn 0.833008 0.102783 -0.543213 
vn 1.000000 0.000000 0.000000 
vn 0.940918 0.326172 -0.087646 
vn 0.833008 0.102783 -0.543213 
vn 0.995850 0.000000 -0.088867 
vn 0.906982 0.000000 0.420898 
vn 1.000000 0.000000 0.000000 
vn 0.906982 0.000000 0.420898 
vn 0.865967 0.000000 0.499756 
vn 1.000000 0.000000 0.000000 
vn 0.906982 0.000000 0.420898 
vn 0.574951 0.000000 0.817871 
vn 0.865967 0.000000 0.499756 
vn 0.574951 0.000000 0.817871 
vn 0.500000 0.000000 0.865967 
vn 0.865967 0.000000 0.499756 
vn 0.574951 0.000000 0.817871 
vn 0.088867 0.000000 0.995850 
vn 0.500000 0.000000 0.865967 
vn 0.088867 0.000000 0.995850 
vn 0.000000 0.000000 1.000000 
vn 0.500000 0.000000 0.865967 
vn -0.906982 0.000000 -0.420898 
vn -0.574951 0.000000 -0.817871 
vn -0.865967 0.000000 -0.500000 
vn -0.574951 0.000000 -0.817871 
vn -0.499756 0.000000 -0.865967 
vn -0.865967 0.000000 -0.500000 
vn -0.574951 0.000000 -0.817871 
vn -0.088867 0.000000 -0.995850 
vn -0.499756 0.000000 -0.865967 
vn -0.088867 0.000000 -0.995850 
vn 0.000000 0.000000 -1.000000 
vn -0.499756 0.000000 -0.865967 
vn -0.088867 0.000000 -0.995850 
vn 0.420898 0.000000 -0.906982 
vn 0.000000 0.000000 -1.000000 
vn 0.420898 0.000000 -0.906982 
vn 0.500000 0.000000 -0.865967 
vn 0.000000 0.000000 -1.000000 
vn 0.420898 0.000000 -0.906982 
vn 0.817871 0.000000 -0.574951 
vn 0.500000 0.000000 -0.865967 
vn 0.817871 0.000000 -0.574951 
vn 0.865967 0.000000 -0.499756 
vn 0.500000 0.000000 -0.865967 
vn 0.817871 0.000000 -0.574951 
vn 0.995850 0.000000 -0.088867 
vn 0.865967 0.000000 -0.499756 
vn 0.995850 0.000000 -0.088867 
vn 1.000000 0.000000 0.000000 
vn 0.865967 0.000000 -0.499756 
vt 0.496063 0.488189 
vt 0.740157 0.425197 
vt 0.496063 -0.007874 
vt 0.740157 0.425197 
vt 0.692913 -0.007874 
vt 0.496063 -0.007874 
vt 0.740157 0.425197 
vt 1.000000 0.370079 
vt 0.692913 -0.007874 
vt 1.000000 0.370079 
vt 1.000000 -0.007874 
vt 0.692913 -0.007874 
vt 0.000000 0.291339 
vt 0.346457 0.346457 
vt 0.000000 -0.007874 
vt 0.346457 0.346457 
vt 0.283465 -0.007874 
vt 0.000000 -0.007874 
vt 0.346457 0.346457 
vt 0.677165 0.275591 
vt 0.283465 -0.007874 
vt 0.677165 0.275591 
vt 0.677165 -0.007874 
vt 0.283465 -0.007874 
vt 0.677165 0.275591 
vt 1.000000 0.314961 
vt 0.677165 -0.007874 
vt 1.000000 0.314961 
vt 1.000000 -0.007874 
vt 0.677165 -0.007874 
vt 0.000000 0.322835 
vt 0.204724 0.283465 
vt 0.000000 -0.007874 
vt 0.204724 0.283465 
vt 0.204724 -0.007874 
vt 0.000000 -0.007874 
vt 0.204724 0.283465 
vt 0.393701 0.291339 
vt 0.204724 -0.007874 
vt 0.393701 0.291339 
vt 0.362205 -0.007874 
vt 0.204724 -0.007874 
vt 0.393701 0.291339 
vt 0.590551 0.322835 
vt 0.362205 -0.007874 
vt 0.590551 0.322835 
vt 0.590551 -0.007874 
vt 0.362205 -0.007874 
vt 0.590551 0.322835 
vt 0.803150 0.377953 
vt 0.590551 -0.007874 
vt 0.803150 0.377953 
vt 0.795276 -0.007874 
vt 0.590551 -0.007874 
vt 0.803150 0.377953 
vt 1.000000 0.362205 
vt 0.795276 -0.007874 
vt 1.000000 0.362205 
vt 1.000000 -0.007874 
vt 0.795276 -0.007874 
vt 0.000000 0.440945 
vt 0.220472 0.425197 
vt 0.000000 -0.007874 
vt 0.220472 0.425197 
vt 0.267717 -0.007874 
vt 0.000000 -0.007874 
vt 0.220472 0.425197 
vt 0.496063 0.488189 
vt 0.267717 -0.007874 
vt 0.496063 0.488189 
vt 0.496063 -0.007874 
vt 0.267717 -0.007874 
vt 0.496063 0.574803 
vt 0.740157 0.582677 
vt 0.496063 0.488189 
vt 0.740157 0.582677 
vt 0.740157 0.425197 
vt 0.496063 0.488189 
vt 0.740157 0.582677 
vt 1.000000 0.590551 
vt 0.740157 0.425197 
vt 1.000000 0.590551 
vt 1.000000 0.370079 
vt 0.740157 0.425197 
vt 0.000000 0.677165 
vt 0.346457 0.669291 
vt 0.000000 0.291339 
vt 0.346457 0.669291 
vt 0.346457 0.346457 
vt 0.000000 0.291339 
vt 0.346457 0.669291 
vt 0.677165 0.661417 
vt 0.346457 0.346457 
vt 0.677165 0.661417 
vt 0.677165 0.275591 
vt 0.346457 0.346457 
vt 0.677165 0.661417 
vt 1.000000 0.677165 
vt 0.677165 0.275591 
vt 1.000000 0.677165 
vt 1.000000 0.314961 
vt 0.677165 0.275591 
vt 0.000000 0.661417 
vt 0.204724 0.637795 
vt 0.000000 0.322835 
vt 0.204724 0.637795 
vt 0.204724 0.283465 
vt 0.000000 0.322835 
vt 0.204724 0.637795 
vt 0.393701 0.629921 
vt 0.204724 0.283465 
vt 0.393701 0.629921 
vt 0.393701 0.291339 
vt 0.204724 0.283465 
vt 0.393701 0.629921 
vt 0.590551 0.629921 
vt 0.393701 0.291339 
vt 0.590551 0.629921 
vt 0.590551 0.322835 
vt 0.393701 0.291339 
vt 0.590551 0.629921 
vt 0.803150 0.645669 
vt 0.590551 0.322835 
vt 0.803150 0.645669 
vt 0.803150 0.377953 
vt 0.590551 0.322835 
vt 0.803150 0.645669 
vt 1.000000 0.661417 
vt 0.803150 0.377953 
vt 1.000000 0.661417 
vt 1.000000 0.362205 
vt 0.803150 0.377953 
vt 0.000000 0.590551 
vt 0.220472 0.582677 
vt 0.000000 0.440945 
vt 0.220472 0.582677 
vt 0.220472 0.425197 
vt 0.000000 0.440945 
vt 0.220472 0.582677 
vt 0.496063 0.574803 
vt 0.220472 0.425197 
vt 0.496063 0.574803 
vt 0.496063 0.488189 
vt 0.220472 0.425197 
vt 0.496063 1.000000 
vt 0.740157 1.000000 
vt 0.496063 0.574803 
vt 0.740157 1.000000 
vt 0.740157 0.582677 
vt 0.496063 0.574803 
vt 0.740157 1.000000 
vt 1.000000 1.000000 
vt 0.740157 0.582677 
vt 1.000000 1.000000 
vt 1.000000 0.590551 
vt 0.740157 0.582677 
vt 0.000000 1.000000 
vt 0.346457 1.000000 
vt 0.000000 0.677165 
vt 0.346457 1.000000 
vt 0.346457 0.669291 
vt 0.000000 0.677165 
vt 0.393701 1.000000 
vt 0.590551 1.000000 
vt 0.393701 0.629921 
vt 0.590551 1.000000 
vt 0.590551 0.629921 
vt 0.393701 0.629921 
vt 0.590551 1.000000 
vt 0.803150 1.000000 
vt 0.590551 0.629921 
vt 0.803150 1.000000 
vt 0.803150 0.645669 
vt 0.590551 0.629921 
vt 0.803150 1.000000 
vt 1.000000 1.000000 
vt 0.803150 0.645669 
vt 1.000000 1.000000 
vt 1.000000 0.661417 
vt 0.803150 0.645669 
vt 0.000000 1.000000 
vt 0.220472 1.000000 
vt 0.000000 0.590551 
vt 0.220472 1.000000 
vt 0.220472 0.582677 
vt 0.000000 0.590551 
vt 0.220472 1.000000 
vt 0.496063 1.000000 
vt 0.220472 0.582677 
vt 0.496063 1.000000 
vt 0.496063 0.574803 
vt 0.220472 0.582677 
f 1/1/1 2/2/2 3/3/3
f 4/4/4 5/5/5 6/6/6
f 7/7/7 8/8/8 9/9/9
f 10/10/10 11/11/11 12/12/12
f 13/13/13 14/14/14 15/15/15
f 16/16/16 17/17/17 18/18/18
f 19/19/19 20/20/20 21/21/21
f 22/22/22 23/23/23 24/24/24
f 25/25/25 26/26/26 27/27/27
f 28/28/28 29/29/29 30/30/30
f 31/31/31 32/32/32 33/33/33
f 34/34/34 35/35/35 36/36/36
f 37/37/37 38/38/38 39/39/39
f 40/40/40 41/41/41 42/42/42
f 43/43/43 44/44/44 45/45/45
f 46/46/46 47/47/47 48/48/48
f 49/49/49 50/50/50 51/51/51
f 52/52/52 53/53/53 54/54/54
f 55/55/55 56/56/56 57/57/57
f 58/58/58 59/59/59 60/60/60
f 61/61/61 62/62/62 63/63/63
f 64/64/64 65/65/65 66/66/66
f 67/67/67 68/68/68 69/69/69
f 70/70/70 71/71/71 72/72/72
f 73/73/73 74/74/74 75/75/75
f 76/76/76 77/77/77 78/78/78
f 79/79/79 80/80/80 81/81/81
f 82/82/82 83/83/83 84/84/84
f 85/85/85 86/86/86 87/87/87
f 88/88/88 89/89/89 90/90/90
f 91/91/91 92/92/92 93/93/93
f 94/94/94 95/95/95 96/96/96
f 97/97/97 98/98/98 99/99/99
f 100/100/100 101/101/101 102/102/102
f 103/103/103 104/104/104 105/105/105
f 106/106/106 107/107/107 108/108/108
f 109/109/109 110/110/110 111/111/111
f 112/112/112 113/113/113 114/114/114
f 115/115/115 116/116/116 117/117/117
f 118/118/118 119/119/119 120/120/120
f 121/121/121 122/122/122 123/123/123
f 124/124/124 125/125/125 126/126/126
f 127/127/127 128/128/128 129/129/129
f 130/130/130 131/131/131 132/132/132
f 133/133/133 134/134/134 135/135/135
f 136/136/136 137/137/137 138/138/138
f 139/139/139 140/140/140 141/141/141
f 142/142/142 143/143/143 144/144/144
f 145/145/145 146/146/146 147/147/147
f 148/148/148 149/149/149 150/150/150
f 151/151/151 152/152/152 153/153/153
f 154/154/154 155/155/155 156/156/156
f 157/157/157 158/158/158 159/159/159
f 160/160/160 161/161/161 162/162/162
f 163/163/163 164/164/164 165/165/165
f 166/166/166 167/167/167 168/168/168
f 169/169/169 170/170/170 171/171/171
f 172/172/172 173/173/173 174/174/174
f 175/175/175 176/176/176 177/177/177
f 178/178/178 179/179/179 180/180/180
f 181/181/181 182/182/182 183/183/183
f 184/184/184 185/185/185 186/186/186
f 187/187/187 188/188/188 189/189/189
f 190/190/190 191/191/191 192/192/192
