v 295.000000 0.000000 -590.000000 
v -63.000000 349.000000 -456.000000 
v 334.000000 349.000000 -425.000000 
v -471.000000 349.000000 -442.000000 
v -26.000000 0.000000 -590.000000 
v -471.000000 0.000000 -590.000000 
v 483.000000 0.000000 -945.000000 
v 295.000000 0.000000 -590.000000 
v 334.000000 349.000000 -425.000000 
v 295.000000 0.000000 -590.000000 
v -26.000000 0.000000 -590.000000 
v -63.000000 349.000000 -456.000000 
v -26.000000 0.000000 -590.000000 
v -471.000000 349.000000 -442.000000 
v -63.000000 349.000000 -456.000000 
v 442.000000 698.000000 -295.000000 
v 57.000000 1048.000000 -164.000000 
v 461.000000 1048.000000 -144.000000 
v 590.000000 698.000000 -688.000000 
v 442.000000 698.000000 -295.000000 
v 461.000000 1048.000000 -144.000000 
v 442.000000 698.000000 -295.000000 
v 85.000000 698.000000 -281.000000 
v 57.000000 1048.000000 -164.000000 
v 85.000000 698.000000 -281.000000 
v -471.000000 1048.000000 -147.000000 
v 57.000000 1048.000000 -164.000000 
v -471.000000 1048.000000 -147.000000 
v 85.000000 698.000000 -281.000000 
v -471.000000 698.000000 -295.000000 
v 461.000000 1048.000000 -144.000000 
v 120.000000 1396.000000 -7.000000 
v 355.000000 1397.000000 -16.000000 
v 590.000000 1048.000000 -344.000000 
v 461.000000 1048.000000 -144.000000 
v 590.000000 1383.000000 0.000000 
v 461.000000 1048.000000 -144.000000 
v 57.000000 1048.000000 -164.000000 
v 120.000000 1396.000000 -7.000000 
v 57.000000 1048.000000 -164.000000 
v -471.000000 1404.000000 0.000000 
v -113.000000 1402.000000 -23.000000 
v -471.000000 1404.000000 0.000000 
v 57.000000 1048.000000 -164.000000 
v -471.000000 1048.000000 -147.000000 
v 334.000000 349.000000 -425.000000 
v 85.000000 698.000000 -281.000000 
v 442.000000 698.000000 -295.000000 
v 506.000000 349.000000 -781.000000 
v 334.000000 349.000000 -425.000000 
v 442.000000 698.000000 -295.000000 
v 334.000000 349.000000 -425.000000 
v -63.000000 349.000000 -456.000000 
v 85.000000 698.000000 -281.000000 
v -63.000000 349.000000 -456.000000 
v -471.000000 698.000000 -295.000000 
v 85.000000 698.000000 -281.000000 
v -471.000000 698.000000 -295.000000 
v -63.000000 349.000000 -456.000000 
v -471.000000 349.000000 -442.000000 
v 506.000000 349.000000 -781.000000 
v 483.000000 0.000000 -945.000000 
v 334.000000 349.000000 -425.000000 
v 590.000000 0.000000 -1377.000000 
v 483.000000 0.000000 -945.000000 
v 506.000000 349.000000 -781.000000 
v 590.000000 698.000000 -688.000000 
v 506.000000 349.000000 -781.000000 
v 442.000000 698.000000 -295.000000 
v 590.000000 349.000000 -1033.000000 
v 506.000000 349.000000 -781.000000 
v 590.000000 698.000000 -688.000000 
v 590.000000 0.000000 -1377.000000 
v 506.000000 349.000000 -781.000000 
v 590.000000 349.000000 -1033.000000 
v 590.000000 698.000000 -688.000000 
v 461.000000 1048.000000 -144.000000 
v 590.000000 1048.000000 -344.000000 
v 57.000000 1048.000000 -164.000000 
v -113.000000 1402.000000 -23.000000 
v 120.000000 1396.000000 -7.000000 
v 461.000000 1048.000000 -144.000000 
v 355.000000 1397.000000 -16.000000 
v 590.000000 1383.000000 0.000000 
v -698.000000 1404.000000 -1.000000 
v -922.000000 1048.000000 -165.000000 
v -889.000000 1397.000000 -3.000000 
v -889.000000 0.000000 -590.000000 
v -471.000000 349.000000 -442.000000 
v -471.000000 0.000000 -590.000000 
v -471.000000 1048.000000 -147.000000 
v -471.000000 698.000000 -295.000000 
v -851.000000 698.000000 -287.000000 
v -471.000000 698.000000 -295.000000 
v -906.000000 349.000000 -456.000000 
v -851.000000 698.000000 -287.000000 
v -471.000000 1404.000000 0.000000 
v -471.000000 1048.000000 -147.000000 
v -922.000000 1048.000000 -165.000000 
v -471.000000 1048.000000 -147.000000 
v -851.000000 698.000000 -287.000000 
v -922.000000 1048.000000 -165.000000 
v -471.000000 698.000000 -295.000000 
v -471.000000 349.000000 -442.000000 
v -906.000000 349.000000 -456.000000 
v -471.000000 349.000000 -442.000000 
v -889.000000 0.000000 -590.000000 
v -906.000000 349.000000 -456.000000 
v -1075.000000 1392.000000 0.000000 
v -1350.000000 1048.000000 -184.000000 
v -1350.000000 1399.000000 9.000000 
v -889.000000 1397.000000 -3.000000 
v -922.000000 1048.000000 -165.000000 
v -1350.000000 1048.000000 -184.000000 
v -922.000000 1048.000000 -165.000000 
v -1350.000000 698.000000 -280.000000 
v -1350.000000 1048.000000 -184.000000 
v -922.000000 1048.000000 -165.000000 
v -851.000000 698.000000 -287.000000 
v -1350.000000 698.000000 -280.000000 
v -851.000000 698.000000 -287.000000 
v -1350.000000 349.000000 -469.000000 
v -1350.000000 698.000000 -280.000000 
v -851.000000 698.000000 -287.000000 
v -906.000000 349.000000 -456.000000 
v -1350.000000 349.000000 -469.000000 
v -906.000000 349.000000 -456.000000 
v -1350.000000 0.000000 -590.000000 
v -1350.000000 349.000000 -469.000000 
v -1350.000000 0.000000 -590.000000 
v -906.000000 349.000000 -456.000000 
v -889.000000 0.000000 -590.000000 
v -889.000000 1397.000000 -3.000000 
v -1350.000000 1048.000000 -184.000000 
v -1075.000000 1392.000000 0.000000 
v -471.000000 1404.000000 0.000000 
v -922.000000 1048.000000 -165.000000 
v -698.000000 1404.000000 -1.000000 
vn 0.034668 0.389404 -0.920166 
vn 0.016602 0.397949 -0.917236 
vn 0.034424 0.400635 -0.915283 
vn -0.000488 0.378662 -0.925293 
vn -0.010010 0.367920 -0.929688 
vn 0.000000 0.389160 -0.921143 
vn -0.895752 0.245850 -0.369873 
vn -0.841064 0.305664 -0.445557 
vn -0.847656 0.321533 -0.421387 
vn 0.034668 0.389404 -0.920166 
vn -0.010010 0.367920 -0.929688 
vn 0.016602 0.397949 -0.917236 
vn -0.010010 0.367920 -0.929688 
vn -0.000488 0.378662 -0.925293 
vn 0.016602 0.397949 -0.917236 
vn -0.008301 0.355957 -0.934326 
vn 0.001221 0.365723 -0.930664 
vn 0.035156 0.375000 -0.926270 
vn -0.872314 0.321045 -0.368164 
vn -0.882080 0.302979 -0.360107 
vn -0.809570 0.390625 -0.437744 
vn -0.008301 0.355957 -0.934326 
vn 0.001709 0.373779 -0.927490 
vn 0.001221 0.365723 -0.930664 
vn 0.001709 0.373779 -0.927490 
vn 0.003174 0.365967 -0.930420 
vn 0.001221 0.365723 -0.930664 
vn 0.003174 0.365967 -0.930420 
vn 0.001709 0.373779 -0.927490 
vn 0.001221 0.405518 -0.914062 
vn 0.035156 0.375000 -0.926270 
vn 0.026611 0.380127 -0.924316 
vn 0.024414 0.350342 -0.936279 
vn -0.738037 0.478516 -0.475098 
vn -0.809570 0.390625 -0.437744 
vn -0.734619 0.486328 -0.472900 
vn 0.035156 0.375000 -0.926270 
vn 0.001221 0.365723 -0.930664 
vn 0.026611 0.380127 -0.924316 
vn 0.001221 0.365723 -0.930664 
vn -0.011475 0.381836 -0.923828 
vn 0.006836 0.373535 -0.927490 
vn -0.011475 0.381836 -0.923828 
vn 0.001221 0.365723 -0.930664 
vn 0.003174 0.365967 -0.930420 
vn 0.034424 0.400635 -0.915283 
vn 0.001709 0.373779 -0.927490 
vn -0.008301 0.355957 -0.934326 
vn -0.896729 0.290039 -0.333984 
vn -0.847656 0.321533 -0.421387 
vn -0.882080 0.302979 -0.360107 
vn 0.034424 0.400635 -0.915283 
vn 0.016602 0.397949 -0.917236 
vn 0.001709 0.373779 -0.927490 
vn 0.016602 0.397949 -0.917236 
vn 0.001221 0.405518 -0.914062 
vn 0.001709 0.373779 -0.927490 
vn 0.001221 0.405518 -0.914062 
vn 0.016602 0.397949 -0.917236 
vn -0.000488 0.378662 -0.925293 
vn -0.896729 0.290039 -0.333984 
vn -0.895752 0.245850 -0.369873 
vn -0.847656 0.321533 -0.421387 
vn -0.932861 0.236816 -0.270752 
vn -0.895752 0.245850 -0.369873 
vn -0.896729 0.290039 -0.333984 
vn -0.872314 0.321045 -0.368164 
vn -0.896729 0.290039 -0.333984 
vn -0.882080 0.302979 -0.360107 
vn -0.904785 0.298828 -0.303223 
vn -0.896729 0.290039 -0.333984 
vn -0.872314 0.321045 -0.368164 
vn -0.932861 0.236816 -0.270752 
vn -0.896729 0.290039 -0.333984 
vn -0.904785 0.298828 -0.303223 
vn -0.872314 0.321045 -0.368164 
vn -0.809570 0.390625 -0.437744 
vn -0.738037 0.478516 -0.475098 
vn 0.001221 0.365723 -0.930664 
vn 0.006836 0.373535 -0.927490 
vn 0.026611 0.380127 -0.924316 
vn 0.035156 0.375000 -0.926270 
vn 0.024414 0.350342 -0.936279 
vn 0.087646 0.365967 -0.926270 
vn -0.000244 0.419189 -0.907715 
vn 0.020264 0.367676 -0.929688 
vn 0.000244 0.444824 -0.895508 
vn 0.009521 0.368896 -0.929199 
vn -0.000488 0.378662 -0.925293 
vn 0.000000 0.389160 -0.921143 
vn 0.003174 0.365967 -0.930420 
vn 0.001221 0.405518 -0.914062 
vn 0.000488 0.399902 -0.916504 
vn 0.001221 0.405518 -0.914062 
vn 0.015869 0.383545 -0.923096 
vn 0.000488 0.399902 -0.916504 
vn -0.011475 0.381836 -0.923828 
vn 0.003174 0.365967 -0.930420 
vn 0.020264 0.367676 -0.929688 
vn 0.003174 0.365967 -0.930420 
vn 0.000488 0.399902 -0.916504 
vn 0.020264 0.367676 -0.929688 
vn 0.001221 0.405518 -0.914062 
vn -0.000488 0.378662 -0.925293 
vn 0.015869 0.383545 -0.923096 
vn -0.000488 0.378662 -0.925293 
vn 0.009521 0.368896 -0.929199 
vn 0.015869 0.383545 -0.923096 
vn -0.022949 0.487061 -0.872803 
vn 0.008545 0.416748 -0.908936 
vn -0.014893 0.482178 -0.875732 
vn 0.000244 0.444824 -0.895508 
vn 0.020264 0.367676 -0.929688 
vn 0.008545 0.416748 -0.908936 
vn 0.020264 0.367676 -0.929688 
vn 0.004883 0.357910 -0.933594 
vn 0.008545 0.416748 -0.908936 
vn 0.020264 0.367676 -0.929688 
vn 0.000488 0.399902 -0.916504 
vn 0.004883 0.357910 -0.933594 
vn 0.000488 0.399902 -0.916504 
vn 0.014404 0.411865 -0.910889 
vn 0.004883 0.357910 -0.933594 
vn 0.000488 0.399902 -0.916504 
vn 0.015869 0.383545 -0.923096 
vn 0.014404 0.411865 -0.910889 
vn 0.015869 0.383545 -0.923096 
vn 0.014160 0.342285 -0.939209 
vn 0.014404 0.411865 -0.910889 
vn 0.014160 0.342285 -0.939209 
vn 0.015869 0.383545 -0.923096 
vn 0.009521 0.368896 -0.929199 
vn 0.000244 0.444824 -0.895508 
vn 0.008545 0.416748 -0.908936 
vn -0.022949 0.487061 -0.872803 
vn -0.011475 0.381836 -0.923828 
vn 0.020264 0.367676 -0.929688 
vn -0.000244 0.419189 -0.907715 
vt 0.388235 0.000000 
vt 0.000000 0.470588 
vt 0.384314 0.454902 
vt 0.392157 0.509804 
vt 0.823529 0.000000 
vt 0.388235 0.000000 
vt 0.666667 0.000000 
vt 0.388235 0.000000 
vt 0.384314 0.454902 
vt 0.388235 0.000000 
vt 0.000000 0.000000 
vt 0.000000 0.470588 
vt 0.823529 0.000000 
vt 0.392157 0.509804 
vt 0.776471 0.498039 
vt 0.549020 0.000000 
vt 0.000000 0.474510 
vt 0.537255 0.529412 
vt 0.972549 0.000000 
vt 0.549020 0.000000 
vt 0.537255 0.529412 
vt 0.549020 0.000000 
vt 0.000000 0.000000 
vt 0.000000 0.474510 
vt 1.000000 0.000000 
vt 0.435294 0.509804 
vt 1.000000 0.490196 
vt 0.435294 0.509804 
vt 1.000000 0.000000 
vt 0.427451 0.000000 
vt 0.537255 0.529412 
vt 0.000000 1.000000 
vt 0.309804 1.000000 
vt 0.803922 0.513725 
vt 0.537255 0.529412 
vt 0.505882 1.000000 
vt 0.537255 0.529412 
vt 0.000000 0.474510 
vt 0.000000 1.000000 
vt 1.000000 0.490196 
vt 0.447059 1.000000 
vt 0.705882 1.000000 
vt 0.447059 1.000000 
vt 1.000000 0.490196 
vt 0.435294 0.509804 
vt 0.384314 0.454902 
vt 0.000000 1.000000 
vt 0.529412 1.000000 
vt 0.643137 0.494118 
vt 0.384314 0.454902 
vt 0.529412 1.000000 
vt 0.384314 0.454902 
vt 0.000000 0.470588 
vt 0.000000 1.000000 
vt 0.776471 0.498039 
vt 0.392157 1.000000 
vt 1.000000 1.000000 
vt 0.392157 1.000000 
vt 0.776471 0.498039 
vt 0.392157 0.509804 
vt 0.643137 0.494118 
vt 0.666667 0.000000 
vt 0.384314 0.454902 
vt 0.988235 0.000000 
vt 0.666667 0.000000 
vt 0.643137 0.494118 
vt 0.949020 1.000000 
vt 0.643137 0.494118 
vt 0.529412 1.000000 
vt 0.949020 0.478431 
vt 0.643137 0.494118 
vt 0.949020 1.000000 
vt 0.988235 0.000000 
vt 0.643137 0.494118 
vt 0.949020 0.478431 
vt 0.972549 0.000000 
vt 0.537255 0.529412 
vt 0.803922 0.513725 
vt 1.000000 0.490196 
vt 0.705882 1.000000 
vt 1.000000 1.000000 
vt 0.537255 0.529412 
vt 0.309804 1.000000 
vt 0.505882 1.000000 
vt 0.196078 1.000000 
vt 0.000000 0.466667 
vt 0.000000 1.000000 
vt 0.000000 0.000000 
vt 0.392157 0.509804 
vt 0.388235 0.000000 
vt 0.435294 0.509804 
vt 0.427451 0.000000 
vt 0.000000 0.000000 
vt 0.392157 1.000000 
vt 0.000000 0.505882 
vt 0.000000 1.000000 
vt 0.447059 1.000000 
vt 0.435294 0.509804 
vt 0.000000 0.466667 
vt 0.435294 0.509804 
vt 0.000000 0.000000 
vt 0.000000 0.466667 
vt 0.392157 1.000000 
vt 0.392157 0.509804 
vt 0.000000 0.505882 
vt 0.392157 0.509804 
vt 0.000000 0.000000 
vt 0.000000 0.505882 
vt 0.749020 1.000000 
vt 0.454902 0.474510 
vt 0.525490 1.000000 
vt 1.000000 1.000000 
vt 1.000000 0.478431 
vt 0.454902 0.474510 
vt 1.000000 0.478431 
vt 0.584314 0.000000 
vt 0.454902 0.474510 
vt 1.000000 0.478431 
vt 1.000000 0.000000 
vt 0.584314 0.000000 
vt 1.000000 1.000000 
vt 0.482353 0.486274 
vt 0.588235 1.000000 
vt 1.000000 1.000000 
vt 1.000000 0.494118 
vt 0.482353 0.486274 
vt 1.000000 0.494118 
vt 0.509804 0.000000 
vt 0.482353 0.486274 
vt 0.509804 0.000000 
vt 1.000000 0.494118 
vt 1.000000 0.000000 
vt 1.000000 1.000000 
vt 0.454902 0.474510 
vt 0.749020 1.000000 
vt 0.447059 1.000000 
vt 0.000000 0.466667 
vt 0.196078 1.000000 
f 1/1/1 2/2/2 3/3/3
f 4/4/4 5/5/5 6/6/6
f 7/7/7 8/8/8 9/9/9
f 10/10/10 11/11/11 12/12/12
f 13/13/13 14/14/14 15/15/15
f 16/16/16 17/17/17 18/18/18
f 19/19/19 20/20/20 21/21/21
f 22/22/22 23/23/23 24/24/24
f 25/25/25 26/26/26 27/27/27
f 28/28/28 29/29/29 30/30/30
f 31/31/31 32/32/32 33/33/33
f 34/34/34 35/35/35 36/36/36
f 37/37/37 38/38/38 39/39/39
f 40/40/40 41/41/41 42/42/42
f 43/43/43 44/44/44 45/45/45
f 46/46/46 47/47/47 48/48/48
f 49/49/49 50/50/50 51/51/51
f 52/52/52 53/53/53 54/54/54
f 55/55/55 56/56/56 57/57/57
f 58/58/58 59/59/59 60/60/60
f 61/61/61 62/62/62 63/63/63
f 64/64/64 65/65/65 66/66/66
f 67/67/67 68/68/68 69/69/69
f 70/70/70 71/71/71 72/72/72
f 73/73/73 74/74/74 75/75/75
f 76/76/76 77/77/77 78/78/78
f 79/79/79 80/80/80 81/81/81
f 82/82/82 83/83/83 84/84/84
f 85/85/85 86/86/86 87/87/87
f 88/88/88 89/89/89 90/90/90
f 91/91/91 92/92/92 93/93/93
f 94/94/94 95/95/95 96/96/96
f 97/97/97 98/98/98 99/99/99
f 100/100/100 101/101/101 102/102/102
f 103/103/103 104/104/104 105/105/105
f 106/106/106 107/107/107 108/108/108
f 109/109/109 110/110/110 111/111/111
f 112/112/112 113/113/113 114/114/114
f 115/115/115 116/116/116 117/117/117
f 118/118/118 119/119/119 120/120/120
f 121/121/121 122/122/122 123/123/123
f 124/124/124 125/125/125 126/126/126
f 127/127/127 128/128/128 129/129/129
f 130/130/130 131/131/131 132/132/132
f 133/133/133 134/134/134 135/135/135
f 136/136/136 137/137/137 138/138/138
