v 19.000000 8.000000 -14.000000 
v 19.000000 -8.000000 -14.000000 
v 7.000000 8.000000 -14.000000 
v 19.000000 -8.000000 -14.000000 
v 7.000000 -8.000000 -14.000000 
v 7.000000 8.000000 -14.000000 
v 19.000000 -8.000000 -14.000000 
v 19.000000 -16.000000 0.000000 
v 7.000000 -8.000000 -14.000000 
v 19.000000 -8.000000 13.000000 
v 19.000000 8.000000 13.000000 
v 7.000000 -8.000000 13.000000 
v 19.000000 8.000000 13.000000 
v 7.000000 8.000000 13.000000 
v 7.000000 -8.000000 13.000000 
v 19.000000 8.000000 13.000000 
v 19.000000 16.000000 0.000000 
v 7.000000 8.000000 13.000000 
v 23.000000 11.000000 0.000000 
v 23.000000 5.000000 -10.000000 
v 19.000000 16.000000 0.000000 
v 23.000000 5.000000 -10.000000 
v 19.000000 8.000000 -14.000000 
v 19.000000 16.000000 0.000000 
v 23.000000 11.000000 0.000000 
v 19.000000 16.000000 0.000000 
v 19.000000 8.000000 13.000000 
v 23.000000 5.000000 -10.000000 
v 23.000000 -5.000000 -10.000000 
v 19.000000 8.000000 -14.000000 
v 23.000000 -5.000000 -10.000000 
v 19.000000 -8.000000 -14.000000 
v 19.000000 8.000000 -14.000000 
v 23.000000 -5.000000 -10.000000 
v 23.000000 -11.000000 0.000000 
v 19.000000 -8.000000 -14.000000 
v 23.000000 -11.000000 0.000000 
v 19.000000 -16.000000 0.000000 
v 19.000000 -8.000000 -14.000000 
v 23.000000 -11.000000 0.000000 
v 23.000000 -5.000000 9.000000 
v 19.000000 -16.000000 0.000000 
v 23.000000 -5.000000 9.000000 
v 19.000000 -8.000000 13.000000 
v 19.000000 -16.000000 0.000000 
v 23.000000 -5.000000 9.000000 
v 23.000000 5.000000 9.000000 
v 19.000000 -8.000000 13.000000 
v 23.000000 5.000000 9.000000 
v 19.000000 8.000000 13.000000 
v 19.000000 -8.000000 13.000000 
v 23.000000 5.000000 9.000000 
v 23.000000 11.000000 0.000000 
v 19.000000 8.000000 13.000000 
v 23.000000 5.000000 -10.000000 
v 23.000000 11.000000 0.000000 
v 20.000000 0.000000 0.000000 
v 23.000000 11.000000 0.000000 
v 23.000000 5.000000 9.000000 
v 20.000000 0.000000 0.000000 
v 23.000000 -5.000000 -10.000000 
v 23.000000 5.000000 -10.000000 
v 20.000000 0.000000 0.000000 
v 23.000000 -11.000000 0.000000 
v 23.000000 -5.000000 -10.000000 
v 20.000000 0.000000 0.000000 
v 23.000000 -5.000000 9.000000 
v 23.000000 -11.000000 0.000000 
v 20.000000 0.000000 0.000000 
v 23.000000 5.000000 9.000000 
v 23.000000 -5.000000 9.000000 
v 20.000000 0.000000 0.000000 
vn 0.565674 0.408203 -0.716309 
vn 0.563232 -0.356934 -0.744873 
vn -0.581543 0.347900 -0.734863 
vn 0.563232 -0.356934 -0.744873 
vn -0.578125 -0.405273 -0.707764 
vn -0.581543 0.347900 -0.734863 
vn 0.563232 -0.356934 -0.744873 
vn 0.597656 -0.800537 -0.037354 
vn -0.578125 -0.405273 -0.707764 
vn 0.561523 -0.408936 0.718994 
vn 0.566650 0.354492 0.743652 
vn -0.580078 -0.349365 0.735596 
vn 0.566650 0.354492 0.743652 
vn -0.576416 0.404541 0.709717 
vn -0.580078 -0.349365 0.735596 
vn 0.566650 0.354492 0.743652 
vn 0.599854 0.799072 0.035400 
vn -0.576416 0.404541 0.709717 
vn 0.879395 0.465088 0.100342 
vn 0.864990 0.306641 -0.396484 
vn 0.599854 0.799072 0.035400 
vn 0.864990 0.306641 -0.396484 
vn 0.565674 0.408203 -0.716309 
vn 0.599854 0.799072 0.035400 
vn 0.879395 0.465088 0.100342 
vn 0.599854 0.799072 0.035400 
vn 0.566650 0.354492 0.743652 
vn 0.864990 0.306641 -0.396484 
vn 0.857178 -0.152832 -0.491211 
vn 0.565674 0.408203 -0.716309 
vn 0.857178 -0.152832 -0.491211 
vn 0.563232 -0.356934 -0.744873 
vn 0.565674 0.408203 -0.716309 
vn 0.857178 -0.152832 -0.491211 
vn 0.879395 -0.464600 -0.101562 
vn 0.563232 -0.356934 -0.744873 
vn 0.879395 -0.464600 -0.101562 
vn 0.597656 -0.800537 -0.037354 
vn 0.563232 -0.356934 -0.744873 
vn 0.879395 -0.464600 -0.101562 
vn 0.865234 -0.306885 0.395996 
vn 0.597656 -0.800537 -0.037354 
vn 0.865234 -0.306885 0.395996 
vn 0.561523 -0.408936 0.718994 
vn 0.597656 -0.800537 -0.037354 
vn 0.865234 -0.306885 0.395996 
vn 0.857178 0.153076 0.491211 
vn 0.561523 -0.408936 0.718994 
vn 0.857178 0.153076 0.491211 
vn 0.566650 0.354492 0.743652 
vn 0.561523 -0.408936 0.718994 
vn 0.857178 0.153076 0.491211 
vn 0.879395 0.465088 0.100342 
vn 0.566650 0.354492 0.743652 
vn 0.989502 -0.065430 0.127197 
vn 0.991211 -0.131104 -0.000732 
vn 0.999756 0.000000 -0.000732 
vn 0.991211 -0.131104 -0.000732 
vn 0.989258 -0.065430 -0.128906 
vn 0.999756 0.000000 -0.000732 
vn 0.989502 0.065430 0.127197 
vn 0.989502 -0.065430 0.127197 
vn 0.999756 0.000000 -0.000732 
vn 0.991211 0.131104 -0.000732 
vn 0.989502 0.065430 0.127197 
vn 0.999756 0.000000 -0.000732 
vn 0.989258 0.065430 -0.128906 
vn 0.991211 0.131104 -0.000732 
vn 0.999756 0.000000 -0.000732 
vn 0.989258 -0.065430 -0.128906 
vn 0.989258 0.065430 -0.128906 
vn 0.999756 0.000000 -0.000732 
vt 0.000000 0.904762 
vt 0.174603 0.904762 
vt 0.000000 0.809524 
vt 0.174603 0.904762 
vt 0.174603 0.809524 
vt 0.000000 0.809524 
vt 0.174603 0.904762 
vt 0.333333 0.904762 
vt 0.174603 0.809524 
vt 0.492063 0.904762 
vt 0.682540 0.904762 
vt 0.492063 0.809524 
vt 0.682540 0.904762 
vt 0.682540 0.809524 
vt 0.492063 0.809524 
vt 0.682540 0.904762 
vt 0.841270 0.904762 
vt 0.682540 0.809524 
vt 0.841270 1.000000 
vt 1.000000 1.000000 
vt 0.841270 0.904762 
vt 1.000000 1.000000 
vt 1.000000 0.904762 
vt 0.841270 0.904762 
vt 0.841270 1.000000 
vt 0.841270 0.904762 
vt 0.682540 0.904762 
vt 0.000000 1.000000 
vt 0.174603 1.000000 
vt 0.000000 0.904762 
vt 0.174603 1.000000 
vt 0.174603 0.904762 
vt 0.000000 0.904762 
vt 0.174603 1.000000 
vt 0.333333 1.000000 
vt 0.174603 0.904762 
vt 0.333333 1.000000 
vt 0.333333 0.904762 
vt 0.174603 0.904762 
vt 0.333333 1.000000 
vt 0.492063 1.000000 
vt 0.333333 0.904762 
vt 0.492063 1.000000 
vt 0.492063 0.904762 
vt 0.333333 0.904762 
vt 0.492063 1.000000 
vt 0.682540 1.000000 
vt 0.492063 0.904762 
vt 0.682540 1.000000 
vt 0.682540 0.904762 
vt 0.492063 0.904762 
vt 0.682540 1.000000 
vt 0.841270 1.000000 
vt 0.682540 0.904762 
vt 1.000000 1.000000 
vt 0.841270 1.000000 
vt 0.571429 0.873016 
vt 0.841270 1.000000 
vt 0.682540 1.000000 
vt 0.571429 0.873016 
vt 0.174603 1.000000 
vt 0.000000 1.000000 
vt 0.571429 0.873016 
vt 0.333333 1.000000 
vt 0.174603 1.000000 
vt 0.571429 0.873016 
vt 0.492063 1.000000 
vt 0.333333 1.000000 
vt 0.571429 0.873016 
vt 0.682540 1.000000 
vt 0.492063 1.000000 
vt 0.571429 0.873016 
f 1/1/1 2/2/2 3/3/3
f 4/4/4 5/5/5 6/6/6
f 7/7/7 8/8/8 9/9/9
f 10/10/10 11/11/11 12/12/12
f 13/13/13 14/14/14 15/15/15
f 16/16/16 17/17/17 18/18/18
f 19/19/19 20/20/20 21/21/21
f 22/22/22 23/23/23 24/24/24
f 25/25/25 26/26/26 27/27/27
f 28/28/28 29/29/29 30/30/30
f 31/31/31 32/32/32 33/33/33
f 34/34/34 35/35/35 36/36/36
f 37/37/37 38/38/38 39/39/39
f 40/40/40 41/41/41 42/42/42
f 43/43/43 44/44/44 45/45/45
f 46/46/46 47/47/47 48/48/48
f 49/49/49 50/50/50 51/51/51
f 52/52/52 53/53/53 54/54/54
f 55/55/55 56/56/56 57/57/57
f 58/58/58 59/59/59 60/60/60
f 61/61/61 62/62/62 63/63/63
f 64/64/64 65/65/65 66/66/66
f 67/67/67 68/68/68 69/69/69
f 70/70/70 71/71/71 72/72/72
