v 3.000000 -7.000000 0.000000 
v 2.000000 0.000000 6.000000 
v -1.000000 0.000000 3.000000 
v 0.000000 -5.000000 -1.000000 
v 3.000000 -7.000000 0.000000 
v -1.000000 0.000000 3.000000 
v 3.000000 0.000000 -7.000000 
v 3.000000 -7.000000 0.000000 
v 0.000000 -5.000000 -1.000000 
v 8.000000 8.000000 0.000000 
v 8.000000 0.000000 -9.000000 
v 3.000000 0.000000 -7.000000 
v 2.000000 6.000000 0.000000 
v 8.000000 8.000000 0.000000 
v 3.000000 0.000000 -7.000000 
v 3.000000 0.000000 -7.000000 
v 8.000000 0.000000 -9.000000 
v 3.000000 -7.000000 0.000000 
v 8.000000 0.000000 7.000000 
v 8.000000 8.000000 0.000000 
v 2.000000 6.000000 0.000000 
v 2.000000 0.000000 6.000000 
v 8.000000 0.000000 7.000000 
v 2.000000 6.000000 0.000000 
v 8.000000 -8.000000 0.000000 
v 8.000000 0.000000 7.000000 
v 2.000000 0.000000 6.000000 
v 3.000000 -7.000000 0.000000 
v 8.000000 -8.000000 0.000000 
v 2.000000 0.000000 6.000000 
v 8.000000 0.000000 -9.000000 
v 8.000000 -8.000000 0.000000 
v 3.000000 -7.000000 0.000000 
v 8.000000 8.000000 0.000000 
v 30.000000 0.000000 -5.000000 
v 8.000000 0.000000 -9.000000 
v 8.000000 0.000000 -9.000000 
v 30.000000 -6.000000 0.000000 
v 8.000000 -8.000000 0.000000 
v 30.000000 -6.000000 0.000000 
v 8.000000 0.000000 -9.000000 
v 30.000000 0.000000 -5.000000 
v 30.000000 0.000000 -5.000000 
v 8.000000 8.000000 0.000000 
v 30.000000 6.000000 0.000000 
v 8.000000 0.000000 7.000000 
v 30.000000 6.000000 0.000000 
v 8.000000 8.000000 0.000000 
v 30.000000 6.000000 0.000000 
v 8.000000 0.000000 7.000000 
v 31.000000 0.000000 6.000000 
v 8.000000 -8.000000 0.000000 
v 31.000000 0.000000 6.000000 
v 8.000000 0.000000 7.000000 
v 31.000000 0.000000 6.000000 
v 8.000000 -8.000000 0.000000 
v 30.000000 -6.000000 0.000000 
v 30.000000 0.000000 -5.000000 
v 36.000000 6.000000 0.000000 
v 35.000000 0.000000 -5.000000 
v 35.000000 0.000000 -5.000000 
v 30.000000 -6.000000 0.000000 
v 30.000000 0.000000 -5.000000 
v 30.000000 -6.000000 0.000000 
v 35.000000 0.000000 -5.000000 
v 36.000000 -5.000000 0.000000 
v 36.000000 6.000000 0.000000 
v 30.000000 0.000000 -5.000000 
v 30.000000 6.000000 0.000000 
v 30.000000 6.000000 0.000000 
v 37.000000 0.000000 5.000000 
v 36.000000 6.000000 0.000000 
v 37.000000 0.000000 5.000000 
v 30.000000 6.000000 0.000000 
v 31.000000 0.000000 6.000000 
v 31.000000 0.000000 6.000000 
v 36.000000 -5.000000 0.000000 
v 37.000000 0.000000 5.000000 
v 36.000000 -5.000000 0.000000 
v 31.000000 0.000000 6.000000 
v 30.000000 -6.000000 0.000000 
vn -0.981445 -0.182129 -0.059570 
vn -0.220215 0.289062 0.931396 
vn -0.529785 0.209961 0.821533 
vn -0.935791 -0.102295 -0.337158 
vn -0.981445 -0.182129 -0.059570 
vn -0.529785 0.209961 0.821533 
vn -0.130615 0.256836 -0.957275 
vn -0.981445 -0.182129 -0.059570 
vn -0.935791 -0.102295 -0.337158 
vn 0.777588 0.553467 -0.297607 
vn -0.255615 -0.136963 -0.956787 
vn -0.130615 0.256836 -0.957275 
vn 0.659668 0.751221 0.002686 
vn 0.777588 0.553467 -0.297607 
vn -0.130615 0.256836 -0.957275 
vn -0.130615 0.256836 -0.957275 
vn -0.255615 -0.136963 -0.956787 
vn -0.981445 -0.182129 -0.059570 
vn 0.171631 0.276855 0.945312 
vn 0.777588 0.553467 -0.297607 
vn 0.659668 0.751221 0.002686 
vn -0.220215 0.289062 0.931396 
vn 0.171631 0.276855 0.945312 
vn 0.659668 0.751221 0.002686 
vn -0.864014 -0.413574 0.286133 
vn 0.171631 0.276855 0.945312 
vn -0.220215 0.289062 0.931396 
vn -0.981445 -0.182129 -0.059570 
vn -0.864014 -0.413574 0.286133 
vn -0.220215 0.289062 0.931396 
vn -0.255615 -0.136963 -0.956787 
vn -0.864014 -0.413574 0.286133 
vn -0.981445 -0.182129 -0.059570 
vn 0.777588 0.553467 -0.297607 
vn 0.322266 0.120605 -0.938721 
vn -0.255615 -0.136963 -0.956787 
vn -0.255615 -0.136963 -0.956787 
vn -0.752441 -0.562988 -0.341553 
vn -0.864014 -0.413574 0.286133 
vn -0.752441 -0.562988 -0.341553 
vn -0.255615 -0.136963 -0.956787 
vn 0.322266 0.120605 -0.938721 
vn 0.322266 0.120605 -0.938721 
vn 0.777588 0.553467 -0.297607 
vn 0.847656 0.412109 0.333252 
vn 0.171631 0.276855 0.945312 
vn 0.847656 0.412109 0.333252 
vn 0.777588 0.553467 -0.297607 
vn 0.847656 0.412109 0.333252 
vn 0.171631 0.276855 0.945312 
vn -0.229004 -0.274902 0.933594 
vn -0.864014 -0.413574 0.286133 
vn -0.229004 -0.274902 0.933594 
vn 0.171631 0.276855 0.945312 
vn -0.229004 -0.274902 0.933594 
vn -0.864014 -0.413574 0.286133 
vn -0.752441 -0.562988 -0.341553 
vn 0.322266 0.120605 -0.938721 
vn 0.905273 0.424561 0.003418 
vn -0.011475 0.063965 -0.997803 
vn -0.011475 0.063965 -0.997803 
vn -0.752441 -0.562988 -0.341553 
vn 0.322266 0.120605 -0.938721 
vn -0.752441 -0.562988 -0.341553 
vn -0.011475 0.063965 -0.997803 
vn -0.799316 -0.599365 -0.040283 
vn 0.905273 0.424561 0.003418 
vn 0.322266 0.120605 -0.938721 
vn 0.847656 0.412109 0.333252 
vn 0.847656 0.412109 0.333252 
vn 0.119629 -0.238770 0.963623 
vn 0.905273 0.424561 0.003418 
vn 0.119629 -0.238770 0.963623 
vn 0.847656 0.412109 0.333252 
vn -0.229004 -0.274902 0.933594 
vn -0.229004 -0.274902 0.933594 
vn -0.799316 -0.599365 -0.040283 
vn 0.119629 -0.238770 0.963623 
vn -0.799316 -0.599365 -0.040283 
vn -0.229004 -0.274902 0.933594 
vn -0.752441 -0.562988 -0.341553 
vt 0.064516 0.064516 
vt 0.064516 0.903226 
vt 0.000000 0.806452 
vt 0.000000 0.161290 
vt 0.064516 0.064516 
vt 0.000000 0.806452 
vt 0.064516 0.064516 
vt 0.064516 0.064516 
vt 0.000000 0.161290 
vt 0.129032 1.000000 
vt 0.129032 -0.032258 
vt 0.064516 0.064516 
vt 0.064516 0.903226 
vt 0.129032 1.000000 
vt 0.064516 0.064516 
vt 0.064516 0.064516 
vt 0.129032 -0.032258 
vt 0.064516 0.064516 
vt 0.129032 1.000000 
vt 0.129032 1.000000 
vt 0.064516 0.903226 
vt 0.064516 0.903226 
vt 0.129032 1.000000 
vt 0.064516 0.903226 
vt 0.129032 -0.032258 
vt 0.129032 1.000000 
vt 0.064516 0.903226 
vt 0.064516 0.064516 
vt 0.129032 -0.032258 
vt 0.064516 0.903226 
vt 0.129032 -0.032258 
vt 0.129032 -0.032258 
vt 0.064516 0.064516 
vt 0.129032 1.000000 
vt 0.451613 -0.032258 
vt 0.129032 -0.032258 
vt 0.129032 -0.032258 
vt 0.451613 -0.032258 
vt 0.129032 -0.032258 
vt 0.451613 -0.032258 
vt 0.129032 -0.032258 
vt 0.451613 -0.032258 
vt 0.451613 -0.032258 
vt 0.129032 1.000000 
vt 0.451613 1.000000 
vt 0.129032 1.000000 
vt 0.451613 1.000000 
vt 0.129032 1.000000 
vt 0.451613 1.000000 
vt 0.129032 1.000000 
vt 0.451613 1.000000 
vt 0.129032 -0.032258 
vt 0.451613 1.000000 
vt 0.129032 1.000000 
vt 0.451613 1.000000 
vt 0.129032 -0.032258 
vt 0.451613 -0.032258 
vt 0.451613 -0.032258 
vt 0.516129 1.000000 
vt 0.516129 -0.032258 
vt 0.516129 -0.032258 
vt 0.451613 -0.032258 
vt 0.451613 -0.032258 
vt 0.451613 -0.032258 
vt 0.516129 -0.032258 
vt 0.516129 -0.032258 
vt 0.516129 1.000000 
vt 0.451613 -0.032258 
vt 0.451613 1.000000 
vt 0.451613 1.000000 
vt 0.516129 1.000000 
vt 0.516129 1.000000 
vt 0.516129 1.000000 
vt 0.451613 1.000000 
vt 0.451613 1.000000 
vt 0.451613 1.000000 
vt 0.516129 -0.032258 
vt 0.516129 1.000000 
vt 0.516129 -0.032258 
vt 0.451613 1.000000 
vt 0.451613 -0.032258 
f 1/1/1 2/2/2 3/3/3
f 4/4/4 5/5/5 6/6/6
f 7/7/7 8/8/8 9/9/9
f 10/10/10 11/11/11 12/12/12
f 13/13/13 14/14/14 15/15/15
f 16/16/16 17/17/17 18/18/18
f 19/19/19 20/20/20 21/21/21
f 22/22/22 23/23/23 24/24/24
f 25/25/25 26/26/26 27/27/27
f 28/28/28 29/29/29 30/30/30
f 31/31/31 32/32/32 33/33/33
f 34/34/34 35/35/35 36/36/36
f 37/37/37 38/38/38 39/39/39
f 40/40/40 41/41/41 42/42/42
f 43/43/43 44/44/44 45/45/45
f 46/46/46 47/47/47 48/48/48
f 49/49/49 50/50/50 51/51/51
f 52/52/52 53/53/53 54/54/54
f 55/55/55 56/56/56 57/57/57
f 58/58/58 59/59/59 60/60/60
f 61/61/61 62/62/62 63/63/63
f 64/64/64 65/65/65 66/66/66
f 67/67/67 68/68/68 69/69/69
f 70/70/70 71/71/71 72/72/72
f 73/73/73 74/74/74 75/75/75
f 76/76/76 77/77/77 78/78/78
f 79/79/79 80/80/80 81/81/81
