v -17.000000 5.000000 -2.000000 
v 13.000000 0.000000 9.000000 
v 14.000000 5.000000 2.000000 
v -17.000000 5.000000 -2.000000 
v -17.000000 0.000000 5.000000 
v 13.000000 0.000000 9.000000 
v -17.000000 0.000000 5.000000 
v 14.000000 -5.000000 6.000000 
v 13.000000 0.000000 9.000000 
v -17.000000 0.000000 5.000000 
v -15.000000 -6.000000 2.000000 
v 14.000000 -5.000000 6.000000 
v -15.000000 -6.000000 2.000000 
v 15.000000 -5.000000 -2.000000 
v 14.000000 -5.000000 6.000000 
v -15.000000 -6.000000 2.000000 
v -13.000000 -6.000000 -7.000000 
v 15.000000 -5.000000 -2.000000 
v -13.000000 -6.000000 -7.000000 
v 16.000000 1.000000 -4.000000 
v 15.000000 -5.000000 -2.000000 
v -13.000000 -6.000000 -7.000000 
v -14.000000 1.000000 -10.000000 
v 16.000000 1.000000 -4.000000 
v -14.000000 1.000000 -10.000000 
v 14.000000 5.000000 2.000000 
v 16.000000 1.000000 -4.000000 
v -14.000000 1.000000 -10.000000 
v -17.000000 5.000000 -2.000000 
v 14.000000 5.000000 2.000000 
v -13.000000 -6.000000 -7.000000 
v -15.000000 -6.000000 2.000000 
v -17.000000 0.000000 5.000000 
v -13.000000 -6.000000 -7.000000 
v -17.000000 0.000000 5.000000 
v -17.000000 5.000000 -2.000000 
v -13.000000 -6.000000 -7.000000 
v -17.000000 5.000000 -2.000000 
v -14.000000 1.000000 -10.000000 
v 15.000000 -5.000000 -2.000000 
v 16.000000 1.000000 -4.000000 
v 14.000000 5.000000 2.000000 
v 15.000000 -5.000000 -2.000000 
v 14.000000 5.000000 2.000000 
v 13.000000 0.000000 9.000000 
v 15.000000 -5.000000 -2.000000 
v 13.000000 0.000000 9.000000 
v 14.000000 -5.000000 6.000000 
vn -0.112549 0.969482 0.217041 
vn -0.152832 0.544189 0.824707 
vn -0.053711 0.986816 -0.152100 
vn -0.112549 0.969482 0.217041 
vn -0.115234 0.008301 0.993164 
vn -0.152832 0.544189 0.824707 
vn -0.115234 0.008301 0.993164 
vn 0.001709 -0.713379 0.700439 
vn -0.152832 0.544189 0.824707 
vn -0.115234 0.008301 0.993164 
vn 0.076660 -0.938721 0.335693 
vn 0.001709 -0.713379 0.700439 
vn 0.076660 -0.938721 0.335693 
vn 0.188477 -0.907227 -0.375732 
vn 0.001709 -0.713379 0.700439 
vn 0.076660 -0.938721 0.335693 
vn 0.225586 -0.653809 -0.722168 
vn 0.188477 -0.907227 -0.375732 
vn 0.225586 -0.653809 -0.722168 
vn 0.195557 0.083252 -0.977051 
vn 0.188477 -0.907227 -0.375732 
vn 0.225586 -0.653809 -0.722168 
vn 0.102051 0.608154 -0.787109 
vn 0.195557 0.083252 -0.977051 
vn 0.102051 0.608154 -0.787109 
vn -0.053711 0.986816 -0.152100 
vn 0.195557 0.083252 -0.977051 
vn 0.102051 0.608154 -0.787109 
vn -0.112549 0.969482 0.217041 
vn -0.053711 0.986816 -0.152100 
vn -0.979248 -0.117676 -0.163574 
vn -0.979248 -0.117676 -0.163574 
vn -0.979248 -0.117676 -0.163574 
vn -0.979248 -0.117676 -0.163574 
vn -0.979248 -0.117676 -0.163574 
vn -0.979248 -0.117676 -0.163574 
vn -0.979248 -0.117676 -0.163574 
vn -0.979248 -0.117676 -0.163574 
vn -0.979248 -0.117676 -0.163574 
vn 0.984375 -0.081543 0.155762 
vn 0.984375 -0.081543 0.155762 
vn 0.984375 -0.081543 0.155762 
vn 0.984375 -0.081543 0.155762 
vn 0.984375 -0.081543 0.155762 
vn 0.984375 -0.081543 0.155762 
vn 0.984375 -0.081543 0.155762 
vn 0.984375 -0.081543 0.155762 
vn 0.984375 -0.081543 0.155762 
vt 0.492063 0.387097 
vt 0.412698 0.548387 
vt 0.492063 0.580645 
vt 0.492063 0.387097 
vt 0.396825 0.387097 
vt 0.412698 0.548387 
vt 0.396825 0.387097 
vt 0.444444 0.548387 
vt 0.412698 0.548387 
vt 0.396825 0.387097 
vt 0.428571 0.387097 
vt 0.444444 0.548387 
vt 0.428571 0.387097 
vt 0.539683 0.548387 
vt 0.444444 0.548387 
vt 0.428571 0.387097 
vt 0.555556 0.387097 
vt 0.539683 0.548387 
vt 0.555556 0.387097 
vt 0.571429 0.548387 
vt 0.539683 0.548387 
vt 0.555556 0.387097 
vt 0.587302 0.387097 
vt 0.571429 0.548387 
vt 0.587302 0.387097 
vt 0.492063 0.580645 
vt 0.571429 0.548387 
vt 0.587302 0.387097 
vt 0.492063 0.387097 
vt 0.492063 0.580645 
vt 0.555556 0.387097 
vt 0.428571 0.387097 
vt 0.396825 0.387097 
vt 0.555556 0.387097 
vt 0.396825 0.387097 
vt 0.492063 0.387097 
vt 0.555556 0.387097 
vt 0.492063 0.387097 
vt 0.587302 0.387097 
vt 0.539683 0.548387 
vt 0.571429 0.548387 
vt 0.492063 0.580645 
vt 0.539683 0.548387 
vt 0.492063 0.580645 
vt 0.412698 0.548387 
vt 0.539683 0.548387 
vt 0.412698 0.548387 
vt 0.444444 0.548387 
f 1/1/1 2/2/2 3/3/3
f 4/4/4 5/5/5 6/6/6
f 7/7/7 8/8/8 9/9/9
f 10/10/10 11/11/11 12/12/12
f 13/13/13 14/14/14 15/15/15
f 16/16/16 17/17/17 18/18/18
f 19/19/19 20/20/20 21/21/21
f 22/22/22 23/23/23 24/24/24
f 25/25/25 26/26/26 27/27/27
f 28/28/28 29/29/29 30/30/30
f 31/31/31 32/32/32 33/33/33
f 34/34/34 35/35/35 36/36/36
f 37/37/37 38/38/38 39/39/39
f 40/40/40 41/41/41 42/42/42
f 43/43/43 44/44/44 45/45/45
f 46/46/46 47/47/47 48/48/48
