v 27.000000 6.000000 0.000000 
v 27.000000 1.000000 -5.000000 
v 17.000000 0.000000 -4.000000 
v 17.000000 4.000000 0.000000 
v 27.000000 6.000000 0.000000 
v 17.000000 0.000000 -4.000000 
v 17.000000 0.000000 -4.000000 
v 27.000000 1.000000 -5.000000 
v 17.000000 -2.000000 0.000000 
v 27.000000 1.000000 4.000000 
v 27.000000 6.000000 0.000000 
v 17.000000 4.000000 0.000000 
v 17.000000 0.000000 3.000000 
v 27.000000 1.000000 4.000000 
v 17.000000 4.000000 0.000000 
v 27.000000 -3.000000 0.000000 
v 27.000000 1.000000 4.000000 
v 17.000000 0.000000 3.000000 
v 17.000000 -2.000000 0.000000 
v 27.000000 -3.000000 0.000000 
v 17.000000 0.000000 3.000000 
v 27.000000 1.000000 -5.000000 
v 27.000000 -3.000000 0.000000 
v 17.000000 -2.000000 0.000000 
v 27.000000 1.000000 -5.000000 
v 27.000000 6.000000 0.000000 
v 37.000000 1.000000 0.000000 
v 27.000000 -3.000000 0.000000 
v 27.000000 1.000000 -5.000000 
v 37.000000 1.000000 0.000000 
v 27.000000 6.000000 0.000000 
v 27.000000 1.000000 4.000000 
v 37.000000 1.000000 0.000000 
v 27.000000 1.000000 4.000000 
v 27.000000 -3.000000 0.000000 
v 37.000000 1.000000 0.000000 
vn 0.899902 0.435303 -0.019775 
vn 0.016357 -0.037354 -0.999023 
vn 0.113281 0.179932 -0.977051 
vn 0.831299 0.520996 0.192383 
vn 0.899902 0.435303 -0.019775 
vn 0.113281 0.179932 -0.977051 
vn 0.113281 0.179932 -0.977051 
vn 0.016357 -0.037354 -0.999023 
vn -0.824219 -0.531494 -0.193604 
vn 0.132568 -0.187500 0.973145 
vn 0.899902 0.435303 -0.019775 
vn 0.831299 0.520996 0.192383 
vn -0.106445 -0.190430 0.975830 
vn 0.132568 -0.187500 0.973145 
vn 0.831299 0.520996 0.192383 
vn -0.750977 -0.660156 -0.005859 
vn 0.132568 -0.187500 0.973145 
vn -0.106445 -0.190430 0.975830 
vn -0.824219 -0.531494 -0.193604 
vn -0.750977 -0.660156 -0.005859 
vn -0.106445 -0.190430 0.975830 
vn 0.016357 -0.037354 -0.999023 
vn -0.750977 -0.660156 -0.005859 
vn -0.824219 -0.531494 -0.193604 
vn 0.016357 -0.037354 -0.999023 
vn 0.899902 0.435303 -0.019775 
vn 0.549805 -0.829590 -0.095459 
vn -0.750977 -0.660156 -0.005859 
vn 0.016357 -0.037354 -0.999023 
vn 0.549805 -0.829590 -0.095459 
vn 0.899902 0.435303 -0.019775 
vn 0.132568 -0.187500 0.973145 
vn 0.549805 -0.829590 -0.095459 
vn 0.132568 -0.187500 0.973145 
vn -0.750977 -0.660156 -0.005859 
vn 0.549805 -0.829590 -0.095459 
vt 0.870968 1.000000 
vt 0.870968 -0.032258 
vt 0.741935 -0.032258 
vt 0.741935 1.000000 
vt 0.870968 1.000000 
vt 0.741935 -0.032258 
vt 0.741935 -0.032258 
vt 0.870968 -0.032258 
vt 0.741935 -0.032258 
vt 0.870968 1.000000 
vt 0.870968 1.000000 
vt 0.741935 1.000000 
vt 0.741935 1.000000 
vt 0.870968 1.000000 
vt 0.741935 1.000000 
vt 0.870968 -0.032258 
vt 0.870968 1.000000 
vt 0.741935 1.000000 
vt 0.741935 -0.032258 
vt 0.870968 -0.032258 
vt 0.741935 1.000000 
vt 0.870968 -0.032258 
vt 0.870968 -0.032258 
vt 0.741935 -0.032258 
vt 0.870968 -0.032258 
vt 0.870968 1.000000 
vt 1.000000 0.483871 
vt 0.870968 -0.032258 
vt 0.870968 -0.032258 
vt 1.000000 0.483871 
vt 0.870968 1.000000 
vt 0.870968 1.000000 
vt 1.000000 0.483871 
vt 0.870968 1.000000 
vt 0.870968 -0.032258 
vt 1.000000 0.483871 
f 1/1/1 2/2/2 3/3/3
f 4/4/4 5/5/5 6/6/6
f 7/7/7 8/8/8 9/9/9
f 10/10/10 11/11/11 12/12/12
f 13/13/13 14/14/14 15/15/15
f 16/16/16 17/17/17 18/18/18
f 19/19/19 20/20/20 21/21/21
f 22/22/22 23/23/23 24/24/24
f 25/25/25 26/26/26 27/27/27
f 28/28/28 29/29/29 30/30/30
f 31/31/31 32/32/32 33/33/33
f 34/34/34 35/35/35 36/36/36
