v -1.000000 20.000000 17.000000 
v -2.000000 0.000000 21.000000 
v 8.000000 0.000000 25.000000 
v 8.000000 0.000000 25.000000 
v -2.000000 0.000000 21.000000 
v -1.000000 -19.000000 17.000000 
v 8.000000 -21.000000 19.000000 
v -1.000000 -19.000000 17.000000 
v 0.000000 -27.000000 1.000000 
v -1.000000 -19.000000 17.000000 
v 8.000000 -21.000000 19.000000 
v 8.000000 0.000000 25.000000 
v -11.000000 7.000000 -19.000000 
v -11.000000 -8.000000 -19.000000 
v -11.000000 0.000000 16.000000 
v -11.000000 -8.000000 -19.000000 
v -3.000000 -24.000000 -16.000000 
v -11.000000 0.000000 16.000000 
v -3.000000 -24.000000 -16.000000 
v 0.000000 -27.000000 1.000000 
v -11.000000 0.000000 16.000000 
v -3.000000 24.000000 -16.000000 
v -11.000000 7.000000 -19.000000 
v -11.000000 0.000000 16.000000 
v 0.000000 27.000000 4.000000 
v -3.000000 24.000000 -16.000000 
v -11.000000 0.000000 16.000000 
v 10.000000 -25.000000 -15.000000 
v 8.000000 -29.000000 4.000000 
v 0.000000 -27.000000 1.000000 
v -3.000000 -24.000000 -16.000000 
v 10.000000 -25.000000 -15.000000 
v 0.000000 -27.000000 1.000000 
v 8.000000 -29.000000 4.000000 
v 8.000000 -21.000000 19.000000 
v 0.000000 -27.000000 1.000000 
v -11.000000 7.000000 -19.000000 
v -3.000000 24.000000 -16.000000 
v 3.000000 0.000000 -24.000000 
v -11.000000 -8.000000 -19.000000 
v -11.000000 7.000000 -19.000000 
v 3.000000 0.000000 -24.000000 
v -3.000000 -24.000000 -16.000000 
v -11.000000 -8.000000 -19.000000 
v 3.000000 0.000000 -24.000000 
v 12.000000 0.000000 -22.000000 
v 10.000000 -25.000000 -15.000000 
v -3.000000 -24.000000 -16.000000 
v 3.000000 0.000000 -24.000000 
v 12.000000 0.000000 -22.000000 
v -3.000000 -24.000000 -16.000000 
v 12.000000 0.000000 -22.000000 
v 3.000000 0.000000 -24.000000 
v -3.000000 24.000000 -16.000000 
v 8.000000 0.000000 25.000000 
v 8.000000 21.000000 19.000000 
v -1.000000 20.000000 17.000000 
v -1.000000 20.000000 17.000000 
v 8.000000 21.000000 19.000000 
v 0.000000 27.000000 4.000000 
v 8.000000 21.000000 19.000000 
v 7.000000 29.000000 6.000000 
v 0.000000 27.000000 4.000000 
v 10.000000 25.000000 -15.000000 
v -3.000000 24.000000 -16.000000 
v 0.000000 27.000000 4.000000 
v 7.000000 29.000000 6.000000 
v 10.000000 25.000000 -15.000000 
v 0.000000 27.000000 4.000000 
v 10.000000 25.000000 -15.000000 
v 12.000000 0.000000 -22.000000 
v -3.000000 24.000000 -16.000000 
v 22.000000 31.000000 8.000000 
v 21.000000 26.000000 -11.000000 
v 7.000000 29.000000 6.000000 
v 21.000000 26.000000 -11.000000 
v 10.000000 25.000000 -15.000000 
v 7.000000 29.000000 6.000000 
v 22.000000 31.000000 8.000000 
v 7.000000 29.000000 6.000000 
v 8.000000 21.000000 19.000000 
v 21.000000 26.000000 -11.000000 
v 22.000000 0.000000 -18.000000 
v 10.000000 25.000000 -15.000000 
v 22.000000 0.000000 -18.000000 
v 12.000000 0.000000 -22.000000 
v 10.000000 25.000000 -15.000000 
v 22.000000 0.000000 -18.000000 
v 21.000000 -26.000000 -11.000000 
v 12.000000 0.000000 -22.000000 
v 21.000000 -26.000000 -11.000000 
v 10.000000 -25.000000 -15.000000 
v 12.000000 0.000000 -22.000000 
v 21.000000 -26.000000 -11.000000 
v 22.000000 -31.000000 8.000000 
v 10.000000 -25.000000 -15.000000 
v 22.000000 -31.000000 8.000000 
v 8.000000 -29.000000 4.000000 
v 10.000000 -25.000000 -15.000000 
v 22.000000 -31.000000 8.000000 
v 23.000000 -22.000000 20.000000 
v 8.000000 -29.000000 4.000000 
v 23.000000 -22.000000 20.000000 
v 8.000000 -21.000000 19.000000 
v 8.000000 -29.000000 4.000000 
v 23.000000 -22.000000 20.000000 
v 24.000000 0.000000 27.000000 
v 8.000000 -21.000000 19.000000 
v 24.000000 0.000000 27.000000 
v 8.000000 0.000000 25.000000 
v 8.000000 -21.000000 19.000000 
v 24.000000 0.000000 27.000000 
v 23.000000 22.000000 20.000000 
v 8.000000 0.000000 25.000000 
v 23.000000 22.000000 20.000000 
v 8.000000 21.000000 19.000000 
v 8.000000 0.000000 25.000000 
v 23.000000 22.000000 20.000000 
v 22.000000 31.000000 8.000000 
v 8.000000 21.000000 19.000000 
vn 0.082520 0.569580 0.817627 
vn 0.099609 -0.031494 0.994385 
vn 0.114502 0.043945 0.992188 
vn 0.114502 0.043945 0.992188 
vn 0.099609 -0.031494 0.994385 
vn 0.078125 -0.591309 0.802490 
vn 0.083740 -0.658203 0.748047 
vn 0.078125 -0.591309 0.802490 
vn -0.011719 -0.987793 0.154297 
vn 0.078125 -0.591309 0.802490 
vn 0.083740 -0.658203 0.748047 
vn 0.114502 0.043945 0.992188 
vn -0.263428 -0.141113 -0.954102 
vn -0.257812 0.152588 -0.953857 
vn -0.107178 -0.071777 0.991455 
vn -0.257812 0.152588 -0.953857 
vn -0.126709 -0.753174 -0.645264 
vn -0.107178 -0.071777 0.991455 
vn -0.126709 -0.753174 -0.645264 
vn -0.011719 -0.987793 0.154297 
vn -0.107178 -0.071777 0.991455 
vn -0.130127 0.745117 -0.653809 
vn -0.263428 -0.141113 -0.954102 
vn -0.107178 -0.071777 0.991455 
vn -0.010010 0.985840 0.166260 
vn -0.130127 0.745117 -0.653809 
vn -0.107178 -0.071777 0.991455 
vn -0.064453 -0.865723 -0.496094 
vn 0.018799 -0.968262 0.248291 
vn -0.011719 -0.987793 0.154297 
vn -0.126709 -0.753174 -0.645264 
vn -0.064453 -0.865723 -0.496094 
vn -0.011719 -0.987793 0.154297 
vn 0.018799 -0.968262 0.248291 
vn 0.083740 -0.658203 0.748047 
vn -0.011719 -0.987793 0.154297 
vn -0.263428 -0.141113 -0.954102 
vn -0.130127 0.745117 -0.653809 
vn -0.135010 -0.002930 -0.990723 
vn -0.257812 0.152588 -0.953857 
vn -0.263428 -0.141113 -0.954102 
vn -0.135010 -0.002930 -0.990723 
vn -0.126709 -0.753174 -0.645264 
vn -0.257812 0.152588 -0.953857 
vn -0.135010 -0.002930 -0.990723 
vn -0.115234 -0.044189 -0.992188 
vn -0.064453 -0.865723 -0.496094 
vn -0.126709 -0.753174 -0.645264 
vn -0.135010 -0.002930 -0.990723 
vn -0.115234 -0.044189 -0.992188 
vn -0.126709 -0.753174 -0.645264 
vn -0.115234 -0.044189 -0.992188 
vn -0.135010 -0.002930 -0.990723 
vn -0.130127 0.745117 -0.653809 
vn 0.114502 0.043945 0.992188 
vn 0.078613 0.714111 0.695312 
vn 0.082520 0.569580 0.817627 
vn 0.082520 0.569580 0.817627 
vn 0.078613 0.714111 0.695312 
vn -0.010010 0.985840 0.166260 
vn 0.078613 0.714111 0.695312 
vn 0.002686 0.995117 0.098145 
vn -0.010010 0.985840 0.166260 
vn -0.078857 0.762451 -0.641846 
vn -0.130127 0.745117 -0.653809 
vn -0.010010 0.985840 0.166260 
vn 0.002686 0.995117 0.098145 
vn -0.078857 0.762451 -0.641846 
vn -0.010010 0.985840 0.166260 
vn -0.078857 0.762451 -0.641846 
vn -0.115234 -0.044189 -0.992188 
vn -0.130127 0.745117 -0.653809 
vn 0.027100 0.983887 0.175537 
vn -0.072266 0.750488 -0.656738 
vn 0.002686 0.995117 0.098145 
vn -0.072266 0.750488 -0.656738 
vn -0.078857 0.762451 -0.641846 
vn 0.002686 0.995117 0.098145 
vn 0.027100 0.983887 0.175537 
vn 0.002686 0.995117 0.098145 
vn 0.078613 0.714111 0.695312 
vn -0.072266 0.750488 -0.656738 
vn -0.109619 0.003174 -0.993896 
vn -0.078857 0.762451 -0.641846 
vn -0.109619 0.003174 -0.993896 
vn -0.115234 -0.044189 -0.992188 
vn -0.078857 0.762451 -0.641846 
vn -0.109619 0.003174 -0.993896 
vn -0.068604 -0.742188 -0.666260 
vn -0.115234 -0.044189 -0.992188 
vn -0.068604 -0.742188 -0.666260 
vn -0.064453 -0.865723 -0.496094 
vn -0.115234 -0.044189 -0.992188 
vn -0.068604 -0.742188 -0.666260 
vn 0.037109 -0.961426 0.271729 
vn -0.064453 -0.865723 -0.496094 
vn 0.037109 -0.961426 0.271729 
vn 0.018799 -0.968262 0.248291 
vn -0.064453 -0.865723 -0.496094 
vn 0.037109 -0.961426 0.271729 
vn 0.103760 -0.626221 0.772461 
vn 0.018799 -0.968262 0.248291 
vn 0.103760 -0.626221 0.772461 
vn 0.083740 -0.658203 0.748047 
vn 0.018799 -0.968262 0.248291 
vn 0.103760 -0.626221 0.772461 
vn 0.133057 0.013184 0.990967 
vn 0.083740 -0.658203 0.748047 
vn 0.133057 0.013184 0.990967 
vn 0.114502 0.043945 0.992188 
vn 0.083740 -0.658203 0.748047 
vn 0.133057 0.013184 0.990967 
vn 0.110107 0.583252 0.804688 
vn 0.114502 0.043945 0.992188 
vn 0.110107 0.583252 0.804688 
vn 0.078613 0.714111 0.695312 
vn 0.114502 0.043945 0.992188 
vn 0.110107 0.583252 0.804688 
vn 0.027100 0.983887 0.175537 
vn 0.078613 0.714111 0.695312 
vt 0.698413 0.285714 
vt 0.476190 0.269841 
vt 0.492063 0.380952 
vt 0.492063 0.380952 
vt 0.476190 0.269841 
vt 0.285714 0.253968 
vt 0.269841 0.365079 
vt 0.285714 0.253968 
vt 0.206349 0.238095 
vt 0.285714 0.253968 
vt 0.269841 0.365079 
vt 0.492063 0.380952 
vt 0.190476 0.126984 
vt 0.285714 0.142857 
vt 0.238095 0.142857 
vt 0.428571 0.349206 
vt 0.301587 0.396825 
vt 0.507937 0.555556 
vt 0.301587 0.396825 
vt 0.285714 0.492063 
vt 0.507937 0.555556 
vt 0.698413 0.396825 
vt 0.555556 0.349206 
vt 0.507937 0.555556 
vt 0.730159 0.507937 
vt 0.698413 0.396825 
vt 0.507937 0.555556 
vt 0.126984 0.253968 
vt 0.222222 0.301587 
vt 0.190476 0.253968 
vt 0.142857 0.206349 
vt 0.126984 0.253968 
vt 0.190476 0.253968 
vt 0.174603 0.349206 
vt 0.269841 0.365079 
vt 0.206349 0.238095 
vt 0.190476 0.126984 
vt 0.063492 0.174603 
vt 0.222222 0.222222 
vt 0.285714 0.142857 
vt 0.190476 0.126984 
vt 0.222222 0.222222 
vt 0.142857 0.206349 
vt 0.063492 0.126984 
vt 0.015873 0.174603 
vt 0.015873 0.222222 
vt 0.126984 0.253968 
vt 0.142857 0.206349 
vt 0.015873 0.174603 
vt 0.015873 0.222222 
vt 0.142857 0.206349 
vt 0.222222 0.269841 
vt 0.222222 0.222222 
vt 0.063492 0.174603 
vt 0.492063 0.380952 
vt 0.698413 0.396825 
vt 0.698413 0.285714 
vt 0.698413 0.285714 
vt 0.698413 0.396825 
vt 0.761905 0.285714 
vt 0.698413 0.396825 
vt 0.793651 0.380952 
vt 0.761905 0.285714 
vt 0.047619 0.253968 
vt 0.063492 0.174603 
vt 0.047619 0.190476 
vt 0.015873 0.238095 
vt 0.047619 0.253968 
vt 0.047619 0.190476 
vt 0.047619 0.253968 
vt 0.222222 0.269841 
vt 0.063492 0.174603 
vt 0.000000 0.317460 
vt 0.031746 0.317460 
vt 0.015873 0.238095 
vt 0.031746 0.317460 
vt 0.047619 0.253968 
vt 0.015873 0.238095 
vt 0.809524 0.555556 
vt 0.793651 0.380952 
vt 0.698413 0.396825 
vt 0.031746 0.317460 
vt 0.206349 0.333333 
vt 0.047619 0.253968 
vt 0.206349 0.333333 
vt 0.222222 0.269841 
vt 0.047619 0.253968 
vt 0.031746 0.269841 
vt 0.142857 0.317460 
vt 0.015873 0.222222 
vt 0.142857 0.317460 
vt 0.126984 0.253968 
vt 0.015873 0.222222 
vt 0.142857 0.317460 
vt 0.222222 0.380952 
vt 0.126984 0.253968 
vt 0.222222 0.380952 
vt 0.222222 0.301587 
vt 0.126984 0.253968 
vt 0.174603 0.507937 
vt 0.253968 0.539683 
vt 0.174603 0.349206 
vt 0.253968 0.539683 
vt 0.269841 0.365079 
vt 0.174603 0.349206 
vt 0.253968 0.539683 
vt 0.492063 0.571429 
vt 0.269841 0.365079 
vt 0.492063 0.571429 
vt 0.492063 0.380952 
vt 0.269841 0.365079 
vt 0.492063 0.571429 
vt 0.714286 0.571429 
vt 0.492063 0.380952 
vt 0.714286 0.571429 
vt 0.698413 0.396825 
vt 0.492063 0.380952 
vt 0.714286 0.571429 
vt 0.809524 0.555556 
vt 0.698413 0.396825 
f 1/1/1 2/2/2 3/3/3
f 4/4/4 5/5/5 6/6/6
f 7/7/7 8/8/8 9/9/9
f 10/10/10 11/11/11 12/12/12
f 13/13/13 14/14/14 15/15/15
f 16/16/16 17/17/17 18/18/18
f 19/19/19 20/20/20 21/21/21
f 22/22/22 23/23/23 24/24/24
f 25/25/25 26/26/26 27/27/27
f 28/28/28 29/29/29 30/30/30
f 31/31/31 32/32/32 33/33/33
f 34/34/34 35/35/35 36/36/36
f 37/37/37 38/38/38 39/39/39
f 40/40/40 41/41/41 42/42/42
f 43/43/43 44/44/44 45/45/45
f 46/46/46 47/47/47 48/48/48
f 49/49/49 50/50/50 51/51/51
f 52/52/52 53/53/53 54/54/54
f 55/55/55 56/56/56 57/57/57
f 58/58/58 59/59/59 60/60/60
f 61/61/61 62/62/62 63/63/63
f 64/64/64 65/65/65 66/66/66
f 67/67/67 68/68/68 69/69/69
f 70/70/70 71/71/71 72/72/72
f 73/73/73 74/74/74 75/75/75
f 76/76/76 77/77/77 78/78/78
f 79/79/79 80/80/80 81/81/81
f 82/82/82 83/83/83 84/84/84
f 85/85/85 86/86/86 87/87/87
f 88/88/88 89/89/89 90/90/90
f 91/91/91 92/92/92 93/93/93
f 94/94/94 95/95/95 96/96/96
f 97/97/97 98/98/98 99/99/99
f 100/100/100 101/101/101 102/102/102
f 103/103/103 104/104/104 105/105/105
f 106/106/106 107/107/107 108/108/108
f 109/109/109 110/110/110 111/111/111
f 112/112/112 113/113/113 114/114/114
f 115/115/115 116/116/116 117/117/117
f 118/118/118 119/119/119 120/120/120
