v -14.000000 5.000000 2.000000 
v -14.000000 1.000000 9.000000 
v 17.000000 5.000000 -2.000000 
v -14.000000 1.000000 9.000000 
v 17.000000 0.000000 5.000000 
v 17.000000 5.000000 -2.000000 
v -14.000000 1.000000 9.000000 
v -14.000000 -5.000000 6.000000 
v 17.000000 0.000000 5.000000 
v -14.000000 -5.000000 6.000000 
v 15.000000 -6.000000 2.000000 
v 17.000000 0.000000 5.000000 
v -14.000000 -5.000000 6.000000 
v -14.000000 -5.000000 -2.000000 
v 15.000000 -6.000000 2.000000 
v -14.000000 -5.000000 -2.000000 
v 13.000000 -6.000000 -7.000000 
v 15.000000 -6.000000 2.000000 
v -14.000000 -5.000000 -2.000000 
v -14.000000 1.000000 -4.000000 
v 13.000000 -6.000000 -7.000000 
v -14.000000 1.000000 -4.000000 
v 14.000000 1.000000 -10.000000 
v 13.000000 -6.000000 -7.000000 
v -14.000000 1.000000 -4.000000 
v -14.000000 5.000000 2.000000 
v 14.000000 1.000000 -10.000000 
v -14.000000 5.000000 2.000000 
v 17.000000 5.000000 -2.000000 
v 14.000000 1.000000 -10.000000 
v 17.000000 0.000000 5.000000 
v 15.000000 -6.000000 2.000000 
v 13.000000 -6.000000 -7.000000 
v 17.000000 5.000000 -2.000000 
v 17.000000 0.000000 5.000000 
v 13.000000 -6.000000 -7.000000 
v 14.000000 1.000000 -10.000000 
v 17.000000 5.000000 -2.000000 
v 13.000000 -6.000000 -7.000000 
v -14.000000 5.000000 2.000000 
v -14.000000 1.000000 -4.000000 
v -14.000000 -5.000000 -2.000000 
v -14.000000 1.000000 9.000000 
v -14.000000 5.000000 2.000000 
v -14.000000 -5.000000 -2.000000 
v -14.000000 -5.000000 6.000000 
v -14.000000 1.000000 9.000000 
v -14.000000 -5.000000 -2.000000 
vn 0.047119 0.983398 -0.173828 
vn 0.154053 0.568848 0.807617 
vn 0.114746 0.972900 0.199951 
vn 0.154053 0.568848 0.807617 
vn 0.119873 0.026855 0.992188 
vn 0.114746 0.972900 0.199951 
vn 0.154053 0.568848 0.807617 
vn -0.001465 -0.702393 0.711670 
vn 0.119873 0.026855 0.992188 
vn -0.001465 -0.702393 0.711670 
vn -0.076172 -0.939697 0.333008 
vn 0.119873 0.026855 0.992188 
vn -0.001465 -0.702393 0.711670 
vn -0.191162 -0.905762 -0.377441 
vn -0.076172 -0.939697 0.333008 
vn -0.191162 -0.905762 -0.377441 
vn -0.230713 -0.653320 -0.720947 
vn -0.076172 -0.939697 0.333008 
vn -0.191162 -0.905762 -0.377441 
vn -0.203613 0.077881 -0.975830 
vn -0.230713 -0.653320 -0.720947 
vn -0.203613 0.077881 -0.975830 
vn -0.109375 0.600586 -0.791748 
vn -0.230713 -0.653320 -0.720947 
vn -0.203613 0.077881 -0.975830 
vn 0.047119 0.983398 -0.173828 
vn -0.109375 0.600586 -0.791748 
vn 0.047119 0.983398 -0.173828 
vn 0.114746 0.972900 0.199951 
vn -0.109375 0.600586 -0.791748 
vn 0.979248 -0.117676 -0.163574 
vn 0.979248 -0.117676 -0.163574 
vn 0.979248 -0.117676 -0.163574 
vn 0.979248 -0.117676 -0.163574 
vn 0.979248 -0.117676 -0.163574 
vn 0.979248 -0.117676 -0.163574 
vn 0.979248 -0.117676 -0.163574 
vn 0.979248 -0.117676 -0.163574 
vn 0.979248 -0.117676 -0.163574 
vn -0.994629 -0.101074 0.019287 
vn -0.994629 -0.101074 0.019287 
vn -0.994629 -0.101074 0.019287 
vn -0.994385 -0.101562 0.020508 
vn -0.994385 -0.101562 0.020508 
vn -0.994385 -0.101562 0.020508 
vn -0.998779 -0.044434 -0.014160 
vn -0.998779 -0.044434 -0.014160 
vn -0.998779 -0.044434 -0.014160 
vt 0.507937 0.580645 
vt 0.428571 0.580645 
vt 0.523810 0.387097 
vt 0.428571 0.580645 
vt 0.412698 0.387097 
vt 0.523810 0.387097 
vt 0.428571 0.580645 
vt 0.396825 0.548387 
vt 0.412698 0.387097 
vt 0.396825 0.548387 
vt 0.396825 0.387097 
vt 0.412698 0.387097 
vt 0.396825 0.548387 
vt 0.476190 0.548387 
vt 0.396825 0.387097 
vt 0.476190 0.548387 
vt 0.492063 0.387097 
vt 0.396825 0.387097 
vt 0.476190 0.548387 
vt 0.539683 0.548387 
vt 0.492063 0.387097 
vt 0.539683 0.548387 
vt 0.571429 0.387097 
vt 0.492063 0.387097 
vt 0.539683 0.548387 
vt 0.507937 0.580645 
vt 0.571429 0.387097 
vt 0.507937 0.580645 
vt 0.523810 0.387097 
vt 0.571429 0.387097 
vt 0.412698 0.387097 
vt 0.396825 0.387097 
vt 0.492063 0.387097 
vt 0.523810 0.387097 
vt 0.412698 0.387097 
vt 0.492063 0.387097 
vt 0.571429 0.387097 
vt 0.523810 0.387097 
vt 0.492063 0.387097 
vt 0.507937 0.580645 
vt 0.539683 0.548387 
vt 0.476190 0.548387 
vt 0.428571 0.580645 
vt 0.507937 0.580645 
vt 0.476190 0.548387 
vt 0.396825 0.548387 
vt 0.428571 0.580645 
vt 0.476190 0.548387 
f 1/1/1 2/2/2 3/3/3
f 4/4/4 5/5/5 6/6/6
f 7/7/7 8/8/8 9/9/9
f 10/10/10 11/11/11 12/12/12
f 13/13/13 14/14/14 15/15/15
f 16/16/16 17/17/17 18/18/18
f 19/19/19 20/20/20 21/21/21
f 22/22/22 23/23/23 24/24/24
f 25/25/25 26/26/26 27/27/27
f 28/28/28 29/29/29 30/30/30
f 31/31/31 32/32/32 33/33/33
f 34/34/34 35/35/35 36/36/36
f 37/37/37 38/38/38 39/39/39
f 40/40/40 41/41/41 42/42/42
f 43/43/43 44/44/44 45/45/45
f 46/46/46 47/47/47 48/48/48
