v 20.000000 -12.000000 8.000000 
v 7.000000 -12.000000 -3.000000 
v 28.000000 -14.000000 -3.000000 
v 27.000000 1.000000 -7.000000 
v 28.000000 -14.000000 -3.000000 
v 7.000000 -12.000000 -3.000000 
v 7.000000 -12.000000 -3.000000 
v 7.000000 0.000000 -5.000000 
v 27.000000 1.000000 -7.000000 
v 6.000000 14.000000 -3.000000 
v 27.000000 1.000000 -7.000000 
v 7.000000 0.000000 -5.000000 
v 27.000000 1.000000 -7.000000 
v 6.000000 14.000000 -3.000000 
v 26.000000 18.000000 -4.000000 
v 19.000000 15.000000 8.000000 
v 26.000000 18.000000 -4.000000 
v 6.000000 14.000000 -3.000000 
v 0.000000 -8.000000 9.000000 
v 1.000000 1.000000 9.000000 
v -5.000000 1.000000 8.000000 
v 1.000000 1.000000 9.000000 
v -1.000000 10.000000 8.000000 
v -5.000000 1.000000 8.000000 
v 20.000000 -12.000000 8.000000 
v 19.000000 1.000000 9.000000 
v 1.000000 1.000000 9.000000 
v 1.000000 1.000000 9.000000 
v 0.000000 -8.000000 9.000000 
v 20.000000 -12.000000 8.000000 
v 1.000000 1.000000 9.000000 
v 19.000000 15.000000 8.000000 
v -1.000000 10.000000 8.000000 
v 19.000000 15.000000 8.000000 
v 1.000000 1.000000 9.000000 
v 19.000000 1.000000 9.000000 
v 29.000000 2.000000 9.000000 
v 38.000000 -14.000000 8.000000 
v 39.000000 2.000000 2.000000 
v 36.000000 19.000000 7.000000 
v 29.000000 2.000000 9.000000 
v 39.000000 2.000000 2.000000 
v 20.000000 -12.000000 8.000000 
v 29.000000 2.000000 9.000000 
v 19.000000 1.000000 9.000000 
v 29.000000 2.000000 9.000000 
v 20.000000 -12.000000 8.000000 
v 38.000000 -14.000000 8.000000 
v 29.000000 2.000000 9.000000 
v 36.000000 19.000000 7.000000 
v 19.000000 15.000000 8.000000 
v 19.000000 15.000000 8.000000 
v 19.000000 1.000000 9.000000 
v 29.000000 2.000000 9.000000 
v 38.000000 -14.000000 8.000000 
v 28.000000 -14.000000 -3.000000 
v 39.000000 2.000000 2.000000 
v 28.000000 -14.000000 -3.000000 
v 38.000000 -14.000000 8.000000 
v 20.000000 -12.000000 8.000000 
v 28.000000 -14.000000 -3.000000 
v 27.000000 1.000000 -7.000000 
v 39.000000 2.000000 2.000000 
v 27.000000 1.000000 -7.000000 
v 26.000000 18.000000 -4.000000 
v 39.000000 2.000000 2.000000 
v 26.000000 18.000000 -4.000000 
v 36.000000 19.000000 7.000000 
v 39.000000 2.000000 2.000000 
v 26.000000 18.000000 -4.000000 
v 19.000000 15.000000 8.000000 
v 36.000000 19.000000 7.000000 
vn -0.702637 -0.531494 0.472900 
vn -0.622070 -0.719727 -0.307861 
vn 0.524658 -0.715088 -0.461670 
vn 0.538574 0.089600 -0.837646 
vn 0.524658 -0.715088 -0.461670 
vn -0.622070 -0.719727 -0.307861 
vn -0.622070 -0.719727 -0.307861 
vn 0.939453 0.178711 -0.291992 
vn 0.538574 0.089600 -0.837646 
vn 0.053467 0.896729 -0.439209 
vn 0.538574 0.089600 -0.837646 
vn 0.939453 0.178711 -0.291992 
vn 0.538574 0.089600 -0.837646 
vn 0.053467 0.896729 -0.439209 
vn 0.741943 0.613770 -0.269287 
vn -0.290771 0.705078 0.646484 
vn 0.741943 0.613770 -0.269287 
vn 0.053467 0.896729 -0.439209 
vn -0.832031 -0.339600 0.438232 
vn -0.294922 -0.041260 0.954346 
vn -0.948975 -0.173096 0.262939 
vn -0.294922 -0.041260 0.954346 
vn -0.825195 0.174805 0.536865 
vn -0.948975 -0.173096 0.262939 
vn -0.702637 -0.531494 0.472900 
vn -0.282227 -0.038574 0.958496 
vn -0.294922 -0.041260 0.954346 
vn -0.294922 -0.041260 0.954346 
vn -0.832031 -0.339600 0.438232 
vn -0.702637 -0.531494 0.472900 
vn -0.294922 -0.041260 0.954346 
vn -0.290771 0.705078 0.646484 
vn -0.825195 0.174805 0.536865 
vn -0.290771 0.705078 0.646484 
vn -0.294922 -0.041260 0.954346 
vn -0.282227 -0.038574 0.958496 
vn 0.630859 0.129883 0.764648 
vn 0.934570 -0.130371 0.330811 
vn 0.981201 0.183105 -0.057617 
vn 0.883057 0.416748 0.215088 
vn 0.630859 0.129883 0.764648 
vn 0.981201 0.183105 -0.057617 
vn -0.702637 -0.531494 0.472900 
vn 0.630859 0.129883 0.764648 
vn -0.282227 -0.038574 0.958496 
vn 0.630859 0.129883 0.764648 
vn -0.702637 -0.531494 0.472900 
vn 0.934570 -0.130371 0.330811 
vn 0.630859 0.129883 0.764648 
vn 0.883057 0.416748 0.215088 
vn -0.290771 0.705078 0.646484 
vn -0.290771 0.705078 0.646484 
vn -0.282227 -0.038574 0.958496 
vn 0.630859 0.129883 0.764648 
vn 0.934570 -0.130371 0.330811 
vn 0.524658 -0.715088 -0.461670 
vn 0.981201 0.183105 -0.057617 
vn 0.524658 -0.715088 -0.461670 
vn 0.934570 -0.130371 0.330811 
vn -0.702637 -0.531494 0.472900 
vn 0.524658 -0.715088 -0.461670 
vn 0.538574 0.089600 -0.837646 
vn 0.981201 0.183105 -0.057617 
vn 0.538574 0.089600 -0.837646 
vn 0.741943 0.613770 -0.269287 
vn 0.981201 0.183105 -0.057617 
vn 0.741943 0.613770 -0.269287 
vn 0.883057 0.416748 0.215088 
vn 0.981201 0.183105 -0.057617 
vn 0.741943 0.613770 -0.269287 
vn -0.290771 0.705078 0.646484 
vn 0.883057 0.416748 0.215088 
vt 0.417323 0.062992 
vt 0.527559 0.000000 
vt 0.204724 0.007874 
vt 0.314961 0.165354 
vt 0.204724 0.007874 
vt 0.527559 0.000000 
vt 0.527559 0.000000 
vt 0.511811 0.141732 
vt 0.314961 0.165354 
vt 0.551181 0.307087 
vt 0.314961 0.165354 
vt 0.511811 0.141732 
vt 0.314961 0.165354 
vt 0.551181 0.307087 
vt 0.196850 0.338583 
vt 0.740157 0.055118 
vt 0.196850 0.338583 
vt 0.551181 0.307087 
vt 0.622047 0.125984 
vt 0.559055 0.047244 
vt 0.511811 0.062992 
vt 0.559055 0.047244 
vt 0.543307 0.055118 
vt 0.511811 0.062992 
vt 0.417323 0.062992 
vt 0.724409 0.047244 
vt 0.559055 0.047244 
vt 0.559055 0.047244 
vt 0.622047 0.125984 
vt 0.417323 0.062992 
vt 0.559055 0.047244 
vt 0.740157 0.055118 
vt 0.543307 0.055118 
vt 0.740157 0.055118 
vt 0.559055 0.047244 
vt 0.724409 0.047244 
vt 0.000000 0.165354 
vt 0.000000 0.007874 
vt 0.047244 0.165354 
vt 0.000000 0.338583 
vt 0.000000 0.165354 
vt 0.047244 0.165354 
vt 0.417323 0.062992 
vt 0.000000 0.165354 
vt 0.724409 0.047244 
vt 0.000000 0.165354 
vt 0.417323 0.062992 
vt 0.000000 0.007874 
vt 0.000000 0.165354 
vt 0.000000 0.338583 
vt 0.740157 0.055118 
vt 0.740157 0.055118 
vt 0.724409 0.047244 
vt 0.000000 0.165354 
vt 0.000000 0.007874 
vt 0.204724 0.007874 
vt 0.047244 0.165354 
vt 0.204724 0.007874 
vt 0.000000 0.007874 
vt 0.417323 0.062992 
vt 0.204724 0.007874 
vt 0.314961 0.165354 
vt 0.047244 0.165354 
vt 0.314961 0.165354 
vt 0.196850 0.338583 
vt 0.047244 0.165354 
vt 0.196850 0.338583 
vt 0.000000 0.338583 
vt 0.047244 0.165354 
vt 0.196850 0.338583 
vt 0.740157 0.055118 
vt 0.000000 0.338583 
f 1/1/1 2/2/2 3/3/3
f 4/4/4 5/5/5 6/6/6
f 7/7/7 8/8/8 9/9/9
f 10/10/10 11/11/11 12/12/12
f 13/13/13 14/14/14 15/15/15
f 16/16/16 17/17/17 18/18/18
f 19/19/19 20/20/20 21/21/21
f 22/22/22 23/23/23 24/24/24
f 25/25/25 26/26/26 27/27/27
f 28/28/28 29/29/29 30/30/30
f 31/31/31 32/32/32 33/33/33
f 34/34/34 35/35/35 36/36/36
f 37/37/37 38/38/38 39/39/39
f 40/40/40 41/41/41 42/42/42
f 43/43/43 44/44/44 45/45/45
f 46/46/46 47/47/47 48/48/48
f 49/49/49 50/50/50 51/51/51
f 52/52/52 53/53/53 54/54/54
f 55/55/55 56/56/56 57/57/57
f 58/58/58 59/59/59 60/60/60
f 61/61/61 62/62/62 63/63/63
f 64/64/64 65/65/65 66/66/66
f 67/67/67 68/68/68 69/69/69
f 70/70/70 71/71/71 72/72/72
