v 7.000000 -10.000000 -4.000000 
v 8.000000 0.000000 -7.000000 
v 14.000000 1.000000 -8.000000 
v 8.000000 0.000000 -7.000000 
v 7.000000 11.000000 -5.000000 
v 14.000000 1.000000 -8.000000 
v 14.000000 -10.000000 -2.000000 
v 7.000000 -10.000000 -4.000000 
v 14.000000 1.000000 -8.000000 
v 14.000000 -15.000000 20.000000 
v 7.000000 -10.000000 -4.000000 
v 14.000000 -10.000000 -2.000000 
v 7.000000 -10.000000 -4.000000 
v 14.000000 -15.000000 20.000000 
v 5.000000 -14.000000 9.000000 
v 5.000000 -14.000000 9.000000 
v 14.000000 -15.000000 20.000000 
v 5.000000 -18.000000 29.000000 
v 5.000000 -18.000000 29.000000 
v 1.000000 0.000000 29.000000 
v 5.000000 -14.000000 9.000000 
v 5.000000 15.000000 8.000000 
v 14.000000 15.000000 20.000000 
v 7.000000 11.000000 -5.000000 
v 5.000000 15.000000 8.000000 
v 1.000000 0.000000 29.000000 
v 5.000000 18.000000 29.000000 
v 5.000000 18.000000 29.000000 
v 14.000000 15.000000 20.000000 
v 5.000000 15.000000 8.000000 
v 7.000000 11.000000 -5.000000 
v 14.000000 12.000000 -2.000000 
v 14.000000 1.000000 -8.000000 
v 14.000000 12.000000 -2.000000 
v 7.000000 11.000000 -5.000000 
v 14.000000 15.000000 20.000000 
v 16.000000 0.000000 0.000000 
v 14.000000 -10.000000 -2.000000 
v 14.000000 1.000000 -8.000000 
v 14.000000 12.000000 -2.000000 
v 16.000000 0.000000 0.000000 
v 14.000000 1.000000 -8.000000 
v 17.000000 0.000000 20.000000 
v 14.000000 -15.000000 20.000000 
v 16.000000 0.000000 0.000000 
v 14.000000 -10.000000 -2.000000 
v 16.000000 0.000000 0.000000 
v 14.000000 -15.000000 20.000000 
v 14.000000 15.000000 20.000000 
v 16.000000 0.000000 0.000000 
v 14.000000 12.000000 -2.000000 
v 16.000000 0.000000 0.000000 
v 14.000000 15.000000 20.000000 
v 17.000000 0.000000 20.000000 
v 14.000000 -19.000000 38.000000 
v 17.000000 0.000000 30.000000 
v 9.000000 0.000000 41.000000 
v 17.000000 0.000000 30.000000 
v 14.000000 18.000000 37.000000 
v 9.000000 0.000000 41.000000 
v 17.000000 0.000000 30.000000 
v 14.000000 -15.000000 20.000000 
v 17.000000 0.000000 20.000000 
v 14.000000 -15.000000 20.000000 
v 17.000000 0.000000 30.000000 
v 14.000000 -19.000000 38.000000 
v 14.000000 18.000000 37.000000 
v 17.000000 0.000000 30.000000 
v 14.000000 15.000000 20.000000 
v 17.000000 0.000000 20.000000 
v 14.000000 15.000000 20.000000 
v 17.000000 0.000000 30.000000 
v 5.000000 -18.000000 29.000000 
v 14.000000 -19.000000 38.000000 
v 9.000000 0.000000 41.000000 
v 14.000000 -19.000000 38.000000 
v 5.000000 -18.000000 29.000000 
v 14.000000 -15.000000 20.000000 
v 1.000000 0.000000 29.000000 
v 5.000000 -18.000000 29.000000 
v 9.000000 0.000000 41.000000 
v 5.000000 18.000000 29.000000 
v 1.000000 0.000000 29.000000 
v 9.000000 0.000000 41.000000 
v 14.000000 18.000000 37.000000 
v 5.000000 18.000000 29.000000 
v 9.000000 0.000000 41.000000 
v 14.000000 15.000000 20.000000 
v 5.000000 18.000000 29.000000 
v 14.000000 18.000000 37.000000 
vn -0.015625 -0.327881 -0.944580 
vn -0.030762 -0.116211 -0.992676 
vn 0.131104 -0.125732 -0.983154 
vn -0.030762 -0.116211 -0.992676 
vn -0.017334 0.291748 -0.956055 
vn 0.131104 -0.125732 -0.983154 
vn 0.277344 -0.319580 -0.905762 
vn -0.015625 -0.327881 -0.944580 
vn 0.131104 -0.125732 -0.983154 
vn 0.389160 -0.491943 -0.778564 
vn -0.015625 -0.327881 -0.944580 
vn 0.277344 -0.319580 -0.905762 
vn -0.015625 -0.327881 -0.944580 
vn 0.389160 -0.491943 -0.778564 
vn -0.313232 -0.614502 -0.723877 
vn -0.313232 -0.614502 -0.723877 
vn 0.389160 -0.491943 -0.778564 
vn -0.539307 -0.761475 0.358887 
vn -0.539307 -0.761475 0.358887 
vn -0.879395 0.063477 0.471680 
vn -0.313232 -0.614502 -0.723877 
vn -0.427734 0.903320 -0.021240 
vn 0.631104 0.738037 -0.238281 
vn -0.017334 0.291748 -0.956055 
vn -0.427734 0.903320 -0.021240 
vn -0.879395 0.063477 0.471680 
vn -0.253418 0.578369 0.775146 
vn -0.253418 0.578369 0.775146 
vn 0.631104 0.738037 -0.238281 
vn -0.427734 0.903320 -0.021240 
vn -0.017334 0.291748 -0.956055 
vn 0.386963 0.230713 -0.892578 
vn 0.131104 -0.125732 -0.983154 
vn 0.386963 0.230713 -0.892578 
vn -0.017334 0.291748 -0.956055 
vn 0.631104 0.738037 -0.238281 
vn 0.794434 -0.077637 -0.602051 
vn 0.277344 -0.319580 -0.905762 
vn 0.131104 -0.125732 -0.983154 
vn 0.386963 0.230713 -0.892578 
vn 0.794434 -0.077637 -0.602051 
vn 0.131104 -0.125732 -0.983154 
vn 0.955811 -0.036377 -0.290771 
vn 0.389160 -0.491943 -0.778564 
vn 0.794434 -0.077637 -0.602051 
vn 0.277344 -0.319580 -0.905762 
vn 0.794434 -0.077637 -0.602051 
vn 0.389160 -0.491943 -0.778564 
vn 0.631104 0.738037 -0.238281 
vn 0.794434 -0.077637 -0.602051 
vn 0.386963 0.230713 -0.892578 
vn 0.794434 -0.077637 -0.602051 
vn 0.631104 0.738037 -0.238281 
vn 0.955811 -0.036377 -0.290771 
vn 0.371094 -0.274902 0.886719 
vn 0.793701 0.079590 0.602783 
vn -0.052979 0.127930 0.990234 
vn 0.793701 0.079590 0.602783 
vn 0.236328 0.395508 0.887451 
vn -0.052979 0.127930 0.990234 
vn 0.793701 0.079590 0.602783 
vn 0.389160 -0.491943 -0.778564 
vn 0.955811 -0.036377 -0.290771 
vn 0.389160 -0.491943 -0.778564 
vn 0.793701 0.079590 0.602783 
vn 0.371094 -0.274902 0.886719 
vn 0.236328 0.395508 0.887451 
vn 0.793701 0.079590 0.602783 
vn 0.631104 0.738037 -0.238281 
vn 0.955811 -0.036377 -0.290771 
vn 0.631104 0.738037 -0.238281 
vn 0.793701 0.079590 0.602783 
vn -0.539307 -0.761475 0.358887 
vn 0.371094 -0.274902 0.886719 
vn -0.052979 0.127930 0.990234 
vn 0.371094 -0.274902 0.886719 
vn -0.539307 -0.761475 0.358887 
vn 0.389160 -0.491943 -0.778564 
vn -0.879395 0.063477 0.471680 
vn -0.539307 -0.761475 0.358887 
vn -0.052979 0.127930 0.990234 
vn -0.253418 0.578369 0.775146 
vn -0.879395 0.063477 0.471680 
vn -0.052979 0.127930 0.990234 
vn 0.236328 0.395508 0.887451 
vn -0.253418 0.578369 0.775146 
vn -0.052979 0.127930 0.990234 
vn 0.631104 0.738037 -0.238281 
vn -0.253418 0.578369 0.775146 
vn 0.236328 0.395508 0.887451 
vt 0.574803 0.094488 
vt 0.566929 0.086614 
vt 0.559055 0.055118 
vt 0.566929 0.086614 
vt 0.598425 0.094488 
vt 0.559055 0.055118 
vt 0.590551 0.047244 
vt 0.574803 0.094488 
vt 0.559055 0.055118 
vt 0.417323 0.070866 
vt 0.574803 0.094488 
vt 0.590551 0.047244 
vt 0.574803 0.094488 
vt 0.417323 0.070866 
vt 0.401575 0.000000 
vt 0.401575 0.000000 
vt 0.417323 0.070866 
vt 0.125984 0.000000 
vt 0.125984 0.000000 
vt 0.259843 0.181102 
vt 0.401575 0.000000 
vt 0.401575 0.338583 
vt 0.102362 0.425197 
vt 0.598425 0.094488 
vt 0.401575 0.338583 
vt 0.259843 0.181102 
vt 0.070866 0.346457 
vt 0.070866 0.346457 
vt 0.102362 0.425197 
vt 0.401575 0.338583 
vt 0.598425 0.094488 
vt 0.614173 0.047244 
vt 0.559055 0.055118 
vt 0.614173 0.047244 
vt 0.598425 0.094488 
vt 0.102362 0.425197 
vt 0.629921 0.039370 
vt 0.590551 0.047244 
vt 0.559055 0.055118 
vt 0.614173 0.047244 
vt 0.629921 0.039370 
vt 0.559055 0.055118 
vt 0.795276 0.031496 
vt 0.417323 0.070866 
vt 0.629921 0.039370 
vt 0.590551 0.047244 
vt 0.629921 0.039370 
vt 0.417323 0.070866 
vt 0.102362 0.425197 
vt 0.629921 0.039370 
vt 0.614173 0.047244 
vt 0.629921 0.039370 
vt 0.102362 0.425197 
vt 0.795276 0.031496 
vt 0.000000 0.000000 
vt 0.000000 0.173228 
vt 0.039370 0.181102 
vt 0.000000 0.173228 
vt 0.000000 0.346457 
vt 0.039370 0.181102 
vt 0.000000 0.173228 
vt 0.417323 0.070866 
vt 0.795276 0.031496 
vt 0.417323 0.070866 
vt 0.000000 0.173228 
vt 0.000000 0.000000 
vt 0.000000 0.346457 
vt 0.000000 0.173228 
vt 0.102362 0.425197 
vt 0.795276 0.031496 
vt 0.102362 0.425197 
vt 0.000000 0.173228 
vt 0.125984 0.000000 
vt 0.000000 0.000000 
vt 0.039370 0.181102 
vt 0.000000 0.000000 
vt 0.125984 0.000000 
vt 0.417323 0.070866 
vt 0.259843 0.181102 
vt 0.125984 0.000000 
vt 0.039370 0.181102 
vt 0.070866 0.346457 
vt 0.259843 0.181102 
vt 0.039370 0.181102 
vt 0.000000 0.346457 
vt 0.070866 0.346457 
vt 0.039370 0.181102 
vt 0.102362 0.425197 
vt 0.070866 0.346457 
vt 0.000000 0.346457 
f 1/1/1 2/2/2 3/3/3
f 4/4/4 5/5/5 6/6/6
f 7/7/7 8/8/8 9/9/9
f 10/10/10 11/11/11 12/12/12
f 13/13/13 14/14/14 15/15/15
f 16/16/16 17/17/17 18/18/18
f 19/19/19 20/20/20 21/21/21
f 22/22/22 23/23/23 24/24/24
f 25/25/25 26/26/26 27/27/27
f 28/28/28 29/29/29 30/30/30
f 31/31/31 32/32/32 33/33/33
f 34/34/34 35/35/35 36/36/36
f 37/37/37 38/38/38 39/39/39
f 40/40/40 41/41/41 42/42/42
f 43/43/43 44/44/44 45/45/45
f 46/46/46 47/47/47 48/48/48
f 49/49/49 50/50/50 51/51/51
f 52/52/52 53/53/53 54/54/54
f 55/55/55 56/56/56 57/57/57
f 58/58/58 59/59/59 60/60/60
f 61/61/61 62/62/62 63/63/63
f 64/64/64 65/65/65 66/66/66
f 67/67/67 68/68/68 69/69/69
f 70/70/70 71/71/71 72/72/72
f 73/73/73 74/74/74 75/75/75
f 76/76/76 77/77/77 78/78/78
f 79/79/79 80/80/80 81/81/81
f 82/82/82 83/83/83 84/84/84
f 85/85/85 86/86/86 87/87/87
f 88/88/88 89/89/89 90/90/90
