v 7.000000 0.000000 -23.000000 
v 32.000000 -17.000000 -14.000000 
v 5.000000 -18.000000 -15.000000 
v 32.000000 17.000000 -14.000000 
v 7.000000 0.000000 -23.000000 
v 5.000000 19.000000 -15.000000 
vn -0.687256 -0.006104 -0.726074 
vn -0.746582 -0.347168 -0.567139 
vn -0.558838 -0.507568 -0.655273 
vn -0.804932 0.247559 -0.538818 
vn -0.687256 -0.006104 -0.726074 
vn -0.558838 0.507568 -0.655273 
vt 0.488189 0.094488 
vt 0.685039 0.653543 
vt 0.685039 0.070866 
vt 0.685039 0.653543 
vt 0.488189 0.094488 
vt 0.685039 0.070866 
f 1/1/1 2/2/2 3/3/3
f 4/4/4 5/5/5 6/6/6
