v 3.000000 -4.000000 -11.000000 
v 7.000000 -3.000000 -5.000000 
v -3.000000 -2.000000 0.000000 
v 7.000000 -3.000000 -5.000000 
v 6.000000 2.000000 7.000000 
v -3.000000 -2.000000 0.000000 
v 48.000000 -8.000000 1.000000 
v 7.000000 -3.000000 -5.000000 
v 3.000000 -4.000000 -11.000000 
v 48.000000 -8.000000 1.000000 
v 46.000000 -4.000000 16.000000 
v 7.000000 -3.000000 -5.000000 
v 46.000000 -4.000000 16.000000 
v 6.000000 2.000000 7.000000 
v 7.000000 -3.000000 -5.000000 
v 46.000000 -4.000000 16.000000 
v 44.000000 5.000000 22.000000 
v 6.000000 2.000000 7.000000 
vn 0.854248 -0.516113 0.057617 
vn 0.224365 -0.287354 0.930908 
vn 0.170898 -0.218750 0.960449 
vn 0.224365 -0.287354 0.930908 
vn 0.141357 -0.199951 0.969482 
vn 0.170898 -0.218750 0.960449 
vn 0.561523 -0.430908 0.706055 
vn 0.224365 -0.287354 0.930908 
vn 0.854248 -0.516113 0.057617 
vn 0.561523 -0.430908 0.706055 
vn 0.164062 -0.175537 0.970459 
vn 0.224365 -0.287354 0.930908 
vn 0.164062 -0.175537 0.970459 
vn 0.141357 -0.199951 0.969482 
vn 0.224365 -0.287354 0.930908 
vn 0.164062 -0.175537 0.970459 
vn -0.275146 0.113525 0.954590 
vn 0.141357 -0.199951 0.969482 
vt 0.606299 0.842520 
vt 0.724409 0.779528 
vt 0.771654 0.960630 
vt 0.724409 0.779528 
vt 0.905512 0.811024 
vt 0.771654 0.960630 
vt 0.590551 0.000000 
vt 0.724409 0.779528 
vt 0.606299 0.842520 
vt 0.590551 0.000000 
vt 0.952756 0.023622 
vt 0.724409 0.779528 
vt 0.952756 0.023622 
vt 0.905512 0.811024 
vt 0.724409 0.779528 
vt 0.952756 0.023622 
vt 0.944882 0.385827 
vt 0.905512 0.811024 
f 1/1/1 2/2/2 3/3/3
f 4/4/4 5/5/5 6/6/6
f 7/7/7 8/8/8 9/9/9
f 10/10/10 11/11/11 12/12/12
f 13/13/13 14/14/14 15/15/15
f 16/16/16 17/17/17 18/18/18
