v 2.000000 -12.000000 -17.000000 
v 5.000000 0.000000 -20.000000 
v 39.000000 0.000000 -28.000000 
v 5.000000 0.000000 -20.000000 
v 2.000000 12.000000 -17.000000 
v 39.000000 0.000000 -28.000000 
v 20.000000 -29.000000 10.000000 
v -4.000000 -17.000000 -5.000000 
v 2.000000 -12.000000 -17.000000 
v 30.000000 -25.000000 0.000000 
v 20.000000 -29.000000 10.000000 
v 2.000000 -12.000000 -17.000000 
v 7.000000 -27.000000 29.000000 
v -2.000000 -18.000000 26.000000 
v -4.000000 -17.000000 -5.000000 
v 20.000000 -29.000000 10.000000 
v 7.000000 -27.000000 29.000000 
v -4.000000 -17.000000 -5.000000 
v 65.000000 -11.000000 13.000000 
v 59.000000 -18.000000 5.000000 
v 57.000000 0.000000 -12.000000 
v 66.000000 0.000000 14.000000 
v 65.000000 -11.000000 13.000000 
v 57.000000 0.000000 -12.000000 
v 39.000000 0.000000 -28.000000 
v 46.000000 14.000000 -18.000000 
v 57.000000 0.000000 -12.000000 
v 59.000000 18.000000 5.000000 
v 65.000000 11.000000 13.000000 
v 57.000000 0.000000 -12.000000 
v 65.000000 11.000000 13.000000 
v 66.000000 0.000000 14.000000 
v 57.000000 0.000000 -12.000000 
v 2.000000 12.000000 -17.000000 
v 46.000000 14.000000 -18.000000 
v 39.000000 0.000000 -28.000000 
v 52.000000 -12.000000 35.000000 
v 45.000000 -26.000000 27.000000 
v 59.000000 -18.000000 5.000000 
v 65.000000 -11.000000 13.000000 
v 52.000000 -12.000000 35.000000 
v 59.000000 -18.000000 5.000000 
v 54.000000 0.000000 35.000000 
v 52.000000 -12.000000 35.000000 
v 65.000000 -11.000000 13.000000 
v 66.000000 0.000000 14.000000 
v 54.000000 0.000000 35.000000 
v 65.000000 -11.000000 13.000000 
v 54.000000 0.000000 35.000000 
v 66.000000 0.000000 14.000000 
v 65.000000 11.000000 13.000000 
v 41.000000 -31.000000 53.000000 
v 20.000000 -29.000000 10.000000 
v 30.000000 -25.000000 0.000000 
v 45.000000 -26.000000 27.000000 
v 41.000000 -31.000000 53.000000 
v 30.000000 -25.000000 0.000000 
v 57.000000 -21.000000 68.000000 
v 41.000000 -31.000000 53.000000 
v 45.000000 -26.000000 27.000000 
v 52.000000 -12.000000 35.000000 
v 57.000000 -21.000000 68.000000 
v 45.000000 -26.000000 27.000000 
v 65.000000 0.000000 74.000000 
v 57.000000 -21.000000 68.000000 
v 52.000000 -12.000000 35.000000 
v 54.000000 0.000000 35.000000 
v 65.000000 0.000000 74.000000 
v 52.000000 -12.000000 35.000000 
v 52.000000 13.000000 35.000000 
v 54.000000 0.000000 35.000000 
v 65.000000 11.000000 13.000000 
v 65.000000 0.000000 74.000000 
v 54.000000 0.000000 35.000000 
v 52.000000 13.000000 35.000000 
v 22.000000 -28.000000 61.000000 
v 7.000000 -27.000000 29.000000 
v 20.000000 -29.000000 10.000000 
v 41.000000 -31.000000 53.000000 
v 22.000000 -28.000000 61.000000 
v 20.000000 -29.000000 10.000000 
v 27.000000 -17.000000 74.000000 
v 22.000000 -28.000000 61.000000 
v 41.000000 -31.000000 53.000000 
v 57.000000 -21.000000 68.000000 
v 27.000000 -17.000000 74.000000 
v 41.000000 -31.000000 53.000000 
v 29.000000 0.000000 81.000000 
v 27.000000 -17.000000 74.000000 
v 57.000000 -21.000000 68.000000 
v 65.000000 0.000000 74.000000 
v 29.000000 0.000000 81.000000 
v 57.000000 -21.000000 68.000000 
v 57.000000 21.000000 68.000000 
v 65.000000 0.000000 74.000000 
v 52.000000 13.000000 35.000000 
v 29.000000 0.000000 81.000000 
v 65.000000 0.000000 74.000000 
v 57.000000 21.000000 68.000000 
v 27.000000 18.000000 74.000000 
v 29.000000 0.000000 81.000000 
v 57.000000 21.000000 68.000000 
v 2.000000 12.000000 -17.000000 
v 30.000000 25.000000 0.000000 
v 46.000000 14.000000 -18.000000 
v -4.000000 17.000000 -5.000000 
v 20.000000 29.000000 10.000000 
v 2.000000 12.000000 -17.000000 
v 20.000000 29.000000 10.000000 
v 30.000000 25.000000 0.000000 
v 2.000000 12.000000 -17.000000 
v -2.000000 18.000000 26.000000 
v 7.000000 27.000000 29.000000 
v -4.000000 17.000000 -5.000000 
v 7.000000 27.000000 29.000000 
v 20.000000 29.000000 10.000000 
v -4.000000 17.000000 -5.000000 
v 43.000000 19.000000 3.000000 
v 30.000000 17.000000 -27.000000 
v 46.000000 14.000000 -18.000000 
v 45.000000 26.000000 27.000000 
v 52.000000 13.000000 35.000000 
v 59.000000 18.000000 5.000000 
v 52.000000 13.000000 35.000000 
v 65.000000 11.000000 13.000000 
v 59.000000 18.000000 5.000000 
v 20.000000 29.000000 10.000000 
v 41.000000 31.000000 53.000000 
v 30.000000 25.000000 0.000000 
v 41.000000 31.000000 53.000000 
v 45.000000 26.000000 27.000000 
v 30.000000 25.000000 0.000000 
v 41.000000 31.000000 53.000000 
v 57.000000 21.000000 68.000000 
v 45.000000 26.000000 27.000000 
v 57.000000 21.000000 68.000000 
v 52.000000 13.000000 35.000000 
v 45.000000 26.000000 27.000000 
v 7.000000 27.000000 29.000000 
v 22.000000 29.000000 61.000000 
v 20.000000 29.000000 10.000000 
v 22.000000 29.000000 61.000000 
v 41.000000 31.000000 53.000000 
v 20.000000 29.000000 10.000000 
v 22.000000 29.000000 61.000000 
v 27.000000 18.000000 74.000000 
v 41.000000 31.000000 53.000000 
v 27.000000 18.000000 74.000000 
v 57.000000 21.000000 68.000000 
v 41.000000 31.000000 53.000000 
vn -0.321533 -0.309570 -0.894531 
vn -0.453613 -0.020752 -0.890869 
vn -0.340332 0.000000 -0.940186 
vn -0.453613 -0.020752 -0.890869 
vn -0.321533 0.309570 -0.894531 
vn -0.340332 0.000000 -0.940186 
vn -0.349854 -0.654785 -0.669678 
vn -0.023682 -0.926758 0.374268 
vn -0.321533 -0.309570 -0.894531 
vn -0.281494 -0.599609 -0.749023 
vn -0.349854 -0.654785 -0.669678 
vn -0.321533 -0.309570 -0.894531 
vn -0.493164 -0.611328 -0.618652 
vn -0.837402 -0.450439 -0.308838 
vn -0.023682 -0.926758 0.374268 
vn -0.349854 -0.654785 -0.669678 
vn -0.493164 -0.611328 -0.618652 
vn -0.023682 -0.926758 0.374268 
vn 0.674316 -0.124023 0.727539 
vn 0.716553 -0.371338 0.590332 
vn 0.651611 0.000000 -0.758301 
vn 0.700439 0.000000 0.713623 
vn 0.674316 -0.124023 0.727539 
vn 0.651611 0.000000 -0.758301 
vn -0.340332 0.000000 -0.940186 
vn -0.222900 0.103027 -0.969238 
vn 0.651611 0.000000 -0.758301 
vn 0.716553 0.371338 0.590332 
vn 0.674316 0.124023 0.727539 
vn 0.651611 0.000000 -0.758301 
vn 0.674316 0.124023 0.727539 
vn 0.700439 0.000000 0.713623 
vn 0.651611 0.000000 -0.758301 
vn -0.321533 0.309570 -0.894531 
vn -0.222900 0.103027 -0.969238 
vn -0.340332 0.000000 -0.940186 
vn 0.663330 -0.163086 0.730225 
vn 0.574219 -0.641357 0.508545 
vn 0.716553 -0.371338 0.590332 
vn 0.674316 -0.124023 0.727539 
vn 0.663330 -0.163086 0.730225 
vn 0.716553 -0.371338 0.590332 
vn 0.617188 0.000000 0.786621 
vn 0.663330 -0.163086 0.730225 
vn 0.674316 -0.124023 0.727539 
vn 0.700439 0.000000 0.713623 
vn 0.617188 0.000000 0.786621 
vn 0.674316 -0.124023 0.727539 
vn 0.617188 0.000000 0.786621 
vn 0.700439 0.000000 0.713623 
vn 0.674316 0.124023 0.727539 
vn 0.368164 -0.742188 0.559570 
vn -0.349854 -0.654785 -0.669678 
vn -0.281494 -0.599609 -0.749023 
vn 0.574219 -0.641357 0.508545 
vn 0.368164 -0.742188 0.559570 
vn -0.281494 -0.599609 -0.749023 
vn 0.559570 -0.224121 0.797607 
vn 0.368164 -0.742188 0.559570 
vn 0.574219 -0.641357 0.508545 
vn 0.663330 -0.163086 0.730225 
vn 0.559570 -0.224121 0.797607 
vn 0.574219 -0.641357 0.508545 
vn 0.671143 0.000000 0.740967 
vn 0.559570 -0.224121 0.797607 
vn 0.663330 -0.163086 0.730225 
vn 0.617188 0.000000 0.786621 
vn 0.671143 0.000000 0.740967 
vn 0.663330 -0.163086 0.730225 
vn 0.663330 0.163086 0.729980 
vn 0.617188 0.000000 0.786621 
vn 0.674316 0.124023 0.727539 
vn 0.671143 0.000000 0.740967 
vn 0.617188 0.000000 0.786621 
vn 0.663330 0.163086 0.729980 
vn 0.164062 -0.853271 0.494385 
vn -0.493164 -0.611328 -0.618652 
vn -0.349854 -0.654785 -0.669678 
vn 0.368164 -0.742188 0.559570 
vn 0.164062 -0.853271 0.494385 
vn -0.349854 -0.654785 -0.669678 
vn 0.407471 -0.194336 0.892090 
vn 0.164062 -0.853271 0.494385 
vn 0.368164 -0.742188 0.559570 
vn 0.559570 -0.224121 0.797607 
vn 0.407471 -0.194336 0.892090 
vn 0.368164 -0.742188 0.559570 
vn 0.417969 0.000000 0.908203 
vn 0.407471 -0.194336 0.892090 
vn 0.559570 -0.224121 0.797607 
vn 0.671143 0.000000 0.740967 
vn 0.417969 0.000000 0.908203 
vn 0.559570 -0.224121 0.797607 
vn 0.559570 0.224121 0.797607 
vn 0.671143 0.000000 0.740967 
vn 0.663330 0.163086 0.729980 
vn 0.417969 0.000000 0.908203 
vn 0.671143 0.000000 0.740967 
vn 0.559570 0.224121 0.797607 
vn 0.407471 0.194336 0.892090 
vn 0.417969 0.000000 0.908203 
vn 0.559570 0.224121 0.797607 
vn -0.321533 0.309570 -0.894531 
vn -0.281494 0.599609 -0.749023 
vn -0.222900 0.103027 -0.969238 
vn -0.023682 0.926758 0.374268 
vn -0.349854 0.654785 -0.669678 
vn -0.321533 0.309570 -0.894531 
vn -0.349854 0.654785 -0.669678 
vn -0.281494 0.599609 -0.749023 
vn -0.321533 0.309570 -0.894531 
vn -0.837402 0.450439 -0.308838 
vn -0.493164 0.611328 -0.618652 
vn -0.023682 0.926758 0.374268 
vn -0.493164 0.611328 -0.618652 
vn -0.349854 0.654785 -0.669678 
vn -0.023682 0.926758 0.374268 
vn 0.381348 -0.263184 0.885986 
vn -0.627686 -0.300049 -0.718018 
vn -0.222900 0.103027 -0.969238 
vn 0.574219 0.641357 0.508545 
vn 0.663330 0.163086 0.729980 
vn 0.716553 0.371338 0.590332 
vn 0.663330 0.163086 0.729980 
vn 0.674316 0.124023 0.727539 
vn 0.716553 0.371338 0.590332 
vn -0.349854 0.654785 -0.669678 
vn 0.368164 0.742188 0.559570 
vn -0.281494 0.599609 -0.749023 
vn 0.368164 0.742188 0.559570 
vn 0.574219 0.641357 0.508545 
vn -0.281494 0.599609 -0.749023 
vn 0.368164 0.742188 0.559570 
vn 0.559570 0.224121 0.797607 
vn 0.574219 0.641357 0.508545 
vn 0.559570 0.224121 0.797607 
vn 0.663330 0.163086 0.729980 
vn 0.574219 0.641357 0.508545 
vn -0.493164 0.611328 -0.618652 
vn 0.164062 0.853516 0.494385 
vn -0.349854 0.654785 -0.669678 
vn 0.164062 0.853516 0.494385 
vn 0.368164 0.742188 0.559570 
vn -0.349854 0.654785 -0.669678 
vn 0.164062 0.853516 0.494385 
vn 0.407471 0.194336 0.892090 
vn 0.368164 0.742188 0.559570 
vn 0.407471 0.194336 0.892090 
vn 0.559570 0.224121 0.797607 
vn 0.368164 0.742188 0.559570 
vt 0.637795 0.984252 
vt 0.488189 0.984252 
vt 0.488189 0.700787 
vt 0.488189 0.984252 
vt 0.637795 0.984252 
vt 0.488189 0.700787 
vt 0.314961 0.417323 
vt 0.472441 0.708661 
vt 0.637795 0.984252 
vt 0.881890 0.236220 
vt 0.314961 0.417323 
vt 0.637795 0.984252 
vt 0.000000 0.385827 
vt 0.000000 0.763780 
vt 0.472441 0.708661 
vt 0.314961 0.417323 
vt 0.000000 0.385827 
vt 0.472441 0.708661 
vt 0.614173 0.685039 
vt 0.566929 0.527559 
vt 0.614173 0.433071 
vt 0.771654 0.929134 
vt 0.614173 0.685039 
vt 0.614173 0.433071 
vt 0.488189 0.700787 
vt 0.629921 0.677165 
vt 0.614173 0.433071 
vt 0.566929 0.527559 
vt 0.614173 0.685039 
vt 0.614173 0.433071 
vt 0.614173 0.685039 
vt 0.771654 0.929134 
vt 0.614173 0.433071 
vt 0.637795 0.984252 
vt 0.629921 0.677165 
vt 0.488189 0.700787 
vt 0.795276 0.566929 
vt 0.763780 0.393701 
vt 0.566929 0.527559 
vt 0.614173 0.685039 
vt 0.795276 0.566929 
vt 0.566929 0.527559 
vt 0.834646 0.811024 
vt 0.795276 0.566929 
vt 0.614173 0.685039 
vt 0.771654 0.929134 
vt 0.834646 0.811024 
vt 0.614173 0.685039 
vt 0.834646 0.811024 
vt 0.771654 0.929134 
vt 0.614173 0.685039 
vt 0.330709 0.590551 
vt 0.314961 0.417323 
vt 0.881890 0.236220 
vt 0.763780 0.393701 
vt 0.330709 0.590551 
vt 0.881890 0.236220 
vt 0.299213 0.732283 
vt 0.330709 0.590551 
vt 0.763780 0.393701 
vt 0.795276 0.566929 
vt 0.299213 0.732283 
vt 0.763780 0.393701 
vt 0.330709 1.000000 
vt 0.299213 0.732283 
vt 0.795276 0.566929 
vt 0.834646 0.811024 
vt 0.330709 1.000000 
vt 0.795276 0.566929 
vt 0.795276 0.566929 
vt 0.834646 0.811024 
vt 0.614173 0.685039 
vt 0.330709 1.000000 
vt 0.834646 0.811024 
vt 0.795276 0.566929 
vt 0.000000 0.590551 
vt 0.000000 0.385827 
vt 0.314961 0.417323 
vt 0.330709 0.590551 
vt 0.000000 0.590551 
vt 0.314961 0.417323 
vt 0.000000 0.732283 
vt 0.000000 0.590551 
vt 0.330709 0.590551 
vt 0.299213 0.732283 
vt 0.000000 0.732283 
vt 0.330709 0.590551 
vt 0.000000 1.000000 
vt 0.000000 0.732283 
vt 0.299213 0.732283 
vt 0.330709 1.000000 
vt 0.000000 1.000000 
vt 0.299213 0.732283 
vt 0.299213 0.732283 
vt 0.330709 1.000000 
vt 0.795276 0.566929 
vt 0.000000 1.000000 
vt 0.330709 1.000000 
vt 0.299213 0.732283 
vt 0.000000 0.732283 
vt 0.000000 1.000000 
vt 0.299213 0.732283 
vt 0.637795 0.984252 
vt 0.881890 0.236220 
vt 0.629921 0.677165 
vt 0.472441 0.708661 
vt 0.314961 0.417323 
vt 0.637795 0.984252 
vt 0.314961 0.417323 
vt 0.881890 0.236220 
vt 0.637795 0.984252 
vt 0.000000 0.763780 
vt 0.000000 0.385827 
vt 0.472441 0.708661 
vt 0.000000 0.385827 
vt 0.314961 0.417323 
vt 0.472441 0.708661 
vt 0.559055 0.944882 
vt 0.905512 0.913386 
vt 0.771654 0.960630 
vt 0.763780 0.393701 
vt 0.795276 0.566929 
vt 0.566929 0.527559 
vt 0.795276 0.566929 
vt 0.614173 0.685039 
vt 0.566929 0.527559 
vt 0.314961 0.417323 
vt 0.330709 0.590551 
vt 0.881890 0.236220 
vt 0.330709 0.590551 
vt 0.763780 0.393701 
vt 0.881890 0.236220 
vt 0.330709 0.590551 
vt 0.299213 0.732283 
vt 0.763780 0.393701 
vt 0.299213 0.732283 
vt 0.795276 0.566929 
vt 0.763780 0.393701 
vt 0.000000 0.385827 
vt 0.000000 0.590551 
vt 0.314961 0.417323 
vt 0.000000 0.590551 
vt 0.330709 0.590551 
vt 0.314961 0.417323 
vt 0.000000 0.590551 
vt 0.000000 0.732283 
vt 0.330709 0.590551 
vt 0.000000 0.732283 
vt 0.299213 0.732283 
vt 0.330709 0.590551 
f 1/1/1 2/2/2 3/3/3
f 4/4/4 5/5/5 6/6/6
f 7/7/7 8/8/8 9/9/9
f 10/10/10 11/11/11 12/12/12
f 13/13/13 14/14/14 15/15/15
f 16/16/16 17/17/17 18/18/18
f 19/19/19 20/20/20 21/21/21
f 22/22/22 23/23/23 24/24/24
f 25/25/25 26/26/26 27/27/27
f 28/28/28 29/29/29 30/30/30
f 31/31/31 32/32/32 33/33/33
f 34/34/34 35/35/35 36/36/36
f 37/37/37 38/38/38 39/39/39
f 40/40/40 41/41/41 42/42/42
f 43/43/43 44/44/44 45/45/45
f 46/46/46 47/47/47 48/48/48
f 49/49/49 50/50/50 51/51/51
f 52/52/52 53/53/53 54/54/54
f 55/55/55 56/56/56 57/57/57
f 58/58/58 59/59/59 60/60/60
f 61/61/61 62/62/62 63/63/63
f 64/64/64 65/65/65 66/66/66
f 67/67/67 68/68/68 69/69/69
f 70/70/70 71/71/71 72/72/72
f 73/73/73 74/74/74 75/75/75
f 76/76/76 77/77/77 78/78/78
f 79/79/79 80/80/80 81/81/81
f 82/82/82 83/83/83 84/84/84
f 85/85/85 86/86/86 87/87/87
f 88/88/88 89/89/89 90/90/90
f 91/91/91 92/92/92 93/93/93
f 94/94/94 95/95/95 96/96/96
f 97/97/97 98/98/98 99/99/99
f 100/100/100 101/101/101 102/102/102
f 103/103/103 104/104/104 105/105/105
f 106/106/106 107/107/107 108/108/108
f 109/109/109 110/110/110 111/111/111
f 112/112/112 113/113/113 114/114/114
f 115/115/115 116/116/116 117/117/117
f 118/118/118 119/119/119 120/120/120
f 121/121/121 122/122/122 123/123/123
f 124/124/124 125/125/125 126/126/126
f 127/127/127 128/128/128 129/129/129
f 130/130/130 131/131/131 132/132/132
f 133/133/133 134/134/134 135/135/135
f 136/136/136 137/137/137 138/138/138
f 139/139/139 140/140/140 141/141/141
f 142/142/142 143/143/143 144/144/144
f 145/145/145 146/146/146 147/147/147
f 148/148/148 149/149/149 150/150/150
