v 3.000000 -17.000000 -13.000000 
v -14.000000 0.000000 -23.000000 
v 4.000000 0.000000 -21.000000 
v -14.000000 0.000000 -23.000000 
v 3.000000 18.000000 -13.000000 
v 4.000000 0.000000 -21.000000 
v -14.000000 0.000000 -23.000000 
v 3.000000 -17.000000 -13.000000 
v -15.000000 -16.000000 -17.000000 
v 2.000000 -29.000000 1.000000 
v -15.000000 -16.000000 -17.000000 
v 3.000000 -17.000000 -13.000000 
v 3.000000 18.000000 -13.000000 
v -14.000000 0.000000 -23.000000 
v -15.000000 16.000000 -17.000000 
v -15.000000 16.000000 -17.000000 
v 2.000000 29.000000 1.000000 
v 3.000000 18.000000 -13.000000 
vn -0.324219 -0.665283 -0.672119 
vn -0.403320 0.000000 -0.915039 
vn -0.547852 0.000000 -0.836426 
vn -0.403320 0.000000 -0.915039 
vn -0.324219 0.665283 -0.672119 
vn -0.547852 0.000000 -0.836426 
vn -0.403320 0.000000 -0.915039 
vn -0.324219 -0.665283 -0.672119 
vn -0.548584 -0.581055 -0.600830 
vn 0.585693 -0.807617 -0.065430 
vn -0.548584 -0.581055 -0.600830 
vn -0.324219 -0.665283 -0.672119 
vn -0.324219 0.665283 -0.672119 
vn -0.403320 0.000000 -0.915039 
vn -0.548584 0.581055 -0.600830 
vn -0.548584 0.581055 -0.600830 
vn 0.585693 0.807617 -0.065430 
vn -0.324219 0.665283 -0.672119 
vt 0.677165 0.653543 
vt 0.488189 0.984252 
vt 0.488189 0.677165 
vt 0.488189 0.984252 
vt 0.677165 0.653543 
vt 0.488189 0.677165 
vt 0.488189 0.984252 
vt 0.677165 0.653543 
vt 0.669291 0.897638 
vt 0.889764 0.582677 
vt 0.669291 0.897638 
vt 0.677165 0.653543 
vt 0.677165 0.653543 
vt 0.488189 0.984252 
vt 0.669291 0.897638 
vt 0.669291 0.897638 
vt 0.889764 0.582677 
vt 0.677165 0.653543 
f 1/1/1 2/2/2 3/3/3
f 4/4/4 5/5/5 6/6/6
f 7/7/7 8/8/8 9/9/9
f 10/10/10 11/11/11 12/12/12
f 13/13/13 14/14/14 15/15/15
f 16/16/16 17/17/17 18/18/18
