v -8.000000 -16.000000 -1.000000 
v 0.000000 -19.000000 3.000000 
v 0.000000 0.000000 11.000000 
v -20.000000 0.000000 5.000000 
v -8.000000 -16.000000 -1.000000 
v 0.000000 0.000000 11.000000 
v -16.000000 -7.000000 -9.000000 
v -8.000000 -16.000000 -1.000000 
v -20.000000 0.000000 5.000000 
v -27.000000 3.000000 -10.000000 
v -16.000000 -7.000000 -9.000000 
v -20.000000 0.000000 5.000000 
v -16.000000 -7.000000 -25.000000 
v -16.000000 -7.000000 -9.000000 
v -27.000000 3.000000 -10.000000 
v -27.000000 7.000000 -38.000000 
v -16.000000 -7.000000 -25.000000 
v -27.000000 3.000000 -10.000000 
v -14.000000 -7.000000 -38.000000 
v -16.000000 -7.000000 -25.000000 
v -27.000000 7.000000 -38.000000 
v -19.000000 5.000000 -52.000000 
v -14.000000 -7.000000 -38.000000 
v -27.000000 7.000000 -38.000000 
v 0.000000 -9.000000 -45.000000 
v -14.000000 -7.000000 -38.000000 
v -19.000000 5.000000 -52.000000 
v 0.000000 5.000000 -58.000000 
v 0.000000 -9.000000 -45.000000 
v -19.000000 5.000000 -52.000000 
v 14.000000 -7.000000 -38.000000 
v 0.000000 -9.000000 -45.000000 
v 0.000000 5.000000 -58.000000 
v 18.000000 5.000000 -52.000000 
v 14.000000 -7.000000 -38.000000 
v 0.000000 5.000000 -58.000000 
v 16.000000 -7.000000 -25.000000 
v 14.000000 -7.000000 -38.000000 
v 18.000000 5.000000 -52.000000 
v 27.000000 7.000000 -39.000000 
v 16.000000 -7.000000 -25.000000 
v 18.000000 5.000000 -52.000000 
v 16.000000 -7.000000 -9.000000 
v 16.000000 -7.000000 -25.000000 
v 27.000000 7.000000 -39.000000 
v 27.000000 4.000000 -11.000000 
v 16.000000 -7.000000 -9.000000 
v 27.000000 7.000000 -39.000000 
v 9.000000 -16.000000 -1.000000 
v 16.000000 -7.000000 -9.000000 
v 27.000000 4.000000 -11.000000 
v 20.000000 0.000000 5.000000 
v 9.000000 -16.000000 -1.000000 
v 27.000000 4.000000 -11.000000 
v 0.000000 -19.000000 3.000000 
v 9.000000 -16.000000 -1.000000 
v 20.000000 0.000000 5.000000 
v 0.000000 0.000000 11.000000 
v 0.000000 -19.000000 3.000000 
v 20.000000 0.000000 5.000000 
v 0.000000 -19.000000 3.000000 
v -8.000000 -16.000000 -1.000000 
v 0.000000 -11.000000 -13.000000 
v -8.000000 -16.000000 -1.000000 
v -16.000000 -7.000000 -9.000000 
v 0.000000 -11.000000 -13.000000 
v -16.000000 -7.000000 -9.000000 
v -16.000000 -7.000000 -25.000000 
v 0.000000 -11.000000 -13.000000 
v -16.000000 -7.000000 -25.000000 
v -14.000000 -7.000000 -38.000000 
v 0.000000 -11.000000 -13.000000 
v -14.000000 -7.000000 -38.000000 
v 0.000000 -9.000000 -45.000000 
v 0.000000 -11.000000 -13.000000 
v 0.000000 -9.000000 -45.000000 
v 14.000000 -7.000000 -38.000000 
v 0.000000 -11.000000 -13.000000 
v 14.000000 -7.000000 -38.000000 
v 16.000000 -7.000000 -25.000000 
v 0.000000 -11.000000 -13.000000 
v 16.000000 -7.000000 -25.000000 
v 16.000000 -7.000000 -9.000000 
v 0.000000 -11.000000 -13.000000 
v 16.000000 -7.000000 -9.000000 
v 9.000000 -16.000000 -1.000000 
v 0.000000 -11.000000 -13.000000 
v 9.000000 -16.000000 -1.000000 
v 0.000000 -19.000000 3.000000 
v 0.000000 -11.000000 -13.000000 
vn -0.479004 -0.855469 0.196045 
vn 0.057617 -0.912354 0.404785 
vn -0.180664 -0.447998 0.875488 
vn -0.583740 -0.723145 0.368652 
vn -0.479004 -0.855469 0.196045 
vn -0.180664 -0.447998 0.875488 
vn -0.548340 -0.833496 -0.065674 
vn -0.479004 -0.855469 0.196045 
vn -0.583740 -0.723145 0.368652 
vn -0.685547 -0.727539 0.018799 
vn -0.548340 -0.833496 -0.065674 
vn -0.583740 -0.723145 0.368652 
vn -0.521240 -0.851807 -0.049561 
vn -0.548340 -0.833496 -0.065674 
vn -0.685547 -0.727539 0.018799 
vn -0.684326 -0.703613 -0.189941 
vn -0.521240 -0.851807 -0.049561 
vn -0.685547 -0.727539 0.018799 
vn -0.427490 -0.871338 -0.239990 
vn -0.521240 -0.851807 -0.049561 
vn -0.684326 -0.703613 -0.189941 
vn -0.409668 -0.720947 -0.558594 
vn -0.427490 -0.871338 -0.239990 
vn -0.684326 -0.703613 -0.189941 
vn -0.033936 -0.883301 -0.467041 
vn -0.427490 -0.871338 -0.239990 
vn -0.409668 -0.720947 -0.558594 
vn 0.129395 -0.699219 -0.702881 
vn -0.033936 -0.883301 -0.467041 
vn -0.409668 -0.720947 -0.558594 
vn 0.396729 -0.848633 -0.349609 
vn -0.033936 -0.883301 -0.467041 
vn 0.129395 -0.699219 -0.702881 
vn 0.559082 -0.729736 -0.393311 
vn 0.396729 -0.848633 -0.349609 
vn 0.129395 -0.699219 -0.702881 
vn 0.552979 -0.825439 -0.111816 
vn 0.396729 -0.848633 -0.349609 
vn 0.559082 -0.729736 -0.393311 
vn 0.668213 -0.731689 -0.132568 
vn 0.552979 -0.825439 -0.111816 
vn 0.559082 -0.729736 -0.393311 
vn 0.557129 -0.818604 -0.138184 
vn 0.552979 -0.825439 -0.111816 
vn 0.668213 -0.731689 -0.132568 
vn 0.691162 -0.722412 -0.001221 
vn 0.557129 -0.818604 -0.138184 
vn 0.668213 -0.731689 -0.132568 
vn 0.507568 -0.858154 -0.073486 
vn 0.557129 -0.818604 -0.138184 
vn 0.691162 -0.722412 -0.001221 
vn 0.530273 -0.637695 0.558594 
vn 0.507568 -0.858154 -0.073486 
vn 0.691162 -0.722412 -0.001221 
vn 0.057617 -0.912354 0.404785 
vn 0.507568 -0.858154 -0.073486 
vn 0.530273 -0.637695 0.558594 
vn -0.180664 -0.447998 0.875488 
vn 0.057617 -0.912354 0.404785 
vn 0.530273 -0.637695 0.558594 
vn 0.057617 -0.912354 0.404785 
vn -0.479004 -0.855469 0.196045 
vn 0.000000 -0.976562 -0.214111 
vn -0.479004 -0.855469 0.196045 
vn -0.548340 -0.833496 -0.065674 
vn 0.000000 -0.976562 -0.214111 
vn -0.548340 -0.833496 -0.065674 
vn -0.521240 -0.851807 -0.049561 
vn 0.000000 -0.976562 -0.214111 
vn -0.521240 -0.851807 -0.049561 
vn -0.427490 -0.871338 -0.239990 
vn 0.000000 -0.976562 -0.214111 
vn -0.427490 -0.871338 -0.239990 
vn -0.033936 -0.883301 -0.467041 
vn 0.000000 -0.976562 -0.214111 
vn -0.033936 -0.883301 -0.467041 
vn 0.396729 -0.848633 -0.349609 
vn 0.000000 -0.976562 -0.214111 
vn 0.396729 -0.848633 -0.349609 
vn 0.552979 -0.825439 -0.111816 
vn 0.000000 -0.976562 -0.214111 
vn 0.552979 -0.825439 -0.111816 
vn 0.557129 -0.818604 -0.138184 
vn 0.000000 -0.976562 -0.214111 
vn 0.557129 -0.818604 -0.138184 
vn 0.507568 -0.858154 -0.073486 
vn 0.000000 -0.976562 -0.214111 
vn 0.507568 -0.858154 -0.073486 
vn 0.057617 -0.912354 0.404785 
vn 0.000000 -0.976562 -0.214111 
vt 0.086614 0.929134 
vt 0.496063 1.000000 
vt 0.000000 1.000000 
vt 0.000000 0.803150 
vt 0.086614 0.929134 
vt 0.000000 1.000000 
vt 0.188976 0.944882 
vt 0.086614 0.929134 
vt 0.000000 0.803150 
vt 0.000000 0.606299 
vt 0.188976 0.944882 
vt 0.000000 0.803150 
vt 0.188976 0.818898 
vt 0.188976 0.944882 
vt 0.000000 0.606299 
vt 0.000000 0.480315 
vt 0.188976 0.818898 
vt 0.000000 0.606299 
vt 0.188976 0.574803 
vt 0.188976 0.818898 
vt 0.000000 0.480315 
vt 0.000000 0.385827 
vt 0.188976 0.574803 
vt 0.000000 0.480315 
vt 0.188976 0.385827 
vt 0.188976 0.574803 
vt 0.000000 0.385827 
vt 0.000000 0.275591 
vt 0.188976 0.385827 
vt 0.000000 0.385827 
vt 0.188976 0.574803 
vt 0.188976 0.385827 
vt 0.000000 0.275591 
vt 0.000000 0.574803 
vt 0.188976 0.574803 
vt 0.000000 0.275591 
vt 0.188976 0.716535 
vt 0.188976 0.574803 
vt 0.000000 0.574803 
vt 0.000000 0.740157 
vt 0.188976 0.716535 
vt 0.000000 0.574803 
vt 0.188976 0.866142 
vt 0.188976 0.716535 
vt 0.000000 0.740157 
vt 0.000000 0.874016 
vt 0.188976 0.866142 
vt 0.000000 0.740157 
vt 0.181102 0.937008 
vt 0.188976 0.866142 
vt 0.000000 0.874016 
vt 0.000000 0.952756 
vt 0.181102 0.937008 
vt 0.000000 0.874016 
vt 0.496063 1.000000 
vt 0.181102 0.937008 
vt 0.000000 0.952756 
vt 0.000000 1.000000 
vt 0.496063 1.000000 
vt 0.000000 0.952756 
vt 0.496063 1.000000 
vt 0.086614 0.929134 
vt 0.464567 0.582677 
vt 0.086614 0.929134 
vt 0.188976 0.944882 
vt 0.464567 0.582677 
vt 0.188976 0.944882 
vt 0.188976 0.818898 
vt 0.464567 0.582677 
vt 0.188976 0.818898 
vt 0.188976 0.574803 
vt 0.464567 0.582677 
vt 0.188976 0.574803 
vt 0.188976 0.385827 
vt 0.464567 0.582677 
vt 0.188976 0.385827 
vt 0.188976 0.574803 
vt 0.464567 0.582677 
vt 0.188976 0.574803 
vt 0.188976 0.716535 
vt 0.464567 0.582677 
vt 0.188976 0.716535 
vt 0.188976 0.866142 
vt 0.464567 0.582677 
vt 0.188976 0.866142 
vt 0.181102 0.937008 
vt 0.464567 0.582677 
vt 0.181102 0.937008 
vt 0.496063 1.000000 
vt 0.464567 0.582677 
f 1/1/1 2/2/2 3/3/3
f 4/4/4 5/5/5 6/6/6
f 7/7/7 8/8/8 9/9/9
f 10/10/10 11/11/11 12/12/12
f 13/13/13 14/14/14 15/15/15
f 16/16/16 17/17/17 18/18/18
f 19/19/19 20/20/20 21/21/21
f 22/22/22 23/23/23 24/24/24
f 25/25/25 26/26/26 27/27/27
f 28/28/28 29/29/29 30/30/30
f 31/31/31 32/32/32 33/33/33
f 34/34/34 35/35/35 36/36/36
f 37/37/37 38/38/38 39/39/39
f 40/40/40 41/41/41 42/42/42
f 43/43/43 44/44/44 45/45/45
f 46/46/46 47/47/47 48/48/48
f 49/49/49 50/50/50 51/51/51
f 52/52/52 53/53/53 54/54/54
f 55/55/55 56/56/56 57/57/57
f 58/58/58 59/59/59 60/60/60
f 61/61/61 62/62/62 63/63/63
f 64/64/64 65/65/65 66/66/66
f 67/67/67 68/68/68 69/69/69
f 70/70/70 71/71/71 72/72/72
f 73/73/73 74/74/74 75/75/75
f 76/76/76 77/77/77 78/78/78
f 79/79/79 80/80/80 81/81/81
f 82/82/82 83/83/83 84/84/84
f 85/85/85 86/86/86 87/87/87
f 88/88/88 89/89/89 90/90/90
