v 24.000000 -7.000000 -10.000000 
v 24.000000 0.000000 -12.000000 
v 32.000000 0.000000 0.000000 
v 24.000000 -12.000000 -4.000000 
v 24.000000 -7.000000 -10.000000 
v 32.000000 0.000000 0.000000 
v 24.000000 -12.000000 1.000000 
v 24.000000 -12.000000 -4.000000 
v 32.000000 0.000000 0.000000 
v 24.000000 -7.000000 7.000000 
v 24.000000 -12.000000 1.000000 
v 32.000000 0.000000 0.000000 
v 24.000000 0.000000 9.000000 
v 24.000000 -7.000000 7.000000 
v 32.000000 0.000000 0.000000 
v 24.000000 7.000000 7.000000 
v 24.000000 0.000000 9.000000 
v 32.000000 0.000000 0.000000 
v 24.000000 12.000000 1.000000 
v 24.000000 7.000000 7.000000 
v 32.000000 0.000000 0.000000 
v 24.000000 12.000000 -4.000000 
v 24.000000 12.000000 1.000000 
v 32.000000 0.000000 0.000000 
v 24.000000 7.000000 -10.000000 
v 24.000000 12.000000 -4.000000 
v 32.000000 0.000000 0.000000 
v 24.000000 0.000000 -12.000000 
v 24.000000 7.000000 -10.000000 
v 32.000000 0.000000 0.000000 
vn 0.847168 -0.394287 -0.355957 
vn 0.862305 -0.041260 -0.504150 
vn 0.976807 0.000000 0.213379 
vn 0.805420 -0.591553 -0.030762 
vn 0.847168 -0.394287 -0.355957 
vn 0.976807 0.000000 0.213379 
vn 0.730469 -0.558838 0.392090 
vn 0.805420 -0.591553 -0.030762 
vn 0.976807 0.000000 0.213379 
vn 0.660889 -0.310791 0.682861 
vn 0.730469 -0.558838 0.392090 
vn 0.976807 0.000000 0.213379 
vn 0.636719 0.048584 0.769287 
vn 0.660889 -0.310791 0.682861 
vn 0.976807 0.000000 0.213379 
vn 0.663086 0.398926 0.633057 
vn 0.636719 0.048584 0.769287 
vn 0.976807 0.000000 0.213379 
vn 0.747559 0.601562 0.280518 
vn 0.663086 0.398926 0.633057 
vn 0.976807 0.000000 0.213379 
vn 0.816162 0.565918 -0.114746 
vn 0.747559 0.601562 0.280518 
vn 0.976807 0.000000 0.213379 
vn 0.856201 0.305664 -0.416260 
vn 0.816162 0.565918 -0.114746 
vn 0.976807 0.000000 0.213379 
vn 0.862305 -0.041260 -0.504150 
vn 0.856201 0.305664 -0.416260 
vn 0.976807 0.000000 0.213379 
vt 0.857143 0.204724 
vt 0.809524 0.314961 
vt 0.984127 0.244094 
vt 0.825397 0.212598 
vt 0.825397 0.314961 
vt 0.984127 0.228346 
vt 0.841270 0.212598 
vt 0.857143 0.307087 
vt 0.984127 0.228346 
vt 0.841270 0.204724 
vt 0.825397 0.314961 
vt 0.952381 0.236220 
vt 0.857143 0.314961 
vt 0.857143 0.204724 
vt 0.952381 0.244094 
vt 0.825397 0.314961 
vt 0.825397 0.212598 
vt 0.968254 0.228346 
vt 0.793651 0.212598 
vt 0.857143 0.291339 
vt 0.968254 0.220472 
vt 0.873016 0.086614 
vt 0.904762 0.188976 
vt 1.000000 0.110236 
vt 0.825397 0.212598 
vt 0.841270 0.307087 
vt 0.984127 0.220472 
vt 0.825397 0.094488 
vt 0.857143 0.196850 
vt 1.000000 0.102362 
f 1/1/1 2/2/2 3/3/3
f 4/4/4 5/5/5 6/6/6
f 7/7/7 8/8/8 9/9/9
f 10/10/10 11/11/11 12/12/12
f 13/13/13 14/14/14 15/15/15
f 16/16/16 17/17/17 18/18/18
f 19/19/19 20/20/20 21/21/21
f 22/22/22 23/23/23 24/24/24
f 25/25/25 26/26/26 27/27/27
f 28/28/28 29/29/29 30/30/30
