v 17.000000 96.000000 98.000000 
v 17.000000 96.000000 -98.000000 
v -17.000000 -96.000000 -98.000000 
v -17.000000 -96.000000 -98.000000 
v -17.000000 -96.000000 98.000000 
v 17.000000 96.000000 98.000000 
vn -0.984619 0.173584 0.000000 
vn -0.984619 0.173584 0.000000 
vn -0.984619 0.173584 0.000000 
vn -0.984619 0.173584 0.000000 
vn -0.984619 0.173584 0.000000 
vn -0.984619 0.173584 0.000000 
vt 0.000000 0.488189 
vt 0.192157 0.488189 
vt 0.192157 -0.007874 
vt 0.192157 -0.007874 
vt 0.000000 -0.007874 
vt 0.000000 0.488189 
f 1/1/1 2/2/2 3/3/3
f 4/4/4 5/5/5 6/6/6
