v 17.000000 96.000000 98.000000 
v 17.000000 96.000000 -98.000000 
v -17.000000 -96.000000 -98.000000 
v -17.000000 -96.000000 -98.000000 
v -17.000000 -96.000000 98.000000 
v 17.000000 96.000000 98.000000 
vn -0.984619 0.173584 0.000000 
vn -0.984619 0.173584 0.000000 
vn -0.984619 0.173584 0.000000 
vn -0.984619 0.173584 0.000000 
vn -0.984619 0.173584 0.000000 
vn -0.984619 0.173584 0.000000 
vt 0.600000 1.000000 
vt 0.800000 1.000000 
vt 0.800000 0.503937 
vt 0.800000 0.503937 
vt 0.600000 0.503937 
vt 0.600000 1.000000 
f 1/1/1 2/2/2 3/3/3
f 4/4/4 5/5/5 6/6/6
