v 2.000000 27.000000 6.000000 
v -1.000000 25.000000 15.000000 
v 9.000000 6.000000 1.000000 
v -1.000000 25.000000 15.000000 
v 2.000000 0.000000 10.000000 
v 9.000000 6.000000 1.000000 
v -1.000000 25.000000 15.000000 
v -7.000000 25.000000 13.000000 
v 2.000000 0.000000 10.000000 
v -7.000000 25.000000 13.000000 
v -8.000000 0.000000 6.000000 
v 2.000000 0.000000 10.000000 
v -7.000000 25.000000 13.000000 
v -5.000000 27.000000 2.000000 
v -8.000000 0.000000 6.000000 
v -5.000000 27.000000 2.000000 
v -8.000000 6.000000 -4.000000 
v -8.000000 0.000000 6.000000 
v -5.000000 27.000000 2.000000 
v 1.000000 27.000000 -5.000000 
v -8.000000 6.000000 -4.000000 
v 1.000000 27.000000 -5.000000 
v 4.000000 15.000000 -14.000000 
v -8.000000 6.000000 -4.000000 
v 1.000000 27.000000 -5.000000 
v 2.000000 27.000000 6.000000 
v 4.000000 15.000000 -14.000000 
v 2.000000 27.000000 6.000000 
v 9.000000 6.000000 1.000000 
v 4.000000 15.000000 -14.000000 
v -1.000000 42.000000 6.000000 
v -1.000000 25.000000 15.000000 
v 2.000000 27.000000 6.000000 
v -1.000000 42.000000 6.000000 
v -7.000000 25.000000 13.000000 
v -1.000000 25.000000 15.000000 
v -1.000000 42.000000 6.000000 
v -5.000000 27.000000 2.000000 
v -7.000000 25.000000 13.000000 
v -1.000000 42.000000 6.000000 
v 1.000000 27.000000 -5.000000 
v -5.000000 27.000000 2.000000 
v -1.000000 42.000000 6.000000 
v 2.000000 27.000000 6.000000 
v 1.000000 27.000000 -5.000000 
vn 0.950195 0.273438 0.148193 
vn 0.471191 0.174805 0.864258 
vn 0.919434 0.179443 0.349365 
vn 0.471191 0.174805 0.864258 
vn 0.036865 -0.190186 0.980957 
vn 0.919434 0.179443 0.349365 
vn 0.471191 0.174805 0.864258 
vn -0.773438 0.078369 0.628662 
vn 0.036865 -0.190186 0.980957 
vn -0.773438 0.078369 0.628662 
vn -0.938721 -0.023682 0.343018 
vn 0.036865 -0.190186 0.980957 
vn -0.773438 0.078369 0.628662 
vn -0.929932 0.226562 -0.289062 
vn -0.938721 -0.023682 0.343018 
vn -0.929932 0.226562 -0.289062 
vn -0.864746 0.260986 -0.428467 
vn -0.938721 -0.023682 0.343018 
vn -0.929932 0.226562 -0.289062 
vn -0.091064 0.591309 -0.801025 
vn -0.864746 0.260986 -0.428467 
vn -0.091064 0.591309 -0.801025 
vn 0.707520 0.511230 -0.487305 
vn -0.864746 0.260986 -0.428467 
vn -0.091064 0.591309 -0.801025 
vn 0.950195 0.273438 0.148193 
vn 0.707520 0.511230 -0.487305 
vn 0.950195 0.273438 0.148193 
vn 0.919434 0.179443 0.349365 
vn 0.707520 0.511230 -0.487305 
vn -0.136963 0.937500 0.319092 
vn 0.471191 0.174805 0.864258 
vn 0.950195 0.273438 0.148193 
vn -0.136963 0.937500 0.319092 
vn -0.773438 0.078369 0.628662 
vn 0.471191 0.174805 0.864258 
vn -0.136963 0.937500 0.319092 
vn -0.929932 0.226562 -0.289062 
vn -0.773438 0.078369 0.628662 
vn -0.136963 0.937500 0.319092 
vn -0.091064 0.591309 -0.801025 
vn -0.929932 0.226562 -0.289062 
vn -0.136963 0.937500 0.319092 
vn 0.950195 0.273438 0.148193 
vn -0.091064 0.591309 -0.801025 
vt 0.787402 0.937008 
vt 0.692913 0.874016 
vt 0.992126 0.716535 
vt 0.692913 0.874016 
vt 0.692913 0.724409 
vt 0.992126 0.716535 
vt 0.692913 0.874016 
vt 0.692913 0.881890 
vt 0.692913 0.724409 
vt 0.692913 0.881890 
vt 0.692913 0.708661 
vt 0.692913 0.724409 
vt 0.692913 0.881890 
vt 0.803150 0.929134 
vt 0.692913 0.708661 
vt 0.803150 0.929134 
vt 0.992126 0.716535 
vt 0.692913 0.708661 
vt 0.803150 0.929134 
vt 0.826772 0.992126 
vt 0.992126 0.716535 
vt 0.826772 0.992126 
vt 0.992126 0.992126 
vt 0.992126 0.716535 
vt 0.826772 0.992126 
vt 0.787402 0.937008 
vt 0.992126 0.992126 
vt 0.787402 0.937008 
vt 0.992126 0.716535 
vt 0.992126 0.992126 
vt 0.692913 1.000000 
vt 0.692913 0.874016 
vt 0.787402 0.937008 
vt 0.692913 1.000000 
vt 0.692913 0.881890 
vt 0.692913 0.874016 
vt 0.692913 1.000000 
vt 0.803150 0.929134 
vt 0.692913 0.881890 
vt 0.692913 1.000000 
vt 0.826772 0.992126 
vt 0.803150 0.929134 
vt 0.692913 1.000000 
vt 0.787402 0.937008 
vt 0.826772 0.992126 
f 1/1/1 2/2/2 3/3/3
f 4/4/4 5/5/5 6/6/6
f 7/7/7 8/8/8 9/9/9
f 10/10/10 11/11/11 12/12/12
f 13/13/13 14/14/14 15/15/15
f 16/16/16 17/17/17 18/18/18
f 19/19/19 20/20/20 21/21/21
f 22/22/22 23/23/23 24/24/24
f 25/25/25 26/26/26 27/27/27
f 28/28/28 29/29/29 30/30/30
f 31/31/31 32/32/32 33/33/33
f 34/34/34 35/35/35 36/36/36
f 37/37/37 38/38/38 39/39/39
f 40/40/40 41/41/41 42/42/42
f 43/43/43 44/44/44 45/45/45
