v 8.000000 -27.000000 34.000000 
v 17.000000 -33.000000 32.000000 
v 17.000000 -23.000000 39.000000 
v 17.000000 -12.000000 39.000000 
v 8.000000 -17.000000 38.000000 
v 17.000000 -23.000000 39.000000 
v 8.000000 -17.000000 38.000000 
v 8.000000 -27.000000 34.000000 
v 17.000000 -23.000000 39.000000 
v 17.000000 33.000000 32.000000 
v 8.000000 27.000000 34.000000 
v 17.000000 23.000000 39.000000 
v 8.000000 17.000000 38.000000 
v 17.000000 12.000000 39.000000 
v 17.000000 23.000000 39.000000 
v 8.000000 27.000000 34.000000 
v 8.000000 17.000000 38.000000 
v 17.000000 23.000000 39.000000 
vn -0.756592 -0.390137 0.524414 
vn 0.000488 -0.703613 0.710205 
vn 0.000732 -0.443359 0.896240 
vn 0.000732 -0.099121 0.994873 
vn -0.780029 -0.167725 0.602539 
vn 0.000732 -0.443359 0.896240 
vn -0.780029 -0.167725 0.602539 
vn -0.756592 -0.390137 0.524414 
vn 0.000732 -0.443359 0.896240 
vn 0.000488 0.703613 0.710205 
vn -0.756592 0.390137 0.524414 
vn 0.000732 0.443359 0.896240 
vn -0.780029 0.167725 0.602539 
vn 0.000732 0.099121 0.994873 
vn 0.000732 0.443359 0.896240 
vn -0.756592 0.390137 0.524414 
vn -0.780029 0.167725 0.602539 
vn 0.000732 0.443359 0.896240 
vt 0.936508 0.841270 
vt 0.984127 0.841270 
vt 0.936508 0.888889 
vt 0.936508 0.841270 
vt 0.984127 0.841270 
vt 0.936508 0.888889 
vt 0.936508 0.841270 
vt 0.984127 0.841270 
vt 0.936508 0.888889 
vt 0.984127 0.841270 
vt 0.952381 0.841270 
vt 0.936508 0.888889 
vt 0.984127 0.841270 
vt 0.952381 0.841270 
vt 0.936508 0.888889 
vt 0.984127 0.841270 
vt 0.952381 0.841270 
vt 0.936508 0.888889 
f 1/1/1 2/2/2 3/3/3
f 4/4/4 5/5/5 6/6/6
f 7/7/7 8/8/8 9/9/9
f 10/10/10 11/11/11 12/12/12
f 13/13/13 14/14/14 15/15/15
f 16/16/16 17/17/17 18/18/18
