v 1.000000 -12.000000 -1.000000 
v 4.000000 0.000000 -14.000000 
v 53.000000 3.000000 -11.000000 
v 49.000000 -12.000000 3.000000 
v 1.000000 -12.000000 -1.000000 
v 53.000000 3.000000 -11.000000 
v 0.000000 0.000000 11.000000 
v 1.000000 -12.000000 -1.000000 
v 49.000000 -12.000000 3.000000 
vn -0.002197 -0.999756 -0.000732 
vn -0.016357 -0.009277 -0.999756 
vn -0.084229 -0.311279 -0.946289 
vn 0.019287 -0.944580 0.327148 
vn -0.002197 -0.999756 -0.000732 
vn -0.084229 -0.311279 -0.946289 
vn -0.110840 0.002930 0.993652 
vn -0.002197 -0.999756 -0.000732 
vn 0.019287 -0.944580 0.327148 
vt 0.650794 0.523810 
vt 0.809524 0.523810 
vt 0.809524 0.000000 
vt 0.650794 0.000000 
vt 0.650794 0.523810 
vt 0.809524 0.000000 
vt 0.809524 0.523810 
vt 0.650794 0.523810 
vt 0.650794 0.000000 
f 1/1/1 2/2/2 3/3/3
f 4/4/4 5/5/5 6/6/6
f 7/7/7 8/8/8 9/9/9
