v 59.000000 2.000000 4.000000 
v 59.000000 9.000000 -1.000000 
v 0.000000 5.000000 -2.000000 
v 0.000000 5.000000 -2.000000 
v 59.000000 9.000000 -1.000000 
v 0.000000 1.000000 -7.000000 
v 4.000000 2.000000 2.000000 
v 59.000000 2.000000 4.000000 
v 0.000000 5.000000 -2.000000 
v 0.000000 -4.000000 -5.000000 
v 4.000000 -4.000000 0.000000 
v 0.000000 -4.000000 0.000000 
v 0.000000 -4.000000 -5.000000 
v 60.000000 -3.000000 -8.000000 
v 4.000000 -4.000000 0.000000 
v 59.000000 4.000000 -9.000000 
v 60.000000 -3.000000 -8.000000 
v 0.000000 -4.000000 -5.000000 
v 0.000000 1.000000 -7.000000 
v 59.000000 4.000000 -9.000000 
v 0.000000 -4.000000 -5.000000 
v 59.000000 9.000000 -1.000000 
v 59.000000 4.000000 -9.000000 
v 0.000000 1.000000 -7.000000 
v 59.000000 9.000000 -1.000000 
v 59.000000 2.000000 4.000000 
v 65.000000 1.000000 -2.000000 
v 59.000000 4.000000 -9.000000 
v 59.000000 9.000000 -1.000000 
v 65.000000 1.000000 -2.000000 
v 59.000000 2.000000 4.000000 
v 60.000000 -5.000000 0.000000 
v 65.000000 1.000000 -2.000000 
v 60.000000 -5.000000 0.000000 
v 59.000000 2.000000 4.000000 
v 4.000000 2.000000 2.000000 
v 60.000000 -5.000000 0.000000 
v 60.000000 -3.000000 -8.000000 
v 65.000000 1.000000 -2.000000 
v 60.000000 -3.000000 -8.000000 
v 60.000000 -5.000000 0.000000 
v 4.000000 -4.000000 0.000000 
v 4.000000 -4.000000 0.000000 
v 60.000000 -5.000000 0.000000 
v 4.000000 2.000000 2.000000 
v 60.000000 -3.000000 -8.000000 
v 59.000000 4.000000 -9.000000 
v 65.000000 1.000000 -2.000000 
vn 0.350098 0.334717 0.874756 
vn 0.328125 0.943115 -0.049316 
vn -0.017578 0.989014 0.146484 
vn -0.017578 0.989014 0.146484 
vn 0.328125 0.943115 -0.049316 
vn -0.005371 0.272949 -0.961914 
vn -0.029785 0.143799 0.989014 
vn 0.350098 0.334717 0.874756 
vn -0.017578 0.989014 0.146484 
vn 0.012695 -0.917969 -0.395996 
vn -0.011963 -0.816650 0.576660 
vn 0.012207 -0.689453 0.724121 
vn 0.012695 -0.917969 -0.395996 
vn 0.370850 -0.770264 -0.518555 
vn -0.011963 -0.816650 0.576660 
vn 0.343750 0.250732 -0.904785 
vn 0.370850 -0.770264 -0.518555 
vn 0.012695 -0.917969 -0.395996 
vn -0.005371 0.272949 -0.961914 
vn 0.343750 0.250732 -0.904785 
vn 0.012695 -0.917969 -0.395996 
vn 0.328125 0.943115 -0.049316 
vn 0.343750 0.250732 -0.904785 
vn -0.005371 0.272949 -0.961914 
vn 0.328125 0.943115 -0.049316 
vn 0.350098 0.334717 0.874756 
vn 0.999512 0.024902 -0.006348 
vn 0.343750 0.250732 -0.904785 
vn 0.328125 0.943115 -0.049316 
vn 0.999512 0.024902 -0.006348 
vn 0.350098 0.334717 0.874756 
vn 0.373535 -0.730469 0.571289 
vn 0.999512 0.024902 -0.006348 
vn 0.373535 -0.730469 0.571289 
vn 0.350098 0.334717 0.874756 
vn -0.029785 0.143799 0.989014 
vn 0.373535 -0.730469 0.571289 
vn 0.370850 -0.770264 -0.518555 
vn 0.999512 0.024902 -0.006348 
vn 0.370850 -0.770264 -0.518555 
vn 0.373535 -0.730469 0.571289 
vn -0.011963 -0.816650 0.576660 
vn -0.011963 -0.816650 0.576660 
vn 0.373535 -0.730469 0.571289 
vn -0.029785 0.143799 0.989014 
vn 0.370850 -0.770264 -0.518555 
vn 0.343750 0.250732 -0.904785 
vn 0.999512 0.024902 -0.006348 
vt 0.000000 0.507937 
vt 0.000000 0.492063 
vt 0.193548 0.492063 
vt 0.193548 0.492063 
vt 0.000000 0.492063 
vt 0.193548 0.476190 
vt 0.193548 0.507937 
vt 0.000000 0.507937 
vt 0.193548 0.492063 
vt 0.193548 0.476190 
vt 0.193548 0.507937 
vt 0.193548 0.507937 
vt 0.193548 0.476190 
vt 0.000000 0.460317 
vt 0.193548 0.507937 
vt 0.000000 0.460317 
vt 0.000000 0.460317 
vt 0.193548 0.476190 
vt 0.193548 0.476190 
vt 0.000000 0.460317 
vt 0.193548 0.476190 
vt 0.000000 0.492063 
vt 0.000000 0.460317 
vt 0.193548 0.476190 
vt 0.000000 0.492063 
vt 0.000000 0.507937 
vt 0.000000 0.492063 
vt 0.000000 0.460317 
vt 0.000000 0.492063 
vt 0.000000 0.492063 
vt 0.000000 0.507937 
vt 0.000000 0.492063 
vt 0.000000 0.492063 
vt 0.000000 0.492063 
vt 0.000000 0.507937 
vt 0.193548 0.507937 
vt 0.000000 0.492063 
vt 0.000000 0.460317 
vt 0.000000 0.492063 
vt 0.000000 0.460317 
vt 0.000000 0.492063 
vt 0.193548 0.507937 
vt 0.193548 0.507937 
vt 0.000000 0.492063 
vt 0.193548 0.507937 
vt 0.000000 0.460317 
vt 0.000000 0.460317 
vt 0.000000 0.492063 
f 1/1/1 2/2/2 3/3/3
f 4/4/4 5/5/5 6/6/6
f 7/7/7 8/8/8 9/9/9
f 10/10/10 11/11/11 12/12/12
f 13/13/13 14/14/14 15/15/15
f 16/16/16 17/17/17 18/18/18
f 19/19/19 20/20/20 21/21/21
f 22/22/22 23/23/23 24/24/24
f 25/25/25 26/26/26 27/27/27
f 28/28/28 29/29/29 30/30/30
f 31/31/31 32/32/32 33/33/33
f 34/34/34 35/35/35 36/36/36
f 37/37/37 38/38/38 39/39/39
f 40/40/40 41/41/41 42/42/42
f 43/43/43 44/44/44 45/45/45
f 46/46/46 47/47/47 48/48/48
