v 14.000000 4.000000 11.000000 
v 31.000000 3.000000 8.000000 
v 14.000000 7.000000 0.000000 
v 31.000000 -2.000000 8.000000 
v 31.000000 3.000000 8.000000 
v 14.000000 4.000000 11.000000 
v 14.000000 -3.000000 11.000000 
v 31.000000 -2.000000 8.000000 
v 14.000000 4.000000 11.000000 
vn -0.594971 0.672363 0.439697 
vn -0.542480 0.664307 0.513916 
vn 0.467041 0.871582 0.147217 
vn -0.882324 -0.124756 0.453125 
vn -0.542480 0.664307 0.513916 
vn -0.594971 0.672363 0.439697 
vn -0.913574 -0.091797 0.395752 
vn -0.882324 -0.124756 0.453125 
vn -0.594971 0.672363 0.439697 
vt 0.818898 0.653543 
vt 0.818898 0.779528 
vt 0.763780 0.645669 
vt 0.929134 0.779528 
vt 0.818898 0.779528 
vt 0.818898 0.653543 
vt 0.929134 0.653543 
vt 0.929134 0.779528 
vt 0.818898 0.653543 
f 1/1/1 2/2/2 3/3/3
f 4/4/4 5/5/5 6/6/6
f 7/7/7 8/8/8 9/9/9
