v -49.000000 -41.000000 -27.000000 
v 49.000000 -41.000000 -27.000000 
v 49.000000 22.000000 44.000000 
v 49.000000 22.000000 44.000000 
v -49.000000 22.000000 44.000000 
v -49.000000 -41.000000 -27.000000 
v -53.000000 771.000000 -692.000000 
v -53.000000 817.000000 -639.000000 
v 53.000000 817.000000 -639.000000 
v 53.000000 817.000000 -639.000000 
v 53.000000 771.000000 -692.000000 
v -53.000000 771.000000 -692.000000 
v -49.000000 141.000000 -62.000000 
v -49.000000 22.000000 44.000000 
v 49.000000 22.000000 44.000000 
v 49.000000 22.000000 44.000000 
v 49.000000 141.000000 -62.000000 
v -49.000000 141.000000 -62.000000 
v -63.000000 370.000000 -222.000000 
v -49.000000 141.000000 -62.000000 
v 49.000000 141.000000 -62.000000 
v 49.000000 141.000000 -62.000000 
v 63.000000 370.000000 -222.000000 
v -63.000000 370.000000 -222.000000 
v -53.000000 407.000000 -266.000000 
v -63.000000 370.000000 -222.000000 
v 63.000000 370.000000 -222.000000 
v 63.000000 370.000000 -222.000000 
v 53.000000 407.000000 -266.000000 
v -53.000000 407.000000 -266.000000 
v -53.000000 557.000000 -422.000000 
v -53.000000 407.000000 -266.000000 
v 53.000000 407.000000 -266.000000 
v 53.000000 407.000000 -266.000000 
v 53.000000 557.000000 -422.000000 
v -53.000000 557.000000 -422.000000 
v -53.000000 817.000000 -639.000000 
v -53.000000 557.000000 -422.000000 
v 53.000000 557.000000 -422.000000 
v 53.000000 557.000000 -422.000000 
v 53.000000 817.000000 -639.000000 
v -53.000000 817.000000 -639.000000 
v -49.000000 78.000000 -134.000000 
v -49.000000 -41.000000 -27.000000 
v -49.000000 22.000000 44.000000 
v -49.000000 22.000000 44.000000 
v -49.000000 141.000000 -62.000000 
v -49.000000 78.000000 -134.000000 
v -63.000000 289.000000 -315.000000 
v -49.000000 78.000000 -134.000000 
v -49.000000 141.000000 -62.000000 
v -49.000000 141.000000 -62.000000 
v -63.000000 370.000000 -222.000000 
v -63.000000 289.000000 -315.000000 
v -53.000000 339.000000 -344.000000 
v -63.000000 289.000000 -315.000000 
v -63.000000 370.000000 -222.000000 
v -63.000000 370.000000 -222.000000 
v -53.000000 407.000000 -266.000000 
v -53.000000 339.000000 -344.000000 
v -53.000000 511.000000 -475.000000 
v -53.000000 339.000000 -344.000000 
v -53.000000 407.000000 -266.000000 
v -53.000000 407.000000 -266.000000 
v -53.000000 557.000000 -422.000000 
v -53.000000 511.000000 -475.000000 
v -53.000000 771.000000 -692.000000 
v -53.000000 511.000000 -475.000000 
v -53.000000 557.000000 -422.000000 
v -53.000000 557.000000 -422.000000 
v -53.000000 817.000000 -639.000000 
v -53.000000 771.000000 -692.000000 
v 49.000000 78.000000 -134.000000 
v -49.000000 -41.000000 -27.000000 
v 49.000000 -41.000000 -27.000000 
v -49.000000 -41.000000 -27.000000 
v 49.000000 78.000000 -134.000000 
v -49.000000 78.000000 -134.000000 
v 63.000000 289.000000 -315.000000 
v -49.000000 78.000000 -134.000000 
v 49.000000 78.000000 -134.000000 
v -49.000000 78.000000 -134.000000 
v 63.000000 289.000000 -315.000000 
v -63.000000 289.000000 -315.000000 
v 53.000000 339.000000 -344.000000 
v -63.000000 289.000000 -315.000000 
v 63.000000 289.000000 -315.000000 
v -63.000000 289.000000 -315.000000 
v 53.000000 339.000000 -344.000000 
v -53.000000 339.000000 -344.000000 
v 53.000000 511.000000 -475.000000 
v -53.000000 339.000000 -344.000000 
v 53.000000 339.000000 -344.000000 
v -53.000000 339.000000 -344.000000 
v 53.000000 511.000000 -475.000000 
v -53.000000 511.000000 -475.000000 
v 53.000000 771.000000 -692.000000 
v -53.000000 511.000000 -475.000000 
v 53.000000 511.000000 -475.000000 
v -53.000000 511.000000 -475.000000 
v 53.000000 771.000000 -692.000000 
v -53.000000 771.000000 -692.000000 
v 49.000000 141.000000 -62.000000 
v 49.000000 -41.000000 -27.000000 
v 49.000000 22.000000 44.000000 
v 49.000000 -41.000000 -27.000000 
v 49.000000 141.000000 -62.000000 
v 49.000000 78.000000 -134.000000 
v 63.000000 370.000000 -222.000000 
v 49.000000 78.000000 -134.000000 
v 49.000000 141.000000 -62.000000 
v 49.000000 78.000000 -134.000000 
v 63.000000 370.000000 -222.000000 
v 63.000000 289.000000 -315.000000 
v 53.000000 407.000000 -266.000000 
v 63.000000 289.000000 -315.000000 
v 63.000000 370.000000 -222.000000 
v 63.000000 289.000000 -315.000000 
v 53.000000 407.000000 -266.000000 
v 53.000000 339.000000 -344.000000 
v 53.000000 557.000000 -422.000000 
v 53.000000 339.000000 -344.000000 
v 53.000000 407.000000 -266.000000 
v 53.000000 339.000000 -344.000000 
v 53.000000 557.000000 -422.000000 
v 53.000000 511.000000 -475.000000 
v 53.000000 817.000000 -639.000000 
v 53.000000 511.000000 -475.000000 
v 53.000000 557.000000 -422.000000 
v 53.000000 511.000000 -475.000000 
v 53.000000 817.000000 -639.000000 
v 53.000000 771.000000 -692.000000 
v 49.000000 78.000000 -134.000000 
v 49.000000 22.000000 44.000000 
v 49.000000 -41.000000 -27.000000 
v 49.000000 22.000000 44.000000 
v 49.000000 78.000000 -134.000000 
v 49.000000 141.000000 -62.000000 
v 63.000000 289.000000 -315.000000 
v 49.000000 141.000000 -62.000000 
v 49.000000 78.000000 -134.000000 
v 49.000000 141.000000 -62.000000 
v 63.000000 289.000000 -315.000000 
v 63.000000 370.000000 -222.000000 
v 53.000000 339.000000 -344.000000 
v 63.000000 370.000000 -222.000000 
v 63.000000 289.000000 -315.000000 
v 63.000000 370.000000 -222.000000 
v 53.000000 339.000000 -344.000000 
v 53.000000 407.000000 -266.000000 
v 53.000000 511.000000 -475.000000 
v 53.000000 407.000000 -266.000000 
v 53.000000 339.000000 -344.000000 
v 53.000000 407.000000 -266.000000 
v 53.000000 511.000000 -475.000000 
v 53.000000 557.000000 -422.000000 
v 53.000000 771.000000 -692.000000 
v 53.000000 557.000000 -422.000000 
v 53.000000 511.000000 -475.000000 
v 53.000000 557.000000 -422.000000 
v 53.000000 771.000000 -692.000000 
v 53.000000 817.000000 -639.000000 
vn 0.000000 -0.758057 0.651855 
vn 0.000000 -0.758057 0.651855 
vn 0.000000 -0.758057 0.651855 
vn 0.000000 -0.758057 0.651855 
vn 0.000000 -0.758057 0.651855 
vn 0.000000 -0.758057 0.651855 
vn 0.000000 0.758057 -0.651855 
vn 0.000000 0.758057 -0.651855 
vn 0.000000 0.758057 -0.651855 
vn 0.000000 0.758057 -0.651855 
vn 0.000000 0.758057 -0.651855 
vn 0.000000 0.758057 -0.651855 
vn 0.000000 0.640869 0.767334 
vn 0.000000 0.674316 0.738037 
vn 0.000000 0.674316 0.738037 
vn 0.000000 0.674316 0.738037 
vn 0.000000 0.606201 0.795166 
vn 0.000000 0.640869 0.767334 
vn 0.000000 0.649170 0.760498 
vn 0.000000 0.640869 0.767334 
vn 0.000000 0.606201 0.795166 
vn 0.000000 0.606201 0.795166 
vn 0.000000 0.722168 0.691406 
vn 0.000000 0.649170 0.760498 
vn 0.000000 0.770020 0.637695 
vn 0.000000 0.649170 0.760498 
vn 0.000000 0.722168 0.691406 
vn 0.000000 0.722168 0.691406 
vn 0.000000 0.752197 0.658691 
vn 0.000000 0.770020 0.637695 
vn 0.000000 0.706055 0.708008 
vn 0.000000 0.770020 0.637695 
vn 0.000000 0.752197 0.658691 
vn 0.000000 0.752197 0.658691 
vn 0.000000 0.677002 0.735596 
vn 0.000000 0.706055 0.708008 
vn 0.000000 0.647217 0.762207 
vn 0.000000 0.706055 0.708008 
vn 0.000000 0.677002 0.735596 
vn 0.000000 0.677002 0.735596 
vn 0.000000 0.647217 0.762207 
vn 0.000000 0.647217 0.762207 
vn -0.999756 -0.014893 0.012939 
vn -1.000000 0.000000 0.000000 
vn -1.000000 0.000000 0.000000 
vn -1.000000 0.000000 0.000000 
vn -0.999023 -0.030029 0.025879 
vn -0.999756 -0.014893 0.012939 
vn -0.999512 0.022949 -0.019775 
vn -0.999756 -0.014893 0.012939 
vn -0.999023 -0.030029 0.025879 
vn -0.999023 -0.030029 0.025879 
vn -0.992432 0.092041 -0.079102 
vn -0.999512 0.022949 -0.019775 
vn -0.989990 0.106934 -0.091797 
vn -0.999512 0.022949 -0.019775 
vn -0.992432 0.092041 -0.079102 
vn -0.992432 0.092041 -0.079102 
vn -0.997314 0.053467 -0.045898 
vn -0.989990 0.106934 -0.091797 
vn -1.000000 0.000000 0.000000 
vn -0.989990 0.106934 -0.091797 
vn -0.997314 0.053467 -0.045898 
vn -0.997314 0.053467 -0.045898 
vn -1.000000 0.000000 0.000000 
vn -1.000000 0.000000 0.000000 
vn -1.000000 0.000000 0.000000 
vn -1.000000 0.000000 0.000000 
vn -1.000000 0.000000 0.000000 
vn -1.000000 0.000000 0.000000 
vn -1.000000 0.000000 0.000000 
vn -1.000000 0.000000 0.000000 
vn 0.000000 0.669189 0.742920 
vn 0.000000 0.674316 0.738037 
vn 0.000000 0.674316 0.738037 
vn 0.000000 0.674316 0.738037 
vn 0.000000 0.669189 0.742920 
vn 0.000000 0.663818 0.747559 
vn 0.000000 0.604004 0.796631 
vn 0.000000 0.663818 0.747559 
vn 0.000000 0.669189 0.742920 
vn 0.000000 0.663818 0.747559 
vn 0.000000 0.604004 0.796631 
vn 0.000000 0.546387 0.837402 
vn 0.000000 0.526367 0.850098 
vn 0.000000 0.546387 0.837402 
vn 0.000000 0.604004 0.796631 
vn 0.000000 0.546387 0.837402 
vn 0.000000 0.526367 0.850098 
vn 0.000000 0.565430 0.824707 
vn 0.000000 0.617920 0.785889 
vn 0.000000 0.565430 0.824707 
vn 0.000000 0.526367 0.850098 
vn 0.000000 0.565430 0.824707 
vn 0.000000 0.617920 0.785889 
vn 0.000000 0.632568 0.774170 
vn 0.000000 0.647217 0.762207 
vn 0.000000 0.632568 0.774170 
vn 0.000000 0.617920 0.785889 
vn 0.000000 0.632568 0.774170 
vn 0.000000 0.647217 0.762207 
vn 0.000000 0.647217 0.762207 
vn -0.999756 0.014893 -0.012939 
vn -1.000000 0.000000 0.000000 
vn -1.000000 0.000000 0.000000 
vn -1.000000 0.000000 0.000000 
vn -0.999756 0.014893 -0.012939 
vn -0.999023 0.030029 -0.025879 
vn -0.999512 -0.022949 0.019775 
vn -0.999023 0.030029 -0.025879 
vn -0.999756 0.014893 -0.012939 
vn -0.999023 0.030029 -0.025879 
vn -0.999512 -0.022949 0.019775 
vn -0.992432 -0.092041 0.079102 
vn -0.989990 -0.106934 0.091797 
vn -0.992432 -0.092041 0.079102 
vn -0.999512 -0.022949 0.019775 
vn -0.992432 -0.092041 0.079102 
vn -0.989990 -0.106934 0.091797 
vn -0.997314 -0.053467 0.045898 
vn -1.000000 0.000000 0.000000 
vn -0.997314 -0.053467 0.045898 
vn -0.989990 -0.106934 0.091797 
vn -0.997314 -0.053467 0.045898 
vn -1.000000 0.000000 0.000000 
vn -1.000000 0.000000 0.000000 
vn -1.000000 0.000000 0.000000 
vn -1.000000 0.000000 0.000000 
vn -1.000000 0.000000 0.000000 
vn -1.000000 0.000000 0.000000 
vn -1.000000 0.000000 0.000000 
vn -1.000000 0.000000 0.000000 
vn 0.999756 -0.014893 0.012939 
vn 1.000000 0.000000 0.000000 
vn 1.000000 0.000000 0.000000 
vn 1.000000 0.000000 0.000000 
vn 0.999756 -0.014893 0.012939 
vn 0.999023 -0.030029 0.025879 
vn 0.999512 0.022949 -0.019775 
vn 0.999023 -0.030029 0.025879 
vn 0.999756 -0.014893 0.012939 
vn 0.999023 -0.030029 0.025879 
vn 0.999512 0.022949 -0.019775 
vn 0.992432 0.092041 -0.079102 
vn 0.989990 0.106934 -0.091797 
vn 0.992432 0.092041 -0.079102 
vn 0.999512 0.022949 -0.019775 
vn 0.992432 0.092041 -0.079102 
vn 0.989990 0.106934 -0.091797 
vn 0.997314 0.053467 -0.045898 
vn 1.000000 0.000000 0.000000 
vn 0.997314 0.053467 -0.045898 
vn 0.989990 0.106934 -0.091797 
vn 0.997314 0.053467 -0.045898 
vn 1.000000 0.000000 0.000000 
vn 1.000000 0.000000 0.000000 
vn 1.000000 0.000000 0.000000 
vn 1.000000 0.000000 0.000000 
vn 1.000000 0.000000 0.000000 
vn 1.000000 0.000000 0.000000 
vn 1.000000 0.000000 0.000000 
vn 1.000000 0.000000 0.000000 
vt 0.771654 0.984127 
vt 0.771654 0.047619 
vt 0.771654 1.000000 
vt 0.771654 1.000000 
vt 0.771654 0.047619 
vt 0.771654 0.984127 
vt 0.724409 0.031746 
vt 0.992126 0.031746 
vt 0.724409 1.000000 
vt 0.724409 1.000000 
vt 0.992126 0.031746 
vt 0.992126 1.000000 
vt 0.236220 0.047619 
vt 0.771654 0.047619 
vt 0.771654 1.000000 
vt 0.771654 1.000000 
vt 0.236220 1.000000 
vt 0.236220 0.047619 
vt 0.992126 0.047619 
vt 0.236220 0.047619 
vt 0.236220 1.000000 
vt 0.236220 1.000000 
vt 0.992126 1.000000 
vt 0.992126 0.047619 
vt 0.748031 0.047619 
vt 0.992126 0.047619 
vt 0.992126 1.000000 
vt 0.992126 1.000000 
vt 0.748031 1.000000 
vt 0.748031 0.047619 
vt 0.000000 0.063492 
vt 0.748031 0.047619 
vt 0.748031 1.000000 
vt 0.748031 1.000000 
vt 0.000000 1.000000 
vt 0.000000 0.063492 
vt 0.992126 0.047619 
vt 0.000000 0.063492 
vt 0.000000 1.000000 
vt 0.000000 1.000000 
vt 0.992126 1.000000 
vt 0.992126 0.047619 
vt 0.236220 1.000000 
vt 0.771654 0.984127 
vt 0.771654 0.047619 
vt 0.771654 0.047619 
vt 0.236220 0.047619 
vt 0.236220 1.000000 
vt 0.992126 1.000000 
vt 0.236220 1.000000 
vt 0.236220 0.047619 
vt 0.236220 0.047619 
vt 0.992126 0.047619 
vt 0.992126 1.000000 
vt 0.748031 1.000000 
vt 0.992126 1.000000 
vt 0.992126 0.047619 
vt 0.992126 0.047619 
vt 0.748031 0.047619 
vt 0.748031 1.000000 
vt 0.000000 1.000000 
vt 0.748031 1.000000 
vt 0.748031 0.047619 
vt 0.748031 0.047619 
vt 0.000000 0.063492 
vt 0.000000 1.000000 
vt 0.992126 1.000000 
vt 0.000000 1.000000 
vt 0.000000 0.063492 
vt 0.000000 0.063492 
vt 0.992126 0.047619 
vt 0.992126 1.000000 
vt 0.236220 0.063492 
vt 0.771654 0.984127 
vt 0.771654 0.047619 
vt 0.771654 0.984127 
vt 0.236220 0.063492 
vt 0.236220 1.000000 
vt 0.992126 0.079365 
vt 0.236220 1.000000 
vt 0.236220 0.063492 
vt 0.236220 1.000000 
vt 0.992126 0.079365 
vt 0.992126 1.000000 
vt 0.748031 0.063492 
vt 0.992126 1.000000 
vt 0.992126 0.079365 
vt 0.992126 1.000000 
vt 0.748031 0.063492 
vt 0.748031 1.000000 
vt 0.000000 0.063492 
vt 0.748031 1.000000 
vt 0.748031 0.063492 
vt 0.748031 1.000000 
vt 0.000000 0.063492 
vt 0.000000 1.000000 
vt 0.992126 0.063492 
vt 0.000000 1.000000 
vt 0.000000 0.063492 
vt 0.000000 1.000000 
vt 0.992126 0.063492 
vt 0.992126 1.000000 
vt 0.236220 1.000000 
vt 0.771654 0.047619 
vt 0.771654 1.000000 
vt 0.771654 0.047619 
vt 0.236220 1.000000 
vt 0.236220 0.063492 
vt 0.992126 1.000000 
vt 0.236220 0.063492 
vt 0.236220 1.000000 
vt 0.236220 0.063492 
vt 0.992126 1.000000 
vt 0.992126 0.079365 
vt 0.748031 1.000000 
vt 0.992126 0.079365 
vt 0.992126 1.000000 
vt 0.992126 0.079365 
vt 0.748031 1.000000 
vt 0.748031 0.063492 
vt 0.000000 1.000000 
vt 0.748031 0.063492 
vt 0.748031 1.000000 
vt 0.748031 0.063492 
vt 0.000000 1.000000 
vt 0.000000 0.063492 
vt 0.992126 1.000000 
vt 0.000000 0.063492 
vt 0.000000 1.000000 
vt 0.000000 0.063492 
vt 0.992126 1.000000 
vt 0.992126 0.063492 
vt 0.236220 1.000000 
vt 0.771654 0.047619 
vt 0.771654 0.984127 
vt 0.771654 0.047619 
vt 0.236220 1.000000 
vt 0.236220 0.047619 
vt 0.992126 1.000000 
vt 0.236220 0.047619 
vt 0.236220 1.000000 
vt 0.236220 0.047619 
vt 0.992126 1.000000 
vt 0.992126 0.047619 
vt 0.748031 1.000000 
vt 0.992126 0.047619 
vt 0.992126 1.000000 
vt 0.992126 0.047619 
vt 0.748031 1.000000 
vt 0.748031 0.047619 
vt 0.000000 1.000000 
vt 0.748031 0.047619 
vt 0.748031 1.000000 
vt 0.748031 0.047619 
vt 0.000000 1.000000 
vt 0.000000 0.063492 
vt 0.992126 1.000000 
vt 0.000000 0.063492 
vt 0.000000 1.000000 
vt 0.000000 0.063492 
vt 0.992126 1.000000 
vt 0.992126 0.047619 
f 1/1/1 2/2/2 3/3/3
f 4/4/4 5/5/5 6/6/6
f 7/7/7 8/8/8 9/9/9
f 10/10/10 11/11/11 12/12/12
f 13/13/13 14/14/14 15/15/15
f 16/16/16 17/17/17 18/18/18
f 19/19/19 20/20/20 21/21/21
f 22/22/22 23/23/23 24/24/24
f 25/25/25 26/26/26 27/27/27
f 28/28/28 29/29/29 30/30/30
f 31/31/31 32/32/32 33/33/33
f 34/34/34 35/35/35 36/36/36
f 37/37/37 38/38/38 39/39/39
f 40/40/40 41/41/41 42/42/42
f 43/43/43 44/44/44 45/45/45
f 46/46/46 47/47/47 48/48/48
f 49/49/49 50/50/50 51/51/51
f 52/52/52 53/53/53 54/54/54
f 55/55/55 56/56/56 57/57/57
f 58/58/58 59/59/59 60/60/60
f 61/61/61 62/62/62 63/63/63
f 64/64/64 65/65/65 66/66/66
f 67/67/67 68/68/68 69/69/69
f 70/70/70 71/71/71 72/72/72
f 73/73/73 74/74/74 75/75/75
f 76/76/76 77/77/77 78/78/78
f 79/79/79 80/80/80 81/81/81
f 82/82/82 83/83/83 84/84/84
f 85/85/85 86/86/86 87/87/87
f 88/88/88 89/89/89 90/90/90
f 91/91/91 92/92/92 93/93/93
f 94/94/94 95/95/95 96/96/96
f 97/97/97 98/98/98 99/99/99
f 100/100/100 101/101/101 102/102/102
f 103/103/103 104/104/104 105/105/105
f 106/106/106 107/107/107 108/108/108
f 109/109/109 110/110/110 111/111/111
f 112/112/112 113/113/113 114/114/114
f 115/115/115 116/116/116 117/117/117
f 118/118/118 119/119/119 120/120/120
f 121/121/121 122/122/122 123/123/123
f 124/124/124 125/125/125 126/126/126
f 127/127/127 128/128/128 129/129/129
f 130/130/130 131/131/131 132/132/132
f 133/133/133 134/134/134 135/135/135
f 136/136/136 137/137/137 138/138/138
f 139/139/139 140/140/140 141/141/141
f 142/142/142 143/143/143 144/144/144
f 145/145/145 146/146/146 147/147/147
f 148/148/148 149/149/149 150/150/150
f 151/151/151 152/152/152 153/153/153
f 154/154/154 155/155/155 156/156/156
f 157/157/157 158/158/158 159/159/159
f 160/160/160 161/161/161 162/162/162
