v -7.000000 -13.000000 -12.000000 
v -7.000000 0.000000 -16.000000 
v 6.000000 0.000000 -22.000000 
v 7.000000 -17.000000 -17.000000 
v -7.000000 -13.000000 -12.000000 
v 6.000000 0.000000 -22.000000 
v 6.000000 0.000000 -22.000000 
v -7.000000 0.000000 -16.000000 
v 7.000000 17.000000 -17.000000 
v -7.000000 -24.000000 -5.000000 
v -7.000000 -13.000000 -12.000000 
v 7.000000 -17.000000 -17.000000 
v 7.000000 -30.000000 -8.000000 
v -7.000000 -24.000000 -5.000000 
v 7.000000 -17.000000 -17.000000 
v -7.000000 -27.000000 8.000000 
v -7.000000 -24.000000 -5.000000 
v 7.000000 -30.000000 -8.000000 
v 7.000000 -35.000000 8.000000 
v -7.000000 -27.000000 8.000000 
v 7.000000 -30.000000 -8.000000 
v -7.000000 -24.000000 17.000000 
v -7.000000 -27.000000 8.000000 
v 7.000000 -35.000000 8.000000 
v 7.000000 -30.000000 18.000000 
v -7.000000 -24.000000 17.000000 
v 7.000000 -35.000000 8.000000 
v -7.000000 -13.000000 24.000000 
v -7.000000 -24.000000 17.000000 
v 7.000000 -30.000000 18.000000 
v 7.000000 -17.000000 31.000000 
v -7.000000 -13.000000 24.000000 
v 7.000000 -30.000000 18.000000 
v -7.000000 0.000000 28.000000 
v -7.000000 -13.000000 24.000000 
v 7.000000 -17.000000 31.000000 
v 6.000000 0.000000 36.000000 
v -7.000000 0.000000 28.000000 
v 7.000000 -17.000000 31.000000 
v -7.000000 13.000000 24.000000 
v -7.000000 0.000000 28.000000 
v 6.000000 0.000000 36.000000 
v 7.000000 17.000000 31.000000 
v -7.000000 13.000000 24.000000 
v 6.000000 0.000000 36.000000 
v -7.000000 24.000000 17.000000 
v -7.000000 13.000000 24.000000 
v 7.000000 17.000000 31.000000 
v 7.000000 30.000000 18.000000 
v -7.000000 24.000000 17.000000 
v 7.000000 17.000000 31.000000 
v -7.000000 27.000000 8.000000 
v -7.000000 24.000000 17.000000 
v 7.000000 30.000000 18.000000 
v 7.000000 35.000000 8.000000 
v -7.000000 27.000000 8.000000 
v 7.000000 30.000000 18.000000 
v -7.000000 24.000000 -5.000000 
v -7.000000 27.000000 8.000000 
v 7.000000 35.000000 8.000000 
v 7.000000 30.000000 -8.000000 
v -7.000000 24.000000 -5.000000 
v 7.000000 35.000000 8.000000 
v -7.000000 13.000000 -12.000000 
v -7.000000 24.000000 -5.000000 
v 7.000000 30.000000 -8.000000 
v 7.000000 17.000000 -17.000000 
v -7.000000 13.000000 -12.000000 
v 7.000000 30.000000 -8.000000 
v -7.000000 0.000000 -16.000000 
v -7.000000 13.000000 -12.000000 
v 7.000000 17.000000 -17.000000 
v -7.000000 0.000000 -16.000000 
v -7.000000 -13.000000 -12.000000 
v -13.000000 0.000000 8.000000 
v -7.000000 13.000000 -12.000000 
v -7.000000 0.000000 -16.000000 
v -13.000000 0.000000 8.000000 
v -7.000000 -13.000000 -12.000000 
v -7.000000 -24.000000 -5.000000 
v -13.000000 0.000000 8.000000 
v -7.000000 -24.000000 -5.000000 
v -7.000000 -27.000000 8.000000 
v -13.000000 0.000000 8.000000 
v -7.000000 -27.000000 8.000000 
v -7.000000 -24.000000 17.000000 
v -13.000000 0.000000 8.000000 
v -7.000000 -24.000000 17.000000 
v -7.000000 -13.000000 24.000000 
v -13.000000 0.000000 8.000000 
v -7.000000 -13.000000 24.000000 
v -7.000000 0.000000 28.000000 
v -13.000000 0.000000 8.000000 
v -7.000000 0.000000 28.000000 
v -7.000000 13.000000 24.000000 
v -13.000000 0.000000 8.000000 
v -7.000000 13.000000 24.000000 
v -7.000000 24.000000 17.000000 
v -13.000000 0.000000 8.000000 
v -7.000000 24.000000 17.000000 
v -7.000000 27.000000 8.000000 
v -13.000000 0.000000 8.000000 
v -7.000000 27.000000 8.000000 
v -7.000000 24.000000 -5.000000 
v -13.000000 0.000000 8.000000 
v -7.000000 24.000000 -5.000000 
v -7.000000 13.000000 -12.000000 
v -13.000000 0.000000 8.000000 
vn -0.873291 -0.189453 -0.448730 
vn -0.871826 0.038818 -0.487793 
vn -0.649902 -0.067627 -0.756836 
vn -0.686768 -0.348633 -0.637451 
vn -0.873291 -0.189453 -0.448730 
vn -0.649902 -0.067627 -0.756836 
vn -0.649902 -0.067627 -0.756836 
vn -0.871826 0.038818 -0.487793 
vn -0.655518 0.271240 -0.704590 
vn -0.901367 -0.326660 -0.283447 
vn -0.873291 -0.189453 -0.448730 
vn -0.686768 -0.348633 -0.637451 
vn -0.763916 -0.565186 -0.310791 
vn -0.901367 -0.326660 -0.283447 
vn -0.686768 -0.348633 -0.637451 
vn -0.909180 -0.415771 -0.013428 
vn -0.901367 -0.326660 -0.283447 
vn -0.763916 -0.565186 -0.310791 
vn -0.745605 -0.651855 0.137695 
vn -0.909180 -0.415771 -0.013428 
vn -0.763916 -0.565186 -0.310791 
vn -0.878418 -0.384033 0.283936 
vn -0.909180 -0.415771 -0.013428 
vn -0.745605 -0.651855 0.137695 
vn -0.675537 -0.538330 0.503174 
vn -0.878418 -0.384033 0.283936 
vn -0.745605 -0.651855 0.137695 
vn -0.880127 -0.239258 0.409424 
vn -0.878418 -0.384033 0.283936 
vn -0.675537 -0.538330 0.503174 
vn -0.762695 -0.272217 0.586182 
vn -0.880127 -0.239258 0.409424 
vn -0.675537 -0.538330 0.503174 
vn -0.900146 -0.032959 0.434082 
vn -0.880127 -0.239258 0.409424 
vn -0.762695 -0.272217 0.586182 
vn -0.763184 0.057373 0.643555 
vn -0.900146 -0.032959 0.434082 
vn -0.762695 -0.272217 0.586182 
vn -0.899414 0.160156 0.406494 
vn -0.900146 -0.032959 0.434082 
vn -0.763184 0.057373 0.643555 
vn -0.723877 0.363037 0.586426 
vn -0.899414 0.160156 0.406494 
vn -0.763184 0.057373 0.643555 
vn -0.887695 0.346680 0.302002 
vn -0.899414 0.160156 0.406494 
vn -0.723877 0.363037 0.586426 
vn -0.687988 0.617920 0.380127 
vn -0.887695 0.346680 0.302002 
vn -0.723877 0.363037 0.586426 
vn -0.903564 0.419922 0.081787 
vn -0.887695 0.346680 0.302002 
vn -0.687988 0.617920 0.380127 
vn -0.763916 0.645020 -0.012939 
vn -0.903564 0.419922 0.081787 
vn -0.687988 0.617920 0.380127 
vn -0.909180 0.367188 -0.195557 
vn -0.903564 0.419922 0.081787 
vn -0.763916 0.645020 -0.012939 
vn -0.741211 0.499756 -0.447510 
vn -0.909180 0.367188 -0.195557 
vn -0.763916 0.645020 -0.012939 
vn -0.883789 0.221680 -0.411865 
vn -0.909180 0.367188 -0.195557 
vn -0.741211 0.499756 -0.447510 
vn -0.655518 0.271240 -0.704590 
vn -0.883789 0.221680 -0.411865 
vn -0.741211 0.499756 -0.447510 
vn -0.871826 0.038818 -0.487793 
vn -0.883789 0.221680 -0.411865 
vn -0.655518 0.271240 -0.704590 
vn -0.871826 0.038818 -0.487793 
vn -0.873291 -0.189453 -0.448730 
vn -0.999756 0.000000 0.011719 
vn -0.883789 0.221680 -0.411865 
vn -0.871826 0.038818 -0.487793 
vn -0.999756 0.000000 0.011719 
vn -0.873291 -0.189453 -0.448730 
vn -0.901367 -0.326660 -0.283447 
vn -0.999756 0.000000 0.011719 
vn -0.901367 -0.326660 -0.283447 
vn -0.909180 -0.415771 -0.013428 
vn -0.999756 0.000000 0.011719 
vn -0.909180 -0.415771 -0.013428 
vn -0.878418 -0.384033 0.283936 
vn -0.999756 0.000000 0.011719 
vn -0.878418 -0.384033 0.283936 
vn -0.880127 -0.239258 0.409424 
vn -0.999756 0.000000 0.011719 
vn -0.880127 -0.239258 0.409424 
vn -0.900146 -0.032959 0.434082 
vn -0.999756 0.000000 0.011719 
vn -0.900146 -0.032959 0.434082 
vn -0.899414 0.160156 0.406494 
vn -0.999756 0.000000 0.011719 
vn -0.899414 0.160156 0.406494 
vn -0.887695 0.346680 0.302002 
vn -0.999756 0.000000 0.011719 
vn -0.887695 0.346680 0.302002 
vn -0.903564 0.419922 0.081787 
vn -0.999756 0.000000 0.011719 
vn -0.903564 0.419922 0.081787 
vn -0.909180 0.367188 -0.195557 
vn -0.999756 0.000000 0.011719 
vn -0.909180 0.367188 -0.195557 
vn -0.883789 0.221680 -0.411865 
vn -0.999756 0.000000 0.011719 
vt 0.746032 0.809524 
vt 0.825397 0.857143 
vt 0.825397 0.936508 
vt 0.714286 0.888889 
vt 0.746032 0.809524 
vt 0.825397 0.936508 
vt 0.825397 0.936508 
vt 0.825397 0.857143 
vt 0.714286 0.888889 
vt 0.682540 0.714286 
vt 0.746032 0.809524 
vt 0.714286 0.888889 
vt 0.650794 0.746032 
vt 0.682540 0.714286 
vt 0.714286 0.888889 
vt 0.666667 0.571429 
vt 0.682540 0.714286 
vt 0.650794 0.746032 
vt 0.634921 0.571429 
vt 0.666667 0.571429 
vt 0.650794 0.746032 
vt 0.682540 0.428571 
vt 0.666667 0.571429 
vt 0.634921 0.571429 
vt 0.650794 0.396825 
vt 0.682540 0.428571 
vt 0.634921 0.571429 
vt 0.746032 0.333333 
vt 0.682540 0.428571 
vt 0.650794 0.396825 
vt 0.714286 0.269841 
vt 0.746032 0.333333 
vt 0.650794 0.396825 
vt 0.825397 0.301587 
vt 0.746032 0.333333 
vt 0.714286 0.269841 
vt 0.825397 0.222222 
vt 0.825397 0.301587 
vt 0.714286 0.269841 
vt 0.746032 0.333333 
vt 0.825397 0.301587 
vt 0.825397 0.222222 
vt 0.714286 0.269841 
vt 0.746032 0.333333 
vt 0.825397 0.222222 
vt 0.682540 0.428571 
vt 0.746032 0.333333 
vt 0.714286 0.269841 
vt 0.650794 0.396825 
vt 0.682540 0.428571 
vt 0.714286 0.269841 
vt 0.666667 0.571429 
vt 0.682540 0.428571 
vt 0.650794 0.396825 
vt 0.634921 0.571429 
vt 0.666667 0.571429 
vt 0.650794 0.396825 
vt 0.682540 0.714286 
vt 0.666667 0.571429 
vt 0.634921 0.571429 
vt 0.650794 0.746032 
vt 0.682540 0.714286 
vt 0.634921 0.571429 
vt 0.746032 0.809524 
vt 0.682540 0.714286 
vt 0.650794 0.746032 
vt 0.714286 0.888889 
vt 0.746032 0.809524 
vt 0.650794 0.746032 
vt 0.825397 0.857143 
vt 0.746032 0.809524 
vt 0.714286 0.888889 
vt 0.825397 0.857143 
vt 0.746032 0.809524 
vt 0.825397 0.571429 
vt 0.746032 0.809524 
vt 0.825397 0.857143 
vt 0.825397 0.571429 
vt 0.746032 0.809524 
vt 0.682540 0.714286 
vt 0.825397 0.571429 
vt 0.682540 0.714286 
vt 0.666667 0.571429 
vt 0.825397 0.571429 
vt 0.666667 0.571429 
vt 0.682540 0.428571 
vt 0.825397 0.571429 
vt 0.682540 0.428571 
vt 0.746032 0.333333 
vt 0.825397 0.571429 
vt 0.746032 0.333333 
vt 0.825397 0.301587 
vt 0.825397 0.571429 
vt 0.825397 0.301587 
vt 0.746032 0.333333 
vt 0.825397 0.571429 
vt 0.746032 0.333333 
vt 0.682540 0.428571 
vt 0.825397 0.571429 
vt 0.682540 0.428571 
vt 0.666667 0.571429 
vt 0.825397 0.571429 
vt 0.666667 0.571429 
vt 0.682540 0.714286 
vt 0.825397 0.571429 
vt 0.682540 0.714286 
vt 0.746032 0.809524 
vt 0.825397 0.571429 
f 1/1/1 2/2/2 3/3/3
f 4/4/4 5/5/5 6/6/6
f 7/7/7 8/8/8 9/9/9
f 10/10/10 11/11/11 12/12/12
f 13/13/13 14/14/14 15/15/15
f 16/16/16 17/17/17 18/18/18
f 19/19/19 20/20/20 21/21/21
f 22/22/22 23/23/23 24/24/24
f 25/25/25 26/26/26 27/27/27
f 28/28/28 29/29/29 30/30/30
f 31/31/31 32/32/32 33/33/33
f 34/34/34 35/35/35 36/36/36
f 37/37/37 38/38/38 39/39/39
f 40/40/40 41/41/41 42/42/42
f 43/43/43 44/44/44 45/45/45
f 46/46/46 47/47/47 48/48/48
f 49/49/49 50/50/50 51/51/51
f 52/52/52 53/53/53 54/54/54
f 55/55/55 56/56/56 57/57/57
f 58/58/58 59/59/59 60/60/60
f 61/61/61 62/62/62 63/63/63
f 64/64/64 65/65/65 66/66/66
f 67/67/67 68/68/68 69/69/69
f 70/70/70 71/71/71 72/72/72
f 73/73/73 74/74/74 75/75/75
f 76/76/76 77/77/77 78/78/78
f 79/79/79 80/80/80 81/81/81
f 82/82/82 83/83/83 84/84/84
f 85/85/85 86/86/86 87/87/87
f 88/88/88 89/89/89 90/90/90
f 91/91/91 92/92/92 93/93/93
f 94/94/94 95/95/95 96/96/96
f 97/97/97 98/98/98 99/99/99
f 100/100/100 101/101/101 102/102/102
f 103/103/103 104/104/104 105/105/105
f 106/106/106 107/107/107 108/108/108
