v 5.000000 7.000000 -6.000000 
v -1.000000 1.000000 -6.000000 
v 4.000000 2.000000 -9.000000 
v -1.000000 -1.000000 -6.000000 
v 4.000000 2.000000 -9.000000 
v -1.000000 1.000000 -6.000000 
v 4.000000 2.000000 -9.000000 
v -1.000000 -1.000000 -6.000000 
v 4.000000 -2.000000 -9.000000 
v 5.000000 -7.000000 4.000000 
v 0.000000 -1.000000 5.000000 
v 6.000000 -3.000000 8.000000 
v 0.000000 1.000000 5.000000 
v 6.000000 -3.000000 8.000000 
v 0.000000 -1.000000 5.000000 
v 6.000000 -3.000000 8.000000 
v 0.000000 1.000000 5.000000 
v 6.000000 3.000000 8.000000 
v 10.000000 3.000000 -1.000000 
v 9.000000 2.000000 -6.000000 
v 0.000000 4.000000 0.000000 
v 9.000000 2.000000 -6.000000 
v 0.000000 2.000000 -4.000000 
v 0.000000 4.000000 0.000000 
v 10.000000 3.000000 -1.000000 
v 0.000000 4.000000 0.000000 
v 1.000000 0.000000 3.000000 
v 9.000000 2.000000 -6.000000 
v 9.000000 -2.000000 -6.000000 
v 0.000000 2.000000 -4.000000 
v 9.000000 -2.000000 -6.000000 
v 0.000000 -2.000000 -5.000000 
v 0.000000 2.000000 -4.000000 
v 9.000000 -2.000000 -6.000000 
v 10.000000 -3.000000 -1.000000 
v 0.000000 -2.000000 -5.000000 
v 10.000000 -3.000000 -1.000000 
v 0.000000 -4.000000 0.000000 
v 0.000000 -2.000000 -5.000000 
v 10.000000 -3.000000 -1.000000 
v 11.000000 0.000000 1.000000 
v 0.000000 -4.000000 0.000000 
v 11.000000 0.000000 1.000000 
v 1.000000 0.000000 3.000000 
v 0.000000 -4.000000 0.000000 
v 11.000000 0.000000 1.000000 
v 10.000000 3.000000 -1.000000 
v 1.000000 0.000000 3.000000 
v 17.000000 3.000000 -1.000000 
v 17.000000 2.000000 -5.000000 
v 10.000000 3.000000 -1.000000 
v 17.000000 2.000000 -5.000000 
v 9.000000 2.000000 -6.000000 
v 10.000000 3.000000 -1.000000 
v 17.000000 3.000000 -1.000000 
v 10.000000 3.000000 -1.000000 
v 11.000000 0.000000 1.000000 
v 17.000000 2.000000 -5.000000 
v 17.000000 -2.000000 -5.000000 
v 9.000000 2.000000 -6.000000 
v 17.000000 -2.000000 -5.000000 
v 9.000000 -2.000000 -6.000000 
v 9.000000 2.000000 -6.000000 
v 17.000000 -2.000000 -5.000000 
v 17.000000 -3.000000 -1.000000 
v 9.000000 -2.000000 -6.000000 
v 17.000000 -3.000000 -1.000000 
v 10.000000 -3.000000 -1.000000 
v 9.000000 -2.000000 -6.000000 
v 17.000000 -3.000000 -1.000000 
v 17.000000 0.000000 1.000000 
v 10.000000 -3.000000 -1.000000 
v 17.000000 0.000000 1.000000 
v 11.000000 0.000000 1.000000 
v 10.000000 -3.000000 -1.000000 
v 17.000000 0.000000 1.000000 
v 17.000000 3.000000 -1.000000 
v 11.000000 0.000000 1.000000 
v 23.000000 2.000000 0.000000 
v 24.000000 1.000000 -3.000000 
v 17.000000 3.000000 -1.000000 
v 24.000000 1.000000 -3.000000 
v 17.000000 2.000000 -5.000000 
v 17.000000 3.000000 -1.000000 
v 23.000000 2.000000 0.000000 
v 17.000000 3.000000 -1.000000 
v 17.000000 0.000000 1.000000 
v 24.000000 1.000000 -3.000000 
v 24.000000 -1.000000 -3.000000 
v 17.000000 2.000000 -5.000000 
v 24.000000 -1.000000 -3.000000 
v 17.000000 -2.000000 -5.000000 
v 17.000000 2.000000 -5.000000 
v 24.000000 -1.000000 -3.000000 
v 23.000000 -2.000000 0.000000 
v 17.000000 -2.000000 -5.000000 
v 23.000000 -2.000000 0.000000 
v 17.000000 -3.000000 -1.000000 
v 17.000000 -2.000000 -5.000000 
v 23.000000 -2.000000 0.000000 
v 23.000000 0.000000 1.000000 
v 17.000000 -3.000000 -1.000000 
v 23.000000 0.000000 1.000000 
v 17.000000 0.000000 1.000000 
v 17.000000 -3.000000 -1.000000 
v 23.000000 0.000000 1.000000 
v 23.000000 2.000000 0.000000 
v 17.000000 0.000000 1.000000 
v 24.000000 1.000000 -3.000000 
v 23.000000 2.000000 0.000000 
v 28.000000 0.000000 1.000000 
v 23.000000 2.000000 0.000000 
v 23.000000 0.000000 1.000000 
v 28.000000 0.000000 1.000000 
v 24.000000 -1.000000 -3.000000 
v 24.000000 1.000000 -3.000000 
v 28.000000 0.000000 1.000000 
v 23.000000 -2.000000 0.000000 
v 24.000000 -1.000000 -3.000000 
v 28.000000 0.000000 1.000000 
v 23.000000 0.000000 1.000000 
v 23.000000 -2.000000 0.000000 
v 28.000000 0.000000 1.000000 
vn 0.978760 0.046143 -0.198975 
vn 0.772461 -0.304932 0.556641 
vn 0.973633 0.011475 -0.226807 
vn 0.782227 0.147705 0.604736 
vn 0.973633 0.011475 -0.226807 
vn 0.772461 -0.304932 0.556641 
vn 0.973633 0.011475 -0.226807 
vn 0.782227 0.147705 0.604736 
vn 0.975098 -0.020508 -0.220215 
vn 0.991943 -0.040039 -0.119141 
vn 0.706543 0.244873 -0.663818 
vn 0.994141 -0.009521 -0.107422 
vn 0.702637 -0.122314 -0.700684 
vn 0.994141 -0.009521 -0.107422 
vn 0.706543 0.244873 -0.663818 
vn 0.994141 -0.009521 -0.107422 
vn 0.702637 -0.122314 -0.700684 
vn 0.993896 0.027100 -0.104736 
vn 0.128906 0.947266 0.292969 
vn 0.186523 0.565186 -0.803223 
vn 0.147461 0.987793 0.048828 
vn 0.186523 0.565186 -0.803223 
vn 0.040527 0.378906 -0.924316 
vn 0.147461 0.987793 0.048828 
vn 0.128906 0.947266 0.292969 
vn 0.147461 0.987793 0.048828 
vn 0.264648 0.229248 0.936523 
vn 0.186523 0.565186 -0.803223 
vn 0.162354 -0.555420 -0.815186 
vn 0.040527 0.378906 -0.924316 
vn 0.162354 -0.555420 -0.815186 
vn 0.100342 -0.733154 -0.672363 
vn 0.040527 0.378906 -0.924316 
vn 0.162354 -0.555420 -0.815186 
vn 0.075684 -0.954346 0.288086 
vn 0.100342 -0.733154 -0.672363 
vn 0.075684 -0.954346 0.288086 
vn 0.246826 -0.846680 0.470947 
vn 0.100342 -0.733154 -0.672363 
vn 0.075684 -0.954346 0.288086 
vn 0.042725 -0.009033 0.999023 
vn 0.246826 -0.846680 0.470947 
vn 0.042725 -0.009033 0.999023 
vn 0.264648 0.229248 0.936523 
vn 0.246826 -0.846680 0.470947 
vn 0.042725 -0.009033 0.999023 
vn 0.128906 0.947266 0.292969 
vn 0.264648 0.229248 0.936523 
vn 0.053223 0.943115 0.327637 
vn 0.432129 0.523438 -0.734131 
vn 0.128906 0.947266 0.292969 
vn 0.432129 0.523438 -0.734131 
vn 0.186523 0.565186 -0.803223 
vn 0.128906 0.947266 0.292969 
vn 0.053223 0.943115 0.327637 
vn 0.128906 0.947266 0.292969 
vn 0.042725 -0.009033 0.999023 
vn 0.432129 0.523438 -0.734131 
vn 0.392822 -0.521973 -0.756836 
vn 0.186523 0.565186 -0.803223 
vn 0.392822 -0.521973 -0.756836 
vn 0.162354 -0.555420 -0.815186 
vn 0.186523 0.565186 -0.803223 
vn 0.392822 -0.521973 -0.756836 
vn -0.041992 -0.951660 0.303955 
vn 0.162354 -0.555420 -0.815186 
vn -0.041992 -0.951660 0.303955 
vn 0.075684 -0.954346 0.288086 
vn 0.162354 -0.555420 -0.815186 
vn -0.041992 -0.951660 0.303955 
vn -0.283447 -0.008789 0.958740 
vn 0.075684 -0.954346 0.288086 
vn -0.283447 -0.008789 0.958740 
vn 0.042725 -0.009033 0.999023 
vn 0.075684 -0.954346 0.288086 
vn -0.283447 -0.008789 0.958740 
vn 0.053223 0.943115 0.327637 
vn 0.042725 -0.009033 0.999023 
vn -0.112793 0.826416 0.551025 
vn 0.496582 0.650635 -0.574219 
vn 0.053223 0.943115 0.327637 
vn 0.496582 0.650635 -0.574219 
vn 0.432129 0.523438 -0.734131 
vn 0.053223 0.943115 0.327637 
vn -0.112793 0.826416 0.551025 
vn 0.053223 0.943115 0.327637 
vn -0.283447 -0.008789 0.958740 
vn 0.496582 0.650635 -0.574219 
vn 0.552979 -0.320068 -0.769043 
vn 0.432129 0.523438 -0.734131 
vn 0.552979 -0.320068 -0.769043 
vn 0.392822 -0.521973 -0.756836 
vn 0.432129 0.523438 -0.734131 
vn 0.552979 -0.320068 -0.769043 
vn 0.096924 -0.993164 0.063232 
vn 0.392822 -0.521973 -0.756836 
vn 0.096924 -0.993164 0.063232 
vn -0.041992 -0.951660 0.303955 
vn 0.392822 -0.521973 -0.756836 
vn 0.096924 -0.993164 0.063232 
vn -0.380371 -0.206787 0.901123 
vn -0.041992 -0.951660 0.303955 
vn -0.380371 -0.206787 0.901123 
vn -0.283447 -0.008789 0.958740 
vn -0.041992 -0.951660 0.303955 
vn -0.380371 -0.206787 0.901123 
vn -0.112793 0.826416 0.551025 
vn -0.283447 -0.008789 0.958740 
vn 0.899170 0.255371 -0.355225 
vn 0.640137 0.690918 0.335205 
vn 0.985840 -0.048584 0.160400 
vn 0.640137 0.690918 0.335205 
vn 0.019531 -0.018066 0.999512 
vn 0.985840 -0.048584 0.160400 
vn 0.865967 -0.329102 -0.376221 
vn 0.899170 0.255371 -0.355225 
vn 0.985840 -0.048584 0.160400 
vn 0.487549 -0.804199 0.339600 
vn 0.865967 -0.329102 -0.376221 
vn 0.985840 -0.048584 0.160400 
vn 0.019531 -0.018066 0.999512 
vn 0.487549 -0.804199 0.339600 
vn 0.985840 -0.048584 0.160400 
vt 0.913386 0.944882 
vt 0.881890 0.913386 
vt 0.889764 0.952756 
vt 0.858268 0.913386 
vt 0.889764 0.952756 
vt 0.881890 0.913386 
vt 0.889764 0.952756 
vt 0.858268 0.913386 
vt 0.858268 0.952756 
vt 0.724409 0.535433 
vt 0.779528 0.488189 
vt 0.771654 0.527559 
vt 0.811024 0.488189 
vt 0.771654 0.527559 
vt 0.779528 0.488189 
vt 0.771654 0.527559 
vt 0.811024 0.488189 
vt 0.818898 0.527559 
vt 0.984252 0.755906 
vt 0.881890 0.763780 
vt 0.992126 0.559055 
vt 0.881890 0.763780 
vt 0.881890 0.559055 
vt 0.992126 0.559055 
vt 0.984252 0.755906 
vt 0.992126 0.559055 
vt 0.881890 0.559055 
vt 0.881890 0.763780 
vt 0.740157 0.763780 
vt 0.881890 0.559055 
vt 0.740157 0.763780 
vt 0.732283 0.543307 
vt 0.881890 0.559055 
vt 0.740157 0.763780 
vt 0.740157 0.755906 
vt 0.732283 0.543307 
vt 0.740157 0.755906 
vt 0.732283 0.543307 
vt 0.732283 0.543307 
vt 0.740157 0.755906 
vt 0.881890 0.755906 
vt 0.732283 0.543307 
vt 0.881890 0.755906 
vt 0.881890 0.559055 
vt 0.732283 0.543307 
vt 0.881890 0.755906 
vt 0.984252 0.755906 
vt 0.881890 0.559055 
vt 0.992126 0.881890 
vt 0.905512 0.905512 
vt 0.984252 0.755906 
vt 0.905512 0.905512 
vt 0.881890 0.763780 
vt 0.984252 0.755906 
vt 0.992126 0.881890 
vt 0.984252 0.755906 
vt 0.881890 0.755906 
vt 0.905512 0.905512 
vt 0.748031 0.897638 
vt 0.881890 0.763780 
vt 0.748031 0.897638 
vt 0.740157 0.763780 
vt 0.881890 0.763780 
vt 0.748031 0.897638 
vt 0.740157 0.866142 
vt 0.740157 0.763780 
vt 0.740157 0.866142 
vt 0.740157 0.755906 
vt 0.740157 0.763780 
vt 0.740157 0.866142 
vt 0.897638 0.866142 
vt 0.740157 0.755906 
vt 0.897638 0.866142 
vt 0.881890 0.755906 
vt 0.740157 0.755906 
vt 0.897638 0.866142 
vt 0.992126 0.881890 
vt 0.881890 0.755906 
vt 0.992126 0.992126 
vt 0.897638 0.992126 
vt 0.992126 0.881890 
vt 0.897638 0.992126 
vt 0.905512 0.905512 
vt 0.992126 0.881890 
vt 0.992126 0.992126 
vt 0.992126 0.881890 
vt 0.897638 0.866142 
vt 0.897638 0.992126 
vt 0.755906 0.984252 
vt 0.905512 0.905512 
vt 0.755906 0.984252 
vt 0.748031 0.897638 
vt 0.905512 0.905512 
vt 0.755906 0.984252 
vt 0.755906 0.952756 
vt 0.748031 0.897638 
vt 0.755906 0.952756 
vt 0.740157 0.866142 
vt 0.748031 0.897638 
vt 0.755906 0.952756 
vt 0.921260 0.968504 
vt 0.740157 0.866142 
vt 0.921260 0.968504 
vt 0.897638 0.866142 
vt 0.740157 0.866142 
vt 0.921260 0.968504 
vt 0.992126 0.992126 
vt 0.897638 0.866142 
vt 0.897638 0.992126 
vt 0.992126 0.992126 
vt 0.897638 0.929134 
vt 0.992126 0.992126 
vt 0.921260 0.968504 
vt 0.897638 0.929134 
vt 0.755906 0.984252 
vt 0.897638 0.992126 
vt 0.897638 0.929134 
vt 0.755906 0.952756 
vt 0.755906 0.984252 
vt 0.897638 0.929134 
vt 0.921260 0.968504 
vt 0.755906 0.952756 
vt 0.897638 0.929134 
f 1/1/1 2/2/2 3/3/3
f 4/4/4 5/5/5 6/6/6
f 7/7/7 8/8/8 9/9/9
f 10/10/10 11/11/11 12/12/12
f 13/13/13 14/14/14 15/15/15
f 16/16/16 17/17/17 18/18/18
f 19/19/19 20/20/20 21/21/21
f 22/22/22 23/23/23 24/24/24
f 25/25/25 26/26/26 27/27/27
f 28/28/28 29/29/29 30/30/30
f 31/31/31 32/32/32 33/33/33
f 34/34/34 35/35/35 36/36/36
f 37/37/37 38/38/38 39/39/39
f 40/40/40 41/41/41 42/42/42
f 43/43/43 44/44/44 45/45/45
f 46/46/46 47/47/47 48/48/48
f 49/49/49 50/50/50 51/51/51
f 52/52/52 53/53/53 54/54/54
f 55/55/55 56/56/56 57/57/57
f 58/58/58 59/59/59 60/60/60
f 61/61/61 62/62/62 63/63/63
f 64/64/64 65/65/65 66/66/66
f 67/67/67 68/68/68 69/69/69
f 70/70/70 71/71/71 72/72/72
f 73/73/73 74/74/74 75/75/75
f 76/76/76 77/77/77 78/78/78
f 79/79/79 80/80/80 81/81/81
f 82/82/82 83/83/83 84/84/84
f 85/85/85 86/86/86 87/87/87
f 88/88/88 89/89/89 90/90/90
f 91/91/91 92/92/92 93/93/93
f 94/94/94 95/95/95 96/96/96
f 97/97/97 98/98/98 99/99/99
f 100/100/100 101/101/101 102/102/102
f 103/103/103 104/104/104 105/105/105
f 106/106/106 107/107/107 108/108/108
f 109/109/109 110/110/110 111/111/111
f 112/112/112 113/113/113 114/114/114
f 115/115/115 116/116/116 117/117/117
f 118/118/118 119/119/119 120/120/120
f 121/121/121 122/122/122 123/123/123
