v 39.000000 0.000000 6.000000 
v 36.000000 13.000000 2.000000 
v 0.000000 6.000000 0.000000 
v 0.000000 6.000000 0.000000 
v 36.000000 13.000000 2.000000 
v 0.000000 -1.000000 -3.000000 
v 40.000000 3.000000 -3.000000 
v 42.000000 -5.000000 2.000000 
v 0.000000 -4.000000 4.000000 
v 0.000000 -1.000000 -3.000000 
v 40.000000 3.000000 -3.000000 
v 0.000000 -4.000000 4.000000 
v 36.000000 13.000000 2.000000 
v 40.000000 3.000000 -3.000000 
v 0.000000 -1.000000 -3.000000 
v 36.000000 13.000000 2.000000 
v 40.000000 3.000000 -3.000000 
v 39.000000 0.000000 6.000000 
v 40.000000 3.000000 -3.000000 
v 42.000000 -5.000000 2.000000 
v 39.000000 0.000000 6.000000 
v 43.000000 6.000000 -5.000000 
v 47.000000 -2.000000 -2.000000 
v 42.000000 -5.000000 2.000000 
v 40.000000 3.000000 -3.000000 
v 43.000000 6.000000 -5.000000 
v 42.000000 -5.000000 2.000000 
v 43.000000 9.000000 -4.000000 
v 43.000000 6.000000 -5.000000 
v 40.000000 3.000000 -3.000000 
vn -0.326416 -0.303223 0.895020 
vn -0.991943 0.075928 -0.100586 
vn -0.817627 0.390869 -0.422363 
vn -0.817627 0.390869 -0.422363 
vn -0.991943 0.075928 -0.100586 
vn 0.264648 -0.256836 -0.929443 
vn 0.255127 -0.581055 -0.772461 
vn 0.657471 -0.740479 0.138672 
vn 0.513184 -0.830078 0.217041 
vn 0.264648 -0.256836 -0.929443 
vn 0.255127 -0.581055 -0.772461 
vn 0.513184 -0.830078 0.217041 
vn -0.991943 0.075928 -0.100586 
vn 0.255127 -0.581055 -0.772461 
vn 0.264648 -0.256836 -0.929443 
vn -0.991943 0.075928 -0.100586 
vn 0.255127 -0.581055 -0.772461 
vn -0.326416 -0.303223 0.895020 
vn 0.255127 -0.581055 -0.772461 
vn 0.657471 -0.740479 0.138672 
vn -0.326416 -0.303223 0.895020 
vn 0.288574 -0.348877 -0.891357 
vn 0.526855 -0.634033 -0.565674 
vn 0.657471 -0.740479 0.138672 
vn 0.255127 -0.581055 -0.772461 
vn 0.288574 -0.348877 -0.891357 
vn 0.657471 -0.740479 0.138672 
vn -0.142578 -0.279541 -0.949219 
vn 0.288574 -0.348877 -0.891357 
vn 0.255127 -0.581055 -0.772461 
vt 0.937008 0.937008 
vt 0.708661 0.937008 
vt 0.708661 0.488189 
vt 0.937008 0.488189 
vt 0.937008 0.937008 
vt 0.708661 0.488189 
vt 0.937008 0.937008 
vt 0.708661 0.937008 
vt 0.708661 0.488189 
vt 0.937008 0.488189 
vt 0.937008 0.937008 
vt 0.708661 0.488189 
vt 0.937008 0.937008 
vt 0.708661 0.937008 
vt 0.708661 0.488189 
vt 0.968504 0.000000 
vt 0.645669 0.000000 
vt 0.669291 0.716535 
vt 0.968504 0.000000 
vt 0.645669 0.000000 
vt 0.669291 0.716535 
vt 0.952756 0.472441 
vt 0.779528 0.464567 
vt 0.669291 0.716535 
vt 0.944882 0.716535 
vt 0.952756 0.472441 
vt 0.669291 0.716535 
vt 0.763780 0.496063 
vt 0.661417 0.472441 
vt 0.669291 0.716535 
f 1/1/1 2/2/2 3/3/3
f 4/4/4 5/5/5 6/6/6
f 7/7/7 8/8/8 9/9/9
f 10/10/10 11/11/11 12/12/12
f 13/13/13 14/14/14 15/15/15
f 16/16/16 17/17/17 18/18/18
f 19/19/19 20/20/20 21/21/21
f 22/22/22 23/23/23 24/24/24
f 25/25/25 26/26/26 27/27/27
f 28/28/28 29/29/29 30/30/30
