v 0.000000 50.000000 19.000000 
v -9.000000 40.000000 41.000000 
v 10.000000 5.000000 2.000000 
v -9.000000 40.000000 41.000000 
v -3.000000 -11.000000 34.000000 
v 10.000000 5.000000 2.000000 
v -9.000000 40.000000 41.000000 
v -15.000000 40.000000 39.000000 
v -3.000000 -11.000000 34.000000 
v -15.000000 40.000000 39.000000 
v -16.000000 -11.000000 29.000000 
v -3.000000 -11.000000 34.000000 
v -15.000000 40.000000 39.000000 
v -10.000000 50.000000 15.000000 
v -16.000000 -11.000000 29.000000 
v -10.000000 50.000000 15.000000 
v -9.000000 5.000000 -4.000000 
v -16.000000 -11.000000 29.000000 
v -10.000000 50.000000 15.000000 
v -1.000000 57.000000 3.000000 
v -9.000000 5.000000 -4.000000 
v -1.000000 57.000000 3.000000 
v 12.000000 0.000000 -38.000000 
v -9.000000 5.000000 -4.000000 
v -1.000000 57.000000 3.000000 
v 0.000000 50.000000 19.000000 
v 12.000000 0.000000 -38.000000 
v 0.000000 50.000000 19.000000 
v 10.000000 5.000000 2.000000 
v 12.000000 0.000000 -38.000000 
v -11.000000 70.000000 36.000000 
v -9.000000 40.000000 41.000000 
v 0.000000 50.000000 19.000000 
v -11.000000 70.000000 36.000000 
v -15.000000 40.000000 39.000000 
v -9.000000 40.000000 41.000000 
v -11.000000 70.000000 36.000000 
v -10.000000 50.000000 15.000000 
v -15.000000 40.000000 39.000000 
v -11.000000 70.000000 36.000000 
v -1.000000 57.000000 3.000000 
v -10.000000 50.000000 15.000000 
v -11.000000 70.000000 36.000000 
v 0.000000 50.000000 19.000000 
v -1.000000 57.000000 3.000000 
v -10.000000 -4.000000 53.000000 
v -15.000000 -15.000000 62.000000 
v 0.000000 -24.000000 40.000000 
v -15.000000 -15.000000 62.000000 
v -7.000000 -43.000000 45.000000 
v 0.000000 -24.000000 40.000000 
v -15.000000 -15.000000 62.000000 
v -21.000000 -15.000000 60.000000 
v -7.000000 -43.000000 45.000000 
v -21.000000 -15.000000 60.000000 
v -19.000000 -42.000000 41.000000 
v -7.000000 -43.000000 45.000000 
v -21.000000 -15.000000 60.000000 
v -20.000000 -3.000000 50.000000 
v -19.000000 -42.000000 41.000000 
v -20.000000 -3.000000 50.000000 
v -21.000000 -23.000000 33.000000 
v -19.000000 -42.000000 41.000000 
v -20.000000 -3.000000 50.000000 
v -13.000000 5.000000 45.000000 
v -21.000000 -23.000000 33.000000 
v -13.000000 5.000000 45.000000 
v -8.000000 -10.000000 28.000000 
v -21.000000 -23.000000 33.000000 
v -13.000000 5.000000 45.000000 
v -10.000000 -4.000000 53.000000 
v -8.000000 -10.000000 28.000000 
v -10.000000 -4.000000 53.000000 
v 0.000000 -24.000000 40.000000 
v -8.000000 -10.000000 28.000000 
v -20.000000 6.000000 68.000000 
v -15.000000 -15.000000 62.000000 
v -10.000000 -4.000000 53.000000 
v -20.000000 6.000000 68.000000 
v -21.000000 -15.000000 60.000000 
v -15.000000 -15.000000 62.000000 
v -20.000000 6.000000 68.000000 
v -20.000000 -3.000000 50.000000 
v -21.000000 -15.000000 60.000000 
v -20.000000 6.000000 68.000000 
v -13.000000 5.000000 45.000000 
v -20.000000 -3.000000 50.000000 
v -20.000000 6.000000 68.000000 
v -10.000000 -4.000000 53.000000 
v -13.000000 5.000000 45.000000 
vn 0.957031 0.204590 0.205322 
vn 0.542236 0.053223 0.838379 
vn 0.950439 0.119873 0.286377 
vn 0.542236 0.053223 0.838379 
vn 0.086670 -0.128662 0.987793 
vn 0.950439 0.119873 0.286377 
vn 0.542236 0.053223 0.838379 
vn -0.780273 -0.008057 0.625244 
vn 0.086670 -0.128662 0.987793 
vn -0.780273 -0.008057 0.625244 
vn -0.969971 -0.022949 0.241943 
vn 0.086670 -0.128662 0.987793 
vn -0.780273 -0.008057 0.625244 
vn -0.939453 0.175537 -0.293701 
vn -0.969971 -0.022949 0.241943 
vn -0.939453 0.175537 -0.293701 
vn -0.892822 0.174805 -0.414795 
vn -0.969971 -0.022949 0.241943 
vn -0.939453 0.175537 -0.293701 
vn -0.275146 0.707031 -0.651367 
vn -0.892822 0.174805 -0.414795 
vn -0.275146 0.707031 -0.651367 
vn 0.813477 0.460938 -0.354004 
vn -0.892822 0.174805 -0.414795 
vn -0.275146 0.707031 -0.651367 
vn 0.957031 0.204590 0.205322 
vn 0.813477 0.460938 -0.354004 
vn 0.957031 0.204590 0.205322 
vn 0.950439 0.119873 0.286377 
vn 0.813477 0.460938 -0.354004 
vn -0.221191 0.769043 0.599609 
vn 0.542236 0.053223 0.838379 
vn 0.957031 0.204590 0.205322 
vn -0.221191 0.769043 0.599609 
vn -0.780273 -0.008057 0.625244 
vn 0.542236 0.053223 0.838379 
vn -0.221191 0.769043 0.599609 
vn -0.939453 0.175537 -0.293701 
vn -0.780273 -0.008057 0.625244 
vn -0.221191 0.769043 0.599609 
vn -0.275146 0.707031 -0.651367 
vn -0.939453 0.175537 -0.293701 
vn -0.221191 0.769043 0.599609 
vn 0.957031 0.204590 0.205322 
vn -0.275146 0.707031 -0.651367 
vn 0.919678 0.276855 0.277832 
vn 0.474121 -0.219727 0.852295 
vn 0.906494 0.148926 0.394531 
vn 0.474121 -0.219727 0.852295 
vn 0.080322 -0.497803 0.863525 
vn 0.906494 0.148926 0.394531 
vn 0.474121 -0.219727 0.852295 
vn -0.741943 -0.345215 0.574219 
vn 0.080322 -0.497803 0.863525 
vn -0.741943 -0.345215 0.574219 
vn -0.920410 -0.242188 0.306152 
vn 0.080322 -0.497803 0.863525 
vn -0.741943 -0.345215 0.574219 
vn -0.969238 0.187988 -0.157715 
vn -0.920410 -0.242188 0.306152 
vn -0.969238 0.187988 -0.157715 
vn -0.897949 0.280518 -0.338623 
vn -0.920410 -0.242188 0.306152 
vn -0.969238 0.187988 -0.157715 
vn -0.214355 0.872314 -0.439209 
vn -0.897949 0.280518 -0.338623 
vn -0.214355 0.872314 -0.439209 
vn 0.666992 0.661133 -0.343018 
vn -0.897949 0.280518 -0.338623 
vn -0.214355 0.872314 -0.439209 
vn 0.919678 0.276855 0.277832 
vn 0.666992 0.661133 -0.343018 
vn 0.919678 0.276855 0.277832 
vn 0.906494 0.148926 0.394531 
vn 0.666992 0.661133 -0.343018 
vn -0.288574 0.464600 0.836914 
vn 0.474121 -0.219727 0.852295 
vn 0.919678 0.276855 0.277832 
vn -0.288574 0.464600 0.836914 
vn -0.741943 -0.345215 0.574219 
vn 0.474121 -0.219727 0.852295 
vn -0.288574 0.464600 0.836914 
vn -0.969238 0.187988 -0.157715 
vn -0.741943 -0.345215 0.574219 
vn -0.288574 0.464600 0.836914 
vn -0.214355 0.872314 -0.439209 
vn -0.969238 0.187988 -0.157715 
vn -0.288574 0.464600 0.836914 
vn 0.919678 0.276855 0.277832 
vn -0.214355 0.872314 -0.439209 
vt 0.787402 0.937008 
vt 0.692913 0.874016 
vt 0.992126 0.716535 
vt 0.692913 0.874016 
vt 0.692913 0.724409 
vt 0.992126 0.716535 
vt 0.692913 0.874016 
vt 0.692913 0.881890 
vt 0.692913 0.724409 
vt 0.692913 0.881890 
vt 0.692913 0.708661 
vt 0.692913 0.724409 
vt 0.692913 0.881890 
vt 0.803150 0.929134 
vt 0.692913 0.708661 
vt 0.803150 0.929134 
vt 0.992126 0.716535 
vt 0.692913 0.708661 
vt 0.803150 0.929134 
vt 0.826772 0.992126 
vt 0.992126 0.716535 
vt 0.826772 0.992126 
vt 0.992126 0.992126 
vt 0.992126 0.716535 
vt 0.826772 0.992126 
vt 0.787402 0.937008 
vt 0.992126 0.992126 
vt 0.787402 0.937008 
vt 0.992126 0.716535 
vt 0.992126 0.992126 
vt 0.692913 1.000000 
vt 0.692913 0.874016 
vt 0.787402 0.937008 
vt 0.692913 1.000000 
vt 0.692913 0.881890 
vt 0.692913 0.874016 
vt 0.692913 1.000000 
vt 0.803150 0.929134 
vt 0.692913 0.881890 
vt 0.692913 1.000000 
vt 0.826772 0.992126 
vt 0.803150 0.929134 
vt 0.692913 1.000000 
vt 0.787402 0.937008 
vt 0.826772 0.992126 
vt 0.787402 0.937008 
vt 0.692913 0.874016 
vt 0.992126 0.716535 
vt 0.692913 0.874016 
vt 0.692913 0.724409 
vt 0.992126 0.716535 
vt 0.692913 0.874016 
vt 0.692913 0.881890 
vt 0.692913 0.724409 
vt 0.692913 0.881890 
vt 0.692913 0.708661 
vt 0.692913 0.724409 
vt 0.692913 0.881890 
vt 0.803150 0.929134 
vt 0.692913 0.708661 
vt 0.803150 0.929134 
vt 0.992126 0.716535 
vt 0.692913 0.708661 
vt 0.803150 0.929134 
vt 0.826772 0.992126 
vt 0.992126 0.716535 
vt 0.826772 0.992126 
vt 0.992126 0.992126 
vt 0.992126 0.716535 
vt 0.826772 0.992126 
vt 0.787402 0.937008 
vt 0.992126 0.992126 
vt 0.787402 0.937008 
vt 0.992126 0.716535 
vt 0.992126 0.992126 
vt 0.692913 1.000000 
vt 0.692913 0.874016 
vt 0.787402 0.937008 
vt 0.692913 1.000000 
vt 0.692913 0.881890 
vt 0.692913 0.874016 
vt 0.692913 1.000000 
vt 0.803150 0.929134 
vt 0.692913 0.881890 
vt 0.692913 1.000000 
vt 0.826772 0.992126 
vt 0.803150 0.929134 
vt 0.692913 1.000000 
vt 0.787402 0.937008 
vt 0.826772 0.992126 
f 1/1/1 2/2/2 3/3/3
f 4/4/4 5/5/5 6/6/6
f 7/7/7 8/8/8 9/9/9
f 10/10/10 11/11/11 12/12/12
f 13/13/13 14/14/14 15/15/15
f 16/16/16 17/17/17 18/18/18
f 19/19/19 20/20/20 21/21/21
f 22/22/22 23/23/23 24/24/24
f 25/25/25 26/26/26 27/27/27
f 28/28/28 29/29/29 30/30/30
f 31/31/31 32/32/32 33/33/33
f 34/34/34 35/35/35 36/36/36
f 37/37/37 38/38/38 39/39/39
f 40/40/40 41/41/41 42/42/42
f 43/43/43 44/44/44 45/45/45
f 46/46/46 47/47/47 48/48/48
f 49/49/49 50/50/50 51/51/51
f 52/52/52 53/53/53 54/54/54
f 55/55/55 56/56/56 57/57/57
f 58/58/58 59/59/59 60/60/60
f 61/61/61 62/62/62 63/63/63
f 64/64/64 65/65/65 66/66/66
f 67/67/67 68/68/68 69/69/69
f 70/70/70 71/71/71 72/72/72
f 73/73/73 74/74/74 75/75/75
f 76/76/76 77/77/77 78/78/78
f 79/79/79 80/80/80 81/81/81
f 82/82/82 83/83/83 84/84/84
f 85/85/85 86/86/86 87/87/87
f 88/88/88 89/89/89 90/90/90
