v 6.000000 0.000000 -13.000000 
v 5.000000 13.000000 0.000000 
v 49.000000 16.000000 3.000000 
v 5.000000 13.000000 0.000000 
v 3.000000 0.000000 12.000000 
v 45.000000 0.000000 19.000000 
v 49.000000 16.000000 3.000000 
v 5.000000 13.000000 0.000000 
v 45.000000 0.000000 19.000000 
v 53.000000 0.000000 -11.000000 
v 6.000000 0.000000 -13.000000 
v 49.000000 16.000000 3.000000 
v 5.000000 -11.000000 0.000000 
v 6.000000 0.000000 -13.000000 
v 53.000000 0.000000 -11.000000 
v 49.000000 -15.000000 3.000000 
v 5.000000 -11.000000 0.000000 
v 53.000000 0.000000 -11.000000 
v 3.000000 0.000000 12.000000 
v 5.000000 -11.000000 0.000000 
v 49.000000 -15.000000 3.000000 
v 45.000000 0.000000 19.000000 
v 3.000000 0.000000 12.000000 
v 49.000000 -15.000000 3.000000 
vn 0.199951 -0.139160 -0.969727 
vn 0.033936 0.988770 -0.144531 
vn -0.016357 0.946777 -0.321045 
vn 0.033936 0.988770 -0.144531 
vn -0.217529 0.130859 0.967041 
vn -0.145996 0.315430 0.937500 
vn -0.016357 0.946777 -0.321045 
vn 0.033936 0.988770 -0.144531 
vn -0.145996 0.315430 0.937500 
vn 0.025391 -0.312744 -0.949219 
vn 0.199951 -0.139160 -0.969727 
vn -0.016357 0.946777 -0.321045 
vn -0.080322 -0.988525 0.126465 
vn 0.199951 -0.139160 -0.969727 
vn 0.025391 -0.312744 -0.949219 
vn -0.109619 -0.946533 0.302734 
vn -0.080322 -0.988525 0.126465 
vn 0.025391 -0.312744 -0.949219 
vn -0.217529 0.130859 0.967041 
vn -0.080322 -0.988525 0.126465 
vn -0.109619 -0.946533 0.302734 
vn -0.145996 0.315430 0.937500 
vn -0.217529 0.130859 0.967041 
vn -0.109619 -0.946533 0.302734 
vt 0.952756 0.629921 
vt 0.685039 0.629921 
vt 0.677165 0.000000 
vt 0.976378 0.606299 
vt 0.818898 0.606299 
vt 0.818898 -0.007874 
vt 0.976378 -0.007874 
vt 0.976378 0.606299 
vt 0.818898 -0.007874 
vt 0.944882 0.000000 
vt 0.952756 0.629921 
vt 0.677165 0.000000 
vt 0.952756 0.629921 
vt 0.685039 0.629921 
vt 0.677165 0.000000 
vt 0.944882 0.000000 
vt 0.952756 0.629921 
vt 0.677165 0.000000 
vt 0.818898 0.606299 
vt 0.653543 0.606299 
vt 0.645669 -0.007874 
vt 0.818898 -0.007874 
vt 0.818898 0.606299 
vt 0.645669 -0.007874 
f 1/1/1 2/2/2 3/3/3
f 4/4/4 5/5/5 6/6/6
f 7/7/7 8/8/8 9/9/9
f 10/10/10 11/11/11 12/12/12
f 13/13/13 14/14/14 15/15/15
f 16/16/16 17/17/17 18/18/18
f 19/19/19 20/20/20 21/21/21
f 22/22/22 23/23/23 24/24/24
