v 4.000000 25.000000 1.000000 
v -1.000000 26.000000 13.000000 
v 9.000000 6.000000 1.000000 
v -1.000000 26.000000 13.000000 
v 1.000000 3.000000 13.000000 
v 9.000000 6.000000 1.000000 
v -1.000000 26.000000 13.000000 
v -6.000000 26.000000 11.000000 
v 1.000000 3.000000 13.000000 
v -6.000000 26.000000 11.000000 
v -9.000000 3.000000 9.000000 
v 1.000000 3.000000 13.000000 
v -6.000000 26.000000 11.000000 
v -3.000000 25.000000 -2.000000 
v -9.000000 3.000000 9.000000 
v -3.000000 25.000000 -2.000000 
v -8.000000 6.000000 -4.000000 
v -9.000000 3.000000 9.000000 
v -3.000000 25.000000 -2.000000 
v 3.000000 25.000000 -10.000000 
v -8.000000 6.000000 -4.000000 
v 3.000000 25.000000 -10.000000 
v 6.000000 9.000000 -19.000000 
v -8.000000 6.000000 -4.000000 
v 3.000000 25.000000 -10.000000 
v 4.000000 25.000000 1.000000 
v 6.000000 9.000000 -19.000000 
v 4.000000 25.000000 1.000000 
v 9.000000 6.000000 1.000000 
v 6.000000 9.000000 -19.000000 
v 0.000000 40.000000 1.000000 
v -1.000000 26.000000 13.000000 
v 4.000000 25.000000 1.000000 
v 0.000000 40.000000 1.000000 
v -6.000000 26.000000 11.000000 
v -1.000000 26.000000 13.000000 
v 0.000000 40.000000 1.000000 
v -3.000000 25.000000 -2.000000 
v -6.000000 26.000000 11.000000 
v 0.000000 40.000000 1.000000 
v 3.000000 25.000000 -10.000000 
v -3.000000 25.000000 -2.000000 
v 0.000000 40.000000 1.000000 
v 4.000000 25.000000 1.000000 
v 3.000000 25.000000 -10.000000 
vn 0.959961 0.261230 0.100586 
vn 0.522705 0.335205 0.783447 
vn 0.934570 0.211426 0.285645 
vn 0.522705 0.335205 0.783447 
vn 0.043213 0.007812 0.999023 
vn 0.934570 0.211426 0.285645 
vn 0.522705 0.335205 0.783447 
vn -0.774170 0.259277 0.577148 
vn 0.043213 0.007812 0.999023 
vn -0.774170 0.259277 0.577148 
vn -0.945068 0.126709 0.300537 
vn 0.043213 0.007812 0.999023 
vn -0.774170 0.259277 0.577148 
vn -0.906738 0.248047 -0.340576 
vn -0.945068 0.126709 0.300537 
vn -0.906738 0.248047 -0.340576 
vn -0.853516 0.247314 -0.458008 
vn -0.945068 0.126709 0.300537 
vn -0.906738 0.248047 -0.340576 
vn -0.102051 0.528564 -0.842529 
vn -0.853516 0.247314 -0.458008 
vn -0.102051 0.528564 -0.842529 
vn 0.748779 0.405762 -0.523438 
vn -0.853516 0.247314 -0.458008 
vn -0.102051 0.528564 -0.842529 
vn 0.959961 0.261230 0.100586 
vn 0.748779 0.405762 -0.523438 
vn 0.959961 0.261230 0.100586 
vn 0.934570 0.211426 0.285645 
vn 0.748779 0.405762 -0.523438 
vn -0.058838 0.992920 0.100830 
vn 0.522705 0.335205 0.783447 
vn 0.959961 0.261230 0.100586 
vn -0.058838 0.992920 0.100830 
vn -0.774170 0.259277 0.577148 
vn 0.522705 0.335205 0.783447 
vn -0.058838 0.992920 0.100830 
vn -0.906738 0.248047 -0.340576 
vn -0.774170 0.259277 0.577148 
vn -0.058838 0.992920 0.100830 
vn -0.102051 0.528564 -0.842529 
vn -0.906738 0.248047 -0.340576 
vn -0.058838 0.992920 0.100830 
vn 0.959961 0.261230 0.100586 
vn -0.102051 0.528564 -0.842529 
vt 0.787402 0.937008 
vt 0.692913 0.874016 
vt 0.992126 0.716535 
vt 0.692913 0.874016 
vt 0.692913 0.724409 
vt 0.992126 0.716535 
vt 0.692913 0.874016 
vt 0.692913 0.881890 
vt 0.692913 0.724409 
vt 0.692913 0.881890 
vt 0.692913 0.708661 
vt 0.692913 0.724409 
vt 0.692913 0.881890 
vt 0.803150 0.929134 
vt 0.692913 0.708661 
vt 0.803150 0.929134 
vt 0.992126 0.716535 
vt 0.692913 0.708661 
vt 0.803150 0.929134 
vt 0.826772 0.992126 
vt 0.992126 0.716535 
vt 0.826772 0.992126 
vt 0.992126 0.992126 
vt 0.992126 0.716535 
vt 0.826772 0.992126 
vt 0.787402 0.937008 
vt 0.992126 0.992126 
vt 0.787402 0.937008 
vt 0.992126 0.716535 
vt 0.992126 0.992126 
vt 0.692913 1.000000 
vt 0.692913 0.874016 
vt 0.787402 0.937008 
vt 0.692913 1.000000 
vt 0.692913 0.881890 
vt 0.692913 0.874016 
vt 0.692913 1.000000 
vt 0.803150 0.929134 
vt 0.692913 0.881890 
vt 0.692913 1.000000 
vt 0.826772 0.992126 
vt 0.803150 0.929134 
vt 0.692913 1.000000 
vt 0.787402 0.937008 
vt 0.826772 0.992126 
f 1/1/1 2/2/2 3/3/3
f 4/4/4 5/5/5 6/6/6
f 7/7/7 8/8/8 9/9/9
f 10/10/10 11/11/11 12/12/12
f 13/13/13 14/14/14 15/15/15
f 16/16/16 17/17/17 18/18/18
f 19/19/19 20/20/20 21/21/21
f 22/22/22 23/23/23 24/24/24
f 25/25/25 26/26/26 27/27/27
f 28/28/28 29/29/29 30/30/30
f 31/31/31 32/32/32 33/33/33
f 34/34/34 35/35/35 36/36/36
f 37/37/37 38/38/38 39/39/39
f 40/40/40 41/41/41 42/42/42
f 43/43/43 44/44/44 45/45/45
