v 49.000000 0.000000 11.000000 
v 50.000000 11.000000 0.000000 
v 6.000000 7.000000 0.000000 
v 4.000000 0.000000 8.000000 
v 49.000000 0.000000 11.000000 
v 6.000000 7.000000 0.000000 
v 49.000000 -12.000000 0.000000 
v 49.000000 0.000000 11.000000 
v 4.000000 0.000000 8.000000 
v 3.000000 -7.000000 1.000000 
v 49.000000 -12.000000 0.000000 
v 4.000000 0.000000 8.000000 
v 50.000000 0.000000 -11.000000 
v 49.000000 -12.000000 0.000000 
v 3.000000 -7.000000 1.000000 
v 50.000000 11.000000 0.000000 
v 49.000000 0.000000 11.000000 
v 47.000000 0.000000 0.000000 
v 50.000000 0.000000 -11.000000 
v 50.000000 11.000000 0.000000 
v 47.000000 0.000000 0.000000 
v 49.000000 0.000000 11.000000 
v 49.000000 -12.000000 0.000000 
v 47.000000 0.000000 0.000000 
v 49.000000 -12.000000 0.000000 
v 50.000000 0.000000 -11.000000 
v 47.000000 0.000000 0.000000 
vn -0.501221 0.663818 0.554688 
vn -0.736328 0.492188 -0.463867 
vn -0.745850 0.616211 -0.252197 
vn -0.176025 0.278320 0.944092 
vn -0.501221 0.663818 0.554688 
vn -0.745850 0.616211 -0.252197 
vn 0.678711 -0.528809 0.509277 
vn -0.501221 0.663818 0.554688 
vn -0.176025 0.278320 0.944092 
vn 0.691162 -0.608398 0.389648 
vn 0.678711 -0.528809 0.509277 
vn -0.176025 0.278320 0.944092 
vn 0.465088 -0.762695 -0.448975 
vn 0.678711 -0.528809 0.509277 
vn 0.691162 -0.608398 0.389648 
vn 0.829102 0.531982 -0.170166 
vn 0.519043 0.684326 -0.511963 
vn 0.518799 0.787109 -0.332764 
vn 0.496094 0.856934 -0.138672 
vn 0.829102 0.531982 -0.170166 
vn 0.518799 0.787109 -0.332764 
vn 0.519043 0.684326 -0.511963 
vn 0.162842 0.890381 -0.424805 
vn 0.518799 0.787109 -0.332764 
vn 0.162842 0.890381 -0.424805 
vn 0.496094 0.856934 -0.138672 
vn 0.518799 0.787109 -0.332764 
vt 0.952381 0.507937 
vt 0.555556 0.507937 
vt 0.587302 0.857143 
vt 0.904762 0.857143 
vt 0.952381 0.507937 
vt 0.587302 0.857143 
vt 0.952381 0.507937 
vt 0.555556 0.507937 
vt 0.587302 0.857143 
vt 0.904762 0.857143 
vt 0.952381 0.507937 
vt 0.587302 0.857143 
vt 0.761905 0.507937 
vt 0.587302 0.507937 
vt 0.587302 0.809524 
vt 0.968254 0.619048 
vt 0.523810 0.619048 
vt 0.746032 0.571429 
vt 0.968254 0.539683 
vt 0.968254 0.619048 
vt 0.746032 0.571429 
vt 0.523810 0.619048 
vt 0.523810 0.539683 
vt 0.746032 0.571429 
vt 0.523810 0.539683 
vt 0.968254 0.539683 
vt 0.746032 0.571429 
f 1/1/1 2/2/2 3/3/3
f 4/4/4 5/5/5 6/6/6
f 7/7/7 8/8/8 9/9/9
f 10/10/10 11/11/11 12/12/12
f 13/13/13 14/14/14 15/15/15
f 16/16/16 17/17/17 18/18/18
f 19/19/19 20/20/20 21/21/21
f 22/22/22 23/23/23 24/24/24
f 25/25/25 26/26/26 27/27/27
