v 32.000000 -22.000000 -22.000000 
v 32.000000 0.000000 -32.000000 
v 45.000000 0.000000 0.000000 
v 32.000000 -32.000000 0.000000 
v 32.000000 -22.000000 -22.000000 
v 45.000000 0.000000 0.000000 
v 32.000000 -22.000000 22.000000 
v 32.000000 -32.000000 0.000000 
v 45.000000 0.000000 0.000000 
v 32.000000 0.000000 32.000000 
v 32.000000 -22.000000 22.000000 
v 45.000000 0.000000 0.000000 
v 32.000000 22.000000 22.000000 
v 32.000000 0.000000 32.000000 
v 45.000000 0.000000 0.000000 
v 32.000000 32.000000 0.000000 
v 32.000000 22.000000 22.000000 
v 45.000000 0.000000 0.000000 
v 32.000000 22.000000 -22.000000 
v 32.000000 32.000000 0.000000 
v 45.000000 0.000000 0.000000 
v 32.000000 0.000000 -32.000000 
v 32.000000 22.000000 -22.000000 
v 45.000000 0.000000 0.000000 
v 0.000000 -26.000000 -30.000000 
v 0.000000 0.000000 -37.000000 
v 32.000000 0.000000 -32.000000 
v 32.000000 -22.000000 -22.000000 
v 0.000000 -26.000000 -30.000000 
v 32.000000 0.000000 -32.000000 
v 0.000000 -37.000000 0.000000 
v 0.000000 -26.000000 -30.000000 
v 32.000000 -22.000000 -22.000000 
v 32.000000 -32.000000 0.000000 
v 0.000000 -37.000000 0.000000 
v 32.000000 -22.000000 -22.000000 
v 0.000000 -26.000000 32.000000 
v 0.000000 -37.000000 0.000000 
v 32.000000 -32.000000 0.000000 
v 32.000000 -22.000000 22.000000 
v 0.000000 -26.000000 32.000000 
v 32.000000 -32.000000 0.000000 
v 0.000000 0.000000 45.000000 
v 0.000000 -26.000000 32.000000 
v 32.000000 -22.000000 22.000000 
v 32.000000 0.000000 32.000000 
v 0.000000 0.000000 45.000000 
v 32.000000 -22.000000 22.000000 
v 0.000000 26.000000 32.000000 
v 0.000000 0.000000 45.000000 
v 32.000000 0.000000 32.000000 
v 32.000000 22.000000 22.000000 
v 0.000000 26.000000 32.000000 
v 32.000000 0.000000 32.000000 
v 0.000000 37.000000 0.000000 
v 0.000000 26.000000 32.000000 
v 32.000000 22.000000 22.000000 
v 32.000000 32.000000 0.000000 
v 0.000000 37.000000 0.000000 
v 32.000000 22.000000 22.000000 
v 0.000000 26.000000 -30.000000 
v 0.000000 37.000000 0.000000 
v 32.000000 32.000000 0.000000 
v 32.000000 22.000000 -22.000000 
v 0.000000 26.000000 -30.000000 
v 32.000000 32.000000 0.000000 
v 0.000000 0.000000 -37.000000 
v 0.000000 26.000000 -30.000000 
v 32.000000 22.000000 -22.000000 
v 32.000000 0.000000 -32.000000 
v 0.000000 0.000000 -37.000000 
v 32.000000 22.000000 -22.000000 
v -25.000000 -22.000000 -21.000000 
v -23.000000 0.000000 -30.000000 
v 0.000000 0.000000 -37.000000 
v 0.000000 -26.000000 -30.000000 
v -25.000000 -22.000000 -21.000000 
v 0.000000 0.000000 -37.000000 
v -32.000000 -32.000000 0.000000 
v -25.000000 -22.000000 -21.000000 
v 0.000000 -26.000000 -30.000000 
v 0.000000 -37.000000 0.000000 
v -32.000000 -32.000000 0.000000 
v 0.000000 -26.000000 -30.000000 
v -38.000000 -22.000000 21.000000 
v -32.000000 -32.000000 0.000000 
v 0.000000 -37.000000 0.000000 
v 0.000000 -26.000000 32.000000 
v -38.000000 -22.000000 21.000000 
v 0.000000 -37.000000 0.000000 
v -40.000000 0.000000 30.000000 
v -38.000000 -22.000000 21.000000 
v 0.000000 -26.000000 32.000000 
v 0.000000 0.000000 45.000000 
v -40.000000 0.000000 30.000000 
v 0.000000 -26.000000 32.000000 
v -38.000000 22.000000 21.000000 
v -40.000000 0.000000 30.000000 
v 0.000000 0.000000 45.000000 
v 0.000000 26.000000 32.000000 
v -38.000000 22.000000 21.000000 
v 0.000000 0.000000 45.000000 
v -32.000000 32.000000 0.000000 
v -38.000000 22.000000 21.000000 
v 0.000000 26.000000 32.000000 
v 0.000000 37.000000 0.000000 
v -32.000000 32.000000 0.000000 
v 0.000000 26.000000 32.000000 
v -25.000000 22.000000 -21.000000 
v -32.000000 32.000000 0.000000 
v 0.000000 37.000000 0.000000 
v 0.000000 26.000000 -30.000000 
v -25.000000 22.000000 -21.000000 
v 0.000000 37.000000 0.000000 
v -23.000000 0.000000 -30.000000 
v -25.000000 22.000000 -21.000000 
v 0.000000 26.000000 -30.000000 
v 0.000000 0.000000 -37.000000 
v -23.000000 0.000000 -30.000000 
v 0.000000 26.000000 -30.000000 
v -23.000000 0.000000 -30.000000 
v -25.000000 -22.000000 -21.000000 
v -45.000000 0.000000 0.000000 
v -25.000000 -22.000000 -21.000000 
v -32.000000 -32.000000 0.000000 
v -45.000000 0.000000 0.000000 
v -32.000000 -32.000000 0.000000 
v -38.000000 -22.000000 21.000000 
v -45.000000 0.000000 0.000000 
v -38.000000 -22.000000 21.000000 
v -40.000000 0.000000 30.000000 
v -45.000000 0.000000 0.000000 
v -40.000000 0.000000 30.000000 
v -38.000000 22.000000 21.000000 
v -45.000000 0.000000 0.000000 
v -38.000000 22.000000 21.000000 
v -32.000000 32.000000 0.000000 
v -45.000000 0.000000 0.000000 
v -32.000000 32.000000 0.000000 
v -25.000000 22.000000 -21.000000 
v -45.000000 0.000000 0.000000 
v -25.000000 22.000000 -21.000000 
v -23.000000 0.000000 -30.000000 
v -45.000000 0.000000 0.000000 
vn 0.576904 -0.643799 -0.502441 
vn 0.562012 -0.053955 -0.825195 
vn 1.000000 0.000000 0.000000 
vn 0.560059 -0.824951 0.074707 
vn 0.576904 -0.643799 -0.502441 
vn 1.000000 0.000000 0.000000 
vn 0.619141 -0.506592 0.599609 
vn 0.560059 -0.824951 0.074707 
vn 1.000000 0.000000 0.000000 
vn 0.644043 0.096436 0.758789 
vn 0.619141 -0.506592 0.599609 
vn 1.000000 0.000000 0.000000 
vn 0.586426 0.641113 0.494873 
vn 0.644043 0.096436 0.758789 
vn 1.000000 0.000000 0.000000 
vn 0.557373 0.826416 -0.078369 
vn 0.586426 0.641113 0.494873 
vn 1.000000 0.000000 0.000000 
vn 0.578857 0.486572 -0.654053 
vn 0.557373 0.826416 -0.078369 
vn 1.000000 0.000000 0.000000 
vn 0.562012 -0.053955 -0.825195 
vn 0.578857 0.486572 -0.654053 
vn 1.000000 0.000000 0.000000 
vn -0.033203 -0.673340 -0.738281 
vn -0.052490 0.008301 -0.998535 
vn 0.562012 -0.053955 -0.825195 
vn 0.576904 -0.643799 -0.502441 
vn -0.033203 -0.673340 -0.738281 
vn 0.562012 -0.053955 -0.825195 
vn 0.002197 -0.999756 -0.009521 
vn -0.033203 -0.673340 -0.738281 
vn 0.576904 -0.643799 -0.502441 
vn 0.560059 -0.824951 0.074707 
vn 0.002197 -0.999756 -0.009521 
vn 0.576904 -0.643799 -0.502441 
vn -0.013184 -0.742188 0.669922 
vn 0.002197 -0.999756 -0.009521 
vn 0.560059 -0.824951 0.074707 
vn 0.619141 -0.506592 0.599609 
vn -0.013184 -0.742188 0.669922 
vn 0.560059 -0.824951 0.074707 
vn 0.023193 0.004150 0.999512 
vn -0.013184 -0.742188 0.669922 
vn 0.619141 -0.506592 0.599609 
vn 0.644043 0.096436 0.758789 
vn 0.023193 0.004150 0.999512 
vn 0.619141 -0.506592 0.599609 
vn 0.042969 0.744629 0.665771 
vn 0.023193 0.004150 0.999512 
vn 0.644043 0.096436 0.758789 
vn 0.586426 0.641113 0.494873 
vn 0.042969 0.744629 0.665771 
vn 0.644043 0.096436 0.758789 
vn -0.007324 0.999756 -0.013672 
vn 0.042969 0.744629 0.665771 
vn 0.586426 0.641113 0.494873 
vn 0.557373 0.826416 -0.078369 
vn -0.007324 0.999756 -0.013672 
vn 0.586426 0.641113 0.494873 
vn -0.044678 0.679443 -0.732178 
vn -0.007324 0.999756 -0.013672 
vn 0.557373 0.826416 -0.078369 
vn 0.578857 0.486572 -0.654053 
vn -0.044678 0.679443 -0.732178 
vn 0.557373 0.826416 -0.078369 
vn -0.052490 0.008301 -0.998535 
vn -0.044678 0.679443 -0.732178 
vn 0.578857 0.486572 -0.654053 
vn 0.562012 -0.053955 -0.825195 
vn -0.052490 0.008301 -0.998535 
vn 0.578857 0.486572 -0.654053 
vn -0.559814 -0.418945 -0.714600 
vn -0.536377 0.046387 -0.842529 
vn -0.052490 0.008301 -0.998535 
vn -0.033203 -0.673340 -0.738281 
vn -0.559814 -0.418945 -0.714600 
vn -0.052490 0.008301 -0.998535 
vn -0.556885 -0.801514 -0.216553 
vn -0.559814 -0.418945 -0.714600 
vn -0.033203 -0.673340 -0.738281 
vn 0.002197 -0.999756 -0.009521 
vn -0.556885 -0.801514 -0.216553 
vn -0.033203 -0.673340 -0.738281 
vn -0.617920 -0.682129 0.390625 
vn -0.556885 -0.801514 -0.216553 
vn 0.002197 -0.999756 -0.009521 
vn -0.013184 -0.742188 0.669922 
vn -0.617920 -0.682129 0.390625 
vn 0.002197 -0.999756 -0.009521 
vn -0.697510 -0.104248 0.708740 
vn -0.617920 -0.682129 0.390625 
vn -0.013184 -0.742188 0.669922 
vn 0.023193 0.004150 0.999512 
vn -0.697510 -0.104248 0.708740 
vn -0.013184 -0.742188 0.669922 
vn -0.651367 0.555908 0.516113 
vn -0.697510 -0.104248 0.708740 
vn 0.023193 0.004150 0.999512 
vn 0.042969 0.744629 0.665771 
vn -0.651367 0.555908 0.516113 
vn 0.023193 0.004150 0.999512 
vn -0.547852 0.833984 -0.062012 
vn -0.651367 0.555908 0.516113 
vn 0.042969 0.744629 0.665771 
vn -0.007324 0.999756 -0.013672 
vn -0.547852 0.833984 -0.062012 
vn 0.042969 0.744629 0.665771 
vn -0.548096 0.589844 -0.592773 
vn -0.547852 0.833984 -0.062012 
vn -0.007324 0.999756 -0.013672 
vn -0.044678 0.679443 -0.732178 
vn -0.548096 0.589844 -0.592773 
vn -0.007324 0.999756 -0.013672 
vn -0.536377 0.046387 -0.842529 
vn -0.548096 0.589844 -0.592773 
vn -0.044678 0.679443 -0.732178 
vn -0.052490 0.008301 -0.998535 
vn -0.536377 0.046387 -0.842529 
vn -0.044678 0.679443 -0.732178 
vn -0.536377 0.046387 -0.842529 
vn -0.559814 -0.418945 -0.714600 
vn -0.967041 0.000000 -0.253662 
vn -0.559814 -0.418945 -0.714600 
vn -0.556885 -0.801514 -0.216553 
vn -0.967041 0.000000 -0.253662 
vn -0.556885 -0.801514 -0.216553 
vn -0.617920 -0.682129 0.390625 
vn -0.967041 0.000000 -0.253662 
vn -0.617920 -0.682129 0.390625 
vn -0.697510 -0.104248 0.708740 
vn -0.967041 0.000000 -0.253662 
vn -0.697510 -0.104248 0.708740 
vn -0.651367 0.555908 0.516113 
vn -0.967041 0.000000 -0.253662 
vn -0.651367 0.555908 0.516113 
vn -0.547852 0.833984 -0.062012 
vn -0.967041 0.000000 -0.253662 
vn -0.547852 0.833984 -0.062012 
vn -0.548096 0.589844 -0.592773 
vn -0.967041 0.000000 -0.253662 
vn -0.548096 0.589844 -0.592773 
vn -0.536377 0.046387 -0.842529 
vn -0.967041 0.000000 -0.253662 
vt 0.161290 0.777778 
vt 0.483871 0.888889 
vt 0.483871 0.492063 
vt 0.032258 0.492063 
vt 0.161290 0.777778 
vt 0.483871 0.492063 
vt 0.161290 0.206349 
vt 0.032258 0.492063 
vt 0.483871 0.492063 
vt 0.483871 0.095238 
vt 0.161290 0.206349 
vt 0.483871 0.492063 
vt 0.806452 0.206349 
vt 0.483871 0.095238 
vt 0.483871 0.492063 
vt 0.935484 0.492063 
vt 0.806452 0.206349 
vt 0.483871 0.492063 
vt 0.806452 0.777778 
vt 0.935484 0.492063 
vt 0.483871 0.492063 
vt 0.483871 0.888889 
vt 0.806452 0.777778 
vt 0.483871 0.492063 
vt 0.129032 0.873016 
vt 0.483871 0.952381 
vt 0.483871 0.888889 
vt 0.161290 0.777778 
vt 0.129032 0.873016 
vt 0.483871 0.888889 
vt 0.000000 0.492063 
vt 0.129032 0.873016 
vt 0.161290 0.777778 
vt 0.032258 0.492063 
vt 0.000000 0.492063 
vt 0.161290 0.777778 
vt 0.129032 0.095238 
vt 0.000000 0.492063 
vt 0.032258 0.492063 
vt 0.161290 0.206349 
vt 0.129032 0.095238 
vt 0.032258 0.492063 
vt 0.483871 -0.063492 
vt 0.129032 0.095238 
vt 0.161290 0.206349 
vt 0.483871 0.095238 
vt 0.483871 -0.063492 
vt 0.161290 0.206349 
vt 0.838710 0.095238 
vt 0.483871 -0.063492 
vt 0.483871 0.095238 
vt 0.806452 0.206349 
vt 0.838710 0.095238 
vt 0.483871 0.095238 
vt 1.000000 0.492063 
vt 0.838710 0.095238 
vt 0.806452 0.206349 
vt 0.935484 0.492063 
vt 1.000000 0.492063 
vt 0.806452 0.206349 
vt 0.838710 0.873016 
vt 1.000000 0.492063 
vt 0.935484 0.492063 
vt 0.806452 0.777778 
vt 0.838710 0.873016 
vt 0.935484 0.492063 
vt 0.483871 0.952381 
vt 0.838710 0.873016 
vt 0.806452 0.777778 
vt 0.483871 0.888889 
vt 0.483871 0.952381 
vt 0.806452 0.777778 
vt 0.161290 0.761905 
vt 0.483871 0.873016 
vt 0.483871 0.952381 
vt 0.129032 0.873016 
vt 0.161290 0.761905 
vt 0.483871 0.952381 
vt 0.032258 0.492063 
vt 0.161290 0.761905 
vt 0.129032 0.873016 
vt 0.000000 0.492063 
vt 0.032258 0.492063 
vt 0.129032 0.873016 
vt 0.161290 0.222222 
vt 0.032258 0.492063 
vt 0.000000 0.492063 
vt 0.129032 0.095238 
vt 0.161290 0.222222 
vt 0.000000 0.492063 
vt 0.483871 0.111111 
vt 0.161290 0.222222 
vt 0.129032 0.095238 
vt 0.483871 -0.063492 
vt 0.483871 0.111111 
vt 0.129032 0.095238 
vt 0.806452 0.222222 
vt 0.483871 0.111111 
vt 0.483871 -0.063492 
vt 0.838710 0.095238 
vt 0.806452 0.222222 
vt 0.483871 -0.063492 
vt 0.935484 0.492063 
vt 0.806452 0.222222 
vt 0.838710 0.095238 
vt 1.000000 0.492063 
vt 0.935484 0.492063 
vt 0.838710 0.095238 
vt 0.806452 0.761905 
vt 0.935484 0.492063 
vt 1.000000 0.492063 
vt 0.838710 0.873016 
vt 0.806452 0.761905 
vt 1.000000 0.492063 
vt 0.483871 0.873016 
vt 0.806452 0.761905 
vt 0.838710 0.873016 
vt 0.483871 0.952381 
vt 0.483871 0.873016 
vt 0.838710 0.873016 
vt 0.483871 0.873016 
vt 0.161290 0.761905 
vt 0.483871 0.492063 
vt 0.161290 0.761905 
vt 0.032258 0.492063 
vt 0.483871 0.492063 
vt 0.032258 0.492063 
vt 0.161290 0.222222 
vt 0.483871 0.492063 
vt 0.161290 0.222222 
vt 0.483871 0.111111 
vt 0.483871 0.492063 
vt 0.483871 0.111111 
vt 0.806452 0.222222 
vt 0.483871 0.492063 
vt 0.806452 0.222222 
vt 0.935484 0.492063 
vt 0.483871 0.492063 
vt 0.935484 0.492063 
vt 0.806452 0.761905 
vt 0.483871 0.492063 
vt 0.806452 0.761905 
vt 0.483871 0.873016 
vt 0.483871 0.492063 
f 1/1/1 2/2/2 3/3/3
f 4/4/4 5/5/5 6/6/6
f 7/7/7 8/8/8 9/9/9
f 10/10/10 11/11/11 12/12/12
f 13/13/13 14/14/14 15/15/15
f 16/16/16 17/17/17 18/18/18
f 19/19/19 20/20/20 21/21/21
f 22/22/22 23/23/23 24/24/24
f 25/25/25 26/26/26 27/27/27
f 28/28/28 29/29/29 30/30/30
f 31/31/31 32/32/32 33/33/33
f 34/34/34 35/35/35 36/36/36
f 37/37/37 38/38/38 39/39/39
f 40/40/40 41/41/41 42/42/42
f 43/43/43 44/44/44 45/45/45
f 46/46/46 47/47/47 48/48/48
f 49/49/49 50/50/50 51/51/51
f 52/52/52 53/53/53 54/54/54
f 55/55/55 56/56/56 57/57/57
f 58/58/58 59/59/59 60/60/60
f 61/61/61 62/62/62 63/63/63
f 64/64/64 65/65/65 66/66/66
f 67/67/67 68/68/68 69/69/69
f 70/70/70 71/71/71 72/72/72
f 73/73/73 74/74/74 75/75/75
f 76/76/76 77/77/77 78/78/78
f 79/79/79 80/80/80 81/81/81
f 82/82/82 83/83/83 84/84/84
f 85/85/85 86/86/86 87/87/87
f 88/88/88 89/89/89 90/90/90
f 91/91/91 92/92/92 93/93/93
f 94/94/94 95/95/95 96/96/96
f 97/97/97 98/98/98 99/99/99
f 100/100/100 101/101/101 102/102/102
f 103/103/103 104/104/104 105/105/105
f 106/106/106 107/107/107 108/108/108
f 109/109/109 110/110/110 111/111/111
f 112/112/112 113/113/113 114/114/114
f 115/115/115 116/116/116 117/117/117
f 118/118/118 119/119/119 120/120/120
f 121/121/121 122/122/122 123/123/123
f 124/124/124 125/125/125 126/126/126
f 127/127/127 128/128/128 129/129/129
f 130/130/130 131/131/131 132/132/132
f 133/133/133 134/134/134 135/135/135
f 136/136/136 137/137/137 138/138/138
f 139/139/139 140/140/140 141/141/141
f 142/142/142 143/143/143 144/144/144
