v 13.000000 -2.000000 -6.000000 
v 14.000000 -4.000000 1.000000 
v 0.000000 -5.000000 0.000000 
v 2.000000 -2.000000 -7.000000 
v 13.000000 -2.000000 -6.000000 
v 0.000000 -5.000000 0.000000 
v 13.000000 2.000000 -6.000000 
v 13.000000 -2.000000 -6.000000 
v 2.000000 -2.000000 -7.000000 
v 3.000000 3.000000 -7.000000 
v 13.000000 2.000000 -6.000000 
v 2.000000 -2.000000 -7.000000 
v 14.000000 5.000000 0.000000 
v 13.000000 2.000000 -6.000000 
v 3.000000 3.000000 -7.000000 
v 1.000000 6.000000 0.000000 
v 14.000000 5.000000 0.000000 
v 3.000000 3.000000 -7.000000 
v 15.000000 3.000000 8.000000 
v 14.000000 5.000000 0.000000 
v 1.000000 6.000000 0.000000 
v 25.000000 -1.000000 -7.000000 
v 27.000000 -3.000000 -2.000000 
v 14.000000 -4.000000 1.000000 
v 13.000000 -2.000000 -6.000000 
v 25.000000 -1.000000 -7.000000 
v 14.000000 -4.000000 1.000000 
v 14.000000 -4.000000 1.000000 
v 27.000000 -3.000000 -2.000000 
v 15.000000 -2.000000 8.000000 
v 25.000000 2.000000 -7.000000 
v 25.000000 -1.000000 -7.000000 
v 13.000000 -2.000000 -6.000000 
v 13.000000 2.000000 -6.000000 
v 25.000000 2.000000 -7.000000 
v 13.000000 -2.000000 -6.000000 
v 27.000000 4.000000 -2.000000 
v 25.000000 2.000000 -7.000000 
v 13.000000 2.000000 -6.000000 
v 14.000000 5.000000 0.000000 
v 27.000000 4.000000 -2.000000 
v 13.000000 2.000000 -6.000000 
v 28.000000 2.000000 2.000000 
v 27.000000 4.000000 -2.000000 
v 14.000000 5.000000 0.000000 
v 15.000000 3.000000 8.000000 
v 28.000000 2.000000 2.000000 
v 14.000000 5.000000 0.000000 
v 28.000000 -1.000000 2.000000 
v 28.000000 2.000000 2.000000 
v 15.000000 3.000000 8.000000 
v 15.000000 -2.000000 8.000000 
v 28.000000 -1.000000 2.000000 
v 15.000000 3.000000 8.000000 
v 27.000000 -3.000000 -2.000000 
v 28.000000 -1.000000 2.000000 
v 15.000000 -2.000000 8.000000 
v 25.000000 -1.000000 -7.000000 
v 37.000000 0.000000 -5.000000 
v 27.000000 -3.000000 -2.000000 
v 27.000000 -3.000000 -2.000000 
v 37.000000 0.000000 -5.000000 
v 28.000000 -1.000000 2.000000 
v 25.000000 2.000000 -7.000000 
v 37.000000 0.000000 -5.000000 
v 25.000000 -1.000000 -7.000000 
v 27.000000 4.000000 -2.000000 
v 37.000000 0.000000 -5.000000 
v 25.000000 2.000000 -7.000000 
v 28.000000 2.000000 2.000000 
v 37.000000 0.000000 -5.000000 
v 27.000000 4.000000 -2.000000 
v 28.000000 -1.000000 2.000000 
v 37.000000 0.000000 -5.000000 
v 28.000000 2.000000 2.000000 
vn 0.692383 -0.658936 -0.292969 
vn -0.267578 -0.953125 -0.140381 
vn -0.305664 -0.942139 -0.136230 
vn 0.724854 -0.678711 -0.116455 
vn 0.692383 -0.658936 -0.292969 
vn -0.305664 -0.942139 -0.136230 
vn 0.987305 0.124512 -0.098389 
vn 0.692383 -0.658936 -0.292969 
vn 0.724854 -0.678711 -0.116455 
vn 0.996094 0.062500 0.060059 
vn 0.987305 0.124512 -0.098389 
vn 0.724854 -0.678711 -0.116455 
vn 0.456543 0.843018 0.283691 
vn 0.987305 0.124512 -0.098389 
vn 0.996094 0.062500 0.060059 
vn 0.391602 0.875000 0.284424 
vn 0.456543 0.843018 0.283691 
vn 0.996094 0.062500 0.060059 
vn -0.587158 0.632812 0.504395 
vn 0.456543 0.843018 0.283691 
vn 0.391602 0.875000 0.284424 
vn 0.644287 -0.721191 -0.254150 
vn -0.126465 -0.991699 0.020996 
vn -0.267578 -0.953125 -0.140381 
vn 0.692383 -0.658936 -0.292969 
vn 0.644287 -0.721191 -0.254150 
vn -0.267578 -0.953125 -0.140381 
vn -0.267578 -0.953125 -0.140381 
vn -0.126465 -0.991699 0.020996 
vn -0.929199 -0.251221 0.270508 
vn 0.990234 0.004639 -0.138428 
vn 0.644287 -0.721191 -0.254150 
vn 0.692383 -0.658936 -0.292969 
vn 0.987305 0.124512 -0.098389 
vn 0.990234 0.004639 -0.138428 
vn 0.692383 -0.658936 -0.292969 
vn 0.668945 0.681641 0.295654 
vn 0.990234 0.004639 -0.138428 
vn 0.987305 0.124512 -0.098389 
vn 0.456543 0.843018 0.283691 
vn 0.668945 0.681641 0.295654 
vn 0.987305 0.124512 -0.098389 
vn -0.150391 0.602783 0.783447 
vn 0.668945 0.681641 0.295654 
vn 0.456543 0.843018 0.283691 
vn -0.587158 0.632812 0.504395 
vn -0.150391 0.602783 0.783447 
vn 0.456543 0.843018 0.283691 
vn -0.668701 -0.364502 0.647949 
vn -0.150391 0.602783 0.783447 
vn -0.587158 0.632812 0.504395 
vn -0.929199 -0.251221 0.270508 
vn -0.668701 -0.364502 0.647949 
vn -0.587158 0.632812 0.504395 
vn -0.126465 -0.991699 0.020996 
vn -0.668701 -0.364502 0.647949 
vn -0.929199 -0.251221 0.270508 
vn 0.644287 -0.721191 -0.254150 
vn 0.779053 -0.388184 0.491943 
vn -0.126465 -0.991699 0.020996 
vn -0.126465 -0.991699 0.020996 
vn 0.779053 -0.388184 0.491943 
vn -0.668701 -0.364502 0.647949 
vn 0.990234 0.004639 -0.138428 
vn 0.779053 -0.388184 0.491943 
vn 0.644287 -0.721191 -0.254150 
vn 0.668945 0.681641 0.295654 
vn 0.779053 -0.388184 0.491943 
vn 0.990234 0.004639 -0.138428 
vn -0.150391 0.602783 0.783447 
vn 0.779053 -0.388184 0.491943 
vn 0.668945 0.681641 0.295654 
vn -0.668701 -0.364502 0.647949 
vn 0.779053 -0.388184 0.491943 
vn -0.150391 0.602783 0.783447 
vt 0.929134 0.834646 
vt 0.984252 0.866142 
vt 0.984252 0.763780 
vt 0.929134 0.755906 
vt 0.929134 0.834646 
vt 0.984252 0.763780 
vt 0.818898 0.834646 
vt 0.929134 0.834646 
vt 0.929134 0.755906 
vt 0.818898 0.755906 
vt 0.818898 0.834646 
vt 0.929134 0.755906 
vt 0.763780 0.866142 
vt 0.818898 0.834646 
vt 0.818898 0.755906 
vt 0.763780 0.763780 
vt 0.763780 0.866142 
vt 0.818898 0.755906 
vt 0.818898 0.889764 
vt 0.763780 0.866142 
vt 0.763780 0.763780 
vt 0.913386 0.913386 
vt 0.976378 0.937008 
vt 0.984252 0.866142 
vt 0.929134 0.834646 
vt 0.913386 0.913386 
vt 0.984252 0.866142 
vt 0.984252 0.866142 
vt 0.976378 0.937008 
vt 0.929134 0.889764 
vt 0.834646 0.913386 
vt 0.913386 0.913386 
vt 0.929134 0.834646 
vt 0.818898 0.834646 
vt 0.834646 0.913386 
vt 0.929134 0.834646 
vt 0.763780 0.937008 
vt 0.834646 0.913386 
vt 0.818898 0.834646 
vt 0.763780 0.866142 
vt 0.763780 0.937008 
vt 0.818898 0.834646 
vt 0.818898 0.968504 
vt 0.763780 0.937008 
vt 0.763780 0.866142 
vt 0.818898 0.889764 
vt 0.818898 0.968504 
vt 0.763780 0.866142 
vt 0.929134 0.968504 
vt 0.818898 0.968504 
vt 0.818898 0.889764 
vt 0.929134 0.889764 
vt 0.929134 0.968504 
vt 0.818898 0.889764 
vt 0.976378 0.937008 
vt 0.929134 0.968504 
vt 0.929134 0.889764 
vt 0.913386 0.913386 
vt 0.874016 0.937008 
vt 0.976378 0.937008 
vt 0.976378 0.937008 
vt 0.874016 0.937008 
vt 0.929134 0.968504 
vt 0.834646 0.913386 
vt 0.874016 0.937008 
vt 0.913386 0.913386 
vt 0.763780 0.937008 
vt 0.874016 0.937008 
vt 0.834646 0.913386 
vt 0.818898 0.968504 
vt 0.874016 0.937008 
vt 0.763780 0.937008 
vt 0.929134 0.968504 
vt 0.874016 0.937008 
vt 0.818898 0.968504 
f 1/1/1 2/2/2 3/3/3
f 4/4/4 5/5/5 6/6/6
f 7/7/7 8/8/8 9/9/9
f 10/10/10 11/11/11 12/12/12
f 13/13/13 14/14/14 15/15/15
f 16/16/16 17/17/17 18/18/18
f 19/19/19 20/20/20 21/21/21
f 22/22/22 23/23/23 24/24/24
f 25/25/25 26/26/26 27/27/27
f 28/28/28 29/29/29 30/30/30
f 31/31/31 32/32/32 33/33/33
f 34/34/34 35/35/35 36/36/36
f 37/37/37 38/38/38 39/39/39
f 40/40/40 41/41/41 42/42/42
f 43/43/43 44/44/44 45/45/45
f 46/46/46 47/47/47 48/48/48
f 49/49/49 50/50/50 51/51/51
f 52/52/52 53/53/53 54/54/54
f 55/55/55 56/56/56 57/57/57
f 58/58/58 59/59/59 60/60/60
f 61/61/61 62/62/62 63/63/63
f 64/64/64 65/65/65 66/66/66
f 67/67/67 68/68/68 69/69/69
f 70/70/70 71/71/71 72/72/72
f 73/73/73 74/74/74 75/75/75
