v -177.000000 295.000000 0.000000 
v -190.000000 295.000000 18.000000 
v -177.000000 0.000000 0.000000 
v -190.000000 295.000000 18.000000 
v -190.000000 0.000000 18.000000 
v -177.000000 0.000000 0.000000 
v -190.000000 295.000000 18.000000 
v -212.000000 295.000000 11.000000 
v -190.000000 0.000000 18.000000 
v -212.000000 295.000000 11.000000 
v -212.000000 0.000000 11.000000 
v -190.000000 0.000000 18.000000 
v -212.000000 295.000000 11.000000 
v -212.000000 295.000000 -11.000000 
v -212.000000 0.000000 11.000000 
v -212.000000 295.000000 -11.000000 
v -212.000000 0.000000 -11.000000 
v -212.000000 0.000000 11.000000 
v -212.000000 295.000000 -11.000000 
v -190.000000 295.000000 -18.000000 
v -212.000000 0.000000 -11.000000 
v -190.000000 295.000000 -18.000000 
v -190.000000 0.000000 -18.000000 
v -212.000000 0.000000 -11.000000 
v -190.000000 295.000000 -18.000000 
v -177.000000 295.000000 0.000000 
v -190.000000 0.000000 -18.000000 
v -177.000000 295.000000 0.000000 
v -177.000000 0.000000 0.000000 
v -190.000000 0.000000 -18.000000 
v -190.000000 295.000000 18.000000 
v -177.000000 295.000000 0.000000 
v -196.000000 295.000000 0.000000 
v -212.000000 295.000000 11.000000 
v -190.000000 295.000000 18.000000 
v -196.000000 295.000000 0.000000 
v -212.000000 295.000000 -11.000000 
v -212.000000 295.000000 11.000000 
v -196.000000 295.000000 0.000000 
v -190.000000 295.000000 -18.000000 
v -212.000000 295.000000 -11.000000 
v -196.000000 295.000000 0.000000 
v -177.000000 295.000000 0.000000 
v -190.000000 295.000000 -18.000000 
v -196.000000 295.000000 0.000000 
vn 0.971680 0.000000 -0.235352 
vn 0.524170 0.000000 0.851562 
vn 0.971680 0.000000 0.235352 
vn 0.524170 0.000000 0.851562 
vn 0.076416 0.000000 0.997070 
vn 0.971680 0.000000 0.235352 
vn 0.524170 0.000000 0.851562 
vn -0.647705 0.000000 0.761475 
vn 0.076416 0.000000 0.997070 
vn -0.647705 0.000000 0.761475 
vn -0.924561 0.000000 0.380615 
vn 0.076416 0.000000 0.997070 
vn -0.647705 0.000000 0.761475 
vn -0.924561 0.000000 -0.380615 
vn -0.924561 0.000000 0.380615 
vn -0.924561 0.000000 -0.380615 
vn -0.647705 0.000000 -0.761475 
vn -0.924561 0.000000 0.380615 
vn -0.924561 0.000000 -0.380615 
vn 0.076416 0.000000 -0.997070 
vn -0.647705 0.000000 -0.761475 
vn 0.076416 0.000000 -0.997070 
vn 0.524170 0.000000 -0.851562 
vn -0.647705 0.000000 -0.761475 
vn 0.076416 0.000000 -0.997070 
vn 0.971680 0.000000 -0.235352 
vn 0.524170 0.000000 -0.851562 
vn 0.971680 0.000000 -0.235352 
vn 0.971680 0.000000 0.235352 
vn 0.524170 0.000000 -0.851562 
vn 0.000000 1.000000 0.000000 
vn 0.000000 1.000000 0.000000 
vn 0.000000 1.000000 0.000000 
vn 0.000000 1.000000 0.000000 
vn 0.000000 1.000000 0.000000 
vn 0.000000 1.000000 0.000000 
vn 0.000000 1.000000 0.000000 
vn 0.000000 1.000000 0.000000 
vn 0.000000 1.000000 0.000000 
vn 0.000000 1.000000 0.000000 
vn 0.000000 1.000000 0.000000 
vn 0.000000 1.000000 0.000000 
vn 0.000000 1.000000 0.000000 
vn 0.000000 1.000000 0.000000 
vn 0.000000 1.000000 0.000000 
vt 0.777778 0.451613 
vt 0.777778 -0.032258 
vt 0.000000 0.451613 
vt 0.777778 -0.032258 
vt 0.000000 -0.032258 
vt 0.000000 0.451613 
vt 0.777778 1.000000 
vt 0.777778 0.451613 
vt 0.000000 1.000000 
vt 0.777778 0.451613 
vt 0.000000 0.451613 
vt 0.000000 1.000000 
vt 0.777778 1.000000 
vt 0.777778 0.451613 
vt 0.000000 1.000000 
vt 0.777778 0.451613 
vt 0.000000 0.451613 
vt 0.000000 1.000000 
vt 0.777778 0.451613 
vt 0.777778 -0.032258 
vt 0.000000 0.451613 
vt 0.777778 -0.032258 
vt 0.000000 -0.032258 
vt 0.000000 0.451613 
vt 0.777778 1.000000 
vt 0.777778 0.451613 
vt 0.000000 1.000000 
vt 0.777778 0.451613 
vt 0.000000 0.451613 
vt 0.000000 1.000000 
vt 1.000000 0.354839 
vt 0.888889 0.032258 
vt 0.888889 0.516129 
vt 0.952381 0.870968 
vt 1.000000 0.354839 
vt 0.888889 0.516129 
vt 0.841270 0.870968 
vt 0.952381 0.870968 
vt 0.888889 0.516129 
vt 0.793651 0.354839 
vt 0.841270 0.870968 
vt 0.888889 0.516129 
vt 0.888889 0.032258 
vt 0.793651 0.354839 
vt 0.888889 0.516129 
f 1/1/1 2/2/2 3/3/3
f 4/4/4 5/5/5 6/6/6
f 7/7/7 8/8/8 9/9/9
f 10/10/10 11/11/11 12/12/12
f 13/13/13 14/14/14 15/15/15
f 16/16/16 17/17/17 18/18/18
f 19/19/19 20/20/20 21/21/21
f 22/22/22 23/23/23 24/24/24
f 25/25/25 26/26/26 27/27/27
f 28/28/28 29/29/29 30/30/30
f 31/31/31 32/32/32 33/33/33
f 34/34/34 35/35/35 36/36/36
f 37/37/37 38/38/38 39/39/39
f 40/40/40 41/41/41 42/42/42
f 43/43/43 44/44/44 45/45/45
