v 10.000000 387.000000 -12.000000 
v 10.000000 387.000000 254.000000 
v 191.000000 387.000000 254.000000 
v 191.000000 387.000000 254.000000 
v 191.000000 387.000000 -12.000000 
v 10.000000 387.000000 -12.000000 
v 10.000000 387.000000 254.000000 
v 10.000000 130.000000 254.000000 
v 191.000000 130.000000 254.000000 
v 191.000000 130.000000 254.000000 
v 191.000000 387.000000 254.000000 
v 10.000000 387.000000 254.000000 
v 10.000000 387.000000 -12.000000 
v 10.000000 130.000000 -12.000000 
v 10.000000 130.000000 254.000000 
v 10.000000 130.000000 254.000000 
v 10.000000 387.000000 254.000000 
v 10.000000 387.000000 -12.000000 
v 191.000000 387.000000 -12.000000 
v 191.000000 130.000000 -12.000000 
v 10.000000 130.000000 -12.000000 
v 10.000000 130.000000 -12.000000 
v 10.000000 387.000000 -12.000000 
v 191.000000 387.000000 -12.000000 
v 37.000000 528.000000 275.000000 
v 37.000000 519.000000 308.000000 
v 71.000000 519.000000 308.000000 
v 71.000000 519.000000 308.000000 
v 71.000000 528.000000 275.000000 
v 37.000000 528.000000 275.000000 
v 37.000000 519.000000 308.000000 
v 51.000000 368.000000 236.000000 
v 78.000000 368.000000 236.000000 
v 78.000000 368.000000 236.000000 
v 71.000000 519.000000 308.000000 
v 37.000000 519.000000 308.000000 
v 37.000000 528.000000 275.000000 
v 51.000000 370.000000 201.000000 
v 51.000000 368.000000 236.000000 
v 51.000000 368.000000 236.000000 
v 37.000000 519.000000 308.000000 
v 37.000000 528.000000 275.000000 
v 71.000000 528.000000 275.000000 
v 78.000000 370.000000 201.000000 
v 51.000000 370.000000 201.000000 
v 51.000000 370.000000 201.000000 
v 37.000000 528.000000 275.000000 
v 71.000000 528.000000 275.000000 
v 130.000000 528.000000 275.000000 
v 130.000000 519.000000 308.000000 
v 164.000000 519.000000 308.000000 
v 164.000000 519.000000 308.000000 
v 164.000000 528.000000 275.000000 
v 130.000000 528.000000 275.000000 
v 130.000000 519.000000 308.000000 
v 123.000000 368.000000 236.000000 
v 149.000000 368.000000 236.000000 
v 149.000000 368.000000 236.000000 
v 164.000000 519.000000 308.000000 
v 130.000000 519.000000 308.000000 
v 130.000000 528.000000 275.000000 
v 123.000000 370.000000 201.000000 
v 123.000000 368.000000 236.000000 
v 123.000000 368.000000 236.000000 
v 130.000000 519.000000 308.000000 
v 130.000000 528.000000 275.000000 
v 164.000000 528.000000 275.000000 
v 149.000000 370.000000 201.000000 
v 123.000000 370.000000 201.000000 
v 123.000000 370.000000 201.000000 
v 130.000000 528.000000 275.000000 
v 164.000000 528.000000 275.000000 
v 71.000000 528.000000 275.000000 
v 78.000000 368.000000 236.000000 
v 78.000000 370.000000 201.000000 
v 78.000000 368.000000 236.000000 
v 71.000000 528.000000 275.000000 
v 71.000000 519.000000 308.000000 
v 164.000000 528.000000 275.000000 
v 149.000000 368.000000 236.000000 
v 149.000000 370.000000 201.000000 
v 149.000000 368.000000 236.000000 
v 164.000000 528.000000 275.000000 
v 164.000000 519.000000 308.000000 
v 191.000000 387.000000 254.000000 
v 191.000000 130.000000 254.000000 
v 191.000000 130.000000 -12.000000 
v 191.000000 130.000000 -12.000000 
v 191.000000 387.000000 -12.000000 
v 191.000000 387.000000 254.000000 
vn 0.000000 1.000000 0.000000 
vn 0.000000 1.000000 0.000000 
vn 0.000000 1.000000 0.000000 
vn 0.000000 1.000000 0.000000 
vn 0.000000 1.000000 0.000000 
vn 0.000000 1.000000 0.000000 
vn 0.000000 0.000000 1.000000 
vn 0.000000 0.000000 1.000000 
vn 0.000000 0.000000 1.000000 
vn 0.000000 0.000000 1.000000 
vn 0.000000 0.000000 1.000000 
vn 0.000000 0.000000 1.000000 
vn -1.000000 0.000000 0.000000 
vn -1.000000 0.000000 0.000000 
vn -1.000000 0.000000 0.000000 
vn -1.000000 0.000000 0.000000 
vn -1.000000 0.000000 0.000000 
vn -1.000000 0.000000 0.000000 
vn 0.000000 0.000000 -1.000000 
vn 0.000000 0.000000 -1.000000 
vn 0.000000 0.000000 -1.000000 
vn 0.000000 0.000000 -1.000000 
vn 0.000000 0.000000 -1.000000 
vn 0.000000 0.000000 -1.000000 
vn 0.000000 0.990967 0.132568 
vn 0.000000 0.990967 0.132568 
vn 0.000000 0.990967 0.132568 
vn 0.000000 0.990967 0.132568 
vn 0.000000 0.990967 0.132568 
vn 0.000000 0.990967 0.132568 
vn 0.000000 -0.691162 0.722412 
vn 0.000000 -0.691162 0.722412 
vn 0.000000 -0.691162 0.722412 
vn 0.000000 -0.691162 0.722412 
vn 0.000000 -0.691162 0.722412 
vn 0.000000 -0.691162 0.722412 
vn -0.993652 -0.112061 -0.008789 
vn -0.993164 -0.114746 -0.003174 
vn -0.993652 -0.112061 -0.008789 
vn -0.993652 -0.112061 -0.008789 
vn -0.993896 -0.109131 -0.014404 
vn -0.993652 -0.112061 -0.008789 
vn 0.000000 0.683105 -0.729980 
vn 0.000000 0.683105 -0.729980 
vn 0.000000 0.683105 -0.729980 
vn 0.000000 0.683105 -0.729980 
vn 0.000000 0.683105 -0.729980 
vn 0.000000 0.683105 -0.729980 
vn 0.000000 0.990967 0.132568 
vn 0.000000 0.990967 0.132568 
vn 0.000000 0.990967 0.132568 
vn 0.000000 0.990967 0.132568 
vn 0.000000 0.990967 0.132568 
vn 0.000000 0.990967 0.132568 
vn 0.000000 -0.691162 0.722412 
vn 0.000000 -0.691162 0.722412 
vn 0.000000 -0.691162 0.722412 
vn 0.000000 -0.691162 0.722412 
vn 0.000000 -0.691162 0.722412 
vn 0.000000 -0.691162 0.722412 
vn -0.998535 0.052002 0.004150 
vn -0.998535 0.053223 0.001465 
vn -0.998535 0.052002 0.004150 
vn -0.998535 0.052002 0.004150 
vn -0.998535 0.050781 0.006592 
vn -0.998535 0.052002 0.004150 
vn 0.000000 0.683105 -0.729980 
vn 0.000000 0.683105 -0.729980 
vn 0.000000 0.683105 -0.729980 
vn 0.000000 0.683105 -0.729980 
vn 0.000000 0.683105 -0.729980 
vn 0.000000 0.683105 -0.729980 
vn 0.998535 0.052002 0.004150 
vn 0.998535 0.052002 0.004150 
vn 0.998535 0.053223 0.001465 
vn 0.998535 0.052002 0.004150 
vn 0.998535 0.052002 0.004150 
vn 0.998535 0.050781 0.006592 
vn 0.993652 -0.112061 -0.008789 
vn 0.993652 -0.112061 -0.008789 
vn 0.993164 -0.114746 -0.003174 
vn 0.993652 -0.112061 -0.008789 
vn 0.993652 -0.112061 -0.008789 
vn 0.993896 -0.109131 -0.014404 
vn 1.000000 0.000000 0.000000 
vn 1.000000 0.000000 0.000000 
vn 1.000000 0.000000 0.000000 
vn 1.000000 0.000000 0.000000 
vn 1.000000 0.000000 0.000000 
vn 1.000000 0.000000 0.000000 
vt 0.842520 0.488189 
vt 0.842520 -0.007874 
vt 0.267717 -0.007874 
vt 0.267717 -0.007874 
vt 0.267717 0.488189 
vt 0.842520 0.488189 
vt 0.267717 1.000000 
vt 0.267717 -0.007874 
vt 0.000000 -0.007874 
vt 0.000000 -0.007874 
vt 0.000000 1.000000 
vt 0.267717 1.000000 
vt 0.842520 1.000000 
vt 0.842520 -0.007874 
vt 0.267717 -0.007874 
vt 0.267717 -0.007874 
vt 0.267717 1.000000 
vt 0.842520 1.000000 
vt 0.267717 1.000000 
vt 0.267717 -0.007874 
vt 0.000000 -0.007874 
vt 0.000000 -0.007874 
vt 0.000000 1.000000 
vt 0.267717 1.000000 
vt 0.842520 1.000000 
vt 0.842520 0.834646 
vt 1.000000 0.834646 
vt 1.000000 0.834646 
vt 1.000000 1.000000 
vt 0.842520 1.000000 
vt 0.842520 0.834646 
vt 0.842520 0.000000 
vt 0.921260 0.000000 
vt 0.921260 0.000000 
vt 0.921260 0.834646 
vt 0.842520 0.834646 
vt 0.905512 0.834646 
vt 0.905512 0.000000 
vt 0.842520 0.000000 
vt 0.842520 0.000000 
vt 0.842520 0.834646 
vt 0.905512 0.834646 
vt 1.000000 0.834646 
vt 1.000000 0.000000 
vt 0.905512 0.000000 
vt 0.905512 0.000000 
vt 0.905512 0.834646 
vt 1.000000 0.834646 
vt 0.842520 1.000000 
vt 0.842520 0.834646 
vt 1.000000 0.834646 
vt 1.000000 0.834646 
vt 1.000000 1.000000 
vt 0.842520 1.000000 
vt 0.842520 0.834646 
vt 0.842520 0.000000 
vt 0.921260 0.000000 
vt 0.921260 0.000000 
vt 0.921260 0.834646 
vt 0.842520 0.834646 
vt 0.905512 0.834646 
vt 0.905512 0.000000 
vt 0.842520 0.000000 
vt 0.842520 0.000000 
vt 0.842520 0.834646 
vt 0.905512 0.834646 
vt 1.000000 0.834646 
vt 1.000000 0.000000 
vt 0.905512 0.000000 
vt 0.905512 0.000000 
vt 0.905512 0.834646 
vt 1.000000 0.834646 
vt 0.905512 0.834646 
vt 0.842520 0.000000 
vt 0.905512 0.000000 
vt 0.842520 0.000000 
vt 0.905512 0.834646 
vt 0.842520 0.834646 
vt 0.905512 0.834646 
vt 0.842520 0.000000 
vt 0.905512 0.000000 
vt 0.842520 0.000000 
vt 0.905512 0.834646 
vt 0.842520 0.834646 
vt 0.842520 1.000000 
vt 0.842520 -0.007874 
vt 0.267717 -0.007874 
vt 0.267717 -0.007874 
vt 0.267717 1.000000 
vt 0.842520 1.000000 
f 1/1/1 2/2/2 3/3/3
f 4/4/4 5/5/5 6/6/6
f 7/7/7 8/8/8 9/9/9
f 10/10/10 11/11/11 12/12/12
f 13/13/13 14/14/14 15/15/15
f 16/16/16 17/17/17 18/18/18
f 19/19/19 20/20/20 21/21/21
f 22/22/22 23/23/23 24/24/24
f 25/25/25 26/26/26 27/27/27
f 28/28/28 29/29/29 30/30/30
f 31/31/31 32/32/32 33/33/33
f 34/34/34 35/35/35 36/36/36
f 37/37/37 38/38/38 39/39/39
f 40/40/40 41/41/41 42/42/42
f 43/43/43 44/44/44 45/45/45
f 46/46/46 47/47/47 48/48/48
f 49/49/49 50/50/50 51/51/51
f 52/52/52 53/53/53 54/54/54
f 55/55/55 56/56/56 57/57/57
f 58/58/58 59/59/59 60/60/60
f 61/61/61 62/62/62 63/63/63
f 64/64/64 65/65/65 66/66/66
f 67/67/67 68/68/68 69/69/69
f 70/70/70 71/71/71 72/72/72
f 73/73/73 74/74/74 75/75/75
f 76/76/76 77/77/77 78/78/78
f 79/79/79 80/80/80 81/81/81
f 82/82/82 83/83/83 84/84/84
f 85/85/85 86/86/86 87/87/87
f 88/88/88 89/89/89 90/90/90
