v 59.000000 -9.000000 0.000000 
v 60.000000 -1.000000 5.000000 
v 0.000000 -5.000000 -1.000000 
v 59.000000 -9.000000 0.000000 
v 0.000000 -5.000000 -1.000000 
v 0.000000 -2.000000 -6.000000 
v 60.000000 -1.000000 5.000000 
v 4.000000 -1.000000 3.000000 
v 0.000000 -5.000000 -1.000000 
v 4.000000 4.000000 0.000000 
v 0.000000 3.000000 -5.000000 
v 0.000000 4.000000 0.000000 
v 59.000000 1.000000 -8.000000 
v 0.000000 3.000000 -5.000000 
v 4.000000 4.000000 0.000000 
v 59.000000 1.000000 -8.000000 
v 59.000000 -6.000000 -8.000000 
v 0.000000 3.000000 -5.000000 
v 59.000000 -6.000000 -8.000000 
v 0.000000 -2.000000 -6.000000 
v 0.000000 3.000000 -5.000000 
v 59.000000 -6.000000 -8.000000 
v 59.000000 -9.000000 0.000000 
v 0.000000 -2.000000 -6.000000 
v 60.000000 -1.000000 5.000000 
v 59.000000 -9.000000 0.000000 
v 66.000000 -2.000000 -1.000000 
v 59.000000 -9.000000 0.000000 
v 59.000000 -6.000000 -8.000000 
v 66.000000 -2.000000 -1.000000 
v 60.000000 5.000000 0.000000 
v 60.000000 -1.000000 5.000000 
v 66.000000 -2.000000 -1.000000 
v 60.000000 -1.000000 5.000000 
v 60.000000 5.000000 0.000000 
v 4.000000 -1.000000 3.000000 
v 59.000000 1.000000 -8.000000 
v 60.000000 5.000000 0.000000 
v 66.000000 -2.000000 -1.000000 
v 60.000000 5.000000 0.000000 
v 59.000000 1.000000 -8.000000 
v 4.000000 4.000000 0.000000 
v 60.000000 5.000000 0.000000 
v 4.000000 4.000000 0.000000 
v 4.000000 -1.000000 3.000000 
v 59.000000 -6.000000 -8.000000 
v 59.000000 1.000000 -8.000000 
v 66.000000 -2.000000 -1.000000 
vn 0.336914 -0.929688 0.148438 
vn 0.355713 -0.136963 0.924316 
vn -0.020752 -0.954590 0.296631 
vn 0.336914 -0.929688 0.148438 
vn -0.020752 -0.954590 0.296631 
vn -0.012939 -0.420654 -0.906982 
vn 0.355713 -0.136963 0.924316 
vn -0.041748 0.033691 0.998535 
vn -0.020752 -0.954590 0.296631 
vn -0.025635 0.903564 0.427246 
vn 0.005859 0.846680 -0.531738 
vn 0.024902 0.773438 0.633057 
vn 0.371582 0.646240 -0.666260 
vn 0.005859 0.846680 -0.531738 
vn -0.025635 0.903564 0.427246 
vn 0.371582 0.646240 -0.666260 
vn 0.349854 -0.427490 -0.833496 
vn 0.005859 0.846680 -0.531738 
vn 0.349854 -0.427490 -0.833496 
vn -0.012939 -0.420654 -0.906982 
vn 0.005859 0.846680 -0.531738 
vn 0.349854 -0.427490 -0.833496 
vn 0.336914 -0.929688 0.148438 
vn -0.012939 -0.420654 -0.906982 
vn 0.355713 -0.136963 0.924316 
vn 0.336914 -0.929688 0.148438 
vn 0.999756 -0.007080 -0.005859 
vn 0.336914 -0.929688 0.148438 
vn 0.349854 -0.427490 -0.833496 
vn 0.999756 -0.007080 -0.005859 
vn 0.373779 0.836670 0.399902 
vn 0.355713 -0.136963 0.924316 
vn 0.999756 -0.007080 -0.005859 
vn 0.355713 -0.136963 0.924316 
vn 0.373779 0.836670 0.399902 
vn -0.041748 0.033691 0.998535 
vn 0.371582 0.646240 -0.666260 
vn 0.373779 0.836670 0.399902 
vn 0.999756 -0.007080 -0.005859 
vn 0.373779 0.836670 0.399902 
vn 0.371582 0.646240 -0.666260 
vn -0.025635 0.903564 0.427246 
vn 0.373779 0.836670 0.399902 
vn -0.025635 0.903564 0.427246 
vn -0.041748 0.033691 0.998535 
vn 0.349854 -0.427490 -0.833496 
vn 0.371582 0.646240 -0.666260 
vn 0.999756 -0.007080 -0.005859 
vt 1.000000 0.492063 
vt 1.000000 0.523810 
vt 0.774194 0.492063 
vt 1.000000 0.492063 
vt 0.774194 0.492063 
vt 0.774194 0.476190 
vt 1.000000 0.523810 
vt 0.806452 0.507937 
vt 0.774194 0.492063 
vt 0.806452 0.507937 
vt 0.774194 0.476190 
vt 0.774194 0.507937 
vt 1.000000 0.460317 
vt 0.774194 0.476190 
vt 0.806452 0.507937 
vt 1.000000 0.460317 
vt 1.000000 0.460317 
vt 0.774194 0.476190 
vt 1.000000 0.460317 
vt 0.774194 0.476190 
vt 0.774194 0.476190 
vt 1.000000 0.460317 
vt 1.000000 0.492063 
vt 0.774194 0.476190 
vt 1.000000 0.523810 
vt 1.000000 0.492063 
vt 1.000000 0.492063 
vt 1.000000 0.492063 
vt 1.000000 0.460317 
vt 1.000000 0.492063 
vt 1.000000 0.492063 
vt 1.000000 0.523810 
vt 1.000000 0.492063 
vt 1.000000 0.523810 
vt 1.000000 0.492063 
vt 0.806452 0.507937 
vt 1.000000 0.460317 
vt 1.000000 0.492063 
vt 1.000000 0.492063 
vt 1.000000 0.492063 
vt 1.000000 0.460317 
vt 0.806452 0.507937 
vt 1.000000 0.492063 
vt 0.806452 0.507937 
vt 0.806452 0.507937 
vt 1.000000 0.460317 
vt 1.000000 0.460317 
vt 1.000000 0.492063 
f 1/1/1 2/2/2 3/3/3
f 4/4/4 5/5/5 6/6/6
f 7/7/7 8/8/8 9/9/9
f 10/10/10 11/11/11 12/12/12
f 13/13/13 14/14/14 15/15/15
f 16/16/16 17/17/17 18/18/18
f 19/19/19 20/20/20 21/21/21
f 22/22/22 23/23/23 24/24/24
f 25/25/25 26/26/26 27/27/27
f 28/28/28 29/29/29 30/30/30
f 31/31/31 32/32/32 33/33/33
f 34/34/34 35/35/35 36/36/36
f 37/37/37 38/38/38 39/39/39
f 40/40/40 41/41/41 42/42/42
f 43/43/43 44/44/44 45/45/45
f 46/46/46 47/47/47 48/48/48
