v 13.000000 15.000000 11.000000 
v 19.000000 15.000000 9.000000 
v 16.000000 15.000000 -13.000000 
v 19.000000 15.000000 9.000000 
v 13.000000 15.000000 11.000000 
v 11.000000 0.000000 19.000000 
v 1.000000 -10.000000 8.000000 
v 9.000000 -12.000000 8.000000 
v 11.000000 0.000000 19.000000 
v 11.000000 0.000000 19.000000 
v 20.000000 0.000000 18.000000 
v 19.000000 15.000000 9.000000 
v 20.000000 0.000000 18.000000 
v 11.000000 0.000000 19.000000 
v 9.000000 -12.000000 8.000000 
v -1.000000 -10.000000 -8.000000 
v 7.000000 -12.000000 -10.000000 
v 9.000000 -12.000000 8.000000 
v 9.000000 -12.000000 8.000000 
v 1.000000 -10.000000 8.000000 
v -1.000000 -10.000000 -8.000000 
v 19.000000 -14.000000 8.000000 
v 9.000000 -12.000000 8.000000 
v 7.000000 -12.000000 -10.000000 
v 9.000000 -12.000000 8.000000 
v 19.000000 -14.000000 8.000000 
v 20.000000 0.000000 18.000000 
v 16.000000 -14.000000 -12.000000 
v 7.000000 -12.000000 -10.000000 
v 6.000000 0.000000 -21.000000 
v 6.000000 0.000000 -21.000000 
v 16.000000 0.000000 -17.000000 
v 16.000000 -14.000000 -12.000000 
v 7.000000 -12.000000 -10.000000 
v 16.000000 -14.000000 -12.000000 
v 19.000000 -14.000000 8.000000 
v 33.000000 15.000000 -15.000000 
v 16.000000 15.000000 -13.000000 
v 19.000000 15.000000 9.000000 
v 19.000000 15.000000 9.000000 
v 36.000000 15.000000 11.000000 
v 33.000000 15.000000 -15.000000 
v 36.000000 15.000000 11.000000 
v 19.000000 15.000000 9.000000 
v 20.000000 0.000000 18.000000 
v 20.000000 0.000000 18.000000 
v 38.000000 -1.000000 21.000000 
v 36.000000 15.000000 11.000000 
v 38.000000 -1.000000 21.000000 
v 20.000000 0.000000 18.000000 
v 19.000000 -14.000000 8.000000 
v 36.000000 -16.000000 9.000000 
v 19.000000 -14.000000 8.000000 
v 16.000000 -14.000000 -12.000000 
v 19.000000 -14.000000 8.000000 
v 36.000000 -16.000000 9.000000 
v 38.000000 -1.000000 21.000000 
v 32.000000 -1.000000 -21.000000 
v 16.000000 0.000000 -17.000000 
v 16.000000 15.000000 -13.000000 
v 16.000000 15.000000 -13.000000 
v 33.000000 15.000000 -15.000000 
v 32.000000 -1.000000 -21.000000 
v 33.000000 -16.000000 -14.000000 
v 16.000000 -14.000000 -12.000000 
v 16.000000 0.000000 -17.000000 
v 16.000000 0.000000 -17.000000 
v 32.000000 -1.000000 -21.000000 
v 33.000000 -16.000000 -14.000000 
v 16.000000 -14.000000 -12.000000 
v 33.000000 -16.000000 -14.000000 
v 36.000000 -16.000000 9.000000 
v 43.000000 -7.000000 0.000000 
v 42.000000 -4.000000 -7.000000 
v 49.000000 -7.000000 1.000000 
v 42.000000 -4.000000 -7.000000 
v 48.000000 -4.000000 -6.000000 
v 49.000000 -7.000000 1.000000 
v 43.000000 -7.000000 0.000000 
v 49.000000 -7.000000 1.000000 
v 50.000000 0.000000 5.000000 
v 42.000000 -4.000000 -7.000000 
v 42.000000 3.000000 -7.000000 
v 48.000000 -4.000000 -6.000000 
v 42.000000 3.000000 -7.000000 
v 48.000000 3.000000 -6.000000 
v 48.000000 -4.000000 -6.000000 
v 42.000000 3.000000 -7.000000 
v 43.000000 6.000000 0.000000 
v 48.000000 3.000000 -6.000000 
v 43.000000 6.000000 0.000000 
v 49.000000 6.000000 0.000000 
v 48.000000 3.000000 -6.000000 
v 43.000000 6.000000 0.000000 
v 43.000000 0.000000 4.000000 
v 49.000000 6.000000 0.000000 
v 43.000000 0.000000 4.000000 
v 50.000000 0.000000 5.000000 
v 49.000000 6.000000 0.000000 
v 43.000000 0.000000 4.000000 
v 43.000000 -7.000000 0.000000 
v 50.000000 0.000000 5.000000 
v 17.000000 -7.000000 0.000000 
v 15.000000 -4.000000 -10.000000 
v 43.000000 -7.000000 0.000000 
v 15.000000 -4.000000 -10.000000 
v 42.000000 -4.000000 -7.000000 
v 43.000000 -7.000000 0.000000 
v 17.000000 -7.000000 0.000000 
v 43.000000 -7.000000 0.000000 
v 43.000000 0.000000 4.000000 
v 15.000000 -4.000000 -10.000000 
v 15.000000 5.000000 -10.000000 
v 42.000000 -4.000000 -7.000000 
v 15.000000 5.000000 -10.000000 
v 42.000000 3.000000 -7.000000 
v 42.000000 -4.000000 -7.000000 
v 15.000000 5.000000 -10.000000 
v 17.000000 8.000000 0.000000 
v 42.000000 3.000000 -7.000000 
v 17.000000 8.000000 0.000000 
v 43.000000 6.000000 0.000000 
v 42.000000 3.000000 -7.000000 
v 17.000000 8.000000 0.000000 
v 18.000000 0.000000 7.000000 
v 43.000000 6.000000 0.000000 
v 18.000000 0.000000 7.000000 
v 43.000000 0.000000 4.000000 
v 43.000000 6.000000 0.000000 
v 18.000000 0.000000 7.000000 
v 17.000000 -7.000000 0.000000 
v 43.000000 0.000000 4.000000 
vn 0.365967 0.618652 0.695068 
vn 0.014893 0.863281 0.504150 
vn 0.071289 0.812012 -0.578857 
vn 0.014893 0.863281 0.504150 
vn 0.365967 0.618652 0.695068 
vn 0.015137 -0.130615 0.991211 
vn -0.275391 -0.887695 0.368408 
vn -0.199219 -0.883057 0.424561 
vn 0.015137 -0.130615 0.991211 
vn 0.015137 -0.130615 0.991211 
vn -0.148926 -0.058105 0.987061 
vn 0.014893 0.863281 0.504150 
vn -0.148926 -0.058105 0.987061 
vn 0.015137 -0.130615 0.991211 
vn -0.199219 -0.883057 0.424561 
vn -0.314941 -0.878418 -0.358887 
vn -0.174316 -0.902832 -0.392822 
vn -0.199219 -0.883057 0.424561 
vn -0.199219 -0.883057 0.424561 
vn -0.275391 -0.887695 0.368408 
vn -0.314941 -0.878418 -0.358887 
vn -0.188232 -0.876221 0.443359 
vn -0.199219 -0.883057 0.424561 
vn -0.174316 -0.902832 -0.392822 
vn -0.199219 -0.883057 0.424561 
vn -0.188232 -0.876221 0.443359 
vn -0.148926 -0.058105 0.987061 
vn -0.042969 -0.858887 -0.510010 
vn -0.174316 -0.902832 -0.392822 
vn 0.178467 -0.184570 -0.966309 
vn 0.178467 -0.184570 -0.966309 
vn 0.174561 -0.062744 -0.982422 
vn -0.042969 -0.858887 -0.510010 
vn -0.174316 -0.902832 -0.392822 
vn -0.042969 -0.858887 -0.510010 
vn -0.188232 -0.876221 0.443359 
vn 0.019287 0.928711 -0.369629 
vn 0.071289 0.812012 -0.578857 
vn 0.014893 0.863281 0.504150 
vn 0.014893 0.863281 0.504150 
vn -0.124268 0.754639 0.644043 
vn 0.019287 0.928711 -0.369629 
vn -0.124268 0.754639 0.644043 
vn 0.014893 0.863281 0.504150 
vn -0.148926 -0.058105 0.987061 
vn -0.148926 -0.058105 0.987061 
vn -0.208008 -0.262207 0.942139 
vn -0.124268 0.754639 0.644043 
vn -0.208008 -0.262207 0.942139 
vn -0.148926 -0.058105 0.987061 
vn -0.188232 -0.876221 0.443359 
vn -0.112549 -0.951904 0.284180 
vn -0.188232 -0.876221 0.443359 
vn -0.042969 -0.858887 -0.510010 
vn -0.188232 -0.876221 0.443359 
vn -0.112549 -0.951904 0.284180 
vn -0.208008 -0.262207 0.942139 
vn -0.049072 0.065918 -0.996582 
vn 0.174561 -0.062744 -0.982422 
vn 0.071289 0.812012 -0.578857 
vn 0.071289 0.812012 -0.578857 
vn 0.019287 0.928711 -0.369629 
vn -0.049072 0.065918 -0.996582 
vn -0.060547 -0.699219 -0.712158 
vn -0.042969 -0.858887 -0.510010 
vn 0.174561 -0.062744 -0.982422 
vn 0.174561 -0.062744 -0.982422 
vn -0.049072 0.065918 -0.996582 
vn -0.060547 -0.699219 -0.712158 
vn -0.042969 -0.858887 -0.510010 
vn -0.060547 -0.699219 -0.712158 
vn -0.112549 -0.951904 0.284180 
vn -0.040527 -0.944336 0.326172 
vn 0.171631 -0.584473 -0.792725 
vn 0.054688 -0.946777 0.316895 
vn 0.171631 -0.584473 -0.792725 
vn 0.019775 -0.595215 -0.803223 
vn 0.054688 -0.946777 0.316895 
vn -0.040527 -0.944336 0.326172 
vn 0.054688 -0.946777 0.316895 
vn 0.000977 0.008545 0.999756 
vn 0.171631 -0.584473 -0.792725 
vn 0.184814 0.575439 -0.796387 
vn 0.019775 -0.595215 -0.803223 
vn 0.184814 0.575439 -0.796387 
vn -0.021729 0.580811 -0.813477 
vn 0.019775 -0.595215 -0.803223 
vn 0.184814 0.575439 -0.796387 
vn 0.025146 0.955078 0.294922 
vn -0.021729 0.580811 -0.813477 
vn 0.025146 0.955078 0.294922 
vn -0.053955 0.952148 0.300537 
vn -0.021729 0.580811 -0.813477 
vn 0.025146 0.955078 0.294922 
vn -0.120117 -0.003174 0.992676 
vn -0.053955 0.952148 0.300537 
vn -0.120117 -0.003174 0.992676 
vn 0.000977 0.008545 0.999756 
vn -0.053955 0.952148 0.300537 
vn -0.120117 -0.003174 0.992676 
vn -0.040527 -0.944336 0.326172 
vn 0.000977 0.008545 0.999756 
vn -0.030029 -0.845459 0.532715 
vn 0.115479 -0.770020 -0.627197 
vn -0.040527 -0.944336 0.326172 
vn 0.115479 -0.770020 -0.627197 
vn 0.171631 -0.584473 -0.792725 
vn -0.040527 -0.944336 0.326172 
vn -0.030029 -0.845459 0.532715 
vn -0.040527 -0.944336 0.326172 
vn -0.120117 -0.003174 0.992676 
vn 0.115479 -0.770020 -0.627197 
vn 0.204834 0.379395 -0.902100 
vn 0.171631 -0.584473 -0.792725 
vn 0.204834 0.379395 -0.902100 
vn 0.184814 0.575439 -0.796387 
vn 0.171631 -0.584473 -0.792725 
vn 0.204834 0.379395 -0.902100 
vn 0.074707 0.995117 0.062988 
vn 0.184814 0.575439 -0.796387 
vn 0.074707 0.995117 0.062988 
vn 0.025146 0.955078 0.294922 
vn 0.184814 0.575439 -0.796387 
vn 0.074707 0.995117 0.062988 
vn -0.025146 0.236572 0.971191 
vn 0.025146 0.955078 0.294922 
vn -0.025146 0.236572 0.971191 
vn -0.120117 -0.003174 0.992676 
vn 0.025146 0.955078 0.294922 
vn -0.025146 0.236572 0.971191 
vn -0.030029 -0.845459 0.532715 
vn -0.120117 -0.003174 0.992676 
vt 0.275591 0.125984 
vt 0.267717 0.078740 
vt 0.267717 0.118110 
vt 0.267717 0.078740 
vt 0.275591 0.125984 
vt 0.409449 0.125984 
vt 0.527559 0.188976 
vt 0.527559 0.125984 
vt 0.409449 0.125984 
vt 0.409449 0.125984 
vt 0.409449 0.070866 
vt 0.267717 0.078740 
vt 0.409449 0.070866 
vt 0.409449 0.125984 
vt 0.527559 0.125984 
vt 0.527559 0.188976 
vt 0.527559 0.125984 
vt 0.527559 0.125984 
vt 0.527559 0.125984 
vt 0.527559 0.188976 
vt 0.527559 0.188976 
vt 0.527559 0.070866 
vt 0.527559 0.125984 
vt 0.527559 0.125984 
vt 0.527559 0.125984 
vt 0.527559 0.070866 
vt 0.409449 0.070866 
vt 0.527559 0.118110 
vt 0.527559 0.125984 
vt 0.401575 0.125984 
vt 0.401575 0.125984 
vt 0.401575 0.118110 
vt 0.527559 0.118110 
vt 0.527559 0.125984 
vt 0.527559 0.118110 
vt 0.527559 0.070866 
vt 0.275591 0.102362 
vt 0.267717 0.118110 
vt 0.267717 0.078740 
vt 0.267717 0.078740 
vt 0.267717 0.000000 
vt 0.275591 0.102362 
vt 0.267717 0.000000 
vt 0.267717 0.078740 
vt 0.409449 0.070866 
vt 0.409449 0.070866 
vt 0.409449 0.000000 
vt 0.267717 0.000000 
vt 0.409449 0.000000 
vt 0.409449 0.070866 
vt 0.527559 0.070866 
vt 0.527559 0.000000 
vt 0.527559 0.070866 
vt 0.527559 0.118110 
vt 0.527559 0.070866 
vt 0.527559 0.000000 
vt 0.409449 0.000000 
vt 0.409449 0.102362 
vt 0.401575 0.118110 
vt 0.267717 0.118110 
vt 0.267717 0.118110 
vt 0.275591 0.102362 
vt 0.409449 0.102362 
vt 0.527559 0.094488 
vt 0.527559 0.118110 
vt 0.401575 0.118110 
vt 0.401575 0.118110 
vt 0.409449 0.102362 
vt 0.527559 0.094488 
vt 0.527559 0.118110 
vt 0.527559 0.094488 
vt 0.527559 0.000000 
vt 0.968504 0.188976 
vt 0.937008 0.188976 
vt 0.976378 0.157480 
vt 0.937008 0.188976 
vt 0.937008 0.157480 
vt 0.976378 0.157480 
vt 0.968504 0.188976 
vt 0.976378 0.157480 
vt 0.937008 0.157480 
vt 0.937008 0.188976 
vt 0.874016 0.188976 
vt 0.937008 0.157480 
vt 0.874016 0.188976 
vt 0.881890 0.157480 
vt 0.937008 0.157480 
vt 0.874016 0.188976 
vt 0.874016 0.188976 
vt 0.881890 0.157480 
vt 0.874016 0.188976 
vt 0.881890 0.157480 
vt 0.881890 0.157480 
vt 0.874016 0.188976 
vt 0.937008 0.188976 
vt 0.881890 0.157480 
vt 0.937008 0.188976 
vt 0.937008 0.157480 
vt 0.881890 0.157480 
vt 0.937008 0.188976 
vt 0.968504 0.188976 
vt 0.937008 0.157480 
vt 0.968504 0.322835 
vt 0.913386 0.322835 
vt 0.968504 0.188976 
vt 0.913386 0.322835 
vt 0.937008 0.188976 
vt 0.968504 0.188976 
vt 0.968504 0.322835 
vt 0.968504 0.188976 
vt 0.937008 0.188976 
vt 0.913386 0.322835 
vt 0.850394 0.322835 
vt 0.937008 0.188976 
vt 0.850394 0.322835 
vt 0.874016 0.188976 
vt 0.937008 0.188976 
vt 0.850394 0.322835 
vt 0.850394 0.322835 
vt 0.874016 0.188976 
vt 0.850394 0.322835 
vt 0.874016 0.188976 
vt 0.874016 0.188976 
vt 0.850394 0.322835 
vt 0.921260 0.322835 
vt 0.874016 0.188976 
vt 0.921260 0.322835 
vt 0.937008 0.188976 
vt 0.874016 0.188976 
vt 0.921260 0.322835 
vt 0.968504 0.322835 
vt 0.937008 0.188976 
f 1/1/1 2/2/2 3/3/3
f 4/4/4 5/5/5 6/6/6
f 7/7/7 8/8/8 9/9/9
f 10/10/10 11/11/11 12/12/12
f 13/13/13 14/14/14 15/15/15
f 16/16/16 17/17/17 18/18/18
f 19/19/19 20/20/20 21/21/21
f 22/22/22 23/23/23 24/24/24
f 25/25/25 26/26/26 27/27/27
f 28/28/28 29/29/29 30/30/30
f 31/31/31 32/32/32 33/33/33
f 34/34/34 35/35/35 36/36/36
f 37/37/37 38/38/38 39/39/39
f 40/40/40 41/41/41 42/42/42
f 43/43/43 44/44/44 45/45/45
f 46/46/46 47/47/47 48/48/48
f 49/49/49 50/50/50 51/51/51
f 52/52/52 53/53/53 54/54/54
f 55/55/55 56/56/56 57/57/57
f 58/58/58 59/59/59 60/60/60
f 61/61/61 62/62/62 63/63/63
f 64/64/64 65/65/65 66/66/66
f 67/67/67 68/68/68 69/69/69
f 70/70/70 71/71/71 72/72/72
f 73/73/73 74/74/74 75/75/75
f 76/76/76 77/77/77 78/78/78
f 79/79/79 80/80/80 81/81/81
f 82/82/82 83/83/83 84/84/84
f 85/85/85 86/86/86 87/87/87
f 88/88/88 89/89/89 90/90/90
f 91/91/91 92/92/92 93/93/93
f 94/94/94 95/95/95 96/96/96
f 97/97/97 98/98/98 99/99/99
f 100/100/100 101/101/101 102/102/102
f 103/103/103 104/104/104 105/105/105
f 106/106/106 107/107/107 108/108/108
f 109/109/109 110/110/110 111/111/111
f 112/112/112 113/113/113 114/114/114
f 115/115/115 116/116/116 117/117/117
f 118/118/118 119/119/119 120/120/120
f 121/121/121 122/122/122 123/123/123
f 124/124/124 125/125/125 126/126/126
f 127/127/127 128/128/128 129/129/129
f 130/130/130 131/131/131 132/132/132
