v 57.000000 -12.000000 32.000000 
v 31.000000 -29.000000 33.000000 
v 56.000000 -26.000000 26.000000 
v 31.000000 -14.000000 42.000000 
v 31.000000 -29.000000 33.000000 
v 57.000000 -12.000000 32.000000 
v 55.000000 -36.000000 12.000000 
v 56.000000 -26.000000 26.000000 
v 29.000000 -41.000000 18.000000 
v 29.000000 -41.000000 18.000000 
v 56.000000 -26.000000 26.000000 
v 31.000000 -29.000000 33.000000 
v 10.000000 -31.000000 32.000000 
v 29.000000 -41.000000 18.000000 
v 31.000000 -29.000000 33.000000 
v 31.000000 -14.000000 42.000000 
v 11.000000 -15.000000 45.000000 
v 10.000000 -26.000000 39.000000 
v 31.000000 -14.000000 42.000000 
v 10.000000 -26.000000 39.000000 
v 31.000000 -29.000000 33.000000 
v 57.000000 12.000000 32.000000 
v 56.000000 26.000000 26.000000 
v 31.000000 29.000000 33.000000 
v 31.000000 14.000000 42.000000 
v 57.000000 12.000000 32.000000 
v 31.000000 29.000000 33.000000 
v 55.000000 36.000000 12.000000 
v 29.000000 41.000000 18.000000 
v 56.000000 26.000000 26.000000 
v 29.000000 41.000000 18.000000 
v 31.000000 29.000000 33.000000 
v 56.000000 26.000000 26.000000 
v 14.000000 41.000000 19.000000 
v 10.000000 31.000000 32.000000 
v 29.000000 41.000000 18.000000 
v 10.000000 31.000000 32.000000 
v 31.000000 29.000000 33.000000 
v 29.000000 41.000000 18.000000 
v 31.000000 14.000000 42.000000 
v 10.000000 26.000000 39.000000 
v 11.000000 16.000000 45.000000 
v 31.000000 14.000000 42.000000 
v 31.000000 29.000000 33.000000 
v 10.000000 26.000000 39.000000 
v 10.000000 -26.000000 39.000000 
v 10.000000 -31.000000 32.000000 
v 31.000000 -29.000000 33.000000 
v 10.000000 31.000000 32.000000 
v 10.000000 26.000000 39.000000 
v 31.000000 29.000000 33.000000 
v 14.000000 -41.000000 19.000000 
v 29.000000 -41.000000 18.000000 
v 10.000000 -31.000000 32.000000 
vn 0.328857 -0.338623 0.881348 
vn 0.209717 -0.602295 0.770020 
vn 0.397461 -0.531982 0.747314 
vn 0.260986 -0.327637 0.907715 
vn 0.209717 -0.602295 0.770020 
vn 0.328857 -0.338623 0.881348 
vn 0.335205 -0.845215 0.415527 
vn 0.397461 -0.531982 0.747314 
vn 0.140137 -0.910645 0.388184 
vn 0.140137 -0.910645 0.388184 
vn 0.397461 -0.531982 0.747314 
vn 0.209717 -0.602295 0.770020 
vn 0.032471 -0.757812 0.651367 
vn 0.140137 -0.910645 0.388184 
vn 0.209717 -0.602295 0.770020 
vn 0.260986 -0.327637 0.907715 
vn 0.063721 -0.378418 0.923340 
vn 0.070312 -0.572998 0.816406 
vn 0.260986 -0.327637 0.907715 
vn 0.070312 -0.572998 0.816406 
vn 0.209717 -0.602295 0.770020 
vn 0.328857 0.338623 0.881348 
vn 0.397705 0.531982 0.747314 
vn 0.210205 0.602295 0.769775 
vn 0.261230 0.327637 0.907715 
vn 0.328857 0.338623 0.881348 
vn 0.210205 0.602295 0.769775 
vn 0.335205 0.845215 0.415527 
vn 0.138672 0.911133 0.387939 
vn 0.397705 0.531982 0.747314 
vn 0.138672 0.911133 0.387939 
vn 0.210205 0.602295 0.769775 
vn 0.397705 0.531982 0.747314 
vn -0.026123 0.923828 0.381104 
vn 0.025146 0.761963 0.646973 
vn 0.138672 0.911133 0.387939 
vn 0.025146 0.761963 0.646973 
vn 0.210205 0.602295 0.769775 
vn 0.138672 0.911133 0.387939 
vn 0.261230 0.327637 0.907715 
vn 0.071045 0.573242 0.815918 
vn 0.063721 0.377930 0.923584 
vn 0.261230 0.327637 0.907715 
vn 0.210205 0.602295 0.769775 
vn 0.071045 0.573242 0.815918 
vn 0.070312 -0.572998 0.816406 
vn 0.032471 -0.757812 0.651367 
vn 0.209717 -0.602295 0.770020 
vn 0.025146 0.761963 0.646973 
vn 0.071045 0.573242 0.815918 
vn 0.210205 0.602295 0.769775 
vn -0.020752 -0.923340 0.383057 
vn 0.140137 -0.910645 0.388184 
vn 0.032471 -0.757812 0.651367 
vt 0.380952 0.838710 
vt 0.269841 0.387097 
vt 0.269841 0.838710 
vt 0.380952 0.290323 
vt 0.269841 0.387097 
vt 0.380952 0.838710 
vt 0.142857 0.838710 
vt 0.269841 0.838710 
vt 0.126984 0.387097 
vt 0.126984 0.387097 
vt 0.269841 0.838710 
vt 0.269841 0.387097 
vt 0.222222 0.096774 
vt 0.126984 0.387097 
vt 0.269841 0.387097 
vt 0.380952 0.290323 
vt 0.396825 0.000000 
vt 0.222222 0.096774 
vt 0.380952 0.290323 
vt 0.222222 0.096774 
vt 0.269841 0.387097 
vt 0.587302 0.838710 
vt 0.698413 0.838710 
vt 0.698413 0.387097 
vt 0.587302 0.290323 
vt 0.587302 0.838710 
vt 0.698413 0.387097 
vt 0.825397 0.838710 
vt 0.825397 0.387097 
vt 0.698413 0.838710 
vt 0.825397 0.387097 
vt 0.698413 0.387097 
vt 0.698413 0.838710 
vt 0.825397 0.290323 
vt 0.746032 0.096774 
vt 0.825397 0.387097 
vt 0.746032 0.096774 
vt 0.698413 0.387097 
vt 0.825397 0.387097 
vt 0.587302 0.290323 
vt 0.746032 0.096774 
vt 0.571429 0.000000 
vt 0.587302 0.290323 
vt 0.698413 0.387097 
vt 0.746032 0.096774 
vt 0.222222 0.096774 
vt 0.222222 0.096774 
vt 0.269841 0.387097 
vt 0.746032 0.096774 
vt 0.746032 0.096774 
vt 0.698413 0.387097 
vt 0.142857 0.290323 
vt 0.126984 0.387097 
vt 0.222222 0.096774 
f 1/1/1 2/2/2 3/3/3
f 4/4/4 5/5/5 6/6/6
f 7/7/7 8/8/8 9/9/9
f 10/10/10 11/11/11 12/12/12
f 13/13/13 14/14/14 15/15/15
f 16/16/16 17/17/17 18/18/18
f 19/19/19 20/20/20 21/21/21
f 22/22/22 23/23/23 24/24/24
f 25/25/25 26/26/26 27/27/27
f 28/28/28 29/29/29 30/30/30
f 31/31/31 32/32/32 33/33/33
f 34/34/34 35/35/35 36/36/36
f 37/37/37 38/38/38 39/39/39
f 40/40/40 41/41/41 42/42/42
f 43/43/43 44/44/44 45/45/45
f 46/46/46 47/47/47 48/48/48
f 49/49/49 50/50/50 51/51/51
f 52/52/52 53/53/53 54/54/54
