v -4.000000 5.000000 -17.000000 
v 0.000000 6.000000 -17.000000 
v 0.000000 0.000000 -22.000000 
v -6.000000 0.000000 -18.000000 
v -4.000000 5.000000 -17.000000 
v 0.000000 0.000000 -22.000000 
v -4.000000 -4.000000 -18.000000 
v -6.000000 0.000000 -18.000000 
v 0.000000 0.000000 -22.000000 
v 0.000000 -6.000000 -18.000000 
v -4.000000 -4.000000 -18.000000 
v 0.000000 0.000000 -22.000000 
v 4.000000 -4.000000 -18.000000 
v 0.000000 -6.000000 -18.000000 
v 0.000000 0.000000 -22.000000 
v 6.000000 0.000000 -18.000000 
v 4.000000 -4.000000 -18.000000 
v 0.000000 0.000000 -22.000000 
v 4.000000 5.000000 -17.000000 
v 6.000000 0.000000 -18.000000 
v 0.000000 0.000000 -22.000000 
v 0.000000 6.000000 -17.000000 
v 4.000000 5.000000 -17.000000 
v 0.000000 0.000000 -22.000000 
v -7.000000 7.000000 -7.000000 
v 0.000000 9.000000 -6.000000 
v 0.000000 6.000000 -17.000000 
v -4.000000 5.000000 -17.000000 
v -7.000000 7.000000 -7.000000 
v 0.000000 6.000000 -17.000000 
v -10.000000 0.000000 -8.000000 
v -7.000000 7.000000 -7.000000 
v -4.000000 5.000000 -17.000000 
v -6.000000 0.000000 -18.000000 
v -10.000000 0.000000 -8.000000 
v -4.000000 5.000000 -17.000000 
v -7.000000 -4.000000 -8.000000 
v -10.000000 0.000000 -8.000000 
v -6.000000 0.000000 -18.000000 
v -4.000000 -4.000000 -18.000000 
v -7.000000 -4.000000 -8.000000 
v -6.000000 0.000000 -18.000000 
v 0.000000 -7.000000 -8.000000 
v -7.000000 -4.000000 -8.000000 
v -4.000000 -4.000000 -18.000000 
v 0.000000 -6.000000 -18.000000 
v 0.000000 -7.000000 -8.000000 
v -4.000000 -4.000000 -18.000000 
v 7.000000 -4.000000 -8.000000 
v 0.000000 -7.000000 -8.000000 
v 0.000000 -6.000000 -18.000000 
v 4.000000 -4.000000 -18.000000 
v 7.000000 -4.000000 -8.000000 
v 0.000000 -6.000000 -18.000000 
v 10.000000 0.000000 -8.000000 
v 7.000000 -4.000000 -8.000000 
v 4.000000 -4.000000 -18.000000 
v 6.000000 0.000000 -18.000000 
v 10.000000 0.000000 -8.000000 
v 4.000000 -4.000000 -18.000000 
v 7.000000 7.000000 -7.000000 
v 10.000000 0.000000 -8.000000 
v 6.000000 0.000000 -18.000000 
v 4.000000 5.000000 -17.000000 
v 7.000000 7.000000 -7.000000 
v 6.000000 0.000000 -18.000000 
v 0.000000 9.000000 -6.000000 
v 7.000000 7.000000 -7.000000 
v 4.000000 5.000000 -17.000000 
v 0.000000 6.000000 -17.000000 
v 0.000000 9.000000 -6.000000 
v 4.000000 5.000000 -17.000000 
v -5.000000 5.000000 2.000000 
v 0.000000 7.000000 2.000000 
v 0.000000 9.000000 -6.000000 
v -7.000000 7.000000 -7.000000 
v -5.000000 5.000000 2.000000 
v 0.000000 9.000000 -6.000000 
v -7.000000 0.000000 1.000000 
v -5.000000 5.000000 2.000000 
v -7.000000 7.000000 -7.000000 
v -10.000000 0.000000 -8.000000 
v -7.000000 0.000000 1.000000 
v -7.000000 7.000000 -7.000000 
v -5.000000 -4.000000 1.000000 
v -7.000000 0.000000 1.000000 
v -10.000000 0.000000 -8.000000 
v -7.000000 -4.000000 -8.000000 
v -5.000000 -4.000000 1.000000 
v -10.000000 0.000000 -8.000000 
v 0.000000 -6.000000 0.000000 
v -5.000000 -4.000000 1.000000 
v -7.000000 -4.000000 -8.000000 
v 0.000000 -7.000000 -8.000000 
v 0.000000 -6.000000 0.000000 
v -7.000000 -4.000000 -8.000000 
v 5.000000 -4.000000 1.000000 
v 0.000000 -6.000000 0.000000 
v 0.000000 -7.000000 -8.000000 
v 7.000000 -4.000000 -8.000000 
v 5.000000 -4.000000 1.000000 
v 0.000000 -7.000000 -8.000000 
v 7.000000 0.000000 1.000000 
v 5.000000 -4.000000 1.000000 
v 7.000000 -4.000000 -8.000000 
v 10.000000 0.000000 -8.000000 
v 7.000000 0.000000 1.000000 
v 7.000000 -4.000000 -8.000000 
v 5.000000 5.000000 2.000000 
v 7.000000 0.000000 1.000000 
v 10.000000 0.000000 -8.000000 
v 7.000000 7.000000 -7.000000 
v 5.000000 5.000000 2.000000 
v 10.000000 0.000000 -8.000000 
v 0.000000 7.000000 2.000000 
v 5.000000 5.000000 2.000000 
v 7.000000 7.000000 -7.000000 
v 0.000000 9.000000 -6.000000 
v 0.000000 7.000000 2.000000 
v 7.000000 7.000000 -7.000000 
v 0.000000 7.000000 2.000000 
v -5.000000 5.000000 2.000000 
v 0.000000 0.000000 4.000000 
v -5.000000 5.000000 2.000000 
v -7.000000 0.000000 1.000000 
v 0.000000 0.000000 4.000000 
v -7.000000 0.000000 1.000000 
v -5.000000 -4.000000 1.000000 
v 0.000000 0.000000 4.000000 
v -5.000000 -4.000000 1.000000 
v 0.000000 -6.000000 0.000000 
v 0.000000 0.000000 4.000000 
v 0.000000 -6.000000 0.000000 
v 5.000000 -4.000000 1.000000 
v 0.000000 0.000000 4.000000 
v 5.000000 -4.000000 1.000000 
v 7.000000 0.000000 1.000000 
v 0.000000 0.000000 4.000000 
v 7.000000 0.000000 1.000000 
v 5.000000 5.000000 2.000000 
v 0.000000 0.000000 4.000000 
v 5.000000 5.000000 2.000000 
v 0.000000 7.000000 2.000000 
v 0.000000 0.000000 4.000000 
vn -0.528320 0.472412 -0.705078 
vn -0.053223 0.770752 -0.634766 
vn 0.000000 -0.007812 -0.999756 
vn -0.686279 -0.140137 -0.713379 
vn -0.528320 0.472412 -0.705078 
vn 0.000000 -0.007812 -0.999756 
vn -0.493164 -0.620117 -0.609619 
vn -0.686279 -0.140137 -0.713379 
vn 0.000000 -0.007812 -0.999756 
vn 0.085693 -0.800537 -0.592773 
vn -0.493164 -0.620117 -0.609619 
vn 0.000000 -0.007812 -0.999756 
vn 0.551270 -0.514160 -0.656738 
vn 0.085693 -0.800537 -0.592773 
vn 0.000000 -0.007812 -0.999756 
vn 0.693359 0.049072 -0.718750 
vn 0.551270 -0.514160 -0.656738 
vn 0.000000 -0.007812 -0.999756 
vn 0.414551 0.606201 -0.678467 
vn 0.693359 0.049072 -0.718750 
vn 0.000000 -0.007812 -0.999756 
vn -0.053223 0.770752 -0.634766 
vn 0.414551 0.606201 -0.678467 
vn 0.000000 -0.007812 -0.999756 
vn -0.661621 0.749268 0.022461 
vn -0.016113 0.999512 0.017578 
vn -0.053223 0.770752 -0.634766 
vn -0.528320 0.472412 -0.705078 
vn -0.661621 0.749268 0.022461 
vn -0.053223 0.770752 -0.634766 
vn -0.990723 -0.106445 -0.082275 
vn -0.661621 0.749268 0.022461 
vn -0.528320 0.472412 -0.705078 
vn -0.686279 -0.140137 -0.713379 
vn -0.990723 -0.106445 -0.082275 
vn -0.528320 0.472412 -0.705078 
vn -0.631836 -0.765137 -0.121338 
vn -0.990723 -0.106445 -0.082275 
vn -0.686279 -0.140137 -0.713379 
vn -0.493164 -0.620117 -0.609619 
vn -0.631836 -0.765137 -0.121338 
vn -0.686279 -0.140137 -0.713379 
vn -0.008789 -0.997803 -0.061768 
vn -0.631836 -0.765137 -0.121338 
vn -0.493164 -0.620117 -0.609619 
vn 0.085693 -0.800537 -0.592773 
vn -0.008789 -0.997803 -0.061768 
vn -0.493164 -0.620117 -0.609619 
vn 0.643555 -0.764404 -0.031982 
vn -0.008789 -0.997803 -0.061768 
vn 0.085693 -0.800537 -0.592773 
vn 0.551270 -0.514160 -0.656738 
vn 0.643555 -0.764404 -0.031982 
vn 0.085693 -0.800537 -0.592773 
vn 0.995117 -0.086182 -0.046631 
vn 0.643555 -0.764404 -0.031982 
vn 0.551270 -0.514160 -0.656738 
vn 0.693359 0.049072 -0.718750 
vn 0.995117 -0.086182 -0.046631 
vn 0.551270 -0.514160 -0.656738 
vn 0.678711 0.734131 -0.012939 
vn 0.995117 -0.086182 -0.046631 
vn 0.693359 0.049072 -0.718750 
vn 0.414551 0.606201 -0.678467 
vn 0.678711 0.734131 -0.012939 
vn 0.693359 0.049072 -0.718750 
vn -0.016113 0.999512 0.017578 
vn 0.678711 0.734131 -0.012939 
vn 0.414551 0.606201 -0.678467 
vn -0.053223 0.770752 -0.634766 
vn -0.016113 0.999512 0.017578 
vn 0.414551 0.606201 -0.678467 
vn -0.413086 0.554199 0.722412 
vn 0.056641 0.700195 0.711426 
vn -0.016113 0.999512 0.017578 
vn -0.661621 0.749268 0.022461 
vn -0.413086 0.554199 0.722412 
vn -0.016113 0.999512 0.017578 
vn -0.687744 0.041992 0.724609 
vn -0.413086 0.554199 0.722412 
vn -0.661621 0.749268 0.022461 
vn -0.990723 -0.106445 -0.082275 
vn -0.687744 0.041992 0.724609 
vn -0.661621 0.749268 0.022461 
vn -0.547852 -0.564941 0.616699 
vn -0.687744 0.041992 0.724609 
vn -0.990723 -0.106445 -0.082275 
vn -0.631836 -0.765137 -0.121338 
vn -0.547852 -0.564941 0.616699 
vn -0.990723 -0.106445 -0.082275 
vn -0.091553 -0.831787 0.547119 
vn -0.547852 -0.564941 0.616699 
vn -0.631836 -0.765137 -0.121338 
vn -0.008789 -0.997803 -0.061768 
vn -0.091553 -0.831787 0.547119 
vn -0.631836 -0.765137 -0.121338 
vn 0.471191 -0.666016 0.578125 
vn -0.091553 -0.831787 0.547119 
vn -0.008789 -0.997803 -0.061768 
vn 0.643555 -0.764404 -0.031982 
vn 0.471191 -0.666016 0.578125 
vn -0.008789 -0.997803 -0.061768 
vn 0.695068 -0.166504 0.699219 
vn 0.471191 -0.666016 0.578125 
vn 0.643555 -0.764404 -0.031982 
vn 0.995117 -0.086182 -0.046631 
vn 0.695068 -0.166504 0.699219 
vn 0.643555 -0.764404 -0.031982 
vn 0.536865 0.420898 0.730957 
vn 0.695068 -0.166504 0.699219 
vn 0.995117 -0.086182 -0.046631 
vn 0.678711 0.734131 -0.012939 
vn 0.536865 0.420898 0.730957 
vn 0.995117 -0.086182 -0.046631 
vn 0.056641 0.700195 0.711426 
vn 0.536865 0.420898 0.730957 
vn 0.678711 0.734131 -0.012939 
vn -0.016113 0.999512 0.017578 
vn 0.056641 0.700195 0.711426 
vn 0.678711 0.734131 -0.012939 
vn 0.056641 0.700195 0.711426 
vn -0.413086 0.554199 0.722412 
vn 0.000000 -0.037842 0.999268 
vn -0.413086 0.554199 0.722412 
vn -0.687744 0.041992 0.724609 
vn 0.000000 -0.037842 0.999268 
vn -0.687744 0.041992 0.724609 
vn -0.547852 -0.564941 0.616699 
vn 0.000000 -0.037842 0.999268 
vn -0.547852 -0.564941 0.616699 
vn -0.091553 -0.831787 0.547119 
vn 0.000000 -0.037842 0.999268 
vn -0.091553 -0.831787 0.547119 
vn 0.471191 -0.666016 0.578125 
vn 0.000000 -0.037842 0.999268 
vn 0.471191 -0.666016 0.578125 
vn 0.695068 -0.166504 0.699219 
vn 0.000000 -0.037842 0.999268 
vn 0.695068 -0.166504 0.699219 
vn 0.536865 0.420898 0.730957 
vn 0.000000 -0.037842 0.999268 
vn 0.536865 0.420898 0.730957 
vn 0.056641 0.700195 0.711426 
vn 0.000000 -0.037842 0.999268 
vt 0.881890 0.834646 
vt 1.000000 0.842520 
vt 0.905512 0.984252 
vt 0.771654 0.866142 
vt 0.881890 0.834646 
vt 0.905512 0.984252 
vt 0.732283 0.866142 
vt 0.795276 0.881890 
vt 0.842520 1.000000 
vt 0.692913 0.866142 
vt 0.732283 0.866142 
vt 0.842520 1.000000 
vt 0.732283 0.866142 
vt 0.692913 0.866142 
vt 0.842520 1.000000 
vt 0.795276 0.881890 
vt 0.732283 0.866142 
vt 0.842520 1.000000 
vt 0.881890 0.834646 
vt 0.771654 0.866142 
vt 0.905512 0.984252 
vt 1.000000 0.842520 
vt 0.881890 0.834646 
vt 0.905512 0.984252 
vt 0.881890 0.645669 
vt 1.000000 0.645669 
vt 1.000000 0.842520 
vt 0.881890 0.834646 
vt 0.881890 0.645669 
vt 1.000000 0.842520 
vt 0.732283 0.692913 
vt 0.881890 0.645669 
vt 0.881890 0.834646 
vt 0.771654 0.866142 
vt 0.732283 0.692913 
vt 0.881890 0.834646 
vt 0.724409 0.629921 
vt 0.795276 0.629921 
vt 0.795276 0.881890 
vt 0.732283 0.866142 
vt 0.724409 0.629921 
vt 0.795276 0.881890 
vt 0.669291 0.629921 
vt 0.724409 0.629921 
vt 0.732283 0.866142 
vt 0.692913 0.866142 
vt 0.669291 0.629921 
vt 0.732283 0.866142 
vt 0.724409 0.629921 
vt 0.669291 0.629921 
vt 0.692913 0.866142 
vt 0.732283 0.866142 
vt 0.724409 0.629921 
vt 0.692913 0.866142 
vt 0.795276 0.629921 
vt 0.724409 0.629921 
vt 0.732283 0.866142 
vt 0.795276 0.881890 
vt 0.795276 0.629921 
vt 0.732283 0.866142 
vt 0.881890 0.645669 
vt 0.732283 0.692913 
vt 0.771654 0.866142 
vt 0.881890 0.834646 
vt 0.881890 0.645669 
vt 0.771654 0.866142 
vt 1.000000 0.645669 
vt 0.881890 0.645669 
vt 0.881890 0.834646 
vt 1.000000 0.842520 
vt 1.000000 0.645669 
vt 0.881890 0.834646 
vt 0.897638 0.464567 
vt 1.000000 0.480315 
vt 1.000000 0.645669 
vt 0.881890 0.645669 
vt 0.897638 0.464567 
vt 1.000000 0.645669 
vt 0.740157 0.488189 
vt 0.897638 0.464567 
vt 0.881890 0.645669 
vt 0.732283 0.692913 
vt 0.740157 0.488189 
vt 0.881890 0.645669 
vt 0.724409 0.385827 
vt 0.795276 0.385827 
vt 0.795276 0.629921 
vt 0.724409 0.629921 
vt 0.724409 0.385827 
vt 0.795276 0.629921 
vt 0.692913 0.385827 
vt 0.724409 0.385827 
vt 0.724409 0.629921 
vt 0.669291 0.629921 
vt 0.692913 0.385827 
vt 0.724409 0.629921 
vt 0.724409 0.385827 
vt 0.692913 0.385827 
vt 0.669291 0.629921 
vt 0.724409 0.629921 
vt 0.724409 0.385827 
vt 0.669291 0.629921 
vt 0.795276 0.385827 
vt 0.724409 0.385827 
vt 0.724409 0.629921 
vt 0.795276 0.629921 
vt 0.795276 0.385827 
vt 0.724409 0.629921 
vt 0.897638 0.464567 
vt 0.740157 0.488189 
vt 0.732283 0.692913 
vt 0.881890 0.645669 
vt 0.897638 0.464567 
vt 0.732283 0.692913 
vt 1.000000 0.480315 
vt 0.897638 0.464567 
vt 0.881890 0.645669 
vt 1.000000 0.645669 
vt 1.000000 0.480315 
vt 0.881890 0.645669 
vt 0.921260 0.401575 
vt 0.881890 0.401575 
vt 0.795276 0.314961 
vt 0.881890 0.401575 
vt 0.795276 0.385827 
vt 0.795276 0.314961 
vt 0.795276 0.385827 
vt 0.724409 0.385827 
vt 0.795276 0.314961 
vt 0.724409 0.385827 
vt 0.692913 0.385827 
vt 0.795276 0.314961 
vt 0.692913 0.385827 
vt 0.724409 0.385827 
vt 0.795276 0.314961 
vt 0.724409 0.385827 
vt 0.795276 0.385827 
vt 0.795276 0.314961 
vt 0.795276 0.385827 
vt 0.881890 0.401575 
vt 0.795276 0.314961 
vt 0.881890 0.401575 
vt 0.921260 0.401575 
vt 0.795276 0.314961 
f 1/1/1 2/2/2 3/3/3
f 4/4/4 5/5/5 6/6/6
f 7/7/7 8/8/8 9/9/9
f 10/10/10 11/11/11 12/12/12
f 13/13/13 14/14/14 15/15/15
f 16/16/16 17/17/17 18/18/18
f 19/19/19 20/20/20 21/21/21
f 22/22/22 23/23/23 24/24/24
f 25/25/25 26/26/26 27/27/27
f 28/28/28 29/29/29 30/30/30
f 31/31/31 32/32/32 33/33/33
f 34/34/34 35/35/35 36/36/36
f 37/37/37 38/38/38 39/39/39
f 40/40/40 41/41/41 42/42/42
f 43/43/43 44/44/44 45/45/45
f 46/46/46 47/47/47 48/48/48
f 49/49/49 50/50/50 51/51/51
f 52/52/52 53/53/53 54/54/54
f 55/55/55 56/56/56 57/57/57
f 58/58/58 59/59/59 60/60/60
f 61/61/61 62/62/62 63/63/63
f 64/64/64 65/65/65 66/66/66
f 67/67/67 68/68/68 69/69/69
f 70/70/70 71/71/71 72/72/72
f 73/73/73 74/74/74 75/75/75
f 76/76/76 77/77/77 78/78/78
f 79/79/79 80/80/80 81/81/81
f 82/82/82 83/83/83 84/84/84
f 85/85/85 86/86/86 87/87/87
f 88/88/88 89/89/89 90/90/90
f 91/91/91 92/92/92 93/93/93
f 94/94/94 95/95/95 96/96/96
f 97/97/97 98/98/98 99/99/99
f 100/100/100 101/101/101 102/102/102
f 103/103/103 104/104/104 105/105/105
f 106/106/106 107/107/107 108/108/108
f 109/109/109 110/110/110 111/111/111
f 112/112/112 113/113/113 114/114/114
f 115/115/115 116/116/116 117/117/117
f 118/118/118 119/119/119 120/120/120
f 121/121/121 122/122/122 123/123/123
f 124/124/124 125/125/125 126/126/126
f 127/127/127 128/128/128 129/129/129
f 130/130/130 131/131/131 132/132/132
f 133/133/133 134/134/134 135/135/135
f 136/136/136 137/137/137 138/138/138
f 139/139/139 140/140/140 141/141/141
f 142/142/142 143/143/143 144/144/144
