v -32.000000 3.000000 -17.000000 
v -39.000000 3.000000 -2.000000 
v 0.000000 2.000000 11.000000 
v -16.000000 4.000000 -29.000000 
v -32.000000 3.000000 -17.000000 
v 0.000000 2.000000 11.000000 
v 0.000000 4.000000 -32.000000 
v -16.000000 4.000000 -29.000000 
v 0.000000 2.000000 11.000000 
v 16.000000 4.000000 -29.000000 
v 0.000000 4.000000 -32.000000 
v 0.000000 2.000000 11.000000 
v 31.000000 3.000000 -17.000000 
v 16.000000 4.000000 -29.000000 
v 0.000000 2.000000 11.000000 
v 39.000000 3.000000 -2.000000 
v 31.000000 3.000000 -17.000000 
v 0.000000 2.000000 11.000000 
v -34.000000 -5.000000 -1.000000 
v -35.000000 -5.000000 11.000000 
v -41.000000 2.000000 13.000000 
v -39.000000 3.000000 -2.000000 
v -32.000000 3.000000 -17.000000 
v -28.000000 -5.000000 -16.000000 
v -16.000000 -5.000000 -24.000000 
v -28.000000 -5.000000 -16.000000 
v -32.000000 3.000000 -17.000000 
v -32.000000 3.000000 -17.000000 
v -16.000000 4.000000 -29.000000 
v -16.000000 -5.000000 -24.000000 
v 0.000000 -5.000000 -29.000000 
v -16.000000 -5.000000 -24.000000 
v -16.000000 4.000000 -29.000000 
v -16.000000 4.000000 -29.000000 
v 0.000000 4.000000 -32.000000 
v 0.000000 -5.000000 -29.000000 
v 16.000000 4.000000 -29.000000 
v 0.000000 -5.000000 -29.000000 
v 0.000000 4.000000 -32.000000 
v 0.000000 -5.000000 -29.000000 
v 16.000000 4.000000 -29.000000 
v 16.000000 -5.000000 -24.000000 
v 31.000000 3.000000 -17.000000 
v 16.000000 -5.000000 -24.000000 
v 16.000000 4.000000 -29.000000 
v 16.000000 -5.000000 -24.000000 
v 31.000000 3.000000 -17.000000 
v 28.000000 -5.000000 -16.000000 
v 39.000000 3.000000 -2.000000 
v 28.000000 -5.000000 -16.000000 
v 31.000000 3.000000 -17.000000 
v 28.000000 -5.000000 -16.000000 
v 39.000000 3.000000 -2.000000 
v 34.000000 -5.000000 -1.000000 
v 41.000000 2.000000 13.000000 
v 20.000000 -5.000000 15.000000 
v 36.000000 -5.000000 11.000000 
v 0.000000 -12.000000 15.000000 
v -24.000000 -10.000000 13.000000 
v 0.000000 -15.000000 -2.000000 
v -24.000000 -10.000000 13.000000 
v -24.000000 -11.000000 -9.000000 
v 0.000000 -15.000000 -2.000000 
v -24.000000 -11.000000 -9.000000 
v -14.000000 -12.000000 -18.000000 
v 0.000000 -15.000000 -2.000000 
v -14.000000 -12.000000 -18.000000 
v 0.000000 -13.000000 -22.000000 
v 0.000000 -15.000000 -2.000000 
v 0.000000 -13.000000 -22.000000 
v 14.000000 -12.000000 -19.000000 
v 0.000000 -15.000000 -2.000000 
v 14.000000 -12.000000 -19.000000 
v 24.000000 -12.000000 -9.000000 
v 0.000000 -15.000000 -2.000000 
v 24.000000 -12.000000 -9.000000 
v 26.000000 -10.000000 13.000000 
v 0.000000 -15.000000 -2.000000 
v 26.000000 -10.000000 13.000000 
v 0.000000 -12.000000 15.000000 
v 0.000000 -15.000000 -2.000000 
v -24.000000 -11.000000 -9.000000 
v -24.000000 -10.000000 13.000000 
v -35.000000 -5.000000 11.000000 
v -34.000000 -5.000000 -1.000000 
v -28.000000 -5.000000 -16.000000 
v -24.000000 -11.000000 -9.000000 
v -16.000000 -5.000000 -24.000000 
v -24.000000 -11.000000 -9.000000 
v -28.000000 -5.000000 -16.000000 
v -24.000000 -11.000000 -9.000000 
v -16.000000 -5.000000 -24.000000 
v -14.000000 -12.000000 -18.000000 
v 0.000000 -5.000000 -29.000000 
v -14.000000 -12.000000 -18.000000 
v -16.000000 -5.000000 -24.000000 
v -14.000000 -12.000000 -18.000000 
v 0.000000 -5.000000 -29.000000 
v 0.000000 -13.000000 -22.000000 
v 16.000000 -5.000000 -24.000000 
v 0.000000 -13.000000 -22.000000 
v 0.000000 -5.000000 -29.000000 
v 0.000000 -13.000000 -22.000000 
v 16.000000 -5.000000 -24.000000 
v 14.000000 -12.000000 -19.000000 
v 28.000000 -5.000000 -16.000000 
v 14.000000 -12.000000 -19.000000 
v 16.000000 -5.000000 -24.000000 
v 14.000000 -12.000000 -19.000000 
v 28.000000 -5.000000 -16.000000 
v 24.000000 -12.000000 -9.000000 
v 34.000000 -5.000000 -1.000000 
v 24.000000 -12.000000 -9.000000 
v 28.000000 -5.000000 -16.000000 
v 24.000000 -12.000000 -9.000000 
v 36.000000 -5.000000 11.000000 
v 26.000000 -10.000000 13.000000 
v 0.000000 -12.000000 15.000000 
v 36.000000 -5.000000 11.000000 
v 20.000000 -5.000000 15.000000 
v 26.000000 -10.000000 13.000000 
v 36.000000 -5.000000 11.000000 
v 0.000000 -12.000000 15.000000 
v 34.000000 -5.000000 -1.000000 
v 41.000000 2.000000 13.000000 
v 36.000000 -5.000000 11.000000 
v 36.000000 -5.000000 11.000000 
v 24.000000 -12.000000 -9.000000 
v 34.000000 -5.000000 -1.000000 
v 41.000000 2.000000 13.000000 
v 34.000000 -5.000000 -1.000000 
v 39.000000 3.000000 -2.000000 
v 41.000000 2.000000 13.000000 
v 39.000000 3.000000 -2.000000 
v 0.000000 2.000000 11.000000 
v -34.000000 -5.000000 -1.000000 
v -39.000000 3.000000 -2.000000 
v -28.000000 -5.000000 -16.000000 
v -39.000000 3.000000 -2.000000 
v -41.000000 2.000000 13.000000 
v 0.000000 2.000000 11.000000 
v -41.000000 2.000000 13.000000 
v -39.000000 3.000000 -2.000000 
v -34.000000 -5.000000 -1.000000 
v -35.000000 -5.000000 11.000000 
v -34.000000 -5.000000 -1.000000 
v -24.000000 -11.000000 -9.000000 
v -24.000000 2.000000 7.000000 
v -24.000000 2.000000 11.000000 
v -30.000000 4.000000 13.000000 
v -24.000000 14.000000 10.000000 
v -24.000000 2.000000 7.000000 
v -30.000000 4.000000 13.000000 
v -24.000000 23.000000 17.000000 
v -24.000000 14.000000 10.000000 
v -30.000000 4.000000 13.000000 
v 25.000000 1.000000 7.000000 
v 25.000000 0.000000 11.000000 
v -24.000000 2.000000 11.000000 
v -24.000000 2.000000 7.000000 
v 25.000000 1.000000 7.000000 
v -24.000000 2.000000 11.000000 
v 25.000000 14.000000 10.000000 
v 25.000000 1.000000 7.000000 
v -24.000000 2.000000 7.000000 
v -24.000000 14.000000 10.000000 
v 25.000000 14.000000 10.000000 
v -24.000000 2.000000 7.000000 
v 25.000000 23.000000 17.000000 
v 25.000000 14.000000 10.000000 
v -24.000000 14.000000 10.000000 
v -24.000000 23.000000 17.000000 
v 25.000000 23.000000 17.000000 
v -24.000000 14.000000 10.000000 
v 25.000000 0.000000 11.000000 
v 25.000000 1.000000 7.000000 
v 32.000000 4.000000 13.000000 
v 25.000000 1.000000 7.000000 
v 25.000000 14.000000 10.000000 
v 32.000000 4.000000 13.000000 
v 25.000000 14.000000 10.000000 
v 25.000000 23.000000 17.000000 
v 32.000000 4.000000 13.000000 
vn 0.006836 0.998535 0.051025 
vn 0.002441 0.998291 0.055420 
vn 0.000000 0.998535 0.050293 
vn 0.013672 0.998779 0.045410 
vn 0.006836 0.998535 0.051025 
vn 0.000000 0.998535 0.050293 
vn 0.000000 0.998779 0.044434 
vn 0.013672 0.998779 0.045410 
vn 0.000000 0.998535 0.050293 
vn -0.013916 0.998779 0.045166 
vn 0.000000 0.998779 0.044434 
vn 0.000000 0.998535 0.050293 
vn -0.007080 0.998535 0.050781 
vn -0.013916 0.998779 0.045166 
vn 0.000000 0.998535 0.050293 
vn -0.002441 0.998291 0.055420 
vn -0.007080 0.998535 0.050781 
vn 0.000000 0.998535 0.050293 
vn -0.763428 -0.626221 -0.156738 
vn -0.634033 -0.772705 -0.020020 
vn -0.834229 -0.544434 -0.084229 
vn -0.834229 -0.483643 -0.264160 
vn -0.673096 -0.365479 -0.642578 
vn -0.682861 -0.561279 -0.467041 
vn -0.439209 -0.549805 -0.710205 
vn -0.682861 -0.561279 -0.467041 
vn -0.673096 -0.365479 -0.642578 
vn -0.673096 -0.365479 -0.642578 
vn -0.340576 -0.411865 -0.844971 
vn -0.439209 -0.549805 -0.710205 
vn -0.038330 -0.517578 -0.854492 
vn -0.439209 -0.549805 -0.710205 
vn -0.340576 -0.411865 -0.844971 
vn -0.340576 -0.411865 -0.844971 
vn 0.000000 -0.368652 -0.929443 
vn -0.038330 -0.517578 -0.854492 
vn 0.350830 -0.395264 -0.848877 
vn -0.038330 -0.517578 -0.854492 
vn 0.000000 -0.368652 -0.929443 
vn -0.038330 -0.517578 -0.854492 
vn 0.350830 -0.395264 -0.848877 
vn 0.397949 -0.496582 -0.771240 
vn 0.699463 -0.301514 -0.647705 
vn 0.397949 -0.496582 -0.771240 
vn 0.350830 -0.395264 -0.848877 
vn 0.397949 -0.496582 -0.771240 
vn 0.699463 -0.301514 -0.647705 
vn 0.690430 -0.516846 -0.505615 
vn 0.865234 -0.400635 -0.301025 
vn 0.690430 -0.516846 -0.505615 
vn 0.699463 -0.301514 -0.647705 
vn 0.690430 -0.516846 -0.505615 
vn 0.865234 -0.400635 -0.301025 
vn 0.800537 -0.566406 -0.195068 
vn 0.821777 -0.496582 0.278809 
vn 0.219482 -0.476807 0.850830 
vn 0.539062 -0.637451 0.550049 
vn 0.076416 -0.744141 0.663330 
vn -0.243652 -0.962891 0.114746 
vn -0.011230 -0.999512 0.026367 
vn -0.243652 -0.962891 0.114746 
vn -0.458252 -0.866699 -0.196289 
vn -0.011230 -0.999512 0.026367 
vn -0.458252 -0.866699 -0.196289 
vn -0.284912 -0.830566 -0.478271 
vn -0.011230 -0.999512 0.026367 
vn -0.284912 -0.830566 -0.478271 
vn 0.024658 -0.840332 -0.541260 
vn -0.011230 -0.999512 0.026367 
vn 0.024658 -0.840332 -0.541260 
vn 0.304688 -0.851562 -0.426025 
vn -0.011230 -0.999512 0.026367 
vn 0.304688 -0.851562 -0.426025 
vn 0.458008 -0.879150 -0.130859 
vn -0.011230 -0.999512 0.026367 
vn 0.458008 -0.879150 -0.130859 
vn 0.252930 -0.867920 0.427002 
vn -0.011230 -0.999512 0.026367 
vn 0.252930 -0.867920 0.427002 
vn 0.076416 -0.744141 0.663330 
vn -0.011230 -0.999512 0.026367 
vn -0.458252 -0.866699 -0.196289 
vn -0.243652 -0.962891 0.114746 
vn -0.634033 -0.772705 -0.020020 
vn -0.763428 -0.626221 -0.156738 
vn -0.682861 -0.561279 -0.467041 
vn -0.458252 -0.866699 -0.196289 
vn -0.439209 -0.549805 -0.710205 
vn -0.458252 -0.866699 -0.196289 
vn -0.682861 -0.561279 -0.467041 
vn -0.458252 -0.866699 -0.196289 
vn -0.439209 -0.549805 -0.710205 
vn -0.284912 -0.830566 -0.478271 
vn -0.038330 -0.517578 -0.854492 
vn -0.284912 -0.830566 -0.478271 
vn -0.439209 -0.549805 -0.710205 
vn -0.284912 -0.830566 -0.478271 
vn -0.038330 -0.517578 -0.854492 
vn 0.024658 -0.840332 -0.541260 
vn 0.397949 -0.496582 -0.771240 
vn 0.024658 -0.840332 -0.541260 
vn -0.038330 -0.517578 -0.854492 
vn 0.024658 -0.840332 -0.541260 
vn 0.397949 -0.496582 -0.771240 
vn 0.304688 -0.851562 -0.426025 
vn 0.690430 -0.516846 -0.505615 
vn 0.304688 -0.851562 -0.426025 
vn 0.397949 -0.496582 -0.771240 
vn 0.304688 -0.851562 -0.426025 
vn 0.690430 -0.516846 -0.505615 
vn 0.458008 -0.879150 -0.130859 
vn 0.800537 -0.566406 -0.195068 
vn 0.458008 -0.879150 -0.130859 
vn 0.690430 -0.516846 -0.505615 
vn 0.458008 -0.879150 -0.130859 
vn 0.539062 -0.637451 0.550049 
vn 0.252930 -0.867920 0.427002 
vn 0.076416 -0.744141 0.663330 
vn 0.539062 -0.637451 0.550049 
vn 0.219482 -0.476807 0.850830 
vn 0.252930 -0.867920 0.427002 
vn 0.539062 -0.637451 0.550049 
vn 0.076416 -0.744141 0.663330 
vn 0.800537 -0.566406 -0.195068 
vn 0.821777 -0.496582 0.278809 
vn 0.539062 -0.637451 0.550049 
vn 0.539062 -0.637451 0.550049 
vn 0.458008 -0.879150 -0.130859 
vn 0.800537 -0.566406 -0.195068 
vn 0.821777 -0.496582 0.278809 
vn 0.800537 -0.566406 -0.195068 
vn 0.865234 -0.400635 -0.301025 
vn -0.002686 0.998291 0.054932 
vn -0.002441 0.998291 0.055420 
vn 0.000000 0.998535 0.050293 
vn -0.763428 -0.626221 -0.156738 
vn -0.834229 -0.483643 -0.264160 
vn -0.682861 -0.561279 -0.467041 
vn 0.002441 0.998291 0.055420 
vn 0.002686 0.998291 0.054932 
vn 0.000000 0.998535 0.050293 
vn -0.834229 -0.544434 -0.084229 
vn -0.834229 -0.483643 -0.264160 
vn -0.763428 -0.626221 -0.156738 
vn -0.634033 -0.772705 -0.020020 
vn -0.763428 -0.626221 -0.156738 
vn -0.458252 -0.866699 -0.196289 
vn -0.372314 -0.426514 -0.823975 
vn -0.144531 -0.988037 -0.049072 
vn -0.880859 -0.204834 -0.426514 
vn -0.377930 0.455078 -0.805908 
vn -0.372314 -0.426514 -0.823975 
vn -0.880859 -0.204834 -0.426514 
vn -0.513428 0.552734 -0.656250 
vn -0.377930 0.455078 -0.805908 
vn -0.880859 -0.204834 -0.426514 
vn 0.334473 -0.724365 -0.602539 
vn 0.250488 -0.952393 -0.173340 
vn -0.144531 -0.988037 -0.049072 
vn -0.372314 -0.426514 -0.823975 
vn 0.334473 -0.724365 -0.602539 
vn -0.144531 -0.988037 -0.049072 
vn 0.329102 0.366943 -0.869873 
vn 0.334473 -0.724365 -0.602539 
vn -0.372314 -0.426514 -0.823975 
vn -0.377930 0.455078 -0.805908 
vn 0.329102 0.366943 -0.869873 
vn -0.372314 -0.426514 -0.823975 
vn 0.301025 0.614258 -0.729248 
vn 0.329102 0.366943 -0.869873 
vn -0.377930 0.455078 -0.805908 
vn -0.513428 0.552734 -0.656250 
vn 0.301025 0.614258 -0.729248 
vn -0.377930 0.455078 -0.805908 
vn 0.250488 -0.952393 -0.173340 
vn 0.334473 -0.724365 -0.602539 
vn 0.823242 -0.125244 -0.553467 
vn 0.334473 -0.724365 -0.602539 
vn 0.329102 0.366943 -0.869873 
vn 0.823242 -0.125244 -0.553467 
vn 0.329102 0.366943 -0.869873 
vn 0.301025 0.614258 -0.729248 
vn 0.823242 -0.125244 -0.553467 
vt 0.000000 0.600000 
vt 0.000000 0.800000 
vt 0.466667 0.866667 
vt 0.200000 0.533333 
vt 0.000000 0.600000 
vt 0.466667 0.866667 
vt 0.466667 0.533333 
vt 0.200000 0.533333 
vt 0.466667 0.866667 
vt 0.800000 0.533333 
vt 0.466667 0.533333 
vt 0.466667 0.866667 
vt 0.933333 0.666667 
vt 0.800000 0.533333 
vt 0.466667 0.866667 
vt 1.000000 0.800000 
vt 0.933333 0.666667 
vt 0.466667 0.866667 
vt 0.133333 0.400000 
vt 0.066667 0.466667 
vt 0.000000 0.733333 
vt 0.000000 0.666667 
vt 0.066667 0.600000 
vt 0.133333 0.400000 
vt 0.266667 0.333333 
vt 0.133333 0.400000 
vt 0.066667 0.600000 
vt 0.066667 0.600000 
vt 0.266667 0.466667 
vt 0.266667 0.333333 
vt 0.466667 0.333333 
vt 0.266667 0.333333 
vt 0.266667 0.466667 
vt 0.266667 0.466667 
vt 0.466667 0.400000 
vt 0.466667 0.333333 
vt 0.800000 0.466667 
vt 0.466667 0.333333 
vt 0.466667 0.400000 
vt 0.466667 0.333333 
vt 0.800000 0.466667 
vt 0.666667 0.333333 
vt 1.000000 0.733333 
vt 0.666667 0.333333 
vt 0.800000 0.466667 
vt 0.666667 0.333333 
vt 1.000000 0.733333 
vt 0.866667 0.466667 
vt 1.000000 0.533333 
vt 0.866667 0.466667 
vt 1.000000 0.733333 
vt 0.866667 0.466667 
vt 1.000000 0.533333 
vt 0.866667 0.400000 
vt 1.000000 0.400000 
vt 0.733333 0.200000 
vt 0.866667 0.333333 
vt 0.466667 -0.066667 
vt 0.133333 0.266667 
vt 0.466667 0.066667 
vt 0.133333 0.266667 
vt 0.200000 0.266667 
vt 0.466667 0.066667 
vt 0.200000 0.266667 
vt 0.333333 0.266667 
vt 0.466667 0.066667 
vt 0.333333 0.266667 
vt 0.466667 0.266667 
vt 0.466667 0.066667 
vt 0.466667 0.266667 
vt 0.600000 0.266667 
vt 0.466667 0.066667 
vt 0.600000 0.266667 
vt 0.733333 0.266667 
vt 0.466667 0.066667 
vt 0.733333 0.266667 
vt 0.800000 0.266667 
vt 0.466667 0.066667 
vt 0.800000 0.266667 
vt 0.466667 -0.066667 
vt 0.466667 0.066667 
vt 0.200000 0.266667 
vt 0.133333 0.266667 
vt 0.066667 0.466667 
vt 0.133333 0.400000 
vt 0.133333 0.400000 
vt 0.200000 0.266667 
vt 0.266667 0.333333 
vt 0.200000 0.266667 
vt 0.133333 0.400000 
vt 0.200000 0.266667 
vt 0.266667 0.333333 
vt 0.333333 0.266667 
vt 0.466667 0.333333 
vt 0.333333 0.266667 
vt 0.266667 0.333333 
vt 0.333333 0.266667 
vt 0.466667 0.333333 
vt 0.466667 0.266667 
vt 0.666667 0.333333 
vt 0.466667 0.266667 
vt 0.466667 0.333333 
vt 0.466667 0.266667 
vt 0.666667 0.333333 
vt 0.600000 0.266667 
vt 0.866667 0.466667 
vt 0.600000 0.266667 
vt 0.666667 0.333333 
vt 0.600000 0.266667 
vt 0.866667 0.466667 
vt 0.733333 0.266667 
vt 0.866667 0.400000 
vt 0.733333 0.266667 
vt 0.866667 0.466667 
vt 0.733333 0.266667 
vt 0.866667 0.333333 
vt 0.800000 0.266667 
vt 0.466667 -0.066667 
vt 0.866667 0.333333 
vt 0.733333 0.200000 
vt 0.800000 0.266667 
vt 0.866667 0.333333 
vt 0.466667 -0.066667 
vt 0.866667 0.400000 
vt 1.000000 0.400000 
vt 0.866667 0.333333 
vt 0.866667 0.333333 
vt 0.733333 0.266667 
vt 0.866667 0.400000 
vt 1.000000 0.400000 
vt 0.866667 0.400000 
vt 1.000000 0.533333 
vt 1.000000 0.933333 
vt 1.000000 0.800000 
vt 0.466667 0.866667 
vt 0.133333 0.400000 
vt 0.000000 0.666667 
vt 0.133333 0.400000 
vt 0.000000 0.800000 
vt 0.000000 0.866667 
vt 0.466667 0.866667 
vt 0.000000 0.733333 
vt 0.000000 0.666667 
vt 0.133333 0.400000 
vt 0.066667 0.466667 
vt 0.133333 0.400000 
vt 0.200000 0.266667 
vt 0.000000 0.733333 
vt 0.000000 0.666667 
vt 0.000000 0.733333 
vt 0.000000 0.800000 
vt 0.000000 0.733333 
vt 0.000000 0.733333 
vt 0.000000 0.800000 
vt 0.000000 0.800000 
vt 0.000000 0.733333 
vt 0.933333 0.666667 
vt 0.933333 0.666667 
vt 0.000000 0.666667 
vt 0.000000 0.733333 
vt 0.933333 0.666667 
vt 0.000000 0.666667 
vt 0.933333 0.733333 
vt 0.933333 0.666667 
vt 0.000000 0.733333 
vt 0.000000 0.800000 
vt 0.933333 0.733333 
vt 0.000000 0.733333 
vt 0.933333 0.800000 
vt 0.933333 0.733333 
vt 0.000000 0.800000 
vt 0.000000 0.800000 
vt 0.933333 0.800000 
vt 0.000000 0.800000 
vt 0.933333 0.666667 
vt 0.933333 0.666667 
vt 1.000000 0.733333 
vt 0.933333 0.666667 
vt 0.933333 0.733333 
vt 1.000000 0.733333 
vt 0.933333 0.733333 
vt 0.933333 0.800000 
vt 1.000000 0.733333 
f 1/1/1 2/2/2 3/3/3
f 4/4/4 5/5/5 6/6/6
f 7/7/7 8/8/8 9/9/9
f 10/10/10 11/11/11 12/12/12
f 13/13/13 14/14/14 15/15/15
f 16/16/16 17/17/17 18/18/18
f 19/19/19 20/20/20 21/21/21
f 22/22/22 23/23/23 24/24/24
f 25/25/25 26/26/26 27/27/27
f 28/28/28 29/29/29 30/30/30
f 31/31/31 32/32/32 33/33/33
f 34/34/34 35/35/35 36/36/36
f 37/37/37 38/38/38 39/39/39
f 40/40/40 41/41/41 42/42/42
f 43/43/43 44/44/44 45/45/45
f 46/46/46 47/47/47 48/48/48
f 49/49/49 50/50/50 51/51/51
f 52/52/52 53/53/53 54/54/54
f 55/55/55 56/56/56 57/57/57
f 58/58/58 59/59/59 60/60/60
f 61/61/61 62/62/62 63/63/63
f 64/64/64 65/65/65 66/66/66
f 67/67/67 68/68/68 69/69/69
f 70/70/70 71/71/71 72/72/72
f 73/73/73 74/74/74 75/75/75
f 76/76/76 77/77/77 78/78/78
f 79/79/79 80/80/80 81/81/81
f 82/82/82 83/83/83 84/84/84
f 85/85/85 86/86/86 87/87/87
f 88/88/88 89/89/89 90/90/90
f 91/91/91 92/92/92 93/93/93
f 94/94/94 95/95/95 96/96/96
f 97/97/97 98/98/98 99/99/99
f 100/100/100 101/101/101 102/102/102
f 103/103/103 104/104/104 105/105/105
f 106/106/106 107/107/107 108/108/108
f 109/109/109 110/110/110 111/111/111
f 112/112/112 113/113/113 114/114/114
f 115/115/115 116/116/116 117/117/117
f 118/118/118 119/119/119 120/120/120
f 121/121/121 122/122/122 123/123/123
f 124/124/124 125/125/125 126/126/126
f 127/127/127 128/128/128 129/129/129
f 130/130/130 131/131/131 132/132/132
f 133/133/133 134/134/134 135/135/135
f 136/136/136 137/137/137 138/138/138
f 139/139/139 140/140/140 141/141/141
f 142/142/142 143/143/143 144/144/144
f 145/145/145 146/146/146 147/147/147
f 148/148/148 149/149/149 150/150/150
f 151/151/151 152/152/152 153/153/153
f 154/154/154 155/155/155 156/156/156
f 157/157/157 158/158/158 159/159/159
f 160/160/160 161/161/161 162/162/162
f 163/163/163 164/164/164 165/165/165
f 166/166/166 167/167/167 168/168/168
f 169/169/169 170/170/170 171/171/171
f 172/172/172 173/173/173 174/174/174
f 175/175/175 176/176/176 177/177/177
f 178/178/178 179/179/179 180/180/180
f 181/181/181 182/182/182 183/183/183
