v 110.000000 0.000000 181.000000 
v -110.000000 0.000000 -167.000000 
v -110.000000 0.000000 181.000000 
v -110.000000 0.000000 -167.000000 
v 110.000000 0.000000 181.000000 
v 110.000000 0.000000 -167.000000 
vn 0.000000 1.000000 0.000000 
vn 0.000000 1.000000 0.000000 
vn 0.000000 1.000000 0.000000 
vn 0.000000 1.000000 0.000000 
vn 0.000000 1.000000 0.000000 
vn 0.000000 1.000000 0.000000 
vt 0.451613 0.967742 
vt 0.032258 0.709677 
vt 0.032258 0.967742 
vt 0.032258 0.709677 
vt 0.451613 0.967742 
vt 0.451613 0.709677 
f 1/1/1 2/2/2 3/3/3
f 4/4/4 5/5/5 6/6/6
