v -3.000000 33.000000 -1.000000 
v -35.000000 33.000000 -2.000000 
v -50.000000 32.000000 79.000000 
v -50.000000 32.000000 79.000000 
v -5.000000 36.000000 77.000000 
v -3.000000 33.000000 -1.000000 
v -1.000000 36.000000 -80.000000 
v -45.000000 32.000000 -85.000000 
v -35.000000 33.000000 -2.000000 
v -35.000000 33.000000 -2.000000 
v -3.000000 33.000000 -1.000000 
v -1.000000 36.000000 -80.000000 
v 28.000000 33.000000 -1.000000 
v -3.000000 33.000000 -1.000000 
v -5.000000 36.000000 77.000000 
v -5.000000 36.000000 77.000000 
v 39.000000 32.000000 81.000000 
v 28.000000 33.000000 -1.000000 
v 43.000000 32.000000 -82.000000 
v -1.000000 36.000000 -80.000000 
v -3.000000 33.000000 -1.000000 
v -3.000000 33.000000 -1.000000 
v 28.000000 33.000000 -1.000000 
v 43.000000 32.000000 -82.000000 
v -35.000000 33.000000 -2.000000 
v -63.000000 0.000000 0.000000 
v -70.000000 0.000000 129.000000 
v -70.000000 0.000000 129.000000 
v -50.000000 32.000000 79.000000 
v -35.000000 33.000000 -2.000000 
v -45.000000 32.000000 -85.000000 
v -70.000000 0.000000 -129.000000 
v -63.000000 0.000000 0.000000 
v -63.000000 0.000000 0.000000 
v -35.000000 33.000000 -2.000000 
v -45.000000 32.000000 -85.000000 
v -1.000000 36.000000 -80.000000 
v 0.000000 0.000000 -124.000000 
v -70.000000 0.000000 -129.000000 
v -70.000000 0.000000 -129.000000 
v -45.000000 32.000000 -85.000000 
v -1.000000 36.000000 -80.000000 
v 43.000000 32.000000 -82.000000 
v 70.000000 0.000000 -129.000000 
v 0.000000 0.000000 -124.000000 
v 0.000000 0.000000 -124.000000 
v -1.000000 36.000000 -80.000000 
v 43.000000 32.000000 -82.000000 
v 28.000000 33.000000 -1.000000 
v 63.000000 0.000000 0.000000 
v 70.000000 0.000000 -129.000000 
v 70.000000 0.000000 -129.000000 
v 43.000000 32.000000 -82.000000 
v 28.000000 33.000000 -1.000000 
v 39.000000 32.000000 81.000000 
v 70.000000 0.000000 129.000000 
v 63.000000 0.000000 0.000000 
v 63.000000 0.000000 0.000000 
v 28.000000 33.000000 -1.000000 
v 39.000000 32.000000 81.000000 
v -5.000000 36.000000 77.000000 
v 0.000000 0.000000 124.000000 
v 70.000000 0.000000 129.000000 
v 70.000000 0.000000 129.000000 
v 39.000000 32.000000 81.000000 
v -5.000000 36.000000 77.000000 
v -50.000000 32.000000 79.000000 
v -70.000000 0.000000 129.000000 
v 0.000000 0.000000 124.000000 
v 0.000000 0.000000 124.000000 
v -5.000000 36.000000 77.000000 
v -50.000000 32.000000 79.000000 
v 3.000000 -33.000000 1.000000 
v 35.000000 -33.000000 1.000000 
v 50.000000 -32.000000 82.000000 
v 50.000000 -32.000000 82.000000 
v 5.000000 -36.000000 80.000000 
v 3.000000 -33.000000 1.000000 
v 1.000000 -36.000000 -77.000000 
v 45.000000 -32.000000 -81.000000 
v 35.000000 -33.000000 1.000000 
v 35.000000 -33.000000 1.000000 
v 3.000000 -33.000000 1.000000 
v 1.000000 -36.000000 -77.000000 
v -28.000000 -33.000000 2.000000 
v 3.000000 -33.000000 1.000000 
v 5.000000 -36.000000 80.000000 
v 5.000000 -36.000000 80.000000 
v -39.000000 -32.000000 85.000000 
v -28.000000 -33.000000 2.000000 
v -43.000000 -32.000000 -79.000000 
v 1.000000 -36.000000 -77.000000 
v 3.000000 -33.000000 1.000000 
v 3.000000 -33.000000 1.000000 
v -28.000000 -33.000000 2.000000 
v -43.000000 -32.000000 -79.000000 
v 35.000000 -33.000000 1.000000 
v 63.000000 0.000000 0.000000 
v 70.000000 0.000000 129.000000 
v 70.000000 0.000000 129.000000 
v 50.000000 -32.000000 82.000000 
v 35.000000 -33.000000 1.000000 
v 45.000000 -32.000000 -81.000000 
v 70.000000 0.000000 -129.000000 
v 63.000000 0.000000 0.000000 
v 63.000000 0.000000 0.000000 
v 35.000000 -33.000000 1.000000 
v 45.000000 -32.000000 -81.000000 
v 1.000000 -36.000000 -77.000000 
v 0.000000 0.000000 -124.000000 
v 70.000000 0.000000 -129.000000 
v 70.000000 0.000000 -129.000000 
v 45.000000 -32.000000 -81.000000 
v 1.000000 -36.000000 -77.000000 
v -43.000000 -32.000000 -79.000000 
v -70.000000 0.000000 -129.000000 
v 0.000000 0.000000 -124.000000 
v 0.000000 0.000000 -124.000000 
v 1.000000 -36.000000 -77.000000 
v -43.000000 -32.000000 -79.000000 
v -28.000000 -33.000000 2.000000 
v -63.000000 0.000000 0.000000 
v -70.000000 0.000000 -129.000000 
v -70.000000 0.000000 -129.000000 
v -43.000000 -32.000000 -79.000000 
v -28.000000 -33.000000 2.000000 
v -39.000000 -32.000000 85.000000 
v -70.000000 0.000000 129.000000 
v -63.000000 0.000000 0.000000 
v -63.000000 0.000000 0.000000 
v -28.000000 -33.000000 2.000000 
v -39.000000 -32.000000 85.000000 
v 5.000000 -36.000000 80.000000 
v 0.000000 0.000000 124.000000 
v -70.000000 0.000000 129.000000 
v -70.000000 0.000000 129.000000 
v -39.000000 -32.000000 85.000000 
v 5.000000 -36.000000 80.000000 
v 50.000000 -32.000000 82.000000 
v 70.000000 0.000000 129.000000 
v 0.000000 0.000000 124.000000 
v 0.000000 0.000000 124.000000 
v 5.000000 -36.000000 80.000000 
v 50.000000 -32.000000 82.000000 
vn 0.000000 1.000000 0.000000 
vn -0.484131 0.874756 -0.012939 
vn -0.248535 0.939453 0.235352 
vn -0.248535 0.939453 0.235352 
vn -0.011475 0.952637 0.303467 
vn 0.000000 1.000000 0.000000 
vn 0.012207 0.946777 -0.321289 
vn -0.485840 0.863770 -0.131592 
vn -0.484131 0.874756 -0.012939 
vn -0.484131 0.874756 -0.012939 
vn 0.000000 1.000000 0.000000 
vn 0.012207 0.946777 -0.321289 
vn 0.427246 0.903809 0.010498 
vn 0.000000 1.000000 0.000000 
vn -0.011475 0.952637 0.303467 
vn -0.011475 0.952637 0.303467 
vn 0.433105 0.892822 0.121826 
vn 0.427246 0.903809 0.010498 
vn 0.222412 0.942871 -0.246826 
vn 0.012207 0.946777 -0.321289 
vn 0.000000 1.000000 0.000000 
vn 0.000000 1.000000 0.000000 
vn 0.427246 0.903809 0.010498 
vn 0.222412 0.942871 -0.246826 
vn -0.484131 0.874756 -0.012939 
vn -0.998291 -0.056885 0.002441 
vn -0.828613 -0.153809 0.538086 
vn -0.828613 -0.153809 0.538086 
vn -0.248535 0.939453 0.235352 
vn -0.484131 0.874756 -0.012939 
vn -0.485840 0.863770 -0.131592 
vn -0.828369 0.037598 -0.558594 
vn -0.998291 -0.056885 0.002441 
vn -0.998291 -0.056885 0.002441 
vn -0.484131 0.874756 -0.012939 
vn -0.485840 0.863770 -0.131592 
vn 0.012207 0.946777 -0.321289 
vn -0.000977 -0.019531 -0.999756 
vn -0.828369 0.037598 -0.558594 
vn -0.828369 0.037598 -0.558594 
vn -0.485840 0.863770 -0.131592 
vn 0.012207 0.946777 -0.321289 
vn 0.222412 0.942871 -0.246826 
vn 0.832764 -0.056152 -0.550537 
vn -0.000977 -0.019531 -0.999756 
vn -0.000977 -0.019531 -0.999756 
vn 0.012207 0.946777 -0.321289 
vn 0.222412 0.942871 -0.246826 
vn 0.427246 0.903809 0.010498 
vn 0.998291 0.057129 0.002441 
vn 0.832764 -0.056152 -0.550537 
vn 0.832764 -0.056152 -0.550537 
vn 0.222412 0.942871 -0.246826 
vn 0.427246 0.903809 0.010498 
vn 0.433105 0.892822 0.121826 
vn 0.831299 0.170898 0.528564 
vn 0.998291 0.057129 0.002441 
vn 0.998291 0.057129 0.002441 
vn 0.427246 0.903809 0.010498 
vn 0.433105 0.892822 0.121826 
vn -0.011475 0.952637 0.303467 
vn -0.000977 0.019531 0.999756 
vn 0.831299 0.170898 0.528564 
vn 0.831299 0.170898 0.528564 
vn 0.433105 0.892822 0.121826 
vn -0.011475 0.952637 0.303467 
vn -0.248535 0.939453 0.235352 
vn -0.828613 -0.153809 0.538086 
vn -0.000977 0.019531 0.999756 
vn -0.000977 0.019531 0.999756 
vn -0.011475 0.952637 0.303467 
vn -0.248535 0.939453 0.235352 
vn 0.000000 -1.000000 0.000000 
vn 0.482422 -0.875732 -0.012451 
vn 0.246582 -0.935791 0.251221 
vn 0.246582 -0.935791 0.251221 
vn 0.012207 -0.946289 0.322510 
vn 0.000000 -1.000000 0.000000 
vn -0.011475 -0.952881 -0.302246 
vn 0.487549 -0.864502 -0.121582 
vn 0.482422 -0.875732 -0.012451 
vn 0.482422 -0.875732 -0.012451 
vn 0.000000 -1.000000 0.000000 
vn -0.011475 -0.952881 -0.302246 
vn -0.428711 -0.903076 0.010986 
vn 0.000000 -1.000000 0.000000 
vn 0.012207 -0.946289 0.322510 
vn 0.012207 -0.946289 0.322510 
vn -0.431885 -0.892090 0.131836 
vn -0.428711 -0.903076 0.010986 
vn -0.224609 -0.946533 -0.231201 
vn -0.011475 -0.952881 -0.302246 
vn 0.000000 -1.000000 0.000000 
vn 0.000000 -1.000000 0.000000 
vn -0.428711 -0.903076 0.010986 
vn -0.224609 -0.946533 -0.231201 
vn 0.482422 -0.875732 -0.012451 
vn 0.998291 0.057129 0.002441 
vn 0.831299 0.170898 0.528564 
vn 0.831299 0.170898 0.528564 
vn 0.246582 -0.935791 0.251221 
vn 0.482422 -0.875732 -0.012451 
vn 0.487549 -0.864502 -0.121582 
vn 0.832764 -0.056152 -0.550537 
vn 0.998291 0.057129 0.002441 
vn 0.998291 0.057129 0.002441 
vn 0.482422 -0.875732 -0.012451 
vn 0.487549 -0.864502 -0.121582 
vn -0.011475 -0.952881 -0.302246 
vn -0.000977 -0.019531 -0.999756 
vn 0.832764 -0.056152 -0.550537 
vn 0.832764 -0.056152 -0.550537 
vn 0.487549 -0.864502 -0.121582 
vn -0.011475 -0.952881 -0.302246 
vn -0.224609 -0.946533 -0.231201 
vn -0.828369 0.037598 -0.558594 
vn -0.000977 -0.019531 -0.999756 
vn -0.000977 -0.019531 -0.999756 
vn -0.011475 -0.952881 -0.302246 
vn -0.224609 -0.946533 -0.231201 
vn -0.428711 -0.903076 0.010986 
vn -0.998291 -0.056885 0.002441 
vn -0.828369 0.037598 -0.558594 
vn -0.828369 0.037598 -0.558594 
vn -0.224609 -0.946533 -0.231201 
vn -0.428711 -0.903076 0.010986 
vn -0.431885 -0.892090 0.131836 
vn -0.828613 -0.153809 0.538086 
vn -0.998291 -0.056885 0.002441 
vn -0.998291 -0.056885 0.002441 
vn -0.428711 -0.903076 0.010986 
vn -0.431885 -0.892090 0.131836 
vn 0.012207 -0.946289 0.322510 
vn -0.000977 0.019531 0.999756 
vn -0.828613 -0.153809 0.538086 
vn -0.828613 -0.153809 0.538086 
vn -0.431885 -0.892090 0.131836 
vn 0.012207 -0.946289 0.322510 
vn 0.246582 -0.935791 0.251221 
vn 0.831299 0.170898 0.528564 
vn -0.000977 0.019531 0.999756 
vn -0.000977 0.019531 0.999756 
vn 0.012207 -0.946289 0.322510 
vn 0.246582 -0.935791 0.251221 
vt 0.483871 0.492063 
vt 0.161290 0.492063 
vt 0.161290 0.809524 
vt 0.161290 0.809524 
vt 0.483871 0.809524 
vt 0.483871 0.492063 
vt 0.483871 0.174603 
vt 0.161290 0.174603 
vt 0.161290 0.492063 
vt 0.161290 0.492063 
vt 0.483871 0.492063 
vt 0.483871 0.174603 
vt 0.806452 0.492063 
vt 0.483871 0.492063 
vt 0.483871 0.809524 
vt 0.483871 0.809524 
vt 0.806452 0.809524 
vt 0.806452 0.492063 
vt 0.806452 0.174603 
vt 0.483871 0.174603 
vt 0.483871 0.492063 
vt 0.483871 0.492063 
vt 0.806452 0.492063 
vt 0.806452 0.174603 
vt 0.161290 0.492063 
vt 0.000000 0.492063 
vt 0.000000 1.000000 
vt 0.000000 1.000000 
vt 0.161290 0.809524 
vt 0.161290 0.492063 
vt 0.161290 0.174603 
vt 0.000000 -0.015873 
vt 0.000000 0.492063 
vt 0.000000 0.492063 
vt 0.161290 0.492063 
vt 0.161290 0.174603 
vt 0.483871 0.174603 
vt 0.483871 -0.015873 
vt 0.000000 -0.015873 
vt 0.000000 -0.015873 
vt 0.161290 0.174603 
vt 0.483871 0.174603 
vt 0.806452 0.174603 
vt 1.000000 -0.015873 
vt 0.483871 -0.015873 
vt 0.483871 -0.015873 
vt 0.483871 0.174603 
vt 0.806452 0.174603 
vt 0.806452 0.492063 
vt 1.000000 0.492063 
vt 1.000000 -0.015873 
vt 1.000000 -0.015873 
vt 0.806452 0.174603 
vt 0.806452 0.492063 
vt 0.806452 0.809524 
vt 1.000000 1.000000 
vt 1.000000 0.492063 
vt 1.000000 0.492063 
vt 0.806452 0.492063 
vt 0.806452 0.809524 
vt 0.483871 0.809524 
vt 0.483871 1.000000 
vt 1.000000 1.000000 
vt 1.000000 1.000000 
vt 0.806452 0.809524 
vt 0.483871 0.809524 
vt 0.161290 0.809524 
vt 0.000000 1.000000 
vt 0.483871 1.000000 
vt 0.483871 1.000000 
vt 0.483871 0.809524 
vt 0.161290 0.809524 
vt 0.483871 0.492063 
vt 0.161290 0.492063 
vt 0.161290 0.809524 
vt 0.161290 0.809524 
vt 0.483871 0.809524 
vt 0.483871 0.492063 
vt 0.483871 0.174603 
vt 0.161290 0.174603 
vt 0.161290 0.492063 
vt 0.161290 0.492063 
vt 0.483871 0.492063 
vt 0.483871 0.174603 
vt 0.806452 0.492063 
vt 0.483871 0.492063 
vt 0.483871 0.809524 
vt 0.483871 0.809524 
vt 0.806452 0.809524 
vt 0.806452 0.492063 
vt 0.806452 0.174603 
vt 0.483871 0.174603 
vt 0.483871 0.492063 
vt 0.483871 0.492063 
vt 0.806452 0.492063 
vt 0.806452 0.174603 
vt 0.161290 0.492063 
vt 0.000000 0.492063 
vt 0.000000 1.000000 
vt 0.000000 1.000000 
vt 0.161290 0.809524 
vt 0.161290 0.492063 
vt 0.161290 0.174603 
vt 0.000000 -0.015873 
vt 0.000000 0.492063 
vt 0.000000 0.492063 
vt 0.161290 0.492063 
vt 0.161290 0.174603 
vt 0.483871 0.174603 
vt 0.483871 -0.015873 
vt 0.000000 -0.015873 
vt 0.000000 -0.015873 
vt 0.161290 0.174603 
vt 0.483871 0.174603 
vt 0.806452 0.174603 
vt 1.000000 -0.015873 
vt 0.483871 -0.015873 
vt 0.483871 -0.015873 
vt 0.483871 0.174603 
vt 0.806452 0.174603 
vt 0.806452 0.492063 
vt 1.000000 0.492063 
vt 1.000000 -0.015873 
vt 1.000000 -0.015873 
vt 0.806452 0.174603 
vt 0.806452 0.492063 
vt 0.806452 0.809524 
vt 1.000000 1.000000 
vt 1.000000 0.492063 
vt 1.000000 0.492063 
vt 0.806452 0.492063 
vt 0.806452 0.809524 
vt 0.483871 0.809524 
vt 0.483871 1.000000 
vt 1.000000 1.000000 
vt 1.000000 1.000000 
vt 0.806452 0.809524 
vt 0.483871 0.809524 
vt 0.161290 0.809524 
vt 0.000000 1.000000 
vt 0.483871 1.000000 
vt 0.483871 1.000000 
vt 0.483871 0.809524 
vt 0.161290 0.809524 
f 1/1/1 2/2/2 3/3/3
f 4/4/4 5/5/5 6/6/6
f 7/7/7 8/8/8 9/9/9
f 10/10/10 11/11/11 12/12/12
f 13/13/13 14/14/14 15/15/15
f 16/16/16 17/17/17 18/18/18
f 19/19/19 20/20/20 21/21/21
f 22/22/22 23/23/23 24/24/24
f 25/25/25 26/26/26 27/27/27
f 28/28/28 29/29/29 30/30/30
f 31/31/31 32/32/32 33/33/33
f 34/34/34 35/35/35 36/36/36
f 37/37/37 38/38/38 39/39/39
f 40/40/40 41/41/41 42/42/42
f 43/43/43 44/44/44 45/45/45
f 46/46/46 47/47/47 48/48/48
f 49/49/49 50/50/50 51/51/51
f 52/52/52 53/53/53 54/54/54
f 55/55/55 56/56/56 57/57/57
f 58/58/58 59/59/59 60/60/60
f 61/61/61 62/62/62 63/63/63
f 64/64/64 65/65/65 66/66/66
f 67/67/67 68/68/68 69/69/69
f 70/70/70 71/71/71 72/72/72
f 73/73/73 74/74/74 75/75/75
f 76/76/76 77/77/77 78/78/78
f 79/79/79 80/80/80 81/81/81
f 82/82/82 83/83/83 84/84/84
f 85/85/85 86/86/86 87/87/87
f 88/88/88 89/89/89 90/90/90
f 91/91/91 92/92/92 93/93/93
f 94/94/94 95/95/95 96/96/96
f 97/97/97 98/98/98 99/99/99
f 100/100/100 101/101/101 102/102/102
f 103/103/103 104/104/104 105/105/105
f 106/106/106 107/107/107 108/108/108
f 109/109/109 110/110/110 111/111/111
f 112/112/112 113/113/113 114/114/114
f 115/115/115 116/116/116 117/117/117
f 118/118/118 119/119/119 120/120/120
f 121/121/121 122/122/122 123/123/123
f 124/124/124 125/125/125 126/126/126
f 127/127/127 128/128/128 129/129/129
f 130/130/130 131/131/131 132/132/132
f 133/133/133 134/134/134 135/135/135
f 136/136/136 137/137/137 138/138/138
f 139/139/139 140/140/140 141/141/141
f 142/142/142 143/143/143 144/144/144
