v -9.000000 7.000000 8.000000 
v 0.000000 7.000000 12.000000 
v 0.000000 13.000000 -6.000000 
v -12.000000 7.000000 -4.000000 
v -9.000000 7.000000 8.000000 
v 0.000000 13.000000 -6.000000 
v -9.000000 7.000000 -11.000000 
v -12.000000 7.000000 -4.000000 
v 0.000000 13.000000 -6.000000 
v 0.000000 7.000000 -14.000000 
v -9.000000 7.000000 -11.000000 
v 0.000000 13.000000 -6.000000 
v 9.000000 7.000000 -11.000000 
v 0.000000 7.000000 -14.000000 
v 0.000000 13.000000 -6.000000 
v 12.000000 7.000000 -4.000000 
v 9.000000 7.000000 -11.000000 
v 0.000000 13.000000 -6.000000 
v 9.000000 7.000000 8.000000 
v 12.000000 7.000000 -4.000000 
v 0.000000 13.000000 -6.000000 
v 0.000000 7.000000 12.000000 
v 9.000000 7.000000 8.000000 
v 0.000000 13.000000 -6.000000 
v -12.000000 -22.000000 12.000000 
v 0.000000 -22.000000 17.000000 
v 0.000000 7.000000 12.000000 
v -9.000000 7.000000 8.000000 
v -12.000000 -22.000000 12.000000 
v 0.000000 7.000000 12.000000 
v -18.000000 -19.000000 -4.000000 
v -12.000000 -22.000000 12.000000 
v -9.000000 7.000000 8.000000 
v -12.000000 7.000000 -4.000000 
v -18.000000 -19.000000 -4.000000 
v -9.000000 7.000000 8.000000 
v -12.000000 -16.000000 -15.000000 
v -18.000000 -19.000000 -4.000000 
v -12.000000 7.000000 -4.000000 
v -9.000000 7.000000 -11.000000 
v -12.000000 -16.000000 -15.000000 
v -12.000000 7.000000 -4.000000 
v 0.000000 -14.000000 -18.000000 
v -12.000000 -16.000000 -15.000000 
v -9.000000 7.000000 -11.000000 
v 0.000000 7.000000 -14.000000 
v 0.000000 -14.000000 -18.000000 
v -9.000000 7.000000 -11.000000 
v 12.000000 -16.000000 -15.000000 
v 0.000000 -14.000000 -18.000000 
v 0.000000 7.000000 -14.000000 
v 9.000000 7.000000 -11.000000 
v 12.000000 -16.000000 -15.000000 
v 0.000000 7.000000 -14.000000 
v 18.000000 -19.000000 -4.000000 
v 12.000000 -16.000000 -15.000000 
v 9.000000 7.000000 -11.000000 
v 12.000000 7.000000 -4.000000 
v 18.000000 -19.000000 -4.000000 
v 9.000000 7.000000 -11.000000 
v 12.000000 -22.000000 12.000000 
v 18.000000 -19.000000 -4.000000 
v 12.000000 7.000000 -4.000000 
v 9.000000 7.000000 8.000000 
v 12.000000 -22.000000 12.000000 
v 12.000000 7.000000 -4.000000 
v 0.000000 -22.000000 17.000000 
v 12.000000 -22.000000 12.000000 
v 9.000000 7.000000 8.000000 
v 0.000000 7.000000 12.000000 
v 0.000000 -22.000000 17.000000 
v 9.000000 7.000000 8.000000 
vn -0.686035 0.555176 0.469971 
vn -0.089600 0.561279 0.822510 
vn 0.000000 0.993408 -0.114014 
vn -0.838623 0.520264 -0.160156 
vn -0.686035 0.555176 0.469971 
vn 0.000000 0.993408 -0.114014 
vn -0.479980 0.481934 -0.732666 
vn -0.838623 0.520264 -0.160156 
vn 0.000000 0.993408 -0.114014 
vn 0.056396 0.441895 -0.895020 
vn -0.479980 0.481934 -0.732666 
vn 0.000000 0.993408 -0.114014 
vn 0.633301 0.485352 -0.602539 
vn 0.056396 0.441895 -0.895020 
vn 0.000000 0.993408 -0.114014 
vn 0.857178 0.514893 0.000244 
vn 0.633301 0.485352 -0.602539 
vn 0.000000 0.993408 -0.114014 
vn 0.551758 0.553223 0.623779 
vn 0.857178 0.514893 0.000244 
vn 0.000000 0.993408 -0.114014 
vn -0.089600 0.561279 0.822510 
vn 0.551758 0.553223 0.623779 
vn 0.000000 0.993408 -0.114014 
vn -0.611816 0.152588 0.775879 
vn 0.134521 0.150391 0.979248 
vn -0.089600 0.561279 0.822510 
vn -0.686035 0.555176 0.469971 
vn -0.611816 0.152588 0.775879 
vn -0.089600 0.561279 0.822510 
vn -0.985352 0.156738 0.064941 
vn -0.611816 0.152588 0.775879 
vn -0.686035 0.555176 0.469971 
vn -0.838623 0.520264 -0.160156 
vn -0.985352 0.156738 0.064941 
vn -0.686035 0.555176 0.469971 
vn -0.740723 0.174316 -0.648438 
vn -0.985352 0.156738 0.064941 
vn -0.838623 0.520264 -0.160156 
vn -0.479980 0.481934 -0.732666 
vn -0.740723 0.174316 -0.648438 
vn -0.838623 0.520264 -0.160156 
vn -0.107910 0.148926 -0.982666 
vn -0.740723 0.174316 -0.648438 
vn -0.479980 0.481934 -0.732666 
vn 0.056396 0.441895 -0.895020 
vn -0.107910 0.148926 -0.982666 
vn -0.479980 0.481934 -0.732666 
vn 0.537354 0.171387 -0.825439 
vn -0.107910 0.148926 -0.982666 
vn 0.056396 0.441895 -0.895020 
vn 0.633301 0.485352 -0.602539 
vn 0.537354 0.171387 -0.825439 
vn 0.056396 0.441895 -0.895020 
vn 0.968262 0.167236 -0.184814 
vn 0.537354 0.171387 -0.825439 
vn 0.633301 0.485352 -0.602539 
vn 0.857178 0.514893 0.000244 
vn 0.968262 0.167236 -0.184814 
vn 0.633301 0.485352 -0.602539 
vn 0.824219 0.158691 0.543213 
vn 0.968262 0.167236 -0.184814 
vn 0.857178 0.514893 0.000244 
vn 0.551758 0.553223 0.623779 
vn 0.824219 0.158691 0.543213 
vn 0.857178 0.514893 0.000244 
vn 0.134521 0.150391 0.979248 
vn 0.824219 0.158691 0.543213 
vn 0.551758 0.553223 0.623779 
vn -0.089600 0.561279 0.822510 
vn 0.134521 0.150391 0.979248 
vn 0.551758 0.553223 0.623779 
vt 0.200000 0.733333 
vt 0.466667 0.866667 
vt 0.466667 0.266667 
vt 0.066667 0.333333 
vt 0.200000 0.733333 
vt 0.466667 0.266667 
vt 0.200000 0.133333 
vt 0.066667 0.333333 
vt 0.466667 0.266667 
vt 0.466667 0.066667 
vt 0.200000 0.133333 
vt 0.466667 0.266667 
vt 0.733333 0.133333 
vt 0.466667 0.066667 
vt 0.466667 0.266667 
vt 0.866667 0.333333 
vt 0.733333 0.133333 
vt 0.466667 0.266667 
vt 0.733333 0.733333 
vt 0.866667 0.333333 
vt 0.466667 0.266667 
vt 0.466667 0.866667 
vt 0.733333 0.733333 
vt 0.466667 0.266667 
vt 0.000000 1.000000 
vt 0.466667 1.000000 
vt 0.466667 0.866667 
vt 0.200000 0.733333 
vt 0.000000 1.000000 
vt 0.466667 0.866667 
vt 0.000000 0.333333 
vt 0.000000 1.000000 
vt 0.200000 0.733333 
vt 0.066667 0.333333 
vt 0.000000 0.333333 
vt 0.200000 0.733333 
vt 0.000000 -0.066667 
vt 0.000000 0.333333 
vt 0.066667 0.333333 
vt 0.200000 0.133333 
vt 0.000000 -0.066667 
vt 0.066667 0.333333 
vt 0.466667 -0.066667 
vt 0.000000 -0.066667 
vt 0.200000 0.133333 
vt 0.466667 0.066667 
vt 0.466667 -0.066667 
vt 0.200000 0.133333 
vt 1.000000 -0.066667 
vt 0.466667 -0.066667 
vt 0.466667 0.066667 
vt 0.733333 0.133333 
vt 1.000000 -0.066667 
vt 0.466667 0.066667 
vt 1.000000 0.333333 
vt 1.000000 -0.066667 
vt 0.733333 0.133333 
vt 0.866667 0.333333 
vt 1.000000 0.333333 
vt 0.733333 0.133333 
vt 1.000000 1.000000 
vt 1.000000 0.333333 
vt 0.866667 0.333333 
vt 0.733333 0.733333 
vt 1.000000 1.000000 
vt 0.866667 0.333333 
vt 0.466667 1.000000 
vt 1.000000 1.000000 
vt 0.733333 0.733333 
vt 0.466667 0.866667 
vt 0.466667 1.000000 
vt 0.733333 0.733333 
f 1/1/1 2/2/2 3/3/3
f 4/4/4 5/5/5 6/6/6
f 7/7/7 8/8/8 9/9/9
f 10/10/10 11/11/11 12/12/12
f 13/13/13 14/14/14 15/15/15
f 16/16/16 17/17/17 18/18/18
f 19/19/19 20/20/20 21/21/21
f 22/22/22 23/23/23 24/24/24
f 25/25/25 26/26/26 27/27/27
f 28/28/28 29/29/29 30/30/30
f 31/31/31 32/32/32 33/33/33
f 34/34/34 35/35/35 36/36/36
f 37/37/37 38/38/38 39/39/39
f 40/40/40 41/41/41 42/42/42
f 43/43/43 44/44/44 45/45/45
f 46/46/46 47/47/47 48/48/48
f 49/49/49 50/50/50 51/51/51
f 52/52/52 53/53/53 54/54/54
f 55/55/55 56/56/56 57/57/57
f 58/58/58 59/59/59 60/60/60
f 61/61/61 62/62/62 63/63/63
f 64/64/64 65/65/65 66/66/66
f 67/67/67 68/68/68 69/69/69
f 70/70/70 71/71/71 72/72/72
