v 9.000000 15.000000 24.000000 
v -4.000000 15.000000 24.000000 
v 2.000000 13.000000 11.000000 
v -6.000000 15.000000 3.000000 
v 10.000000 15.000000 3.000000 
v 2.000000 13.000000 11.000000 
v -4.000000 15.000000 24.000000 
v -6.000000 15.000000 3.000000 
v 2.000000 13.000000 11.000000 
v 10.000000 15.000000 3.000000 
v 9.000000 15.000000 24.000000 
v 2.000000 13.000000 11.000000 
v -2.000000 26.000000 19.000000 
v -4.000000 15.000000 24.000000 
v 9.000000 15.000000 24.000000 
v 9.000000 15.000000 24.000000 
v 7.000000 26.000000 21.000000 
v -2.000000 26.000000 19.000000 
v 7.000000 26.000000 6.000000 
v 10.000000 15.000000 3.000000 
v -6.000000 15.000000 3.000000 
v -6.000000 15.000000 3.000000 
v -2.000000 26.000000 6.000000 
v 7.000000 26.000000 6.000000 
v -2.000000 26.000000 6.000000 
v -6.000000 15.000000 3.000000 
v -4.000000 15.000000 24.000000 
v -4.000000 15.000000 24.000000 
v -2.000000 26.000000 19.000000 
v -2.000000 26.000000 6.000000 
v 7.000000 26.000000 21.000000 
v 9.000000 15.000000 24.000000 
v 10.000000 15.000000 3.000000 
v 10.000000 15.000000 3.000000 
v 7.000000 26.000000 6.000000 
v 7.000000 26.000000 21.000000 
v 11.000000 31.000000 13.000000 
v 4.000000 31.000000 22.000000 
v 12.000000 23.000000 18.000000 
v 4.000000 31.000000 22.000000 
v 3.000000 23.000000 24.000000 
v 12.000000 23.000000 18.000000 
v 4.000000 31.000000 22.000000 
v -5.000000 31.000000 15.000000 
v 3.000000 23.000000 24.000000 
v -5.000000 31.000000 15.000000 
v -6.000000 23.000000 19.000000 
v 3.000000 23.000000 24.000000 
v -5.000000 31.000000 15.000000 
v -2.000000 31.000000 4.000000 
v -6.000000 23.000000 19.000000 
v -2.000000 31.000000 4.000000 
v -4.000000 23.000000 3.000000 
v -6.000000 23.000000 19.000000 
v -2.000000 31.000000 4.000000 
v 6.000000 31.000000 4.000000 
v -4.000000 23.000000 3.000000 
v 6.000000 31.000000 4.000000 
v 8.000000 24.000000 1.000000 
v -4.000000 23.000000 3.000000 
v 6.000000 31.000000 4.000000 
v 11.000000 31.000000 13.000000 
v 8.000000 24.000000 1.000000 
v 11.000000 31.000000 13.000000 
v 12.000000 23.000000 18.000000 
v 8.000000 24.000000 1.000000 
v 8.000000 29.000000 12.000000 
v 3.000000 28.000000 21.000000 
v 11.000000 31.000000 13.000000 
v 3.000000 28.000000 21.000000 
v 4.000000 31.000000 22.000000 
v 11.000000 31.000000 13.000000 
v 3.000000 28.000000 21.000000 
v -3.000000 29.000000 15.000000 
v 4.000000 31.000000 22.000000 
v -3.000000 29.000000 15.000000 
v -5.000000 31.000000 15.000000 
v 4.000000 31.000000 22.000000 
v -3.000000 29.000000 15.000000 
v 0.000000 29.000000 7.000000 
v -5.000000 31.000000 15.000000 
v 0.000000 29.000000 7.000000 
v -2.000000 31.000000 4.000000 
v -5.000000 31.000000 15.000000 
v 0.000000 29.000000 7.000000 
v 5.000000 29.000000 7.000000 
v -2.000000 31.000000 4.000000 
v 5.000000 29.000000 7.000000 
v 6.000000 31.000000 4.000000 
v -2.000000 31.000000 4.000000 
v 5.000000 29.000000 7.000000 
v 8.000000 29.000000 12.000000 
v 6.000000 31.000000 4.000000 
v 8.000000 29.000000 12.000000 
v 11.000000 31.000000 13.000000 
v 6.000000 31.000000 4.000000 
vn 0.198730 -0.974854 0.099854 
vn -0.201660 -0.974365 0.098389 
vn -0.003174 -0.999756 -0.009033 
vn -0.206299 -0.971191 -0.118164 
vn 0.196777 -0.973389 -0.116699 
vn -0.003174 -0.999756 -0.009033 
vn -0.201660 -0.974365 0.098389 
vn -0.206299 -0.971191 -0.118164 
vn -0.003174 -0.999756 -0.009033 
vn 0.196777 -0.973389 -0.116699 
vn 0.198730 -0.974854 0.099854 
vn -0.003174 -0.999756 -0.009033 
vn -0.515625 0.307861 0.799316 
vn -0.861084 0.282959 0.422363 
vn 0.356201 0.333252 0.872803 
vn 0.356201 0.333252 0.872803 
vn 0.842041 0.260742 0.471924 
vn -0.515625 0.307861 0.799316 
vn 0.432617 0.264160 -0.861816 
vn 0.880615 0.224854 -0.416260 
vn -0.439941 0.266113 -0.857422 
vn -0.439941 0.266113 -0.857422 
vn -0.882812 0.213867 -0.417480 
vn 0.432617 0.264160 -0.861816 
vn -0.882812 0.213867 -0.417480 
vn -0.439941 0.266113 -0.857422 
vn -0.861084 0.282959 0.422363 
vn -0.861084 0.282959 0.422363 
vn -0.515625 0.307861 0.799316 
vn -0.882812 0.213867 -0.417480 
vn 0.842041 0.260742 0.471924 
vn 0.356201 0.333252 0.872803 
vn 0.880615 0.224854 -0.416260 
vn 0.880615 0.224854 -0.416260 
vn 0.432617 0.264160 -0.861816 
vn 0.842041 0.260742 0.471924 
vn 0.984375 0.174072 -0.017578 
vn 0.419678 0.310791 0.852539 
vn 0.928955 0.142578 0.341064 
vn 0.419678 0.310791 0.852539 
vn -0.246094 0.313965 0.916748 
vn 0.928955 0.142578 0.341064 
vn 0.419678 0.310791 0.852539 
vn -0.851318 0.237305 0.467285 
vn -0.246094 0.313965 0.916748 
vn -0.851318 0.237305 0.467285 
vn -0.955078 0.228271 0.187500 
vn -0.246094 0.313965 0.916748 
vn -0.851318 0.237305 0.467285 
vn -0.837891 0.167725 -0.519287 
vn -0.955078 0.228271 0.187500 
vn -0.837891 0.167725 -0.519287 
vn -0.481445 0.250977 -0.839600 
vn -0.955078 0.228271 0.187500 
vn -0.837891 0.167725 -0.519287 
vn 0.296631 0.260010 -0.918701 
vn -0.481445 0.250977 -0.839600 
vn 0.296631 0.260010 -0.918701 
vn 0.749023 0.204590 -0.629639 
vn -0.481445 0.250977 -0.839600 
vn 0.296631 0.260010 -0.918701 
vn 0.984375 0.174072 -0.017578 
vn 0.749023 0.204590 -0.629639 
vn 0.984375 0.174072 -0.017578 
vn 0.928955 0.142578 0.341064 
vn 0.749023 0.204590 -0.629639 
vn -0.790283 0.594727 0.145996 
vn -0.465088 0.570557 -0.676758 
vn -0.862549 0.493896 -0.108398 
vn -0.465088 0.570557 -0.676758 
vn 0.328369 0.424316 -0.843506 
vn -0.862549 0.493896 -0.108398 
vn -0.465088 0.570557 -0.676758 
vn 0.881348 0.325439 -0.342041 
vn 0.328369 0.424316 -0.843506 
vn 0.881348 0.325439 -0.342041 
vn 0.875244 0.474854 -0.090332 
vn 0.328369 0.424316 -0.843506 
vn 0.881348 0.325439 -0.342041 
vn 0.691162 0.640137 0.334717 
vn 0.875244 0.474854 -0.090332 
vn 0.691162 0.640137 0.334717 
vn 0.333008 0.803223 0.493652 
vn 0.875244 0.474854 -0.090332 
vn 0.691162 0.640137 0.334717 
vn -0.260498 0.792480 0.551025 
vn 0.333008 0.803223 0.493652 
vn -0.260498 0.792480 0.551025 
vn -0.579590 0.679443 0.449463 
vn 0.333008 0.803223 0.493652 
vn -0.260498 0.792480 0.551025 
vn -0.790283 0.594727 0.145996 
vn -0.579590 0.679443 0.449463 
vn -0.790283 0.594727 0.145996 
vn -0.862549 0.493896 -0.108398 
vn -0.579590 0.679443 0.449463 
vt 0.354839 0.258065 
vt 0.806452 0.096774 
vt 0.645161 0.096774 
vt 0.580645 0.903226 
vt 0.580645 0.645161 
vt 0.903226 0.612903 
vt 0.870968 0.516129 
vt 0.806452 0.064516 
vt 0.677419 0.129032 
vt 0.806452 0.548387 
vt 0.354839 0.258065 
vt 0.838710 0.967742 
vt 0.129032 0.483871 
vt 0.354839 0.516129 
vt 0.354839 0.258065 
vt 0.354839 0.258065 
vt 0.129032 0.290323 
vt 0.129032 0.483871 
vt 0.129032 0.709677 
vt 0.322581 0.645161 
vt 0.322581 0.903226 
vt 0.322581 0.903226 
vt 0.129032 0.838710 
vt 0.129032 0.709677 
vt 0.129032 0.838710 
vt 0.354839 0.838710 
vt 0.354839 0.548387 
vt 0.354839 0.548387 
vt 0.129032 0.483871 
vt 0.129032 0.838710 
vt 0.129032 0.290323 
vt 0.354839 0.258065 
vt 0.354839 0.677419 
vt 0.354839 0.677419 
vt 0.129032 0.709677 
vt 0.129032 0.290323 
vt 0.000000 0.677419 
vt 0.000000 0.451613 
vt 0.096774 0.677419 
vt 0.000000 0.451613 
vt 0.096774 0.451613 
vt 0.096774 0.677419 
vt 0.000000 0.225806 
vt 0.000000 0.516129 
vt 0.096774 0.225806 
vt 0.000000 0.516129 
vt 0.096774 0.516129 
vt 0.096774 0.225806 
vt 0.000000 0.516129 
vt 0.000000 0.193548 
vt 0.096774 0.516129 
vt 0.000000 0.193548 
vt 0.096774 0.225806 
vt 0.096774 0.516129 
vt 0.000000 0.225806 
vt 0.000000 0.451613 
vt 0.096774 0.225806 
vt 0.000000 0.451613 
vt 0.096774 0.451613 
vt 0.096774 0.225806 
vt 0.000000 0.451613 
vt 0.000000 0.677419 
vt 0.096774 0.451613 
vt 0.000000 0.677419 
vt 0.096774 0.677419 
vt 0.096774 0.451613 
vt 0.096774 0.354839 
vt 0.225806 0.354839 
vt 0.129032 0.258065 
vt 0.225806 0.354839 
vt 0.225806 0.258065 
vt 0.129032 0.258065 
vt 0.096774 0.064516 
vt 0.193548 0.064516 
vt 0.129032 -0.032258 
vt 0.193548 0.064516 
vt 0.225806 -0.032258 
vt 0.129032 -0.032258 
vt 0.193548 0.064516 
vt 0.161290 0.193548 
vt 0.225806 -0.032258 
vt 0.161290 0.193548 
vt 0.322581 -0.032258 
vt 0.225806 -0.032258 
vt 0.161290 0.193548 
vt 0.032258 0.225806 
vt 0.193548 0.096774 
vt 0.032258 0.225806 
vt 0.290323 0.096774 
vt 0.193548 0.096774 
vt 0.032258 0.225806 
vt 0.096774 0.354839 
vt 0.129032 0.064516 
vt 0.096774 0.354839 
vt 0.258065 0.064516 
vt 0.129032 0.064516 
f 1/1/1 2/2/2 3/3/3
f 4/4/4 5/5/5 6/6/6
f 7/7/7 8/8/8 9/9/9
f 10/10/10 11/11/11 12/12/12
f 13/13/13 14/14/14 15/15/15
f 16/16/16 17/17/17 18/18/18
f 19/19/19 20/20/20 21/21/21
f 22/22/22 23/23/23 24/24/24
f 25/25/25 26/26/26 27/27/27
f 28/28/28 29/29/29 30/30/30
f 31/31/31 32/32/32 33/33/33
f 34/34/34 35/35/35 36/36/36
f 37/37/37 38/38/38 39/39/39
f 40/40/40 41/41/41 42/42/42
f 43/43/43 44/44/44 45/45/45
f 46/46/46 47/47/47 48/48/48
f 49/49/49 50/50/50 51/51/51
f 52/52/52 53/53/53 54/54/54
f 55/55/55 56/56/56 57/57/57
f 58/58/58 59/59/59 60/60/60
f 61/61/61 62/62/62 63/63/63
f 64/64/64 65/65/65 66/66/66
f 67/67/67 68/68/68 69/69/69
f 70/70/70 71/71/71 72/72/72
f 73/73/73 74/74/74 75/75/75
f 76/76/76 77/77/77 78/78/78
f 79/79/79 80/80/80 81/81/81
f 82/82/82 83/83/83 84/84/84
f 85/85/85 86/86/86 87/87/87
f 88/88/88 89/89/89 90/90/90
f 91/91/91 92/92/92 93/93/93
f 94/94/94 95/95/95 96/96/96
