v -56.000000 2.000000 -6.000000 
v -59.000000 3.000000 -9.000000 
v -58.000000 6.000000 -6.000000 
v -56.000000 2.000000 -6.000000 
v -58.000000 0.000000 -8.000000 
v -59.000000 3.000000 -9.000000 
v -56.000000 2.000000 -6.000000 
v -58.000000 0.000000 -1.000000 
v -58.000000 0.000000 -8.000000 
v -56.000000 2.000000 -6.000000 
v -58.000000 5.000000 -1.000000 
v -58.000000 0.000000 -1.000000 
v -56.000000 2.000000 -6.000000 
v -58.000000 6.000000 -6.000000 
v -58.000000 5.000000 -1.000000 
v -58.000000 6.000000 -6.000000 
v -92.000000 4.000000 -15.000000 
v -91.000000 18.000000 -4.000000 
v -58.000000 6.000000 -6.000000 
v -59.000000 3.000000 -9.000000 
v -92.000000 4.000000 -15.000000 
v -59.000000 3.000000 -9.000000 
v -92.000000 -6.000000 -7.000000 
v -92.000000 4.000000 -15.000000 
v -59.000000 3.000000 -9.000000 
v -58.000000 0.000000 -8.000000 
v -92.000000 -6.000000 -7.000000 
v -58.000000 0.000000 -8.000000 
v -91.000000 -4.000000 2.000000 
v -92.000000 -6.000000 -7.000000 
v -58.000000 0.000000 -8.000000 
v -58.000000 0.000000 -1.000000 
v -91.000000 -4.000000 2.000000 
v -58.000000 0.000000 -1.000000 
v -90.000000 8.000000 0.000000 
v -91.000000 -4.000000 2.000000 
v -58.000000 0.000000 -1.000000 
v -58.000000 5.000000 -1.000000 
v -90.000000 8.000000 0.000000 
v -58.000000 5.000000 -1.000000 
v -91.000000 18.000000 -4.000000 
v -90.000000 8.000000 0.000000 
v -58.000000 5.000000 -1.000000 
v -58.000000 6.000000 -6.000000 
v -91.000000 18.000000 -4.000000 
vn 0.976807 0.053467 -0.206299 
vn 0.416992 -0.035645 -0.907959 
vn 0.400879 0.865723 -0.299316 
vn 0.976807 0.053467 -0.206299 
vn 0.336670 -0.870361 -0.358887 
vn 0.416992 -0.035645 -0.907959 
vn 0.976807 0.053467 -0.206299 
vn 0.543701 -0.455078 0.704834 
vn 0.336670 -0.870361 -0.358887 
vn 0.976807 0.053467 -0.206299 
vn 0.524170 0.582031 0.621338 
vn 0.543701 -0.455078 0.704834 
vn 0.976807 0.053467 -0.206299 
vn 0.400879 0.865723 -0.299316 
vn 0.524170 0.582031 0.621338 
vn 0.400879 0.865723 -0.299316 
vn 0.149902 0.430664 -0.889648 
vn 0.177490 0.973633 0.142822 
vn 0.400879 0.865723 -0.299316 
vn 0.416992 -0.035645 -0.907959 
vn 0.149902 0.430664 -0.889648 
vn 0.416992 -0.035645 -0.907959 
vn 0.074707 -0.848145 -0.524170 
vn 0.149902 0.430664 -0.889648 
vn 0.416992 -0.035645 -0.907959 
vn 0.336670 -0.870361 -0.358887 
vn 0.074707 -0.848145 -0.524170 
vn 0.336670 -0.870361 -0.358887 
vn 0.130127 -0.841064 0.524658 
vn 0.074707 -0.848145 -0.524170 
vn 0.336670 -0.870361 -0.358887 
vn 0.543701 -0.455078 0.704834 
vn 0.130127 -0.841064 0.524658 
vn 0.543701 -0.455078 0.704834 
vn 0.078369 0.291504 0.953125 
vn 0.130127 -0.841064 0.524658 
vn 0.543701 -0.455078 0.704834 
vn 0.524170 0.582031 0.621338 
vn 0.078369 0.291504 0.953125 
vn 0.524170 0.582031 0.621338 
vn 0.177490 0.973633 0.142822 
vn 0.078369 0.291504 0.953125 
vn 0.524170 0.582031 0.621338 
vn 0.400879 0.865723 -0.299316 
vn 0.177490 0.973633 0.142822 
vt 0.133333 0.000000 
vt 0.666667 0.000000 
vt 0.533333 0.000000 
vt 0.200000 -0.066667 
vt 0.333333 0.000000 
vt 0.200000 0.000000 
vt 0.266667 -0.066667 
vt 0.400000 0.000000 
vt 0.333333 0.000000 
vt 0.266667 -0.066667 
vt 0.466667 0.000000 
vt 0.400000 0.000000 
vt 0.133333 -0.066667 
vt 0.533333 0.000000 
vt 0.466667 0.000000 
vt 0.533333 0.000000 
vt 0.666667 0.066667 
vt 0.600000 0.066667 
vt 0.533333 0.000000 
vt 0.666667 0.000000 
vt 0.666667 0.066667 
vt 0.200000 0.000000 
vt 0.266667 0.066667 
vt 0.133333 0.066667 
vt 0.200000 0.000000 
vt 0.333333 0.000000 
vt 0.266667 0.066667 
vt 0.333333 0.000000 
vt 0.333333 0.066667 
vt 0.266667 0.066667 
vt 0.333333 0.000000 
vt 0.400000 0.000000 
vt 0.333333 0.066667 
vt 0.400000 0.000000 
vt 0.466667 0.066667 
vt 0.333333 0.066667 
vt 0.400000 0.000000 
vt 0.466667 0.000000 
vt 0.466667 0.066667 
vt 0.466667 0.000000 
vt 0.600000 0.066667 
vt 0.466667 0.066667 
vt 0.466667 0.000000 
vt 0.533333 0.000000 
vt 0.600000 0.066667 
f 1/1/1 2/2/2 3/3/3
f 4/4/4 5/5/5 6/6/6
f 7/7/7 8/8/8 9/9/9
f 10/10/10 11/11/11 12/12/12
f 13/13/13 14/14/14 15/15/15
f 16/16/16 17/17/17 18/18/18
f 19/19/19 20/20/20 21/21/21
f 22/22/22 23/23/23 24/24/24
f 25/25/25 26/26/26 27/27/27
f 28/28/28 29/29/29 30/30/30
f 31/31/31 32/32/32 33/33/33
f 34/34/34 35/35/35 36/36/36
f 37/37/37 38/38/38 39/39/39
f 40/40/40 41/41/41 42/42/42
f 43/43/43 44/44/44 45/45/45
