v 0.000000 6.000000 26.000000 
v 2.000000 1.000000 22.000000 
v 1.000000 10.000000 11.000000 
v 0.000000 6.000000 26.000000 
v 1.000000 10.000000 11.000000 
v -4.000000 10.000000 11.000000 
v 0.000000 6.000000 26.000000 
v -4.000000 10.000000 11.000000 
v -2.000000 6.000000 26.000000 
v -2.000000 6.000000 26.000000 
v -4.000000 10.000000 11.000000 
v -5.000000 2.000000 23.000000 
v 2.000000 1.000000 22.000000 
v 3.000000 1.000000 3.000000 
v 1.000000 10.000000 11.000000 
v -4.000000 10.000000 11.000000 
v -5.000000 2.000000 3.000000 
v -5.000000 2.000000 23.000000 
v -1.000000 -2.000000 19.000000 
v -5.000000 2.000000 23.000000 
v -1.000000 -7.000000 -4.000000 
v -5.000000 2.000000 23.000000 
v -5.000000 2.000000 3.000000 
v -1.000000 -7.000000 -4.000000 
v -1.000000 -2.000000 19.000000 
v -1.000000 -7.000000 -4.000000 
v 2.000000 1.000000 22.000000 
v 3.000000 1.000000 3.000000 
v 2.000000 1.000000 22.000000 
v -1.000000 -7.000000 -4.000000 
v 3.000000 1.000000 3.000000 
v -1.000000 -7.000000 -4.000000 
v -1.000000 0.000000 -8.000000 
v 1.000000 10.000000 11.000000 
v -1.000000 0.000000 -8.000000 
v -4.000000 10.000000 11.000000 
v 3.000000 1.000000 3.000000 
v -1.000000 0.000000 -8.000000 
v 1.000000 10.000000 11.000000 
v -5.000000 2.000000 23.000000 
v -1.000000 -2.000000 19.000000 
v -1.000000 -3.000000 22.000000 
v -2.000000 6.000000 26.000000 
v -1.000000 -3.000000 22.000000 
v 0.000000 6.000000 26.000000 
v -5.000000 2.000000 23.000000 
v -1.000000 -3.000000 22.000000 
v -2.000000 6.000000 26.000000 
v -1.000000 -3.000000 22.000000 
v -1.000000 -2.000000 19.000000 
v 2.000000 1.000000 22.000000 
v -1.000000 -3.000000 22.000000 
v 2.000000 1.000000 22.000000 
v 0.000000 6.000000 26.000000 
v -1.000000 0.000000 -8.000000 
v -1.000000 -7.000000 -4.000000 
v -5.000000 2.000000 3.000000 
v -1.000000 0.000000 -8.000000 
v -5.000000 2.000000 3.000000 
v -4.000000 10.000000 11.000000 
vn 0.438965 0.479492 0.759766 
vn 0.925049 -0.316406 0.209229 
vn 0.675049 0.731934 -0.090088 
vn 0.438965 0.479492 0.759766 
vn 0.675049 0.731934 -0.090088 
vn -0.539307 0.841309 -0.030762 
vn 0.438965 0.479492 0.759766 
vn -0.539307 0.841309 -0.030762 
vn -0.503418 0.252930 0.825928 
vn -0.503418 0.252930 0.825928 
vn -0.539307 0.841309 -0.030762 
vn -0.942383 -0.277344 0.185791 
vn 0.925049 -0.316406 0.209229 
vn 0.985107 0.005859 -0.170410 
vn 0.675049 0.731934 -0.090088 
vn -0.539307 0.841309 -0.030762 
vn -0.977783 0.035400 -0.205566 
vn -0.942383 -0.277344 0.185791 
vn -0.036621 -0.999023 -0.023682 
vn -0.942383 -0.277344 0.185791 
vn -0.029541 -0.993408 -0.108643 
vn -0.942383 -0.277344 0.185791 
vn -0.977783 0.035400 -0.205566 
vn -0.029541 -0.993408 -0.108643 
vn -0.036621 -0.999023 -0.023682 
vn -0.029541 -0.993408 -0.108643 
vn 0.925049 -0.316406 0.209229 
vn 0.985107 0.005859 -0.170410 
vn 0.925049 -0.316406 0.209229 
vn -0.029541 -0.993408 -0.108643 
vn 0.985107 0.005859 -0.170410 
vn -0.029541 -0.993408 -0.108643 
vn 0.023682 0.620850 -0.783447 
vn 0.675049 0.731934 -0.090088 
vn 0.023682 0.620850 -0.783447 
vn -0.539307 0.841309 -0.030762 
vn 0.985107 0.005859 -0.170410 
vn 0.023682 0.620850 -0.783447 
vn 0.675049 0.731934 -0.090088 
vn -0.942383 -0.277344 0.185791 
vn -0.036621 -0.999023 -0.023682 
vn -0.007324 -0.720947 0.692627 
vn -0.503418 0.252930 0.825928 
vn -0.007324 -0.720947 0.692627 
vn 0.438965 0.479492 0.759766 
vn -0.942383 -0.277344 0.185791 
vn -0.007324 -0.720947 0.692627 
vn -0.503418 0.252930 0.825928 
vn -0.007324 -0.720947 0.692627 
vn -0.036621 -0.999023 -0.023682 
vn 0.925049 -0.316406 0.209229 
vn -0.007324 -0.720947 0.692627 
vn 0.925049 -0.316406 0.209229 
vn 0.438965 0.479492 0.759766 
vn 0.023682 0.620850 -0.783447 
vn -0.029541 -0.993408 -0.108643 
vn -0.977783 0.035400 -0.205566 
vn 0.023682 0.620850 -0.783447 
vn -0.977783 0.035400 -0.205566 
vn -0.539307 0.841309 -0.030762 
vt 0.385827 0.149606 
vt 0.409449 0.110236 
vt 0.448819 0.125984 
vt 0.385827 0.149606 
vt 0.448819 0.125984 
vt 0.362205 0.196850 
vt 0.385827 0.149606 
vt 0.362205 0.196850 
vt 0.283465 0.141732 
vt 0.283465 0.141732 
vt 0.362205 0.196850 
vt 0.283465 0.181102 
vt 0.409449 0.110236 
vt 0.417323 0.283465 
vt 0.448819 0.125984 
vt 0.362205 0.196850 
vt 0.283465 0.259843 
vt 0.283465 0.181102 
vt 0.338583 0.165354 
vt 0.283465 0.181102 
vt 0.362205 0.330709 
vt 0.283465 0.181102 
vt 0.283465 0.259843 
vt 0.362205 0.330709 
vt 0.338583 0.165354 
vt 0.362205 0.330709 
vt 0.409449 0.110236 
vt 0.417323 0.283465 
vt 0.409449 0.110236 
vt 0.362205 0.330709 
vt 0.417323 0.283465 
vt 0.362205 0.330709 
vt 0.346457 0.267717 
vt 0.448819 0.125984 
vt 0.346457 0.267717 
vt 0.362205 0.196850 
vt 0.417323 0.283465 
vt 0.346457 0.267717 
vt 0.448819 0.125984 
vt 0.283465 0.181102 
vt 0.338583 0.165354 
vt 0.346457 0.149606 
vt 0.283465 0.141732 
vt 0.346457 0.149606 
vt 0.385827 0.149606 
vt 0.283465 0.181102 
vt 0.346457 0.149606 
vt 0.283465 0.141732 
vt 0.346457 0.149606 
vt 0.338583 0.165354 
vt 0.409449 0.110236 
vt 0.346457 0.149606 
vt 0.409449 0.110236 
vt 0.385827 0.149606 
vt 0.346457 0.267717 
vt 0.362205 0.330709 
vt 0.283465 0.259843 
vt 0.346457 0.267717 
vt 0.283465 0.259843 
vt 0.362205 0.196850 
f 1/1/1 2/2/2 3/3/3
f 4/4/4 5/5/5 6/6/6
f 7/7/7 8/8/8 9/9/9
f 10/10/10 11/11/11 12/12/12
f 13/13/13 14/14/14 15/15/15
f 16/16/16 17/17/17 18/18/18
f 19/19/19 20/20/20 21/21/21
f 22/22/22 23/23/23 24/24/24
f 25/25/25 26/26/26 27/27/27
f 28/28/28 29/29/29 30/30/30
f 31/31/31 32/32/32 33/33/33
f 34/34/34 35/35/35 36/36/36
f 37/37/37 38/38/38 39/39/39
f 40/40/40 41/41/41 42/42/42
f 43/43/43 44/44/44 45/45/45
f 46/46/46 47/47/47 48/48/48
f 49/49/49 50/50/50 51/51/51
f 52/52/52 53/53/53 54/54/54
f 55/55/55 56/56/56 57/57/57
f 58/58/58 59/59/59 60/60/60
