v -6.000000 -6.000000 733.000000 
v -6.000000 -6.000000 340.000000 
v -400.000000 -6.000000 -53.000000 
v 780.000000 -6.000000 733.000000 
v 386.000000 -6.000000 -53.000000 
v 386.000000 -6.000000 733.000000 
v 386.000000 -6.000000 -53.000000 
v 780.000000 -6.000000 733.000000 
v 794.000000 -6.000000 -55.000000 
v 393.000000 -6.000000 -1037.000000 
v 1321.000000 -6.000000 -56.000000 
v 1321.000000 -6.000000 -1039.000000 
v 794.000000 -6.000000 -55.000000 
v 390.000000 -6.000000 -545.000000 
v 386.000000 -6.000000 -53.000000 
v 1321.000000 -6.000000 -56.000000 
v 393.000000 -6.000000 -1037.000000 
v 794.000000 -6.000000 -55.000000 
v -790.000000 -6.000000 733.000000 
v -396.000000 -6.000000 733.000000 
v -400.000000 -6.000000 -53.000000 
v -400.000000 -6.000000 -53.000000 
v -1264.000000 -6.000000 340.000000 
v -790.000000 -6.000000 733.000000 
v -400.000000 -6.000000 -53.000000 
v 386.000000 -6.000000 -53.000000 
v -393.000000 -6.000000 -545.000000 
v -400.000000 -6.000000 -53.000000 
v -787.000000 -6.000000 -545.000000 
v -790.000000 -6.000000 -53.000000 
v -393.000000 -6.000000 -545.000000 
v 390.000000 -6.000000 -545.000000 
v 393.000000 -6.000000 -1037.000000 
v 794.000000 -6.000000 -55.000000 
v 393.000000 -6.000000 -1037.000000 
v 390.000000 -6.000000 -545.000000 
v 765.000000 1.000000 155.000000 
v 1305.000000 1.000000 803.000000 
v 1304.000000 1.000000 157.000000 
v 765.000000 1.000000 -367.000000 
v 1304.000000 1.000000 157.000000 
v 1304.000000 1.000000 -366.000000 
v 1305.000000 1.000000 803.000000 
v 765.000000 1.000000 155.000000 
v 765.000000 1.000000 803.000000 
v 1304.000000 1.000000 157.000000 
v 765.000000 1.000000 -367.000000 
v 765.000000 1.000000 155.000000 
v -1264.000000 -6.000000 733.000000 
v -790.000000 -6.000000 733.000000 
v -1264.000000 -6.000000 340.000000 
v -790.000000 -6.000000 -53.000000 
v -1264.000000 -6.000000 -53.000000 
v -1264.000000 -6.000000 340.000000 
v -1264.000000 -6.000000 -544.000000 
v -1264.000000 -6.000000 -53.000000 
v -790.000000 -6.000000 -53.000000 
v -1264.000000 -6.000000 -544.000000 
v -787.000000 -6.000000 -545.000000 
v -1264.000000 -6.000000 -1036.000000 
v -387.000000 -6.000000 -1037.000000 
v -1264.000000 -6.000000 -1036.000000 
v -393.000000 -6.000000 -545.000000 
v 393.000000 -6.000000 -1037.000000 
v -387.000000 -6.000000 -1037.000000 
v -393.000000 -6.000000 -545.000000 
v -393.000000 -6.000000 -545.000000 
v 386.000000 -6.000000 -53.000000 
v 390.000000 -6.000000 -545.000000 
v -400.000000 -6.000000 -53.000000 
v -6.000000 -6.000000 340.000000 
v 386.000000 -6.000000 -53.000000 
v -6.000000 -6.000000 733.000000 
v -400.000000 -6.000000 -53.000000 
v -396.000000 -6.000000 733.000000 
v -1264.000000 -6.000000 -544.000000 
v -790.000000 -6.000000 -53.000000 
v -787.000000 -6.000000 -545.000000 
v -400.000000 -6.000000 -53.000000 
v -790.000000 -6.000000 -53.000000 
v -1264.000000 -6.000000 340.000000 
v -787.000000 -6.000000 -545.000000 
v -393.000000 -6.000000 -545.000000 
v -1264.000000 -6.000000 -1036.000000 
v -400.000000 -6.000000 -53.000000 
v -393.000000 -6.000000 -545.000000 
v -787.000000 -6.000000 -545.000000 
v -6.000000 -6.000000 340.000000 
v 386.000000 -6.000000 733.000000 
v 386.000000 -6.000000 -53.000000 
v -6.000000 -6.000000 733.000000 
v 386.000000 -6.000000 733.000000 
v -6.000000 -6.000000 340.000000 
v 386.000000 -6.000000 733.000000 
v 1314.000000 -6.000000 1714.000000 
v 1314.000000 -6.000000 731.000000 
v 787.000000 -6.000000 1715.000000 
v 383.000000 -6.000000 1719.000000 
v 380.000000 -6.000000 1717.000000 
v 1314.000000 -6.000000 1714.000000 
v 386.000000 -6.000000 733.000000 
v 787.000000 -6.000000 1715.000000 
v -400.000000 -6.000000 1719.000000 
v 383.000000 -6.000000 1719.000000 
v 386.000000 -6.000000 733.000000 
v 787.000000 -6.000000 1715.000000 
v 386.000000 -6.000000 733.000000 
v 383.000000 -6.000000 1719.000000 
v -1264.000000 -6.000000 1719.000000 
v -793.000000 -6.000000 1719.000000 
v -1264.000000 -6.000000 733.000000 
v -396.000000 -6.000000 733.000000 
v -1264.000000 -6.000000 733.000000 
v -400.000000 -6.000000 1719.000000 
v 386.000000 -6.000000 733.000000 
v -396.000000 -6.000000 733.000000 
v -400.000000 -6.000000 1719.000000 
v -793.000000 -6.000000 1719.000000 
v -400.000000 -6.000000 1719.000000 
v -1264.000000 -6.000000 733.000000 
vn 0.000000 1.000000 0.000000 
vn 0.000000 1.000000 0.000000 
vn 0.000000 1.000000 0.000000 
vn 0.000000 1.000000 0.000000 
vn 0.000000 1.000000 0.000000 
vn 0.000000 1.000000 0.000000 
vn 0.000000 1.000000 0.000000 
vn 0.000000 1.000000 0.000000 
vn 0.000000 1.000000 0.000000 
vn 0.000000 1.000000 0.000000 
vn 0.000000 1.000000 0.000000 
vn 0.000000 1.000000 0.000000 
vn 0.000000 1.000000 0.000000 
vn 0.000000 1.000000 0.000000 
vn 0.000000 1.000000 0.000000 
vn 0.000000 1.000000 0.000000 
vn 0.000000 1.000000 0.000000 
vn 0.000000 1.000000 0.000000 
vn 0.000000 1.000000 0.000000 
vn 0.000000 1.000000 0.000000 
vn 0.000000 1.000000 0.000000 
vn 0.000000 1.000000 0.000000 
vn 0.000000 1.000000 0.000000 
vn 0.000000 1.000000 0.000000 
vn 0.000000 1.000000 0.000000 
vn 0.000000 1.000000 0.000000 
vn 0.000000 1.000000 0.000000 
vn 0.000000 1.000000 0.000000 
vn 0.000000 1.000000 0.000000 
vn 0.000000 1.000000 0.000000 
vn 0.000000 1.000000 0.000000 
vn 0.000000 1.000000 0.000000 
vn 0.000000 1.000000 0.000000 
vn 0.000000 1.000000 0.000000 
vn 0.000000 1.000000 0.000000 
vn 0.000000 1.000000 0.000000 
vn 0.000000 1.000000 0.000000 
vn 0.000000 1.000000 0.000000 
vn 0.000000 1.000000 0.000000 
vn 0.000000 1.000000 0.000000 
vn 0.000000 1.000000 0.000000 
vn 0.000000 1.000000 0.000000 
vn 0.000000 1.000000 0.000000 
vn 0.000000 1.000000 0.000000 
vn 0.000000 1.000000 0.000000 
vn 0.000000 1.000000 0.000000 
vn 0.000000 1.000000 0.000000 
vn 0.000000 1.000000 0.000000 
vn 0.000000 1.000000 0.000000 
vn 0.000000 1.000000 0.000000 
vn 0.000000 1.000000 0.000000 
vn 0.000000 1.000000 0.000000 
vn 0.000000 1.000000 0.000000 
vn 0.000000 1.000000 0.000000 
vn 0.000000 1.000000 0.000000 
vn 0.000000 1.000000 0.000000 
vn 0.000000 1.000000 0.000000 
vn 0.000000 1.000000 0.000000 
vn 0.000000 1.000000 0.000000 
vn 0.000000 1.000000 0.000000 
vn 0.000000 1.000000 0.000000 
vn 0.000000 1.000000 0.000000 
vn 0.000000 1.000000 0.000000 
vn 0.000000 1.000000 0.000000 
vn 0.000000 1.000000 0.000000 
vn 0.000000 1.000000 0.000000 
vn 0.000000 1.000000 0.000000 
vn 0.000000 1.000000 0.000000 
vn 0.000000 1.000000 0.000000 
vn 0.000000 1.000000 0.000000 
vn 0.000000 1.000000 0.000000 
vn 0.000000 1.000000 0.000000 
vn 0.000000 1.000000 0.000000 
vn 0.000000 1.000000 0.000000 
vn 0.000000 1.000000 0.000000 
vn 0.000000 1.000000 0.000000 
vn 0.000000 1.000000 0.000000 
vn 0.000000 1.000000 0.000000 
vn 0.000000 1.000000 0.000000 
vn 0.000000 1.000000 0.000000 
vn 0.000000 1.000000 0.000000 
vn 0.000000 1.000000 0.000000 
vn 0.000000 1.000000 0.000000 
vn 0.000000 1.000000 0.000000 
vn 0.000000 1.000000 0.000000 
vn 0.000000 1.000000 0.000000 
vn 0.000000 1.000000 0.000000 
vn 0.000000 1.000000 0.000000 
vn 0.000000 1.000000 0.000000 
vn 0.000000 1.000000 0.000000 
vn 0.000000 1.000000 0.000000 
vn 0.000000 1.000000 0.000000 
vn 0.000000 1.000000 0.000000 
vn 0.000000 1.000000 0.000000 
vn 0.000000 1.000000 0.000000 
vn 0.000000 1.000000 0.000000 
vn 0.000000 1.000000 0.000000 
vn 0.000000 1.000000 0.000000 
vn 0.000000 -1.000000 0.000000 
vn 0.000000 1.000000 0.000000 
vn 0.000000 1.000000 0.000000 
vn 0.000000 1.000000 0.000000 
vn 0.000000 1.000000 0.000000 
vn 0.000000 1.000000 0.000000 
vn 0.000000 1.000000 0.000000 
vn 0.000000 1.000000 0.000000 
vn 0.000000 1.000000 0.000000 
vn 0.000000 1.000000 0.000000 
vn 0.000000 1.000000 0.000000 
vn 0.000000 1.000000 0.000000 
vn 0.000000 1.000000 0.000000 
vn 0.000000 1.000000 0.000000 
vn 0.000000 1.000000 0.000000 
vn 0.000000 1.000000 0.000000 
vn 0.000000 1.000000 0.000000 
vn 0.000000 1.000000 0.000000 
vn 0.000000 1.000000 0.000000 
vn 0.000000 1.000000 0.000000 
vn 0.000000 1.000000 0.000000 
vn 0.000000 1.000000 0.000000 
vt 0.669291 0.401575 
vt 0.433071 0.535433 
vt 0.000000 0.456693 
vt 1.000000 1.000000 
vt 0.480315 -0.007874 
vt 0.480315 1.000000 
vt 0.480315 -0.007874 
vt 1.000000 1.000000 
vt 1.000000 -0.007874 
vt 1.000000 0.000000 
vt 0.000000 1.000000 
vt 1.000000 1.000000 
vt 0.000000 0.503937 
vt 0.496063 0.000000 
vt 0.000000 0.000000 
vt 0.000000 1.000000 
vt 1.000000 0.000000 
vt 0.000000 0.503937 
vt 0.496063 1.000000 
vt 0.000000 1.000000 
vt 0.000000 -0.007874 
vt 0.000000 -0.007874 
vt 1.000000 0.496063 
vt 0.496063 1.000000 
vt 0.000000 0.149606 
vt 0.000000 0.992126 
vt 0.417323 0.149606 
vt 0.000000 1.000000 
vt 0.496063 0.055118 
vt 0.488189 1.000000 
vt 0.000000 -0.007874 
vt 0.000000 0.779528 
vt 0.897638 0.779528 
vt 0.000000 0.503937 
vt 1.000000 0.000000 
vt 0.496063 0.000000 
vt 0.000000 0.007874 
vt 0.496063 0.763780 
vt 0.496063 0.007874 
vt 0.000000 0.133858 
vt 0.496063 0.763780 
vt 0.496063 0.133858 
vt 0.496063 0.763780 
vt 0.000000 0.007874 
vt 0.000000 0.763780 
vt 0.496063 0.763780 
vt 0.000000 0.133858 
vt 0.000000 0.763780 
vt 1.000000 1.000000 
vt 0.496063 1.000000 
vt 1.000000 0.496063 
vt 0.496063 -0.007874 
vt 1.000000 -0.007874 
vt 1.000000 0.496063 
vt 0.992126 0.055118 
vt 1.000000 1.000000 
vt 0.488189 1.000000 
vt 1.000000 1.000000 
vt 0.488189 1.000000 
vt 1.000000 -0.007874 
vt 0.637795 1.000000 
vt 1.000000 -0.007874 
vt 0.000000 1.000000 
vt 0.897638 0.779528 
vt 0.779528 0.000000 
vt 0.000000 -0.007874 
vt 0.417323 0.149606 
vt 0.000000 0.992126 
vt 0.417323 0.992126 
vt 0.000000 0.456693 
vt 0.433071 0.535433 
vt 0.291339 0.905512 
vt 0.669291 0.401575 
vt 0.000000 0.456693 
vt 0.511811 0.094488 
vt 0.992126 0.055118 
vt 0.488189 1.000000 
vt 0.496063 0.055118 
vt 0.000000 -0.007874 
vt 0.496063 -0.007874 
vt 1.000000 0.496063 
vt 0.488189 1.000000 
vt 0.000000 1.000000 
vt 1.000000 -0.007874 
vt 0.000000 1.000000 
vt 0.000000 0.055118 
vt 0.496063 0.055118 
vt 0.433071 0.535433 
vt 0.866142 0.614173 
vt 0.291339 0.905512 
vt 0.669291 0.401575 
vt 0.866142 0.614173 
vt 0.433071 0.535433 
vt 1.000000 0.000000 
vt 0.000000 1.000000 
vt 1.000000 1.000000 
vt 0.000000 0.503937 
vt 0.496063 0.000000 
vt 0.000000 0.000000 
vt 0.000000 1.000000 
vt 1.000000 0.000000 
vt 0.000000 0.503937 
vt 0.212598 0.000000 
vt 0.212598 1.000000 
vt 0.905512 1.000000 
vt 0.000000 0.503937 
vt 1.000000 0.000000 
vt 0.496063 0.000000 
vt 1.000000 1.000000 
vt 0.488189 1.000000 
vt 1.000000 -0.007874 
vt 0.637795 1.000000 
vt 1.000000 -0.007874 
vt 0.000000 1.000000 
vt 0.905512 1.000000 
vt 0.779528 0.000000 
vt 0.212598 0.000000 
vt 0.488189 1.000000 
vt 0.000000 1.000000 
vt 1.000000 -0.007874 
f 1/1/1 2/2/2 3/3/3
f 4/4/4 5/5/5 6/6/6
f 7/7/7 8/8/8 9/9/9
f 10/10/10 11/11/11 12/12/12
f 13/13/13 14/14/14 15/15/15
f 16/16/16 17/17/17 18/18/18
f 19/19/19 20/20/20 21/21/21
f 22/22/22 23/23/23 24/24/24
f 25/25/25 26/26/26 27/27/27
f 28/28/28 29/29/29 30/30/30
f 31/31/31 32/32/32 33/33/33
f 34/34/34 35/35/35 36/36/36
f 37/37/37 38/38/38 39/39/39
f 40/40/40 41/41/41 42/42/42
f 43/43/43 44/44/44 45/45/45
f 46/46/46 47/47/47 48/48/48
f 49/49/49 50/50/50 51/51/51
f 52/52/52 53/53/53 54/54/54
f 55/55/55 56/56/56 57/57/57
f 58/58/58 59/59/59 60/60/60
f 61/61/61 62/62/62 63/63/63
f 64/64/64 65/65/65 66/66/66
f 67/67/67 68/68/68 69/69/69
f 70/70/70 71/71/71 72/72/72
f 73/73/73 74/74/74 75/75/75
f 76/76/76 77/77/77 78/78/78
f 79/79/79 80/80/80 81/81/81
f 82/82/82 83/83/83 84/84/84
f 85/85/85 86/86/86 87/87/87
f 88/88/88 89/89/89 90/90/90
f 91/91/91 92/92/92 93/93/93
f 94/94/94 95/95/95 96/96/96
f 97/97/97 98/98/98 99/99/99
f 100/100/100 101/101/101 102/102/102
f 103/103/103 104/104/104 105/105/105
f 106/106/106 107/107/107 108/108/108
f 109/109/109 110/110/110 111/111/111
f 112/112/112 113/113/113 114/114/114
f 115/115/115 116/116/116 117/117/117
f 118/118/118 119/119/119 120/120/120
