v 18.000000 9.000000 0.000000 
v 15.000000 5.000000 -12.000000 
v 0.000000 12.000000 -13.000000 
v 4.000000 17.000000 3.000000 
v 18.000000 9.000000 0.000000 
v 0.000000 12.000000 -13.000000 
v 19.000000 5.000000 9.000000 
v 18.000000 9.000000 0.000000 
v 4.000000 17.000000 3.000000 
v 6.000000 12.000000 12.000000 
v 19.000000 5.000000 9.000000 
v 4.000000 17.000000 3.000000 
v 21.000000 -4.000000 16.000000 
v 19.000000 5.000000 9.000000 
v 6.000000 12.000000 12.000000 
v 6.000000 -1.000000 -8.000000 
v 8.000000 12.000000 3.000000 
v 44.000000 12.000000 0.000000 
v 41.000000 0.000000 -12.000000 
v 6.000000 -1.000000 -8.000000 
v 44.000000 12.000000 0.000000 
v 44.000000 12.000000 0.000000 
v 8.000000 12.000000 3.000000 
v 47.000000 0.000000 12.000000 
v 19.000000 -13.000000 1.000000 
v 6.000000 -1.000000 -8.000000 
v 41.000000 0.000000 -12.000000 
v 44.000000 -13.000000 0.000000 
v 19.000000 -13.000000 1.000000 
v 41.000000 0.000000 -12.000000 
v 11.000000 -1.000000 15.000000 
v 19.000000 -13.000000 1.000000 
v 44.000000 -13.000000 0.000000 
v 47.000000 0.000000 12.000000 
v 11.000000 -1.000000 15.000000 
v 44.000000 -13.000000 0.000000 
v 8.000000 12.000000 3.000000 
v 11.000000 -1.000000 15.000000 
v 47.000000 0.000000 12.000000 
vn 0.890381 0.415771 -0.184326 
vn 0.831787 0.326904 -0.447998 
vn 0.691650 0.565186 -0.449219 
vn 0.758057 0.651855 -0.004883 
vn 0.890381 0.415771 -0.184326 
vn 0.691650 0.565186 -0.449219 
vn 0.916260 0.384033 0.113281 
vn 0.890381 0.415771 -0.184326 
vn 0.758057 0.651855 -0.004883 
vn 0.758301 0.538574 0.366943 
vn 0.916260 0.384033 0.113281 
vn 0.758057 0.651855 -0.004883 
vn 0.941650 0.239258 0.236084 
vn 0.916260 0.384033 0.113281 
vn 0.758301 0.538574 0.366943 
vn -0.039307 0.298828 -0.953369 
vn -0.024170 0.939453 0.341064 
vn 0.010010 0.999756 -0.012451 
vn -0.134033 0.010986 -0.990723 
vn -0.039307 0.298828 -0.953369 
vn 0.010010 0.999756 -0.012451 
vn 0.010010 0.999756 -0.012451 
vn -0.024170 0.939453 0.341064 
vn 0.143799 -0.013428 0.989258 
vn 0.057129 -0.934082 -0.352295 
vn -0.039307 0.298828 -0.953369 
vn -0.134033 0.010986 -0.990723 
vn 0.008301 -0.999756 -0.004883 
vn 0.057129 -0.934082 -0.352295 
vn -0.134033 0.010986 -0.990723 
vn 0.009277 -0.335693 0.941650 
vn 0.057129 -0.934082 -0.352295 
vn 0.008301 -0.999756 -0.004883 
vn 0.143799 -0.013428 0.989258 
vn 0.009277 -0.335693 0.941650 
vn 0.008301 -0.999756 -0.004883 
vn -0.024170 0.939453 0.341064 
vn 0.009277 -0.335693 0.941650 
vn 0.143799 -0.013428 0.989258 
vt 0.669291 0.574803 
vt 0.685039 0.716535 
vt 0.653543 0.755906 
vt 0.629921 0.574803 
vt 0.669291 0.574803 
vt 0.653543 0.755906 
vt 0.685039 0.440945 
vt 0.669291 0.574803 
vt 0.629921 0.574803 
vt 0.653543 0.401575 
vt 0.685039 0.440945 
vt 0.629921 0.574803 
vt 0.740157 0.338583 
vt 0.685039 0.440945 
vt 0.653543 0.401575 
vt 0.818898 1.000000 
vt 0.976378 1.000000 
vt 0.976378 0.661417 
vt 0.818898 0.661417 
vt 0.818898 1.000000 
vt 0.976378 0.661417 
vt 0.976378 0.661417 
vt 0.976378 1.000000 
vt 0.818898 0.661417 
vt 0.653543 1.000000 
vt 0.818898 1.000000 
vt 0.818898 0.661417 
vt 0.653543 0.661417 
vt 0.653543 1.000000 
vt 0.818898 0.661417 
vt 0.818898 1.000000 
vt 0.653543 1.000000 
vt 0.653543 0.661417 
vt 0.818898 0.661417 
vt 0.818898 1.000000 
vt 0.653543 0.661417 
vt 0.976378 1.000000 
vt 0.818898 1.000000 
vt 0.818898 0.661417 
f 1/1/1 2/2/2 3/3/3
f 4/4/4 5/5/5 6/6/6
f 7/7/7 8/8/8 9/9/9
f 10/10/10 11/11/11 12/12/12
f 13/13/13 14/14/14 15/15/15
f 16/16/16 17/17/17 18/18/18
f 19/19/19 20/20/20 21/21/21
f 22/22/22 23/23/23 24/24/24
f 25/25/25 26/26/26 27/27/27
f 28/28/28 29/29/29 30/30/30
f 31/31/31 32/32/32 33/33/33
f 34/34/34 35/35/35 36/36/36
f 37/37/37 38/38/38 39/39/39
