v -25.000000 -19.000000 -27.000000 
v -25.000000 0.000000 -33.000000 
v 10.000000 0.000000 -28.000000 
v 10.000000 -18.000000 -23.000000 
v -25.000000 -19.000000 -27.000000 
v 10.000000 0.000000 -28.000000 
v 10.000000 0.000000 -28.000000 
v -25.000000 0.000000 -33.000000 
v 10.000000 19.000000 -23.000000 
v -25.000000 0.000000 -33.000000 
v -25.000000 20.000000 -27.000000 
v 10.000000 19.000000 -23.000000 
v -3.000000 0.000000 -26.000000 
v -17.000000 0.000000 -21.000000 
v -3.000000 18.000000 -22.000000 
vn 0.270264 -0.376953 -0.885742 
vn 0.280762 0.084961 -0.955811 
vn 0.235840 0.000000 -0.971680 
vn 0.205322 -0.407471 -0.889648 
vn 0.270264 -0.376953 -0.885742 
vn 0.235840 0.000000 -0.971680 
vn 0.235840 0.000000 -0.971680 
vn 0.280762 0.084961 -0.955811 
vn 0.239502 0.392334 -0.887939 
vn 0.280762 0.084961 -0.955811 
vn 0.226074 0.468018 -0.854248 
vn 0.239502 0.392334 -0.887939 
vn -0.649902 -0.067627 -0.756592 
vn -0.871826 0.038818 -0.487793 
vn -0.655762 0.271240 -0.704346 
vt 0.188976 0.007874 
vt 0.275591 0.007874 
vt 0.275591 0.125984 
vt 0.188976 0.125984 
vt 0.188976 0.007874 
vt 0.275591 0.125984 
vt 0.275591 0.125984 
vt 0.275591 0.007874 
vt 0.393701 0.125984 
vt 0.275591 0.007874 
vt 0.393701 0.007874 
vt 0.393701 0.125984 
vt 0.818898 0.929134 
vt 0.818898 0.850394 
vt 0.724409 0.881890 
f 1/1/1 2/2/2 3/3/3
f 4/4/4 5/5/5 6/6/6
f 7/7/7 8/8/8 9/9/9
f 10/10/10 11/11/11 12/12/12
f 13/13/13 14/14/14 15/15/15
