v 297.000000 499.000000 -22.000000 
v 297.000000 479.000000 -22.000000 
v 297.000000 479.000000 335.000000 
v 297.000000 479.000000 335.000000 
v 297.000000 499.000000 335.000000 
v 297.000000 499.000000 -22.000000 
v 650.000000 499.000000 -312.000000 
v 650.000000 479.000000 -312.000000 
v 650.000000 479.000000 -22.000000 
v 650.000000 479.000000 -22.000000 
v 650.000000 499.000000 -22.000000 
v 650.000000 499.000000 -312.000000 
v 969.000000 499.000000 -638.000000 
v 969.000000 479.000000 -638.000000 
v 650.000000 479.000000 -638.000000 
v 650.000000 479.000000 -638.000000 
v 650.000000 499.000000 -638.000000 
v 969.000000 499.000000 -638.000000 
v 650.000000 499.000000 -638.000000 
v 650.000000 479.000000 -638.000000 
v 650.000000 479.000000 -312.000000 
v 650.000000 479.000000 -312.000000 
v 650.000000 499.000000 -312.000000 
v 650.000000 499.000000 -638.000000 
v 650.000000 499.000000 -153.000000 
v 650.000000 479.000000 -153.000000 
v 297.000000 479.000000 -153.000000 
v 297.000000 479.000000 -153.000000 
v 297.000000 499.000000 -153.000000 
v 650.000000 499.000000 -153.000000 
v 297.000000 499.000000 -22.000000 
v 297.000000 479.000000 -153.000000 
v 297.000000 479.000000 -22.000000 
v 297.000000 479.000000 -153.000000 
v 297.000000 499.000000 -22.000000 
v 297.000000 499.000000 -153.000000 
vn -1.000000 0.000000 0.000000 
vn -1.000000 0.000000 0.000000 
vn -1.000000 0.000000 0.000000 
vn -1.000000 0.000000 0.000000 
vn -1.000000 0.000000 0.000000 
vn -1.000000 0.000000 0.000000 
vn -1.000000 0.000000 0.000000 
vn -1.000000 0.000000 0.000000 
vn -1.000000 0.000000 0.000000 
vn -1.000000 0.000000 0.000000 
vn -1.000000 0.000000 0.000000 
vn -1.000000 0.000000 0.000000 
vn 0.000000 0.000000 -1.000000 
vn 0.000000 0.000000 -1.000000 
vn 0.000000 0.000000 -1.000000 
vn 0.000000 0.000000 -1.000000 
vn 0.000000 0.000000 -1.000000 
vn 0.000000 0.000000 -1.000000 
vn -1.000000 0.000000 0.000000 
vn -1.000000 0.000000 0.000000 
vn -1.000000 0.000000 0.000000 
vn -1.000000 0.000000 0.000000 
vn -1.000000 0.000000 0.000000 
vn -1.000000 0.000000 0.000000 
vn 0.000000 0.000000 -1.000000 
vn 0.000000 0.000000 -1.000000 
vn 0.000000 0.000000 -1.000000 
vn 0.000000 0.000000 -1.000000 
vn 0.000000 0.000000 -1.000000 
vn 0.000000 0.000000 -1.000000 
vn -1.000000 0.000000 0.000000 
vn -1.000000 0.000000 0.000000 
vn -1.000000 0.000000 0.000000 
vn -1.000000 0.000000 0.000000 
vn -1.000000 0.000000 0.000000 
vn -1.000000 0.000000 0.000000 
vt 1.000000 0.838710 
vt 1.000000 0.129032 
vt 0.267717 0.129032 
vt 0.267717 0.129032 
vt 0.267717 0.838710 
vt 1.000000 0.838710 
vt 0.677165 0.838710 
vt 0.677165 0.129032 
vt 0.000000 0.129032 
vt 0.000000 0.129032 
vt 0.000000 0.838710 
vt 0.677165 0.838710 
vt 0.748031 0.838710 
vt 0.748031 0.129032 
vt 0.244094 0.129032 
vt 0.244094 0.129032 
vt 0.244094 0.838710 
vt 0.748031 0.838710 
vt 1.000000 0.838710 
vt 1.000000 0.129032 
vt 0.283465 0.129032 
vt 0.283465 0.129032 
vt 0.283465 0.838710 
vt 1.000000 0.838710 
vt 0.748031 0.838710 
vt 0.748031 0.129032 
vt 0.244094 0.129032 
vt 0.244094 0.129032 
vt 0.244094 0.838710 
vt 0.748031 0.838710 
vt 0.795276 0.838710 
vt 1.000000 0.129032 
vt 0.795276 0.129032 
vt 1.000000 0.129032 
vt 0.795276 0.838710 
vt 1.000000 0.838710 
f 1/1/1 2/2/2 3/3/3
f 4/4/4 5/5/5 6/6/6
f 7/7/7 8/8/8 9/9/9
f 10/10/10 11/11/11 12/12/12
f 13/13/13 14/14/14 15/15/15
f 16/16/16 17/17/17 18/18/18
f 19/19/19 20/20/20 21/21/21
f 22/22/22 23/23/23 24/24/24
f 25/25/25 26/26/26 27/27/27
f 28/28/28 29/29/29 30/30/30
f 31/31/31 32/32/32 33/33/33
f 34/34/34 35/35/35 36/36/36
