v 190.000000 4.000000 -119.000000 
v 35.000000 4.000000 -260.000000 
v 35.000000 4.000000 -119.000000 
v 35.000000 4.000000 -260.000000 
v 190.000000 4.000000 -119.000000 
v 190.000000 4.000000 -260.000000 
v 344.000000 4.000000 -119.000000 
v 190.000000 4.000000 -260.000000 
v 190.000000 4.000000 -119.000000 
v 190.000000 4.000000 -260.000000 
v 344.000000 4.000000 -119.000000 
v 344.000000 4.000000 -260.000000 
v 190.000000 4.000000 21.000000 
v 35.000000 4.000000 -119.000000 
v 35.000000 4.000000 21.000000 
v 35.000000 4.000000 -119.000000 
v 190.000000 4.000000 21.000000 
v 190.000000 4.000000 -119.000000 
v 344.000000 4.000000 21.000000 
v 190.000000 4.000000 -119.000000 
v 190.000000 4.000000 21.000000 
v 190.000000 4.000000 -119.000000 
v 344.000000 4.000000 21.000000 
v 344.000000 4.000000 -119.000000 
v 86.000000 10.000000 -119.000000 
v -2.000000 10.000000 -308.000000 
v -56.000000 10.000000 -178.000000 
v -2.000000 10.000000 -308.000000 
v 86.000000 10.000000 -119.000000 
v 140.000000 10.000000 -249.000000 
v 229.000000 10.000000 -60.000000 
v 140.000000 10.000000 -249.000000 
v 86.000000 10.000000 -119.000000 
v 140.000000 10.000000 -249.000000 
v 229.000000 10.000000 -60.000000 
v 283.000000 10.000000 -190.000000 
v 32.000000 10.000000 10.000000 
v -56.000000 10.000000 -178.000000 
v -110.000000 10.000000 -48.000000 
v -56.000000 10.000000 -178.000000 
v 32.000000 10.000000 10.000000 
v 86.000000 10.000000 -119.000000 
v 175.000000 10.000000 69.000000 
v 86.000000 10.000000 -119.000000 
v 32.000000 10.000000 10.000000 
v 86.000000 10.000000 -119.000000 
v 175.000000 10.000000 69.000000 
v 229.000000 10.000000 -60.000000 
v -163.000000 4.000000 -181.000000 
v -136.000000 4.000000 -388.000000 
v -252.000000 4.000000 -307.000000 
v -136.000000 4.000000 -388.000000 
v -163.000000 4.000000 -181.000000 
v -48.000000 4.000000 -262.000000 
v -74.000000 4.000000 -54.000000 
v -48.000000 4.000000 -262.000000 
v -163.000000 4.000000 -181.000000 
v -48.000000 4.000000 -262.000000 
v -74.000000 4.000000 -54.000000 
v 40.000000 4.000000 -135.000000 
v -278.000000 4.000000 -100.000000 
v -252.000000 4.000000 -307.000000 
v -367.000000 4.000000 -227.000000 
v -252.000000 4.000000 -307.000000 
v -278.000000 4.000000 -100.000000 
v -163.000000 4.000000 -181.000000 
v -190.000000 4.000000 26.000000 
v -163.000000 4.000000 -181.000000 
v -278.000000 4.000000 -100.000000 
v -163.000000 4.000000 -181.000000 
v -190.000000 4.000000 26.000000 
v -74.000000 4.000000 -54.000000 
v -30.000000 10.000000 -243.000000 
v -202.000000 10.000000 -363.000000 
v -183.000000 10.000000 -223.000000 
v -202.000000 10.000000 -363.000000 
v -30.000000 10.000000 -243.000000 
v -48.000000 10.000000 -383.000000 
v 122.000000 10.000000 -263.000000 
v -48.000000 10.000000 -383.000000 
v -30.000000 10.000000 -243.000000 
v -48.000000 10.000000 -383.000000 
v 122.000000 10.000000 -263.000000 
v 104.000000 10.000000 -403.000000 
v -12.000000 10.000000 -104.000000 
v -183.000000 10.000000 -223.000000 
v -165.000000 10.000000 -83.000000 
v -183.000000 10.000000 -223.000000 
v -12.000000 10.000000 -104.000000 
v -30.000000 10.000000 -243.000000 
v 141.000000 10.000000 -124.000000 
v -30.000000 10.000000 -243.000000 
v -12.000000 10.000000 -104.000000 
v -30.000000 10.000000 -243.000000 
v 141.000000 10.000000 -124.000000 
v 122.000000 10.000000 -263.000000 
vn 0.000000 1.000000 0.000000 
vn 0.000000 1.000000 0.000000 
vn 0.000000 1.000000 0.000000 
vn 0.000000 1.000000 0.000000 
vn 0.000000 1.000000 0.000000 
vn 0.000000 1.000000 0.000000 
vn 0.000000 1.000000 0.000000 
vn 0.000000 1.000000 0.000000 
vn 0.000000 1.000000 0.000000 
vn 0.000000 1.000000 0.000000 
vn 0.000000 1.000000 0.000000 
vn 0.000000 1.000000 0.000000 
vn 0.000000 1.000000 0.000000 
vn 0.000000 1.000000 0.000000 
vn 0.000000 1.000000 0.000000 
vn 0.000000 1.000000 0.000000 
vn 0.000000 1.000000 0.000000 
vn 0.000000 1.000000 0.000000 
vn 0.000000 1.000000 0.000000 
vn 0.000000 1.000000 0.000000 
vn 0.000000 1.000000 0.000000 
vn 0.000000 1.000000 0.000000 
vn 0.000000 1.000000 0.000000 
vn 0.000000 1.000000 0.000000 
vn 0.000000 1.000000 0.000000 
vn 0.000000 1.000000 0.000000 
vn 0.000000 1.000000 0.000000 
vn 0.000000 1.000000 0.000000 
vn 0.000000 1.000000 0.000000 
vn 0.000000 1.000000 0.000000 
vn 0.000000 1.000000 0.000000 
vn 0.000000 1.000000 0.000000 
vn 0.000000 1.000000 0.000000 
vn 0.000000 1.000000 0.000000 
vn 0.000000 1.000000 0.000000 
vn 0.000000 1.000000 0.000000 
vn 0.000000 1.000000 0.000000 
vn 0.000000 1.000000 0.000000 
vn 0.000000 1.000000 0.000000 
vn 0.000000 1.000000 0.000000 
vn 0.000000 1.000000 0.000000 
vn 0.000000 1.000000 0.000000 
vn 0.000000 1.000000 0.000000 
vn 0.000000 1.000000 0.000000 
vn 0.000000 1.000000 0.000000 
vn 0.000000 1.000000 0.000000 
vn 0.000000 1.000000 0.000000 
vn 0.000000 1.000000 0.000000 
vn 0.000000 1.000000 0.000000 
vn 0.000000 1.000000 0.000000 
vn 0.000000 1.000000 0.000000 
vn 0.000000 1.000000 0.000000 
vn 0.000000 1.000000 0.000000 
vn 0.000000 1.000000 0.000000 
vn 0.000000 1.000000 0.000000 
vn 0.000000 1.000000 0.000000 
vn 0.000000 1.000000 0.000000 
vn 0.000000 1.000000 0.000000 
vn 0.000000 1.000000 0.000000 
vn 0.000000 1.000000 0.000000 
vn 0.000000 1.000000 0.000000 
vn 0.000000 1.000000 0.000000 
vn 0.000000 1.000000 0.000000 
vn 0.000000 1.000000 0.000000 
vn 0.000000 1.000000 0.000000 
vn 0.000000 1.000000 0.000000 
vn 0.000000 1.000000 0.000000 
vn 0.000000 1.000000 0.000000 
vn 0.000000 1.000000 0.000000 
vn 0.000000 1.000000 0.000000 
vn 0.000000 1.000000 0.000000 
vn 0.000000 1.000000 0.000000 
vn 0.000000 1.000000 0.000000 
vn 0.000000 1.000000 0.000000 
vn 0.000000 1.000000 0.000000 
vn 0.000000 1.000000 0.000000 
vn 0.000000 1.000000 0.000000 
vn 0.000000 1.000000 0.000000 
vn 0.000000 1.000000 0.000000 
vn 0.000000 1.000000 0.000000 
vn 0.000000 1.000000 0.000000 
vn 0.000000 1.000000 0.000000 
vn 0.000000 1.000000 0.000000 
vn 0.000000 1.000000 0.000000 
vn 0.000000 1.000000 0.000000 
vn 0.000000 1.000000 0.000000 
vn 0.000000 1.000000 0.000000 
vn 0.000000 1.000000 0.000000 
vn 0.000000 1.000000 0.000000 
vn 0.000000 1.000000 0.000000 
vn 0.000000 1.000000 0.000000 
vn 0.000000 1.000000 0.000000 
vn 0.000000 1.000000 0.000000 
vn 0.000000 1.000000 0.000000 
vn 0.000000 1.000000 0.000000 
vn 0.000000 1.000000 0.000000 
vt 0.496063 0.496063 
vt 0.000000 -0.007874 
vt 0.000000 0.496063 
vt 0.000000 -0.007874 
vt 0.496063 0.496063 
vt 0.496063 -0.007874 
vt 1.000000 0.496063 
vt 0.496063 -0.007874 
vt 0.496063 0.496063 
vt 0.496063 -0.007874 
vt 1.000000 0.496063 
vt 1.000000 -0.007874 
vt 0.496063 1.000000 
vt 0.000000 0.496063 
vt 0.000000 1.000000 
vt 0.000000 0.496063 
vt 0.496063 1.000000 
vt 0.496063 0.496063 
vt 1.000000 1.000000 
vt 0.496063 0.496063 
vt 0.496063 1.000000 
vt 0.496063 0.496063 
vt 1.000000 1.000000 
vt 1.000000 0.496063 
vt 0.496063 0.496063 
vt 0.000000 -0.007874 
vt 0.000000 0.496063 
vt 0.000000 -0.007874 
vt 0.496063 0.496063 
vt 0.496063 -0.007874 
vt 1.000000 0.496063 
vt 0.496063 -0.007874 
vt 0.496063 0.496063 
vt 0.496063 -0.007874 
vt 1.000000 0.496063 
vt 1.000000 -0.007874 
vt 0.496063 1.000000 
vt 0.000000 0.496063 
vt 0.000000 1.000000 
vt 0.000000 0.496063 
vt 0.496063 1.000000 
vt 0.496063 0.496063 
vt 1.000000 1.000000 
vt 0.496063 0.496063 
vt 0.496063 1.000000 
vt 0.496063 0.496063 
vt 1.000000 1.000000 
vt 1.000000 0.496063 
vt 0.496063 0.496063 
vt 0.000000 -0.007874 
vt 0.000000 0.496063 
vt 0.000000 -0.007874 
vt 0.496063 0.496063 
vt 0.496063 -0.007874 
vt 1.000000 0.496063 
vt 0.496063 -0.007874 
vt 0.496063 0.496063 
vt 0.496063 -0.007874 
vt 1.000000 0.496063 
vt 1.000000 -0.007874 
vt 0.496063 1.000000 
vt 0.000000 0.496063 
vt 0.000000 1.000000 
vt 0.000000 0.496063 
vt 0.496063 1.000000 
vt 0.496063 0.496063 
vt 1.000000 1.000000 
vt 0.496063 0.496063 
vt 0.496063 1.000000 
vt 0.496063 0.496063 
vt 1.000000 1.000000 
vt 1.000000 0.496063 
vt 0.496063 0.496063 
vt 0.000000 -0.007874 
vt 0.000000 0.496063 
vt 0.000000 -0.007874 
vt 0.496063 0.496063 
vt 0.496063 -0.007874 
vt 1.000000 0.496063 
vt 0.496063 -0.007874 
vt 0.496063 0.496063 
vt 0.496063 -0.007874 
vt 1.000000 0.496063 
vt 1.000000 -0.007874 
vt 0.496063 1.000000 
vt 0.000000 0.496063 
vt 0.000000 1.000000 
vt 0.000000 0.496063 
vt 0.496063 1.000000 
vt 0.496063 0.496063 
vt 1.000000 1.000000 
vt 0.496063 0.496063 
vt 0.496063 1.000000 
vt 0.496063 0.496063 
vt 1.000000 1.000000 
vt 1.000000 0.496063 
f 1/1/1 2/2/2 3/3/3
f 4/4/4 5/5/5 6/6/6
f 7/7/7 8/8/8 9/9/9
f 10/10/10 11/11/11 12/12/12
f 13/13/13 14/14/14 15/15/15
f 16/16/16 17/17/17 18/18/18
f 19/19/19 20/20/20 21/21/21
f 22/22/22 23/23/23 24/24/24
f 25/25/25 26/26/26 27/27/27
f 28/28/28 29/29/29 30/30/30
f 31/31/31 32/32/32 33/33/33
f 34/34/34 35/35/35 36/36/36
f 37/37/37 38/38/38 39/39/39
f 40/40/40 41/41/41 42/42/42
f 43/43/43 44/44/44 45/45/45
f 46/46/46 47/47/47 48/48/48
f 49/49/49 50/50/50 51/51/51
f 52/52/52 53/53/53 54/54/54
f 55/55/55 56/56/56 57/57/57
f 58/58/58 59/59/59 60/60/60
f 61/61/61 62/62/62 63/63/63
f 64/64/64 65/65/65 66/66/66
f 67/67/67 68/68/68 69/69/69
f 70/70/70 71/71/71 72/72/72
f 73/73/73 74/74/74 75/75/75
f 76/76/76 77/77/77 78/78/78
f 79/79/79 80/80/80 81/81/81
f 82/82/82 83/83/83 84/84/84
f 85/85/85 86/86/86 87/87/87
f 88/88/88 89/89/89 90/90/90
f 91/91/91 92/92/92 93/93/93
f 94/94/94 95/95/95 96/96/96
