v -109.000000 1.000000 -9.000000 
v -94.000000 -20.000000 -6.000000 
v -109.000000 -136.000000 -8.000000 
v -94.000000 -20.000000 -6.000000 
v -94.000000 -136.000000 -7.000000 
v -109.000000 -136.000000 -8.000000 
v -111.000000 1.000000 7.000000 
v -109.000000 1.000000 -9.000000 
v -112.000000 -136.000000 7.000000 
v -109.000000 1.000000 -9.000000 
v -109.000000 -136.000000 -8.000000 
v -112.000000 -136.000000 7.000000 
v 4.000000 10.000000 -7.000000 
v 4.000000 -11.000000 -4.000000 
v -109.000000 1.000000 -9.000000 
v 4.000000 -11.000000 -4.000000 
v -94.000000 -20.000000 -6.000000 
v -109.000000 1.000000 -9.000000 
v 4.000000 14.000000 9.000000 
v 4.000000 10.000000 -7.000000 
v -111.000000 1.000000 7.000000 
v 4.000000 10.000000 -7.000000 
v -109.000000 1.000000 -9.000000 
v -111.000000 1.000000 7.000000 
vn -0.487061 0.222412 -0.844238 
vn 0.085693 -0.017578 -0.996094 
vn -0.328857 0.000000 -0.944336 
vn 0.085693 -0.017578 -0.996094 
vn 0.071289 0.003906 -0.997314 
vn -0.328857 0.000000 -0.944336 
vn -0.555176 0.793213 -0.249268 
vn -0.487061 0.222412 -0.844238 
vn -0.986572 0.000000 -0.162354 
vn -0.487061 0.222412 -0.844238 
vn -0.328857 0.000000 -0.944336 
vn -0.986572 0.000000 -0.162354 
vn -0.126221 0.775879 -0.617920 
vn 0.025391 -0.058105 -0.997803 
vn -0.487061 0.222412 -0.844238 
vn 0.025391 -0.058105 -0.997803 
vn 0.085693 -0.017578 -0.996094 
vn -0.487061 0.222412 -0.844238 
vn -0.175293 0.878174 -0.444824 
vn -0.126221 0.775879 -0.617920 
vn -0.555176 0.793213 -0.249268 
vn -0.126221 0.775879 -0.617920 
vn -0.487061 0.222412 -0.844238 
vn -0.555176 0.793213 -0.249268 
vt 0.523810 0.803150 
vt 0.777778 0.716535 
vt 0.523810 0.307087 
vt 0.777778 0.716535 
vt 0.777778 0.275591 
vt 0.523810 0.307087 
vt 0.269841 0.779528 
vt 0.523810 0.803150 
vt 0.269841 0.322835 
vt 0.523810 0.803150 
vt 0.523810 0.307087 
vt 0.269841 0.322835 
vt 0.523810 0.732283 
vt 0.777778 0.700787 
vt 0.523810 0.362205 
vt 0.777778 0.700787 
vt 0.777778 0.409449 
vt 0.523810 0.362205 
vt 0.285714 0.755906 
vt 0.523810 0.732283 
vt 0.269841 0.330709 
vt 0.523810 0.732283 
vt 0.523810 0.362205 
vt 0.269841 0.330709 
f 1/1/1 2/2/2 3/3/3
f 4/4/4 5/5/5 6/6/6
f 7/7/7 8/8/8 9/9/9
f 10/10/10 11/11/11 12/12/12
f 13/13/13 14/14/14 15/15/15
f 16/16/16 17/17/17 18/18/18
f 19/19/19 20/20/20 21/21/21
f 22/22/22 23/23/23 24/24/24
