v 43.000000 0.000000 7.000000 
v 42.000000 7.000000 -1.000000 
v 4.000000 3.000000 2.000000 
v 4.000000 3.000000 2.000000 
v 42.000000 7.000000 -1.000000 
v 0.000000 0.000000 -4.000000 
v 42.000000 0.000000 -8.000000 
v 43.000000 -7.000000 0.000000 
v -1.000000 -5.000000 2.000000 
v 0.000000 0.000000 -4.000000 
v 42.000000 0.000000 -8.000000 
v -1.000000 -5.000000 2.000000 
v 42.000000 7.000000 -1.000000 
v 42.000000 0.000000 -8.000000 
v 0.000000 0.000000 -4.000000 
vn -0.015137 0.064941 0.997559 
vn 0.143555 0.988037 -0.051758 
vn 0.329590 0.942383 0.051758 
vn 0.329590 0.942383 0.051758 
vn 0.143555 0.988037 -0.051758 
vn -0.126465 0.422607 -0.897217 
vn 0.051514 -0.020508 -0.998291 
vn -0.159912 -0.984131 0.075928 
vn -0.554199 -0.832031 -0.018066 
vn -0.126465 0.422607 -0.897217 
vn 0.051514 -0.020508 -0.998291 
vn -0.554199 -0.832031 -0.018066 
vn 0.143555 0.988037 -0.051758 
vn 0.051514 -0.020508 -0.998291 
vn -0.126465 0.422607 -0.897217 
vt 0.582677 0.062992 
vt 0.582677 0.283465 
vt 0.307087 0.283465 
vt 0.614173 0.322835 
vt 0.440945 0.322835 
vt 0.614173 0.181102 
vt 0.440945 0.181102 
vt 0.440945 0.031496 
vt 0.614173 0.031496 
vt 0.614173 0.181102 
vt 0.440945 0.181102 
vt 0.614173 0.031496 
vt 0.440945 0.322835 
vt 0.440945 0.181102 
vt 0.614173 0.181102 
f 1/1/1 2/2/2 3/3/3
f 4/4/4 5/5/5 6/6/6
f 7/7/7 8/8/8 9/9/9
f 10/10/10 11/11/11 12/12/12
f 13/13/13 14/14/14 15/15/15
