v -640.000000 153.000000 -74.000000 
v -685.000000 153.000000 -74.000000 
v -685.000000 153.000000 82.000000 
v -685.000000 153.000000 82.000000 
v -640.000000 153.000000 82.000000 
v -640.000000 153.000000 -74.000000 
v -685.000000 36.000000 82.000000 
v -685.000000 153.000000 82.000000 
v -685.000000 153.000000 -74.000000 
v -685.000000 36.000000 -74.000000 
v -685.000000 153.000000 -74.000000 
v -640.000000 153.000000 -74.000000 
v -685.000000 36.000000 -74.000000 
v -685.000000 36.000000 82.000000 
v -685.000000 153.000000 -74.000000 
v -640.000000 36.000000 -74.000000 
v -685.000000 36.000000 -74.000000 
v -640.000000 153.000000 -74.000000 
v -664.000000 131.000000 -80.000000 
v -664.000000 131.000000 -74.000000 
v -659.000000 131.000000 -80.000000 
v -659.000000 131.000000 -74.000000 
v -659.000000 131.000000 -80.000000 
v -664.000000 131.000000 -74.000000 
v -664.000000 69.000000 -80.000000 
v -664.000000 131.000000 -80.000000 
v -659.000000 69.000000 -80.000000 
v -659.000000 131.000000 -80.000000 
v -659.000000 69.000000 -80.000000 
v -664.000000 131.000000 -80.000000 
v -664.000000 69.000000 -74.000000 
v -664.000000 131.000000 -74.000000 
v -664.000000 69.000000 -80.000000 
v -664.000000 131.000000 -80.000000 
v -664.000000 69.000000 -80.000000 
v -664.000000 131.000000 -74.000000 
v -677.000000 163.000000 -39.000000 
v -677.000000 151.000000 -39.000000 
v -677.000000 163.000000 -22.000000 
v -677.000000 151.000000 -22.000000 
v -677.000000 163.000000 -22.000000 
v -677.000000 151.000000 -39.000000 
v -647.000000 163.000000 -39.000000 
v -677.000000 163.000000 -39.000000 
v -647.000000 163.000000 -22.000000 
v -677.000000 163.000000 -22.000000 
v -647.000000 163.000000 -22.000000 
v -677.000000 163.000000 -39.000000 
v -647.000000 151.000000 -39.000000 
v -677.000000 151.000000 -39.000000 
v -647.000000 163.000000 -39.000000 
v -677.000000 163.000000 -39.000000 
v -647.000000 163.000000 -39.000000 
v -677.000000 151.000000 -39.000000 
v -677.000000 163.000000 31.000000 
v -677.000000 151.000000 31.000000 
v -677.000000 163.000000 48.000000 
v -677.000000 151.000000 48.000000 
v -677.000000 163.000000 48.000000 
v -677.000000 151.000000 31.000000 
v -647.000000 163.000000 31.000000 
v -677.000000 163.000000 31.000000 
v -647.000000 163.000000 48.000000 
v -677.000000 163.000000 48.000000 
v -647.000000 163.000000 48.000000 
v -677.000000 163.000000 31.000000 
v -647.000000 151.000000 31.000000 
v -677.000000 151.000000 31.000000 
v -647.000000 163.000000 31.000000 
v -677.000000 163.000000 31.000000 
v -647.000000 163.000000 31.000000 
v -677.000000 151.000000 31.000000 
v -684.000000 69.000000 50.000000 
v -691.000000 69.000000 50.000000 
v -691.000000 69.000000 67.000000 
v -691.000000 69.000000 67.000000 
v -684.000000 69.000000 67.000000 
v -684.000000 69.000000 50.000000 
v -691.000000 69.000000 50.000000 
v -691.000000 45.000000 50.000000 
v -691.000000 45.000000 67.000000 
v -691.000000 45.000000 67.000000 
v -691.000000 69.000000 67.000000 
v -691.000000 69.000000 50.000000 
v -684.000000 69.000000 50.000000 
v -684.000000 45.000000 50.000000 
v -691.000000 45.000000 50.000000 
v -691.000000 45.000000 50.000000 
v -691.000000 69.000000 50.000000 
v -684.000000 69.000000 50.000000 
vn 0.000000 1.000000 0.000000 
vn 0.000000 1.000000 0.000000 
vn 0.000000 1.000000 0.000000 
vn 0.000000 1.000000 0.000000 
vn 0.000000 1.000000 0.000000 
vn 0.000000 1.000000 0.000000 
vn -1.000000 0.000000 0.000000 
vn -1.000000 0.000000 0.000000 
vn -1.000000 0.000000 0.000000 
vn 0.000000 0.000000 -1.000000 
vn 0.000000 0.000000 -1.000000 
vn 0.000000 0.000000 -1.000000 
vn -1.000000 0.000000 0.000000 
vn -1.000000 0.000000 0.000000 
vn -1.000000 0.000000 0.000000 
vn 0.000000 0.000000 -1.000000 
vn 0.000000 0.000000 -1.000000 
vn 0.000000 0.000000 -1.000000 
vn -0.408203 0.408203 -0.816406 
vn -0.707031 0.707031 0.000000 
vn 0.000000 0.894287 -0.447021 
vn 0.000000 1.000000 0.000000 
vn 0.000000 0.894287 -0.447021 
vn -0.707031 0.707031 0.000000 
vn -0.894287 0.000000 -0.447021 
vn -0.408203 0.408203 -0.816406 
vn 0.000000 0.000000 -1.000000 
vn 0.000000 0.894287 -0.447021 
vn 0.000000 0.000000 -1.000000 
vn -0.408203 0.408203 -0.816406 
vn -1.000000 0.000000 0.000000 
vn -0.707031 0.707031 0.000000 
vn -0.894287 0.000000 -0.447021 
vn -0.408203 0.408203 -0.816406 
vn -0.894287 0.000000 -0.447021 
vn -0.707031 0.707031 0.000000 
vn -0.408203 0.816406 -0.408203 
vn -0.707031 0.000000 -0.707031 
vn -0.894287 0.447021 0.000000 
vn -1.000000 0.000000 0.000000 
vn -0.894287 0.447021 0.000000 
vn -0.707031 0.000000 -0.707031 
vn 0.000000 0.447021 -0.894287 
vn -0.408203 0.816406 -0.408203 
vn 0.000000 1.000000 0.000000 
vn -0.894287 0.447021 0.000000 
vn 0.000000 1.000000 0.000000 
vn -0.408203 0.816406 -0.408203 
vn 0.000000 0.000000 -1.000000 
vn -0.707031 0.000000 -0.707031 
vn 0.000000 0.447021 -0.894287 
vn -0.408203 0.816406 -0.408203 
vn 0.000000 0.447021 -0.894287 
vn -0.707031 0.000000 -0.707031 
vn -0.408203 0.816406 -0.408203 
vn -0.707031 0.000000 -0.707031 
vn -0.894287 0.447021 0.000000 
vn -1.000000 0.000000 0.000000 
vn -0.894287 0.447021 0.000000 
vn -0.707031 0.000000 -0.707031 
vn 0.000000 0.447021 -0.894287 
vn -0.408203 0.816406 -0.408203 
vn 0.000000 1.000000 0.000000 
vn -0.894287 0.447021 0.000000 
vn 0.000000 1.000000 0.000000 
vn -0.408203 0.816406 -0.408203 
vn 0.000000 0.000000 -1.000000 
vn -0.707031 0.000000 -0.707031 
vn 0.000000 0.447021 -0.894287 
vn -0.408203 0.816406 -0.408203 
vn 0.000000 0.447021 -0.894287 
vn -0.707031 0.000000 -0.707031 
vn 0.000000 0.707031 -0.707031 
vn -0.816406 0.408203 -0.408203 
vn -0.447021 0.894287 0.000000 
vn -0.447021 0.894287 0.000000 
vn 0.000000 1.000000 0.000000 
vn 0.000000 0.707031 -0.707031 
vn -0.816406 0.408203 -0.408203 
vn -0.447021 0.000000 -0.894287 
vn -1.000000 0.000000 0.000000 
vn -1.000000 0.000000 0.000000 
vn -0.447021 0.894287 0.000000 
vn -0.816406 0.408203 -0.408203 
vn 0.000000 0.707031 -0.707031 
vn 0.000000 0.000000 -1.000000 
vn -0.447021 0.000000 -0.894287 
vn -0.447021 0.000000 -0.894287 
vn -0.816406 0.408203 -0.408203 
vn 0.000000 0.707031 -0.707031 
vt 0.275591 0.745098 
vt 0.472441 0.745098 
vt 0.472441 0.501961 
vt 0.472441 0.501961 
vt 0.275591 0.501961 
vt 0.275591 0.745098 
vt 0.267717 0.501961 
vt 0.464567 0.501961 
vt 0.464567 0.745098 
vt 0.165354 0.749020 
vt 0.472441 0.749020 
vt 0.472441 0.505882 
vt 0.267717 0.745098 
vt 0.267717 0.501961 
vt 0.464567 0.745098 
vt 0.165354 0.505882 
vt 0.165354 0.749020 
vt 0.472441 0.505882 
vt 0.503937 0.517647 
vt 0.000000 0.517647 
vt 0.503937 0.737255 
vt 0.000000 0.737255 
vt 0.503937 0.737255 
vt 0.000000 0.517647 
vt 0.007874 0.745098 
vt 0.503937 0.745098 
vt 0.007874 0.698039 
vt 0.503937 0.698039 
vt 0.007874 0.698039 
vt 0.503937 0.745098 
vt 0.047244 0.549020 
vt 0.456693 0.549020 
vt 0.039370 0.509804 
vt 0.448819 0.509804 
vt 0.039370 0.509804 
vt 0.456693 0.549020 
vt 0.488189 0.749020 
vt 0.488189 0.494118 
vt 0.000000 0.749020 
vt 0.000000 0.494118 
vt 0.000000 0.749020 
vt 0.488189 0.494118 
vt 0.488189 0.749020 
vt 0.488189 0.494118 
vt 0.000000 0.749020 
vt 0.000000 0.494118 
vt 0.000000 0.749020 
vt 0.488189 0.494118 
vt 0.488189 0.494118 
vt 0.000000 0.494118 
vt 0.488189 0.749020 
vt 0.000000 0.749020 
vt 0.488189 0.749020 
vt 0.000000 0.494118 
vt 0.488189 0.749020 
vt 0.488189 0.494118 
vt 0.000000 0.749020 
vt 0.000000 0.494118 
vt 0.000000 0.749020 
vt 0.488189 0.494118 
vt 0.488189 0.749020 
vt 0.488189 0.494118 
vt 0.000000 0.749020 
vt 0.000000 0.494118 
vt 0.000000 0.749020 
vt 0.488189 0.494118 
vt 0.488189 0.494118 
vt 0.000000 0.494118 
vt 0.488189 0.749020 
vt 0.000000 0.749020 
vt 0.488189 0.749020 
vt 0.000000 0.494118 
vt 0.503937 0.749020 
vt 0.503937 0.505882 
vt 0.000000 0.505882 
vt 0.000000 0.505882 
vt 0.000000 0.749020 
vt 0.503937 0.749020 
vt 0.503937 0.749020 
vt 0.503937 0.505882 
vt 0.000000 0.505882 
vt 0.000000 0.505882 
vt 0.000000 0.749020 
vt 0.503937 0.749020 
vt 0.503937 0.749020 
vt 0.503937 0.505882 
vt 0.000000 0.505882 
vt 0.000000 0.505882 
vt 0.000000 0.749020 
vt 0.503937 0.749020 
f 1/1/1 2/2/2 3/3/3
f 4/4/4 5/5/5 6/6/6
f 7/7/7 8/8/8 9/9/9
f 10/10/10 11/11/11 12/12/12
f 13/13/13 14/14/14 15/15/15
f 16/16/16 17/17/17 18/18/18
f 19/19/19 20/20/20 21/21/21
f 22/22/22 23/23/23 24/24/24
f 25/25/25 26/26/26 27/27/27
f 28/28/28 29/29/29 30/30/30
f 31/31/31 32/32/32 33/33/33
f 34/34/34 35/35/35 36/36/36
f 37/37/37 38/38/38 39/39/39
f 40/40/40 41/41/41 42/42/42
f 43/43/43 44/44/44 45/45/45
f 46/46/46 47/47/47 48/48/48
f 49/49/49 50/50/50 51/51/51
f 52/52/52 53/53/53 54/54/54
f 55/55/55 56/56/56 57/57/57
f 58/58/58 59/59/59 60/60/60
f 61/61/61 62/62/62 63/63/63
f 64/64/64 65/65/65 66/66/66
f 67/67/67 68/68/68 69/69/69
f 70/70/70 71/71/71 72/72/72
f 73/73/73 74/74/74 75/75/75
f 76/76/76 77/77/77 78/78/78
f 79/79/79 80/80/80 81/81/81
f 82/82/82 83/83/83 84/84/84
f 85/85/85 86/86/86 87/87/87
f 88/88/88 89/89/89 90/90/90
