v -28.000000 -69.000000 -23.000000 
v 8.000000 -69.000000 -5.000000 
v -8.000000 -209.000000 -44.000000 
v 8.000000 -69.000000 -5.000000 
v 28.000000 -209.000000 -27.000000 
v -8.000000 -209.000000 -44.000000 
v -25.000000 -69.000000 17.000000 
v -28.000000 -69.000000 -23.000000 
v -4.000000 -209.000000 -4.000000 
v -28.000000 -69.000000 -23.000000 
v -8.000000 -209.000000 -44.000000 
v -4.000000 -209.000000 -4.000000 
v -19.000000 69.000000 -9.000000 
v 17.000000 69.000000 8.000000 
v -28.000000 -69.000000 -23.000000 
v 17.000000 69.000000 8.000000 
v 8.000000 -69.000000 -5.000000 
v -28.000000 -69.000000 -23.000000 
v -15.000000 69.000000 31.000000 
v -19.000000 69.000000 -9.000000 
v -25.000000 -69.000000 17.000000 
v -19.000000 69.000000 -9.000000 
v -28.000000 -69.000000 -23.000000 
v -25.000000 -69.000000 17.000000 
v -8.000000 209.000000 4.000000 
v 28.000000 209.000000 21.000000 
v -19.000000 69.000000 -9.000000 
v 28.000000 209.000000 21.000000 
v 17.000000 69.000000 8.000000 
v -19.000000 69.000000 -9.000000 
v -4.000000 209.000000 44.000000 
v -8.000000 209.000000 4.000000 
v -15.000000 69.000000 31.000000 
v -8.000000 209.000000 4.000000 
v -19.000000 69.000000 -9.000000 
v -15.000000 69.000000 31.000000 
vn -0.592285 0.005859 -0.805420 
vn 0.380615 0.075684 -0.921387 
vn -0.131104 0.062012 -0.989258 
vn 0.380615 0.075684 -0.921387 
vn 0.379883 0.098145 -0.919678 
vn -0.131104 0.062012 -0.989258 
vn -0.995850 -0.006592 0.090332 
vn -0.592285 0.005859 -0.805420 
vn -0.991943 -0.086670 0.090088 
vn -0.592285 0.005859 -0.805420 
vn -0.131104 0.062012 -0.989258 
vn -0.991943 -0.086670 0.090088 
vn -0.591553 0.059570 -0.803711 
vn 0.381592 0.028320 -0.923828 
vn -0.592285 0.005859 -0.805420 
vn 0.381592 0.028320 -0.923828 
vn 0.380615 0.075684 -0.921387 
vn -0.592285 0.005859 -0.805420 
vn -0.995117 0.036865 0.090332 
vn -0.591553 0.059570 -0.803711 
vn -0.995850 -0.006592 0.090332 
vn -0.591553 0.059570 -0.803711 
vn -0.592285 0.005859 -0.805420 
vn -0.995850 -0.006592 0.090332 
vn -0.906250 0.057617 -0.418457 
vn 0.381592 0.024902 -0.923828 
vn -0.591553 0.059570 -0.803711 
vn 0.381592 0.024902 -0.923828 
vn 0.381592 0.028320 -0.923828 
vn -0.591553 0.059570 -0.803711 
vn -0.995117 0.038574 0.090332 
vn -0.906250 0.057617 -0.418457 
vn -0.995117 0.036865 0.090332 
vn -0.906250 0.057617 -0.418457 
vn -0.591553 0.059570 -0.803711 
vn -0.995117 0.036865 0.090332 
vt 0.269841 0.803150 
vt 0.523810 0.803150 
vt 0.269841 0.188976 
vt 0.523810 0.803150 
vt 0.523810 0.188976 
vt 0.269841 0.188976 
vt 0.015873 0.803150 
vt 0.269841 0.803150 
vt 0.015873 0.188976 
vt 0.269841 0.803150 
vt 0.269841 0.188976 
vt 0.015873 0.188976 
vt 0.269841 0.803150 
vt 0.523810 0.803150 
vt 0.269841 0.188976 
vt 0.523810 0.803150 
vt 0.523810 0.188976 
vt 0.269841 0.188976 
vt 0.015873 0.803150 
vt 0.269841 0.803150 
vt 0.015873 0.188976 
vt 0.269841 0.803150 
vt 0.269841 0.188976 
vt 0.015873 0.188976 
vt 0.269841 0.803150 
vt 0.523810 0.803150 
vt 0.269841 0.188976 
vt 0.523810 0.803150 
vt 0.523810 0.188976 
vt 0.269841 0.188976 
vt 0.015873 0.803150 
vt 0.269841 0.803150 
vt 0.015873 0.188976 
vt 0.269841 0.803150 
vt 0.269841 0.188976 
vt 0.015873 0.188976 
f 1/1/1 2/2/2 3/3/3
f 4/4/4 5/5/5 6/6/6
f 7/7/7 8/8/8 9/9/9
f 10/10/10 11/11/11 12/12/12
f 13/13/13 14/14/14 15/15/15
f 16/16/16 17/17/17 18/18/18
f 19/19/19 20/20/20 21/21/21
f 22/22/22 23/23/23 24/24/24
f 25/25/25 26/26/26 27/27/27
f 28/28/28 29/29/29 30/30/30
f 31/31/31 32/32/32 33/33/33
f 34/34/34 35/35/35 36/36/36
