v -249.000000 718.000000 933.000000 
v -996.000000 789.000000 933.000000 
v -249.000000 789.000000 933.000000 
v -996.000000 789.000000 933.000000 
v -249.000000 718.000000 933.000000 
v -996.000000 718.000000 933.000000 
v 278.000000 718.000000 933.000000 
v -251.000000 789.000000 933.000000 
v 278.000000 789.000000 933.000000 
v -251.000000 789.000000 933.000000 
v 278.000000 718.000000 933.000000 
v -251.000000 718.000000 933.000000 
v 969.000000 789.000000 176.000000 
v 969.000000 718.000000 922.000000 
v 969.000000 789.000000 922.000000 
v 969.000000 718.000000 922.000000 
v 969.000000 789.000000 176.000000 
v 969.000000 718.000000 176.000000 
v 969.000000 789.000000 -441.000000 
v 969.000000 718.000000 155.000000 
v 969.000000 789.000000 155.000000 
v 969.000000 718.000000 155.000000 
v 969.000000 789.000000 -441.000000 
v 969.000000 718.000000 -441.000000 
v 834.000000 718.000000 933.000000 
v 304.000000 789.000000 933.000000 
v 834.000000 789.000000 933.000000 
v 304.000000 789.000000 933.000000 
v 834.000000 718.000000 933.000000 
v 304.000000 718.000000 933.000000 
v 968.000000 640.000000 383.000000 
v 971.000000 640.000000 370.000000 
v 969.000000 618.000000 383.000000 
v 971.000000 640.000000 370.000000 
v 973.000000 618.000000 370.000000 
v 969.000000 618.000000 383.000000 
v 953.000000 609.000000 380.000000 
v 969.000000 618.000000 383.000000 
v 973.000000 618.000000 370.000000 
v 973.000000 618.000000 370.000000 
v 959.000000 604.000000 374.000000 
v 953.000000 609.000000 380.000000 
v 930.000000 602.000000 382.000000 
v 953.000000 609.000000 380.000000 
v 959.000000 604.000000 374.000000 
v 959.000000 604.000000 374.000000 
v 929.000000 597.000000 372.000000 
v 930.000000 602.000000 382.000000 
v 876.000000 611.000000 378.000000 
v 930.000000 602.000000 382.000000 
v 929.000000 597.000000 372.000000 
v 929.000000 597.000000 372.000000 
v 873.000000 604.000000 375.000000 
v 876.000000 611.000000 378.000000 
v 804.000000 638.000000 376.000000 
v 876.000000 611.000000 378.000000 
v 873.000000 604.000000 375.000000 
v 873.000000 604.000000 375.000000 
v 801.000000 631.000000 377.000000 
v 804.000000 638.000000 376.000000 
v 746.000000 673.000000 375.000000 
v 804.000000 638.000000 376.000000 
v 801.000000 631.000000 377.000000 
v 801.000000 631.000000 377.000000 
v 743.000000 667.000000 379.000000 
v 746.000000 673.000000 375.000000 
v 679.000000 691.000000 391.000000 
v 746.000000 673.000000 375.000000 
v 743.000000 667.000000 379.000000 
v 743.000000 667.000000 379.000000 
v 676.000000 685.000000 396.000000 
v 679.000000 691.000000 391.000000 
v 966.000000 724.000000 383.000000 
v 972.000000 724.000000 371.000000 
v 963.000000 692.000000 378.000000 
v 972.000000 724.000000 371.000000 
v 976.000000 692.000000 375.000000 
v 963.000000 692.000000 378.000000 
v 493.000000 1.000000 136.000000 
v 472.000000 1.000000 136.000000 
v 476.000000 4.000000 318.000000 
v 472.000000 1.000000 136.000000 
v 458.000000 -1.000000 318.000000 
v 476.000000 4.000000 318.000000 
v 393.000000 1.000000 39.000000 
v 472.000000 1.000000 136.000000 
v 493.000000 1.000000 136.000000 
v 413.000000 1.000000 35.000000 
v 393.000000 1.000000 39.000000 
v 493.000000 1.000000 136.000000 
v 413.000000 1.000000 35.000000 
v 381.000000 1.000000 -85.000000 
v 362.000000 1.000000 -77.000000 
v 362.000000 1.000000 -77.000000 
v 393.000000 1.000000 39.000000 
v 413.000000 1.000000 35.000000 
v 309.000000 1.000000 -182.000000 
v 362.000000 1.000000 -77.000000 
v 381.000000 1.000000 -85.000000 
v 329.000000 1.000000 -186.000000 
v 309.000000 1.000000 -182.000000 
v 381.000000 1.000000 -85.000000 
v 329.000000 1.000000 -186.000000 
v 324.000000 1.000000 -301.000000 
v 303.000000 1.000000 -301.000000 
v 303.000000 1.000000 -301.000000 
v 309.000000 1.000000 -182.000000 
v 329.000000 1.000000 -186.000000 
v 381.000000 -1.000000 -446.000000 
v 303.000000 1.000000 -301.000000 
v 324.000000 1.000000 -301.000000 
v 324.000000 1.000000 -301.000000 
v 398.000000 4.000000 -440.000000 
v 381.000000 -1.000000 -446.000000 
v 408.000000 1.000000 -590.000000 
v 381.000000 -1.000000 -446.000000 
v 398.000000 4.000000 -440.000000 
v 398.000000 4.000000 -440.000000 
v 426.000000 1.000000 -579.000000 
v 408.000000 1.000000 -590.000000 
v 492.000000 0.000000 -705.000000 
v 408.000000 1.000000 -590.000000 
v 426.000000 1.000000 -579.000000 
v 426.000000 1.000000 -579.000000 
v 510.000000 3.000000 -696.000000 
v 492.000000 0.000000 -705.000000 
v 603.000000 3.000000 -746.000000 
v 644.000000 -1.000000 -841.000000 
v 586.000000 0.000000 -756.000000 
v 644.000000 -1.000000 -841.000000 
v 603.000000 3.000000 -746.000000 
v 662.000000 4.000000 -841.000000 
v 586.000000 0.000000 -756.000000 
v 510.000000 3.000000 -696.000000 
v 603.000000 3.000000 -746.000000 
v 510.000000 3.000000 -696.000000 
v 586.000000 0.000000 -756.000000 
v 492.000000 0.000000 -705.000000 
v -557.000000 1.000000 846.000000 
v -578.000000 1.000000 848.000000 
v -557.000000 4.000000 1028.000000 
v -578.000000 1.000000 848.000000 
v -575.000000 -1.000000 1030.000000 
v -557.000000 4.000000 1028.000000 
v -666.000000 1.000000 759.000000 
v -578.000000 1.000000 848.000000 
v -557.000000 1.000000 846.000000 
v -647.000000 1.000000 753.000000 
v -666.000000 1.000000 759.000000 
v -557.000000 1.000000 846.000000 
v -647.000000 1.000000 753.000000 
v -690.000000 1.000000 635.000000 
v -708.000000 1.000000 645.000000 
v -708.000000 1.000000 645.000000 
v -666.000000 1.000000 759.000000 
v -647.000000 1.000000 753.000000 
v -771.000000 1.000000 546.000000 
v -708.000000 1.000000 645.000000 
v -690.000000 1.000000 635.000000 
v -752.000000 1.000000 540.000000 
v -771.000000 1.000000 546.000000 
v -690.000000 1.000000 635.000000 
v -752.000000 1.000000 540.000000 
v -767.000000 1.000000 426.000000 
v -788.000000 1.000000 428.000000 
v -788.000000 1.000000 428.000000 
v -771.000000 1.000000 546.000000 
v -752.000000 1.000000 540.000000 
v -724.000000 -1.000000 276.000000 
v -788.000000 1.000000 428.000000 
v -767.000000 1.000000 426.000000 
v -767.000000 1.000000 426.000000 
v -707.000000 4.000000 281.000000 
v -724.000000 -1.000000 276.000000 
v -711.000000 1.000000 130.000000 
v -724.000000 -1.000000 276.000000 
v -707.000000 4.000000 281.000000 
v -707.000000 4.000000 281.000000 
v -692.000000 1.000000 139.000000 
v -711.000000 1.000000 130.000000 
v -642.000000 0.000000 25.000000 
v -711.000000 1.000000 130.000000 
v -692.000000 1.000000 139.000000 
v -692.000000 1.000000 139.000000 
v -623.000000 3.000000 33.000000 
v -642.000000 0.000000 25.000000 
vn 0.000000 0.000000 -1.000000 
vn 0.000000 0.000000 -1.000000 
vn 0.000000 0.000000 -1.000000 
vn 0.000000 0.000000 -1.000000 
vn 0.000000 0.000000 -1.000000 
vn 0.000000 0.000000 -1.000000 
vn 0.000000 0.000000 -1.000000 
vn 0.000000 0.000000 -1.000000 
vn 0.000000 0.000000 -1.000000 
vn 0.000000 0.000000 -1.000000 
vn 0.000000 0.000000 -1.000000 
vn 0.000000 0.000000 -1.000000 
vn -1.000000 0.000000 0.000000 
vn -1.000000 0.000000 0.000000 
vn -1.000000 0.000000 0.000000 
vn -1.000000 0.000000 0.000000 
vn -1.000000 0.000000 0.000000 
vn -1.000000 0.000000 0.000000 
vn -1.000000 0.000000 0.000000 
vn -1.000000 0.000000 0.000000 
vn -1.000000 0.000000 0.000000 
vn -1.000000 0.000000 0.000000 
vn -1.000000 0.000000 0.000000 
vn -1.000000 0.000000 0.000000 
vn 0.000000 0.000000 -1.000000 
vn 0.000000 0.000000 -1.000000 
vn 0.000000 0.000000 -1.000000 
vn 0.000000 0.000000 -1.000000 
vn 0.000000 0.000000 -1.000000 
vn 0.000000 0.000000 -1.000000 
vn -0.965332 -0.042969 -0.257080 
vn -0.955322 -0.052734 -0.290039 
vn -0.931152 0.217773 -0.291992 
vn -0.955322 -0.052734 -0.290039 
vn -0.791504 0.311279 -0.525635 
vn -0.931152 0.217773 -0.291992 
vn -0.520264 0.458496 -0.720215 
vn -0.931152 0.217773 -0.291992 
vn -0.791504 0.311279 -0.525635 
vn -0.791504 0.311279 -0.525635 
vn -0.346680 0.426270 -0.835205 
vn -0.520264 0.458496 -0.720215 
vn -0.095215 0.604980 -0.790283 
vn -0.520264 0.458496 -0.720215 
vn -0.346680 0.426270 -0.835205 
vn -0.346680 0.426270 -0.835205 
vn -0.004639 0.562988 -0.826416 
vn -0.095215 0.604980 -0.790283 
vn 0.135254 0.379883 -0.914795 
vn -0.095215 0.604980 -0.790283 
vn -0.004639 0.562988 -0.826416 
vn -0.004639 0.562988 -0.826416 
vn 0.030273 0.120850 -0.991943 
vn 0.135254 0.379883 -0.914795 
vn 0.016113 0.024170 -0.999512 
vn 0.135254 0.379883 -0.914795 
vn 0.030273 0.120850 -0.991943 
vn 0.030273 0.120850 -0.991943 
vn -0.128906 -0.113525 -0.985107 
vn 0.016113 0.024170 -0.999512 
vn -0.210205 -0.166992 -0.963135 
vn 0.016113 0.024170 -0.999512 
vn -0.128906 -0.113525 -0.985107 
vn -0.128906 -0.113525 -0.985107 
vn -0.295410 -0.216064 -0.930420 
vn -0.210205 -0.166992 -0.963135 
vn -0.304688 -0.212891 -0.928223 
vn -0.210205 -0.166992 -0.963135 
vn -0.295410 -0.216064 -0.930420 
vn -0.295410 -0.216064 -0.930420 
vn -0.304688 -0.212891 -0.928223 
vn -0.304688 -0.212891 -0.928223 
vn -0.877197 0.083984 -0.472168 
vn -0.597656 0.004639 -0.801514 
vn -0.597656 0.004639 -0.801514 
vn -0.597656 0.004639 -0.801514 
vn -0.202881 -0.075439 -0.976074 
vn -0.597656 0.004639 -0.801514 
vn 0.000000 0.999756 -0.010742 
vn -0.167969 0.985596 -0.016602 
vn -0.252930 0.967041 -0.024902 
vn -0.167969 0.985596 -0.016602 
vn -0.489258 0.871826 -0.015869 
vn -0.252930 0.967041 -0.024902 
vn 0.000000 1.000000 0.000000 
vn -0.167969 0.985596 -0.016602 
vn 0.000000 0.999756 -0.010742 
vn 0.000000 1.000000 0.000000 
vn 0.000000 1.000000 0.000000 
vn 0.000000 0.999756 -0.010742 
vn 0.000000 1.000000 0.000000 
vn 0.000000 1.000000 0.000000 
vn 0.000000 1.000000 0.000000 
vn 0.000000 1.000000 0.000000 
vn 0.000000 1.000000 0.000000 
vn 0.000000 1.000000 0.000000 
vn 0.000000 1.000000 0.000000 
vn 0.000000 1.000000 0.000000 
vn 0.000000 1.000000 0.000000 
vn 0.000000 1.000000 0.000000 
vn 0.000000 1.000000 0.000000 
vn 0.000000 1.000000 0.000000 
vn 0.000000 1.000000 0.000000 
vn -0.152100 0.983643 -0.094727 
vn 0.000000 0.999756 -0.013428 
vn 0.000000 0.999756 -0.013428 
vn 0.000000 1.000000 0.000000 
vn 0.000000 1.000000 0.000000 
vn -0.322021 0.938965 -0.119385 
vn 0.000000 0.999756 -0.013428 
vn -0.152100 0.983643 -0.094727 
vn -0.152100 0.983643 -0.094727 
vn -0.316162 0.941162 -0.118652 
vn -0.322021 0.938965 -0.119385 
vn -0.159912 0.986084 -0.043945 
vn -0.322021 0.938965 -0.119385 
vn -0.316162 0.941162 -0.118652 
vn -0.316162 0.941162 -0.118652 
vn -0.064697 0.995117 -0.071777 
vn -0.159912 0.986084 -0.043945 
vn -0.118652 0.978271 -0.168945 
vn -0.159912 0.986084 -0.043945 
vn -0.064697 0.995117 -0.071777 
vn -0.064697 0.995117 -0.071777 
vn -0.189453 0.934814 -0.300049 
vn -0.118652 0.978271 -0.168945 
vn -0.325195 0.885498 -0.331299 
vn -0.383545 0.877441 -0.287598 
vn -0.215332 0.918701 -0.330811 
vn -0.383545 0.877441 -0.287598 
vn -0.325195 0.885498 -0.331299 
vn -0.463379 0.825439 -0.322021 
vn -0.215332 0.918701 -0.330811 
vn -0.189453 0.934814 -0.300049 
vn -0.325195 0.885498 -0.331299 
vn -0.189453 0.934814 -0.300049 
vn -0.215332 0.918701 -0.330811 
vn -0.118652 0.978271 -0.168945 
vn -0.000732 0.999756 -0.010742 
vn -0.168457 0.985596 0.001953 
vn -0.253662 0.967041 0.002930 
vn -0.168457 0.985596 0.001953 
vn -0.488281 0.871582 0.038086 
vn -0.253662 0.967041 0.002930 
vn 0.000000 1.000000 0.000000 
vn -0.168457 0.985596 0.001953 
vn -0.000732 0.999756 -0.010742 
vn 0.000000 1.000000 0.000000 
vn 0.000000 1.000000 0.000000 
vn -0.000732 0.999756 -0.010742 
vn 0.000000 1.000000 0.000000 
vn 0.000000 1.000000 0.000000 
vn 0.000000 1.000000 0.000000 
vn 0.000000 1.000000 0.000000 
vn 0.000000 1.000000 0.000000 
vn 0.000000 1.000000 0.000000 
vn 0.000000 1.000000 0.000000 
vn 0.000000 1.000000 0.000000 
vn 0.000000 1.000000 0.000000 
vn 0.000000 1.000000 0.000000 
vn 0.000000 1.000000 0.000000 
vn 0.000000 1.000000 0.000000 
vn 0.000000 1.000000 0.000000 
vn -0.159668 0.983887 -0.077637 
vn -0.000977 0.999756 -0.013428 
vn -0.000977 0.999756 -0.013428 
vn 0.000000 1.000000 0.000000 
vn 0.000000 1.000000 0.000000 
vn -0.330811 0.939697 -0.083252 
vn -0.000977 0.999756 -0.013428 
vn -0.159668 0.983887 -0.077637 
vn -0.159668 0.983887 -0.077637 
vn -0.324951 0.941895 -0.083252 
vn -0.330811 0.939697 -0.083252 
vn -0.162598 0.986084 -0.027100 
vn -0.330811 0.939697 -0.083252 
vn -0.324951 0.941895 -0.083252 
vn -0.324951 0.941895 -0.083252 
vn -0.068604 0.995117 -0.069092 
vn -0.162598 0.986084 -0.027100 
vn -0.111084 0.990234 -0.083984 
vn -0.162598 0.986084 -0.027100 
vn -0.068604 0.995117 -0.069092 
vn -0.068604 0.995117 -0.069092 
vn -0.229004 0.962646 -0.143555 
vn -0.111084 0.990234 -0.083984 
vt 0.000000 0.225806 
vt 1.000000 1.000000 
vt 0.000000 1.000000 
vt 1.000000 1.000000 
vt 0.000000 0.225806 
vt 1.000000 0.225806 
vt 0.173228 0.225806 
vt 1.000000 1.000000 
vt 0.181102 1.000000 
vt 1.000000 1.000000 
vt 0.173228 0.225806 
vt 1.000000 0.225806 
vt 1.000000 1.000000 
vt 0.000000 0.225806 
vt 0.000000 1.000000 
vt 0.000000 0.225806 
vt 1.000000 1.000000 
vt 1.000000 0.225806 
vt 1.000000 1.000000 
vt 0.149606 0.225806 
vt 0.149606 1.000000 
vt 0.149606 0.225806 
vt 1.000000 1.000000 
vt 1.000000 0.225806 
vt 0.173228 0.225806 
vt 1.000000 1.000000 
vt 0.181102 1.000000 
vt 1.000000 1.000000 
vt 0.173228 0.225806 
vt 1.000000 0.225806 
vt 0.472441 0.129032 
vt 0.472441 -0.032258 
vt 0.000000 0.129032 
vt 0.472441 -0.032258 
vt 0.000000 -0.032258 
vt 0.000000 0.129032 
vt 0.023622 0.129032 
vt 0.417323 0.129032 
vt 0.559055 -0.032258 
vt 0.559055 -0.032258 
vt 0.000000 -0.032258 
vt 0.023622 0.129032 
vt 0.125984 0.129032 
vt 0.598425 0.129032 
vt 0.574803 -0.032258 
vt 0.574803 -0.032258 
vt 0.031496 -0.032258 
vt 0.125984 0.129032 
vt 0.149606 0.129032 
vt 0.716535 0.129032 
vt 0.795276 -0.032258 
vt 0.795276 -0.032258 
vt 0.236220 -0.032258 
vt 0.149606 0.129032 
vt 0.157480 0.129032 
vt 0.787402 0.129032 
vt 0.834646 -0.032258 
vt 0.834646 -0.032258 
vt 0.204724 -0.032258 
vt 0.157480 0.129032 
vt 0.165354 0.129032 
vt 0.803150 0.129032 
vt 0.834646 -0.032258 
vt 0.834646 -0.032258 
vt 0.196850 -0.032258 
vt 0.165354 0.129032 
vt 0.165354 0.129032 
vt 0.771654 0.129032 
vt 0.826772 -0.032258 
vt 0.826772 -0.032258 
vt 0.220472 -0.032258 
vt 0.165354 0.129032 
vt 0.370079 0.129032 
vt 0.370079 -0.032258 
vt 0.000000 0.129032 
vt 0.370079 -0.032258 
vt 0.000000 -0.032258 
vt 0.000000 0.129032 
vt 0.740157 -0.032258 
vt 0.543307 0.161290 
vt 0.314961 -0.032258 
vt 0.543307 0.161290 
vt 0.118110 0.161290 
vt 0.314961 -0.032258 
vt 0.519685 0.161290 
vt 0.188976 0.161290 
vt 0.141732 -0.032258 
vt 0.472441 -0.032258 
vt 0.519685 0.161290 
vt 0.141732 -0.032258 
vt 0.472441 -0.032258 
vt 0.803150 -0.032258 
vt 0.850394 0.161290 
vt 0.850394 0.161290 
vt 0.519685 0.161290 
vt 0.472441 -0.032258 
vt 0.456693 0.161290 
vt 0.771654 0.161290 
vt 0.850394 -0.032258 
vt 0.535433 -0.032258 
vt 0.456693 0.161290 
vt 0.850394 -0.032258 
vt 0.535433 -0.032258 
vt 0.220472 -0.032258 
vt 0.141732 0.161290 
vt 0.141732 0.161290 
vt 0.456693 0.161290 
vt 0.535433 -0.032258 
vt 0.181102 0.161290 
vt 0.842520 0.161290 
vt 0.763780 -0.032258 
vt 0.763780 -0.032258 
vt 0.188976 -0.032258 
vt 0.181102 0.161290 
vt 0.165354 0.161290 
vt 0.700787 0.161290 
vt 0.826772 -0.032258 
vt 0.826772 -0.032258 
vt 0.338583 -0.032258 
vt 0.165354 0.161290 
vt 0.188976 0.161290 
vt 0.826772 0.161290 
vt 0.771654 -0.032258 
vt 0.771654 -0.032258 
vt 0.188976 -0.032258 
vt 0.188976 0.161290 
vt 0.488189 -0.032258 
vt 0.220472 0.161290 
vt 0.543307 0.161290 
vt 0.220472 0.161290 
vt 0.488189 -0.032258 
vt 0.157480 -0.032258 
vt 0.543307 0.161290 
vt 0.763780 -0.032258 
vt 0.488189 -0.032258 
vt 0.763780 -0.032258 
vt 0.543307 0.161290 
vt 0.842520 0.161290 
vt 0.740157 -0.032258 
vt 0.543307 0.161290 
vt 0.314961 -0.032258 
vt 0.543307 0.161290 
vt 0.118110 0.161290 
vt 0.314961 -0.032258 
vt 0.519685 0.161290 
vt 0.188976 0.161290 
vt 0.141732 -0.032258 
vt 0.472441 -0.032258 
vt 0.519685 0.161290 
vt 0.141732 -0.032258 
vt 0.472441 -0.032258 
vt 0.803150 -0.032258 
vt 0.850394 0.161290 
vt 0.850394 0.161290 
vt 0.519685 0.161290 
vt 0.472441 -0.032258 
vt 0.456693 0.161290 
vt 0.771654 0.161290 
vt 0.850394 -0.032258 
vt 0.535433 -0.032258 
vt 0.456693 0.161290 
vt 0.850394 -0.032258 
vt 0.535433 -0.032258 
vt 0.220472 -0.032258 
vt 0.141732 0.161290 
vt 0.141732 0.161290 
vt 0.456693 0.161290 
vt 0.535433 -0.032258 
vt 0.181102 0.161290 
vt 0.842520 0.161290 
vt 0.763780 -0.032258 
vt 0.763780 -0.032258 
vt 0.188976 -0.032258 
vt 0.181102 0.161290 
vt 0.165354 0.161290 
vt 0.700787 0.161290 
vt 0.826772 -0.032258 
vt 0.826772 -0.032258 
vt 0.338583 -0.032258 
vt 0.165354 0.161290 
vt 0.188976 0.161290 
vt 0.826772 0.161290 
vt 0.771654 -0.032258 
vt 0.771654 -0.032258 
vt 0.188976 -0.032258 
vt 0.188976 0.161290 
f 1/1/1 2/2/2 3/3/3
f 4/4/4 5/5/5 6/6/6
f 7/7/7 8/8/8 9/9/9
f 10/10/10 11/11/11 12/12/12
f 13/13/13 14/14/14 15/15/15
f 16/16/16 17/17/17 18/18/18
f 19/19/19 20/20/20 21/21/21
f 22/22/22 23/23/23 24/24/24
f 25/25/25 26/26/26 27/27/27
f 28/28/28 29/29/29 30/30/30
f 31/31/31 32/32/32 33/33/33
f 34/34/34 35/35/35 36/36/36
f 37/37/37 38/38/38 39/39/39
f 40/40/40 41/41/41 42/42/42
f 43/43/43 44/44/44 45/45/45
f 46/46/46 47/47/47 48/48/48
f 49/49/49 50/50/50 51/51/51
f 52/52/52 53/53/53 54/54/54
f 55/55/55 56/56/56 57/57/57
f 58/58/58 59/59/59 60/60/60
f 61/61/61 62/62/62 63/63/63
f 64/64/64 65/65/65 66/66/66
f 67/67/67 68/68/68 69/69/69
f 70/70/70 71/71/71 72/72/72
f 73/73/73 74/74/74 75/75/75
f 76/76/76 77/77/77 78/78/78
f 79/79/79 80/80/80 81/81/81
f 82/82/82 83/83/83 84/84/84
f 85/85/85 86/86/86 87/87/87
f 88/88/88 89/89/89 90/90/90
f 91/91/91 92/92/92 93/93/93
f 94/94/94 95/95/95 96/96/96
f 97/97/97 98/98/98 99/99/99
f 100/100/100 101/101/101 102/102/102
f 103/103/103 104/104/104 105/105/105
f 106/106/106 107/107/107 108/108/108
f 109/109/109 110/110/110 111/111/111
f 112/112/112 113/113/113 114/114/114
f 115/115/115 116/116/116 117/117/117
f 118/118/118 119/119/119 120/120/120
f 121/121/121 122/122/122 123/123/123
f 124/124/124 125/125/125 126/126/126
f 127/127/127 128/128/128 129/129/129
f 130/130/130 131/131/131 132/132/132
f 133/133/133 134/134/134 135/135/135
f 136/136/136 137/137/137 138/138/138
f 139/139/139 140/140/140 141/141/141
f 142/142/142 143/143/143 144/144/144
f 145/145/145 146/146/146 147/147/147
f 148/148/148 149/149/149 150/150/150
f 151/151/151 152/152/152 153/153/153
f 154/154/154 155/155/155 156/156/156
f 157/157/157 158/158/158 159/159/159
f 160/160/160 161/161/161 162/162/162
f 163/163/163 164/164/164 165/165/165
f 166/166/166 167/167/167 168/168/168
f 169/169/169 170/170/170 171/171/171
f 172/172/172 173/173/173 174/174/174
f 175/175/175 176/176/176 177/177/177
f 178/178/178 179/179/179 180/180/180
f 181/181/181 182/182/182 183/183/183
f 184/184/184 185/185/185 186/186/186
