v 8.000000 14.000000 0.000000 
v 5.000000 -1.000000 8.000000 
v 4.000000 -7.000000 0.000000 
v 1.000000 -11.000000 0.000000 
v 47.000000 -6.000000 -4.000000 
v 46.000000 0.000000 2.000000 
vn 0.998535 0.000000 -0.051758 
vn 0.871826 -0.408203 0.269775 
vn 0.694580 -0.718994 -0.004395 
vn 0.097900 -0.982422 0.157959 
vn -0.087402 -0.968750 -0.231445 
vn -0.659180 0.000000 0.751709 
vt 0.811024 0.055118 
vt 0.677165 0.125984 
vt 0.551181 0.078740 
vt 0.464567 0.440945 
vt 0.448819 0.299213 
vt 0.425197 0.307087 
f 1/1/1 2/2/2 3/3/3
f 4/4/4 5/5/5 6/6/6
