v -69.000000 11.000000 109.000000 
v -87.000000 -1.000000 109.000000 
v -87.000000 -40.000000 109.000000 
v -87.000000 -40.000000 109.000000 
v 27.000000 -40.000000 109.000000 
v -69.000000 11.000000 109.000000 
v -87.000000 -1.000000 109.000000 
v -87.000000 -40.000000 44.000000 
v -87.000000 -40.000000 109.000000 
v -87.000000 40.000000 -109.000000 
v 46.000000 -40.000000 -109.000000 
v -87.000000 -40.000000 -109.000000 
v -8.000000 40.000000 -109.000000 
v 87.000000 -11.000000 -109.000000 
v 46.000000 -40.000000 -109.000000 
v 46.000000 -40.000000 -109.000000 
v -87.000000 40.000000 -109.000000 
v -8.000000 40.000000 -109.000000 
v -87.000000 -1.000000 109.000000 
v -69.000000 11.000000 109.000000 
v -87.000000 22.000000 109.000000 
v -87.000000 -1.000000 109.000000 
v -87.000000 -40.000000 -109.000000 
v -87.000000 -40.000000 44.000000 
v -87.000000 -1.000000 109.000000 
v -87.000000 40.000000 -109.000000 
v -87.000000 -40.000000 -109.000000 
v -87.000000 40.000000 -109.000000 
v -87.000000 -1.000000 109.000000 
v -87.000000 40.000000 44.000000 
v -87.000000 -1.000000 109.000000 
v -87.000000 22.000000 109.000000 
v -87.000000 40.000000 44.000000 
v -8.000000 40.000000 -109.000000 
v -87.000000 40.000000 -109.000000 
v -87.000000 40.000000 44.000000 
v 27.000000 -40.000000 109.000000 
v -8.000000 40.000000 -109.000000 
v -87.000000 40.000000 44.000000 
v -87.000000 40.000000 44.000000 
v -87.000000 22.000000 109.000000 
v -69.000000 11.000000 109.000000 
v -87.000000 40.000000 44.000000 
v -69.000000 11.000000 109.000000 
v 27.000000 -40.000000 109.000000 
v 27.000000 -40.000000 109.000000 
v 87.000000 -11.000000 -109.000000 
v -8.000000 40.000000 -109.000000 
v 27.000000 -40.000000 109.000000 
v 46.000000 -40.000000 -109.000000 
v 87.000000 -11.000000 -109.000000 
v 46.000000 -40.000000 -109.000000 
v 27.000000 -40.000000 109.000000 
v -87.000000 -40.000000 109.000000 
v -87.000000 -40.000000 44.000000 
v -87.000000 -40.000000 -109.000000 
v 46.000000 -40.000000 -109.000000 
v -87.000000 -40.000000 109.000000 
v -87.000000 -40.000000 44.000000 
v 46.000000 -40.000000 -109.000000 
vn 0.000000 0.000000 1.000000 
vn 0.000000 0.000000 1.000000 
vn 0.000000 0.000000 1.000000 
vn 0.000000 0.000000 1.000000 
vn 0.000000 0.000000 1.000000 
vn 0.000000 0.000000 1.000000 
vn -1.000000 0.000000 0.000000 
vn -1.000000 0.000000 0.000000 
vn -1.000000 0.000000 0.000000 
vn 0.000000 0.000000 -1.000000 
vn 0.000000 0.000000 -1.000000 
vn 0.000000 0.000000 -1.000000 
vn 0.000000 0.000000 -1.000000 
vn 0.000000 0.000000 -1.000000 
vn 0.000000 0.000000 -1.000000 
vn 0.000000 0.000000 -1.000000 
vn 0.000000 0.000000 -1.000000 
vn 0.000000 0.000000 -1.000000 
vn 0.000000 0.000000 1.000000 
vn 0.000000 0.000000 1.000000 
vn 0.000000 0.000000 1.000000 
vn -1.000000 0.000000 0.000000 
vn -1.000000 0.000000 0.000000 
vn -1.000000 0.000000 0.000000 
vn -1.000000 0.000000 0.000000 
vn -1.000000 0.000000 0.000000 
vn -1.000000 0.000000 0.000000 
vn -1.000000 0.000000 0.000000 
vn -1.000000 0.000000 0.000000 
vn -1.000000 0.000000 0.000000 
vn -1.000000 0.000000 0.000000 
vn -1.000000 0.000000 0.000000 
vn -1.000000 0.000000 0.000000 
vn 0.000000 1.000000 0.000000 
vn 0.000000 1.000000 0.000000 
vn 0.000000 1.000000 0.000000 
vn 0.460938 0.854492 0.238525 
vn 0.460938 0.854492 0.238525 
vn 0.460938 0.854492 0.238525 
vn 0.460938 0.854492 0.238525 
vn 0.460938 0.854492 0.238525 
vn 0.460938 0.854492 0.238525 
vn 0.460938 0.854492 0.238525 
vn 0.460938 0.854492 0.238525 
vn 0.460938 0.854492 0.238525 
vn 0.460938 0.854492 0.238525 
vn 0.460938 0.854492 0.238525 
vn 0.460938 0.854492 0.238525 
vn 0.565430 -0.822998 0.050293 
vn 0.565430 -0.822998 0.050293 
vn 0.565430 -0.822998 0.050293 
vn 0.000000 -1.000000 0.000000 
vn 0.000000 -1.000000 0.000000 
vn 0.000000 -1.000000 0.000000 
vn 0.000000 -1.000000 0.000000 
vn 0.000000 -1.000000 0.000000 
vn 0.000000 -1.000000 0.000000 
vn 0.000000 -1.000000 0.000000 
vn 0.000000 -1.000000 0.000000 
vn 0.000000 -1.000000 0.000000 
vt 0.282353 0.244094 
vt 0.309804 0.181102 
vt 0.309804 -0.007874 
vt 0.309804 -0.007874 
vt 0.125490 -0.007874 
vt 0.282353 0.244094 
vt 0.000000 0.181102 
vt 0.090196 -0.007874 
vt 0.000000 -0.007874 
vt 0.000000 0.385827 
vt 0.215686 -0.007874 
vt 0.000000 -0.007874 
vt 0.125490 0.385827 
vt 0.282353 0.133858 
vt 0.215686 -0.007874 
vt 0.215686 -0.007874 
vt 0.000000 0.385827 
vt 0.125490 0.385827 
vt 0.309804 0.181102 
vt 0.282353 0.244094 
vt 0.309804 0.299213 
vt 0.000000 0.181102 
vt 0.309804 -0.007874 
vt 0.090196 -0.007874 
vt 0.000000 0.181102 
vt 0.309804 0.385827 
vt 0.309804 -0.007874 
vt 0.309804 0.385827 
vt 0.000000 0.181102 
vt 0.090196 0.385827 
vt 0.000000 0.181102 
vt 0.000000 0.299213 
vt 0.090196 0.385827 
vt 0.419608 0.385827 
vt 0.498039 0.385827 
vt 0.498039 0.110236 
vt 0.949020 0.267717 
vt 0.505882 0.653543 
vt 0.815686 0.748031 
vt 0.815686 0.748031 
vt 0.945098 0.677165 
vt 0.945098 0.606299 
vt 0.815686 0.748031 
vt 0.945098 0.606299 
vt 0.949020 0.267717 
vt 0.949020 0.267717 
vt 0.509804 0.307087 
vt 0.505882 0.653543 
vt 0.949020 0.267717 
vt 0.521569 0.007874 
vt 0.509804 0.307087 
vt 0.188235 0.007874 
vt 0.235294 0.338583 
vt 0.313726 0.338583 
vt 0.313726 0.236220 
vt 0.313726 0.007874 
vt 0.188235 0.007874 
vt 0.313726 0.338583 
vt 0.313726 0.236220 
vt 0.188235 0.007874 
f 1/1/1 2/2/2 3/3/3
f 4/4/4 5/5/5 6/6/6
f 7/7/7 8/8/8 9/9/9
f 10/10/10 11/11/11 12/12/12
f 13/13/13 14/14/14 15/15/15
f 16/16/16 17/17/17 18/18/18
f 19/19/19 20/20/20 21/21/21
f 22/22/22 23/23/23 24/24/24
f 25/25/25 26/26/26 27/27/27
f 28/28/28 29/29/29 30/30/30
f 31/31/31 32/32/32 33/33/33
f 34/34/34 35/35/35 36/36/36
f 37/37/37 38/38/38 39/39/39
f 40/40/40 41/41/41 42/42/42
f 43/43/43 44/44/44 45/45/45
f 46/46/46 47/47/47 48/48/48
f 49/49/49 50/50/50 51/51/51
f 52/52/52 53/53/53 54/54/54
f 55/55/55 56/56/56 57/57/57
f 58/58/58 59/59/59 60/60/60
