v 5.000000 10.000000 10.000000 
v 5.000000 0.000000 14.000000 
v 7.000000 0.000000 0.000000 
v 5.000000 14.000000 0.000000 
v 5.000000 10.000000 10.000000 
v 7.000000 0.000000 0.000000 
v 5.000000 10.000000 -10.000000 
v 5.000000 14.000000 0.000000 
v 7.000000 0.000000 0.000000 
v 5.000000 0.000000 -14.000000 
v 5.000000 10.000000 -10.000000 
v 7.000000 0.000000 0.000000 
v 5.000000 -10.000000 -10.000000 
v 5.000000 0.000000 -14.000000 
v 7.000000 0.000000 0.000000 
v 5.000000 -14.000000 0.000000 
v 5.000000 -10.000000 -10.000000 
v 7.000000 0.000000 0.000000 
v 5.000000 -10.000000 10.000000 
v 5.000000 -14.000000 0.000000 
v 7.000000 0.000000 0.000000 
v 5.000000 0.000000 14.000000 
v 5.000000 -10.000000 10.000000 
v 7.000000 0.000000 0.000000 
v 0.000000 14.000000 14.000000 
v 0.000000 0.000000 21.000000 
v 5.000000 0.000000 14.000000 
v 5.000000 10.000000 10.000000 
v 0.000000 14.000000 14.000000 
v 5.000000 0.000000 14.000000 
v 0.000000 21.000000 0.000000 
v 0.000000 14.000000 14.000000 
v 5.000000 10.000000 10.000000 
v 5.000000 14.000000 0.000000 
v 0.000000 21.000000 0.000000 
v 5.000000 10.000000 10.000000 
v 0.000000 14.000000 -14.000000 
v 0.000000 21.000000 0.000000 
v 5.000000 14.000000 0.000000 
v 5.000000 10.000000 -10.000000 
v 0.000000 14.000000 -14.000000 
v 5.000000 14.000000 0.000000 
v 0.000000 0.000000 -21.000000 
v 0.000000 14.000000 -14.000000 
v 5.000000 10.000000 -10.000000 
v 5.000000 0.000000 -14.000000 
v 0.000000 0.000000 -21.000000 
v 5.000000 10.000000 -10.000000 
v 0.000000 -14.000000 -14.000000 
v 0.000000 0.000000 -21.000000 
v 5.000000 0.000000 -14.000000 
v 5.000000 -10.000000 -10.000000 
v 0.000000 -14.000000 -14.000000 
v 5.000000 0.000000 -14.000000 
v 0.000000 -21.000000 0.000000 
v 0.000000 -14.000000 -14.000000 
v 5.000000 -10.000000 -10.000000 
v 5.000000 -14.000000 0.000000 
v 0.000000 -21.000000 0.000000 
v 5.000000 -10.000000 -10.000000 
v 0.000000 -14.000000 14.000000 
v 0.000000 -21.000000 0.000000 
v 5.000000 -14.000000 0.000000 
v 5.000000 -10.000000 10.000000 
v 0.000000 -14.000000 14.000000 
v 5.000000 -14.000000 0.000000 
v 0.000000 0.000000 21.000000 
v 0.000000 -14.000000 14.000000 
v 5.000000 -10.000000 10.000000 
v 5.000000 0.000000 14.000000 
v 0.000000 0.000000 21.000000 
v 5.000000 -10.000000 10.000000 
vn 0.652344 0.589844 0.475586 
vn 0.652588 0.080566 0.753174 
vn 0.999756 0.000244 0.000000 
vn 0.652344 0.753418 -0.080322 
vn 0.652344 0.589844 0.475586 
vn 0.999756 0.000244 0.000000 
vn 0.652344 0.475830 -0.589600 
vn 0.652344 0.753418 -0.080322 
vn 0.999756 0.000244 0.000000 
vn 0.652588 -0.080078 -0.753174 
vn 0.652344 0.475830 -0.589600 
vn 0.999756 0.000244 0.000000 
vn 0.652832 -0.589355 -0.475586 
vn 0.652588 -0.080078 -0.753174 
vn 0.999756 0.000244 0.000000 
vn 0.652832 -0.752930 0.080322 
vn 0.652832 -0.589355 -0.475586 
vn 0.999756 0.000244 0.000000 
vn 0.652588 -0.475342 0.589600 
vn 0.652832 -0.752930 0.080322 
vn 0.999756 0.000244 0.000000 
vn 0.652588 0.080566 0.753174 
vn 0.652588 -0.475342 0.589600 
vn 0.999756 0.000244 0.000000 
vn 0.379395 0.558594 0.737305 
vn 0.379639 -0.126221 0.916260 
vn 0.652588 0.080566 0.753174 
vn 0.652344 0.589844 0.475586 
vn 0.379395 0.558594 0.737305 
vn 0.652588 0.080566 0.753174 
vn 0.379150 0.916504 0.126465 
vn 0.379395 0.558594 0.737305 
vn 0.652344 0.589844 0.475586 
vn 0.652344 0.753418 -0.080322 
vn 0.379150 0.916504 0.126465 
vn 0.652344 0.589844 0.475586 
vn 0.379150 0.737549 -0.558350 
vn 0.379150 0.916504 0.126465 
vn 0.652344 0.753418 -0.080322 
vn 0.652344 0.475830 -0.589600 
vn 0.379150 0.737549 -0.558350 
vn 0.652344 0.753418 -0.080322 
vn 0.379395 0.126465 -0.916260 
vn 0.379150 0.737549 -0.558350 
vn 0.652344 0.475830 -0.589600 
vn 0.652588 -0.080078 -0.753174 
vn 0.379395 0.126465 -0.916260 
vn 0.652344 0.475830 -0.589600 
vn 0.379639 -0.558350 -0.737305 
vn 0.379395 0.126465 -0.916260 
vn 0.652588 -0.080078 -0.753174 
vn 0.652832 -0.589355 -0.475586 
vn 0.379639 -0.558350 -0.737305 
vn 0.652588 -0.080078 -0.753174 
vn 0.379883 -0.916260 -0.126465 
vn 0.379639 -0.558350 -0.737305 
vn 0.652832 -0.589355 -0.475586 
vn 0.652832 -0.752930 0.080322 
vn 0.379883 -0.916260 -0.126465 
vn 0.652832 -0.589355 -0.475586 
vn 0.379639 -0.737305 0.558350 
vn 0.379883 -0.916260 -0.126465 
vn 0.652832 -0.752930 0.080322 
vn 0.652588 -0.475342 0.589600 
vn 0.379639 -0.737305 0.558350 
vn 0.652832 -0.752930 0.080322 
vn 0.379639 -0.126221 0.916260 
vn 0.379639 -0.737305 0.558350 
vn 0.652588 -0.475342 0.589600 
vn 0.652588 0.080566 0.753174 
vn 0.379639 -0.126221 0.916260 
vn 0.652588 -0.475342 0.589600 
vt 0.480315 0.511811 
vt 0.496063 0.519685 
vt 0.496063 0.496063 
vt 0.472441 0.496063 
vt 0.480315 0.511811 
vt 0.496063 0.496063 
vt 0.480315 0.480315 
vt 0.472441 0.496063 
vt 0.496063 0.496063 
vt 0.496063 0.472441 
vt 0.480315 0.480315 
vt 0.496063 0.496063 
vt 0.511811 0.480315 
vt 0.496063 0.472441 
vt 0.496063 0.496063 
vt 0.519685 0.496063 
vt 0.511811 0.480315 
vt 0.496063 0.496063 
vt 0.511811 0.511811 
vt 0.519685 0.496063 
vt 0.496063 0.496063 
vt 0.496063 0.519685 
vt 0.511811 0.511811 
vt 0.496063 0.496063 
vt 0.464567 0.527559 
vt 0.496063 0.543307 
vt 0.496063 0.519685 
vt 0.480315 0.511811 
vt 0.464567 0.527559 
vt 0.496063 0.519685 
vt 0.448819 0.496063 
vt 0.464567 0.527559 
vt 0.480315 0.511811 
vt 0.472441 0.496063 
vt 0.448819 0.496063 
vt 0.480315 0.511811 
vt 0.464567 0.464567 
vt 0.448819 0.496063 
vt 0.472441 0.496063 
vt 0.480315 0.480315 
vt 0.464567 0.464567 
vt 0.472441 0.496063 
vt 0.496063 0.448819 
vt 0.464567 0.464567 
vt 0.480315 0.480315 
vt 0.496063 0.472441 
vt 0.496063 0.448819 
vt 0.480315 0.480315 
vt 0.527559 0.464567 
vt 0.496063 0.448819 
vt 0.496063 0.472441 
vt 0.511811 0.480315 
vt 0.527559 0.464567 
vt 0.496063 0.472441 
vt 0.543307 0.496063 
vt 0.527559 0.464567 
vt 0.511811 0.480315 
vt 0.519685 0.496063 
vt 0.543307 0.496063 
vt 0.511811 0.480315 
vt 0.527559 0.527559 
vt 0.543307 0.496063 
vt 0.519685 0.496063 
vt 0.511811 0.511811 
vt 0.527559 0.527559 
vt 0.519685 0.496063 
vt 0.496063 0.543307 
vt 0.527559 0.527559 
vt 0.511811 0.511811 
vt 0.496063 0.519685 
vt 0.496063 0.543307 
vt 0.511811 0.511811 
f 1/1/1 2/2/2 3/3/3
f 4/4/4 5/5/5 6/6/6
f 7/7/7 8/8/8 9/9/9
f 10/10/10 11/11/11 12/12/12
f 13/13/13 14/14/14 15/15/15
f 16/16/16 17/17/17 18/18/18
f 19/19/19 20/20/20 21/21/21
f 22/22/22 23/23/23 24/24/24
f 25/25/25 26/26/26 27/27/27
f 28/28/28 29/29/29 30/30/30
f 31/31/31 32/32/32 33/33/33
f 34/34/34 35/35/35 36/36/36
f 37/37/37 38/38/38 39/39/39
f 40/40/40 41/41/41 42/42/42
f 43/43/43 44/44/44 45/45/45
f 46/46/46 47/47/47 48/48/48
f 49/49/49 50/50/50 51/51/51
f 52/52/52 53/53/53 54/54/54
f 55/55/55 56/56/56 57/57/57
f 58/58/58 59/59/59 60/60/60
f 61/61/61 62/62/62 63/63/63
f 64/64/64 65/65/65 66/66/66
f 67/67/67 68/68/68 69/69/69
f 70/70/70 71/71/71 72/72/72
