v -9.000000 30.000000 0.000000 
v 9.000000 -30.000000 0.000000 
v 9.000000 31.000000 0.000000 
v 9.000000 -30.000000 0.000000 
v -9.000000 30.000000 0.000000 
v -9.000000 -31.000000 0.000000 
v -9.000000 30.000000 0.000000 
v 9.000000 31.000000 0.000000 
v 9.000000 -30.000000 0.000000 
v 9.000000 -30.000000 0.000000 
v -9.000000 -31.000000 0.000000 
v -9.000000 30.000000 0.000000 
vn -0.000244 0.000000 0.999756 
vn -0.000244 0.000000 0.999756 
vn -0.000244 0.000000 0.999756 
vn -0.000244 0.000000 0.999756 
vn -0.000244 0.000000 0.999756 
vn -0.000244 0.000000 0.999756 
vn 0.000244 0.000000 -0.999756 
vn 0.000244 0.000000 -0.999756 
vn 0.000244 0.000000 -0.999756 
vn 0.000244 0.000000 -0.999756 
vn 0.000244 0.000000 -0.999756 
vn 0.000244 0.000000 -0.999756 
vt 0.774194 1.000000 
vt 0.516129 -0.032258 
vt 0.516129 1.000000 
vt 0.516129 -0.032258 
vt 0.774194 1.000000 
vt 0.774194 -0.032258 
vt 0.774194 1.000000 
vt 0.516129 1.000000 
vt 0.516129 -0.032258 
vt 0.516129 -0.032258 
vt 0.774194 -0.032258 
vt 0.774194 1.000000 
f 1/1/1 2/2/2 3/3/3
f 4/4/4 5/5/5 6/6/6
f 7/7/7 8/8/8 9/9/9
f 10/10/10 11/11/11 12/12/12
