v 34.000000 2.000000 2.000000 
v 24.000000 10.000000 5.000000 
v 24.000000 1.000000 16.000000 
v 34.000000 2.000000 2.000000 
v 25.000000 10.000000 -1.000000 
v 24.000000 10.000000 5.000000 
v 34.000000 2.000000 2.000000 
v 25.000000 1.000000 -5.000000 
v 25.000000 10.000000 -1.000000 
v 34.000000 2.000000 2.000000 
v 25.000000 -7.000000 -1.000000 
v 25.000000 1.000000 -5.000000 
v 34.000000 2.000000 2.000000 
v 24.000000 -7.000000 5.000000 
v 25.000000 -7.000000 -1.000000 
v 34.000000 2.000000 2.000000 
v 24.000000 1.000000 16.000000 
v 24.000000 -7.000000 5.000000 
v -15.000000 2.000000 9.000000 
v -16.000000 13.000000 3.000000 
v -21.000000 5.000000 0.000000 
v -16.000000 13.000000 3.000000 
v -15.000000 13.000000 -4.000000 
v -21.000000 5.000000 0.000000 
v -15.000000 13.000000 -4.000000 
v -14.000000 2.000000 -8.000000 
v -21.000000 5.000000 0.000000 
v -14.000000 2.000000 -8.000000 
v -13.000000 -1.000000 -3.000000 
v -21.000000 5.000000 0.000000 
v -13.000000 -1.000000 -3.000000 
v -13.000000 -1.000000 4.000000 
v -21.000000 5.000000 0.000000 
v -13.000000 -1.000000 4.000000 
v -15.000000 2.000000 9.000000 
v -21.000000 5.000000 0.000000 
v 24.000000 1.000000 16.000000 
v 24.000000 10.000000 5.000000 
v -15.000000 2.000000 9.000000 
v 24.000000 10.000000 5.000000 
v -16.000000 13.000000 3.000000 
v -15.000000 2.000000 9.000000 
v 24.000000 10.000000 5.000000 
v 25.000000 10.000000 -1.000000 
v -16.000000 13.000000 3.000000 
v 25.000000 10.000000 -1.000000 
v -15.000000 13.000000 -4.000000 
v -16.000000 13.000000 3.000000 
v 25.000000 10.000000 -1.000000 
v 25.000000 1.000000 -5.000000 
v -15.000000 13.000000 -4.000000 
v 25.000000 1.000000 -5.000000 
v -14.000000 2.000000 -8.000000 
v -15.000000 13.000000 -4.000000 
v 25.000000 1.000000 -5.000000 
v 25.000000 -7.000000 -1.000000 
v -14.000000 2.000000 -8.000000 
v 25.000000 -7.000000 -1.000000 
v -13.000000 -1.000000 -3.000000 
v -14.000000 2.000000 -8.000000 
v 25.000000 -7.000000 -1.000000 
v 24.000000 -7.000000 5.000000 
v -13.000000 -1.000000 -3.000000 
v 24.000000 -7.000000 5.000000 
v -13.000000 -1.000000 4.000000 
v -13.000000 -1.000000 -3.000000 
v 24.000000 -7.000000 5.000000 
v 24.000000 1.000000 16.000000 
v -13.000000 -1.000000 4.000000 
v 24.000000 1.000000 16.000000 
v -15.000000 2.000000 9.000000 
v -13.000000 -1.000000 4.000000 
vn 0.997559 0.009521 -0.067383 
vn 0.332031 0.856934 0.394043 
vn 0.436279 -0.370117 0.819824 
vn 0.997559 0.009521 -0.067383 
vn 0.410889 0.853516 -0.320068 
vn 0.332031 0.856934 0.394043 
vn 0.997559 0.009521 -0.067383 
vn 0.425049 0.119629 -0.896973 
vn 0.410889 0.853516 -0.320068 
vn 0.997559 0.009521 -0.067383 
vn 0.301025 -0.832275 -0.465088 
vn 0.425049 0.119629 -0.896973 
vn 0.997559 0.009521 -0.067383 
vn 0.220215 -0.958496 0.180420 
vn 0.301025 -0.832275 -0.465088 
vn 0.997559 0.009521 -0.067383 
vn 0.436279 -0.370117 0.819824 
vn 0.220215 -0.958496 0.180420 
vn -0.930176 -0.256592 0.261475 
vn -0.921631 0.355469 0.154297 
vn -0.967773 -0.238525 -0.077637 
vn -0.921631 0.355469 0.154297 
vn -0.895508 0.339600 -0.286865 
vn -0.967773 -0.238525 -0.077637 
vn -0.895508 0.339600 -0.286865 
vn -0.871338 -0.259277 -0.416260 
vn -0.967773 -0.238525 -0.077637 
vn -0.871338 -0.259277 -0.416260 
vn -0.706055 -0.691650 -0.150635 
vn -0.967773 -0.238525 -0.077637 
vn -0.706055 -0.691650 -0.150635 
vn -0.710693 -0.702393 0.035645 
vn -0.967773 -0.238525 -0.077637 
vn -0.710693 -0.702393 0.035645 
vn -0.930176 -0.256592 0.261475 
vn -0.967773 -0.238525 -0.077637 
vn 0.436279 -0.370117 0.819824 
vn 0.332031 0.856934 0.394043 
vn -0.125977 0.303223 0.944336 
vn 0.332031 0.856934 0.394043 
vn 0.072021 0.948486 0.307861 
vn -0.125977 0.303223 0.944336 
vn 0.332031 0.856934 0.394043 
vn 0.410889 0.853516 -0.320068 
vn 0.072021 0.948486 0.307861 
vn 0.410889 0.853516 -0.320068 
vn 0.097168 0.750977 -0.653076 
vn 0.072021 0.948486 0.307861 
vn 0.410889 0.853516 -0.320068 
vn 0.425049 0.119629 -0.896973 
vn 0.097168 0.750977 -0.653076 
vn 0.425049 0.119629 -0.896973 
vn -0.002686 -0.358887 -0.933105 
vn 0.097168 0.750977 -0.653076 
vn 0.425049 0.119629 -0.896973 
vn 0.301025 -0.832275 -0.465088 
vn -0.002686 -0.358887 -0.933105 
vn 0.301025 -0.832275 -0.465088 
vn -0.164307 -0.967529 -0.190674 
vn -0.002686 -0.358887 -0.933105 
vn 0.301025 -0.832275 -0.465088 
vn 0.220215 -0.958496 0.180420 
vn -0.164307 -0.967529 -0.190674 
vn 0.220215 -0.958496 0.180420 
vn -0.171143 -0.944580 0.279785 
vn -0.164307 -0.967529 -0.190674 
vn 0.220215 -0.958496 0.180420 
vn 0.436279 -0.370117 0.819824 
vn -0.171143 -0.944580 0.279785 
vn 0.436279 -0.370117 0.819824 
vn -0.125977 0.303223 0.944336 
vn -0.171143 -0.944580 0.279785 
vt 0.507937 0.000000 
vt 0.777778 0.063492 
vt 0.507937 0.063492 
vt 0.507937 0.000000 
vt 0.507937 0.063492 
vt 0.777778 0.063492 
vt 0.507937 0.000000 
vt 0.285714 0.063492 
vt 0.507937 0.063492 
vt 0.507937 0.000000 
vt 0.507937 0.063492 
vt 0.285714 0.063492 
vt 0.507937 0.000000 
vt 0.777778 0.063492 
vt 0.507937 0.063492 
vt 0.507937 0.000000 
vt 0.507937 0.063492 
vt 0.777778 0.063492 
vt 0.507937 0.380952 
vt 0.269841 0.396825 
vt 0.507937 0.444444 
vt 0.269841 0.396825 
vt 0.507937 0.396825 
vt 0.507937 0.444444 
vt 0.507937 0.396825 
vt 0.269841 0.396825 
vt 0.507937 0.444444 
vt 0.269841 0.396825 
vt 0.507937 0.396825 
vt 0.507937 0.444444 
vt 0.507937 0.396825 
vt 0.777778 0.380952 
vt 0.507937 0.444444 
vt 0.777778 0.380952 
vt 0.507937 0.380952 
vt 0.507937 0.444444 
vt 0.507937 0.063492 
vt 0.269841 0.063492 
vt 0.507937 0.380952 
vt 0.269841 0.063492 
vt 0.269841 0.396825 
vt 0.507937 0.380952 
vt 0.269841 0.063492 
vt 0.507937 0.063492 
vt 0.269841 0.396825 
vt 0.507937 0.063492 
vt 0.507937 0.396825 
vt 0.269841 0.396825 
vt 0.507937 0.063492 
vt 0.269841 0.063492 
vt 0.507937 0.396825 
vt 0.269841 0.063492 
vt 0.269841 0.396825 
vt 0.507937 0.396825 
vt 0.269841 0.063492 
vt 0.507937 0.063492 
vt 0.269841 0.396825 
vt 0.507937 0.063492 
vt 0.507937 0.396825 
vt 0.269841 0.396825 
vt 0.507937 0.063492 
vt 0.777778 0.063492 
vt 0.507937 0.396825 
vt 0.777778 0.063492 
vt 0.777778 0.380952 
vt 0.507937 0.396825 
vt 0.777778 0.063492 
vt 0.507937 0.063492 
vt 0.777778 0.380952 
vt 0.507937 0.063492 
vt 0.507937 0.380952 
vt 0.777778 0.380952 
f 1/1/1 2/2/2 3/3/3
f 4/4/4 5/5/5 6/6/6
f 7/7/7 8/8/8 9/9/9
f 10/10/10 11/11/11 12/12/12
f 13/13/13 14/14/14 15/15/15
f 16/16/16 17/17/17 18/18/18
f 19/19/19 20/20/20 21/21/21
f 22/22/22 23/23/23 24/24/24
f 25/25/25 26/26/26 27/27/27
f 28/28/28 29/29/29 30/30/30
f 31/31/31 32/32/32 33/33/33
f 34/34/34 35/35/35 36/36/36
f 37/37/37 38/38/38 39/39/39
f 40/40/40 41/41/41 42/42/42
f 43/43/43 44/44/44 45/45/45
f 46/46/46 47/47/47 48/48/48
f 49/49/49 50/50/50 51/51/51
f 52/52/52 53/53/53 54/54/54
f 55/55/55 56/56/56 57/57/57
f 58/58/58 59/59/59 60/60/60
f 61/61/61 62/62/62 63/63/63
f 64/64/64 65/65/65 66/66/66
f 67/67/67 68/68/68 69/69/69
f 70/70/70 71/71/71 72/72/72
