v 156.000000 184.000000 26.000000 
v 165.000000 200.000000 26.000000 
v 156.000000 184.000000 -1.000000 
v 165.000000 200.000000 26.000000 
v 165.000000 200.000000 -1.000000 
v 156.000000 184.000000 -1.000000 
v 165.000000 200.000000 26.000000 
v 183.000000 200.000000 26.000000 
v 165.000000 200.000000 -1.000000 
v 183.000000 200.000000 26.000000 
v 183.000000 200.000000 -1.000000 
v 165.000000 200.000000 -1.000000 
v 183.000000 200.000000 26.000000 
v 192.000000 184.000000 26.000000 
v 183.000000 200.000000 -1.000000 
v 192.000000 184.000000 26.000000 
v 192.000000 184.000000 -1.000000 
v 183.000000 200.000000 -1.000000 
v 192.000000 184.000000 26.000000 
v 183.000000 169.000000 26.000000 
v 192.000000 184.000000 -1.000000 
v 183.000000 169.000000 26.000000 
v 183.000000 169.000000 -1.000000 
v 192.000000 184.000000 -1.000000 
v 165.000000 169.000000 26.000000 
v 156.000000 184.000000 26.000000 
v 165.000000 169.000000 -1.000000 
v 156.000000 184.000000 26.000000 
v 156.000000 184.000000 -1.000000 
v 165.000000 169.000000 -1.000000 
v 165.000000 200.000000 26.000000 
v 156.000000 184.000000 26.000000 
v 174.000000 184.000000 26.000000 
v 156.000000 184.000000 26.000000 
v 165.000000 169.000000 26.000000 
v 174.000000 184.000000 26.000000 
v 183.000000 200.000000 26.000000 
v 165.000000 200.000000 26.000000 
v 174.000000 184.000000 26.000000 
v 192.000000 184.000000 26.000000 
v 183.000000 200.000000 26.000000 
v 174.000000 184.000000 26.000000 
v 183.000000 169.000000 26.000000 
v 192.000000 184.000000 26.000000 
v 174.000000 184.000000 26.000000 
v 165.000000 169.000000 26.000000 
v 183.000000 169.000000 26.000000 
v 174.000000 184.000000 26.000000 
vn -0.783203 -0.150635 0.602783 
vn -0.522217 0.602783 0.602783 
vn -0.981934 0.188965 0.000000 
vn -0.522217 0.602783 0.602783 
vn -0.327148 0.944824 0.000000 
vn -0.981934 0.188965 0.000000 
vn -0.522217 0.602783 0.602783 
vn 0.260986 0.753662 0.602783 
vn -0.327148 0.944824 0.000000 
vn 0.260986 0.753662 0.602783 
vn 0.654541 0.755859 0.000000 
vn -0.327148 0.944824 0.000000 
vn 0.260986 0.753662 0.602783 
vn 0.783203 0.150635 0.602783 
vn 0.654541 0.755859 0.000000 
vn 0.783203 0.150635 0.602783 
vn 0.981934 -0.188965 0.000000 
vn 0.654541 0.755859 0.000000 
vn 0.783203 0.150635 0.602783 
vn 0.612305 -0.353516 0.707031 
vn 0.981934 -0.188965 0.000000 
vn 0.612305 -0.353516 0.707031 
vn 0.865967 -0.500000 0.000000 
vn 0.981934 -0.188965 0.000000 
vn -0.387207 -0.223389 0.894287 
vn -0.783203 -0.150635 0.602783 
vn -0.865967 -0.500000 0.000000 
vn -0.783203 -0.150635 0.602783 
vn -0.981934 0.188965 0.000000 
vn -0.865967 -0.500000 0.000000 
vn -0.522217 0.602783 0.602783 
vn -0.783203 -0.150635 0.602783 
vn 0.000000 0.000000 1.000000 
vn -0.783203 -0.150635 0.602783 
vn -0.387207 -0.223389 0.894287 
vn 0.000000 0.000000 1.000000 
vn 0.260986 0.753662 0.602783 
vn -0.522217 0.602783 0.602783 
vn 0.000000 0.000000 1.000000 
vn 0.783203 0.150635 0.602783 
vn 0.260986 0.753662 0.602783 
vn 0.000000 0.000000 1.000000 
vn 0.612305 -0.353516 0.707031 
vn 0.783203 0.150635 0.602783 
vn 0.000000 0.000000 1.000000 
vn -0.387207 -0.223389 0.894287 
vn 0.612305 -0.353516 0.707031 
vn 0.000000 0.000000 1.000000 
vt 0.193548 0.492063 
vt 0.387097 0.492063 
vt 0.193548 -0.015873 
vt 0.387097 0.492063 
vt 0.387097 -0.015873 
vt 0.193548 -0.015873 
vt 0.387097 0.492063 
vt 0.612903 0.492063 
vt 0.387097 -0.015873 
vt 0.612903 0.492063 
vt 0.612903 -0.015873 
vt 0.387097 -0.015873 
vt 0.612903 0.492063 
vt 0.806452 0.492063 
vt 0.612903 -0.015873 
vt 0.806452 0.492063 
vt 0.806452 -0.015873 
vt 0.612903 -0.015873 
vt 0.806452 0.492063 
vt 1.000000 0.492063 
vt 0.806452 -0.015873 
vt 1.000000 0.492063 
vt 1.000000 -0.015873 
vt 0.806452 -0.015873 
vt 0.000000 0.492063 
vt 0.193548 0.492063 
vt 0.000000 -0.015873 
vt 0.193548 0.492063 
vt 0.193548 -0.015873 
vt 0.000000 -0.015873 
vt 0.709677 0.904762 
vt 0.903226 0.746032 
vt 0.516129 0.746032 
vt 0.903226 0.746032 
vt 0.709677 0.587302 
vt 0.516129 0.746032 
vt 0.290323 0.904762 
vt 0.709677 0.904762 
vt 0.516129 0.746032 
vt 0.096774 0.746032 
vt 0.290323 0.904762 
vt 0.516129 0.746032 
vt 0.290323 0.587302 
vt 0.096774 0.746032 
vt 0.516129 0.746032 
vt 0.709677 0.587302 
vt 0.290323 0.587302 
vt 0.516129 0.746032 
f 1/1/1 2/2/2 3/3/3
f 4/4/4 5/5/5 6/6/6
f 7/7/7 8/8/8 9/9/9
f 10/10/10 11/11/11 12/12/12
f 13/13/13 14/14/14 15/15/15
f 16/16/16 17/17/17 18/18/18
f 19/19/19 20/20/20 21/21/21
f 22/22/22 23/23/23 24/24/24
f 25/25/25 26/26/26 27/27/27
f 28/28/28 29/29/29 30/30/30
f 31/31/31 32/32/32 33/33/33
f 34/34/34 35/35/35 36/36/36
f 37/37/37 38/38/38 39/39/39
f 40/40/40 41/41/41 42/42/42
f 43/43/43 44/44/44 45/45/45
f 46/46/46 47/47/47 48/48/48
