v -50.000000 -56.000000 49.000000 
v -10.000000 17.000000 8.000000 
v -54.000000 -43.000000 16.000000 
v -50.000000 -56.000000 49.000000 
v -8.000000 14.000000 45.000000 
v -10.000000 17.000000 8.000000 
v -8.000000 14.000000 45.000000 
v 15.000000 24.000000 3.000000 
v -10.000000 17.000000 8.000000 
v -8.000000 14.000000 45.000000 
v 15.000000 25.000000 21.000000 
v 15.000000 24.000000 3.000000 
v -79.000000 -109.000000 -27.000000 
v -20.000000 -98.000000 -49.000000 
v -50.000000 -125.000000 -27.000000 
v -79.000000 -109.000000 -27.000000 
v -67.000000 -77.000000 -43.000000 
v -20.000000 -98.000000 -49.000000 
v 15.000000 25.000000 21.000000 
v 22.000000 -5.000000 45.000000 
v 27.000000 18.000000 21.000000 
v 15.000000 25.000000 21.000000 
v -8.000000 14.000000 45.000000 
v 22.000000 -5.000000 45.000000 
v 22.000000 -5.000000 45.000000 
v -50.000000 -56.000000 49.000000 
v -20.000000 -73.000000 49.000000 
v 22.000000 -5.000000 45.000000 
v -8.000000 14.000000 45.000000 
v -50.000000 -56.000000 49.000000 
v -20.000000 -73.000000 49.000000 
v -77.000000 -100.000000 10.000000 
v -43.000000 -119.000000 10.000000 
v -20.000000 -73.000000 49.000000 
v -50.000000 -56.000000 49.000000 
v -77.000000 -100.000000 10.000000 
v -43.000000 -119.000000 10.000000 
v -79.000000 -109.000000 -27.000000 
v -50.000000 -125.000000 -27.000000 
v -43.000000 -119.000000 10.000000 
v -77.000000 -100.000000 10.000000 
v -79.000000 -109.000000 -27.000000 
v -25.000000 -47.000000 -4.000000 
v -54.000000 -43.000000 16.000000 
v -10.000000 17.000000 8.000000 
v -25.000000 -47.000000 -4.000000 
v -10.000000 17.000000 8.000000 
v 15.000000 24.000000 3.000000 
v -25.000000 -47.000000 -4.000000 
v 15.000000 24.000000 3.000000 
v 26.000000 18.000000 3.000000 
v -50.000000 -56.000000 49.000000 
v -54.000000 -43.000000 16.000000 
v -67.000000 -77.000000 -43.000000 
v -50.000000 -56.000000 49.000000 
v -67.000000 -77.000000 -43.000000 
v -79.000000 -109.000000 -27.000000 
v -50.000000 -56.000000 49.000000 
v -79.000000 -109.000000 -27.000000 
v -77.000000 -100.000000 10.000000 
v -67.000000 -77.000000 -43.000000 
v -54.000000 -43.000000 16.000000 
v -25.000000 -47.000000 -4.000000 
v -67.000000 -77.000000 -43.000000 
v -25.000000 -47.000000 -4.000000 
v -20.000000 -98.000000 -49.000000 
v -43.000000 -119.000000 10.000000 
v -50.000000 -125.000000 -27.000000 
v -20.000000 -98.000000 -49.000000 
v -43.000000 -119.000000 10.000000 
v -20.000000 -98.000000 -49.000000 
v -25.000000 -47.000000 -4.000000 
v -43.000000 -119.000000 10.000000 
v -25.000000 -47.000000 -4.000000 
v -20.000000 -73.000000 49.000000 
v -20.000000 -73.000000 49.000000 
v -25.000000 -47.000000 -4.000000 
v 26.000000 18.000000 3.000000 
v -20.000000 -73.000000 49.000000 
v 26.000000 18.000000 3.000000 
v 22.000000 -5.000000 45.000000 
v 22.000000 -5.000000 45.000000 
v 26.000000 18.000000 3.000000 
v 27.000000 18.000000 21.000000 
v 27.000000 18.000000 21.000000 
v 26.000000 18.000000 3.000000 
v 15.000000 24.000000 3.000000 
v 27.000000 18.000000 21.000000 
v 15.000000 24.000000 3.000000 
v 15.000000 25.000000 21.000000 
vn -0.759033 0.297119 0.579102 
vn -0.667725 0.668457 -0.327148 
vn -0.772705 0.574219 -0.269531 
vn -0.759033 0.297119 0.579102 
vn -0.303955 0.807617 0.504883 
vn -0.667725 0.668457 -0.327148 
vn -0.303955 0.807617 0.504883 
vn 0.023682 0.883545 -0.467285 
vn -0.667725 0.668457 -0.327148 
vn -0.303955 0.807617 0.504883 
vn 0.218506 0.885986 0.408203 
vn 0.023682 0.883545 -0.467285 
vn -0.848633 -0.384033 -0.363037 
vn 0.462891 -0.360107 -0.809814 
vn -0.011963 -0.949951 -0.311279 
vn -0.848633 -0.384033 -0.363037 
vn -0.648438 0.488281 -0.583740 
vn 0.462891 -0.360107 -0.809814 
vn 0.218506 0.885986 0.408203 
vn 0.619629 0.109863 0.776855 
vn 0.723633 0.667236 0.175049 
vn 0.218506 0.885986 0.408203 
vn -0.303955 0.807617 0.504883 
vn 0.619629 0.109863 0.776855 
vn 0.619629 0.109863 0.776855 
vn -0.759033 0.297119 0.579102 
vn 0.565674 -0.648926 0.508545 
vn 0.619629 0.109863 0.776855 
vn -0.303955 0.807617 0.504883 
vn -0.759033 0.297119 0.579102 
vn 0.565674 -0.648926 0.508545 
vn -0.640381 -0.422607 0.641113 
vn 0.338623 -0.865234 0.368896 
vn 0.565674 -0.648926 0.508545 
vn -0.759033 0.297119 0.579102 
vn -0.640381 -0.422607 0.641113 
vn 0.338623 -0.865234 0.368896 
vn -0.848633 -0.384033 -0.363037 
vn -0.011963 -0.949951 -0.311279 
vn 0.338623 -0.865234 0.368896 
vn -0.640381 -0.422607 0.641113 
vn -0.848633 -0.384033 -0.363037 
vn 0.395020 0.200439 -0.896240 
vn -0.772705 0.574219 -0.269531 
vn -0.667725 0.668457 -0.327148 
vn 0.395020 0.200439 -0.896240 
vn -0.667725 0.668457 -0.327148 
vn 0.023682 0.883545 -0.467285 
vn 0.395020 0.200439 -0.896240 
vn 0.023682 0.883545 -0.467285 
vn 0.854004 -0.111084 -0.507812 
vn -0.759033 0.297119 0.579102 
vn -0.772705 0.574219 -0.269531 
vn -0.648438 0.488281 -0.583740 
vn -0.759033 0.297119 0.579102 
vn -0.648438 0.488281 -0.583740 
vn -0.848633 -0.384033 -0.363037 
vn -0.759033 0.297119 0.579102 
vn -0.848633 -0.384033 -0.363037 
vn -0.640381 -0.422607 0.641113 
vn -0.648438 0.488281 -0.583740 
vn -0.772705 0.574219 -0.269531 
vn 0.395020 0.200439 -0.896240 
vn -0.648438 0.488281 -0.583740 
vn 0.395020 0.200439 -0.896240 
vn 0.462891 -0.360107 -0.809814 
vn 0.338623 -0.865234 0.368896 
vn -0.011963 -0.949951 -0.311279 
vn 0.462891 -0.360107 -0.809814 
vn 0.338623 -0.865234 0.368896 
vn 0.462891 -0.360107 -0.809814 
vn 0.395020 0.200439 -0.896240 
vn 0.338623 -0.865234 0.368896 
vn 0.395020 0.200439 -0.896240 
vn 0.565674 -0.648926 0.508545 
vn 0.565674 -0.648926 0.508545 
vn 0.395020 0.200439 -0.896240 
vn 0.854004 -0.111084 -0.507812 
vn 0.565674 -0.648926 0.508545 
vn 0.854004 -0.111084 -0.507812 
vn 0.619629 0.109863 0.776855 
vn 0.619629 0.109863 0.776855 
vn 0.854004 -0.111084 -0.507812 
vn 0.723633 0.667236 0.175049 
vn 0.723633 0.667236 0.175049 
vn 0.854004 -0.111084 -0.507812 
vn 0.023682 0.883545 -0.467285 
vn 0.723633 0.667236 0.175049 
vn 0.023682 0.883545 -0.467285 
vn 0.218506 0.885986 0.408203 
vt 0.952381 0.920635 
vt 0.793651 0.920635 
vt 0.888889 0.857143 
vt 0.952381 0.920635 
vt 0.857143 0.984127 
vt 0.793651 0.920635 
vt 0.857143 0.984127 
vt 0.761905 0.920635 
vt 0.793651 0.920635 
vt 0.857143 0.984127 
vt 0.793651 0.952381 
vt 0.761905 0.920635 
vt 0.857143 0.825397 
vt 0.793651 0.841270 
vt 0.825397 0.809524 
vt 0.857143 0.825397 
vt 0.841270 0.873016 
vt 0.793651 0.841270 
vt 0.920635 0.952381 
vt 0.888889 0.936508 
vt 0.888889 0.952381 
vt 0.920635 0.952381 
vt 0.936508 0.936508 
vt 0.888889 0.936508 
vt 0.888889 0.936508 
vt 0.936508 0.841270 
vt 0.888889 0.841270 
vt 0.888889 0.936508 
vt 0.936508 0.936508 
vt 0.936508 0.841270 
vt 0.888889 0.841270 
vt 0.952381 0.777778 
vt 0.904762 0.793651 
vt 0.888889 0.841270 
vt 0.936508 0.841270 
vt 0.952381 0.777778 
vt 0.904762 0.793651 
vt 0.952381 0.714286 
vt 0.904762 0.730159 
vt 0.904762 0.793651 
vt 0.952381 0.777778 
vt 0.952381 0.714286 
vt 0.904762 0.809524 
vt 0.936508 0.793651 
vt 0.920635 0.888889 
vt 0.904762 0.809524 
vt 0.920635 0.888889 
vt 0.888889 0.904762 
vt 0.904762 0.809524 
vt 0.888889 0.904762 
vt 0.873016 0.904762 
vt 0.952381 0.920635 
vt 0.888889 0.857143 
vt 0.841270 0.873016 
vt 0.952381 0.920635 
vt 0.841270 0.873016 
vt 0.857143 0.825397 
vt 0.952381 0.920635 
vt 0.857143 0.825397 
vt 0.952381 0.777778 
vt 0.920635 0.746032 
vt 0.936508 0.793651 
vt 0.904762 0.809524 
vt 0.920635 0.746032 
vt 0.904762 0.809524 
vt 0.857143 0.777778 
vt 0.904762 0.793651 
vt 0.825397 0.809524 
vt 0.793651 0.841270 
vt 0.904762 0.793651 
vt 0.793651 0.841270 
vt 0.904762 0.809524 
vt 0.904762 0.793651 
vt 0.904762 0.809524 
vt 0.888889 0.841270 
vt 0.888889 0.841270 
vt 0.904762 0.809524 
vt 0.873016 0.904762 
vt 0.888889 0.841270 
vt 0.873016 0.904762 
vt 0.888889 0.936508 
vt 0.888889 0.936508 
vt 0.873016 0.904762 
vt 0.888889 0.952381 
vt 0.888889 0.952381 
vt 0.873016 0.904762 
vt 0.761905 0.920635 
vt 0.888889 0.952381 
vt 0.761905 0.920635 
vt 0.793651 0.952381 
f 1/1/1 2/2/2 3/3/3
f 4/4/4 5/5/5 6/6/6
f 7/7/7 8/8/8 9/9/9
f 10/10/10 11/11/11 12/12/12
f 13/13/13 14/14/14 15/15/15
f 16/16/16 17/17/17 18/18/18
f 19/19/19 20/20/20 21/21/21
f 22/22/22 23/23/23 24/24/24
f 25/25/25 26/26/26 27/27/27
f 28/28/28 29/29/29 30/30/30
f 31/31/31 32/32/32 33/33/33
f 34/34/34 35/35/35 36/36/36
f 37/37/37 38/38/38 39/39/39
f 40/40/40 41/41/41 42/42/42
f 43/43/43 44/44/44 45/45/45
f 46/46/46 47/47/47 48/48/48
f 49/49/49 50/50/50 51/51/51
f 52/52/52 53/53/53 54/54/54
f 55/55/55 56/56/56 57/57/57
f 58/58/58 59/59/59 60/60/60
f 61/61/61 62/62/62 63/63/63
f 64/64/64 65/65/65 66/66/66
f 67/67/67 68/68/68 69/69/69
f 70/70/70 71/71/71 72/72/72
f 73/73/73 74/74/74 75/75/75
f 76/76/76 77/77/77 78/78/78
f 79/79/79 80/80/80 81/81/81
f 82/82/82 83/83/83 84/84/84
f 85/85/85 86/86/86 87/87/87
f 88/88/88 89/89/89 90/90/90
