v -38.000000 20.000000 -27.000000 
v -38.000000 20.000000 27.000000 
v 38.000000 20.000000 27.000000 
v 38.000000 20.000000 27.000000 
v 38.000000 20.000000 -27.000000 
v -38.000000 20.000000 -27.000000 
v -38.000000 20.000000 -27.000000 
v -35.000000 -20.000000 -25.000000 
v -35.000000 -20.000000 25.000000 
v -35.000000 -20.000000 25.000000 
v -38.000000 20.000000 27.000000 
v -38.000000 20.000000 -27.000000 
v 38.000000 20.000000 -27.000000 
v 35.000000 -20.000000 -25.000000 
v -35.000000 -20.000000 -25.000000 
v -35.000000 -20.000000 -25.000000 
v -38.000000 20.000000 -27.000000 
v 38.000000 20.000000 -27.000000 
v 38.000000 20.000000 27.000000 
v 35.000000 -20.000000 25.000000 
v 35.000000 -20.000000 -25.000000 
v 35.000000 -20.000000 -25.000000 
v 38.000000 20.000000 -27.000000 
v 38.000000 20.000000 27.000000 
v -35.000000 -20.000000 25.000000 
v 35.000000 -20.000000 25.000000 
v 38.000000 20.000000 27.000000 
v -38.000000 20.000000 27.000000 
v -35.000000 -20.000000 25.000000 
v 38.000000 20.000000 27.000000 
v -35.000000 -20.000000 25.000000 
v -35.000000 -20.000000 -25.000000 
v 35.000000 -20.000000 -25.000000 
v 35.000000 -20.000000 25.000000 
v -35.000000 -20.000000 25.000000 
v 35.000000 -20.000000 -25.000000 
vn 0.000000 1.000000 0.000000 
vn 0.000000 1.000000 0.000000 
vn 0.000000 1.000000 0.000000 
vn 0.000000 1.000000 0.000000 
vn 0.000000 1.000000 0.000000 
vn 0.000000 1.000000 0.000000 
vn -0.997559 -0.068359 0.000000 
vn -0.997559 -0.068359 0.000000 
vn -0.997559 -0.068359 0.000000 
vn -0.997559 -0.068359 0.000000 
vn -0.997559 -0.068359 0.000000 
vn -0.997559 -0.068359 0.000000 
vn 0.000000 -0.048584 -0.998779 
vn 0.000000 -0.048584 -0.998779 
vn 0.000000 -0.048584 -0.998779 
vn 0.000000 -0.048584 -0.998779 
vn 0.000000 -0.048584 -0.998779 
vn 0.000000 -0.048584 -0.998779 
vn 0.997559 -0.068359 0.000000 
vn 0.997559 -0.068359 0.000000 
vn 0.997559 -0.068359 0.000000 
vn 0.997559 -0.068359 0.000000 
vn 0.997559 -0.068359 0.000000 
vn 0.997559 -0.068359 0.000000 
vn 0.000000 -0.048584 0.998779 
vn 0.000000 -0.048584 0.998779 
vn 0.000000 -0.048584 0.998779 
vn 0.000000 -0.048584 0.998779 
vn 0.000000 -0.048584 0.998779 
vn 0.000000 -0.048584 0.998779 
vn 0.000000 -1.000000 0.000000 
vn 0.000000 -1.000000 0.000000 
vn 0.000000 -1.000000 0.000000 
vn 0.000000 -1.000000 0.000000 
vn 0.000000 -1.000000 0.000000 
vn 0.000000 -1.000000 0.000000 
vt 0.498039 0.622047 
vt 0.498039 0.385827 
vt 0.309804 0.385827 
vt 0.309804 0.385827 
vt 0.309804 0.622047 
vt 0.498039 0.622047 
vt 0.309804 1.000000 
vt 0.309804 0.385827 
vt 0.149020 0.385827 
vt 0.149020 0.385827 
vt 0.149020 1.000000 
vt 0.309804 1.000000 
vt 0.309804 1.000000 
vt 0.309804 0.385827 
vt 0.145098 0.385827 
vt 0.145098 0.385827 
vt 0.145098 1.000000 
vt 0.309804 1.000000 
vt 0.309804 1.000000 
vt 0.309804 0.385827 
vt 0.145098 0.385827 
vt 0.145098 0.385827 
vt 0.145098 1.000000 
vt 0.309804 1.000000 
vt 0.494118 0.007874 
vt 0.313726 0.007874 
vt 0.313726 0.385827 
vt 0.494118 0.385827 
vt 0.494118 0.007874 
vt 0.313726 0.385827 
vt 0.490196 0.362205 
vt 0.490196 0.015748 
vt 0.313726 0.015748 
vt 0.313726 0.362205 
vt 0.490196 0.362205 
vt 0.313726 0.015748 
f 1/1/1 2/2/2 3/3/3
f 4/4/4 5/5/5 6/6/6
f 7/7/7 8/8/8 9/9/9
f 10/10/10 11/11/11 12/12/12
f 13/13/13 14/14/14 15/15/15
f 16/16/16 17/17/17 18/18/18
f 19/19/19 20/20/20 21/21/21
f 22/22/22 23/23/23 24/24/24
f 25/25/25 26/26/26 27/27/27
f 28/28/28 29/29/29 30/30/30
f 31/31/31 32/32/32 33/33/33
f 34/34/34 35/35/35 36/36/36
