v -39.000000 28.000000 29.000000 
v -42.000000 9.000000 30.000000 
v -22.000000 8.000000 48.000000 
v -16.000000 39.000000 44.000000 
v -39.000000 28.000000 29.000000 
v -22.000000 8.000000 48.000000 
v 0.000000 44.000000 44.000000 
v -16.000000 39.000000 44.000000 
v -22.000000 8.000000 48.000000 
v 0.000000 8.000000 56.000000 
v 0.000000 44.000000 44.000000 
v -22.000000 8.000000 48.000000 
v 15.000000 39.000000 44.000000 
v 0.000000 44.000000 44.000000 
v 0.000000 8.000000 56.000000 
v 21.000000 9.000000 48.000000 
v 15.000000 39.000000 44.000000 
v 0.000000 8.000000 56.000000 
v 39.000000 28.000000 29.000000 
v 15.000000 39.000000 44.000000 
v 21.000000 9.000000 48.000000 
v 42.000000 9.000000 30.000000 
v 39.000000 28.000000 29.000000 
v 21.000000 9.000000 48.000000 
v -42.000000 30.000000 -2.000000 
v -48.000000 9.000000 -1.000000 
v -42.000000 9.000000 30.000000 
v -39.000000 28.000000 29.000000 
v -42.000000 30.000000 -2.000000 
v -42.000000 9.000000 30.000000 
v -15.000000 50.000000 0.000000 
v -42.000000 30.000000 -2.000000 
v -39.000000 28.000000 29.000000 
v -16.000000 39.000000 44.000000 
v -16.000000 46.000000 26.000000 
v -39.000000 28.000000 29.000000 
v 0.000000 52.000000 26.000000 
v -16.000000 46.000000 26.000000 
v -16.000000 39.000000 44.000000 
v 0.000000 44.000000 44.000000 
v 0.000000 52.000000 26.000000 
v -16.000000 39.000000 44.000000 
v 16.000000 46.000000 26.000000 
v 0.000000 52.000000 26.000000 
v 0.000000 44.000000 44.000000 
v 15.000000 39.000000 44.000000 
v 16.000000 46.000000 26.000000 
v 0.000000 44.000000 44.000000 
v 42.000000 30.000000 -2.000000 
v 16.000000 51.000000 11.000000 
v 16.000000 46.000000 26.000000 
v 39.000000 28.000000 29.000000 
v 42.000000 30.000000 -2.000000 
v 16.000000 46.000000 26.000000 
v 48.000000 9.000000 -1.000000 
v 42.000000 30.000000 -2.000000 
v 39.000000 28.000000 29.000000 
v 42.000000 9.000000 30.000000 
v 48.000000 9.000000 -1.000000 
v 39.000000 28.000000 29.000000 
v -41.000000 28.000000 -31.000000 
v -43.000000 9.000000 -34.000000 
v -48.000000 9.000000 -1.000000 
v -42.000000 30.000000 -2.000000 
v -41.000000 28.000000 -31.000000 
v -48.000000 9.000000 -1.000000 
v -17.000000 49.000000 -34.000000 
v -41.000000 28.000000 -31.000000 
v -42.000000 30.000000 -2.000000 
v -15.000000 50.000000 0.000000 
v -17.000000 49.000000 -34.000000 
v -42.000000 30.000000 -2.000000 
v 0.000000 53.000000 -35.000000 
v -15.000000 49.000000 -35.000000 
v -13.000000 51.000000 -4.000000 
v 0.000000 55.000000 -4.000000 
v 0.000000 53.000000 -35.000000 
v -13.000000 51.000000 -4.000000 
v 14.000000 49.000000 -35.000000 
v 0.000000 53.000000 -35.000000 
v 0.000000 55.000000 -4.000000 
v 12.000000 51.000000 -4.000000 
v 14.000000 49.000000 -35.000000 
v 0.000000 55.000000 -4.000000 
v 40.000000 28.000000 -31.000000 
v 17.000000 49.000000 -34.000000 
v 15.000000 50.000000 0.000000 
v 42.000000 30.000000 -2.000000 
v 40.000000 28.000000 -31.000000 
v 15.000000 50.000000 0.000000 
v 43.000000 9.000000 -34.000000 
v 40.000000 28.000000 -31.000000 
v 42.000000 30.000000 -2.000000 
v 48.000000 9.000000 -1.000000 
v 43.000000 9.000000 -34.000000 
v 42.000000 30.000000 -2.000000 
v -29.000000 27.000000 -53.000000 
v -26.000000 9.000000 -53.000000 
v -43.000000 9.000000 -34.000000 
v -41.000000 28.000000 -31.000000 
v -29.000000 27.000000 -53.000000 
v -43.000000 9.000000 -34.000000 
v -16.000000 38.000000 -53.000000 
v -29.000000 27.000000 -53.000000 
v -41.000000 28.000000 -31.000000 
v -17.000000 49.000000 -34.000000 
v -16.000000 38.000000 -53.000000 
v -41.000000 28.000000 -31.000000 
v 29.000000 27.000000 -53.000000 
v 16.000000 38.000000 -53.000000 
v 17.000000 49.000000 -34.000000 
v 40.000000 28.000000 -31.000000 
v 29.000000 27.000000 -53.000000 
v 17.000000 49.000000 -34.000000 
v 25.000000 9.000000 -53.000000 
v 29.000000 27.000000 -53.000000 
v 40.000000 28.000000 -31.000000 
v 43.000000 9.000000 -34.000000 
v 25.000000 9.000000 -53.000000 
v 40.000000 28.000000 -31.000000 
v -26.000000 9.000000 -53.000000 
v -29.000000 27.000000 -53.000000 
v -14.000000 9.000000 -57.000000 
v -29.000000 27.000000 -53.000000 
v -16.000000 38.000000 -53.000000 
v -14.000000 9.000000 -57.000000 
v 16.000000 38.000000 -53.000000 
v 29.000000 27.000000 -53.000000 
v 15.000000 8.000000 -56.000000 
v 29.000000 27.000000 -53.000000 
v 25.000000 9.000000 -53.000000 
v 15.000000 8.000000 -56.000000 
v -16.000000 32.000000 -49.000000 
v -16.000000 38.000000 -53.000000 
v -17.000000 49.000000 -34.000000 
v -17.000000 49.000000 -34.000000 
v -17.000000 39.000000 -34.000000 
v -16.000000 32.000000 -49.000000 
v 15.000000 39.000000 -34.000000 
v 17.000000 49.000000 -34.000000 
v 16.000000 38.000000 -53.000000 
v 16.000000 38.000000 -53.000000 
v 16.000000 32.000000 -49.000000 
v 15.000000 39.000000 -34.000000 
v -16.000000 38.000000 -53.000000 
v -16.000000 32.000000 -49.000000 
v -14.000000 9.000000 -57.000000 
v 16.000000 32.000000 -49.000000 
v 16.000000 38.000000 -53.000000 
v 15.000000 8.000000 -56.000000 
v 0.000000 53.000000 10.000000 
v -15.000000 50.000000 0.000000 
v -16.000000 51.000000 11.000000 
v -16.000000 51.000000 11.000000 
v -15.000000 50.000000 0.000000 
v -39.000000 28.000000 29.000000 
v 0.000000 52.000000 7.000000 
v 0.000000 55.000000 -4.000000 
v -13.000000 51.000000 -4.000000 
v 12.000000 51.000000 -4.000000 
v 0.000000 55.000000 -4.000000 
v 0.000000 52.000000 7.000000 
v 16.000000 51.000000 11.000000 
v 15.000000 50.000000 0.000000 
v 0.000000 53.000000 10.000000 
v 42.000000 30.000000 -2.000000 
v 15.000000 50.000000 0.000000 
v 16.000000 51.000000 11.000000 
v -15.000000 49.000000 -35.000000 
v -17.000000 49.000000 -34.000000 
v -15.000000 50.000000 0.000000 
v -15.000000 50.000000 0.000000 
v -13.000000 51.000000 -4.000000 
v -15.000000 49.000000 -35.000000 
v 12.000000 51.000000 -4.000000 
v 15.000000 50.000000 0.000000 
v 17.000000 49.000000 -34.000000 
v 17.000000 49.000000 -34.000000 
v 14.000000 49.000000 -35.000000 
v 12.000000 51.000000 -4.000000 
v -13.000000 51.000000 -4.000000 
v -15.000000 50.000000 0.000000 
v 0.000000 53.000000 10.000000 
v 0.000000 53.000000 10.000000 
v 0.000000 52.000000 7.000000 
v -13.000000 51.000000 -4.000000 
v 0.000000 52.000000 7.000000 
v 0.000000 53.000000 10.000000 
v 15.000000 50.000000 0.000000 
v 15.000000 50.000000 0.000000 
v 12.000000 51.000000 -4.000000 
v 0.000000 52.000000 7.000000 
v 39.000000 28.000000 29.000000 
v 16.000000 46.000000 26.000000 
v 15.000000 39.000000 44.000000 
v 16.000000 51.000000 11.000000 
v 0.000000 53.000000 10.000000 
v 0.000000 52.000000 26.000000 
v 0.000000 52.000000 26.000000 
v 0.000000 53.000000 10.000000 
v -16.000000 46.000000 26.000000 
v 16.000000 46.000000 26.000000 
v 16.000000 51.000000 11.000000 
v 0.000000 52.000000 26.000000 
v 0.000000 53.000000 10.000000 
v -16.000000 51.000000 11.000000 
v -16.000000 46.000000 26.000000 
v -16.000000 46.000000 26.000000 
v -16.000000 51.000000 11.000000 
v -39.000000 28.000000 29.000000 
vn -0.768799 0.555908 0.315430 
vn -0.922363 0.199707 0.330322 
vn -0.466064 0.214600 0.858154 
vn -0.431885 0.675049 0.597900 
vn -0.768799 0.555908 0.315430 
vn -0.466064 0.214600 0.858154 
vn 0.004639 0.681641 0.731445 
vn -0.431885 0.675049 0.597900 
vn -0.466064 0.214600 0.858154 
vn 0.043945 0.302002 0.952148 
vn 0.004639 0.681641 0.731445 
vn -0.466064 0.214600 0.858154 
vn 0.450439 0.541260 0.709717 
vn 0.004639 0.681641 0.731445 
vn 0.043945 0.302002 0.952148 
vn 0.582764 0.192383 0.789307 
vn 0.450439 0.541260 0.709717 
vn 0.043945 0.302002 0.952148 
vn 0.815918 0.434814 0.380127 
vn 0.450439 0.541260 0.709717 
vn 0.582764 0.192383 0.789307 
vn 0.877197 0.166748 0.450195 
vn 0.815918 0.434814 0.380127 
vn 0.582764 0.192383 0.789307 
vn -0.844238 0.533936 0.043457 
vn -0.974854 0.221924 -0.011963 
vn -0.922363 0.199707 0.330322 
vn -0.768799 0.555908 0.315430 
vn -0.844238 0.533936 0.043457 
vn -0.922363 0.199707 0.330322 
vn -0.543457 0.839355 0.000000 
vn -0.844238 0.533936 0.043457 
vn -0.768799 0.555908 0.315430 
vn -0.431885 0.675049 0.597900 
vn -0.393799 0.890869 0.225586 
vn -0.768799 0.555908 0.315430 
vn -0.026367 0.971191 0.235840 
vn -0.393799 0.890869 0.225586 
vn -0.431885 0.675049 0.597900 
vn 0.004639 0.681641 0.731445 
vn -0.026367 0.971191 0.235840 
vn -0.431885 0.675049 0.597900 
vn 0.471924 0.845703 0.248291 
vn -0.026367 0.971191 0.235840 
vn 0.004639 0.681641 0.731445 
vn 0.450439 0.541260 0.709717 
vn 0.471924 0.845703 0.248291 
vn 0.004639 0.681641 0.731445 
vn 0.817139 0.575928 0.010742 
vn 0.391357 0.916260 0.082031 
vn 0.471924 0.845703 0.248291 
vn 0.815918 0.434814 0.380127 
vn 0.817139 0.575928 0.010742 
vn 0.471924 0.845703 0.248291 
vn 0.968262 0.244629 0.047119 
vn 0.817139 0.575928 0.010742 
vn 0.815918 0.434814 0.380127 
vn 0.877197 0.166748 0.450195 
vn 0.968262 0.244629 0.047119 
vn 0.815918 0.434814 0.380127 
vn -0.849365 0.465088 -0.248779 
vn -0.910645 0.051270 -0.409668 
vn -0.974854 0.221924 -0.011963 
vn -0.844238 0.533936 0.043457 
vn -0.849365 0.465088 -0.248779 
vn -0.974854 0.221924 -0.011963 
vn -0.656250 0.740479 -0.144775 
vn -0.849365 0.465088 -0.248779 
vn -0.844238 0.533936 0.043457 
vn -0.543457 0.839355 0.000000 
vn -0.656250 0.740479 -0.144775 
vn -0.844238 0.533936 0.043457 
vn -0.103760 0.993652 -0.041016 
vn -0.262451 0.964355 -0.028320 
vn -0.290283 0.956299 0.032227 
vn 0.058105 0.997070 0.047119 
vn -0.103760 0.993652 -0.041016 
vn -0.290283 0.956299 0.032227 
vn 0.288818 0.956543 -0.034912 
vn -0.103760 0.993652 -0.041016 
vn 0.058105 0.997070 0.047119 
vn 0.308350 0.948242 0.072754 
vn 0.288818 0.956543 -0.034912 
vn 0.058105 0.997070 0.047119 
vn 0.849609 0.445557 -0.281738 
vn 0.661865 0.711670 -0.234863 
vn 0.514404 0.856201 -0.044434 
vn 0.817139 0.575928 0.010742 
vn 0.849609 0.445557 -0.281738 
vn 0.514404 0.856201 -0.044434 
vn 0.936035 0.209473 -0.281738 
vn 0.849609 0.445557 -0.281738 
vn 0.817139 0.575928 0.010742 
vn 0.968262 0.244629 0.047119 
vn 0.936035 0.209473 -0.281738 
vn 0.817139 0.575928 0.010742 
vn -0.647217 0.173584 -0.741943 
vn -0.608154 -0.128418 -0.782959 
vn -0.910645 0.051270 -0.409668 
vn -0.849365 0.465088 -0.248779 
vn -0.647217 0.173584 -0.741943 
vn -0.910645 0.051270 -0.409668 
vn -0.537109 0.560547 -0.629883 
vn -0.647217 0.173584 -0.741943 
vn -0.849365 0.465088 -0.248779 
vn -0.656250 0.740479 -0.144775 
vn -0.537109 0.560547 -0.629883 
vn -0.849365 0.465088 -0.248779 
vn 0.636230 0.284180 -0.717041 
vn 0.430664 0.460938 -0.775635 
vn 0.661865 0.711670 -0.234863 
vn 0.849609 0.445557 -0.281738 
vn 0.636230 0.284180 -0.717041 
vn 0.661865 0.711670 -0.234863 
vn 0.719482 -0.027344 -0.693604 
vn 0.636230 0.284180 -0.717041 
vn 0.849609 0.445557 -0.281738 
vn 0.936035 0.209473 -0.281738 
vn 0.719482 -0.027344 -0.693604 
vn 0.849609 0.445557 -0.281738 
vn -0.608154 -0.128418 -0.782959 
vn -0.647217 0.173584 -0.741943 
vn -0.285645 0.029297 -0.957764 
vn -0.647217 0.173584 -0.741943 
vn -0.537109 0.560547 -0.629883 
vn -0.285645 0.029297 -0.957764 
vn 0.430664 0.460938 -0.775635 
vn 0.636230 0.284180 -0.717041 
vn 0.258301 0.011475 -0.965820 
vn 0.636230 0.284180 -0.717041 
vn 0.719482 -0.027344 -0.693604 
vn 0.258301 0.011475 -0.965820 
vn 0.998535 0.030518 0.043457 
vn 0.998535 0.030518 0.043457 
vn 0.998535 0.030518 0.043457 
vn 0.998535 0.034424 0.039551 
vn 0.998535 0.034424 0.039551 
vn 0.998535 0.034424 0.039551 
vn -0.993164 0.110840 -0.029297 
vn -0.993164 0.110840 -0.029297 
vn -0.993164 0.110840 -0.029297 
vn -0.999268 -0.019043 -0.027100 
vn -0.999268 -0.019043 -0.027100 
vn -0.999268 -0.019043 -0.027100 
vn 0.992676 0.068604 0.097656 
vn 0.992676 0.068604 0.097656 
vn 0.992676 0.068604 0.097656 
vn -0.999268 0.018799 0.026855 
vn -0.999268 0.018799 0.026855 
vn -0.999268 0.018799 0.026855 
vn -0.061279 0.995850 0.066162 
vn -0.543457 0.839355 0.000000 
vn -0.434326 0.896484 0.085205 
vn -0.434326 0.896484 0.085205 
vn -0.543457 0.839355 0.000000 
vn -0.768799 0.555908 0.315430 
vn 0.002441 0.983887 0.178223 
vn 0.058105 0.997070 0.047119 
vn -0.290283 0.956299 0.032227 
vn 0.308350 0.948242 0.072754 
vn 0.058105 0.997070 0.047119 
vn 0.002441 0.983887 0.178223 
vn 0.391357 0.916260 0.082031 
vn 0.514404 0.856201 -0.044434 
vn -0.061279 0.995850 0.066162 
vn 0.817139 0.575928 0.010742 
vn 0.514404 0.856201 -0.044434 
vn 0.391357 0.916260 0.082031 
vn 0.039551 0.998779 -0.022217 
vn 0.039551 0.998779 -0.022217 
vn 0.039551 0.998779 -0.022217 
vn -0.315430 0.948486 -0.025146 
vn -0.315430 0.948486 -0.025146 
vn -0.315430 0.948486 -0.025146 
vn 0.254883 0.966797 -0.007324 
vn 0.254883 0.966797 -0.007324 
vn 0.254883 0.966797 -0.007324 
vn -0.039795 0.998047 -0.044434 
vn -0.039795 0.998047 -0.044434 
vn -0.039795 0.998047 -0.044434 
vn -0.214844 0.976074 0.026855 
vn -0.214844 0.976074 0.026855 
vn -0.214844 0.976074 0.026855 
vn 0.033203 0.985840 -0.163574 
vn 0.033203 0.985840 -0.163574 
vn 0.033203 0.985840 -0.163574 
vn 0.054688 0.984863 -0.163330 
vn 0.054688 0.984863 -0.163330 
vn 0.054688 0.984863 -0.163330 
vn 0.174072 0.983887 0.038086 
vn 0.174072 0.983887 0.038086 
vn 0.174072 0.983887 0.038086 
vn 0.815918 0.434814 0.380127 
vn 0.471924 0.845703 0.248291 
vn 0.450439 0.541260 0.709717 
vn 0.391357 0.916260 0.082031 
vn -0.061279 0.995850 0.066162 
vn -0.026367 0.971191 0.235840 
vn -0.026367 0.971191 0.235840 
vn -0.061279 0.995850 0.066162 
vn -0.393799 0.890869 0.225586 
vn 0.471924 0.845703 0.248291 
vn 0.391357 0.916260 0.082031 
vn -0.026367 0.971191 0.235840 
vn -0.061279 0.995850 0.066162 
vn -0.434326 0.896484 0.085205 
vn -0.393799 0.890869 0.225586 
vn -0.393799 0.890869 0.225586 
vn -0.434326 0.896484 0.085205 
vn -0.768799 0.555908 0.315430 
vt 0.079365 0.825397 
vt 0.000000 1.000000 
vt 0.206349 1.000000 
vt 0.365079 0.857143 
vt 0.079365 0.825397 
vt 0.222222 1.000000 
vt 0.492063 0.857143 
vt 0.365079 0.857143 
vt 0.206349 1.000000 
vt 0.492063 1.000000 
vt 0.492063 0.857143 
vt 0.206349 1.000000 
vt 0.619048 0.857143 
vt 0.492063 0.857143 
vt 0.492063 1.000000 
vt 0.698413 1.000000 
vt 0.619048 0.857143 
vt 0.492063 1.000000 
vt 0.809524 0.825397 
vt 0.619048 0.857143 
vt 0.698413 1.000000 
vt 1.000000 1.000000 
vt 0.809524 0.825397 
vt 0.698413 1.000000 
vt 0.079365 0.507937 
vt 0.000000 0.492063 
vt 0.000000 1.000000 
vt 0.079365 0.825397 
vt 0.079365 0.507937 
vt 0.000000 1.000000 
vt 0.349206 0.476190 
vt 0.079365 0.507937 
vt 0.079365 0.825397 
vt 0.317460 0.841270 
vt 0.365079 0.809524 
vt 0.079365 0.825397 
vt 0.492063 0.793651 
vt 0.365079 0.809524 
vt 0.317460 0.841270 
vt 0.492063 0.825397 
vt 0.492063 0.793651 
vt 0.317460 0.841270 
vt 0.619048 0.793651 
vt 0.492063 0.793651 
vt 0.492063 0.825397 
vt 0.650794 0.841270 
vt 0.619048 0.793651 
vt 0.492063 0.825397 
vt 0.873016 0.444444 
vt 0.634921 0.619048 
vt 0.619048 0.793651 
vt 0.809524 0.825397 
vt 0.873016 0.444444 
vt 0.619048 0.793651 
vt 1.000000 0.492063 
vt 0.873016 0.444444 
vt 0.809524 0.825397 
vt 1.000000 1.000000 
vt 1.000000 0.492063 
vt 0.809524 0.825397 
vt 0.079365 0.222222 
vt 0.000000 0.222222 
vt 0.000000 0.492063 
vt 0.079365 0.507937 
vt 0.079365 0.222222 
vt 0.000000 0.492063 
vt 0.317460 0.206349 
vt 0.079365 0.222222 
vt 0.079365 0.507937 
vt 0.349206 0.476190 
vt 0.317460 0.206349 
vt 0.079365 0.507937 
vt 0.492063 0.111111 
vt 0.317460 0.111111 
vt 0.349206 0.380952 
vt 0.492063 0.412698 
vt 0.492063 0.111111 
vt 0.349206 0.380952 
vt 0.650794 0.111111 
vt 0.492063 0.111111 
vt 0.492063 0.412698 
vt 0.619048 0.380952 
vt 0.650794 0.111111 
vt 0.492063 0.412698 
vt 0.888889 0.301587 
vt 0.698413 0.222222 
vt 0.634921 0.476190 
vt 0.873016 0.444444 
vt 0.888889 0.301587 
vt 0.634921 0.476190 
vt 1.000000 0.222222 
vt 0.888889 0.301587 
vt 0.873016 0.444444 
vt 1.000000 0.492063 
vt 1.000000 0.222222 
vt 0.873016 0.444444 
vt 0.126984 0.111111 
vt 0.000000 -0.015873 
vt 0.000000 0.222222 
vt 0.079365 0.222222 
vt 0.126984 0.111111 
vt 0.000000 0.222222 
vt 0.285714 0.031746 
vt 0.126984 0.111111 
vt 0.079365 0.222222 
vt 0.317460 0.206349 
vt 0.285714 0.031746 
vt 0.079365 0.222222 
vt 0.857143 0.095238 
vt 0.682540 0.015873 
vt 0.698413 0.222222 
vt 0.888889 0.301587 
vt 0.857143 0.095238 
vt 0.698413 0.222222 
vt 1.000000 -0.015873 
vt 0.857143 0.095238 
vt 0.888889 0.301587 
vt 1.000000 0.222222 
vt 1.000000 -0.015873 
vt 0.888889 0.301587 
vt 0.000000 -0.015873 
vt 0.126984 0.111111 
vt 0.269841 -0.015873 
vt 0.126984 0.111111 
vt 0.285714 0.031746 
vt 0.269841 -0.015873 
vt 0.682540 0.015873 
vt 0.857143 0.095238 
vt 0.730159 -0.015873 
vt 0.857143 0.095238 
vt 1.000000 -0.015873 
vt 0.730159 -0.015873 
vt 0.301587 0.000000 
vt 0.285714 0.031746 
vt 0.317460 0.206349 
vt 0.317460 0.206349 
vt 0.317460 0.095238 
vt 0.301587 0.000000 
vt 0.650794 0.111111 
vt 0.698413 0.222222 
vt 0.682540 0.015873 
vt 0.682540 0.015873 
vt 0.666667 0.000000 
vt 0.650794 0.111111 
vt 0.285714 0.031746 
vt 0.301587 0.000000 
vt 0.269841 -0.015873 
vt 0.666667 0.000000 
vt 0.682540 0.015873 
vt 0.730159 -0.015873 
vt 0.492063 0.619048 
vt 0.349206 0.476190 
vt 0.333333 0.619048 
vt 0.333333 0.619048 
vt 0.349206 0.476190 
vt 0.079365 0.825397 
vt 0.492063 0.603175 
vt 0.492063 0.412698 
vt 0.349206 0.380952 
vt 0.619048 0.380952 
vt 0.492063 0.412698 
vt 0.492063 0.603175 
vt 0.634921 0.619048 
vt 0.634921 0.476190 
vt 0.492063 0.619048 
vt 0.873016 0.444444 
vt 0.634921 0.476190 
vt 0.634921 0.619048 
vt 0.317460 0.111111 
vt 0.317460 0.206349 
vt 0.349206 0.476190 
vt 0.349206 0.476190 
vt 0.349206 0.380952 
vt 0.317460 0.111111 
vt 0.619048 0.380952 
vt 0.634921 0.476190 
vt 0.698413 0.222222 
vt 0.698413 0.222222 
vt 0.650794 0.111111 
vt 0.619048 0.380952 
vt 0.349206 0.380952 
vt 0.349206 0.476190 
vt 0.492063 0.619048 
vt 0.492063 0.619048 
vt 0.492063 0.603175 
vt 0.349206 0.380952 
vt 0.492063 0.603175 
vt 0.492063 0.619048 
vt 0.634921 0.476190 
vt 0.634921 0.476190 
vt 0.619048 0.380952 
vt 0.492063 0.603175 
vt 0.809524 0.825397 
vt 0.619048 0.793651 
vt 0.650794 0.841270 
vt 0.634921 0.619048 
vt 0.492063 0.619048 
vt 0.492063 0.793651 
vt 0.492063 0.793651 
vt 0.492063 0.619048 
vt 0.365079 0.809524 
vt 0.619048 0.793651 
vt 0.634921 0.619048 
vt 0.492063 0.793651 
vt 0.492063 0.619048 
vt 0.333333 0.619048 
vt 0.365079 0.809524 
vt 0.365079 0.809524 
vt 0.333333 0.619048 
vt 0.079365 0.825397 
f 1/1/1 2/2/2 3/3/3
f 4/4/4 5/5/5 6/6/6
f 7/7/7 8/8/8 9/9/9
f 10/10/10 11/11/11 12/12/12
f 13/13/13 14/14/14 15/15/15
f 16/16/16 17/17/17 18/18/18
f 19/19/19 20/20/20 21/21/21
f 22/22/22 23/23/23 24/24/24
f 25/25/25 26/26/26 27/27/27
f 28/28/28 29/29/29 30/30/30
f 31/31/31 32/32/32 33/33/33
f 34/34/34 35/35/35 36/36/36
f 37/37/37 38/38/38 39/39/39
f 40/40/40 41/41/41 42/42/42
f 43/43/43 44/44/44 45/45/45
f 46/46/46 47/47/47 48/48/48
f 49/49/49 50/50/50 51/51/51
f 52/52/52 53/53/53 54/54/54
f 55/55/55 56/56/56 57/57/57
f 58/58/58 59/59/59 60/60/60
f 61/61/61 62/62/62 63/63/63
f 64/64/64 65/65/65 66/66/66
f 67/67/67 68/68/68 69/69/69
f 70/70/70 71/71/71 72/72/72
f 73/73/73 74/74/74 75/75/75
f 76/76/76 77/77/77 78/78/78
f 79/79/79 80/80/80 81/81/81
f 82/82/82 83/83/83 84/84/84
f 85/85/85 86/86/86 87/87/87
f 88/88/88 89/89/89 90/90/90
f 91/91/91 92/92/92 93/93/93
f 94/94/94 95/95/95 96/96/96
f 97/97/97 98/98/98 99/99/99
f 100/100/100 101/101/101 102/102/102
f 103/103/103 104/104/104 105/105/105
f 106/106/106 107/107/107 108/108/108
f 109/109/109 110/110/110 111/111/111
f 112/112/112 113/113/113 114/114/114
f 115/115/115 116/116/116 117/117/117
f 118/118/118 119/119/119 120/120/120
f 121/121/121 122/122/122 123/123/123
f 124/124/124 125/125/125 126/126/126
f 127/127/127 128/128/128 129/129/129
f 130/130/130 131/131/131 132/132/132
f 133/133/133 134/134/134 135/135/135
f 136/136/136 137/137/137 138/138/138
f 139/139/139 140/140/140 141/141/141
f 142/142/142 143/143/143 144/144/144
f 145/145/145 146/146/146 147/147/147
f 148/148/148 149/149/149 150/150/150
f 151/151/151 152/152/152 153/153/153
f 154/154/154 155/155/155 156/156/156
f 157/157/157 158/158/158 159/159/159
f 160/160/160 161/161/161 162/162/162
f 163/163/163 164/164/164 165/165/165
f 166/166/166 167/167/167 168/168/168
f 169/169/169 170/170/170 171/171/171
f 172/172/172 173/173/173 174/174/174
f 175/175/175 176/176/176 177/177/177
f 178/178/178 179/179/179 180/180/180
f 181/181/181 182/182/182 183/183/183
f 184/184/184 185/185/185 186/186/186
f 187/187/187 188/188/188 189/189/189
f 190/190/190 191/191/191 192/192/192
f 193/193/193 194/194/194 195/195/195
f 196/196/196 197/197/197 198/198/198
f 199/199/199 200/200/200 201/201/201
f 202/202/202 203/203/203 204/204/204
f 205/205/205 206/206/206 207/207/207
f 208/208/208 209/209/209 210/210/210
