v 50.000000 9.000000 -105.000000 
v 61.000000 -8.000000 110.000000 
v -61.000000 8.000000 -110.000000 
v -50.000000 -9.000000 105.000000 
v -61.000000 8.000000 -110.000000 
v 61.000000 -8.000000 110.000000 
vn 0.000000 -1.000000 0.000000 
vn 0.000000 -1.000000 0.000000 
vn 0.000000 -1.000000 0.000000 
vn 0.000000 -1.000000 0.000000 
vn 0.000000 -1.000000 0.000000 
vn 0.000000 -1.000000 0.000000 
vt 0.000000 1.000000 
vt 0.000000 -0.015873 
vt 1.000000 1.000000 
vt 1.000000 -0.015873 
vt 1.000000 1.000000 
vt 0.000000 -0.015873 
f 1/1/1 2/2/2 3/3/3
f 4/4/4 5/5/5 6/6/6
