v 30.000000 -18.000000 -15.000000 
v 17.000000 0.000000 -21.000000 
v 30.000000 0.000000 -14.000000 
v 30.000000 0.000000 -14.000000 
v 17.000000 0.000000 -21.000000 
v 30.000000 18.000000 -15.000000 
v 15.000000 -17.000000 -19.000000 
v 17.000000 0.000000 -21.000000 
v 30.000000 -18.000000 -15.000000 
v 16.000000 -34.000000 2.000000 
v 15.000000 -17.000000 -19.000000 
v 30.000000 -18.000000 -15.000000 
v 30.000000 -27.000000 0.000000 
v 16.000000 -34.000000 2.000000 
v 30.000000 -18.000000 -15.000000 
v 30.000000 -22.000000 16.000000 
v 16.000000 -34.000000 2.000000 
v 30.000000 -27.000000 0.000000 
v 0.000000 -20.000000 24.000000 
v 16.000000 -34.000000 2.000000 
v 30.000000 -22.000000 16.000000 
v 0.000000 0.000000 21.000000 
v 30.000000 -22.000000 16.000000 
v 27.000000 0.000000 14.000000 
v 0.000000 0.000000 21.000000 
v 0.000000 -20.000000 24.000000 
v 30.000000 -22.000000 16.000000 
v 30.000000 22.000000 16.000000 
v 0.000000 0.000000 21.000000 
v 27.000000 0.000000 14.000000 
v 0.000000 20.000000 24.000000 
v 0.000000 0.000000 21.000000 
v 30.000000 22.000000 16.000000 
v 16.000000 34.000000 2.000000 
v 0.000000 20.000000 24.000000 
v 30.000000 22.000000 16.000000 
v 30.000000 27.000000 0.000000 
v 16.000000 34.000000 2.000000 
v 30.000000 22.000000 16.000000 
v 30.000000 18.000000 -15.000000 
v 16.000000 34.000000 2.000000 
v 30.000000 27.000000 0.000000 
v 15.000000 17.000000 -19.000000 
v 16.000000 34.000000 2.000000 
v 30.000000 18.000000 -15.000000 
v 17.000000 0.000000 -21.000000 
v 15.000000 17.000000 -19.000000 
v 30.000000 18.000000 -15.000000 
v 37.000000 0.000000 -9.000000 
v 34.000000 0.000000 14.000000 
v 36.000000 14.000000 0.000000 
v 34.000000 0.000000 14.000000 
v 37.000000 0.000000 -9.000000 
v 36.000000 -14.000000 0.000000 
vn 0.862793 -0.463379 -0.201660 
vn 0.358887 0.000488 -0.933105 
vn 0.981934 -0.000732 -0.188721 
vn 0.981934 -0.000732 -0.188721 
vn 0.358887 0.000488 -0.933105 
vn 0.863525 0.462158 -0.200684 
vn 0.169922 -0.715820 -0.677002 
vn 0.358887 0.000488 -0.933105 
vn 0.862793 -0.463379 -0.201660 
vn 0.013184 -0.998291 -0.054199 
vn 0.169922 -0.715820 -0.677002 
vn 0.862793 -0.463379 -0.201660 
vn 0.741455 -0.643799 0.188232 
vn 0.013184 -0.998291 -0.054199 
vn 0.862793 -0.463379 -0.201660 
vn 0.597168 -0.371094 0.710938 
vn 0.013184 -0.998291 -0.054199 
vn 0.741455 -0.643799 0.188232 
vn -0.372803 -0.605469 0.702881 
vn 0.013184 -0.998291 -0.054199 
vn 0.597168 -0.371094 0.710938 
vn -0.277100 0.000000 0.960693 
vn 0.597168 -0.371094 0.710938 
vn 0.537842 -0.001465 0.842773 
vn -0.277100 0.000000 0.960693 
vn -0.372803 -0.605469 0.702881 
vn 0.597168 -0.371094 0.710938 
vn 0.597656 0.368408 0.711670 
vn -0.277100 0.000000 0.960693 
vn 0.537842 -0.001465 0.842773 
vn -0.362305 0.605957 0.707764 
vn -0.277100 0.000000 0.960693 
vn 0.597656 0.368408 0.711670 
vn 0.018555 0.998291 -0.051270 
vn -0.362305 0.605957 0.707764 
vn 0.597656 0.368408 0.711670 
vn 0.742432 0.642090 0.189697 
vn 0.018555 0.998291 -0.051270 
vn 0.597656 0.368408 0.711670 
vn 0.863525 0.462158 -0.200684 
vn 0.018555 0.998291 -0.051270 
vn 0.742432 0.642090 0.189697 
vn 0.170898 0.717041 -0.675537 
vn 0.018555 0.998291 -0.051270 
vn 0.863525 0.462158 -0.200684 
vn 0.358887 0.000488 -0.933105 
vn 0.170898 0.717041 -0.675537 
vn 0.863525 0.462158 -0.200684 
vn -0.714111 0.001465 -0.699707 
vn -0.881348 0.000977 -0.472168 
vn -0.339355 0.855713 -0.390137 
vn -0.881348 0.000977 -0.472168 
vn -0.714111 0.001465 -0.699707 
vn -0.340576 -0.854248 -0.392090 
vt 0.110236 0.299213 
vt 0.007874 0.267717 
vt 0.007874 0.322835 
vt 0.007874 0.322835 
vt 0.007874 0.267717 
vt 0.110236 0.299213 
vt 0.102362 0.228346 
vt 0.007874 0.267717 
vt 0.110236 0.299213 
vt 0.196850 0.228346 
vt 0.102362 0.228346 
vt 0.110236 0.299213 
vt 0.173228 0.307087 
vt 0.196850 0.228346 
vt 0.110236 0.299213 
vt 0.653543 0.811024 
vt 0.574803 0.748031 
vt 0.622047 0.811024 
vt 0.669291 0.669291 
vt 0.574803 0.748031 
vt 0.653543 0.811024 
vt 0.811024 0.669291 
vt 0.653543 0.811024 
vt 0.811024 0.811024 
vt 0.811024 0.669291 
vt 0.669291 0.669291 
vt 0.653543 0.811024 
vt 0.661417 0.811024 
vt 0.811024 0.669291 
vt 0.811024 0.811024 
vt 0.669291 0.669291 
vt 0.811024 0.669291 
vt 0.661417 0.811024 
vt 0.574803 0.748031 
vt 0.669291 0.669291 
vt 0.661417 0.811024 
vt 0.622047 0.811024 
vt 0.574803 0.748031 
vt 0.661417 0.811024 
vt 0.110236 0.299213 
vt 0.196850 0.228346 
vt 0.173228 0.307087 
vt 0.102362 0.228346 
vt 0.196850 0.228346 
vt 0.110236 0.299213 
vt 0.007874 0.267717 
vt 0.102362 0.228346 
vt 0.110236 0.299213 
vt 0.015748 0.047244 
vt 0.015748 0.039370 
vt 0.062992 0.039370 
vt 0.015748 0.039370 
vt 0.015748 0.047244 
vt 0.062992 0.039370 
f 1/1/1 2/2/2 3/3/3
f 4/4/4 5/5/5 6/6/6
f 7/7/7 8/8/8 9/9/9
f 10/10/10 11/11/11 12/12/12
f 13/13/13 14/14/14 15/15/15
f 16/16/16 17/17/17 18/18/18
f 19/19/19 20/20/20 21/21/21
f 22/22/22 23/23/23 24/24/24
f 25/25/25 26/26/26 27/27/27
f 28/28/28 29/29/29 30/30/30
f 31/31/31 32/32/32 33/33/33
f 34/34/34 35/35/35 36/36/36
f 37/37/37 38/38/38 39/39/39
f 40/40/40 41/41/41 42/42/42
f 43/43/43 44/44/44 45/45/45
f 46/46/46 47/47/47 48/48/48
f 49/49/49 50/50/50 51/51/51
f 52/52/52 53/53/53 54/54/54
