v 34.000000 10.000000 0.000000 
v 34.000000 4.000000 -12.000000 
v 1.000000 1.000000 -9.000000 
v 1.000000 7.000000 0.000000 
v 34.000000 10.000000 0.000000 
v 1.000000 1.000000 -9.000000 
v 1.000000 1.000000 -9.000000 
v 34.000000 4.000000 -12.000000 
v 1.000000 -38.000000 0.000000 
v 34.000000 3.000000 9.000000 
v 34.000000 10.000000 0.000000 
v 1.000000 7.000000 0.000000 
v 1.000000 1.000000 7.000000 
v 34.000000 3.000000 9.000000 
v 1.000000 7.000000 0.000000 
v 29.000000 -45.000000 0.000000 
v 34.000000 3.000000 9.000000 
v 1.000000 1.000000 7.000000 
v 1.000000 -38.000000 0.000000 
v 29.000000 -45.000000 0.000000 
v 1.000000 1.000000 7.000000 
v 34.000000 4.000000 -12.000000 
v 29.000000 -45.000000 0.000000 
v 1.000000 -38.000000 0.000000 
v 34.000000 4.000000 -12.000000 
v 34.000000 10.000000 0.000000 
v 29.000000 0.000000 0.000000 
v 29.000000 -45.000000 0.000000 
v 34.000000 4.000000 -12.000000 
v 29.000000 0.000000 0.000000 
v 34.000000 10.000000 0.000000 
v 34.000000 3.000000 9.000000 
v 29.000000 0.000000 0.000000 
v 34.000000 3.000000 9.000000 
v 29.000000 -45.000000 0.000000 
v 29.000000 0.000000 0.000000 
vn 0.019287 0.991455 -0.128174 
vn -0.835449 0.219238 -0.503418 
vn -0.682129 0.501465 -0.531982 
vn 0.174072 0.980957 -0.084229 
vn 0.019287 0.991455 -0.128174 
vn -0.682129 0.501465 -0.531982 
vn -0.682129 0.501465 -0.531982 
vn -0.835449 0.219238 -0.503418 
vn -0.847168 -0.284180 -0.448486 
vn 0.664795 0.618896 0.418213 
vn 0.019287 0.991455 -0.128174 
vn 0.174072 0.980957 -0.084229 
vn 0.775635 0.403320 0.485107 
vn 0.664795 0.618896 0.418213 
vn 0.174072 0.980957 -0.084229 
vn 0.712402 -0.264893 0.649414 
vn 0.664795 0.618896 0.418213 
vn 0.775635 0.403320 0.485107 
vn 0.736572 -0.277832 0.616211 
vn 0.712402 -0.264893 0.649414 
vn 0.775635 0.403320 0.485107 
vn -0.835449 0.219238 -0.503418 
vn -0.861816 -0.273193 -0.426758 
vn -0.847168 -0.284180 -0.448486 
vn 0.665527 -0.403320 -0.627686 
vn 0.436768 -0.560547 -0.703369 
vn 0.488525 -0.404785 -0.772705 
vn 0.525635 -0.229248 -0.818848 
vn 0.665527 -0.403320 -0.627686 
vn 0.488525 -0.404785 -0.772705 
vn 0.436768 -0.560547 -0.703369 
vn 0.285156 -0.385254 -0.877441 
vn 0.488525 -0.404785 -0.772705 
vn 0.285156 -0.385254 -0.877441 
vn 0.525635 -0.229248 -0.818848 
vn 0.488525 -0.404785 -0.772705 
vt 0.582677 0.307087 
vt 0.669291 0.283465 
vt 0.653543 0.283465 
vt 0.582677 0.291339 
vt 0.582677 0.307087 
vt 0.653543 0.283465 
vt 0.653543 0.283465 
vt 0.669291 0.283465 
vt 0.582677 0.173228 
vt 0.519685 0.283465 
vt 0.582677 0.307087 
vt 0.582677 0.291339 
vt 0.535433 0.275591 
vt 0.519685 0.283465 
vt 0.582677 0.291339 
vt 0.582677 0.149606 
vt 0.519685 0.283465 
vt 0.535433 0.275591 
vt 0.582677 0.173228 
vt 0.582677 0.149606 
vt 0.535433 0.275591 
vt 0.669291 0.283465 
vt 0.582677 0.149606 
vt 0.582677 0.173228 
vt 0.669291 0.283465 
vt 0.582677 0.307087 
vt 0.582677 0.275591 
vt 0.582677 0.149606 
vt 0.669291 0.283465 
vt 0.582677 0.275591 
vt 0.582677 0.307087 
vt 0.519685 0.283465 
vt 0.582677 0.275591 
vt 0.519685 0.283465 
vt 0.582677 0.149606 
vt 0.582677 0.275591 
f 1/1/1 2/2/2 3/3/3
f 4/4/4 5/5/5 6/6/6
f 7/7/7 8/8/8 9/9/9
f 10/10/10 11/11/11 12/12/12
f 13/13/13 14/14/14 15/15/15
f 16/16/16 17/17/17 18/18/18
f 19/19/19 20/20/20 21/21/21
f 22/22/22 23/23/23 24/24/24
f 25/25/25 26/26/26 27/27/27
f 28/28/28 29/29/29 30/30/30
f 31/31/31 32/32/32 33/33/33
f 34/34/34 35/35/35 36/36/36
