v -1.000000 1.000000 8.000000 
v 8.000000 0.000000 0.000000 
v 0.000000 6.000000 0.000000 
v -8.000000 8.000000 -1.000000 
v -1.000000 1.000000 8.000000 
v 0.000000 6.000000 0.000000 
v 1.000000 6.000000 -9.000000 
v -8.000000 8.000000 -1.000000 
v 0.000000 6.000000 0.000000 
v 8.000000 0.000000 0.000000 
v 1.000000 6.000000 -9.000000 
v 0.000000 6.000000 0.000000 
v -29.000000 -63.000000 -6.000000 
v -15.000000 -66.000000 -18.000000 
v 8.000000 0.000000 0.000000 
v -1.000000 1.000000 8.000000 
v -29.000000 -63.000000 -6.000000 
v 8.000000 0.000000 0.000000 
v -40.000000 -54.000000 -20.000000 
v -29.000000 -63.000000 -6.000000 
v -1.000000 1.000000 8.000000 
v -8.000000 8.000000 -1.000000 
v -40.000000 -54.000000 -20.000000 
v -1.000000 1.000000 8.000000 
v -25.000000 -56.000000 -32.000000 
v -40.000000 -54.000000 -20.000000 
v -8.000000 8.000000 -1.000000 
v 1.000000 6.000000 -9.000000 
v -25.000000 -56.000000 -32.000000 
v -8.000000 8.000000 -1.000000 
v -15.000000 -66.000000 -18.000000 
v -25.000000 -56.000000 -32.000000 
v 1.000000 6.000000 -9.000000 
v 8.000000 0.000000 0.000000 
v -15.000000 -66.000000 -18.000000 
v 1.000000 6.000000 -9.000000 
v -15.000000 -66.000000 -18.000000 
v -29.000000 -63.000000 -6.000000 
v -26.000000 -57.000000 -18.000000 
v -29.000000 -63.000000 -6.000000 
v -40.000000 -54.000000 -20.000000 
v -26.000000 -57.000000 -18.000000 
v -40.000000 -54.000000 -20.000000 
v -25.000000 -56.000000 -32.000000 
v -26.000000 -57.000000 -18.000000 
v -25.000000 -56.000000 -32.000000 
v -15.000000 -66.000000 -18.000000 
v -26.000000 -57.000000 -18.000000 
vn 0.362793 0.727295 0.582275 
vn 0.664062 0.678223 0.313721 
vn 0.435303 0.840576 0.321777 
vn 0.171143 0.936768 0.304443 
vn 0.362793 0.727295 0.582275 
vn 0.435303 0.840576 0.321777 
vn 0.470703 0.881592 0.032715 
vn 0.171143 0.936768 0.304443 
vn 0.435303 0.840576 0.321777 
vn 0.664062 0.678223 0.313721 
vn 0.470703 0.881592 0.032715 
vn 0.435303 0.840576 0.321777 
vn 0.171631 -0.239990 0.955322 
vn 0.941650 -0.231445 -0.244141 
vn 0.850586 -0.352051 0.390137 
vn -0.391113 -0.022949 0.919922 
vn 0.171631 -0.239990 0.955322 
vn 0.850586 -0.352051 0.390137 
vn -0.903564 0.326172 0.277588 
vn 0.171631 -0.239990 0.955322 
vn -0.391113 -0.022949 0.919922 
vn -0.814453 0.450439 -0.365234 
vn -0.903564 0.326172 0.277588 
vn -0.391113 -0.022949 0.919922 
vn -0.132324 0.333984 -0.933105 
vn -0.903564 0.326172 0.277588 
vn -0.814453 0.450439 -0.365234 
vn 0.435059 0.113281 -0.893066 
vn -0.132324 0.333984 -0.933105 
vn -0.814453 0.450439 -0.365234 
vn 0.941650 -0.231445 -0.244141 
vn -0.132324 0.333984 -0.933105 
vn 0.435059 0.113281 -0.893066 
vn 0.850586 -0.352051 0.390137 
vn 0.941650 -0.231445 -0.244141 
vn 0.435059 0.113281 -0.893066 
vn -0.627686 -0.709961 -0.318359 
vn -0.379639 -0.750732 -0.540039 
vn -0.437256 -0.838867 -0.323730 
vn -0.379639 -0.750732 -0.540039 
vn -0.222900 -0.923584 -0.311768 
vn -0.437256 -0.838867 -0.323730 
vn -0.222900 -0.923584 -0.311768 
vn -0.469238 -0.878418 -0.087891 
vn -0.437256 -0.838867 -0.323730 
vn -0.469238 -0.878418 -0.087891 
vn -0.627686 -0.709961 -0.318359 
vn -0.437256 -0.838867 -0.323730 
vt 0.603175 0.507937 
vt 0.158730 0.507937 
vt 0.158730 0.000000 
vt 0.603175 0.507937 
vt 0.158730 0.507937 
vt 0.158730 0.000000 
vt 0.603175 0.507937 
vt 0.158730 0.507937 
vt 0.158730 0.000000 
vt 0.603175 0.507937 
vt 0.158730 0.507937 
vt 0.158730 0.000000 
vt 0.873016 -0.015873 
vt 0.761905 -0.015873 
vt 0.746032 0.714286 
vt 0.873016 0.714286 
vt 0.873016 -0.015873 
vt 0.746032 0.714286 
vt 0.968254 0.000000 
vt 0.873016 0.000000 
vt 0.873016 0.714286 
vt 0.968254 0.714286 
vt 0.968254 0.000000 
vt 0.873016 0.714286 
vt 0.873016 0.000000 
vt 0.968254 0.000000 
vt 0.968254 0.714286 
vt 0.873016 0.714286 
vt 0.873016 0.000000 
vt 0.968254 0.714286 
vt 0.746032 0.000000 
vt 0.873016 0.000000 
vt 0.873016 0.714286 
vt 0.746032 0.714286 
vt 0.746032 0.000000 
vt 0.873016 0.714286 
vt 0.000000 0.317460 
vt 0.000000 0.317460 
vt 0.015873 0.253968 
vt 0.000000 0.317460 
vt 0.000000 0.190476 
vt 0.015873 0.253968 
vt 0.000000 0.190476 
vt 0.000000 0.190476 
vt 0.015873 0.253968 
vt 0.000000 0.190476 
vt 0.000000 0.317460 
vt 0.015873 0.253968 
f 1/1/1 2/2/2 3/3/3
f 4/4/4 5/5/5 6/6/6
f 7/7/7 8/8/8 9/9/9
f 10/10/10 11/11/11 12/12/12
f 13/13/13 14/14/14 15/15/15
f 16/16/16 17/17/17 18/18/18
f 19/19/19 20/20/20 21/21/21
f 22/22/22 23/23/23 24/24/24
f 25/25/25 26/26/26 27/27/27
f 28/28/28 29/29/29 30/30/30
f 31/31/31 32/32/32 33/33/33
f 34/34/34 35/35/35 36/36/36
f 37/37/37 38/38/38 39/39/39
f 40/40/40 41/41/41 42/42/42
f 43/43/43 44/44/44 45/45/45
f 46/46/46 47/47/47 48/48/48
