v 34.000000 -4.000000 -12.000000 
v 34.000000 -10.000000 0.000000 
v 2.000000 -1.000000 -9.000000 
v 34.000000 -10.000000 0.000000 
v 2.000000 -7.000000 0.000000 
v 2.000000 -1.000000 -9.000000 
v 34.000000 -4.000000 -12.000000 
v 2.000000 -1.000000 -9.000000 
v 2.000000 38.000000 0.000000 
v 34.000000 -10.000000 0.000000 
v 34.000000 -3.000000 9.000000 
v 2.000000 -7.000000 0.000000 
v 34.000000 -3.000000 9.000000 
v 2.000000 -1.000000 7.000000 
v 2.000000 -7.000000 0.000000 
v 34.000000 -3.000000 9.000000 
v 29.000000 45.000000 0.000000 
v 2.000000 -1.000000 7.000000 
v 29.000000 45.000000 0.000000 
v 2.000000 38.000000 0.000000 
v 2.000000 -1.000000 7.000000 
v 29.000000 45.000000 0.000000 
v 34.000000 -4.000000 -12.000000 
v 2.000000 38.000000 0.000000 
v 34.000000 -10.000000 0.000000 
v 34.000000 -4.000000 -12.000000 
v 30.000000 0.000000 0.000000 
v 34.000000 -4.000000 -12.000000 
v 29.000000 45.000000 0.000000 
v 30.000000 0.000000 0.000000 
v 34.000000 -3.000000 9.000000 
v 34.000000 -10.000000 0.000000 
v 30.000000 0.000000 0.000000 
v 29.000000 45.000000 0.000000 
v 34.000000 -3.000000 9.000000 
v 30.000000 0.000000 0.000000 
vn -0.892334 -0.216553 -0.395508 
vn -0.018066 -0.996094 -0.085449 
vn -0.749756 -0.503906 -0.428467 
vn -0.018066 -0.996094 -0.085449 
vn 0.140625 -0.988037 -0.059570 
vn -0.749756 -0.503906 -0.428467 
vn -0.892334 -0.216553 -0.395508 
vn -0.749756 -0.503906 -0.428467 
vn -0.885986 0.289062 -0.362061 
vn -0.018066 -0.996094 -0.085449 
vn 0.693604 -0.619141 0.367432 
vn 0.140625 -0.988037 -0.059570 
vn 0.693604 -0.619141 0.367432 
vn 0.816406 -0.404541 0.411621 
vn 0.140625 -0.988037 -0.059570 
vn 0.693604 -0.619141 0.367432 
vn 0.787842 0.271729 0.552490 
vn 0.816406 -0.404541 0.411621 
vn 0.787842 0.271729 0.552490 
vn 0.808350 0.282471 0.516113 
vn 0.816406 -0.404541 0.411621 
vn -0.898438 0.279297 -0.338379 
vn -0.892334 -0.216553 -0.395508 
vn -0.885986 0.289062 -0.362061 
vn 0.366455 0.518555 -0.772217 
vn 0.598633 0.358154 -0.716309 
vn 0.406250 0.358643 -0.840332 
vn 0.598633 0.358154 -0.716309 
vn 0.434082 0.180176 -0.882568 
vn 0.406250 0.358643 -0.840332 
vn 0.191895 0.340332 -0.920410 
vn 0.366455 0.518555 -0.772217 
vn 0.406250 0.358643 -0.840332 
vn 0.434082 0.180176 -0.882568 
vn 0.191895 0.340332 -0.920410 
vn 0.406250 0.358643 -0.840332 
vt 0.669291 0.283465 
vt 0.582677 0.307087 
vt 0.653543 0.283465 
vt 0.582677 0.307087 
vt 0.582677 0.291339 
vt 0.653543 0.283465 
vt 0.669291 0.283465 
vt 0.653543 0.283465 
vt 0.582677 0.173228 
vt 0.582677 0.307087 
vt 0.519685 0.283465 
vt 0.582677 0.291339 
vt 0.519685 0.283465 
vt 0.535433 0.275591 
vt 0.582677 0.291339 
vt 0.519685 0.283465 
vt 0.582677 0.149606 
vt 0.535433 0.275591 
vt 0.582677 0.149606 
vt 0.582677 0.173228 
vt 0.535433 0.275591 
vt 0.582677 0.149606 
vt 0.669291 0.283465 
vt 0.582677 0.173228 
vt 0.582677 0.307087 
vt 0.669291 0.283465 
vt 0.582677 0.275591 
vt 0.669291 0.283465 
vt 0.582677 0.149606 
vt 0.582677 0.275591 
vt 0.519685 0.283465 
vt 0.582677 0.307087 
vt 0.582677 0.275591 
vt 0.582677 0.149606 
vt 0.519685 0.283465 
vt 0.582677 0.275591 
f 1/1/1 2/2/2 3/3/3
f 4/4/4 5/5/5 6/6/6
f 7/7/7 8/8/8 9/9/9
f 10/10/10 11/11/11 12/12/12
f 13/13/13 14/14/14 15/15/15
f 16/16/16 17/17/17 18/18/18
f 19/19/19 20/20/20 21/21/21
f 22/22/22 23/23/23 24/24/24
f 25/25/25 26/26/26 27/27/27
f 28/28/28 29/29/29 30/30/30
f 31/31/31 32/32/32 33/33/33
f 34/34/34 35/35/35 36/36/36
