v 43.000000 -36.000000 -23.000000 
v 26.000000 25.000000 -23.000000 
v 43.000000 0.000000 -23.000000 
v -43.000000 -10.000000 -23.000000 
v 43.000000 -36.000000 -23.000000 
v -43.000000 -36.000000 -23.000000 
v -43.000000 -10.000000 -23.000000 
v 26.000000 25.000000 -23.000000 
v 43.000000 -36.000000 -23.000000 
v 43.000000 -5.000000 -5.000000 
v 43.000000 -36.000000 -14.000000 
v 43.000000 -36.000000 -23.000000 
v 43.000000 -36.000000 -23.000000 
v 43.000000 0.000000 -23.000000 
v 43.000000 -5.000000 -5.000000 
v -43.000000 -10.000000 -23.000000 
v -43.000000 -36.000000 -23.000000 
v -43.000000 -36.000000 3.000000 
v -43.000000 -36.000000 3.000000 
v -43.000000 36.000000 23.000000 
v -43.000000 -10.000000 -23.000000 
v 26.000000 25.000000 -23.000000 
v -43.000000 -10.000000 -23.000000 
v -43.000000 36.000000 23.000000 
v 43.000000 -5.000000 -5.000000 
v 43.000000 0.000000 -23.000000 
v 26.000000 25.000000 -23.000000 
v -43.000000 36.000000 23.000000 
v 43.000000 -5.000000 -5.000000 
v 26.000000 25.000000 -23.000000 
v -43.000000 -36.000000 3.000000 
v 43.000000 -36.000000 -14.000000 
v 43.000000 -5.000000 -5.000000 
v -43.000000 36.000000 23.000000 
v -43.000000 -36.000000 3.000000 
v 43.000000 -5.000000 -5.000000 
v -43.000000 -36.000000 3.000000 
v -43.000000 -36.000000 -23.000000 
v 43.000000 -36.000000 -23.000000 
v 43.000000 -36.000000 -14.000000 
v -43.000000 -36.000000 3.000000 
v 43.000000 -36.000000 -23.000000 
vn 0.000000 0.000000 -1.000000 
vn 0.000000 0.000000 -1.000000 
vn 0.000000 0.000000 -1.000000 
vn 0.000000 0.000000 -1.000000 
vn 0.000000 0.000000 -1.000000 
vn 0.000000 0.000000 -1.000000 
vn 0.000000 0.000000 -1.000000 
vn 0.000000 0.000000 -1.000000 
vn 0.000000 0.000000 -1.000000 
vn 1.000000 0.000000 0.000000 
vn 1.000000 0.000000 0.000000 
vn 1.000000 0.000000 0.000000 
vn 1.000000 0.000000 0.000000 
vn 1.000000 0.000000 0.000000 
vn 1.000000 0.000000 0.000000 
vn -1.000000 0.000000 0.000000 
vn -1.000000 0.000000 0.000000 
vn -1.000000 0.000000 0.000000 
vn -1.000000 0.000000 0.000000 
vn -1.000000 0.000000 0.000000 
vn -1.000000 0.000000 0.000000 
vn -0.343262 0.666016 -0.661865 
vn -0.343262 0.666016 -0.661865 
vn -0.343262 0.666016 -0.661865 
vn 0.802490 0.562256 0.199219 
vn 0.802490 0.562256 0.199219 
vn 0.802490 0.562256 0.199219 
vn 0.503174 0.625488 0.596191 
vn 0.503174 0.625488 0.596191 
vn 0.503174 0.625488 0.596191 
vn 0.189941 -0.259277 0.946777 
vn 0.189941 -0.259277 0.946777 
vn 0.189941 -0.259277 0.946777 
vn 0.190186 -0.260498 0.946289 
vn 0.190186 -0.260498 0.946289 
vn 0.190186 -0.260498 0.946289 
vn 0.000000 -1.000000 0.000000 
vn 0.000000 -1.000000 0.000000 
vn 0.000000 -1.000000 0.000000 
vn 0.000000 -1.000000 0.000000 
vn 0.000000 -1.000000 0.000000 
vn 0.000000 -1.000000 0.000000 
vt 0.152941 0.385827 
vt 0.121569 0.590551 
vt 0.152941 0.511811 
vt 0.000000 0.472441 
vt 0.152941 0.385827 
vt 0.000000 0.385827 
vt 0.000000 0.472441 
vt 0.121569 0.590551 
vt 0.152941 0.385827 
vt 0.184314 0.488189 
vt 0.168627 0.385827 
vt 0.152941 0.385827 
vt 0.152941 0.385827 
vt 0.152941 0.511811 
vt 0.184314 0.488189 
vt 0.152941 0.472441 
vt 0.152941 0.385827 
vt 0.200000 0.385827 
vt 0.200000 0.385827 
vt 0.239216 0.629921 
vt 0.152941 0.472441 
vt 0.121569 0.590551 
vt 0.000000 0.472441 
vt 0.239216 0.629921 
vt 0.184314 0.488189 
vt 0.152941 0.511811 
vt 0.121569 0.590551 
vt 0.239216 0.629921 
vt 0.184314 0.488189 
vt 0.121569 0.590551 
vt 0.200000 0.385827 
vt 0.168627 0.385827 
vt 0.184314 0.488189 
vt 0.239216 0.629921 
vt 0.200000 0.385827 
vt 0.184314 0.488189 
vt 0.200000 0.385827 
vt 0.000000 0.385827 
vt 0.152941 0.385827 
vt 0.168627 0.385827 
vt 0.200000 0.385827 
vt 0.152941 0.385827 
f 1/1/1 2/2/2 3/3/3
f 4/4/4 5/5/5 6/6/6
f 7/7/7 8/8/8 9/9/9
f 10/10/10 11/11/11 12/12/12
f 13/13/13 14/14/14 15/15/15
f 16/16/16 17/17/17 18/18/18
f 19/19/19 20/20/20 21/21/21
f 22/22/22 23/23/23 24/24/24
f 25/25/25 26/26/26 27/27/27
f 28/28/28 29/29/29 30/30/30
f 31/31/31 32/32/32 33/33/33
f 34/34/34 35/35/35 36/36/36
f 37/37/37 38/38/38 39/39/39
f 40/40/40 41/41/41 42/42/42
