v 15.000000 -20.000000 11.000000 
v 13.000000 -30.000000 18.000000 
v 18.000000 -32.000000 6.000000 
v 8.000000 -23.000000 1.000000 
v 15.000000 -20.000000 11.000000 
v 18.000000 -32.000000 6.000000 
v 3.000000 -35.000000 1.000000 
v 8.000000 -23.000000 1.000000 
v 18.000000 -32.000000 6.000000 
v 8.000000 -37.000000 12.000000 
v 3.000000 -35.000000 1.000000 
v 18.000000 -32.000000 6.000000 
v 13.000000 -30.000000 18.000000 
v 8.000000 -37.000000 12.000000 
v 18.000000 -32.000000 6.000000 
v 25.000000 -1.000000 13.000000 
v 25.000000 -9.000000 16.000000 
v 28.000000 -9.000000 4.000000 
v 18.000000 -4.000000 0.000000 
v 25.000000 -1.000000 13.000000 
v 28.000000 -9.000000 4.000000 
v 16.000000 -15.000000 -1.000000 
v 18.000000 -4.000000 0.000000 
v 28.000000 -9.000000 4.000000 
v 21.000000 -18.000000 13.000000 
v 16.000000 -15.000000 -1.000000 
v 28.000000 -9.000000 4.000000 
v 25.000000 -9.000000 16.000000 
v 21.000000 -18.000000 13.000000 
v 28.000000 -9.000000 4.000000 
v 25.000000 19.000000 11.000000 
v 27.000000 10.000000 16.000000 
v 31.000000 10.000000 5.000000 
v 19.000000 16.000000 1.000000 
v 25.000000 19.000000 11.000000 
v 31.000000 10.000000 5.000000 
v 18.000000 4.000000 0.000000 
v 19.000000 16.000000 1.000000 
v 31.000000 10.000000 5.000000 
v 24.000000 1.000000 14.000000 
v 18.000000 4.000000 0.000000 
v 31.000000 10.000000 5.000000 
v 27.000000 10.000000 16.000000 
v 24.000000 1.000000 14.000000 
v 31.000000 10.000000 5.000000 
v 8.000000 36.000000 13.000000 
v 12.000000 31.000000 16.000000 
v 19.000000 32.000000 8.000000 
v 7.000000 39.000000 2.000000 
v 8.000000 36.000000 13.000000 
v 19.000000 32.000000 8.000000 
v 9.000000 27.000000 0.000000 
v 7.000000 39.000000 2.000000 
v 19.000000 32.000000 8.000000 
v 14.000000 23.000000 11.000000 
v 9.000000 27.000000 0.000000 
v 19.000000 32.000000 8.000000 
v 12.000000 31.000000 16.000000 
v 14.000000 23.000000 11.000000 
v 19.000000 32.000000 8.000000 
vn 0.717041 0.695312 0.043213 
vn 0.816406 -0.063721 0.573730 
vn 0.947021 -0.253174 -0.197266 
vn 0.443115 0.522949 -0.727783 
vn 0.717041 0.695312 0.043213 
vn 0.947021 -0.253174 -0.197266 
vn -0.068604 -0.868164 -0.491455 
vn 0.443115 0.522949 -0.727783 
vn 0.947021 -0.253174 -0.197266 
vn 0.047363 -0.976074 0.211182 
vn -0.068604 -0.868164 -0.491455 
vn 0.947021 -0.253174 -0.197266 
vn 0.816406 -0.063721 0.573730 
vn 0.047363 -0.976074 0.211182 
vn 0.947021 -0.253174 -0.197266 
vn 0.632812 0.767334 0.101807 
vn 0.828369 0.062500 0.556152 
vn 0.984375 -0.035645 -0.171143 
vn 0.276367 0.610596 -0.741943 
vn 0.632812 0.767334 0.101807 
vn 0.984375 -0.035645 -0.171143 
vn 0.186279 -0.829102 -0.526855 
vn 0.276367 0.610596 -0.741943 
vn 0.984375 -0.035645 -0.171143 
vn 0.560303 -0.766846 0.312500 
vn 0.186279 -0.829102 -0.526855 
vn 0.984375 -0.035645 -0.171143 
vn 0.828369 0.062500 0.556152 
vn 0.560303 -0.766846 0.312500 
vn 0.984375 -0.035645 -0.171143 
vn 0.488770 0.868652 0.079834 
vn 0.799316 0.221924 0.558105 
vn 0.980957 0.022705 -0.191650 
vn 0.173096 0.597168 -0.782959 
vn 0.488770 0.868652 0.079834 
vn 0.980957 0.022705 -0.191650 
vn 0.276855 -0.795410 -0.538818 
vn 0.173096 0.597168 -0.782959 
vn 0.980957 0.022705 -0.191650 
vn 0.598633 -0.750000 0.280762 
vn 0.276855 -0.795410 -0.538818 
vn 0.980957 0.022705 -0.191650 
vn 0.799316 0.221924 0.558105 
vn 0.598633 -0.750000 0.280762 
vn 0.980957 0.022705 -0.191650 
vn 0.151123 0.950928 0.269287 
vn 0.618164 0.435059 0.654297 
vn 0.953369 0.301025 -0.007324 
vn 0.317627 0.718018 -0.619141 
vn 0.151123 0.950928 0.269287 
vn 0.953369 0.301025 -0.007324 
vn 0.608643 -0.591309 -0.528564 
vn 0.317627 0.718018 -0.619141 
vn 0.953369 0.301025 -0.007324 
vn 0.787109 -0.543701 0.290771 
vn 0.608643 -0.591309 -0.528564 
vn 0.953369 0.301025 -0.007324 
vn 0.618164 0.435059 0.654297 
vn 0.787109 -0.543701 0.290771 
vn 0.953369 0.301025 -0.007324 
vt 0.064516 0.322581 
vt 0.064516 0.387097 
vt 0.032258 0.387097 
vt 0.129032 0.322581 
vt 0.064516 0.322581 
vt 0.000000 0.419355 
vt 0.935484 1.000000 
vt 0.935484 0.806452 
vt 1.000000 0.903226 
vt 0.096774 0.451613 
vt 0.161290 0.419355 
vt 0.000000 0.387097 
vt 0.064516 0.387097 
vt 0.096774 0.451613 
vt 0.032258 0.387097 
vt 0.064516 0.225806 
vt 0.064516 0.258065 
vt 0.000000 0.258065 
vt 0.064516 0.258065 
vt 0.064516 0.225806 
vt 0.000000 0.258065 
vt 0.935484 0.774194 
vt 0.935484 0.516129 
vt 1.000000 0.645161 
vt 0.064516 0.290323 
vt 0.064516 0.258065 
vt 0.000000 0.258065 
vt 0.064516 0.258065 
vt 0.064516 0.290323 
vt 0.000000 0.258065 
vt 0.096774 0.096774 
vt 0.064516 0.129032 
vt 0.000000 0.129032 
vt 0.096774 0.096774 
vt 0.096774 0.096774 
vt 0.000000 0.129032 
vt 0.935484 0.483871 
vt 0.935484 0.258065 
vt 0.967742 0.387097 
vt 0.064516 0.161290 
vt 0.096774 0.129032 
vt 0.000000 0.129032 
vt 0.064516 0.129032 
vt 0.064516 0.161290 
vt 0.000000 0.129032 
vt 0.161290 0.000000 
vt 0.161290 0.032258 
vt 0.129032 0.032258 
vt 0.193548 0.032258 
vt 0.161290 0.000000 
vt 0.096774 0.032258 
vt 0.903226 0.225806 
vt 0.838710 0.032258 
vt 0.903226 0.032258 
vt 0.129032 0.064516 
vt 0.193548 0.064516 
vt 0.129032 0.032258 
vt 0.161290 0.032258 
vt 0.129032 0.064516 
vt 0.129032 0.032258 
f 1/1/1 2/2/2 3/3/3
f 4/4/4 5/5/5 6/6/6
f 7/7/7 8/8/8 9/9/9
f 10/10/10 11/11/11 12/12/12
f 13/13/13 14/14/14 15/15/15
f 16/16/16 17/17/17 18/18/18
f 19/19/19 20/20/20 21/21/21
f 22/22/22 23/23/23 24/24/24
f 25/25/25 26/26/26 27/27/27
f 28/28/28 29/29/29 30/30/30
f 31/31/31 32/32/32 33/33/33
f 34/34/34 35/35/35 36/36/36
f 37/37/37 38/38/38 39/39/39
f 40/40/40 41/41/41 42/42/42
f 43/43/43 44/44/44 45/45/45
f 46/46/46 47/47/47 48/48/48
f 49/49/49 50/50/50 51/51/51
f 52/52/52 53/53/53 54/54/54
f 55/55/55 56/56/56 57/57/57
f 58/58/58 59/59/59 60/60/60
