v -24.000000 0.000000 28.000000 
v -9.000000 0.000000 29.000000 
v -9.000000 18.000000 20.000000 
v -24.000000 24.000000 -20.000000 
v -9.000000 23.000000 -15.000000 
v -9.000000 0.000000 -23.000000 
v -9.000000 0.000000 -23.000000 
v -24.000000 0.000000 -28.000000 
v -24.000000 24.000000 -20.000000 
v -24.000000 0.000000 -28.000000 
v -9.000000 0.000000 -23.000000 
v -9.000000 -23.000000 -15.000000 
v -9.000000 -23.000000 -15.000000 
v -24.000000 -24.000000 -20.000000 
v -24.000000 0.000000 -28.000000 
v -24.000000 -24.000000 -20.000000 
v -9.000000 -23.000000 -15.000000 
v -9.000000 -32.000000 0.000000 
vn -0.228760 0.107910 0.967285 
vn 0.029541 -0.146973 0.988525 
vn 0.166992 0.602783 0.780029 
vn 0.131836 0.625244 -0.769043 
vn 0.221436 0.794678 -0.564941 
vn 0.421631 0.130127 -0.897217 
vn 0.421631 0.130127 -0.897217 
vn 0.006836 -0.088379 -0.995850 
vn 0.131836 0.625244 -0.769043 
vn 0.006836 -0.088379 -0.995850 
vn 0.421631 0.130127 -0.897217 
vn 0.363770 -0.589355 -0.720947 
vn 0.363770 -0.589355 -0.720947 
vn 0.078369 -0.767578 -0.635986 
vn 0.006836 -0.088379 -0.995850 
vn 0.078369 -0.767578 -0.635986 
vn 0.363770 -0.589355 -0.720947 
vn 0.172852 -0.979980 -0.096436 
vt 0.755906 0.236220 
vt 0.755906 0.488189 
vt 0.992126 0.488189 
vt 0.755906 0.236220 
vt 0.755906 0.488189 
vt 0.992126 0.488189 
vt 0.992126 0.488189 
vt 0.992126 0.236220 
vt 0.755906 0.236220 
vt 0.755906 0.236220 
vt 0.755906 0.488189 
vt 0.992126 0.488189 
vt 0.992126 0.488189 
vt 0.992126 0.236220 
vt 0.755906 0.236220 
vt 0.755906 0.236220 
vt 0.755906 0.488189 
vt 0.992126 0.488189 
f 1/1/1 2/2/2 3/3/3
f 4/4/4 5/5/5 6/6/6
f 7/7/7 8/8/8 9/9/9
f 10/10/10 11/11/11 12/12/12
f 13/13/13 14/14/14 15/15/15
f 16/16/16 17/17/17 18/18/18
