v 0.000000 20.000000 3.000000 
v -8.000000 15.000000 -3.000000 
v -8.000000 15.000000 9.000000 
v 0.000000 15.000000 12.000000 
v 0.000000 20.000000 3.000000 
v -8.000000 15.000000 9.000000 
v -8.000000 15.000000 -3.000000 
v -10.000000 8.000000 11.000000 
v -8.000000 15.000000 9.000000 
v 0.000000 8.000000 14.000000 
v -8.000000 15.000000 9.000000 
v -10.000000 8.000000 11.000000 
v -8.000000 15.000000 9.000000 
v 0.000000 8.000000 14.000000 
v 0.000000 15.000000 12.000000 
v 9.000000 15.000000 9.000000 
v 9.000000 15.000000 -3.000000 
v 0.000000 20.000000 3.000000 
v 0.000000 15.000000 12.000000 
v 9.000000 15.000000 9.000000 
v 0.000000 20.000000 3.000000 
v 9.000000 15.000000 -3.000000 
v 9.000000 15.000000 9.000000 
v 11.000000 8.000000 11.000000 
v 0.000000 15.000000 12.000000 
v 11.000000 8.000000 11.000000 
v 9.000000 15.000000 9.000000 
v 0.000000 20.000000 3.000000 
v 0.000000 15.000000 -6.000000 
v -8.000000 15.000000 -3.000000 
v -10.000000 8.000000 11.000000 
v -8.000000 15.000000 -3.000000 
v -10.000000 8.000000 -4.000000 
v 0.000000 15.000000 -6.000000 
v -10.000000 8.000000 -4.000000 
v -8.000000 15.000000 -3.000000 
v 0.000000 20.000000 3.000000 
v 9.000000 15.000000 -3.000000 
v 0.000000 15.000000 -6.000000 
v 11.000000 8.000000 11.000000 
v 11.000000 8.000000 -4.000000 
v 9.000000 15.000000 -3.000000 
v 0.000000 15.000000 -6.000000 
v 9.000000 15.000000 -3.000000 
v 11.000000 8.000000 -4.000000 
v 11.000000 8.000000 11.000000 
v 0.000000 15.000000 12.000000 
v 0.000000 8.000000 14.000000 
v -10.000000 8.000000 -4.000000 
v 0.000000 15.000000 -6.000000 
v 0.000000 8.000000 -8.000000 
v 11.000000 8.000000 -4.000000 
v 0.000000 8.000000 -8.000000 
v 0.000000 15.000000 -6.000000 
vn -0.476807 0.676270 0.561279 
vn -0.984619 0.163574 -0.058838 
vn -0.578613 -0.252686 0.775146 
vn 0.046631 -0.102295 0.993408 
vn -0.476807 0.676270 0.561279 
vn -0.578613 -0.252686 0.775146 
vn -0.984619 0.163574 -0.058838 
vn -0.615479 -0.637695 0.462646 
vn -0.578613 -0.252686 0.775146 
vn 0.133057 -0.458984 0.878174 
vn -0.578613 -0.252686 0.775146 
vn -0.615479 -0.637695 0.462646 
vn -0.578613 -0.252686 0.775146 
vn 0.133057 -0.458984 0.878174 
vn 0.046631 -0.102295 0.993408 
vn 0.350342 0.496094 0.794189 
vn 0.281006 0.958252 0.049072 
vn -0.476807 0.676270 0.561279 
vn 0.046631 -0.102295 0.993408 
vn 0.350342 0.496094 0.794189 
vn -0.476807 0.676270 0.561279 
vn 0.281006 0.958252 0.049072 
vn 0.350342 0.496094 0.794189 
vn 0.730957 0.150391 0.665283 
vn 0.046631 -0.102295 0.993408 
vn 0.730957 0.150391 0.665283 
vn 0.350342 0.496094 0.794189 
vn -0.476807 0.676270 0.561279 
vn -0.433105 0.753418 -0.494141 
vn -0.984619 0.163574 -0.058838 
vn -0.615479 -0.637695 0.462646 
vn -0.984619 0.163574 -0.058838 
vn -0.854736 -0.004395 -0.518555 
vn -0.433105 0.753418 -0.494141 
vn -0.854736 -0.004395 -0.518555 
vn -0.984619 0.163574 -0.058838 
vn -0.476807 0.676270 0.561279 
vn 0.281006 0.958252 0.049072 
vn -0.433105 0.753418 -0.494141 
vn 0.730957 0.150391 0.665283 
vn 0.473145 0.805420 -0.356201 
vn 0.281006 0.958252 0.049072 
vn -0.433105 0.753418 -0.494141 
vn 0.281006 0.958252 0.049072 
vn 0.473145 0.805420 -0.356201 
vn 0.730957 0.150391 0.665283 
vn 0.046631 -0.102295 0.993408 
vn 0.133057 -0.458984 0.878174 
vn -0.854736 -0.004395 -0.518555 
vn -0.433105 0.753418 -0.494141 
vn -0.203613 0.621582 -0.756104 
vn 0.473145 0.805420 -0.356201 
vn -0.203613 0.621582 -0.756104 
vn -0.433105 0.753418 -0.494141 
vt 0.047244 0.086614 
vt 0.039370 0.078740 
vt 0.039370 0.086614 
vt 0.047244 0.086614 
vt 0.047244 0.086614 
vt 0.039370 0.086614 
vt 0.039370 0.078740 
vt 0.039370 0.086614 
vt 0.039370 0.086614 
vt 0.047244 0.086614 
vt 0.039370 0.086614 
vt 0.039370 0.086614 
vt 0.039370 0.086614 
vt 0.047244 0.086614 
vt 0.047244 0.086614 
vt 0.047244 0.086614 
vt 0.047244 0.078740 
vt 0.047244 0.086614 
vt 0.047244 0.086614 
vt 0.047244 0.086614 
vt 0.047244 0.086614 
vt 0.047244 0.078740 
vt 0.047244 0.086614 
vt 0.047244 0.086614 
vt 0.047244 0.086614 
vt 0.047244 0.086614 
vt 0.047244 0.086614 
vt 0.047244 0.086614 
vt 0.047244 0.078740 
vt 0.039370 0.078740 
vt 0.039370 0.086614 
vt 0.039370 0.078740 
vt 0.039370 0.078740 
vt 0.047244 0.078740 
vt 0.039370 0.078740 
vt 0.039370 0.078740 
vt 0.047244 0.086614 
vt 0.047244 0.078740 
vt 0.047244 0.078740 
vt 0.047244 0.086614 
vt 0.047244 0.078740 
vt 0.047244 0.078740 
vt 0.047244 0.078740 
vt 0.047244 0.078740 
vt 0.047244 0.078740 
vt 0.047244 0.086614 
vt 0.047244 0.086614 
vt 0.047244 0.086614 
vt 0.039370 0.078740 
vt 0.047244 0.078740 
vt 0.047244 0.078740 
vt 0.047244 0.078740 
vt 0.047244 0.078740 
vt 0.047244 0.078740 
f 1/1/1 2/2/2 3/3/3
f 4/4/4 5/5/5 6/6/6
f 7/7/7 8/8/8 9/9/9
f 10/10/10 11/11/11 12/12/12
f 13/13/13 14/14/14 15/15/15
f 16/16/16 17/17/17 18/18/18
f 19/19/19 20/20/20 21/21/21
f 22/22/22 23/23/23 24/24/24
f 25/25/25 26/26/26 27/27/27
f 28/28/28 29/29/29 30/30/30
f 31/31/31 32/32/32 33/33/33
f 34/34/34 35/35/35 36/36/36
f 37/37/37 38/38/38 39/39/39
f 40/40/40 41/41/41 42/42/42
f 43/43/43 44/44/44 45/45/45
f 46/46/46 47/47/47 48/48/48
f 49/49/49 50/50/50 51/51/51
f 52/52/52 53/53/53 54/54/54
