v -35.000000 -20.000000 14.000000 
v -35.000000 67.000000 -32.000000 
v -35.000000 -68.000000 -32.000000 
v -35.000000 67.000000 -32.000000 
v -35.000000 -20.000000 14.000000 
v -35.000000 44.000000 32.000000 
v -35.000000 -68.000000 -32.000000 
v -35.000000 67.000000 -32.000000 
v 36.000000 -32.000000 -32.000000 
v -35.000000 44.000000 32.000000 
v 36.000000 -32.000000 -32.000000 
v -35.000000 67.000000 -32.000000 
v -35.000000 44.000000 32.000000 
v -35.000000 -20.000000 14.000000 
v 36.000000 -32.000000 -32.000000 
v -35.000000 -20.000000 14.000000 
v -35.000000 -68.000000 -32.000000 
v 36.000000 -32.000000 -32.000000 
vn -1.000000 0.000000 0.000000 
vn -1.000000 0.000000 0.000000 
vn -1.000000 0.000000 0.000000 
vn -1.000000 0.000000 0.000000 
vn -1.000000 0.000000 0.000000 
vn -1.000000 0.000000 0.000000 
vn 0.000000 0.000000 -1.000000 
vn 0.000000 0.000000 -1.000000 
vn 0.000000 0.000000 -1.000000 
vn 0.798096 0.567383 0.202393 
vn 0.798096 0.567383 0.202393 
vn 0.798096 0.567383 0.202393 
vn 0.514160 -0.227539 0.826660 
vn 0.514160 -0.227539 0.826660 
vn 0.514160 -0.227539 0.826660 
vn 0.337891 -0.657959 0.672852 
vn 0.337891 -0.657959 0.672852 
vn 0.337891 -0.657959 0.672852 
vt 0.239216 0.629921 
vt 0.152941 0.921260 
vt 0.152941 0.472441 
vt 0.152941 0.921260 
vt 0.239216 0.629921 
vt 0.270588 0.842520 
vt 0.000000 0.472441 
vt 0.000000 0.921260 
vt 0.121569 0.590551 
vt 0.847059 0.874016 
vt 0.560784 0.086614 
vt 0.549020 0.724409 
vt 0.847059 0.874016 
vt 0.996078 0.527559 
vt 0.560784 0.086614 
vt 0.996078 0.527559 
vt 0.972549 0.141732 
vt 0.560784 0.086614 
f 1/1/1 2/2/2 3/3/3
f 4/4/4 5/5/5 6/6/6
f 7/7/7 8/8/8 9/9/9
f 10/10/10 11/11/11 12/12/12
f 13/13/13 14/14/14 15/15/15
f 16/16/16 17/17/17 18/18/18
