v -4.000000 7.000000 20.000000 
v 4.000000 12.000000 20.000000 
v -4.000000 24.000000 20.000000 
v -4.000000 7.000000 20.000000 
v -4.000000 24.000000 20.000000 
v -4.000000 32.000000 -2.000000 
v -4.000000 32.000000 -2.000000 
v -4.000000 -32.000000 -20.000000 
v -4.000000 7.000000 20.000000 
v -4.000000 24.000000 20.000000 
v 4.000000 12.000000 20.000000 
v -4.000000 32.000000 -2.000000 
v 4.000000 12.000000 20.000000 
v -4.000000 -32.000000 -20.000000 
v -4.000000 32.000000 -2.000000 
v -4.000000 7.000000 20.000000 
v -4.000000 -32.000000 -20.000000 
v 4.000000 12.000000 20.000000 
vn 0.000000 0.000000 1.000000 
vn 0.000000 0.000000 1.000000 
vn 0.000000 0.000000 1.000000 
vn -1.000000 0.000000 0.000000 
vn -1.000000 0.000000 0.000000 
vn -1.000000 0.000000 0.000000 
vn -1.000000 0.000000 0.000000 
vn -1.000000 0.000000 0.000000 
vn -1.000000 0.000000 0.000000 
vn 0.800049 0.564697 0.201660 
vn 0.800049 0.564697 0.201660 
vn 0.800049 0.564697 0.201660 
vn 0.952637 0.080566 -0.292480 
vn 0.952637 0.080566 -0.292480 
vn 0.952637 0.080566 -0.292480 
vn 0.341797 -0.664307 0.664307 
vn 0.341797 -0.664307 0.664307 
vn 0.341797 -0.664307 0.664307 
vt 0.309804 0.763780 
vt 0.294118 0.779528 
vt 0.309804 0.818898 
vt 0.309804 0.763780 
vt 0.309804 0.818898 
vt 0.270588 0.842520 
vt 0.270588 0.842520 
vt 0.239216 0.629921 
vt 0.309804 0.763780 
vt 0.949020 0.629921 
vt 0.941176 0.559055 
vt 0.858824 0.606299 
vt 0.941176 0.559055 
vt 0.788235 0.448819 
vt 0.858824 0.606299 
vt 0.952941 0.488189 
vt 0.788235 0.448819 
vt 0.941176 0.559055 
f 1/1/1 2/2/2 3/3/3
f 4/4/4 5/5/5 6/6/6
f 7/7/7 8/8/8 9/9/9
f 10/10/10 11/11/11 12/12/12
f 13/13/13 14/14/14 15/15/15
f 16/16/16 17/17/17 18/18/18
