v 21.000000 7.000000 0.000000 
v 21.000000 1.000000 -9.000000 
v -1.000000 1.000000 -8.000000 
v -1.000000 1.000000 -8.000000 
v 21.000000 1.000000 -9.000000 
v -1.000000 -35.000000 0.000000 
v 21.000000 1.000000 -9.000000 
v 21.000000 -38.000000 0.000000 
v -1.000000 -35.000000 0.000000 
vn 0.106934 0.988525 -0.105957 
vn 0.334229 0.289551 -0.896729 
vn 0.331055 0.289551 -0.897949 
vn 0.331055 0.289551 -0.897949 
vn 0.334229 0.289551 -0.896729 
vn 0.236328 -0.512695 -0.825195 
vn 0.334229 0.289551 -0.896729 
vn 0.246094 -0.513672 -0.821533 
vn 0.236328 -0.512695 -0.825195 
vt 0.582677 0.291339 
vt 0.653543 0.283465 
vt 0.645669 0.275591 
vt 0.645669 0.275591 
vt 0.653543 0.283465 
vt 0.582677 0.181102 
vt 0.653543 0.283465 
vt 0.582677 0.173228 
vt 0.582677 0.181102 
f 1/1/1 2/2/2 3/3/3
f 4/4/4 5/5/5 6/6/6
f 7/7/7 8/8/8 9/9/9
