v 0.000000 -25.000000 -3.000000 
v 11.000000 3.000000 -3.000000 
v 0.000000 -8.000000 -1.000000 
v 9.000000 6.000000 -10.000000 
v 18.000000 9.000000 -1.000000 
v 14.000000 6.000000 0.000000 
v 9.000000 6.000000 -10.000000 
v 12.000000 9.000000 -11.000000 
v 18.000000 9.000000 -1.000000 
v 0.000000 -25.000000 -3.000000 
v 0.000000 -13.000000 -12.000000 
v 14.000000 -27.000000 0.000000 
v 0.000000 5.000000 -13.000000 
v 0.000000 10.000000 -15.000000 
v 12.000000 9.000000 -11.000000 
v 12.000000 36.000000 2.000000 
v 0.000000 17.000000 0.000000 
v 0.000000 41.000000 4.000000 
v 0.000000 5.000000 -13.000000 
v 12.000000 9.000000 -11.000000 
v 9.000000 6.000000 -10.000000 
v 14.000000 6.000000 0.000000 
v 14.000000 -27.000000 0.000000 
v 9.000000 6.000000 -10.000000 
v 0.000000 -13.000000 -12.000000 
v 0.000000 5.000000 -13.000000 
v 14.000000 -27.000000 0.000000 
v 0.000000 5.000000 -13.000000 
v 9.000000 6.000000 -10.000000 
v 14.000000 -27.000000 0.000000 
v -14.000000 -27.000000 0.000000 
v 0.000000 -25.000000 -3.000000 
v -16.000000 3.000000 -3.000000 
v 0.000000 17.000000 0.000000 
v -12.000000 36.000000 2.000000 
v 0.000000 41.000000 4.000000 
v -18.000000 9.000000 -1.000000 
v -9.000000 6.000000 -10.000000 
v -14.000000 6.000000 0.000000 
v -12.000000 9.000000 -11.000000 
v -9.000000 6.000000 -10.000000 
v -18.000000 9.000000 -1.000000 
v 0.000000 -13.000000 -12.000000 
v 0.000000 -25.000000 -3.000000 
v -14.000000 -27.000000 0.000000 
v 0.000000 10.000000 -15.000000 
v 0.000000 5.000000 -13.000000 
v -12.000000 9.000000 -11.000000 
v 0.000000 10.000000 -15.000000 
v -12.000000 36.000000 2.000000 
v 0.000000 17.000000 0.000000 
v -12.000000 9.000000 -11.000000 
v 0.000000 5.000000 -13.000000 
v -9.000000 6.000000 -10.000000 
v -14.000000 -27.000000 0.000000 
v -14.000000 6.000000 0.000000 
v -9.000000 6.000000 -10.000000 
v 0.000000 5.000000 -13.000000 
v 0.000000 -13.000000 -12.000000 
v -14.000000 -27.000000 0.000000 
v -9.000000 6.000000 -10.000000 
v 0.000000 5.000000 -13.000000 
v -14.000000 -27.000000 0.000000 
v -12.000000 9.000000 -11.000000 
v -18.000000 9.000000 -1.000000 
v 0.000000 10.000000 -15.000000 
v -18.000000 9.000000 -1.000000 
v -12.000000 36.000000 2.000000 
v 0.000000 10.000000 -15.000000 
v 18.000000 9.000000 -1.000000 
v 12.000000 9.000000 -11.000000 
v 0.000000 10.000000 -15.000000 
v 12.000000 36.000000 2.000000 
v 18.000000 9.000000 -1.000000 
v 0.000000 10.000000 -15.000000 
v 0.000000 17.000000 0.000000 
v 12.000000 36.000000 2.000000 
v 0.000000 10.000000 -15.000000 
v 0.000000 -25.000000 -3.000000 
v 14.000000 -27.000000 0.000000 
v 11.000000 3.000000 -3.000000 
v -16.000000 3.000000 -3.000000 
v 0.000000 -25.000000 -3.000000 
v 0.000000 -8.000000 -1.000000 
v -16.000000 3.000000 -3.000000 
v 0.000000 -8.000000 -1.000000 
v 0.000000 7.000000 0.000000 
v 0.000000 -8.000000 -1.000000 
v 11.000000 3.000000 -3.000000 
v 11.000000 3.000000 -3.000000 
v 0.000000 -8.000000 -1.000000 
v 11.000000 3.000000 -3.000000 
v 0.000000 7.000000 0.000000 
vn 0.016602 -0.111816 0.993408 
vn -0.012939 -0.094238 0.995361 
vn 0.041260 -0.220947 0.974121 
vn 0.638672 -0.578125 -0.507324 
vn 0.568115 -0.810059 -0.144531 
vn 0.850098 -0.455566 -0.263672 
vn 0.638672 -0.578125 -0.507324 
vn 0.431885 -0.681641 -0.590332 
vn 0.568115 -0.810059 -0.144531 
vn 0.000000 -0.729248 -0.684082 
vn 0.000000 -0.450928 -0.892334 
vn 0.643311 -0.256104 -0.721436 
vn 0.000000 -0.408691 -0.912354 
vn 0.000000 -0.511719 -0.858887 
vn 0.431885 -0.681641 -0.590332 
vn -0.054932 0.585205 -0.808838 
vn 0.000000 0.621826 -0.782959 
vn 0.000000 0.321045 -0.946777 
vn 0.000000 -0.408691 -0.912354 
vn 0.431885 -0.681641 -0.590332 
vn 0.638672 -0.578125 -0.507324 
vn 0.850098 -0.455566 -0.263672 
vn 0.643311 -0.256104 -0.721436 
vn 0.638672 -0.578125 -0.507324 
vn 0.000000 -0.450928 -0.892334 
vn 0.000000 -0.408691 -0.912354 
vn 0.643311 -0.256104 -0.721436 
vn 0.000000 -0.408691 -0.912354 
vn 0.638672 -0.578125 -0.507324 
vn 0.643311 -0.256104 -0.721436 
vn 0.358154 0.078125 0.930176 
vn 0.016602 -0.111816 0.993408 
vn -0.014160 -0.156494 0.987305 
vn 0.000000 0.621826 -0.782959 
vn 0.054932 0.585205 -0.808838 
vn 0.000000 0.321045 -0.946777 
vn -0.568115 -0.810059 -0.144531 
vn -0.638672 -0.578125 -0.507324 
vn -0.850098 -0.455566 -0.263672 
vn -0.431885 -0.681641 -0.590332 
vn -0.638672 -0.578125 -0.507324 
vn -0.568115 -0.810059 -0.144531 
vn 0.000000 -0.450928 -0.892334 
vn 0.000000 -0.729248 -0.684082 
vn -0.643311 -0.256104 -0.721436 
vn 0.000000 -0.511719 -0.858887 
vn 0.000000 -0.408691 -0.912354 
vn -0.431885 -0.681641 -0.590332 
vn 0.000000 0.889160 -0.457031 
vn 0.054932 0.585205 -0.808838 
vn 0.000000 0.621826 -0.782959 
vn -0.431885 -0.681641 -0.590332 
vn 0.000000 -0.408691 -0.912354 
vn -0.638672 -0.578125 -0.507324 
vn -0.643311 -0.256104 -0.721436 
vn -0.850098 -0.455566 -0.263672 
vn -0.638672 -0.578125 -0.507324 
vn 0.000000 -0.408691 -0.912354 
vn 0.000000 -0.450928 -0.892334 
vn -0.643311 -0.256104 -0.721436 
vn -0.638672 -0.578125 -0.507324 
vn 0.000000 -0.408691 -0.912354 
vn -0.643311 -0.256104 -0.721436 
vn -0.097900 0.986084 -0.132812 
vn -0.433838 0.782959 -0.445557 
vn 0.000000 0.889160 -0.457031 
vn -0.433838 0.782959 -0.445557 
vn 0.054932 0.585205 -0.808838 
vn 0.000000 0.889160 -0.457031 
vn 0.433838 0.782959 -0.445557 
vn 0.097900 0.986084 -0.132812 
vn 0.000000 0.889160 -0.457031 
vn -0.054932 0.585205 -0.808838 
vn 0.433838 0.782959 -0.445557 
vn 0.000000 0.889160 -0.457031 
vn 0.000000 0.621826 -0.782959 
vn -0.054932 0.585205 -0.808838 
vn 0.000000 0.889160 -0.457031 
vn 0.016602 -0.111816 0.993408 
vn -0.364502 0.022217 0.930664 
vn -0.012939 -0.094238 0.995361 
vn -0.014160 -0.156494 0.987305 
vn 0.016602 -0.111816 0.993408 
vn 0.041260 -0.220947 0.974121 
vn -0.014160 -0.156494 0.987305 
vn 0.041260 -0.220947 0.974121 
vn 0.037842 -0.267822 0.962646 
vn 0.041260 -0.220947 0.974121 
vn -0.012939 -0.094238 0.995361 
vn 0.167969 -0.147949 0.974365 
vn 0.041260 -0.220947 0.974121 
vn 0.167969 -0.147949 0.974365 
vn 0.037842 -0.267822 0.962646 
vt 0.007874 0.385827 
vt 0.039370 0.362205 
vt 0.007874 0.354331 
vt 0.039370 0.535433 
vt 0.133858 0.574803 
vt 0.110236 0.527559 
vt 0.039370 0.535433 
vt 0.062992 0.566929 
vt 0.133858 0.574803 
vt 0.007874 0.377953 
vt 0.007874 0.448819 
vt 0.078740 0.393701 
vt 0.000000 0.527559 
vt 0.000000 0.566929 
vt 0.062992 0.566929 
vt 0.149606 0.763780 
vt 0.141732 0.763780 
vt 0.141732 0.763780 
vt 0.000000 0.527559 
vt 0.062992 0.566929 
vt 0.039370 0.535433 
vt 0.110236 0.527559 
vt 0.078740 0.393701 
vt 0.039370 0.535433 
vt 0.007874 0.448819 
vt 0.000000 0.527559 
vt 0.078740 0.393701 
vt 0.000000 0.527559 
vt 0.039370 0.535433 
vt 0.078740 0.393701 
vt 0.070866 0.393701 
vt 0.007874 0.385827 
vt 0.039370 0.362205 
vt 0.141732 0.763780 
vt 0.149606 0.763780 
vt 0.141732 0.763780 
vt 0.133858 0.574803 
vt 0.039370 0.535433 
vt 0.110236 0.527559 
vt 0.062992 0.566929 
vt 0.039370 0.535433 
vt 0.133858 0.574803 
vt 0.007874 0.448819 
vt 0.007874 0.377953 
vt 0.086614 0.401575 
vt 0.000000 0.566929 
vt 0.000000 0.527559 
vt 0.062992 0.566929 
vt 0.141732 0.763780 
vt 0.149606 0.763780 
vt 0.141732 0.763780 
vt 0.062992 0.566929 
vt 0.000000 0.527559 
vt 0.039370 0.535433 
vt 0.086614 0.401575 
vt 0.110236 0.527559 
vt 0.039370 0.535433 
vt 0.000000 0.527559 
vt 0.007874 0.448819 
vt 0.086614 0.401575 
vt 0.039370 0.535433 
vt 0.000000 0.527559 
vt 0.086614 0.401575 
vt 0.149606 0.763780 
vt 0.149606 0.763780 
vt 0.141732 0.763780 
vt 0.149606 0.763780 
vt 0.149606 0.763780 
vt 0.141732 0.763780 
vt 0.149606 0.763780 
vt 0.149606 0.755906 
vt 0.141732 0.755906 
vt 0.149606 0.771654 
vt 0.149606 0.763780 
vt 0.141732 0.755906 
vt 0.149606 0.771654 
vt 0.149606 0.771654 
vt 0.141732 0.755906 
vt 0.007874 0.385827 
vt 0.070866 0.393701 
vt 0.039370 0.362205 
vt 0.039370 0.362205 
vt 0.007874 0.385827 
vt 0.007874 0.354331 
vt 0.039370 0.362205 
vt 0.007874 0.354331 
vt 0.007874 0.322835 
vt 0.007874 0.354331 
vt 0.039370 0.362205 
vt 0.039370 0.362205 
vt 0.007874 0.354331 
vt 0.039370 0.362205 
vt 0.007874 0.322835 
f 1/1/1 2/2/2 3/3/3
f 4/4/4 5/5/5 6/6/6
f 7/7/7 8/8/8 9/9/9
f 10/10/10 11/11/11 12/12/12
f 13/13/13 14/14/14 15/15/15
f 16/16/16 17/17/17 18/18/18
f 19/19/19 20/20/20 21/21/21
f 22/22/22 23/23/23 24/24/24
f 25/25/25 26/26/26 27/27/27
f 28/28/28 29/29/29 30/30/30
f 31/31/31 32/32/32 33/33/33
f 34/34/34 35/35/35 36/36/36
f 37/37/37 38/38/38 39/39/39
f 40/40/40 41/41/41 42/42/42
f 43/43/43 44/44/44 45/45/45
f 46/46/46 47/47/47 48/48/48
f 49/49/49 50/50/50 51/51/51
f 52/52/52 53/53/53 54/54/54
f 55/55/55 56/56/56 57/57/57
f 58/58/58 59/59/59 60/60/60
f 61/61/61 62/62/62 63/63/63
f 64/64/64 65/65/65 66/66/66
f 67/67/67 68/68/68 69/69/69
f 70/70/70 71/71/71 72/72/72
f 73/73/73 74/74/74 75/75/75
f 76/76/76 77/77/77 78/78/78
f 79/79/79 80/80/80 81/81/81
f 82/82/82 83/83/83 84/84/84
f 85/85/85 86/86/86 87/87/87
f 88/88/88 89/89/89 90/90/90
f 91/91/91 92/92/92 93/93/93
