v -2.000000 14.000000 14.000000 
v 20.000000 45.000000 45.000000 
v 20.000000 0.000000 64.000000 
v 20.000000 0.000000 64.000000 
v -2.000000 0.000000 20.000000 
v -2.000000 14.000000 14.000000 
v -2.000000 20.000000 0.000000 
v 20.000000 64.000000 0.000000 
v 20.000000 45.000000 45.000000 
v 20.000000 45.000000 45.000000 
v -2.000000 14.000000 14.000000 
v -2.000000 20.000000 0.000000 
v -2.000000 14.000000 -14.000000 
v 20.000000 45.000000 -45.000000 
v 20.000000 64.000000 0.000000 
v 20.000000 64.000000 0.000000 
v -2.000000 20.000000 0.000000 
v -2.000000 14.000000 -14.000000 
v -2.000000 0.000000 -20.000000 
v 20.000000 0.000000 -64.000000 
v 20.000000 45.000000 -45.000000 
v 20.000000 45.000000 -45.000000 
v -2.000000 14.000000 -14.000000 
v -2.000000 0.000000 -20.000000 
v -2.000000 -14.000000 -14.000000 
v 20.000000 -45.000000 -45.000000 
v 20.000000 0.000000 -64.000000 
v 20.000000 0.000000 -64.000000 
v -2.000000 0.000000 -20.000000 
v -2.000000 -14.000000 -14.000000 
v -2.000000 -20.000000 0.000000 
v 20.000000 -64.000000 0.000000 
v 20.000000 -45.000000 -45.000000 
v 20.000000 -45.000000 -45.000000 
v -2.000000 -14.000000 -14.000000 
v -2.000000 -20.000000 0.000000 
v -2.000000 -14.000000 14.000000 
v 20.000000 -45.000000 45.000000 
v 20.000000 -64.000000 0.000000 
v 20.000000 -64.000000 0.000000 
v -2.000000 -20.000000 0.000000 
v -2.000000 -14.000000 14.000000 
v -2.000000 0.000000 20.000000 
v 20.000000 0.000000 64.000000 
v 20.000000 -45.000000 45.000000 
v 20.000000 -45.000000 45.000000 
v -2.000000 -14.000000 14.000000 
v -2.000000 0.000000 20.000000 
v 4.000000 10.000000 10.000000 
v 4.000000 0.000000 14.000000 
v 6.000000 0.000000 0.000000 
v 4.000000 14.000000 0.000000 
v 4.000000 10.000000 10.000000 
v 6.000000 0.000000 0.000000 
v 4.000000 10.000000 -10.000000 
v 4.000000 14.000000 0.000000 
v 6.000000 0.000000 0.000000 
v 4.000000 0.000000 -14.000000 
v 4.000000 10.000000 -10.000000 
v 6.000000 0.000000 0.000000 
v 4.000000 -10.000000 -10.000000 
v 4.000000 0.000000 -14.000000 
v 6.000000 0.000000 0.000000 
v 4.000000 -14.000000 0.000000 
v 4.000000 -10.000000 -10.000000 
v 6.000000 0.000000 0.000000 
v 4.000000 -10.000000 10.000000 
v 4.000000 -14.000000 0.000000 
v 6.000000 0.000000 0.000000 
v 4.000000 0.000000 14.000000 
v 4.000000 -10.000000 10.000000 
v 6.000000 0.000000 0.000000 
v -2.000000 14.000000 14.000000 
v -2.000000 0.000000 20.000000 
v 4.000000 0.000000 14.000000 
v 4.000000 10.000000 10.000000 
v -2.000000 14.000000 14.000000 
v 4.000000 0.000000 14.000000 
v -2.000000 20.000000 0.000000 
v -2.000000 14.000000 14.000000 
v 4.000000 10.000000 10.000000 
v 4.000000 14.000000 0.000000 
v -2.000000 20.000000 0.000000 
v 4.000000 10.000000 10.000000 
v -2.000000 14.000000 -14.000000 
v -2.000000 20.000000 0.000000 
v 4.000000 14.000000 0.000000 
v 4.000000 10.000000 -10.000000 
v -2.000000 14.000000 -14.000000 
v 4.000000 14.000000 0.000000 
v -2.000000 0.000000 -20.000000 
v -2.000000 14.000000 -14.000000 
v 4.000000 10.000000 -10.000000 
v 4.000000 0.000000 -14.000000 
v -2.000000 0.000000 -20.000000 
v 4.000000 10.000000 -10.000000 
v -2.000000 -14.000000 -14.000000 
v -2.000000 0.000000 -20.000000 
v 4.000000 0.000000 -14.000000 
v 4.000000 -10.000000 -10.000000 
v -2.000000 -14.000000 -14.000000 
v 4.000000 0.000000 -14.000000 
v -2.000000 -20.000000 0.000000 
v -2.000000 -14.000000 -14.000000 
v 4.000000 -10.000000 -10.000000 
v 4.000000 -14.000000 0.000000 
v -2.000000 -20.000000 0.000000 
v 4.000000 -10.000000 -10.000000 
v -2.000000 -14.000000 14.000000 
v -2.000000 -20.000000 0.000000 
v 4.000000 -14.000000 0.000000 
v 4.000000 -10.000000 10.000000 
v -2.000000 -14.000000 14.000000 
v 4.000000 -14.000000 0.000000 
v -2.000000 0.000000 20.000000 
v -2.000000 -14.000000 14.000000 
v 4.000000 -10.000000 10.000000 
v 4.000000 0.000000 14.000000 
v -2.000000 0.000000 20.000000 
v 4.000000 -10.000000 10.000000 
vn 0.989990 0.084473 0.111328 
vn 0.636719 -0.614502 -0.465332 
vn 0.636719 -0.105225 -0.763672 
vn 0.636719 -0.105225 -0.763672 
vn 0.989990 -0.019043 0.138428 
vn 0.989990 0.084473 0.111328 
vn 0.989990 0.138428 0.019043 
vn 0.636719 -0.763672 0.105225 
vn 0.636719 -0.614502 -0.465332 
vn 0.636719 -0.614502 -0.465332 
vn 0.989990 0.084473 0.111328 
vn 0.989990 0.138428 0.019043 
vn 0.989990 0.111328 -0.084229 
vn 0.636719 -0.465332 0.614502 
vn 0.636719 -0.763672 0.105225 
vn 0.636719 -0.763672 0.105225 
vn 0.989990 0.138428 0.019043 
vn 0.989990 0.111328 -0.084229 
vn 0.989990 0.019043 -0.138428 
vn 0.636719 0.105469 0.763672 
vn 0.636719 -0.465332 0.614502 
vn 0.636719 -0.465332 0.614502 
vn 0.989990 0.111328 -0.084229 
vn 0.989990 0.019043 -0.138428 
vn 0.989990 -0.084229 -0.111328 
vn 0.636719 0.614502 0.465332 
vn 0.636719 0.105469 0.763672 
vn 0.636719 0.105469 0.763672 
vn 0.989990 0.019043 -0.138428 
vn 0.989990 -0.084229 -0.111328 
vn 0.989990 -0.138184 -0.019043 
vn 0.636719 0.763672 -0.105225 
vn 0.636719 0.614502 0.465332 
vn 0.636719 0.614502 0.465332 
vn 0.989990 -0.084229 -0.111328 
vn 0.989990 -0.138184 -0.019043 
vn 0.989990 -0.111328 0.084229 
vn 0.636719 0.465332 -0.614502 
vn 0.636719 0.763672 -0.105225 
vn 0.636719 0.763672 -0.105225 
vn 0.989990 -0.138184 -0.019043 
vn 0.989990 -0.111328 0.084229 
vn 0.989990 -0.019043 0.138428 
vn 0.636719 -0.105225 -0.763672 
vn 0.636719 0.465332 -0.614502 
vn 0.636719 0.465332 -0.614502 
vn 0.989990 -0.111328 0.084229 
vn 0.989990 -0.019043 0.138428 
vn 0.673584 0.577393 0.460938 
vn 0.673828 0.082275 0.734131 
vn 0.999756 0.000244 0.000000 
vn 0.673584 0.734375 -0.082275 
vn 0.673584 0.577393 0.460938 
vn 0.999756 0.000244 0.000000 
vn 0.673584 0.460938 -0.577393 
vn 0.673584 0.734375 -0.082275 
vn 0.999756 0.000244 0.000000 
vn 0.673828 -0.082031 -0.734131 
vn 0.673584 0.460938 -0.577393 
vn 0.999756 0.000244 0.000000 
vn 0.673828 -0.577148 -0.460938 
vn 0.673828 -0.082031 -0.734131 
vn 0.999756 0.000244 0.000000 
vn 0.673828 -0.733887 0.082275 
vn 0.673828 -0.577148 -0.460938 
vn 0.999756 0.000244 0.000000 
vn 0.673828 -0.460693 0.577393 
vn 0.673828 -0.733887 0.082275 
vn 0.999756 0.000244 0.000000 
vn 0.673828 0.082275 0.734131 
vn 0.673828 -0.460693 0.577393 
vn 0.999756 0.000244 0.000000 
vn 0.989990 0.084473 0.111328 
vn 0.989990 -0.019043 0.138428 
vn 0.673828 0.082275 0.734131 
vn 0.673584 0.577393 0.460938 
vn 0.989990 0.084473 0.111328 
vn 0.673828 0.082275 0.734131 
vn 0.989990 0.138428 0.019043 
vn 0.989990 0.084473 0.111328 
vn 0.673584 0.577393 0.460938 
vn 0.673584 0.734375 -0.082275 
vn 0.989990 0.138428 0.019043 
vn 0.673584 0.577393 0.460938 
vn 0.989990 0.111328 -0.084229 
vn 0.989990 0.138428 0.019043 
vn 0.673584 0.734375 -0.082275 
vn 0.673584 0.460938 -0.577393 
vn 0.989990 0.111328 -0.084229 
vn 0.673584 0.734375 -0.082275 
vn 0.989990 0.019043 -0.138428 
vn 0.989990 0.111328 -0.084229 
vn 0.673584 0.460938 -0.577393 
vn 0.673828 -0.082031 -0.734131 
vn 0.989990 0.019043 -0.138428 
vn 0.673584 0.460938 -0.577393 
vn 0.989990 -0.084229 -0.111328 
vn 0.989990 0.019043 -0.138428 
vn 0.673828 -0.082031 -0.734131 
vn 0.673828 -0.577148 -0.460938 
vn 0.989990 -0.084229 -0.111328 
vn 0.673828 -0.082031 -0.734131 
vn 0.989990 -0.138184 -0.019043 
vn 0.989990 -0.084229 -0.111328 
vn 0.673828 -0.577148 -0.460938 
vn 0.673828 -0.733887 0.082275 
vn 0.989990 -0.138184 -0.019043 
vn 0.673828 -0.577148 -0.460938 
vn 0.989990 -0.111328 0.084229 
vn 0.989990 -0.138184 -0.019043 
vn 0.673828 -0.733887 0.082275 
vn 0.673828 -0.460693 0.577393 
vn 0.989990 -0.111328 0.084229 
vn 0.673828 -0.733887 0.082275 
vn 0.989990 -0.019043 0.138428 
vn 0.989990 -0.111328 0.084229 
vn 0.673828 -0.460693 0.577393 
vn 0.673828 0.082275 0.734131 
vn 0.989990 -0.019043 0.138428 
vn 0.673828 -0.460693 0.577393 
vt 0.299213 0.692913 
vt 0.157480 0.834646 
vt 0.496063 0.976378 
vt 0.496063 0.976378 
vt 0.496063 0.771654 
vt 0.299213 0.692913 
vt 0.220472 0.496063 
vt 0.015748 0.496063 
vt 0.157480 0.834646 
vt 0.157480 0.834646 
vt 0.299213 0.692913 
vt 0.220472 0.496063 
vt 0.299213 0.299213 
vt 0.157480 0.157480 
vt 0.015748 0.496063 
vt 0.015748 0.496063 
vt 0.220472 0.496063 
vt 0.299213 0.299213 
vt 0.496063 0.220472 
vt 0.496063 0.015748 
vt 0.157480 0.157480 
vt 0.157480 0.157480 
vt 0.299213 0.299213 
vt 0.496063 0.220472 
vt 0.692913 0.299213 
vt 0.834646 0.157480 
vt 0.496063 0.015748 
vt 0.496063 0.015748 
vt 0.496063 0.220472 
vt 0.692913 0.299213 
vt 0.771654 0.496063 
vt 0.976378 0.496063 
vt 0.834646 0.157480 
vt 0.834646 0.157480 
vt 0.692913 0.299213 
vt 0.771654 0.496063 
vt 0.692913 0.692913 
vt 0.834646 0.834646 
vt 0.976378 0.496063 
vt 0.976378 0.496063 
vt 0.771654 0.496063 
vt 0.692913 0.692913 
vt 0.496063 0.771654 
vt 0.496063 0.976378 
vt 0.834646 0.834646 
vt 0.834646 0.834646 
vt 0.692913 0.692913 
vt 0.496063 0.771654 
vt 0.480315 0.511811 
vt 0.496063 0.519685 
vt 0.496063 0.496063 
vt 0.472441 0.496063 
vt 0.480315 0.511811 
vt 0.496063 0.496063 
vt 0.480315 0.480315 
vt 0.472441 0.496063 
vt 0.496063 0.496063 
vt 0.496063 0.472441 
vt 0.480315 0.480315 
vt 0.496063 0.496063 
vt 0.511811 0.480315 
vt 0.496063 0.472441 
vt 0.496063 0.496063 
vt 0.519685 0.496063 
vt 0.511811 0.480315 
vt 0.496063 0.496063 
vt 0.511811 0.511811 
vt 0.519685 0.496063 
vt 0.496063 0.496063 
vt 0.496063 0.519685 
vt 0.511811 0.511811 
vt 0.496063 0.496063 
vt 0.464567 0.527559 
vt 0.496063 0.543307 
vt 0.496063 0.519685 
vt 0.480315 0.511811 
vt 0.464567 0.527559 
vt 0.496063 0.519685 
vt 0.448819 0.496063 
vt 0.464567 0.527559 
vt 0.480315 0.511811 
vt 0.472441 0.496063 
vt 0.448819 0.496063 
vt 0.480315 0.511811 
vt 0.464567 0.464567 
vt 0.448819 0.496063 
vt 0.472441 0.496063 
vt 0.480315 0.480315 
vt 0.464567 0.464567 
vt 0.472441 0.496063 
vt 0.496063 0.448819 
vt 0.464567 0.464567 
vt 0.480315 0.480315 
vt 0.496063 0.472441 
vt 0.496063 0.448819 
vt 0.480315 0.480315 
vt 0.527559 0.464567 
vt 0.496063 0.448819 
vt 0.496063 0.472441 
vt 0.511811 0.480315 
vt 0.527559 0.464567 
vt 0.496063 0.472441 
vt 0.543307 0.496063 
vt 0.527559 0.464567 
vt 0.511811 0.480315 
vt 0.519685 0.496063 
vt 0.543307 0.496063 
vt 0.511811 0.480315 
vt 0.527559 0.527559 
vt 0.543307 0.496063 
vt 0.519685 0.496063 
vt 0.511811 0.511811 
vt 0.527559 0.527559 
vt 0.519685 0.496063 
vt 0.496063 0.543307 
vt 0.527559 0.527559 
vt 0.511811 0.511811 
vt 0.496063 0.519685 
vt 0.496063 0.543307 
vt 0.511811 0.511811 
f 1/1/1 2/2/2 3/3/3
f 4/4/4 5/5/5 6/6/6
f 7/7/7 8/8/8 9/9/9
f 10/10/10 11/11/11 12/12/12
f 13/13/13 14/14/14 15/15/15
f 16/16/16 17/17/17 18/18/18
f 19/19/19 20/20/20 21/21/21
f 22/22/22 23/23/23 24/24/24
f 25/25/25 26/26/26 27/27/27
f 28/28/28 29/29/29 30/30/30
f 31/31/31 32/32/32 33/33/33
f 34/34/34 35/35/35 36/36/36
f 37/37/37 38/38/38 39/39/39
f 40/40/40 41/41/41 42/42/42
f 43/43/43 44/44/44 45/45/45
f 46/46/46 47/47/47 48/48/48
f 49/49/49 50/50/50 51/51/51
f 52/52/52 53/53/53 54/54/54
f 55/55/55 56/56/56 57/57/57
f 58/58/58 59/59/59 60/60/60
f 61/61/61 62/62/62 63/63/63
f 64/64/64 65/65/65 66/66/66
f 67/67/67 68/68/68 69/69/69
f 70/70/70 71/71/71 72/72/72
f 73/73/73 74/74/74 75/75/75
f 76/76/76 77/77/77 78/78/78
f 79/79/79 80/80/80 81/81/81
f 82/82/82 83/83/83 84/84/84
f 85/85/85 86/86/86 87/87/87
f 88/88/88 89/89/89 90/90/90
f 91/91/91 92/92/92 93/93/93
f 94/94/94 95/95/95 96/96/96
f 97/97/97 98/98/98 99/99/99
f 100/100/100 101/101/101 102/102/102
f 103/103/103 104/104/104 105/105/105
f 106/106/106 107/107/107 108/108/108
f 109/109/109 110/110/110 111/111/111
f 112/112/112 113/113/113 114/114/114
f 115/115/115 116/116/116 117/117/117
f 118/118/118 119/119/119 120/120/120
