v -70.000000 34.000000 -1.000000 
v -70.000000 34.000000 53.000000 
v 70.000000 34.000000 53.000000 
v 70.000000 34.000000 53.000000 
v 39.000000 34.000000 -53.000000 
v -70.000000 34.000000 -1.000000 
v 70.000000 34.000000 53.000000 
v 70.000000 34.000000 -7.000000 
v 39.000000 34.000000 -53.000000 
v -70.000000 34.000000 53.000000 
v -70.000000 -34.000000 32.000000 
v -70.000000 -34.000000 53.000000 
v -70.000000 -34.000000 32.000000 
v -70.000000 34.000000 53.000000 
v -70.000000 34.000000 -1.000000 
v 70.000000 12.000000 53.000000 
v -70.000000 -34.000000 53.000000 
v -15.000000 -34.000000 53.000000 
v 70.000000 12.000000 53.000000 
v -70.000000 34.000000 53.000000 
v -70.000000 -34.000000 53.000000 
v -70.000000 34.000000 53.000000 
v 70.000000 12.000000 53.000000 
v 70.000000 34.000000 53.000000 
v 70.000000 34.000000 -7.000000 
v 70.000000 34.000000 53.000000 
v 70.000000 12.000000 53.000000 
v 70.000000 34.000000 -7.000000 
v 70.000000 12.000000 53.000000 
v -15.000000 -34.000000 53.000000 
v 39.000000 34.000000 -53.000000 
v 70.000000 34.000000 -7.000000 
v -15.000000 -34.000000 53.000000 
v -70.000000 -34.000000 32.000000 
v -15.000000 -34.000000 53.000000 
v -70.000000 -34.000000 53.000000 
v 39.000000 34.000000 -53.000000 
v -15.000000 -34.000000 53.000000 
v -70.000000 -34.000000 32.000000 
v -70.000000 34.000000 -1.000000 
v 39.000000 34.000000 -53.000000 
v -70.000000 -34.000000 32.000000 
vn 0.000000 1.000000 0.000000 
vn 0.000000 1.000000 0.000000 
vn 0.000000 1.000000 0.000000 
vn 0.000000 1.000000 0.000000 
vn 0.000000 1.000000 0.000000 
vn 0.000000 1.000000 0.000000 
vn 0.000000 1.000000 0.000000 
vn 0.000000 1.000000 0.000000 
vn 0.000000 1.000000 0.000000 
vn -1.000000 0.000000 0.000000 
vn -1.000000 0.000000 0.000000 
vn -1.000000 0.000000 0.000000 
vn -1.000000 0.000000 0.000000 
vn -1.000000 0.000000 0.000000 
vn -1.000000 0.000000 0.000000 
vn 0.000000 0.000000 1.000000 
vn 0.000000 0.000000 1.000000 
vn 0.000000 0.000000 1.000000 
vn 0.000000 0.000000 1.000000 
vn 0.000000 0.000000 1.000000 
vn 0.000000 0.000000 1.000000 
vn 0.000000 0.000000 1.000000 
vn 0.000000 0.000000 1.000000 
vn 0.000000 0.000000 1.000000 
vn 1.000000 0.000000 0.000000 
vn 1.000000 0.000000 0.000000 
vn 1.000000 0.000000 0.000000 
vn 0.448975 -0.839355 -0.305908 
vn 0.448975 -0.839355 -0.305908 
vn 0.448975 -0.839355 -0.305908 
vn 0.448730 -0.839355 -0.306396 
vn 0.448730 -0.839355 -0.306396 
vn 0.448730 -0.839355 -0.306396 
vn 0.000000 -1.000000 0.000000 
vn 0.000000 -1.000000 0.000000 
vn 0.000000 -1.000000 0.000000 
vn 0.176514 -0.867432 -0.464844 
vn 0.176514 -0.867432 -0.464844 
vn 0.176514 -0.867432 -0.464844 
vn -0.386719 -0.407959 -0.826904 
vn -0.386719 -0.407959 -0.826904 
vn -0.386719 -0.407959 -0.826904 
vt 0.498039 0.141732 
vt 0.498039 -0.007874 
vt 0.309804 -0.007874 
vt 0.309804 -0.007874 
vt 0.352941 0.283465 
vt 0.498039 0.141732 
vt 0.309804 -0.007874 
vt 0.309804 0.157480 
vt 0.352941 0.283465 
vt 0.309804 1.000000 
vt 0.286275 0.385827 
vt 0.309804 0.385827 
vt 0.286275 0.385827 
vt 0.309804 1.000000 
vt 0.250980 1.000000 
vt 0.152941 0.803150 
vt 0.309804 0.385827 
vt 0.247059 0.385827 
vt 0.152941 0.803150 
vt 0.309804 1.000000 
vt 0.309804 0.385827 
vt 0.309804 1.000000 
vt 0.152941 0.803150 
vt 0.152941 1.000000 
vt 0.219608 1.000000 
vt 0.152941 1.000000 
vt 0.152941 0.803150 
vt 0.721569 0.897638 
vt 0.929412 0.850394 
vt 0.945098 0.330709 
vt 0.568627 0.748031 
vt 0.721569 0.897638 
vt 0.945098 0.330709 
vt 0.854902 0.039370 
vt 0.945098 0.330709 
vt 0.913725 0.031496 
vt 0.568627 0.748031 
vt 0.945098 0.330709 
vt 0.854902 0.039370 
vt 0.662745 0.133858 
vt 0.568627 0.748031 
vt 0.854902 0.039370 
f 1/1/1 2/2/2 3/3/3
f 4/4/4 5/5/5 6/6/6
f 7/7/7 8/8/8 9/9/9
f 10/10/10 11/11/11 12/12/12
f 13/13/13 14/14/14 15/15/15
f 16/16/16 17/17/17 18/18/18
f 19/19/19 20/20/20 21/21/21
f 22/22/22 23/23/23 24/24/24
f 25/25/25 26/26/26 27/27/27
f 28/28/28 29/29/29 30/30/30
f 31/31/31 32/32/32 33/33/33
f 34/34/34 35/35/35 36/36/36
f 37/37/37 38/38/38 39/39/39
f 40/40/40 41/41/41 42/42/42
